<svg width="140" height="86" viewBox="0 0 140 86" fill="none" xmlns="http://www.w3.org/2000/svg">
<path d="M29.3999 78.5047L31.7837 82.4496C31.7837 82.4496 40.5244 86 67.5408 86C94.5573 86 108.066 81.2661 108.066 81.2661L110.449 76.5322L29.3999 78.5047Z" fill="url(#paint0_linear_20007_82878)"/>
<g style="mix-blend-mode:overlay" opacity="0.1">
<path d="M47.6758 78.1108H45.2919V84.8171C46.0865 84.8171 46.8812 84.8171 47.6758 85.2116V78.1108Z" fill="url(#paint1_linear_20007_82878)"/>
</g>
<g style="mix-blend-mode:overlay" opacity="0.1">
<path d="M82.2409 77.3212V85.6055C99.7222 84.422 108.065 81.2661 108.065 81.2661L110.449 76.5322L82.2409 77.3212Z" fill="url(#paint2_linear_20007_82878)"/>
</g>
<path d="M136.823 16.0259H75.6558H63.7403H2.57363L0.190491 16.4241V59.8247C0.190491 59.8247 0.190479 62.2137 2.97078 63.8064C5.75108 65.3991 30.7738 80.1315 30.7738 80.1315C30.7738 80.1315 46.6613 83.715 70.0953 83.715C93.5293 84.1132 109.417 80.1315 109.417 80.1315C109.417 80.1315 134.439 65.3991 137.22 63.8064C140 62.2137 140 59.8247 140 59.8247V16.0259H136.823Z" fill="url(#paint3_linear_20007_82878)"/>
<path d="M0 59.5679C0 59.5679 -1.20773e-05 61.9348 2.7811 63.5128C5.5622 65.0907 30.5922 79.6869 30.5922 79.6869C30.5922 79.6869 46.4843 83.2372 69.925 83.2372C93.3658 83.6317 109.258 79.6869 109.258 79.6869C109.258 79.6869 134.288 65.0907 137.069 63.5128C138.658 62.3293 139.453 61.1459 139.85 60.3569C52.841 83.6318 0 59.5679 0 59.5679Z" fill="url(#paint4_linear_20007_82878)"/>
<g style="mix-blend-mode:overlay" opacity="0.1">
<path d="M137.467 16.5693H97.7368L96.1476 69.0364L82.2421 83.238C98.9287 82.449 109.259 80.0822 109.259 80.0822C109.259 80.0822 134.289 65.486 137.07 63.9081C139.851 62.3301 139.851 59.9632 139.851 59.9632V16.5693H137.467Z" fill="url(#paint5_linear_20007_82878)"/>
</g>
<g style="mix-blend-mode:overlay" opacity="0.1">
<path d="M22.6462 66.275L22.2489 16.5693H9.93256L11.5217 63.5135L45.6897 82.449C46.8816 82.449 47.6762 82.8436 48.8681 82.8436V82.449L22.6462 66.275Z" fill="url(#paint6_linear_20007_82878)"/>
</g>
<path d="M139.85 16.5685C139.85 25.6418 108.463 33.926 69.925 33.926C31.3868 33.926 0 25.6418 0 16.5685C0 7.49529 31.3868 0 69.925 0C108.463 0 139.85 7.49529 139.85 16.5685Z" fill="url(#paint7_linear_20007_82878)"/>
<path d="M139.85 16.5685C139.85 25.6418 108.463 33.926 69.925 33.926C31.3868 33.926 0 25.6418 0 16.5685C0 7.49529 31.3868 0 69.925 0C108.463 0 139.85 7.49529 139.85 16.5685Z" fill="url(#paint8_linear_20007_82878)"/>
<path d="M134.685 22.8808C124.355 16.9634 99.3252 12.624 69.9249 12.624C40.5247 12.624 15.4947 16.9634 5.16486 22.8808C15.4947 29.1926 40.5247 33.9264 69.9249 33.9264C99.3252 34.3209 124.355 29.5871 134.685 22.8808Z" fill="url(#paint9_linear_20007_82878)"/>
<path d="M134.685 22.8808C124.355 16.9634 99.3252 12.624 69.9249 12.624C40.5247 12.624 15.4947 16.9634 5.16486 22.8808C15.4947 29.1926 40.5247 33.9264 69.9249 33.9264C99.3252 34.3209 124.355 29.5871 134.685 22.8808Z" fill="url(#paint10_radial_20007_82878)"/>
<g style="mix-blend-mode:overlay" opacity="0.2">
<path d="M39.73 27.6146C50.4572 28.0091 61.5816 27.6146 72.3087 26.0366C83.4332 24.4587 94.5576 22.4863 104.887 18.5414C106.874 17.7524 109.258 16.9634 111.642 15.78C100.12 13.8075 85.817 12.624 70.3222 12.624C45.2922 12.624 23.0434 15.7799 10.7271 20.5138C18.6731 26.0367 29.7975 27.2201 39.73 27.6146Z" fill="url(#paint11_linear_20007_82878)"/>
</g>
<path d="M69.925 0C31.3868 0 0 7.49529 0 16.5685C0 25.6418 31.3868 33.926 69.925 33.926C108.463 33.926 139.85 25.6418 139.85 16.5685C139.85 7.49529 108.463 0 69.925 0ZM69.925 33.1371C32.5787 33.1371 1.19192 25.2473 1.19192 16.5685C1.19192 7.88977 32.5787 0.788967 69.925 0.788967C107.271 0.788967 138.261 7.88977 138.261 16.5685C138.261 25.2473 106.874 33.1371 69.925 33.1371Z" fill="url(#paint12_linear_20007_82878)"/>
<path opacity="0.7" d="M28.6071 30.8006C28.6071 30.8006 29.0021 30.8005 29.7921 31.2109C30.1871 31.2109 30.5821 31.211 31.3721 31.6214C31.7671 31.6214 32.1622 31.6214 32.1622 31.6214C32.5572 31.6214 32.9522 31.6214 33.3472 31.6214C34.1372 31.6214 34.9273 32.0317 36.1123 32.0317C36.5073 32.0317 36.9023 32.0318 37.6923 32.4422C38.0873 32.4422 38.8773 32.4422 39.2723 32.4422C40.4574 32.4422 41.6424 32.8526 42.8275 32.8526C44.0125 32.8526 45.1975 33.263 46.7776 33.263C47.9626 33.263 49.5426 33.6734 51.1226 33.6734C51.9127 33.6734 52.7027 33.6734 53.4927 33.6734C54.2827 33.6734 55.0728 33.6734 55.8628 33.6734C59.0229 33.6734 62.183 34.0838 65.7381 34.0838C67.3181 34.0838 69.2931 34.0838 70.8732 34.0838C72.4532 34.0838 74.4283 34.0838 76.0083 34.0838C79.5634 34.0838 83.1185 33.6734 86.6736 33.6734C90.2287 33.263 93.7838 33.263 97.3389 32.8526C100.894 32.4422 104.449 32.0317 107.609 31.2109C109.189 30.8005 110.769 30.8005 112.349 30.3901C113.929 29.9797 115.509 29.5693 117.089 29.5693C120.25 28.7485 123.015 27.9277 125.385 27.1069C128.15 26.286 130.125 25.4652 132.495 24.234C133.68 23.8236 134.47 23.4132 135.26 22.5924C136.05 22.182 136.84 21.3612 137.63 20.9508C138.42 20.5403 138.815 19.7196 139.21 19.3091C139.605 18.8987 140 18.0779 140 17.6675V17.2571C140 17.2571 140 17.2571 140 16.8467C140 16.8467 140 16.8467 140 17.2571V17.6675C139.605 18.4883 138.815 19.7195 137.63 20.9508C136.84 21.3612 136.445 22.182 135.655 22.5924C134.865 23.0028 134.075 23.8236 132.89 24.234C130.915 25.4652 128.545 26.286 125.78 27.1069C123.015 27.9277 120.249 28.7485 117.484 29.5693C115.904 29.9797 114.324 30.3902 112.744 30.8006C111.164 31.211 109.584 31.6214 108.004 31.6214C104.844 32.0318 101.289 32.8526 97.7339 32.8526C94.1788 33.263 90.6237 33.6734 87.0686 33.6734C83.5135 34.0838 79.9584 34.0838 76.4033 34.0838C74.8233 34.0838 72.8482 34.0838 71.2682 34.0838C69.6882 34.0838 67.7131 34.0838 66.133 34.0838C65.343 34.0838 64.553 34.0838 63.763 34.0838C62.973 34.0838 62.183 34.0838 61.3929 34.0838C59.8129 34.0838 58.2329 34.0838 56.6528 33.6734C55.8628 33.6734 55.0728 33.6734 54.2827 33.6734C53.4927 33.6734 52.7027 33.6734 51.9127 33.6734C50.3327 33.6734 49.1476 33.263 47.5676 33.263C46.3825 33.263 44.8025 32.8526 43.6175 32.8526C42.4324 32.8526 41.2474 32.4422 40.0624 32.4422C39.6674 32.4422 38.8773 32.4421 38.4823 32.0317C38.0873 32.0317 37.2973 32.0318 36.9023 31.6214C36.1123 31.6214 34.9273 31.2109 34.1372 31.2109C33.7422 31.2109 33.3472 31.2109 32.9522 31.2109C32.5572 31.2109 32.1622 31.2109 32.1622 31.2109C31.3722 31.2109 30.9771 30.8006 30.5821 30.8006C29.0021 30.8006 28.6071 30.8006 28.6071 30.8006Z" fill="url(#paint13_linear_20007_82878)"/>
<path opacity="0.5" d="M10.3302 63.5127C10.3302 63.5127 58.4036 77.3198 110.847 66.6686C110.847 66.6686 61.9793 75.3474 10.3302 63.5127Z" fill="url(#paint14_linear_20007_82878)"/>
<path d="M57.2113 26.825C57.2113 27.2195 56.814 28.0084 55.6221 28.0084C54.8275 28.4029 53.6356 28.0085 53.6356 27.614C53.6356 27.2195 54.0329 26.4305 55.2248 26.4305C56.4167 26.036 57.2113 26.036 57.2113 26.825Z" fill="url(#paint15_radial_20007_82878)"/>
<path d="M74.6926 25.6414C74.6926 26.0359 73.898 26.8249 73.1034 26.8249C72.3088 26.8249 71.1169 26.8249 71.1169 26.4304C71.1169 26.0359 71.9115 25.2469 72.7061 25.2469C73.898 24.8524 74.6926 25.2469 74.6926 25.6414Z" fill="url(#paint16_radial_20007_82878)"/>
<path d="M37.3463 28.4033C37.3463 28.7978 36.949 29.5867 36.1544 29.9812C35.3598 30.3757 34.1679 30.3757 34.1679 29.9812C34.1679 29.5867 34.5652 28.7978 35.3598 28.4033C36.1544 28.0088 36.949 28.0088 37.3463 28.4033Z" fill="url(#paint17_radial_20007_82878)"/>
<path d="M37.3463 19.3296C37.3463 19.7241 36.949 20.1186 36.5517 20.1186C36.1544 20.5131 35.3598 20.1186 35.3598 20.1186C35.3598 19.7241 35.7572 19.3296 36.1545 19.3296C36.5518 18.9351 36.949 19.3296 37.3463 19.3296Z" fill="url(#paint18_radial_20007_82878)"/>
<path d="M60.3898 16.1742C60.3898 16.5687 59.9925 16.5688 59.5952 16.9633C59.1979 16.9633 58.4033 16.9632 58.4033 16.5688C58.4033 16.1743 58.8006 16.1743 59.1979 15.7798C59.9925 15.7798 60.3898 15.7797 60.3898 16.1742Z" fill="url(#paint19_radial_20007_82878)"/>
<path d="M78.2684 20.1186C78.2684 20.5131 77.8711 20.5131 77.4738 20.9076C77.0765 20.9076 76.2819 20.9076 76.2819 20.5131C76.2819 20.1186 76.6791 20.1186 77.0765 19.7241C77.8711 19.7241 78.2684 19.7241 78.2684 20.1186Z" fill="url(#paint20_radial_20007_82878)"/>
<path d="M50.06 28.4033C50.06 28.7978 49.6626 28.7978 49.2653 29.1923C48.868 29.1923 48.0735 29.1923 48.0735 28.7978C48.0735 28.4033 48.4708 28.4033 48.8681 28.0088C49.2654 28.0088 50.06 28.0088 50.06 28.4033Z" fill="url(#paint21_radial_20007_82878)"/>
<path d="M104.888 30.7705C104.888 31.165 104.49 31.165 104.093 31.5595C103.696 31.9539 102.901 31.5594 102.901 31.1649C102.901 30.7705 103.298 30.7705 103.696 30.376C104.49 30.376 104.888 30.376 104.888 30.7705Z" fill="url(#paint22_radial_20007_82878)"/>
<path d="M46.8815 17.7519C46.8815 18.1464 46.4842 18.1464 46.0869 18.5409C45.6896 18.5409 44.895 18.5409 44.895 18.1464C44.895 17.7519 45.2922 17.7519 45.6895 17.3574C46.4842 17.3574 46.8815 17.3574 46.8815 17.7519Z" fill="url(#paint23_radial_20007_82878)"/>
<path d="M78.2684 20.514C78.2684 20.9085 77.8711 20.9084 77.4738 21.3029C77.0765 21.3029 76.2819 21.303 76.2819 20.9085C76.2819 20.514 76.6791 20.5139 77.0765 20.1195C77.8711 19.725 78.2684 20.1195 78.2684 20.514Z" fill="url(#paint24_radial_20007_82878)"/>
<path d="M81.4467 16.5683C81.4467 16.9628 81.0494 16.9628 80.6521 17.3573C80.2548 17.3573 79.4602 17.3573 79.4602 16.9629C79.4602 16.5684 79.8575 16.5683 80.2548 16.1738C81.0494 16.1738 81.4467 16.5683 81.4467 16.5683Z" fill="url(#paint25_radial_20007_82878)"/>
<path d="M36.5518 29.1928C36.5518 29.5873 36.1545 29.5873 35.7572 29.9818C35.3599 29.9818 34.5652 29.9818 34.5652 29.5873C34.5652 29.1928 34.9625 29.1928 35.3598 28.7983C36.1544 28.7983 36.5518 28.7983 36.5518 29.1928Z" fill="url(#paint26_radial_20007_82878)"/>
<path d="M84.6251 25.6414C84.6251 26.0359 84.2278 26.0359 83.8305 26.4304C83.4332 26.4304 82.6385 26.4303 82.6385 26.0359C82.6385 25.6414 83.0358 25.6414 83.4331 25.2469C83.8304 24.8524 84.6251 25.2469 84.6251 25.6414Z" fill="url(#paint27_radial_20007_82878)"/>
<path d="M94.1605 22.8804C94.1605 23.2748 93.7632 23.2748 93.3659 23.6693C92.9686 23.6693 92.174 23.6693 92.174 23.2748C92.174 22.8803 92.5712 22.8803 92.9685 22.4858C93.7631 22.4858 94.1605 22.4859 94.1605 22.8804Z" fill="url(#paint28_radial_20007_82878)"/>
<path d="M112.833 24.8525C112.833 25.247 112.436 25.247 112.039 25.6415C111.642 25.6415 110.847 25.6415 110.847 25.247C110.847 24.8525 111.244 24.8525 111.642 24.458C112.039 24.458 112.436 24.458 112.833 24.8525Z" fill="url(#paint29_radial_20007_82878)"/>
<path d="M107.669 16.9629C107.669 17.3574 107.271 17.7518 106.477 17.7518C105.682 17.7518 105.285 17.7518 105.285 17.3573C105.285 16.9628 105.682 16.5684 106.477 16.5684C106.874 16.5684 107.669 16.5684 107.669 16.9629Z" fill="url(#paint30_radial_20007_82878)"/>
<path d="M17.0839 21.302C17.0839 21.6965 16.6866 22.091 15.4947 22.091C14.7001 22.091 13.9055 22.091 13.9055 21.6965C13.9055 21.302 14.3028 20.9076 15.4947 20.9076C16.2893 20.5131 17.0839 20.9075 17.0839 21.302Z" fill="url(#paint31_radial_20007_82878)"/>
<path d="M67.541 28.4038C67.1437 28.4038 66.7464 28.7983 66.3491 29.1928C65.5545 29.1928 64.3626 30.7708 65.1572 30.7708C65.5545 30.7708 65.9518 30.7707 65.9518 30.3763C65.5545 30.7707 66.3491 29.9817 66.3491 29.9817C66.7464 29.9817 67.1437 29.5873 67.541 29.1928C67.541 29.1928 67.9383 28.4038 67.541 28.4038Z" fill="#A5BF28"/>
<path d="M21.4535 22.4863C21.0562 22.4863 20.2616 22.8808 19.8643 22.8808C19.467 23.2753 19.0697 23.6698 19.0697 24.0643C19.0697 24.4588 19.0697 24.8533 19.467 24.4588C19.8643 24.0643 20.2616 24.0643 20.6589 24.0643C21.0562 24.0643 21.4535 23.2753 21.8508 22.8808C21.8508 22.8808 21.8508 22.4863 21.4535 22.4863Z" fill="#A5BF28"/>
<path d="M44.8947 26.8262C44.1001 26.8262 42.9082 27.2206 42.1136 27.2206C41.7163 27.2206 41.319 28.0096 40.9217 28.4041C40.9217 28.7986 40.5243 29.1931 41.3189 29.1931C42.1135 29.1931 43.3055 28.7986 44.1001 28.7986C44.4974 28.7986 44.8946 28.0096 45.2919 27.6151C44.8946 27.6151 45.292 26.8262 44.8947 26.8262Z" fill="#A5BF28"/>
<path d="M46.0877 20.1191C45.2931 20.5136 44.4985 21.3026 43.3066 21.3026C42.9093 21.3026 42.512 22.0916 42.1147 22.4861C42.1147 22.8806 41.7174 23.2751 42.512 23.2751C43.7039 22.8806 44.4985 22.4861 45.6904 21.6971C46.0877 21.3026 46.485 20.9081 46.485 20.5137C46.8823 20.1192 46.485 20.1191 46.0877 20.1191Z" fill="#A5BF28"/>
<path d="M30.5923 23.6694C30.195 23.6694 29.4005 24.0639 29.0032 24.0639C28.2086 24.0639 27.0166 25.6419 27.8112 25.6419C28.6058 25.6419 29.0031 25.6419 29.7977 25.2474C30.195 25.2474 30.5924 24.8529 30.9897 24.0639C30.9897 24.4584 30.9896 23.6694 30.5923 23.6694Z" fill="#A5BF28"/>
<path d="M30.5926 16.5688C30.1953 16.1743 30.5926 16.1743 30.5926 16.5688C30.1953 16.5688 29.798 16.5688 29.798 16.5688C29.4007 16.5688 29.0034 16.9633 28.6061 17.3578C28.6061 17.3578 28.2088 17.7523 28.2088 18.1467V18.5413C28.6061 18.5413 28.6061 18.5413 29.0034 18.5413C29.0034 18.5413 29.0034 18.5413 29.4007 18.5413C29.798 18.5413 30.1953 18.1468 30.5926 17.3578C30.5926 16.9633 30.5926 16.5688 30.5926 16.5688Z" fill="#A5BF28"/>
<path d="M66.7474 12.6246C66.3501 12.6246 65.9528 12.6246 65.5555 12.6246C65.1582 12.6246 64.7609 13.0191 64.3636 13.4136C64.3636 13.4136 63.9663 14.2026 64.3636 14.2026C64.7609 14.2026 65.5555 14.2026 65.9528 13.8081C66.3501 13.8081 66.7474 13.4136 67.1447 12.6246C67.1447 13.0191 67.1447 12.2301 66.7474 12.6246Z" fill="#A5BF28"/>
<path d="M71.9115 20.1206C71.9115 19.7261 71.9115 19.7261 71.9115 20.1206C71.1169 20.1206 70.7196 20.5151 70.3223 20.5151C69.925 20.9096 69.5277 21.3041 69.5277 21.6986C69.5277 22.0931 69.925 22.0931 70.3223 21.6986C70.7196 21.6986 71.1169 21.3041 71.5142 20.5151C71.9115 20.5151 71.9115 20.1206 71.9115 20.1206Z" fill="#A5BF28"/>
<path d="M91.3789 27.6143C90.9816 27.6143 90.5843 28.0087 90.5843 28.0087C90.187 28.0087 89.7897 28.4032 89.7897 28.4032C89.3924 28.4032 88.9951 28.7977 88.5978 29.5867C88.5978 29.9812 88.2005 30.3757 88.9951 30.3757C89.3924 30.3757 89.7897 29.9812 90.187 29.9812C90.5843 29.9812 90.9816 29.5867 91.3789 29.5867C91.7762 29.1922 92.1735 28.7977 92.1735 28.4032C92.1735 27.6142 91.7762 27.6143 91.3789 27.6143Z" fill="#A5BF28"/>
<path d="M101.312 24.8535H100.915C100.915 24.8535 100.915 24.8535 100.518 24.8535C100.12 24.8535 99.723 25.248 99.3257 26.0369C99.3257 26.4314 98.9284 26.826 99.723 26.826C100.12 26.826 100.12 26.4314 100.518 26.4314C100.915 26.037 101.312 25.6425 101.312 25.248V24.8535Z" fill="#A5BF28"/>
<path d="M94.5573 13.4141C93.7627 13.8086 92.5708 14.2031 91.7762 14.5975C91.3789 14.992 90.9816 15.3865 90.9816 15.781C90.9816 16.1755 91.3789 16.1755 91.7762 15.781C92.5708 15.3865 93.3654 14.992 94.16 14.5975C94.5573 14.5975 94.9546 13.8086 94.9546 13.4141C95.3519 13.4141 94.9546 13.4141 94.5573 13.4141Z" fill="#A5BF28"/>
<path d="M119.985 20.5142H117.998C117.601 20.5142 117.203 20.9086 116.806 21.3031C116.806 21.3031 116.409 22.0921 116.806 22.0921H118.793C119.19 22.0921 119.587 21.6976 119.985 21.3031C119.985 21.3031 120.382 20.5142 119.985 20.5142Z" fill="#A5BF28"/>
<path d="M81.0488 29.5864C80.6515 29.5864 79.8569 29.9809 79.4596 29.9809C79.0623 29.9809 78.6651 30.3754 77.8705 30.3754C77.0759 30.3754 75.8839 31.9533 76.6785 31.9533C77.0758 31.9533 77.4731 31.9534 78.2677 31.5589C79.0623 31.1644 79.4596 31.1644 80.2542 31.1644C80.6515 31.1644 81.0488 30.3754 81.4461 29.9809C81.4461 29.9809 81.4461 29.5864 81.0488 29.5864Z" fill="#A5BF28"/>
<path d="M108.065 26.8256C108.065 26.8256 108.463 26.0366 108.065 26.0366C107.668 26.0366 107.271 26.4312 106.874 26.8256C106.874 27.2201 106.476 27.2201 106.476 27.6146C106.476 27.6146 106.476 27.6146 106.476 28.0091C106.476 28.4036 105.682 28.7981 106.079 29.1925C106.476 29.587 106.874 28.7981 107.271 28.7981C107.668 28.4036 107.668 28.4036 107.668 28.0091C108.065 26.8256 108.065 26.8256 108.065 26.8256Z" fill="#A5BF28"/>
<path d="M104.092 13.4141C103.298 13.4141 102.503 13.4141 101.709 13.4141C100.914 13.4141 99.722 14.9921 100.517 14.9921C101.311 14.9921 102.106 14.9921 102.9 14.9921C103.298 14.9921 103.695 14.5975 104.092 14.203C104.092 14.203 104.49 13.4141 104.092 13.4141Z" fill="#A5BF28"/>
<path d="M91.3793 28.0093C91.3793 28.0093 90.982 28.0093 90.982 28.4038C90.982 28.4038 90.982 28.4038 90.5847 28.4038C90.1874 28.4038 89.3928 29.1928 89.7901 29.5873H90.1874H90.5847C90.982 29.5873 90.982 29.1928 91.3793 28.7983C91.3793 28.0093 91.7766 28.0093 91.3793 28.0093Z" fill="#CBDB56"/>
<path d="M94.1596 13.8067C93.7623 13.8067 93.7623 14.2011 93.365 14.2011C92.9677 14.2011 92.9677 14.5957 92.5704 14.9902V15.3846C92.9677 15.3846 93.365 14.9901 93.7623 14.5956C94.1597 14.5956 94.1596 14.2012 94.1596 13.8067Z" fill="#CBDB56"/>
<path d="M104.093 13.4141C103.696 13.4141 103.298 13.4141 102.504 13.4141C102.106 13.4141 101.312 14.2031 101.709 14.5975C102.106 14.5975 102.901 14.5975 103.298 14.5975C103.696 14.5975 103.696 14.2031 104.093 13.8086C104.49 13.8086 104.49 13.4141 104.093 13.4141Z" fill="#CBDB56"/>
<path d="M119.986 20.9092C119.588 20.9092 119.191 20.9092 118.794 20.9092C118.396 20.9092 118.397 21.3037 117.999 21.3037C117.999 21.3037 117.602 21.6982 117.999 21.6982C118.397 21.6982 118.794 21.6982 119.191 21.6982C119.588 21.6982 119.588 21.3037 119.986 20.9092Z" fill="#CBDB56"/>
<path d="M108.861 25.2485C108.463 25.2485 108.463 25.643 108.066 26.0375C108.066 26.0375 108.066 26.432 107.669 26.432L107.271 26.8265C107.271 26.8265 106.874 27.221 107.271 27.221C107.669 27.221 107.669 26.8265 108.066 26.8265C108.066 26.8265 108.066 26.8265 108.463 26.432C108.463 26.0375 108.861 26.0375 108.861 25.643V25.2485Z" fill="#CBDB56"/>
<path d="M81.0491 29.5864C80.6518 29.5864 79.8572 29.5864 79.4599 29.9809C79.0626 29.9809 79.0626 30.3754 79.0626 30.7699C79.0626 31.1644 79.0626 31.1644 79.4599 31.1644C79.8572 31.1644 80.2545 30.7699 80.6518 30.7699C81.0491 30.7699 81.0491 30.3754 81.4464 30.3754C81.0491 30.3754 81.4464 29.5864 81.0491 29.5864Z" fill="#CBDB56"/>
<path d="M67.5416 28.4038H66.747C66.3497 28.4038 66.3498 28.7983 65.9525 28.7983C65.9525 28.7983 65.5552 29.1928 65.9525 29.1928H66.747C67.1443 29.1928 67.1443 28.7983 67.5416 28.7983C67.5416 28.7983 67.9389 28.4038 67.5416 28.4038Z" fill="#CBDB56"/>
<path d="M71.5134 20.1197C71.5134 20.1197 71.1161 20.1197 71.1161 20.5142C71.1161 20.5142 70.7188 20.9087 70.7188 21.3031C70.7188 21.6976 71.1161 21.3031 71.1161 21.3031C71.1161 21.3031 71.1161 21.3032 71.5134 20.9087C71.5134 20.5142 71.5134 20.5142 71.5134 20.1197C71.9107 20.1197 71.5134 19.7252 71.5134 20.1197Z" fill="#CBDB56"/>
<path d="M66.747 12.6245C66.747 12.6245 66.3497 12.6245 66.3497 13.019C65.9524 13.019 65.9524 13.4135 65.9524 13.808C65.9524 14.2025 65.9524 14.2024 66.3497 14.2024C66.3497 14.2024 66.747 14.2025 66.747 13.808C66.747 13.4135 66.747 13.019 66.747 12.6245Z" fill="#CBDB56"/>
<path d="M44.8943 27.2217C44.497 27.2217 44.0997 27.2217 43.7024 27.2217C43.3051 27.2217 43.3051 27.6162 42.9078 27.6162C42.9078 27.6162 42.5105 28.0106 42.9078 28.0106C43.3051 28.0106 43.7024 28.0106 44.0997 28.0106C44.497 28.0106 44.497 27.6162 44.8943 27.2217Z" fill="#CBDB56"/>
<path d="M46.0862 20.5142C45.6889 20.5142 45.6889 20.9087 45.2916 20.9087C44.8943 20.9087 44.8943 21.3032 44.8943 21.6977C44.8943 22.0922 45.2916 21.6977 45.2916 21.6977C45.6889 21.6977 45.6889 21.3032 46.0862 21.3032C46.4835 21.3032 46.4835 20.9087 46.4835 20.5142C46.4835 20.1197 46.0862 20.5142 46.0862 20.5142Z" fill="#CBDB56"/>
<path d="M30.1946 24.0645C29.7973 24.4589 30.1946 24.4589 30.1946 24.0645C29.7973 24.0645 29.3999 24.459 29.3999 24.8535V25.2479H29.7972C30.1945 25.2479 30.1945 24.8535 30.5918 24.459C30.5918 24.459 30.5919 24.0645 30.1946 24.0645Z" fill="#CBDB56"/>
<path d="M21.0573 22.4863C21.0573 22.4863 20.66 22.4864 20.66 22.8808C20.2627 22.8808 20.2628 23.2753 20.2628 23.6698C20.2628 24.0643 20.66 23.6698 20.66 23.6698C21.0573 23.6698 21.0573 23.2753 21.4546 23.2753C21.0573 23.2753 21.4546 22.4863 21.0573 22.4863Z" fill="#CBDB56"/>
<path d="M29.7968 16.5693C29.3995 16.9638 29.0023 17.3583 29.0023 17.3583C29.0023 17.7528 29.3995 17.3583 29.3995 17.3583C29.3995 17.3583 29.3995 17.3583 29.7968 17.3583C30.1941 17.3583 30.1942 16.9638 30.1942 16.5693H29.7968Z" fill="#CBDB56"/>
<path d="M100.914 24.8535C100.517 24.8535 100.517 25.248 100.12 25.248C100.12 25.248 100.12 25.248 99.7226 25.248C99.3253 25.248 99.3253 25.6424 99.3253 26.0369C99.3253 26.4314 99.7226 26.0369 99.7226 26.0369C99.7226 26.0369 100.12 26.037 100.12 25.6425C100.517 25.6425 100.517 25.248 100.517 24.8535C100.915 25.248 101.312 24.8535 100.914 24.8535Z" fill="#CBDB56"/>
<path d="M74.6923 28.0098C75.4869 28.0098 76.6788 27.6153 77.4734 27.6153C77.0761 27.2208 77.0761 27.2209 76.6788 26.8264C76.2815 26.4319 75.8842 26.4318 75.8842 26.0373C75.4869 25.6428 75.0896 25.6429 74.6923 25.6429C74.295 25.6429 74.295 25.6429 73.8977 25.2484H73.5004C73.5004 25.2484 73.5003 25.2484 73.103 25.2484C73.5003 25.2484 73.8977 24.8539 74.295 24.8539L73.8977 24.4594C73.5004 24.0649 73.1031 24.0649 72.3085 24.0649C71.9111 24.0649 71.9112 24.0649 71.5139 24.0649C71.1166 24.0649 71.1166 24.0649 70.7193 24.0649C71.1166 23.6704 71.5139 23.6704 71.9112 23.2759C71.9112 23.2759 71.5139 23.276 71.5139 22.8815C71.1166 22.8815 70.7192 22.8814 70.3219 22.487C70.3219 22.487 70.7192 22.0925 71.1165 21.698C71.1165 21.3035 71.5139 20.909 71.5139 20.5145H71.1165C71.1165 20.5145 71.1166 20.12 71.5139 20.12C71.5139 20.12 71.5139 20.12 71.5139 19.7255C71.5139 19.7255 71.5139 19.7255 71.5139 19.331C71.5139 18.9365 71.9112 18.9366 71.9112 18.5421V18.1475C71.5139 18.1475 71.5138 18.1476 71.1165 18.5421C71.5138 17.7531 71.9111 17.3586 72.3085 16.9641L72.7058 16.5696C72.3085 16.5696 72.3085 16.5696 71.9112 16.9641C72.3085 16.1751 73.1031 15.3861 73.5004 14.5972C72.7058 14.5972 72.3085 14.5972 71.5139 14.5972C71.1166 14.5972 70.7192 14.9917 70.3219 14.9917L69.9247 15.3861C69.9247 15.3861 69.5274 15.3862 69.5274 15.7806C69.5274 15.7806 69.5273 15.7806 69.13 15.7806C69.13 15.3862 69.5274 14.9917 69.5274 14.9917C69.5274 14.9917 69.5273 14.9917 69.13 14.9917C68.7327 14.9917 68.7327 14.9917 68.3354 14.9917C67.9381 14.9917 67.9382 15.3861 67.5409 15.3861L67.1435 15.7806L66.7463 16.1751L66.3489 16.5696C66.3489 16.1751 66.3489 15.7806 66.3489 15.3861C66.3489 15.3861 65.9517 15.3862 65.9517 15.7806C65.5544 15.7806 65.5543 16.1751 65.157 16.5696C64.7597 16.9641 64.7597 16.9641 64.3624 17.3586C64.3624 16.9641 64.3624 16.9641 64.3624 16.5696C64.3624 16.5696 63.9652 16.5696 63.9652 16.9641C63.5679 17.3586 63.1705 17.3586 63.1705 17.7531C63.1705 18.1476 62.7732 18.1476 62.7732 18.5421C62.7732 18.5421 62.7732 18.5421 62.7732 18.9366V19.331V19.7255V20.12V20.5145V20.909C62.3759 20.5145 62.376 19.7255 61.9787 19.331C61.9787 19.7255 61.9786 20.12 61.5813 20.5145V20.909V21.3035C61.5813 21.698 61.5813 22.487 61.184 22.8815C61.184 23.6704 61.184 24.0649 61.5813 24.8539C61.5813 25.6429 61.9786 26.0374 62.7732 26.4318C62.3759 26.8263 62.376 27.2208 61.9787 27.6153C60.7868 27.6153 59.9921 27.6153 59.1975 27.2208C59.1975 27.2208 59.1975 27.2208 58.8002 27.2208C58.4029 28.0098 59.5949 28.0098 59.9922 28.4043C60.3895 28.4043 60.7867 28.4043 61.184 28.4043C60.7867 28.7988 60.3895 28.7988 59.9922 29.1933C59.9922 29.1933 59.9922 29.1933 59.9922 29.5878C60.3895 30.3768 61.184 29.5878 61.5813 29.1933C61.9786 28.7988 61.9786 28.7988 62.3759 28.4043H62.7732C62.7732 28.7988 62.7732 28.7988 63.1705 29.1933C63.5678 30.3767 64.7598 31.5602 65.9517 32.3492C66.349 32.7437 66.7462 33.1382 67.1435 33.1382C67.5408 33.1382 67.9381 33.5327 68.3354 33.5327C68.7327 33.5327 69.13 33.5327 69.13 33.5327H69.5274H69.9247H70.3219L69.9247 33.1382H70.3219C70.7192 33.1382 71.1166 33.1382 71.5139 33.1382C71.9112 33.1382 72.3085 33.1382 72.7058 33.1382C73.1031 33.1382 73.5004 32.7437 73.8977 32.3492C73.8977 32.3492 73.8977 31.9547 73.5004 31.9547H73.8977C73.8977 31.9547 73.8977 31.9547 74.295 31.9547C74.295 31.9547 74.295 31.9547 74.6923 31.9547C75.0896 31.9547 75.0896 31.9547 75.4869 31.9547L75.8842 31.5602C75.4869 31.1657 75.4868 31.1657 75.0895 31.1657C75.8841 31.1657 76.6788 30.7713 77.0761 30.7713C77.0761 30.7713 77.4734 30.7713 77.8707 30.7713V30.3767C75.4869 28.0098 75.0896 28.0098 74.6923 28.0098ZM59.9922 25.6429C59.9922 26.0374 59.9922 26.0374 59.9922 25.6429V25.6429Z" fill="#A5BF28"/>
<path d="M61.5824 21.6978C60.3905 23.2757 59.1986 24.8537 57.6094 25.6426C58.0067 26.4316 58.8013 25.6426 59.1986 25.2481C59.9932 24.8536 60.7878 23.2757 61.5824 21.6978Z" fill="#087830"/>
<path d="M69.1311 22.0918C68.7338 22.0918 68.7338 22.0918 68.3365 22.0918C68.7338 21.6974 69.1311 21.6974 69.1311 21.3029C69.1311 21.3029 69.5284 20.9084 69.9257 20.5139C69.9257 20.1194 70.323 19.7249 70.323 19.3304H69.9257C70.323 18.9359 70.7203 18.5415 70.7203 17.7525C70.7203 17.358 70.7203 17.358 70.7203 16.9635C70.323 16.9635 70.323 16.9635 69.9257 17.358C70.323 16.569 70.7203 15.7801 71.1176 14.9911C70.7203 14.9911 70.7203 14.991 70.323 15.3855C70.7203 14.5966 71.1176 13.8076 71.9122 13.4131C71.1176 13.4131 70.7203 13.4131 69.9257 13.4131C69.1311 13.8076 68.3365 14.2021 67.5419 14.5966C67.5419 14.2021 67.9392 13.8076 67.9392 13.8076C67.5419 13.8076 67.1446 13.8076 67.1446 13.8076C66.35 14.2021 65.5554 14.5966 64.7608 15.3855C64.7608 14.991 64.7608 14.5965 64.7608 14.2021C64.7608 14.2021 64.3635 14.2021 64.3635 14.5966C63.5689 14.9911 63.1716 15.78 62.377 16.569C62.377 16.1745 62.377 16.1745 62.377 15.78C61.9797 16.1745 61.5823 16.569 61.185 16.9635C60.7877 17.7525 60.3904 18.5415 60.3904 19.7249C59.9931 19.3305 59.9932 18.5414 59.5959 18.1469C59.1986 19.3304 59.1986 20.1194 58.8013 21.3029C58.8013 22.0919 58.8012 22.4863 59.1985 23.2753C59.5958 24.4588 59.9932 24.8533 61.5824 25.6423C62.7743 26.0368 64.3635 26.0368 65.5554 25.6423C65.9527 25.6423 66.35 25.6423 66.7473 25.2478C67.1446 25.2478 67.5419 24.8533 67.9392 24.8533C68.3365 22.8809 68.7338 22.4863 69.1311 22.0918Z" fill="#6AB42D"/>
<path d="M69.1312 21.6983C68.7339 21.6983 68.7339 21.6983 68.3366 21.6983C68.7339 21.3038 69.1312 21.3038 69.1312 20.9093C69.1312 20.9093 69.5285 20.5148 69.9258 20.1203C69.9258 19.7258 70.3231 19.3314 70.3231 18.9369H69.9258C70.3231 18.5424 70.7204 18.1479 70.7204 17.3589C70.7204 16.9644 70.7204 16.9644 70.7204 16.5699C70.3231 16.5699 70.3231 16.5699 69.9258 16.9644C70.3231 16.1754 70.7204 15.3864 71.1177 14.5975C70.7204 14.5975 70.7204 14.5975 70.3231 14.992C70.7204 14.203 71.1177 13.8085 71.9123 13.0195C69.1312 13.8085 66.7474 15.7809 64.7609 17.7534C62.7744 19.3313 61.1852 21.3038 60.3906 23.6707C60.7879 24.0652 61.1852 24.0652 61.5825 24.0652C62.7744 24.4597 64.3636 24.4597 65.5555 24.0652C65.9528 24.0652 66.3501 24.0652 66.7474 23.6707C67.1447 23.6707 67.542 23.2762 67.9393 23.2762C68.3366 22.8817 68.7339 22.4873 69.1312 21.6983C69.1312 22.0928 69.1312 22.0928 69.1312 21.6983Z" fill="#399830"/>
<path d="M66.35 22.0924C67.1446 22.4869 67.9393 22.0924 68.7339 21.6979C69.1312 21.3034 69.1312 21.3035 69.5285 20.909C69.5285 20.909 69.9257 20.5144 70.323 20.1199C70.323 19.7255 70.7204 19.331 70.7204 18.9365C69.5285 20.5145 67.9392 21.6979 66.35 22.0924Z" fill="#6AB42D"/>
<path d="M67.1446 19.7253C67.9392 19.7253 69.1311 19.3308 70.323 18.5418C70.7203 18.1473 70.7203 17.7528 71.1176 17.3583V16.9639C69.9257 18.1473 68.7338 18.9363 67.1446 19.7253Z" fill="#6AB42D"/>
<path d="M67.9393 17.7531C68.3366 17.7531 68.7338 17.7531 69.1311 17.7531C69.5284 17.7531 69.9257 17.3586 70.323 16.9641C70.7203 16.1752 71.1177 15.3862 71.515 14.9917C70.7204 15.7807 69.9257 16.5697 69.1311 16.9641C68.7338 16.9641 67.9393 17.7531 67.9393 17.7531Z" fill="#6AB42D"/>
<path d="M62.3771 16.9635C63.1717 15.7801 63.9663 14.5966 65.1582 13.4131C65.1582 13.4131 64.7609 13.4131 64.7609 13.8076C64.3636 14.2021 63.569 14.5966 63.1717 15.3855C62.7744 15.78 62.3771 16.569 62.3771 16.9635Z" fill="#6AB42D"/>
<path d="M64.7607 15.3864C65.5553 14.203 66.7473 13.8085 67.9392 13.0195C67.5419 13.0195 67.5418 13.0195 67.1445 13.0195C66.3499 13.414 65.5553 13.8085 64.7607 14.5975C65.158 14.992 64.7607 15.3864 64.7607 15.3864Z" fill="#6AB42D"/>
<path d="M67.5419 14.5975C68.3365 14.203 68.7338 13.8085 69.5284 13.414C69.9257 13.0195 70.7203 13.0195 71.1176 13.0195C70.7203 13.0195 70.3231 13.0195 69.9258 13.0195C69.1312 13.414 68.3366 13.8085 67.9393 14.203C67.9393 14.203 67.5419 14.203 67.5419 14.5975Z" fill="#6AB42D"/>
<path d="M60.7878 19.331C60.7878 17.7531 61.1851 16.1752 62.377 14.9917C61.9797 15.3862 61.5824 15.3862 61.5824 15.7807C61.1851 16.5696 60.7878 17.3586 60.7878 18.5421C60.3905 18.5421 60.3905 18.9366 60.7878 19.331Z" fill="#6AB42D"/>
<path d="M61.185 23.2761C60.7877 23.2761 60.7877 23.2761 61.185 23.2761C61.185 22.4871 61.5824 22.0927 61.5824 21.6982C61.9797 20.9092 62.7742 20.1202 63.1715 19.3312C63.9661 18.1478 65.1581 17.3588 65.9527 16.1753C65.1581 16.5698 64.7608 17.3588 63.9662 17.7533C62.377 18.9368 60.7878 20.5147 59.9932 22.4871H59.5959C58.8013 20.9092 58.8012 18.9367 59.1985 17.3588C58.8012 18.1478 58.8013 18.9368 58.8013 19.7257C58.8013 20.5147 58.8012 20.9092 59.1985 21.6982C59.5958 22.8816 59.9932 23.2761 61.5824 24.0651C62.7743 24.4596 64.3635 24.4596 65.5554 24.0651C65.9527 24.0651 66.35 24.0651 66.7473 23.6706C67.1446 23.6706 67.5419 23.2761 67.9392 23.2761C68.3365 22.8816 68.7338 22.4871 69.1311 22.0926C66.7473 23.6706 63.5688 23.6706 61.185 23.2761Z" fill="#6AB42D"/>
<path d="M62.377 14.9917C61.5824 16.5697 61.1851 18.1476 61.1851 19.7256C61.5824 18.1476 61.9797 16.5697 62.377 14.9917Z" fill="#399830"/>
<path d="M64.7608 13.8076C63.9662 14.9911 63.1716 16.569 63.1716 18.147C63.5689 16.569 63.9662 14.9911 64.7608 13.8076Z" fill="#399830"/>
<path d="M67.5419 13.4131C66.7473 14.2021 65.9527 14.991 65.5554 16.1745C66.35 14.991 66.7473 14.2021 67.5419 13.4131Z" fill="#399830"/>
<path d="M70.7203 14.9917C69.1311 15.7807 67.5419 16.5696 65.9527 16.5696C67.5419 16.5696 69.5284 16.1752 70.7203 14.9917Z" fill="#6AB42D"/>
<path d="M70.3231 17.3589C69.5285 17.7534 68.3366 18.5424 67.1447 18.5424C66.7474 18.5424 65.9528 18.5424 65.5555 18.5424C65.1582 18.5424 64.3636 18.5424 64.3636 18.5424C64.7609 18.9369 66.3501 18.9369 66.7474 18.9369C68.3366 18.5424 69.5285 17.7534 70.3231 17.3589C70.7204 17.3589 70.7204 17.3589 70.3231 17.3589Z" fill="#6AB42D"/>
<path d="M65.9527 20.5145C65.5554 20.5145 64.7607 20.5145 64.3634 20.5145C63.9661 20.5145 63.1715 20.5145 62.7742 20.12C63.5688 20.5145 65.158 20.5145 65.9527 20.5145Z" fill="#6AB42D"/>
<path d="M68.7338 22.0928C67.5419 22.8818 66.35 22.8818 65.1581 22.8818C64.7608 22.8818 61.1851 22.8818 61.5824 22.8818C62.377 23.2763 63.9662 23.2763 65.1581 23.2763C65.9527 23.2763 67.1446 22.8818 68.7338 22.0928Z" fill="#6AB42D"/>
<path d="M59.5959 18.9359C59.5959 19.3304 59.5959 19.3304 59.5959 18.9359C59.5959 19.7249 59.5959 20.1194 59.5959 20.5139C59.5959 20.9083 59.9932 21.3028 59.9932 21.6973C59.9932 20.5139 59.5959 19.3304 59.5959 17.7524C59.5959 18.5414 59.5959 18.5414 59.5959 18.9359Z" fill="#6AB42D"/>
<path d="M62.377 14.9917C61.9797 15.3862 61.5824 16.1751 61.5824 16.5696C61.5824 16.5696 61.5824 16.5696 61.9797 16.5696C61.9797 16.1751 61.9797 15.7807 62.377 14.9917Z" fill="#6AB42D"/>
<path d="M64.7608 14.2031C64.3635 14.5976 63.9661 15.3866 63.5688 15.7811H63.9662C64.3635 15.3866 64.7608 14.5976 64.7608 14.2031Z" fill="#6AB42D"/>
<path d="M69.131 16.5697C69.5283 16.5697 69.5283 16.1752 69.9256 16.1752L70.3229 15.7807C70.3229 15.7807 70.3229 15.7807 70.3229 15.3862C69.9256 15.7807 69.131 16.1752 69.131 16.5697Z" fill="#6AB42D"/>
<path d="M68.3365 20.1201C67.9392 20.5146 67.542 20.5147 67.542 20.9091C67.1447 21.3036 66.7473 21.3036 66.35 21.6981C66.7473 21.6981 66.7473 21.6981 67.1446 21.6981C67.5419 21.3036 67.9392 20.9091 68.3365 20.1201C68.3365 20.5146 68.3365 20.5146 68.3365 20.1201Z" fill="#6AB42D"/>
<path d="M59.9932 23.6699C59.5959 24.0644 59.1986 24.4589 58.8013 24.8534C58.404 25.2479 58.0067 25.2479 57.6094 25.6424C58.404 25.6424 59.5959 24.8534 59.9932 23.6699Z" fill="#6AB42D"/>
<path d="M62.3771 24.4599C60.3905 24.4599 58.404 24.8544 56.4175 24.0654C56.4175 24.0654 56.4176 24.0654 56.0203 24.0654C55.623 24.8544 56.8148 24.8545 57.2121 24.8545C59.1986 25.2489 60.7879 24.8544 62.3771 24.4599Z" fill="#087830"/>
<path d="M67.5421 30.3772C67.5421 29.9827 67.1447 29.9827 67.1447 29.5882C67.542 29.5882 67.9394 29.5882 68.3367 29.5882C68.3367 29.5882 69.1313 29.5882 69.5286 29.5882C69.9259 29.5882 70.3232 29.1937 70.7205 28.7992C70.7205 28.7992 70.7205 28.4047 70.3232 28.4047C70.7205 28.4047 71.5151 28.4047 71.9124 28.0102L72.3097 27.6158C71.9124 27.2213 71.9124 27.2213 71.5151 27.2213C72.3097 26.8268 73.5016 26.8268 74.2962 26.8268V26.4323C73.8989 26.4323 73.8989 26.0378 73.5016 26.0378C74.2962 26.0378 75.0908 25.6433 76.2827 25.6433C75.8854 25.2488 75.4881 24.8543 74.6935 24.4598C73.8989 24.0653 73.1043 23.6709 71.9124 23.6709C72.3097 23.6709 72.707 23.2764 73.1043 23.2764C72.707 22.8819 72.707 22.8819 72.3097 22.4874C71.5151 22.0929 70.3232 22.0929 69.5286 22.0929C69.9259 21.6984 70.3232 21.6984 70.7205 21.3039C70.7205 21.3039 70.7205 21.3039 70.7205 20.9095C70.7205 20.9095 70.3232 20.9094 70.3232 20.5149C69.5286 20.1205 68.734 20.1205 67.5421 20.5149C67.9394 20.5149 67.9394 20.1204 68.3367 20.1204C68.3367 20.1204 68.3367 20.1205 68.3367 19.726C67.9394 19.726 67.1448 19.3315 66.7475 19.3315C65.9529 19.3315 64.761 20.1205 63.9664 20.5149C64.3637 20.1205 64.3636 19.3315 64.3636 18.937C63.1717 19.3315 62.3771 20.1205 61.5825 20.5149C61.1852 20.9094 60.7879 21.3039 60.3906 22.0929C59.596 22.8819 59.596 24.0653 60.3906 25.2488C60.7879 26.4323 61.9798 27.6158 63.1717 28.4047C63.569 28.7992 63.9663 28.7992 64.3636 29.1937C64.7609 29.1937 65.1583 29.5882 65.5556 29.5882C66.3502 30.3772 66.7475 30.3772 67.5421 30.3772Z" fill="#6AB42D"/>
<path d="M67.5421 30.3762L67.1448 29.9817C67.5421 29.9817 67.9394 29.9817 68.3367 29.9817C68.3367 29.9817 69.1313 29.9817 69.5286 29.9817C69.9259 29.9817 70.3232 29.5872 70.7205 29.1927C70.7205 29.1927 70.7205 28.7983 70.3232 28.7983C70.7205 28.7983 71.5151 28.7983 71.9124 28.4038L72.3097 28.0093C71.9124 27.6148 71.9124 27.6148 71.5151 27.6148C72.3097 27.2203 73.5016 27.2203 74.2962 27.2203V26.8258C73.8989 26.8258 73.8989 26.4313 73.5016 26.4313C74.2962 26.4313 75.0908 26.0368 75.8854 26.0368C73.5016 24.4589 69.9259 24.0644 67.1448 23.6699C64.3636 23.6699 61.9798 23.6699 59.1987 24.4589C59.1987 24.8534 59.1988 25.2479 59.5961 25.6424C59.9934 26.8258 61.1852 28.0093 62.3772 28.7983C62.7745 29.1928 63.1718 29.1928 63.5691 29.5873C63.9664 29.5873 64.3637 29.9817 64.761 29.9817C66.3502 30.3762 66.7475 30.3762 67.5421 30.3762Z" fill="#399830"/>
<path d="M65.5554 28.0098C65.9527 28.7987 66.7473 29.1933 67.5419 29.5878C67.9392 29.5878 68.3365 29.5878 68.3365 29.5878C68.3365 29.5878 69.1311 29.5878 69.5284 29.5878C69.9257 29.5878 70.323 29.1932 70.7203 29.1932C69.1311 29.5877 67.1446 29.1932 65.5554 28.0098Z" fill="#6AB42D"/>
<path d="M67.9394 27.2207C68.734 28.0097 69.9258 28.4042 71.1178 28.7987C71.5151 28.7987 71.9124 28.7987 72.3097 28.4042L72.707 28.0097C71.1178 28.4042 69.5286 28.0097 67.9394 27.2207Z" fill="#6AB42D"/>
<path d="M69.9259 26.4321C70.3232 26.8266 70.3232 27.2211 71.1178 27.2211C71.5151 27.2211 71.9124 27.6156 72.3097 27.6156C73.1043 27.2211 73.8989 27.2211 74.6935 27.2211C73.5016 27.2211 72.3097 27.2211 71.5151 26.8266C71.1178 26.8266 69.9259 26.4321 69.9259 26.4321Z" fill="#6AB42D"/>
<path d="M66.7474 21.6982C68.3366 21.3037 69.9258 21.3037 71.515 21.3037C71.515 21.3037 71.1177 21.3037 71.1177 20.9092C70.3231 20.9092 69.5285 20.5147 68.7339 20.9092C67.542 20.9092 67.1447 21.3037 66.7474 21.6982Z" fill="#6AB42D"/>
<path d="M69.5284 22.4873C70.7203 22.4873 72.3096 22.8818 73.5015 23.2763L73.1041 22.8818C72.3095 22.4873 71.1176 22.4873 70.323 22.4873C69.9257 22.4873 69.9257 22.4873 69.5284 22.4873Z" fill="#6AB42D"/>
<path d="M72.3096 24.0654C73.1042 24.4599 73.8989 24.46 74.6935 24.8545C75.0908 25.2489 75.8853 25.2489 76.2826 25.6434C75.8853 25.2489 75.4881 25.2489 75.4881 24.8545C74.6934 24.46 73.8988 24.0654 73.1042 24.0654C72.7069 24.0654 72.3096 24.0654 72.3096 24.0654Z" fill="#6AB42D"/>
<path d="M63.569 22.0926C64.7609 20.9091 66.3501 20.1201 67.9393 20.1201C67.542 20.1201 67.1447 20.1201 66.7474 20.1201C65.9528 20.1201 64.7609 20.9091 63.9663 21.3036C63.9663 21.3036 63.9663 21.6981 63.569 22.0926Z" fill="#6AB42D"/>
<path d="M60.7878 24.854C61.1851 24.4595 61.9797 24.4594 62.377 24.4594C63.1716 24.4594 64.3635 24.0649 65.1581 24.0649C66.7473 24.0649 68.3365 24.0649 69.5284 24.0649C68.7338 24.0649 67.5419 23.6705 66.7473 23.6705C64.7608 23.6705 62.377 23.276 60.3905 24.0649C60.3905 24.0649 59.9932 24.065 59.9932 23.6705C60.7878 22.0925 61.9797 20.9091 63.5689 19.7256C62.7743 20.1201 61.9797 20.5146 61.1851 20.9091C60.7878 21.3036 60.3905 21.698 59.9932 22.487C59.1986 23.276 59.1986 24.4595 59.9932 25.6429C60.3905 26.8264 61.5824 28.0099 62.7743 28.7989C63.1716 29.1933 63.5689 29.1933 63.9662 29.5878C64.3635 29.5878 64.7608 29.9823 65.1581 29.9823C65.5554 29.9823 66.35 29.9823 66.7473 29.9823C64.3635 29.5878 62.377 27.2209 60.7878 24.854Z" fill="#6AB42D"/>
<path d="M64.3636 19.7256C62.7744 20.9091 61.1852 22.487 60.3906 24.4594C61.5825 22.487 62.7744 20.9091 64.3636 19.7256Z" fill="#399830"/>
<path d="M68.3366 20.5146C66.7474 20.9091 65.1582 21.6981 63.9663 22.8816C65.5555 21.6981 66.7474 20.9091 68.3366 20.5146Z" fill="#399830"/>
<path d="M70.7204 21.3032C69.1312 21.3032 67.542 22.0922 66.3501 22.8812C67.9393 22.4867 69.1312 21.6977 70.7204 21.3032Z" fill="#399830"/>
<path d="M72.3097 28.0103C71.1178 27.6158 69.9259 27.2214 69.1313 26.4324C68.734 26.0379 68.3367 25.6434 67.9394 25.2489C67.5421 24.8544 67.1448 24.4599 67.1448 24.0654C67.1448 24.8544 68.3367 25.6434 68.734 26.0379C69.5286 27.2213 70.7205 27.6158 72.3097 28.0103Z" fill="#6AB42D"/>
<path d="M69.9258 28.7994C68.7339 28.4049 67.542 28.0104 66.3501 27.2214C65.9528 26.8269 65.5555 26.4324 65.1582 26.0379C64.7609 25.6434 64.3636 25.2489 63.9663 24.46C63.9663 25.2489 65.1582 26.4324 65.9528 27.2214C67.1447 28.0104 68.3366 28.4049 69.9258 28.7994Z" fill="#6AB42D"/>
<path d="M67.1447 29.9828C65.9528 29.5883 64.7609 28.7994 63.9663 27.6159C63.9663 27.6159 61.1852 24.8545 61.5825 24.46C61.9798 25.6434 62.7744 26.4324 63.569 27.2214C64.3636 28.7993 65.5555 29.5883 67.1447 29.9828Z" fill="#6AB42D"/>
<path d="M63.1716 20.9091C62.7743 20.9091 62.7743 20.9091 63.1716 20.9091C62.377 21.3036 62.377 21.6981 61.9797 22.0926C61.5824 22.4871 61.5824 22.8816 61.5824 23.276C62.377 22.0926 63.1716 21.3036 64.3635 20.1201C63.5689 20.5146 63.1716 20.9091 63.1716 20.9091Z" fill="#6AB42D"/>
<path d="M67.9394 20.5146C67.1448 20.5146 66.7475 20.5147 65.9529 20.9092C65.9529 20.9092 65.9529 20.9091 65.9529 21.3036C66.7475 20.9091 67.5421 20.5146 67.9394 20.5146Z" fill="#6AB42D"/>
<path d="M70.7204 21.6978C69.9258 21.6978 69.5285 21.6977 68.7339 22.0922C68.7339 22.0922 68.7339 22.0922 69.1312 22.0922C69.5285 22.0922 69.9258 21.6978 70.7204 21.6978Z" fill="#6AB42D"/>
<path d="M71.9123 26.4321C72.3096 26.4321 72.7069 26.8266 72.7069 26.8266H73.1042H73.5015C73.1042 26.8266 72.3096 26.4321 71.9123 26.4321Z" fill="#6AB42D"/>
<path d="M68.3367 28.7988C67.9394 28.7988 67.542 28.4043 67.1447 28.4043C66.7474 28.4043 66.3502 28.0098 65.9529 28.0098L66.3501 28.4043C66.7474 28.7988 67.5421 28.7988 67.9394 28.7988H68.3367Z" fill="#6AB42D"/>
<path d="M59.596 24.4599C59.1987 24.4599 58.4041 24.4599 58.0068 24.4599C57.6095 24.4599 56.8148 24.0654 56.4175 24.0654C57.2121 24.8544 58.8014 25.2489 59.596 24.4599Z" fill="#6AB42D"/>
<defs>
<linearGradient id="paint0_linear_20007_82878" x1="19.9775" y1="81.244" x2="126.803" y2="81.4997" gradientUnits="userSpaceOnUse">
<stop stop-color="#8E999F"/>
<stop offset="0.213" stop-color="#B6BCC2"/>
<stop offset="0.6749" stop-color="#919BA5"/>
<stop offset="1" stop-color="#8C9398"/>
</linearGradient>
<linearGradient id="paint1_linear_20007_82878" x1="48.7962" y1="90.2989" x2="45.4499" y2="77.8006" gradientUnits="userSpaceOnUse">
<stop offset="0.1264" stop-color="#EBEBEB"/>
<stop offset="0.3175" stop-color="#DAD4CA"/>
<stop offset="0.6749" stop-color="#C2BDAF"/>
<stop offset="1" stop-color="#B6B2AA"/>
</linearGradient>
<linearGradient id="paint2_linear_20007_82878" x1="29.5242" y1="81.1596" x2="110.262" y2="81.1596" gradientUnits="userSpaceOnUse">
<stop offset="0.1262" stop-color="white"/>
<stop offset="1" stop-color="#BFBBB2"/>
</linearGradient>
<linearGradient id="paint3_linear_20007_82878" x1="-0.701192" y1="49.7566" x2="139.229" y2="49.7566" gradientUnits="userSpaceOnUse">
<stop offset="0.1264" stop-color="#EBEBEB"/>
<stop offset="0.3175" stop-color="#CAD5DA"/>
<stop offset="0.6749" stop-color="#AFBBC2"/>
<stop offset="1" stop-color="#AAB2B6"/>
</linearGradient>
<linearGradient id="paint4_linear_20007_82878" x1="44.6125" y1="71.459" x2="154.988" y2="69.5423" gradientUnits="userSpaceOnUse">
<stop offset="0.1264" stop-color="#EBEBEB"/>
<stop offset="0.3175" stop-color="#CAD4DA"/>
<stop offset="0.6749" stop-color="#AFBBC2"/>
<stop offset="1" stop-color="#AAB3B6"/>
</linearGradient>
<linearGradient id="paint5_linear_20007_82878" x1="74.7768" y1="49.8678" x2="137.455" y2="49.8678" gradientUnits="userSpaceOnUse">
<stop offset="0.1262" stop-color="white"/>
<stop offset="1" stop-color="#BFBBB2"/>
</linearGradient>
<linearGradient id="paint6_linear_20007_82878" x1="-0.0949299" y1="49.5636" x2="139.862" y2="49.5636" gradientUnits="userSpaceOnUse">
<stop offset="0.1264" stop-color="#EBEBEB"/>
<stop offset="0.3175" stop-color="#DAD4CA"/>
<stop offset="0.6749" stop-color="#C2BDAF"/>
<stop offset="1" stop-color="#B6B2AA"/>
</linearGradient>
<linearGradient id="paint7_linear_20007_82878" x1="-0.0933658" y1="17.2135" x2="139.843" y2="17.2135" gradientUnits="userSpaceOnUse">
<stop offset="0.00532127" stop-color="#B5B09F"/>
<stop offset="0.3175" stop-color="#DAD4CA"/>
<stop offset="0.5565" stop-color="#ECEBE7"/>
<stop offset="0.6507" stop-color="#E8E6E1"/>
<stop offset="0.7708" stop-color="#DCD9D2"/>
<stop offset="0.9043" stop-color="#C9C4B8"/>
<stop offset="0.9419" stop-color="#C2BDAF"/>
</linearGradient>
<linearGradient id="paint8_linear_20007_82878" x1="69.8745" y1="73.4972" x2="69.8745" y2="-19.9473" gradientUnits="userSpaceOnUse">
<stop offset="0.00532127" stop-color="#B5B09F"/>
<stop offset="0.2522" stop-color="#DAD4CA"/>
<stop offset="0.5565" stop-color="#ECEBE7"/>
<stop offset="0.6848" stop-color="#ECEBE7"/>
</linearGradient>
<linearGradient id="paint9_linear_20007_82878" x1="69.8745" y1="85.9654" x2="69.8745" y2="-7.47085" gradientUnits="userSpaceOnUse">
<stop offset="0.00532127" stop-color="#705558"/>
<stop offset="0.2522" stop-color="#847075"/>
<stop offset="0.5565" stop-color="#8B8485"/>
<stop offset="0.6848" stop-color="#8B8485"/>
</linearGradient>
<radialGradient id="paint10_radial_20007_82878" cx="0" cy="0" r="1" gradientUnits="userSpaceOnUse" gradientTransform="translate(50.4162 -38.8706) scale(153.36 152.275)">
<stop offset="0.3412" stop-color="#B73232"/>
<stop offset="0.4414" stop-color="#B52D2F"/>
<stop offset="0.562" stop-color="#B11E26"/>
<stop offset="0.6927" stop-color="#A90618"/>
<stop offset="0.72" stop-color="#A70014"/>
<stop offset="1" stop-color="#A4002E"/>
</radialGradient>
<linearGradient id="paint11_linear_20007_82878" x1="57.2852" y1="11.8043" x2="71.2146" y2="37.5864" gradientUnits="userSpaceOnUse">
<stop offset="0.1264" stop-color="#888888"/>
<stop offset="1" stop-color="#110F0F"/>
</linearGradient>
<linearGradient id="paint12_linear_20007_82878" x1="-0.0933658" y1="17.2135" x2="139.843" y2="17.2135" gradientUnits="userSpaceOnUse">
<stop offset="0.00532127" stop-color="#B5B09F"/>
<stop offset="0.3175" stop-color="#DAD4CA"/>
<stop offset="0.5565" stop-color="#ECEBE7"/>
<stop offset="0.6507" stop-color="#E8E6E1"/>
<stop offset="0.7708" stop-color="#DCD9D2"/>
<stop offset="0.9043" stop-color="#C9C4B8"/>
<stop offset="0.9419" stop-color="#C2BDAF"/>
</linearGradient>
<linearGradient id="paint13_linear_20007_82878" x1="28.6233" y1="25.4472" x2="139.238" y2="25.4472" gradientUnits="userSpaceOnUse">
<stop stop-color="#9F9A8E"/>
<stop offset="0.213" stop-color="#C2BDB6"/>
<stop offset="0.6749" stop-color="#A5A091"/>
<stop offset="1" stop-color="#98948C"/>
</linearGradient>
<linearGradient id="paint14_linear_20007_82878" x1="21.4205" y1="87.2046" x2="68.6426" y2="60.2736" gradientUnits="userSpaceOnUse">
<stop offset="0.1264" stop-color="#EBEBEB"/>
<stop offset="0.3175" stop-color="#DAD4CA"/>
<stop offset="0.6749" stop-color="#C2BDAF"/>
<stop offset="1" stop-color="#B6B2AA"/>
</linearGradient>
<radialGradient id="paint15_radial_20007_82878" cx="0" cy="0" r="1" gradientUnits="userSpaceOnUse" gradientTransform="translate(101.477 -20.5956) rotate(-15.3743) scale(73.6962 73.2478)">
<stop offset="0.3412" stop-color="#FFF493"/>
<stop offset="0.4119" stop-color="#FEF18E"/>
<stop offset="0.4971" stop-color="#FAE97F"/>
<stop offset="0.5897" stop-color="#F4DB67"/>
<stop offset="0.687" stop-color="#EBC845"/>
<stop offset="0.72" stop-color="#E8C138"/>
<stop offset="1" stop-color="#EFA52C"/>
</radialGradient>
<radialGradient id="paint16_radial_20007_82878" cx="0" cy="0" r="1" gradientUnits="userSpaceOnUse" gradientTransform="translate(122.4 -18.2986) rotate(-11.126) scale(73.7177 73.2355)">
<stop offset="0.3412" stop-color="#FFF493"/>
<stop offset="0.4119" stop-color="#FEF18E"/>
<stop offset="0.4971" stop-color="#FAE97F"/>
<stop offset="0.5897" stop-color="#F4DB67"/>
<stop offset="0.687" stop-color="#EBC845"/>
<stop offset="0.72" stop-color="#E8C138"/>
<stop offset="1" stop-color="#EFA52C"/>
</radialGradient>
<radialGradient id="paint17_radial_20007_82878" cx="0" cy="0" r="1" gradientUnits="userSpaceOnUse" gradientTransform="translate(76.0257 -23.3946) rotate(-21.6107) scale(73.6981 73.3188)">
<stop offset="0.3412" stop-color="#FFF493"/>
<stop offset="0.4119" stop-color="#FEF18E"/>
<stop offset="0.4971" stop-color="#FAE97F"/>
<stop offset="0.5897" stop-color="#F4DB67"/>
<stop offset="0.687" stop-color="#EBC845"/>
<stop offset="0.72" stop-color="#E8C138"/>
<stop offset="1" stop-color="#EFA52C"/>
</radialGradient>
<radialGradient id="paint18_radial_20007_82878" cx="0" cy="0" r="1" gradientUnits="userSpaceOnUse" gradientTransform="translate(91.2131 -25.6426) rotate(-21.6104) scale(73.6554 73.2755)">
<stop offset="0.3412" stop-color="#FFF493"/>
<stop offset="0.4119" stop-color="#FEF18E"/>
<stop offset="0.4971" stop-color="#FAE97F"/>
<stop offset="0.5897" stop-color="#F4DB67"/>
<stop offset="0.687" stop-color="#EBC845"/>
<stop offset="0.72" stop-color="#E8C138"/>
<stop offset="1" stop-color="#EFA52C"/>
</radialGradient>
<radialGradient id="paint19_radial_20007_82878" cx="0" cy="0" r="1" gradientUnits="userSpaceOnUse" gradientTransform="translate(100.45 -16.9083) rotate(-7.81988) scale(73.8111 73.3089)">
<stop offset="0.3412" stop-color="#FFF493"/>
<stop offset="0.4119" stop-color="#FEF18E"/>
<stop offset="0.4971" stop-color="#FAE97F"/>
<stop offset="0.5897" stop-color="#F4DB67"/>
<stop offset="0.687" stop-color="#EBC845"/>
<stop offset="0.72" stop-color="#E8C138"/>
<stop offset="1" stop-color="#EFA52C"/>
</radialGradient>
<radialGradient id="paint20_radial_20007_82878" cx="0" cy="0" r="1" gradientUnits="userSpaceOnUse" gradientTransform="translate(82.157 -6.16267) rotate(-7.81988) scale(73.8699 73.3673)">
<stop offset="0.3412" stop-color="#FFF493"/>
<stop offset="0.4119" stop-color="#FEF18E"/>
<stop offset="0.4971" stop-color="#FAE97F"/>
<stop offset="0.5897" stop-color="#F4DB67"/>
<stop offset="0.687" stop-color="#EBC845"/>
<stop offset="0.72" stop-color="#E8C138"/>
<stop offset="1" stop-color="#EFA52C"/>
</radialGradient>
<radialGradient id="paint21_radial_20007_82878" cx="0" cy="0" r="1" gradientUnits="userSpaceOnUse" gradientTransform="translate(53.9079 2.11282) rotate(-7.81988) scale(73.8699 73.3673)">
<stop offset="0.3412" stop-color="#FFF493"/>
<stop offset="0.4119" stop-color="#FEF18E"/>
<stop offset="0.4971" stop-color="#FAE97F"/>
<stop offset="0.5897" stop-color="#F4DB67"/>
<stop offset="0.687" stop-color="#EBC845"/>
<stop offset="0.72" stop-color="#E8C138"/>
<stop offset="1" stop-color="#EFA52C"/>
</radialGradient>
<radialGradient id="paint22_radial_20007_82878" cx="0" cy="0" r="1" gradientUnits="userSpaceOnUse" gradientTransform="translate(108.791 4.65185) rotate(-7.81985) scale(73.5939 73.0927)">
<stop offset="0.3412" stop-color="#FFF493"/>
<stop offset="0.4119" stop-color="#FEF18E"/>
<stop offset="0.4971" stop-color="#FAE97F"/>
<stop offset="0.5897" stop-color="#F4DB67"/>
<stop offset="0.687" stop-color="#EBC845"/>
<stop offset="0.72" stop-color="#E8C138"/>
<stop offset="1" stop-color="#EFA52C"/>
</radialGradient>
<radialGradient id="paint23_radial_20007_82878" cx="0" cy="0" r="1" gradientUnits="userSpaceOnUse" gradientTransform="translate(50.8274 -8.49926) rotate(-7.81988) scale(73.9069 73.404)">
<stop offset="0.3412" stop-color="#FFF493"/>
<stop offset="0.4119" stop-color="#FEF18E"/>
<stop offset="0.4971" stop-color="#FAE97F"/>
<stop offset="0.5897" stop-color="#F4DB67"/>
<stop offset="0.687" stop-color="#EBC845"/>
<stop offset="0.72" stop-color="#E8C138"/>
<stop offset="1" stop-color="#EFA52C"/>
</radialGradient>
<radialGradient id="paint24_radial_20007_82878" cx="0" cy="0" r="1" gradientUnits="userSpaceOnUse" gradientTransform="translate(82.2472 -5.88856) rotate(-7.81985) scale(73.8699 73.3669)">
<stop offset="0.3412" stop-color="#FFF493"/>
<stop offset="0.4119" stop-color="#FEF18E"/>
<stop offset="0.4971" stop-color="#FAE97F"/>
<stop offset="0.5897" stop-color="#F4DB67"/>
<stop offset="0.687" stop-color="#EBC845"/>
<stop offset="0.72" stop-color="#E8C138"/>
<stop offset="1" stop-color="#EFA52C"/>
</radialGradient>
<radialGradient id="paint25_radial_20007_82878" cx="0" cy="0" r="1" gradientUnits="userSpaceOnUse" gradientTransform="translate(60.4264 -11.0179) rotate(-7.81988) scale(73.7261 73.2245)">
<stop offset="0.3412" stop-color="#FFF493"/>
<stop offset="0.4119" stop-color="#FEF18E"/>
<stop offset="0.4971" stop-color="#FAE97F"/>
<stop offset="0.5897" stop-color="#F4DB67"/>
<stop offset="0.687" stop-color="#EBC845"/>
<stop offset="0.72" stop-color="#E8C138"/>
<stop offset="1" stop-color="#EFA52C"/>
</radialGradient>
<radialGradient id="paint26_radial_20007_82878" cx="0" cy="0" r="1" gradientUnits="userSpaceOnUse" gradientTransform="translate(27.8654 0.922698) rotate(-7.81949) scale(73.6208 73.1163)">
<stop offset="0.3412" stop-color="#FFF493"/>
<stop offset="0.4119" stop-color="#FEF18E"/>
<stop offset="0.4971" stop-color="#FAE97F"/>
<stop offset="0.5897" stop-color="#F4DB67"/>
<stop offset="0.687" stop-color="#EBC845"/>
<stop offset="0.72" stop-color="#E8C138"/>
<stop offset="1" stop-color="#EFA52C"/>
</radialGradient>
<radialGradient id="paint27_radial_20007_82878" cx="0" cy="0" r="1" gradientUnits="userSpaceOnUse" gradientTransform="translate(73.8103 -30.6019) rotate(-7.81984) scale(73.6515 73.1499)">
<stop offset="0.3412" stop-color="#FFF493"/>
<stop offset="0.4119" stop-color="#FEF18E"/>
<stop offset="0.4971" stop-color="#FAE97F"/>
<stop offset="0.5897" stop-color="#F4DB67"/>
<stop offset="0.687" stop-color="#EBC845"/>
<stop offset="0.72" stop-color="#E8C138"/>
<stop offset="1" stop-color="#EFA52C"/>
</radialGradient>
<radialGradient id="paint28_radial_20007_82878" cx="0" cy="0" r="1" gradientUnits="userSpaceOnUse" gradientTransform="translate(72.8853 -15.5204) rotate(-7.81988) scale(73.6296 73.1286)">
<stop offset="0.3412" stop-color="#FFF493"/>
<stop offset="0.4119" stop-color="#FEF18E"/>
<stop offset="0.4971" stop-color="#FAE97F"/>
<stop offset="0.5897" stop-color="#F4DB67"/>
<stop offset="0.687" stop-color="#EBC845"/>
<stop offset="0.72" stop-color="#E8C138"/>
<stop offset="1" stop-color="#EFA52C"/>
</radialGradient>
<radialGradient id="paint29_radial_20007_82878" cx="0" cy="0" r="1" gradientUnits="userSpaceOnUse" gradientTransform="translate(91.4468 -13.5947) rotate(-7.81988) scale(73.63 73.129)">
<stop offset="0.3412" stop-color="#FFF493"/>
<stop offset="0.4119" stop-color="#FEF18E"/>
<stop offset="0.4971" stop-color="#FAE97F"/>
<stop offset="0.5897" stop-color="#F4DB67"/>
<stop offset="0.687" stop-color="#EBC845"/>
<stop offset="0.72" stop-color="#E8C138"/>
<stop offset="1" stop-color="#EFA52C"/>
</radialGradient>
<radialGradient id="paint30_radial_20007_82878" cx="0" cy="0" r="1" gradientUnits="userSpaceOnUse" gradientTransform="translate(61.2319 -30.416) rotate(-7.81981) scale(73.7114 73.2091)">
<stop offset="0.3412" stop-color="#FFF493"/>
<stop offset="0.4119" stop-color="#FEF18E"/>
<stop offset="0.4971" stop-color="#FAE97F"/>
<stop offset="0.5897" stop-color="#F4DB67"/>
<stop offset="0.687" stop-color="#EBC845"/>
<stop offset="0.72" stop-color="#E8C138"/>
<stop offset="1" stop-color="#EFA52C"/>
</radialGradient>
<radialGradient id="paint31_radial_20007_82878" cx="0" cy="0" r="1" gradientUnits="userSpaceOnUse" gradientTransform="translate(22.9533 -35.5783) rotate(-7.81954) scale(73.7685 73.2634)">
<stop offset="0.3412" stop-color="#FFF493"/>
<stop offset="0.4119" stop-color="#FEF18E"/>
<stop offset="0.4971" stop-color="#FAE97F"/>
<stop offset="0.5897" stop-color="#F4DB67"/>
<stop offset="0.687" stop-color="#EBC845"/>
<stop offset="0.72" stop-color="#E8C138"/>
<stop offset="1" stop-color="#EFA52C"/>
</radialGradient>
</defs>
</svg>
