<svg width="132" height="140" viewBox="0 0 132 140" fill="none" xmlns="http://www.w3.org/2000/svg">
<path d="M131.679 50.9234C130.717 45.1765 128.793 39.7489 126.067 34.9599C122.379 30.1708 117.568 26.0203 111.795 22.5084C109.39 21.0716 106.984 19.7946 104.258 18.6771C100.73 17.0808 96.8817 15.8037 93.0331 14.8459C92.2314 14.6863 91.4296 14.5266 90.6278 14.367C90.1467 14.2073 89.6656 14.2073 89.0242 14.2073C89.1846 14.2073 89.1846 14.2073 89.3449 14.2073C80.6856 12.4513 71.3849 11.9725 61.6031 13.0899C61.2824 13.0899 60.8013 13.2495 60.4806 13.2495C54.5474 14.0477 48.9349 15.1651 43.6431 16.6018C37.5495 18.3578 31.7766 20.5927 26.6452 23.1469C23.9191 24.5836 21.3534 26.0204 18.9481 27.6167C20.3913 27.1378 21.8345 26.6589 23.4381 26.4992C30.9748 25.7011 38.3513 29.2131 44.4449 36.3966C50.3781 43.4206 54.2267 53.1583 55.5095 63.8538C57.9149 86.2028 47.4917 105.519 32.2577 107.275C31.6163 107.275 30.8145 107.434 30.1731 107.434C29.692 107.434 29.3713 107.434 28.8902 107.275C33.0595 108.232 38.0306 108.871 43.8034 109.031C48.7745 109.19 54.5474 109.031 60.8013 108.392C61.122 108.392 61.4427 108.392 61.9238 108.232C67.0552 107.754 72.347 106.796 77.4785 105.359C88.8638 102.326 98.9663 100.41 107.946 94.3442C107.946 94.3442 107.946 94.3442 107.786 94.3442H107.946C108.427 94.0249 109.069 93.546 109.55 93.2267C112.436 91.1514 115.002 89.0762 117.407 86.8413C120.294 84.1275 122.86 81.2541 125.105 78.3806C127.991 74.3898 129.434 71.676 130.717 67.5255C131.198 63.6942 132.321 55.0739 131.679 50.9234Z" fill="#D55E08"/>
<path d="M42.6809 37.9933C37.7099 32.0868 31.7766 28.894 25.8434 28.894C25.202 28.894 24.5606 28.8941 24.0795 29.0537C17.5049 29.6922 11.732 34.3216 7.72306 41.8245C3.71413 49.487 2.11055 59.3843 3.23305 69.601C5.47805 90.3536 18.6274 106.157 32.4181 104.721C46.2088 103.284 55.5095 85.0856 53.2645 64.1734C51.9817 53.7971 48.2935 44.5383 42.6809 37.9933Z" fill="#83AA18"/>
<path d="M4.99698 69.1221C6.60055 82.3718 12.2131 93.7059 19.5895 101.049C23.4381 103.603 27.7677 105.04 32.2577 104.561C46.0485 103.124 55.3492 84.926 53.1042 64.0138C51.9817 53.7971 48.2935 44.5383 42.681 37.9933C37.7099 32.0868 31.7767 28.894 25.8434 28.894C25.202 28.894 24.5606 28.8941 24.0795 29.0537C18.6274 29.6922 13.6563 33.0446 9.8077 38.4721C5.3177 47.0924 3.55377 57.9477 4.99698 69.1221Z" fill="#EA801F"/>
<path opacity="0.1" d="M6.76095 72.7938C8.20416 84.6068 13.0149 94.8235 19.4292 101.369C22.7967 103.763 26.6452 104.88 30.3335 104.402C42.1999 103.124 50.3781 86.8417 48.4538 68.1644C47.4917 59.0652 44.2845 50.7642 39.4738 44.8577C35.1442 39.5898 30.0127 36.7163 24.8813 36.7163C24.4002 36.7163 23.7588 36.7163 23.2777 36.876C18.467 37.3549 14.1374 40.3879 10.9302 45.3366C7.08166 53.1587 5.63845 62.8965 6.76095 72.7938Z" fill="white"/>
<path opacity="0.4" d="M22.7966 84.1274C22.4759 85.8834 23.2777 88.1183 24.7209 89.8743C25.5227 90.6725 26.4849 91.4707 27.6074 91.9496C31.1352 93.5459 34.3424 92.5881 34.8234 89.8743C35.1441 88.4376 34.6631 86.8412 33.7009 85.4045C32.7388 83.9678 31.4559 82.8503 30.0127 82.0522C29.8524 81.8925 29.692 81.8926 29.5316 81.8926C28.0884 81.254 26.8056 80.9348 25.5227 81.0944C24.0795 81.5733 23.1174 82.6907 22.7966 84.1274Z" fill="#9B4104"/>
<path d="M55.6699 63.6942C54.5474 52.9987 50.5385 43.261 44.6053 36.237C38.5117 29.0535 31.1353 25.5415 23.5985 26.3396C21.3535 26.6589 19.2688 27.2975 17.1842 28.2553C12.3735 30.4902 8.20416 34.6407 5.15737 40.5472C0.827727 48.6885 -0.775846 59.0649 0.346655 69.7604C2.59166 89.7148 14.2977 105.359 27.7678 107.115C28.5695 107.275 29.5317 107.275 30.3335 107.275C30.9749 107.275 31.7767 107.275 32.4181 107.115C47.6521 105.519 58.0753 86.0432 55.6699 63.6942ZM32.2578 104.561C27.9281 105.04 23.5985 103.763 19.5895 101.049C11.251 95.4617 4.6763 83.6486 3.07272 69.4411C1.95022 59.2245 3.5538 49.4867 7.56273 41.6646C8.20416 40.3875 8.84559 39.4297 9.64737 38.3123C13.4959 32.8847 18.467 29.5324 23.9192 28.8938C24.5606 28.8938 25.202 28.7342 25.6831 28.7342C31.6163 28.7342 37.5496 31.9269 42.5206 37.8334C48.1331 44.5381 51.8214 53.7969 52.9439 63.8539C55.3492 84.9257 46.0485 102.964 32.2578 104.561Z" fill="#F78C34"/>
<path d="M5.15736 69.4413C4.03486 59.2247 5.63843 49.487 9.64736 41.6649C13.6563 34.162 19.4292 29.6922 26.0038 28.894C26.1642 28.894 26.4849 28.894 26.6452 28.894C26.3245 28.894 26.0038 28.894 25.6831 28.894C25.0417 28.894 24.4002 28.8941 23.9192 29.0537C17.3445 29.6922 11.5717 34.3216 7.56272 41.8245C3.55379 49.487 1.95021 59.3843 3.07271 69.601C5.31771 89.8747 17.8256 105.359 31.2956 104.721C18.6274 103.603 7.24201 88.7572 5.15736 69.4413Z" fill="#963F04"/>
<path d="M32.0974 27.2979C34.9838 26.0208 37.8702 24.9033 40.917 23.9455C46.2088 22.1895 51.8213 20.7528 57.7545 19.4758C58.0753 19.4758 58.5563 19.3161 58.877 19.3161C68.8192 17.4005 78.4406 17.0812 87.2603 17.7198C87.0999 17.7198 87.0999 17.7198 86.9396 17.7198C87.4206 17.7198 88.0621 17.7198 88.5431 17.7198C89.3449 17.7198 90.1467 17.8794 90.9485 18.039C95.1178 18.518 98.9664 19.3161 102.815 20.2739C105.541 21.0721 108.267 21.8703 110.833 22.8281C112.757 23.6263 114.521 24.4244 116.285 25.3822C114.842 24.2648 113.238 23.307 111.635 22.3492C109.229 20.9124 106.824 19.6354 104.098 18.5179C100.57 16.9216 96.7214 15.6445 92.8728 14.6867C92.071 14.5271 91.2692 14.3674 90.4674 14.2078C89.9864 14.0481 89.5053 14.0482 88.8638 14.0482C89.0242 14.0482 89.0242 14.0482 89.1846 14.0482C80.5253 12.2922 71.2245 11.8133 61.4427 12.9307C61.122 12.9307 60.641 13.0903 60.3202 13.0903C54.387 13.8885 48.7745 15.006 43.4827 16.4427C37.3891 18.1987 31.6163 20.4335 26.4848 22.9877C23.7588 24.4244 21.3534 25.8611 18.9481 27.2979C20.3913 26.819 21.8345 26.4997 23.2777 26.34C26.4848 26.0208 29.3713 26.3401 32.0974 27.2979Z" fill="#EA801F"/>
<path d="M121.898 78.0612C119.653 80.1364 117.087 82.3714 114.361 84.287C113.88 84.6063 113.399 85.0851 112.757 85.4044H112.597C112.597 85.4044 112.597 85.4044 112.757 85.4044C104.098 91.4705 93.835 94.0247 82.4496 97.6963C77.3182 99.2927 72.1868 100.57 66.895 101.528C66.5743 101.528 66.0932 101.687 65.7725 101.687C59.3582 102.805 53.5853 103.443 48.4539 103.762C46.0485 103.922 43.6431 103.922 41.3981 103.922C38.6721 105.678 35.7856 106.796 32.5785 107.115C31.9371 107.115 31.1353 107.274 30.4938 107.274C30.0128 107.274 29.6921 107.274 29.211 107.115C33.3803 108.073 38.3514 108.711 44.1242 108.871C49.0953 109.03 54.8682 108.871 61.1221 108.232C61.4428 108.232 61.7635 108.232 62.2446 108.073C67.376 107.594 72.6678 106.636 77.7993 105.199C89.1846 102.166 99.2872 100.25 108.267 94.1843C108.267 94.1843 108.267 94.1843 108.107 94.1843H108.267C108.748 93.8651 109.39 93.3862 109.871 93.0669C112.757 90.9917 115.323 88.9164 117.728 86.6815C120.615 83.9677 123.18 81.0943 125.425 78.2208C127.831 74.8685 129.274 72.474 130.396 69.2812C129.915 69.6005 129.274 70.0794 128.793 70.3987C126.708 73.2721 124.463 75.6667 121.898 78.0612Z" fill="#6D2E03"/>
<path d="M65.6121 101.687C65.9328 101.687 66.4139 101.528 66.7346 101.528C72.0264 100.57 77.3182 99.2929 82.2892 97.6966C93.6746 94.025 103.938 91.4708 112.597 85.4047C112.597 85.4047 112.597 85.4047 112.436 85.4047H112.597C113.078 85.0854 113.559 84.7662 114.2 84.2872C116.926 82.212 119.492 80.1367 121.737 78.0614C124.303 75.6669 126.548 73.1128 128.472 70.7183C126.388 72.155 124.303 73.4321 122.058 74.7091C121.577 75.0284 120.935 75.3476 120.454 75.6669H120.294C120.294 75.6669 120.294 75.6669 120.454 75.6669C110.993 80.7752 99.9286 83.489 87.581 86.8414C82.1289 88.4377 76.356 89.7148 70.7435 90.6726C70.2625 90.6726 69.9417 90.8322 69.4607 90.8322C62.7257 91.9497 56.7924 92.9075 51.5006 93.3864C50.5385 94.6635 49.5764 95.781 48.4539 96.8984C46.3692 99.7718 43.9638 102.166 41.3981 103.922C43.6431 103.922 45.8882 103.922 48.4539 103.763C53.4249 103.443 59.1978 102.805 65.6121 101.687Z" fill="#823703"/>
<path d="M102.975 20.4333C99.2871 19.4755 95.2782 18.6773 91.1089 18.1984C90.3071 18.0388 89.5053 18.0388 88.7035 17.8792C88.2224 17.8792 87.581 17.8792 87.0999 17.8792C87.2603 17.8792 87.2603 17.8792 87.4207 17.8792C78.4407 17.081 68.8192 17.5599 59.0374 19.4755C58.5563 19.4755 58.2356 19.6352 57.9149 19.6352C51.9817 20.7526 46.3692 22.3489 41.0774 24.1049C38.0306 25.0627 34.9838 26.1802 32.2578 27.4573C35.7856 28.5747 38.9928 30.65 42.1999 33.5234C42.681 33.3638 43.0017 33.2042 43.4828 33.2042C49.2556 31.6078 55.3492 30.0114 61.7635 28.7343C62.2446 28.5747 62.5653 28.5747 63.0464 28.4151C73.7903 26.3398 84.2135 25.5416 93.835 25.5416C93.6746 25.5416 93.6746 25.5416 93.5142 25.5416C94.1557 25.5416 94.6367 25.5416 95.2782 25.5416C96.2403 25.5416 97.0421 25.5416 97.8439 25.5416C102.334 25.7013 106.664 26.0206 110.672 26.4995C113.719 26.9784 116.606 27.4573 119.332 28.0958C119.652 28.0958 119.973 28.2555 120.294 28.4151C119.171 27.4573 118.049 26.4995 116.926 25.7013C115.162 24.7435 113.399 23.9453 111.474 23.1471C108.427 22.0297 105.862 21.0719 102.975 20.4333Z" fill="#F78C34"/>
<path d="M125.586 64.4926C125.105 64.8118 124.463 64.9715 123.982 65.2907H123.822C123.822 65.2907 123.822 65.2907 123.982 65.2907C114.521 69.4412 103.456 72.1551 91.2693 75.5074C85.8171 76.9441 80.2046 78.3808 74.4317 79.4983C73.9507 79.6579 73.63 79.6579 73.3092 79.8175C67.2157 81.0946 61.6031 82.0524 56.6321 82.8506C55.5096 86.8415 53.906 90.5131 51.661 93.5462C57.1132 92.9076 63.0464 92.1094 69.621 90.992C70.1021 90.992 70.4228 90.8323 70.9039 90.8323C76.6768 89.8745 82.2893 88.4378 87.7414 87.0011C100.089 83.4891 111.154 80.935 120.615 75.8267C120.615 75.8267 120.615 75.8267 120.454 75.8267H120.615C121.096 75.5074 121.737 75.1881 122.218 74.8688C124.463 73.5918 126.708 72.155 128.633 70.878C128.793 70.7183 128.953 70.5587 129.114 70.2394C129.915 69.2816 130.557 68.3238 131.038 67.366C131.198 65.9293 131.359 63.854 131.519 61.6191C129.595 62.577 127.67 63.5347 125.586 64.4926Z" fill="#9B4104"/>
<path d="M44.6052 36.2371C46.5295 38.6316 48.2935 41.1857 49.7367 44.0592C54.8681 42.6224 60.1599 41.3454 65.7724 40.0683C66.2535 39.9086 66.5742 39.9086 67.0552 39.749C77.6388 37.5141 88.0621 35.9178 97.5231 35.1196C97.3628 35.1196 97.3628 35.1196 97.2024 35.1196C97.8439 35.1196 98.3249 34.9599 98.9664 34.9599C99.7682 34.9599 100.73 34.8003 101.532 34.8003C106.022 34.4811 110.191 34.3214 114.2 34.3214C117.247 34.3214 119.973 34.3214 122.699 34.4811C123.822 34.4811 124.784 34.6407 125.906 34.8003C124.142 32.4058 122.058 30.3306 119.813 28.2553C119.492 28.2553 119.171 28.0956 118.851 27.936C116.125 27.2975 113.238 26.8186 110.191 26.3397C106.182 25.8608 101.853 25.3818 97.3628 25.3818C96.561 25.3818 95.5989 25.3818 94.7971 25.3818C94.1556 25.3818 93.6746 25.3818 93.0331 25.3818C93.1935 25.3818 93.1935 25.3818 93.3539 25.3818C83.7324 25.3818 73.3092 26.3397 62.5653 28.2553C62.0842 28.4149 61.7635 28.4149 61.2824 28.5745C54.8681 29.8516 48.7745 31.2884 43.0016 33.0444C42.5206 33.204 42.1999 33.3636 41.7188 33.3636C42.8413 34.3214 43.8034 35.2792 44.6052 36.2371Z" fill="#EA801F"/>
<path d="M122.539 56.83C122.379 56.83 122.379 56.83 122.539 56.83C112.918 59.5438 101.693 61.9383 89.345 64.6521C83.7325 65.9292 78.12 67.0467 72.5075 68.1641C72.0264 68.1641 71.7057 68.3238 71.385 68.3238C68.9796 68.8027 66.7346 69.2816 64.4896 69.6008C63.6878 71.8357 62.2446 73.911 59.9996 75.9862C59.1978 78.3808 58.0753 80.7753 56.4717 82.8505C61.4428 82.0524 67.0553 81.0946 73.1489 79.8175C73.63 79.6578 73.9507 79.6579 74.2714 79.4982C79.8839 78.3808 85.6568 76.9441 91.1089 75.5074C103.296 72.155 114.361 69.4412 123.822 65.2907C123.822 65.2907 123.822 65.2907 123.661 65.2907H123.822C124.303 64.9714 124.944 64.8118 125.425 64.4925C127.51 63.5347 129.434 62.5769 131.359 61.6191C131.519 59.0649 131.84 56.3511 131.84 54.1162C129.434 54.9144 126.869 55.7126 124.143 56.5107C123.661 56.5107 123.02 56.6704 122.539 56.83Z" fill="#B54E08"/>
<path d="M114.361 34.4814C110.352 34.4814 106.183 34.6411 101.693 34.9603C100.891 34.9603 99.9286 35.12 99.1268 35.12C98.4854 35.12 98.0043 35.2796 97.3629 35.2796C97.5232 35.2796 97.5232 35.2796 97.6836 35.2796C88.0621 36.0778 77.7993 37.6741 67.2157 39.909C66.7346 40.0687 66.4139 40.0687 65.9328 40.2283C60.3203 41.5054 54.8682 42.7825 49.8971 44.2192C51.0196 46.4541 51.9818 48.8486 52.9439 51.2431C54.2268 52.5202 55.3493 53.7973 56.4718 55.234C56.7925 55.3936 56.9528 55.5533 57.2735 55.5533C60.8014 54.7551 64.4896 54.1165 68.1778 53.3184C68.6589 53.1587 68.9796 53.1588 69.4607 52.9991C80.0443 50.9239 90.4675 49.1679 99.9286 47.7311C99.7682 47.7311 99.7682 47.7311 99.6079 47.7311C100.089 47.5715 100.73 47.5715 101.211 47.4119C102.013 47.2523 102.975 47.0926 103.777 47.0926C108.107 46.4541 112.276 45.9752 116.285 45.4963C119.171 45.177 122.058 44.8577 124.624 44.6981C126.548 44.5384 128.472 44.3788 130.076 44.2192C129.114 40.8669 127.831 37.8338 126.227 34.9603C125.105 34.8007 124.143 34.8007 123.02 34.6411C120.294 34.4815 117.408 34.4814 114.361 34.4814Z" fill="#E86F0C"/>
<path d="M116.285 45.4963C112.436 45.9752 108.267 46.4541 103.777 47.0927C102.975 47.2523 102.013 47.4119 101.211 47.4119C100.73 47.5716 100.089 47.5715 99.6078 47.7312C99.7682 47.7312 99.7682 47.7312 99.9285 47.7312C90.4674 49.1679 80.2046 50.9239 69.4606 52.9992C68.9796 53.1588 68.6589 53.1588 68.1778 53.3184C64.3292 54.1166 60.8014 54.7552 57.2735 55.5533C60.641 57.3093 63.0464 59.5442 64.1689 62.258V62.4176C64.6499 62.8965 64.8103 63.3754 64.6499 63.8543C65.2913 65.77 65.131 67.8452 64.4896 69.7609C66.7346 69.2819 68.9796 68.9627 71.3849 68.4837C71.866 68.4837 72.1867 68.3241 72.5074 68.3241C78.2803 67.2067 83.8928 66.0892 89.345 64.8122C101.692 62.0984 112.757 59.8635 122.539 56.99C122.539 56.99 122.539 56.99 122.379 56.99H122.539C123.18 56.8304 123.661 56.6707 124.303 56.5111C127.029 55.7129 129.595 54.9148 132 54.1166C132 52.9991 132 51.8817 131.84 50.9239C131.519 48.689 130.878 46.4541 130.236 44.2192C128.472 44.3789 126.708 44.5385 124.784 44.6981C121.897 44.8578 119.171 45.177 116.285 45.4963Z" fill="#D35C02"/>
<path d="M65.7724 62.8959C64.3292 51.0829 59.8392 40.3874 52.9439 32.7249C46.8503 25.8606 39.6342 22.189 32.2578 22.189C31.456 22.189 30.8145 22.189 30.0128 22.3486C28.8903 22.5082 27.9281 22.6679 26.8056 22.9871C24.0795 24.4239 21.5138 25.8606 19.1085 27.457C20.5517 26.978 21.9949 26.4991 23.5985 26.3395C31.1353 25.5413 38.5117 29.0533 44.6053 36.2369C50.5385 43.2608 54.3871 52.9985 55.6699 63.6941C58.0753 86.043 47.6521 105.519 32.4181 107.115C31.7767 107.115 30.9749 107.274 30.3335 107.274C29.8524 107.274 28.4092 107.115 27.9281 107.115C32.0974 108.073 38.191 108.871 43.8035 109.03C58.8771 105.04 68.4985 85.2448 65.7724 62.8959Z" fill="#BDCCDB"/>
<path d="M87.581 51.722C84.3739 38.7915 78.2803 27.6171 70.5832 19.9546C67.376 16.7619 64.0085 14.527 60.641 12.9307C54.7078 13.7288 49.0953 14.8463 43.8035 16.283C50.2178 15.4848 56.9528 18.5179 63.0463 24.9033C69.7814 31.9272 75.0731 42.3035 77.9596 53.9569C83.7324 78.3811 75.8749 104.402 61.6031 108.233C61.4428 108.233 61.2824 108.233 61.1221 108.392C61.4428 108.392 61.7635 108.392 62.2446 108.233C67.376 107.754 72.6678 106.796 77.7992 105.359C88.2225 95.7813 92.8728 73.2727 87.581 51.722Z" fill="#BDCCDB"/>
<path d="M105.381 23.3063C111.795 30.3303 116.445 40.3873 118.209 51.5618C120.615 66.7271 116.606 84.4466 109.71 93.3861C112.597 91.3109 115.162 89.2356 117.568 87.0007C121.737 78.3804 123.982 63.694 122.058 51.4021C120.294 40.068 115.804 30.011 109.229 23.1467C107.626 21.3907 106.022 19.954 104.258 18.6769C100.73 17.0806 96.8818 15.8035 93.0332 14.8457C97.3629 16.1228 101.692 19.1558 105.381 23.3063Z" fill="#BDCCDB"/>
<path d="M116.125 26.6593C122.058 32.7254 126.387 41.3457 127.991 51.0835C129.434 60.023 127.991 71.6764 125.265 78.5407C128.151 74.5498 129.595 71.836 130.877 67.6855C131.198 63.6946 132.321 55.0743 131.679 50.9238C130.717 45.177 128.793 39.7494 126.067 34.9603C122.379 30.1713 117.568 26.0208 111.795 22.5088C113.399 23.7859 114.842 25.2226 116.125 26.6593Z" fill="#BDCCDB"/>
<path d="M119.652 83.3301C119.652 83.3301 117.247 87.1613 115.483 88.9173C113.719 90.6733 108.909 94.3449 106.022 95.7816C103.136 97.3779 95.7593 100.571 92.2314 101.528C88.5432 102.486 72.5074 106.637 72.5074 106.637L71.5453 108.393C71.5453 108.393 106.343 109.51 109.069 111.266C111.795 113.022 112.436 114.299 113.719 116.694C115.002 119.088 115.483 120.046 115.483 120.046L123.501 122.121C123.501 122.121 121.737 117.652 120.615 113.182C119.492 108.872 119.011 106.637 119.492 102.806C119.973 98.9743 120.454 97.5376 121.256 95.3027C122.218 93.0678 123.982 89.5558 123.982 89.5558L119.652 83.3301Z" fill="#B54E08"/>
<path d="M113.719 98.3354L118.209 111.745L64.6499 126.272L61.1221 110.947L113.719 98.3354Z" fill="#D55E08"/>
<path d="M123.822 80.7754L119.653 83.3296L123.822 89.3957C123.822 89.3957 121.898 93.3866 121.096 95.1425C120.454 96.8985 119.171 99.772 119.171 103.124C119.011 106.477 119.332 109.031 120.294 113.022C120.935 115.576 123.341 121.961 123.341 121.961L128.793 119.726C128.793 119.726 127.189 115.735 126.548 113.66C125.906 111.585 125.105 110.308 124.463 107.275C123.822 104.242 123.661 102.645 123.982 100.251C124.303 97.8564 125.586 94.3444 126.227 92.4287C126.869 90.5131 128.151 87.3204 128.151 87.3204L123.822 80.7754Z" fill="#963F04"/>
<path d="M13.9771 126.591L20.0706 124.994C20.0706 124.994 20.7121 122.281 22.3156 120.525C23.9192 118.769 25.6831 117.651 26.966 117.332C28.4092 117.013 30.3335 117.332 30.3335 117.332C30.3335 117.332 26.966 116.693 26.0038 116.693C25.0417 116.693 23.1174 116.693 21.9949 117.172C20.8724 117.651 19.2688 118.609 18.6274 119.248C17.986 119.886 16.8635 121.163 16.0617 122.44C15.4203 123.717 13.9771 126.591 13.9771 126.591Z" fill="#963F04"/>
<path d="M31.1353 85.8833C30.9749 84.4466 30.4939 83.3291 29.6921 82.3713C29.0507 81.5731 28.2489 81.0942 27.4471 81.0942C27.2867 81.0942 27.2867 81.0942 27.1264 81.0942L17.6653 83.3291L18.7878 93.5458L28.2489 91.3109C30.1732 91.1512 31.456 88.7567 31.1353 85.8833Z" fill="#B54E08"/>
<path d="M15.2599 88.7577C15.4202 90.5136 16.222 92.11 17.1842 93.0678C17.6652 93.3871 18.3067 93.5467 18.9481 93.5467C20.8724 93.3871 21.9949 90.8329 21.8345 88.1191C21.6742 86.6824 21.1931 85.565 20.3913 84.6071C19.7499 83.809 18.9481 83.3301 18.1463 83.3301C17.9859 83.3301 17.9859 83.3301 17.8256 83.3301C17.0238 83.3301 16.3824 83.809 15.9013 84.6071C15.2599 85.7246 15.0995 87.3209 15.2599 88.7577Z" fill="#963F04"/>
<path d="M14.2978 88.9164C14.4581 90.6723 15.2599 92.2687 16.222 93.2265C16.7031 93.5457 17.3446 93.7054 17.986 93.7054C19.9103 93.5458 21.0328 90.9916 20.8724 88.2778C20.712 86.8411 20.231 85.7236 19.4292 84.7658C18.7878 83.9677 17.986 83.4888 17.1842 83.4888C17.0238 83.4888 17.0238 83.4888 16.8635 83.4888C16.0617 83.6484 15.4203 83.9677 14.9392 84.7658C14.4581 86.0429 14.1374 87.4796 14.2978 88.9164Z" fill="#F78C34"/>
<path d="M20.8724 80.7756V82.6913C20.8724 83.0105 21.8345 83.1702 23.1174 83.1702C24.4002 83.1702 25.3624 83.0105 25.3624 82.6913V80.7756H20.8724Z" fill="#963F04"/>
<path d="M23.1174 81.2539C24.3573 81.2539 25.3624 81.0395 25.3624 80.775C25.3624 80.5105 24.3573 80.2961 23.1174 80.2961C21.8775 80.2961 20.8724 80.5105 20.8724 80.775C20.8724 81.0395 21.8775 81.2539 23.1174 81.2539Z" fill="#F78C34"/>
<path d="M22.476 79.498V80.7751C22.6363 80.9347 22.7967 81.0944 23.2777 81.0944C23.7588 81.0944 23.9192 80.9347 24.0795 80.7751V79.498H22.476Z" fill="#963F04"/>
<path d="M23.1174 79.8177C24.003 79.8177 24.7209 79.103 24.7209 78.2214C24.7209 77.3397 24.003 76.625 23.1174 76.625C22.2317 76.625 21.5138 77.3397 21.5138 78.2214C21.5138 79.103 22.2317 79.8177 23.1174 79.8177Z" fill="#F78C34"/>
<path d="M24.2399 77.7421L23.9192 77.4229C24.4003 78.0614 23.9192 79.0192 23.2778 79.1788C23.1174 79.1788 22.7967 79.1789 22.6364 79.3385C23.1174 79.6578 23.7589 79.6578 24.2399 79.3385C24.5606 78.8596 24.5606 78.0614 24.2399 77.7421Z" fill="#B54E08"/>
<g opacity="0.5">
<path d="M22.957 76.7847C22.476 76.7847 21.9949 77.2636 21.8345 77.7425C21.8345 77.9021 21.8345 77.9021 21.8345 78.0617C21.9949 78.2214 21.9949 78.0617 22.1553 78.0617C22.1553 77.9021 22.3156 77.9021 22.3156 77.7425C22.6363 77.4232 23.1174 77.5828 23.2778 77.2636C23.4381 76.9443 23.1174 76.7847 22.957 76.7847Z" fill="#E3EEF1"/>
</g>
<path d="M64.1688 8.62012V12.611C64.1688 13.0899 66.8949 13.5688 70.2624 13.5688C73.6299 13.5688 76.356 13.0899 76.356 12.611V8.62012H64.1688Z" fill="#963F04"/>
<path d="M70.2624 9.5777C73.6278 9.5777 76.356 9.14887 76.356 8.61988C76.356 8.0909 73.6278 7.66211 70.2624 7.66211C66.897 7.66211 64.1688 8.0909 64.1688 8.61988C64.1688 9.14887 66.897 9.5777 70.2624 9.5777Z" fill="#F78C34"/>
<path d="M68.8192 5.74707V8.30124C69.1399 8.62051 69.4606 8.78013 70.4228 8.78013C71.2246 8.78013 71.7056 8.62051 72.0264 8.30124V5.74707H68.8192Z" fill="#963F04"/>
<path d="M70.2624 6.70469C72.1223 6.70469 73.63 5.20379 73.63 3.35235C73.63 1.5009 72.1223 0 70.2624 0C68.4026 0 66.895 1.5009 66.895 3.35235C66.895 5.20379 68.4026 6.70469 70.2624 6.70469Z" fill="#F78C34"/>
<path d="M72.5074 2.23472L71.866 1.59619C72.6677 2.87327 72.0263 4.78891 70.5831 5.10818C70.1021 5.26782 69.621 5.10815 69.1399 5.42742C69.9417 6.2256 71.3849 6.066 72.347 5.26783C73.1488 4.62929 73.1488 3.19253 72.5074 2.23472Z" fill="#B54E08"/>
<path d="M70.1021 0.797828C70.1021 0.797828 70.2625 0.797819 70.4228 0.638184L70.1021 0.797828Z" fill="#E3EEF1"/>
<g opacity="0.5">
<path d="M69.9417 0.478974C68.8192 0.63861 67.8571 1.27712 67.6967 2.39457C67.6967 2.5542 67.5363 2.8735 67.6967 2.8735C67.8571 3.03314 68.1778 2.87349 68.3381 2.71386C68.4985 2.55422 68.6588 2.23496 68.8192 2.07533C69.3003 1.59642 70.5831 1.75605 70.7435 1.11751C70.7435 0.798235 70.2624 0.319339 69.9417 0.478974Z" fill="#E3EEF1"/>
</g>
<path d="M30.4938 87.3201C30.6542 86.2026 30.4938 84.1273 29.692 83.6484C29.692 84.287 28.5695 85.5641 28.2488 86.043C27.7677 86.5219 27.2866 86.6815 26.6452 87.0008C25.202 87.6393 23.5984 87.9586 21.9949 88.2779H21.8345C22.4759 89.8742 22.1552 91.7899 21.0327 92.9073C22.6363 92.2688 24.0795 91.7899 25.8434 91.4706C27.1263 91.1513 28.8902 91.1513 29.692 90.1935C30.3334 89.076 30.3334 88.2779 30.4938 87.3201Z" fill="#963F04"/>
<path d="M20.3913 83.0103C20.0706 83.0103 19.4292 83.1699 19.1085 83.3295C19.7499 83.8084 20.712 84.6066 21.1931 85.2451C21.3535 85.4048 21.3535 85.5644 21.5138 85.7241C21.6742 85.8837 21.8345 85.8837 21.9949 85.7241C21.9949 85.7241 21.9949 85.5644 21.9949 85.4048C21.9949 84.7662 21.8345 84.1277 21.3535 83.6488C21.0327 83.3295 20.3913 83.0103 20.3913 83.0103Z" fill="#E86F0C"/>
<g opacity="0.5">
<path d="M29.692 82.8503C29.5316 82.3714 29.0506 82.2117 28.7299 81.7328C28.4091 81.4136 27.9281 81.2539 27.447 81.2539C25.8434 81.7328 24.0795 81.5732 25.5227 82.8503C26.0038 82.6906 26.8056 82.531 27.2866 82.3714C27.6074 82.3714 27.7677 82.2117 28.0884 82.3714C28.7299 82.531 29.0506 82.8503 29.692 83.4888C30.8145 85.4045 29.692 83.0099 29.692 82.8503Z" fill="#963F04"/>
</g>
<g opacity="0.2">
<path d="M18.4671 86.2032C18.3067 85.7243 18.1463 85.2454 17.8256 84.7665C17.5049 84.4472 17.1842 84.1279 16.7031 84.1279C15.5806 84.6068 14.9392 85.8839 14.7788 87.161C14.6185 88.5977 14.7788 90.0344 15.4203 91.3115C15.741 91.95 16.0617 92.429 16.5428 92.9079C16.8635 93.0675 17.1842 93.2271 17.5049 93.2271C17.986 93.0675 18.1463 92.5886 18.3067 92.2693C19.1085 90.1941 18.9481 88.1188 18.4671 86.2032Z" fill="#E3EEF1"/>
</g>
<g opacity="0.3">
<path d="M17.3445 86.0437C17.3445 85.5648 17.1841 85.2455 17.0238 84.9262C16.8634 84.7666 16.5427 84.7666 16.222 84.7666C15.4202 85.4051 15.0995 86.6822 14.9391 87.7997C14.9391 88.5978 14.9391 89.396 15.0995 90.0345C15.2599 90.8327 15.7409 91.4713 16.3824 91.9502C16.7031 92.1098 17.0238 92.2695 17.1842 92.1098C17.3445 91.9502 17.3445 91.7905 17.3445 91.6309C17.6652 89.5556 17.6652 87.7996 17.3445 86.0437Z" fill="#E3EEF1"/>
</g>
<g opacity="0.5">
<path d="M59.5185 84.128C58.5564 83.8087 58.2357 82.5316 58.0753 81.5738C57.7546 79.0197 57.2735 76.3059 56.9528 73.7517V74.2306C55.67 80.9353 54.3871 87.7996 51.3403 94.0253C48.2935 100.091 43.0017 105.519 36.2667 107.275C40.2757 107.594 44.445 107.754 48.1332 106.158C50.5385 105.04 52.6232 103.284 54.3871 101.369C58.5564 96.7391 61.6032 90.9923 62.886 84.9262C63.0464 84.128 63.2068 83.1702 62.7257 82.6913C61.7635 83.4895 60.641 84.6069 59.5185 84.128Z" fill="#A9B1B7"/>
</g>
<path d="M80.365 79.9774C80.365 79.8178 80.365 79.4985 80.365 79.3389C80.365 78.5407 80.5246 77.7425 80.5246 76.9443L80.365 79.9774Z" fill="#4D4D4D"/>
<g opacity="0.3">
<path d="M86.4586 81.4143C85.1757 81.095 84.2135 79.9775 83.5721 78.8601C82.9307 77.583 82.7703 76.3059 82.2893 75.0289C82.1289 74.3903 81.4875 73.7518 81.0064 74.2307C80.8461 74.3903 80.846 74.5499 80.846 74.8692C80.6857 76.3059 80.5253 77.9023 80.365 79.339C79.4028 89.2364 75.3939 98.8145 68.9796 106.317C70.1021 106.158 71.2246 105.838 72.3471 105.679C73.7903 105.36 75.3939 105.04 76.8371 104.402C79.2425 103.125 80.6857 100.57 81.8082 98.1759C84.2136 93.3869 86.1378 88.5979 87.581 83.4895C87.7414 83.0106 87.9018 82.3721 87.4207 81.8932C87.2603 81.4143 86.7793 81.4143 86.4586 81.4143Z" fill="#A9B1B7"/>
</g>
<g opacity="0.3">
<path d="M120.134 62.7365C119.813 65.6099 119.332 68.3237 119.011 71.1972L119.653 67.6852C118.851 75.3476 116.445 83.0102 112.918 89.8745C115.163 88.757 116.766 86.8414 117.889 84.6065C119.011 82.3716 119.653 79.9771 120.134 77.5826C121.096 72.6339 121.737 67.5255 122.058 62.4172C122.058 61.9383 122.058 61.4594 121.737 61.1402C120.935 60.9805 120.294 61.9383 120.134 62.7365Z" fill="#A9B1B7"/>
</g>
<g opacity="0.5">
<path d="M131.198 51.7222C130.878 49.9662 130.397 48.0506 129.915 46.2946C128.472 41.5056 126.869 36.7165 123.661 33.0449C127.029 40.7074 130.397 48.6892 130.236 56.9902C129.434 51.2433 127.831 45.4965 125.265 40.2285C127.67 45.4965 128.953 51.0837 129.114 56.8305C129.274 62.8967 128.472 68.9628 126.869 74.8693C128.152 72.6344 129.595 70.3995 130.236 67.8454C130.717 66.0894 130.878 64.1737 131.038 62.2581C131.519 58.9058 131.679 55.2342 131.198 51.7222Z" fill="#A9B1B7"/>
</g>
<path d="M64.8103 93.3867C64.8103 93.3867 61.1221 99.7722 59.1978 101.847C58.877 102.167 58.5563 102.486 58.0753 102.965C56.151 104.721 53.906 105.998 51.8213 106.956C49.5763 107.914 46.5295 108.392 43.0017 108.712C39.4738 109.031 30.9749 107.914 26.9659 106.956C22.957 105.998 18.1463 103.603 14.9391 100.89C11.8924 98.1758 8.52485 93.5464 8.52485 93.5464C8.52485 93.5464 12.6941 103.284 11.732 107.435C10.7699 111.585 6.27985 124.994 6.27985 124.994L13.977 126.75C13.977 126.75 16.7031 121.323 18.467 119.727C20.2309 118.29 21.5138 117.013 25.202 116.853C29.0506 116.693 38.191 118.769 39.9549 119.727C41.7188 120.525 46.6899 122.919 48.4538 124.994C50.0574 127.07 52.6231 132.976 52.6231 132.976L54.387 137.925L62.2445 140C62.2445 140 60.641 129.145 60.641 125.952C60.641 122.6 61.2824 117.013 62.2445 113.98C63.2067 110.787 67.0553 105.04 67.0553 105.04L68.4985 102.646L64.8103 93.3867Z" fill="#E86F0C"/>
<path d="M64.8103 93.386L72.5074 92.2686L75.5542 101.687C75.5542 101.687 69.9417 110.467 68.9796 113.66C68.0174 117.012 66.7346 120.205 67.0553 123.078C67.376 125.952 68.4985 137.445 68.4985 137.445L62.4049 139.84C62.4049 139.84 60.641 129.144 60.641 127.069C60.641 124.834 60.4806 119.087 61.9238 114.777C64.3292 108.072 68.6588 102.326 68.6588 102.326L64.8103 93.386Z" fill="#963F04"/>
<g opacity="0.4">
<g opacity="0.4">
<path d="M42.0395 25.5417C36.9081 22.9875 30.4938 22.5086 25.5227 25.5417L26.3245 25.0628C30.9749 24.2646 35.7856 26.4995 39.4738 29.5325C43.162 32.5656 46.0484 36.3969 49.4159 39.5896C49.7367 39.9089 50.3781 40.3878 50.8592 40.2281C51.1799 40.0685 51.5006 39.5896 51.8213 39.4299C52.6231 39.1107 53.4249 40.0685 54.2267 39.7492C55.1888 39.4299 54.8681 37.9932 54.2267 37.1951C51.0195 32.5656 47.1709 28.0958 42.0395 25.5417Z" fill="white"/>
</g>
<g opacity="0.7">
<path d="M65.9328 17.8792C64.3292 16.2828 62.405 14.6865 60.16 14.3672C57.2735 14.6865 54.3871 15.0057 51.661 15.8039C57.4339 17.8791 62.7257 21.5508 66.7346 26.0206C69.9417 29.6922 72.5075 34.1619 76.8371 36.7161C77.1578 37.0354 77.7993 37.195 78.12 37.0354C78.4407 36.8758 78.601 36.3968 78.601 36.0776C78.7614 34.4812 77.9596 33.0445 77.1578 31.6078C73.9507 26.4995 70.2624 21.8701 65.9328 17.8792Z" fill="white"/>
</g>
<g opacity="0.5">
<path d="M114.361 32.7249C112.597 29.3725 110.191 26.4991 107.786 23.6257C105.541 20.9119 102.975 18.0384 99.4474 17.3999C99.9285 17.7192 100.57 18.1981 101.051 18.5174L100.089 18.0385C106.182 22.3486 110.993 28.2551 114.2 34.8002C115.002 34.4809 114.681 33.3634 114.361 32.7249Z" fill="white"/>
</g>
</g>
<g opacity="0.2">
<path d="M70.2624 12.6112C69.4607 12.2919 68.6589 11.813 68.0174 11.1745C67.8571 11.0148 67.6967 10.6956 67.8571 10.5359C68.0174 10.3763 68.3382 10.3763 68.4985 10.2166C67.376 9.89736 66.2535 9.73773 65.131 9.41846C64.9707 9.41846 64.6499 9.41846 64.6499 9.41846C64.4896 10.057 64.4896 10.8552 64.6499 11.4937C64.6499 11.6534 64.6499 11.813 64.8103 11.9726C64.9707 12.1323 65.131 12.1323 65.2914 12.2919C67.0553 13.0901 68.9796 13.2497 70.7435 12.9304C70.5832 12.7708 70.4228 12.7708 70.2624 12.6112Z" fill="#F78C34"/>
</g>
</svg>
