<svg width="150" height="102" viewBox="0 0 150 102" fill="none" xmlns="http://www.w3.org/2000/svg">
<path d="M0 19.717C0 19.717 55.0013 7.65333 63.3655 3.62549C75.8325 9.73669 150 56.166 150 56.166L76.0901 102C76.0901 102 2.18023 30.4315 0 19.717Z" fill="white"/>
<path d="M66.1998 5.07386C66.1998 5.07386 53.6139 0.470613 44.9722 9.26043C37.282 10.312 28.8782 13.8637 31.5737 22.217C25.9646 25.0345 25.2709 27.7131 27.9664 31.9989C25.806 37.1378 30.5431 39.4791 30.5431 39.4791C30.5431 39.4791 26.024 50.4317 51.176 51.7611C48.7777 60.3525 59.005 71.1066 72.8792 63.3882C74.0288 72.8328 87.7841 73.0908 91.2526 68.7852C95.9897 76.0472 102.808 68.7058 105.147 65.2534C108.893 70.3725 126.969 72.059 129.922 59.4001C116.167 54.3405 108.675 49.7174 108.675 49.7174L105.92 43.9237L112.936 38.6061L110.835 32.2171C110.835 32.2171 106.732 35.8283 94.7014 37.118C95.6131 35.61 95.1969 34.7172 95.1969 34.7172L99.3393 32.2965H95.177C95.177 32.2965 92.0653 27.9909 92.4418 22.217C86.575 17.455 77.5568 15.828 72.681 15.947C69.2125 9.00249 66.1998 5.07386 66.1998 5.07386Z" fill="#A0A0A0"/>
<path d="M63.088 1.20472C63.088 1.20472 50.5021 -3.39853 41.8605 5.39129C34.1702 6.44289 25.7664 9.99454 28.462 18.3478C22.8528 21.1653 22.1591 23.844 24.8547 28.1297C22.6943 33.2687 27.4313 35.5902 27.4313 35.5902C27.4313 35.5902 22.9123 46.5427 48.0642 47.8721C45.666 56.4635 55.8932 67.2176 69.7675 59.4993C70.917 68.9439 84.6723 69.2018 88.1409 64.8962C92.8779 72.1582 99.6961 64.8168 102.035 61.3644C105.781 66.4835 123.857 68.17 126.81 55.5111C113.055 50.4515 105.563 45.8284 105.563 45.8284L102.808 40.0347L109.824 34.7171L107.723 28.3282C107.723 28.3282 103.621 31.9393 91.5896 33.229C92.5013 31.7211 92.0851 30.8282 92.0851 30.8282L96.2276 28.4075H92.0653C92.0653 28.4075 88.9535 24.1019 89.3301 18.328C83.4633 13.566 74.445 11.939 69.5693 12.0581C66.1007 5.13335 63.088 1.20472 63.088 1.20472Z" fill="#382932"/>
<path d="M87.8832 39.6382C71.6503 43.3882 82.1154 55.5114 83.9984 57.4361C85.6435 59.1425 86.4957 61.1861 87.5264 65.5116C87.7444 65.3132 87.9823 65.1148 88.1408 64.8965C88.1606 64.9362 88.2003 64.956 88.2201 64.9957C88.2399 60.1147 84.8308 54.936 83.4236 49.4994C81.7983 43.2097 87.8832 39.6382 87.8832 39.6382Z" fill="#1D1419"/>
<path d="M57.7365 38.8047C57.7365 38.8047 67.1512 50.293 79.4794 50.908C80.6884 54.797 80.4307 55.2137 80.4307 55.2137C80.4307 55.2137 71.7098 53.4676 66.9926 50.6501C62.2754 47.8128 57.7365 38.8047 57.7365 38.8047Z" fill="#1D1419"/>
<path d="M63.1475 51.7017C63.1475 51.7017 64.8916 56.2851 70.9963 55.8089C77.1009 55.3327 82.6506 54.2215 84.7119 60.4518C81.7587 57.7732 77.537 57.9716 73.3549 58.9041C69.1728 59.8565 62.8898 57.6144 63.1475 51.7017Z" fill="#1D1419"/>
<path d="M54.0302 44.9354C50.6805 45.0743 48.8372 46.7013 47.9453 47.8719C47.985 47.8719 48.0246 47.8719 48.0642 47.8719C46.6966 52.753 49.4318 58.3285 54.5851 60.8087C54.6446 59.8364 54.823 58.5864 55.3185 56.5626C56.8843 50.114 65.0106 51.2252 65.0106 51.2252C65.0106 51.2252 62.9096 48.7847 58.4104 45.491C57.3798 45.2132 56.4086 45.0346 55.5563 44.9552C55.0212 44.9156 54.5058 44.9156 54.0302 44.9354Z" fill="#1D1419"/>
<path d="M63.9205 2.43506C63.0484 16.1654 45.1705 19.2409 45.1705 19.2409C45.1705 19.2409 46.3201 21.0663 50.5616 22.1774C62.3943 20.6099 70.0449 12.1773 70.1242 12.0781C69.9458 12.0781 69.7476 12.0582 69.5693 12.0582C66.8539 6.62163 64.852 3.72476 63.9205 2.43506Z" fill="#1D1419"/>
<path d="M26.2619 35.1338C26.6385 35.3322 27.0349 35.4909 27.4313 35.61C27.3718 35.7489 23.4474 45.8284 45.8245 47.6935C46.7164 47.1578 47.9255 46.503 49.5904 45.7093C33.0008 44.4196 30.8404 37.4553 30.5629 36.106C30.5431 35.9671 30.5233 35.8282 30.5233 35.8282L26.8962 35.2528L26.2619 35.1338Z" fill="#1D1419"/>
<path d="M47.2516 23.963C47.2516 23.963 46.5381 27.0781 52.8409 25.6297C59.1438 24.1812 63.0087 24.0027 65.0899 24.6376C67.171 25.2725 67.1512 20.5304 70.6395 19.1812C71.0954 20.2129 72.1657 22.5145 72.1657 22.5145C72.1657 22.5145 70.8576 27.2567 67.3097 27.3956C63.7619 27.5345 59.6987 27.8122 56.805 28.2091C53.9112 28.6059 51.6319 29.34 50.958 28.9829C50.3039 28.6456 45.6263 27.8519 47.2516 23.963Z" fill="#1D1419"/>
<path d="M72.7405 20.7485C72.7405 20.7485 72.6414 22.6533 73.1369 23.7645C76.9226 23.566 90.8959 27.6336 91.7085 27.8717C91.2329 27.1177 90.44 25.57 89.8652 23.3875C83.4237 21.1057 72.7405 20.7485 72.7405 20.7485Z" fill="#1D1419"/>
<path d="M28.0854 13.9429C27.8475 15.2326 27.9268 16.7008 28.462 18.3477C27.57 18.8041 26.8367 19.2406 26.1826 19.6969C27.352 21.6017 28.7989 21.939 31.6134 21.2446C32.763 24.697 37.8568 24.1018 38.5307 22.1176C43.5452 23.07 44.3975 19.4985 43.2479 16.9389C42.9506 19.9152 40.1163 20.5104 38.3721 19.4588C33.3972 23.2089 30.9989 19.1017 32.3071 16.5818C29.4926 16.3437 28.4619 15.0738 28.0854 13.9429Z" fill="#1D1419"/>
<path d="M51.394 31.245C51.394 31.245 52.504 36.4236 57.3401 38.2094C60.7492 34.7172 59.005 32.7728 63.5637 31.7807C68.4197 31.4632 74.8216 34.2212 78.3893 39.1816C78.4884 34.4791 68.7566 29.0624 61.3438 30.3918C59.2032 31.7013 53.6337 36.1855 51.394 31.245Z" fill="#1D1419"/>
<path d="M39.5216 29.8159C39.5216 29.8159 38.5306 38.328 56.5473 43.0106C46.7957 46.5622 31.6134 38.1692 39.5216 29.8159Z" fill="#1D1419"/>
<path d="M98.4871 40.8682C108.734 52.5152 100.192 63.686 100.192 63.686V63.7058C100.925 62.8725 101.599 62.059 102.035 61.4042C102.53 62.0788 103.264 62.6741 104.175 63.2098C108.833 56.3049 109.15 51.2652 98.4871 40.8682Z" fill="#1D1419"/>
<path d="M76.3478 25.9868C76.3478 25.9868 80.3317 30.8877 79.8758 32.8322C78.2902 34.5385 77.8739 37.0187 77.8739 37.0187L78.1118 38.368C78.1118 38.368 83.8597 34.6377 84.3552 34.6377C84.8507 34.6377 86.2183 27.8519 86.2183 27.8519L82.1155 32.2766C82.1353 32.2766 79.9749 27.336 76.3478 25.9868Z" fill="#1D1419"/>
<path d="M1.09012 19.459C0.991015 19.4987 0 19.7169 0 19.7169C2.18023 30.4512 76.0901 102 76.0901 102L150 56.1659C150 56.1659 147.84 54.8167 147.404 54.5389C132.3 64.9756 85.5444 90.214 75.7334 94.3014C53.0986 76.8805 3.64693 22.2963 1.09012 19.459Z" fill="#BFBFBF"/>
<path d="M147.404 54.5391C132.3 64.9757 85.5444 90.2142 75.7333 94.3016C75.5748 94.1825 75.3766 94.004 75.218 93.8849L75.9514 101.861L76.0901 102L150 56.1661C150 56.1661 147.82 54.8168 147.404 54.5391Z" fill="#A0A0A0"/>
<path d="M43.4857 6.10557C43.4857 6.10557 49.8877 -2.00964 61.2843 1.85947C53.3959 2.55393 45.0515 9.77626 45.0515 9.77626L43.4857 6.10557Z" fill="#6A5160"/>
<path d="M29.5322 13.9234C29.2151 13.9036 34.7053 4.79628 42.4749 6.62171C38.7883 7.77252 30.7809 15.0742 30.7809 15.0742C30.7809 15.0742 29.8494 13.9631 29.5322 13.9234Z" fill="#6A5160"/>
<path d="M70.0648 14.5977C70.0648 14.5977 69.5891 18.9628 62.9294 21.562C68.1224 21.8795 71.4918 18.8239 71.4918 18.8239L70.0648 14.5977Z" fill="#6A5160"/>
<path d="M60.7096 35.8086C60.7096 35.8086 68.5584 32.5347 77.5568 41.0468C72.6018 32.3165 63.7619 30.0545 60.7096 35.8086Z" fill="#6A5160"/>
<path d="M81.0452 38.6856C80.6488 39.0229 87.3084 34.3998 99.2402 37.9911C95.4545 33.7649 88.9733 31.9395 81.0452 38.6856Z" fill="#6A5160"/>
<path d="M96.7627 34.499C96.7627 34.499 103.303 36.4236 108.001 31.1854C107.426 29.6973 107.446 29.5386 107.446 29.5386C107.446 29.5386 103.601 33.5466 96.7627 34.499Z" fill="#6A5160"/>
<path d="M72.245 15.8876C72.245 15.8876 79.9551 15.0542 86.9318 19.8162C87.8436 17.9908 87.1499 17.5542 87.1499 17.5542C87.1499 17.5542 79.2217 13.3082 72.245 15.8876Z" fill="#6A5160"/>
<path d="M107.604 49.0029L109.091 55.2133C109.091 55.2133 117.752 58.4078 124.273 56.1062C117.039 56.6023 107.604 49.0029 107.604 49.0029Z" fill="#6A5160"/>
<path d="M86.1588 46.1659C86.1588 46.1659 93.0761 40.7293 98.1897 44.896C97.3771 39.8562 87.3084 38.5269 86.1588 46.1659Z" fill="#6A5160"/>
<path d="M73.1567 25.7686C73.1567 25.7686 76.4469 29.0821 73.8703 31.4631C77.6758 32.4155 79.0632 32.356 79.0632 32.356C79.0632 32.356 75.7136 26.959 73.1567 25.7686Z" fill="#6A5160"/>
<path d="M82.3335 26.3042C82.3335 26.3042 88.5967 26.4431 90.7571 28.6653C89.8057 29.4193 89.3895 29.9947 89.3895 29.9947L82.3335 26.3042Z" fill="#E5B0CF"/>
<path d="M44.2191 6.04622C44.2191 6.04622 49.3525 1.12551 55.477 1.42313C49.9075 3.18903 45.0515 8.52642 45.0515 8.52642L44.2191 6.04622Z" fill="#E5B0CF"/>
<path d="M59.4411 3.80369C59.4411 3.80369 61.3438 5.05371 59.4213 8.54583C62.4141 6.8593 62.8304 2.93066 62.8304 2.93066L59.4411 3.80369Z" fill="#E5B0CF"/>
<path d="M86.2778 36.245C86.2778 36.245 92.8977 34.3601 96.6834 36.9395C95.2762 34.6974 89.6274 32.6339 86.2778 36.245Z" fill="#E5B0CF"/>
<path d="M89.3895 43.2291C89.3895 43.2291 93.5914 41.3243 95.95 43.5267C94.8203 41.1854 91.1139 39.5782 89.3895 43.2291Z" fill="#E5B0CF"/>
<path d="M64.2574 34.2808C64.2574 34.2808 70.2629 33.3879 73.1369 36.88C71.7891 32.7331 65.8034 33.9435 64.2574 34.2808Z" fill="#E5B0CF"/>
<path d="M80.4506 16.3834C80.4506 16.3834 85.6237 17.1771 86.5354 18.7842C87.2093 17.5144 87.13 17.6731 87.13 17.6731C87.13 17.6731 83.5227 15.9667 80.4506 16.3834Z" fill="#E5B0CF"/>
<path d="M70.0053 16.8799C70.0053 16.8799 69.0737 19.1021 66.9529 20.0744C69.3314 20.2133 70.9963 18.7053 70.9963 18.7053L70.0053 16.8799Z" fill="#E5B0CF"/>
<path d="M75.5352 27.8521C75.5352 27.8521 77.0019 29.5584 75.8126 31.0267C76.4072 31.6616 78.6271 31.5624 78.6271 31.5624L75.5352 27.8521Z" fill="#E5B0CF"/>
<path d="M40.7902 30.5701C40.7902 30.5701 42.8911 27.5145 47.5489 28.6654C43.783 29.7368 43.2281 34.4393 43.2281 34.4393C43.2281 34.4393 41.0082 32.4551 40.7902 30.5701Z" fill="#6A5160"/>
<path d="M41.1073 30.749L42.6731 32.4157C42.6731 32.4157 42.6731 29.0823 46.0822 28.7053C44.7542 27.2172 42.1181 28.3085 41.1073 30.749Z" fill="#E5B0CF"/>
<path d="M41.1469 23.3082C41.1469 23.3082 43.347 23.0503 44.5164 21.5225C46.2209 22.4749 46.1813 23.9828 46.1813 23.9828C46.1813 23.9828 41.8604 24.9749 41.1469 23.3082Z" fill="#6A5160"/>
<path d="M90.3806 53.4876C90.3806 52.5153 91.1734 51.7217 92.1446 51.7217C93.1158 51.7217 93.9086 52.5153 93.9086 53.4876C93.9086 54.4598 93.1158 55.2535 92.1446 55.2535C91.1734 55.2535 90.3806 54.4598 90.3806 53.4876Z" fill="#6A5160"/>
<path d="M86.4165 52.1778C86.4165 51.404 87.0508 50.769 87.8237 50.769C88.5967 50.769 89.231 51.404 89.231 52.1778C89.231 52.9516 88.5967 53.5865 87.8237 53.5865C87.0508 53.5865 86.4165 52.9516 86.4165 52.1778Z" fill="#6A5160"/>
<path d="M94.0473 49.7176C94.0473 48.7453 94.8401 47.9517 95.8113 47.9517C96.7825 47.9517 97.5753 48.7453 97.5753 49.7176C97.5753 50.6898 96.7825 51.4835 95.8113 51.4835C94.8401 51.4835 94.0473 50.6898 94.0473 49.7176Z" fill="#6A5160"/>
<path d="M91.4509 60.1936C91.4509 59.2214 92.2437 58.4277 93.2149 58.4277C94.1861 58.4277 94.9789 59.2214 94.9789 60.1936C94.9789 61.1659 94.1861 61.9595 93.2149 61.9595C92.2437 61.9595 91.4509 61.1659 91.4509 60.1936Z" fill="#6A5160"/>
<path d="M96.3267 54.5984C96.3267 53.6262 97.1195 52.8325 98.0907 52.8325C99.0619 52.8325 99.8547 53.6262 99.8547 54.5984C99.8547 55.5707 99.0619 56.3643 98.0907 56.3643C97.1195 56.3643 96.3267 55.5707 96.3267 54.5984Z" fill="#6A5160"/>
<path d="M88.2202 48.4871C88.2202 47.5149 89.013 46.7212 89.9842 46.7212C90.9554 46.7212 91.7482 47.5149 91.7482 48.4871C91.7482 49.4593 90.9554 50.253 89.9842 50.253C89.013 50.253 88.2202 49.4593 88.2202 48.4871Z" fill="#6A5160"/>
<path d="M99.0817 49.9949C99.0817 49.0227 99.8745 48.229 100.846 48.229C101.817 48.229 102.61 49.0227 102.61 49.9949C102.61 50.9671 101.817 51.7608 100.846 51.7608C99.8745 51.7608 99.0817 50.9671 99.0817 49.9949Z" fill="#6A5160"/>
<path d="M96.3267 60.4715C96.3267 59.4992 97.1195 58.7056 98.0907 58.7056C99.0619 58.7056 99.8547 59.4992 99.8547 60.4715C99.8547 61.4437 99.0619 62.2374 98.0907 62.2374C97.1195 62.2374 96.3267 61.4437 96.3267 60.4715Z" fill="#6A5160"/>
<path d="M63.7619 37.6733C63.7619 36.582 64.634 35.709 65.7241 35.709C66.8142 35.709 67.6863 36.582 67.6863 37.6733C67.6863 38.7646 66.8142 39.6376 65.7241 39.6376C64.6538 39.6376 63.7619 38.7646 63.7619 37.6733Z" fill="#6A5160"/>
<path d="M68.4593 45.5309C68.4593 44.3603 69.4107 43.4277 70.5602 43.4277C71.7296 43.4277 72.6612 44.3801 72.6612 45.5309C72.6612 46.7016 71.7098 47.6342 70.5602 47.6342C69.3908 47.6342 68.4593 46.7016 68.4593 45.5309Z" fill="#6A5160"/>
<path d="M73.7513 44.1022C73.7513 43.507 74.227 43.0308 74.8216 43.0308C75.4162 43.0308 75.8919 43.507 75.8919 44.1022C75.8919 44.6975 75.4162 45.1737 74.8216 45.1737C74.227 45.1737 73.7513 44.6975 73.7513 44.1022Z" fill="#6A5160"/>
<path d="M75.9117 41.6618C75.9117 40.9872 76.4667 40.4316 77.1406 40.4316C77.8145 40.4316 78.3695 40.9872 78.3695 41.6618C78.3695 42.3364 77.8145 42.892 77.1406 42.892C76.4667 42.892 75.9117 42.3563 75.9117 41.6618Z" fill="#6A5160"/>
<path d="M72.7405 41.384C72.7405 40.7094 73.2954 40.1538 73.9693 40.1538C74.6432 40.1538 75.1982 40.7094 75.1982 41.384C75.1982 42.0586 74.6432 42.6142 73.9693 42.6142C73.2954 42.6142 72.7405 42.0586 72.7405 41.384Z" fill="#6A5160"/>
<path d="M73.9495 47.6736C73.9495 46.7014 74.7423 45.9077 75.7135 45.9077C76.6847 45.9077 77.4775 46.7014 77.4775 47.6736C77.4775 48.6459 76.6847 49.4395 75.7135 49.4395C74.7423 49.4395 73.9495 48.6459 73.9495 47.6736Z" fill="#6A5160"/>
<path d="M67.8052 40.4115C67.8052 39.3004 68.717 38.3877 69.8269 38.3877C70.9368 38.3877 71.8486 39.3004 71.8486 40.4115C71.8486 41.5227 70.9368 42.4354 69.8269 42.4354C68.6971 42.4354 67.8052 41.5425 67.8052 40.4115Z" fill="#6A5160"/>
<path d="M63.9998 42.1378C63.9998 41.3838 64.6142 40.7886 65.3674 40.7886C66.1205 40.7886 66.7151 41.4037 66.7151 42.1378C66.7151 42.8918 66.1007 43.487 65.3674 43.487C64.5944 43.487 63.9998 42.8918 63.9998 42.1378Z" fill="#6A5160"/>
<path d="M59.6789 38.6458C59.6789 37.6735 60.4717 36.8799 61.4429 36.8799C62.4141 36.8799 63.2069 37.6735 63.2069 38.6458C63.2069 39.618 62.4141 40.4117 61.4429 40.4117C60.4717 40.4117 59.6789 39.618 59.6789 38.6458Z" fill="#6A5160"/>
<path d="M44.4767 34.7566C44.4767 33.7844 45.2696 32.9907 46.2408 32.9907C47.2119 32.9907 48.0048 33.7844 48.0048 34.7566C48.0048 35.7289 47.2119 36.5225 46.2408 36.5225C45.2696 36.5225 44.4767 35.7289 44.4767 34.7566Z" fill="#6A5160"/>
<path d="M49.0156 34.0623C49.0156 33.09 49.8084 32.2964 50.7796 32.2964C51.7508 32.2964 52.5436 33.09 52.5436 34.0623C52.5436 35.0345 51.7508 35.8282 50.7796 35.8282C49.8084 35.8282 49.0156 35.0345 49.0156 34.0623Z" fill="#6A5160"/>
<path d="M47.3309 30.7885C47.3309 30.1138 47.866 29.5781 48.5399 29.5781C49.2138 29.5781 49.7489 30.1138 49.7489 30.7885C49.7489 31.4631 49.2138 31.9988 48.5399 31.9988C47.866 31.9988 47.3309 31.4631 47.3309 30.7885Z" fill="#6A5160"/>
<path d="M50.066 38.1697C50.066 37.1975 50.8589 36.4038 51.83 36.4038C52.8012 36.4038 53.5941 37.1975 53.5941 38.1697C53.5941 39.1419 52.8012 39.9356 51.83 39.9356C50.8589 39.9356 50.066 39.1419 50.066 38.1697Z" fill="#6A5160"/>
<path d="M46.7957 13.9628C46.7957 13.2088 47.4101 12.5938 48.1633 12.5938C48.9165 12.5938 49.5309 13.2088 49.5309 13.9628C49.5309 14.7168 48.9165 15.3319 48.1633 15.3319C47.43 15.3319 46.7957 14.7168 46.7957 13.9628Z" fill="#6A5160"/>
<path d="M49.1147 8.36746C49.1147 7.39523 49.9075 6.60156 50.8787 6.60156C51.8499 6.60156 52.6427 7.39523 52.6427 8.36746C52.6427 9.3397 51.8499 10.1334 50.8787 10.1334C49.9075 10.1334 49.1147 9.3397 49.1147 8.36746Z" fill="#6A5160"/>
<path d="M53.059 5.96659C53.059 5.23245 53.6536 4.63721 54.3671 4.63721C55.1004 4.63721 55.6951 5.23245 55.6951 5.96659C55.6951 6.70073 55.1004 7.29598 54.3671 7.29598C53.6536 7.29598 53.059 6.70073 53.059 5.96659Z" fill="#6A5160"/>
<path d="M56.25 4.49833C56.25 3.76419 56.8446 3.16895 57.578 3.16895C58.3113 3.16895 58.8861 3.76419 58.8861 4.49833C58.8861 5.23247 58.2915 5.80787 57.578 5.80787C56.8446 5.80787 56.25 5.23247 56.25 4.49833Z" fill="#6A5160"/>
<path d="M55.4374 12.4151C55.4374 11.6413 56.0716 11.0063 56.8446 11.0063C57.6176 11.0063 58.2519 11.6413 58.2519 12.4151C58.2519 13.1889 57.6176 13.8239 56.8446 13.8239C56.0716 13.804 55.4374 13.1889 55.4374 12.4151Z" fill="#6A5160"/>
<path d="M46.3795 10.4708C46.3795 9.69694 47.0138 9.06201 47.7868 9.06201C48.5598 9.06201 49.194 9.69694 49.194 10.4708C49.194 11.2446 48.5598 11.8795 47.7868 11.8795C46.9939 11.8795 46.3795 11.2446 46.3795 10.4708Z" fill="#6A5160"/>
<path d="M50.9183 14.3797C50.9183 13.4074 51.7111 12.6138 52.6823 12.6138C53.6535 12.6138 54.4464 13.4074 54.4464 14.3797C54.4464 15.3519 53.6535 16.1456 52.6823 16.1456C51.7111 16.1456 50.9183 15.3519 50.9183 14.3797Z" fill="#6A5160"/>
<path d="M55.6356 8.90338C55.6356 8.12956 56.2698 7.49463 57.0428 7.49463C57.8158 7.49463 58.45 8.12956 58.45 8.90338C58.45 9.6772 57.8158 10.3121 57.0428 10.3121C56.2698 10.3121 55.6356 9.6772 55.6356 8.90338Z" fill="#6A5160"/>
<path d="M52.5436 10.7884C52.5436 10.0542 53.1382 9.45898 53.8715 9.45898C54.6049 9.45898 55.1995 10.0542 55.1995 10.7884C55.1995 11.5225 54.6049 12.1178 53.8715 12.1178C53.1382 12.1178 52.5436 11.5225 52.5436 10.7884Z" fill="#6A5160"/>
<path d="M45.4281 16.5817C45.4281 15.9071 45.9831 15.3516 46.657 15.3516C47.3308 15.3516 47.8858 15.9071 47.8858 16.5817C47.8858 17.2564 47.3308 17.8119 46.657 17.8119C45.9831 17.8119 45.4281 17.2564 45.4281 16.5817Z" fill="#6A5160"/>
<path d="M40.1163 9.63748C40.1163 8.66524 40.9091 7.87158 41.8803 7.87158C42.8515 7.87158 43.6443 8.66524 43.6443 9.63748C43.6443 10.6097 42.8515 11.4034 41.8803 11.4034C40.9091 11.4034 40.1163 10.6097 40.1163 9.63748Z" fill="#6A5160"/>
<path d="M36.3702 11.7205C36.3702 10.7483 37.163 9.95459 38.1342 9.95459C39.1054 9.95459 39.8983 10.7483 39.8983 11.7205C39.8983 12.6927 39.1054 13.4864 38.1342 13.4864C37.163 13.4864 36.3702 12.7126 36.3702 11.7205Z" fill="#6A5160"/>
<path d="M39.9379 14.1612C39.9379 13.3874 40.5721 12.7524 41.3451 12.7524C42.1181 12.7524 42.7523 13.3874 42.7523 14.1612C42.7523 14.935 42.1181 15.5699 41.3451 15.5699C40.5721 15.5699 39.9379 14.935 39.9379 14.1612Z" fill="#6A5160"/>
<path d="M38.3721 25.9075C38.3721 24.9353 39.1649 24.1416 40.1361 24.1416C41.1073 24.1416 41.9001 24.9353 41.9001 25.9075C41.9001 26.8797 41.1073 27.6734 40.1361 27.6734C39.1649 27.6734 38.3721 26.8797 38.3721 25.9075Z" fill="#6A5160"/>
<path d="M48.6192 24.459C48.6192 23.8836 49.0751 23.4272 49.6499 23.4272C50.2246 23.4272 50.6805 23.9034 50.6805 24.459C50.6805 25.0344 50.2048 25.4908 49.6499 25.4908C49.0751 25.4908 48.6192 25.0344 48.6192 24.459Z" fill="#6A5160"/>
<path d="M52.3256 23.8044C52.3256 23.0901 52.9004 22.5146 53.6139 22.5146C54.3274 22.5146 54.922 23.0901 54.922 23.8044C54.922 24.5186 54.3472 25.1139 53.6139 25.1139C52.9004 25.0941 52.3256 24.5186 52.3256 23.8044Z" fill="#6A5160"/>
<path d="M63.3456 18.7248C63.3456 18.0502 63.9006 17.4946 64.5745 17.4946C65.2484 17.4946 65.8034 18.0502 65.8034 18.7248C65.8034 19.3994 65.2484 19.955 64.5745 19.955C63.9006 19.955 63.3456 19.3994 63.3456 18.7248Z" fill="#6A5160"/>
<path d="M60.0356 21.3239C60.0356 20.6493 60.5906 20.0938 61.2645 20.0938C61.9384 20.0938 62.4934 20.6493 62.4934 21.3239C62.4934 21.9985 61.9384 22.5541 61.2645 22.5541C60.5906 22.5541 60.0356 21.9985 60.0356 21.3239Z" fill="#6A5160"/>
<path d="M66.4971 16.304C66.4971 15.8477 66.8737 15.4707 67.3295 15.4707C67.7854 15.4707 68.162 15.8477 68.162 16.304C68.162 16.7604 67.7854 17.1374 67.3295 17.1374C66.8737 17.1374 66.4971 16.7604 66.4971 16.304Z" fill="#6A5160"/>
<path d="M57.459 22.7131C57.459 22.1973 57.8753 21.7607 58.4104 21.7607C58.9258 21.7607 59.3618 22.1774 59.3618 22.7131C59.3618 23.229 58.9456 23.6655 58.4104 23.6655C57.8951 23.6655 57.459 23.229 57.459 22.7131Z" fill="#6A5160"/>
<path d="M72.5819 18.3678C72.5819 17.6138 73.1963 17.0186 73.9297 17.0186C74.6829 17.0186 75.2775 17.6138 75.2775 18.3678C75.2775 19.1218 74.663 19.717 73.9297 19.717C73.1765 19.717 72.5819 19.1019 72.5819 18.3678Z" fill="#6A5160"/>
<path d="M76.2685 19.0227C76.2685 18.1298 76.982 17.4155 77.8739 17.4155C78.7659 17.4155 79.4794 18.1497 79.4794 19.0227C79.4794 19.9156 78.7659 20.6299 77.8739 20.6299C77.0018 20.6299 76.2685 19.9156 76.2685 19.0227Z" fill="#6A5160"/>
<path d="M80.1731 19.0623C80.1731 18.348 80.7479 17.7925 81.4416 17.7925C82.1551 17.7925 82.7101 18.3679 82.7101 19.0623C82.7101 19.7568 82.1353 20.3322 81.4416 20.3322C80.7479 20.3322 80.1731 19.7568 80.1731 19.0623Z" fill="#6A5160"/>
<path d="M83.4633 20.054C83.4633 19.5182 83.8993 19.1016 84.4345 19.1016C84.9696 19.1016 85.4056 19.5381 85.4056 20.054C85.4056 20.5897 84.9696 21.0064 84.4345 21.0064C83.8795 21.0064 83.4633 20.5897 83.4633 20.054Z" fill="#6A5160"/>
<path d="M86.0598 21.1853C86.0598 20.7686 86.3967 20.4512 86.7931 20.4512C87.1895 20.4512 87.5265 20.7885 87.5265 21.1853C87.5265 21.5821 87.1895 21.9194 86.7931 21.9194C86.3967 21.9194 86.0598 21.602 86.0598 21.1853Z" fill="#6A5160"/>
<path d="M78.6667 26.3836C78.6667 25.8876 79.0632 25.4907 79.5587 25.4907C80.0542 25.4907 80.4506 25.8876 80.4506 26.3836C80.4506 26.8796 80.0542 27.2765 79.5587 27.2765C79.0632 27.2765 78.6667 26.8796 78.6667 26.3836Z" fill="#6A5160"/>
<path d="M81.0056 29.1022C81.0056 28.3879 81.5803 27.8125 82.2939 27.8125C83.0074 27.8125 83.5822 28.3879 83.5822 29.1022C83.5822 29.8165 83.0074 30.3919 82.2939 30.3919C81.5803 30.3919 81.0056 29.8165 81.0056 29.1022Z" fill="#6A5160"/>
<path d="M106.871 61.2055C106.871 60.4515 107.485 59.8364 108.239 59.8364C108.992 59.8364 109.606 60.4515 109.606 61.2055C109.606 61.9595 108.992 62.5746 108.239 62.5746C107.485 62.5746 106.871 61.9595 106.871 61.2055Z" fill="#6A5160"/>
<path d="M116.801 61.7609C116.801 60.9673 117.455 60.3125 118.248 60.3125C119.061 60.3125 119.715 60.9673 119.715 61.7609C119.715 62.5744 119.061 63.2292 118.248 63.2292C117.455 63.2292 116.801 62.5744 116.801 61.7609Z" fill="#6A5160"/>
<path d="M110.082 58.507C110.082 57.6935 110.736 57.0586 111.529 57.0586C112.322 57.0586 112.976 57.7134 112.976 58.507C112.976 59.3007 112.322 59.9555 111.529 59.9555C110.736 59.9753 110.082 59.3205 110.082 58.507Z" fill="#6A5160"/>
<path d="M115.077 58.8644C115.077 58.1501 115.651 57.5747 116.365 57.5747C117.079 57.5747 117.653 58.1501 117.653 58.8644C117.653 59.5787 117.079 60.1541 116.365 60.1541C115.651 60.1541 115.077 59.5787 115.077 58.8644Z" fill="#6A5160"/>
<path d="M120.131 58.5666C120.131 57.8523 120.706 57.2769 121.419 57.2769C122.133 57.2769 122.707 57.8523 122.707 58.5666C122.707 59.2809 122.133 59.8563 121.419 59.8563C120.706 59.8761 120.131 59.2809 120.131 58.5666Z" fill="#6A5160"/>
<path d="M112.143 62.2967C112.143 61.3244 112.936 60.5308 113.907 60.5308C114.878 60.5308 115.671 61.3244 115.671 62.2967C115.671 63.2689 114.878 64.0626 113.907 64.0626C112.936 64.0626 112.143 63.2887 112.143 62.2967Z" fill="#6A5160"/>
<path d="M73.7117 60.7888C73.7117 59.8166 74.5045 59.0229 75.4757 59.0229C76.4469 59.0229 77.2397 59.8166 77.2397 60.7888C77.2397 61.7611 76.4469 62.5547 75.4757 62.5547C74.5045 62.5547 73.7117 61.7611 73.7117 60.7888Z" fill="#6A5160"/>
<path d="M78.8452 62.0589C78.8452 61.0866 79.638 60.293 80.6092 60.293C81.5804 60.293 82.3732 61.0866 82.3732 62.0589C82.3732 63.0311 81.5804 63.8248 80.6092 63.8248C79.6182 63.8248 78.8452 63.0311 78.8452 62.0589Z" fill="#6A5160"/>
<path d="M76.8829 65.3328C76.8829 64.3606 77.6757 63.5669 78.6469 63.5669C79.6181 63.5669 80.411 64.3606 80.411 65.3328C80.411 66.305 79.6181 67.0987 78.6469 67.0987C77.6757 67.0987 76.8829 66.3249 76.8829 65.3328Z" fill="#6A5160"/>
</svg>
