<svg width="140" height="128" viewBox="0 0 140 128" fill="none" xmlns="http://www.w3.org/2000/svg">
<path d="M136.521 75.8887C136.485 75.8887 136.485 75.8177 136.485 75.8177C134.687 72.8361 125.803 77.6634 123.249 78.3024C117.206 79.7577 110.984 80.2901 104.869 81.3904C94.1507 83.3072 83.5401 84.656 72.6418 84.6205C61.9233 84.585 51.0609 83.7331 40.7381 80.858C35.8104 79.4737 30.9547 77.8409 25.8832 76.8825C23.4014 76.4211 20.9197 75.8532 18.4738 75.3208C15.992 74.7883 14.9849 74.3624 12.8628 73.333C9.44583 71.6293 5.59725 70.7419 2.46802 73.546C1.89253 74.0784 1.46092 74.6464 1.17317 75.2853C0.453811 75.5692 -0.121678 76.3856 0.0221939 77.2375C0.202034 78.4798 0.238002 79.7576 0.597683 80.929C0.957364 82.1003 1.28108 83.2717 1.64076 84.443C2.39609 87.0696 3.29529 89.5898 4.55417 92.0035C6.74823 96.2984 9.84148 100.274 13.0067 103.93C19.3011 111.171 27.6817 116.495 36.35 120.648C56.9237 130.48 77.8931 129.912 99.2941 122.139C126.486 112.129 148.822 73.901 136.521 75.8887Z" fill="url(#paint0_linear_20002_17682)"/>
<g style="mix-blend-mode:overlay" opacity="0.4">
<path d="M132.996 79.8645C128.428 87.4604 125.119 95.5888 119.041 102.226C112.926 108.899 104.941 113.833 96.6684 117.525C88.6476 121.11 80.0512 123.736 71.3829 125.156C66.8509 125.902 62.247 126.363 57.6431 126.328C54.1182 126.292 50.8091 125.724 47.4641 124.943C64.441 130.019 81.7057 128.493 99.2222 122.139C119.94 114.579 137.816 90.726 139.794 80.5389C138.895 77.9832 134.687 77.0603 132.996 79.8645Z" fill="#623806"/>
</g>
<g style="mix-blend-mode:overlay" opacity="0.4">
<path d="M99.2221 122.068C126.486 112.129 148.858 73.9009 136.521 75.8532C136.485 75.8532 136.485 75.7822 136.485 75.7822C135.91 74.8238 134.579 74.6818 132.996 74.9303C132.025 75.8532 131.126 76.8825 130.083 77.8409C127.853 79.8641 125.299 81.4614 122.565 82.7392C119.76 84.0526 116.739 84.9399 113.753 85.8273C113.322 85.9338 112.89 86.0758 112.458 86.2532C110.552 84.7979 107.099 85.2239 106.416 88.028C106.38 88.0635 106.344 88.0635 106.308 88.099C105.193 88.7734 104.33 89.7673 103.646 90.9031C104.617 87.886 101.344 84.4785 97.9992 86.3597C95.6973 87.6731 95.0139 89.9802 95.1577 92.4649C95.3016 94.7366 94.9779 97.0083 94.5103 99.2445C93.6831 103.22 91.7048 107.231 89.3309 110.141C84.4752 116.14 77.6773 119.903 70.4836 122.103C62.5347 124.517 55.0174 124.198 46.6008 123.665C45.4139 123.594 44.2269 123.523 43.004 123.417C61.4557 130.196 80.1591 129.025 99.2221 122.068Z" fill="#BDB9AA"/>
</g>
<g style="mix-blend-mode:overlay" opacity="0.8">
<path d="M132.529 86.7145C131.198 88.5247 129.939 90.2995 128.069 91.5773C126.054 92.9616 123.177 93.3166 120.983 94.3104C120.299 94.6299 119.616 94.9848 118.969 95.3753C118.465 94.7719 117.602 94.4169 116.811 94.9138C114.473 96.4046 111.847 97.15 109.293 98.1439C105.84 99.4927 102.208 100.167 98.6467 101.161C95.1578 102.155 91.6689 103.291 88.0721 103.717C84.691 104.107 81.2021 103.113 77.9291 104.072C77.7132 104.143 77.5334 104.32 77.4615 104.498C74.9077 104.285 72.39 104.072 69.8362 103.823C64.2612 103.291 58.7221 102.581 53.183 101.977C47.7518 101.374 42.3206 100.948 36.9254 100.132C30.0555 99.1023 23.6172 97.292 17.5027 93.991C14.841 92.5712 12.3952 90.8319 9.84147 89.2701C8.9063 88.6667 7.93516 88.1343 6.99999 87.4954C6.06482 86.8564 4.66206 86.182 4.23045 85.0817C3.87076 84.1588 2.43204 84.2653 2.46801 85.3302C2.46801 88.5957 6.28063 90.477 8.65452 92.0032C12.8268 94.7009 16.8552 97.3985 21.4951 99.2798C45.5218 109.147 72.5338 108.686 97.8554 104.959C110.372 103.113 130.838 97.1855 134.938 88.0278C135.55 86.466 133.536 85.3657 132.529 86.7145Z" fill="#0A0802"/>
</g>
<path d="M69.8722 104.64C108.33 104.64 139.506 92.9275 139.506 78.4797C139.506 64.032 108.33 52.3198 69.8722 52.3198C31.4143 52.3198 0.237976 64.032 0.237976 78.4797C0.237976 92.9275 31.4143 104.64 69.8722 104.64Z" fill="url(#paint1_linear_20002_17682)"/>
<path opacity="0.2" d="M92.676 53.7397C91.1293 56.6149 89.8345 59.6319 88.3598 62.507C86.1298 66.9084 83.5401 71.0969 81.1302 75.3918C78.5405 80.0061 76.1666 84.7625 74.548 89.8028C74.3682 90.1578 74.2963 90.4772 74.2603 90.9032C74.0085 91.1516 73.9006 91.5776 74.0805 92.0035C75.5911 95.2336 82.8207 100.274 88.4677 103.717C117.89 100.629 139.542 90.5127 139.542 78.4799C139.542 67.0149 119.94 57.2893 92.676 53.7397Z" fill="#D6D6C7"/>
<path d="M70.4477 96.5472C103.641 96.5472 130.55 87.632 130.55 76.6344C130.55 65.6369 103.641 56.7217 70.4477 56.7217C37.2539 56.7217 10.345 65.6369 10.345 76.6344C10.345 87.632 37.2539 96.5472 70.4477 96.5472Z" fill="#B2B790"/>
<path opacity="0.3" d="M130.658 76.6342C130.658 71.8068 125.479 67.4054 116.847 63.9624C115.911 64.1044 115.12 64.6013 114.724 65.7372C114.185 67.2635 115.839 68.5058 117.242 68.2218C116.847 68.2928 116.523 68.2928 116.307 68.2573C116.379 68.2928 116.487 68.3638 116.595 68.4348C116.99 68.7188 117.53 69.1092 117.998 69.4641C118.825 70.0676 119.616 70.742 120.479 71.3454C121.45 72.0198 122.601 73.0137 123.033 73.6526C123.141 73.901 123.213 74.0075 123.249 74.0075C123.321 74.2915 123.465 74.7884 123.465 74.5755C123.537 75.2499 123.429 75.8888 123.393 76.5632C123.393 76.5277 123.357 76.6697 123.285 76.9891C123.213 77.3086 123.105 77.628 122.997 77.9475C122.961 77.983 122.925 78.0895 122.817 78.3379C122.637 78.7284 122.386 79.0833 122.134 79.4383C122.098 79.5093 122.026 79.5803 121.99 79.6158C121.738 79.9352 121.45 80.2192 121.163 80.5386C120.623 81.0711 120.084 81.6035 119.544 82.1004C119.364 82.2424 119.22 82.3844 119.041 82.5264C119.292 82.3134 118.393 82.9878 118.357 83.0233C117.746 83.4492 117.098 83.8397 116.415 84.2301C115.156 84.94 113.861 85.508 112.674 86.3243C111.092 87.3537 110.121 89.1639 110.552 91.0097C110.552 91.1162 110.588 91.2227 110.588 91.3646C110.588 91.4001 110.624 91.4356 110.66 91.5066C122.925 87.8151 130.658 82.5264 130.658 76.6342Z" fill="#FE831F"/>
<path opacity="0.3" d="M35.0551 60.5547C20.0564 64.1752 10.345 70.0319 10.345 76.6695C10.345 81.2838 15.0928 85.5433 23.1137 88.9508C23.941 87.4955 23.7971 85.6142 22.4303 83.9105C21.1355 82.3132 20.8837 81.2838 21.0995 79.1186C21.0276 79.8995 21.3153 78.3732 21.3872 78.1958C21.4592 77.9828 21.5311 77.7698 21.603 77.5214C21.639 77.4504 21.675 77.3439 21.7469 77.2374C22.2505 76.1725 22.9339 75.1787 23.6173 74.2203C23.905 73.7944 23.905 73.8654 24.4086 73.2619C24.8042 72.8005 25.2718 72.3391 25.7034 71.8776C26.5666 70.9903 27.5018 70.1384 28.437 69.322C30.1634 67.8312 31.9619 66.5534 33.6164 64.9916C34.4077 64.2462 34.5156 63.0393 34.1559 62.0455C34.5875 61.655 34.9112 61.1226 35.0551 60.5547Z" fill="#FE831F"/>
<path d="M60.3407 92.8903C60.3766 92.3934 60.3407 91.8964 60.1968 91.435C59.945 90.4056 59.2616 89.6247 58.3624 89.1633C57.8589 88.8083 57.2115 88.5954 56.564 88.5599C54.8735 88.4889 53.219 89.8022 52.2838 91.08C51.2767 92.4644 51.1328 94.2746 52.068 95.6589C54.334 95.9074 56.6719 96.0849 59.0818 96.2268C59.5853 96.0494 60.0529 95.8009 60.4845 95.4814C61.4557 94.807 61.2758 93.2807 60.3407 92.8903Z" fill="#DF4802"/>
<g style="mix-blend-mode:overlay" opacity="0.2">
<path d="M122.53 85.2592C121.271 85.0463 120.192 85.1528 118.933 85.4722C117.278 85.8627 115.552 85.7562 113.897 86.0046C110.624 86.5016 107.351 86.821 104.114 87.4244C100.985 87.9924 97.9273 88.9862 94.9779 90.1576C92.6041 91.1159 90.1223 92.1808 88.3958 94.133C88.0001 94.559 87.8563 95.1269 87.8922 95.6593C103.323 94.062 116.055 90.4415 123.357 85.7562C123.177 85.5077 122.889 85.3302 122.53 85.2592Z" fill="#C74C03"/>
</g>
<path d="M73.2532 45.1138C71.7426 42.8066 69.8722 40.9254 67.7141 39.4701C67.5703 39.2926 67.4624 39.1151 67.3185 38.9376C65.0165 36.24 62.4988 35.1397 59.1537 34.2878C52.104 32.513 45.1262 33.1874 38.9037 37.1629C31.5662 41.8128 26.9263 49.9766 25.4157 58.3535C24.6603 62.4709 24.6603 66.4819 25.9552 70.4928C28.401 78.1598 35.2709 86.3237 42.6803 89.8732C53.5067 95.091 63.7936 92.9612 70.8074 83.1646C74.7998 77.5919 76.6342 70.4573 77.2097 63.7487C77.6773 57.4661 76.7062 50.5091 73.2532 45.1138Z" fill="#FFD0A5"/>
<g style="mix-blend-mode:overlay" opacity="0.2">
<path d="M57.4272 63.3234C58.5782 59.9869 59.4414 56.5793 60.5924 53.2783C61.8153 49.8352 63.29 46.3922 63.1462 42.7007C62.9663 36.844 56.7798 42.4523 55.1253 43.9076C52.5356 46.1437 50.5933 49.5868 49.3344 52.7104C47.1044 58.2831 47.1404 66.9439 39.695 68.9671C37.6088 69.535 34.8033 68.2217 32.7172 67.8668C30.2354 67.4408 27.6816 67.1924 25.1998 67.6538C25.3797 68.6122 25.5955 69.535 25.8832 70.4934C26.0271 70.9549 26.2069 71.4518 26.3868 71.9132C27.9694 72.0907 29.552 72.3747 31.1346 72.6941C34.048 73.333 36.8175 74.5044 39.7669 74.8238C40.8819 74.9303 41.961 74.8238 43.004 74.5754C41.3135 77.6989 42.5005 81.5324 45.7736 83.2717C49.9459 85.4724 53.6506 79.4027 49.9099 77.0245C50.7012 75.6757 51.8522 74.4334 52.7154 73.1201C54.6937 70.0675 56.2043 66.7309 57.4272 63.3234Z" fill="#DCD0A6"/>
</g>
<path d="M48.1474 75.5691C44.9463 72.765 40.738 71.2032 36.6017 70.3513C32.3215 69.4639 28.2211 69.6059 23.9409 70.4578C22.4303 70.7773 21.0995 71.3097 19.9125 72.0551C19.6967 72.1261 19.4809 72.1971 19.2651 72.2681C16.1718 73.4039 13.4023 75.995 13.6541 79.5091C13.7979 81.7808 14.9489 83.6975 16.4236 85.3658C23.905 90.4416 37.6807 94.3105 54.3699 95.8368C54.8015 94.843 55.0174 93.6716 55.1253 92.6068C55.377 90.4061 54.7296 88.0279 54.0822 85.9692C52.8593 82.0647 51.2767 78.3377 48.1474 75.5691Z" fill="#FF8000"/>
<path d="M37.1773 87.211C33.4006 90.654 32.1777 91.6124 32.1777 91.6124C32.1777 91.6124 34.2998 85.1168 32.6812 87.2465C31.0986 89.3762 30.4153 90.4055 30.4153 90.4055C30.4153 90.4055 31.2785 81.2123 30.1275 85.2942C28.9765 89.3762 28.9765 89.3762 28.9765 89.3762C28.9765 89.3762 24.1568 76.9174 26.9983 90.6185C29.0125 91.2929 31.2065 91.9318 33.5085 92.5352C35.8464 89.6956 39.9468 84.6553 37.1773 87.211Z" fill="#F9DAA8"/>
<path d="M54.334 95.9078C54.7656 94.8785 54.9814 93.7071 55.0893 92.6068C55.3411 90.4061 54.6937 88.0279 54.0462 85.9692C52.8233 82.1002 51.2767 78.3377 48.1475 75.5691C44.9463 72.765 40.738 71.2032 36.6017 70.3513C32.3215 69.4639 28.2211 69.6059 23.9409 70.4578C22.4303 70.7773 21.0995 71.3097 19.9125 72.0551C19.6967 72.1261 19.4809 72.1971 19.2651 72.2681C16.2438 73.3684 13.5462 75.8886 13.6541 79.2606C13.726 79.1896 13.7979 79.1541 13.8699 79.0831C16.2797 77.3084 18.9414 76.0305 21.7469 75.0722C25.1639 73.9008 28.5808 73.5459 32.1417 73.9008C34.7673 74.1493 37.6448 75.1787 39.659 76.35C44.6945 79.2606 47.8238 84.3719 47.9317 90.0156C47.9676 91.7549 47.7878 93.4587 47.4641 95.1624C49.6941 95.4464 51.9961 95.6948 54.334 95.9078Z" fill="#FDC681"/>
<path d="M14.2656 76.4563C14.0138 76.9532 13.8699 77.4501 13.762 77.9826C16.9272 75.8883 24.4086 71.8064 32.7172 73.1907C43.5796 75.001 51.8163 81.958 48.4353 95.2687C50.0898 95.4817 51.7443 95.6591 53.4348 95.8366C54.334 92.8195 54.6218 87.1048 50.3775 79.7218C44.6586 69.7477 23.6532 66.9791 14.2656 76.4563Z" fill="#FDAA54"/>
<path d="M50.3056 82.0286C49.9819 81.3541 49.6942 80.6087 48.9029 80.3958C48.3634 80.2538 48.0037 80.7507 48.0756 81.2122C48.1835 81.7801 48.3634 82.3125 48.6151 82.8449C49.0108 83.7678 49.1187 85.1876 49.91 85.862C50.3776 86.2525 50.9531 86.075 51.1689 85.5426C51.6005 84.4422 50.8092 82.9869 50.3056 82.0286Z" fill="#FE8420"/>
<path d="M101.632 12.8496C98.6827 13.1691 94.6183 14.4469 90.8776 17.8189C90.8417 17.322 90.7337 14.8728 91.2733 14.5534C89.0432 15.9022 85.986 17.8544 84.799 20.2681C84.5472 19.6647 84.6911 18.9548 84.763 18.2449C84.1516 18.9193 83.5401 19.5937 82.9287 20.3036C80.6987 22.8947 79.2599 25.6279 78.2888 28.7159C77.9651 28.3965 77.6414 25.9828 77.9291 25.4504C77.5335 26.1603 77.0299 26.7992 76.5983 27.5091C75.4833 29.2484 74.62 31.0586 74.0086 32.9399C73.7928 33.6853 72.6418 36.2409 73.0734 36.8443C72.7137 36.3829 72.3541 35.602 71.8865 35.247C71.275 37.0218 70.8434 38.7966 70.5916 40.5713C70.3398 42.2396 70.5197 43.8369 70.2319 45.4696C69.7284 45.5406 69.2968 45.3632 68.9011 45.2212C68.5055 46.3925 68.2897 47.7413 68.2177 49.0901C68.0379 52.3202 68.6853 55.7632 69.4406 58.1769C69.1529 58.1769 68.7572 58.4609 68.4695 58.4609C68.8292 58.4254 69.2248 62.2234 69.1889 62.6848C69.1169 63.3237 68.9731 64.1401 68.6853 64.708C68.5055 65.0985 68.0379 65.4889 68.6853 65.7374C68.9731 65.8438 69.2608 65.9503 69.4766 66.1988C69.6564 66.3763 69.8723 66.8377 70.16 66.8022C70.5557 66.7312 70.8074 65.5599 70.9153 65.2759C71.2031 64.637 71.5268 63.9981 71.9584 63.4302C72.2102 63.1107 72.4979 62.8268 72.8216 62.5428C73.9367 61.5844 75.2315 60.8745 76.3105 59.8807C76.0947 59.8097 75.8789 59.7032 75.6272 59.7032C75.4473 59.7032 75.1955 59.7742 75.0157 59.7387C75.2675 59.4902 75.6991 59.3127 76.0588 59.1353C76.4185 58.9578 76.8141 58.8158 77.1738 58.6383C78.001 58.2834 78.8283 57.9284 79.6556 57.5735C81.3101 56.8636 82.9646 56.1182 84.4393 55.0888C85.2306 54.5564 85.95 53.9175 86.5255 53.1721C86.0219 53.0301 85.4105 53.1366 84.9789 52.9236C85.2666 52.1427 86.9571 51.5748 87.7124 51.0424C88.7555 50.297 89.6907 49.4451 90.5899 48.5577C92.3883 46.6765 93.8989 44.5468 95.2657 42.3816C94.4744 42.3816 93.6831 42.4881 92.8918 42.5235C96.4167 39.1515 98.287 36.2054 99.7258 31.804C98.5388 32.4429 96.9203 33.3303 95.6973 33.5788C96.8483 33.3658 98.6827 28.9644 99.1503 27.9705C100.121 25.9118 100.661 23.6756 100.625 21.5814C99.6538 22.0783 98.0712 22.8592 96.9922 22.9302C96.8483 20.1261 99.3661 14.8373 101.632 12.8496Z" fill="url(#paint2_linear_20002_17682)"/>
<path d="M99.5099 15.3691C96.4885 17.8183 93.7909 20.6224 91.1653 23.4975C90.9494 23.1071 90.8056 22.6811 90.6977 22.2197C90.5538 21.6873 90.4819 21.1548 90.4459 20.6224C90.374 19.5576 90.4099 18.4572 90.6257 17.3924C90.338 18.4572 90.2301 19.5576 90.2301 20.6224C90.2301 21.1548 90.2661 21.7228 90.374 22.2552C90.4819 22.7876 90.6257 23.3201 90.8775 23.817C90.4459 24.3139 89.9783 24.8108 89.5467 25.3078C88.3597 26.6566 87.2447 28.0054 86.1657 29.4252C86.1297 29.3187 86.0938 29.2477 86.0218 29.1767C85.9499 28.9993 85.842 28.8218 85.77 28.6088C85.6262 28.2184 85.4823 27.8279 85.3744 27.4375C85.1586 26.6211 85.0147 25.8047 84.9428 24.9883C84.8708 24.1719 84.8349 23.3201 84.8349 22.4682C84.8349 21.6163 84.8708 20.7999 84.9068 19.948C84.7629 20.7644 84.655 21.6163 84.5831 22.4682C84.5112 23.3201 84.5112 24.1719 84.5112 25.0238C84.5471 25.8757 84.655 26.7276 84.8349 27.5795C84.9428 28.0054 85.0507 28.4314 85.1946 28.8218C85.2665 29.0348 85.3384 29.2122 85.4463 29.4252C85.4823 29.5317 85.5542 29.6382 85.5902 29.7447C85.6262 29.8157 85.6981 29.8512 85.77 29.9221C84.1155 32.1228 82.5689 34.3945 81.1302 36.7372C79.9072 38.7604 78.7563 40.8192 77.7492 42.9134C77.6053 43.1973 77.4614 43.4813 77.3175 43.7653C77.1017 43.6943 76.85 43.6588 76.6342 43.5878L76.4903 44.2267C76.6701 44.2622 76.8859 44.2977 77.0658 44.3332C76.2745 45.966 75.5551 47.6342 74.8717 49.338C73.1093 53.7039 71.7065 58.2118 70.7354 62.8261L71.9223 63.0746C72.7856 58.4957 74.0804 54.0233 75.7349 49.6574C76.3824 47.9182 77.1017 46.1789 77.893 44.4752C80.231 44.8656 82.6049 44.9721 84.9068 44.6881C87.7123 44.3687 90.4099 43.4458 92.8558 42.097C90.374 43.3393 87.6404 44.1202 84.8708 44.3332C82.6049 44.5107 80.3389 44.3332 78.1448 43.8717C78.2527 43.6233 78.3606 43.4103 78.4685 43.1618C79.4397 41.0321 80.5187 38.9734 81.7056 36.9502C82.389 35.7788 83.0724 34.643 83.8278 33.5072L83.7558 33.6491C84.7629 34.1106 85.842 34.359 86.921 34.501C88.0001 34.643 89.0791 34.643 90.1581 34.5365C92.3162 34.3235 94.4024 33.7201 96.3806 32.9037C94.3664 33.6491 92.2803 34.1461 90.1581 34.2526C88.072 34.359 85.9139 34.0751 84.0795 33.1877C85.806 30.5256 87.7123 27.9699 89.7265 25.5562C90.338 25.6982 91.0214 25.6627 91.6328 25.5562C92.2443 25.4498 92.8557 25.2723 93.4312 25.0593C94.5822 24.5979 95.6972 23.9945 96.7043 23.2846C95.6613 23.959 94.5463 24.4914 93.3953 24.8818C92.8198 25.0593 92.2083 25.2013 91.5969 25.2723C91.0573 25.3433 90.5178 25.3078 89.9783 25.2013C92.9277 21.7938 95.985 18.3507 99.5099 15.3691Z" fill="#446A17"/>
<path d="M72.4619 50.3677C71.5987 50.1902 70.7355 49.9772 69.8722 49.6933C69.4406 49.5513 69.045 49.4093 68.6493 49.2318C68.2537 49.0544 67.858 48.8769 67.6062 48.6284L66.9948 49.4093C67.4264 49.6933 67.894 49.8707 68.3616 50.0127C68.7932 50.1547 69.2608 50.2612 69.6924 50.3677C70.5916 50.5806 71.4908 50.7226 72.39 50.7936C73.2892 50.9001 74.2244 50.9356 75.1236 50.9001C76.0228 50.8646 76.9579 50.7936 77.7852 50.4387C76.922 50.6871 75.9868 50.6871 75.1236 50.6516C74.2244 50.6516 73.3252 50.5452 72.4619 50.3677Z" fill="#446A17"/>
<path opacity="0.6" d="M80.2311 28.4313C80.6627 26.1596 81.4899 23.8879 81.8856 21.6162C80.231 23.8169 79.116 26.1241 78.2888 28.6797C77.9651 28.3603 77.6413 25.9466 77.9291 25.4142C77.5334 26.1241 77.0299 26.763 76.5983 27.4729C75.4833 29.2122 74.62 31.0224 74.0086 32.9037C73.7928 33.6491 72.6418 36.2047 73.0734 36.8081C72.7137 36.3467 72.354 35.5658 71.8865 35.2108C71.275 36.9856 70.8434 38.7604 70.5916 40.5351C70.3398 42.2034 70.5197 43.8007 70.2319 45.4334C69.7284 45.5044 69.2968 45.327 68.9011 45.185C68.5055 46.3563 68.2896 47.7051 68.2177 49.0539C68.1458 50.7222 68.2537 52.426 68.5055 54.0233C68.5774 54.0233 68.6493 53.9878 68.6853 53.9878C69.1888 53.3844 69.6924 52.7809 70.2319 52.213C70.9153 51.4676 71.5987 50.7577 72.2821 50.0123C73.6489 48.557 74.9797 47.0662 76.1667 45.4334C76.4904 44.972 76.7781 44.5106 77.0659 44.0491C77.2097 43.8007 77.3536 43.5522 77.4975 43.3037C77.5694 43.1973 77.7852 42.5583 77.8931 42.5583C76.7781 42.8068 75.6991 42.9843 74.62 42.9843C77.2097 40.8901 79.0081 37.3406 80.1591 34.6074C80.4469 33.791 83.1445 26.8695 80.2311 28.4313Z" fill="#27340B"/>
<path d="M76.2386 10.897C76.1667 10.7195 76.1307 10.613 76.1307 10.613L73.4331 12.2813C73.469 2.05872 69.7643 0 69.7643 0C69.6205 0.0709903 69.4766 0.141981 69.3687 0.212971V0.177476C65.9517 2.2007 62.3909 5.75021 61.132 9.15774C60.8442 9.90314 60.7723 10.684 60.8442 11.4294C60.7363 10.897 60.7004 10.3646 60.7723 9.83215C60.8442 9.05126 60.9522 8.30586 61.0601 7.52497C60.3767 7.95091 59.6933 8.94477 59.1897 9.54819C58.6862 10.1516 58.2186 10.7905 57.787 11.4649C56.8878 12.8492 56.1324 14.34 55.7008 15.9373C55.485 16.7182 55.3771 17.5701 55.449 18.351C55.449 18.493 55.485 18.5995 55.521 18.7414C54.9814 17.7121 54.5858 16.5762 54.334 15.5114C53.5068 16.8602 52.7874 19.0964 52.5716 19.7708C52.068 21.4036 51.7443 23.0008 51.6724 24.5981C51.5645 26.6923 52.2479 28.2896 53.6866 29.6384C53.8305 29.7804 54.0103 29.9224 54.1542 30.0644C53.5068 29.532 52.8953 28.9285 52.3917 28.3606C51.8522 27.6862 51.3487 27.0118 50.8811 26.3019C50.6293 25.9469 50.4135 25.5565 50.1617 25.237C49.5503 25.8405 49.0107 29.7804 49.1187 31.1292C49.2985 33.0815 49.2266 35.1047 50.2337 36.6665C50.3056 36.773 50.3775 36.8794 50.4495 36.9504C49.91 36.418 48.9748 36.631 48.2195 36.3825C48.2914 36.9149 48.4353 37.4474 48.5072 37.9798C48.723 39.1156 49.1187 40.287 49.4783 41.3518C50.1617 43.4105 51.4566 45.1498 52.8953 46.7471C52.7874 46.7116 52.6795 46.6761 52.4997 46.6051C51.5645 46.2502 50.3416 45.0433 49.874 44.5464C49.6222 44.9013 49.7661 45.5403 49.838 45.8952C49.9819 47.2795 51.3127 51.184 54.0463 53.9526C56.0245 55.9758 58.3984 57.2891 61.2759 58.1765L61.5996 58.283C61.6355 58.9219 61.7075 59.5253 61.7075 60.1643C61.7075 60.5902 61.3478 62.5069 62.283 62.2585C62.7865 62.1165 65.4122 57.3246 65.9517 55.5854C65.4482 55.6564 64.6209 55.8693 64.4051 56.1178C67.3185 52.7458 73.1813 49.1608 74.4762 45.0078C73.6489 45.1498 72.6777 45.6467 71.8864 46.0372C72.5339 44.7239 73.505 43.4815 74.4402 42.2037C74.0805 42.6652 73.6129 43.1266 73.1094 43.588C73.1453 43.5525 73.1813 43.517 73.2532 43.446C76.2026 40.358 78.7564 35.8146 78.9362 32.0166C78.9722 31.3422 78.9362 30.7033 78.6844 30.1354C78.3247 30.3128 78.001 30.5258 77.6773 30.7388C77.7492 30.4903 77.7852 30.2064 77.8572 29.9579C78.001 29.39 78.2528 28.8575 78.4326 28.2896C79.152 26.1599 80.0152 23.9592 79.6196 21.723C79.5477 21.4036 79.4757 21.0486 79.3678 20.7292C79.2959 20.3742 79.0801 20.0902 79.0441 19.7353C78.2528 20.5872 77.3896 21.2971 76.4904 22.007C75.9508 22.3974 75.5552 22.6814 75.5552 22.6814C78.2168 17.2151 76.7062 12.1038 76.2386 10.897Z" fill="url(#paint3_linear_20002_17682)"/>
<path opacity="0.4" d="M48.8669 38.4064C48.8309 38.3704 48.8309 38.3704 48.8669 38.4064V38.4064Z" fill="#68AA1B"/>
<path d="M74.5122 13.4885C74.0806 14.0564 73.613 14.5889 73.1454 15.0858C72.1383 16.0796 71.0592 17.0025 69.9442 17.8544C68.8292 18.7063 67.6423 19.4872 66.4194 20.1971C65.8079 20.552 65.1964 20.8715 64.549 21.191C64.2253 21.3329 63.9016 21.4749 63.5779 21.5814C63.434 21.6169 63.2901 21.6879 63.1463 21.7234C63.398 20.481 63.6858 19.2387 63.9735 18.0319C64.6569 15.4407 65.3763 12.8496 66.0956 10.2584C66.851 7.6673 67.6063 5.11165 68.3257 2.52051C67.4265 5.04066 66.5992 7.63181 65.8079 10.1875C65.1605 12.2462 64.549 14.3049 63.9735 16.3636C63.9376 16.3281 63.9376 16.3281 63.9016 16.2926C63.7937 16.2216 63.6858 16.1151 63.5779 16.0442C63.3621 15.8667 63.1822 15.6537 63.0024 15.4407C62.6067 15.0148 62.283 14.5534 61.9953 14.0564C61.7075 13.5595 61.4558 13.0271 61.24 12.4946C61.0241 11.9622 60.8803 11.3943 60.7364 10.8264C60.7364 11.4298 60.8443 11.9977 60.9882 12.5656C61.1321 13.1336 61.3479 13.7015 61.5996 14.2339C61.8514 14.7663 62.1751 15.2988 62.5348 15.7957C62.7146 16.0442 62.9305 16.2571 63.1463 16.4701C63.2542 16.5766 63.3621 16.6831 63.5059 16.7896C63.5779 16.825 63.6138 16.896 63.6858 16.9315C63.7218 16.9315 63.7577 16.967 63.7937 16.967C63.7217 17.2865 63.6138 17.6059 63.5419 17.8899C63.0024 19.8066 62.5708 21.7589 62.2111 23.7111C60.7364 23.3562 59.3696 22.6817 58.1467 21.7589C57.4993 21.2619 56.8878 20.694 56.3843 20.0906C55.8807 19.4517 55.4491 18.7418 55.1613 17.9964C55.4131 18.7773 55.7728 19.5227 56.2764 20.1971C56.7439 20.8715 57.3194 21.5104 57.9309 22.0428C58.5423 22.6108 59.2617 23.0722 59.9811 23.4981C60.6645 23.8531 61.3479 24.1725 62.1032 24.421C61.5637 27.2961 61.204 30.2067 60.8803 33.1173C60.053 32.9398 59.2617 32.7269 58.4704 32.4074C57.5712 32.0525 56.672 31.6265 55.8447 31.1296C54.1542 30.1357 52.6436 28.8224 51.4566 27.2251C52.5357 28.8934 53.9744 30.3132 55.6289 31.449C56.4562 32.017 57.3194 32.5139 58.2546 32.9398C59.0819 33.3303 59.9451 33.6142 60.8443 33.8627C60.7004 35.176 60.5925 36.4894 60.5206 37.7672C60.4127 39.116 60.3408 40.4648 60.2688 41.8136C60.2688 42.2396 60.2328 42.63 60.2328 43.056C59.3336 42.985 58.4344 42.772 57.5712 42.4525C56.636 42.0976 55.7009 41.6007 54.8376 41.0327C53.9744 40.4648 53.1831 39.8259 52.4278 39.116C51.6724 38.4061 50.9891 37.6252 50.3776 36.8088C50.9531 37.6607 51.6005 38.4771 52.3199 39.258C53.0392 40.0034 53.7946 40.7133 54.6578 41.3522C55.4851 41.9911 56.4202 42.5235 57.3914 42.985C58.2906 43.3754 59.2617 43.6594 60.2328 43.8013C60.1969 45.8246 60.2328 47.8478 60.3408 49.871C60.3767 50.4389 60.4127 50.9714 60.4487 51.5393C59.7653 51.3973 59.0819 51.1843 58.4704 50.9004C57.6791 50.5809 56.9597 50.155 56.2404 49.658C54.8376 48.6642 53.6147 47.4219 52.4637 46.144C53.5068 47.5283 54.6218 48.8417 55.9886 49.9775C56.672 50.5454 57.3914 51.0424 58.1827 51.4683C58.938 51.8587 59.7293 52.1782 60.5206 52.3912C60.6645 54.2369 60.8803 56.0827 61.132 57.9284L61.2759 58.9223L61.4198 59.9161C61.5277 60.5905 61.6356 61.2295 61.6716 61.8684C61.7075 62.5073 61.7075 63.1107 61.6356 63.7496C61.5637 64.3885 61.4198 64.9919 61.204 65.6309L62.3909 65.9503C62.5708 65.2759 62.7146 64.6015 62.8225 63.8916C62.9305 63.1817 62.8945 62.4718 62.8225 61.7619C62.7506 61.052 62.6427 60.3776 62.5348 59.7387L62.355 58.7448L62.2111 57.7509C61.8154 55.2663 61.5637 52.8171 61.3479 50.3325C62.319 50.297 63.2542 50.084 64.1534 49.8C65.2684 49.4096 66.3115 48.8772 67.3186 48.2737C69.2968 47.0314 71.0233 45.5051 72.8217 44.0498C70.9873 45.4341 69.1889 46.9249 67.1747 48.0608C66.1676 48.6287 65.1245 49.1256 64.0455 49.4451C63.1463 49.6935 62.2471 49.871 61.3119 49.871C61.3119 49.8355 61.3119 49.8355 61.3119 49.8C61.132 47.1379 61.0601 44.4758 61.132 41.7781C61.132 41.7426 61.132 41.7071 61.132 41.6716C62.6427 41.3522 64.0814 40.7488 65.4482 40.0389C66.9589 39.258 68.3976 38.2996 69.8004 37.3057C71.1671 36.3119 72.498 35.2115 73.7928 34.1112C75.1236 33.0108 76.2386 31.733 77.3896 30.4907C76.2027 31.6975 75.0157 32.9398 73.6849 34.0047C72.3541 35.0695 71.0233 36.0989 69.6205 37.0573C68.2178 38.0156 66.779 38.903 65.2324 39.6484C63.9376 40.2873 62.5708 40.7843 61.132 41.0682C61.168 39.9679 61.204 38.8675 61.2759 37.7672C61.3479 36.4184 61.4558 35.105 61.5637 33.7562C61.6356 33.0818 61.6716 32.4074 61.7435 31.733C62.3909 31.662 63.0024 31.52 63.5779 31.3426C64.2613 31.1296 64.9447 30.8456 65.5921 30.5262C66.8869 29.9228 68.1099 29.1774 69.2968 28.3965C70.4838 27.6156 71.6347 26.7637 72.7138 25.8763C73.7928 24.9889 74.8719 24.0661 75.843 23.0012C74.8359 23.9951 73.7568 24.8824 72.6059 25.7343C71.4909 26.5862 70.3039 27.4026 69.117 28.1125C67.93 28.8579 66.6711 29.5323 65.3763 30.1002C64.7289 30.3842 64.0814 30.6327 63.398 30.8101C62.8585 30.9521 62.319 31.0586 61.7435 31.1296C62.0313 28.1835 62.4269 25.2374 63.0024 22.3268C63.3261 22.2558 63.5779 22.1493 63.8656 22.0428C64.2253 21.9009 64.549 21.7234 64.8727 21.5814C65.5202 21.2619 66.1316 20.8715 66.7431 20.481C67.966 19.7002 69.081 18.8483 70.196 17.9609C71.311 17.038 72.3541 16.0797 73.2893 15.0503C73.7568 14.5179 74.2244 13.9854 74.5841 13.382C74.9798 12.7786 75.3035 12.1752 75.4833 11.4653C75.3035 12.3172 74.9438 12.9206 74.5122 13.4885Z" fill="#74AA30"/>
<g opacity="0.3">
<path d="M73.9726 42.984C74.1524 42.771 74.2963 42.558 74.4761 42.3096C74.2963 42.5225 74.0805 42.7355 73.8647 42.984C73.9007 42.984 73.9366 42.984 73.9726 42.984Z" fill="#27340B"/>
</g>
<path d="M59.4774 96.2627C62.8584 96.4402 66.3114 96.5466 69.8722 96.5466C73.2173 96.5466 76.5263 96.4402 79.7275 96.2627C81.346 95.5528 82.9286 94.7009 84.4393 93.778C88.7914 91.0804 93.5392 89.1991 98.0352 86.8565C101.992 84.7977 108.106 82.6325 112.243 80.9998C121.63 77.3083 120.515 67.1212 116.918 58.6378C112.71 48.7702 106.02 42.3456 95.2297 39.6479C89.6187 38.2281 81.6698 37.9442 76.0587 39.5769C67.822 41.9906 58.3984 46.9244 53.6866 54.2009C45.5938 66.8372 46.8886 84.8687 59.4774 96.2627Z" fill="#FFE99A"/>
<g style="mix-blend-mode:overlay" opacity="0.4">
<path d="M116.954 58.6736C112.746 48.8059 106.056 42.3813 95.2657 39.6837C93.1076 39.1512 90.8776 38.7963 88.6835 38.6543C95.4815 41.6004 98.9345 49.8353 93.1796 55.266C91.6689 56.6858 90.0863 58.1056 88.5037 59.4899C83.72 63.7139 80.0512 68.7542 76.4184 74.0429C73.505 78.2669 71.5987 83.1297 68.2177 87.0342C63.7217 92.2874 59.4775 92.0035 53.5427 89.1639C55.1253 91.7195 57.1036 94.0977 59.4775 96.2274C62.8585 96.4049 66.3114 96.5114 69.8722 96.5114C72.9655 96.5114 75.9868 96.4404 78.9362 96.2984C79.8354 95.2335 80.5548 94.0267 81.1662 92.6779C82.569 89.4478 83.2524 86.0048 84.4033 82.7038C84.835 81.3904 85.4824 80.1836 86.5255 78.7283C87.6045 77.2375 89.1871 76.0307 90.6978 75.0368C94.2226 72.7296 98.1791 71.1323 101.668 68.7897C103.287 67.7248 104.761 66.376 105.948 64.8497C105.553 65.5241 105.121 66.163 104.617 66.731C103.359 68.1508 102.963 70.103 103.97 71.8422C104.833 73.2976 107.027 74.4689 108.754 73.7945C110.552 73.0491 111.883 71.9487 112.89 70.5644C113.034 71.0969 113.214 71.6293 113.43 72.1617C114.005 73.546 114.796 74.6109 116.307 75.0368C116.811 75.1788 117.386 75.2143 117.962 75.1433C117.962 75.8532 117.746 76.0662 118.249 75.4628C117.746 76.1017 117.494 76.7406 117.35 77.3795C120.983 72.5167 119.688 65.0982 116.954 58.6736Z" fill="#DCD0A6"/>
</g>
<g style="mix-blend-mode:overlay" opacity="0.7">
<path d="M117.026 58.8507C113.537 57.7503 109.761 57.5373 106.308 58.3537C100.049 59.7735 94.4025 63.0036 89.5827 67.121C84.8349 71.203 81.0943 76.3853 78.1089 81.816C75.8429 86.0044 73.8647 92.2161 76.4544 96.4755C77.2816 96.44 78.1089 96.4045 78.9002 96.369C79.5836 95.5171 80.1951 94.5943 80.6986 93.6004C80.3749 92.4646 80.231 91.2577 80.4468 89.9444C80.8784 87.4597 82.1014 85.1881 83.3602 83.0229C85.9499 78.5505 89.0792 74.575 92.9637 71.1675C96.7404 67.8309 101.308 65.4173 106.164 64.0685C108.79 63.3586 111.236 63.1811 113.897 63.8555C116.019 64.3879 117.71 65.4528 119.292 66.7306C118.933 64.1039 118.105 61.4063 117.026 58.8507Z" fill="#A38E46"/>
</g>
<g style="mix-blend-mode:overlay" opacity="0.1">
<path d="M44.3708 53.8103C43.004 46.8888 44.191 35.2464 36.2061 43.1618C32.5013 46.8178 26.099 57.2179 30.667 62.1162C37.2491 69.1087 46.0613 62.2937 44.3708 53.8103Z" fill="#FFFCEE"/>
</g>
<g style="mix-blend-mode:overlay" opacity="0.2">
<path d="M77.8211 48.0248C77.1018 47.2084 76.2026 46.605 75.1235 46.2856C70.3758 44.9722 65.4841 48.2733 62.0312 51.0419C54.2621 57.3246 52.032 71.2032 55.0534 80.2189C55.7008 82.1357 56.7798 84.0169 58.5063 85.2237C61.3837 87.2115 63.6857 85.2592 64.9446 82.7391C66.743 79.1541 68.8651 75.853 70.9153 72.3745C74.8358 65.8079 84.6911 55.7628 77.8211 48.0248Z" fill="#F6F1DD"/>
</g>
<path d="M47.8957 78.1251C47.572 77.0602 46.457 76.4213 45.5578 75.8534C44.8384 75.4275 43.9752 74.7176 43.112 74.6466C42.7883 74.6111 42.5005 74.895 42.4286 75.1435C42.4286 75.179 42.3926 75.25 42.3926 75.321C42.3566 75.9244 43.4357 76.6343 43.9033 76.9183C44.3708 77.2022 44.8384 77.5217 45.27 77.8411C45.7736 78.1961 46.1692 78.693 46.7447 78.9415C47.3202 79.2254 48.1115 78.835 47.8957 78.1251Z" fill="#FE8420"/>
<path d="M50.3056 88.0981C50.0898 88.879 50.1617 89.8019 50.1257 90.5828C50.0538 91.7541 49.9459 92.8545 49.7301 94.0258C49.6582 94.4163 49.5862 94.9132 49.6582 95.4101C50.4854 95.5166 51.3487 95.5876 52.2119 95.6941C52.4637 95.0907 52.6075 94.3453 52.6795 93.8839C53.0032 91.9316 53.0032 89.376 52.032 87.5657C51.5645 86.7493 50.1977 87.2463 50.3056 88.0981Z" fill="#FE8420"/>
<path d="M41.0258 73.3689C40.2705 72.73 39.2634 72.4461 38.2563 72.2686C37.6448 72.1621 36.5298 71.7717 36.0622 72.3396C35.9903 72.4106 35.9903 72.517 36.0262 72.588C36.35 73.156 37.3211 73.3334 37.8966 73.5109C38.7958 73.7594 39.695 74.1498 40.6302 74.2563C41.0978 74.3273 41.3855 73.6529 41.0258 73.3689Z" fill="#FE8420"/>
<path d="M33.4725 71.5585C32.6453 71.31 31.818 71.239 30.9548 71.168C30.1275 71.1325 29.1564 71.026 28.437 71.4875C28.3291 71.5585 28.3291 71.7005 28.437 71.7714C29.0485 72.1619 29.8757 72.1619 30.5951 72.1974C31.5303 72.2684 32.4295 72.4104 33.3287 72.5168C33.9042 72.5878 33.9761 71.7005 33.4725 71.5585Z" fill="#FE8420"/>
<path d="M25.8832 71.7002C25.1279 71.6647 24.3366 71.8777 23.5812 71.9842C22.8619 72.1262 22.2504 72.2682 21.6749 72.7296C21.567 72.8361 21.6749 72.9781 21.8188 72.9426C22.6461 72.8006 23.4374 72.5876 24.2646 72.5166C24.8761 72.4456 25.4876 72.4101 26.063 72.1617C26.2789 72.0907 26.135 71.7002 25.8832 71.7002Z" fill="#FE8420"/>
<path d="M18.4379 74.2198C17.5387 74.6103 16.4956 75.0007 15.7762 75.7106C15.6323 75.8526 15.8122 76.0301 15.992 75.9591C16.8912 75.5331 17.8983 75.2137 18.7256 74.6812C18.9774 74.4683 18.7616 74.0778 18.4379 74.2198Z" fill="#FE8420"/>
<path d="M113.178 63.2527C102.603 61.6555 85.7701 67.0152 77.3536 90.5485C77.3536 90.5485 76.2745 93.7786 79.5116 95.9083C79.7274 96.0503 79.9073 96.1567 80.1231 96.2987C83.7199 96.0857 87.2448 95.7663 90.5898 95.3758C90.7696 95.3049 90.9855 95.1984 91.1653 95.1274C97.0281 92.5362 111.379 88.3833 120.515 87.3894C123.033 86.0761 125.083 84.6918 126.666 83.201C126.702 83.059 126.702 82.9525 126.702 82.8106C127.133 78.3737 123.752 64.85 113.178 63.2527Z" fill="#FDC480"/>
<path d="M126.774 81.6746C126.774 81.5327 126.774 81.4262 126.738 81.2842C126.738 81.1422 126.702 81.0002 126.702 80.8582C126.666 80.3968 126.594 79.8999 126.522 79.4029L125.695 75.9244C124.508 72.1974 122.314 68.08 118.753 65.5598C116.487 65.1694 113.394 64.3175 107.171 65.2404C89.9424 67.7605 78.7923 88.0283 81.0583 91.9327C83.3243 95.8372 90.41 92.6426 90.41 92.6426C111.811 83.3429 122.458 83.3074 126.126 83.7333C126.306 83.5559 126.486 83.4139 126.666 83.2364C126.702 83.0944 126.702 82.9879 126.702 82.846C126.702 82.7395 126.702 82.633 126.738 82.562C126.738 82.5265 126.738 82.5265 126.738 82.491C126.738 82.3845 126.738 82.278 126.738 82.1716C126.738 82.1716 126.738 82.1716 126.738 82.1361C126.738 82.0296 126.738 81.9231 126.738 81.7811C126.774 81.7101 126.774 81.6746 126.774 81.6746Z" fill="#FDAA54"/>
<path d="M122.781 72.0906C122.781 72.0906 120.587 65.524 114.509 65.7725C109.077 66.021 103.754 67.0148 99.1502 69.18C98.6107 69.4285 97.4957 69.9609 97.7834 71.2033C98.0712 72.4456 98.5747 74.2913 99.9055 75.2497C101.992 76.776 105.121 71.5582 122.781 72.0906Z" fill="#FE831F"/>
<path d="M124.867 81.6399C124.867 81.6399 125.551 77.345 123.105 73.9375C123.105 73.9375 118.249 73.547 111.775 74.4699C111.236 74.5409 110.3 75.3218 110.516 76.2092C110.84 77.487 111.272 79.4392 111.631 81.143C111.739 81.7109 112.71 82.4918 113.933 82.2079C116.415 81.6399 120.839 80.93 124.867 81.6399Z" fill="#FE831F"/>
<path d="M125.407 81.7811C125.587 80.6453 125.515 79.5094 125.371 78.4091C125.227 77.3442 124.58 73.7947 123.249 73.4397C122.458 73.2268 121.486 73.3688 120.695 73.3333C118.177 73.2978 115.66 73.4752 113.142 73.7592C112.027 73.9012 109.905 74.1496 109.977 75.7824C110.013 76.8473 110.372 77.9121 110.624 78.9415C110.84 79.8999 110.876 81.1067 111.487 81.8876C112.458 83.1654 114.113 82.6685 115.408 82.42C118.465 81.8166 121.666 81.6391 124.76 82.136C125.443 82.2425 125.731 81.2132 125.047 81.1067C121.738 80.5743 118.429 80.7872 115.12 81.3907C114.293 81.5326 112.674 82.207 112.171 80.9647C111.811 80.0773 111.739 78.977 111.523 78.0541C111.451 77.6992 111.343 77.3442 111.271 76.9893C110.912 75.4275 111.847 74.966 113.142 74.7886C114.185 74.6466 115.228 74.5756 116.271 74.5046C118.501 74.3271 120.803 74.2916 123.033 74.4336C122.817 74.4336 123.68 76.1019 123.68 76.0664C124.04 76.9538 124.22 77.9121 124.364 78.835C124.472 79.6514 124.472 80.7517 124.364 81.4616C124.256 82.1715 125.299 82.4555 125.407 81.7811Z" fill="#FE8420"/>
<path d="M109.689 80.787L108.538 76.7761C108.286 75.8887 107.315 75.3208 106.416 75.4983C106.416 75.4983 99.8696 77.0601 93.8989 82.9168C93.6472 83.1652 93.0717 83.8396 93.4673 84.5495C93.863 85.2239 94.2946 86.2888 94.7981 87.0342C95.0859 87.4601 95.6614 88.0635 96.3807 87.6021C98.1072 86.4663 103.538 84.2301 108.358 83.2007C110.588 82.6683 109.689 80.787 109.689 80.787Z" fill="#FE831F"/>
<path d="M96.9921 72.7297C97.6036 74.4335 99.2941 76.7762 97.3878 77.77C95.985 78.5154 88.7914 83.3073 86.1298 87.2827C84.6551 89.6254 81.9575 91.7196 83.8638 86.0049C85.5902 80.8581 89.7625 75.8178 94.87 71.9488C95.5534 71.4519 96.3087 70.7775 96.9921 72.7297Z" fill="#FE831F"/>
<path d="M92.0645 85.8273L92.9997 87.4601C92.9997 87.4601 93.6111 88.525 92.3882 89.1639C90.2301 90.3352 86.0578 92.8199 85.2665 91.1516C84.727 90.0158 88.5756 86.8567 90.4819 85.4724C91.7768 84.585 92.0645 85.8273 92.0645 85.8273Z" fill="#FE831F"/>
<path opacity="0.4" d="M116.307 68.2942C115.947 68.0783 115.947 68.2222 116.307 68.2942V68.2942Z" fill="#BCB9A9"/>
<path opacity="0.4" d="M111.092 92.4647C111.056 92.4292 111.056 92.3937 111.02 92.3228C111.631 93.4941 111.415 93.0681 111.092 92.4647Z" fill="#BCB9A9"/>
<g style="mix-blend-mode:overlay" opacity="0.4">
<path d="M84.9428 109.361C81.8855 108.473 78.4685 108.935 75.3753 109.29C60.7003 111.029 46.4929 109.361 32.1776 105.492C16.9991 101.374 14.7331 97.5409 13.5102 97.7183C12.4311 97.8603 11.496 98.8187 12.4311 99.848C19.0133 107.196 27.3939 112.839 36.4218 116.85C41.3854 119.051 46.4569 120.471 51.7083 121.82C56.9596 123.168 62.2829 124.34 67.7141 124.482C74.548 124.659 84.4033 122.742 87.9281 116.211C89.6187 113.123 88.1799 110.284 84.9428 109.361Z" fill="white"/>
</g>
<g style="mix-blend-mode:overlay" opacity="0.4">
<path d="M126.702 83.2005C126.738 83.0585 126.738 82.952 126.738 82.81C127.133 78.4086 123.752 64.885 113.178 63.2522C110.66 62.8617 107.819 62.8972 104.797 63.4297C107.351 64.317 109.761 65.5594 111.919 67.3696C114.437 69.4638 116.811 72.3744 116.163 75.8175C115.624 78.7636 114.113 81.4967 111.667 83.3424C109.041 85.3302 105.804 86.253 102.855 87.6374C99.7257 89.1282 96.6685 90.6899 93.5033 92.0388C90.6258 93.2456 87.4966 94.2749 84.3314 94.3459C81.5619 94.4169 79.4038 93.3166 77.2097 92.0388C77.2457 93.1746 77.7133 94.7009 79.5476 95.9432C79.7635 96.0852 79.9433 96.1917 80.1591 96.3337C83.7559 96.1207 87.2808 95.8012 90.6258 95.4108C90.8057 95.3398 91.0215 95.2333 91.2013 95.1623C97.0641 92.5712 111.415 88.4183 120.551 87.4244C123.069 86.0756 125.119 84.6558 126.702 83.2005Z" fill="#C74C03"/>
</g>
<g style="mix-blend-mode:overlay" opacity="0.4">
<path d="M47.7878 93.7424C42.1768 93.494 36.1702 92.5001 31.0267 90.1929C25.9912 87.9212 20.8118 83.4489 18.8695 78.1956C17.9343 75.6754 18.6897 73.8297 20.1644 71.8774C20.0565 71.9484 19.9845 71.9839 19.8766 72.0549C19.6608 72.1259 19.445 72.1969 19.2292 72.2679C16.1359 73.4037 13.3664 75.9949 13.6182 79.5089C13.762 81.7806 14.913 83.6973 16.3877 85.3656C23.8691 90.4414 37.6448 94.3104 54.37 95.8367C54.8016 94.8428 55.0174 93.6714 55.1253 92.6066C55.1613 92.1807 55.1973 91.7192 55.1613 91.2933C54.9095 91.5063 54.6578 91.6837 54.406 91.8612C52.3198 93.352 50.4495 93.8844 47.7878 93.7424Z" fill="#27340B"/>
</g>
<defs>
<linearGradient id="paint0_linear_20002_17682" x1="-0.0137742" y1="99.8269" x2="139.988" y2="99.8269" gradientUnits="userSpaceOnUse">
<stop stop-color="#F3F7F4"/>
<stop offset="0.59" stop-color="#F1F5F2"/>
<stop offset="0.8022" stop-color="#EAEFEB"/>
<stop offset="0.9532" stop-color="#DEE5DF"/>
<stop offset="1" stop-color="#D9E1DA"/>
</linearGradient>
<linearGradient id="paint1_linear_20002_17682" x1="0.244882" y1="78.4689" x2="139.529" y2="78.4689" gradientUnits="userSpaceOnUse">
<stop stop-color="#F3F7F4"/>
<stop offset="0.59" stop-color="#F1F5F2"/>
<stop offset="0.8022" stop-color="#EAEFEB"/>
<stop offset="0.9532" stop-color="#DEE5DF"/>
<stop offset="1" stop-color="#D9E1DA"/>
</linearGradient>
<linearGradient id="paint2_linear_20002_17682" x1="75.2803" y1="43.401" x2="94.8314" y2="33.2683" gradientUnits="userSpaceOnUse">
<stop stop-color="#182B0C"/>
<stop offset="1" stop-color="#376118"/>
</linearGradient>
<linearGradient id="paint3_linear_20002_17682" x1="46.8787" y1="37.0744" x2="81.119" y2="26.2552" gradientUnits="userSpaceOnUse">
<stop stop-color="#244D15"/>
<stop offset="1" stop-color="#68AA1B"/>
</linearGradient>
</defs>
</svg>
