<svg width="140" height="140" viewBox="0 0 140 140" fill="none" xmlns="http://www.w3.org/2000/svg">
<path d="M140 70.0527L139.358 79.5623C136.333 98.7037 127.473 114.023 112.776 125.52C97.9878 136.987 80.5413 141.634 60.4976 139.494C41.3706 136.467 26.0629 127.599 14.5744 112.892C10.9079 108.152 7.88302 102.954 5.49978 97.3583L2.50546 88.7049C0.855522 82.7423 0.0305543 76.5351 0 70.0833C0.48887 50.2386 7.33304 33.7268 20.502 20.548C33.6403 7.33857 50.1397 0.489238 69.9695 0C89.7992 0.489238 106.299 7.33857 119.467 20.5174C132.636 33.6963 139.481 50.208 140 70.0527Z" fill="url(#paint0_radial_20002_17207)"/>
<path d="M69.9695 9.75391C52.8285 10.2431 38.6208 16.114 27.3462 27.4276C16.0105 38.7718 10.1441 53.0209 9.68579 70.2665C9.71635 75.6787 10.4191 80.8769 11.7635 85.861L14.5439 93.8722C16.5605 98.5812 19.1271 102.954 22.2436 106.959C32.0821 119.588 45.2816 127.202 61.7504 129.862C64.5003 130.137 67.1891 130.29 69.8167 130.29C83.7495 130.29 96.0629 126.162 106.757 117.875C119.315 108.06 126.953 94.9425 129.642 78.5224L130.223 69.9302C129.703 52.868 123.837 38.6801 112.562 27.4276C101.318 16.114 87.1105 10.2126 69.9695 9.75391Z" fill="#E3D09E"/>
<g style="mix-blend-mode:overlay" opacity="0.4">
<path d="M38.7124 9.81543L36.9097 10.1824L35.0153 10.8245C33.7321 11.3443 32.4182 12.017 31.0433 12.9037C29.6683 13.7905 28.2628 14.8301 26.7657 16.0838L24.5352 18.0407C23.0075 19.4473 21.4492 21.0679 19.8298 22.8414C18.0577 24.8901 16.4688 26.8776 15.0328 28.804C10.7552 34.5525 8.03585 39.7201 6.90534 44.2455L6.44702 46.4471C6.44702 46.6612 6.47758 46.8446 6.56924 46.9975C7.24143 47.6396 8.09696 48.0677 9.19691 48.2512C9.25802 48.2512 9.28858 48.2206 9.31913 48.1595C9.96077 46.1719 10.7246 44.3067 11.519 42.5638C12.344 40.7597 13.2606 39.0168 14.2689 37.3045C15.2772 35.5922 16.3772 33.8798 17.5382 32.2286L19.3715 29.7825C20.6548 28.1619 21.9992 26.5718 23.4658 25.0124C26.4601 22.3216 28.2323 20.8233 28.7823 20.4564C32.2349 17.7655 35.5348 15.8086 38.6513 14.5549L38.7124 9.81543Z" fill="white"/>
</g>
<g style="mix-blend-mode:overlay" opacity="0.4">
<path d="M128.878 97.8784L128.481 98.7652C126.709 102.159 122.554 107.174 116.045 113.748C112.959 116.622 111.035 118.335 110.24 118.916C107.46 121.209 104.404 123.502 101.074 125.826C100.982 125.887 100.799 126.101 100.585 126.468C99.8516 128.823 101.135 129.19 104.465 127.569C106.787 126.407 109.232 124.909 111.798 123.074C113.051 122.249 115.037 120.628 117.726 118.274C120.262 115.705 122.462 113.137 124.387 110.537C126.648 107.266 127.931 105.278 128.206 104.605C128.939 103.291 129.612 101.945 130.192 100.6L128.878 97.8784Z" fill="white"/>
</g>
<path d="M126.923 38.9555L126.587 38.9861C125.456 39.1084 122.737 39.6894 118.368 40.7596C114.579 40.729 112.318 40.7596 111.615 40.8207C111.157 40.7901 110.454 40.9125 109.446 41.1877C106.971 41.8604 103.915 43.5115 100.31 46.1412L90.1964 59.4118C89.5853 60.2985 89.0659 61.277 88.5465 62.3166C88.2409 62.7447 87.5993 64.5182 86.6827 67.6371C86.4382 68.1875 86.0716 70.3279 85.5216 74.0889C85.6133 77.0549 85.7355 78.7061 85.9188 79.0424C86.5299 81.2134 86.9577 82.4059 87.2632 82.5894C88.1493 83.9654 89.127 84.7298 90.227 84.8521C90.6242 84.8216 91.0825 84.7298 91.6019 84.5158L95.6351 82.4671C98.5683 81.7944 100.646 81.0605 101.868 80.2961C102.785 79.7151 103.274 79.3482 103.335 79.1647C104.038 77.2078 104.526 76.1376 104.863 75.9847C105.565 75.8012 106.146 75.8624 106.635 76.1682C108.285 77.6665 109.323 78.492 109.69 78.6755C110.301 78.9507 111.157 78.9507 112.196 78.7367C112.746 78.5838 113.204 78.3697 113.57 78.1557C115.618 76.5351 117.206 75.4649 118.306 74.9145C119.254 74.3947 122.492 73.2939 127.992 71.6427C129 71.1841 130.009 70.3279 131.017 69.1354C131.598 68.4627 132.025 67.5148 132.209 66.2917C131.811 62.867 131.689 60.5737 131.903 59.4118C134.286 53.1128 135.356 48.7097 135.111 46.1412C134.836 44.2454 133.645 42.3802 131.536 40.5455C129.917 39.4142 128.389 38.8944 126.923 38.9555Z" fill="#2A740F"/>
<path d="M133.767 42.8999C133.859 43.6643 133.92 44.4288 133.92 45.1932C133.95 45.8965 133.92 47.0584 133.767 48.6484C133.614 50.3302 133.156 52.1343 132.423 54.0606C132.178 54.7333 131.078 56.6291 129.123 59.8092C128.725 60.5736 128.451 61.2463 128.298 61.8579C127.778 63.876 127.931 65.8635 128.756 67.851C129.092 68.7072 129.306 69.1353 129.367 69.1353C129.459 69.3187 129.703 69.4411 130.1 69.5328L130.773 69.4411C130.864 69.3493 130.956 69.2576 131.017 69.1353C131.598 68.4626 132.025 67.5147 132.209 66.2916C131.811 62.8669 131.689 60.5736 131.903 59.4117C134.286 53.1127 135.356 48.7096 135.111 46.1411C134.989 45.0403 134.531 43.9701 133.767 42.8999Z" fill="#45BC27"/>
<path d="M127.228 38.9556C127.137 38.9556 127.015 38.9556 126.923 38.9556L126.587 38.9861C125.456 39.1085 122.737 39.6894 118.368 40.7596C117.451 40.7596 116.626 40.7596 115.893 40.7596C113.571 40.7596 112.165 40.7902 111.615 40.8208C111.585 40.8208 111.523 40.8208 111.493 40.8208C111.035 40.8208 110.362 40.9431 109.446 41.2183C108.621 41.4323 107.704 41.7687 106.757 42.2273C105.81 43.1141 105.321 43.7868 105.321 44.1843C105.351 44.3678 105.382 44.4595 105.413 44.4901C105.718 44.643 105.993 44.7041 106.207 44.7347C107.276 44.9182 108.529 45.0099 109.965 45.1016C110.912 45.071 112.012 44.8876 113.265 44.5818C113.326 44.5818 113.418 44.5818 113.509 44.5818C113.754 44.5818 114.151 44.6124 114.671 44.643C115.129 44.4901 115.404 44.4289 115.557 44.3983L117.145 44.643L117.39 44.5818C117.543 44.5206 117.634 44.4901 117.757 44.3983C118.459 43.6033 118.887 43.1752 119.101 43.1752C119.284 43.0835 119.926 42.9612 121.087 42.8083C121.27 42.7777 121.484 42.686 121.729 42.5637L124.02 40.3621C124.54 39.9952 125.242 39.72 126.098 39.506C126.526 39.4142 127.015 39.3836 127.564 39.3836C128.267 39.3836 129.062 39.4448 129.948 39.5977C128.97 39.1696 128.084 38.9556 127.228 38.9556Z" fill="#45BC27"/>
<path d="M54.2034 25.6238L53.3479 25.7155C49.3758 26.3576 46.1982 29.2625 43.7844 34.3995C43.6011 34.7053 43.3261 35.6837 42.9594 37.3349C42.8678 38.3745 42.7761 40.515 42.6844 43.7562C42.6539 47.3031 42.9594 49.4435 43.5399 50.1468C40.7901 48.1593 38.7429 48.0981 37.368 49.9328L36.7569 50.789L34.0375 58.1275C30.8599 63.0199 29.2405 65.7719 29.1183 66.414C28.2628 69.1354 28.1711 71.5816 28.8433 73.7831C29.5766 76.0459 30.7071 77.1466 32.2043 77.0855C32.3876 77.0549 32.5709 77.0243 32.7848 76.9632L40.3623 70.3585C41.89 69.38 43.5094 68.7073 45.2815 68.3098C47.1759 67.8205 49.3453 67.8205 51.698 68.3709C52.6757 68.6156 54.7228 69.5023 57.8088 71.0923C58.6032 71.3675 59.3977 71.551 60.1921 71.5816C61.8726 71.765 64.2558 71.0312 67.3418 69.38L69.6639 67.9734L90.9603 46.2329C93.3741 43.7562 94.8101 41.8909 95.2073 40.6373C95.6962 39.5976 95.6962 37.3961 95.2379 34.0937C95.3296 32.8706 94.9324 31.8921 94.0463 31.1889C93.0074 30.3633 92.4575 30.0575 92.3963 30.1798C91.6325 30.1187 90.2881 30.3633 88.3937 30.8831C85.3077 30.1798 83.3523 29.874 82.5578 29.9658C79.6552 30.1798 77.2108 31.1583 75.1942 32.9318C73.1777 34.7664 71.0389 37.7936 68.7473 41.9827C70.0917 38.0993 70.6722 35.9284 70.5194 35.5003C70.7944 33.0235 70.3972 31.0665 69.2973 29.66C68.9306 29.079 68.014 28.3757 66.639 27.5502C66.2113 27.3055 65.6613 27.0915 64.928 26.8775C62.7892 26.2353 59.2143 25.8378 54.2034 25.6238Z" fill="#204E0A"/>
<path d="M47.0843 67.2395L45.8927 67.3007C44.3344 67.4535 42.9594 67.9428 41.7678 68.7378C39.7207 70.4196 38.5596 71.8567 38.3152 73.0492C38.1013 73.7219 37.918 74.4863 37.8263 75.3731L37.3069 85.8305C36.1458 92.0072 35.382 97.1442 35.0764 101.303C35.0764 103.504 35.382 105.614 35.9319 107.632C36.2375 108.641 36.6041 109.589 37.0319 110.537L37.7652 111.913C37.918 112.402 38.8957 113.687 40.6984 115.766C41.3401 116.408 42.1345 117.081 43.0817 117.784C43.5705 118.12 43.9983 118.273 44.3649 118.273C44.8233 118.12 45.1594 117.845 45.3732 117.478C46.4121 114.848 47.1148 113.381 47.4509 112.983C47.9703 112.158 48.7953 111.179 49.9869 110.078C50.4453 109.559 54.5701 107.326 62.3309 103.321C64.0725 102.281 65.9669 100.691 67.9834 98.5813C69.8473 96.3186 70.8556 94.912 71.1 94.3311C72.2916 92.3129 73.2082 90.0808 73.8804 87.6346L60.8032 74.2723L59.8865 73.1715C59.2143 72.4682 58.481 71.8261 57.6255 71.2146C55.1812 69.4105 51.6674 68.0957 47.0843 67.2395Z" fill="#204E0A"/>
<path d="M101.44 64.2124L99.2406 65.1909C94.963 67.3007 91.3881 70.2973 88.516 74.2724C87.5688 75.5872 86.6827 77.0243 85.8578 78.5226C82.8023 84.7298 80.6941 88.8272 79.4719 90.8453C77.822 93.7501 76.2637 96.3492 74.7054 98.6119C73.5444 100.752 72.8111 102.556 72.475 104.055C72.2611 104.941 72.1083 105.798 72.0778 106.623V107.816C72.1389 108.611 72.2611 109.345 72.5055 110.048C72.9333 111.516 73.7888 112.708 75.0415 113.656C79.3802 116.622 83.6273 117.05 87.7521 114.971C89.5548 114.115 91.3576 112.83 93.2214 111.118L95.9101 108.488C97.1323 107.051 98.2017 105.736 99.1184 104.483C102.54 101.425 104.679 99.4069 105.535 98.3979C108.682 95.279 111.218 90.8453 113.112 85.0662L113.54 83.3538C113.784 82.2225 113.907 81.1828 113.907 80.1738C113.907 79.1647 113.815 78.2168 113.632 77.2995L101.44 64.2124Z" fill="#204E0A"/>
<path d="M38.2235 18.438L36.6041 18.5297C32.3265 18.9884 28.3544 21.2205 24.7184 25.2567L31.8682 24.6146C29.1488 25.8377 27.7128 26.6327 27.5294 26.9996L29.2099 28.4979C29.5766 28.8648 29.7905 29.14 29.821 29.3235L28.0489 32.6259C28.5683 35.1944 29.1794 36.7844 29.9127 37.4265C30.0043 37.7323 30.096 38.6496 30.2182 40.1785L29.0266 50.7277C28.8433 51.9508 28.2628 53.5408 27.285 55.4672C23.8629 60.2984 21.938 63.3255 21.4491 64.5486C19.5548 69.3493 18.1493 73.202 17.2632 76.1375C14.7577 84.1487 13.5356 88.3684 13.5661 88.8576C13.6578 88.9188 13.9022 88.6436 14.3605 88.0626C15.9493 85.1884 16.9882 83.5066 17.416 82.9256C17.9659 82.1306 19.0659 81.1216 20.7158 79.8985C36.4513 71.5814 45.3732 66.5056 47.4814 64.6404C48.5203 63.8148 49.6508 62.4999 50.9035 60.6653C53.6229 56.5679 56.0367 52.6846 58.0838 49.0459L49.0397 21.6486C44.426 19.2941 40.8206 18.1933 38.2235 18.438Z" fill="#204E0A"/>
<path d="M56.5562 3.85254H56.4645C55.0285 3.94427 54.173 4.09716 53.8674 4.3112C53.3174 4.52524 52.798 4.83101 52.3397 5.22852C52.0341 5.32025 51.4536 6.08469 50.5675 7.52182C50.262 8.16395 49.987 8.86723 49.7426 9.69282C45.1594 8.83665 41.9207 8.71434 40.0874 9.35647C38.7125 9.75397 37.5514 10.3044 36.6042 11.0382C34.8015 12.5365 33.5182 13.8513 32.7849 14.9827C37.6736 19.4776 41.7984 22.2601 45.0983 23.2692C46.8094 23.7278 47.9399 23.9419 48.4898 23.9419L55.8534 23.6667C56.8617 23.6973 58.0839 23.8807 59.4894 24.1865C60.5283 24.4005 61.6893 24.798 63.0032 25.379L69.7862 28.926C71.925 29.7516 73.9416 30.2102 75.7749 30.2714C76.661 30.2714 77.6387 30.1185 78.7386 29.8433C79.2886 29.6904 79.8386 29.507 80.4191 29.2929C80.6941 29.2318 81.6108 28.8037 83.2301 28.0698L81.6108 9.72339C79.197 10.4573 76.0499 11.0076 72.2306 11.3746C68.9307 11.5886 65.9364 11.3746 63.2476 10.763C61.9338 10.4878 60.8032 10.1209 59.8561 9.72339C58.3283 8.98954 57.4423 8.40857 57.1978 7.98048C57.0451 7.70529 57.1367 7.52182 57.4423 7.43009C59.0617 7.2772 59.9477 7.09374 60.131 6.91028C60.4366 6.69623 60.5894 6.42104 60.6199 6.02353C60.6505 5.56487 60.1005 5.04506 59.0311 4.46409C58.2978 4.036 57.4728 3.85254 56.5562 3.85254Z" fill="#36890F"/>
<path d="M78.708 63.4478H78.158C76.722 63.5089 75.4998 63.723 74.4304 64.151L72.5666 65.1601C71.375 65.8634 70.275 66.6278 69.2362 67.4534C66.2113 69.8996 64.0114 72.8962 62.667 76.382L74.9193 93.8722C77.7303 95.7069 79.6858 97.3581 80.8163 98.8258C81.3357 99.2539 82.1301 99.4985 83.1995 99.5902L94.9629 97.2969C95.299 97.2052 95.574 97.0523 95.8796 96.8994C97.0101 96.2573 97.8656 95.3399 98.4461 94.2086C98.7517 93.6582 98.7822 92.6491 98.5684 91.1508C97.9878 87.8791 97.4073 85.5858 96.7656 84.2404L96.0323 83.109C93.6797 80.8463 92.3658 79.4703 92.0297 79.0116C91.4186 78.3389 90.9909 77.6356 90.7464 76.9629C90.227 75.801 89.677 72.9267 89.0659 68.3707C88.9132 67.698 88.6382 67.0253 88.241 66.3526C87.1105 64.732 83.9328 63.7841 78.708 63.4478Z" fill="#3B2C09"/>
<path d="M87.5382 79.9292L87.5076 79.9904C87.4465 80.1738 87.3854 80.3573 87.3549 80.5407C87.3854 80.4796 87.416 80.3573 87.4771 80.2044C87.4771 80.1127 87.5076 80.0209 87.5382 79.9292ZM87.2937 80.6631L86.6216 82.4977C84.6661 87.2678 81.3051 91.0899 76.5692 94.0254L65.8751 88.9801C65.5085 89.1941 65.1724 89.4388 64.8363 89.6528C63.9502 90.2032 63.1558 91.2122 62.4225 92.6188C62.2392 92.9857 62.0864 93.5667 61.9947 94.3617C61.9031 94.851 61.842 96.1964 61.8725 98.3674C61.842 98.5814 61.7809 98.7954 61.7198 99.0095C61.6892 99.1624 61.567 99.407 61.3837 99.7433C61.1392 99.9268 60.6504 100.538 59.8865 101.639C59.4587 102.312 58.9699 103.107 58.481 104.055L54.845 105.981L52.584 108.794C49.3452 111.149 47.6953 112.647 47.6953 113.35C47.6342 113.717 47.6953 113.901 47.9092 113.901C50.6591 112.678 52.2174 112.158 52.5229 112.311C51.2702 112.953 50.0174 113.809 48.8258 114.818C48.2758 115.368 48.062 115.827 48.2147 116.194C50.4758 115.43 52.3701 114.94 53.9284 114.757C54.9367 114.696 57.6866 114.757 62.1781 114.91C62.9419 114.879 63.6447 114.818 64.3474 114.696C66.4862 114.206 68.1056 113.656 69.2056 112.983C71.4972 111.791 73.9415 110.17 76.5386 108.152C79.2885 105.92 81.3051 103.26 82.6189 100.171C82.955 99.2847 83.2911 98.245 83.5967 97.0525C84.2689 92.4965 85.5216 87.0231 87.2937 80.6631Z" fill="#3C9D24"/>
<path d="M56.1283 7.64432C56.0672 7.64432 56.0366 7.6749 56.0366 7.70547L56.3116 8.31702L56.7699 8.95915C57.1366 9.38723 57.5949 9.81531 58.1449 10.2434C58.7254 10.6715 59.3976 11.0996 60.1615 11.5582L61.4142 12.2309C62.3003 12.6896 63.3086 13.1482 64.378 13.6069C68.4417 15.1664 71.986 15.8391 74.9803 15.6556C75.622 15.625 76.2025 15.5333 76.783 15.411L78.5552 12.078C77.1497 12.5367 75.1942 12.7813 72.6887 12.7202C70.2749 12.7202 68.1667 12.5061 66.3945 12.1086C65.1418 11.864 63.3086 11.283 60.9253 10.3351C60.3142 10.0599 59.642 9.72358 58.8782 9.2955C58.1143 8.86741 57.2588 8.31702 56.3422 7.70547C56.2505 7.64432 56.1894 7.61374 56.1283 7.64432Z" fill="#D6DC90" fill-opacity="0.2039"/>
<path d="M45.9232 13.087H45.8926C45.7399 13.087 45.801 13.2093 46.076 13.3928C49.1619 14.8299 51.5452 16.0836 53.1951 17.1232C55.6395 18.7132 59.1532 21.0983 63.7669 24.2783C64.5002 24.737 65.4169 25.2568 66.5168 25.8072C70.6722 27.8559 74.0332 28.8343 76.5998 28.6814C77.7303 28.6509 79.1052 28.5286 80.7246 28.2839L79.808 17.7347C77.6386 17.9794 73.6054 17.7042 67.739 16.9092C64.7141 16.4811 61.3531 15.9918 57.6561 15.3803C55.0895 14.891 51.6368 14.1878 47.237 13.2704C46.4426 13.1481 46.0148 13.0564 45.9232 13.087Z" fill="#D6DC90" fill-opacity="0.2039"/>
<path d="M57.8394 17.4292L58.8171 17.7961C61.292 18.7746 64.1336 20.2117 67.3112 22.1381C68.625 22.9025 72.1693 25.3182 77.9441 29.3544L78.8302 23.3918C78.1886 22.9331 77.5164 22.505 76.8442 22.1075C74.2165 20.5175 71.4971 19.3556 68.7167 18.6217C65.814 17.949 62.1781 17.5209 57.8394 17.4292Z" fill="#D6DC90" fill-opacity="0.2039"/>
<path d="M87.202 4.76982L86.0715 4.83097C83.0466 5.16732 80.3579 6.78793 78.0052 9.72335L77.1497 11.6191L76.5691 13.5455L76.2636 15.4719L76.233 17.4288L76.508 19.3858L77.058 21.3733L77.883 23.3609L78.9829 25.379L80.3579 27.3971L86.5604 31.0664C89.1575 30.8523 92.2435 29.3234 95.7878 26.5103C96.5211 25.9599 97.3766 24.8286 98.4155 23.0551C99.271 21.3733 99.7599 19.6916 99.9126 17.9792C100.004 16.2058 99.6988 14.3405 98.9349 12.353C98.721 11.8026 98.4766 11.2828 98.171 10.7936L97.7127 10.0597C97.3766 9.60104 97.0405 9.14238 96.6433 8.74488C95.4212 7.43005 93.9851 6.48215 92.3046 5.84003C90.0436 5.01444 88.3326 4.64751 87.202 4.76982Z" fill="#F25F1B"/>
<path d="M87.0493 7.79736L85.7049 8.16429C83.1384 8.98988 81.3051 10.3047 80.2663 12.0476C79.1663 14.1269 78.7997 16.4202 79.1663 18.9581L79.4718 20.0283C79.7163 20.701 80.0829 21.3431 80.5412 21.9547C81.7023 23.2695 82.7717 24.1257 83.78 24.5232C83.8717 24.5843 84.1772 24.6455 84.6661 24.7372C85.155 24.7678 85.491 24.7372 85.6438 24.6149C85.7966 24.5232 85.9494 24.3703 86.1021 24.1257C86.5299 23.086 86.8049 22.4439 86.9577 22.2605C87.2632 21.9241 87.5076 21.8324 87.691 21.9241C87.8743 22.077 87.9965 22.3216 87.9965 22.6885C88.0271 22.872 87.9048 23.8199 87.691 25.5322C87.691 25.9297 87.7826 26.2967 87.966 26.6024C88.3632 27.0611 88.6993 27.3057 89.0354 27.3363C89.7381 27.4892 90.3797 27.4892 90.9603 27.3057C92.8546 26.7859 94.4129 25.0736 95.6962 22.1687L96.124 20.9762C96.3684 20.1812 96.5517 19.3862 96.6739 18.6218C96.8878 17.0623 96.8267 15.5334 96.4906 14.0657C96.3073 13.3319 96.0629 12.598 95.7573 11.8642C95.5434 11.5278 95.3295 11.1915 95.1157 10.9163C94.5962 10.3047 94.2601 9.96836 94.1685 9.96836C93.7407 9.66258 93.3435 9.5097 92.9158 9.5097C92.7324 9.47912 92.4574 9.66258 92.1213 10.0295C90.8381 11.8642 90.0436 12.9038 89.7687 13.2096C89.3409 13.6988 89.0048 13.8823 88.7298 13.76C88.6076 13.6682 88.5159 13.4542 88.5159 13.0872C88.852 10.9774 88.9131 9.78489 88.6993 9.54027C88.6076 9.2345 88.4854 8.9593 88.3021 8.77584L87.0493 7.79736Z" fill="#DD4217"/>
<path d="M84.1162 12.781C83.994 12.781 83.8718 12.781 83.7495 12.8116C83.6579 12.8116 83.5662 12.8422 83.5051 12.8727C83.3523 12.9033 83.1996 12.9645 83.1079 13.0256C83.0773 13.0256 83.0162 13.0868 82.894 13.2091C82.8635 13.2397 82.8329 13.3008 82.8023 13.3314C82.7412 13.4231 82.7107 13.5149 82.7412 13.6372C82.7412 13.6983 82.7412 13.7595 82.7718 13.8206L82.8329 13.9735C82.894 14.0653 82.9246 14.157 83.0162 14.2181L83.1384 14.3099L83.2912 14.4016L83.444 14.4628L83.6273 14.4933L83.8106 14.5239C83.994 14.5239 84.0856 14.5545 84.0856 14.5239C84.2689 14.5239 84.4523 14.5239 84.6662 14.4933C85.0023 14.4322 85.2467 14.4016 85.3689 14.3405C85.5828 14.2793 85.7661 14.2181 85.9189 14.157C86.0717 14.0653 86.1633 14.0347 86.1633 14.0041C86.1939 13.9735 86.2244 13.9429 86.255 13.9124L86.1633 13.5149C86.0106 13.3926 85.8578 13.3008 85.6745 13.2397C85.5217 13.1479 85.3689 13.0868 85.2161 13.0256L85.0023 12.9339C84.6662 12.8422 84.3912 12.781 84.1162 12.781Z" fill="#F7982C"/>
<path d="M85.9494 16.5422L85.7049 16.5728C85.2161 16.634 84.7577 16.7257 84.33 16.9092C83.8717 17.0926 83.5356 17.3372 83.3522 17.5819C83.2911 17.6736 83.2606 17.7348 83.23 17.8265L83.1995 17.9488C83.1995 18.0405 83.1995 18.1017 83.23 18.1934L83.2911 18.2546C83.3217 18.2851 83.3522 18.3157 83.4133 18.3463L83.4745 18.3769C83.5356 18.4075 83.5967 18.4075 83.6578 18.438C83.7494 18.4686 83.9328 18.4686 84.1772 18.4686C84.5744 18.438 84.9411 18.3463 85.3077 18.1934C85.491 18.1323 85.6438 18.0405 85.766 17.9794L85.9494 17.8571L86.1021 17.7348L86.2243 17.6124L86.316 17.4901L86.3466 17.3678V17.2455L85.9494 16.5422Z" fill="#F7982C"/>
<path d="M93.0991 13.7903H93.038C92.7325 13.7903 92.4269 13.882 92.0908 14.0043C92.0297 14.0043 91.8769 14.0961 91.5714 14.2489C91.3269 14.4018 91.052 14.5547 90.777 14.7688L91.3881 15.1357C91.327 15.1968 91.327 15.258 91.2964 15.2886C91.2964 15.3497 91.2964 15.3803 91.327 15.4109L91.3881 15.472C91.4492 15.5026 91.5103 15.5332 91.6019 15.5332L91.7547 15.5638C91.8769 15.5638 91.9991 15.5943 92.0908 15.5943C92.5186 15.5943 92.9158 15.5026 93.313 15.3497C93.6796 15.1968 93.9241 15.0134 94.0157 14.7993C94.0768 14.677 94.1074 14.5853 94.0768 14.463C94.0768 14.4018 94.0463 14.3713 94.0463 14.3101C93.9852 14.1878 93.9241 14.1266 93.8935 14.0961C93.6796 13.882 93.4046 13.7903 93.0991 13.7903Z" fill="#F7982C"/>
<path d="M90.3186 17.7039H90.2575C89.952 17.7345 89.7381 17.8874 89.6159 18.1626C89.5242 18.346 89.5548 18.5907 89.7076 18.8659C89.8603 19.1411 89.9825 19.3857 90.1048 19.5386C90.227 19.6914 90.2881 19.7832 90.3186 19.7832C90.3798 19.8443 90.4103 19.8749 90.4714 19.9055C90.5631 19.9666 90.6853 20.0584 90.8686 20.089C91.0214 20.1501 91.1742 20.1501 91.3575 20.1501C91.7547 20.089 92.0297 19.9361 92.1519 19.6303C92.213 19.4774 92.213 19.3857 92.213 19.3551L92.0908 18.2543C91.8769 18.0708 91.6325 17.9485 91.388 17.8262C91.2658 17.7651 91.1131 17.7345 90.9908 17.7039L90.777 17.6733C90.6242 17.7039 90.4714 17.7039 90.3186 17.7039Z" fill="#F7982C"/>
<path d="M29.8516 43.9089L28.385 44.0007C24.5657 44.4593 21.3269 46.6915 18.6687 50.7277L19.0965 64.4569L19.2492 65.3742C19.3715 65.9858 19.5548 66.5973 19.7992 67.2089C20.4409 68.9212 21.8158 70.817 23.924 72.8351C24.6268 73.5384 25.6656 73.8748 27.01 73.8748C28.3239 73.8136 29.9433 73.1715 31.8682 71.8872C32.2959 71.7038 33.3042 70.9087 34.8931 69.5633C35.5041 69.013 36.0541 68.4014 36.5735 67.7899C37.7041 66.4445 38.4679 65.1908 38.9262 63.9983C39.1096 63.7231 39.4151 62.6223 39.8734 60.6959C40.0262 59.9009 40.1484 59.0447 40.2401 58.158C40.454 56.201 40.3928 54.397 40.0873 52.8069C39.8734 51.3698 38.9873 49.5657 37.4291 47.3948C36.5124 46.1717 35.3208 45.2849 33.9153 44.6734C33.2737 44.2453 31.9293 44.0007 29.8516 43.9089Z" fill="#D04A10"/>
<path d="M34.9236 46.6611H34.893C34.7708 46.6917 34.7097 46.7529 34.7097 46.8752C34.5875 48.7404 34.3736 50.2387 34.0986 51.4006C33.9459 52.1039 33.7014 52.7766 33.4264 53.4187C32.8459 54.6418 32.3876 55.4368 32.0515 55.8343C31.7154 56.293 31.1349 56.9045 30.371 57.6384C28.5988 59.2284 25.3906 60.0234 20.7464 60.0234L19.1881 67.7901C21.4491 70.2363 24.2296 71.3371 27.4989 71.0313C28.2627 70.9396 29.0266 70.7867 29.8516 70.5421L31.3182 69.6859C32.2654 69.0743 33.0903 68.4322 33.8542 67.6984C34.6181 66.9951 35.2902 66.2001 35.8708 65.3745C36.4513 64.5489 36.9707 63.6621 37.3679 62.7143L37.9179 61.2465C38.7429 58.678 38.804 55.7732 38.1929 52.5931C37.5818 49.5966 36.4819 47.609 34.9236 46.6611Z" fill="#621300" fill-opacity="0.3412"/>
<path d="M28.721 46.9978H28.5377C27.9877 47.059 27.4072 47.3647 26.7655 47.8845C26.6128 48.0374 26.4905 48.1903 26.3989 48.3432L26.2767 48.5878C26.185 48.7407 26.1544 48.8936 26.0933 49.0771C26.0017 49.5969 26.0933 50.0555 26.3378 50.4225C26.6433 50.82 27.0405 51.0034 27.4683 50.9729C27.8655 50.9423 28.2016 50.7894 28.5071 50.5448C28.6905 50.3919 28.8432 50.2084 28.996 50.025C29.0571 49.9332 29.1488 49.8109 29.2099 49.6886C29.3627 49.4134 29.4238 49.2605 29.4238 49.23C29.4543 49.1994 29.4849 49.0159 29.5154 48.7713C29.546 48.5572 29.546 48.3126 29.4849 48.068L29.1793 47.1201C28.9654 46.9978 28.8127 46.9978 28.721 46.9978Z" fill="#FFDCD4" fill-opacity="0.3412"/>
<path d="M89.8909 19.5391H89.5548C83.3828 20.7316 76.8748 24.9207 70.0306 32.1064C69.1751 32.9931 67.3113 35.6228 64.3475 40.0565L56.8006 52.2263L56.4339 53.0519L54.5701 59.6566L52.6146 63.8151C52.3091 64.6407 52.3091 65.1299 52.6757 65.2522C52.7368 65.2522 52.7979 65.2522 52.8591 65.2216L56.5867 61.5218C56.8311 61.2466 57.32 59.9623 58.0533 57.6385C58.2672 57.1492 58.756 56.4765 59.581 55.6509C60.1921 55.1005 60.8337 54.703 61.4754 54.4584C64.0725 54.0303 65.5086 53.7246 65.8141 53.4799C66.4557 53.0213 66.8835 52.6238 67.0668 52.318C68.014 50.4222 68.6251 49.3826 68.9612 49.1685C69.5723 48.7099 70.8556 48.2512 72.8416 47.762C73.086 47.7008 73.5138 47.4256 74.186 46.967C74.8582 46.4777 76.1109 44.6431 77.8831 41.4936C78.0969 41.1878 79.5024 40.454 82.069 39.2615C82.344 39.0474 83.0773 38.0078 84.2689 36.1426C86.1327 34.9195 87.5688 33.8187 88.5465 32.7791C89.0354 32.1369 89.5548 30.761 90.1048 28.6205C91.4492 26.633 92.0908 25.4405 91.9686 25.043C92.0908 23.9728 92.0297 22.4745 91.7853 20.6093C91.4797 19.8754 90.8687 19.5391 89.8909 19.5391Z" fill="#257808"/>
<path d="M73.2693 54.9475L72.6582 54.9781C71.0999 55.0392 69.5416 55.8648 68.0139 57.4243C67.4334 58.0358 66.8834 58.7391 66.3945 59.473C64.103 63.7538 62.6669 66.1083 62.1169 66.5363C61.5669 67.2702 59.7642 69.0131 56.7394 71.7345C55.8533 72.6518 55.2728 73.3551 54.9978 73.8137C54.3256 74.8228 53.8367 75.8624 53.5312 76.9326C53.4089 77.2996 53.3173 78.1252 53.2867 79.4094C53.2256 79.7152 53.3784 80.3267 53.6839 81.2441C54.1117 81.9779 54.5394 82.3754 54.9061 82.4366C55.12 82.4671 55.67 82.2837 56.556 81.825L62.3002 78.4309L73.7276 67.2702L80.6329 63.448C80.9384 63.234 81.4273 62.6836 82.1606 61.7663C82.68 60.9101 82.9244 60.3903 82.8939 60.2374C82.955 59.9316 82.9855 59.6258 82.9244 59.3201L82.8022 58.892C82.5883 58.6168 82.2828 58.311 81.8856 58.0358C81.0912 57.4549 79.9301 56.9045 78.3718 56.3235C78.0968 56.1706 76.7525 55.7425 74.2775 55.0392C73.8803 54.9781 73.5442 54.9475 73.2693 54.9475Z" fill="#5A8341"/>
<path d="M128.512 88.7661L126.403 90.4784C120.873 94.9122 115.954 98.0922 111.615 100.049C109.537 101.058 106.971 102.037 103.946 103.015C98.3238 104.728 93.8018 105.951 90.3797 106.684C87.1409 107.969 84.391 109.406 82.1606 111.026C81.0606 111.73 78.7385 113.87 75.1942 117.448C73.8803 118.885 72.7498 120.353 71.7721 121.82C69.7861 124.725 68.5028 127.722 67.9222 130.841C68.075 130.902 68.35 130.871 68.7472 130.779C71.0999 129.862 72.7804 129.342 73.7276 129.22C79.869 129.617 84.2077 129.495 86.7132 128.884C88.3325 128.792 91.5102 127.141 96.185 124.022C99.1182 123.257 101.471 122.462 103.304 121.667C104.343 121.148 105.84 119.833 107.704 117.662C109.721 116.53 111.218 115.582 112.165 114.787C112.684 114.39 113.204 113.84 113.693 113.136L114.609 111.76C115.312 110.17 116.229 108.305 117.39 106.134L118.642 104.147C126.067 96.2882 129.978 91.9767 130.406 91.1817L130.467 90.9983L128.512 88.7661Z" fill="#2A9428"/>
<path d="M125.517 26.6636L122.065 27.2445C113.234 28.7123 107.215 29.9048 104.038 30.8221C96.6128 33.0542 91.2047 35.0418 87.7215 36.7235L84.8799 38.4359C83.0772 39.5978 81.4273 40.8209 79.9302 42.0746C78.4635 43.3282 77.1497 44.6125 75.9886 45.9273C74.8581 47.2421 73.8804 48.6181 73.0554 50.0247C72.261 51.4312 71.6194 52.8684 71.1305 54.3667C71.2222 54.4584 71.3444 54.489 71.4971 54.4584C74.9803 52.8684 77.3636 51.9816 78.6163 51.7676C86.041 51.0949 90.8075 50.361 92.8546 49.566C97.2239 48.3124 101.563 46.6306 105.871 44.5208C107.032 43.9092 108.071 43.2977 108.987 42.7167C109.293 42.5638 111.523 40.8209 115.679 37.488L121.209 34.2773L126.495 29.6296L125.517 26.6636Z" fill="#28A53C"/>
<path d="M125.517 26.6636L122.065 27.2445C120.079 27.5809 118.245 27.8867 116.565 28.1924C115.77 28.6817 114.945 29.1403 114.059 29.5684L104.985 33.8187L104.435 34.1856C103.06 35.1029 102.693 35.8368 103.243 36.3872C103.579 36.6318 104.099 36.7541 104.862 36.7541C105.565 36.7541 106.421 36.6624 107.49 36.4483C108.285 36.2954 108.987 36.1426 109.66 35.9591C114.09 34.7054 116.84 33.941 117.94 33.6658C119.742 33.2071 121.24 32.8096 122.492 32.5344C122.828 32.4733 123.165 32.3815 123.501 32.3204L126.495 29.6907L125.517 26.6636Z" fill="#E0EC75" fill-opacity="0.3098"/>
<path d="M125.365 27.9478L124.356 28.0701C121.026 28.4981 118.154 29.232 115.74 30.2716C114.762 30.6386 113.907 31.0055 113.173 31.3113L112.134 31.7699C111.493 32.0757 110.943 32.3509 110.515 32.5955C110.087 32.8401 109.751 33.0542 109.568 33.2682L109.323 33.5434C109.323 33.7269 109.568 33.788 109.996 33.7575C110.301 33.7269 110.698 33.6351 111.218 33.5128C112.501 33.1459 114.793 32.5038 118.062 31.5559C120.262 30.9138 122.431 30.2411 124.601 29.5072L125.242 29.2626L125.365 27.9478Z" fill="#E0EC75" fill-opacity="0.3098"/>
<path d="M128.511 88.7661L126.403 90.4784C120.873 94.9122 115.954 98.0922 111.615 100.049C110.607 100.538 109.476 100.997 108.254 101.486L106.818 102.342C105.962 102.893 105.107 103.596 104.251 104.513L100.738 109.467C100.524 109.834 100.463 110.079 100.524 110.201C100.615 110.262 100.676 110.323 100.738 110.323H100.768C102.846 110.079 104.496 109.834 105.779 109.65C107.612 109.345 108.682 109.1 108.957 108.917C109.843 108.641 111.401 107.694 113.662 106.042C113.662 106.318 113.448 106.715 112.959 107.235L107.918 112.25C107.735 112.464 107.612 112.647 107.551 112.769C107.46 112.922 107.521 113.014 107.735 113.014C107.918 113.014 108.223 112.953 108.621 112.831C109.232 112.586 110.118 112.127 111.248 111.424L117.023 106.746C117.145 106.532 117.267 106.287 117.39 106.042L118.642 104.055C126.067 96.1964 129.978 91.885 130.406 91.09L130.467 90.9065L128.511 88.7661Z" fill="#E0EC75" fill-opacity="0.3098"/>
<path d="M129.062 89.3472C126.342 91.7628 124.295 93.414 122.89 94.3007C119.987 96.2882 115.159 99.2237 108.346 103.046C107.368 103.657 107.001 104.055 107.215 104.238H107.246C107.704 104.238 108.285 104.085 108.987 103.78C109.446 103.627 110.759 103.015 112.929 101.945L129.611 92.252C130.07 91.7016 130.375 91.3347 130.467 91.1512L130.528 90.9678L129.062 89.3472Z" fill="#E0EC75" fill-opacity="0.3098"/>
<path d="M89.7076 21.7097L88.8215 21.7403C86.3771 21.9238 83.5356 22.7799 80.2357 24.3699C81.3357 24.1559 82.4051 24.003 83.4439 23.9113L79.533 25.8071C79.5635 25.8682 79.6246 25.9294 79.7163 25.9294L84.4828 27.2748C84.7883 27.3971 84.9105 27.5194 84.88 27.6417C84.055 28.6508 83.2606 30.0268 82.4967 31.7085C82.344 31.9837 82.0995 32.2895 81.7634 32.5953C81.3662 32.901 80.969 33.1457 80.5107 33.268L77.5164 34.0936C77.4858 34.1547 77.5775 34.2464 77.7914 34.3687L79.5941 35.0414C79.6246 35.1026 79.1052 35.1943 78.0969 35.3166C78.0358 35.3166 78.0052 35.3778 77.9441 35.4695C77.9136 35.5307 77.9441 35.5918 78.0052 35.6836L78.7997 36.4786C78.8913 36.6315 78.9219 36.7538 78.8608 36.8761C78.3413 37.3348 77.6386 38.3132 76.722 39.8115C76.4775 40.2396 76.2636 40.7288 76.0498 41.1875L75.7442 41.9214L75.4692 42.6858C75.4692 42.7164 75.4998 42.7469 75.5303 42.7469C75.5609 42.6246 75.9581 42.2271 76.7525 41.585C78.433 40.2702 80.0524 39.0165 81.6412 37.8851C82.069 37.5182 82.4662 37.1513 82.8328 36.8149C83.7495 36.0199 84.9716 34.3687 86.4382 31.892C87.0188 31.6168 87.8437 30.7912 88.8826 29.3846C89.7076 28.1615 90.1659 27.3054 90.3187 26.8467C90.5936 26.174 90.7464 25.4402 90.8381 24.7063C90.8686 24.3394 90.8992 23.9419 90.8992 23.5749L90.3187 21.7097H89.7076Z" fill="#E0EC75" fill-opacity="0.3098"/>
<path d="M104.924 31.6782L102.938 32.1063C100.34 32.7179 97.9572 33.3906 95.8184 34.155C94.0157 34.736 91.7852 35.745 89.127 37.1516C86.4382 38.6804 82.7717 41.6159 78.1274 45.9273L80.0829 44.2761C81.4579 43.1753 82.955 42.1357 84.5744 41.096C86.2243 40.0564 87.9965 39.0474 89.8909 38.0689C91.7852 37.0904 93.8324 36.1425 96.0017 35.2252C98.1711 34.3079 100.493 33.4211 102.938 32.5344L104.924 31.6782Z" fill="#E0EC75" fill-opacity="0.3098"/>
<path d="M87.1105 93.9946L86.5605 94.0252C86.3772 93.9946 85.7967 94.0864 84.8495 94.3004C84.0856 94.5144 83.2912 94.7896 82.4662 95.2177C82.2524 95.2483 81.6413 95.6458 80.633 96.4102L79.5941 97.3581L78.7386 98.3978L78.0664 99.5291L77.5775 100.722L77.272 102.006L77.1498 103.382L77.2109 104.85C77.3942 106.134 77.5164 106.898 77.6692 107.112C77.9747 108.06 78.4331 108.916 79.0441 109.65C79.1358 109.864 79.6858 110.354 80.633 111.087C80.9996 111.363 81.4885 111.607 82.0385 111.882C83.1384 112.341 84.1467 112.525 85.1245 112.463C86.4077 112.372 87.4772 112.066 88.3327 111.607C88.8827 111.332 89.3715 111.057 89.8604 110.72C90.9909 109.895 91.602 109.344 91.7548 109.13C92.4269 108.488 93.0991 107.449 93.8019 106.073C94.138 105.278 94.3519 104.33 94.4435 103.26C94.5047 101.853 94.4741 100.966 94.413 100.63L93.4964 96.9301L93.1297 96.4408C92.8853 96.135 92.5797 95.8599 92.2436 95.5847C91.9075 95.34 91.5409 95.0954 91.1131 94.9119L90.4715 94.6368C89.5854 94.2698 88.4854 94.0558 87.1105 93.9946Z" fill="#103084"/>
<path d="M50.7203 84.8829H50.4453C47.9093 85.0358 45.9233 85.8614 44.4567 87.3291C44.1511 87.6349 43.815 87.9712 43.54 88.3382L42.7151 89.653L42.0734 90.9372L41.6151 92.1909L41.3401 93.414L41.2179 94.6065L41.279 95.7685L41.5234 96.8692L41.9512 97.9394L42.5623 98.9791L42.9289 99.4989C43.1734 99.8352 43.4789 100.141 43.7845 100.386L44.2733 100.783C44.6094 101.028 44.9455 101.242 45.3427 101.425C46.901 102.067 48.0315 102.373 48.7648 102.312C50.1703 102.251 51.3925 101.945 52.4619 101.425L57.4117 95.0346L57.6867 93.6586L57.8089 92.3438L57.7478 91.1207L57.5339 89.9893L57.1367 88.9497L56.5562 88.0018C54.8451 85.8614 52.8897 84.8218 50.7203 84.8829Z" fill="#103084"/>
<path d="M53.8673 35.4698L53.409 35.5004C51.3619 35.8368 49.8647 36.8152 48.8564 38.5276C48.5509 39.0168 48.337 39.506 48.1537 40.0564L47.9092 40.882C47.6648 42.0134 47.6342 43.2671 47.8481 44.643C48.1537 45.9273 48.612 47.0281 49.2231 48.0065L49.7119 48.7098C50.048 49.1379 50.4452 49.5354 50.8424 49.9023C52.1868 50.942 53.3479 51.5841 54.2645 51.8287C55.3339 52.1651 56.4033 52.318 57.5033 52.2568C58.6949 52.2262 60.0087 51.8593 61.4142 51.156C62.7281 50.4527 63.9808 49.4131 65.1419 48.0371C66.5168 46.2025 66.9751 44.215 66.5779 42.0745C66.4863 41.677 66.3946 41.3101 66.2418 40.9738C65.8446 40.1176 65.6002 39.6283 65.4474 39.506C64.7141 38.5887 63.8891 37.916 62.9114 37.4574C62.4531 37.2127 61.9642 36.9681 61.4753 36.7847C60.2226 36.3566 59.4588 36.112 59.1838 36.112C58.6643 36.0202 58.1144 35.9285 57.5644 35.8979L56.5561 36.1731C55.4256 35.6227 54.5395 35.4087 53.8673 35.4698Z" fill="#103084"/>
<path d="M123.073 53.082H121.973C120.079 53.082 117.909 53.2655 115.434 53.663C113.723 53.9076 111.126 54.7026 107.643 55.9563C103.304 57.6992 99.6988 60.0537 96.7656 63.0197L94.1074 70.2971C93.9546 71.3061 93.649 72.3763 93.1602 73.5077C92.2435 75.5564 91.388 77.1464 90.5936 78.2472C90.3797 78.2472 90.9602 79.0116 92.3352 80.5405L93.0685 81.3049C93.1907 81.3967 93.3435 81.4578 93.5268 81.4578C95.5434 80.6628 97.4072 79.4091 99.2099 77.6968C99.7905 76.9935 100.279 76.2597 100.677 75.4341C102.357 70.9698 103.396 68.4624 103.793 67.9121C104.954 65.9857 106.36 64.5791 107.948 63.6618C109.843 62.5304 112.287 61.7966 115.343 61.4602C116.412 61.3073 118.093 61.2462 120.384 61.2462L126.495 61.6743C127.259 61.6743 127.809 61.4297 128.145 61.0016C128.848 60.2371 129.611 58.7083 130.528 56.3844C130.925 54.9472 130.986 54.1522 130.742 53.9382C130.528 53.5101 130.131 53.2961 129.52 53.2349C126.678 53.1432 124.539 53.082 123.073 53.082Z" fill="#F1C028"/>
<path d="M87.1104 93.9946L86.5604 94.0252C86.5604 94.0252 86.5299 94.0252 86.4993 94.0252C86.2854 94.0252 85.7049 94.1169 84.8188 94.3004C84.055 94.5144 83.2606 94.7896 82.4356 95.2177C82.2217 95.2483 81.6106 95.6458 80.6023 96.4102L79.5635 97.3581L78.708 98.3978L78.0358 99.5291L77.5469 100.722L77.2414 102.006L77.1191 103.382L77.1802 104.85C77.3636 106.134 77.4858 106.898 77.6386 107.112C77.9441 108.06 78.4024 108.916 79.0135 109.65C79.1052 109.864 79.6551 110.354 80.6023 111.087C80.969 111.363 81.4579 111.607 82.0078 111.882C82.9856 112.28 83.9022 112.463 84.7577 112.463C84.8799 112.463 84.9716 112.463 85.0938 112.463C86.3771 112.372 87.4465 112.066 88.302 111.607C88.852 111.332 89.3409 111.057 89.8298 110.72C90.9603 109.895 91.5713 109.344 91.7241 109.13C92.3963 108.488 93.0685 107.449 93.7713 106.073C93.924 105.706 94.0462 105.308 94.1685 104.88C93.7713 104.758 93.2824 104.697 92.7019 104.697C92.6102 104.697 92.5491 104.697 92.4574 104.697C92.4269 104.697 92.3963 104.697 92.3352 104.697C91.8158 104.697 90.0131 104.911 86.8965 105.339C86.8049 105.339 86.7132 105.369 86.591 105.369C86.1938 105.369 85.7049 105.308 85.1244 105.155C84.8188 105.094 84.5133 104.972 84.2689 104.85C84.1161 104.819 83.7494 104.513 83.23 103.902C82.8328 103.351 82.5273 102.648 82.3134 101.761C82.2828 101.272 82.2828 100.813 82.3745 100.385L82.5273 99.7432C82.6495 99.3151 82.8022 98.9176 83.0467 98.5201C83.4744 97.7251 84.1161 97.0218 84.9716 96.3797C85.4605 96.0433 85.9493 95.707 86.4688 95.4318C87.8132 94.8202 88.6381 94.4839 88.9437 94.4533C89.127 94.3921 89.3103 94.3616 89.4631 94.331C88.7909 94.1475 87.9965 94.0558 87.1104 93.9946Z" fill="#2B59B0" fill-opacity="0.3059"/>
<path d="M56.8921 88.5828C53.8672 89.5918 52.3395 90.2034 52.2784 90.4174C51.8812 90.662 50.9645 91.824 49.5896 93.8726C49.4063 94.0867 49.1618 94.3007 48.7952 94.5759C48.398 94.8205 47.9397 95.0346 47.4508 95.1569C45.0676 95.4932 43.6315 95.7684 43.1426 95.9825C42.3788 96.2577 41.8594 96.6246 41.6149 97.0833C41.5538 97.175 41.5233 97.2667 41.4927 97.3279C41.4316 97.3585 41.3705 97.6337 41.3705 98.1535L41.4621 98.7039C41.5538 99.0402 41.7677 99.3766 42.0427 99.6518L42.5315 100.049C42.8982 100.294 43.3871 100.508 43.937 100.661C43.9982 100.691 44.0898 100.722 44.1509 100.722L43.7843 100.416L44.1815 100.722C44.6398 100.844 45.3425 100.997 46.2592 101.119C46.6564 101.181 47.1147 101.211 47.6036 101.211C48.5813 101.211 49.7729 101.089 51.1173 100.875C51.8812 100.722 52.5839 100.569 53.2561 100.447L57.4115 95.0652L57.6865 93.6892L57.8087 92.3744L57.7476 91.1513L57.5337 90.0199L57.1365 88.9803L56.8921 88.5828Z" fill="#2B59B0" fill-opacity="0.3059"/>
<path d="M54.0506 35.4392C53.9895 35.4392 53.9284 35.4392 53.8673 35.4392L53.409 35.4698C51.3619 35.8061 49.8647 36.7846 48.8564 38.4969C48.5509 38.9862 48.337 39.4754 48.1537 40.0258L47.9092 40.8514C47.6648 41.9828 47.6342 43.2364 47.8481 44.6124C48.1537 45.8967 48.612 46.9975 49.2231 47.9759L49.7119 48.6792C50.048 49.1073 50.4452 49.5048 50.8424 49.8717C52.1868 50.9114 53.3479 51.5535 54.2645 51.7981C54.509 51.8898 54.7534 51.951 55.0284 52.0121C55.2117 51.7369 55.2728 51.4312 55.2423 51.0642C55.1811 50.8196 55.12 50.6056 55.0589 50.4221C54.3562 49.1379 53.9895 48.404 53.959 48.19C53.8368 47.395 53.8368 46.814 53.9895 46.4776C54.2951 45.652 54.8145 45.1934 55.5172 45.1017C55.5478 45.1017 55.6089 45.1017 55.67 45.1017C56.0978 45.1017 57.0144 45.3463 58.4199 45.8049C58.8171 45.8049 59.1532 45.6215 59.3976 45.2545C59.6726 44.8265 59.9476 43.8174 60.1615 42.258C60.2837 40.9431 60.1615 39.5977 59.8254 38.1912C59.6726 37.4879 59.4282 36.7846 59.1532 36.0508C58.6338 35.959 58.1144 35.8673 57.5644 35.8367L56.5561 36.1119C55.5172 35.6532 54.6923 35.4392 54.0506 35.4392Z" fill="#2B59B0" fill-opacity="0.3059"/>
<path d="M55.4256 17.3983H54.9062C54.0202 17.3983 52.8591 17.6123 51.4536 18.071L48.6731 19.6304C47.176 20.6089 45.8621 21.7097 44.6705 22.9328L43.0206 24.8591C41.9817 26.2045 41.1262 27.6723 40.3929 29.2623C39.6596 30.8523 39.1096 32.5646 38.6819 34.4299L38.1624 37.3041C37.7347 40.7899 38.1319 44.0617 39.3541 47.0889L40.454 49.321C41.279 50.7887 42.3178 52.1953 43.5706 53.5713C44.8233 54.9167 46.2899 56.2315 47.9704 57.4852L49.8648 56.7513C50.262 56.3232 50.5981 55.8646 50.9036 55.3754C51.8202 53.9688 52.3091 52.4093 52.4008 50.7582C52.4924 49.5962 52.3397 48.3731 51.8508 47.1195C49.4064 42.8386 48.0621 39.9949 47.8482 38.5578C47.6648 36.8455 47.6954 35.5306 47.9093 34.6133C48.3981 32.8093 48.9176 31.6167 49.4981 31.0663C51.148 29.4457 53.3174 28.8648 56.0367 29.354C57.6561 29.6292 61.0477 31.0663 66.2724 33.6654C67.403 34.0629 68.4724 34.2158 69.5112 34.1852C72.7194 33.6654 74.5832 32.2589 75.0415 29.9961C75.3471 29.14 75.2554 28.1615 74.7971 26.9996C74.2777 25.7765 73.3916 24.6145 72.0778 23.4832L64.3781 19.7833L62.2087 18.8354C59.1227 17.7652 56.8617 17.276 55.4256 17.3983Z" fill="#EECD28"/>
<path d="M95.5129 94.9734L91.3881 96.0436C92.6714 97.0221 93.6491 98.0923 94.3213 99.3154C94.6574 99.9269 94.9324 100.569 95.1463 101.242C95.5129 102.954 95.6657 104.024 95.574 104.452C95.4824 105.89 95.1463 107.174 94.5046 108.397C94.1991 109.008 93.8324 109.559 93.3741 110.109C92.9464 110.66 92.4269 111.179 91.8464 111.638L90.9298 112.341C89.5243 113.259 88.0271 113.84 86.3772 114.145C84.4522 114.421 82.9551 114.451 81.9162 114.268C80.7552 113.962 79.8691 113.564 79.3191 113.106C76.3859 110.507 74.6749 109.1 74.2471 108.794C73.4221 108.366 72.7499 108.152 72.1694 108.213C70.7639 108.397 69.4806 108.886 68.3501 109.62C68.014 109.712 67.2196 110.446 65.9363 111.791C65.4474 112.372 64.9586 113.045 64.5308 113.748C64.5003 114.176 64.5614 114.482 64.7447 114.696C66.1808 116.011 67.739 117.57 69.4195 119.374C70.275 120.169 71.2528 120.781 72.3527 121.239C73.2999 121.576 74.7971 121.973 76.8748 122.462C77.3331 122.585 78.5553 122.799 80.5107 123.105C83.1384 123.441 85.4605 123.38 87.5077 122.86C89.3104 122.401 90.6242 121.881 91.5103 121.331C92.7019 120.505 93.3741 119.986 93.4963 119.741C93.863 119.344 94.1991 118.915 94.4741 118.426C94.9324 117.57 95.2379 116.867 95.3602 116.255C95.849 113.106 96.2462 111.118 96.5518 110.262L99.5461 103.29C99.9127 101.456 99.8211 99.8963 99.3322 98.6121C99.0878 97.97 98.7211 97.389 98.2628 96.8692L97.499 96.1353C96.949 95.6767 96.2768 95.2792 95.5129 94.9734Z" fill="#EECD28"/>
<path d="M16.1327 39.8118H16.0105C15.0633 39.72 14.2383 39.9952 13.505 40.6985L13.1995 41.0654C12.7411 42.1051 12.2523 43.1753 11.6412 44.3066C11.4273 44.7653 11.1218 45.1016 10.7551 45.3157C10.6023 45.4991 9.59404 45.8355 7.76078 46.2636C7.39413 46.4165 7.11914 46.6917 6.8747 47.0586C6.63027 47.4561 6.4775 47.9759 6.44694 48.5569C6.4775 50.9725 6.44694 52.5319 6.32472 53.2046C5.19421 56.7822 4.61368 58.8309 4.58313 59.3507C4.36925 59.9011 4.55257 61.858 5.04144 65.2216C6.23306 71.1536 7.27191 75.9848 8.18854 79.7152C8.34131 80.3879 8.52464 81.5804 8.70796 83.2928C8.89129 85.2192 8.76907 89.714 8.34131 96.7774L11.1523 95.9518C11.794 95.1568 12.405 93.9949 12.9856 92.4354C14.3605 89.0719 15.3688 86.2282 16.041 83.9655C16.1632 83.4762 16.2854 82.987 16.4077 82.4978C16.7132 79.8681 17.0187 77.9112 17.3548 76.6269C17.3854 76.1071 18.6381 74.2113 21.1436 70.9701C21.4797 68.2793 21.6325 66.4752 21.5408 65.5579L21.6936 64.5794C21.7852 64.0902 22.7324 62.2861 24.5046 59.1061C24.749 58.5863 24.9629 57.8524 25.1156 56.9351C25.2073 56.3541 25.2379 55.9872 25.2073 55.8037C25.1768 55.2533 25.1156 54.3054 24.9629 52.96C25.0545 51.1254 25.0545 50.1469 25.024 49.9634C24.9629 49.2296 24.7184 48.4346 24.2601 47.5784L19.677 40.7597C19.0659 40.2093 17.8743 39.8729 16.1327 39.8118Z" fill="#2B961A"/>
<path d="M37.0623 68.6459H37.0012L31.5931 70.2359C27.3766 70.2971 25.2378 70.4194 25.2073 70.5723C24.8712 70.5723 24.4128 70.8781 23.8323 71.5508C22.8851 72.6515 21.4796 74.8531 19.6158 78.186C18.1186 83.904 16.5604 88.1848 14.9715 90.998C14.7882 91.6095 14.7577 92.1599 14.9104 92.6491C15.0938 93.1995 16.7437 94.2392 19.8297 95.7986C21.6935 98.5506 23.5879 100.477 25.4822 101.547L27.1627 106.959C27.2238 107.204 28.2321 108.305 30.2182 110.262C30.9209 112.31 31.6542 113.962 32.4486 115.215C33.7625 116.499 34.8319 117.417 35.6874 117.998C36.1152 118.426 37.7345 119.404 40.6066 120.872C41.7983 121.422 43.051 121.912 44.3648 122.309C48.3369 123.563 52.1867 124.205 55.9449 124.266C59.8559 124.144 62.8197 123.563 64.8362 122.584L66.2723 119.129C60.3447 121.239 54.3561 121.698 48.2758 120.475C44.9148 119.465 42.8982 118.518 42.2871 117.692C41.3705 117.111 40.3928 115.552 39.3539 113.014C38.1928 109.956 37.7956 106.073 38.1623 101.394C38.865 97.0829 40.1483 91.8541 41.9816 85.7081C42.3177 84.2709 42.501 81.9471 42.5316 78.7364C42.4705 76.2291 41.951 74.0275 40.9733 72.1317C39.7206 69.7161 38.4373 68.5848 37.0623 68.6459Z" fill="#2B961A"/>
<path d="M86.1633 45.7439L85.155 45.8051C83.505 46.0802 82.5273 46.3249 82.2218 46.5389C81.5801 46.8141 80.9385 47.1199 80.3274 47.5174C79.0135 48.3124 77.883 49.352 76.9664 50.5751C74.9498 53.6634 74.2471 57.4244 74.8276 61.8582C75.072 63.3565 75.5303 64.7019 76.2025 65.925C76.5997 66.8729 77.7914 68.2488 79.7774 70.0835C81.3051 71.2454 82.2217 71.8875 82.619 72.0099C83.2911 72.3768 83.9939 72.6826 84.7272 72.9578C86.7438 73.661 88.2715 73.9362 89.3104 73.7833C92.488 73.3858 95.3601 71.5818 97.8961 68.3711C98.3544 67.7902 98.7516 67.2092 99.0877 66.6282C99.821 65.1299 100.188 64.2126 100.218 63.8763C100.585 61.9499 100.677 60.1764 100.554 58.5864C100.493 57.7914 100.371 57.0269 100.157 56.3237C99.5766 54.6113 99.1489 53.6329 98.8739 53.3882L94.8101 48.9545C93.7713 48.1289 92.1519 47.3033 89.8909 46.4472C88.6076 45.9579 87.3549 45.7439 86.1633 45.7439Z" fill="#EA4313"/>
<path d="M71.0389 71.398L70.4889 71.4285C67.4029 71.7343 65.0808 73.569 63.5836 76.963C63.4003 77.4523 63.278 77.9415 63.1864 78.4613L63.0947 79.2564L63.3697 92.5269C63.9808 93.536 64.7141 94.4227 65.5696 95.1872C65.9974 95.5847 66.4557 95.921 66.9446 96.2574L67.7084 96.716C69.0834 97.5722 70.6416 97.9697 72.3527 97.9085C73.0554 97.9085 74.186 97.6945 75.6831 97.2664C75.6831 97.3887 76.3553 97.0218 77.7303 96.2268L79.0746 95.2177C79.9302 94.4839 80.6635 93.6889 81.3051 92.7715C81.9468 91.8542 82.4662 90.8452 82.8634 89.7138L83.4134 87.9709L83.78 86.0751C83.9939 84.3628 84.055 83.3537 83.9328 83.1091L83.8411 82.1918C83.7495 81.5802 83.6272 81.0298 83.4439 80.4489C83.2606 79.8985 83.0467 79.3481 82.7717 78.8283C82.4967 78.3084 82.1912 77.8192 81.8551 77.33L81.3051 76.6267C80.7551 76.0151 80.2052 75.4648 79.6552 74.9755C78.2191 73.8136 77.3636 73.202 77.0275 73.1103C76.4164 72.7739 75.8053 72.4988 75.1942 72.2541C73.2999 71.612 71.9249 71.3368 71.0389 71.398Z" fill="#EA4313"/>
<path d="M119.07 60.2372H118.612C115.068 60.4512 112.257 61.7966 110.179 64.2428C109.935 64.4263 109.415 65.2213 108.651 66.5973C108.437 66.9642 108.224 67.5452 107.979 68.3708C107.826 68.4931 107.704 70.236 107.612 73.5383C107.582 74.9449 107.765 76.1986 108.101 77.2688C108.254 77.8192 108.468 78.3084 108.712 78.7976C108.957 79.2869 109.262 79.7455 109.598 80.1736L110.148 80.8157C112.715 83.2619 115.526 84.4544 118.551 84.3933C119.498 84.3627 120.506 84.2098 121.606 83.9346C122.309 83.7512 122.981 83.5371 123.592 83.2925C124.845 82.7727 125.914 82.0388 126.862 81.1521C127.809 80.2959 128.542 79.1951 129.123 77.8497C129.398 77.2382 129.612 76.5961 129.795 75.9539C130.131 74.3333 130.253 73.3243 130.192 72.9879C130.253 72.6516 130.162 71.612 129.917 69.9608C129.795 69.3187 129.612 68.6765 129.367 68.065C128.878 66.8419 128.176 65.6494 127.228 64.518C126.77 63.9676 126.22 63.4172 125.639 62.8668L122.951 61.0933C121.484 60.4818 120.201 60.176 119.07 60.2372Z" fill="#EA4313"/>
<path d="M14.4216 52.4097C14.3605 52.4402 14.33 52.5014 14.2994 52.6543L13.3828 63.2952C13.1078 65.2827 12.7717 66.9951 12.3134 68.4628C12.2217 69.1049 11.2746 71.4288 9.47185 75.4344C9.07464 76.26 8.55522 77.2691 7.91357 78.4616C8.00524 78.8897 8.12745 79.3178 8.21912 79.7153C8.37189 80.388 8.55522 81.5805 8.73854 83.2928C8.92187 85.2192 8.79965 89.7141 8.37189 96.7774L11.1829 95.9518C11.8245 95.1568 12.4356 93.9949 13.0161 92.4354C13.9022 90.2644 14.6355 88.3075 15.2466 86.5646C15.2772 86.32 15.3383 86.0754 15.3688 85.8307C15.5216 84.8828 15.5216 83.3234 15.3994 81.0912C15.2466 79.7764 15.0022 78.0641 14.6661 75.9848C14.5744 75.0981 14.5133 74.2419 14.4828 73.4163C14.4828 73.0188 14.5133 72.1321 14.6355 70.7255L15.2772 64.1208C15.3688 61.7969 15.3688 60.054 15.3383 58.9226C15.2161 56.5376 15.0633 54.917 14.9105 54.0608C14.7883 53.113 14.605 52.532 14.4216 52.4097Z" fill="#C0D787" fill-opacity="0.4863"/>
<path d="M13.6578 66.0474L13.3828 66.7201C13.1995 67.1787 13.0162 67.668 12.8329 68.2184C12.4051 69.5943 12.1607 70.4505 12.0996 70.8174C11.7329 72.438 11.519 73.4471 11.4579 73.8446C11.3968 74.3338 11.3663 74.6396 11.3357 74.7313C11.2746 75.3429 11.244 75.9239 11.2135 76.5048L11.1829 83.874C11.1829 84.2715 11.1524 84.9748 11.0607 85.9227C10.969 86.9011 10.8163 88.1242 10.5718 89.5308L9.50244 94.6984L10.1746 94.8512L10.4496 94.3008C11.1524 92.7108 11.794 90.1729 12.3745 86.6565C12.4357 86.1978 12.4968 85.5557 12.5579 84.7301C12.5884 84.2715 12.619 83.874 12.619 83.507C12.6495 83.2013 12.619 81.6418 12.5273 78.8287C12.5273 77.942 12.5273 77.1164 12.5273 76.3214C12.5273 75.5263 12.5579 74.3338 12.6495 72.7132C12.6801 72.1323 12.8023 71.1538 12.9856 69.839C13.0773 69.258 13.2912 68.1266 13.6578 66.3531C13.7189 66.1697 13.7189 66.0474 13.6578 66.0474Z" fill="#C0D787" fill-opacity="0.4863"/>
<path d="M17.2326 86.6868H17.0798C17.0187 86.6868 16.9576 86.7173 16.8965 86.7479C16.2549 88.3991 15.6132 89.8057 14.941 90.9676C14.7577 91.5791 14.7271 92.1295 14.8799 92.6188C15.0632 93.1692 16.7132 94.2088 19.7992 95.7682C21.663 98.5202 23.5574 100.447 25.4517 101.517L27.1322 106.929C27.1933 107.174 28.2016 108.274 30.1876 110.231C30.8904 112.28 31.6237 113.931 32.4181 115.185C33.7319 116.469 34.8014 117.386 35.6569 117.967C36.0846 118.395 37.704 119.374 40.5761 120.842C41.7677 121.392 43.0205 121.881 44.3343 122.279C48.3064 123.532 52.1562 124.175 55.9144 124.236C59.8254 124.113 62.7891 123.532 64.8057 122.554L66.2112 119.099C62.453 120.444 58.6643 121.117 54.845 121.117C52.6451 121.117 50.4452 120.903 48.2453 120.444C44.8843 119.435 42.8677 118.487 42.2566 117.662C41.4316 117.142 40.515 115.735 39.5373 113.503C37.7651 112.066 36.4207 110.507 35.4735 108.855C35.0458 108.213 34.1597 106.226 32.8153 102.954L29.2405 98.0921C28.3849 94.6675 27.8044 92.7717 27.5294 92.4047L26.3378 91.732C23.649 91.3039 22.1213 90.9064 21.7546 90.5089C21.2963 90.2643 20.0436 89.0412 17.9354 86.8397C17.752 86.7479 17.5076 86.6868 17.2326 86.6868Z" fill="#C0D787" fill-opacity="0.4863"/>
<path d="M31.4099 109.559L31.1349 109.589C30.7072 109.987 30.5544 110.629 30.6766 111.577C31.2266 113.014 31.8071 114.237 32.4182 115.215C33.732 116.5 34.8014 117.417 35.657 117.998C36.0847 118.426 37.7041 119.405 40.5762 120.872C41.7678 121.423 43.0206 121.912 44.3344 122.309C48.3065 123.563 52.1563 124.205 55.9145 124.266C59.8254 124.144 62.7892 123.563 64.8058 122.585L66.2113 119.129C63.5836 120.077 60.956 120.689 58.2977 120.964C58.0838 121.056 57.9005 121.147 57.6866 121.239C56.77 121.545 56.0062 121.698 55.4562 121.698C51.3924 121.576 48.337 121.239 46.2288 120.689C43.2344 119.771 40.7901 118.518 38.8346 116.928C37.5208 115.949 35.5042 113.809 32.7237 110.445C32.1127 109.864 31.6849 109.559 31.4099 109.559Z" fill="#C0D787" fill-opacity="0.4863"/>
<path d="M84.33 49.1685L83.6578 49.199C82.7717 49.3213 81.9162 49.6577 81.1218 50.2081C80.9079 50.2692 80.3579 50.8196 79.4413 51.8287C79.0441 52.3179 78.7691 52.7766 78.5552 53.2352C78.4025 53.4493 78.1275 54.1831 77.7914 55.4674C77.6692 55.9872 77.6081 56.507 77.6081 57.0574C77.5469 58.1276 77.6692 59.2896 77.9747 60.6044C78.2497 61.8581 78.6774 62.9588 79.2274 63.8762C79.5024 64.3348 79.808 64.7629 80.1441 65.1298L80.6635 65.6497C81.244 66.2306 82.344 66.8728 83.9328 67.6372C85.2772 68.1876 86.5299 68.4016 87.6604 68.3099C89.7992 68.1876 91.6325 67.1785 93.1602 65.3133C93.4658 64.9464 93.7407 64.5489 93.9852 64.1514L94.3213 63.5398C94.5352 63.1117 94.7185 62.6837 94.8713 62.225C95.024 61.7969 95.1462 61.3077 95.1768 60.7267L95.2379 59.9623C95.2379 59.473 95.2379 59.0449 95.1768 58.6474C95.0546 57.8524 94.7796 57.2103 94.3213 56.7516L93.9546 56.4459L89.4326 53.0212C89.0354 52.0733 88.4548 51.3089 87.7521 50.6973L87.2021 50.2692C86.8049 50.0246 86.3771 49.8106 85.9188 49.6271C85.43 49.3825 84.9105 49.2602 84.33 49.1685Z" fill="#952D12" fill-opacity="0.4863"/>
<path d="M72.5055 74.9451L71.7111 74.9756C70.7028 75.0674 69.9084 75.4037 69.3584 75.9235C69.0835 76.1987 68.839 76.5045 68.6863 76.8714C68.5029 77.2384 68.4113 77.6665 68.3502 78.1251C68.3502 78.278 68.3502 78.4003 68.3807 78.5532C68.5029 79.073 68.8085 79.5011 69.2973 79.8069C69.3584 79.8986 70.5501 80.449 72.9028 81.4886L69.9695 82.5588C67.9529 81.1828 66.5169 80.7242 65.7225 81.1523C65.2642 81.2746 64.867 81.9167 64.5614 83.0787C64.4392 83.5373 64.3781 84.0571 64.3475 84.5769L64.3781 85.372C64.6836 88.0016 65.5697 90.1114 66.9752 91.6709L67.678 92.3436C68.1668 92.7411 68.6863 93.0775 69.2668 93.3221C69.8473 93.5667 70.4584 93.7196 71.1 93.8113C71.925 93.8725 72.4444 93.903 72.6278 93.8419C73.4527 93.7807 74.0944 93.689 74.5832 93.5667C75.1027 93.3832 75.5304 93.1692 75.8054 92.8634L76.1721 92.3742C76.722 91.304 76.2026 89.6834 74.6749 87.4818C77.0581 87.9405 78.5248 87.971 79.1053 87.5124C79.5636 87.0843 79.8386 86.7479 79.9303 86.5339C80.083 86.2587 80.2358 85.9223 80.3275 85.586C80.5413 84.8827 80.633 84.0877 80.6024 83.1398C80.5108 80.9382 79.5942 79.0119 77.8526 77.3913C76.1721 75.8318 74.3999 75.0062 72.5055 74.9451Z" fill="#952D12" fill-opacity="0.4863"/>
<path d="M119.07 62.2861L118.306 62.3167C116.29 62.439 114.457 63.1423 112.868 64.3654C111.798 65.2827 110.912 66.1389 110.271 66.9033C110.026 67.1174 109.69 67.6372 109.201 68.4628C109.048 68.7685 108.926 69.0743 108.896 69.3495C108.987 69.5635 109.232 69.7164 109.659 69.7776C112.012 70.0528 113.448 70.2668 113.998 70.4503C114.762 70.7561 115.19 71.0007 115.281 71.2147C115.495 71.6122 115.251 71.918 114.548 72.1626L114.365 72.2238L110.576 72.499C110.271 72.5601 109.996 72.6213 109.782 72.7742C109.171 73.0799 108.926 73.7221 109.048 74.6088C109.537 76.9021 110.484 78.6756 111.89 79.9293C112.593 80.5102 113.448 80.9383 114.395 81.1524C115.251 81.3358 116.076 81.397 116.87 81.3358C117.818 81.2441 118.398 81.1218 118.581 81.0606C119.345 80.8466 120.14 80.5714 120.903 80.1739C121.881 79.6235 122.92 78.8285 124.051 77.7889C126.006 76.0154 127.167 74.0278 127.442 71.7957C127.564 70.6949 127.473 69.6553 127.137 68.6768L126.831 67.9429C126.587 67.4843 126.312 67.0256 125.945 66.567L125.12 64.7629C124.784 64.396 124.417 64.0902 124.051 63.815C123.684 63.5398 123.256 63.2952 122.828 63.0811L122.187 62.8059C121.392 62.5308 120.354 62.3167 119.07 62.2861Z" fill="#952D12" fill-opacity="0.4863"/>
<path d="M74.1555 77.9725C73.9721 77.9725 73.8194 78.0031 73.6971 78.0642L73.4833 78.1865L73.2694 78.3394L73.0555 78.5229L72.8416 78.7675L72.6277 79.0427L72.4444 79.3485L72.2611 79.7154L72.0778 80.1129L72.9944 79.9294C73.2083 79.8683 73.3916 79.8071 73.5749 79.746C73.7582 79.6848 73.911 79.6237 74.0638 79.5319C74.2166 79.4708 74.3388 79.379 74.461 79.2873L74.6138 79.165L74.736 79.0121L74.8276 78.8592L74.8582 78.7675C74.8888 78.7369 74.8888 78.6452 74.8888 78.5229C74.8888 78.4617 74.8888 78.4311 74.8582 78.37C74.7971 78.2477 74.736 78.1559 74.7054 78.1254C74.6749 78.0948 74.6443 78.0642 74.5832 78.0336C74.4916 77.9725 74.4304 77.9419 74.3999 77.9419C74.3388 77.9725 74.2471 77.9725 74.1555 77.9725Z" fill="#FFB238" fill-opacity="0.7922"/>
<path d="M75.683 79.8984H75.5914C75.4691 79.8984 75.3469 79.929 75.2247 79.9595C75.1636 79.9901 75.1025 79.9901 75.0414 80.0207C75.0108 80.0207 74.9192 80.0818 74.7664 80.1429C74.5525 80.2345 74.3081 80.4179 74.0331 80.6623H74.7358H74.8581C75.4691 80.6623 75.8663 80.5706 76.0802 80.3873C76.1413 80.3262 76.1719 80.2956 76.1719 80.2345C76.1719 80.204 76.1719 80.1734 76.1719 80.1734C76.1413 80.1123 76.1413 80.0818 76.1108 80.0512C76.0802 80.0207 76.0497 80.0207 76.0191 79.9901C75.9886 79.9596 75.958 79.9595 75.9275 79.929L75.8663 79.8984C75.8663 79.8984 75.7747 79.8984 75.683 79.8984Z" fill="#FFB238" fill-opacity="0.7922"/>
<path d="M76.2331 81.5194H76.2026C76.0804 81.5194 75.9581 81.5194 75.897 81.55L75.7748 81.5805C75.7137 81.5805 75.6526 81.6111 75.5915 81.6111C75.4082 81.6722 75.2248 81.7333 75.0415 81.8555L75.5915 82.0694C75.7748 82.1 75.897 82.1 75.9887 82.1C76.1109 82.1 76.2026 82.1 76.3248 82.1C76.447 82.1 76.5387 82.1 76.6303 82.0694H76.6914C76.722 82.0694 76.7525 82.0694 76.8137 82.0389C76.8442 82.0389 76.8748 82.0083 76.9053 82.0083L76.997 81.9777L77.0581 81.9166L77.0886 81.8555V81.7944V81.7333L77.0581 81.6722L76.997 81.6111L76.9053 81.55L76.8137 81.4889C76.7525 81.4583 76.6914 81.4583 76.5998 81.4278C76.5692 81.4278 76.5387 81.4278 76.4164 81.3972C76.3248 81.5194 76.2942 81.5194 76.2331 81.5194Z" fill="#FFB238" fill-opacity="0.7922"/>
<path d="M70.4584 88.1851L70.3667 88.3074C70.0917 88.6437 69.9084 88.9495 69.8167 89.2247C69.7556 89.3776 69.725 89.5305 69.6945 89.6833C69.6945 89.7445 69.6639 89.8362 69.6639 89.928V90.0503C69.6639 90.142 69.6639 90.2032 69.6639 90.2949L69.6945 90.4172C69.6945 90.5089 69.725 90.5701 69.7556 90.6312C69.7862 90.6924 69.7862 90.7536 69.8167 90.8147C69.8778 90.937 69.9389 90.9982 70 91.0593C70.1528 91.1205 70.3361 91.0288 70.4889 90.8147C70.55 90.7536 70.6111 90.6312 70.6722 90.4784C70.7028 90.3255 70.7333 90.1726 70.7333 89.9891C70.7333 89.7751 70.6417 89.4082 70.5195 88.9495L70.4584 88.1851Z" fill="#FFB238" fill-opacity="0.7922"/>
<path d="M68.5639 87.2375L68.4722 87.2987C68.35 87.3904 68.2583 87.5128 68.1667 87.6351L68.1056 87.7268C68.075 87.7879 68.0139 87.8491 67.9833 87.9408C67.8917 88.0937 67.8306 88.2466 67.7695 88.3995L67.7389 88.4912C67.7084 88.5524 67.7084 88.6135 67.7084 88.6747C67.6778 88.8887 67.7084 89.0722 67.8 89.1945C67.8 89.1945 67.8306 89.2557 67.9222 89.2862C67.9528 89.3168 67.9833 89.3168 68.0139 89.3168C68.075 89.3474 68.1361 89.3168 68.1972 89.2557C68.3194 89.1333 68.4111 88.797 68.5333 88.1854C68.5639 88.0326 68.5944 87.8797 68.5944 87.6962L68.5639 87.2375Z" fill="#FFB238" fill-opacity="0.7922"/>
<path d="M76.8748 83.5068H76.8137C76.5693 83.5068 76.3859 83.5679 76.2332 83.6596C76.1415 83.7207 76.0804 83.7818 76.0498 83.8429C76.0193 83.8735 76.0193 83.904 76.0193 83.9652V84.0263C76.0498 84.179 76.1721 84.3012 76.3554 84.4235C76.5693 84.5457 76.7831 84.6068 76.9665 84.6373C77.0581 84.6373 77.0887 84.6373 77.0887 84.6373C77.1192 84.6373 77.1498 84.6373 77.1804 84.6068C77.2415 84.5762 77.272 84.5457 77.3331 84.5151V83.5679C77.272 83.5068 77.0887 83.5068 76.8748 83.5068Z" fill="#FFB238" fill-opacity="0.7922"/>
<path d="M82.9857 51.5842H82.9245C82.7718 51.5842 82.5884 51.676 82.4357 51.7983C82.344 51.9206 82.2829 52.0429 82.2218 52.1652L82.1607 52.3792L82.1301 52.5933V52.8073L82.1607 53.0214L82.2218 53.2354L82.3135 53.4494L82.4357 53.6941L82.6496 53.9998L82.8634 54.275C83.0162 54.4279 83.1384 54.5808 83.2912 54.7031L83.5051 54.8866C83.6578 54.9783 83.7801 55.0701 83.9328 55.1312C84.0856 55.1924 84.2078 55.2229 84.3606 55.2535L84.9106 54.642C84.9106 54.275 84.8495 53.9081 84.7272 53.5412L84.6356 53.266C84.5439 53.0825 84.4523 52.8991 84.3606 52.7156L84.1773 52.4404C83.9939 52.1958 83.9023 52.0735 83.8717 52.0429C83.5356 51.7371 83.2606 51.5842 82.9857 51.5842Z" fill="#FFB238" fill-opacity="0.7922"/>
<path d="M80.6024 54.9475H80.5108C80.2358 54.9781 80.0525 55.1004 79.8997 55.2839C79.7775 55.5896 79.8386 55.926 80.0525 56.2929L80.1747 56.4764C80.2663 56.5987 80.3886 56.721 80.5108 56.8433C80.6024 56.935 80.7247 57.0268 80.8163 57.0879L80.9691 57.1797L81.1219 57.2714C81.2135 57.3325 81.3357 57.3631 81.4274 57.3937C81.5191 57.4243 81.6413 57.4549 81.7635 57.4549C81.8857 57.4549 81.9774 57.4549 82.0079 57.4549C82.069 57.4549 82.1302 57.4549 82.1913 57.4243L82.8024 56.2623C82.4051 55.8648 82.0079 55.5285 81.6413 55.3144L81.458 55.2227C81.3357 55.1616 81.2135 55.1004 81.0913 55.0698C80.9385 54.9781 80.7858 54.9781 80.6024 54.9475Z" fill="#FFB238" fill-opacity="0.7922"/>
<path d="M81.1217 59.8704H81.0912C80.9995 59.8704 80.8773 59.8704 80.7856 59.9009L80.6634 59.9621C80.5718 59.9927 80.5107 60.0232 80.4495 60.0844C80.2662 60.2373 80.1746 60.4208 80.1746 60.6654L80.2051 60.7877L80.2662 60.91L80.3273 61.0323L80.419 61.124C80.4801 61.1852 80.5718 61.2463 80.6634 61.3075C80.7551 61.3687 80.8468 61.4298 80.969 61.491L81.1523 61.5827C81.3051 61.6133 81.3967 61.6438 81.5189 61.6438C81.6717 61.6438 81.8245 61.6133 82.0078 61.5521C82.13 61.491 82.2217 61.4298 82.3134 61.3381L82.2217 60.2067C82.0689 60.115 81.9162 60.0538 81.7328 59.9927C81.5495 59.9315 81.4273 59.9009 81.3662 59.9315C81.2745 59.8704 81.2134 59.8704 81.1217 59.8704Z" fill="#FFB238" fill-opacity="0.7922"/>
<path d="M92.5185 58.2803H92.4269C92.1213 58.2803 91.8463 58.3108 91.6325 58.372C91.388 58.4332 91.113 58.5249 90.8075 58.6472V60.1455C90.9603 60.1761 91.1436 60.1761 91.3575 60.1761C91.663 60.1761 91.8463 60.1455 91.8769 60.1455C91.9991 60.1455 92.1213 60.1149 92.2436 60.0843C92.488 60.0538 92.7019 59.9926 92.9463 59.9009C93.0074 59.8703 93.1296 59.8091 93.2824 59.7174C93.4046 59.6257 93.5268 59.5034 93.5879 59.3505C93.6796 59.2282 93.7102 59.1059 93.7407 58.9835C93.7407 58.953 93.7407 58.9224 93.7407 58.8001C93.7102 58.7389 93.6796 58.6778 93.6491 58.6166C93.5574 58.4943 93.4046 58.4026 93.1907 58.3414C92.8852 58.3108 92.6713 58.2803 92.5185 58.2803Z" fill="#FFB238" fill-opacity="0.7922"/>
<path d="M89.7992 61.9192L89.4937 63.3869C89.5853 63.4175 89.6464 63.4481 89.7381 63.4786C89.7686 63.5092 89.8909 63.5398 90.0742 63.5704C90.2575 63.6009 90.3492 63.6315 90.3797 63.6009C90.4408 63.6009 90.5019 63.6009 90.5936 63.6009C90.8992 63.5704 91.0825 63.3869 91.2047 63.1117C91.2047 63.0506 91.2047 62.9894 91.2047 62.9282V62.8365C91.2047 62.7754 91.1741 62.7142 91.1436 62.653C91.0825 62.5307 91.0214 62.439 90.8992 62.3473C90.838 62.2861 90.7464 62.225 90.6853 62.1944L90.5631 62.1332C90.4714 62.1027 90.4103 62.0721 90.3186 62.0415C90.1659 61.9803 89.9825 61.9498 89.7992 61.9192Z" fill="#FFB238" fill-opacity="0.7922"/>
<path d="M114.823 65.7717H114.732C114.609 65.7717 114.518 65.8329 114.426 65.894C114.243 66.0163 114.151 66.1387 114.121 66.1998C114.09 66.2304 114.09 66.2915 114.09 66.3527V66.4444C114.09 66.5056 114.09 66.5667 114.09 66.6279C114.09 66.7808 114.121 66.9337 114.182 67.0866C114.212 67.1783 114.243 67.2394 114.273 67.3312C114.365 67.5452 114.426 67.6675 114.426 67.6981C114.518 67.851 114.609 68.0345 114.732 68.1873C114.854 68.3402 114.976 68.432 115.098 68.5237C115.159 68.5543 115.22 68.5848 115.282 68.6154C115.312 68.646 115.404 68.646 115.495 68.646C115.618 68.646 115.74 68.5848 115.862 68.4931L116.443 67.5758L116.412 67.3618C116.32 66.9642 116.137 66.5973 115.801 66.2915C115.434 65.9552 115.129 65.7717 114.823 65.7717Z" fill="#FFB238" fill-opacity="0.7922"/>
<path d="M118.337 65.1604H118.276C118.215 65.1604 118.093 65.191 117.94 65.3133C117.818 65.405 117.756 65.4662 117.726 65.4967L117.604 65.6802L117.512 65.8637C117.451 65.986 117.39 66.1389 117.359 66.2612L117.329 66.4752L117.298 66.6893V66.9033C117.298 67.0562 117.329 67.2091 117.359 67.362L117.42 67.6066C117.481 67.7595 117.512 67.9124 117.573 68.0041L117.665 68.157L117.756 68.2793C117.818 68.371 117.909 68.4016 117.97 68.4628L118.093 68.4933C118.215 68.4933 118.276 68.5239 118.245 68.4933C118.276 68.4933 118.306 68.4933 118.306 68.4933L119.223 67.362C119.254 67.1785 119.254 67.0256 119.254 66.8422C119.254 66.3529 119.162 65.9248 118.979 65.5579L118.887 65.3744C118.856 65.3133 118.795 65.2827 118.765 65.2521L118.704 65.191C118.581 65.191 118.459 65.1604 118.337 65.1604Z" fill="#FFB238" fill-opacity="0.7922"/>
<path d="M115.343 75.7705L115.159 75.8317C114.823 75.954 114.548 76.1374 114.334 76.3515C114.12 76.5961 113.998 76.8713 113.968 77.1159C113.968 77.2076 113.968 77.2688 113.998 77.3605L114.029 77.4828C114.059 77.5746 114.09 77.6357 114.151 77.7275C114.212 77.7886 114.273 77.8498 114.273 77.8498C114.365 77.9109 114.487 77.9415 114.64 77.9415C114.793 77.9415 114.915 77.9109 115.037 77.8803C115.373 77.758 115.679 77.544 115.954 77.2382C116.106 77.0548 116.229 76.8713 116.32 76.6572C116.351 76.5655 116.381 76.4738 116.412 76.4126L116.443 76.2903C116.443 76.0763 116.351 75.9234 116.198 75.8317C116.045 75.7399 115.801 75.7705 115.495 75.9234L115.343 75.7705Z" fill="#FFB238" fill-opacity="0.7922"/>
<path d="M118.49 76.1987H118.368C118.276 76.1987 118.184 76.2293 118.123 76.2599L118.001 76.321C117.909 76.3822 117.848 76.4433 117.756 76.5045L117.634 76.6268C117.543 76.7185 117.481 76.8103 117.39 76.902C117.329 76.9937 117.298 77.0549 117.237 77.1466C117.206 77.2384 117.176 77.2995 117.145 77.3913L117.115 77.5136C117.084 77.6664 117.115 77.8193 117.145 77.9416C117.237 78.0945 117.359 78.1557 117.512 78.1557C117.604 78.1557 117.756 78.1251 117.879 78.064L119.04 76.4128C118.948 76.3516 118.856 76.321 118.765 76.2905C118.734 76.2293 118.643 76.1987 118.49 76.1987Z" fill="#FFB238" fill-opacity="0.7922"/>
<path d="M54.4172 26.6328C54.2645 26.6328 54.1422 26.6328 53.9895 26.6328L52.4923 26.694C48.5508 27.0609 44.8843 28.9261 41.4316 32.259C40.0567 34.1243 38.9262 35.9283 38.0707 37.6712C37.704 41.0042 38.1318 44.1231 39.3234 47.0585L40.4233 49.2906C41.2483 50.7584 42.2872 52.1649 43.5399 53.5409C44.7926 54.8863 46.2592 56.2011 47.9397 57.4548L49.8341 56.7209C50.2313 56.2929 50.5674 55.8342 50.8729 55.345C51.7896 53.9384 52.2784 52.379 52.3701 50.7278C52.4618 49.5658 52.309 48.3427 51.8201 47.0891C49.3758 42.8082 48.0314 39.9645 47.8175 38.5274C47.6342 36.8151 47.6647 35.5002 47.8786 34.5829C48.3675 32.7789 48.8869 31.5863 49.4674 31.036C50.7202 29.7823 52.309 29.1707 54.2034 29.1707C54.7839 29.1707 55.3644 29.2319 56.0061 29.3542C57.6254 29.6294 61.017 31.0665 66.2418 33.6656C67.25 34.002 68.2278 34.1854 69.175 34.1854C69.2666 34.1854 69.3889 34.1854 69.4805 34.1854C71.8027 33.7879 73.3915 32.9623 74.2775 31.7087C73.7276 31.6169 73.0859 31.5252 72.4137 31.4029C70.9471 31.0971 66.8528 29.7823 60.192 27.489C57.8393 26.908 55.9144 26.6328 54.4172 26.6328Z" fill="#A34209" fill-opacity="0.3059"/>
<path d="M47.0843 28.1925H46.5954C44.8232 28.2537 42.5622 28.957 39.8734 30.2412C37.368 31.4643 35.1986 32.9626 33.3959 34.7361C32.1126 35.9898 31.0432 37.7021 30.1572 39.8425L29.6072 41.4325C29.2711 42.5027 29.0266 43.6647 28.8433 44.8572C28.4767 47.5174 28.4461 49.933 28.6905 52.104C28.935 53.9081 29.5461 55.437 30.4627 56.7212C30.921 57.3633 31.471 57.9443 32.1126 58.4641C32.296 58.7393 33.457 59.4426 35.5958 60.5434C37.4291 61.3996 39.2318 61.7665 40.9734 61.6442C43.1122 61.6442 45.9843 60.6657 49.5897 58.6782C51.6369 57.2716 52.8285 56.3849 53.1035 55.9874C54.6923 54.3668 55.6395 53.1131 55.9145 52.2263C55.9145 51.89 55.7311 51.7983 55.4256 51.9817C54.9367 52.5321 53.6229 53.6941 51.4841 55.4675C50.6286 56.1097 49.8036 56.6906 49.0092 57.1799C47.3898 58.1583 45.8315 58.7699 44.3649 59.0757C40.7901 59.3814 38.0402 58.2195 36.0847 55.5593C35.5042 54.0916 35.1986 52.5933 35.0764 51.0338C35.0153 50.2694 35.0459 49.4744 35.107 48.6488C35.3819 46.6307 35.6264 45.377 35.8097 44.9489C35.9625 44.4597 36.3597 43.6035 37.0319 42.3804C37.9485 41.1573 38.804 39.9648 39.5984 38.8029C40.2095 37.9161 41.0651 36.479 42.1345 34.4915L42.715 33.7882C43.1733 33.3601 43.7233 32.9932 44.3955 32.6874C45.2204 32.3511 46.2593 32.137 47.512 32.1064C49.3147 32.1064 51.0563 32.718 52.7368 33.9717L53.5618 34.6444C54.1118 35.1336 54.6617 35.684 55.1812 36.3261L55.6089 37.0905C55.8839 37.6715 56.0672 38.3442 56.22 39.1698C56.6783 41.6466 56.6172 45.2547 56.0672 50.0248L57.595 48.1901C57.9311 47.3034 58.1755 46.4166 58.3588 45.5299C58.5421 44.6432 58.6644 43.7564 58.7255 42.9002C58.7255 40.7293 58.6644 39.445 58.5116 39.0169C57.8699 36.1426 57.2283 34.3692 56.5867 33.727C55.395 31.9841 53.5312 30.3941 51.0258 28.9875C49.4981 28.4372 48.1842 28.1314 47.0843 28.1925Z" fill="#B94CD5"/>
<path d="M50.262 63.9983L49.1009 64.0594C45.9538 64.3346 42.5012 65.7106 38.8041 68.1874C37.3986 69.3493 36.6042 70.1138 36.4209 70.4501C35.9625 71.0005 35.5348 71.6121 35.1376 72.2542C34.3432 73.5384 33.7321 74.9756 33.2738 76.5962C33.3654 76.6879 33.5182 76.6267 33.7626 76.4433C35.8098 74.4252 37.7652 72.8351 39.6291 71.6732C41.4623 70.5724 43.1734 69.8386 44.7622 69.4716C48.1537 68.4014 51.1786 68.8907 53.8674 70.8782C55.1507 71.8873 56.1284 73.2632 56.8312 74.9756C58.145 79.9597 58.8783 83.4761 58.97 85.5248C59.0005 86.1975 58.97 86.7173 58.8783 87.0536L58.6644 87.4511L57.8395 89.989C57.2589 91.5791 56.5562 92.9856 55.7618 94.1781C54.2035 96.5632 52.248 98.1838 49.9564 98.9788C47.3899 99.7127 44.9761 99.7738 42.6845 99.1623C41.8595 98.8565 41.0957 98.5201 40.3624 98.1226C38.6208 97.0524 37.643 96.3491 37.4291 96.0434C36.3292 95.0955 35.2903 93.6889 34.3126 91.8237C33.7932 90.8758 33.396 89.3469 33.121 87.2371C32.9682 85.7082 32.9682 83.3843 33.1515 80.2349C33.121 79.8068 33.0599 79.5622 32.9988 79.5316C32.9377 79.501 32.8766 79.4704 32.846 79.5316C32.571 80.4489 32.3571 81.4274 32.2349 82.4364C32.0821 82.8951 32.021 84.4851 32.0516 87.1759C32.0821 89.0106 32.571 91.732 33.5182 95.3401C34.0376 96.7772 34.8626 98.0921 36.0236 99.254C39.9041 102.862 44.7316 104.636 50.4759 104.574C52.3397 104.483 54.3257 104.024 56.4034 103.168C58.3589 102.128 59.4894 101.456 59.7949 101.058C60.4977 100.477 61.1393 99.835 61.7504 99.1317C65.0197 95.3401 66.7308 91.2121 66.9141 86.7173V85.3413L62.7893 71.8567L61.5976 70.2055C58.2672 66.0776 54.5396 63.9983 50.262 63.9983Z" fill="#B94CD5"/>
<path d="M105.565 42.8999L104.16 42.9611C103.213 43.0528 102.265 43.2363 101.349 43.5114C98.996 44.3676 97.56 45.0097 97.0711 45.4072C94.6879 46.9667 93.2518 48.0369 92.7629 48.5873C91.2963 50.2079 90.5019 51.1864 90.3186 51.5533C87.6604 55.1308 86.4993 60.2984 86.8354 67.056C87.1409 69.1353 87.4159 70.3278 87.5993 70.6336C87.7826 70.7253 87.9048 70.6947 87.9965 70.5724C88.7909 67.2701 89.4936 64.671 90.1047 62.8058C91.0825 60.2678 91.8158 58.6167 92.3352 57.8217C93.5268 55.8953 94.474 54.611 95.2073 53.9078C96.3378 52.7764 97.6516 51.8896 99.1794 51.3087C105.351 49.1683 110.515 50.3914 114.732 54.8862C118.062 58.0663 119.651 63.0198 119.498 69.7468C119.07 77.3912 117.054 82.2224 113.387 84.2405C108.437 86.4421 103.793 86.4421 99.5154 84.2099C95.3295 81.9778 91.7241 77.4829 88.6992 70.7253C88.3631 70.9088 88.1492 71.3063 88.0576 71.8567C88.2103 76.8714 90.5019 81.2133 94.8712 84.9132C96.6128 86.4115 98.4155 87.4817 100.34 88.185C102.724 89.0106 105.168 89.3469 107.643 89.194C110.148 89.0106 112.562 88.2461 114.884 86.9007C117.329 85.6165 119.406 83.7207 121.117 81.1216C121.667 80.2349 122.156 79.287 122.584 78.2473C122.859 77.8192 123.378 76.0763 124.112 72.988C124.478 71.2451 124.784 69.5939 124.967 68.0651C125.181 67.1783 125.273 65.0991 125.212 61.8273C125.028 59.3505 124.509 57.3018 123.592 55.6812L120.659 51.3087L119.009 49.5352C114.548 45.1015 110.087 42.8999 105.565 42.8999Z" fill="#B94CD5"/>
<path d="M47.6343 30.5161C45.7705 30.5161 43.265 31.7086 40.179 34.0937C37.3986 36.1118 35.382 37.7629 34.0987 39.0778L33.5182 39.7199L32.5404 40.9736C32.4182 41.157 32.296 41.4628 32.2043 41.9215C31.196 49.1377 31.196 53.7549 32.2043 55.7119C32.9071 57.2101 33.8543 58.3721 35.0459 59.2283C35.657 59.6563 36.2986 59.9927 37.0014 60.2373C37.7041 60.4819 38.4985 60.6654 39.3235 60.7265L40.6373 60.7877L44.1511 60.6348C45.4955 60.3596 46.5649 60.115 47.3287 59.901C48.062 59.5646 48.7953 59.1671 49.5898 58.739C51.6369 57.3325 52.8285 56.4457 53.1035 56.0482C54.6923 54.4276 55.6395 53.1739 55.9145 52.2872C55.9145 52.0732 55.8534 51.9508 55.7006 51.9508C55.6395 51.9508 55.5479 51.9814 55.4256 52.0426C54.9368 52.593 53.6229 53.7549 51.4841 55.5284C50.6286 56.1705 49.8036 56.7515 49.0092 57.2407C47.3898 58.2192 45.8316 58.8307 44.365 59.1365C43.9983 59.1671 43.6317 59.1977 43.2956 59.1977C40.2401 59.1977 37.8263 58.0052 36.0847 55.6201C35.5042 54.1524 35.1987 52.6541 35.0764 51.0947C35.0153 50.3302 35.0459 49.5352 35.107 48.7096C35.382 46.6915 35.6264 45.4379 35.8098 45.0098C35.9625 44.5205 36.3597 43.6644 37.0319 42.4413C37.9486 41.2182 38.8041 40.0257 39.5985 38.8637C40.2096 37.977 41.0651 36.5399 42.1345 34.5523L42.715 33.849C43.1733 33.421 43.7233 33.054 44.3955 32.7483C45.2205 32.4119 46.2593 32.1979 47.5121 32.1673C49.3148 32.1673 51.0564 32.7788 52.7369 34.0325L53.5618 34.7052C54.1118 35.1944 54.6618 35.7448 55.1812 36.387L55.609 37.1514C55.884 37.7324 56.0673 38.4051 56.2201 39.2307C56.6784 41.7074 56.6173 45.3156 56.0673 50.0856L57.5644 48.3121C57.6256 47.9146 57.7172 47.5477 57.7478 47.1808L57.9617 45.3461C58.0533 44.1536 58.0533 42.9917 57.9311 41.8603C57.7172 39.5976 57.1367 37.4878 56.1589 35.5002C55.7617 34.7664 55.334 34.0937 54.8451 33.5433C54.3562 32.9623 53.8063 32.4731 53.2257 32.0756L52.3091 31.5252C51.0258 30.883 49.4981 30.5467 47.7871 30.5467H47.6648C47.6648 30.5161 47.6648 30.5161 47.6343 30.5161Z" fill="#E7C9E4"/>
<path d="M49.6815 65.925C49.5593 65.925 49.4065 65.925 49.2843 65.925L47.1455 66.0779C42.5929 66.6895 38.2847 69.3497 34.1904 74.0281C33.8238 74.8231 33.5182 75.6792 33.2432 76.5965C33.2738 76.6271 33.3043 76.6271 33.3655 76.6271C33.4571 76.6271 33.5793 76.566 33.7321 76.4437C35.7792 74.4256 37.7347 72.8355 39.5985 71.6736C41.4318 70.5728 43.1428 69.8389 44.7317 69.472C45.8927 69.1051 47.0233 68.9216 48.1232 68.9216C50.1703 68.9216 52.0953 69.5638 53.8369 70.8786C55.1201 71.8876 56.0979 73.2636 56.8006 74.9759C58.1145 79.9601 58.8478 83.4765 58.9394 85.5251C58.97 86.1978 58.9394 86.7177 58.8478 87.054L58.6339 87.4515L57.8089 89.9894C57.2284 91.5795 56.5256 92.986 55.7312 94.1785C54.173 96.5636 52.2175 98.1842 49.9259 98.9792C48.5204 99.3767 47.1455 99.5907 45.8316 99.5907C44.7317 99.5907 43.6928 99.4684 42.654 99.1932C41.829 98.8874 41.0652 98.5511 40.3318 98.1536C38.5903 97.0834 37.6125 96.3801 37.3986 96.0743C36.2987 95.1264 35.2598 93.7199 34.2821 91.8547C33.7627 90.9068 33.3655 89.3779 33.0905 87.268C32.9377 85.7392 32.9377 83.4153 33.121 80.2658C33.0905 79.8377 33.0294 79.5931 32.9683 79.5626C32.9377 79.532 32.9071 79.532 32.8766 79.532C32.846 79.532 32.8155 79.532 32.8155 79.5626C32.5405 80.4799 32.3266 81.4584 32.2044 82.4674C32.0516 82.9261 31.9905 84.5161 32.0211 87.2069C32.0516 89.0415 32.5405 91.7629 33.4877 95.371C34.0071 96.8082 34.8321 98.123 35.9931 99.285C39.8124 102.832 44.5178 104.605 50.1398 104.605C50.2315 104.605 50.3231 104.605 50.4453 104.605C52.3091 104.514 54.2952 104.055 56.3729 103.199C58.3284 102.159 59.4589 101.487 59.7644 101.089C60.4672 100.508 61.1088 99.8659 61.7199 99.1626C63.2171 97.4197 64.3781 95.6157 65.2336 93.7199L65.3864 93.2306C65.417 93.0777 65.5086 92.6191 65.6003 91.8547C65.692 91.0291 65.6614 90.02 65.5086 88.8887C65.417 88.0936 64.9281 86.0755 64.1031 82.8037C63.8281 79.532 63.5531 77.2387 63.2782 75.985L63.0032 75.0677L61.8727 73.019C60.7421 71.5207 60.0088 70.634 59.6116 70.3588C58.3895 69.1968 56.9229 68.0655 55.1507 66.9953C52.9202 66.2614 51.1175 65.925 49.6815 65.925Z" fill="#E7C9E4"/>
<path d="M106.146 46.1714L105.321 46.202C100.493 46.63 96.2156 49.0457 92.4269 53.4182C91.2658 54.9471 90.4409 56.5983 89.952 58.3718C89.4937 61.032 89.3409 63.1418 89.4937 64.6401C89.677 63.9674 89.8909 63.3559 90.0742 62.8055C91.052 60.2675 91.7853 58.6164 92.3047 57.8214C93.4963 55.895 94.4435 54.6107 95.1768 53.9075C96.3073 52.7761 97.6211 51.8894 99.1489 51.3084C101.135 50.6357 102.999 50.2993 104.771 50.2993C108.529 50.2993 111.829 51.8282 114.701 54.9165C118.031 58.0966 119.62 63.0501 119.468 69.7771C119.162 75.3116 118.001 79.3784 116.015 81.9775C117.543 80.6932 118.765 78.614 119.681 75.7397C120.14 74.272 120.537 72.6208 120.842 70.7862C121.179 68.2788 121.362 66.9946 121.331 66.964C121.454 64.2426 121.331 62.041 120.965 60.4204C119.956 56.4148 118.429 53.2959 116.443 51.0638C115.007 49.6266 113.54 48.5258 112.043 47.7308C111.676 47.4251 110.515 47.0276 108.56 46.4772C107.765 46.2631 106.971 46.1714 106.146 46.1714Z" fill="#E7C9E4"/>
<defs>
<radialGradient id="paint0_radial_20002_17207" cx="0" cy="0" r="1" gradientUnits="userSpaceOnUse" gradientTransform="translate(70 70) rotate(90) scale(70)">
<stop stop-color="#E7EDEF"/>
<stop offset="0.935" stop-color="#DBE7E9"/>
<stop offset="1" stop-color="#CDD8DB"/>
</radialGradient>
</defs>
</svg>
