<svg width="140" height="128" viewBox="0 0 140 128" fill="none" xmlns="http://www.w3.org/2000/svg">
<path d="M63.792 71.6699C63.792 71.6699 62.6279 62.8509 68.578 53.2651C74.3987 43.6793 83.4531 39.4615 87.7216 31.9207C91.9901 24.5076 94.3184 21.3124 102.209 20.4177C110.099 19.6508 109.582 23.1017 109.064 24.7633C108.547 26.5526 110.358 28.4698 112.815 28.8532C115.402 29.2366 119.024 33.4544 117.989 36.2663C121.87 38.439 121.74 39.5893 119.541 42.9124C117.343 46.2355 119.412 46.1077 120.835 49.8142C122.258 53.5207 122.128 57.6107 117.601 59.6557C112.945 61.7006 112.686 59.6557 110.875 58.3776C109.064 57.0995 107.253 58.8888 105.83 60.2947C104.408 61.8285 99.363 64.6403 93.9303 64.8959C88.4977 65.1516 89.6618 69.1137 85.0053 65.9184C81.7716 63.7456 80.2193 64.8959 77.503 67.0687C74.916 69.2415 70.6475 74.2261 67.8019 74.2261C64.9562 74.2261 63.9214 73.0758 63.792 71.6699Z" fill="#73BE46"/>
<path d="M65.8616 60.422C66.8964 59.3995 67.8018 58.2492 69.0953 57.4823C70.3888 56.7155 71.8117 56.2042 73.2345 55.8208C76.8563 54.7983 79.9606 53.2646 82.9357 50.8362C86.2987 48.0243 88.627 44.7013 89.1444 40.2279C89.4031 38.0551 89.2737 35.8823 91.0846 34.3486C92.8955 32.9426 96.5173 32.4314 95.4825 29.3639C94.8357 27.319 93.1542 25.7852 93.2836 23.7402C91.214 25.5296 89.6618 28.2136 87.5922 31.7923C83.3237 39.2054 74.2693 43.5509 68.4486 53.1368C66.767 55.9486 65.6029 58.7605 64.9562 61.1889C65.3442 61.0611 65.6029 60.8054 65.8616 60.422Z" fill="#40AB48"/>
<path d="M119.671 42.9127C121.87 39.5896 121.999 38.4393 118.119 36.2665C118.377 35.4997 118.248 34.4772 117.989 33.5825C116.566 33.5825 115.144 33.7103 113.721 33.9659C109.194 34.7328 104.925 36.5222 101.045 38.9506C97.4228 41.2512 94.189 44.1908 90.6966 46.6192C87.3335 49.0476 83.9705 51.7317 81.1248 54.6713C77.8911 57.8666 74.7867 61.3175 71.8117 64.7684C69.7421 67.1968 67.4138 69.4974 64.6975 71.1589C64.4388 71.2868 64.1801 71.4146 63.9214 71.6702C64.0507 73.0761 65.0855 74.2264 67.9312 74.2264C70.9062 74.2264 75.0454 69.2418 77.6324 67.069C80.2193 64.8962 81.9009 63.7459 85.1346 65.9187C89.7911 68.9862 88.627 65.024 94.0597 64.8962C99.4923 64.6406 104.537 61.8287 105.96 60.295C107.383 58.8891 109.193 57.0997 111.004 58.3778C112.815 59.656 113.074 61.8287 117.731 59.656C122.387 57.611 122.387 53.521 120.964 49.8145C119.541 46.108 117.472 46.2358 119.671 42.9127Z" fill="#40AB48"/>
<path d="M68.1899 68.0916C68.1899 68.0916 68.578 67.5804 69.3541 66.6857C70.1302 65.791 71.1649 64.5129 72.4584 63.107C73.1052 62.3401 73.8813 61.5733 74.6574 60.8064C75.4335 60.0395 76.3389 59.1449 77.2444 58.378C78.1498 57.6111 79.0552 56.7164 80.09 55.8218C81.1248 54.9271 82.0303 54.1602 83.0651 53.2656C84.0998 52.4987 85.1346 51.604 86.1694 50.8371C86.6868 50.4537 87.2042 50.0703 87.7216 49.6868C88.239 49.3034 88.7564 48.92 89.2738 48.6643C89.7912 48.2809 90.3086 48.0253 90.6966 47.6419C91.214 47.3863 91.7314 47.0028 92.1195 46.7472C93.0249 46.1081 93.9303 45.5969 94.8358 45.0857C95.7412 44.5744 96.5173 44.191 97.1641 43.8075C97.9402 43.4241 98.4576 43.1685 98.9749 42.9129C100.01 42.4016 100.656 42.146 100.656 42.146C100.656 42.146 100.139 42.5294 99.1043 43.0407C98.5869 43.2963 98.0695 43.6797 97.2934 44.0632C96.6467 44.4466 95.8706 44.9578 94.9651 45.4691C94.189 45.9803 93.2836 46.6194 92.3782 47.2584C91.8608 47.5141 91.4727 47.8975 90.9553 48.2809C90.4379 48.6644 90.0499 48.92 89.5325 49.3034C89.0151 49.6868 88.4977 50.0703 87.9803 50.4537C87.4629 50.8371 86.9455 51.2206 86.4281 51.604C85.3933 52.3709 84.3585 53.1377 83.4531 54.0324C82.4183 54.7993 81.5129 55.694 80.4781 56.4608C79.4433 57.3555 78.5378 58.1224 77.6324 59.017C76.7269 59.9117 75.8215 60.6786 75.0454 61.4454C74.2693 62.2123 73.4932 62.9792 72.7172 63.6182C71.2943 65.0242 70.1302 66.1745 69.3541 66.9413C68.578 67.5804 68.1899 68.0916 68.1899 68.0916Z" fill="#73BE46"/>
<path d="M81.6422 54.6713C81.6422 54.6713 82.4183 54.16 83.5824 53.6488C83.8411 53.521 84.2292 53.3931 84.6172 53.2653C85.0053 53.1375 85.3933 53.0097 85.652 52.8819C86.4281 52.6263 87.2042 52.3707 88.1097 52.2428C88.4977 52.115 89.0151 52.115 89.4031 51.9872C89.7912 51.8594 90.1792 51.8594 90.6966 51.8594C91.0847 51.8594 91.4727 51.7316 91.8608 51.7316C92.2488 51.7316 92.6368 51.6038 92.8955 51.7316C93.5423 51.7316 94.0597 51.7316 94.4477 51.7316C94.8358 51.7316 95.0945 51.7316 95.0945 51.7316C95.0945 51.7316 94.8358 51.7316 94.4477 51.8594C94.0597 51.8594 93.5423 51.9872 92.8955 52.115C92.2488 52.115 91.4727 52.3707 90.6966 52.4985C89.9205 52.6263 89.0151 52.8819 88.239 53.0097C87.851 53.1375 87.4629 53.1375 86.9455 53.2653C86.5575 53.3931 86.1694 53.521 85.7814 53.521C85.0053 53.7766 84.2292 53.9044 83.7118 54.16C83.0651 54.2878 82.5476 54.4156 82.1596 54.5434C81.9009 54.5434 81.6422 54.6713 81.6422 54.6713Z" fill="#73BE46"/>
<path d="M89.6619 48.664C89.6619 48.664 89.6619 48.025 89.9206 47.2581C90.0499 46.8747 90.1793 46.3634 90.438 45.8522C90.6967 45.3409 90.9554 44.8297 91.2141 44.3185C91.3434 44.0628 91.4728 43.8072 91.7315 43.5516C91.8608 43.296 91.9901 43.0404 92.2488 42.7847C92.3782 42.5291 92.6369 42.4013 92.7663 42.1457C92.8956 42.0179 93.025 41.7622 93.2837 41.6344C93.9304 40.9954 94.4478 40.7397 94.4478 40.7397C94.4478 40.7397 94.1891 41.251 93.6717 41.8901C93.5423 42.0179 93.413 42.2735 93.2837 42.5291C93.1543 42.7847 93.0249 42.9125 92.8956 43.1682C92.7662 43.4238 92.6369 43.6794 92.5076 43.935C92.3782 44.1906 92.2489 44.4463 92.1195 44.7019C91.9902 44.9575 91.8608 45.2131 91.7315 45.4687C91.6021 45.7244 91.4728 45.98 91.3434 46.2356C91.0847 46.7469 90.826 47.1303 90.6967 47.5137C89.9206 48.1528 89.6619 48.664 89.6619 48.664Z" fill="#73BE46"/>
<path d="M102.079 121.004C102.079 121.004 95.3531 117.042 93.1541 122.155C90.9552 127.267 88.6269 129.312 80.9953 127.139C74.1399 125.35 72.5877 126.372 66.8963 127.139C61.0756 127.906 60.2995 124.967 57.5832 123.049C54.8669 121.132 52.2799 118.832 53.444 114.997C54.7375 111.035 57.3245 109.757 57.3245 109.757C57.3245 109.757 44.2603 103.494 45.8124 97.9984C47.3646 92.5025 52.1505 93.2694 54.2201 94.931C56.2897 96.5925 59.2647 97.615 59.9115 93.0138C60.5582 88.4126 63.7919 85.7286 66.1202 85.9842C68.5779 86.2398 69.6126 87.9013 71.5529 86.112C73.4931 84.3226 74.7866 84.1948 78.4084 84.067C81.9008 83.9392 86.428 83.6836 89.015 82.5333C91.6019 81.383 91.6019 82.022 93.1541 85.7286C94.577 89.3073 95.4824 88.6682 98.1987 88.6682C100.915 88.6682 102.338 90.841 104.666 94.4197C106.994 97.9984 109.193 99.7878 114.238 100.682C119.283 101.577 121.352 103.494 121.223 108.095C121.093 112.697 117.213 113.208 113.203 113.719C109.193 114.358 107.512 116.914 106.477 119.215C105.313 121.388 104.019 122.027 102.079 121.004Z" fill="#73BE46"/>
<path d="M88.8857 82.4061C86.2987 83.5564 81.7715 83.812 78.2791 83.9398C74.7867 84.0676 73.3638 84.1955 71.4236 85.9848C69.4834 87.7742 68.4486 85.9848 65.9909 85.857C63.5333 85.7292 60.2996 88.2854 59.7822 92.8866C59.1355 97.4878 56.1604 96.4653 54.0908 94.8038C52.4093 93.3979 48.6582 92.631 46.5886 95.6984C50.5984 96.9766 54.2202 100.044 57.4539 102.6C60.0409 104.645 63.6627 108.096 67.1551 106.307C68.7073 105.54 70.2595 104.517 71.8116 104.006C72.9758 103.495 74.7867 102.856 76.0801 103.111C77.2443 103.367 78.1497 103.878 78.7965 104.901C79.4432 105.796 79.4432 106.562 80.6074 107.074C81.7715 107.585 83.065 107.968 84.3585 107.968C88.1096 108.096 90.4379 106.179 91.7314 102.856C92.5075 100.939 93.1542 98.1269 94.8357 96.8488C96.2586 95.8263 97.552 97.9991 98.0694 99.0215C98.5868 100.172 99.1043 101.45 98.9749 102.728C98.9749 103.623 98.7162 104.39 98.5869 105.284C98.4575 106.946 100.786 107.201 102.079 107.457C103.89 107.84 105.701 108.096 107.512 108.352C111.522 108.863 115.532 108.991 119.541 108.607C119.929 108.607 120.447 108.48 120.835 108.48C120.835 108.224 120.835 108.096 120.835 107.84C120.964 103.239 118.895 101.322 113.85 100.427C108.805 99.5328 106.606 97.7434 104.278 94.1647C101.95 90.586 100.527 88.4132 97.8108 88.4132C95.0944 88.4132 94.189 89.0523 92.7662 85.4736C91.4727 81.8949 91.4727 81.2558 88.8857 82.4061Z" fill="#40AB48"/>
<path d="M84.8757 115.509C84.8757 115.509 85.2638 115.253 86.0399 114.742C86.816 114.231 87.7214 113.464 89.0149 112.697C89.6616 112.314 90.3084 111.802 91.0845 111.419C91.8606 110.908 92.5073 110.524 93.4128 110.013C93.8008 109.757 94.1889 109.502 94.7063 109.246C95.0943 108.991 95.6117 108.735 95.9997 108.607C96.9052 108.224 97.94 107.84 98.9747 107.712C99.4921 107.712 100.01 107.712 100.527 107.712C101.044 107.84 101.562 107.84 102.079 107.84C103.114 107.968 104.019 108.096 104.925 108.224C106.736 108.351 108.547 108.479 110.099 108.351C111.651 108.351 112.815 108.224 113.721 108.096C114.109 108.096 114.497 107.968 114.755 107.968C115.014 107.968 115.014 107.84 115.014 107.84C115.014 107.84 115.014 107.84 115.014 107.968C115.014 107.968 114.885 108.096 114.755 108.096C114.497 108.224 114.238 108.351 113.721 108.351C112.815 108.479 111.651 108.735 110.099 108.863C108.547 108.991 106.865 108.991 104.925 108.863C104.019 108.735 102.985 108.607 102.079 108.479C101.562 108.479 101.044 108.351 100.656 108.351C100.139 108.351 99.6215 108.351 99.2335 108.351C98.1987 108.351 97.2932 108.735 96.3878 109.118C95.9997 109.374 95.4823 109.502 95.0943 109.757C94.7062 110.013 94.1888 110.269 93.8008 110.396C92.1193 111.291 90.6964 112.186 89.4029 112.953C88.7562 113.336 88.1095 113.72 87.5921 113.975C87.0747 114.231 86.5573 114.614 86.1692 114.742C85.2638 115.253 84.8757 115.509 84.8757 115.509Z" fill="#73BE46"/>
<path d="M80.866 107.202C80.866 107.202 81.254 107.202 81.7714 107.329C82.2888 107.329 83.0649 107.457 83.9703 107.457C84.4877 107.457 85.0051 107.457 85.5225 107.585C86.0399 107.585 86.6867 107.585 87.2041 107.585C87.8508 107.585 88.3682 107.585 89.0149 107.457C89.6617 107.329 90.1791 107.329 90.8258 107.329C91.4726 107.202 92.1193 107.202 92.7661 107.202C93.4128 107.202 93.9302 107.202 94.577 107.202C95.0943 107.202 95.7411 107.329 96.2585 107.329C96.7759 107.329 97.2933 107.457 97.8107 107.457C98.7161 107.585 99.4922 107.713 100.01 107.713C100.527 107.841 100.915 107.841 100.915 107.841C100.915 107.841 99.6216 107.841 97.8107 107.841C96.9052 107.841 95.7411 107.841 94.577 107.841C93.9302 107.841 93.4128 107.841 92.7661 107.841C92.1193 107.841 91.6019 107.841 90.9552 107.969C90.3084 107.969 89.6617 108.096 89.1443 108.096C88.4975 108.224 87.8508 108.096 87.3334 108.096C86.6867 108.096 86.1693 107.969 85.6519 107.969C85.1345 107.969 84.6171 107.841 84.0997 107.841C83.1942 107.713 82.4181 107.585 81.9007 107.457C81.254 107.329 80.866 107.202 80.866 107.202Z" fill="#73BE46"/>
<path d="M83.453 97.3604C83.453 97.3604 83.5824 97.3604 83.5824 97.4882C83.7117 97.616 83.841 97.616 84.0997 97.8716C84.3584 97.9994 84.4878 98.255 84.7465 98.3828C85.0052 98.6385 85.3933 98.8941 85.6519 99.1497C85.9106 99.4053 86.2987 99.7888 86.6867 100.044C87.0748 100.428 87.3335 100.811 87.7215 101.195C88.4976 101.962 89.1444 102.856 89.9204 103.623C90.3085 104.007 90.6965 104.39 91.0846 104.646C91.4726 104.901 91.99 105.285 92.3781 105.54C92.6368 105.668 92.7661 105.796 93.0248 105.924C93.2835 106.051 93.5422 106.179 93.6716 106.179C94.0596 106.435 94.577 106.563 94.965 106.691C95.3531 106.818 95.7411 106.946 96.1292 106.946C96.5172 107.074 96.7759 107.074 97.0346 107.202C97.552 107.33 97.8107 107.33 97.8107 107.33C97.8107 107.33 97.552 107.33 97.0346 107.33C96.7759 107.33 96.5172 107.33 96.1292 107.202C95.7411 107.202 95.3531 107.074 94.965 106.946C94.577 106.818 94.0596 106.818 93.6716 106.563C93.4129 106.435 93.1542 106.435 92.8955 106.307C92.6368 106.179 92.3781 106.051 92.2487 105.924C91.7313 105.668 91.3433 105.285 90.8259 105.029C90.3085 104.646 89.9205 104.262 89.5324 103.879C89.1444 103.495 88.7563 102.984 88.3682 102.601C87.9802 102.217 87.5922 101.706 87.3335 101.323C86.9454 100.939 86.6867 100.556 86.2987 100.172C86.04 99.7888 85.6519 99.5331 85.3932 99.1497C85.1345 98.8941 84.8758 98.5106 84.6171 98.255C84.3584 97.9994 84.2291 97.7438 83.9704 97.616C83.5823 97.616 83.453 97.3604 83.453 97.3604Z" fill="#73BE46"/>
<path d="M63.6627 49.0474C63.6627 49.0474 64.5681 65.6629 33.395 73.8428C17.0971 76.9102 3.38612 70.0084 0.281744 59.5279C-1.01174 52.2427 2.35129 49.4308 6.23176 51.348C6.23176 45.8521 12.5699 46.2356 18.908 42.1456C24.2113 38.6947 29.7732 40.4841 30.808 45.5965C30.9374 48.2805 33.2657 46.1078 35.8527 47.1302C38.569 48.1527 39.4744 54.4155 39.4744 54.4155C39.4744 54.4155 41.8027 50.9646 45.6832 53.9042C48.7875 49.5587 57.5833 50.1977 63.6627 49.0474Z" fill="#A2CE59"/>
<path opacity="0.5" d="M45.8125 54.0327C41.8027 51.093 39.6037 54.5439 39.6037 54.5439C39.6037 54.5439 38.6983 48.2812 35.9819 47.2587C33.2656 46.2362 31.0667 48.409 30.9373 45.725C29.9026 40.6125 24.3406 38.6954 19.0373 42.2741C12.6992 46.2362 6.36107 45.9806 6.36107 51.4765C3.64474 50.1984 1.1871 51.2209 0.411011 54.5439C0.669708 54.5439 0.928422 54.5439 1.31647 54.5439C5.32628 54.6717 8.43065 58.3783 10.8883 60.9345C12.4405 62.4682 14.122 64.2576 16.1916 65.1523C18.0025 65.9191 20.0721 66.4304 22.0123 66.8138C25.7634 67.5807 29.6439 67.5807 33.5243 66.8138C35.4646 66.4304 37.4048 65.9191 39.2157 65.4079C41.4146 64.7688 43.7429 64.3854 45.9418 63.7463C48.0114 63.2351 49.693 62.4682 51.3745 61.3179C52.668 60.4233 53.9614 59.5286 55.5136 59.0173C57.0658 58.6339 58.618 58.6339 59.7822 59.2729C64.0507 53.7771 63.7919 49.1759 63.7919 49.1759C57.5832 50.1984 48.7875 49.5593 45.8125 54.0327Z" fill="#A2CE59"/>
<path d="M54.4788 59.9116C54.4788 59.9116 53.9614 60.2951 52.9266 60.8063C51.8918 61.3175 50.469 62.0844 48.6581 62.8513C46.8472 63.6181 44.6483 64.5128 42.1907 65.1519C41.0265 65.5353 39.7331 65.7909 38.4396 66.0466C37.1461 66.3022 35.8526 66.5578 34.5591 66.6856C33.2656 66.8134 31.8428 66.9412 30.5493 66.9412H29.5145C29.1264 66.9412 28.8677 66.9412 28.4797 66.9412C27.8329 66.9412 27.1862 66.8134 26.5395 66.8134C25.246 66.6856 24.0818 66.5578 22.9177 66.3022C22.4003 66.1744 21.8829 66.0465 21.3655 65.9187C20.8481 65.7909 20.3307 65.6631 19.8133 65.4075C18.9079 65.1519 18.0024 64.7684 17.2263 64.385C16.4502 64.0016 15.8035 63.746 15.4154 63.4903C14.3807 62.9791 13.8633 62.5957 13.8633 62.5957C13.8633 62.5957 14.51 62.8513 15.5448 63.3625C16.0622 63.6181 16.7089 63.8738 17.485 64.1294C18.2611 64.385 19.0372 64.7684 20.072 65.0241C20.5894 65.1519 21.1068 65.2797 21.6242 65.4075C22.1416 65.5353 22.659 65.6631 23.1764 65.6631C24.3405 65.9187 25.5047 66.0466 26.6688 66.0466C27.3156 66.0466 27.9623 66.1744 28.609 66.1744C28.8677 66.1744 29.2558 66.1744 29.5145 66.1744H30.5493C31.8428 66.1744 33.1363 66.0465 34.4297 65.9187C35.7232 65.7909 37.0167 65.5353 38.3102 65.2797C39.6037 65.0241 40.7678 64.7684 42.0613 64.385C43.2255 64.0016 44.3896 63.7459 45.4244 63.3625C46.4592 62.9791 47.494 62.5957 48.3994 62.34C50.2103 61.5732 51.7625 60.9341 52.7973 60.4229C53.832 60.1673 54.4788 59.9116 54.4788 59.9116Z" fill="#A2CE59"/>
<path d="M40.3797 65.2794C40.3797 65.2794 39.733 65.2794 38.8275 65.1516C38.3101 65.0238 37.7927 64.896 37.2753 64.7682C37.0166 64.6404 36.758 64.5125 36.4993 64.3847C36.2406 64.2569 35.9818 64.1291 35.5938 64.0013C35.0764 63.7457 34.559 63.3623 34.0416 62.9788C33.7829 62.851 33.6535 62.5954 33.3949 62.4676C33.1362 62.3398 33.0068 62.0841 32.8775 61.9563C32.6188 61.5729 32.3601 61.3173 32.2307 61.0617C32.1014 60.806 31.972 60.6782 31.972 60.6782C31.972 60.6782 32.1014 60.806 32.2307 60.9338C32.3601 61.0617 32.4894 61.1895 32.6188 61.3173C32.7481 61.4451 32.8775 61.5729 33.1362 61.7007C33.5242 61.9563 33.9123 62.3398 34.3003 62.5954C34.559 62.7232 34.8177 62.851 35.0764 63.1066C35.3351 63.2344 35.5938 63.3622 35.8525 63.4901C36.3699 63.7457 36.8873 64.0013 37.4047 64.2569C37.6634 64.3847 37.9221 64.5126 38.1808 64.5126C38.4395 64.6404 38.5688 64.6404 38.8275 64.7682C39.8623 65.0238 40.3797 65.2794 40.3797 65.2794Z" fill="#A2CE59"/>
<path d="M26.1514 69.8806C26.1514 69.8806 26.2807 69.7528 26.41 69.7528C26.5394 69.6249 26.7981 69.4971 27.1861 69.3693C27.4448 69.2415 27.8329 68.9859 28.2209 68.8581C28.609 68.6025 28.997 68.4747 29.3851 68.3468C29.6438 68.219 29.7731 68.219 30.0318 68.0912C30.2905 67.9634 30.4199 67.9634 30.6786 67.8356C31.0666 67.7078 31.4547 67.4522 31.7134 67.3244C32.3601 67.0687 32.8775 66.9409 32.8775 66.9409C32.8775 66.9409 32.4895 67.1965 31.9721 67.58C31.7134 67.8356 31.3253 67.9634 30.9373 68.219C30.6786 68.3468 30.5492 68.4746 30.2905 68.4746C30.1612 68.6025 29.9025 68.6025 29.6438 68.7303C29.2557 68.8581 28.7383 69.1137 28.3503 69.2415C27.9622 69.3693 27.5742 69.4971 27.1861 69.4971C26.7981 69.6249 26.5394 69.625 26.41 69.625C26.2807 69.8806 26.1514 69.8806 26.1514 69.8806Z" fill="#A2CE59"/>
<path d="M89.9204 10.96C87.0747 10.1932 85.9106 9.93754 87.0747 8.14818C88.2389 6.35883 89.1443 3.80261 84.4877 1.62982C79.8312 -0.542966 76.4681 1.50201 73.8812 4.05823C71.2942 6.48664 67.9311 8.53162 66.5083 6.99789C65.0854 5.59197 59.5234 5.08072 56.6777 11.4713C53.9614 17.8618 54.9962 24.8914 56.4191 29.6204C57.8419 34.3494 60.8169 37.8003 57.1952 45.7246C52.4093 54.927 59.2647 56.972 59.2647 56.972L59.6528 57.0998C80.478 53.7767 89.6617 28.8536 91.4726 23.1021C93.4128 17.095 92.7661 11.7269 89.9204 10.96Z" fill="#73BE46"/>
<path d="M89.9205 10.959C87.0748 10.1921 85.9107 9.93651 87.0748 8.14716C88.2389 6.35781 89.1444 3.80159 84.4878 1.6288C83.8411 1.37318 83.3237 1.11756 82.677 0.989746C84.7465 6.74124 85.652 12.8762 83.8411 18.7555C82.6769 22.462 80.6074 25.9129 77.8911 28.7247C74.916 31.7922 71.1649 34.2206 68.3192 37.4159C64.3094 41.8893 62.1105 47.7686 57.7126 51.7307C57.1952 52.1142 56.8072 52.4976 56.2898 52.881C57.3246 55.1816 59.6529 55.6929 59.6529 55.6929L60.0409 55.8207C80.6074 53.6479 89.9205 28.0857 91.7314 22.3342C93.5423 16.5827 92.7662 11.7259 89.9205 10.959Z" fill="#40AB48"/>
<path d="M78.7964 19.1401C78.7964 19.1401 78.6671 19.6514 78.4084 20.5461C78.1497 21.4407 77.7616 22.591 77.1149 24.1248C76.8562 24.8916 76.4681 25.6585 76.2094 26.4254C75.8214 27.1922 75.4334 28.0869 75.0453 28.9816C74.6573 29.8763 74.1399 30.7709 73.7518 31.6656C73.3638 32.5603 72.8464 33.455 72.329 34.3496C71.8116 35.2443 71.2942 36.139 70.7768 37.0337C70.2594 37.9284 69.6127 38.6952 69.0953 39.4621C68.5779 40.2289 67.9311 40.9958 67.4137 41.7627C66.8963 42.5295 66.3789 43.1686 65.8615 43.6798C65.3441 44.3189 64.9561 44.8302 64.4387 45.3414C64.0506 45.8526 63.6626 46.2361 63.2746 46.4917C62.6278 47.1307 62.3691 47.5142 62.3691 47.5142C62.3691 47.5142 62.6278 47.1308 63.2746 46.3639C63.5333 45.9805 63.9213 45.597 64.3094 45.0858C64.6974 44.5745 65.0855 44.0633 65.6029 43.4242C66.1203 42.7852 66.5083 42.1461 67.0257 41.3792C67.5431 40.6124 68.0605 39.8455 68.5779 39.0786C69.0953 38.3118 69.6127 37.4171 70.1301 36.5224C70.6475 35.6277 71.1648 34.7331 71.6822 33.8384C72.1996 32.9437 72.717 32.049 73.2344 31.1544C73.7518 30.2597 74.1399 29.365 74.6573 28.4703C75.0453 27.5757 75.4334 26.8088 75.9508 26.0419C76.3388 25.2751 76.7268 24.5082 76.9855 23.7413C77.6323 22.3354 78.1497 21.1851 78.4084 20.2904C78.5377 19.6514 78.7964 19.1401 78.7964 19.1401Z" fill="#73BE46"/>
<path d="M71.4236 20.1621C71.4236 20.1621 71.5529 20.2899 71.6823 20.6734C71.8116 21.0568 71.9409 21.568 72.1996 22.2071C72.329 22.8461 72.5877 23.613 72.7171 24.3799C72.8464 25.1467 72.9757 26.0414 72.9757 26.9361C72.9757 27.3195 72.9757 27.8308 72.9757 28.2142C72.9757 28.5976 72.9757 29.1089 72.9757 29.4923C72.9757 29.8757 72.8464 30.2592 72.8464 30.6426C72.717 31.0261 72.7171 31.4095 72.5877 31.6651C72.4584 32.0485 72.4584 32.3042 72.329 32.5598C72.1997 32.8154 72.1997 33.071 72.0703 33.1988C71.941 33.5823 71.8116 33.7101 71.8116 33.7101C71.8116 33.7101 71.8116 33.4545 71.941 33.071C71.941 32.8154 72.0703 32.6876 72.0703 32.432C72.0703 32.1763 72.1996 31.9207 72.1996 31.5373C72.1996 31.1539 72.1997 30.8982 72.329 30.5148C72.329 30.1314 72.329 29.7479 72.329 29.3645C72.329 28.5976 72.329 27.703 72.1996 26.8083C72.1996 26.4249 72.1997 25.9136 72.0703 25.5302C72.0703 25.1467 71.941 24.6355 71.941 24.2521C71.8116 23.4852 71.6823 22.7183 71.6823 22.0793C71.5529 21.4402 71.5529 20.929 71.4236 20.5455C71.4236 20.4177 71.4236 20.1621 71.4236 20.1621Z" fill="#73BE46"/>
<path d="M76.7269 33.7104C76.7269 33.7104 76.3389 34.3495 75.5628 35.1164C74.7867 35.8832 73.7519 36.9057 72.5878 37.9282C71.941 38.3116 71.4236 38.8229 70.7769 39.2063C70.1302 39.5898 69.6127 39.9732 69.0953 40.2288C68.5779 40.4844 68.1899 40.7401 67.9312 40.8679C67.6725 40.9957 67.4138 41.1235 67.4138 41.1235C67.4138 41.1235 67.5432 40.9957 67.8018 40.7401C68.0605 40.4844 68.4486 40.2288 68.8367 39.9732C69.0954 39.8454 69.2247 39.5898 69.4834 39.4619C69.7421 39.2063 70.0008 39.0785 70.2595 38.8229C70.5182 38.5673 70.7769 38.4395 71.0356 38.1838C71.2943 37.9282 71.6823 37.6726 71.941 37.5448C72.1997 37.2892 72.4584 37.0335 72.8464 36.9057C73.1051 36.6501 73.3639 36.3945 73.7519 36.2667C74.2693 35.8832 74.7867 35.372 75.1747 35.1164C75.5628 34.7329 75.9508 34.4773 76.2095 34.3495C76.5976 33.8383 76.7269 33.7104 76.7269 33.7104Z" fill="#73BE46"/>
<path d="M17.3558 21.4403C17.3558 21.4403 14.5102 18.5006 17.4852 14.1551C20.4602 9.80948 25.1168 10.9598 26.5396 8.02012C27.9624 5.08047 28.9972 -0.159781 33.1364 0.862708C37.2756 1.8852 38.0516 3.1633 39.4745 1.62957C40.8973 0.0958396 45.9419 -0.926643 49.5637 1.24614C53.1854 3.41893 58.1007 12.2379 53.9616 23.3575C49.8224 34.3492 55.5138 41.7622 59.1355 45.8522C62.6279 49.9421 64.1801 57.3552 52.4094 59.4002C40.6386 61.4451 37.793 50.709 37.1462 48.1528C36.4995 45.5966 34.4299 45.7244 32.7483 46.4912C31.0668 47.2581 28.6092 47.2581 27.7037 43.935C26.7983 40.4841 21.495 45.98 19.1667 42.5291C16.7091 39.0782 16.9678 40.2285 13.0873 39.5895C9.07751 39.206 3.7742 28.0865 17.3558 21.4403Z" fill="#A2CE59"/>
<path opacity="0.5" d="M53.8322 23.4849C57.9714 12.4931 53.0561 3.54637 49.4344 1.37359C45.8126 -0.799201 40.768 0.223281 39.3451 1.75701C37.9223 3.29075 37.1462 2.01264 33.007 0.990149C30.5494 0.351094 29.1266 2.14045 28.0918 4.18542C28.9972 4.69667 29.7733 5.46353 30.5494 6.2304C34.5592 10.3204 36.7582 15.944 38.3103 21.3121C40.5093 29.492 39.4745 39.9725 45.4245 46.7465C48.917 50.8364 53.1855 54.1595 56.2898 58.3773C63.404 55.5655 61.9812 49.5583 58.8768 45.9796C55.5137 41.8897 49.693 34.4766 53.8322 23.4849Z" fill="#A2CE59"/>
<path d="M32.8778 13.5161C32.8778 13.5161 33.0071 14.1552 33.3952 15.4333C33.7832 16.5836 34.1713 18.2451 34.818 20.2901C35.0767 21.3126 35.5941 22.3351 35.9822 23.4854C36.3702 24.6357 36.8876 25.786 37.405 26.9363C37.9224 28.0866 38.4398 29.3647 39.0866 30.6428C39.3453 31.2818 39.7333 31.9209 39.992 32.56C40.38 33.199 40.6388 33.8381 41.0268 34.3493C41.6736 35.6274 42.3203 36.7777 42.967 38.0558C43.6138 39.2061 44.3898 40.3564 45.0366 41.5067C45.6833 42.657 46.4594 43.6795 47.1062 44.5742C47.4942 45.0854 47.7529 45.5967 48.141 45.9801C48.529 46.4914 48.7877 46.8748 49.1758 47.2582C49.8225 48.0251 50.3399 48.792 50.9866 49.5588C51.504 50.1979 52.0214 50.8369 52.4095 51.2204C53.1856 52.115 53.703 52.7541 53.703 52.7541C53.703 52.7541 53.1856 52.2428 52.4095 51.3482C52.0214 50.9647 51.504 50.3257 50.8573 49.8144C50.2105 49.1754 49.6932 48.4085 49.0464 47.6417C48.6584 47.2582 48.3997 46.8748 48.0116 46.3635C47.6236 45.9801 47.3649 45.4689 46.9768 44.9576C46.2007 43.9351 45.4247 43.0405 44.7779 41.8902C44.1312 40.7399 43.2257 39.5896 42.579 38.4393C41.9322 37.289 41.1561 36.0109 40.5094 34.8606C40.1213 34.2215 39.8627 33.5824 39.604 32.9434C39.3453 32.3043 38.9572 31.6653 38.6985 31.0262C38.0518 29.7481 37.6637 28.47 37.1463 27.3197C36.6289 26.0416 36.2409 24.8913 35.8529 23.741C35.4648 22.5907 35.0767 21.5682 34.818 20.5457C34.5593 19.5232 34.3006 18.6285 34.0419 17.7339C33.7832 16.967 33.6539 16.2001 33.5246 15.5611C33.0072 14.1552 32.8778 13.5161 32.8778 13.5161Z" fill="#A2CE59"/>
<path d="M44.3897 32.8159C44.3897 32.8159 44.3897 32.9437 44.3897 33.3272C44.3897 33.5828 44.3897 34.094 44.3897 34.6053C44.3897 34.8609 44.3897 35.1165 44.5191 35.3721C44.5191 35.6278 44.5191 36.0112 44.6485 36.2668C44.6485 36.6502 44.7778 36.9059 44.7778 37.2893C44.7778 37.6727 44.9072 37.9284 44.9072 38.3118C44.9072 38.6952 45.0365 38.9509 45.0365 39.3343C45.0365 39.7177 45.1658 39.9733 45.2952 40.229C45.4245 40.4846 45.4246 40.868 45.5539 41.1236C45.5539 41.3793 45.6832 41.6349 45.8126 41.8905C45.9419 42.4018 46.0713 42.7852 46.2007 43.0408C46.33 43.2964 46.33 43.552 46.33 43.552C46.33 43.552 46.2006 43.4242 46.0713 43.1686C45.9419 42.913 45.6833 42.5296 45.4246 42.0183C45.2952 41.7627 45.1658 41.5071 45.0365 41.2515C44.9071 40.9958 44.7778 40.7402 44.7778 40.3568C44.6485 40.1011 44.5191 39.7177 44.5191 39.3343C44.3897 38.9509 44.3898 38.6952 44.2604 38.3118C44.2604 37.9284 44.1311 37.6727 44.1311 37.2893C44.1311 36.9059 44.1311 36.6502 44.0017 36.2668C44.0017 35.8834 44.0017 35.6278 44.0017 35.3721C44.0017 35.1165 44.0017 34.7331 44.0017 34.4775C44.0017 33.9662 44.1311 33.5828 44.2604 33.1994C44.2604 32.9437 44.3897 32.8159 44.3897 32.8159Z" fill="#A2CE59"/>
<path d="M27.7039 25.5303C27.7039 25.5303 27.8332 25.6581 28.2212 25.7859C28.6093 25.9137 28.9973 26.1693 29.5147 26.5528C30.0321 26.8084 30.6789 27.1918 31.3256 27.5752C31.9724 27.9587 32.7485 28.3421 33.3952 28.7255C34.1713 29.109 34.818 29.4924 35.4648 29.8758C36.1115 30.2593 36.7583 30.5149 37.2757 30.8983C37.7931 31.154 38.3105 31.4096 38.5692 31.5374C38.8278 31.6652 39.0866 31.793 39.0866 31.793C39.0866 31.793 38.3105 31.5374 37.1463 31.154C36.4996 30.8983 35.8529 30.6427 35.2061 30.2593C34.5594 29.8758 33.7833 29.4924 33.0072 29.109C32.3604 28.7256 31.5843 28.2143 30.9376 27.8309C30.2908 27.4474 29.6441 27.064 29.1267 26.6806C28.3506 26.0415 27.7039 25.5303 27.7039 25.5303Z" fill="#A2CE59"/>
<path d="M61.5931 34.094C60.9463 29.7484 60.1702 25.4029 59.3941 21.0573C58.3593 15.817 59.2648 10.3212 64.5681 8.14836C64.8268 8.02055 65.3442 7.25369 64.6974 7.3815C59.9115 8.5318 58.6181 11.9827 57.5833 16.4561C56.9365 19.1401 57.7126 21.952 58.1006 24.636C58.618 28.2147 58.7474 31.9212 59.9115 35.3721C60.2996 36.139 61.7224 34.7331 61.5931 34.094Z" fill="#73BE46"/>
<path d="M61.7224 38.3106C61.5931 37.9272 60.6876 38.5662 60.817 38.9497C61.4637 41.3781 59.9115 43.8065 59.3941 46.1071C59.1354 47.1296 60.4289 46.2349 60.6876 45.7237C61.4637 43.5509 62.7572 40.739 61.7224 38.3106Z" fill="#73BE46"/>
<path d="M26.0222 71.031C16.321 71.1588 7.00787 68.2191 1.70457 59.6558C1.31652 59.0167 1.05784 59.9114 1.31654 60.2949C5.58505 68.986 16.709 75.2487 26.4102 73.076C27.1863 72.8203 26.6689 71.031 26.0222 71.031Z" fill="#A2CE59"/>
<path d="M30.1614 71.1582C29.644 71.1582 29.1266 71.1582 28.7386 71.286C28.3506 71.4138 28.6092 72.4363 29.1266 72.4363C29.5147 72.3085 30.0321 72.1807 30.4201 72.1807C30.6788 72.1807 30.4201 71.1582 30.1614 71.1582Z" fill="#A2CE59"/>
<path d="M64.4387 59.0169C64.4387 59.0169 68.3192 64.385 66.767 84.8347C66.8963 100.939 62.3691 102.6 57.5832 106.179C52.1506 110.014 53.5734 117.427 46.2005 119.216C38.6983 121.133 37.6635 119.088 36.1113 117.938C34.4297 116.66 29.5145 118.832 25.5047 120.494C21.4949 122.028 15.8035 121.261 13.2166 116.532C10.7589 111.803 12.9578 107.969 13.9926 106.307C15.0274 104.645 13.9927 104.006 12.5698 103.367C11.2763 102.728 11.2763 100.939 13.0872 98.3827C14.8981 95.8265 13.4752 93.1425 13.4752 89.1803C13.6046 85.2182 14.2514 81.1282 18.3905 80.3614C22.5297 79.5945 23.1764 77.0383 27.1862 77.8051C31.196 78.4442 32.4895 77.8051 35.7233 73.5874C38.8276 69.3696 39.7331 66.8134 45.1657 67.9637C50.7277 69.114 53.9615 70.1365 56.5484 65.6631C59.1354 61.3175 60.1702 57.9944 61.3343 57.4832C62.7571 56.9719 64.0506 57.8666 64.4387 59.0169Z" fill="#A2CE59"/>
<path opacity="0.5" d="M13.734 89.0523C13.6046 93.0145 15.1568 95.5707 13.3459 98.2547C11.535 100.811 11.4057 102.473 12.8285 103.239C14.122 103.878 15.2862 104.517 14.2514 106.179C13.2166 107.841 11.147 111.547 13.3459 116.148C13.8633 115.637 14.5101 115.126 15.0275 114.615C19.296 111.291 24.2112 108.863 29.1265 106.69C33.783 104.645 39.2157 103.367 43.3549 100.428C47.3647 97.4879 50.081 92.8867 52.2799 88.5411C53.5734 86.1127 54.9963 83.9399 56.4191 81.6393C57.7126 79.4665 58.7474 77.1659 59.7822 74.8653C61.4637 71.1588 63.5333 67.5801 66.5083 64.5126C65.7322 60.4227 64.6974 59.0168 64.6974 59.0168C64.3094 57.8665 63.0159 56.9718 61.7224 57.3552C60.5583 57.8665 59.5235 61.0617 56.9365 65.5351C54.3495 69.8807 50.9865 68.8582 45.5538 67.8357C39.9918 66.6854 39.2157 69.2416 36.1113 73.4594C32.8776 77.6772 31.5841 78.444 27.5743 77.6772C23.5645 77.0381 22.9177 79.4665 18.7786 80.2334C14.5101 81.0003 13.8633 85.218 13.734 89.0523Z" fill="#A2CE59"/>
<path d="M63.9213 61.5732C63.9213 61.5732 63.7919 62.4679 63.4039 64.0016C63.2745 64.7685 62.8865 65.6632 62.6278 66.8135C62.2397 67.836 61.8517 69.1141 61.4636 70.3922C60.9462 71.6703 60.4289 73.0762 59.7821 74.4822C59.1354 75.8881 58.3593 77.4218 57.4538 78.8277C56.6777 80.3615 55.7723 81.8952 54.8668 83.4289C54.3494 84.1958 53.9614 84.9627 53.444 85.7295C52.9266 86.4964 52.4092 87.2633 52.0212 88.0301C51.5038 88.797 50.9864 89.5639 50.469 90.3307C49.9516 91.0976 49.3049 91.7366 48.7875 92.5035C48.2701 93.2704 47.6233 93.9094 47.1059 94.5485C46.4592 95.1875 45.9418 95.8266 45.295 96.4657C44.6483 97.1047 44.1309 97.7438 43.4842 98.255C42.8374 98.7662 42.32 99.4053 41.6733 99.9165C41.0265 100.428 40.5091 100.939 39.8624 101.45C39.2156 101.834 38.6982 102.345 38.1809 102.728C37.6635 103.112 37.0167 103.495 36.6287 103.879C36.1113 104.262 35.5939 104.518 35.0765 104.901C34.0417 105.412 33.2656 105.924 32.6189 106.307C31.196 107.074 30.4199 107.457 30.4199 107.457C30.4199 107.457 31.196 106.946 32.4895 106.179C33.1363 105.796 33.9123 105.157 34.9471 104.646C35.3352 104.39 35.8526 104.006 36.37 103.623C36.8874 103.24 37.4047 102.856 37.9221 102.473C38.4395 102.089 39.0863 101.578 39.6037 101.195C40.1211 100.683 40.7678 100.172 41.2852 99.7887C41.8026 99.2775 42.4493 98.7663 43.0961 98.1272C43.7428 97.616 44.2603 96.9769 44.907 96.3378C45.5538 95.6988 46.0711 95.0597 46.7179 94.4207C47.3646 93.7816 47.882 93.1426 48.5288 92.3757C49.6929 90.9698 50.857 89.5639 51.8918 88.1579C54.0908 85.2183 55.9016 82.1508 57.4538 79.0833C58.2299 77.5496 58.8767 76.0159 59.5234 74.61C60.1702 73.204 60.6875 71.7981 61.2049 70.52C61.7223 69.2419 62.1104 68.0916 62.4984 67.0691C62.8865 66.0466 63.1452 65.1519 63.4039 64.3851C63.6626 62.4679 63.9213 61.5732 63.9213 61.5732Z" fill="#A2CE59"/>
<path d="M55.2549 80.8726C55.2549 80.8726 55.2549 81.0004 55.1255 81.1283C55.1255 81.2561 54.9961 81.5117 54.8668 81.8951C54.7374 82.1507 54.4787 82.5342 54.2201 82.9176C54.0907 83.0454 53.9614 83.301 53.832 83.5567C53.7027 83.8123 53.444 83.9401 53.3146 84.1957C52.9266 84.5791 52.5385 85.0904 52.0211 85.4738C51.5037 85.8573 50.9863 86.2407 50.3396 86.6241C50.0809 86.8798 49.8222 87.0076 49.4342 87.2632C49.1755 87.391 48.7874 87.6466 48.5287 87.9022C47.882 88.2857 47.3646 88.7969 46.7178 89.1803C46.0711 89.6916 45.4244 90.075 44.907 90.4585C44.2602 90.8419 43.6135 91.2253 42.9667 91.6088C42.32 91.9922 41.8026 92.3756 41.1558 92.5034C40.5091 92.759 39.9917 93.0147 39.4743 93.1425C38.4395 93.5259 37.5341 93.9093 36.8873 94.165C36.2406 94.4206 35.8525 94.4206 35.8525 94.4206C35.8525 94.4206 36.1112 94.165 36.758 93.9094C37.2754 93.6537 38.1808 93.1425 39.0863 92.6312C39.6037 92.3756 40.121 92.12 40.7678 91.8644C41.4145 91.6087 41.9319 91.2253 42.5787 90.9697C43.2254 90.7141 43.8721 90.3306 44.5189 89.9472C44.9069 89.8194 45.1657 89.5638 45.5537 89.436C45.9417 89.3082 46.2004 89.0525 46.5885 88.9247C47.2352 88.5413 47.882 88.1579 48.5287 87.7744C48.7874 87.5188 49.1755 87.391 49.4342 87.1354C49.6929 86.8797 49.9515 86.6241 50.2102 86.3685C50.7276 85.8572 51.245 85.346 51.6331 84.9626C52.1505 84.5791 52.5385 84.0679 52.9266 83.6845C53.1853 83.4288 53.3146 83.301 53.4439 83.1732C53.5733 83.0454 53.7027 82.7898 53.832 82.662C54.0907 82.2785 54.3494 82.0229 54.6081 81.7673C54.9962 81.1283 55.2549 80.7448 55.2549 80.8726Z" fill="#A2CE59"/>
<path d="M37.7927 111.291C37.7927 111.291 37.9221 111.036 38.1808 110.652C38.4395 110.269 38.8275 109.63 39.2155 108.991C39.4742 108.607 39.7329 108.224 39.9916 107.968C40.2503 107.585 40.6384 107.201 40.8971 106.818C41.5438 106.051 42.0612 105.029 42.4493 104.006C42.5786 103.495 42.8373 102.984 42.9667 102.472C43.096 101.961 43.3547 101.45 43.4841 101.066C43.6134 100.555 43.8721 100.172 44.0015 99.6605C44.1308 99.2771 44.2601 98.7658 44.3895 98.3824C44.5188 97.999 44.6482 97.6155 44.7776 97.3599C44.9069 97.1043 44.9069 96.7208 45.0362 96.593C45.1656 96.0818 45.2949 95.8262 45.2949 95.8262C45.2949 95.8262 45.2949 96.0818 45.2949 96.593C45.2949 96.8486 45.2949 97.1043 45.2949 97.4877C45.2949 97.8712 45.1656 98.2546 45.1656 98.638C45.1656 99.0214 44.9069 99.5327 44.9069 99.9161C44.7776 100.427 44.6482 100.811 44.3895 101.322C44.2601 101.833 44.0014 102.345 43.7427 102.728C43.484 103.239 43.2254 103.623 42.9667 104.134C42.708 104.645 42.3199 105.029 42.0612 105.54C41.8025 106.051 41.5438 106.434 41.2851 106.946C41.0264 107.457 40.8971 107.84 40.6384 108.224C40.3797 108.607 40.121 108.991 39.8623 109.374C38.6981 110.524 37.7927 111.291 37.7927 111.291Z" fill="#A2CE59"/>
<path d="M24.4698 119.216C24.0818 119.727 25.2459 119.6 25.5046 119.344C26.7981 118.066 31.9721 115.382 33.7829 115.51C36.2406 115.637 38.3101 117.938 40.6384 118.833C43.8721 120.111 47.4939 118.705 49.9516 116.66C53.9614 113.337 53.5733 106.819 57.9712 104.134C61.981 101.578 64.8267 99.1499 64.8267 93.9096C64.8267 93.1427 63.0158 93.654 62.7571 94.1652C61.3342 97.7439 60.8169 100.428 57.1951 102.601C55.7723 103.368 54.7375 104.134 53.7027 105.413C52.5385 106.819 52.0211 109.119 51.3744 110.781C49.8222 114.871 47.2352 118.833 41.9319 117.81C38.6982 117.171 36.8873 113.848 33.1362 114.487C31.584 114.743 30.5492 115.382 29.1264 116.277C27.3155 117.299 25.7633 117.555 24.4698 119.216Z" fill="#A2CE59"/>
<path d="M62.6277 87.0072C62.757 88.6687 62.6277 90.2024 62.2397 91.864C62.1103 92.3752 63.4038 92.2474 63.5332 91.7362C63.9212 90.0746 64.3092 88.4131 63.9212 86.6237C63.9212 86.1125 62.4984 86.4959 62.6277 87.0072Z" fill="#A2CE59"/>
<path d="M29.7732 70.9035C41.932 69.242 50.9864 60.2952 50.2103 50.7094C49.3048 41.1236 38.8276 34.733 26.6688 36.3946C14.51 38.0561 5.45558 47.0029 6.23168 56.5887C7.13712 66.1745 17.6144 72.5651 29.7732 70.9035Z" fill="#E7D5C7"/>
<path d="M53.9615 54.1607C57.842 65.6637 68.4486 72.8211 77.8911 70.2649C87.2042 67.7087 91.602 56.2057 87.8509 44.7027C83.9704 33.1997 73.3638 26.0423 64.0507 28.5985C54.4789 31.2826 50.0811 42.7855 53.9615 54.1607Z" fill="#E7D5C7"/>
<path d="M32.619 70.6478C20.4602 72.3093 9.98291 65.7909 9.07747 56.3329C8.17203 46.7471 17.3558 37.8003 29.5146 36.1388C41.6734 34.4772 52.1506 40.9956 53.0561 50.4536C53.9615 60.0394 44.7778 68.9862 32.619 70.6478Z" fill="#F24E34"/>
<path d="M32.4897 68.4748C21.3657 70.0085 11.6645 64.3848 10.8884 56.0771C10.1123 47.7694 18.52 39.7173 29.7734 38.3114C40.8974 36.7776 50.5985 42.4013 51.3746 50.709C52.1507 59.0168 43.743 66.941 32.4897 68.4748Z" fill="#F66B4D"/>
<path d="M39.0864 53.6482C39.0864 53.6482 47.6234 54.6707 47.7528 56.2044C47.8821 57.7381 40.1212 65.0234 29.9027 65.1512C19.5548 65.279 14.2515 60.55 13.7341 58.6328C13.2167 56.8435 20.7189 55.1819 20.7189 55.1819C20.7189 55.1819 13.4753 54.6707 13.4753 53.0091C13.4753 51.3476 19.0374 39.4612 35.206 40.4836C44.5191 41.3783 58.3594 52.4979 39.0864 53.6482Z" fill="#D9432E"/>
<path d="M22.0124 51.0925C22.0124 51.0925 20.3309 50.07 20.7189 49.3031C20.9776 48.4084 23.5646 51.8593 22.0124 51.0925Z" fill="#FFC977"/>
<path d="M23.5645 60.0384C23.5645 60.0384 22.7884 61.4444 22.1417 61.1887C21.6243 60.9331 24.2113 58.7603 23.5645 60.0384Z" fill="#FFC977"/>
<path d="M28.2211 58.7608C28.2211 58.7608 27.8331 60.5502 27.057 60.5502C26.4102 60.4224 28.4798 57.2271 28.2211 58.7608Z" fill="#FFC977"/>
<path d="M33.2658 58.8883C33.2658 58.8883 32.8777 60.6777 32.231 60.6777C31.4549 60.6777 33.5245 57.3546 33.2658 58.8883Z" fill="#FFC977"/>
<path d="M38.569 58.6328C38.569 58.6328 39.9918 59.5274 39.7331 60.2943C39.4744 60.9334 37.1461 57.8659 38.569 58.6328Z" fill="#FFC977"/>
<path d="M30.4201 48.4078C30.4201 48.4078 30.8081 46.3628 31.5842 46.4906C32.4897 46.4906 30.1614 50.1971 30.4201 48.4078Z" fill="#FFC977"/>
<path d="M34.9473 48.408C34.9473 48.408 35.8527 45.9796 36.8875 46.1074C37.7929 46.363 34.1712 50.5808 34.9473 48.408Z" fill="#FFC977"/>
<path d="M38.8278 49.4308C38.8278 49.4308 40.8973 46.4911 41.9321 46.7467C43.0963 47.1301 37.1462 51.987 38.8278 49.4308Z" fill="#FFC977"/>
<path d="M25.6342 49.6855C25.6342 49.6855 24.7287 47.7683 25.3755 47.3849C26.0222 46.8736 26.5396 51.2192 25.6342 49.6855Z" fill="#FFC977"/>
<path d="M34.3006 38.311C40.1213 38.95 45.9419 41.2506 49.6931 46.1074C50.0811 46.4908 50.0811 45.9796 49.9518 45.724C46.4594 40.6116 39.7332 37.4163 33.9125 37.1606C33.3951 37.1606 33.9125 38.1831 34.3006 38.311Z" fill="white"/>
<path d="M31.0669 38.4385C31.4549 38.3107 31.7136 38.3107 32.1016 38.3107C32.4897 38.1829 32.1017 37.416 31.843 37.416C31.4549 37.5438 31.0669 37.5438 30.6788 37.6716C30.4201 37.7994 30.8082 38.5663 31.0669 38.4385Z" fill="white"/>
<path d="M136.357 62.9791C138.168 64.5129 141.401 67.9637 139.332 69.8809C137.262 71.6703 138.038 73.843 138.297 76.7827C138.556 79.7223 134.028 79.0833 133.252 82.7898C132.476 86.6242 139.073 84.9626 138.556 89.436C137.909 93.9094 134.158 96.21 130.019 95.9543C125.879 95.6987 124.974 95.8265 125.621 100.556C126.138 105.412 119.283 108.096 113.462 99.4053C105.83 87.6466 92.5075 88.5413 85.9107 88.1579C79.1845 87.6466 86.5574 79.2111 86.5574 79.2111C97.2934 66.43 99.6216 63.8738 104.537 62.5957C109.452 61.3176 105.96 59.017 109.323 57.3554C112.815 55.6939 115.014 57.7389 117.989 59.9116C120.964 62.0844 127.302 64.5128 130.019 63.1069C132.735 61.701 133.899 60.9341 136.357 62.9791Z" fill="#73BE46"/>
<path d="M130.019 63.1069C127.302 64.6406 120.964 62.2122 117.989 59.9116C114.885 57.7389 112.686 55.6939 109.323 57.3554C105.83 59.017 109.452 61.3176 104.537 62.5957C99.6216 63.8738 97.2933 66.43 86.5574 79.2111C86.5574 79.2111 81.9008 84.707 83.453 87.1354C84.8758 86.3685 86.2987 85.4739 87.7215 84.707C89.7911 83.6845 91.8607 82.7898 94.1889 82.5342C96.6466 82.2786 99.2336 82.2786 101.691 82.2786C104.149 82.2786 106.477 82.1508 108.805 81.5117C110.487 81.1283 112.686 80.1058 114.497 80.4892C116.437 80.8727 118.765 82.4064 120.835 81.8951C122.258 81.5117 123.163 80.3614 123.939 79.2111C125.233 77.2939 126.656 75.1212 129.113 76.5271C131.053 77.5496 130.277 79.978 129.889 81.6395C129.501 83.3011 128.725 85.4738 129.501 87.0076C130.536 89.0526 134.158 89.3082 135.839 90.5863C136.486 91.0975 137.133 91.6088 137.521 92.3757C138.038 91.6088 138.297 90.5863 138.426 89.5638C139.073 85.0904 132.476 86.752 133.123 82.9176C133.899 79.0833 138.297 79.8502 138.168 76.9105C137.909 73.9709 137.133 71.7981 139.202 70.0087C141.272 68.2194 138.038 64.6406 136.227 63.1069C133.899 60.9341 132.735 61.701 130.019 63.1069Z" fill="#40AB48"/>
<path d="M85.3933 84.8343C85.3933 84.8343 85.9107 84.5787 86.6868 84.3231C87.4629 84.0675 88.7564 83.5562 90.1792 83.1728C90.9553 82.9172 91.7314 82.7894 92.5075 82.5337C93.4129 82.2781 94.3184 82.1503 95.2238 82.0225C96.1293 81.8947 97.164 81.6391 98.1988 81.5113C99.2336 81.3834 100.268 81.2556 101.174 81.1278C102.209 81 103.243 81 104.278 81C105.313 81 106.348 81 107.253 81C108.159 81 109.193 81 109.97 81.1278C110.875 81.1278 111.651 81.2556 112.427 81.2556C113.203 81.3834 113.85 81.3834 114.497 81.5113C115.144 81.6391 115.661 81.6391 116.049 81.7669C116.954 81.8947 117.472 82.0225 117.472 82.0225C117.472 82.0225 116.954 82.0225 116.049 81.8947C115.661 81.8947 115.014 81.8947 114.497 81.7669C113.85 81.6391 113.203 81.6391 112.427 81.6391C111.651 81.6391 110.875 81.5113 109.97 81.5113C109.064 81.5113 108.159 81.5113 107.253 81.5113C106.348 81.5113 105.313 81.5112 104.278 81.6391C103.243 81.6391 102.209 81.7669 101.303 81.8947C100.268 82.0225 99.2336 82.0225 98.1988 82.1503C97.164 82.2781 96.2586 82.4059 95.3532 82.5337C94.4477 82.6615 93.5423 82.7894 92.6369 83.045C91.7314 83.1728 90.9553 83.4284 90.1792 83.5562C88.627 83.9397 87.4629 84.3231 86.5574 84.5787C85.9107 84.7065 85.3933 84.8343 85.3933 84.8343Z" fill="#73BE46"/>
<path d="M96.2585 82.0234C96.2585 82.0234 96.3879 81.7678 96.6466 81.5122C96.9053 81.1287 97.164 80.7453 97.6814 80.2341C98.0694 79.7228 98.7162 79.0838 99.3629 78.5725C99.751 78.3169 100.01 77.9335 100.398 77.6778C100.786 77.4222 101.174 77.1666 101.562 76.911C101.95 76.6553 102.338 76.3997 102.726 76.1441C103.114 75.8885 103.502 75.7607 103.89 75.505C104.278 75.2494 104.666 75.1216 105.054 74.9938C105.442 74.866 105.83 74.7382 106.089 74.6104C106.348 74.4825 106.736 74.4826 106.995 74.3547C107.253 74.3547 107.512 74.2269 107.771 74.2269C108.159 74.2269 108.417 74.0991 108.417 74.0991C108.417 74.0991 108.159 74.2269 107.771 74.3547C107.641 74.3547 107.383 74.4825 107.124 74.6104C106.865 74.7382 106.606 74.866 106.218 74.9938C105.83 75.1216 105.572 75.2494 105.184 75.505C104.796 75.6328 104.537 75.8885 104.149 76.0163C103.761 76.2719 103.373 76.3997 102.985 76.6553C102.597 76.911 102.209 77.1666 101.821 77.4222C101.044 77.9334 100.398 78.4447 99.751 78.9559C99.3629 79.2116 99.1042 79.4672 98.8455 79.7228C98.5868 79.9784 98.3281 80.234 98.0694 80.4897C97.552 81.0009 97.164 81.3843 96.9053 81.64C96.3879 81.7678 96.2585 82.0234 96.2585 82.0234Z" fill="#73BE46"/>
<path d="M104.537 43.0402L79.702 40.6118C79.702 40.6118 76.8563 71.6699 45.0365 75.1208L44.7778 95.3149C44.7778 95.3149 80.2194 109.246 97.8109 83.9397C112.298 60.2947 104.537 43.0402 104.537 43.0402Z" fill="#F5D752"/>
<path d="M45.0365 75.1206L40.1212 80.6165L38.4397 100.811C38.4397 100.811 38.569 100.811 38.6984 100.938L44.7778 95.3147L45.0365 75.1206Z" fill="#EBA258"/>
<path d="M44.7777 95.3151L38.6982 100.939C42.0613 102.345 74.6572 115.509 93.6715 90.0749C95.2237 88.0299 96.6465 85.9849 97.8107 83.9399C80.2192 109.374 44.7777 95.3151 44.7777 95.3151Z" fill="#7D9437"/>
<path d="M104.408 59.2718C105.184 54.7984 105.442 49.686 102.855 45.7238C102.338 44.9569 100.656 46.6185 100.915 47.3853C103.761 55.9487 100.915 66.4292 97.0346 74.3535C93.0248 82.4056 86.1693 87.2624 78.9258 92.1192C77.891 92.8861 77.2442 95.0589 79.1845 94.292C88.1095 90.5855 95.4824 82.6612 99.8803 74.3535C102.209 69.6245 103.502 64.3842 104.408 59.2718Z" fill="#F5D752"/>
<path d="M74.3986 94.6765C73.2345 94.5487 72.1997 95.3156 71.1649 95.1878C70.5181 95.06 69.2247 96.5937 70.1301 96.8493C71.4236 97.3606 72.8464 96.8493 74.0106 96.3381C74.2693 96.0825 75.4334 94.8043 74.3986 94.6765Z" fill="#F5D752"/>
<path d="M54.7376 56.9718C50.8572 45.4688 55.3844 34.0936 64.6975 31.4096C74.0106 28.8533 84.7466 36.0108 88.627 47.5137C92.5075 59.0167 87.9803 70.3919 78.6672 73.076C69.2247 75.6322 58.6181 68.3469 54.7376 56.9718Z" fill="#F24E34"/>
<path d="M56.9365 56.4599C53.4441 45.8515 57.0659 35.4989 65.2149 33.1983C73.3638 30.8977 82.8063 37.6716 86.4281 48.28C89.9205 58.8883 86.1694 69.241 78.1497 71.5416C69.8714 73.7143 60.429 66.9404 56.9365 56.4599Z" fill="#F66B4D"/>
<path d="M72.7171 60.0388C72.7171 60.0388 73.2345 68.4744 71.8117 68.8578C70.3889 69.2412 61.5931 63.1063 59.5235 53.137C57.454 43.1678 61.2051 37.1607 63.016 36.266C64.6975 35.3713 67.8019 42.4009 67.8019 42.4009C67.8019 42.4009 66.8964 35.2435 68.578 34.9879C70.2595 34.7323 83.0651 37.7997 85.0053 53.7761C86.1694 62.9785 77.6324 78.5714 72.7171 60.0388Z" fill="#D9432E"/>
<path d="M72.329 42.9122C72.329 42.9122 73.1051 41.1229 73.8812 41.2507C74.6573 41.5063 71.8116 44.5737 72.329 42.9122Z" fill="#FFC977"/>
<path d="M63.6627 46.1074C63.6627 46.1074 62.1105 45.5962 62.2398 44.9571C62.3692 44.4459 64.9562 46.4908 63.6627 46.1074Z" fill="#FFC977"/>
<path d="M65.7322 50.453C65.7322 50.453 63.792 50.453 63.792 49.6861C63.6626 49.047 67.4137 50.453 65.7322 50.453Z" fill="#FFC977"/>
<path d="M66.5083 55.4374C66.5083 55.4374 64.5681 55.4374 64.5681 54.6705C64.4387 53.9037 68.0605 55.3096 66.5083 55.4374Z" fill="#FFC977"/>
<path d="M67.8019 60.4224C67.8019 60.4224 67.1551 62.0839 66.379 61.8283C65.6029 61.7005 68.1899 59.0165 67.8019 60.4224Z" fill="#FFC977"/>
<path d="M76.4682 50.709C76.4682 50.709 78.5377 50.8368 78.6671 51.4759C78.6671 52.2427 74.6573 50.709 76.4682 50.709Z" fill="#FFC977"/>
<path d="M77.2443 54.9262C77.2443 54.9262 79.9606 55.4374 79.8313 56.3321C79.8313 57.4824 75.0454 54.6706 77.2443 54.9262Z" fill="#FFC977"/>
<path d="M76.9855 59.0166C76.9855 59.0166 80.2193 60.5504 80.2193 61.5728C80.0899 62.5953 74.1399 57.8663 76.9855 59.0166Z" fill="#FFC977"/>
<path d="M74.2693 46.2355C74.2693 46.2355 75.9508 44.9574 76.5976 45.5964C77.2443 46.1077 72.8464 47.3858 74.2693 46.2355Z" fill="#FFC977"/>
<path d="M87.2042 52.499C87.5922 58.2505 86.4281 64.2576 82.289 68.8588C81.9009 69.2422 82.4183 69.2422 82.677 68.9866C87.2042 64.641 89.0151 57.6114 88.239 51.8599C88.239 51.4765 87.2042 52.1156 87.2042 52.499Z" fill="white"/>
<path d="M86.428 49.4312C86.6867 49.6868 86.6867 50.0703 86.8161 50.4537C86.9454 50.8371 87.7215 50.3259 87.5922 49.9424C87.4628 49.559 87.3335 49.1756 87.0748 48.7921C86.9454 48.6643 86.2987 49.1756 86.428 49.4312Z" fill="white"/>
</svg>
