<svg width="108" height="140" viewBox="0 0 108 140" fill="none" xmlns="http://www.w3.org/2000/svg">
<path d="M97.9902 47.0444C94.8647 64.1313 98.3234 106.687 99.6218 116.248C99.7597 117.242 100.024 120.941 98.6451 125.115C97.7029 127.947 95.7495 130.583 92.9688 131.635C91.5095 132.178 89.9238 132.271 88.3725 132.352C81.3518 132.71 74.3195 133.069 67.2987 133.427C63.9664 133.6 60.6227 133.762 57.2904 133.762C45.8457 133.728 34.2862 131.612 23.0369 133.716C19.9804 134.294 16.6826 135.138 13.8903 133.762C11.5807 132.618 10.1674 130.121 9.66179 127.577C9.1562 125.034 9.409 122.409 9.63881 119.831C10.9258 105.184 11.0866 90.4784 11.236 75.7731C11.305 69.4609 11.3624 63.1371 11.4313 56.8249C11.4658 53.7612 11.4888 50.6861 11.1326 47.6456C10.4317 41.8305 8.27143 36.0732 9.07577 30.2696C10.2938 21.4372 18.567 15.992 20.4515 14.7203C21.7844 13.8301 25.1626 11.7376 37.8023 9.57576C46.9948 7.99192 53.441 6.89364 62.5071 7.28671C73.1475 7.76071 81.4667 8.13065 88.97 13.992C93.4743 17.518 96.0368 21.7262 97.4386 24.5355C97.634 25.2985 97.9442 26.5702 98.2315 28.1424C99.8976 37.4952 98.3694 44.9635 97.9902 47.0444Z" fill="#F2BB7C"/>
<path d="M93.1756 45.7149C92.3483 50.2699 92.0265 54.9173 91.8542 59.5417C91.6703 64.7672 91.7048 70.0158 91.8312 75.2413C92.084 85.4495 92.6815 95.6693 93.5663 105.843C93.8995 109.773 94.2902 113.681 94.8188 117.589C94.7613 117.138 94.7039 116.698 94.6349 116.248C94.8417 117.855 94.7613 119.508 94.566 121.115C94.6234 120.664 94.6809 120.224 94.7498 119.774C94.5315 121.438 94.1523 123.103 93.5203 124.652C93.6927 124.248 93.8535 123.855 94.0259 123.45C93.6122 124.433 93.0837 125.357 92.4402 126.213C92.7045 125.878 92.9573 125.531 93.2216 125.196C92.716 125.831 92.1644 126.398 91.5324 126.907C91.8657 126.641 92.2104 126.386 92.5436 126.12C92.0036 126.537 91.429 126.872 90.8085 127.149C91.2107 126.976 91.6014 126.814 92.0036 126.641C91.1647 126.988 90.2915 127.184 89.3952 127.311C89.8433 127.253 90.28 127.196 90.7281 127.126C88.4185 127.404 86.0744 127.427 83.7533 127.542C81.3747 127.67 78.9847 127.785 76.6061 127.912C71.849 128.155 67.0804 128.444 62.3233 128.618C57.6351 128.791 52.9699 128.652 48.2933 128.375C43.6625 128.097 39.0433 127.739 34.4011 127.739C31.8617 127.739 29.3108 127.843 26.7828 128.121C23.9102 128.444 21.118 129.069 18.2683 129.473C18.7164 129.415 19.1531 129.358 19.6012 129.288C18.4521 129.438 17.3146 129.508 16.154 129.369C16.6021 129.427 17.0388 129.485 17.4869 129.554C16.8549 129.462 16.2459 129.311 15.6484 129.069C16.0506 129.242 16.4413 129.404 16.8434 129.577C16.3034 129.346 15.8093 129.057 15.3497 128.699C15.6829 128.964 16.0276 129.219 16.3608 129.485C15.8667 129.092 15.4416 128.652 15.0509 128.155C15.3152 128.49 15.568 128.837 15.8323 129.173C15.3382 128.514 14.936 127.797 14.6143 127.034C14.7866 127.438 14.9475 127.831 15.1199 128.236C14.7407 127.277 14.4994 126.294 14.3615 125.265C14.4189 125.716 14.4764 126.155 14.5453 126.606C14.1891 123.681 14.6143 120.733 14.8556 117.82C15.0969 114.906 15.2807 111.993 15.4416 109.068C15.7633 103.149 15.9472 97.2184 16.0736 91.2877C16.3149 79.3801 16.3953 67.4724 16.4987 55.5648C16.5332 51.8884 16.3608 48.2814 15.7748 44.6398C15.2692 41.4952 14.4764 38.4085 14.0397 35.2524C14.0972 35.7032 14.1546 36.1426 14.2236 36.5934C13.9478 34.4894 13.8559 32.3622 14.1317 30.2581C14.0742 30.709 14.0168 31.1483 13.9478 31.5992C14.1546 30.1772 14.5338 28.8014 15.0854 27.4719C14.913 27.8766 14.7522 28.2696 14.5798 28.6743C15.2692 27.0326 16.1885 25.495 17.2801 24.0846C17.0158 24.4199 16.763 24.7667 16.4987 25.102C17.981 23.1829 19.7391 21.495 21.6465 20.0036C21.3133 20.2695 20.9686 20.5239 20.6354 20.7898C22.2211 19.5528 23.8757 18.4314 25.7257 17.6452C25.3235 17.8186 24.9328 17.9805 24.5307 18.1539C30.0577 15.8186 36.1936 14.94 42.0539 13.9458C44.3175 13.5643 46.5926 13.1943 48.8678 12.8822C48.4197 12.94 47.983 12.9978 47.5349 13.0671C52.0047 12.466 56.4976 12.1654 61.0134 12.281C65.3224 12.3966 69.6658 12.5932 73.9403 13.1596C73.4922 13.1018 73.0555 13.044 72.6074 12.9747C75.7443 13.4024 78.8353 14.1076 81.7654 15.3446C81.3633 15.1712 80.9726 15.0094 80.5704 14.836C82.6962 15.7493 84.6725 16.9285 86.4996 18.3504C86.1663 18.0845 85.8216 17.8302 85.4884 17.5643C87.4188 19.0903 89.1539 20.8476 90.6592 22.8014C90.3949 22.4661 90.1421 22.1193 89.8778 21.784C91.1418 23.4488 92.2334 25.2176 93.1756 27.0904C93.0033 26.6858 92.8424 26.2927 92.67 25.8881C93.1641 27.7956 93.5433 29.7379 93.8076 31.6916C93.7501 31.2408 93.6927 30.8015 93.6237 30.3506C94.1983 34.7668 94.1868 39.2524 93.6008 43.6687C93.6582 43.2178 93.7157 42.7785 93.7846 42.3276C93.5778 43.4606 93.3824 44.582 93.1756 45.7149C92.9228 47.0675 92.9688 48.3624 93.6812 49.5878C94.2902 50.6283 95.4737 51.6225 96.6687 51.9C97.9442 52.189 99.3805 52.1312 100.518 51.3913C101.552 50.7208 102.575 49.6572 102.816 48.3855C103.609 44.0849 104.103 39.738 103.977 35.3449C103.873 31.8072 103.414 28.2581 102.644 24.8014C102.529 24.3043 102.426 23.8187 102.288 23.3216C102.058 22.4892 101.598 21.68 101.185 20.9169C100.645 19.9227 100.058 18.9632 99.4265 18.0267C95.9448 12.9862 91.2911 8.63935 85.6493 6.18845C82.9834 5.03237 80.2946 4.14218 77.4335 3.62195C74.4574 3.07859 71.4469 2.76644 68.4248 2.56991C62.4152 2.17684 56.4171 2.00343 50.4075 2.63928C47.0867 2.99766 43.7774 3.49478 40.4911 4.03814C37.3312 4.55837 34.1598 5.09017 31.0229 5.7607C27.231 6.56996 23.4965 7.59887 19.9689 9.24051C18.4062 9.96884 16.9813 10.9746 15.6254 12.0267C11.7991 14.9747 8.23698 18.5007 6.18016 22.9632C4.73234 26.1193 3.928 29.3564 3.91651 32.8477C3.90501 36.5356 4.69787 40.2004 5.43327 43.7958C5.755 45.3565 6.05376 46.9173 6.27208 48.5011C6.21463 48.0502 6.15718 47.6109 6.08823 47.16C6.53637 50.5705 6.47891 54.0156 6.44444 57.4492C6.40997 60.9405 6.3755 64.4435 6.34103 67.9348C6.2491 74.8135 6.20314 81.6807 6.08823 88.5478C5.97333 95.4843 5.77799 102.409 5.39879 109.334C5.21494 112.756 4.97364 116.167 4.67489 119.577C4.36464 123.103 4.06588 126.779 5.19196 130.201C6.57084 134.41 9.69629 138.19 14.1776 139.161C18.4406 140.086 22.5658 138.756 26.7713 138.167C26.3232 138.225 25.8866 138.282 25.4384 138.352C31.471 137.543 37.5725 137.785 43.6281 138.155C49.7756 138.525 55.8886 138.918 62.0475 138.699C68.3559 138.467 74.6642 138.086 80.9726 137.762C84.0521 137.6 87.1775 137.566 90.2455 137.254C92.4402 137.034 94.3706 136.629 96.3355 135.6C97.6455 134.918 98.8749 133.924 99.8517 132.814C102.242 130.097 103.69 126.745 104.264 123.172C104.528 121.519 104.747 119.855 104.735 118.178C104.735 117.034 104.586 115.935 104.425 114.791C104.482 115.242 104.54 115.681 104.609 116.132C103.655 108.964 103.172 101.727 102.701 94.5132C102.046 84.3281 101.598 74.1199 101.736 63.9117C101.805 59.0677 101.977 54.2121 102.609 49.4028C102.552 49.8537 102.494 50.293 102.426 50.7439C102.529 49.9578 102.655 49.1601 102.793 48.3855C103.035 47.0329 103 45.738 102.288 44.5126C101.679 43.4721 100.495 42.4779 99.3001 42.2004C98.0246 41.9114 96.5883 41.9692 95.4507 42.7091C94.4281 43.3796 93.4054 44.4432 93.1756 45.7149Z" fill="#D8853A"/>
<path d="M93.5893 44.5012C95.0946 42.767 96.3815 41.0445 96.7607 40.3277C98.4843 37.0907 96.9561 33.0675 96.4964 29.3565C96.0483 25.7148 96.6918 22.0153 96.4734 18.3506C96.2551 14.6858 94.8533 10.7089 91.7853 9.22907C90.8316 8.76663 89.7744 8.58166 88.8207 8.10767C85.6838 6.52383 84.3509 2.13072 81.1909 0.570005C77.399 -1.29129 73.2164 1.76077 69.9761 4.6163C66.7472 7.47182 62.4727 10.443 58.7383 8.43137C56.9457 7.47182 55.7737 5.54116 54.1995 4.21167C50.4076 1.02088 44.2141 2.18852 41.6173 6.58164C40.3418 8.74351 39.4455 11.8187 37.1014 12.1077C35.8375 12.2696 34.6654 11.4834 33.4704 11.0094C30.5863 9.87647 27.231 10.6626 24.772 12.6511C22.313 14.6395 20.6928 17.7263 19.9574 20.9749C19.1646 24.4547 19.222 28.3854 17.1652 31.1715C15.1659 33.8768 11.7876 34.6976 8.97241 36.293C1.10134 40.7901 -2.13901 52.5822 1.46904 61.4609C3.19264 65.6922 6.27212 69.75 5.66312 74.3397C5.15753 78.1316 2.19295 81.0681 1.46904 84.8253C-0.26604 93.8428 11.259 100.571 10.719 109.774C10.5581 112.479 9.32862 114.988 9.01838 117.67C8.70813 120.363 9.83421 123.681 12.2932 124.063C14.0857 124.34 15.9013 122.93 17.6363 123.508C20.1758 124.352 20.1183 128.178 20.7273 130.988C22.1292 137.531 29.3683 140.71 35.4698 139.866C41.5713 139.034 47.0064 135.392 52.6942 132.837C53.7858 132.352 54.9234 131.889 56.0954 131.959C57.5777 132.04 58.8991 132.93 60.1976 133.716C62.691 135.219 65.5062 136.421 68.3444 136.051C71.1826 135.681 73.9519 133.288 74.1127 130.178C74.2161 128.271 73.722 125.624 75.3882 125.022C76.6521 124.571 77.7667 125.97 78.64 127.069C82.7307 132.178 90.5213 133.092 95.5082 129.046C99.5989 125.728 101.437 120.051 102.506 114.606C103.092 111.6 103.506 108.398 102.541 105.508C101.667 102.872 99.7483 100.814 98.4269 98.4093C97.0939 96.0047 96.439 92.6867 98.0936 90.5248C99.7483 88.3514 102.851 88.4323 105.034 86.9178C107.861 84.9641 108.608 80.5825 107.527 77.1258C106.447 73.6691 103.954 70.9755 101.368 68.6402C99.0359 66.5361 96.2781 63.6921 97.1974 60.5476C97.5076 59.5071 98.1856 58.6516 98.6682 57.6921C99.6908 55.6574 99.7827 52.0388 98.2545 50.0157C96.2436 47.3798 92.0266 48.5706 91.7508 47.0792C91.6244 46.5359 92.2104 46.1081 93.5893 44.5012Z" fill="#F5E7C5"/>
<path d="M33.7691 113.404C33.9759 113.519 34.1368 113.716 34.1483 113.935C34.1483 114.074 34.1023 114.201 34.0449 114.329C32.6315 117.716 30.5977 120.86 28.0468 123.589C25.5763 126.236 23.0024 128.491 18.9807 128.491C16.5102 128.491 14.0857 127.739 11.8565 126.71C11.1556 126.386 10.6845 126.097 10.3742 125.681C10.3627 125.67 10.3168 125.589 10.2593 125.508C9.79967 124.722 10.0984 123.681 10.1904 123.311C10.5466 121.704 10.9832 120.074 11.9829 118.733C13.3043 116.964 15.476 115.889 17.7167 115.323C19.9574 114.756 22.3015 114.641 24.6111 114.421C27.2654 114.155 29.9082 113.739 32.5396 113.323C32.8613 113.265 33.1946 113.219 33.5163 113.3C33.6082 113.334 33.6887 113.357 33.7691 113.404Z" fill="#477437"/>
<path d="M27.1965 118.19C25.2431 119.774 23.0714 121.103 20.7733 122.155C20.486 122.294 20.1987 122.409 19.9115 122.548C19.6242 122.675 19.3254 122.791 19.0382 122.907C18.4522 123.138 17.8546 123.357 17.2571 123.554C16.6596 123.75 16.0506 123.935 15.4531 124.12C14.8441 124.294 14.2351 124.456 13.6261 124.606C13.0171 124.756 12.3966 124.895 11.7876 125.034C11.4773 125.103 11.1786 125.172 10.8798 125.242C10.8109 125.265 10.7305 125.276 10.673 125.3C10.6385 125.311 10.6041 125.323 10.5926 125.323H10.5811C10.5811 125.323 10.5811 125.323 10.5926 125.323C10.5926 125.323 10.5926 125.323 10.6041 125.311C10.6156 125.3 10.627 125.288 10.6385 125.288C10.65 125.276 10.673 125.253 10.6845 125.242C10.696 125.219 10.7075 125.207 10.719 125.172C10.7305 125.126 10.742 125.068 10.7305 125.022C10.719 124.976 10.7075 124.93 10.6845 124.883C10.65 124.837 10.627 124.814 10.6156 124.802C10.5926 124.791 10.5696 124.768 10.5581 124.768C10.5351 124.756 10.5236 124.756 10.5006 124.745C10.4892 124.745 10.4777 124.745 10.4777 124.745H10.4892C10.5121 124.745 10.5466 124.745 10.5811 124.745C10.65 124.745 10.7305 124.733 10.7994 124.722C11.4084 124.652 12.0519 124.583 12.6724 124.537C12.9826 124.513 13.3044 124.49 13.6261 124.479C13.9478 124.467 14.2581 124.467 14.5798 124.467C15.2118 124.467 15.8438 124.49 16.4758 124.537C17.1077 124.583 17.7397 124.664 18.3602 124.756C19.6012 124.964 20.8307 125.265 22.0142 125.693C20.7847 125.427 19.5553 125.219 18.3143 125.115C17.6938 125.057 17.0733 125.022 16.4528 125.011C15.8323 124.999 15.2118 124.999 14.5913 125.034C14.2811 125.045 13.9708 125.068 13.6606 125.092C13.3503 125.115 13.0401 125.138 12.7298 125.172C12.4196 125.207 12.1093 125.242 11.8106 125.276L10.8798 125.404C10.7994 125.415 10.719 125.427 10.6385 125.427C10.5926 125.427 10.5466 125.438 10.5006 125.438C10.4892 125.438 10.4777 125.438 10.4547 125.438H10.4317H10.3972C10.3857 125.438 10.3513 125.427 10.3168 125.427C10.2938 125.415 10.2593 125.415 10.2364 125.392C10.2134 125.381 10.1904 125.357 10.1674 125.346C10.1444 125.334 10.1215 125.311 10.087 125.253C10.0525 125.207 10.041 125.149 10.0295 125.103C10.018 125.045 10.0295 124.987 10.0525 124.941C10.064 124.895 10.0755 124.883 10.0985 124.86C10.11 124.837 10.1329 124.814 10.1444 124.802C10.1559 124.791 10.1789 124.768 10.2019 124.756C10.2134 124.745 10.2249 124.745 10.2249 124.745L10.2364 124.733L10.2708 124.71L10.2938 124.698L10.3168 124.687L10.3398 124.675C10.3972 124.652 10.4317 124.641 10.4777 124.629C10.5581 124.606 10.6385 124.583 10.719 124.56C11.0292 124.479 11.3395 124.409 11.6382 124.329C12.2472 124.19 12.8562 124.039 13.4652 123.889C15.8783 123.288 18.2683 122.571 20.5779 121.635C22.8416 120.675 25.0593 119.519 27.1965 118.19Z" fill="#71A642"/>
<path d="M17.7167 117.832C17.8775 118.629 17.8086 119.485 17.5903 120.282C17.3719 121.092 16.9583 121.855 16.4182 122.502C15.8667 123.15 15.1772 123.67 14.4189 124.017C13.6605 124.363 12.8332 124.548 12.0288 124.514C12.7872 124.236 13.4996 123.913 14.1431 123.496C14.7866 123.08 15.3611 122.595 15.8552 122.017C16.3378 121.439 16.74 120.803 17.0387 120.086C17.349 119.381 17.5558 118.629 17.7167 117.832Z" fill="#71A642"/>
<path d="M19.9229 121.242C20.325 120.884 20.7157 120.548 21.0834 120.19C21.1753 120.109 21.2673 120.016 21.3477 119.924C21.4281 119.831 21.52 119.751 21.6005 119.647C21.7728 119.462 21.9337 119.277 22.0831 119.08C22.3933 118.699 22.6691 118.282 22.9219 117.855C23.0483 117.635 23.1747 117.415 23.2896 117.184C23.4045 116.953 23.5194 116.71 23.6458 116.467C23.7148 117.011 23.6228 117.566 23.4505 118.097C23.2781 118.618 23.0023 119.115 22.6576 119.554C22.5772 119.658 22.4738 119.762 22.3818 119.866C22.2784 119.959 22.1865 120.063 22.0831 120.155C21.8763 120.34 21.6579 120.502 21.4281 120.652C20.9685 120.941 20.4629 121.161 19.9229 121.242Z" fill="#71A642"/>
<path d="M22.5083 121.716C22.853 121.508 23.2437 121.415 23.6344 121.392C24.0251 121.369 24.4272 121.415 24.8064 121.531C25.1856 121.647 25.5533 121.82 25.8636 122.063C26.1738 122.306 26.4496 122.595 26.6219 122.965C26.2428 122.837 25.9095 122.699 25.5763 122.583C25.2431 122.456 24.9213 122.352 24.5881 122.259C24.2549 122.155 23.9216 122.074 23.5769 121.993C23.2552 121.889 22.899 121.82 22.5083 121.716Z" fill="#71A642"/>
<path d="M42.2032 28.5474C43.9843 28.8364 47.0293 29.322 49.6262 31.4607C52.9355 34.1775 53.6939 38.0273 53.9696 39.3799C54.1994 40.5591 55.1991 45.5765 52.2001 50.0621C49.9479 53.4263 45.9607 55.2182 42.0079 56.0506C38.6411 56.7558 35.1135 56.8714 31.7812 56.0159C28.449 55.1604 25.3235 53.2645 23.3012 50.4667C21.026 47.3222 20.2791 43.1256 21.2444 39.3568C22.1176 35.9348 24.3468 32.929 27.2884 31.0214C31.1952 28.4896 35.3663 28.3624 38.6067 28.3162C40.5141 28.2931 41.7896 28.478 42.2032 28.5474Z" fill="#D81F26"/>
<path d="M52.9584 44.2353C52.7746 45.4839 52.2001 49.2643 49.1321 52.0042C47.8566 53.1372 46.6271 53.6574 45.1908 54.2701C42.479 55.4147 40.8933 55.3337 40.4222 55.2875C39.0778 55.1719 38.1126 54.6632 37.653 54.1661C37.607 54.1199 37.561 54.0736 37.5266 54.0158C36.9405 53.299 36.8371 52.5129 36.4235 52.5129C36.0558 52.5129 35.9294 53.1025 35.4812 53.6921C35.4812 53.6921 35.3778 53.8193 35.2629 53.958C34.7803 54.5129 32.9648 55.0794 30.839 54.5823C28.9316 54.1314 27.7251 53.0447 26.5645 52.0042C25.8751 51.3799 24.7605 50.3741 23.8068 48.7672C21.3822 44.6747 22.1866 40.3856 22.3015 39.8422C22.4394 39.1833 23.1403 36.004 25.8751 33.3335C27.4723 31.7728 29.058 31.0676 29.9428 30.6745C30.9195 30.2467 32.5856 29.5415 33.9645 29.9115C35.0905 30.2121 35.9753 30.9173 35.9753 30.9173C36.0558 30.9866 36.1247 31.0444 36.1936 31.1022C37.1359 31.9577 37.2048 32.7092 37.7564 32.767C38.3539 32.8248 38.5952 31.9809 39.2616 31.1254C39.2616 31.1254 39.7787 30.5704 40.2728 30.1774C41.6287 29.1022 44.0417 29.7727 44.8346 29.9924C48.6839 31.0676 50.7867 34.189 51.12 34.7092C52.5678 36.9289 52.8665 39.1023 53.0159 40.2469C53.2342 42.0388 53.0734 43.4955 52.9584 44.2353Z" fill="#EF4C4B"/>
<path d="M41.5942 33.7034C42.6514 32.3046 45.0529 32.1543 46.7305 32.7439C48.6495 33.4144 49.5802 35.0329 50.3041 36.2815C52.3495 39.8191 51.9588 43.4261 51.8324 44.4088C51.7864 44.825 51.2578 49.3452 48.3852 51.6458C47.6958 52.2008 46.8914 52.6516 46.0181 52.8251C45.1448 52.9985 44.2026 52.8829 43.4557 52.3857C42.8467 51.9811 42.4216 51.3453 42.0654 50.7094C41.6632 49.9695 41.3185 49.1603 41.307 48.3163C41.2955 47.1602 41.8815 46.0966 42.2837 45.0099C43.1914 42.5359 41.284 41.4839 41.1116 36.7671C41.0427 34.5705 41.3874 33.9925 41.5942 33.7034Z" fill="#D81F26"/>
<path d="M33.5509 33.449C32.4937 32.0502 30.0922 31.8999 28.4146 32.4895C26.4956 33.16 25.5649 34.7785 24.841 36.0271C22.7957 39.5647 23.1863 43.1717 23.3127 44.1544C23.3587 44.5706 23.8873 49.0908 26.7599 51.3915C27.4494 51.9464 28.2537 52.3972 29.127 52.5707C30.0003 52.7441 30.9425 52.6285 31.6894 52.1313C32.2984 51.7267 32.7235 51.0909 33.0798 50.455C33.4819 49.7151 33.8266 48.9059 33.8381 48.0619C33.8496 46.9059 33.2636 45.8423 32.8614 44.7555C31.9537 42.2815 33.8611 41.2295 34.0335 36.5127C34.1024 34.3161 33.7577 33.7265 33.5509 33.449Z" fill="#D81F26"/>
<path d="M47.535 44.5708C47.3626 45.2645 47.1328 46.1315 46.3974 46.9986C46.1561 47.2876 45.4092 48.1316 44.1912 48.4668C43.2375 48.7327 42.2263 48.6055 41.2611 48.5015C40.4797 48.409 40.3993 48.3281 40.1235 48.409C39.2387 48.6865 38.8481 49.9004 38.4574 51.1952C38.0782 52.4322 37.9863 53.4033 37.5151 54.016C36.9291 53.2992 36.8257 52.5131 36.412 52.5131C36.0443 52.5131 35.9179 53.1027 35.4698 53.6923C35.24 53.1143 35.3204 52.4322 35.3664 51.9235C35.4353 51.2183 35.7226 47.9581 34.8953 47.5882C34.4816 47.4032 34.1714 48.1431 32.7925 48.5824C32.3903 48.7096 31.4596 49.0102 30.368 48.7558C30.2186 48.7212 29.2764 48.4899 28.472 47.7269C26.8633 46.1893 27.0702 43.6806 27.2081 42.0737C27.3345 40.5823 27.4149 39.4956 28.2537 38.4783C28.3341 38.3858 29.7245 36.721 31.7469 36.6863C32.9419 36.6632 33.8037 37.2297 34.3552 36.721C34.6195 36.4667 34.6425 36.1314 34.6885 35.7037C34.7919 34.7094 35.0102 32.7094 35.7916 31.5649C35.895 31.4146 36.0214 31.2527 36.1593 31.114C37.1015 31.9695 37.1704 32.721 37.722 32.7788C38.3195 32.8366 38.5608 31.9926 39.2272 31.1371C39.6524 31.8655 39.8592 32.8828 39.7558 33.7152C39.7213 33.958 39.5949 34.8135 39.4571 36.0967C39.3996 36.6054 39.3881 36.8482 39.549 37.0332C39.9052 37.4378 40.721 37.0216 41.7782 36.9175C41.8816 36.906 43.6856 36.7557 45.2368 37.7384C46.7881 38.721 47.3051 40.3627 47.466 40.8829C48.0176 42.5246 47.6958 43.9234 47.535 44.5708Z" fill="#F06364"/>
<path d="M44.3865 48.2931C44.2486 48.5937 44.1223 48.8943 43.9844 49.1949C43.9384 49.2989 43.8924 49.403 43.8695 49.5186C43.812 49.8538 44.0763 50.2122 44.4095 50.2816C44.7427 50.351 45.1104 50.1775 45.2828 49.877C45.3403 49.7729 45.3747 49.6689 45.3632 49.5533C45.3517 49.403 45.2483 49.2642 45.1449 49.1486C44.8577 48.8018 44.5704 48.455 44.2716 48.1082" fill="#F26C3C"/>
<path d="M30.5288 36.9405C30.5173 36.6168 30.5058 36.2815 30.4943 35.9578C30.4943 35.8422 30.4828 35.7266 30.4483 35.6226C30.3449 35.2988 29.9542 35.1023 29.6325 35.1832C29.3108 35.2642 29.058 35.5879 29.035 35.9347C29.0235 36.0503 29.0465 36.1659 29.1039 36.2584C29.1844 36.3856 29.3337 36.4549 29.4831 36.5243C29.8968 36.7093 30.3104 36.8827 30.7241 37.0677" fill="#F26C3C"/>
<path d="M28.1732 38.5243C28.0238 38.2122 27.8859 37.9116 27.7365 37.5994C27.6905 37.4954 27.6331 37.3913 27.5642 37.2989C27.3458 37.0214 26.9207 36.9867 26.6679 37.1948C26.4151 37.4029 26.3347 37.8075 26.4611 38.1428C26.507 38.2584 26.5645 38.3625 26.6564 38.4318C26.7828 38.5243 26.9437 38.5359 27.093 38.5359C27.5297 38.5474 27.9548 38.5705 28.3915 38.5821" fill="#F26C3C"/>
<path d="M46.3399 46.6284C46.4893 46.9405 46.6272 47.2411 46.7765 47.5532C46.8225 47.6573 46.88 47.7613 46.9489 47.8538C47.1787 48.1313 47.5924 48.166 47.8452 47.9579C48.098 47.7498 48.1784 47.3451 48.052 47.0099C48.006 46.8943 47.9486 46.7902 47.8567 46.7208C47.7303 46.6284 47.5694 46.6168 47.42 46.6168C46.9834 46.6052 46.5582 46.5821 46.1216 46.5706" fill="#F26C3C"/>
<path d="M47.351 44.1546C47.5923 44.3742 47.8221 44.6054 48.0634 44.8251C48.1439 44.906 48.2243 44.9754 48.3277 45.0332C48.6265 45.195 49.0401 45.0679 49.224 44.7673C49.4078 44.4783 49.3504 44.0621 49.1206 43.8077C49.0516 43.7268 48.9482 43.6459 48.8448 43.6228C48.6954 43.5881 48.5345 43.6459 48.3967 43.7037C47.9715 43.8656 47.5578 44.0274 47.1327 44.1893" fill="#F26C3C"/>
<path d="M47.5349 40.9404C47.8567 41.056 48.1669 41.1716 48.4887 41.2872C48.6036 41.3219 48.707 41.3682 48.8219 41.3797C49.1666 41.4144 49.4998 41.1485 49.5343 40.8248C49.5688 40.5011 49.3505 40.1543 49.0287 40.004C48.9253 39.9577 48.7989 39.9231 48.684 39.9346C48.5346 39.9577 48.4082 40.0618 48.3048 40.1658C47.9831 40.4549 47.6613 40.7554 47.3396 41.0445" fill="#F26C3C"/>
<path d="M28.1847 47.0792C27.8629 47.033 27.5412 46.9983 27.2195 46.9521C27.1045 46.9405 27.0011 46.9174 26.8862 46.9405C26.553 46.9868 26.2887 47.3336 26.3117 47.6804C26.3347 48.0272 26.6105 48.3278 26.9437 48.3972C27.0586 48.4203 27.1735 48.4319 27.2769 48.3856C27.4148 48.3278 27.5182 48.1891 27.5986 48.0619C27.8514 47.6804 28.0927 47.3105 28.3455 46.929" fill="#F26C3C"/>
<path d="M30.4598 48.6399C30.1725 48.8249 29.8852 48.9983 29.598 49.1833C29.4946 49.2411 29.4026 49.3104 29.3222 49.3914C29.0809 49.6457 29.0924 50.0734 29.3222 50.2931C29.552 50.5243 29.9657 50.559 30.2759 50.3972C30.3793 50.3393 30.4828 50.27 30.5402 50.1659C30.6206 50.0272 30.6092 49.8654 30.5977 49.7151C30.5632 49.2758 30.5287 48.848 30.4942 48.4087" fill="#F26C3C"/>
<path d="M27.1735 41.2874C26.9552 41.0446 26.7369 40.8019 26.5071 40.5591C26.4266 40.4781 26.3577 40.3972 26.2543 40.3279C25.967 40.1429 25.5418 40.2469 25.3465 40.5244C25.1512 40.8019 25.1741 41.218 25.381 41.4839C25.4499 41.5764 25.5418 41.6574 25.6453 41.692C25.7946 41.7383 25.9555 41.692 26.1049 41.6458C26.5415 41.5186 26.9667 41.3799 27.4033 41.2527" fill="#F26C3C"/>
<path d="M27.2195 44.4434C26.9208 44.2931 26.6105 44.1428 26.3118 43.9925C26.2084 43.9463 26.1049 43.8885 25.99 43.8654C25.6453 43.796 25.2891 44.0157 25.2202 44.3394C25.1512 44.6631 25.3351 45.0214 25.6338 45.2064C25.7372 45.2642 25.8521 45.3105 25.9671 45.3105C26.1279 45.3105 26.2543 45.218 26.3692 45.1255C26.7139 44.8712 27.0702 44.6053 27.4149 44.3509" fill="#F26C3C"/>
<path d="M46.3973 38.8135C46.7076 38.7094 47.0178 38.6054 47.3281 38.5013C47.4315 38.4666 47.5464 38.4319 47.6383 38.3626C47.9256 38.1776 48.006 37.7499 47.8336 37.4493C47.6613 37.1487 47.2821 37.01 46.9489 37.0793C46.834 37.1025 46.7305 37.1487 46.6501 37.2412C46.5467 37.3568 46.5237 37.5186 46.5007 37.6805C46.4433 38.1314 46.3858 38.5822 46.3284 39.0331" fill="#F26C3C"/>
<path d="M43.789 37.2411C44.0763 37.0562 44.352 36.8712 44.6393 36.6862C44.7312 36.6169 44.8346 36.5591 44.9151 36.4666C45.1564 36.2007 45.1334 35.7845 44.9036 35.5648C44.6623 35.3336 44.2601 35.3105 43.9499 35.4839C43.8464 35.5417 43.7545 35.6226 43.6971 35.7151C43.6166 35.8538 43.6396 36.0157 43.6511 36.166C43.6971 36.6053 43.743 37.0331 43.7775 37.4724" fill="#F26C3C"/>
<path d="M80.3522 82.282C82.1332 82.5711 85.1782 83.0566 87.7751 85.1954C91.0844 87.9122 91.8428 91.7619 92.1186 93.1145C92.3484 94.2937 93.348 99.3111 90.349 103.797C88.0968 107.161 84.1096 108.953 80.1568 109.785C76.7901 110.49 73.2624 110.606 69.9302 109.751C66.5979 108.895 63.4724 106.999 61.4501 104.201C59.175 101.057 58.4281 96.8602 59.3933 93.0914C60.2666 89.6694 62.4957 86.6636 65.4373 84.756C69.3442 82.2242 73.5152 82.0971 76.7556 82.0508C78.6516 82.0277 79.927 82.2127 80.3522 82.282Z" fill="#D81F26"/>
<path d="M91.1074 97.9699C90.9235 99.2185 90.349 102.999 87.281 105.739C86.0056 106.872 84.7761 107.392 83.3397 108.005C80.628 109.149 79.0422 109.068 78.5711 109.022C77.2267 108.906 76.2615 108.398 75.8019 107.901C75.7559 107.854 75.71 107.808 75.6755 107.75C75.0895 107.034 74.9861 106.247 74.5724 106.247C74.2047 106.247 74.0783 106.837 73.6302 107.427C73.6302 107.427 73.5268 107.554 73.4118 107.693C72.9292 108.247 71.1137 108.814 68.988 108.317C67.0805 107.866 65.874 106.779 64.7135 105.739C64.024 105.114 62.9094 104.109 61.9557 102.502C59.5197 98.3861 60.324 94.097 60.4389 93.5537C60.5768 92.8947 61.2778 89.7155 64.0125 87.0449C65.6097 85.4842 67.1954 84.7674 68.0802 84.3859C69.0569 83.9582 70.723 83.253 72.1019 83.6229C73.228 83.9235 74.1128 84.6287 74.1128 84.6287C74.1932 84.6981 74.2622 84.7559 74.3311 84.8137C75.2733 85.6692 75.3423 86.4206 75.8938 86.4784C76.4913 86.5362 76.7326 85.6923 77.3991 84.8368C77.3991 84.8368 77.9162 84.2819 78.4103 83.8888C79.7662 82.8136 82.1792 83.4842 82.972 83.7038C86.8214 84.779 88.9242 87.9004 89.2574 88.4206C90.7052 90.6403 91.004 92.8138 91.1534 93.9583C91.3717 95.7733 91.2223 97.23 91.1074 97.9699Z" fill="#EF4C4B"/>
<path d="M79.7432 87.4381C80.8003 86.0392 83.2019 85.8889 84.8795 86.4785C86.7984 87.149 87.7292 88.7676 88.4531 90.0161C90.4984 93.5537 90.1077 97.1607 89.9813 98.1434C89.9354 98.5596 89.4068 103.08 86.5341 105.38C85.8447 105.935 85.0404 106.386 84.1671 106.56C83.2938 106.733 82.3516 106.617 81.6047 106.12C80.9957 105.716 80.5705 105.08 80.2143 104.444C79.8121 103.704 79.4674 102.895 79.4559 102.051C79.4444 100.895 80.0305 99.8313 80.4326 98.7445C81.3404 96.2705 79.4329 95.2185 79.2606 90.5017C79.1802 88.3051 79.5249 87.7155 79.7432 87.4381Z" fill="#D81F26"/>
<path d="M71.6882 87.1722C70.6311 85.7733 68.2295 85.623 66.5519 86.2126C64.633 86.8832 63.7022 88.5017 62.9783 89.7503C60.933 93.2879 61.3237 96.8948 61.4501 97.8775C61.496 98.2937 62.0246 102.814 64.8972 105.115C65.5867 105.67 66.391 106.12 67.2643 106.294C68.1376 106.467 69.0798 106.352 69.8267 105.854C70.4357 105.45 70.8609 104.814 71.2171 104.178C71.6193 103.438 71.964 102.629 71.9755 101.785C71.987 100.629 71.4009 99.5654 70.9988 98.4787C70.091 96.0047 71.9984 94.9526 72.1708 90.2358C72.2512 88.0393 71.9065 87.4612 71.6882 87.1722Z" fill="#D81F26"/>
<path d="M85.6723 98.3054C85.4999 98.9991 85.2701 99.8661 84.5347 100.733C84.2934 101.022 83.5465 101.866 82.3285 102.201C81.3748 102.467 80.3636 102.34 79.3984 102.236C78.6171 102.144 78.5366 102.063 78.2608 102.144C77.3761 102.421 76.9854 103.635 76.5947 104.93C76.2155 106.167 76.1236 107.138 75.6525 107.751C75.0665 107.034 74.963 106.248 74.5494 106.248C74.1817 106.248 74.0553 106.837 73.6071 107.427C73.3773 106.849 73.4578 106.167 73.5037 105.658C73.5727 104.953 73.8599 101.693 73.0326 101.323C72.6189 101.138 72.3087 101.878 70.9298 102.317C70.5277 102.444 69.5969 102.745 68.5053 102.49C68.3559 102.456 67.4137 102.225 66.6094 101.462C65.0007 99.9239 65.2075 97.4153 65.3454 95.8083C65.4718 94.317 65.5522 93.2302 66.391 92.2129C66.4715 92.1204 67.8618 90.4556 69.8842 90.4209C71.0907 90.3978 71.941 90.9643 72.4926 90.4556C72.7568 90.2013 72.7798 89.866 72.8258 89.4383C72.9292 88.444 73.1475 86.444 73.9289 85.2995C74.0323 85.1492 74.1587 84.9874 74.2966 84.8486C75.2388 85.7041 75.3078 86.4556 75.8593 86.5134C76.4568 86.5712 76.6981 85.7273 77.3646 84.8717C77.7897 85.6001 77.9966 86.6174 77.8931 87.4498C77.8587 87.6926 77.7323 88.5481 77.5944 89.8313C77.5369 90.34 77.5254 90.5828 77.6863 90.7678C78.0425 91.1724 78.8584 90.7562 79.9155 90.6522C80.0189 90.6406 81.8229 90.4903 83.3742 91.473C84.9254 92.4557 85.4425 94.0973 85.6033 94.6175C86.1549 96.2592 85.8332 97.658 85.6723 98.3054Z" fill="#F06364"/>
<path d="M82.5353 102.016C82.3975 102.317 82.2711 102.617 82.1332 102.918C82.0872 103.022 82.0412 103.126 82.0183 103.242C81.9608 103.577 82.2251 103.935 82.5583 104.005C82.8915 104.074 83.2592 103.901 83.4316 103.6C83.4891 103.496 83.5235 103.392 83.512 103.276C83.5006 103.126 83.3971 102.987 83.2937 102.872C83.0065 102.525 82.7192 102.178 82.4204 101.831" fill="#F26C3C"/>
<path d="M68.6662 90.6636C68.6547 90.3399 68.6432 90.0047 68.6317 89.681C68.6317 89.5654 68.6203 89.4497 68.5858 89.3457C68.4824 89.022 68.0917 88.8255 67.7699 88.9064C67.4482 88.9873 67.1954 89.311 67.1724 89.6578C67.1609 89.7734 67.1839 89.8891 67.2414 89.9815C67.3218 90.1087 67.4712 90.1781 67.6206 90.2474C68.0342 90.4324 68.4479 90.6058 68.8615 90.7908" fill="#F26C3C"/>
<path d="M66.3221 92.2589C66.1727 91.9468 66.0348 91.6462 65.8854 91.3341C65.8395 91.23 65.782 91.126 65.7131 91.0335C65.4833 90.756 65.0696 90.7213 64.8168 90.9294C64.564 91.1375 64.4836 91.5422 64.61 91.8774C64.6559 91.993 64.7134 92.0971 64.8053 92.1664C64.9317 92.2589 65.0926 92.2705 65.242 92.2705C65.6786 92.282 66.1038 92.3052 66.5404 92.3167" fill="#F26C3C"/>
<path d="M84.4888 100.363C84.6382 100.675 84.7761 100.976 84.9255 101.288C84.9714 101.392 85.0289 101.496 85.0978 101.589C85.3276 101.866 85.7413 101.901 85.9941 101.693C86.2469 101.485 86.3273 101.08 86.2009 100.745C86.155 100.629 86.0975 100.525 86.0056 100.456C85.8792 100.363 85.7183 100.352 85.5689 100.352C85.1323 100.34 84.7072 100.317 84.2705 100.305" fill="#F26C3C"/>
<path d="M85.4885 97.8892C85.7298 98.1089 85.9596 98.3401 86.2009 98.5597C86.2813 98.6406 86.3618 98.71 86.4652 98.7678C86.7639 98.9297 87.1776 98.8025 87.3614 98.5019C87.5453 98.2129 87.4878 97.7967 87.258 97.5424C87.1891 97.4614 87.0857 97.3805 86.9822 97.3574C86.8329 97.3227 86.672 97.3805 86.5341 97.4383C86.109 97.6002 85.6953 97.762 85.2701 97.9239" fill="#F26C3C"/>
<path d="M85.6839 94.6753C86.0056 94.7909 86.3158 94.9065 86.6376 95.0221C86.7525 95.0568 86.8559 95.103 86.9708 95.1146C87.3155 95.1493 87.6488 94.8834 87.6832 94.5597C87.7177 94.236 87.4994 93.8891 87.1776 93.7388C87.0742 93.6926 86.9478 93.6579 86.8329 93.6695C86.6836 93.6926 86.5572 93.7966 86.4537 93.9007C86.132 94.1897 85.8103 94.4903 85.4885 94.7793" fill="#F26C3C"/>
<path d="M66.3336 100.814C66.0119 100.768 65.6901 100.733 65.3684 100.687C65.2535 100.675 65.1501 100.652 65.0352 100.675C64.7019 100.722 64.4376 101.068 64.4606 101.415C64.4836 101.762 64.7594 102.063 65.0926 102.132C65.2075 102.155 65.3224 102.167 65.4258 102.12C65.5637 102.063 65.6671 101.924 65.7476 101.797C66.0004 101.415 66.2417 101.045 66.4945 100.664" fill="#F26C3C"/>
<path d="M68.5972 102.375C68.31 102.56 68.0227 102.733 67.7354 102.918C67.632 102.976 67.5401 103.045 67.4597 103.126C67.2184 103.381 67.2298 103.808 67.4597 104.028C67.6895 104.248 68.1031 104.294 68.4134 104.132C68.5168 104.074 68.6202 104.005 68.6777 103.901C68.7581 103.762 68.7466 103.6 68.7351 103.45C68.7006 103.011 68.6662 102.583 68.6317 102.144" fill="#F26C3C"/>
<path d="M65.3224 95.0103C65.1041 94.7675 64.8858 94.5248 64.656 94.282C64.5755 94.201 64.5066 94.1201 64.4032 94.0508C64.1159 93.8658 63.6908 93.9698 63.4954 94.2473C63.3001 94.5248 63.3231 94.9409 63.5299 95.2068C63.5988 95.2993 63.6908 95.3803 63.7942 95.4149C63.9436 95.4612 64.1044 95.4149 64.2538 95.3687C64.6905 95.2415 65.1156 95.1028 65.5523 94.9756" fill="#F26C3C"/>
<path d="M65.3569 98.1783C65.0581 98.028 64.7479 97.8777 64.4491 97.7274C64.3457 97.6812 64.2423 97.6233 64.1274 97.6002C63.7826 97.5309 63.4264 97.7505 63.3575 98.0742C63.2885 98.3979 63.4724 98.7563 63.7711 98.9413C63.8746 98.9991 63.9895 99.0453 64.1044 99.0453C64.2652 99.0453 64.3916 98.9528 64.5066 98.8604C64.8513 98.606 65.2075 98.3401 65.5522 98.0858" fill="#F26C3C"/>
<path d="M84.5462 92.5481C84.8565 92.444 85.1667 92.34 85.477 92.2359C85.5804 92.2012 85.6953 92.1666 85.7872 92.0972C86.0745 91.9122 86.1549 91.4845 85.9826 91.1839C85.8102 90.8833 85.431 90.7446 85.0978 90.8139C84.9829 90.8371 84.8795 90.8833 84.799 90.9758C84.6956 91.0914 84.6726 91.2533 84.6497 91.4151C84.5922 91.866 84.5347 92.3169 84.4773 92.7677" fill="#F26C3C"/>
<path d="M81.9263 90.9758C82.2136 90.7908 82.4894 90.6058 82.7766 90.4208C82.8685 90.3515 82.972 90.2937 83.0524 90.2012C83.2937 89.9353 83.2707 89.5191 83.0409 89.2994C82.7996 89.0682 82.3974 89.0451 82.0872 89.2185C81.9838 89.2763 81.8918 89.3573 81.8344 89.4497C81.754 89.5885 81.7769 89.7503 81.7884 89.9006C81.8344 90.3399 81.8804 90.7677 81.9148 91.207" fill="#F26C3C"/>
<path d="M42.9272 130.537C45.7079 130.837 48.5691 130.398 51.1315 129.265C53.4526 128.236 55.5209 126.629 57.1525 124.675C58.3935 123.196 60.91 120.213 59.0945 118.328C58.5889 117.797 57.8879 117.485 57.2215 117.184C48.5691 113.346 39.9281 109.508 31.2757 105.681C29.6785 110.513 28.7133 115.843 30.3794 120.652C31.7583 124.641 34.9642 127.936 38.8595 129.519C40.1579 130.051 41.5368 130.386 42.9272 130.537Z" fill="#D81F26"/>
<path d="M42.3871 129.184C43.6396 129.439 46.0181 129.878 48.8448 129.138C49.5113 128.965 53.51 127.855 56.0035 124.155C56.5091 123.404 58.0603 121.092 57.4168 119.265C57.187 118.618 56.7848 117.866 56.7848 117.866C56.4746 117.381 56.1184 117.011 55.8771 116.675C55.1532 116.34 54.4293 116.005 53.7053 115.658C51.2234 114.456 48.661 113.438 46.1445 112.328C43.5132 111.172 40.9163 109.97 38.3079 108.768C37.3197 108.317 36.3315 107.854 35.3548 107.404C35.102 107.704 34.3207 107.6 33.4589 107.935C33.3899 107.958 33.321 107.993 33.2635 108.016C32.5856 108.328 31.7008 109.172 31.1033 110.56C30.8965 111.045 30.2415 112.687 30.4828 115.97C30.6092 117.704 30.7241 119.184 31.4595 120.941C33.2291 125.161 36.9865 127.103 38.2275 127.739C38.9514 128.109 40.4107 128.791 42.3871 129.184Z" fill="#EF4C4B"/>
<path d="M53.2458 119.427C54.3374 121.045 53.6365 123.635 52.43 125.196C51.0511 126.988 49.0287 127.404 47.466 127.727C43.0421 128.641 39.4111 126.953 38.4229 126.479C38.0092 126.271 33.4704 124.12 32.0801 120.271C31.7468 119.334 31.563 118.34 31.6894 117.357C31.8158 116.375 32.2754 115.415 33.0568 114.802C33.7003 114.305 34.5046 114.063 35.3089 113.924C36.2282 113.75 37.1819 113.681 38.0782 113.97C39.2962 114.363 40.1925 115.369 41.1921 116.178C43.4558 118.016 45.2368 116.375 50.2238 117.855C52.5334 118.525 53.0275 119.103 53.2458 119.427Z" fill="#D81F26"/>
<path d="M43.6625 123.138C44.2715 123.149 46.156 123.184 47.7417 121.889C49.3159 120.594 49.7985 118.629 49.8215 118.514C50.0858 117.357 49.9364 116.352 50.488 116.109C50.7408 116.005 50.9936 116.109 51.4991 116.352C52.7976 116.953 53.6479 117.392 53.8892 117.508C54.728 117.912 55.8656 118.051 56.7733 117.866C56.4631 117.381 56.1069 117.011 55.8656 116.675C55.1417 116.34 54.4178 116.005 53.6938 115.658C51.2119 114.456 48.6495 113.438 46.133 112.328C43.5017 111.172 40.9048 109.97 38.2964 108.768C37.3082 108.317 36.32 107.854 35.3433 107.404C35.0905 107.704 34.3092 107.6 33.4474 107.935C33.9185 108.641 34.8952 109.091 36.0558 109.924C37.2738 110.802 38.4113 111.635 38.3884 112.675C38.3769 112.999 38.262 113.045 37.8943 113.843C37.4346 114.826 36.952 115.855 36.8946 116.953C36.8141 118.363 37.4346 119.45 37.6415 119.808C38.2734 120.895 39.1123 121.45 39.7787 121.866C40.3992 122.259 41.7436 123.103 43.6625 123.138Z" fill="#F06364"/>
<path d="M37.0094 117.23C36.7451 116.987 36.4809 116.733 36.2166 116.49C36.1247 116.409 36.0327 116.317 35.9178 116.259C35.5846 116.086 35.125 116.236 34.9296 116.56C34.7343 116.883 34.7917 117.334 35.0445 117.623C35.125 117.716 35.2284 117.797 35.3548 117.82C35.5271 117.855 35.6995 117.797 35.8489 117.727C36.3085 117.542 36.7796 117.357 37.2392 117.172" fill="#F26C3C"/>
<path d="M38.0551 119.878C37.6874 119.924 37.3082 119.97 36.9405 120.016C36.8141 120.028 36.6877 120.051 36.5614 120.097C36.1937 120.236 36.0098 120.664 36.1362 121.011C36.2626 121.357 36.6533 121.577 37.0554 121.566C37.1818 121.566 37.3197 121.531 37.4231 121.462C37.561 121.357 37.63 121.196 37.6874 121.045C37.8598 120.594 38.0321 120.144 38.193 119.681" fill="#F26C3C"/>
<path d="M40.2843 121.82C39.9626 121.993 39.6408 122.167 39.3306 122.329C39.2157 122.386 39.1123 122.444 39.0203 122.537C38.7446 122.803 38.7331 123.277 38.9744 123.577C39.2157 123.866 39.6638 123.959 40.0085 123.808C40.1234 123.762 40.2383 123.681 40.2958 123.577C40.3877 123.427 40.3762 123.242 40.3762 123.069C40.3533 122.571 40.3418 122.063 40.3188 121.566" fill="#F26C3C"/>
<path d="M43.5706 123.161C43.3408 123.462 43.0995 123.751 42.8697 124.051C42.7893 124.155 42.7088 124.259 42.6514 124.375C42.4905 124.733 42.6514 125.173 42.9731 125.323C43.2948 125.485 43.743 125.358 44.0187 125.08C44.1107 124.988 44.1796 124.872 44.2026 124.745C44.2371 124.572 44.1681 124.41 44.0992 124.259C43.9038 123.82 43.7085 123.369 43.5132 122.93" fill="#F26C3C"/>
<path d="M46.2019 122.71C46.2019 123.068 46.2019 123.438 46.2019 123.797C46.2019 123.924 46.2019 124.051 46.2364 124.167C46.3398 124.537 46.7535 124.768 47.1212 124.698C47.4889 124.617 47.7761 124.271 47.8221 123.889C47.8336 123.762 47.8221 123.635 47.7646 123.519C47.6842 123.369 47.5118 123.288 47.3625 123.207C46.9143 122.987 46.4662 122.768 46.0181 122.548" fill="#F26C3C"/>
<path d="M48.7643 120.491C48.8563 120.86 48.9597 121.219 49.0516 121.589C49.0861 121.716 49.1206 121.843 49.178 121.959C49.3619 122.306 49.81 122.433 50.1317 122.259C50.4535 122.086 50.6258 121.658 50.5569 121.277C50.5339 121.149 50.4879 121.022 50.4075 120.918C50.2926 120.791 50.1202 120.745 49.9594 120.71C49.4882 120.606 49.0171 120.491 48.546 120.386" fill="#F26C3C"/>
<path d="M66.0692 49.6456C63.5413 50.9751 61.3581 52.9982 59.8068 55.4607C58.405 57.6919 57.5317 60.27 57.2215 62.9174C56.9802 64.9175 56.4861 68.9753 59.06 69.588C59.7839 69.7615 60.5422 69.6343 61.2776 69.5071C70.7344 67.9002 80.1912 66.2932 89.6365 64.6862C88.338 59.5532 86.2238 54.3393 82.1561 51.0907C78.7893 48.397 74.262 47.345 70.0795 48.2005C68.6891 48.4895 67.3332 48.9751 66.0692 49.6456Z" fill="#D81F26"/>
<path d="M67.2758 50.5128C66.0807 51.0099 63.8171 51.981 61.8177 54.2585C61.3466 54.7903 58.5659 58.062 58.4854 62.7095C58.4739 63.6575 58.428 66.5708 59.9677 67.7962C60.5193 68.2355 61.2777 68.6517 61.2777 68.6517C61.8062 68.8945 62.3118 69.0217 62.7025 69.172C63.5068 69.0448 64.2997 68.9292 65.104 68.8251C67.8733 68.4436 70.608 67.8772 73.3658 67.4032C76.2269 66.906 79.1111 66.4667 81.9837 66.0274C83.0753 65.854 84.1555 65.6922 85.2471 65.5187C85.3045 65.1141 86.0169 64.7557 86.5685 63.9696C86.6145 63.9118 86.6489 63.8424 86.6949 63.7846C87.0971 63.1141 87.3843 61.8771 87.1315 60.3279C87.0396 59.7846 86.6949 57.9695 84.684 55.2527C83.6154 53.8076 82.7191 52.5822 81.1219 51.4608C77.2956 48.7902 73.0326 49.2411 71.6307 49.3914C70.7919 49.4839 69.1717 49.7267 67.2758 50.5128Z" fill="#EF4C4B"/>
<path d="M63.4264 65.2643C61.6109 64.4781 60.7836 61.8191 60.9444 59.7498C61.1283 57.3914 62.6106 55.8769 63.7596 54.6977C67.0115 51.3566 71.0332 50.7554 72.1248 50.6167C72.5959 50.5589 77.6288 49.8306 80.9266 52.4086C81.7195 53.0329 82.4319 53.7959 82.8685 54.7324C83.3052 55.6572 83.4431 56.7671 83.1098 57.7382C82.8456 58.5474 82.2825 59.2064 81.685 59.796C80.9956 60.4665 80.2257 61.0793 79.3179 61.3452C78.0655 61.7035 76.744 61.3336 75.4571 61.2064C72.527 60.9058 71.918 63.3567 66.8621 64.9175C64.518 65.6458 63.7941 65.4261 63.4264 65.2643Z" fill="#D81F26"/>
<path d="M69.5164 56.5361C68.9993 56.8714 67.3676 57.9234 66.7471 59.9697C66.1151 62.0044 66.7931 63.9928 66.8276 64.1084C67.2412 65.2761 67.9192 66.0738 67.5744 66.594C67.4251 66.8252 67.1493 66.883 66.5863 66.964C65.1499 67.1836 64.1962 67.2877 63.9204 67.3223C62.9897 67.4495 61.944 67.9813 61.2776 68.6634C61.8062 68.9062 62.3117 69.0333 62.7024 69.1836C63.5068 69.0565 64.2996 68.9409 65.104 68.8368C67.8732 68.4553 70.608 67.8888 73.3657 67.4148C76.2269 66.9177 79.111 66.4784 81.9837 66.0391C83.0753 65.8657 84.1554 65.7038 85.247 65.5304C85.3045 65.1258 86.0169 64.7674 86.5684 63.9813C85.7756 63.6344 84.707 63.8079 83.2591 63.7385C81.7424 63.6691 80.3175 63.5882 79.766 62.6749C79.5936 62.3859 79.6626 62.2818 79.5477 61.3685C79.3983 60.2471 79.2374 59.0795 78.6859 58.0737C77.9849 56.802 76.8474 56.2008 76.4797 56.0043C75.3421 55.4147 74.3309 55.4147 73.5381 55.4262C72.7682 55.4262 71.171 55.4609 69.5164 56.5361Z" fill="#F06364"/>
<path d="M78.4217 57.8769C78.7779 57.9347 79.1456 58.0041 79.5018 58.0619C79.6282 58.085 79.7546 58.1081 79.881 58.0966C80.2602 58.0619 80.5704 57.6688 80.5589 57.2642C80.5474 56.8711 80.2487 56.5127 79.8695 56.4087C79.7431 56.374 79.6167 56.3624 79.4903 56.4087C79.3294 56.4665 79.2145 56.6283 79.1111 56.7786C78.8123 57.2064 78.5251 57.6341 78.2263 58.0619" fill="#F26C3C"/>
<path d="M76.0775 56.1546C76.3648 55.9002 76.6635 55.6459 76.9508 55.3916C77.0542 55.2991 77.1576 55.2182 77.2266 55.1025C77.4564 54.7673 77.3875 54.2933 77.0887 54.0621C76.7899 53.8309 76.3303 53.8655 76.0086 54.0968C75.9052 54.1777 75.8017 54.2817 75.7558 54.3973C75.6868 54.5707 75.7213 54.7442 75.7673 54.9176C75.8707 55.4147 75.9741 55.9002 76.089 56.3974" fill="#F26C3C"/>
<path d="M73.1244 55.7499C73.2968 55.4146 73.4806 55.0793 73.653 54.7556C73.7105 54.64 73.7794 54.5244 73.8024 54.3973C73.8943 54.0157 73.63 53.588 73.2623 53.4608C72.8946 53.3452 72.4695 53.5186 72.2511 53.8539C72.1822 53.9579 72.1248 54.0851 72.1248 54.2238C72.1248 54.4088 72.2282 54.5591 72.3316 54.7094C72.6303 55.1371 72.9176 55.5649 73.2164 55.9926" fill="#F26C3C"/>
<path d="M69.5853 56.4551C69.6198 56.062 69.6543 55.669 69.7002 55.2759C69.7117 55.1372 69.7232 54.9984 69.7117 54.8713C69.6543 54.4666 69.2751 54.1776 68.9074 54.2239C68.5397 54.2701 68.2294 54.6285 68.1605 55.0331C68.1375 55.1718 68.1375 55.3106 68.1835 55.4377C68.2524 55.6112 68.4018 55.7152 68.5397 55.8077C68.9533 56.0851 69.3555 56.3626 69.7692 56.6285" fill="#F26C3C"/>
<path d="M67.5975 58.3626C67.4021 58.0389 67.1953 57.7268 66.9999 57.4031C66.931 57.299 66.8621 57.1834 66.7701 57.0909C66.4829 56.825 66.0003 56.8597 65.7245 57.1372C65.4487 57.4146 65.4028 57.8886 65.5751 58.247C65.6326 58.3626 65.713 58.4667 65.8279 58.536C65.9888 58.617 66.1726 58.5939 66.345 58.5707C66.8506 58.5014 67.3562 58.4436 67.8503 58.3742" fill="#F26C3C"/>
<path d="M66.6438 61.7614C66.3565 61.4955 66.0807 61.2296 65.7935 60.9637C65.7016 60.8712 65.5981 60.7787 65.4832 60.7209C65.1385 60.5243 64.6789 60.6631 64.5065 60.9983C64.3227 61.3336 64.4146 61.796 64.6904 62.1082C64.7823 62.2122 64.8857 62.2931 65.0121 62.3278C65.1845 62.3741 65.3568 62.3163 65.5062 62.2469C65.9658 62.0735 66.4255 61.9001 66.8851 61.7267" fill="#F26C3C"/>
<path d="M63.7481 13.6221C63.6217 13.3331 63.3804 13.1019 63.0817 13.0672C62.8978 13.0441 62.714 13.0903 62.5301 13.1366C57.7156 14.4198 53.1308 16.547 49.0172 19.3678C45.0299 22.1078 41.5713 25.0326 40.9163 30.1425C40.5256 33.2755 41.1461 36.4663 42.1918 39.4374C42.525 40.3739 42.8237 41.0213 43.3523 41.4721C43.3638 41.4837 43.4557 41.5646 43.5591 41.634C44.5473 42.3392 46.0066 42.108 46.5122 42.0502C48.7414 41.8305 51.028 41.5184 53.0044 40.4548C55.6128 39.0444 57.4168 36.4547 58.5429 33.6917C59.669 30.9287 60.1975 27.9691 60.8755 25.0673C61.6569 21.7262 62.6451 18.443 63.6447 15.1713C63.7711 14.7666 63.8975 14.3504 63.8401 13.9342C63.8286 13.8418 63.7941 13.7262 63.7481 13.6221Z" fill="#477437"/>
<path d="M56.2218 21.2524C55.1532 22.4663 54.1305 23.7149 53.1768 25.0097C52.6942 25.6571 52.2346 26.3161 51.7864 26.9866C51.5681 27.3219 51.3383 27.6571 51.12 27.9924L50.7982 28.5011C50.6948 28.6745 50.5914 28.8479 50.488 29.0098C48.8219 31.7612 47.4545 34.6861 46.248 37.6688C45.9492 38.4203 45.6504 39.1717 45.3632 39.9232C45.2138 40.3047 45.0759 40.6746 44.915 41.0561C44.8806 41.1486 44.8346 41.2527 44.7886 41.3452C44.7427 41.4492 44.6967 41.5417 44.6393 41.6573C44.6163 41.692 44.6048 41.7151 44.5703 41.7614C44.5588 41.7729 44.5588 41.7845 44.5473 41.796C44.5359 41.8076 44.5244 41.8192 44.5129 41.8423C44.5014 41.8538 44.4899 41.8654 44.4784 41.8654C44.4669 41.877 44.4554 41.8885 44.4324 41.9001C44.421 41.9116 44.398 41.9232 44.3635 41.9348C44.3405 41.9463 44.2946 41.9579 44.2486 41.9579C44.2026 41.9579 44.1452 41.9463 44.0992 41.9348C44.0532 41.9116 44.0073 41.8885 43.9728 41.8538C43.9383 41.8192 43.9269 41.8076 43.9154 41.7729C43.9039 41.7498 43.8809 41.7036 43.8809 41.7036C43.8809 41.692 43.8694 41.6689 43.8694 41.6573C43.8694 41.6457 43.8579 41.6226 43.8579 41.6111C43.8579 41.5879 43.8579 41.5764 43.8579 41.5533C43.8579 41.5301 43.8579 41.5301 43.8579 41.5186C43.8579 41.507 43.8579 41.4955 43.8579 41.4839C43.8579 41.4608 43.8579 41.4492 43.8694 41.4261C43.8924 41.2874 43.9154 41.1949 43.9383 41.0908C44.0418 40.6862 44.1567 40.3047 44.2601 39.9116C44.3635 39.5186 44.4669 39.137 44.5588 38.744C44.6508 38.3509 44.7427 37.9578 44.8231 37.5648C44.9036 37.1717 44.984 36.7786 45.0529 36.3856C45.1908 35.5994 45.2942 34.8017 45.3747 33.9925C45.4551 33.1948 45.5011 32.3855 45.524 31.5878C45.57 29.9809 45.4666 28.3624 45.2713 26.7554C45.6275 28.3392 45.8228 29.9577 45.8917 31.5878C45.9147 32.4086 45.9032 33.2179 45.8688 34.0387C45.8228 34.8595 45.7424 35.6688 45.6275 36.4781C45.57 36.8827 45.5126 37.2873 45.4436 37.6919C45.3747 38.0966 45.2942 38.4896 45.2023 38.8943C45.1219 39.2989 45.0185 39.692 44.9265 40.085C44.8346 40.4781 44.7312 40.8712 44.6393 41.2527C44.6163 41.3452 44.5933 41.4492 44.5933 41.507V41.5301V41.5186C44.5933 41.5186 44.5933 41.507 44.5933 41.4955C44.5933 41.4839 44.5933 41.4723 44.5818 41.4723C44.5818 41.4723 44.5703 41.4377 44.5588 41.4145C44.5473 41.3914 44.5359 41.3798 44.5014 41.3452C44.4669 41.3105 44.4324 41.2874 44.3865 41.2758C44.352 41.2642 44.2946 41.2527 44.2601 41.2527C44.2256 41.2527 44.1796 41.2642 44.1682 41.2758C44.1452 41.2874 44.1222 41.2989 44.1107 41.2989C44.0992 41.3105 44.0877 41.3105 44.0762 41.322L44.0647 41.3336C44.0532 41.3452 44.0532 41.3452 44.0532 41.3452C44.0532 41.3452 44.0647 41.3336 44.0647 41.322C44.0992 41.2642 44.1452 41.1718 44.1796 41.0793C44.2141 40.9868 44.2601 40.8943 44.2946 40.8134C44.4439 40.4434 44.5818 40.0619 44.7197 39.6804C45.007 38.9174 45.2942 38.1659 45.6045 37.4145C46.8225 34.3971 48.2703 31.4607 50.0514 28.7323C50.9361 27.3681 51.9128 26.0617 52.947 24.8132C53.9237 23.5415 55.0383 22.3507 56.2218 21.2524Z" fill="#71A642"/>
<path d="M55.1877 33.3335C54.1191 33.3682 53.0734 33.507 52.0738 33.7613C51.5682 33.8885 51.0856 34.0619 50.6145 34.2468C50.3846 34.3509 50.1433 34.4434 49.9135 34.5705C49.7986 34.6284 49.6837 34.6862 49.5688 34.744L49.2356 34.9405L49.0747 35.033L48.9138 35.137L48.5921 35.3567C48.4887 35.426 48.3853 35.507 48.2819 35.5879C48.2359 35.6226 48.1784 35.6688 48.1325 35.7035L47.9831 35.8307C47.5924 36.1544 47.2247 36.5243 46.8915 36.9058C46.5583 37.2989 46.248 37.7151 45.9722 38.166C45.8344 38.3856 45.6965 38.6168 45.5701 38.8481L45.4781 39.0215L45.3862 39.1949C45.3288 39.3105 45.2713 39.4377 45.2139 39.5533C45.2483 39.2874 45.3058 39.0215 45.3862 38.7556C45.4552 38.4897 45.5471 38.2353 45.6505 37.981C45.8573 37.4723 46.1216 36.9868 46.4319 36.5359C46.7421 36.085 47.1098 35.6688 47.5235 35.2873C47.6269 35.1948 47.7303 35.1023 47.8337 35.0099C47.9371 34.9289 48.0406 34.8364 48.1555 34.7555L48.5002 34.5127L48.6725 34.3971L48.8564 34.2931L49.2126 34.085C49.339 34.0156 49.4654 33.9578 49.5803 33.9C49.8331 33.7729 50.0859 33.6804 50.3502 33.5763C50.4766 33.5301 50.6145 33.4954 50.7409 33.4491L50.9362 33.3913C51.0051 33.3682 51.0741 33.3567 51.1315 33.3451C51.2694 33.3104 51.3958 33.2757 51.5337 33.2526L51.9359 33.1832C53.039 33.033 54.1421 33.0561 55.1877 33.3335Z" fill="#71A642"/>
<path d="M50.9131 30.0154C51.1774 29.3449 51.591 28.7322 52.0736 28.1888C52.5677 27.657 53.1423 27.183 53.7742 26.8246C54.4062 26.4547 55.0957 26.2003 55.8081 26.05C56.5205 25.8998 57.2559 25.8651 57.9568 25.9807C57.2674 26.1657 56.6009 26.3622 55.969 26.605C55.337 26.8477 54.7165 27.1368 54.1419 27.472C53.5559 27.8073 53.0044 28.1888 52.4643 28.6165C52.2 28.8246 51.9357 29.0559 51.683 29.2871C51.4187 29.5299 51.1659 29.7726 50.9131 30.0154Z" fill="#71A642"/>
<path d="M50.6718 26.663C50.6488 26.1659 50.6488 25.7034 50.6029 25.241C50.5684 24.7901 50.5109 24.3393 50.4305 23.9C50.396 23.6803 50.3386 23.4606 50.2926 23.241C50.2352 23.0213 50.1777 22.8017 50.1088 22.582C49.9824 22.1427 49.8215 21.7034 49.6606 21.241C50.0743 21.53 50.396 21.9231 50.6488 22.3508C50.7752 22.5705 50.8786 22.8017 50.9706 23.0329C51.0165 23.1485 51.051 23.2757 51.0855 23.3913C51.12 23.5185 51.1429 23.6341 51.1659 23.7612C51.2578 24.2583 51.2693 24.767 51.1889 25.2641C51.1544 25.5069 51.0855 25.7497 51.005 25.9925C50.9246 26.2352 50.8212 26.4549 50.6718 26.663Z" fill="#71A642"/>
<path d="M80.4785 11.8648C82.2596 12.1538 85.3046 12.6394 87.9014 14.7781C91.2107 17.4949 91.9691 21.3447 92.2449 22.6973C92.4747 23.8765 93.4744 28.8939 90.4753 33.3795C88.2232 36.7437 84.2359 38.5356 80.2832 39.368C76.9164 40.0732 73.3888 40.1888 70.0565 39.3333C66.7242 38.4778 63.5988 36.5819 61.5764 33.7841C59.3013 30.6396 58.5544 26.443 59.5196 22.6742C60.3929 19.2522 62.6221 16.2463 65.5637 14.3388C69.4705 11.807 73.6416 11.6798 76.8819 11.6336C78.7779 11.6105 80.0534 11.7954 80.4785 11.8648Z" fill="#D81F26"/>
<path d="M38.0781 71.5305C39.8592 71.8195 42.9042 72.305 45.5011 74.4438C48.8103 77.1606 49.5687 81.0103 49.8445 82.363C50.0743 83.5422 51.074 88.5596 48.0749 93.0452C45.8228 96.4094 41.8355 98.2013 37.8828 99.0337C34.516 99.7389 30.9884 99.8545 27.6561 98.999C24.3238 98.1435 21.1984 96.2475 19.1761 93.4498C16.9009 90.3052 16.154 86.1087 17.1192 82.3398C17.9925 78.9178 20.2217 75.912 23.1633 74.0045C27.0701 71.4726 31.2412 71.3455 34.4816 71.2992C36.3775 71.2646 37.6645 71.4611 38.0781 71.5305Z" fill="#D81F26"/>
<path d="M9.50099 53.2412C9.6159 52.9522 9.83422 52.721 10.1215 52.6863C10.2938 52.6632 10.4662 52.7094 10.6271 52.7557C15.0739 54.0389 19.3255 56.1661 23.1174 58.987C26.8059 61.7269 30.0117 64.6518 30.6092 69.7617C30.9769 72.8947 30.4024 76.0854 29.4372 79.0566C29.1385 79.993 28.8512 80.6404 28.3686 81.0913C28.3571 81.1028 28.2652 81.1838 28.1732 81.2531C27.254 81.9583 25.9096 81.7271 25.4385 81.6693C23.3702 81.4497 21.2674 81.1375 19.4404 80.0739C17.0273 78.6635 15.3497 76.0739 14.3156 73.3108C13.2814 70.5478 12.7873 67.5882 12.1553 64.6865C11.4314 61.3454 10.5237 58.0621 9.59291 54.7904C9.47801 54.3858 9.3631 53.9696 9.42056 53.5534C9.42056 53.4609 9.45503 53.3453 9.50099 53.2412Z" fill="#477437"/>
<path d="M16.4642 60.8713C18.7164 63.1373 20.6698 65.7153 22.3244 68.4668C23.9791 71.2298 25.3005 74.1778 26.4266 77.1837C26.7024 77.9351 26.9781 78.6981 27.2424 79.4496C27.3688 79.8311 27.5067 80.201 27.6446 80.571C27.6791 80.6635 27.7135 80.756 27.748 80.8369C27.771 80.8831 27.7825 80.9178 27.794 80.9409C27.8055 80.9525 27.8055 80.9641 27.8055 80.9641C27.8055 80.9641 27.794 80.9525 27.771 80.9294C27.7595 80.9178 27.748 80.9063 27.7365 80.9063C27.7135 80.8947 27.6906 80.8831 27.6561 80.8716C27.6101 80.86 27.5642 80.86 27.5067 80.8716C27.4493 80.8831 27.4148 80.9063 27.3688 80.9294C27.3229 80.9641 27.2999 80.9987 27.2999 81.0103C27.2884 81.0334 27.2769 81.0565 27.2654 81.0797C27.2539 81.1028 27.2539 81.1144 27.2539 81.1259C27.2539 81.1375 27.2539 81.149 27.2539 81.149V81.1375C27.2539 81.1375 27.2539 81.1259 27.2539 81.1143C27.2539 81.0797 27.2424 81.0334 27.2309 80.9872C27.2194 80.8947 27.1965 80.8022 27.1735 80.7097L26.8862 79.5421C26.7943 79.149 26.7139 78.7559 26.6334 78.3629C26.553 77.9698 26.484 77.5652 26.4151 77.1721C26.3577 76.779 26.3002 76.3744 26.2542 75.9698C26.1623 75.1721 26.0819 74.3628 26.0474 73.5651C26.0129 72.7559 26.0014 71.9582 26.0359 71.1489C26.0934 69.542 26.2772 67.935 26.6219 66.3743C26.4496 67.9697 26.3577 69.5651 26.4036 71.1489C26.4151 71.9466 26.4611 72.7327 26.5415 73.5304C26.6219 74.3166 26.7139 75.1143 26.8403 75.8889C26.8977 76.2819 26.9667 76.675 27.0471 77.0565C27.116 77.4496 27.1965 77.8311 27.2884 78.2241C27.3688 78.6172 27.4608 78.9987 27.5527 79.3802L27.8399 80.5479C27.8629 80.6519 27.8859 80.7444 27.9089 80.8484C27.9204 80.9063 27.9319 80.9525 27.9434 81.0219C27.9434 81.0334 27.9434 81.0565 27.9434 81.0681V81.0912V81.1259C27.9434 81.149 27.9434 81.1837 27.9434 81.2184C27.9434 81.2531 27.9319 81.2762 27.9204 81.3109C27.9089 81.334 27.8974 81.3687 27.8744 81.3918C27.8629 81.4149 27.8399 81.4496 27.794 81.4843C27.748 81.519 27.7021 81.5421 27.6446 81.5537C27.5757 81.5652 27.5297 81.5652 27.4837 81.5537C27.4378 81.5421 27.4148 81.5305 27.3803 81.519C27.3573 81.5074 27.3458 81.4959 27.3229 81.4843C27.2654 81.4381 27.2539 81.4149 27.2309 81.3918C27.1965 81.3456 27.185 81.3109 27.162 81.2878C27.1275 81.23 27.1045 81.1722 27.0816 81.1259C27.0356 81.0219 27.0011 80.9294 26.9552 80.8369C26.8058 80.4554 26.6794 80.0739 26.5415 79.7039C26.2772 78.9525 26.0014 78.201 25.7257 77.4496C24.6111 74.4669 23.3586 71.542 21.8189 68.7674C20.2906 65.9812 18.4866 63.3569 16.4642 60.8713Z" fill="#71A642"/>
<path d="M17.418 72.9522C18.4062 72.6748 19.4633 72.6517 20.4975 72.8251C21.5316 72.9985 22.5313 73.4031 23.4161 73.9927C24.3008 74.5823 25.0362 75.3684 25.5993 76.2586C26.1508 77.1488 26.5185 78.1546 26.6449 79.172C26.2313 78.2355 25.7372 77.3685 25.1282 76.5939C24.5192 75.8193 23.8182 75.1488 23.0139 74.6054C22.2096 74.0736 21.3248 73.6574 20.3825 73.3915C19.4288 73.1256 18.4406 72.9869 17.418 72.9522Z" fill="#71A642"/>
<path d="M21.3708 69.6458C21.1295 69.403 20.8997 69.1603 20.6584 68.9406C20.417 68.7094 20.1872 68.4897 19.9344 68.2816C19.8195 68.1776 19.6931 68.0736 19.5667 67.9695C19.4403 67.877 19.3139 67.773 19.1876 67.6805C18.9348 67.484 18.6705 67.3105 18.4062 67.1371C17.8661 66.8019 17.3031 66.5013 16.7171 66.2585C16.4183 66.1313 16.1196 66.0273 15.8093 65.9232C15.4991 65.8192 15.1773 65.7267 14.8556 65.6227C15.522 65.4955 16.223 65.5417 16.9009 65.7036C17.5789 65.8654 18.2223 66.1313 18.8084 66.5013C18.9577 66.5938 19.0956 66.6978 19.2335 66.7903C19.3714 66.8943 19.5093 66.9984 19.6357 67.114C19.9 67.3452 20.1413 67.588 20.3596 67.8539C20.7962 68.3973 21.1524 68.9869 21.3708 69.6458Z" fill="#71A642"/>
<path d="M21.5891 66.2934C21.4512 66.0853 21.3478 65.8541 21.2674 65.6228C21.187 65.3916 21.1295 65.1488 21.095 64.9061C21.0261 64.4205 21.0261 63.9118 21.1065 63.4147C21.1295 63.2876 21.1525 63.1719 21.187 63.0448C21.1984 62.987 21.2214 62.9292 21.2329 62.8598C21.2444 62.802 21.2674 62.7442 21.2904 62.6864C21.3708 62.4552 21.4742 62.224 21.5891 62.0043C21.8304 61.565 22.1292 61.1719 22.5314 60.8713C22.3935 61.3453 22.2441 61.7846 22.1292 62.224L22.0488 62.5477C22.0258 62.6633 21.9913 62.7673 21.9683 62.8714C21.9453 62.9754 21.9224 63.091 21.8994 63.1951C21.8764 63.2991 21.8534 63.4147 21.8419 63.5188C21.7615 63.9581 21.7155 64.3974 21.6811 64.8598C21.6351 65.3338 21.6236 65.7963 21.5891 66.2934Z" fill="#71A642"/>
<path d="M61.8982 57.7268C61.8178 57.565 61.6799 57.4378 61.5075 57.4147C61.4041 57.4031 61.2892 57.4263 61.1858 57.4494C58.3706 58.1777 55.6933 59.38 53.2917 60.987C50.9591 62.5477 48.9368 64.2009 48.5691 67.1027C48.3393 68.883 48.707 70.6865 49.316 72.3744C49.5113 72.9062 49.6837 73.2762 49.9939 73.5305C50.0054 73.5421 50.0514 73.5883 50.1203 73.623C50.6948 74.016 51.5451 73.8889 51.8439 73.8658C53.1423 73.7386 54.4752 73.5652 55.6358 72.964C57.1641 72.1663 58.2097 70.6981 58.8762 69.1258C59.5311 67.5651 59.8414 65.8888 60.232 64.2356C60.6917 62.3396 61.2662 60.4783 61.8522 58.6286C61.9212 58.3974 62.0016 58.1661 61.9671 57.9234C61.9441 57.854 61.9212 57.7846 61.8982 57.7268Z" fill="#477437"/>
<path d="M57.4973 62.0623C56.8998 62.7675 56.3253 63.4842 55.7852 64.2241C55.2452 64.964 54.7396 65.727 54.2685 66.5016C53.3262 68.0623 52.5334 69.704 51.8325 71.3918C51.6601 71.808 51.4877 72.2358 51.3154 72.6635C51.2235 72.8716 51.143 73.0913 51.0511 73.3109C51.0051 73.4265 50.9592 73.5306 50.8902 73.6578C50.8787 73.6809 50.8673 73.6924 50.8558 73.7156C50.8443 73.7271 50.8443 73.7387 50.8328 73.7503C50.8213 73.7618 50.8213 73.7734 50.7983 73.7965C50.7868 73.8081 50.7868 73.8081 50.7753 73.8196C50.7638 73.8312 50.7409 73.8543 50.7294 73.8659C50.7294 73.8659 50.7064 73.8774 50.6834 73.9005C50.6604 73.9121 50.6374 73.9237 50.6145 73.9352C50.603 73.9468 50.557 73.9584 50.511 73.9584C50.4651 73.9584 50.4191 73.9584 50.3732 73.9352C50.3272 73.9237 50.2812 73.889 50.2468 73.8659C50.2008 73.8312 50.2008 73.8196 50.1778 73.7849C50.1663 73.7618 50.1433 73.7271 50.1433 73.7156C50.1433 73.704 50.1318 73.6925 50.1318 73.6693C50.1318 73.6578 50.1204 73.6347 50.1204 73.6347V73.6115C50.1204 73.6 50.1204 73.5768 50.1204 73.5653C50.1204 73.5422 50.1204 73.519 50.1204 73.5075C50.1204 73.4959 50.1204 73.4844 50.1204 73.4728C50.1204 73.4497 50.1318 73.4266 50.1318 73.415C50.1433 73.3803 50.1433 73.3456 50.1548 73.3109C50.2123 73.0682 50.2812 72.8601 50.3502 72.6289C50.4076 72.4092 50.4766 72.1895 50.534 71.9699C50.6489 71.5306 50.7523 71.0913 50.8328 70.6404C51.0051 69.7502 51.12 68.8369 51.1545 67.9236C51.2005 67.0103 51.166 66.0854 51.0856 65.1721C51.3269 66.0623 51.4648 66.9987 51.5222 67.9236C51.5682 68.86 51.5337 69.7965 51.4073 70.7329C51.3499 71.1953 51.2694 71.6577 51.166 72.1202C51.12 72.3514 51.0626 72.5826 51.0051 72.8023C50.9477 73.0219 50.8902 73.2531 50.8443 73.4612C50.8443 73.4844 50.8328 73.5075 50.8328 73.5306C50.8328 73.5422 50.8328 73.5537 50.8328 73.5537C50.8328 73.5537 50.8328 73.5537 50.8328 73.5422C50.8328 73.5422 50.8328 73.5306 50.8328 73.519V73.5075V73.4844C50.8328 73.4728 50.8213 73.4612 50.8213 73.4497C50.8213 73.4381 50.7983 73.4034 50.7868 73.3919C50.7638 73.3687 50.7638 73.3572 50.7294 73.3225C50.6949 73.2878 50.6489 73.2647 50.6145 73.2531C50.58 73.2416 50.534 73.23 50.4881 73.23C50.4421 73.23 50.4076 73.2416 50.3961 73.2531C50.3732 73.2647 50.3617 73.2647 50.3387 73.2763C50.3157 73.2878 50.3042 73.2994 50.3042 73.2994C50.2927 73.3109 50.2812 73.3225 50.2697 73.3225L50.2582 73.3341C50.2468 73.3456 50.2468 73.3456 50.2468 73.3456L50.2582 73.3225C50.2927 73.2531 50.3387 73.1375 50.3846 73.0335C50.4651 72.8254 50.5455 72.6057 50.6259 72.3976C50.7983 71.9699 50.9592 71.5306 51.143 71.1028C51.8554 69.3918 52.7172 67.7155 53.7744 66.1779C54.843 64.6519 56.084 63.253 57.4973 62.0623Z" fill="#71A642"/>
<path d="M56.8998 68.9062C56.2793 68.9986 55.6818 69.1027 55.1188 69.2645C54.8315 69.3455 54.5672 69.4495 54.2915 69.5536C54.2225 69.5882 54.1651 69.6114 54.0961 69.6461L53.9927 69.6923L53.9008 69.7385C53.8318 69.7732 53.7744 69.7963 53.7054 69.831L53.5216 69.9351C53.0275 70.2241 52.5679 70.5709 52.1657 70.9871C51.7635 71.4033 51.4073 71.8889 51.0741 72.4322C51.0856 72.1085 51.1545 71.7964 51.2694 71.4958C51.3729 71.1952 51.5222 70.8946 51.7061 70.6287C52.0738 70.0854 52.5794 69.6229 53.1424 69.2992C53.4297 69.1258 53.7284 69.0102 54.0387 68.8946C54.3489 68.8021 54.6707 68.7327 54.9924 68.6981C55.6474 68.6403 56.3023 68.6865 56.8998 68.9062Z" fill="#71A642"/>
<path d="M54.4064 67.0333C54.5098 66.6056 54.7396 66.2241 55.0154 65.9004C55.2911 65.5651 55.6359 65.2877 56.0265 65.0796C56.4057 64.8715 56.8309 64.7212 57.256 64.6634C57.6812 64.6056 58.1178 64.6171 58.5315 64.7559C58.1293 64.9293 57.7616 65.068 57.4054 65.2299C57.0492 65.3917 56.7045 65.5536 56.3828 65.7385C56.0495 65.9235 55.7278 66.12 55.4061 66.3397C55.0728 66.5478 54.7626 66.779 54.4064 67.0333Z" fill="#71A642"/>
<path d="M54.2685 65.1259C54.1996 64.8253 54.1536 64.5594 54.1077 64.3166C54.0617 64.0623 54.0272 63.8311 53.9698 63.5883C53.9238 63.3571 53.8779 63.1143 53.8204 62.8715C53.7744 62.6172 53.7055 62.3628 53.671 62.0623C53.9583 62.1779 54.1766 62.386 54.349 62.6287C54.5213 62.8715 54.6362 63.1605 54.6937 63.4496C54.7511 63.7386 54.7511 64.0507 54.6822 64.3397C54.6132 64.6288 54.4869 64.9062 54.2685 65.1259Z" fill="#71A642"/>
<path d="M75.5836 118.328C75.4801 118.479 75.4342 118.664 75.5031 118.826C75.5491 118.93 75.618 119.011 75.6985 119.091C77.7093 121.196 80.0649 122.953 82.6273 124.271C85.1208 125.554 87.5453 126.514 90.2456 125.415C91.9002 124.745 93.2906 123.542 94.4511 122.178C94.8188 121.75 95.0487 121.415 95.1176 121.022C95.1176 121.011 95.1291 120.941 95.1406 120.872C95.198 120.167 94.6695 119.485 94.4971 119.242C93.7502 118.155 92.9459 117.08 91.8543 116.363C90.4179 115.415 88.6254 115.219 86.9478 115.404C85.2701 115.6 83.6615 116.143 82.0413 116.606C80.1798 117.138 78.2838 117.542 76.3879 117.935C76.1581 117.982 75.9168 118.039 75.7214 118.178C75.664 118.224 75.618 118.282 75.5836 118.328Z" fill="#477437"/>
<path d="M81.4897 120.062C82.3975 120.236 83.2938 120.398 84.2015 120.502C85.1093 120.606 86.017 120.687 86.9248 120.721C88.7403 120.791 90.5558 120.675 92.3599 120.467C92.808 120.421 93.2676 120.363 93.7158 120.294C93.9456 120.259 94.1754 120.236 94.4052 120.213C94.5201 120.201 94.635 120.19 94.7844 120.178C94.8074 120.178 94.8189 120.178 94.8533 120.178C94.8648 120.178 94.8763 120.178 94.8878 120.178C94.8993 120.178 94.9223 120.178 94.9453 120.19C94.9567 120.19 94.9682 120.19 94.9797 120.201C95.0027 120.201 95.0257 120.213 95.0372 120.224C95.0487 120.224 95.0602 120.236 95.0831 120.247C95.1061 120.259 95.1176 120.271 95.1406 120.294C95.1521 120.305 95.1866 120.34 95.2095 120.375C95.2325 120.409 95.2555 120.456 95.2555 120.502C95.267 120.548 95.267 120.606 95.2555 120.652C95.244 120.71 95.2325 120.721 95.221 120.745C95.2095 120.768 95.1866 120.802 95.1751 120.814C95.1636 120.826 95.1521 120.837 95.1406 120.849C95.1291 120.86 95.1176 120.872 95.1061 120.872L95.0831 120.883C95.0717 120.895 95.0602 120.906 95.0487 120.906C95.0372 120.918 95.0142 120.93 95.0027 120.93C94.9912 120.941 94.9797 120.941 94.9682 120.941C94.9453 120.953 94.9338 120.953 94.9108 120.964C94.8763 120.976 94.8418 120.987 94.8189 120.999C94.5776 121.068 94.3592 121.115 94.1409 121.161C93.9226 121.219 93.7043 121.265 93.4859 121.323C93.0493 121.438 92.6127 121.565 92.1875 121.716C91.3257 122.005 90.4869 122.352 89.6826 122.756C88.8667 123.161 88.0854 123.646 87.327 124.167C87.9819 123.508 88.7173 122.941 89.4987 122.432C90.2801 121.924 91.1189 121.508 91.9807 121.161C92.4173 120.987 92.854 120.826 93.3021 120.687C93.5204 120.617 93.7502 120.548 93.9686 120.49C94.1869 120.432 94.4167 120.375 94.6235 120.305C94.6465 120.294 94.6695 120.294 94.6925 120.282C94.704 120.282 94.7154 120.271 94.7154 120.271C94.7154 120.271 94.7154 120.271 94.704 120.271L94.6925 120.282L94.681 120.294C94.681 120.294 94.6695 120.305 94.658 120.317C94.6465 120.328 94.6465 120.328 94.635 120.34C94.635 120.352 94.6005 120.375 94.6005 120.398C94.589 120.432 94.5776 120.432 94.5661 120.49C94.5546 120.536 94.5546 120.583 94.5661 120.629C94.5776 120.664 94.5891 120.71 94.612 120.745C94.635 120.779 94.6695 120.814 94.6695 120.826C94.681 120.837 94.704 120.849 94.7154 120.86C94.7384 120.872 94.7499 120.883 94.7499 120.883C94.7614 120.895 94.7729 120.895 94.7844 120.895H94.7959C94.8074 120.895 94.8074 120.895 94.8074 120.895H94.7844C94.704 120.895 94.589 120.918 94.4741 120.93C94.2558 120.964 94.026 120.999 93.7962 121.022C93.3366 121.091 92.8769 121.149 92.4173 121.207C90.5788 121.415 88.7059 121.484 86.8559 121.311C85.0403 121.126 83.2133 120.71 81.4897 120.062Z" fill="#71A642"/>
<path d="M87.7177 117.23C88.0968 117.739 88.4875 118.201 88.9012 118.618C89.108 118.826 89.3263 119.011 89.5561 119.196C89.6136 119.242 89.6711 119.276 89.7285 119.323L89.8089 119.392L89.9009 119.45C89.9583 119.485 90.0158 119.531 90.0732 119.577L90.2571 119.681C90.7512 119.97 91.2683 120.201 91.8313 120.352C92.3943 120.502 92.9804 120.571 93.6123 120.594C93.3251 120.745 93.0148 120.837 92.7046 120.883C92.3828 120.941 92.0611 120.953 91.7394 120.918C91.0844 120.86 90.4409 120.652 89.8779 120.305C89.5906 120.144 89.3378 119.935 89.085 119.716C88.8552 119.485 88.6254 119.242 88.4416 118.976C88.0968 118.456 87.8211 117.866 87.7177 117.23Z" fill="#71A642"/>
<path d="M87.3155 120.34C86.8904 120.456 86.4537 120.444 86.0286 120.363C85.6034 120.282 85.1898 120.109 84.8221 119.878C84.4544 119.647 84.1211 119.346 83.8568 119.011C83.5926 118.664 83.3857 118.271 83.3053 117.843C83.65 118.109 83.9603 118.363 84.2705 118.594C84.5808 118.826 84.891 119.045 85.2127 119.242C85.5345 119.438 85.8677 119.623 86.2124 119.797C86.5686 119.993 86.9248 120.155 87.3155 120.34Z" fill="#71A642"/>
<path d="M85.7413 121.392C85.5115 121.6 85.3046 121.762 85.1093 121.924C84.914 122.086 84.7301 122.236 84.5463 122.398C84.3624 122.548 84.19 122.71 83.9947 122.883C83.7994 123.057 83.6155 123.23 83.3627 123.415C83.3283 123.103 83.3972 122.802 83.5236 122.537C83.65 122.271 83.8338 122.028 84.0636 121.831C84.2935 121.635 84.5578 121.485 84.845 121.404C85.1323 121.334 85.4425 121.3 85.7413 121.392Z" fill="#71A642"/>
<path d="M96.1287 49.2065C96.4274 49.1372 96.7377 49.1719 96.9445 49.38C97.0709 49.5071 97.1284 49.669 97.1858 49.8308C98.806 54.1893 99.6448 58.8945 99.6448 63.646C99.6448 68.2588 99.2197 72.5941 95.4967 76.1202C93.2101 78.282 90.3259 79.7156 87.3728 80.7098C86.4421 81.0219 85.7527 81.1722 85.1092 81.0566C85.0862 81.0566 84.9713 81.0335 84.8564 80.9988C83.7533 80.6751 83.1328 79.4497 82.8915 79.0335C81.8344 77.23 80.8347 75.3456 80.5934 73.2299C80.2831 70.4438 81.3633 67.542 82.949 65.0564C84.5347 62.5709 86.603 60.4205 88.5449 58.1777C90.7741 55.6112 92.8539 52.9176 94.9222 50.2239C95.175 49.8886 95.4393 49.5534 95.807 49.3453C95.8989 49.2759 96.0138 49.2297 96.1287 49.2065Z" fill="#477437"/>
<path d="M94.1753 59.3799C93.7042 62.5476 92.8194 65.6574 91.5899 68.6401C90.3719 71.6228 88.8092 74.4436 87.0741 77.1373C86.6374 77.8079 86.1893 78.4784 85.7526 79.1373C85.5343 79.4726 85.3045 79.7963 85.0977 80.12C85.0402 80.2009 84.9943 80.2819 84.9483 80.3628C84.9253 80.3975 84.9023 80.4437 84.8909 80.4668C84.8794 80.4784 84.8794 80.49 84.8794 80.49C84.8794 80.4784 84.8794 80.4784 84.8909 80.4322C84.8909 80.4206 84.8909 80.3975 84.8909 80.3859C84.8909 80.3512 84.8794 80.3397 84.8679 80.2934C84.8449 80.2587 84.8219 80.2125 84.7874 80.1778C84.7415 80.1431 84.707 80.12 84.661 80.1085C84.6036 80.0969 84.5691 80.0969 84.5576 80.0969C84.5346 80.0969 84.5117 80.1085 84.4887 80.1085C84.4657 80.1085 84.4542 80.12 84.4427 80.1316C84.4312 80.1316 84.4197 80.1431 84.4312 80.1431L84.4427 80.1316L84.4542 80.12C84.4772 80.0969 84.5117 80.0622 84.5461 80.0275C84.6036 79.9582 84.6725 79.8888 84.7415 79.8194L85.5113 78.9061C85.7756 78.6055 86.0399 78.305 86.3042 78.0044C86.58 77.7038 86.8443 77.4148 87.1315 77.1258C87.4073 76.8367 87.6946 76.5593 87.9933 76.2818C88.5793 75.7269 89.1769 75.1835 89.7973 74.6864C90.4178 74.1777 91.0613 73.6922 91.7163 73.2413C93.0377 72.3396 94.4281 71.5303 95.8759 70.8714C94.497 71.6806 93.1756 72.5592 91.9231 73.5419C91.3026 74.0275 90.6936 74.5361 90.1076 75.0679C89.5216 75.5997 88.947 76.1431 88.3955 76.7096C88.1197 76.9986 87.8439 77.2761 87.5797 77.5766C87.3154 77.8657 87.0511 78.1662 86.7868 78.4668C86.5225 78.7674 86.2697 79.068 86.0169 79.3801L85.2586 80.305C85.1896 80.3859 85.1322 80.4668 85.0517 80.5478C85.0173 80.594 84.9828 80.6287 84.9368 80.6749C84.9253 80.6865 84.9138 80.6981 84.9023 80.7096L84.8794 80.7327L84.8564 80.7559C84.8449 80.7674 84.8104 80.7905 84.7759 80.8021C84.753 80.8137 84.73 80.8252 84.6955 80.8368C84.6725 80.8483 84.6381 80.8483 84.6036 80.8483C84.5806 80.8483 84.5346 80.8483 84.4772 80.8368C84.4197 80.8252 84.3738 80.8021 84.3278 80.7559C84.2819 80.7096 84.2474 80.6749 84.2359 80.6287C84.2129 80.5825 84.2129 80.5593 84.2014 80.5246C84.2014 80.5015 84.2014 80.4784 84.2014 80.4553C84.2014 80.3859 84.2129 80.3628 84.2244 80.3281C84.2359 80.2703 84.2589 80.2472 84.2704 80.2125C84.2933 80.1547 84.3278 80.0969 84.3508 80.0507C84.4082 79.9582 84.4542 79.8657 84.5117 79.7732C84.73 79.4264 84.9483 79.0911 85.1666 78.7558C85.6148 78.0969 86.0514 77.4263 86.4766 76.7558C88.2001 74.0853 89.7859 71.3222 91.0843 68.432C92.3712 65.5187 93.3939 62.4897 94.1753 59.3799Z" fill="#71A642"/>
<path d="M85.0977 67.3452C85.902 67.9811 86.557 68.825 87.0281 69.7614C87.5107 70.6979 87.775 71.7499 87.8324 72.8135C87.8899 73.8771 87.706 74.9407 87.3154 75.9234C86.9362 76.906 86.3501 77.7962 85.6032 78.5014C86.1088 77.6112 86.4995 76.6864 86.7638 75.7384C87.0166 74.7904 87.1315 73.8193 87.0855 72.8482C87.0396 71.8771 86.8442 70.9175 86.488 70.0042C86.1548 69.0678 85.6722 68.1892 85.0977 67.3452Z" fill="#71A642"/>
<path d="M90.0961 68.5707C90.1421 68.2354 90.1996 67.9001 90.234 67.5764C90.28 67.2527 90.3145 66.929 90.3374 66.6053C90.3489 66.4435 90.3604 66.2816 90.3604 66.1198C90.3604 65.9579 90.3719 65.7961 90.3719 65.6342C90.3719 65.3105 90.3604 64.9984 90.3374 64.6747C90.2915 64.0388 90.1881 63.4145 90.0272 62.7787C89.9468 62.4666 89.8548 62.1544 89.7629 61.8423C89.6595 61.5301 89.5446 61.218 89.4297 60.8943C89.9238 61.3683 90.303 61.9579 90.5787 62.5937C90.8545 63.2296 91.0154 63.9232 91.0728 64.6169C91.0843 64.7903 91.0843 64.9637 91.0958 65.1371C91.0843 65.3105 91.0958 65.4839 91.0728 65.6574C91.0499 66.0042 90.9924 66.351 90.912 66.6863C90.7396 67.3568 90.4868 68.0042 90.0961 68.5707Z" fill="#71A642"/>
<path d="M92.8998 66.7441C92.9802 66.5128 93.1066 66.2932 93.2445 66.0851C93.3824 65.877 93.5433 65.692 93.7156 65.5186C94.0603 65.1718 94.474 64.8712 94.9106 64.64C95.0255 64.5822 95.1405 64.5359 95.2439 64.4897C95.3013 64.4666 95.3588 64.4435 95.4162 64.4203C95.4737 64.3972 95.5311 64.3741 95.5886 64.3625C95.8299 64.2816 96.0712 64.2354 96.3125 64.2007C96.8066 64.1313 97.3007 64.1429 97.7718 64.2816C97.3122 64.455 96.8755 64.5937 96.4504 64.7672L96.1401 64.8943C96.0367 64.9406 95.9333 64.9752 95.8299 65.0331C95.7265 65.0793 95.6231 65.1255 95.5311 65.1718C95.4277 65.218 95.3358 65.2643 95.2324 65.3221C94.8302 65.5186 94.451 65.7383 94.0718 65.981C93.6926 66.2123 93.3134 66.4782 92.8998 66.7441Z" fill="#71A642"/>
<path d="M51.0051 86.9527C51.12 86.6636 51.3384 86.4324 51.6256 86.3978C51.798 86.3746 51.9704 86.4209 52.1312 86.4671C56.5781 87.7504 60.8296 89.8776 64.6215 92.6984C68.31 95.4383 71.5159 98.3632 72.1134 103.473C72.4811 106.606 71.9066 109.797 70.9414 112.768C70.6426 113.704 70.3553 114.352 69.8727 114.803C69.8612 114.814 69.7693 114.895 69.6774 114.965C68.7581 115.67 67.4137 115.439 66.9426 115.381C64.8743 115.161 62.7715 114.849 60.9445 113.785C58.5315 112.375 56.8539 109.785 55.8197 107.022C54.7855 104.259 54.2915 101.3 53.6595 98.3979C52.9356 95.0568 52.0278 91.7735 51.0971 88.5018C50.9822 88.0972 50.8673 87.681 50.9247 87.2648C50.9362 87.1723 50.9592 87.0567 51.0051 86.9527Z" fill="#477437"/>
<path d="M57.9684 94.5942C60.2205 96.8602 62.1739 99.4382 63.8286 102.19C65.4832 104.953 66.8047 107.901 67.9307 110.907C68.2065 111.658 68.4823 112.421 68.7466 113.172C68.873 113.554 69.0109 113.924 69.1488 114.294C69.1832 114.386 69.2177 114.479 69.2522 114.56C69.2752 114.606 69.2866 114.641 69.2981 114.664C69.3096 114.675 69.3096 114.687 69.3096 114.687C69.3096 114.687 69.2981 114.675 69.2752 114.652C69.2637 114.641 69.2522 114.629 69.2407 114.629C69.2177 114.618 69.1947 114.606 69.1602 114.594C69.1143 114.583 69.0683 114.583 69.0109 114.594C68.9534 114.606 68.9189 114.629 68.873 114.652C68.827 114.687 68.804 114.722 68.804 114.733C68.7925 114.756 68.7811 114.779 68.7696 114.803C68.7581 114.826 68.7581 114.837 68.7581 114.849C68.7581 114.86 68.7581 114.872 68.7581 114.872V114.86C68.7581 114.86 68.7581 114.849 68.7581 114.837C68.7581 114.803 68.7466 114.756 68.7351 114.71C68.7236 114.618 68.7006 114.525 68.6776 114.433L68.4134 113.265C68.3214 112.872 68.241 112.479 68.1606 112.086C68.0801 111.693 68.0112 111.288 67.9422 110.895C67.8848 110.502 67.8273 110.097 67.7814 109.693C67.6894 108.895 67.609 108.086 67.5745 107.288C67.5401 106.479 67.5286 105.681 67.563 104.872C67.6205 103.265 67.8043 101.658 68.1491 100.097C67.9767 101.693 67.8848 103.288 67.9307 104.872C67.9422 105.67 67.9882 106.456 68.0686 107.253C68.1491 108.039 68.241 108.837 68.3674 109.612C68.4248 110.005 68.4938 110.398 68.5742 110.779C68.6432 111.172 68.7236 111.554 68.8155 111.947C68.896 112.34 68.9879 112.722 69.0798 113.103L69.3671 114.271C69.3901 114.375 69.413 114.467 69.436 114.571C69.4475 114.629 69.459 114.675 69.4705 114.745C69.4705 114.756 69.4705 114.779 69.4705 114.791V114.814V114.849C69.4705 114.872 69.4705 114.907 69.4705 114.941C69.4705 114.976 69.459 114.999 69.4475 115.034C69.436 115.057 69.4245 115.092 69.4015 115.115C69.3901 115.138 69.3671 115.173 69.3211 115.207C69.2751 115.242 69.2292 115.265 69.1717 115.277C69.1028 115.288 69.0568 115.288 69.0109 115.277C68.9649 115.265 68.9419 115.253 68.9075 115.242C68.8845 115.23 68.873 115.219 68.85 115.207C68.7925 115.161 68.7811 115.138 68.7581 115.115C68.7236 115.068 68.7121 115.034 68.6891 115.011C68.6547 114.953 68.6317 114.895 68.6087 114.849C68.5627 114.745 68.5283 114.652 68.4823 114.56C68.3329 114.178 68.2065 113.797 68.0686 113.427C67.8044 112.675 67.5286 111.924 67.2528 111.172C66.1382 108.19 64.8857 105.265 63.346 102.49C61.7948 99.6926 59.9907 97.0683 57.9684 94.5942Z" fill="#71A642"/>
<path d="M58.9221 106.664C59.9103 106.386 60.9674 106.363 62.0016 106.536C63.0358 106.71 64.0354 107.115 64.9202 107.704C65.805 108.294 66.5404 109.08 67.1034 109.97C67.655 110.86 68.0227 111.866 68.1491 112.883C67.7354 111.947 67.2413 111.08 66.6323 110.305C66.0233 109.531 65.3224 108.86 64.518 108.317C63.7137 107.785 62.8289 107.369 61.8867 107.103C60.933 106.837 59.9448 106.698 58.9221 106.664Z" fill="#71A642"/>
<path d="M62.8749 103.357C62.6336 103.114 62.4038 102.872 62.1625 102.652C61.9212 102.421 61.6914 102.201 61.4386 101.993C61.3237 101.889 61.1973 101.785 61.0709 101.681C60.9445 101.588 60.8181 101.484 60.6917 101.392C60.4389 101.195 60.1746 101.022 59.9103 100.849C59.3703 100.513 58.8072 100.213 58.2212 99.9699C57.9225 99.8428 57.6237 99.7387 57.3135 99.6347C57.0032 99.5306 56.6815 99.4381 56.3597 99.3341C57.0262 99.2069 57.7271 99.2532 58.4051 99.415C59.083 99.5769 59.7265 99.8428 60.3125 100.213C60.4619 100.305 60.5998 100.409 60.7377 100.502C60.8756 100.606 61.0134 100.71 61.1398 100.825C61.4041 101.057 61.6454 101.299 61.8637 101.565C62.3004 102.109 62.6566 102.71 62.8749 103.357Z" fill="#71A642"/>
<path d="M63.0933 100.005C62.9554 99.7967 62.852 99.5655 62.7715 99.3343C62.6911 99.1031 62.6337 98.8603 62.5992 98.6175C62.5302 98.1319 62.5302 97.6233 62.6107 97.1261C62.6337 96.999 62.6566 96.8834 62.6911 96.7562C62.7026 96.6984 62.7256 96.6406 62.7371 96.5712C62.7486 96.5134 62.7715 96.4556 62.7945 96.3978C62.875 96.1666 62.9784 95.9354 63.0933 95.7157C63.3346 95.2764 63.6333 94.8833 64.0355 94.5828C63.8976 95.0568 63.7482 95.4961 63.6333 95.9354L63.5529 96.2591C63.5299 96.3747 63.4955 96.4787 63.4725 96.5828C63.4495 96.6868 63.4265 96.8024 63.4035 96.9065C63.3805 97.0105 63.3576 97.1261 63.3461 97.2302C63.2656 97.6695 63.2197 98.1088 63.1852 98.5713C63.1392 99.0452 63.1277 99.5077 63.0933 100.005Z" fill="#71A642"/>
<g opacity="0.7">
<path d="M71.4928 22.524C71.3434 22.3159 71.3779 22.0269 71.5847 21.8766L75.6179 18.8246C75.8248 18.6743 76.112 18.7089 76.2614 18.917C76.4108 19.1251 76.3763 19.4142 76.1695 19.5644L72.1363 22.6165C71.9409 22.7668 71.6422 22.7321 71.4928 22.524Z" fill="#5A4539"/>
<path d="M69.5394 31.3333L66.6897 27.5182C66.4829 27.2407 66.5404 26.8361 66.8161 26.628C67.0919 26.4199 67.4941 26.4777 67.7009 26.7552L70.5506 30.5702C70.7574 30.8477 70.7 31.2523 70.4242 31.4604C70.1484 31.6685 69.7462 31.6223 69.5394 31.3333Z" fill="#5A4539"/>
<path d="M83.7303 36.9056L83.512 36.7668C83.3626 36.6628 83.3511 36.4316 83.4775 36.2351L85.6148 33.1367C85.7412 32.9402 85.9825 32.8709 86.1319 32.9633L86.3502 33.1021C86.4996 33.2061 86.5225 33.4373 86.3846 33.6339L84.2474 36.7322C84.121 36.9287 83.8797 37.0096 83.7303 36.9056Z" fill="#5A4539"/>
<path d="M62.0705 49.7036L62.8404 46.2122C62.9208 45.8307 63.2426 45.5648 63.5528 45.6226L64.1044 45.7151C64.4146 45.7729 64.5985 46.1198 64.518 46.5013L63.7482 49.9926C63.6677 50.3741 63.346 50.64 63.0357 50.5822L62.4842 50.4898C62.1625 50.4435 61.9786 50.0851 62.0705 49.7036Z" fill="#5A4539"/>
<path d="M46.3859 31.2179L46.1561 31.1601C46.0067 31.1138 45.9377 30.8942 46.0067 30.6745L47.1213 27.1947C47.1902 26.9635 47.3856 26.8132 47.5349 26.8594L47.7648 26.9172C47.9141 26.9635 47.9831 27.1831 47.9141 27.4028L46.7995 30.8826C46.7306 31.1138 46.5353 31.2641 46.3859 31.2179Z" fill="#5A4539"/>
<path d="M62.0246 10.2581L62.2084 9.85346C62.3348 9.56444 62.714 9.44883 63.0473 9.58756L66.7243 11.0905C67.0575 11.2292 67.2184 11.5645 67.092 11.8535L66.9081 12.2581C66.7817 12.5471 66.4025 12.6627 66.0693 12.524L62.3923 11.0211C62.0591 10.8939 61.8982 10.5471 62.0246 10.2581Z" fill="#5A4539"/>
<path d="M42.0424 53.1717L42.0998 52.6862C42.1343 52.3394 42.433 52.085 42.7548 52.1081L47.4544 52.4203C47.7762 52.4434 48.006 52.744 47.96 53.0793L47.9026 53.5648C47.8681 53.9116 47.5694 54.166 47.2476 54.1429L42.548 53.8307C42.2377 53.8076 42.0079 53.507 42.0424 53.1717Z" fill="#5A4539"/>
<path d="M79.6972 52.8712L76.905 49.1371C76.6522 48.8018 76.7211 48.3278 77.0543 48.0735C77.3876 47.8192 77.8587 47.8885 78.1115 48.2238L80.9037 51.9579C81.1565 52.2932 81.0876 52.7672 80.7543 53.0215C80.4211 53.2643 79.9385 53.2065 79.6972 52.8712Z" fill="#5A4539"/>
<path d="M57.4973 37.981C57.348 37.7729 57.3824 37.4839 57.5893 37.3336L61.0135 34.744C61.2203 34.5937 61.5076 34.6284 61.6569 34.8365C61.8063 35.0446 61.7718 35.3336 61.565 35.4839L58.1408 38.0735C57.934 38.2238 57.6467 38.1776 57.4973 37.981Z" fill="#5A4539"/>
<path d="M55.8359 66.0538C56.5513 65.513 56.816 64.6525 56.4272 64.1319C56.0383 63.6112 55.1432 63.6275 54.4278 64.1683C53.7124 64.7091 53.4477 65.5696 53.8365 66.0902C54.2253 66.6109 55.1205 66.5946 55.8359 66.0538Z" fill="#5A4539"/>
<path d="M56.3422 18.1215C56.9206 17.6842 57.0743 16.9077 56.6855 16.387C56.2966 15.8663 55.5125 15.7987 54.9341 16.2359C54.3557 16.6731 54.2021 17.4497 54.5909 17.9704C54.9797 18.491 55.7638 18.5587 56.3422 18.1215Z" fill="#5A4539"/>
<path d="M30.8768 35.7481C31.3994 35.353 31.5387 34.6521 31.188 34.1825C30.8373 33.7128 30.1294 33.6524 29.6068 34.0474C29.0842 34.4424 28.9448 35.1434 29.2955 35.613C29.6463 36.0827 30.3542 36.1431 30.8768 35.7481Z" fill="#5A4539"/>
<path d="M87.7441 25.9453C88.1094 25.6691 88.2077 25.1804 87.9637 24.8537C87.7198 24.527 87.2259 24.486 86.8605 24.7622C86.4952 25.0383 86.3969 25.5271 86.6409 25.8538C86.8848 26.1805 87.3787 26.2214 87.7441 25.9453Z" fill="#5A4539"/>
<path d="M92.0638 39.3851C92.6777 38.921 92.8911 38.164 92.5403 37.6944C92.1896 37.2248 91.4076 37.2203 90.7937 37.6844C90.1798 38.1484 89.9664 38.9054 90.3171 39.375C90.6679 39.8446 91.4499 39.8491 92.0638 39.3851Z" fill="#5A4539"/>
<path d="M88.9013 52.1722C89.3731 51.8155 89.4992 51.1829 89.1828 50.7592C88.8664 50.3355 88.2273 50.2812 87.7555 50.6378C87.2836 50.9945 87.1576 51.6272 87.474 52.0509C87.7904 52.4745 88.4294 52.5289 88.9013 52.1722Z" fill="#5A4539"/>
<path d="M70.5798 43.8356C70.8183 43.6553 70.8849 43.3395 70.7286 43.1302C70.5723 42.9209 70.2523 42.8974 70.0138 43.0777C69.7753 43.2579 69.7087 43.5737 69.865 43.783C70.0213 43.9923 70.3413 44.0158 70.5798 43.8356Z" fill="#5A4539"/>
<path d="M68.8282 58.1584C69.2087 57.8707 69.3101 57.3603 69.0547 57.0183C68.7993 56.6762 68.2838 56.6322 67.9032 56.9198C67.5227 57.2075 67.4213 57.7179 67.6767 58.0599C67.9321 58.402 68.4476 58.446 68.8282 58.1584Z" fill="#5A4539"/>
<path d="M47.3536 44.2902C47.932 43.8529 48.0856 43.0764 47.6968 42.5557C47.308 42.035 46.5239 41.9674 45.9455 42.4046C45.3671 42.8418 45.2134 43.6184 45.6022 44.1391C45.9911 44.6597 46.7752 44.7274 47.3536 44.2902Z" fill="#5A4539"/>
</g>
<g opacity="0.7">
<path d="M58.3706 87.8775C58.2212 87.6694 58.2557 87.3804 58.4625 87.2301L62.4958 84.1781C62.7026 84.0278 62.9898 84.0625 63.1392 84.2706C63.2886 84.4787 63.2541 84.7677 63.0473 84.918L59.0141 87.97C58.8073 88.1203 58.52 88.0856 58.3706 87.8775Z" fill="#5A4539"/>
<path d="M56.4172 96.6868L53.5675 92.8717C53.3607 92.5942 53.4182 92.1896 53.6939 91.9815C53.9697 91.7734 54.3719 91.8312 54.5787 92.1087L57.4284 95.9238C57.6352 96.2012 57.5778 96.6058 57.302 96.8139C57.0262 97.022 56.624 96.9642 56.4172 96.6868Z" fill="#5A4539"/>
<path d="M70.608 102.259L70.3897 102.12C70.2403 102.016 70.2288 101.785 70.3552 101.589L72.4925 98.4903C72.6189 98.2937 72.8602 98.2244 73.0095 98.3169L73.2279 98.4556C73.3772 98.5596 73.3887 98.7908 73.2623 98.9874L71.1251 102.097C70.9872 102.282 70.7574 102.363 70.608 102.259Z" fill="#5A4539"/>
<path d="M48.9367 115.057L49.7066 111.566C49.787 111.184 50.1088 110.918 50.419 110.976L50.9706 111.069C51.2808 111.126 51.4647 111.473 51.3842 111.855L50.6144 115.346C50.5339 115.728 50.2122 115.994 49.9019 115.936L49.3504 115.843C49.0401 115.797 48.8563 115.439 48.9367 115.057Z" fill="#5A4539"/>
<path d="M33.2636 96.5711L33.0338 96.5133C32.8844 96.4671 32.8154 96.2474 32.8844 96.0278L33.999 92.548C34.0679 92.3168 34.2632 92.1665 34.4126 92.2127L34.6424 92.2705C34.7918 92.3168 34.8608 92.5364 34.7918 92.7561L33.6772 96.2359C33.5968 96.4555 33.4129 96.6174 33.2636 96.5711Z" fill="#5A4539"/>
<path d="M48.9023 75.6114L49.0861 75.2067C49.2125 74.9177 49.5917 74.8021 49.9249 74.9408L53.6019 76.4437C53.9352 76.5825 54.096 76.9177 53.9696 77.2068L53.7858 77.6114C53.6594 77.9004 53.2802 78.016 52.947 77.8773L49.27 76.3744C48.9367 76.2356 48.7759 75.9004 48.9023 75.6114Z" fill="#5A4539"/>
<path d="M28.92 118.525L28.9775 118.04C29.012 117.693 29.3107 117.439 29.6325 117.462L34.3321 117.774C34.6539 117.797 34.8837 118.098 34.8377 118.433L34.7803 118.918C34.7458 119.265 34.447 119.519 34.1253 119.496L29.4256 119.184C29.1039 119.161 28.8741 118.861 28.92 118.525Z" fill="#5A4539"/>
<path d="M66.5634 118.225L63.7712 114.49C63.5184 114.155 63.5873 113.681 63.9206 113.427C64.2538 113.172 64.7249 113.242 64.9777 113.577L67.7699 117.311C68.0227 117.646 67.9538 118.12 67.6205 118.375C67.2988 118.618 66.8162 118.56 66.5634 118.225Z" fill="#5A4539"/>
<path d="M44.375 103.335C44.2256 103.126 44.2601 102.837 44.4669 102.687L47.8911 100.098C48.098 99.9472 48.3852 99.9819 48.5346 100.19C48.684 100.398 48.6495 100.687 48.4427 100.837L45.0185 103.427C44.8117 103.577 44.5244 103.531 44.375 103.335Z" fill="#5A4539"/>
<path d="M42.7052 131.413C43.4206 130.872 43.6854 130.012 43.2965 129.491C42.9077 128.971 42.0126 128.987 41.2972 129.528C40.5818 130.068 40.317 130.929 40.7059 131.45C41.0947 131.97 41.9899 131.954 42.7052 131.413Z" fill="#5A4539"/>
<path d="M43.2111 83.4808C43.7895 83.0436 43.9432 82.2671 43.5544 81.7464C43.1655 81.2257 42.3814 81.158 41.803 81.5953C41.2246 82.0325 41.071 82.8091 41.4598 83.3297C41.8486 83.8504 42.6327 83.9181 43.2111 83.4808Z" fill="#5A4539"/>
<path d="M17.7553 101.101C18.2779 100.706 18.4173 100.005 18.0666 99.535C17.7158 99.0654 17.0079 99.0049 16.4853 99.3999C15.9627 99.795 15.8234 100.496 16.1741 100.966C16.5248 101.435 17.2327 101.496 17.7553 101.101Z" fill="#5A4539"/>
<path d="M74.6231 91.2995C74.9884 91.0234 75.0867 90.5347 74.8428 90.208C74.5988 89.8813 74.1049 89.8403 73.7396 90.1164C73.3743 90.3926 73.2759 90.8813 73.5199 91.208C73.7639 91.5347 74.2578 91.5757 74.6231 91.2995Z" fill="#5A4539"/>
<path d="M78.9419 104.738C79.5559 104.274 79.7692 103.517 79.4185 103.047C79.0678 102.577 78.2858 102.573 77.6719 103.037C77.058 103.501 76.8446 104.258 77.1953 104.728C77.546 105.197 78.328 105.202 78.9419 104.738Z" fill="#5A4539"/>
<path d="M75.7797 117.525C76.2516 117.168 76.3776 116.535 76.0612 116.112C75.7448 115.688 75.1058 115.634 74.6339 115.99C74.1621 116.347 74.036 116.98 74.3524 117.403C74.6688 117.827 75.3079 117.881 75.7797 117.525Z" fill="#5A4539"/>
<path d="M57.4497 109.195C57.6881 109.015 57.7548 108.699 57.5985 108.49C57.4422 108.28 57.1221 108.257 56.8837 108.437C56.6452 108.617 56.5786 108.933 56.7349 109.142C56.8912 109.352 57.2112 109.375 57.4497 109.195Z" fill="#5A4539"/>
<path d="M55.6982 123.516C56.0787 123.229 56.1801 122.718 55.9247 122.376C55.6693 122.034 55.1538 121.99 54.7732 122.278C54.3927 122.565 54.2913 123.076 54.5467 123.418C54.8021 123.76 55.3176 123.804 55.6982 123.516Z" fill="#5A4539"/>
<path d="M34.232 109.643C34.8104 109.205 34.9641 108.429 34.5752 107.908C34.1864 107.388 33.4023 107.32 32.8239 107.757C32.2455 108.194 32.0918 108.971 32.4807 109.492C32.8695 110.012 33.6536 110.08 34.232 109.643Z" fill="#5A4539"/>
</g>
</svg>
