<svg width="140" height="122" viewBox="0 0 140 122" fill="none" xmlns="http://www.w3.org/2000/svg">
<path d="M94.2643 101.84C94.2643 98.0167 92.1695 94.1933 86.9326 91.4127C77.5062 85.8514 61.7955 85.8514 52.369 91.4127C47.4812 94.1933 45.3865 97.6691 45.3865 101.492V107.749C45.3865 111.572 47.8304 115.048 52.7181 117.829C62.1446 123.39 77.8553 123.39 87.2817 117.829C92.1695 115.048 94.2643 111.572 94.2643 107.749V101.84Z" fill="#6E8193"/>
<path d="M94.2643 101.145V107.402C94.2643 111.225 91.8204 114.701 87.2817 117.482C77.8553 123.043 62.1446 123.043 52.7181 117.482C47.8304 114.701 45.3865 110.878 45.3865 107.054V100.798C45.3865 104.621 47.8304 108.445 52.7181 111.225C62.1446 116.787 77.8553 116.787 87.2817 111.225C91.8204 108.792 94.2643 104.969 94.2643 101.145Z" fill="#98AEC4"/>
<path d="M139.651 48.6606C139.651 38.2332 133.367 27.8058 119.751 19.8115C92.8678 3.47526 48.8778 3.12769 21.2968 18.7688C6.98254 26.7631 0 37.538 0 47.9654V47.6178V49.0082C0 50.7461 -6.34043e-08 52.4839 0.349127 53.8743C0.349127 54.917 0.698254 56.3073 0.698254 57.3501C0.698254 58.3928 1.04738 59.7831 1.39651 60.8259C1.74564 62.5638 2.44389 65.3444 2.79302 67.0823C3.14215 68.125 3.49127 69.5153 3.8404 70.5581C4.18953 71.6008 4.53865 72.9911 5.23691 74.0339C5.93516 76.1193 6.98255 78.5524 7.6808 80.2903C8.02993 81.333 9.07731 82.7234 9.42643 83.7661C10.1247 84.8088 10.8229 86.1991 11.5212 87.2419C12.5686 88.9798 14.3142 91.0653 15.3616 92.4556C16.0599 93.4983 17.4564 94.8886 18.1546 95.5838L20.5985 98.0168C21.6459 99.0596 23.0424 100.45 24.0898 101.145C24.788 101.84 25.8354 102.535 26.5337 103.231C27.9302 104.621 29.6758 105.664 31.0723 106.706C32.1197 107.401 33.8653 108.444 34.9127 109.139C36.3092 110.182 38.404 111.225 40.1496 111.92C41.197 112.268 42.2444 112.963 43.2918 113.31C44.6883 114.006 46.0848 114.353 47.4813 115.048C48.5287 115.396 49.9252 115.743 50.9726 116.091C52.7182 116.439 55.5112 117.134 57.2569 117.481C58.3042 117.829 59.7008 117.829 60.399 118.176C61.4464 118.176 62.4938 118.524 63.5412 118.524C65.2868 118.524 67.7307 118.872 69.8254 118.872H72.9676C74.015 118.872 75.0624 118.872 76.1097 118.524C77.1571 118.524 78.5536 118.176 79.2519 118.176C80.9975 117.829 84.4888 117.134 85.8853 116.786C87.2818 116.439 89.0274 116.091 90.0748 115.743C92.1696 115.048 94.6135 114.006 96.3591 113.31C97.7556 112.615 99.5013 111.92 100.898 111.225C101.945 110.877 102.993 110.182 104.04 109.487C105.436 108.792 108.579 107.054 111.721 104.273C112.768 103.578 114.514 102.188 115.561 101.145C116.608 100.45 118.005 99.0596 118.703 98.0168C120.1 96.6265 121.845 94.541 123.242 93.1507C123.94 92.108 124.988 91.0653 125.686 90.0225C126.384 88.9798 127.431 87.937 127.781 86.8943C128.828 85.1564 130.224 83.0709 130.923 81.333C131.621 80.2903 131.97 78.9 132.668 77.8572C133.017 76.8145 133.716 75.4242 134.065 74.3815C134.763 72.6436 135.461 70.2105 136.16 68.4726C136.509 67.4299 136.858 66.0395 137.207 64.9968C138.254 61.1734 138.604 58.3928 138.604 58.3928C138.604 57.3501 138.953 55.9597 138.953 54.917C138.953 53.8743 139.302 52.8315 139.302 51.7888C139.651 50.3985 139.651 49.3557 139.651 48.6606C139.651 48.313 139.651 48.313 139.651 48.6606Z" fill="url(#paint0_linear_20004_27167)"/>
<path d="M36.6584 99.4074C34.5636 98.017 31.7706 96.2791 30.0249 94.8888C28.6284 93.8461 26.8828 92.4558 25.8354 91.0655C24.0898 89.3276 21.6459 86.5469 19.9002 84.4614C18.1546 82.376 16.409 79.5953 15.0125 77.1623L11.5212 70.2107C10.4738 67.4301 9.42643 63.9543 8.72818 61.1736C8.02992 59.0882 7.6808 55.9599 7.33167 53.8745C6.98254 51.4414 6.98254 48.6608 6.98254 46.2277C6.98254 36.8431 13.2668 27.806 25.4863 20.8544C49.5761 7.29883 88.3292 7.64641 111.721 21.8972C123.242 28.8488 129.177 37.8858 129.177 46.9229C129.177 48.3132 129.177 50.3987 128.828 51.789C128.479 54.5696 128.13 58.7406 127.431 61.5212C126.733 63.6067 126.035 66.3873 125.337 68.4728C124.988 69.8631 124.289 71.601 123.591 72.6437C122.893 74.0341 121.845 75.772 121.147 77.1623C119.751 79.5953 117.656 82.376 116.259 84.809C114.863 86.5469 112.768 88.98 111.022 90.7179C109.626 92.1082 107.531 93.8461 106.135 95.2364C105.087 95.9316 104.04 96.9743 102.993 97.6695C101.596 98.7122 99.8504 99.7549 98.4539 100.45C96.7082 101.493 93.9152 102.883 91.8205 103.578C90.7731 103.926 89.3766 104.621 87.9801 104.969C86.9327 105.316 85.5362 105.664 84.4888 106.011C83.4414 106.359 82.394 106.707 81.6958 106.707C80.9975 107.054 79.601 107.054 78.9028 107.402C78.2045 107.402 76.808 107.749 76.1097 107.749C75.4115 107.749 74.015 108.097 73.3167 108.097H67.7307C65.985 108.097 63.8903 108.097 62.1446 107.749C61.4464 107.749 60.0499 107.402 59.3516 107.402C58.6534 107.402 57.2569 107.054 56.5586 107.054C55.5112 107.054 54.4638 106.707 53.7656 106.359C52.7182 106.011 51.6708 105.664 50.9726 105.664C49.5761 105.316 46.4339 104.273 44.3392 103.231C43.2918 102.883 41.8953 102.188 41.197 101.84C39.4514 100.798 38.0549 100.103 36.6584 99.4074Z" fill="#C6D7E8"/>
<path d="M10.4738 41.0144C10.8229 39.9716 10.8229 37.8862 11.5212 36.8434C12.5686 35.1055 13.2668 32.6725 14.3142 31.2821C14.6633 29.8918 16.7581 29.1967 17.4564 28.1539C18.5037 26.7636 18.8529 23.6354 20.2494 22.2451C20.9476 21.5499 22.6933 20.5072 23.3915 19.812C25.1372 18.0741 26.5337 15.6411 28.2793 14.2508C29.3267 13.5556 31.0723 13.5556 32.1197 12.8604C33.8653 11.8177 35.611 10.0798 37.3566 9.03706L38.0549 10.0798C40.1496 9.03706 41.8953 5.90885 43.6409 5.21369C46.783 3.82337 47.8304 3.47579 50.9726 2.43306C52.02 2.08548 53.7656 3.12821 54.813 2.78063C55.8604 2.43306 56.9077 3.12821 57.9551 2.78063C59.7008 2.43306 61.4464 1.39032 63.8903 1.04274C64.5885 1.04274 65.985 1.7379 66.6833 1.7379C67.3816 1.7379 68.7781 0.695159 69.4763 0.695159C70.1746 0.695159 71.5711 0 72.2693 0C74.015 0 76.808 0.695159 78.2045 0.695159C79.2519 0.695159 81.6958 2.08548 84.1397 2.78063C86.2344 3.82337 87.9801 3.82337 90.0748 4.51853C91.1222 4.86611 92.1696 6.60401 93.217 6.95159C94.6135 7.29917 96.7082 5.90885 97.7556 6.60401C99.1521 7.29917 100.898 8.3419 101.945 9.03706C102.993 9.73222 103.342 11.8177 104.389 12.5129C105.436 13.208 106.833 13.9032 107.88 14.5983C109.277 15.6411 110.673 17.0314 112.07 18.0741C113.815 19.4644 116.259 21.2023 117.656 22.9402C118.354 23.983 118.703 25.3733 119.751 26.7636C120.449 27.8063 122.544 28.5015 123.242 29.5442C124.289 31.2821 124.988 34.0628 125.686 35.8007C126.384 37.5386 127.431 39.624 128.13 41.3619C128.828 43.0998 129.526 44.1426 129.526 45.8805C129.875 47.6184 128.828 49.7038 128.479 51.4417C128.479 53.1796 128.828 54.9175 128.479 56.6554C127.781 58.3933 126.733 59.4361 126.035 61.174C125.337 62.5643 124.289 63.9546 123.242 65.3449C122.195 66.7352 121.845 68.8207 120.798 70.211C119.402 71.2538 116.958 70.5586 115.212 71.6013C113.815 72.6441 113.466 75.0771 112.07 76.1199C110.673 76.815 107.88 75.7723 106.484 76.4675C105.087 77.1626 103.342 77.8578 101.596 78.5529C99.8504 79.2481 98.4539 79.9433 96.7082 80.2908C94.9626 80.6384 93.217 80.986 91.8205 81.3336C90.0748 81.6811 88.6783 83.7666 86.9327 84.1142C85.187 84.4618 83.4414 84.4618 81.6958 84.4618C79.9501 84.8094 78.2045 84.4618 76.4589 84.4618C74.7132 84.4618 72.9676 84.8094 71.222 84.8094C69.4763 84.8094 67.7307 84.4618 65.985 84.4618C64.2394 84.4618 62.4938 84.1142 60.7481 84.1142C59.0025 84.1142 57.2569 83.7666 55.5112 83.419C53.7656 83.0715 52.02 84.1142 50.2743 83.7666C48.5287 83.419 47.1322 82.0287 45.3865 81.6811C43.6409 81.3336 41.8953 81.3336 40.1496 80.986C38.404 80.2908 37.0075 79.5957 35.2618 78.9005C33.1671 76.815 31.4214 76.815 29.6758 76.1199C27.9302 75.4247 26.8828 74.0344 25.1372 73.3392C23.7407 72.2965 21.6459 72.6441 20.2494 71.6013C18.8529 70.5586 18.5037 68.1255 17.4564 67.0828C16.0599 66.0401 14.3142 65.3449 13.2668 64.3022C12.2195 62.9119 11.1721 61.5215 10.4738 60.1312C9.77556 58.7409 9.07731 57.003 8.37905 55.2651C8.02993 53.5272 6.98254 51.7893 6.98254 50.399C6.98254 48.6611 7.33167 46.9232 7.33167 45.1853C7.6808 43.4474 10.1247 42.4047 10.4738 41.0144Z" fill="#F1C700"/>
<path d="M129.177 46.2277C128.828 44.4898 128.479 43.4471 127.781 41.7092C127.082 39.9713 126.384 37.8858 125.686 36.1479C124.988 34.41 124.638 31.6294 123.591 30.2391C122.893 29.1963 121.496 28.8487 120.798 27.806C120.1 26.7633 119.751 25.0254 119.052 24.3302C118.005 22.5923 115.91 21.202 114.514 19.4641L112.419 17.3786H112.07C111.721 17.3786 111.721 16.6835 111.372 16.3359L111.022 15.9883C110.324 15.2932 109.277 14.9456 108.229 13.9028C108.229 14.2504 107.88 13.5553 107.531 12.8601C106.484 12.8601 105.786 12.8601 104.738 12.5125C102.993 11.8174 101.596 9.73188 100.898 8.68915H99.8504C99.5013 8.68915 99.1521 8.34157 98.803 7.99399C97.7556 7.64641 96.3591 7.29883 95.3117 7.29883C94.6135 7.29883 93.5661 9.3843 92.8679 9.3843C92.1696 9.3843 91.1222 11.8174 90.424 11.8174C89.7257 11.8174 88.6783 9.03672 87.9801 9.3843C86.2344 9.73188 85.1871 12.8601 83.4414 13.2077C82.7432 13.5553 81.3467 11.8174 80.6484 12.1649C79.9501 12.5125 77.5063 9.03672 76.808 9.3843C74.3641 10.427 73.3167 11.4698 70.8728 12.8601C69.1272 13.9028 69.4763 20.5068 68.0798 21.8972L66.3342 18.7689C64.9377 19.8117 63.5412 22.5923 62.4938 23.9826C61.7955 24.6778 58.6534 23.2875 57.9551 24.3302C56.5586 26.0681 56.2095 30.2391 54.813 31.977C54.1147 33.0197 52.02 33.3673 51.3217 34.7576C50.2743 36.4955 52.02 41.3616 51.3217 43.4471C50.6235 44.4898 47.4813 44.4898 46.7831 45.8801C46.0848 47.618 46.0848 51.0938 45.7357 52.8317C45.3866 54.222 46.4339 56.6551 46.0848 58.0454C45.3866 59.4357 42.2444 60.826 41.8953 62.9115C41.5462 64.997 43.2918 67.0825 43.2918 69.5155V73.6865C44.3392 74.3816 45.7357 75.772 46.7831 76.4671C48.1796 77.1623 49.5761 77.1623 50.9726 77.8574C52.3691 78.5526 53.4165 79.2478 54.813 79.9429C56.2095 80.2905 57.606 80.2905 59.0025 80.6381C60.399 80.9856 61.4464 82.376 63.192 82.7235C64.5886 83.0711 66.3342 82.0284 67.7307 82.376C69.1272 82.7235 70.5237 82.7235 71.9202 83.0711C73.3167 83.0711 74.7132 83.4187 76.1098 83.4187C77.5063 83.4187 78.9028 83.7663 80.2993 83.7663C81.6958 83.7663 83.0923 83.7663 84.4888 83.4187C85.8853 83.4187 87.2818 83.7663 88.6783 83.4187C90.0748 83.0711 91.4714 83.4187 92.8679 83.0711C94.2644 82.7235 95.3118 80.9856 96.7083 80.2905L100.898 79.2477C102.294 78.9002 103.691 78.205 105.087 77.5099C106.484 76.8147 107.88 76.1195 108.928 75.4244C110.324 74.7292 112.419 75.7719 113.466 75.0768C114.863 74.3816 114.863 71.601 116.259 70.5583C117.307 69.5155 119.751 70.2107 120.798 69.168C121.845 68.1252 122.195 65.6922 122.893 64.6494C123.94 63.2591 124.638 61.8688 125.337 60.4785C126.035 59.0882 127.082 57.6978 127.431 56.3075C127.781 54.5696 127.431 52.8317 127.431 51.4414C128.479 50.0511 129.526 47.9656 129.177 46.2277Z" fill="#FDAA42"/>
<path d="M48.8778 38.5811C48.8778 38.5811 48.8778 41.7093 50.2743 42.0568C51.3217 42.4044 55.1621 41.7093 55.1621 41.7093L55.8604 39.6238L48.8778 38.5811ZM43.9901 66.3874C43.2918 66.0398 41.197 60.131 42.5935 59.4358C43.9901 58.3931 45.3866 57.6979 45.3866 57.6979C45.3866 57.6979 47.4813 57.3503 47.4813 55.6124C47.4813 54.2221 48.8778 50.7463 49.227 50.7463C49.5761 50.7463 56.5586 51.0939 57.606 50.7463C58.6534 50.3988 63.8903 45.5326 64.2394 45.8802C64.5886 46.2278 66.3342 46.923 66.6833 47.2705C67.0324 47.9657 63.1921 50.7463 61.7955 53.1794C60.399 55.6124 54.1147 59.7834 54.1147 61.1737C54.1147 62.564 48.8778 61.8689 48.8778 61.8689C48.8778 61.8689 49.5761 64.3019 49.5761 64.9971C49.5761 65.6922 45.0374 66.735 43.9901 66.3874Z" fill="#E0E0E2"/>
<g style="mix-blend-mode:overlay" opacity="0.6">
<path d="M104.04 106.012C102.993 106.359 101.945 107.054 100.898 107.749C99.5012 108.445 97.7556 109.14 96.3591 109.835C94.6135 110.53 91.8205 111.573 90.0748 112.268C88.6783 112.616 86.9327 112.963 85.8853 113.311C84.4888 113.658 80.9975 114.353 79.2519 114.701C78.2045 114.701 76.808 115.049 76.1097 115.049C75.0623 115.049 74.015 115.049 72.9676 115.396H69.8254C68.0798 115.396 65.6359 115.396 63.5411 115.049C62.4938 115.049 61.4464 114.701 60.399 114.701C59.3516 114.701 57.9551 114.353 57.2569 114.353C55.5112 114.006 52.7182 113.311 50.9726 112.963C49.9252 112.616 48.5287 112.268 47.4813 111.92C46.0848 111.573 44.3392 110.878 43.2918 110.182C42.2444 109.835 41.197 109.14 40.1496 108.792C38.7531 108.097 36.6584 107.054 34.9127 106.012C33.8653 105.316 32.1197 104.274 31.0723 103.578C29.6758 102.536 27.9302 101.145 26.5337 100.103C25.8354 99.4075 24.788 98.7123 24.0898 98.0172C23.0424 96.9744 21.6459 95.9317 20.5985 94.889L18.1546 92.4559C17.4564 91.4132 16.0599 90.3704 15.3616 89.3277C14.3142 87.9374 12.5686 85.8519 11.5212 84.114C10.8229 83.0713 10.1247 81.681 9.42643 80.6382C8.72818 79.5955 8.02993 78.2052 7.6808 77.1624C6.98254 75.7721 5.93516 73.3391 4.88778 71.6012C4.53865 70.5584 3.8404 69.1681 3.49127 68.1254C3.14215 67.0826 2.79302 65.6923 2.44389 64.6496C2.09476 62.9117 1.39651 60.4786 1.04738 58.3931C0.698254 57.3504 0.698254 55.9601 0.349127 54.9174C0.349127 53.8746 0 52.4843 0 51.4416V45.5327C0 55.6125 6.63342 65.6923 19.9002 73.6866C46.783 89.6753 91.1222 90.0229 118.703 74.7294C132.668 66.7351 140 56.6553 140 45.8803V49.0085C140 50.0512 140 51.094 139.651 52.1367C139.651 53.1795 139.302 54.5698 139.302 55.6125C139.302 55.6125 138.953 58.3931 137.905 62.2165C137.556 63.2593 137.207 64.6496 136.858 65.6923C136.16 67.4302 135.461 69.8633 134.763 71.6012C134.414 72.6439 133.716 74.0342 133.367 75.0769C133.017 76.1197 132.319 77.51 131.621 78.5527C130.574 80.2906 129.526 82.3761 128.479 84.114L126.384 87.2422C125.686 88.285 124.638 89.3277 123.94 90.3704C122.544 91.7608 120.798 93.8462 119.402 95.2365L116.259 98.3648C115.212 99.4075 113.815 100.45 112.419 101.493C108.579 103.578 105.436 105.316 104.04 106.012Z" fill="#98A2AE"/>
</g>
<path d="M130.272 45.5327C130.272 55.2649 124.988 64.6496 112.768 71.9487C88.3292 86.1995 49.5761 85.8519 25.8354 70.906C14.3142 63.9544 7.72818 54.5698 7.37905 45.5327H0C0.349127 55.9601 5.63342 67.3875 18.9002 75.3818C47.783 95.0656 91.1222 94.4132 119.703 76.4245C133.668 68.4302 139.151 56.3077 139.5 45.5327H130.272Z" fill="#F4F4F4"/>
<path d="M45.3865 22.9402C45.3863 23.625 45.5217 24.3031 45.7848 24.9357C46.048 25.5684 46.4337 26.1433 46.92 26.6275C47.4063 27.1117 47.9837 27.4959 48.6191 27.7579C49.2545 28.02 49.9356 28.1549 50.6234 28.1549C51.3112 28.1549 51.9922 28.02 52.6277 27.7579C53.2631 27.4959 53.8405 27.1117 54.3268 26.6275C54.8131 26.1433 55.1988 25.5684 55.4619 24.9357C55.7251 24.3031 55.8604 23.625 55.8603 22.9402C55.8604 22.2555 55.7251 21.5774 55.4619 20.9448C55.1988 20.3121 54.8131 19.7372 54.3268 19.253C53.8405 18.7687 53.2631 18.3846 52.6277 18.1226C51.9922 17.8605 51.3112 17.7256 50.6234 17.7256C49.9356 17.7256 49.2545 17.8605 48.6191 18.1226C47.9837 18.3846 47.4063 18.7687 46.92 19.253C46.4337 19.7372 46.048 20.3121 45.7848 20.9448C45.5217 21.5774 45.3863 22.2555 45.3865 22.9402Z" fill="#2ABE11"/>
<path d="M75.0623 27.4584C77.8553 25.3729 81.3466 23.2875 84.8379 22.2447C88.3292 21.202 91.8204 23.635 95.6608 23.635C99.1521 23.635 103.342 20.1592 106.484 21.202C109.975 22.2447 112.768 26.7633 115.561 28.8487C119.052 31.2818 123.94 32.3245 125.337 35.4527C126.733 39.2761 122.893 43.7946 121.147 47.9656C119.751 51.0938 120.449 58.0454 116.958 60.4785C114.165 62.5639 108.928 58.7406 105.087 59.4357C101.596 60.4784 97.7556 62.5639 93.9152 62.5639C90.4239 62.5639 88.3292 58.0454 84.8379 57.0027C81.3466 55.9599 76.808 59.7833 74.0149 57.6978C70.5237 55.2648 70.1745 50.3986 69.1272 47.2704C67.7307 43.4471 65.2868 39.6237 67.0324 35.8003C68.4289 32.6721 71.5711 29.8915 75.0623 27.4584Z" fill="#F1C700"/>
<path d="M96.0099 31.6299L87.2817 37.1912V43.4476L96.0099 49.0088L104.738 43.4476V37.1912L96.0099 31.6299Z" fill="#F75023"/>
<path d="M108.229 36.8431C108.229 37.5278 108.365 38.2059 108.628 38.8386C108.891 39.4712 109.277 40.0461 109.763 40.5303C110.249 41.0146 110.827 41.3987 111.462 41.6608C112.098 41.9228 112.779 42.0577 113.466 42.0577C114.154 42.0577 114.835 41.9228 115.471 41.6608C116.106 41.3987 116.683 41.0146 117.17 40.5303C117.656 40.0461 118.042 39.4712 118.305 38.8386C118.568 38.2059 118.703 37.5278 118.703 36.8431C118.703 36.1583 118.568 35.4802 118.305 34.8476C118.042 34.2149 117.656 33.64 117.17 33.1558C116.683 32.6716 116.106 32.2874 115.471 32.0254C114.835 31.7633 114.154 31.6284 113.466 31.6284C112.779 31.6284 112.098 31.7633 111.462 32.0254C110.827 32.2874 110.249 32.6716 109.763 33.1558C109.277 33.64 108.891 34.2149 108.628 34.8476C108.365 35.4802 108.229 36.1583 108.229 36.8431Z" fill="#2ABE11"/>
<path d="M104.738 52.4839C104.738 52.9404 104.828 53.3925 105.004 53.8143C105.179 54.2361 105.436 54.6193 105.76 54.9422C106.085 55.265 106.47 55.5211 106.893 55.6958C107.317 55.8705 107.771 55.9605 108.229 55.9605C108.688 55.9605 109.142 55.8705 109.566 55.6958C109.989 55.5211 110.374 55.265 110.698 54.9422C111.023 54.6193 111.28 54.2361 111.455 53.8143C111.631 53.3925 111.721 52.9404 111.721 52.4839C111.721 52.0274 111.631 51.5753 111.455 51.1535C111.28 50.7317 111.023 50.3485 110.698 50.0256C110.374 49.7028 109.989 49.4467 109.566 49.272C109.142 49.0973 108.688 49.0073 108.229 49.0073C107.771 49.0073 107.317 49.0973 106.893 49.272C106.47 49.4467 106.085 49.7028 105.76 50.0256C105.436 50.3485 105.179 50.7317 105.004 51.1535C104.828 51.5753 104.738 52.0274 104.738 52.4839Z" fill="#C4EC9B"/>
<path d="M76.808 29.8919C76.808 31.2747 77.5436 32.6008 78.8531 33.5785C80.1626 34.5563 81.9386 35.1056 83.7905 35.1056C85.6424 35.1056 87.4184 34.5563 88.7279 33.5785C90.0374 32.6008 90.7731 31.2747 90.7731 29.8919C90.7731 28.5092 90.0374 27.183 88.7279 26.2053C87.4184 25.2275 85.6424 24.6782 83.7905 24.6782C81.9386 24.6782 80.1626 25.2275 78.8531 26.2053C77.5436 27.183 76.808 28.5092 76.808 29.8919Z" fill="#FB9E29"/>
<path d="M29.6758 34.4101C32.4689 32.3246 35.9601 30.2391 39.4514 29.1964C42.9427 28.1536 46.434 30.5867 50.2744 30.5867C53.7656 30.5867 57.9552 27.1109 61.0973 28.1536C64.5886 29.1964 67.3816 33.7149 70.1746 35.8004C73.6659 38.2334 78.5536 39.2762 79.9502 42.4044C81.3467 46.2278 77.5063 50.7463 75.7606 54.9172C74.3641 58.0455 75.0624 64.9971 71.5711 67.4301C68.7781 69.5156 63.5412 65.6922 59.7008 66.3874C56.2095 67.4301 52.3691 69.5156 48.5287 69.5156C45.0374 69.5156 42.9427 64.997 39.4514 63.9543C35.9601 62.9116 31.4215 66.7349 28.6285 64.6495C25.1372 62.2164 24.7881 57.3503 23.7407 54.2221C22.3442 50.3987 19.9003 46.5753 21.6459 42.752C23.0424 39.6238 26.1846 36.8431 29.6758 34.4101Z" fill="#FD6535"/>
<path d="M50.6234 38.5811L41.8953 44.1423V50.3987L50.6234 55.96L59.3516 50.3987V44.1423L50.6234 38.5811Z" fill="#2ABE11"/>
<path d="M62.8429 49.0082C62.8429 49.9211 63.0235 50.8251 63.3744 51.6685C63.7253 52.5119 64.2396 53.2782 64.888 53.9237C65.5364 54.5693 66.3062 55.0813 67.1533 55.4307C68.0005 55.78 68.9085 55.9598 69.8254 55.9598C70.7424 55.9598 71.6504 55.78 72.4975 55.4307C73.3447 55.0813 74.1145 54.5693 74.7628 53.9237C75.4112 53.2782 75.9256 52.5119 76.2765 51.6685C76.6274 50.8251 76.808 49.9211 76.808 49.0082C76.808 47.1646 76.0723 45.3964 74.7628 44.0927C73.4534 42.789 71.6773 42.0566 69.8254 42.0566C67.9736 42.0566 66.1975 42.789 64.888 44.0927C63.5786 45.3964 62.8429 47.1646 62.8429 49.0082Z" fill="#DCD415"/>
<path d="M31.4215 57.698C31.4214 58.3828 31.5567 59.0609 31.8199 59.6935C32.083 60.3262 32.4687 60.9011 32.955 61.3853C33.4413 61.8695 34.0187 62.2537 34.6541 62.5157C35.2896 62.7778 35.9706 62.9127 36.6584 62.9127C37.3462 62.9127 38.0273 62.7778 38.6627 62.5157C39.2982 62.2537 39.8755 61.8695 40.3618 61.3853C40.8481 60.9011 41.2338 60.3262 41.497 59.6935C41.7601 59.0609 41.8955 58.3828 41.8953 57.698C41.8955 57.0133 41.7601 56.3352 41.497 55.7026C41.2338 55.0699 40.8481 54.495 40.3618 54.0108C39.8755 53.5266 39.2982 53.1424 38.6627 52.8804C38.0273 52.6183 37.3462 52.4834 36.6584 52.4834C35.9706 52.4834 35.2896 52.6183 34.6541 52.8804C34.0187 53.1424 33.4413 53.5266 32.955 54.0108C32.4687 54.495 32.083 55.0699 31.8199 55.7026C31.5567 56.3352 31.4214 57.0133 31.4215 57.698Z" fill="#DCD415"/>
<path d="M31.4215 36.8436C31.4215 37.5282 31.6021 38.2062 31.953 38.8388C32.3039 39.4713 32.8183 40.0461 33.4666 40.5302C34.115 41.0143 34.8848 41.3984 35.7319 41.6604C36.5791 41.9224 37.4871 42.0573 38.4041 42.0573C39.321 42.0573 40.229 41.9224 41.0762 41.6604C41.9233 41.3984 42.6931 41.0143 43.3415 40.5302C43.9898 40.0461 44.5042 39.4713 44.8551 38.8388C45.206 38.2062 45.3866 37.5282 45.3866 36.8436C45.3866 36.1589 45.206 35.4809 44.8551 34.8484C44.5042 34.2158 43.9898 33.6411 43.3415 33.1569C42.6931 32.6728 41.9233 32.2888 41.0762 32.0268C40.229 31.7647 39.321 31.6299 38.4041 31.6299C37.4871 31.6299 36.5791 31.7647 35.7319 32.0268C34.8848 32.2888 34.115 32.6728 33.4666 33.1569C32.8183 33.6411 32.3039 34.2158 31.953 34.8484C31.6021 35.4809 31.4215 36.1589 31.4215 36.8436Z" fill="#FB9E29"/>
<defs>
<linearGradient id="paint0_linear_20004_27167" x1="69.8254" y1="7.29297" x2="69.8254" y2="118.872" gradientUnits="userSpaceOnUse">
<stop stop-color="#E4F0FC"/>
<stop offset="1" stop-color="#BFCFEE"/>
</linearGradient>
</defs>
</svg>
