<svg width="150" height="84" viewBox="0 0 150 84" fill="none" xmlns="http://www.w3.org/2000/svg">
<path d="M150 13.3732C150 13.3732 149.878 23.9998 128.361 41.7509C106.965 59.502 91.4047 67.4719 79.4911 73.872C67.5775 80.2721 57.9737 68.8003 41.8053 74.7173C25.6368 80.6343 18.8291 83.8948 18.8291 83.8948C18.8291 83.8948 0.837168 85.9476 0.107765 71.9399C-0.621638 58.053 2.29598 46.8227 10.5625 37.2829C18.7075 27.7432 29.8917 21.8262 38.523 23.7583C47.1542 25.6904 97.6046 14.5808 105.506 10.5959C113.408 6.61092 146.839 5.40335 150 13.3732Z" fill="#458428"/>
<g style="mix-blend-mode:overlay" opacity="0.1">
<path d="M139.788 17.1165C133.224 27.9845 124.957 31.728 116.934 34.3846C102.224 39.2148 87.3929 41.0262 72.6833 46.3394C62.107 50.0829 51.6522 53.5848 41.319 58.7773C37.7936 60.4679 34.3897 62.2792 30.8642 64.5736C28.9192 65.9019 26.6094 67.1094 24.7859 69.6453C26.0016 69.5246 27.2172 67.834 28.3113 67.1094C30.1348 66.0226 32.0799 65.0566 33.9034 64.4528C37.1857 63.366 40.3465 61.7962 43.6288 60.7094C50.6797 58.1735 58.0953 57.8112 65.2678 56.1207C72.9265 54.3093 80.8283 56.1206 88.487 54.5508C95.7811 52.981 102.832 46.8224 110.126 45.6149C113.408 45.0111 116.569 44.7696 119.73 42.7167C122.891 40.6639 126.051 37.0412 129.09 33.9015C131.279 31.7279 133.71 29.5543 135.777 26.6562C137.479 24.2411 138.816 20.9807 140.639 18.5655L139.788 17.1165Z" fill="#64B632"/>
</g>
<g style="mix-blend-mode:overlay" opacity="0.1">
<path d="M128.969 18.4451C122.647 19.4111 116.326 22.43 110.004 24.3621C100.279 27.5018 90.5537 30.1584 80.8283 33.1773C74.0206 35.3509 67.0913 36.0754 60.2835 37.0415C53.962 38.0075 47.5189 38.2491 41.0759 38.4906C32.323 38.7321 22.4761 41.5095 14.8174 51.0492C12.8723 53.3435 11.1704 55.5172 9.59 58.8983C8.25276 61.7965 7.15865 65.1776 5.82141 68.0758C8.49589 66.0229 10.8057 61.0719 13.4802 58.6568C16.2762 56.0002 19.0722 53.102 21.8683 50.5662C25.029 47.7888 28.3113 46.8227 31.5937 44.7699C34.876 42.717 38.2798 41.0265 41.6837 41.0265C44.2366 41.0265 46.5464 41.0264 48.9777 41.8717C52.1385 43.0793 55.4208 42.234 58.5816 42.1132C67.0913 41.9925 75.4794 41.0264 83.8675 39.0943C92.1341 37.1623 100.644 37.4037 108.91 34.5056C112.557 33.1773 116.204 31.849 119.73 29.5546C121.796 28.2263 123.742 27.1395 125.808 25.5697C126.902 24.7244 127.753 23.0338 128.969 22.43V18.4451Z" fill="#64B632"/>
</g>
<g style="mix-blend-mode:overlay" opacity="0.1">
<path d="M108.667 17.9617C111.22 16.8749 113.773 16.1504 116.447 16.1504C117.663 16.1504 122.04 17.3579 122.404 13.9767C121.067 11.9239 118.757 13.0107 117.177 13.1315C115.232 13.1315 113.287 13.1315 111.463 12.8899C107.938 12.4069 66.8481 25.5694 61.256 25.9316C57.1227 26.1731 52.9895 27.1391 48.7346 27.2599C43.8719 27.3807 39.2524 30.1581 34.5113 31.0033C31.5936 31.4864 28.7976 31.6071 26.0016 32.8147C21.2604 34.7468 17.1272 40.7846 12.9939 45.3733C9.59002 49.1167 6.42928 53.1017 3.87637 59.6225C2.78226 62.2792 1.20189 65.9018 0.837189 69.6453C1.20189 67.4717 2.1744 66.6264 2.90381 65.0566C3.63321 63.6075 4.11948 61.4339 4.72731 60.1055C5.45672 58.5357 6.42926 57.4489 7.28023 55.9999C8.1312 54.3093 8.98219 52.2564 9.95472 50.8073C11.8998 48.0299 14.088 46.7016 16.1546 44.6488C18.3428 42.3544 20.2879 39.9393 22.7193 39.094C24.7859 38.3695 26.731 37.1619 28.7976 36.0751C31.1074 34.8676 33.6603 35.1091 36.0917 34.7468C44.6014 33.5392 53.2326 31.3656 61.7423 31.1241C69.8873 30.7618 106.357 18.9278 108.667 17.9617Z" fill="#64B632"/>
</g>
<g style="mix-blend-mode:overlay" opacity="0.1">
<path d="M11.535 40.9053C9.95467 42.9582 8.37431 44.7695 6.9155 47.0639C5.33513 49.479 3.75473 52.2564 2.78219 55.8791C2.17435 58.0527 0.107721 62.6414 1.08026 65.5395C2.29593 64.332 3.02532 60.83 4.6057 61.0715C4.84883 63.7282 2.66062 66.1433 2.17435 68.5584C1.20182 73.0264 2.41749 72.9056 3.99786 73.2679C4.241 75.3208 3.75473 76.7698 3.99786 78.7019C6.55077 79.185 8.13117 75.5623 9.83311 72.0603C11.1703 69.283 15.0605 64.815 17.0056 65.9018C17.6134 70.3698 13.6017 73.0264 14.3311 78.4604C15.5467 79.185 16.884 76.4076 17.8565 75.3208C18.9506 74.234 18.5859 74.4755 19.5585 74.8378C20.4094 75.0793 21.1388 75.4415 21.8682 75.4415C21.6251 76.7699 21.1388 77.7359 21.1388 79.3057C25.3937 80.0302 29.6486 74.1132 33.6603 71.5773C38.4014 68.4377 44.115 65.781 49.0993 66.7471C54.3267 67.7131 59.554 70.9735 64.903 72.0603C71.3461 73.3887 77.1813 71.4566 83.1381 65.4188C87.2713 61.1923 91.2831 57.0866 95.9026 58.7772C99.6712 60.1055 106.479 58.1734 108.546 49.962C107.087 49.2375 105.263 50.5658 103.926 50.8073C101.252 51.2903 98.5771 52.3771 95.781 53.1017C93.2281 53.8262 90.9184 55.7583 88.3655 56.6036C85.4479 57.6904 82.5302 58.6564 79.6126 58.898C74.3852 59.381 69.1579 62.5206 63.9305 59.381C62.4717 58.5357 61.4991 57.0866 63.2011 55.2753C65.0246 53.3432 67.3344 53.2224 69.2794 52.6186C73.2911 51.5318 77.0597 48.6337 80.9499 46.3393C83.3812 44.8903 85.9341 43.6827 88.2439 41.1468C89.5811 39.6977 91.1615 37.5242 89.4596 35.5921C87.1498 33.0562 82.8949 36.9204 80.7067 38.2487C76.8166 40.6638 72.9264 42.4751 69.0363 45.011C62.5932 49.3582 55.907 52.6186 49.0993 53.947C47.5189 54.3092 41.319 56.4828 40.2249 52.7394C38.6445 47.3054 43.7503 43.4412 44.966 42.4751C48.613 39.577 52.5032 39.094 56.1502 35.7128C56.6365 35.2298 59.3109 33.4184 59.1894 31.6071C59.0678 29.7958 55.9071 30.6411 55.5424 30.6411C48.2483 31.4864 41.319 39.3355 34.025 39.2147C32.8093 39.2147 28.0682 36.5581 30.7426 33.7807C32.2014 32.2109 34.025 34.0222 34.7544 29.5543C33.6603 27.6222 31.7152 28.2259 30.4995 28.709C28.676 29.3127 26.9741 29.675 25.1506 30.2788C20.1663 31.7278 15.7899 35.4713 11.535 40.9053Z" fill="#D6D6D6"/>
</g>
<g style="mix-blend-mode:overlay" opacity="0.1">
<path d="M22.7193 31.728C21.0173 31.3658 18.2212 34.1431 16.7624 35.713C13.9664 38.8526 11.1704 42.4753 8.61747 46.581C7.15866 49.1169 5.09203 53.3434 4.48419 57.3283C3.99792 59.9849 4.24105 61.5547 5.57829 61.1925C6.91553 60.7095 8.25277 56.2415 9.34688 54.5509C9.95471 53.5849 15.4252 47.5471 14.8174 53.4641C14.5743 56 12.2645 57.6906 11.5351 59.1396C10.6841 60.5887 9.83315 62.6415 9.34688 64.8152C8.86061 67.1095 8.61745 74.8379 9.58999 77.0115C10.8057 79.5474 13.7233 76.6493 14.6958 74.8379C16.3978 71.5775 17.735 66.5057 20.2879 67.2303C20.5311 70.0077 17.6134 75.9247 18.9507 78.7021C20.1663 81.3587 23.2055 76.5285 24.178 75.5624C26.2447 73.5096 28.7976 72.7851 30.9858 71.4567C35.3622 68.8001 39.8602 65.7812 44.4798 65.0567C52.6248 63.8491 60.7698 65.1774 68.9148 65.0567C74.2637 64.9359 79.7342 64.0906 84.84 60.5887C87.2714 58.8981 89.7028 57.0868 92.0125 55.0339C93.7145 53.4641 95.0517 53.2226 95.6595 48.8754C96.0242 45.8565 95.9027 45.8565 97.483 44.6489C99.3066 43.3206 101.13 42.1131 102.954 41.0262C106.357 38.8526 109.883 36.3167 113.287 34.5054C117.542 32.211 122.161 32.5733 126.416 30.0374C130.671 27.6223 134.804 24.8449 138.937 21.826C139.91 21.1015 141.49 20.3769 142.098 18.2033C142.949 15.5467 142.098 14.943 140.882 15.0637C138.33 15.3052 135.655 17.358 133.224 19.4109C129.82 22.309 125.079 25.5695 121.432 24.1204C119.973 23.5166 120.216 22.5506 121.432 20.9807C122.526 19.4109 123.498 17.3581 124.714 16.5128C125.565 15.909 131.4 14.9429 130.063 10.475C128.847 6.2485 124.957 10.5957 123.498 11.0787C120.824 11.8033 118.149 10.1127 115.475 10.2335C111.585 10.3542 107.816 10.958 103.926 12.4071C95.7811 15.426 87.393 18.5656 79.3695 22.7921C74.9931 25.0864 70.4951 28.1053 65.9971 29.0714C63.4442 29.6752 60.8913 29.3129 58.2168 29.6752C54.6914 30.2789 51.2875 30.762 47.7621 30.8827C45.0876 31.0035 42.6562 30.0374 39.8602 31.6073L22.7193 31.728Z" fill="#D6D6D6"/>
</g>
<g style="mix-blend-mode:overlay" opacity="0.1">
<path d="M17.9781 58.6566C16.884 59.2604 15.6684 62.2793 14.6958 63.7284C13.6017 65.5398 12.386 66.7473 11.4135 68.6794C10.0763 71.2153 7.88806 75.6832 8.49589 80.3927C9.46843 80.9965 10.1978 78.8229 11.1704 79.4267C11.0488 86.0683 16.884 77.0116 17.6134 76.0455C20.2879 72.5436 24.0565 66.5058 27.4604 67.4719C27.7035 70.7323 25.5153 72.6644 24.6643 74.1134C23.8133 75.4417 21.382 80.3927 23.6918 79.9097C24.7859 79.6682 26.3663 77.0116 27.4604 76.0455C29.0407 74.7172 30.6211 73.0266 32.3231 71.9398C36.4563 69.0417 40.7112 67.3511 45.0876 65.2982C47.0327 64.3322 58.8247 63.4869 58.8247 57.2076C53.2326 55.8793 47.8836 59.8642 42.5347 62.4001C40.2249 63.4869 37.7936 63.7284 35.4838 64.5737C34.7544 64.8152 31.5936 67.7133 30.9858 66.5058C29.527 63.1246 38.523 57.6906 39.3739 57.0868C41.8053 55.3962 44.3582 52.6189 46.668 49.7207C47.6405 48.3924 50.5581 44.5282 50.315 41.2678C46.3033 40.5433 42.17 46.7018 38.523 50.083C34.3897 53.9472 30.6211 57.2076 26.2447 57.9321C25.2722 58.0529 22.4761 58.5359 21.7467 56.6038C20.6526 53.8264 22.9624 51.5321 23.8134 50.3245C26.0016 47.5471 28.3113 45.9773 30.4995 43.0791C31.3505 41.9923 34.025 38.7319 34.025 35.9545C33.9034 26.2941 20.0448 40.5433 18.7075 41.9923C15.6683 45.2527 12.7507 49.4792 10.0763 53.7057C8.13118 56.8453 6.55081 60.8303 4.7273 64.453C4.11947 65.6605 3.02538 67.2303 3.14695 69.5247C5.33515 70.6115 8.73901 63.7284 10.6841 61.7963C13.237 59.2604 15.7899 54.3095 18.7075 54.7925C19.0722 57.0868 17.9781 59.6227 17.1272 60.3473L17.9781 58.6566Z" fill="#D6D6D6"/>
</g>
<g style="mix-blend-mode:overlay" opacity="0.1">
<path d="M133.832 9.63007C129.09 9.99233 121.675 12.7697 120.945 13.0112C116.691 14.581 112.314 13.3735 108.303 16.6339C107.573 17.2377 104.291 19.532 105.02 21.8264C105.993 24.6038 111.099 21.4641 112.193 20.9811C114.502 19.8943 116.691 17.9622 119 17.5999C119.851 17.4792 122.161 17.2377 122.526 19.4113C118.271 28.3472 112.314 29.1925 106.844 30.5208C102.832 31.4869 99.0634 34.5058 95.2948 37.7662C93.5929 39.2153 91.7694 40.5436 90.0674 41.8719C89.2165 42.4757 88.2439 42.7172 87.7577 44.287C94.9301 45.2531 101.981 43.2002 108.789 38.9738C111.342 37.4039 113.895 36.0756 116.326 33.7813C117.298 32.936 120.338 29.1925 121.432 30.6416C123.377 33.1775 119.608 38.37 118.879 39.2153C115.718 42.5965 112.071 43.0795 108.667 45.0116C105.385 46.9437 102.103 49.1173 98.9418 51.7739C97.6046 52.8607 93.836 54.5513 93.7145 59.0193C94.5654 60.2268 96.1458 59.5023 97.1183 59.3815C99.185 59.2608 100.765 58.0532 102.832 56.7249C106.114 54.5513 109.397 52.1362 112.8 50.0833C117.663 47.1852 122.526 43.804 127.145 39.6983C130.914 36.3171 134.683 32.6944 138.451 29.0718C140.761 26.8981 145.137 23.3962 146.11 17.4792C142.949 16.7547 140.032 22.551 137.114 24.7246C134.804 26.5359 132.494 28.2265 130.185 30.1586C128.604 31.4869 126.659 33.2982 124.957 32.8152C124.228 32.5737 126.051 26.5359 126.173 26.1736C127.145 24.3623 128.361 23.3962 129.455 22.6717C132.13 20.9811 134.804 19.049 137.6 17.9622C138.451 17.6 140.882 17.7207 140.518 14.4603C138.816 13.615 137.235 17.2377 135.655 16.0301C132.981 13.9773 136.749 11.3206 137.6 10.8376C137.722 9.75082 136.02 9.50931 133.832 9.63007Z" fill="#D6D6D6"/>
</g>
<g style="mix-blend-mode:overlay" opacity="0.2">
<path opacity="0.01" d="M70.9814 67.5925C70.8598 72.5435 57.1228 74.1133 40.4681 69.8869C23.8134 65.6604 10.441 57.2075 10.5626 52.3773C10.6841 47.4263 24.9075 43.3206 41.6837 47.547C58.3384 51.7735 71.103 62.7623 70.9814 67.5925Z" fill="#F9F9F9"/>
<path opacity="0.019535" d="M70.7383 67.4715C70.6167 72.3017 57.0012 73.8715 40.4681 69.7658C23.9349 65.5394 10.6841 57.2072 10.8057 52.377C10.9273 47.5467 25.0291 43.441 41.5622 47.6675C58.0953 51.7732 70.8599 62.6412 70.7383 67.4715Z" fill="#F3F3F3"/>
<path opacity="0.029302" d="M70.3735 67.3507C70.252 72.181 56.758 73.7508 40.3465 69.5243C23.9349 65.4186 10.8057 57.0865 10.9272 52.377C11.0488 47.5467 25.029 43.5618 41.4406 47.7882C57.8521 51.8939 70.4951 62.5205 70.3735 67.3507Z" fill="#EDEDED"/>
<path opacity="0.03907" d="M70.0089 67.2301C69.8873 71.9396 56.5149 73.5094 40.2249 69.4037C23.9349 65.298 10.9273 57.0866 11.0488 52.3771C11.1704 47.6676 25.029 43.8034 41.319 47.9091C57.609 51.8941 70.1304 62.3998 70.0089 67.2301Z" fill="#E7E7E7"/>
<path opacity="0.048837" d="M69.7657 67.1092C69.6441 71.8187 56.3933 73.2678 40.3465 69.2829C24.1781 65.1772 11.2919 57.2073 11.4135 52.377C11.535 47.6675 25.2721 43.9241 41.4406 48.0298C57.3659 52.0148 69.8873 62.3998 69.7657 67.1092Z" fill="#E1E1E1"/>
<path opacity="0.058605" d="M69.401 66.8679C69.2795 71.5773 56.1502 73.0264 40.2249 68.9207C24.1781 64.9357 11.4135 56.9659 11.5351 52.2564C11.6566 47.5469 25.2721 43.9242 41.1974 47.9091C57.2443 52.0148 69.5226 62.2791 69.401 66.8679Z" fill="#DBDBDB"/>
<path opacity="0.068372" d="M69.0363 66.7471C68.9148 71.3358 55.9071 72.7849 40.1034 68.7999C24.2997 64.815 11.5351 56.9658 11.6567 52.2563C11.7783 47.6676 25.2722 44.0449 41.0759 48.0299C57.0012 52.1356 69.1579 62.1583 69.0363 66.7471Z" fill="#D5D5D5"/>
<path opacity="0.078139" d="M68.7932 66.6262C68.6717 71.2149 55.7855 72.5433 40.1034 68.5583C24.4212 64.5734 11.7782 56.845 11.8998 52.2562C12.0214 47.6675 25.3937 44.1656 41.0759 48.1506C56.7581 52.1355 68.9148 62.0375 68.7932 66.6262Z" fill="#D0D0D0"/>
<path opacity="0.087907" d="M68.4285 66.5056C68.3069 70.9736 55.5424 72.3019 39.9818 68.4378C24.4212 64.5736 11.8998 56.8452 12.0213 52.2565C12.1429 47.7885 25.3937 44.4073 40.9543 48.2715C56.5149 52.2565 68.55 61.9169 68.4285 66.5056Z" fill="#CACACA"/>
<path opacity="0.097674" d="M68.0638 66.385C67.9422 70.853 55.2992 72.1813 39.8602 68.3171C24.4212 64.4529 12.0213 56.8453 12.1429 52.3773C12.2645 47.9093 25.3937 44.6489 40.8328 48.5131C56.2718 52.2565 68.1854 61.917 68.0638 66.385Z" fill="#C4C4C4"/>
<path opacity="0.1074" d="M67.8206 66.1436C67.6991 70.6115 55.1777 71.8191 39.8602 67.9549C24.5427 64.0907 12.2645 56.6038 12.3861 52.1359C12.5076 47.6679 25.5153 44.5282 40.7112 48.3924C56.0286 52.3774 67.9422 61.7963 67.8206 66.1436Z" fill="#BEBEBE"/>
<path opacity="0.1172" d="M67.4559 66.0224C67.3344 70.3696 54.9345 71.5772 39.7387 67.8338C24.5428 63.9696 12.386 56.6035 12.5076 52.2562C12.6292 47.909 25.3937 44.7694 40.5896 48.6336C55.7855 52.377 67.5775 61.6752 67.4559 66.0224Z" fill="#B8B8B8"/>
<path opacity="0.127" d="M67.0913 65.9016C66.9697 70.2489 54.6914 71.4565 39.6171 67.5923C24.6643 63.8488 12.5076 56.4827 12.7507 52.1355C12.8723 47.7883 25.5153 44.8901 40.5896 48.6336C55.6639 52.4977 67.2128 61.5544 67.0913 65.9016Z" fill="#B2B2B2"/>
<path opacity="0.1367" d="M66.8481 65.781C66.7265 70.0075 54.5698 71.215 39.7387 67.4716C24.9075 63.7282 12.9939 56.4828 13.1154 52.2563C13.237 48.0299 25.7584 45.1317 40.7112 48.8752C55.4208 52.4979 66.9697 61.4338 66.8481 65.781Z" fill="#ACACAC"/>
<path opacity="0.1465" d="M66.4834 65.6603C66.3619 69.8868 54.3267 70.9736 39.6171 67.3509C24.9075 63.6074 13.1154 56.4828 13.237 52.2564C13.3586 48.0299 25.7584 45.2525 40.468 48.996C55.1777 52.6186 66.605 61.4338 66.4834 65.6603Z" fill="#A6A6A6"/>
<path opacity="0.1563" d="M66.1187 65.4186C65.9971 69.6451 54.0836 70.7319 39.4955 66.9885C24.9075 63.3658 13.237 56.2412 13.3586 52.1355C13.4801 47.909 25.7584 45.2524 40.3465 48.9958C54.9345 52.6185 66.2403 61.3129 66.1187 65.4186Z" fill="#A0A0A0"/>
<path opacity="0.166" d="M65.8756 65.298C65.754 69.4037 53.962 70.4905 39.4955 66.8679C25.029 63.2452 13.4802 56.2413 13.6017 52.1356C13.7233 48.0299 25.88 45.3733 40.3465 48.9959C54.6914 52.7394 65.9971 61.1923 65.8756 65.298Z" fill="#9A9A9A"/>
<path opacity="0.1758" d="M65.5109 65.1772C65.3893 69.2829 53.7189 70.2489 39.3739 66.6263C25.029 63.0036 13.6017 56.1205 13.7233 52.1356C13.8448 48.0298 25.88 45.6147 40.2249 49.1167C54.4483 52.7393 65.6324 61.0715 65.5109 65.1772Z" fill="#949494"/>
<path opacity="0.1856" d="M65.1462 65.0565C65.0246 69.0415 53.4757 70.0075 39.2524 66.5056C25.029 62.8829 13.7233 56.1206 13.8448 52.1356C13.9664 48.1507 25.88 45.7356 39.9818 49.2375C54.2051 52.8602 65.2677 60.9508 65.1462 65.0565Z" fill="#8E8E8E"/>
<path opacity="0.1953" d="M64.903 64.9357C64.7815 68.9206 53.3542 69.8867 39.2524 66.264C25.2722 62.7621 13.9664 56.1205 14.088 52.1355C14.2096 48.1506 26.0016 45.8562 39.9818 49.3582C54.0836 52.8601 65.0246 60.9507 64.903 64.9357Z" fill="#888888"/>
<path opacity="0.2051" d="M64.5383 64.6943C64.4168 68.6792 53.111 69.5245 39.1308 66.0226C25.2722 62.5207 14.088 55.9998 14.2096 52.0149C14.3311 48.0299 26.0015 45.8563 39.8602 49.3583C53.8404 52.9809 64.6599 60.8301 64.5383 64.6943Z" fill="#828282"/>
<path opacity="0.2149" d="M64.1736 64.5736C64.052 68.4378 52.8679 69.283 39.0092 65.9019C25.2722 62.3999 14.2095 55.9999 14.3311 52.1357C14.4527 48.2715 26.0016 46.0979 39.7387 49.5998C53.5973 52.981 64.2952 60.7094 64.1736 64.5736Z" fill="#7D7D7D"/>
<path opacity="0.2247" d="M63.9305 64.4526C63.8089 68.3168 52.7463 69.1621 39.1308 65.6601C25.5153 62.279 14.5743 55.8789 14.6958 52.0147C14.8174 48.1505 26.2447 46.2184 39.8602 49.5996C53.3541 53.1015 64.0521 60.5884 63.9305 64.4526Z" fill="#777777"/>
<path opacity="0.2344" d="M63.5658 64.3317C63.4442 68.0751 52.3817 68.9204 39.0093 65.5393C25.5153 62.1581 14.6959 55.8788 14.8174 52.0146C14.939 48.2711 26.2447 46.339 39.6171 49.7202C53.1111 53.1014 63.6874 60.5883 63.5658 64.3317Z" fill="#717171"/>
<path opacity="0.2442" d="M63.2011 64.2109C63.0795 67.9543 52.1385 68.6788 38.8877 65.2977C25.5153 61.9165 14.8174 55.7579 14.9389 52.0145C15.0605 48.2711 26.2447 46.4597 39.4955 49.8409C52.8679 53.2221 63.3227 60.4674 63.2011 64.2109Z" fill="#6B6B6B"/>
<path opacity="0.254" d="M62.9579 63.9697C62.8363 67.7131 52.0169 68.3169 38.8876 65.0564C25.7584 61.6753 15.0605 55.6375 15.1821 51.8941C15.3036 48.1506 26.2447 46.46 39.4955 49.8412C52.6247 53.2224 63.0795 60.347 62.9579 63.9697Z" fill="#656565"/>
<path opacity="0.2637" d="M62.5933 63.8489C62.4717 67.4716 51.7738 68.1961 38.7661 64.9357C25.7584 61.6753 15.1821 55.6375 15.3036 52.0148C15.4252 48.3921 26.2447 46.7016 39.3739 50.0827C52.5032 53.3432 62.7148 60.2262 62.5933 63.8489Z" fill="#5F5F5F"/>
<path opacity="0.2735" d="M62.2286 63.7283C62.107 67.351 51.5306 67.9548 38.6445 64.6944C25.7584 61.434 15.4252 55.5169 15.4252 51.8943C15.5468 48.2716 26.2447 46.8225 39.1308 50.0829C52.2601 53.3433 62.3501 60.1057 62.2286 63.7283Z" fill="#595959"/>
<path opacity="0.2833" d="M61.9854 63.6072C61.8638 67.1091 51.4091 67.7129 38.6445 64.5732C25.88 61.3128 15.6683 55.5165 15.6683 52.0146C15.7899 48.5127 26.3663 47.0636 39.1308 50.2032C52.0169 53.3429 62.107 60.1052 61.9854 63.6072Z" fill="#535353"/>
<path opacity="0.293" d="M61.6208 63.4865C61.4992 66.9885 51.166 67.5922 38.523 64.3318C25.88 61.1922 15.79 55.3959 15.9115 51.894C16.0331 48.3921 26.4879 47.0637 39.1308 50.2034C51.7738 53.4638 61.7423 59.9846 61.6208 63.4865Z" fill="#4D4D4D"/>
<path opacity="0.3028" d="M61.3776 63.3662C61.256 66.7473 51.0443 67.3511 38.6445 64.2114C26.1231 61.0718 16.1546 55.3962 16.2762 52.0151C16.3977 48.6339 26.7309 47.3056 39.2523 50.4453C51.5306 53.4642 61.3776 59.8643 61.3776 63.3662Z" fill="#474747"/>
<path opacity="0.3126" d="M61.0129 63.1241C60.8913 66.5053 50.8013 66.9883 38.523 63.8486C26.1231 60.709 16.2762 55.1542 16.3978 51.773C16.5193 48.3919 26.731 47.1843 39.1308 50.324C51.2875 53.5844 61.1345 59.7429 61.0129 63.1241Z" fill="#414141"/>
<path opacity="0.3223" d="M60.6482 63.0034C60.5266 66.3846 50.5581 66.7468 38.4014 63.7279C26.2447 60.709 16.3978 55.1543 16.5193 51.8939C16.6409 48.5127 26.731 47.5466 38.8877 50.5655C51.0444 53.5844 60.7697 59.6222 60.6482 63.0034Z" fill="#3B3B3B"/>
<path opacity="0.3321" d="M60.4051 62.883C60.2835 66.1434 50.4366 66.6264 38.4014 63.6075C26.3663 60.5886 16.6409 55.1546 16.7625 51.8942C16.884 48.6338 26.8526 47.6678 38.8877 50.6867C50.9229 53.7056 60.4051 59.6226 60.4051 62.883Z" fill="#353535"/>
<path opacity="0.3419" d="M60.0403 62.7622C59.9188 66.0226 50.1934 66.3849 38.2798 63.366C26.3663 60.3471 16.7624 55.1546 16.884 51.8942C17.0056 48.6338 26.8525 47.7884 38.7661 50.8073C50.6797 53.7055 60.1619 59.5018 60.0403 62.7622Z" fill="#2F2F2F"/>
<path opacity="0.3516" d="M59.6757 62.6416C59.5541 65.7813 49.9503 66.1435 38.1583 63.2454C26.3663 60.2265 16.884 55.1547 17.0056 51.8943C17.1272 48.7547 26.8525 47.9094 38.6445 50.9283C50.4366 53.8264 59.7972 59.3812 59.6757 62.6416Z" fill="#2A2A2A"/>
<path opacity="0.3614" d="M59.4325 62.4C59.3109 65.5396 49.8287 65.9019 38.1582 62.883C26.4878 59.9848 17.1272 54.9131 17.2487 51.7734C17.3703 48.6338 26.9741 47.9092 38.523 50.9281C50.1934 53.8263 59.4325 59.2603 59.4325 62.4Z" fill="#242424"/>
<path opacity="0.3712" d="M59.0678 62.279C58.9462 65.4187 49.5856 65.6602 38.0367 62.7621C26.4878 59.8639 17.2487 54.9129 17.3703 51.7733C17.4918 48.6336 26.9741 48.1506 38.4014 51.0487C49.9503 53.9469 59.1894 59.1394 59.0678 62.279Z" fill="#1E1E1E"/>
<path opacity="0.3809" d="M58.7031 62.1584C58.5815 65.1773 49.3425 65.4188 37.9151 62.6414C26.6094 59.7433 17.3703 54.9131 17.4918 51.8942C17.6134 48.8753 26.9741 48.3922 38.2798 51.2904C49.7071 53.947 58.8247 59.1395 58.7031 62.1584Z" fill="#181818"/>
<path opacity="0.3907" d="M58.46 62.0375C58.3385 65.0564 49.2209 65.2979 38.0367 62.3998C26.8525 59.6224 17.735 54.7922 17.8566 51.7733C17.9782 48.7544 27.0957 48.3921 38.4014 51.1695C49.4641 54.0676 58.46 59.0186 58.46 62.0375Z" fill="#121212"/>
<path opacity="0.4005" d="M58.0953 61.9169C57.9737 64.8151 48.9778 65.0566 37.9152 62.2792C26.8525 59.5018 17.9781 54.7923 17.9781 51.7734C18.0997 48.8753 27.0957 48.513 38.2798 51.2904C49.3424 54.0678 58.2168 58.898 58.0953 61.9169Z" fill="#0C0C0C"/>
<path opacity="0.4102" d="M57.7306 61.6756C57.609 64.5737 48.7346 64.6945 37.7936 61.9171C26.8525 59.1397 18.0997 54.551 18.0997 51.6529C18.2212 48.7547 27.0956 48.5132 38.0367 51.2906C49.0993 54.1888 57.8521 58.7775 57.7306 61.6756Z" fill="#060606"/>
<path opacity="0.42" d="M57.4875 61.5545C57.3659 64.4527 48.6131 64.4527 37.7936 61.796C26.9741 59.0187 18.3429 54.5507 18.3429 51.6525C18.4644 48.7544 27.2172 48.7544 38.0367 51.411C48.8562 54.1884 57.4875 58.7772 57.4875 61.5545Z" fill="black"/>
</g>
<g opacity="0.65">
<path opacity="0.01" d="M76.5735 61.7961C76.4519 66.7471 62.7148 68.317 46.0602 64.0905C29.4055 59.864 16.0331 51.4111 16.1546 46.5809C16.2762 41.6299 30.4996 37.5242 47.2758 41.7506C63.9305 45.8563 76.8166 56.8451 76.5735 61.7961Z" fill="#F9F9F9"/>
<path opacity="0.019535" d="M76.3303 61.6756C76.2088 66.5058 62.5933 68.0757 46.0601 63.97C29.527 59.7435 16.2762 51.4113 16.3978 46.5811C16.5193 41.7508 30.6211 37.6451 47.1542 41.8716C63.6874 45.9773 76.4519 56.7246 76.3303 61.6756Z" fill="#F3F3F3"/>
<path opacity="0.029302" d="M75.9656 61.5546C75.844 66.3848 62.3501 67.9546 45.9385 63.7282C29.527 59.6225 16.3977 51.2903 16.5193 46.5808C16.6409 41.7506 30.6211 37.7656 47.0327 41.9921C63.4442 45.977 76.0872 56.7243 75.9656 61.5546Z" fill="#EDEDED"/>
<path opacity="0.03907" d="M75.601 61.3131C75.4794 66.0226 62.107 67.5924 45.817 63.4867C29.527 59.381 16.5194 51.1696 16.6409 46.4601C16.7625 41.7506 30.6211 37.8864 46.9111 41.9921C63.2011 46.0978 75.8441 56.6036 75.601 61.3131Z" fill="#E7E7E7"/>
<path opacity="0.048837" d="M75.3578 61.1925C75.2362 65.902 61.9854 67.3511 45.9385 63.3661C29.7701 59.2604 16.884 51.2905 17.0056 46.4603C17.1272 41.7508 30.8642 38.0074 47.0327 42.1131C63.0795 46.098 75.4794 56.483 75.3578 61.1925Z" fill="#E1E1E1"/>
<path opacity="0.058605" d="M74.9931 61.0714C74.8716 65.7809 61.7423 67.23 45.817 63.1243C29.7702 59.1393 17.0056 51.1695 17.1272 46.46C17.2487 41.7505 30.8642 38.1278 46.7895 42.1128C62.8364 46.2185 75.1147 56.3619 74.9931 61.0714Z" fill="#DBDBDB"/>
<path opacity="0.068372" d="M74.6284 60.9509C74.5068 65.5396 61.4992 66.9887 45.6954 63.0037C29.8917 59.0188 17.1272 51.1697 17.2488 46.4602C17.3703 41.8715 30.8642 38.2488 46.668 42.2337C62.5933 46.2187 74.8715 56.2414 74.6284 60.9509Z" fill="#D5D5D5"/>
<path opacity="0.078139" d="M74.3853 60.8301C74.2637 65.4188 61.3776 66.7471 45.6955 62.7622C30.0133 58.7772 17.3703 51.0489 17.4919 46.4601C17.6134 41.8714 30.9858 38.3695 46.668 42.3544C62.3501 46.3393 74.5069 56.2414 74.3853 60.8301Z" fill="#D0D0D0"/>
<path opacity="0.087907" d="M74.0206 60.5884C73.899 65.0564 61.1345 66.3847 45.5739 62.5205C30.0133 58.6564 17.4919 50.928 17.6134 46.3392C17.735 41.8713 30.9858 38.4901 46.5464 42.3543C62.107 46.3392 74.1421 56.1205 74.0206 60.5884Z" fill="#CACACA"/>
<path opacity="0.097674" d="M73.7774 60.4677C73.6559 64.9357 61.0129 66.264 45.5739 62.3998C30.1348 58.5356 17.735 50.928 17.8566 46.4601C17.9781 41.9921 31.1074 38.7317 46.5464 42.5959C61.8638 46.4601 73.899 55.9998 73.7774 60.4677Z" fill="#C4C4C4"/>
<path opacity="0.1074" d="M73.4127 60.3469C73.2912 64.8149 60.7698 66.0225 45.4523 62.1583C30.1348 58.2941 17.8566 50.8072 17.9781 46.3392C18.0997 41.8712 31.1074 38.7316 46.3033 42.5958C61.6207 46.46 73.5343 55.879 73.4127 60.3469Z" fill="#BEBEBE"/>
<path opacity="0.1172" d="M73.048 60.2263C72.9265 64.5735 60.5266 65.781 45.3307 62.0376C30.1348 58.1734 17.9781 50.8073 18.0997 46.4601C18.2213 42.1129 30.9858 38.9732 46.1817 42.8374C61.4992 46.5809 73.1696 55.8791 73.048 60.2263Z" fill="#B8B8B8"/>
<path opacity="0.127" d="M72.8049 60.1053C72.6833 64.4525 60.4051 65.66 45.3307 61.7958C30.378 58.0524 18.2213 50.6863 18.3429 46.3391C18.4644 41.9919 31.1074 39.0937 46.1817 42.8372C61.256 46.5806 72.9265 55.758 72.8049 60.1053Z" fill="#B2B2B2"/>
<path opacity="0.1367" d="M72.4402 59.864C72.3186 64.0905 60.1619 65.2981 45.3307 61.5546C30.4995 57.8112 18.586 50.5658 18.7075 46.3394C18.8291 42.1129 31.3505 39.2147 46.3033 42.9582C61.0129 46.7016 72.5618 55.6376 72.4402 59.864Z" fill="#ACACAC"/>
<path opacity="0.1465" d="M72.0755 59.7431C71.9539 63.9695 59.9188 65.0563 45.2092 61.4336C30.4996 57.6902 18.7076 50.5656 18.8291 46.3391C18.9507 42.1127 31.3505 39.3353 46.0601 43.0787C60.7698 46.7014 72.1971 55.5166 72.0755 59.7431Z" fill="#A6A6A6"/>
<path opacity="0.1563" d="M71.8324 59.6227C71.7108 63.8492 59.7972 64.936 45.2092 61.1925C30.6211 57.5698 18.9507 50.4453 19.0723 46.3396C19.1938 42.1131 31.4721 39.4565 46.0601 43.1999C60.5266 46.8226 71.9539 55.3963 71.8324 59.6227Z" fill="#A0A0A0"/>
<path opacity="0.166" d="M71.4676 59.5017C71.3461 63.6074 59.5541 64.6942 45.0876 61.0715C30.6211 57.4488 19.0722 50.445 19.1938 46.3393C19.3153 42.2336 31.472 39.577 45.9385 43.3204C60.2834 46.8223 71.5892 55.396 71.4676 59.5017Z" fill="#9A9A9A"/>
<path opacity="0.1758" d="M71.103 59.381C70.9814 63.4867 59.3109 64.4528 44.966 60.8301C30.6211 57.2074 19.1938 50.3244 19.3154 46.3394C19.4369 42.2337 31.4721 39.8186 45.817 43.3205C60.0404 46.9432 71.2245 55.2753 71.103 59.381Z" fill="#949494"/>
<path opacity="0.1856" d="M70.8598 59.1395C70.7383 63.1245 59.1894 64.0905 44.966 60.5886C30.7427 56.9659 19.437 50.2036 19.5585 46.2186C19.6801 42.2337 31.5937 39.8186 45.817 43.3205C59.9188 46.9432 70.9814 55.1546 70.8598 59.1395Z" fill="#8E8E8E"/>
<path opacity="0.1953" d="M70.4951 59.0184C70.3736 63.0034 58.9463 63.9694 44.8445 60.3468C30.8643 56.8448 19.5585 50.2032 19.6801 46.2183C19.8017 42.2333 31.5937 39.939 45.5739 43.4409C59.6757 47.0636 70.6167 55.0335 70.4951 59.0184Z" fill="#888888"/>
<path opacity="0.2051" d="M70.1305 58.8979C70.0089 62.8828 58.7031 63.7281 44.7229 60.2262C30.8642 56.7243 19.6801 50.2035 19.8016 46.2185C19.9232 42.2336 31.5937 40.0599 45.4523 43.5619C59.4325 47.0638 70.252 54.9129 70.1305 58.8979Z" fill="#828282"/>
<path opacity="0.2149" d="M69.8873 58.7769C69.7657 62.6411 58.5815 63.4864 44.7229 60.1052C30.9858 56.6033 19.9232 50.2033 20.0448 46.3391C20.1663 42.4749 31.7152 40.3013 45.4523 43.8032C59.1894 47.1844 70.0088 54.9127 69.8873 58.7769Z" fill="#7D7D7D"/>
<path opacity="0.2247" d="M69.5226 58.6567C69.401 62.5208 58.2168 63.3661 44.7229 59.8642C31.1073 56.483 20.1663 50.083 20.2879 46.2188C20.4095 42.3546 31.8368 40.4225 45.4523 43.8037C58.9462 47.1848 69.6441 54.7925 69.5226 58.6567Z" fill="#777777"/>
<path opacity="0.2344" d="M69.1579 58.415C69.0363 62.1584 57.9737 63.0037 44.6013 59.6225C31.1074 56.2413 20.2879 49.962 20.4095 46.0978C20.531 42.3544 31.8368 40.4223 45.2092 43.8035C58.7031 47.3054 69.2795 54.6715 69.1579 58.415Z" fill="#717171"/>
<path opacity="0.2442" d="M68.9148 58.2941C68.7932 62.0375 57.8522 62.7621 44.6013 59.3809C31.229 55.9997 20.531 49.8412 20.6526 46.0978C20.7742 42.3543 31.9584 40.543 45.2092 43.9242C58.5816 47.3053 69.0363 54.5507 68.9148 58.2941Z" fill="#6B6B6B"/>
<path opacity="0.254" d="M68.55 58.1732C68.4285 61.9167 57.609 62.5204 44.4798 59.26C31.3505 55.8789 20.6526 49.8411 20.7742 46.0976C20.8958 42.3542 31.8368 40.6636 45.0876 44.0448C58.3384 47.426 68.6716 54.4298 68.55 58.1732Z" fill="#656565"/>
<path opacity="0.2637" d="M68.1854 58.0528C68.0638 61.6754 57.3659 62.4 44.3582 59.1396C31.3505 55.8792 20.7742 49.8414 20.8958 46.2187C21.0173 42.596 31.8368 40.9054 44.966 44.2866C58.0953 47.4262 68.3069 54.4301 68.1854 58.0528Z" fill="#5F5F5F"/>
<path opacity="0.2735" d="M67.9422 57.932C67.8207 61.5547 57.2443 62.1584 44.3582 58.898C31.4721 55.6376 21.1389 49.7206 21.1389 46.0979C21.2605 42.4752 31.9584 41.0261 44.8445 44.2865C57.8521 47.5469 68.0638 54.3093 67.9422 57.932Z" fill="#595959"/>
<path opacity="0.2833" d="M67.5775 57.6904C67.4559 61.1923 57.0012 61.7961 44.2366 58.6565C31.4721 55.396 21.2604 49.5998 21.2604 46.0978C21.382 42.5959 31.9583 41.1468 44.7229 44.2865C57.609 47.5469 67.6991 54.1885 67.5775 57.6904Z" fill="#535353"/>
<path opacity="0.293" d="M67.2128 57.5698C67.0913 61.0717 56.7581 61.6755 44.1151 58.4151C31.4721 55.2754 21.3821 49.4791 21.5036 45.9772C21.6252 42.4753 32.0799 41.147 44.7229 44.2866C57.3659 47.547 67.3344 54.0679 67.2128 57.5698Z" fill="#4D4D4D"/>
<path opacity="0.3028" d="M66.9697 57.4489C66.8481 60.8301 56.6365 61.4339 44.2366 58.2942C31.7152 55.1546 21.7467 49.479 21.8683 46.0978C21.9899 42.7167 32.3231 41.3884 44.8445 44.528C57.1227 47.6677 67.0913 54.0677 66.9697 57.4489Z" fill="#474747"/>
<path opacity="0.3126" d="M66.605 57.3285C66.4834 60.7096 56.3933 61.1926 44.115 58.053C31.7152 54.9133 21.8683 49.3585 21.9899 45.9774C22.1114 42.5962 32.323 41.3887 44.7229 44.5283C57.0012 47.668 66.7265 53.9473 66.605 57.3285Z" fill="#414141"/>
<path opacity="0.3223" d="M66.2403 57.2075C66.1187 60.5887 56.1502 60.951 43.9935 57.9321C31.8368 54.9132 21.9899 49.3584 22.1114 46.098C22.233 42.7168 32.3231 41.7507 44.4798 44.7696C56.7581 47.7885 66.3618 53.8264 66.2403 57.2075Z" fill="#3B3B3B"/>
<path opacity="0.3321" d="M65.9971 56.966C65.8756 60.2264 56.0287 60.7095 43.9935 57.6906C31.9584 54.6717 22.233 49.2376 22.3546 45.9772C22.4761 42.7168 32.4446 41.7508 44.4798 44.7697C56.5149 47.7886 66.1187 53.7056 65.9971 56.966Z" fill="#353535"/>
<path opacity="0.3419" d="M65.6324 56.845C65.5108 60.1054 55.7855 60.4676 43.8719 57.4487C31.9583 54.4298 22.3545 49.2373 22.4761 45.9769C22.5977 42.7165 32.4446 41.8712 44.3582 44.8901C56.2717 47.909 65.754 53.5845 65.6324 56.845Z" fill="#2F2F2F"/>
<path opacity="0.3516" d="M65.3893 56.7244C65.2678 59.864 55.664 60.2263 43.872 57.3282C32.08 54.3093 22.5977 49.2375 22.7193 45.9771C22.8409 42.8374 32.5662 41.9921 44.3582 45.011C56.0287 47.9092 65.3893 53.5847 65.3893 56.7244Z" fill="#2A2A2A"/>
<path opacity="0.3614" d="M65.0246 56.6036C64.903 59.7432 55.4208 60.1055 43.7504 57.0866C32.0799 54.1885 22.7192 49.1167 22.8408 45.977C22.9624 42.8374 32.5662 42.1129 44.115 45.1318C55.7855 48.0299 65.1462 53.4639 65.0246 56.6036Z" fill="#242424"/>
<path opacity="0.3712" d="M64.6599 56.4829C64.5383 59.6225 55.1777 59.864 43.6288 56.9659C32.0799 54.0678 22.8408 49.1168 22.9624 45.9771C23.0839 42.8374 32.5662 42.3545 43.9935 45.2526C55.5424 48.03 64.7815 53.3432 64.6599 56.4829Z" fill="#1E1E1E"/>
<path opacity="0.3809" d="M64.4168 56.2414C64.2952 59.2603 55.0561 59.5019 43.6288 56.7245C32.3231 53.8263 23.084 48.9961 23.2055 45.9772C23.3271 42.9583 32.6878 42.4752 43.9935 45.3734C55.4208 48.1508 64.4168 53.2225 64.4168 56.2414Z" fill="#181818"/>
<path opacity="0.3907" d="M64.0521 56.1205C63.9305 59.1394 54.813 59.3809 43.6288 56.4828C32.4446 53.7054 23.3271 48.8752 23.4487 45.8563C23.5702 42.8374 32.6878 42.4751 43.9935 45.2525C55.1777 48.1506 64.1737 53.1016 64.0521 56.1205Z" fill="#121212"/>
<path opacity="0.4005" d="M63.6874 56C63.5658 58.8981 54.5698 59.1396 43.5072 56.3622C32.4446 53.5848 23.5702 48.8754 23.5702 45.8565C23.6918 42.9583 32.6878 42.596 43.8719 45.3734C54.9345 48.2716 63.8089 53.1018 63.6874 56Z" fill="#0C0C0C"/>
<path opacity="0.4102" d="M63.4442 55.879C63.3227 58.7771 54.4482 58.8979 43.5072 56.1205C32.5662 53.3431 23.8134 48.7544 23.8134 45.8563C23.9349 42.9581 32.8093 42.7166 43.7504 45.494C54.6914 48.2714 63.4442 52.9808 63.4442 55.879Z" fill="#060606"/>
<path opacity="0.42" d="M63.0795 55.7581C62.958 58.6563 54.2051 58.6563 43.3857 55.9997C32.5662 53.2223 23.9349 48.7543 23.9349 45.8562C24.0565 42.958 32.8093 42.958 43.6288 45.6146C54.4483 48.392 63.2011 52.86 63.0795 55.7581Z" fill="black"/>
</g>
<path d="M90.0675 0.0898286C92.6204 -0.0309273 95.538 2.02192 98.0909 3.10873C101.373 4.43704 104.655 6.00689 108.059 6.97294C115.11 8.90503 122.04 9.99184 128.969 11.9239C131.887 12.7692 133.345 13.9768 134.804 17.841C136.263 21.5844 137.965 26.1731 136.263 29.9166C135.047 32.4524 131.887 33.9015 129.82 34.8676C128.604 35.4714 127.024 36.3166 125.687 36.3166C124.228 36.1959 123.742 35.2298 122.404 34.0223C120.095 31.9694 118.028 32.694 115.597 31.9694C112.8 31.2449 110.004 29.7958 107.208 28.8298C102.103 27.1392 97.2399 25.3278 92.1341 23.1542C89.7027 22.1882 87.2714 21.4637 84.84 20.3769C81.9224 19.1693 81.4362 16.6334 80.4637 12.89C78.8833 6.36915 82.1656 -2.5668 87.8792 0.693609L90.0675 0.0898286Z" fill="#FF9400"/>
<path opacity="0.3" d="M126.173 21.2221C125.079 22.9127 123.134 28.5882 124.349 31.7279C125.808 35.3506 130.063 32.8147 131.765 31.4864C134.561 29.4335 135.777 28.1052 134.561 22.9127C132.13 23.1542 131.522 28.709 128.726 28.709C127.267 24.9656 132.616 24.6033 132.008 21.2221C131.157 20.9806 130.306 21.3429 129.698 22.0674C130.306 21.4636 132.373 16.5127 131.4 15.5466C129.82 13.9768 127.024 20.1353 126.173 21.2221Z" fill="#944900"/>
<path opacity="0.3" d="M127.024 21.1013C125.322 24.1202 124.349 26.0523 125.322 30.3995C126.294 30.5203 126.659 31.1241 126.416 32.3316C129.82 32.6939 134.075 32.6939 135.534 27.9844C136.384 25.207 135.412 24.241 134.439 21.8258C133.71 19.773 133.224 16.1503 131.157 15.788C129.334 15.4258 127.996 19.4107 127.024 21.1013Z" fill="#944900"/>
<path opacity="0.3" d="M123.985 23.5168C123.255 25.5697 122.161 27.2602 122.647 29.7961C122.769 30.5206 123.742 33.298 124.106 33.9018C125.443 35.7131 125.322 35.1094 126.902 34.6263C129.941 33.6603 135.047 32.815 136.506 28.5885C137.6 25.4489 134.196 15.9092 131.887 14.0978C128.361 11.0789 125.079 20.1356 123.985 23.5168Z" fill="#944900"/>
<g style="mix-blend-mode:overlay" opacity="0.2">
<path d="M86.0557 6.24843C86.0557 6.73145 86.2989 7.21449 86.4204 7.69752C87.5145 7.69752 88.4871 7.33523 89.5812 7.33523C90.3106 9.8711 88.7302 12.407 89.338 15.3051C92.1341 15.9089 92.0125 10.3541 94.2007 9.75035C97.483 8.90505 96.0242 14.4599 96.2674 16.7542C98.9418 16.6335 102.467 15.1844 101.13 21.2222C102.103 21.3429 103.075 21.5844 104.048 21.4637C104.534 23.275 104.777 25.2071 105.142 27.0185C108.546 27.1392 108.181 19.4108 111.95 20.0146C112.922 22.5505 111.099 27.8638 114.989 25.9317C117.055 24.8449 117.177 20.2561 119.851 20.7391C120.338 21.9467 118.149 30.1581 120.581 29.0713C121.918 28.4675 121.553 21.4637 122.769 19.7731C123.498 18.5656 128.361 15.6674 125.322 13.7353C123.134 12.2862 121.553 17.358 119.244 16.9957C118.636 15.1844 119.973 14.3391 119.851 12.7692C118.393 12.89 117.055 13.1315 116.083 14.2183C115.353 11.8032 115.232 9.87112 113.165 10.1126C111.342 10.3541 110.126 13.0108 108.181 12.6485C107.938 11.5617 107.695 10.3541 107.452 9.14657C105.385 8.7843 103.44 11.0787 101.252 11.1994C101.008 9.38809 100.644 8.05979 99.4281 7.2145C98.8202 6.85223 97.9693 7.81828 97.2399 7.2145C96.5105 6.73148 96.5105 5.52389 95.9026 5.04087C93.4713 3.10877 91.2831 4.31634 88.9733 3.35029C89.2165 3.10878 89.4596 2.62576 89.5812 2.14273C85.5695 1.90122 80.7068 4.31633 83.3812 11.5617C83.2597 11.3202 85.9341 6.00692 86.0557 6.24843Z" fill="white"/>
</g>
<g style="mix-blend-mode:overlay" opacity="0.2">
<path d="M87.1498 2.86735C88.1224 5.76549 90.6753 4.19567 92.2556 4.07491C92.7419 6.12776 91.6478 8.18059 92.3772 10.3542C93.7144 10.475 94.4439 8.78439 95.538 8.30137C95.7811 9.99195 96.6321 11.1995 97.9693 11.0787C98.334 13.7354 100.279 13.3731 100.401 15.909C101.616 15.5467 102.224 16.7543 103.44 16.5128C104.534 16.2713 104.777 14.8222 106.114 15.0637C106.357 16.1505 106.601 17.3581 106.844 18.5656C108.667 18.9279 110.248 16.392 111.706 15.3052C111.706 15.6675 111.95 16.1505 112.071 16.6335C113.773 16.9958 114.867 15.1845 116.447 14.9429C116.569 15.3052 116.691 15.7882 116.812 16.2713C116.934 15.909 117.42 15.5467 117.663 15.3052C118.028 16.392 118.149 17.7203 118.393 18.8071C120.338 19.1694 120.945 16.2713 122.647 16.5128C122.891 17.8411 122.526 18.9279 122.283 20.1354C123.377 20.2562 124.471 17.7203 125.322 16.8751C126.416 15.7882 128.969 15.1844 128.24 12.7693C126.659 12.8901 125.2 14.2184 123.742 13.9769C123.742 13.3731 123.498 12.7693 123.62 12.0448C122.526 11.3203 121.432 11.8033 120.338 11.924C119.365 9.02591 117.42 11.0788 115.961 10.7165C115.11 10.475 115.11 9.26742 114.502 8.90515C113.651 8.42213 112.8 8.66362 111.95 8.54286C108.546 8.30135 105.506 8.66364 102.103 7.09381C99.3065 5.76549 96.5105 4.31643 93.7145 2.98811C91.1615 1.6598 82.7734 -1.47989 83.9891 5.52396C84.4754 5.28245 87.2714 3.10886 87.1498 2.86735Z" fill="white"/>
</g>
<g style="mix-blend-mode:overlay" opacity="0.2">
<path opacity="0.01" d="M144.286 38.4901C144.286 42.5958 130.671 43.6826 113.895 39.8184C97.1183 35.9542 83.6244 28.7088 83.6244 24.6031C83.6244 20.4974 97.7262 17.3578 114.502 21.2219C131.279 24.9654 144.408 34.3844 144.286 38.4901Z" fill="#F9F9F9"/>
<path opacity="0.019535" d="M144.043 38.2486C144.043 42.3543 130.549 43.3204 113.895 39.5769C97.2399 35.7127 83.8675 28.5881 83.8675 24.4824C83.8675 20.3767 97.8477 17.3578 114.502 21.222C131.157 24.9654 144.043 34.2637 144.043 38.2486Z" fill="#F3F3F3"/>
<path opacity="0.029302" d="M143.679 38.1283C143.679 42.1133 130.306 43.2001 113.773 39.3359C97.3615 35.5925 83.9891 28.4679 84.1107 24.3622C84.1107 20.3772 97.9693 17.3583 114.502 21.1018C130.914 25.0867 143.679 34.1434 143.679 38.1283Z" fill="#EDEDED"/>
<path opacity="0.03907" d="M143.314 38.0073C143.314 41.9922 130.063 42.9583 113.651 39.2149C97.3615 35.4714 84.1106 28.4676 84.2322 24.4826C84.2322 20.4977 97.9693 17.5995 114.381 21.3429C130.671 25.0864 143.314 34.1431 143.314 38.0073Z" fill="#E7E7E7"/>
<path opacity="0.048837" d="M142.949 37.8867C142.949 41.8717 129.82 42.8377 113.53 39.0943C97.3614 35.3509 84.2322 28.347 84.3537 24.4828C84.3537 20.4979 97.9693 17.7205 114.138 21.4639C130.428 25.0866 143.071 34.0225 142.949 37.8867Z" fill="#E1E1E1"/>
<path opacity="0.058605" d="M142.706 37.7659C142.706 41.6301 129.577 42.5961 113.651 38.8527C97.6046 35.23 84.7185 28.2262 84.7185 24.362C84.7185 20.4978 98.2124 17.7204 114.259 21.3431C130.185 25.2073 142.706 33.9017 142.706 37.7659Z" fill="#DBDBDB"/>
<path opacity="0.068372" d="M142.341 37.6451C142.341 41.5092 129.334 42.3545 113.53 38.7318C97.6046 35.1092 84.84 28.2261 84.84 24.3619C84.84 20.4977 98.2124 17.8411 114.138 21.4638C129.941 25.2072 142.341 33.7809 142.341 37.6451Z" fill="#D5D5D5"/>
<path opacity="0.078139" d="M141.977 37.5238C141.977 41.2673 129.09 42.2334 113.408 38.6107C97.6046 34.988 84.9616 28.2256 84.9616 24.4822C84.9616 20.7388 98.2124 18.0822 114.016 21.7048C129.82 25.3275 142.098 33.7804 141.977 37.5238Z" fill="#D0D0D0"/>
<path opacity="0.087907" d="M141.733 37.4035C141.733 41.147 128.969 41.9922 113.408 38.4903C97.8477 34.8676 85.2047 28.226 85.2047 24.4826C85.2047 20.7392 98.334 18.2033 114.016 21.826C129.577 25.3279 141.733 33.6601 141.733 37.4035Z" fill="#CACACA"/>
<path opacity="0.097674" d="M141.369 37.2827C141.369 41.0261 128.726 41.8714 113.287 38.2487C97.8477 34.7468 85.3263 28.1052 85.3263 24.3618C85.3263 20.6184 98.334 18.2033 113.773 21.7052C129.334 25.3279 141.369 33.5393 141.369 37.2827Z" fill="#C4C4C4"/>
<path opacity="0.1074" d="M141.004 37.1618C141.004 40.7845 128.483 41.6298 113.165 38.1279C97.8477 34.6259 85.4479 28.1051 85.4479 24.4825C85.4479 20.8598 98.334 18.4447 113.651 21.9466C129.09 25.4485 141.126 33.5392 141.004 37.1618Z" fill="#BEBEBE"/>
<path opacity="0.1172" d="M140.761 37.0411C140.761 40.6637 128.361 41.509 113.165 38.0071C97.9693 34.5052 85.691 28.1051 85.691 24.4824C85.691 20.8598 98.4556 18.5654 113.651 22.0673C128.847 25.4485 140.761 33.4184 140.761 37.0411Z" fill="#B8B8B8"/>
<path opacity="0.127" d="M140.396 36.9203C140.396 40.543 128.118 41.2676 113.044 37.7656C97.9693 34.2637 85.8126 27.9844 85.8126 24.3617C85.8126 20.739 98.4556 18.5654 113.53 21.9466C128.604 25.4485 140.396 33.2977 140.396 36.9203Z" fill="#B2B2B2"/>
<path opacity="0.1367" d="M140.032 36.7995C140.032 40.3014 127.875 41.026 112.922 37.6448C97.9693 34.2636 85.9341 27.9843 86.0557 24.3616C86.0557 20.8597 98.5771 18.6861 113.408 22.0673C128.361 25.5692 140.153 33.1768 140.032 36.7995Z" fill="#ACACAC"/>
<path opacity="0.1465" d="M139.788 36.6791C139.788 40.181 127.753 40.9055 112.922 37.5243C98.2124 34.1432 86.1773 27.9846 86.2988 24.4827C86.2988 20.9808 98.6987 18.9279 113.408 22.3091C128.239 25.5695 139.788 33.1771 139.788 36.6791Z" fill="#A6A6A6"/>
<path opacity="0.1563" d="M139.424 36.5581C139.424 40.06 127.51 40.6638 112.922 37.2827C98.334 33.9015 86.4204 27.8637 86.542 24.3618C86.542 20.8598 98.8202 18.9278 113.408 22.3089C127.996 25.5693 139.424 33.0562 139.424 36.5581Z" fill="#A0A0A0"/>
<path opacity="0.166" d="M139.059 36.4376C139.059 39.8187 127.267 40.5433 112.8 37.1621C98.334 33.781 86.542 27.8639 86.6635 24.362C86.6635 20.9808 98.8203 19.0487 113.287 22.3091C127.753 25.6903 139.181 32.9357 139.059 36.4376Z" fill="#9A9A9A"/>
<path opacity="0.1758" d="M138.816 36.3167C138.816 39.6979 127.145 40.3017 112.8 37.0413C98.4555 33.7809 86.9067 27.8638 86.9067 24.3619C86.9067 20.9807 98.9418 19.1694 113.287 22.4298C127.51 25.6902 138.816 32.9356 138.816 36.3167Z" fill="#949494"/>
<path opacity="0.1856" d="M138.451 36.1958C138.451 39.577 126.902 40.1807 112.679 36.9203C98.4556 33.6599 87.0283 27.7429 87.0283 24.4825C87.0283 21.1013 98.9418 19.4107 113.044 22.6711C127.267 25.8108 138.451 32.8146 138.451 36.1958Z" fill="#8E8E8E"/>
<path opacity="0.1953" d="M138.086 36.0751C138.086 39.3355 126.659 39.9393 112.557 36.6789C98.4556 33.4185 87.1498 27.6222 87.1498 24.3618C87.1498 21.1014 98.9418 19.4108 112.922 22.5504C127.024 25.8109 138.208 32.694 138.086 36.0751Z" fill="#888888"/>
<path opacity="0.2051" d="M137.843 35.9544C137.843 39.2148 126.538 39.6979 112.557 36.5582C98.5771 33.4186 87.3929 27.6223 87.3929 24.3618C87.3929 21.1014 99.0634 19.5316 112.922 22.6713C126.902 25.8109 137.843 32.5733 137.843 35.9544Z" fill="#828282"/>
<path opacity="0.2149" d="M137.479 35.7129C137.479 38.9733 126.294 39.4563 112.436 36.3166C98.6987 33.177 87.5145 27.5015 87.5145 24.3618C87.5145 21.1014 98.9418 19.6523 112.8 22.792C126.659 25.9316 137.479 32.5732 137.479 35.7129Z" fill="#7D7D7D"/>
<path opacity="0.2247" d="M137.114 35.5922C137.114 38.7318 126.051 39.2148 112.314 36.0752C98.6987 32.9355 87.6361 27.3807 87.6361 24.2411C87.6361 21.1014 98.9418 19.6524 112.679 22.792C126.416 25.9317 137.235 32.4525 137.114 35.5922Z" fill="#777777"/>
<path opacity="0.2344" d="M136.871 35.4716C136.871 38.6112 125.808 39.0943 112.314 35.9546C98.8203 32.815 87.8792 27.3809 87.8792 24.2413C87.8792 21.1016 99.0634 19.7733 112.557 22.7922C126.173 25.9319 136.871 32.3319 136.871 35.4716Z" fill="#717171"/>
<path opacity="0.2442" d="M136.506 35.3503C136.506 38.49 125.565 38.8522 112.314 35.8333C98.9418 32.8144 88.1223 27.3804 88.1223 24.2408C88.1223 21.1011 99.185 19.8936 112.557 22.9125C125.93 26.0521 136.506 32.3314 136.506 35.3503Z" fill="#6B6B6B"/>
<path opacity="0.254" d="M136.141 35.2297C136.141 38.2486 125.322 38.7317 112.193 35.592C98.9418 32.5731 88.2439 27.2598 88.3655 24.2409C88.3655 21.222 99.3065 20.0144 112.557 23.0333C125.687 26.0522 136.263 32.2108 136.141 35.2297Z" fill="#656565"/>
<path opacity="0.2637" d="M135.898 35.1092C135.898 38.1281 125.2 38.4904 112.193 35.4715C99.0634 32.4526 88.487 27.2601 88.6086 24.2412C88.6086 21.2223 99.4281 20.1355 112.557 23.0336C125.565 26.0525 135.898 32.0903 135.898 35.1092Z" fill="#5F5F5F"/>
<path opacity="0.2735" d="M135.534 34.9883C135.534 38.0072 124.957 38.2487 112.071 35.3506C99.185 32.3317 88.6086 27.2599 88.7302 24.241C88.7302 21.2221 99.4281 20.1353 112.436 23.1542C125.322 26.1731 135.534 31.9694 135.534 34.9883Z" fill="#595959"/>
<path opacity="0.2833" d="M135.169 34.8674C135.169 37.7656 124.714 38.1278 111.95 35.2297C99.185 32.3315 88.8518 27.2598 88.8518 24.2409C88.8518 21.3427 99.4281 20.2559 112.193 23.2748C125.079 26.173 135.29 31.9693 135.169 34.8674Z" fill="#535353"/>
<path opacity="0.293" d="M134.926 34.747C134.926 37.6451 124.592 37.8867 111.95 34.9885C99.3065 32.0904 89.0949 27.1393 89.0949 24.2412C89.0949 21.3431 99.5496 20.377 112.193 23.3959C124.836 26.2941 134.926 31.8488 134.926 34.747Z" fill="#4D4D4D"/>
<path opacity="0.3028" d="M134.561 34.6262C134.561 37.5244 124.349 37.7659 111.828 34.8677C99.3065 31.9696 89.2165 27.1393 89.2165 24.2412C89.2165 21.3431 99.5497 20.4978 112.071 23.3959C124.593 26.2941 134.561 31.7281 134.561 34.6262Z" fill="#474747"/>
<path opacity="0.3126" d="M134.196 34.5054C134.196 37.2828 124.106 37.5243 111.706 34.7469C99.3065 31.8488 89.338 27.1393 89.338 24.2412C89.338 21.4638 99.5497 20.6185 111.95 23.5166C124.349 26.294 134.318 31.728 134.196 34.5054Z" fill="#414141"/>
<path opacity="0.3223" d="M133.953 34.3847C133.953 37.1621 123.985 37.4036 111.706 34.5054C99.4281 31.728 89.5812 26.8978 89.5812 24.1204C89.5812 21.343 99.6712 20.6185 111.95 23.5166C124.106 26.4148 133.953 31.6073 133.953 34.3847Z" fill="#3B3B3B"/>
<path opacity="0.3321" d="M133.588 34.2637C133.588 37.041 123.742 37.1618 111.585 34.3844C99.4281 31.607 89.7027 26.8975 89.7027 24.2409C89.7027 21.4635 99.6712 20.8597 111.706 23.6371C123.985 26.4145 133.588 31.4863 133.588 34.2637Z" fill="#353535"/>
<path opacity="0.3419" d="M133.224 34.1431C133.224 36.7998 123.498 36.9205 111.585 34.2639C99.6712 31.4865 89.9459 26.8978 89.9459 24.2411C89.9459 21.5845 99.7928 20.9807 111.706 23.7581C123.742 26.4147 133.345 31.3657 133.224 34.1431Z" fill="#2F2F2F"/>
<path opacity="0.3516" d="M132.981 34.0223C132.981 36.6789 123.377 36.7997 111.585 34.0223C99.7928 31.3657 90.189 26.777 90.189 24.1203C90.189 21.4637 99.9144 20.9807 111.706 23.758C123.498 26.5354 132.981 31.3657 132.981 34.0223Z" fill="#2A2A2A"/>
<path opacity="0.3614" d="M132.616 33.9017C132.616 36.5583 123.134 36.5583 111.463 33.9017C99.7928 31.245 90.3106 26.7771 90.4321 24.2412C90.4321 21.5846 100.036 21.2223 111.706 23.8789C123.255 26.5356 132.616 31.245 132.616 33.9017Z" fill="#242424"/>
<path opacity="0.3712" d="M132.251 33.7808C132.251 36.3166 122.891 36.4374 111.342 33.7808C99.7928 31.1241 90.4321 26.7769 90.5537 24.241C90.5537 21.7051 100.036 21.3429 111.585 23.9995C123.012 26.5354 132.373 31.1241 132.251 33.7808Z" fill="#1E1E1E"/>
<path opacity="0.3809" d="M132.008 33.6602C132.008 36.1961 122.769 36.1961 111.342 33.5395C99.9144 30.8829 90.6753 26.6564 90.7968 24.1205C90.7968 21.5847 100.158 21.3431 111.463 23.9998C122.769 26.6564 132.008 31.1244 132.008 33.6602Z" fill="#181818"/>
<path opacity="0.3907" d="M131.643 33.5393C131.643 36.0751 122.526 36.0751 111.22 33.4185C99.9144 30.8826 90.9184 26.6562 90.9184 24.1203C90.9184 21.5844 100.158 21.4637 111.342 24.1203C122.647 26.6562 131.643 31.0034 131.643 33.5393Z" fill="#121212"/>
<path opacity="0.4005" d="M131.279 33.4184C131.279 35.8335 122.283 35.8335 111.099 33.2976C100.036 30.7618 91.04 26.6561 91.04 24.2409C91.04 21.8258 100.158 21.7051 111.22 24.2409C122.404 26.7768 131.279 30.8825 131.279 33.4184Z" fill="#0C0C0C"/>
<path opacity="0.4102" d="M131.036 33.1772C131.036 35.5923 122.04 35.4716 111.099 33.0564C100.157 30.5206 91.2831 26.5356 91.2831 24.1205C91.2831 21.7054 100.279 21.7054 111.22 24.2412C122.161 26.7771 131.036 30.7621 131.036 33.1772Z" fill="#060606"/>
<path opacity="0.42" d="M130.671 33.0565C130.671 35.4717 121.796 35.3509 110.977 32.815C100.157 30.2791 91.4047 26.415 91.4047 23.9998C91.4047 21.5847 100.279 21.7055 111.099 24.2413C121.918 26.7772 130.671 30.7622 130.671 33.0565Z" fill="black"/>
</g>
<path d="M79.6127 14.9426C82.1656 14.8218 85.0832 16.8747 87.6361 17.9615C90.9184 19.2898 94.2007 20.8596 97.6046 21.8257C104.655 23.7578 111.585 24.8446 118.514 26.7767C121.432 27.622 122.891 28.8295 124.349 32.6937C125.808 36.4371 127.51 41.0259 125.808 44.7693C124.592 47.3052 121.432 48.7543 119.365 49.7203C118.149 50.3241 116.569 51.1694 115.232 51.1694C113.773 51.0486 113.287 50.0826 111.95 48.9958C109.64 46.9429 107.573 47.6675 105.142 46.9429C102.346 46.2184 99.5497 44.7693 96.7536 43.8033C91.6478 42.1127 86.7851 40.3013 81.6793 38.1277C79.248 37.1617 76.8166 36.4372 74.3853 35.3504C71.4677 34.1428 70.9814 31.6069 70.0089 27.8635C68.4285 21.3426 71.7108 12.4067 77.4245 15.6671L79.6127 14.9426Z" fill="#FF9400"/>
<path opacity="0.3" d="M115.84 36.0752C114.746 37.7658 112.8 43.4413 114.016 46.5809C115.475 50.2036 119.73 47.6678 121.432 46.3394C124.228 44.2866 125.443 42.9583 124.228 37.7658C121.796 37.8865 121.189 43.562 118.393 43.562C116.934 39.8186 122.283 39.4563 121.675 36.0752C120.824 35.8337 119.973 36.1959 119.365 36.9204C119.973 36.3167 122.04 31.3657 121.067 30.3996C119.365 28.8298 116.569 34.9884 115.84 36.0752Z" fill="#944900"/>
<path opacity="0.3" d="M116.569 35.9546C114.867 38.9735 113.773 40.9056 114.867 45.2528C115.84 45.3735 116.204 45.9773 115.961 47.1849C119.365 47.5471 123.62 47.5472 125.079 42.8377C125.93 40.0603 124.957 39.215 123.985 36.6791C123.255 34.6263 122.769 31.0036 120.702 30.6413C118.879 30.279 117.542 34.264 116.569 35.9546Z" fill="#944900"/>
<path opacity="0.3" d="M113.53 38.3695C112.8 40.4223 111.706 42.1129 112.193 44.6488C112.314 45.3733 113.287 48.1507 113.651 48.7545C114.989 50.5658 114.867 49.9621 116.447 49.479C119.487 48.513 124.593 47.6677 126.051 43.4412C127.145 40.3016 123.742 30.7619 121.432 28.9505C117.906 26.0524 114.624 35.1091 113.53 38.3695Z" fill="#944900"/>
<g style="mix-blend-mode:overlay" opacity="0.2">
<path d="M75.601 21.2219C75.601 21.7049 75.8441 22.188 75.9657 22.671C77.0598 22.671 78.0323 22.3087 79.1264 22.3087C79.8558 24.8446 78.2754 27.3805 78.8833 30.2786C81.6793 30.8824 81.5577 25.3276 83.7459 24.7239C87.0283 23.8786 85.5695 29.4333 85.8126 31.7277C88.4871 31.6069 92.0125 30.1579 90.6753 36.1957C91.6478 36.3164 92.6203 36.5579 93.5929 36.4372C94.0792 38.2485 94.3223 40.1806 94.687 41.9919C98.0909 42.1127 97.7262 34.3843 101.495 34.9881C102.467 37.524 100.644 42.8372 104.534 40.9052C106.601 39.8183 106.722 35.2296 109.397 35.7126C109.883 36.9202 107.695 45.1316 110.126 44.0448C111.463 43.441 111.099 36.4372 112.314 34.7466C113.044 33.539 117.906 30.6409 114.867 28.7088C112.679 27.2597 111.099 32.3315 108.789 31.9692C108.181 30.1579 109.518 29.3126 109.397 27.7428C107.938 27.8635 106.601 28.105 105.628 29.1918C104.899 26.7767 104.777 24.8446 102.71 25.0861C100.887 25.3276 99.6712 27.9843 97.7262 27.622C97.483 26.5352 97.2399 25.3276 96.9967 24.1201C94.9301 23.7578 92.9851 26.0522 90.7969 26.1729C90.5537 24.3616 90.189 23.0333 88.9733 22.3087C88.3655 21.9465 87.5145 22.7918 86.6635 22.3087C85.9341 21.8257 85.9342 20.6181 85.3263 20.1351C82.895 18.203 80.7068 19.4106 78.397 18.4445C78.6401 18.203 78.8833 17.72 79.0048 17.237C74.9931 16.9955 70.1304 19.4106 72.8049 26.6559C72.8049 26.2937 75.4794 20.8596 75.601 21.2219Z" fill="white"/>
</g>
<g style="mix-blend-mode:overlay" opacity="0.2">
<path opacity="0.01" d="M132.008 52.8604C132.13 56 118.514 56.4831 101.738 53.1019C84.9616 49.6 71.2245 43.5622 71.2245 40.4225C71.103 37.2829 85.0832 35.1093 101.981 38.6112C118.757 41.9924 132.008 49.6 132.008 52.8604Z" fill="#F9F9F9"/>
<path opacity="0.019535" d="M131.643 52.7395C131.765 55.8792 118.271 56.3622 101.616 52.981C84.9616 49.5999 71.4677 43.5621 71.3461 40.4224C71.2246 37.2828 85.0832 35.2299 101.738 38.6111C118.514 41.9922 131.643 49.5999 131.643 52.7395Z" fill="#F3F3F3"/>
<path opacity="0.029302" d="M131.4 52.6185C131.522 55.7582 118.149 56.2412 101.616 52.86C85.0832 49.4789 71.7108 43.5618 71.5892 40.4222C71.4676 37.2825 85.2047 35.3504 101.738 38.7316C118.271 41.992 131.279 49.4788 131.4 52.6185Z" fill="#EDEDED"/>
<path opacity="0.03907" d="M131.036 52.4981C131.157 55.6378 117.906 56 101.495 52.6189C85.0832 49.2377 71.8324 43.4414 71.7108 40.3018C71.5892 37.1621 85.2048 35.23 101.616 38.6112C118.028 41.9924 130.914 49.4792 131.036 52.4981Z" fill="#E7E7E7"/>
<path opacity="0.048837" d="M130.671 52.3774C130.792 55.3963 117.663 55.8793 101.495 52.4982C85.3263 49.117 72.0755 43.3207 71.9539 40.3018C71.8324 37.2829 85.3263 35.3508 101.616 38.7319C117.785 42.1131 130.671 49.3585 130.671 52.3774Z" fill="#E1E1E1"/>
<path opacity="0.058605" d="M130.428 52.2565C130.549 55.2754 117.542 55.6377 101.495 52.3773C85.4479 49.1169 72.3186 43.3206 72.1971 40.3017C72.0755 37.2828 85.4479 35.4714 101.616 38.7318C117.663 42.113 130.306 49.2376 130.428 52.2565Z" fill="#DBDBDB"/>
<path opacity="0.068372" d="M130.063 52.2563C130.185 55.2752 117.298 55.6375 101.373 52.377C85.4479 49.1166 72.4402 43.4411 72.4402 40.4222C72.3187 37.4033 85.5695 35.7127 101.495 38.9731C117.42 42.1128 129.941 49.2374 130.063 52.2563Z" fill="#D5D5D5"/>
<path opacity="0.078139" d="M129.698 52.1355C129.82 55.1544 117.055 55.5167 101.252 52.2563C85.4478 48.9959 72.5618 43.4411 72.5618 40.4222C72.4402 37.4033 85.5694 35.7127 101.373 38.9731C117.177 42.1128 129.698 49.1166 129.698 52.1355Z" fill="#D0D0D0"/>
<path opacity="0.087907" d="M129.455 52.015C129.577 54.9132 116.934 55.2754 101.252 52.015C85.5694 48.7546 72.8049 43.1998 72.8049 40.3017C72.6833 37.4036 85.691 35.713 101.373 38.9734C116.934 42.2338 129.334 48.9961 129.455 52.015Z" fill="#CACACA"/>
<path opacity="0.097674" d="M129.09 51.8943C129.212 54.7924 116.691 55.1547 101.13 51.8943C85.5695 48.7547 72.9265 43.1999 72.9265 40.3017C72.8049 37.4036 85.691 35.8337 101.252 38.9734C116.691 42.2338 128.969 48.9962 129.09 51.8943Z" fill="#C4C4C4"/>
<path opacity="0.1074" d="M128.726 51.7736C128.847 54.6718 116.326 54.9133 101.008 51.7736C85.691 48.634 73.1696 43.2 73.048 40.3018C72.9265 37.4037 85.691 35.9546 101.13 39.0942C116.448 42.2339 128.726 48.8755 128.726 51.7736Z" fill="#BEBEBE"/>
<path opacity="0.1172" d="M128.483 51.6529C128.604 54.551 116.204 54.7925 101.008 51.6529C85.8126 48.5132 73.4127 43.2 73.2912 40.3018C73.1696 37.4037 85.8126 35.9546 101.13 39.0942C116.326 42.2339 128.361 48.7547 128.483 51.6529Z" fill="#B8B8B8"/>
<path opacity="0.127" d="M128.118 51.5319C128.239 54.3093 115.961 54.5508 100.887 51.5319C85.8126 48.3923 73.5343 43.1998 73.4127 40.3016C73.4127 37.5243 85.8126 36.0752 100.887 39.2148C116.083 42.3545 127.996 48.7545 128.118 51.5319Z" fill="#B2B2B2"/>
<path opacity="0.1367" d="M127.753 51.411C127.753 54.1884 115.718 54.4299 100.765 51.411C85.8126 48.3921 73.6559 43.0789 73.5343 40.3015C73.5343 37.5241 85.8126 36.1958 100.765 39.2147C115.84 42.3543 127.753 48.6336 127.753 51.411Z" fill="#ACACAC"/>
<path opacity="0.1465" d="M127.389 51.2905C127.389 54.0679 115.475 54.3094 100.644 51.1697C85.8126 48.1508 73.7774 42.9583 73.6559 40.1809C73.6559 37.4035 85.8126 36.196 100.644 39.2149C115.597 42.3546 127.389 48.6339 127.389 51.2905Z" fill="#A6A6A6"/>
<path opacity="0.1563" d="M127.145 51.1697C127.145 53.9471 115.353 54.0679 100.644 51.049C85.9341 48.0301 74.0206 42.9583 74.0206 40.1809C74.0206 37.4035 86.0557 36.196 100.765 39.2149C115.353 42.3546 127.024 48.5131 127.145 51.1697Z" fill="#A0A0A0"/>
<path opacity="0.166" d="M126.781 51.1698C126.781 53.8264 115.11 54.0679 100.644 51.049C86.1773 48.0301 74.2637 43.0792 74.2637 40.3018C74.2637 37.6451 86.1773 36.4376 100.765 39.4565C115.232 42.4754 126.781 48.3924 126.781 51.1698Z" fill="#9A9A9A"/>
<path opacity="0.1758" d="M126.416 51.0492C126.416 53.7058 114.867 53.8266 100.522 50.9284C86.1773 48.0303 74.3853 43.0793 74.3853 40.4227C74.3853 37.766 86.1773 36.6792 100.644 39.5774C114.989 42.4755 126.416 48.3925 126.416 51.0492Z" fill="#949494"/>
<path opacity="0.1856" d="M126.173 50.9282C126.173 53.5849 114.746 53.7056 100.522 50.8075C86.2989 47.9093 74.6284 42.9584 74.6284 40.4225C74.6284 37.7658 86.2989 36.679 100.522 39.6979C114.746 42.4753 126.051 48.2716 126.173 50.9282Z" fill="#8E8E8E"/>
<path opacity="0.1953" d="M125.808 50.8075C125.808 53.3434 114.502 53.4642 100.401 50.6868C86.2989 47.7886 74.75 42.9584 74.75 40.4225C74.75 37.8867 86.2989 36.7998 100.401 39.698C114.502 42.4754 125.808 48.1509 125.808 50.8075Z" fill="#888888"/>
<path opacity="0.2051" d="M125.443 50.6868C125.443 53.2226 114.259 53.3434 100.279 50.4452C86.2989 47.5471 74.9931 42.8376 74.8716 40.3017C74.8716 37.7659 86.2989 36.7998 100.279 39.698C114.259 42.4754 125.443 48.1509 125.443 50.6868Z" fill="#828282"/>
<path opacity="0.2149" d="M125.2 50.5658C125.2 53.1017 114.138 53.2224 100.279 50.3243C86.4204 47.4261 75.2362 42.8374 75.1147 40.3015C75.1147 37.7657 86.4204 36.9204 100.279 39.6977C114.016 42.5959 125.079 48.0299 125.2 50.5658Z" fill="#7D7D7D"/>
<path opacity="0.2247" d="M124.836 50.4452C124.836 52.9811 113.895 52.981 100.157 50.2037C86.4204 47.4263 75.3578 42.7168 75.2362 40.3017C75.2362 37.7658 86.4204 36.9205 100.157 39.8187C113.895 42.5961 124.714 48.0301 124.836 50.4452Z" fill="#777777"/>
<path opacity="0.2344" d="M124.471 50.3246C124.471 52.7397 113.651 52.8605 100.036 50.0831C86.542 47.3057 75.4794 42.7169 75.3578 40.3018C75.3578 37.8867 86.4204 37.0414 100.036 39.8188C113.651 42.5962 124.471 47.9094 124.471 50.3246Z" fill="#717171"/>
<path opacity="0.2442" d="M124.228 50.2035C124.228 52.6186 113.408 52.6186 100.036 49.962C86.6635 47.1846 75.7225 42.7166 75.7225 40.3015C75.7225 37.8864 86.6635 37.1618 100.036 39.9392C113.408 42.5959 124.106 47.7884 124.228 50.2035Z" fill="#6B6B6B"/>
<path opacity="0.254" d="M123.863 50.2038C123.863 52.6189 113.165 52.6189 99.9144 49.8415C86.6636 47.0641 75.8441 42.7169 75.8441 40.3018C75.8441 37.8867 86.6636 37.2829 99.9144 39.9395C113.165 42.7169 123.742 47.7887 123.863 50.2038Z" fill="#656565"/>
<path opacity="0.2637" d="M123.498 50.0829C123.498 52.4981 112.922 52.498 99.7928 49.7207C86.6636 47.064 75.9657 42.7168 75.9657 40.3017C75.9657 37.8866 86.6636 37.2828 99.7928 40.0602C112.922 42.7168 123.498 47.6678 123.498 50.0829Z" fill="#5F5F5F"/>
<path opacity="0.2735" d="M123.134 49.9623C123.134 52.2567 112.679 52.2567 99.7928 49.6C86.7851 46.9434 76.2088 42.5962 76.2088 40.3018C76.2088 38.0075 86.7851 37.4037 99.7928 40.0603C112.679 42.7169 123.134 47.5472 123.134 49.9623Z" fill="#595959"/>
<path opacity="0.2833" d="M122.891 49.8413C122.891 52.1356 112.557 52.1357 99.7928 49.479C86.9067 46.8224 76.4519 42.5959 76.4519 40.3016C76.4519 38.0072 86.9067 37.5242 99.7928 40.1808C112.557 42.7167 122.769 47.5469 122.891 49.8413Z" fill="#535353"/>
<path opacity="0.293" d="M122.526 49.7207C122.526 52.0151 112.314 51.8943 99.6712 49.3585C87.0283 46.7018 76.6951 42.5961 76.5735 40.3018C76.5735 38.0074 86.9067 37.6451 99.5497 40.181C112.314 42.8376 122.526 47.4264 122.526 49.7207Z" fill="#4D4D4D"/>
<path opacity="0.3028" d="M122.161 49.5999C122.161 51.8943 112.071 51.7735 99.5497 49.2377C87.0282 46.7018 76.8166 42.5961 76.6951 40.3017C76.6951 38.0074 86.9067 37.6451 99.4281 40.3017C112.071 42.8376 122.161 47.4263 122.161 49.5999Z" fill="#474747"/>
<path opacity="0.3126" d="M121.918 49.4792C121.918 51.6528 111.95 51.5321 99.5497 48.9962C87.1498 46.4603 77.0597 42.3546 76.9382 40.181C76.9382 38.0074 87.0282 37.6451 99.4281 40.181C111.828 42.8376 121.796 47.3056 121.918 49.4792Z" fill="#414141"/>
<path opacity="0.3223" d="M121.553 49.3585C121.553 51.5321 111.706 51.4114 99.4281 48.8755C87.1498 46.3396 77.1813 42.3547 77.0597 40.1811C77.0597 38.0075 87.0283 37.7659 99.3065 40.3018C111.585 42.8377 121.553 47.1849 121.553 49.3585Z" fill="#3B3B3B"/>
<path opacity="0.3321" d="M121.189 49.2374C121.189 51.411 111.463 51.2902 99.3065 48.7543C87.1498 46.2185 77.3029 42.3543 77.3029 40.1807C77.3029 38.007 87.1498 37.8863 99.3065 40.3014C111.463 42.9581 121.189 47.1845 121.189 49.2374Z" fill="#353535"/>
<path opacity="0.3419" d="M120.945 49.2376C120.945 51.2905 111.342 51.1697 99.3065 48.7546C87.2714 46.3395 77.546 42.4753 77.546 40.3017C77.546 38.2488 87.2714 38.0073 99.3065 40.5432C111.22 42.9583 120.824 47.064 120.945 49.2376Z" fill="#2F2F2F"/>
<path opacity="0.3516" d="M120.581 49.117C120.581 51.1699 111.099 51.0492 99.185 48.634C87.393 46.2189 77.6676 42.4755 77.6676 40.3019C77.6676 38.249 87.2714 38.1282 99.0634 40.5434C110.977 42.9585 120.581 46.9434 120.581 49.117Z" fill="#2A2A2A"/>
<path opacity="0.3614" d="M120.216 48.9961C120.216 51.049 110.855 50.8075 99.0634 48.3924C87.393 45.9772 77.7892 42.2338 77.7892 40.181C77.7892 38.1281 87.2714 38.1281 98.9418 40.5432C110.734 42.9583 120.216 46.9433 120.216 48.9961Z" fill="#242424"/>
<path opacity="0.3712" d="M119.973 48.8754C119.973 50.9282 110.734 50.6867 99.0634 48.2716C87.5145 45.8565 78.0323 42.2338 78.0323 40.1809C78.0323 38.1281 87.3929 38.2488 98.9418 40.5432C110.491 42.9583 119.851 46.8225 119.973 48.8754Z" fill="#1E1E1E"/>
<path opacity="0.3809" d="M119.608 48.7546C119.608 50.6867 110.369 50.4452 98.9418 48.1508C87.5145 45.8565 78.2754 42.2338 78.1538 40.3017C78.1538 38.3696 87.3929 38.3696 98.8202 40.7847C110.248 43.0791 119.608 46.8225 119.608 48.7546Z" fill="#181818"/>
<path opacity="0.3907" d="M119.244 48.6341C119.244 50.5662 110.126 50.3247 98.9418 48.0303C87.6361 45.736 78.5186 42.234 78.397 40.3019C78.397 38.3698 87.5145 38.4906 98.8202 40.785C110.126 43.0793 119.244 46.702 119.244 48.6341Z" fill="#121212"/>
<path opacity="0.4005" d="M118.879 48.5132C118.879 50.4453 109.883 50.2038 98.8203 47.9094C87.6361 45.615 78.6401 42.2339 78.5186 40.3018C78.5186 38.3697 87.5145 38.6112 98.6987 40.9056C109.883 43.0792 118.879 46.5811 118.879 48.5132Z" fill="#0C0C0C"/>
<path opacity="0.4102" d="M118.636 48.3924C118.636 50.3245 109.761 49.9623 98.8202 47.7886C87.7576 45.4943 78.8832 42.1131 78.8832 40.3018C78.8832 38.3697 87.7577 38.6112 98.6987 40.9056C109.64 43.0792 118.514 46.5811 118.636 48.3924Z" fill="#060606"/>
<path opacity="0.42" d="M118.271 48.2713C118.271 50.0826 109.518 49.8411 98.6987 47.5467C87.8792 45.3731 79.0048 41.992 79.0048 40.1806C79.0048 38.3693 87.7577 38.6108 98.5771 40.9052C109.397 43.1995 118.271 46.4599 118.271 48.2713Z" fill="black"/>
</g>
<path d="M56.5149 21.4636C59.0678 21.3429 61.9854 23.3957 64.5383 24.4825C67.8207 25.8108 71.1029 27.3807 74.5068 28.3467C81.5577 30.2788 88.4871 31.3656 95.4164 33.2977C98.334 34.143 99.7928 35.3506 101.252 39.2148C102.71 42.9582 104.412 47.5469 102.71 51.2904C101.495 53.8262 98.334 55.2753 96.2674 56.2413C95.0517 56.8451 93.4713 57.6904 92.1341 57.6904C90.6752 57.5696 90.189 56.6036 88.8518 55.396C86.542 53.3432 84.4753 54.0677 82.044 53.3432C79.248 52.6186 76.4519 51.1696 73.6559 50.2035C68.5501 48.5129 63.6874 46.7016 58.5816 44.528C56.1502 43.562 53.7189 42.8374 51.2875 41.7506C48.3699 40.543 47.8836 38.0072 46.9111 34.2638C45.3307 27.7429 48.6131 18.807 54.3267 22.0674L56.5149 21.4636Z" fill="#FF9400"/>
<path opacity="0.3" d="M92.6204 42.5957C91.5263 44.2863 89.5812 49.9618 90.7969 53.1015C92.2557 56.7241 96.5105 54.1883 98.2124 52.8599C101.008 50.8071 102.224 49.4788 101.008 44.2863C98.5771 44.5278 97.9693 50.0826 95.1732 50.0826C93.7144 46.3391 99.0634 45.9769 98.4556 42.5957C97.6046 42.3542 96.7536 42.7165 96.1458 43.441C96.7536 42.8372 98.8203 37.8862 97.8477 36.9201C96.2674 35.3503 93.4713 41.5089 92.6204 42.5957Z" fill="#944900"/>
<path opacity="0.3" d="M93.4713 42.3543C91.7694 45.3732 90.7968 47.3053 91.7694 51.6525C92.7419 51.7733 93.1066 52.3771 92.8635 53.5846C96.1458 53.9469 100.522 53.9469 101.981 49.2374C102.832 46.46 101.859 45.6147 100.887 43.0788C100.158 41.026 99.6712 37.4033 97.6046 37.041C95.7811 36.7995 94.4438 40.7845 93.4713 42.3543Z" fill="#944900"/>
<path opacity="0.3" d="M90.4321 44.8903C89.7027 46.9432 88.6086 48.6338 89.0949 51.1696C89.2165 51.8942 90.189 54.6716 90.5537 55.2753C91.891 57.0867 91.7694 56.4829 93.3497 55.9999C96.3889 55.0338 101.495 54.1885 102.954 49.9621C104.048 46.8224 100.644 37.2827 98.334 35.4714C94.8086 32.4525 91.5262 41.5092 90.4321 44.8903Z" fill="#944900"/>
<g style="mix-blend-mode:overlay" opacity="0.2">
<path d="M52.5032 27.622C52.6248 28.105 52.7463 28.588 52.8679 29.071C53.962 29.071 54.9346 28.7088 56.0287 28.7088C56.7581 31.2446 55.1777 33.7805 55.7855 36.6787C58.5816 37.2824 58.46 31.7277 60.6482 31.1239C63.9305 30.2786 62.4717 35.8334 62.7149 38.1277C65.3893 38.007 68.9148 36.5579 67.5775 42.5957C68.5501 42.7165 69.5226 42.958 70.4951 42.8372C70.9814 44.6486 71.2245 46.5806 71.5892 48.392C74.9931 48.5127 74.6284 40.7844 78.397 41.3881C79.3695 43.924 77.546 49.2373 81.4362 47.3052C83.5028 46.2184 83.6244 41.6297 86.2989 42.1127C86.7851 43.1995 84.5969 51.5316 87.0283 50.4448C88.3655 49.8411 88.0008 42.8372 89.2165 41.1466C89.9459 39.9391 94.8086 37.0409 91.7694 35.1088C89.5812 33.6597 88.0008 38.7315 85.691 38.3692C85.0832 36.5579 86.4204 35.7126 86.2989 34.1428C84.8401 34.2635 83.5028 34.5051 82.5303 35.5919C81.8009 33.1767 81.6793 31.2446 79.6127 31.4861C77.7892 31.7276 76.5735 34.3843 74.6284 34.022C74.3853 32.9352 74.1421 31.7277 73.899 30.5201C71.8324 30.1578 69.8873 32.4522 67.6991 32.573C67.456 30.7616 67.0913 29.4333 65.8756 28.588C65.2678 28.2257 64.4168 29.1918 63.6874 28.588C62.958 28.105 62.958 26.8974 62.3501 26.4144C59.9188 24.4823 57.7306 25.6899 55.4208 24.7238C55.664 24.4823 55.9071 23.9993 56.0287 23.5163C52.017 23.2748 47.1543 25.6899 49.8287 32.9352C49.7072 32.6937 52.3817 27.3805 52.5032 27.622Z" fill="white"/>
</g>
<g style="mix-blend-mode:overlay" opacity="0.2">
<path d="M53.7189 24.2411C54.6914 27.1393 57.1227 25.5694 58.8247 25.4487C59.311 27.5015 58.2169 29.5544 58.9463 31.728C60.2835 31.8488 61.0129 30.1582 62.107 29.6751C62.3501 31.3657 63.2011 32.5733 64.5384 32.4525C64.9031 35.1092 66.8481 34.7469 66.9697 37.2828C68.1854 36.9205 68.7932 38.1281 70.0089 37.8866C71.103 37.645 71.3461 36.196 72.6833 36.4375C72.9265 37.5243 73.1696 38.7318 73.4127 39.9394C75.2362 40.3017 76.8166 37.7658 78.2754 36.679C78.397 37.0413 78.5186 37.5243 78.6401 38.0073C80.3421 38.3696 81.4362 36.5582 83.0165 36.3167C83.1381 36.679 83.2597 37.162 83.3813 37.645C83.5028 37.2828 83.9891 36.9205 84.2322 36.679C84.5969 37.7658 84.7185 39.0941 84.9616 40.1809C86.9067 40.5432 87.5145 37.645 89.2165 37.8866C89.4596 39.2149 89.0949 40.3017 88.8518 41.5092C89.9459 41.63 91.04 39.0941 91.891 38.2488C92.9851 37.162 95.538 36.5582 94.8086 34.1431C93.2282 34.2639 91.7694 35.5922 90.3106 35.3507C90.3106 34.7469 90.0675 34.1431 90.189 33.4186C89.0949 32.694 88.0008 33.1771 86.9067 33.2978C85.9342 30.3997 83.9891 32.4525 82.5303 32.0903C81.6793 31.8487 81.6793 30.6412 81.0715 30.2789C80.2205 29.7959 79.3695 30.0374 78.5186 29.9167C75.1147 29.6751 72.0755 30.0374 68.6716 28.4676C65.8756 27.1393 63.0795 25.6902 60.2835 24.3619C57.7306 23.0336 49.3425 19.8939 50.5581 26.8978C50.9228 26.6562 53.7189 24.4826 53.7189 24.2411Z" fill="white"/>
</g>
<g style="mix-blend-mode:overlay" opacity="0.2">
<path opacity="0.01" d="M105.75 60.1056C105.75 63.849 92.1341 64.6943 75.3578 60.9509C58.5815 57.2074 44.966 50.4451 44.966 46.7016C44.966 42.9582 59.0678 40.1808 75.7225 43.9243C92.7419 47.6677 105.75 56.3621 105.75 60.1056Z" fill="#F9F9F9"/>
<path opacity="0.019535" d="M105.506 59.9853C105.506 63.7288 92.0125 64.5741 75.4794 60.8306C58.8247 57.208 45.4523 50.4456 45.4523 46.7022C45.4523 42.9587 59.4325 40.3021 75.9656 43.9248C92.4988 47.6682 105.506 56.2419 105.506 59.9853Z" fill="#F3F3F3"/>
<path opacity="0.029302" d="M105.142 59.8641C105.142 63.4868 91.7694 64.3321 75.3578 60.7094C58.8247 57.0867 45.5739 50.4451 45.5739 46.7017C45.5739 43.079 59.4325 40.4224 75.8441 44.0451C92.2556 47.6678 105.142 56.2414 105.142 59.8641Z" fill="#EDEDED"/>
<path opacity="0.03907" d="M104.777 59.7433C104.777 63.366 91.5262 64.2112 75.2362 60.5886C58.9462 56.9659 45.6954 50.4451 45.6954 46.7016C45.6954 43.0789 59.4325 40.5431 75.7225 44.1657C92.0125 47.7884 104.777 56.1206 104.777 59.7433Z" fill="#E7E7E7"/>
<path opacity="0.048837" d="M104.534 59.6228C104.534 63.2455 91.4047 63.9701 75.2362 60.3474C59.0678 56.7247 45.9386 50.2039 45.9386 46.7019C45.9386 43.0793 59.5541 40.6641 75.7225 44.1661C91.7694 47.7887 104.534 56.0002 104.534 59.6228Z" fill="#E1E1E1"/>
<path opacity="0.058605" d="M104.169 59.5017C104.169 63.0036 91.1615 63.7282 75.1147 60.2262C59.0678 56.7243 46.0601 50.2035 46.0601 46.7016C46.0601 43.1996 59.5541 40.7845 75.601 44.2864C91.5263 47.7884 104.169 55.9998 104.169 59.5017Z" fill="#DBDBDB"/>
<path opacity="0.068372" d="M103.805 59.3809C103.805 62.8829 90.9184 63.6074 74.9931 60.1055C59.0678 56.6036 46.1817 50.2035 46.1817 46.7016C46.1817 43.1996 59.4325 40.9053 75.3578 44.4072C91.4047 47.9091 103.805 55.879 103.805 59.3809Z" fill="#D5D5D5"/>
<path opacity="0.078139" d="M103.561 59.2602C103.561 62.7621 90.7968 63.3659 74.9931 59.9847C59.1894 56.4828 46.4249 50.2035 46.4249 46.7016C46.4249 43.1996 59.5541 40.9053 75.3578 44.4072C91.1615 47.9091 103.561 55.7583 103.561 59.2602Z" fill="#D0D0D0"/>
<path opacity="0.087907" d="M103.197 59.1395C103.197 62.6414 90.5537 63.2452 74.8715 59.7433C59.1894 56.3621 46.5464 50.0828 46.5464 46.5808C46.5464 43.0789 59.5541 40.9053 75.2362 44.4072C90.9184 47.9092 103.197 55.7583 103.197 59.1395Z" fill="#CACACA"/>
<path opacity="0.097674" d="M102.832 59.019C102.832 62.4002 90.3106 63.0039 74.75 59.6228C59.3109 56.2416 46.668 50.083 46.668 46.5811C46.668 43.1999 59.5541 41.0263 75.1146 44.4075C90.6752 48.0302 102.832 55.6378 102.832 59.019Z" fill="#C4C4C4"/>
<path opacity="0.1074" d="M102.589 58.8981C102.589 62.2793 90.189 62.8831 74.75 59.5019C59.4325 56.1207 46.9111 50.0829 46.9111 46.7018C46.9111 43.3206 59.6756 41.2678 75.1147 44.6489C90.4321 48.0301 102.589 55.517 102.589 58.8981Z" fill="#BEBEBE"/>
<path opacity="0.1172" d="M102.224 58.7774C102.224 62.1586 89.9459 62.6416 74.75 59.3812C59.5541 56 47.2758 49.9622 47.1542 46.7018C47.1542 43.3206 59.7972 41.3885 74.9931 44.7697C90.189 48.0301 102.224 55.517 102.224 58.7774Z" fill="#B8B8B8"/>
<path opacity="0.127" d="M101.859 58.6563C101.859 61.9167 89.7027 62.5205 74.6284 59.1393C59.5541 55.8789 47.3974 49.8411 47.3974 46.5807C47.3974 43.3203 59.9188 41.3882 74.9931 44.6486C90.0674 48.1505 101.859 55.3959 101.859 58.6563Z" fill="#B2B2B2"/>
<path opacity="0.1367" d="M101.616 58.5361C101.616 61.7965 89.4596 62.2795 74.6284 59.0191C59.6757 55.7587 47.6405 49.8416 47.6405 46.5812C47.6405 43.3208 60.0404 41.5095 74.9931 44.7699C89.8243 48.1511 101.616 55.2757 101.616 58.5361Z" fill="#ACACAC"/>
<path opacity="0.1465" d="M101.252 58.4147C101.252 61.6751 89.2165 62.1581 74.5068 58.8977C59.6756 55.6373 47.7621 49.841 47.7621 46.5806C47.7621 43.3202 60.0404 41.6296 74.8716 44.89C89.5812 48.1504 101.252 55.275 101.252 58.4147Z" fill="#A6A6A6"/>
<path opacity="0.1563" d="M100.887 58.2942C100.887 61.4339 88.9733 61.9169 74.3853 58.7772C59.7972 55.5168 47.8836 49.8413 47.8836 46.7016C47.8836 43.562 60.0404 41.8714 74.75 45.0111C89.338 48.2715 100.887 55.1546 100.887 58.2942Z" fill="#A0A0A0"/>
<path opacity="0.166" d="M100.644 58.1737C100.644 61.3134 88.8518 61.7964 74.3853 58.536C59.9188 55.3964 48.1268 49.7208 48.1268 46.5811C48.1268 43.4415 60.1619 41.7509 74.6284 45.0113C89.0949 48.2717 100.644 55.0341 100.644 58.1737Z" fill="#9A9A9A"/>
<path opacity="0.1758" d="M100.279 58.0528C100.279 61.1925 88.6086 61.5548 74.2637 58.4151C59.9188 55.2755 48.2484 49.7207 48.2484 46.581C48.2484 43.4414 60.1619 41.8716 74.5068 45.132C88.8517 48.2716 100.279 55.0339 100.279 58.0528Z" fill="#949494"/>
<path opacity="0.1856" d="M99.9144 57.9324C99.9144 60.9513 88.3655 61.4343 74.1421 58.2946C59.9188 55.155 48.3699 49.721 48.3699 46.5813C48.3699 43.5624 60.1619 41.9926 74.3853 45.1322C88.7302 48.2719 99.9144 54.9135 99.9144 57.9324Z" fill="#8E8E8E"/>
<path opacity="0.1953" d="M99.6712 57.8112C99.6712 60.8301 88.2439 61.1924 74.1421 58.1735C60.0404 55.0338 48.6131 49.5998 48.6131 46.5809C48.6131 43.562 60.2835 42.113 74.3853 45.2526C88.4871 48.3923 99.5497 54.7923 99.6712 57.8112Z" fill="#888888"/>
<path opacity="0.2051" d="M99.3065 57.6905C99.3065 60.7094 88.0008 61.0717 74.0206 57.9321C60.0403 54.9132 48.7346 49.4791 48.7346 46.581C48.7346 43.5621 60.2835 42.2338 74.2637 45.2527C88.2439 48.3924 99.3065 54.7924 99.3065 57.6905Z" fill="#828282"/>
<path opacity="0.2149" d="M98.9418 57.5696C98.9418 60.5885 87.7577 60.83 74.0206 57.8111C60.1619 54.7922 48.9777 49.4789 48.9777 46.5808C48.9777 43.5619 60.4051 42.3543 74.1421 45.3732C88.0008 48.3921 98.9418 54.6714 98.9418 57.5696Z" fill="#7D7D7D"/>
<path opacity="0.2247" d="M98.5771 57.4493C98.5771 60.3475 87.5145 60.7098 73.899 57.6909C60.2835 54.672 49.2209 49.4795 49.2209 46.5813C49.2209 43.6832 60.5266 42.4756 74.1421 45.4945C87.7576 48.5134 98.5771 54.5512 98.5771 57.4493Z" fill="#777777"/>
<path opacity="0.2344" d="M98.334 57.3283C98.334 60.2265 87.3929 60.468 73.899 57.5698C60.405 54.5509 49.464 49.4792 49.464 46.581C49.464 43.6829 60.6482 42.5961 74.1421 45.4942C87.5145 48.5131 98.334 54.4302 98.334 57.3283Z" fill="#717171"/>
<path opacity="0.2442" d="M97.9693 57.2074C97.9693 60.1055 87.1498 60.347 73.7775 57.3281C60.4051 54.43 49.5856 49.3582 49.5856 46.4601C49.5856 43.5619 60.6482 42.5959 74.0206 45.494C87.3929 48.5129 97.9693 54.43 97.9693 57.2074Z" fill="#6B6B6B"/>
<path opacity="0.254" d="M97.6046 57.0868C97.6046 59.8641 86.9067 60.1057 73.6559 57.2075C60.4051 54.3094 49.7071 49.3584 49.7071 46.4602C49.7071 43.6829 60.6482 42.596 73.899 45.6149C87.1498 48.6338 97.6046 54.3094 97.6046 57.0868Z" fill="#656565"/>
<path opacity="0.2637" d="M97.3615 56.966C97.3615 59.7434 86.7851 59.9849 73.6559 57.0867C60.5266 54.1886 49.9503 49.3583 49.9503 46.581C49.9503 43.8036 60.7697 42.8375 73.899 45.7357C86.9067 48.6338 97.3615 54.1886 97.3615 56.966Z" fill="#5F5F5F"/>
<path opacity="0.2735" d="M96.9967 56.845C96.9967 59.6224 86.542 59.7432 73.5343 56.9658C60.5266 54.0676 50.0719 49.2374 50.0719 46.5808C50.0719 43.8034 60.7698 42.9581 73.6559 45.8562C86.6635 48.6336 96.9967 54.1884 96.9967 56.845Z" fill="#595959"/>
<path opacity="0.2833" d="M96.632 56.7247C96.632 59.3813 86.2988 59.6228 73.4127 56.7247C60.6482 53.9473 50.1934 49.1171 50.1934 46.4604C50.1934 43.8038 60.7697 42.9585 73.5343 45.7359C86.4204 48.7548 96.632 54.0681 96.632 56.7247Z" fill="#535353"/>
<path opacity="0.293" d="M96.3889 56.6038C96.3889 59.2604 86.1773 59.3812 73.4127 56.6038C60.7698 53.8264 50.4366 49.1169 50.4366 46.4603C50.4366 43.8037 60.8913 43.0791 73.5343 45.8565C86.1773 48.7547 96.3889 53.9472 96.3889 56.6038Z" fill="#4D4D4D"/>
<path opacity="0.3028" d="M96.0242 56.4831C96.0242 59.1398 85.8126 59.2605 73.2912 56.4831C60.7698 53.7057 50.5581 49.117 50.5581 46.4604C50.5581 43.8038 60.8913 43.1999 73.4127 45.9773C86.0557 48.7547 96.0242 53.9472 96.0242 56.4831Z" fill="#474747"/>
<path opacity="0.3126" d="M95.6595 56.3622C95.6595 58.898 85.5695 59.0188 73.1696 56.3622C60.7698 53.5848 50.6797 49.1168 50.6797 46.5809C50.6797 44.0451 60.8913 43.4413 73.2912 46.0979C85.8126 48.8753 95.6595 53.8263 95.6595 56.3622Z" fill="#414141"/>
<path opacity="0.3223" d="M95.4164 56.3621C95.4164 58.898 85.4479 59.0187 73.2911 56.2413C61.0129 53.5847 51.166 49.1167 51.166 46.5808C51.166 44.045 61.256 43.562 73.4127 46.2186C85.5694 48.8752 95.4164 53.7055 95.4164 56.3621Z" fill="#3B3B3B"/>
<path opacity="0.3321" d="M95.0517 56.2413C95.0517 58.7772 85.2048 58.7772 73.1696 56.1206C61.0129 53.464 51.2875 49.1167 51.2875 46.5808C51.2875 44.045 61.256 43.6827 73.2912 46.3394C85.3263 48.8752 95.0517 53.7054 95.0517 56.2413Z" fill="#353535"/>
<path opacity="0.3419" d="M94.687 56.1204C94.687 58.5355 84.9616 58.6563 73.048 55.9996C61.1345 53.343 51.4091 49.1165 51.4091 46.5806C51.4091 44.1655 61.256 43.6825 73.1696 46.3391C85.0832 48.9958 94.687 53.5845 94.687 56.1204Z" fill="#2F2F2F"/>
<path opacity="0.3516" d="M94.4439 56.0001C94.4439 58.4152 84.84 58.4152 73.048 55.8793C61.256 53.2227 51.6522 48.9962 51.6522 46.5811C51.6522 44.166 61.3776 43.8037 73.1696 46.4603C84.8401 48.9962 94.4439 53.4642 94.4439 56.0001Z" fill="#2A2A2A"/>
<path opacity="0.3614" d="M94.0791 55.8791C94.0791 58.2942 84.5969 58.2942 72.9265 55.6375C61.256 53.1017 51.7738 48.8752 51.7738 46.4601C51.7738 44.045 61.256 43.8035 73.048 46.4601C84.7185 48.996 94.0791 53.4639 94.0791 55.8791Z" fill="#242424"/>
<path opacity="0.3712" d="M93.7144 55.7582C93.7144 58.1734 84.3538 58.0526 72.8049 55.5167C61.256 52.9809 51.8954 48.8751 51.8954 46.5808C51.8954 44.1657 61.256 44.0449 72.8049 46.5808C84.3538 49.1167 93.7144 53.3431 93.7144 55.7582Z" fill="#1E1E1E"/>
<path opacity="0.3809" d="M93.4713 55.638C93.4713 57.9323 84.2322 57.9324 72.8049 55.3965C61.3776 52.8606 52.1385 48.8756 52.1385 46.5813C52.1385 44.2869 61.3776 44.1662 72.8049 46.702C84.2322 49.1172 93.4713 53.2229 93.4713 55.638Z" fill="#181818"/>
<path opacity="0.3907" d="M93.1066 55.5167C93.1066 57.8111 83.9891 57.6903 72.6833 55.2752C61.3776 52.7393 52.2601 48.8751 52.2601 46.5807C52.2601 44.2864 61.3776 44.2864 72.6833 46.7015C83.9891 49.1166 93.1066 53.2223 93.1066 55.5167Z" fill="#121212"/>
<path opacity="0.4005" d="M92.7419 55.3961C92.7419 57.6905 83.746 57.5697 72.5618 55.0338C61.3776 52.6187 52.3816 48.7545 52.3816 46.4602C52.3816 44.1658 61.3776 44.2865 72.5618 46.7017C83.746 49.1168 92.7419 53.1018 92.7419 55.3961Z" fill="#0C0C0C"/>
<path opacity="0.4102" d="M92.4988 55.2754C92.4988 57.449 83.6244 57.3282 72.5618 54.9131C61.6207 52.498 52.6247 48.7545 52.6247 46.4602C52.6247 44.2866 61.4992 44.4073 72.5618 46.8224C83.5028 49.2376 92.4988 52.981 92.4988 55.2754Z" fill="#060606"/>
<path opacity="0.42" d="M92.1341 55.1545C92.1341 57.3281 83.3813 57.0866 72.5618 54.7923C61.7423 52.3771 52.8679 48.7544 52.8679 46.5808C52.8679 44.4072 61.6207 44.6488 72.4402 46.9431C83.3812 49.2375 92.1341 52.9809 92.1341 55.1545Z" fill="black"/>
</g>
<path d="M30.378 33.781C32.9309 33.6602 35.8485 35.7131 38.4014 36.7999C41.6837 38.1282 44.966 39.698 48.3699 40.6641C55.4208 42.5962 62.3501 43.683 69.2794 45.6151C72.1971 46.4604 73.6558 47.6679 75.1147 51.5321C76.5735 55.2755 78.2754 59.8643 76.5735 63.6077C75.3578 66.1436 72.1971 67.5927 70.1304 68.5587C68.9148 69.1625 67.3344 70.0078 65.9971 70.0078C64.5383 69.887 64.0521 68.921 62.7148 67.7134C60.4051 65.6605 58.3384 66.3851 55.9071 65.6606C53.111 64.936 50.315 63.487 47.5189 62.5209C42.4131 60.8303 37.5504 59.019 32.4446 56.8454C30.0133 55.8793 27.5819 55.1548 25.1506 54.068C22.233 52.8604 21.7467 50.3245 20.7742 46.5811C19.1938 40.0603 22.4761 31.1244 28.1898 34.3848L30.378 33.781Z" fill="#FF9400"/>
<path opacity="0.3" d="M66.4834 54.9133C65.3893 56.6039 63.4443 62.2794 64.6599 65.4191C66.1187 69.0417 70.3735 66.5059 72.0755 65.1776C74.8715 63.1247 76.0872 61.7964 74.8716 56.6039C72.4402 56.8454 71.8324 62.4002 69.0363 62.4002C67.5775 58.6567 72.9265 58.2945 72.3186 54.9133C71.4677 54.6718 70.6167 55.034 70.0089 55.7586C70.6167 55.1548 72.6833 50.2038 71.7108 49.2378C70.1304 47.6679 67.2128 53.8265 66.4834 54.9133Z" fill="#944900"/>
<path opacity="0.3" d="M67.2128 54.7923C65.5109 57.8112 64.5383 59.7433 65.5109 64.0905C66.4834 64.2113 66.8481 64.8151 66.605 66.0226C70.0088 66.3849 74.2637 66.3849 75.7225 61.6754C76.5735 58.898 75.6009 58.0527 74.6284 55.5169C73.899 53.464 73.4127 49.8413 71.3461 49.4791C69.6442 49.1168 68.1853 53.2225 67.2128 54.7923Z" fill="#944900"/>
<path opacity="0.3" d="M64.1736 57.3286C63.4442 59.3814 62.3502 61.072 62.8364 63.6079C62.958 64.3324 63.9305 67.1098 64.2952 67.7136C65.6325 69.5249 65.5109 68.9211 67.0913 68.4381C70.1305 67.4721 75.2363 66.6268 76.6951 62.4003C77.7892 59.2607 74.3853 49.7209 72.0755 47.9096C68.6716 44.8907 65.2677 53.9474 64.1736 57.3286Z" fill="#944900"/>
<g style="mix-blend-mode:overlay" opacity="0.2">
<path d="M26.2447 40.06C26.2447 40.543 26.4878 41.026 26.6094 41.509C27.7035 41.509 28.676 41.1467 29.7701 41.1467C30.4995 43.6826 28.9192 46.2185 29.527 49.1167C32.323 49.7204 32.2015 44.1656 34.3897 43.5619C37.672 42.7166 36.2132 48.2714 36.4563 50.5657C39.1308 50.445 42.6563 48.9959 41.319 55.0337C42.2916 55.1544 43.2641 55.396 44.2366 55.2752C44.7229 57.0866 44.966 59.0187 45.3307 60.83C48.7346 60.9508 48.3699 53.2223 52.0169 53.8261C52.9894 56.362 51.1659 61.6753 55.0561 59.7432C57.1227 58.6564 57.2443 54.0676 59.9188 54.5507C60.405 55.7582 58.2168 63.9696 60.6482 62.8828C61.9854 62.279 61.6207 55.2752 62.8364 53.5846C63.5658 52.3771 68.4285 49.4789 65.3893 47.5468C63.2011 46.0978 61.6207 51.1695 59.3109 50.8072C58.7031 48.9959 60.0403 48.1506 59.9188 46.5808C58.46 46.7015 57.1228 46.9431 56.1502 48.0299C55.4208 45.6147 55.2992 43.6826 53.2326 43.9242C51.4091 44.1657 50.1934 46.8223 48.2484 46.46C48.0052 45.3732 47.7621 44.1656 47.5189 42.9581C45.4523 42.5958 43.5072 44.8902 41.319 45.011C41.0759 43.1996 40.7112 41.8713 39.4955 41.026C38.8877 40.6638 38.0367 41.6298 37.3073 41.026C36.5779 40.543 36.5779 39.3354 35.9701 38.8524C33.5387 36.9203 31.3505 38.1279 29.0407 37.1618C29.2839 36.9203 29.527 36.4373 29.6486 35.9543C25.6369 35.7127 20.7742 38.1278 23.4486 45.3732C23.5702 45.1317 26.2447 39.6977 26.2447 40.06Z" fill="white"/>
</g>
<g style="mix-blend-mode:overlay" opacity="0.2">
<path d="M27.4604 36.5585C28.4329 39.4566 30.8643 37.8868 32.5662 37.7661C33.0525 39.8189 31.9584 41.8718 32.6878 44.0454C34.025 44.1661 34.7544 42.4755 35.8485 41.9925C36.0917 43.6831 36.9426 44.8906 38.2799 44.7699C38.6446 47.4265 40.5896 47.0642 40.7112 49.6001C41.9269 49.2379 42.5347 50.4454 43.7504 50.2039C44.8445 49.9624 45.0876 48.5133 46.4249 48.7549C46.668 49.8417 46.9111 51.0492 47.1543 52.2568C48.9778 52.619 50.5581 50.0831 52.0169 48.9963C52.1385 49.3586 52.2601 49.8416 52.3817 50.3247C54.0836 50.6869 55.1777 48.8756 56.7581 48.6341C56.8797 48.9964 57.0012 49.4794 57.1228 49.9624C57.2443 49.6001 57.7306 49.2379 57.9738 48.9963C58.3385 50.0831 58.46 51.4115 58.7031 52.4983C60.6482 52.8606 61.256 49.9624 62.958 50.2039C63.2011 51.5322 62.8364 52.619 62.5933 53.8266C63.6874 53.9473 64.7815 51.4115 65.6325 50.5662C66.7266 49.4794 69.2795 48.8756 68.5501 46.4605C66.9697 46.5813 65.5109 47.9096 64.0521 47.6681C64.0521 47.0643 63.809 46.4605 63.9305 45.736C62.8364 45.0114 61.7423 45.4944 60.6482 45.6152C59.6757 42.717 57.7306 44.7699 56.2718 44.4076C55.4208 44.1661 55.4208 42.9586 54.813 42.5963C53.962 42.1133 53.1111 42.3548 52.2601 42.234C48.8562 41.9925 45.817 42.3548 42.4131 40.785C39.6171 39.4566 36.8211 38.0076 34.025 36.6793C31.4721 35.3509 23.084 32.2113 24.2997 39.2151C24.6644 38.9736 27.582 36.9208 27.4604 36.5585Z" fill="white"/>
</g>
<path d="M57.7306 33.6599C59.0678 33.5392 99.5497 33.4184 111.099 25.4485C122.647 17.3579 132.616 3.47095 132.616 3.47095C132.616 3.47095 121.189 21.2221 101.252 23.5164C81.3146 25.8108 62.3501 31.8486 45.4523 25.8108C28.5545 19.8938 47.0327 34.143 57.7306 33.6599Z" fill="#45991E"/>
<path opacity="0.3028" d="M41.8053 27.8637C42.4131 28.3468 43.021 28.8298 43.2641 28.9506C48.7346 31.8487 54.4483 31.4864 60.0404 32.0902C63.0795 32.4525 65.9972 31.8487 68.9148 31.3657C70.4952 31.1242 72.1971 31.0034 73.899 30.7619C75.2362 30.5204 76.6951 30.2789 78.0323 30.0374C83.2597 29.3128 88.4871 28.5883 93.5929 27.743C98.0909 27.0185 102.71 26.7769 106.965 24.9656C108.424 24.3618 109.761 24.1203 111.22 23.758C112.679 23.3958 113.895 22.1882 115.232 21.3429C116.204 20.7391 123.498 15.1844 123.985 13.9768C122.161 14.8221 115.353 21.1014 113.408 21.8259C111.828 22.309 110.248 22.6712 108.789 23.1543C105.385 24.2411 102.224 25.8109 98.6987 26.2939C96.8752 26.5354 95.0517 25.9317 93.2282 26.2939C91.1616 26.6562 89.2165 27.3807 87.1499 27.5015C83.9891 27.8638 80.8283 28.3468 77.6676 28.7091C74.8716 28.9506 71.9539 29.1921 69.1579 29.3128C67.8207 29.3128 66.4834 29.9166 65.1462 30.0374C62.8364 30.3996 60.4051 29.7958 58.0953 29.7958C55.7855 29.7958 53.3542 30.0374 50.9228 29.5544C48.7346 29.0713 46.1817 28.5883 44.1151 27.3807C43.6288 27.1392 40.7112 24.8449 40.5896 26.1732C40.3465 26.4147 40.9543 27.26 41.8053 27.8637Z" fill="#474747"/>
<g style="mix-blend-mode:overlay" opacity="0.2">
<path opacity="0.01" d="M121.432 25.4488C121.553 26.0526 107.087 29.1923 89.0949 32.4527C71.1029 35.7131 56.5149 37.7659 56.3933 37.1621C56.2718 36.5584 71.2245 32.9357 89.0949 29.6753C107.087 26.5356 121.31 24.845 121.432 25.4488Z" fill="#F9F9F9"/>
<path opacity="0.019535" d="M121.067 25.4486C121.189 26.0524 106.844 29.1921 89.0949 32.4525C71.3461 35.7129 56.8796 37.7658 56.7581 37.162C56.6365 36.5582 71.3461 33.0563 89.0949 29.7959C106.965 26.5354 120.945 24.9656 121.067 25.4486Z" fill="#F3F3F3"/>
<path opacity="0.029302" d="M120.702 25.5696C120.824 26.1734 106.722 29.3131 89.0949 32.4527C71.5892 35.5924 57.2443 37.6452 57.1228 37.1622C57.0012 36.5584 71.5892 33.0565 89.0949 29.9168C106.722 26.6564 120.581 24.9658 120.702 25.5696Z" fill="#EDEDED"/>
<path opacity="0.03907" d="M120.338 25.5694C120.459 26.0525 106.479 29.1921 89.0949 32.3318C71.7108 35.4714 57.609 37.5243 57.4874 36.9205C57.3658 36.4375 71.8323 32.9356 89.0949 29.7959C106.479 26.6562 120.216 25.0864 120.338 25.5694Z" fill="#E7E7E7"/>
<path opacity="0.048837" d="M119.973 25.6902C120.095 26.1732 106.236 29.3129 89.0949 32.4525C71.9539 35.5922 57.9737 37.5243 57.8522 37.0413C57.7306 36.5582 71.9539 33.0563 89.0949 30.0374C106.357 26.777 119.851 25.0864 119.973 25.6902Z" fill="#E1E1E1"/>
<path opacity="0.058605" d="M119.608 25.6903C119.73 26.1733 106.114 29.1922 89.0949 32.3319C72.1971 35.3508 58.3384 37.4036 58.2168 36.9206C58.0953 36.4376 72.1971 33.0564 89.0949 29.9168C106.114 26.7771 119.608 25.2073 119.608 25.6903Z" fill="#DBDBDB"/>
<path opacity="0.068372" d="M119.244 25.69C119.365 26.1731 105.871 29.192 89.0949 32.2109C72.3186 35.2298 58.7031 37.1619 58.5816 36.6788C58.46 36.1958 72.3186 32.8146 89.0949 29.7957C105.871 26.8976 119.244 25.207 119.244 25.69Z" fill="#D5D5D5"/>
<path opacity="0.078139" d="M119 25.8109C119.122 26.2939 105.75 29.192 89.2164 32.2109C72.6833 35.2298 59.1894 37.1619 59.0678 36.6789C58.9463 36.1959 72.6833 32.9355 89.2164 29.9166C105.75 26.8977 118.879 25.3278 119 25.8109Z" fill="#D0D0D0"/>
<path opacity="0.087907" d="M118.636 25.8109C118.757 26.2939 105.506 29.192 89.2164 32.2109C72.9264 35.2298 59.5541 37.0412 59.4325 36.5582C59.3109 36.0751 72.9264 32.8147 89.2164 29.9166C105.506 27.0184 118.514 25.3279 118.636 25.8109Z" fill="#CACACA"/>
<path opacity="0.097674" d="M118.271 25.9317C118.393 26.4147 105.385 29.3128 89.2165 32.211C73.048 35.1091 59.9188 37.0412 59.7972 36.5582C59.6757 36.0752 73.048 32.9355 89.2165 29.9166C105.385 27.0185 118.149 25.4486 118.271 25.9317Z" fill="#C4C4C4"/>
<path opacity="0.1074" d="M117.906 25.9317C118.028 26.4147 105.142 29.1921 89.2165 32.0902C73.2912 34.9883 60.2835 36.9204 60.1619 36.4374C60.0404 35.9544 73.2912 32.8148 89.2165 29.9166C105.142 27.0185 117.785 25.4486 117.906 25.9317Z" fill="#BEBEBE"/>
<path opacity="0.1172" d="M117.542 26.0525C117.663 26.5355 104.899 29.3129 89.2164 32.0903C73.4127 34.9884 60.6482 36.7998 60.5266 36.3167C60.405 35.8337 73.4127 32.8148 89.2164 29.9167C104.899 27.1393 117.42 25.5695 117.542 26.0525Z" fill="#B8B8B8"/>
<path opacity="0.127" d="M117.177 26.0525C117.298 26.5355 104.777 29.1922 89.2165 32.0903C73.6559 34.8677 61.0129 36.7998 60.8913 36.3168C60.7698 35.8338 73.6559 32.8149 89.2165 30.0375C104.777 27.1393 117.055 25.5695 117.177 26.0525Z" fill="#B2B2B2"/>
<path opacity="0.1367" d="M116.812 26.1729C116.934 26.6559 104.534 29.3125 89.2165 32.0899C73.899 34.8673 61.3776 36.6786 61.256 36.3164C61.1345 35.8334 73.899 32.9352 89.2165 30.1579C104.534 27.2597 116.812 25.6899 116.812 26.1729Z" fill="#ACACAC"/>
<path opacity="0.1465" d="M116.447 26.1731C116.569 26.6561 104.291 29.3127 89.2164 31.9694C74.0205 34.7468 61.7423 36.5581 61.6207 36.0751C61.4992 35.592 74.0205 32.6939 89.2164 29.9165C104.412 27.2599 116.447 25.69 116.447 26.1731Z" fill="#A6A6A6"/>
<path opacity="0.1563" d="M116.083 26.173C116.204 26.5353 104.169 29.1919 89.2165 31.9693C74.2637 34.6259 62.107 36.4373 61.9854 36.075C61.8639 35.7127 74.2637 32.8146 89.2165 30.0372C104.169 27.3806 116.083 25.8107 116.083 26.173Z" fill="#A0A0A0"/>
<path opacity="0.166" d="M115.718 26.2939C115.84 26.6562 103.926 29.3128 89.2165 31.9695C74.5069 34.6261 62.4717 36.4374 62.3501 35.9544C62.2286 35.5921 74.3853 32.694 89.2165 30.0374C103.926 27.3807 115.718 25.8109 115.718 26.2939Z" fill="#9A9A9A"/>
<path opacity="0.1758" d="M115.475 26.2942C115.597 26.6565 103.804 29.1924 89.338 31.849C74.75 34.5056 62.958 36.1962 62.8364 35.8339C62.7148 35.4716 74.75 32.6943 89.338 30.0376C103.804 27.5018 115.353 25.9319 115.475 26.2942Z" fill="#949494"/>
<path opacity="0.1856" d="M115.11 26.4148C115.232 26.7771 103.683 29.313 89.338 31.8488C74.9931 34.5055 63.3227 36.196 63.2011 35.8338C63.0795 35.4715 74.9931 32.6941 89.338 30.1583C103.561 27.5016 114.989 26.0526 115.11 26.4148Z" fill="#8E8E8E"/>
<path opacity="0.1953" d="M114.746 26.4147C114.867 26.777 103.44 29.1921 89.2165 31.8487C75.1147 34.3846 63.5658 36.0752 63.4443 35.7129C63.3227 35.3506 74.9931 32.694 89.2165 30.0374C103.318 27.5015 114.624 26.0524 114.746 26.4147Z" fill="#888888"/>
<path opacity="0.2051" d="M114.381 26.5356C114.502 26.8978 103.197 29.3129 89.2164 31.8488C75.2362 34.3847 63.9305 36.0752 63.8089 35.713C63.6874 35.3507 75.2362 32.6941 89.2164 30.1582C103.197 27.6224 114.259 26.1733 114.381 26.5356Z" fill="#828282"/>
<path opacity="0.2149" d="M114.016 26.5356C114.138 26.8978 102.954 29.3129 89.2165 31.728C75.4794 34.2639 64.2952 35.9545 64.1736 35.5923C64.0521 35.23 75.4794 32.6941 89.2165 30.1582C102.954 27.6224 113.895 26.1733 114.016 26.5356Z" fill="#7D7D7D"/>
<path opacity="0.2247" d="M113.651 26.6562C113.773 27.0184 102.832 29.3128 89.2165 31.8487C75.7225 34.2638 64.6599 35.9544 64.5384 35.5921C64.4168 35.2299 75.601 32.694 89.2165 30.2788C102.832 27.743 113.651 26.2939 113.651 26.6562Z" fill="#777777"/>
<path opacity="0.2344" d="M113.287 26.6562C113.408 27.0184 102.589 29.3128 89.2164 31.7279C75.8441 34.143 65.0246 35.8336 64.903 35.4714C64.7814 35.1091 75.844 32.694 89.0949 30.2788C102.589 27.743 113.287 26.2939 113.287 26.6562Z" fill="#717171"/>
<path opacity="0.2442" d="M112.922 26.6564C112.922 27.0186 102.346 29.1922 89.2164 31.6074C76.0872 34.0225 65.3893 35.5923 65.2677 35.23C65.2677 34.8678 75.9656 32.4527 89.0949 30.0376C102.346 27.8639 112.922 26.4149 112.922 26.6564Z" fill="#6B6B6B"/>
<path opacity="0.254" d="M112.557 26.777C112.557 27.1393 102.224 29.3129 89.2165 31.6073C76.3303 33.9016 65.754 35.5922 65.6324 35.2299C65.6324 34.8677 76.2088 32.5733 89.0949 30.1582C102.224 27.8639 112.557 26.4148 112.557 26.777Z" fill="#656565"/>
<path opacity="0.2637" d="M112.314 26.7772C112.314 27.1394 102.103 29.313 89.338 31.6074C76.5735 33.9018 66.2403 35.4716 66.1187 35.2301C66.1187 34.8678 76.5735 32.5735 89.2164 30.2791C101.981 27.9847 112.193 26.5357 112.314 26.7772Z" fill="#5F5F5F"/>
<path opacity="0.2735" d="M111.95 26.8974C111.95 27.1389 101.859 29.3125 89.338 31.6069C76.8166 33.9012 66.605 35.4711 66.4834 35.1088C66.4834 34.8673 76.695 32.5729 89.2165 30.2785C101.859 27.9842 111.828 26.5351 111.95 26.8974Z" fill="#595959"/>
<path opacity="0.2833" d="M111.585 26.898C111.585 27.1395 101.738 29.3131 89.338 31.4867C76.9382 33.7811 66.9697 35.2302 66.8481 34.9887C66.8481 34.7472 76.9382 32.4528 89.2165 30.2792C101.616 27.9848 111.463 26.6565 111.585 26.898Z" fill="#535353"/>
<path opacity="0.293" d="M111.22 27.0185C111.22 27.26 101.495 29.3128 89.338 31.6072C77.1813 33.7808 67.3344 35.3506 67.2128 35.1091C67.2128 34.8676 77.0597 32.694 89.2165 30.3996C101.373 28.1053 111.099 26.6562 111.22 27.0185Z" fill="#4D4D4D"/>
<path opacity="0.3028" d="M110.855 27.0184C110.855 27.26 101.252 29.3128 89.338 31.4864C77.4245 33.66 67.6991 35.1091 67.5775 34.8676C67.5775 34.6261 77.3029 32.4524 89.2165 30.2788C101.252 28.1052 110.855 26.7769 110.855 27.0184Z" fill="#474747"/>
<path opacity="0.3126" d="M110.491 27.0185C110.491 27.26 101.008 29.1921 89.338 31.3657C77.546 33.5393 68.0638 34.9884 67.9422 34.7469C67.9422 34.5053 77.546 32.4525 89.2164 30.2789C101.008 28.226 110.491 26.777 110.491 27.0185Z" fill="#414141"/>
<path opacity="0.3223" d="M110.126 27.1393C110.126 27.3809 100.887 29.313 89.338 31.3658C77.7892 33.4187 68.4285 34.9885 68.3069 34.6262C68.3069 34.3847 77.6676 32.3318 89.2165 30.279C100.765 28.2261 110.126 26.8978 110.126 27.1393Z" fill="#3B3B3B"/>
<path opacity="0.3321" d="M109.761 27.1391C109.761 27.3806 100.644 29.3127 89.338 31.3655C78.0323 33.4184 68.7932 34.8674 68.6716 34.6259C68.6716 34.3844 77.9107 32.4523 89.2164 30.3995C100.644 28.3466 109.761 26.8976 109.761 27.1391Z" fill="#353535"/>
<path opacity="0.3419" d="M109.397 27.26C109.397 27.5015 100.401 29.3128 89.338 31.3657C78.1538 33.4185 69.1579 34.8676 69.0363 34.6261C69.0363 34.3846 78.0323 32.4525 89.2164 30.3996C100.401 28.3468 109.397 27.0184 109.397 27.26Z" fill="#2F2F2F"/>
<path opacity="0.3516" d="M109.153 27.2603C109.153 27.5018 100.401 29.3131 89.4596 31.2452C78.5186 33.1773 69.6442 34.6264 69.5226 34.3849C69.5226 34.1434 78.397 32.332 89.338 30.2792C100.279 28.4678 109.032 27.0188 109.153 27.2603Z" fill="#2A2A2A"/>
<path opacity="0.3614" d="M108.789 27.3808C108.789 27.6223 100.158 29.3129 89.4596 31.3658C78.7617 33.2979 70.0089 34.7469 69.8873 34.5054C69.8873 34.2639 78.6401 32.4526 89.338 30.5205C100.036 28.4676 108.667 27.1393 108.789 27.3808Z" fill="#242424"/>
<path opacity="0.3712" d="M108.424 27.3809C108.424 27.6224 99.9144 29.313 89.4596 31.2451C78.8833 33.1772 70.3736 34.5055 70.252 34.3848C70.252 34.1433 78.7617 32.4527 89.338 30.5206C99.7928 28.5885 108.303 27.2601 108.424 27.3809Z" fill="#1E1E1E"/>
<path opacity="0.3809" d="M108.059 27.5015C108.059 27.743 99.7928 29.4336 89.338 31.2449C79.0048 33.177 70.6167 34.5053 70.4951 34.2638C70.4951 34.0223 78.8833 32.3317 89.2165 30.5204C99.6712 28.5883 108.059 27.26 108.059 27.5015Z" fill="#181818"/>
<path opacity="0.3907" d="M107.695 27.5017C107.695 27.6225 99.5497 29.3131 89.338 31.1244C79.2479 32.9357 70.9814 34.264 70.8598 34.1433C70.8598 34.0225 79.0048 32.3319 89.2164 30.3998C99.4281 28.5885 107.695 27.381 107.695 27.5017Z" fill="#121212"/>
<path opacity="0.4005" d="M107.33 27.5015C107.33 27.6223 99.3065 29.3129 89.338 31.1242C79.3695 32.9355 71.3461 34.2639 71.2245 34.1431C71.2245 34.0223 79.2479 32.3318 89.2165 30.5204C99.185 28.7091 107.33 27.3808 107.33 27.5015Z" fill="#0C0C0C"/>
<path opacity="0.4102" d="M106.965 27.6223C106.965 27.7431 99.0634 29.3129 89.338 31.1242C79.6127 32.9356 71.7108 34.1431 71.5892 34.0224C71.5892 33.9016 79.4911 32.3318 89.2164 30.5205C99.0634 28.7091 106.965 27.5016 106.965 27.6223Z" fill="#060606"/>
<path opacity="0.42" d="M89.3655 31.0327C98.876 29.305 106.566 27.7981 106.542 27.6669C106.518 27.5357 98.7885 28.8298 89.278 30.5575C79.7675 32.2852 72.0773 33.7922 72.1014 33.9234C72.1256 34.0546 79.855 32.7604 89.3655 31.0327Z" fill="black"/>
</g>
</svg>
