<svg width="146" height="100" viewBox="0 0 146 100" fill="none" xmlns="http://www.w3.org/2000/svg">
<path d="M144.92 98.4684C140.414 97.7728 117.344 99.3889 110.632 99.8185C103.23 100.289 45.507 99.7571 39.8114 99.2048C34.1158 98.6525 5.42708 98.0388 2.53136 99.3685C-0.364363 100.698 0.0958849 96.7909 0 94.2543C0 94.1929 0 94.152 0.019177 94.0906C0.287655 91.4108 8.41869 83.7804 10.7583 82.9826C11.3911 82.7781 11.8514 82.6349 12.1774 82.553C13.0595 82.2871 13.0212 82.2257 13.1746 80.9165C13.4047 79.1368 12.3691 74.2681 11.9664 70.6677C11.7555 68.7243 13.7307 64.7761 15.5717 61.5849C17.125 58.9051 18.6017 56.7366 18.6017 56.7366C18.6017 56.7366 115.33 50.17 122.119 58.6391C128.927 67.1082 130.729 73.7976 129.982 76.4569C129.234 79.1163 128.025 80.5074 133.318 83.0235C138.611 85.5397 149.446 99.1639 144.92 98.4684Z" fill="url(#paint0_linear_20002_12282)"/>
<path d="M144.92 98.4684C140.414 97.7728 117.344 99.3889 110.632 99.8185C103.23 100.289 45.507 99.7571 39.8114 99.2048C34.1158 98.6525 5.42708 98.0388 2.53136 99.3685C-0.364363 100.698 0.0958849 96.7909 0 94.2543C0 94.1929 0 94.152 0.019177 94.0906C12.3883 100.739 50.7998 95.6249 73.9081 95.8704C97.5724 96.1363 129.828 86.7467 123.097 84.6396C116.366 82.5326 102.194 84.7419 112.837 82.1439C123.5 79.5459 115.829 74.4522 111.111 72.6929C106.375 70.9132 62.8238 78.8504 59.4486 74.1658C56.5912 70.2176 25.2177 63.5692 15.5717 61.5849C17.125 58.9051 18.6017 56.7366 18.6017 56.7366C18.6017 56.7366 115.33 50.17 122.119 58.6391C128.927 67.1082 130.729 73.7976 129.982 76.4569C129.234 79.1163 128.025 80.5074 133.318 83.0235C138.611 85.5397 149.446 99.1639 144.92 98.4684Z" fill="url(#paint1_linear_20002_12282)"/>
<path d="M122.1 58.66C118.475 59.7033 112.588 61.5649 108.062 63.2014C106.221 63.8765 104.591 64.4902 103.441 65.0221C103.038 65.2062 102.712 65.3698 102.424 65.513C99.8928 66.9041 80.1405 70.7704 63.1497 68.3974C59.5445 67.9065 56.0542 67.1087 52.89 65.9835C42.4578 62.2195 33.3104 60.4807 26.8669 59.1919C22.111 58.2509 18.8317 57.5758 17.5852 56.553C14.632 54.1186 11.7938 48.1248 14.0759 44.4222C15.9936 41.3536 13.8649 36.1372 11.3719 30.8798C10.8733 29.8365 10.3747 28.8137 9.8761 27.7908C9.8761 27.7908 49.8601 26.6248 50.3587 26.6453C50.8573 26.6657 125.801 25.0087 125.801 25.0087C125.801 25.0087 129.003 24.1291 126.146 36.0349C125.897 37.0577 125.705 37.9783 125.552 38.7966C124.382 45.2813 126.012 46.0587 126.99 47.4907C127.335 48.0021 127.584 48.5749 127.604 49.5159C127.642 53.464 127.699 57.0644 122.1 58.66Z" fill="url(#paint2_linear_20002_12282)"/>
<path d="M122.1 58.6601C118.475 59.7034 112.588 61.5649 108.062 63.2015C106.221 63.8765 104.591 64.4902 103.441 65.0221C103.613 63.0583 104.975 60.9103 107.449 60.3171C117.095 57.9646 123.25 48.4931 119.894 48.0226C116.558 47.5521 107.544 51.0093 110.498 48.2476C113.432 45.486 120.815 40.1877 118.897 37.0578C116.979 33.9484 71.5876 47.2657 68.6152 45.3837C65.9687 43.6858 20.8453 33.1096 11.3719 30.9003C10.8733 29.857 10.3747 28.8342 9.8761 27.8113C9.8761 27.8113 49.8601 26.6453 50.3587 26.6658C50.8573 26.6862 125.801 25.0292 125.801 25.0292C125.801 25.0292 129.003 24.1496 126.146 36.0554C123.27 47.9408 127.546 45.5882 127.604 49.5364C127.642 53.4641 127.699 57.0645 122.1 58.6601Z" fill="url(#paint3_linear_20002_12282)"/>
<path d="M71.5301 15.2526C71.5301 15.2526 40.6168 13.0229 23.5685 19.344C6.501 25.6651 8.93648 28.6109 12.4267 29.9201C15.9169 31.2294 68.4043 44.1989 72.4506 43.6261C76.4969 43.0533 120.201 34.2774 123.155 32.2522C125.743 30.452 134.737 23.824 113.432 20.4896C92.1262 17.1551 71.5301 15.2526 71.5301 15.2526Z" fill="#F9CEC2"/>
<path d="M118.437 31.7179C118.322 31.7998 118.111 31.8816 117.843 31.9839C112.147 34.0091 75.6724 40.3711 72.163 40.8007C68.9796 41.1894 33.042 33.334 21.018 30.4292C19.062 29.9382 17.7196 29.6109 17.2785 29.4472C14.0951 28.3835 11.8514 25.9696 27.4231 20.8963C28.2094 20.6304 29.034 20.4054 29.897 20.1803C45.7947 16.0072 71.2425 17.746 71.2425 17.746C71.2425 17.746 90.0551 19.3416 109.539 22.1442C109.788 22.1851 110.038 22.226 110.268 22.2465C128.793 25.049 120.777 30.286 118.437 31.7179Z" fill="url(#paint4_linear_20002_12282)"/>
<path d="M49.4767 90.5719C44.4523 91.1242 18.1607 88.0966 12.1775 82.5528C13.0596 82.2869 13.0213 82.2255 13.1747 80.9163C13.4048 79.1366 12.3693 74.2679 11.9666 70.6675C11.9666 70.6675 25.889 82.6142 28.2094 83.0438C30.549 83.4734 51.2602 87.0533 51.2602 87.0533C51.2602 87.0533 54.5203 90.04 49.4767 90.5719Z" fill="url(#paint5_linear_20002_12282)"/>
<g style="mix-blend-mode:overlay" opacity="0.2">
<path d="M70.322 39.0828C70.322 39.0828 67.8674 39.6146 66.4674 41.6398C64.358 44.7084 63.0923 50.1089 63.5909 53.3615C64.0128 56.0414 63.6484 62.5466 63.1498 68.3972C59.5446 67.9063 56.0543 67.1085 52.8901 65.9834C42.4579 62.2193 33.3105 60.4805 26.867 59.1917C27.6149 52.1546 20.903 32.5571 20.903 32.5571L26.004 30.5728L70.322 39.0828Z" fill="url(#paint6_linear_20002_12282)"/>
</g>
<path d="M117.842 31.9847C112.147 34.01 75.6723 40.372 72.1629 40.8016C68.9795 41.1903 33.0419 33.3349 21.0179 30.43C21.0755 30.3073 21.1522 30.1641 21.2289 30.0209C21.9768 28.6503 23.1849 26.9524 25.0835 24.9476C26.2533 23.6998 27.9025 22.0632 29.8969 20.1608C38.6416 11.9576 54.1941 -0.418701 66.6208 0.0108899C70.9931 0.154087 76.4969 1.5656 82.3267 3.95904C91.9919 7.90718 102.558 14.4738 110.268 22.2678C113.298 25.3363 115.906 28.6094 117.842 31.9847Z" fill="url(#paint7_linear_20002_12282)"/>
<path d="M126.99 47.5115C123.001 47.3274 118.399 46.4068 121.544 44.3202C123.097 43.2974 124.478 41.1085 125.571 38.8174C124.382 45.3022 126.012 46.0795 126.99 47.5115Z" fill="#E1706F"/>
<path d="M117.842 31.9856C112.147 34.0108 75.6723 40.3729 72.1629 40.8025C70.9356 40.9457 64.7606 39.8615 56.9939 38.3067C44.7015 35.8519 28.3819 32.2106 21.0179 30.4309C21.0755 30.3082 21.1522 30.165 21.2289 30.0218C21.6316 30.0831 22.0535 30.1445 22.4754 30.2059C76.6887 37.7749 83.4006 17.4 82.3075 3.93945C90.0359 7.08979 98.3203 11.9176 105.262 17.7068C107.027 19.1593 108.695 20.6731 110.248 22.2482C113.298 25.3372 115.906 28.6103 117.842 31.9856Z" fill="url(#paint8_linear_20002_12282)"/>
<g style="mix-blend-mode:overlay" opacity="0.2">
<path d="M42.3236 11.9789C39.2744 13.82 36.2061 15.8248 34.1925 18.6683C32.1789 21.5322 31.431 25.4394 33.272 28.4466C35.9568 32.8448 42.4194 33.1925 47.6739 32.5175C55.268 31.5355 62.7087 29.5103 69.6891 26.5236C74.2916 24.5393 78.9899 21.88 81.1186 17.5227C86.1813 7.19204 75.5189 -0.192839 65.6619 0.870911C57.1857 1.77101 49.3423 7.74437 42.3236 11.9789Z" fill="url(#paint9_radial_20002_12282)"/>
</g>
<path opacity="0.5" d="M117.842 31.9844C112.147 34.0096 75.6723 40.3717 72.1629 40.8013C70.9356 40.9445 64.7606 39.8603 56.9939 38.3055C95.0602 38.1214 103.441 24.1699 105.282 17.7261C107.046 19.1785 108.714 20.6923 110.268 22.2675C113.297 25.336 115.906 28.6091 117.842 31.9844Z" fill="url(#paint10_linear_20002_12282)"/>
<path d="M87.0001 14.5191C87.0061 14.3161 86.8308 14.1454 86.6085 14.1378C86.3862 14.1303 86.2011 14.2888 86.195 14.4918C86.189 14.6948 86.3643 14.8655 86.5866 14.873C86.8089 14.8806 86.994 14.7221 87.0001 14.5191Z" fill="#FFE3DC"/>
<path d="M87.1185 12.6041C87.1245 12.401 86.9492 12.2304 86.7269 12.2228C86.5046 12.2153 86.3195 12.3737 86.3135 12.5767C86.3074 12.7798 86.4827 12.9505 86.705 12.958C86.9273 12.9655 87.1124 12.8071 87.1185 12.6041Z" fill="#FFE3DC"/>
<path d="M84.0369 14.481C84.043 14.278 83.8677 14.1073 83.6454 14.0997C83.4231 14.0922 83.238 14.2507 83.2319 14.4537C83.2259 14.6567 83.4012 14.8274 83.6235 14.8349C83.8458 14.8425 84.0309 14.684 84.0369 14.481Z" fill="#FFE3DC"/>
<path d="M99.0047 19.254C99.0108 19.051 98.8355 18.8803 98.6132 18.8727C98.3909 18.8652 98.2057 19.0236 98.1997 19.2266C98.1936 19.4297 98.3689 19.6004 98.5912 19.6079C98.8135 19.6154 98.9987 19.457 99.0047 19.254Z" fill="#FFE3DC"/>
<path d="M82.614 8.97709C82.62 8.77407 82.4447 8.60338 82.2224 8.59584C82.0001 8.5883 81.815 8.74677 81.8089 8.94978C81.8029 9.1528 81.9782 9.3235 82.2005 9.33104C82.4228 9.33858 82.6079 9.18011 82.614 8.97709Z" fill="#FFE3DC"/>
<path d="M83.9259 18.9996C83.9319 18.7966 83.7566 18.6259 83.5343 18.6183C83.312 18.6108 83.1269 18.7692 83.1208 18.9723C83.1148 19.1753 83.2901 19.346 83.5124 19.3535C83.7347 19.3611 83.9198 19.2026 83.9259 18.9996Z" fill="#FFE3DC"/>
<path d="M85.0986 26.837C85.1046 26.6339 84.9293 26.4632 84.707 26.4557C84.4847 26.4482 84.2996 26.6066 84.2936 26.8096C84.2875 27.0127 84.4628 27.1834 84.6851 27.1909C84.9074 27.1984 85.0925 27.04 85.0986 26.837Z" fill="#FFE3DC"/>
<path d="M71.4918 22.3286C71.4918 22.533 71.3 22.6964 71.0891 22.6964C70.8781 22.6964 70.6864 22.5125 70.7055 22.3082C70.7055 22.1039 70.8973 21.9404 71.1083 21.9404C71.3192 21.9404 71.4918 22.1243 71.4918 22.3286Z" fill="url(#paint11_linear_20002_12282)"/>
<path d="M78.1461 13.9619C78.1461 14.1663 77.9543 14.3297 77.7434 14.3297C77.5324 14.3297 77.3407 14.1458 77.3598 13.9415C77.3598 13.7372 77.5516 13.5737 77.7626 13.5737C77.9927 13.5737 78.1653 13.7576 78.1461 13.9619Z" fill="url(#paint12_linear_20002_12282)"/>
<path d="M38.7952 24.4766C38.7952 24.6809 38.6034 24.8444 38.3924 24.8444C38.1815 24.8444 37.9897 24.6605 38.0089 24.4562C38.0089 24.2518 38.2007 24.0884 38.4116 24.0884C38.6226 24.0884 38.7952 24.2518 38.7952 24.4766Z" fill="url(#paint13_linear_20002_12282)"/>
<path d="M28.7463 28.1382C28.7463 28.3425 28.5546 28.506 28.3436 28.506C28.1327 28.506 27.9409 28.3221 27.9601 28.1178C27.9601 27.9135 28.1518 27.75 28.3628 27.75C28.5929 27.75 28.7655 27.9135 28.7463 28.1382Z" fill="url(#paint14_linear_20002_12282)"/>
<path d="M56.0543 14.6787C56.0543 14.8831 55.8625 15.0465 55.6516 15.0465C55.4406 15.0465 55.2489 14.8626 55.268 14.6583C55.268 14.454 55.4598 14.2905 55.6708 14.2905C55.8817 14.311 56.0543 14.4744 56.0543 14.6787Z" fill="url(#paint15_linear_20002_12282)"/>
<path d="M58.7775 26.1958C58.7775 26.4002 58.5857 26.5636 58.3747 26.5636C58.1638 26.5636 57.972 26.3797 57.9912 26.1754C57.9912 25.9711 58.183 25.8076 58.3939 25.8076C58.6049 25.8076 58.7775 25.9915 58.7775 26.1958Z" fill="url(#paint16_linear_20002_12282)"/>
<path d="M51.9313 27.8511C51.9313 28.0554 51.7395 28.2189 51.5285 28.2189C51.3176 28.2189 51.1258 28.035 51.145 27.8307C51.145 27.6263 51.3368 27.4629 51.5477 27.4629C51.7587 27.4629 51.9313 27.6263 51.9313 27.8511Z" fill="url(#paint17_linear_20002_12282)"/>
<path d="M68.8646 16.437C68.8646 16.6414 68.6728 16.8048 68.4619 16.8048C68.2509 16.8048 68.0592 16.6209 68.0784 16.4166C68.0784 16.2123 68.2701 16.0488 68.4811 16.0488C68.7112 16.0488 68.8838 16.2327 68.8646 16.437Z" fill="url(#paint18_linear_20002_12282)"/>
<path d="M93.3382 12.4595C93.3443 12.2565 93.169 12.0858 92.9466 12.0783C92.7243 12.0707 92.5392 12.2292 92.5332 12.4322C92.5271 12.6352 92.7024 12.8059 92.9247 12.8135C93.147 12.821 93.3322 12.6625 93.3382 12.4595Z" fill="#FFE3DC"/>
<path d="M99.5565 14.8111C99.5625 14.6081 99.3872 14.4374 99.1649 14.4298C98.9426 14.4223 98.7575 14.5808 98.7514 14.7838C98.7454 14.9868 98.9207 15.1575 99.143 15.165C99.3653 15.1726 99.5504 15.0141 99.5565 14.8111Z" fill="#FFE3DC"/>
<path d="M90.8232 15.2339C90.8292 15.0309 90.6539 14.8602 90.4316 14.8527C90.2093 14.8451 90.0242 15.0036 90.0182 15.2066C90.0121 15.4096 90.1874 15.5803 90.4097 15.5879C90.632 15.5954 90.8171 15.437 90.8232 15.2339Z" fill="#FFE3DC"/>
<path d="M87.8017 8.41804C87.8078 8.21502 87.6325 8.04432 87.4102 8.03677C87.1879 8.02923 87.0027 8.18769 86.9967 8.39071C86.9906 8.59372 87.1659 8.76442 87.3882 8.77197C87.6105 8.77951 87.7957 8.62105 87.8017 8.41804Z" fill="#FFE3DC"/>
<path d="M80.0247 25.1929C80.0308 24.9899 79.8555 24.8192 79.6332 24.8117C79.4109 24.8041 79.2258 24.9626 79.2197 25.1656C79.2136 25.3686 79.389 25.5393 79.6113 25.5469C79.8336 25.5544 80.0187 25.3959 80.0247 25.1929Z" fill="#FFE3DC"/>
<path d="M81.4468 31.1973C81.4529 30.9943 81.2776 30.8236 81.0553 30.8161C80.833 30.8085 80.6479 30.967 80.6418 31.17C80.6358 31.373 80.8111 31.5437 81.0334 31.5513C81.2557 31.5588 81.4408 31.4003 81.4468 31.1973Z" fill="#FFE3DC"/>
<path d="M96.1634 34.3086C96.1695 34.1056 95.9941 33.9349 95.7718 33.9274C95.5495 33.9198 95.3644 34.0783 95.3584 34.2813C95.3523 34.4844 95.5276 34.655 95.7499 34.6626C95.9722 34.6701 96.1573 34.5117 96.1634 34.3086Z" fill="#FFE3DC"/>
<path d="M92.4819 27.7515C92.4879 27.5485 92.3126 27.3778 92.0903 27.3703C91.868 27.3627 91.6829 27.5212 91.6769 27.7242C91.6708 27.9272 91.8461 28.0979 92.0684 28.1055C92.2907 28.113 92.4758 27.9545 92.4819 27.7515Z" fill="#FFE3DC"/>
<path d="M110.159 28.6045C110.165 28.4015 109.99 28.2308 109.768 28.2233C109.545 28.2157 109.36 28.3742 109.354 28.5772C109.348 28.7802 109.523 28.9509 109.746 28.9585C109.968 28.966 110.153 28.8076 110.159 28.6045Z" fill="#FFE3DC"/>
<path d="M105.944 23.3423C105.95 23.1393 105.775 22.9686 105.553 22.9611C105.33 22.9535 105.145 23.112 105.139 23.315C105.133 23.518 105.308 23.6887 105.531 23.6963C105.753 23.7038 105.938 23.5453 105.944 23.3423Z" fill="#FFE3DC"/>
<path d="M83.5438 36.1763C83.5498 35.9733 83.3745 35.8026 83.1522 35.7951C82.9299 35.7875 82.7448 35.946 82.7387 36.149C82.7327 36.352 82.908 36.5227 83.1303 36.5303C83.3526 36.5378 83.5377 36.3794 83.5438 36.1763Z" fill="#FFE3DC"/>
<path d="M79.2383 31.689C79.2444 31.486 79.0691 31.3153 78.8468 31.3078C78.6245 31.3002 78.4394 31.4587 78.4333 31.6617C78.4273 31.8647 78.6026 32.0354 78.8249 32.043C79.0472 32.0505 79.2323 31.892 79.2383 31.689Z" fill="#FFE3DC"/>
<path d="M77.9528 30.3042C77.9589 30.1012 77.7836 29.9305 77.5613 29.923C77.339 29.9155 77.1539 30.0739 77.1478 30.2769C77.1417 30.48 77.3171 30.6506 77.5394 30.6582C77.7617 30.6657 77.9468 30.5073 77.9528 30.3042Z" fill="#FFE3DC"/>
<path d="M94.335 18.4713C94.3411 18.2682 94.1658 18.0975 93.9435 18.09C93.7212 18.0824 93.5361 18.2409 93.53 18.4439C93.524 18.6469 93.6993 18.8176 93.9216 18.8252C94.1439 18.8327 94.329 18.6743 94.335 18.4713Z" fill="#FFE3DC"/>
<path d="M90.7366 20.2564C90.7427 20.0534 90.5674 19.8827 90.3451 19.8752C90.1228 19.8676 89.9377 20.0261 89.9316 20.2291C89.9256 20.4321 90.1009 20.6028 90.3232 20.6103C90.5455 20.6179 90.7306 20.4594 90.7366 20.2564Z" fill="#FFE3DC"/>
<path d="M64.2152 31.2686C64.2212 31.0656 64.0459 30.8949 63.8236 30.8873C63.6013 30.8798 63.4162 31.0383 63.4101 31.2413C63.4041 31.4443 63.5794 31.615 63.8017 31.6225C64.024 31.6301 64.2091 31.4716 64.2152 31.2686Z" fill="#FFE3DC"/>
<path d="M103.909 28.6578C103.915 28.4547 103.739 28.2841 103.517 28.2765C103.295 28.269 103.11 28.4274 103.104 28.6305C103.098 28.8335 103.273 29.0042 103.495 29.0117C103.717 29.0192 103.903 28.8608 103.909 28.6578Z" fill="#FFE3DC"/>
<path d="M78.8398 20.4205C78.8458 20.2174 78.6705 20.0467 78.4482 20.0392C78.2259 20.0317 78.0408 20.1901 78.0348 20.3931C78.0287 20.5962 78.204 20.7669 78.4263 20.7744C78.6486 20.7819 78.8337 20.6235 78.8398 20.4205Z" fill="#FFE3DC"/>
<path d="M75.0086 27.2329C75.0147 27.0299 74.8394 26.8592 74.6171 26.8517C74.3948 26.8442 74.2096 27.0026 74.2036 27.2056C74.1975 27.4087 74.3728 27.5794 74.5951 27.5869C74.8174 27.5944 75.0026 27.436 75.0086 27.2329Z" fill="#FFE3DC"/>
<path d="M56.909 34.1358C56.9151 33.9328 56.7398 33.7621 56.5175 33.7545C56.2952 33.747 56.11 33.9055 56.104 34.1085C56.0979 34.3115 56.2732 34.4822 56.4955 34.4897C56.7178 34.4973 56.903 34.3388 56.909 34.1358Z" fill="#FFE3DC"/>
<path d="M51.0737 34.1334C51.0797 33.9303 50.9044 33.7597 50.6821 33.7521C50.4598 33.7446 50.2747 33.903 50.2687 34.106C50.2626 34.3091 50.4379 34.4798 50.6602 34.4873C50.8825 34.4948 51.0676 34.3364 51.0737 34.1334Z" fill="#FFE3DC"/>
<path d="M71.305 32.7584C71.3111 32.5553 71.1358 32.3847 70.9135 32.3771C70.6912 32.3696 70.506 32.528 70.5 32.731C70.4939 32.9341 70.6692 33.1048 70.8915 33.1123C71.1138 33.1198 71.299 32.9614 71.305 32.7584Z" fill="#FFE3DC"/>
<path d="M67.806 36.3155C67.812 36.1125 67.6367 35.9418 67.4144 35.9342C67.1921 35.9267 67.007 36.0852 67.0009 36.2882C66.9949 36.4912 67.1702 36.6619 67.3925 36.6694C67.6148 36.677 67.7999 36.5185 67.806 36.3155Z" fill="#FFE3DC"/>
<path d="M85.2363 10.753C85.2423 10.55 85.067 10.3793 84.8447 10.3717C84.6224 10.3642 84.4373 10.5227 84.4313 10.7257C84.4252 10.9287 84.6005 11.0994 84.8228 11.1069C85.0451 11.1145 85.2302 10.956 85.2363 10.753Z" fill="#FFE3DC"/>
<path d="M81.6971 14.1309C81.7031 13.9279 81.5278 13.7572 81.3055 13.7497C81.0832 13.7421 80.8981 13.9006 80.8921 14.1036C80.886 14.3066 81.0613 14.4773 81.2836 14.4848C81.5059 14.4924 81.691 14.3339 81.6971 14.1309Z" fill="#FFE3DC"/>
<defs>
<linearGradient id="paint0_linear_20002_12282" x1="0.561918" y1="75.424" x2="146.536" y2="79.7777" gradientUnits="userSpaceOnUse">
<stop stop-color="#F9D2B8"/>
<stop offset="0.236" stop-color="#F0C0AE"/>
<stop offset="0.7198" stop-color="#E1A19C"/>
<stop offset="0.9892" stop-color="#DB9595"/>
</linearGradient>
<linearGradient id="paint1_linear_20002_12282" x1="0.561918" y1="75.424" x2="146.536" y2="79.7777" gradientUnits="userSpaceOnUse">
<stop stop-color="#FECBA9"/>
<stop offset="0.9892" stop-color="#E28484"/>
</linearGradient>
<linearGradient id="paint2_linear_20002_12282" x1="-1.3382" y1="43.6532" x2="116.969" y2="47.1818" gradientUnits="userSpaceOnUse">
<stop stop-color="#DB9595"/>
<stop offset="0.2649" stop-color="#F9D2B8"/>
<stop offset="0.4374" stop-color="#F7CDB5"/>
<stop offset="0.6387" stop-color="#F0BFAD"/>
<stop offset="0.8537" stop-color="#E4A8A0"/>
<stop offset="0.9892" stop-color="#DB9595"/>
</linearGradient>
<linearGradient id="paint3_linear_20002_12282" x1="10.3292" y1="43.503" x2="128.059" y2="46.7367" gradientUnits="userSpaceOnUse">
<stop stop-color="#FECBA9"/>
<stop offset="0.9892" stop-color="#E28484"/>
</linearGradient>
<linearGradient id="paint4_linear_20002_12282" x1="14.9814" y1="27.3226" x2="122.084" y2="30.517" gradientUnits="userSpaceOnUse">
<stop stop-color="#C67373"/>
<stop offset="0.9892" stop-color="#D67272"/>
</linearGradient>
<linearGradient id="paint5_linear_20002_12282" x1="12.1218" y1="79.8955" x2="52.4663" y2="80.656" gradientUnits="userSpaceOnUse">
<stop stop-color="#FCC7A4"/>
<stop offset="0.9892" stop-color="#EFAB97"/>
</linearGradient>
<linearGradient id="paint6_linear_20002_12282" x1="20.4177" y1="48.672" x2="69.9831" y2="50.1503" gradientUnits="userSpaceOnUse">
<stop stop-color="white"/>
<stop offset="1"/>
</linearGradient>
<linearGradient id="paint7_linear_20002_12282" x1="21.3595" y1="18.7812" x2="118.145" y2="21.6679" gradientUnits="userSpaceOnUse">
<stop stop-color="#FFEBDC"/>
<stop offset="0.3702" stop-color="#FEE7D8"/>
<stop offset="0.7455" stop-color="#FCDBCD"/>
<stop offset="1" stop-color="#F9CEC2"/>
</linearGradient>
<linearGradient id="paint8_linear_20002_12282" x1="21.3087" y1="20.4836" x2="118.095" y2="23.3703" gradientUnits="userSpaceOnUse">
<stop stop-color="#FFEBDC"/>
<stop offset="0.3702" stop-color="#FEE7D8"/>
<stop offset="0.7455" stop-color="#FCDBCD"/>
<stop offset="1" stop-color="#F9CEC2"/>
</linearGradient>
<radialGradient id="paint9_radial_20002_12282" cx="0" cy="0" r="1" gradientUnits="userSpaceOnUse" gradientTransform="translate(57.3851 16.8362) rotate(1.94396) scale(21.4169 20.4174)">
<stop stop-color="white"/>
<stop offset="1"/>
</radialGradient>
<linearGradient id="paint10_linear_20002_12282" x1="57.2809" y1="28.1987" x2="117.897" y2="30.0066" gradientUnits="userSpaceOnUse">
<stop stop-color="#FFEBDC"/>
<stop offset="0.3702" stop-color="#FEE7D8"/>
<stop offset="0.7455" stop-color="#FCDBCD"/>
<stop offset="1" stop-color="#F9CEC2"/>
</linearGradient>
<linearGradient id="paint11_linear_20002_12282" x1="70.6878" y1="22.3007" x2="71.4845" y2="22.3244" gradientUnits="userSpaceOnUse">
<stop stop-color="#FFEBDC"/>
<stop offset="0.3702" stop-color="#FEE7D8"/>
<stop offset="0.7455" stop-color="#FCDBCD"/>
<stop offset="1" stop-color="#F9CEC2"/>
</linearGradient>
<linearGradient id="paint12_linear_20002_12282" x1="77.3588" y1="13.931" x2="78.1556" y2="13.9547" gradientUnits="userSpaceOnUse">
<stop stop-color="#FFEBDC"/>
<stop offset="0.3702" stop-color="#FEE7D8"/>
<stop offset="0.7455" stop-color="#FCDBCD"/>
<stop offset="1" stop-color="#F9CEC2"/>
</linearGradient>
<linearGradient id="paint13_linear_20002_12282" x1="37.9918" y1="24.4396" x2="38.7885" y2="24.4634" gradientUnits="userSpaceOnUse">
<stop stop-color="#FFEBDC"/>
<stop offset="0.3702" stop-color="#FEE7D8"/>
<stop offset="0.7455" stop-color="#FCDBCD"/>
<stop offset="1" stop-color="#F9CEC2"/>
</linearGradient>
<linearGradient id="paint14_linear_20002_12282" x1="27.9563" y1="28.1035" x2="28.753" y2="28.1273" gradientUnits="userSpaceOnUse">
<stop stop-color="#FFEBDC"/>
<stop offset="0.3702" stop-color="#FEE7D8"/>
<stop offset="0.7455" stop-color="#FCDBCD"/>
<stop offset="1" stop-color="#F9CEC2"/>
</linearGradient>
<linearGradient id="paint15_linear_20002_12282" x1="55.2605" y1="14.6593" x2="56.0573" y2="14.6831" gradientUnits="userSpaceOnUse">
<stop stop-color="#FFEBDC"/>
<stop offset="0.3702" stop-color="#FEE7D8"/>
<stop offset="0.7455" stop-color="#FCDBCD"/>
<stop offset="1" stop-color="#F9CEC2"/>
</linearGradient>
<linearGradient id="paint16_linear_20002_12282" x1="57.9812" y1="26.1684" x2="58.7779" y2="26.1922" gradientUnits="userSpaceOnUse">
<stop stop-color="#FFEBDC"/>
<stop offset="0.3702" stop-color="#FEE7D8"/>
<stop offset="0.7455" stop-color="#FCDBCD"/>
<stop offset="1" stop-color="#F9CEC2"/>
</linearGradient>
<linearGradient id="paint17_linear_20002_12282" x1="51.1328" y1="27.8147" x2="51.9295" y2="27.8385" gradientUnits="userSpaceOnUse">
<stop stop-color="#FFEBDC"/>
<stop offset="0.3702" stop-color="#FEE7D8"/>
<stop offset="0.7455" stop-color="#FCDBCD"/>
<stop offset="1" stop-color="#F9CEC2"/>
</linearGradient>
<linearGradient id="paint18_linear_20002_12282" x1="68.0724" y1="16.4114" x2="68.8691" y2="16.4352" gradientUnits="userSpaceOnUse">
<stop stop-color="#FFEBDC"/>
<stop offset="0.3702" stop-color="#FEE7D8"/>
<stop offset="0.7455" stop-color="#FCDBCD"/>
<stop offset="1" stop-color="#F9CEC2"/>
</linearGradient>
</defs>
</svg>
