<svg width="132" height="124" viewBox="0 0 132 124" fill="none" xmlns="http://www.w3.org/2000/svg">
<path d="M67.3481 1.08496C33.3179 1.08496 5.73169 28.6 5.73169 62.5423C5.73169 96.4847 33.3179 124 67.3481 124C101.378 124 128.965 96.4847 128.965 62.5423C128.965 28.6 101.378 1.08496 67.3481 1.08496ZM67.7102 77.7081C58.3699 77.7081 50.7674 70.1613 50.7674 60.8091C50.7674 51.493 58.3337 43.9101 67.7102 43.9101C77.0504 43.9101 84.6529 51.4569 84.6529 60.8091C84.6529 70.1252 77.0504 77.7081 67.7102 77.7081Z" fill="#B23E0A"/>
<path d="M35.997 84.0629C35.997 84.0629 26.8016 83.8101 27.0912 93.2345C27.3446 102.659 44.1063 115.586 60.5784 116.669C77.0505 117.752 95.6947 108.87 94.8982 97.2787C94.1018 85.6878 87.5854 84.8934 76.254 85.435C64.8865 85.9766 57.8632 86.5183 53.3017 85.6878C48.704 84.8934 39.0018 82.9796 35.997 84.0629Z" fill="#CF5E0A"/>
<path d="M68.1446 0.00160464C68.1446 0.00160464 33.4628 -0.612247 15.6512 22.1725C-1.29153 43.8739 -0.205456 64.9254 0.156568 75.722C0.518591 86.5186 8.44691 84.5326 10.8001 81.4633C13.1532 78.3941 16.7373 76.2636 18.7284 79.4773C20.7195 82.7271 25.5706 83.7743 32.7749 74.9998C32.7749 74.9998 39.4361 62.4339 54.3877 71.0639C54.3877 71.0639 49.7176 66.5864 51.1295 57.5953C52.5776 48.6042 62.8229 41.5991 74.1904 45.7516C85.5218 49.868 87.1509 62.8311 80.6707 70.9195C80.6707 70.9195 81.2137 71.8222 83.7479 72.0028C86.282 72.1833 87.5129 74.5304 87.6939 76.4803C87.8749 78.4663 91.821 84.3881 100.111 80.2717C108.402 76.1553 111.443 77.0219 117.416 82.2577C123.353 87.4574 128.566 86.3741 131.101 79.9106C133.635 73.3749 135.445 0.434912 68.1446 0.00160464Z" fill="#631D01"/>
<path d="M24.6655 53.9125C24.6655 53.9125 14.9995 58.029 11.3431 47.8824C7.68662 37.7357 20.104 16.9731 37.1916 8.99305C54.3153 0.976874 86.3182 2.13236 90.3366 14.8066C94.3189 27.4808 79.9104 34.3776 66.9861 35.7136C50.333 37.4469 46.9662 42.2132 42.4409 44.9936C37.8432 47.774 28.2858 53.8403 24.6655 53.9125Z" fill="#8A3008"/>
<path d="M40.5946 9.17285C40.5946 9.17285 23.2899 16.178 21.1539 26.4329C18.9818 36.6878 30.3493 32.102 38.4587 24.5553C46.5318 16.9724 46.5318 9.67838 40.5946 9.17285Z" fill="#A43E10"/>
<path d="M68.0361 9.42611C69.1557 9.42611 70.0634 8.87645 70.0634 8.19841C70.0634 7.52037 69.1557 6.9707 68.0361 6.9707C66.9164 6.9707 66.0087 7.52037 66.0087 8.19841C66.0087 8.87645 66.9164 9.42611 68.0361 9.42611Z" fill="#FCDEC2"/>
<path d="M82.0825 9.9678C83.0622 9.9678 83.8564 9.48281 83.8564 8.88454C83.8564 8.28626 83.0622 7.80127 82.0825 7.80127C81.1028 7.80127 80.3086 8.28626 80.3086 8.88454C80.3086 9.48281 81.1028 9.9678 82.0825 9.9678Z" fill="#FCDEC2"/>
<path d="M81.9377 18.3088C82.5375 18.3088 83.0238 17.7106 83.0238 16.9728C83.0238 16.2349 82.5375 15.6367 81.9377 15.6367C81.3379 15.6367 80.8516 16.2349 80.8516 16.9728C80.8516 17.7106 81.3379 18.3088 81.9377 18.3088Z" fill="#FCDEC2"/>
<path d="M92.4726 12.6758C93.0724 12.6758 93.5587 12.1908 93.5587 11.5925C93.5587 10.9943 93.0724 10.5093 92.4726 10.5093C91.8728 10.5093 91.3865 10.9943 91.3865 11.5925C91.3865 12.1908 91.8728 12.6758 92.4726 12.6758Z" fill="#FCDEC2"/>
<path d="M85.8476 5.09319C86.3675 5.09319 86.7889 4.73752 86.7889 4.29879C86.7889 3.86006 86.3675 3.50439 85.8476 3.50439C85.3278 3.50439 84.9064 3.86006 84.9064 4.29879C84.9064 4.73752 85.3278 5.09319 85.8476 5.09319Z" fill="#FCDEC2"/>
<path d="M73.7199 4.29886C74.2397 4.29886 74.6611 3.81386 74.6611 3.21559C74.6611 2.61732 74.2397 2.13232 73.7199 2.13232C73.2 2.13232 72.7786 2.61732 72.7786 3.21559C72.7786 3.81386 73.2 4.29886 73.7199 4.29886Z" fill="#FCDEC2"/>
<path d="M59.6371 4.55071C60.157 4.55071 60.5784 4.19504 60.5784 3.75631C60.5784 3.31758 60.157 2.96191 59.6371 2.96191C59.1173 2.96191 58.6959 3.31758 58.6959 3.75631C58.6959 4.19504 59.1173 4.55071 59.6371 4.55071Z" fill="#FCDEC2"/>
<path d="M62.6419 8.63161C63.0218 8.63161 63.3297 8.38911 63.3297 8.08997C63.3297 7.79084 63.0218 7.54834 62.6419 7.54834C62.262 7.54834 61.954 7.79084 61.954 8.08997C61.954 8.38911 62.262 8.63161 62.6419 8.63161Z" fill="#FCDEC2"/>
<path d="M75.0593 10.4731C75.7391 10.4731 76.2902 10.1174 76.2902 9.67867C76.2902 9.23994 75.7391 8.88428 75.0593 8.88428C74.3795 8.88428 73.8284 9.23994 73.8284 9.67867C73.8284 10.1174 74.3795 10.4731 75.0593 10.4731Z" fill="#FCDEC2"/>
<path d="M79.114 14.2633C79.4939 14.2633 79.8018 14.0856 79.8018 13.8665C79.8018 13.6474 79.4939 13.4697 79.114 13.4697C78.7341 13.4697 78.4261 13.6474 78.4261 13.8665C78.4261 14.0856 78.7341 14.2633 79.114 14.2633Z" fill="#FCDEC2"/>
<path d="M76.6884 19.1388C77.0683 19.1388 77.3762 18.9611 77.3762 18.742C77.3762 18.5229 77.0683 18.3452 76.6884 18.3452C76.3085 18.3452 76.0005 18.5229 76.0005 18.742C76.0005 18.9611 76.3085 19.1388 76.6884 19.1388Z" fill="#FCDEC2"/>
<path d="M72.2355 22.8951C72.9153 22.8951 73.4664 21.9251 73.4664 20.7285C73.4664 19.532 72.9153 18.562 72.2355 18.562C71.5557 18.562 71.0046 19.532 71.0046 20.7285C71.0046 21.9251 71.5557 22.8951 72.2355 22.8951Z" fill="#FCDEC2"/>
<path d="M62.4971 17.8028C62.937 17.8028 63.2936 17.4956 63.2936 17.1167C63.2936 16.7378 62.937 16.4307 62.4971 16.4307C62.0573 16.4307 61.7007 16.7378 61.7007 17.1167C61.7007 17.4956 62.0573 17.8028 62.4971 17.8028Z" fill="#FCDEC2"/>
<path d="M53.8447 12.0981C54.4446 12.0981 54.9308 11.7424 54.9308 11.3037C54.9308 10.8649 54.4446 10.5093 53.8447 10.5093C53.2449 10.5093 52.7587 10.8649 52.7587 11.3037C52.7587 11.7424 53.2449 12.0981 53.8447 12.0981Z" fill="#FCDEC2"/>
<path d="M57.2116 16.9718C57.5915 16.9718 57.8994 16.7941 57.8994 16.575C57.8994 16.3559 57.5915 16.1782 57.2116 16.1782C56.8317 16.1782 56.5237 16.3559 56.5237 16.575C56.5237 16.7941 56.8317 16.9718 57.2116 16.9718Z" fill="#FCDEC2"/>
<path d="M86.7889 15.6008C87.3887 15.6008 87.875 15.0026 87.875 14.2647C87.875 13.5269 87.3887 12.9287 86.7889 12.9287C86.1891 12.9287 85.7028 13.5269 85.7028 14.2647C85.7028 15.0026 86.1891 15.6008 86.7889 15.6008Z" fill="#FCDEC2"/>
<path d="M78.7158 4.98473C78.7158 5.49025 78.4262 5.92356 78.0279 5.92356C77.6659 5.92356 77.3401 5.49025 77.3401 4.98473C77.3401 4.4792 77.6297 4.0459 78.0279 4.0459C78.39 4.0459 78.7158 4.4431 78.7158 4.98473Z" fill="#FCDEC2"/>
<path d="M38.4587 44.4874C38.9786 44.4874 39.4 44.1802 39.4 43.8013C39.4 43.4224 38.9786 43.1152 38.4587 43.1152C37.9389 43.1152 37.5175 43.4224 37.5175 43.8013C37.5175 44.1802 37.9389 44.4874 38.4587 44.4874Z" fill="#FCDEC2"/>
<path d="M16.5563 39.3239C17.456 39.3239 18.1854 38.5479 18.1854 37.5906C18.1854 36.6334 17.456 35.8574 16.5563 35.8574C15.6566 35.8574 14.9272 36.6334 14.9272 37.5906C14.9272 38.5479 15.6566 39.3239 16.5563 39.3239Z" fill="#FCDEC2"/>
<path d="M88.418 9.13713C89.0178 9.13713 89.5041 8.78147 89.5041 8.34274C89.5041 7.904 89.0178 7.54834 88.418 7.54834C87.8182 7.54834 87.3319 7.904 87.3319 8.34274C87.3319 8.78147 87.8182 9.13713 88.418 9.13713Z" fill="#FCDEC2"/>
<path d="M94.5 6.7177C94.8799 6.7177 95.1878 6.36204 95.1878 5.9233C95.1878 5.48457 94.8799 5.12891 94.5 5.12891C94.1201 5.12891 93.8121 5.48457 93.8121 5.9233C93.8121 6.36204 94.1201 6.7177 94.5 6.7177Z" fill="#FCDEC2"/>
<path d="M98.3013 12.0979C98.8212 12.0979 99.2426 11.6776 99.2426 11.159C99.2426 10.6405 98.8212 10.2202 98.3013 10.2202C97.7815 10.2202 97.36 10.6405 97.36 11.159C97.36 11.6776 97.7815 12.0979 98.3013 12.0979Z" fill="#FCDEC2"/>
<path d="M93.7035 15.8897C94.2234 15.8897 94.6448 15.5826 94.6448 15.2036C94.6448 14.8247 94.2234 14.5176 93.7035 14.5176C93.1837 14.5176 92.7623 14.8247 92.7623 15.2036C92.7623 15.5826 93.1837 15.8897 93.7035 15.8897Z" fill="#FCDEC2"/>
<path d="M89.9023 18.0195C90.2822 18.0195 90.5901 17.6638 90.5901 17.2251C90.5901 16.7863 90.2822 16.4307 89.9023 16.4307C89.5224 16.4307 89.2144 16.7863 89.2144 17.2251C89.2144 17.6638 89.5224 18.0195 89.9023 18.0195Z" fill="#FCDEC2"/>
<path d="M85.8476 20.4742C86.3675 20.4742 86.7889 20.3612 86.7889 20.2217C86.7889 20.0823 86.3675 19.9692 85.8476 19.9692C85.3278 19.9692 84.9064 20.0823 84.9064 20.2217C84.9064 20.3612 85.3278 20.4742 85.8476 20.4742Z" fill="#FCDEC2"/>
<path d="M79.3674 24.2671C79.5873 24.2671 79.7656 23.7821 79.7656 23.1839C79.7656 22.5856 79.5873 22.1006 79.3674 22.1006C79.1475 22.1006 78.9692 22.5856 78.9692 23.1839C78.9692 23.7821 79.1475 24.2671 79.3674 24.2671Z" fill="#FCDEC2"/>
<path d="M83.2773 22.8942C83.2773 23.183 83.0239 23.4358 82.7343 23.4358C82.4446 23.4358 82.1912 23.183 82.1912 22.8942C82.1912 22.6053 82.4446 22.3525 82.7343 22.3525C83.0601 22.3525 83.2773 22.6053 83.2773 22.8942Z" fill="#FCDEC2"/>
<path d="M87.4767 25.0616C88.4564 25.0616 89.2507 24.7544 89.2507 24.3755C89.2507 23.9966 88.4564 23.6895 87.4767 23.6895C86.497 23.6895 85.7028 23.9966 85.7028 24.3755C85.7028 24.7544 86.497 25.0616 87.4767 25.0616Z" fill="#FCDEC2"/>
<path d="M92.0744 23.978C92.5943 23.978 93.0157 23.3152 93.0157 22.4976C93.0157 21.6799 92.5943 21.0171 92.0744 21.0171C91.5546 21.0171 91.1332 21.6799 91.1332 22.4976C91.1332 23.3152 91.5546 23.978 92.0744 23.978Z" fill="#FCDEC2"/>
<path d="M98.6995 21.5586C99.2993 21.5586 99.7855 21.0736 99.7855 20.4754C99.7855 19.8771 99.2993 19.3921 98.6995 19.3921C98.0997 19.3921 97.6134 19.8771 97.6134 20.4754C97.6134 21.0736 98.0997 21.5586 98.6995 21.5586Z" fill="#FCDEC2"/>
<path d="M97.2152 25.8917C97.5951 25.8917 97.903 25.5845 97.903 25.2056C97.903 24.8267 97.5951 24.5195 97.2152 24.5195C96.8353 24.5195 96.5273 24.8267 96.5273 25.2056C96.5273 25.5845 96.8353 25.8917 97.2152 25.8917Z" fill="#FCDEC2"/>
<path d="M104.781 23.1832C105.161 23.1832 105.469 22.876 105.469 22.4971C105.469 22.1182 105.161 21.811 104.781 21.811C104.402 21.811 104.094 22.1182 104.094 22.4971C104.094 22.876 104.402 23.1832 104.781 23.1832Z" fill="#FCDEC2"/>
<path d="M102.356 16.1418C102.876 16.1418 103.297 15.7215 103.297 15.203C103.297 14.6845 102.876 14.2642 102.356 14.2642C101.836 14.2642 101.415 14.6845 101.415 15.203C101.415 15.7215 101.836 16.1418 102.356 16.1418Z" fill="#FCDEC2"/>
<path d="M96.5273 17.767C96.9672 17.767 97.3237 17.4114 97.3237 16.9726C97.3237 16.5339 96.9672 16.1782 96.5273 16.1782C96.0874 16.1782 95.7308 16.5339 95.7308 16.9726C95.7308 17.4114 96.0874 17.767 96.5273 17.767Z" fill="#FCDEC2"/>
<path d="M74.3715 16.178C74.6714 16.178 74.9145 15.9355 74.9145 15.6364C74.9145 15.3372 74.6714 15.0947 74.3715 15.0947C74.0716 15.0947 73.8284 15.3372 73.8284 15.6364C73.8284 15.9355 74.0716 16.178 74.3715 16.178Z" fill="#FCDEC2"/>
<path d="M100.329 34.7747C101.228 34.7747 101.958 34.0472 101.958 33.1498C101.958 32.2524 101.228 31.5249 100.329 31.5249C99.4288 31.5249 98.6995 32.2524 98.6995 33.1498C98.6995 34.0472 99.4288 34.7747 100.329 34.7747Z" fill="#FCDEC2"/>
<path d="M54.3878 4.9846C54.9076 4.9846 55.3291 4.56427 55.3291 4.04576C55.3291 3.52726 54.9076 3.10693 54.3878 3.10693C53.8679 3.10693 53.4465 3.52726 53.4465 4.04576C53.4465 4.56427 53.8679 4.9846 54.3878 4.9846Z" fill="#FCDEC2"/>
<path d="M46.6767 8.63206C47.1965 8.63206 47.6179 8.21173 47.6179 7.69323C47.6179 7.17472 47.1965 6.75439 46.6767 6.75439C46.1568 6.75439 45.7354 7.17472 45.7354 7.69323C45.7354 8.21173 46.1568 8.63206 46.6767 8.63206Z" fill="#FCDEC2"/>
<path d="M42.0789 12.3866C42.7587 12.3866 43.3098 11.8369 43.3098 11.1589C43.3098 10.4808 42.7587 9.93115 42.0789 9.93115C41.3991 9.93115 40.848 10.4808 40.848 11.1589C40.848 11.8369 41.3991 12.3866 42.0789 12.3866Z" fill="#FCDEC2"/>
<path d="M46.8215 13.7229C47.1214 13.7229 47.3645 13.4804 47.3645 13.1813C47.3645 12.8821 47.1214 12.6396 46.8215 12.6396C46.5216 12.6396 46.2784 12.8821 46.2784 13.1813C46.2784 13.4804 46.5216 13.7229 46.8215 13.7229Z" fill="#FCDEC2"/>
<path d="M48.704 11.5925C49.0039 11.5925 49.247 11.35 49.247 11.0509C49.247 10.7518 49.0039 10.5093 48.704 10.5093C48.4041 10.5093 48.1609 10.7518 48.1609 11.0509C48.1609 11.35 48.4041 11.5925 48.704 11.5925Z" fill="#FCDEC2"/>
<path d="M45.7353 26.6856C46.935 26.6856 47.9075 25.7156 47.9075 24.5191C47.9075 23.3225 46.935 22.3525 45.7353 22.3525C44.5357 22.3525 43.5632 23.3225 43.5632 24.5191C43.5632 25.7156 44.5357 26.6856 45.7353 26.6856Z" fill="#FCDEC2"/>
<path d="M58.1528 22.3528C58.4527 22.3528 58.6959 22.1103 58.6959 21.8112C58.6959 21.512 58.4527 21.2695 58.1528 21.2695C57.8529 21.2695 57.6098 21.512 57.6098 21.8112C57.6098 22.1103 57.8529 22.3528 58.1528 22.3528Z" fill="#FCDEC2"/>
<path d="M36.6934 36.1858C37.7502 35.8172 38.4251 34.9995 38.2007 34.3595C37.9763 33.7195 36.9376 33.4995 35.8808 33.8681C34.8239 34.2368 34.1491 35.0545 34.3735 35.6945C34.5979 36.3345 35.6365 36.5545 36.6934 36.1858Z" fill="#FCDEC2"/>
<path d="M49.8663 32.2956C50.7724 31.9799 51.3466 31.2661 51.1487 30.7013C50.9509 30.1364 50.056 29.9345 49.15 30.2502C48.2439 30.5659 47.6698 31.2797 47.8676 31.8445C48.0654 32.4093 48.9603 32.6113 49.8663 32.2956Z" fill="#FCDEC2"/>
<path d="M55.9146 40.3294C56.4807 40.1317 56.7414 39.4068 56.4969 38.7104C56.2524 38.014 55.5953 37.6098 55.0292 37.8075C54.4631 38.0052 54.2024 38.7301 54.4469 39.4265C54.6913 40.1229 55.3485 40.5271 55.9146 40.3294Z" fill="#FCDEC2"/>
<path d="M84.3995 31.2359C84.9993 31.2359 85.4856 30.7509 85.4856 30.1526C85.4856 29.5543 84.9993 29.0693 84.3995 29.0693C83.7997 29.0693 83.3134 29.5543 83.3134 30.1526C83.3134 30.7509 83.7997 31.2359 84.3995 31.2359Z" fill="#FCDEC2"/>
<path d="M27.7789 16.4385C28.4204 16.2143 28.8601 15.8037 28.7609 15.5214C28.6617 15.2391 28.0613 15.192 27.4198 15.4163C26.7782 15.6405 26.3386 16.0511 26.4378 16.3334C26.5369 16.6157 27.1374 16.6628 27.7789 16.4385Z" fill="#FCDEC2"/>
<path d="M36.0183 19.0075C36.4336 18.863 36.6314 18.3489 36.4601 17.8594C36.2888 17.3699 35.8133 17.0903 35.398 17.2348C34.9827 17.3794 34.7849 17.8934 34.9562 18.3829C35.1275 18.8725 35.603 19.1521 36.0183 19.0075Z" fill="#FCDEC2"/>
<path d="M34.0463 12.2303C34.5369 12.059 34.8168 11.5845 34.6715 11.1704C34.5261 10.7563 34.0106 10.5595 33.52 10.7308C33.0293 10.9021 32.7494 11.3767 32.8947 11.7908C33.0401 12.2048 33.5556 12.4016 34.0463 12.2303Z" fill="#FCDEC2"/>
<path d="M38.1992 15.1029C38.558 14.9783 38.7688 14.6483 38.6702 14.3658C38.5715 14.0834 38.2008 13.9554 37.842 14.08C37.4833 14.2046 37.2725 14.5347 37.3711 14.8171C37.4697 15.0996 37.8405 15.2276 38.1992 15.1029Z" fill="#FCDEC2"/>
<path d="M44.9091 20.7201C45.4753 20.5225 45.8165 20.0267 45.6712 19.6126C45.526 19.1984 44.9493 19.0229 44.3831 19.2204C43.8169 19.418 43.4757 19.9138 43.621 20.328C43.7662 20.7421 44.3429 20.9176 44.9091 20.7201Z" fill="#FCDEC2"/>
<path d="M49.4587 17.4153C49.874 17.2707 50.0503 16.6956 49.8525 16.1307C49.6548 15.5659 49.1578 15.2253 48.7425 15.3699C48.3273 15.5146 48.1509 16.0897 48.3487 16.6545C48.5464 17.2194 49.0434 17.56 49.4587 17.4153Z" fill="#FCDEC2"/>
<path d="M50.5184 12.7422C51.16 12.5183 51.5625 12.0011 51.4172 11.587C51.272 11.1729 50.6341 11.0187 49.9924 11.2426C49.3507 11.4664 48.9483 11.9837 49.0936 12.3978C49.2388 12.8119 49.8767 12.9661 50.5184 12.7422Z" fill="#FCDEC2"/>
<path d="M55.6322 14.9604C55.9908 14.8355 56.2227 14.5665 56.1502 14.3596C56.0778 14.1527 55.7283 14.0863 55.3698 14.2113C55.0112 14.3362 54.7793 14.6052 54.8517 14.8121C54.9242 15.019 55.2736 15.0854 55.6322 14.9604Z" fill="#FCDEC2"/>
<path d="M54.9169 20.381C55.2753 20.2555 55.5068 19.9861 55.434 19.7794C55.3613 19.5726 55.0117 19.5067 54.6534 19.6322C54.295 19.7577 54.0634 20.027 54.1362 20.2338C54.209 20.4405 54.5585 20.5064 54.9169 20.381Z" fill="#FCDEC2"/>
<path d="M51.5656 24.7245C52.2071 24.5002 52.4055 23.403 52.0086 22.2738C51.6118 21.1446 50.77 20.4111 50.1285 20.6354C49.487 20.8597 49.2886 21.9569 49.6855 23.0861C50.0823 24.2152 50.9241 24.9488 51.5656 24.7245Z" fill="#FCDEC2"/>
<path d="M38.8649 22.2782C39.28 22.1331 39.5146 21.7255 39.389 21.368C39.2633 21.0104 38.8249 20.8382 38.4098 20.9833C37.9947 21.1284 37.7601 21.536 37.8857 21.8935C38.0114 22.2511 38.4498 22.4233 38.8649 22.2782Z" fill="#FCDEC2"/>
<path d="M31.0833 21.252C31.6492 21.0539 31.99 20.5578 31.8444 20.1438C31.6989 19.7298 31.122 19.5547 30.556 19.7528C29.99 19.9508 29.6492 20.4469 29.7948 20.8609C29.9404 21.2749 30.5173 21.45 31.0833 21.252Z" fill="#FCDEC2"/>
<path d="M35.8445 24.7477C36.203 24.6226 36.4348 24.3535 36.3623 24.1466C36.2897 23.9398 35.9403 23.8735 35.5817 23.9986C35.2232 24.1237 34.9914 24.3928 35.0639 24.5997C35.1365 24.8065 35.4859 24.8728 35.8445 24.7477Z" fill="#FCDEC2"/>
<path d="M63.328 13.7204C63.8943 13.5233 64.1558 12.7988 63.912 12.1022C63.6682 11.4055 63.0116 11.0006 62.4453 11.1978C61.879 11.3949 61.6175 12.1194 61.8613 12.816C62.105 13.5127 62.7617 13.9176 63.328 13.7204Z" fill="#FCDEC2"/>
<path d="M51.8418 7.45793C52.2005 7.33324 52.3526 6.83523 52.1815 6.34561C52.0104 5.85599 51.581 5.56016 51.2222 5.68486C50.8635 5.80956 50.7114 6.30756 50.8825 6.79718C51.0535 7.2868 51.483 7.58263 51.8418 7.45793Z" fill="#FCDEC2"/>
<path d="M41.8617 7.94591C41.9703 8.307 41.6807 8.74031 41.2101 8.88474C40.7032 9.06529 40.2326 8.92085 40.0878 8.55976C39.9792 8.19867 40.2688 7.80147 40.7394 7.62093C41.2463 7.47649 41.7169 7.62093 41.8617 7.94591Z" fill="#FCDEC2"/>
<path d="M38.2127 12.2492C39.0619 11.9528 39.4881 10.9648 39.1645 10.0425C38.8409 9.12011 37.8901 8.61268 37.0408 8.9091C36.1916 9.20551 35.7654 10.1935 36.089 11.1159C36.4126 12.0382 37.3634 12.5457 38.2127 12.2492Z" fill="#FCDEC2"/>
<path d="M62.7264 7.10973C63.2926 6.91236 63.634 6.41662 63.4889 6.00246C63.3438 5.58829 62.7671 5.41255 62.2009 5.60992C61.6347 5.80729 61.2933 6.30303 61.4384 6.7172C61.5835 7.13136 62.1602 7.3071 62.7264 7.10973Z" fill="#FCDEC2"/>
<path d="M67.6457 2.77971C68.0044 2.65482 68.1776 2.2178 68.0326 1.80359C67.8876 1.38938 67.4794 1.15484 67.1207 1.27973C66.7621 1.40462 66.5888 1.84164 66.7338 2.25585C66.8788 2.67006 67.2871 2.9046 67.6457 2.77971Z" fill="#FCDEC2"/>
<path d="M72.7062 6.68186C73.2261 6.68186 73.6475 6.26153 73.6475 5.74303C73.6475 5.22453 73.2261 4.8042 72.7062 4.8042C72.1864 4.8042 71.765 5.22453 71.765 5.74303C71.765 6.26153 72.1864 6.68186 72.7062 6.68186Z" fill="#FCDEC2"/>
<path d="M69.9196 11.7361C70.4104 11.5652 70.7067 11.1368 70.5816 10.779C70.4564 10.4213 69.9571 10.2698 69.4663 10.4407C68.9755 10.6115 68.6791 11.04 68.8043 11.3977C68.9295 11.7554 69.4288 11.9069 69.9196 11.7361Z" fill="#FCDEC2"/>
<path d="M67.061 14.9794C67.4195 14.8542 67.5924 14.417 67.447 14.0029C67.3017 13.5889 66.8932 13.3547 66.5347 13.4799C66.1761 13.6051 66.0033 14.0422 66.1486 14.4563C66.294 14.8704 66.7024 15.1046 67.061 14.9794Z" fill="#FCDEC2"/>
<path d="M58.7709 13.3255C59.2616 13.1541 59.4772 12.4964 59.2525 11.8565C59.0278 11.2166 58.448 10.8367 57.9573 11.0081C57.4667 11.1794 57.2511 11.8371 57.4758 12.4771C57.7004 13.117 58.2803 13.4969 58.7709 13.3255Z" fill="#FCDEC2"/>
<path d="M56.7932 29.3497C57.2841 29.1793 57.6448 28.9345 57.5989 28.8027C57.5529 28.671 57.1177 28.7023 56.6268 28.8727C56.1358 29.043 55.7751 29.2879 55.821 29.4197C55.867 29.5514 56.3022 29.5201 56.7932 29.3497Z" fill="#FCDEC2"/>
<path d="M59.2027 23.1828C59.3837 23.7605 59.3837 24.2661 59.1665 24.3383C58.9493 24.4105 58.6235 24.0133 58.4425 23.4717C58.2614 22.8939 58.2614 22.3884 58.4787 22.3162C58.6959 22.2078 59.0217 22.605 59.2027 23.1828Z" fill="#FCDEC2"/>
<path d="M61.9179 22.4973C62.2178 22.4973 62.4609 22.2548 62.4609 21.9557C62.4609 21.6566 62.2178 21.4141 61.9179 21.4141C61.6179 21.4141 61.3748 21.6566 61.3748 21.9557C61.3748 22.2548 61.6179 22.4973 61.9179 22.4973Z" fill="#FCDEC2"/>
<path d="M68.5429 21.1981C68.6515 21.5592 68.0361 22.1008 67.0948 22.4258C66.1897 22.7508 65.3209 22.7147 65.2123 22.3536C65.1037 21.9925 65.7191 21.4508 66.6604 21.1259C67.5654 20.837 68.3981 20.837 68.5429 21.1981Z" fill="#FCDEC2"/>
<path d="M77.1952 14.0481C77.3762 14.6258 77.0866 15.2397 76.5436 15.4202C75.9643 15.6007 75.3489 15.3119 75.1679 14.7702C74.9869 14.1925 75.2765 13.5786 75.8195 13.3981C76.3626 13.1815 76.978 13.4703 77.1952 14.0481Z" fill="#FCDEC2"/>
<path d="M82.5895 14.9864C82.9693 14.9864 83.2773 14.6792 83.2773 14.3003C83.2773 13.9214 82.9693 13.6143 82.5895 13.6143C82.2096 13.6143 81.9016 13.9214 81.9016 14.3003C81.9016 14.6792 82.2096 14.9864 82.5895 14.9864Z" fill="#FCDEC2"/>
<path d="M77.883 9.17307C78.4029 9.17307 78.8243 8.75274 78.8243 8.23424C78.8243 7.71574 78.4029 7.29541 77.883 7.29541C77.3632 7.29541 76.9418 7.71574 76.9418 8.23424C76.9418 8.75274 77.3632 9.17307 77.883 9.17307Z" fill="#FCDEC2"/>
<path d="M72.9595 12.6034C73.3994 12.6034 73.756 12.2478 73.756 11.809C73.756 11.3703 73.3994 11.0146 72.9595 11.0146C72.5197 11.0146 72.1631 11.3703 72.1631 11.809C72.1631 12.2478 72.5197 12.6034 72.9595 12.6034Z" fill="#FCDEC2"/>
<path d="M52.107 17.6588C52.2156 17.9477 52.0708 18.2365 51.7812 18.3449C51.4915 18.4532 51.2019 18.3088 51.0933 18.0199C50.9847 17.731 51.1295 17.4421 51.4191 17.3338C51.7087 17.2255 52.0346 17.3699 52.107 17.6588Z" fill="#FCDEC2"/>
<path d="M42.803 19.6805C43.7027 19.6805 44.4321 18.953 44.4321 18.0556C44.4321 17.1582 43.7027 16.4307 42.803 16.4307C41.9033 16.4307 41.1739 17.1582 41.1739 18.0556C41.1739 18.953 41.9033 19.6805 42.803 19.6805Z" fill="#FCDEC2"/>
<path d="M32.1957 16.8279C32.7155 16.8279 33.1369 16.4075 33.1369 15.889C33.1369 15.3705 32.7155 14.9502 32.1957 14.9502C31.6758 14.9502 31.2544 15.3705 31.2544 15.889C31.2544 16.4075 31.6758 16.8279 32.1957 16.8279Z" fill="#FCDEC2"/>
<path d="M22.8193 20.3674C23.3392 20.3674 23.7606 19.9471 23.7606 19.4286C23.7606 18.9101 23.3392 18.4897 22.8193 18.4897C22.2995 18.4897 21.8781 18.9101 21.8781 19.4286C21.8781 19.9471 22.2995 20.3674 22.8193 20.3674Z" fill="#FCDEC2"/>
<path d="M19.6696 25.4945C20.3494 25.4945 20.9005 24.9448 20.9005 24.2668C20.9005 23.5887 20.3494 23.0391 19.6696 23.0391C18.9898 23.0391 18.4387 23.5887 18.4387 24.2668C18.4387 24.9448 18.9898 25.4945 19.6696 25.4945Z" fill="#FCDEC2"/>
<path d="M24.7742 25.1697C25.0741 25.1697 25.3173 24.9272 25.3173 24.6281C25.3173 24.3289 25.0741 24.0864 24.7742 24.0864C24.4743 24.0864 24.2312 24.3289 24.2312 24.6281C24.2312 24.9272 24.4743 25.1697 24.7742 25.1697Z" fill="#FCDEC2"/>
<path d="M25.8603 22.4973C26.1602 22.4973 26.4033 22.2548 26.4033 21.9557C26.4033 21.6566 26.1602 21.4141 25.8603 21.4141C25.5604 21.4141 25.3173 21.6566 25.3173 21.9557C25.3173 22.2548 25.5604 22.4973 25.8603 22.4973Z" fill="#FCDEC2"/>
<path d="M29.6253 29.9361C30.825 29.9361 31.7975 28.9661 31.7975 27.7696C31.7975 26.573 30.825 25.603 29.6253 25.603C28.4257 25.603 27.4532 26.573 27.4532 27.7696C27.4532 28.9661 28.4257 29.9361 29.6253 29.9361Z" fill="#FCDEC2"/>
<path d="M38.3501 29.575C38.65 29.575 38.8931 29.3325 38.8931 29.0333C38.8931 28.7342 38.65 28.4917 38.3501 28.4917C38.0502 28.4917 37.8071 28.7342 37.8071 29.0333C37.8071 29.3325 38.0502 29.575 38.3501 29.575Z" fill="#FCDEC2"/>
<path d="M42.0789 27.372C42.5187 27.372 42.8753 27.0163 42.8753 26.5776C42.8753 26.1389 42.5187 25.7832 42.0789 25.7832C41.639 25.7832 41.2824 26.1389 41.2824 26.5776C41.2824 27.0163 41.639 27.372 42.0789 27.372Z" fill="#FCDEC2"/>
<path d="M93.9569 62.5423C95.0766 62.5423 95.9842 61.9927 95.9842 61.3146C95.9842 60.6366 95.0766 60.0869 93.9569 60.0869C92.8372 60.0869 91.9296 60.6366 91.9296 61.3146C91.9296 61.9927 92.8372 62.5423 93.9569 62.5423Z" fill="#FCDEC2"/>
<path d="M101.813 44.7403C102.793 44.7403 103.587 44.2553 103.587 43.657C103.587 43.0587 102.793 42.5737 101.813 42.5737C100.833 42.5737 100.039 43.0587 100.039 43.657C100.039 44.2553 100.833 44.7403 101.813 44.7403Z" fill="#FCDEC2"/>
<path d="M90.3005 39.3239C90.9003 39.3239 91.3866 38.7258 91.3866 37.9879C91.3866 37.25 90.9003 36.6519 90.3005 36.6519C89.7007 36.6519 89.2144 37.25 89.2144 37.9879C89.2144 38.7258 89.7007 39.3239 90.3005 39.3239Z" fill="#FCDEC2"/>
<path d="M81.6843 42.2853C82.2842 42.2853 82.7704 41.6872 82.7704 40.9493C82.7704 40.2114 82.2842 39.6133 81.6843 39.6133C81.0845 39.6133 80.5983 40.2114 80.5983 40.9493C80.5983 41.6872 81.0845 42.2853 81.6843 42.2853Z" fill="#FCDEC2"/>
<path d="M119.226 67.092C119.826 67.092 120.312 66.4938 120.312 65.756C120.312 65.0181 119.826 64.4199 119.226 64.4199C118.626 64.4199 118.14 65.0181 118.14 65.756C118.14 66.4938 118.626 67.092 119.226 67.092Z" fill="#FCDEC2"/>
<path d="M111.117 37.4468C111.717 37.4468 112.203 36.9618 112.203 36.3635C112.203 35.7653 111.717 35.2803 111.117 35.2803C110.517 35.2803 110.031 35.7653 110.031 36.3635C110.031 36.9618 110.517 37.4468 111.117 37.4468Z" fill="#FCDEC2"/>
<path d="M105.578 39.8661C106.098 39.8661 106.519 39.5105 106.519 39.0717C106.519 38.633 106.098 38.2773 105.578 38.2773C105.058 38.2773 104.637 38.633 104.637 39.0717C104.637 39.5105 105.058 39.8661 105.578 39.8661Z" fill="#FCDEC2"/>
<path d="M40.3412 56.2958C41.021 56.2958 41.5721 55.9402 41.5721 55.5014C41.5721 55.0627 41.021 54.707 40.3412 54.707C39.6614 54.707 39.1104 55.0627 39.1104 55.5014C39.1104 55.9402 39.6614 56.2958 40.3412 56.2958Z" fill="#FCDEC2"/>
<path d="M107.605 50.3742C108.205 50.3742 108.691 49.7761 108.691 49.0382C108.691 48.3003 108.205 47.7021 107.605 47.7021C107.005 47.7021 106.519 48.3003 106.519 49.0382C106.519 49.7761 107.005 50.3742 107.605 50.3742Z" fill="#FCDEC2"/>
<path d="M110.864 44.704C111.463 44.704 111.95 44.3484 111.95 43.9096C111.95 43.4709 111.463 43.1152 110.864 43.1152C110.264 43.1152 109.777 43.4709 109.777 43.9096C109.777 44.3484 110.264 44.704 110.864 44.704Z" fill="#FCDEC2"/>
<path d="M114.23 41.4902C114.61 41.4902 114.918 41.1345 114.918 40.6958C114.918 40.257 114.61 39.9014 114.23 39.9014C113.85 39.9014 113.542 40.257 113.542 40.6958C113.542 41.1345 113.85 41.4902 114.23 41.4902Z" fill="#FCDEC2"/>
<path d="M122.883 42.177C123.403 42.177 123.824 41.7567 123.824 41.2382C123.824 40.7196 123.403 40.2993 122.883 40.2993C122.363 40.2993 121.941 40.7196 121.941 41.2382C121.941 41.7567 122.363 42.177 122.883 42.177Z" fill="#FCDEC2"/>
<path d="M115.027 55.3926C115.547 55.3926 115.968 55.0855 115.968 54.7066C115.968 54.3277 115.547 54.0205 115.027 54.0205C114.507 54.0205 114.085 54.3277 114.085 54.7066C114.085 55.0855 114.507 55.3926 115.027 55.3926Z" fill="#FCDEC2"/>
<path d="M118.285 30.5854C118.805 30.5854 119.226 29.9226 119.226 29.105C119.226 28.2873 118.805 27.6245 118.285 27.6245C117.765 27.6245 117.344 28.2873 117.344 29.105C117.344 29.9226 117.765 30.5854 118.285 30.5854Z" fill="#FCDEC2"/>
<path d="M110.031 18.0562C110.631 18.0562 111.117 17.5712 111.117 16.9729C111.117 16.3746 110.631 15.8896 110.031 15.8896C109.431 15.8896 108.945 16.3746 108.945 16.9729C108.945 17.5712 109.431 18.0562 110.031 18.0562Z" fill="#FCDEC2"/>
<path d="M112.746 21.5587C113.126 21.5587 113.434 21.2515 113.434 20.8726C113.434 20.4937 113.126 20.1865 112.746 20.1865C112.366 20.1865 112.058 20.4937 112.058 20.8726C112.058 21.2515 112.366 21.5587 112.746 21.5587Z" fill="#FCDEC2"/>
<path d="M125.562 56.7282C126.081 56.7282 126.503 56.3079 126.503 55.7894C126.503 55.2709 126.081 54.8506 125.562 54.8506C125.042 54.8506 124.62 55.2709 124.62 55.7894C124.62 56.3079 125.042 56.7282 125.562 56.7282Z" fill="#FCDEC2"/>
<path d="M102.211 28.0224C102.651 28.0224 103.008 27.6667 103.008 27.228C103.008 26.7893 102.651 26.4336 102.211 26.4336C101.771 26.4336 101.415 26.7893 101.415 27.228C101.415 27.6667 101.771 28.0224 102.211 28.0224Z" fill="#FCDEC2"/>
<path d="M110.031 29.1053C110.931 29.1053 111.66 28.3778 111.66 27.4804C111.66 26.583 110.931 25.8555 110.031 25.8555C109.131 25.8555 108.402 26.583 108.402 27.4804C108.402 28.3778 109.131 29.1053 110.031 29.1053Z" fill="#FCDEC2"/>
<path d="M70.8598 39.071C71.3797 39.071 71.8011 38.6507 71.8011 38.1322C71.8011 37.6137 71.3797 37.1934 70.8598 37.1934C70.34 37.1934 69.9186 37.6137 69.9186 38.1322C69.9186 38.6507 70.34 39.071 70.8598 39.071Z" fill="#FCDEC2"/>
<path d="M31.1459 45.138C31.8257 45.138 32.3767 44.5884 32.3767 43.9103C32.3767 43.2323 31.8257 42.6826 31.1459 42.6826C30.4661 42.6826 29.915 43.2323 29.915 43.9103C29.915 44.5884 30.4661 45.138 31.1459 45.138Z" fill="#FCDEC2"/>
<path d="M28.6479 36.7966C28.7927 37.2299 28.4669 37.7355 27.8876 37.916C27.3084 38.0965 26.7654 37.916 26.5844 37.5188C26.4396 37.0855 26.7654 36.58 27.3446 36.3994C27.9239 36.1828 28.5031 36.3633 28.6479 36.7966Z" fill="#FCDEC2"/>
<path d="M45.5242 42.3676C46.3736 42.0718 46.8004 41.084 46.4773 40.1615C46.1543 39.2389 45.2039 38.7309 44.3544 39.0268C43.505 39.3226 43.0783 40.3104 43.4013 41.2329C43.7243 42.1555 44.6747 42.6635 45.5242 42.3676Z" fill="#FCDEC2"/>
<path d="M11.2827 52.908C11.7734 52.7369 11.9894 52.0793 11.765 51.4392C11.5407 50.7992 10.961 50.419 10.4703 50.5901C9.97954 50.7612 9.76358 51.4188 9.98792 52.0589C10.2123 52.6989 10.7919 53.0791 11.2827 52.908Z" fill="#FCDEC2"/>
<path d="M91.1332 48.4956C91.733 48.4956 92.2193 48.0106 92.2193 47.4124C92.2193 46.8141 91.733 46.3291 91.1332 46.3291C90.5334 46.3291 90.0471 46.8141 90.0471 47.4124C90.0471 48.0106 90.5334 48.4956 91.1332 48.4956Z" fill="#FCDEC2"/>
<path d="M102.283 49.7593C102.663 49.7593 102.971 49.4522 102.971 49.0733C102.971 48.6944 102.663 48.3872 102.283 48.3872C101.904 48.3872 101.596 48.6944 101.596 49.0733C101.596 49.4522 101.904 49.7593 102.283 49.7593Z" fill="#FCDEC2"/>
<path d="M22.24 49.9763C22.7599 49.9763 23.1813 49.556 23.1813 49.0375C23.1813 48.519 22.7599 48.0986 22.24 48.0986C21.7202 48.0986 21.2988 48.519 21.2988 49.0375C21.2988 49.556 21.7202 49.9763 22.24 49.9763Z" fill="#FCDEC2"/>
<path d="M76.4351 28.5634C76.7247 29.3939 76.2902 30.3327 75.4214 30.6216C74.5887 30.9104 73.6475 30.4771 73.3578 29.6105C73.0682 28.78 73.5027 27.8412 74.3715 27.5523C75.2404 27.2634 76.1454 27.7329 76.4351 28.5634Z" fill="#FCDEC2"/>
<path d="M64.6692 35.858C65.8689 35.858 66.8414 34.888 66.8414 33.6914C66.8414 32.4949 65.8689 31.5249 64.6692 31.5249C63.4696 31.5249 62.4971 32.4949 62.4971 33.6914C62.4971 34.888 63.4696 35.858 64.6692 35.858Z" fill="#FCDEC2"/>
<path d="M29.8064 59.293C31.006 59.293 31.9785 58.323 31.9785 57.1265C31.9785 55.93 31.006 54.96 29.8064 54.96C28.6067 54.96 27.6342 55.93 27.6342 57.1265C27.6342 58.323 28.6067 59.293 29.8064 59.293Z" fill="#FCDEC2"/>
<path d="M44.3959 77.8887C44.3959 77.8887 37.9156 78.1415 37.3726 81.9329C36.8296 85.6883 44.1424 97.8209 50.333 97.2792C56.5599 96.7376 58.9854 90.5268 58.9854 85.4355C58.9854 80.308 47.9075 75.7222 44.3959 77.8887Z" fill="#FCBC7F"/>
<path d="M63.2934 102.118C63.2934 102.118 54.6411 101.576 54.9307 106.162C55.1841 110.748 59.7818 116.128 62.497 115.045C65.176 113.998 71.1494 102.66 63.2934 102.118Z" fill="#FCBC7F"/>
<path d="M81.1413 86.2304C81.1413 86.2304 77.0866 86.7721 77.3763 90.8163C77.6297 94.8605 83.6031 99.1574 86.0286 97.5686C88.4542 95.9437 91.9658 94.0661 91.9658 90.8163C91.9658 87.5665 88.7076 85.9777 86.8251 84.6055C84.9064 83.2695 81.1413 86.2304 81.1413 86.2304Z" fill="#FCBC7F"/>
<path d="M20.3575 92.6934C20.3575 92.6934 17.3889 94.571 19.2714 96.9903C21.154 99.4096 24.1225 102.118 26.5843 100.746C28.9737 99.4457 25.462 89.9852 20.3575 92.6934Z" fill="#FCBC7F"/>
<path d="M108.438 101.035C108.438 101.035 104.383 102.66 102.501 105.621C100.618 108.582 103.587 111.543 103.587 111.543C103.587 111.543 108.728 107.498 111.153 105.079C113.542 102.66 110.32 100.529 108.438 101.035Z" fill="#FCBC7F"/>
<path d="M59.2389 104.284C59.2389 104.284 55.7273 104.284 55.9807 106.704C56.2341 109.123 59.7457 114.503 61.1214 113.998C62.4971 113.456 61.411 104.032 59.2389 104.284Z" fill="#FBDCC4"/>
<path d="M88.1645 87.5658C88.1645 87.5658 85.9924 88.3602 85.739 90.5268C85.4856 92.6933 82.517 94.571 83.3134 95.6542C84.1099 96.7375 88.4542 96.9903 90.0833 93.2349C91.6762 89.4796 89.2506 87.3131 88.1645 87.5658Z" fill="#FBDCC4"/>
<path d="M40.3412 81.9335C40.3412 81.9335 39.2551 88.6859 45.7354 92.1885C52.2156 95.691 53.8447 90.5636 54.3877 86.5194C54.9308 82.4752 47.3645 77.8893 40.3412 81.9335Z" fill="#FBDCC4"/>
</svg>
