<svg width="150" height="74" viewBox="0 0 150 74" fill="none" xmlns="http://www.w3.org/2000/svg">
<path d="M75 74.0005C116.421 74.0005 150 58.3856 150 39.1238C150 19.8619 116.421 4.24707 75 4.24707C33.5786 4.24707 0 19.8619 0 39.1238C0 58.3856 33.5786 74.0005 75 74.0005Z" fill="#AD422A"/>
<g style="mix-blend-mode:overlay" opacity="0.4">
<path d="M149.52 36.9712C149.52 53.1639 116.821 72.0177 75.3734 72.0177C33.9261 72.0177 0.533447 55.0323 0.533447 38.8396C0.533447 38.8396 5.17427 68.2809 75.7468 70.6023C75.7468 70.6023 120.288 72.9802 146.693 44.1617L149.52 36.9712Z" fill="#ED6B56"/>
</g>
<g style="mix-blend-mode:overlay">
<path d="M145.466 35.5572C145.466 53.7316 113.62 68.4522 74.3065 68.4522C35.0462 68.4522 3.20056 53.7316 3.20056 35.5572C3.20056 17.3828 35.0462 2.66211 74.3599 2.66211C113.62 2.66211 145.466 17.3828 145.466 35.5572Z" fill="#3F0A03"/>
</g>
<path d="M74.4132 65.2239C114.656 65.2239 147.28 50.6231 147.28 32.612C147.28 14.6009 114.656 0 74.4132 0C34.1703 0 1.54694 14.6009 1.54694 32.612C1.54694 50.6231 34.1703 65.2239 74.4132 65.2239Z" fill="url(#paint0_linear_20002_17368)"/>
<path d="M72.9196 56.3359C110.187 56.3359 140.398 44.5233 140.398 29.9519C140.398 15.3804 110.187 3.56787 72.9196 3.56787C35.6521 3.56787 5.44092 15.3804 5.44092 29.9519C5.44092 44.5233 35.6521 56.3359 72.9196 56.3359Z" fill="url(#paint1_radial_20002_17368)"/>
<path d="M42.0875 46.5973C45.7701 46.5973 48.7554 45.2791 48.7554 43.6531C48.7554 42.0271 45.7701 40.709 42.0875 40.709C38.405 40.709 35.4197 42.0271 35.4197 43.6531C35.4197 45.2791 38.405 46.5973 42.0875 46.5973Z" fill="url(#paint2_radial_20002_17368)"/>
<path d="M84.2283 29.4976C87.9108 29.4976 90.8961 28.1795 90.8961 26.5535C90.8961 24.9275 87.9108 23.6094 84.2283 23.6094C80.5457 23.6094 77.5604 24.9275 77.5604 26.5535C77.5604 28.1795 80.5457 29.4976 84.2283 29.4976Z" fill="url(#paint3_radial_20002_17368)"/>
<path d="M85.2418 16.1925C88.9244 16.1925 91.9097 14.8743 91.9097 13.2483C91.9097 11.6223 88.9244 10.3042 85.2418 10.3042C81.5593 10.3042 78.574 11.6223 78.574 13.2483C78.574 14.8743 81.5593 16.1925 85.2418 16.1925Z" fill="url(#paint4_radial_20002_17368)"/>
<path d="M64.8649 21.2325C68.5474 21.2325 71.5327 19.9144 71.5327 18.2884C71.5327 16.6624 68.5474 15.3442 64.8649 15.3442C61.1823 15.3442 58.197 16.6624 58.197 18.2884C58.197 19.9144 61.1823 21.2325 64.8649 21.2325Z" fill="url(#paint5_radial_20002_17368)"/>
<path d="M50.9957 31.1402C54.6783 31.1402 57.6636 29.8221 57.6636 28.1961C57.6636 26.5701 54.6783 25.252 50.9957 25.252C47.3132 25.252 44.3279 26.5701 44.3279 28.1961C44.3279 29.8221 47.3132 31.1402 50.9957 31.1402Z" fill="url(#paint6_radial_20002_17368)"/>
<path d="M77.027 39.6897C77.027 41.3317 74.0398 42.6339 70.3591 42.6339C66.6785 42.6339 63.6913 41.3317 63.6913 39.6897C63.6913 38.0478 66.6785 36.7456 70.3591 36.7456C74.0398 36.7456 77.027 38.0478 77.027 39.6897Z" fill="url(#paint7_radial_20002_17368)"/>
<path d="M13.0156 34.0836C16.6982 34.0836 19.6835 32.7655 19.6835 31.1394C19.6835 29.5134 16.6982 28.1953 13.0156 28.1953C9.33308 28.1953 6.34778 29.5134 6.34778 31.1394C6.34778 32.7655 9.33308 34.0836 13.0156 34.0836Z" fill="url(#paint8_radial_20002_17368)"/>
<path d="M131.917 36.8585C135.599 36.8585 138.585 35.5404 138.585 33.9144C138.585 32.2884 135.599 30.9702 131.917 30.9702C128.234 30.9702 125.249 32.2884 125.249 33.9144C125.249 35.5404 128.234 36.8585 131.917 36.8585Z" fill="url(#paint9_radial_20002_17368)"/>
<path d="M123.062 45.0684C123.222 46.6537 120.448 48.3523 116.767 48.8618C113.087 49.3148 109.993 48.4089 109.833 46.8236C109.619 45.2383 112.447 43.5397 116.127 43.0302C119.755 42.5772 122.849 43.4831 123.062 45.0684Z" fill="url(#paint10_radial_20002_17368)"/>
<path d="M69.3991 9.51132C73.0816 9.51132 76.0669 8.19319 76.0669 6.56718C76.0669 4.94118 73.0816 3.62305 69.3991 3.62305C65.7165 3.62305 62.7312 4.94118 62.7312 6.56718C62.7312 8.19319 65.7165 9.51132 69.3991 9.51132Z" fill="url(#paint11_radial_20002_17368)"/>
<path d="M48.4887 13.2491C52.1712 13.2491 55.1565 11.931 55.1565 10.305C55.1565 8.67898 52.1712 7.36084 48.4887 7.36084C44.8061 7.36084 41.8208 8.67898 41.8208 10.305C41.8208 11.931 44.8061 13.2491 48.4887 13.2491Z" fill="url(#paint12_radial_20002_17368)"/>
<path d="M36.2731 22.5911C36.2731 24.233 33.2859 25.5352 29.6052 25.5352C25.9246 25.5352 22.9374 24.233 22.9374 22.5911C22.9374 20.9492 25.9246 19.647 29.6052 19.647C33.2859 19.647 36.2731 20.9492 36.2731 22.5911Z" fill="url(#paint13_radial_20002_17368)"/>
<path d="M100.551 39.6886C104.234 39.6886 107.219 38.3704 107.219 36.7444C107.219 35.1184 104.234 33.8003 100.551 33.8003C96.8686 33.8003 93.8833 35.1184 93.8833 36.7444C93.8833 38.3704 96.8686 39.6886 100.551 39.6886Z" fill="url(#paint14_radial_20002_17368)"/>
<path d="M87.3755 54.0694C91.058 54.0694 94.0433 52.7513 94.0433 51.1253C94.0433 49.4993 91.058 48.1812 87.3755 48.1812C83.6929 48.1812 80.7076 49.4993 80.7076 51.1253C80.7076 52.7513 83.6929 54.0694 87.3755 54.0694Z" fill="url(#paint15_radial_20002_17368)"/>
<path d="M115.647 28.7042C119.33 28.7042 122.315 27.3861 122.315 25.7601C122.315 24.1341 119.33 22.8159 115.647 22.8159C111.965 22.8159 108.979 24.1341 108.979 25.7601C108.979 27.3861 111.965 28.7042 115.647 28.7042Z" fill="url(#paint16_radial_20002_17368)"/>
<path d="M107.112 15.9093C110.795 15.9093 113.78 14.5911 113.78 12.9651C113.78 11.3391 110.795 10.021 107.112 10.021C103.43 10.021 100.445 11.3391 100.445 12.9651C100.445 14.5911 103.43 15.9093 107.112 15.9093Z" fill="url(#paint17_radial_20002_17368)"/>
<path d="M63.6914 16.3059C62.4111 17.778 63.798 19.703 64.8116 20.7787C63.478 19.3633 65.5584 17.2118 66.6252 16.7588C68.9723 15.7963 68.2788 17.5515 69.9325 18.6839C71.5328 19.7596 71.8528 17.6647 71.6394 16.5324C72.7063 16.589 73.7731 16.7022 74.68 17.4383C75.1601 17.8346 76.547 19.5331 76.0135 20.2692C77.0804 18.7405 75.7468 15.7397 74.5199 14.7772C72.973 13.5316 70.6793 13.7581 68.8123 14.1544C67.4254 14.4941 64.7582 15.0603 63.6914 16.3059Z" fill="#34B412"/>
<path d="M76.4403 18.061C77.2404 19.4765 77.7205 21.8544 76.867 23.3831C75.8535 25.1383 73.5064 25.3081 71.7995 25.3648C68.4922 25.5346 63.638 23.553 64.0114 19.25C64.0114 19.986 65.0249 21.4015 65.7184 21.5714C66.4652 21.7412 66.7852 21.175 67.3187 20.6655C67.7454 20.2125 68.2788 19.3633 68.8656 19.1934C69.0256 19.1368 70.0392 18.7405 70.1992 19.6463C70.4659 21.2883 68.6522 22.7603 70.1992 23.2133C71.6928 23.6096 74.1465 23.2133 75.3734 22.2508C76.7603 21.175 76.2269 19.5897 76.3869 18.1177C76.6003 18.2875 76.7603 18.514 76.867 18.7971" fill="#208F05"/>
<path d="M97.1372 22.251C96.8705 19.3069 101.031 18.6841 102.952 19.137C103.912 19.3635 105.245 19.7598 105.779 20.5525C106.312 21.2885 106.686 23.3268 105.619 23.7797C105.299 21.2885 99.0576 21.6849 99.1643 24.5724C98.0441 24.0628 97.0305 22.8172 97.1906 21.4584" fill="#34B412"/>
<path d="M100.391 23.2139C100.551 22.8175 100.445 22.2513 100.871 21.9116C101.405 21.4587 102.205 21.7984 102.525 22.4212C102.898 23.1006 102.472 23.9499 102.312 24.6859C101.245 24.7425 100.231 24.6293 99.271 24.2896C99.6444 24.4028 100.231 23.4969 100.391 23.2139Z" fill="#7DC964"/>
<path d="M100.658 19.759C100.178 21.6274 102.098 23.2127 103.325 21.4575C104.018 20.4384 104.232 19.8156 102.952 19.4759C101.991 19.1928 100.978 18.6266 100.658 19.759Z" fill="#7DC964"/>
<path d="M97.2439 21.4575C97.1373 21.6273 97.404 22.3067 97.4573 22.4766C97.564 22.7597 97.724 22.9862 97.9374 23.2126C98.2575 23.4957 98.5775 23.7222 98.8976 23.9487C99.271 24.1751 99.6977 24.345 100.124 24.4016C100.978 24.6281 101.885 24.6281 102.792 24.6847C103.858 24.7979 104.979 24.4016 105.779 23.4391C106.792 22.2501 106.312 21.1744 105.405 20.0986C106.792 20.6648 107.806 23.2692 107.806 24.4016C107.752 26.5531 105.992 27.6288 104.285 28.1384C101.085 29.1009 96.6572 26.7229 97.0306 22.6464C97.0839 22.3067 96.9772 21.7972 97.2439 21.4575Z" fill="#208F05"/>
<path d="M40.0071 33.7442C39.7404 30.8001 43.9011 30.1773 45.8215 30.6302C46.7817 30.8567 48.1152 31.253 48.6486 32.0457C49.1821 32.7817 49.5555 34.8199 48.4886 35.2729C48.1686 32.7817 41.9275 33.178 42.0341 36.0655C40.9139 35.556 39.9004 34.3104 40.0605 32.9515" fill="#34B412"/>
<path d="M43.2611 34.6499C43.4211 34.2536 43.3144 33.6874 43.7412 33.3477C44.2746 32.8947 45.0747 33.2344 45.3948 33.8572C45.7148 34.5367 45.3414 35.4425 45.1814 36.122C44.1146 36.1786 43.101 36.0653 42.1409 35.7256C42.5676 35.8955 43.1544 34.9896 43.2611 34.6499Z" fill="#7DC964"/>
<path d="M43.5811 31.2521C43.101 33.1205 45.0213 34.7058 46.2482 32.9507C46.9417 31.9315 47.155 31.3087 45.8748 30.969C44.9146 30.6859 43.8478 30.1198 43.5811 31.2521Z" fill="#7DC964"/>
<path d="M40.1138 32.895C40.0071 33.0648 40.2738 33.7442 40.3272 33.9141C40.4339 34.1972 40.5939 34.4237 40.8073 34.6501C41.1273 34.9332 41.4474 35.1597 41.7674 35.3862C42.1408 35.6126 42.5676 35.7825 42.9943 35.8391C43.8478 36.009 44.7546 36.0656 45.6615 36.1222C46.7283 36.2354 47.8485 35.8391 48.6487 34.8766C49.6622 33.6876 49.1821 32.6119 48.2753 31.5361C49.6622 32.1023 50.6757 34.7067 50.6757 35.8391C50.6223 38.0472 48.862 39.0663 47.1551 39.5759C43.9545 40.4818 39.527 38.1604 39.9004 34.0839C39.9538 33.7442 39.9004 33.2347 40.1138 32.895Z" fill="#208F05"/>
<path d="M92.8698 43.8794C92.6031 40.9353 96.7638 40.3125 98.6841 40.7655C99.6443 40.9919 100.978 41.3883 101.511 42.1809C102.045 42.9169 102.418 44.9552 101.351 45.4081C101.031 42.9169 94.7901 43.3133 94.8968 46.2008C93.7766 45.6912 92.7631 44.4456 92.9231 43.0868" fill="#34B412"/>
<path d="M96.1237 44.8413C96.2838 44.445 96.1771 43.8788 96.6038 43.5391C97.1373 43.0861 97.9374 43.4258 98.2574 44.0486C98.5775 44.7281 98.2041 45.6339 98.0441 46.3134C96.9772 46.37 95.9637 46.2567 95.0035 45.917C95.3769 46.0869 95.9637 45.1244 96.1237 44.8413Z" fill="#7DC964"/>
<path d="M96.3904 41.3879C95.9103 43.2563 97.8306 44.8416 99.0575 43.0864C99.751 42.0673 99.9644 41.4445 98.6841 41.1048C97.724 40.8217 96.7104 40.2555 96.3904 41.3879Z" fill="#8ECC37"/>
<path d="M92.9765 43.0292C92.8698 43.1991 93.1365 43.8785 93.1899 44.0484C93.2965 44.3315 93.4566 44.5579 93.6699 44.7844C93.99 45.0675 94.3101 45.294 94.6301 45.5204C95.0035 45.7469 95.4303 45.9168 95.857 45.9734C96.7105 46.1432 97.6173 46.1999 98.5241 46.2565C99.591 46.3697 100.711 45.9734 101.511 45.0109C102.525 43.8219 102.045 42.7462 101.191 41.6704C102.578 42.2366 103.592 44.841 103.592 45.9734C103.538 48.1815 101.778 49.2006 100.071 49.7102C96.8705 50.6161 92.4431 48.2947 92.8165 44.2182C92.8165 43.9351 92.7098 43.4256 92.9765 43.0292Z" fill="#208F05"/>
<path d="M28.1651 14.3247C27.9517 12.2298 30.8856 11.8335 32.2725 12.1166C32.9659 12.2298 33.8728 12.5695 34.2995 13.1357C34.6729 13.6452 34.9396 15.0607 34.1928 15.4004C33.9795 13.6452 29.552 13.9283 29.6587 15.9666C28.8585 15.6269 28.1651 14.721 28.2718 13.7585" fill="#34B412"/>
<path d="M30.4588 15.0037C30.5655 14.7207 30.5122 14.3243 30.7789 14.0979C31.1523 13.7581 31.7391 14.0412 31.9524 14.4376C32.2191 14.9471 31.8991 15.5133 31.7924 16.0229C31.0456 16.0795 30.3521 15.9662 29.6587 15.7398C29.9254 15.853 30.3521 15.2302 30.4588 15.0037Z" fill="#7DC964"/>
<path d="M30.6721 12.5692C30.3521 13.8715 31.6856 15.0038 32.5391 13.7582C33.0192 13.0222 33.1792 12.5692 32.2724 12.3428C31.579 12.2295 30.8855 11.7766 30.6721 12.5692Z" fill="#7DC964"/>
<path d="M28.2184 13.7589C28.1651 13.8722 28.3251 14.3817 28.3784 14.4949C28.4318 14.7214 28.5385 14.8347 28.6985 15.0045C28.9119 15.1744 29.1786 15.4008 29.3919 15.5141C29.6587 15.6839 29.9787 15.7972 30.2454 15.8538C30.8855 16.0236 31.5257 16.0236 32.1124 16.0803C32.8592 16.1935 33.6594 15.8538 34.1928 15.231C34.8863 14.3817 34.5662 13.6457 33.9261 12.853C34.8863 13.2494 35.6331 15.0611 35.6331 15.8538C35.5797 17.3825 34.3528 18.1185 33.1259 18.5148C30.8855 19.1942 27.7383 17.4957 28.005 14.6648C28.1117 14.3817 28.0584 13.9854 28.2184 13.7589Z" fill="#208F05"/>
<path d="M88.4957 12.2867C87.5889 10.022 92.4431 9.17274 93.67 9.11612C95.9104 9.00289 97.8307 9.28598 99.9645 9.85216C99.7511 8.15362 98.4709 6.73817 97.9374 5.09625C95.1103 5.09625 92.3364 4.6433 89.5093 5.49257C87.6956 6.05875 85.7219 6.62493 86.202 9.17274C86.4154 10.3617 87.1088 13.0794 88.4957 12.9095C88.4957 12.6831 88.3891 12.3434 88.2824 12.1169" fill="#208F05"/>
<path d="M88.3891 12.9655C86.4687 9.85149 92.1764 9.45516 93.67 9.22869C94.7369 9.05883 100.711 8.71913 99.6978 10.814C97.6707 10.7574 95.537 10.0213 93.5633 10.0213C92.6032 10.0213 90.7895 10.4743 90.0427 11.2103C89.4026 11.7765 89.4559 13.3052 88.4424 13.0787C88.3891 12.9655 88.3891 12.7956 88.4424 12.6824" fill="#34B412"/>
<path d="M70.8927 11.4943C71.7995 9.22953 66.9453 8.38026 65.7184 8.32364C63.478 8.21041 61.5577 8.4935 59.424 9.05968C59.6907 7.36114 60.9175 5.94569 61.451 4.30376C64.2781 4.30376 67.052 3.85082 69.8791 4.70009C71.6928 5.26627 73.6665 5.83245 73.1864 8.38026C72.973 9.56924 72.2796 12.2869 70.8927 12.1171C70.8927 11.8906 70.9993 11.5509 71.106 11.3244" fill="#208F05"/>
<path d="M70.9994 12.1735C72.9197 9.05949 67.212 8.66317 65.7184 8.43669C64.6516 8.26684 58.6772 7.92713 59.6907 10.022C61.7177 9.96538 63.8514 9.22935 65.8251 9.22935C66.7853 9.22935 68.599 9.68229 69.3458 10.4183C69.9859 10.9845 69.9325 12.5132 70.946 12.2867C70.9994 12.1735 70.9994 12.0602 70.946 11.8904" fill="#34B412"/>
<path d="M87.1088 18.2309C85.3485 18.6272 85.4018 19.4765 84.495 19.9294C84.8151 20.6089 86.0953 19.5331 86.6287 19.3633C87.5889 19.1368 88.6024 19.1368 89.5092 19.6464C91.2162 20.6089 92.4431 22.1376 92.9232 24.1758C93.2432 25.3648 93.6166 26.5538 93.7766 27.7427C93.9367 28.6486 93.1899 29.2148 93.9367 29.6111C96.1237 30.8567 96.4438 27.856 95.9104 26.4971C95.3769 25.0817 94.9502 23.6662 94.15 22.4206C93.0832 20.7787 92.283 19.4765 91.0562 18.6272C89.8826 17.8346 88.4957 17.8912 87.1088 18.2309Z" fill="#E52F1C"/>
<path d="M91.2162 20.7229C92.1764 21.7987 92.9232 23.9502 93.2966 25.3656C93.6167 26.6678 94.2034 28.4796 93.9901 29.8384C92.9232 29.3289 92.7632 28.3098 92.0697 27.4605C91.2162 26.4414 90.2561 25.5355 89.2959 24.6862C88.2824 23.8369 87.4822 22.8744 86.4687 22.0252C85.4552 21.1759 83.2682 20.1568 85.6686 19.3075C87.5889 18.5715 89.776 19.1376 91.2162 20.7229Z" fill="#A01A10"/>
<path d="M70.0392 36.0086C71.1594 35.4991 73.3465 33.0079 71.5328 31.8755C72.9197 31.7623 72.8664 33.6307 72.7063 34.5932C72.493 35.7256 71.8529 36.7447 70.9994 37.4241C68.8123 39.1226 66.1985 38.8395 63.7448 39.2925C64.2248 39.1793 64.3315 37.5939 64.5449 37.2542C65.025 36.405 65.5584 36.5748 66.3585 36.5748C67.5321 36.6314 68.8657 36.5182 70.0392 36.0086Z" fill="#208F05"/>
<path d="M67.052 31.5924C65.7184 29.724 64.2782 30.5166 62.5178 30.1769C62.4112 29.1012 64.4382 28.1953 65.2383 28.0255C66.892 27.7424 67.212 28.7049 67.7988 29.8938C68.4389 31.1961 70.0392 31.7622 70.7326 33.0078C71.106 33.6873 71.2661 34.9328 70.3059 35.2159C69.3991 35.4424 69.8792 34.9328 69.5591 34.4799C68.9723 33.4042 67.8521 32.6681 67.052 31.5924Z" fill="#388E23"/>
<path d="M62.8379 30.178C62.3044 28.7626 65.9318 27.9699 66.8919 28.7626C67.532 29.2721 67.3187 29.8949 67.7454 30.4611C68.1722 31.0839 69.1323 31.5369 69.7191 31.9332C71.4794 33.0655 71.5327 34.8773 69.2923 35.3303C68.3855 35.5001 67.2653 35.5567 66.3585 35.5567C65.4517 35.5567 65.0783 35.3303 65.0783 36.5192C66.8386 37.3119 70.6259 36.4626 71.6928 34.8207C73.2397 32.4994 71.9595 31.9332 70.2525 30.5744C68.6522 29.3288 68.1722 27.2339 65.8784 27.2339C65.0249 27.2339 60.8108 28.706 61.771 29.9516C61.8244 30.0082 62.4111 30.178 62.5178 30.2346" fill="#34B412"/>
<path d="M67.4787 30.4028C66.892 31.0822 65.7718 31.0822 65.2383 31.5918C64.4915 32.3845 65.1317 32.9506 65.9318 32.894C66.5719 32.8374 67.5321 32.4411 67.9588 32.0448C69.079 31.0256 67.9588 31.3653 67.6388 30.4594C67.4787 30.4594 67.4787 30.5727 67.3721 30.6859" fill="#7DC964"/>
<path d="M126.583 21.5145C127.649 21.0616 129.623 18.7402 127.969 17.7211C129.25 17.6645 129.196 19.363 129.036 20.2123C128.876 21.288 128.29 22.1939 127.436 22.8167C125.409 24.402 122.955 24.1189 120.715 24.5719C121.142 24.4587 121.302 22.9866 121.462 22.7035C121.888 21.9108 122.368 22.0807 123.115 22.0807C124.289 22.0807 125.516 22.0241 126.583 21.5145Z" fill="#208F05"/>
<path d="M123.809 17.4383C122.582 15.7398 121.248 16.4758 119.595 16.1361C119.488 15.117 121.355 14.2677 122.102 14.1545C123.595 13.8714 123.915 14.7773 124.449 15.853C125.036 17.042 126.529 17.5515 127.169 18.7405C127.489 19.3633 127.649 20.5523 126.743 20.7788C125.942 21.0052 126.316 20.5523 126.049 20.0994C125.622 19.1369 124.555 18.4574 123.809 17.4383Z" fill="#388E23"/>
<path d="M119.915 16.1366C119.381 14.8344 122.795 14.0984 123.702 14.8344C124.289 15.2874 124.129 15.9102 124.502 16.4197C124.876 16.9859 125.782 17.3822 126.369 17.7786C127.969 18.8543 128.076 20.4962 125.996 20.9492C125.142 21.119 124.129 21.119 123.275 21.1756C122.422 21.1756 122.102 20.9492 122.048 22.0249C123.702 22.7609 127.169 21.9683 128.183 20.4396C129.623 18.2881 128.45 17.7219 126.849 16.533C125.356 15.4006 124.929 13.4756 122.795 13.4756C121.995 13.4756 118.101 14.8344 119.008 16.0234C119.061 16.08 119.595 16.2499 119.701 16.3065" fill="#34B412"/>
<path d="M124.235 16.3057C123.649 16.9285 122.635 16.9285 122.155 17.3814C121.462 18.1174 122.048 18.627 122.795 18.5704C123.382 18.5138 124.289 18.1741 124.716 17.7777C125.729 16.8152 124.716 17.1549 124.395 16.3057C124.235 16.3057 124.235 16.4189 124.129 16.4755" fill="#7DC964"/>
<path d="M52.8627 38.3874C53.8762 39.1235 54.7297 39.8029 55.9032 40.3125C57.0768 40.822 58.1436 41.3316 59.3172 40.9353C61.7709 40.1426 63.5846 38.5007 64.2247 35.8396C64.7582 33.4617 63.798 31.48 61.5042 30.8006C61.0775 30.6874 58.8371 30.1212 60.384 29.6116C60.8641 29.4418 62.8911 30.2911 63.3179 30.5175C65.3983 31.7065 65.3449 34.7073 64.9715 36.8021C64.4914 39.2367 62.9445 40.9353 60.9175 42.1808C59.2638 43.1434 55.8499 43.2 54.4096 42.0676C53.5028 41.3316 49.8755 38.5007 52.8627 37.9345C52.9694 38.2742 53.1294 38.6139 53.2894 38.9536" fill="#A01A10"/>
<path d="M58.7838 30.6869C57.2902 32.0458 55.6899 33.2914 54.303 34.7068C53.7695 35.273 52.2759 37.2546 52.1693 38.1039C52.0092 39.1796 53.5028 39.3495 54.1963 39.859C55.2098 40.5951 56.4367 40.8782 57.6102 41.048C59.9573 41.4444 62.6244 39.7458 63.7446 37.5943C64.7048 35.7259 64.7048 33.9142 63.5313 32.159C62.9445 31.3097 62.1444 30.8002 61.2909 30.4038C60.1707 29.8377 59.6906 29.8943 58.7838 30.6869Z" fill="#EF321E"/>
<path d="M115.594 16.6454C114.154 17.8344 112.073 20.0991 112.873 22.4771C113.407 24.0624 115.327 24.6852 116.554 25.1381C118.528 25.8742 120.448 25.5345 122.368 24.7984C124.129 24.119 124.342 22.4205 124.022 20.4955C123.755 18.9102 123.275 16.3624 122.048 15.3432C120.075 13.6447 117.247 15.23 115.594 16.6454Z" fill="#A01A10"/>
<path d="M118.314 16.0224C119.275 15.5695 120.768 14.6636 121.835 15.2864C122.849 15.8525 123.009 17.5511 123.435 18.6268C124.022 20.2121 124.022 22.0239 122.902 23.3827C121.888 24.6283 120.555 24.6283 119.275 24.4019C117.674 24.1188 116.021 24.2886 114.794 22.8166C113.674 21.5143 113.407 20.2121 114.687 18.7401C115.701 17.4945 116.981 16.6452 118.314 16.0224Z" fill="#E52F1C"/>
<path d="M117.407 17.3241C116.607 17.6638 115.38 18.3998 115.007 19.3057C113.94 21.627 117.354 23.0425 118.741 23.2123C119.701 23.3256 120.555 23.2689 121.355 22.5895C121.995 22.08 122.475 21.3439 121.622 20.7778C121.195 20.4947 120.395 20.0983 119.915 20.0417C119.328 19.9285 118.581 20.2682 118.208 19.702C117.461 18.5696 119.061 18.6263 119.595 18.2866C119.968 18.0601 120.181 18.0601 120.235 17.4939C120.395 15.7954 117.888 17.0976 117.407 17.3241Z" fill="#FB4B38"/>
<path d="M124.715 26.7055C122.208 26.1959 119.328 26.3091 117.141 27.9511C115.327 29.3099 113.513 32.1408 114.634 34.5187C116.447 38.482 121.888 38.9349 125.089 37.3496C127.329 36.2739 130.85 33.7827 130.37 30.6687C129.943 27.9511 126.903 27.1584 124.715 26.7055Z" fill="url(#paint18_radial_20002_17368)"/>
<path d="M62.6244 54.2582C66.0713 54.2582 68.8655 52.0021 68.8655 49.2192C68.8655 46.4362 66.0713 44.1802 62.6244 44.1802C59.1775 44.1802 56.3833 46.4362 56.3833 49.2192C56.3833 52.0021 59.1775 54.2582 62.6244 54.2582Z" fill="url(#paint19_radial_20002_17368)"/>
<path d="M37.0345 13.3474C40.6091 12.5478 43.1424 10.0642 42.6929 7.80005C42.2433 5.53587 38.9812 4.34853 35.4066 5.14805C31.8321 5.94757 29.2987 8.43118 29.7483 10.6954C30.1978 12.9595 33.46 14.1469 37.0345 13.3474Z" fill="url(#paint20_radial_20002_17368)"/>
<path d="M110.154 10.7196C109.513 12.8145 106.366 13.5505 103.112 12.4182C99.8584 11.2858 97.7247 8.6814 98.3648 6.58653C99.0049 4.54828 102.152 3.75563 105.406 4.88799C108.66 6.02035 110.794 8.62478 110.154 10.7196Z" fill="url(#paint21_radial_20002_17368)"/>
<path d="M92.8165 38.4438C92.1763 36.9151 88.0156 36.0092 86.4687 36.4055C84.3883 36.9151 84.2816 39.3497 83.8549 41.2747C86.0419 41.5011 88.389 41.5011 90.6827 41.8408C91.4295 41.9541 92.4431 42.2938 93.0832 41.7276C93.7233 41.1614 93.83 39.8026 94.6835 39.1798C94.3634 38.6136 93.83 38.3305 93.1899 38.1607" fill="#FFFDC5"/>
<path d="M110.953 32.0463C110.313 30.5176 106.152 29.6117 104.605 30.0081C102.525 30.5176 102.418 32.9522 101.991 34.8772C104.179 35.1037 106.526 35.1037 108.819 35.4434C109.566 35.5566 110.58 35.8963 111.22 35.3301C111.86 34.764 111.967 33.4051 112.82 32.7823C112.5 32.2162 111.967 31.9331 111.326 31.8198" fill="#FFD66B"/>
<path d="M102.258 47.2753C101.618 45.7466 97.4574 44.8407 95.9104 45.2371C93.8301 45.7466 93.7234 48.1812 93.2966 50.1062C95.4837 50.3327 97.8308 50.3327 100.125 50.6724C100.871 50.7856 101.885 51.1253 102.525 50.5592C103.165 49.993 103.272 48.6341 104.125 48.0113C103.805 47.4452 103.272 47.1621 102.632 47.0488" fill="#FFD66B"/>
<path d="M113.193 15.2309C112.553 13.7022 108.393 12.7963 106.846 13.1926C104.765 13.7022 104.659 16.1368 104.232 18.0618C106.419 18.2882 108.766 18.2882 111.06 18.628C111.806 18.7412 112.82 19.0809 113.46 18.5147C114.1 17.9485 114.207 16.5897 115.06 15.9669C114.74 15.4007 114.207 15.1176 113.567 14.9478" fill="#FFD66B"/>
<path d="M97.3506 14.0424C96.7105 12.5137 92.5498 11.6078 91.0028 12.0041C88.9225 12.5137 88.8158 14.9483 88.389 16.8733C90.5761 17.0998 92.9232 17.0998 95.2169 17.4395C95.9637 17.5527 96.9772 17.8924 97.6173 17.3262C98.2575 16.7601 98.3641 15.4012 99.2176 14.7784C98.8976 14.2122 98.3641 13.9292 97.724 13.7593" fill="#FFD66B"/>
<path d="M68.7055 11.6064C68.012 10.0777 63.9046 9.17179 62.3577 9.56811C60.2773 10.0777 60.1706 12.5122 59.7439 14.4373C61.931 14.6637 64.278 14.6637 66.5718 15.0034C67.3186 15.1167 68.3321 15.4564 68.9722 14.8902C69.6123 14.324 69.719 12.9652 70.5725 12.3424C70.2524 11.7762 69.719 11.4931 69.0789 11.3233" fill="#FFD66B"/>
<path d="M28.6984 27.2338C28.0583 25.7051 23.8976 24.7992 22.3506 25.1956C20.2702 25.7051 20.1636 28.1397 19.7368 30.0647C21.9239 30.2912 24.271 30.2912 26.5647 30.6309C27.3115 30.7441 28.325 31.0838 28.9651 30.5176C29.6052 29.9515 29.7119 28.5926 30.5654 27.9698C30.2454 27.4037 29.7119 27.1206 29.0718 26.9507" fill="#FFD66B"/>
<path d="M29.0718 42.8598C28.4317 41.3311 24.271 40.4252 22.724 40.8215C20.6437 41.3311 20.537 43.7657 20.1102 45.6907C22.2973 45.9172 24.6444 45.9172 26.9381 46.2569C27.6849 46.3701 28.6984 46.7098 29.3385 46.1436C29.9787 45.5774 30.0853 44.2186 30.9388 43.5958C30.6188 43.0296 30.0853 42.7465 29.4452 42.6333" fill="#FFD66B"/>
<path d="M85.722 43.0291C87.0022 43.2556 92.1764 46.1997 92.9232 45.8034C93.67 45.4071 92.2831 43.7651 93.0299 43.0291C90.0427 41.5004 85.9887 40.4813 83.2682 40.085C83.4282 41.0475 84.3884 42.1798 85.3486 43.0857" fill="#EF833A"/>
<path d="M92.1764 16.1936C93.4567 16.4201 98.6309 19.3643 99.3777 18.9679C100.125 18.5716 98.7376 16.9297 99.4844 16.1936C96.4972 14.665 92.4431 13.6458 89.7227 13.2495C89.8827 14.212 90.8429 15.3444 91.803 16.2503" fill="#EF833A"/>
<path d="M39.3136 15.3441C40.5939 15.5705 45.7681 18.5147 46.5149 18.1183C47.2617 17.722 45.8748 16.0801 46.6216 15.3441C43.5811 13.872 39.5803 12.8529 36.8065 12.4565C36.9665 13.419 37.9267 14.5514 38.8869 15.4573" fill="#EF833A"/>
<path d="M32.5391 30.574C33.8193 30.8005 38.9936 33.7446 39.7404 33.3483C40.4872 32.952 39.1003 31.3101 39.8471 30.574C36.8599 29.0453 32.8058 28.0262 30.0853 27.6299C30.2454 28.5924 31.2055 29.7247 32.1657 30.6306" fill="#EF833A"/>
<path d="M57.4502 23.3841C58.7305 23.6106 63.9047 26.5547 64.6515 26.1584C65.3983 25.762 64.0114 24.1201 64.7582 23.3841C61.771 21.8554 57.7169 20.8363 54.9965 20.4399C55.1565 21.4024 56.1167 22.5348 57.0768 23.4407" fill="#EF833A"/>
<path d="M46.8883 47.8426C48.1686 48.069 53.3428 51.0132 54.0896 50.6169C54.8364 50.2205 53.4495 48.5786 54.1963 47.8426C51.2091 46.3139 47.1551 45.2948 44.4346 44.8984C44.5946 45.8609 45.5548 46.9933 46.5149 47.8992" fill="#EF833A"/>
<path d="M79.1074 21.5155C79.8008 21.6287 82.628 23.214 83.0547 22.9875C83.4815 22.7611 82.6813 21.8552 83.1081 21.4589C81.4545 20.6096 79.2674 20.1 77.7738 19.9302C77.8805 20.4397 78.4139 21.0625 78.9473 21.5721" fill="#EF833A"/>
<path d="M108.713 32.8954C109.406 33.0086 112.233 34.5939 112.66 34.3674C113.087 34.141 112.287 33.2351 112.713 32.8387C111.06 32.0461 108.873 31.4799 107.379 31.3101C107.486 31.8196 108.019 32.4424 108.553 32.952" fill="#EF833A"/>
<path d="M107.806 20.723C108.499 20.8362 111.326 22.4215 111.753 22.1951C112.18 21.9686 111.38 21.0627 111.807 20.6664C110.153 19.8737 107.966 19.3075 106.472 19.1377C106.579 19.6473 107.112 20.2701 107.646 20.7796" fill="#EF833A"/>
<path d="M100.231 45.973C100.925 46.0862 103.752 47.6715 104.179 47.4451C104.605 47.2186 103.805 46.3127 104.232 45.9164C102.578 45.0671 100.391 44.5575 98.8976 44.3877C99.0043 44.8973 99.5377 45.5201 100.071 46.0296" fill="#EF833A"/>
<path d="M21.9772 27.2333C17.7098 27.7429 13.6024 25.7046 12.7489 22.6472C11.8954 19.5899 14.6692 16.7023 18.9367 16.1928C23.2041 15.6832 27.3115 17.7215 28.165 20.7788C29.0184 23.8362 26.2446 26.7237 21.9772 27.2333Z" fill="#C41414"/>
<path d="M21.7105 20.6648C22.1372 21.0612 23.1507 20.2119 23.4174 20.0986C23.7375 19.9288 25.1777 19.7023 25.2311 19.4192C25.2311 19.2494 24.911 19.1928 24.8043 19.0795C24.591 18.9097 24.5376 18.6832 24.3776 18.5133C23.6308 17.6075 21.2837 17.2677 19.9502 17.3244C18.83 17.3244 17.8164 17.5508 16.9096 17.9472C16.4829 18.117 16.0028 18.2869 15.576 18.5133C15.0426 18.6832 14.9359 18.8531 14.7226 19.2494C14.6159 19.4758 14.6159 19.7589 14.4558 19.9854C14.2425 20.2119 14.0291 20.4384 13.9224 20.7214C13.8157 21.0612 14.1358 21.1178 14.6159 21.1178C15.2026 21.1178 15.6827 21.1744 16.2695 21.231C16.6429 21.2876 18.9366 21.5141 18.2965 20.8913C17.7631 20.3251 16.4295 20.7781 16.0561 20.2119C15.2026 19.0229 19.2567 18.6832 20.3235 18.6266C21.177 18.57 22.4573 18.57 23.0974 19.0795C23.8442 19.7023 21.0704 20.042 21.7105 20.6648Z" fill="#EF2424"/>
<path d="M21.9238 21.458C22.2439 21.3447 22.5639 21.4013 22.9373 21.458C23.3641 21.5146 23.8442 21.4013 24.2709 21.458C24.9644 21.5146 25.6578 21.5712 25.9245 21.9675C26.2446 22.4771 26.0846 23.0433 25.7645 23.5528C25.3378 24.1756 24.1109 24.4587 23.3107 24.7984C22.2972 25.2514 21.1237 25.4778 19.9501 25.5911C18.9366 25.7043 18.1365 25.3646 17.283 25.1381C16.3762 24.855 15.4693 24.5153 14.9893 23.8925C14.6159 23.383 14.9893 22.9866 15.7361 22.8168C16.0561 22.7602 16.2695 22.7602 16.5362 22.5903C16.8029 22.4205 17.0696 22.2506 17.3897 22.1374C17.6031 22.0808 18.1898 21.9109 18.4032 22.0241C18.7766 22.2506 18.2432 22.6469 18.0298 22.7602C17.7097 22.93 17.3363 23.0999 17.123 23.3263C16.8563 23.6094 17.2297 23.7227 17.6564 23.8925C18.5099 24.2322 19.4701 24.4587 20.4302 24.2889C20.857 24.2322 21.1237 24.0624 21.4971 23.9491C21.8705 23.8359 22.3506 23.7227 22.724 23.5528C23.1507 23.3263 23.8975 22.93 24.0575 22.5903C24.2709 22.0808 23.2574 22.1374 22.7773 22.1374C22.4039 22.1374 22.1372 22.1374 21.8171 21.9675C21.6571 21.9109 21.3371 21.741 21.6038 21.5712C21.6571 21.5146 21.7105 21.5146 21.8171 21.5146" fill="#EF2424"/>
<path d="M23.7375 22.194C23.9509 22.0241 24.8044 21.741 25.0711 22.0241C24.8044 22.194 24.1109 22.3638 23.7909 22.3072C23.7909 22.2506 23.7909 22.194 23.8442 22.194" fill="#FFE161"/>
<path d="M23.2041 23.2711C23.5775 23.2144 24.4843 23.6674 23.6842 23.724C23.4708 23.724 23.2041 23.6674 23.0974 23.4975C22.9907 23.3277 23.0974 23.1578 23.3641 23.3277" fill="#FFE161"/>
<path d="M20.6437 24.1769C20.537 24.2335 20.7504 25.0261 20.217 24.743C19.8969 24.5732 20.3237 23.8372 20.6437 24.1769Z" fill="#FFE161"/>
<path d="M16.9097 23.4961C16.6963 23.5527 15.5228 23.8358 16.1095 24.0057C16.3762 24.1189 17.1764 23.7226 16.9097 23.4961Z" fill="#FFE161"/>
<path d="M20.5903 18.5712C20.8037 18.3447 20.697 17.7219 20.4303 18.1182C20.2702 18.3447 20.697 18.8542 20.8037 18.4579" fill="#FFE161"/>
<path d="M19.3102 18.6832C19.4169 18.5133 19.3102 17.7207 18.9901 18.117C18.8301 18.3435 19.3102 18.9096 19.4169 18.5699" fill="#FFE161"/>
<path d="M15.7362 20.0991C15.5761 20.0991 14.6693 20.3256 14.8827 20.4954C15.096 20.7219 15.7895 20.269 15.8962 20.1557C15.8962 20.0991 15.8962 20.0991 15.7895 20.0991" fill="#FFE161"/>
<path d="M18.2966 18.7985C18.2433 18.6286 17.9232 18.0625 17.7099 18.3455C17.4965 18.6286 18.51 19.1948 18.2966 18.572" fill="#FFE161"/>
<path d="M17.0697 19.0801C16.9096 18.9669 16.1095 18.5139 16.2162 18.8536C16.2695 19.0801 17.2297 19.4764 16.963 18.9669" fill="#FFE161"/>
<path d="M21.7639 18.5705C21.7105 18.4007 22.0839 18.1176 21.9772 17.8911C21.4972 17.8911 21.4972 18.4007 21.5505 18.6271C21.6572 18.6271 21.7105 18.5705 21.7639 18.5139" fill="#FFE161"/>
<path d="M22.884 19.0804C23.2574 19.0237 23.4708 18.7973 23.5241 18.5708C22.9907 18.5708 22.6707 19.137 23.1507 19.0237" fill="#FFE161"/>
<path d="M23.8443 22.5336C24.111 22.3638 24.6978 22.3638 24.9111 22.5336C24.7511 22.7035 24.4311 22.7035 24.1643 22.7035C24.0577 22.7601 23.5242 22.7035 23.8443 22.5336Z" fill="#FFE161"/>
<path d="M22.244 23.6099C22.4574 23.6099 22.7241 24.1195 23.0975 24.0063C23.6309 23.8364 22.6174 23.4401 22.244 23.4967C22.1906 23.5533 22.1906 23.6099 22.244 23.6099Z" fill="#FFE161"/>
<path d="M23.6842 22.9312C23.6842 23.101 24.271 23.2142 24.5377 23.2142C24.6444 22.9312 23.8976 22.9312 23.6309 22.9878" fill="#FFE161"/>
<path d="M20.9104 24.1196C20.857 24.2895 21.0171 24.7424 21.3905 24.7424C21.4438 24.5726 21.2838 24.1196 20.9637 24.063C20.9104 24.063 20.9104 24.1196 20.9104 24.1196Z" fill="#FFE161"/>
<path d="M18.4033 24.1772C18.35 24.2338 18.1366 24.9133 18.51 24.8566C18.8834 24.8 18.6701 24.2338 18.5634 24.1206" fill="#FFE161"/>
<path d="M21.5505 23.9489C21.7105 24.1188 21.8172 24.4019 22.1373 24.4585C22.2973 24.2886 22.1906 24.1754 22.0306 24.0055C21.8706 23.8923 21.3905 23.6092 21.5505 23.9489Z" fill="#FFE161"/>
<path d="M19.1501 24.29C19.2035 24.4599 19.1501 24.743 19.4169 24.8562C19.7369 24.6863 19.3635 24.4033 19.3102 24.2334C19.2035 24.2334 19.1501 24.2334 19.0968 24.29" fill="#FFE161"/>
<path d="M17.9232 24.0063C17.7098 24.0063 17.4431 24.4027 17.5498 24.5159C17.7632 24.4027 18.2433 24.1196 17.8165 23.9497" fill="#FFE161"/>
<path d="M17.4432 22.8745C17.3898 22.7612 16.3763 22.5348 16.4296 22.8179C16.483 23.0443 17.2831 23.0443 17.4432 22.8745C17.4432 22.8179 17.3898 22.7612 17.2298 22.7046L17.4432 22.8745Z" fill="#FFE161"/>
<path d="M16.2162 19.4765C16.1095 19.4199 15.1494 19.4199 15.2561 19.5898C15.3094 19.7596 16.3229 19.7596 16.0562 19.4199" fill="#FFE161"/>
<path d="M16.323 20.5517C16.2163 20.5517 16.0563 20.7782 16.1096 20.9481C16.483 21.0047 16.8564 20.7216 16.8031 20.4951C16.5897 20.4951 16.323 20.6084 16.1629 20.7216" fill="#FFE161"/>
<path d="M80.1209 53.6742C75.8534 54.1838 71.746 52.1455 70.8926 49.0882C70.0391 46.0308 72.8129 43.1433 77.0803 42.6337C81.3478 42.1241 85.4552 44.1624 86.3086 47.2198C87.1088 50.2205 84.335 53.1647 80.1209 53.6742Z" fill="#C41414"/>
<path d="M79.8008 47.1055C80.2275 47.5019 81.2411 46.6526 81.5078 46.5394C81.8278 46.3695 83.2681 46.143 83.3214 45.8599C83.3214 45.6901 83.0014 45.6335 82.8947 45.5202C82.6813 45.3504 82.628 45.1239 82.4679 44.9541C81.7211 44.1048 79.3741 43.7085 78.0405 43.7651C76.9203 43.7651 75.9068 43.9915 74.9999 44.3879C74.5732 44.5577 74.0931 44.7276 73.6664 44.9541C73.1863 45.1805 73.0796 45.3504 72.8662 45.6901C72.7595 45.9166 72.7595 46.1996 72.5995 46.4261C72.3861 46.6526 72.1728 46.8791 72.0661 47.1622C71.9594 47.5019 72.2795 47.5585 72.7595 47.5585C73.3463 47.5585 73.8264 47.6151 74.4132 47.6717C74.7866 47.7283 77.0803 47.9548 76.4402 47.332C75.8534 46.7658 74.5732 47.2188 74.1998 46.6526C73.3463 45.4636 77.4004 45.1239 78.4672 45.0107C79.3207 44.9541 80.6009 44.9541 81.2411 45.4636C81.9879 46.143 79.1607 46.4827 79.8008 47.1055Z" fill="#EF2424"/>
<path d="M80.0675 47.8989C80.3876 47.7856 80.7076 47.8423 81.081 47.8989C81.5078 47.9555 81.9878 47.8423 82.4146 47.8989C83.108 47.9555 83.8015 48.0121 84.0682 48.4084C84.3883 48.8614 84.2282 49.4842 83.9082 49.9371C83.4814 50.5599 82.2546 50.843 81.4544 51.1827C80.4409 51.6357 79.2674 51.8621 78.0938 51.9754C77.0803 52.0886 76.2802 51.7489 75.4267 51.5224C74.5198 51.2393 73.613 50.9562 73.1329 50.2768C72.7595 49.7673 73.1329 49.3709 73.8797 49.2011C74.1998 49.1445 74.4132 49.1445 74.6799 48.9746C74.9466 48.8048 75.2133 48.6349 75.5334 48.5217C75.7467 48.4651 76.3335 48.2952 76.5469 48.4084C76.9203 48.6349 76.3868 49.0312 76.1735 49.1445C75.8534 49.3143 75.48 49.4842 75.2666 49.7107C74.9999 49.9937 75.3733 50.107 75.8001 50.2768C76.6536 50.6165 77.6137 50.843 78.5739 50.6732C79.0006 50.6165 79.2674 50.4467 79.6408 50.2768C80.0142 50.1636 80.4942 50.107 80.8676 49.9371C81.2944 49.7106 82.0412 49.3143 82.2012 48.9746C82.4146 48.4651 81.4011 48.5217 80.921 48.5217C80.5476 48.5217 80.2809 48.5217 79.9608 48.3518C79.8008 48.2952 79.4807 48.1253 79.7474 47.9555C79.8008 47.8989 79.8541 47.8989 79.9608 47.8989" fill="#EF2424"/>
<path d="M81.8812 48.6349C82.0946 48.465 82.9481 48.1819 83.2148 48.465C82.9481 48.6349 82.2546 48.8047 81.9346 48.7481C81.9346 48.6915 81.9346 48.6349 81.9879 48.6349" fill="#FFE161"/>
<path d="M81.2944 49.7105C81.6678 49.6538 82.5746 50.1068 81.7745 50.1634C81.5611 50.1634 81.2944 50.1068 81.1877 49.9369C81.081 49.8237 81.1877 49.5972 81.4544 49.7671" fill="#FFE161"/>
<path d="M78.734 50.6159C78.6273 50.6725 78.8407 51.4651 78.3073 51.182C77.9872 50.9556 78.4673 50.2761 78.734 50.6159Z" fill="#FFE161"/>
<path d="M75.0534 49.9365C74.84 49.9931 73.6664 50.2762 74.2532 50.4461C74.4666 50.5593 75.3201 50.163 75.0534 49.9365Z" fill="#FFE161"/>
<path d="M78.734 44.9545C78.9474 44.728 78.8407 44.1052 78.574 44.5015C78.4139 44.728 78.8407 45.2375 78.9473 44.8412" fill="#FFE161"/>
<path d="M77.4005 45.1247C77.5072 44.8982 77.4005 44.1622 77.0805 44.5585C76.9204 44.785 77.4005 45.3511 77.5072 45.0114" fill="#FFE161"/>
<path d="M73.8798 46.54C73.7198 46.54 72.813 46.7665 73.0263 46.9364C73.2397 47.1628 73.9865 46.7099 74.0399 46.5967C74.0399 46.54 74.0399 46.54 73.9332 46.54" fill="#FFE161"/>
<path d="M76.4403 45.2375C76.387 45.0676 76.0669 44.5014 75.8536 44.7845C75.6402 45.0676 76.6537 45.6338 76.4403 45.011" fill="#FFE161"/>
<path d="M75.2135 45.4644C75.0534 45.3512 74.2533 44.8982 74.36 45.2379C74.4133 45.4644 75.3735 45.8607 75.1068 45.3512" fill="#FFE161"/>
<path d="M79.8542 45.0114C79.8009 44.8416 80.1743 44.5585 80.0676 44.332C79.5875 44.332 79.5875 44.8416 79.6408 45.0681C79.7475 45.0681 79.8009 45.0114 79.8542 44.9548" fill="#FFE161"/>
<path d="M81.0277 45.5213C81.4011 45.4647 81.6145 45.2382 81.6678 45.0117C81.1344 45.0117 80.8143 45.5779 81.2411 45.4647" fill="#FFE161"/>
<path d="M81.9879 48.9746C82.2546 48.8047 82.8414 48.8047 83.0548 48.9746C82.8947 49.1444 82.5747 49.1444 82.308 49.1444C82.1479 49.201 81.6679 49.1444 81.9879 48.9746Z" fill="#FFE161"/>
<path d="M80.3344 50.0504C80.5477 50.0504 80.8144 50.5599 81.1878 50.4467C81.7213 50.2768 80.7078 49.8805 80.3344 49.9371C80.3344 49.9937 80.3344 50.0504 80.3344 50.0504Z" fill="#FFE161"/>
<path d="M81.8279 49.3701C81.7745 49.54 82.4146 49.6532 82.628 49.6532C82.7347 49.3701 81.9879 49.3701 81.7212 49.4267" fill="#FFE161"/>
<path d="M79.0007 50.5605C78.9474 50.7304 79.1074 51.1833 79.4808 51.1833C79.5341 51.0135 79.3741 50.5605 79.0541 50.5039C79.0541 50.5039 79.0007 50.5039 79.0007 50.5605Z" fill="#FFE161"/>
<path d="M76.4937 50.6157C76.4403 50.6723 76.227 51.3517 76.6004 51.2951C76.9738 51.2385 76.7604 50.6723 76.6537 50.5591" fill="#FFE161"/>
<path d="M79.6408 50.3898C79.8008 50.5597 79.9075 50.7862 80.2276 50.8994C80.3876 50.7295 80.2809 50.6163 80.1209 50.4464C80.0142 50.3332 79.4808 50.0501 79.6408 50.3898Z" fill="#FFE161"/>
<path d="M77.2405 50.729C77.2938 50.8988 77.2405 51.1819 77.5072 51.2952C77.8273 51.1253 77.4539 50.8422 77.4005 50.6724C77.2938 50.6724 77.2405 50.6724 77.1871 50.729" fill="#FFE161"/>
<path d="M76.0135 50.4468C75.8002 50.4468 75.5334 50.8431 75.6401 50.9563C75.8535 50.8431 76.3336 50.56 75.9602 50.3901" fill="#FFE161"/>
<path d="M75.5868 49.3134C75.5335 49.2002 74.52 48.9737 74.5733 49.2568C74.5733 49.4833 75.4268 49.4833 75.5868 49.3134C75.5868 49.2568 75.4802 49.2002 75.3735 49.1436L75.5868 49.3134Z" fill="#FFE161"/>
<path d="M74.3066 45.917C74.1999 45.8604 73.2397 45.8604 73.3464 46.0302C73.3997 46.2001 74.4133 46.2001 74.1465 45.8604" fill="#FFE161"/>
<path d="M74.4133 46.9927C74.3066 46.9927 74.1466 47.2191 74.1999 47.389C74.5733 47.4456 74.9467 47.1625 74.8934 46.936C74.68 46.936 74.4133 47.0493 74.2533 47.1625" fill="#FFE161"/>
<path d="M36.2731 47.6732C32.0057 48.1828 27.8983 46.1446 27.0448 43.0872C26.1913 40.0298 28.9651 37.1423 33.2326 36.6327C37.5 36.1232 41.6074 38.1614 42.4609 41.2188C43.261 44.2195 40.4872 47.1071 36.2731 47.6732Z" fill="#C41414"/>
<path d="M35.953 41.105C36.3798 41.5014 37.3933 40.6521 37.66 40.5389C37.98 40.369 39.4203 40.1425 39.4736 39.8595C39.4736 39.6896 39.1536 39.633 39.0469 39.5197C38.8335 39.3499 38.7802 39.1234 38.6202 38.9536C37.8734 38.1043 35.5263 37.708 34.1927 37.7646C33.0725 37.7646 32.059 37.9911 31.1522 38.3874C30.7254 38.5572 30.2453 38.7271 29.8186 38.9536C29.3385 39.18 29.2318 39.3499 29.0185 39.7462C28.9118 39.9727 28.9118 40.2558 28.7517 40.4823C28.5384 40.7087 28.325 40.9352 28.2183 41.2183C28.1116 41.558 28.4317 41.6146 28.9118 41.6146C29.4985 41.6146 29.9786 41.6712 30.5654 41.7278C30.9388 41.7845 33.2325 42.0109 32.5924 41.3881C32.059 40.822 30.7254 41.2749 30.352 40.7087C29.4985 39.5197 33.5526 39.18 34.6194 39.0668C35.4729 39.0102 36.7532 39.0102 37.3933 39.5197C38.1401 40.1425 35.3129 40.4823 35.953 41.105Z" fill="#EF2424"/>
<path d="M36.2197 41.8408C36.5398 41.7275 36.8598 41.7841 37.2332 41.8408C37.66 41.8974 38.1401 41.7841 38.5668 41.8408C39.2603 41.8974 39.9537 41.954 40.2204 42.3503C40.5405 42.8033 40.3805 43.4261 40.0604 43.9356C39.6337 44.5584 38.4068 44.8415 37.6066 45.1812C36.5931 45.6342 35.4196 45.804 34.246 45.9739C33.2325 46.0871 32.4324 45.7474 31.5789 45.5209C30.6721 45.2378 29.7652 44.8981 29.2852 44.2753C28.9118 43.7658 29.2852 43.3695 30.032 43.1996C30.352 43.143 30.5654 43.143 30.8321 42.9731C31.0988 42.8033 31.3655 42.6334 31.6856 42.5202C31.899 42.4636 32.4857 42.2937 32.6991 42.4069C33.0725 42.6334 32.5391 43.0297 32.3257 43.143C32.0056 43.3128 31.6322 43.4827 31.4189 43.7092C31.1522 43.9922 31.5256 44.1055 31.9523 44.2753C32.8058 44.615 33.766 44.8415 34.7261 44.6717C35.1529 44.6151 35.4196 44.4452 35.793 44.332C36.1664 44.2187 36.6465 44.1055 37.0199 43.9922C37.4466 43.7658 38.1934 43.3695 38.3534 43.0297C38.5668 42.5202 37.5533 42.5768 37.0732 42.5768C36.6998 42.5768 36.4331 42.5768 36.113 42.4069C35.953 42.3503 35.633 42.1805 35.8997 42.0106C35.953 41.954 36.0064 41.954 36.113 41.954" fill="#EF2424"/>
<path d="M38.0334 42.5768C38.2468 42.4069 39.1003 42.1238 39.367 42.4069C39.1003 42.5768 38.4068 42.7466 38.0868 42.69C38.0334 42.6334 38.0868 42.5768 38.1401 42.5768" fill="#FFE161"/>
<path d="M37.4466 43.6523C37.82 43.5957 38.7269 44.0487 37.9267 44.1053C37.7134 44.1053 37.3933 44.0487 37.34 43.8788C37.2333 43.7656 37.34 43.5391 37.6067 43.709" fill="#FFE161"/>
<path d="M34.8862 44.6149C34.7796 44.6715 34.9929 45.4641 34.4595 45.1811C34.1394 44.9546 34.6195 44.2752 34.8862 44.6149Z" fill="#FFE161"/>
<path d="M31.2056 43.9355C30.9922 43.9922 29.8187 44.2753 30.4054 44.4451C30.6721 44.5017 31.4723 44.1054 31.2589 43.9922" fill="#FFE161"/>
<path d="M34.8862 38.953C35.0996 38.7265 34.9929 38.1037 34.7262 38.5001C34.5661 38.7265 34.9929 39.2361 35.0996 38.8398" fill="#FFE161"/>
<path d="M33.5526 39.1232C33.6593 38.8967 33.5526 38.1607 33.2326 38.557C33.0725 38.7835 33.5526 39.3497 33.6593 39.01" fill="#FFE161"/>
<path d="M30.032 40.5386C29.872 40.5386 28.9651 40.765 29.1252 40.9349C29.3385 41.1614 30.0853 40.7084 30.192 40.5952C30.192 40.5386 30.192 40.5386 30.0853 40.5386" fill="#FFE161"/>
<path d="M32.5924 39.2365C32.5391 39.0666 32.1657 38.5004 31.9523 38.7835C31.7389 39.0666 32.7524 39.6328 32.5391 39.01" fill="#FFE161"/>
<path d="M31.3656 39.4619C31.2589 39.3487 30.4055 38.8958 30.5121 39.2355C30.5655 39.462 31.5256 39.8583 31.2589 39.3487" fill="#FFE161"/>
<path d="M36.0598 39.0105C36.0064 38.8406 36.3798 38.5575 36.2731 38.3311C35.7931 38.3311 35.7931 38.8406 35.8464 39.0671C35.9531 39.0671 36.0064 39.0105 36.0598 38.9539" fill="#FFE161"/>
<path d="M37.1799 39.5198C37.5533 39.4632 37.7667 39.2367 37.82 39.0103C37.2866 39.0103 36.9666 39.5764 37.3933 39.4632" fill="#FFE161"/>
<path d="M38.1401 42.9731C38.4068 42.8032 38.9936 42.8032 39.207 42.9731C39.047 43.1429 38.7269 43.1429 38.4602 43.1429C38.3002 43.1996 37.8201 43.1429 38.1401 42.9731Z" fill="#FFE161"/>
<path d="M36.4865 44.0494C36.6998 44.0494 36.9665 44.5589 37.3399 44.4457C37.8734 44.2759 36.8598 43.8795 36.4865 43.9362C36.4865 43.9928 36.4865 44.0494 36.4865 44.0494Z" fill="#FFE161"/>
<path d="M37.9801 43.3691C37.9268 43.539 38.5669 43.6522 38.7802 43.6522C38.8869 43.3691 38.1401 43.3691 37.8734 43.3691" fill="#FFE161"/>
<path d="M35.1529 44.5591C35.0996 44.7289 35.2596 45.1819 35.633 45.1819C35.6864 45.012 35.5263 44.5591 35.2063 44.5024C35.2063 44.5024 35.1529 44.5024 35.1529 44.5591Z" fill="#FFE161"/>
<path d="M32.6458 44.6147C32.5924 44.6713 32.3791 45.3508 32.7525 45.2941C33.1259 45.2375 32.9125 44.6713 32.8058 44.5581" fill="#FFE161"/>
<path d="M35.793 44.3886C35.9531 44.5584 36.0597 44.8415 36.3798 44.8981C36.5398 44.7283 36.4331 44.5584 36.2731 44.4452C36.1664 44.332 35.633 43.9923 35.793 44.3886Z" fill="#FFE161"/>
<path d="M33.3926 44.728C33.4459 44.8979 33.3926 45.1809 33.6593 45.2942C33.9793 45.1243 33.6059 44.8412 33.5526 44.6714C33.4459 44.6714 33.3926 44.728 33.3392 44.728" fill="#FFE161"/>
<path d="M32.2191 44.4443C32.0057 44.4443 31.739 44.8406 31.8457 44.9539C32.0591 44.8406 32.5392 44.5575 32.1658 44.3877" fill="#FFE161"/>
<path d="M31.7389 43.3125C31.6856 43.1992 30.6721 42.9728 30.7254 43.2558C30.7254 43.4257 31.5789 43.4257 31.7389 43.3125C31.7389 43.2558 31.6856 43.1992 31.5256 43.1426L31.7389 43.3125Z" fill="#FFE161"/>
<path d="M30.4588 39.916C30.3521 39.8594 29.3919 39.8594 29.4986 40.0292C29.552 40.1991 30.5655 40.1991 30.2988 39.8594" fill="#FFE161"/>
<path d="M30.5654 40.9912C30.4587 40.9912 30.2987 41.2176 30.352 41.3309C30.7254 41.3875 31.0988 41.1044 31.0455 40.8779C30.8321 40.8779 30.5654 40.9912 30.4054 41.1044" fill="#FFE161"/>
<path d="M45.3947 26.724C41.5541 27.177 37.7667 25.3652 37.0199 22.5909C36.2731 19.8166 38.7802 17.2122 42.6209 16.7592C46.4616 16.3063 50.2489 18.1181 50.9957 20.8924C51.7425 23.61 49.2888 26.2711 45.3947 26.724Z" fill="#C41414"/>
<path d="M45.1813 20.7793C45.5547 21.119 46.4615 20.3829 46.7283 20.2697C47.0483 20.1565 48.3285 19.93 48.3819 19.6469C48.3819 19.5337 48.1152 19.477 48.0085 19.3638C47.8485 19.194 47.7418 19.0241 47.6351 18.8542C46.9416 18.0616 44.8613 17.7219 43.6344 17.7785C42.6209 17.7785 41.714 18.005 40.8605 18.3447C40.4338 18.5145 40.0604 18.6278 39.6337 18.8542C39.2069 19.0807 39.1002 19.194 38.9402 19.5337C38.8335 19.7601 38.8335 19.9866 38.6735 20.2131C38.5135 20.4396 38.3001 20.6094 38.1934 20.8925C38.0867 21.2322 38.4068 21.2322 38.7802 21.2322C39.3136 21.2322 39.7937 21.2888 40.2738 21.3454C40.6472 21.4021 42.6742 21.6285 42.0874 21.0624C41.6073 20.5528 40.3805 20.9491 40.0604 20.4396C39.3136 19.3638 42.9409 19.0241 43.9011 18.9675C44.7012 18.9109 45.8214 18.9109 46.4082 19.3638C47.1017 19.93 44.5412 20.2131 45.1813 20.7793Z" fill="#EF2424"/>
<path d="M45.3947 21.458C45.6615 21.3447 45.9815 21.4014 46.3016 21.458C46.7283 21.458 47.1017 21.4014 47.5285 21.458C48.1686 21.5146 48.8087 21.5712 49.0754 21.9675C49.3421 22.4205 49.1821 22.93 48.9154 23.383C48.542 23.9492 47.4218 24.1756 46.675 24.5153C45.7681 24.9117 44.7013 25.0815 43.6344 25.1948C42.7276 25.308 41.9808 25.0249 41.234 24.7418C40.4339 24.5153 39.5804 24.1756 39.1536 23.6095C38.7802 23.1565 39.1536 22.7602 39.8471 22.6469C40.1671 22.5903 40.3272 22.5903 40.5405 22.4205C40.8073 22.3072 41.0206 22.0808 41.3407 22.0241C41.5541 21.9675 42.0341 21.7977 42.2475 21.9109C42.5676 22.0808 42.1408 22.4771 41.8741 22.5903C41.5541 22.7602 41.234 22.8734 41.074 23.0999C40.8606 23.383 41.1273 23.4962 41.5541 23.6095C42.3542 23.8925 43.1543 24.119 44.1145 23.9492C44.4879 23.8925 44.7546 23.7227 45.0747 23.6095C45.4481 23.4962 45.8748 23.4396 46.1949 23.2697C46.5683 23.0999 47.2617 22.7036 47.4218 22.3639C47.6351 21.9109 46.675 21.9675 46.2482 21.9109C45.9282 21.9109 45.6615 21.9109 45.3947 21.7411C45.2347 21.6844 44.968 21.5146 45.1814 21.4014C45.2347 21.3447 45.2881 21.3447 45.3947 21.4014" fill="#EF2424"/>
<path d="M46.995 22.1372C47.2084 21.9674 47.9552 21.7409 48.1685 21.9674C47.9552 22.1372 47.3151 22.2505 46.995 22.1938C46.995 22.1372 46.995 22.1372 47.0483 22.0806" fill="#FFE161"/>
<path d="M46.5148 23.1002C46.8882 23.0436 47.6884 23.44 46.9416 23.4966C46.7282 23.4966 46.4615 23.44 46.4082 23.3267C46.3548 23.2135 46.4082 23.0436 46.6215 23.1569" fill="#FFE161"/>
<path d="M44.1678 23.9502C44.1145 23.9502 44.2745 24.7428 43.7944 24.4597C43.5277 24.2899 43.9011 23.6671 44.1678 23.9502Z" fill="#FFE161"/>
<path d="M40.8072 23.3833C40.5939 23.3833 39.527 23.723 40.0604 23.8362C40.3271 23.8929 41.0739 23.5532 40.8072 23.3833Z" fill="#FFE161"/>
<path d="M44.1678 18.8544C44.3812 18.6846 44.2745 18.1184 44.0078 18.4581C43.8478 18.628 44.2745 19.1375 44.3812 18.7412" fill="#FFE161"/>
<path d="M42.9943 19.0236C43.101 18.8538 42.9943 18.1177 42.7276 18.5141C42.5675 18.6839 43.0476 19.2501 43.101 18.9104" fill="#FFE161"/>
<path d="M39.7404 20.27C39.6337 20.27 38.7802 20.4965 38.9402 20.6663C39.1536 20.8362 39.7937 20.4399 39.9004 20.3266C39.9004 20.27 39.9004 20.27 39.847 20.27" fill="#FFE161"/>
<path d="M42.0874 19.0807C42.0341 18.9674 41.714 18.4013 41.554 18.6843C41.3406 18.9674 42.3008 19.477 42.0874 18.9108" fill="#FFE161"/>
<path d="M40.9673 19.3068C40.8606 19.2502 40.1138 18.7972 40.1672 19.1369C40.2205 19.3068 41.1273 19.7031 40.8606 19.1936" fill="#FFE161"/>
<path d="M45.1813 18.9104C45.128 18.7405 45.5014 18.5141 45.3947 18.2876C44.968 18.2876 44.968 18.7405 45.0213 18.967C45.128 18.967 45.1813 18.9104 45.2347 18.8538" fill="#FFE161"/>
<path d="M46.2482 19.3074C46.5682 19.2508 46.7816 19.081 46.8349 18.8545C46.3549 18.8545 46.0348 19.3641 46.4615 19.2508" fill="#FFE161"/>
<path d="M47.1017 22.4773C47.315 22.3641 47.9018 22.3075 48.0618 22.4773C47.9551 22.5906 47.6351 22.6472 47.4217 22.6472C47.2617 22.7038 46.8349 22.5906 47.1017 22.4773Z" fill="#FFE161"/>
<path d="M45.608 23.4972C45.8214 23.4972 46.0348 23.9501 46.3548 23.8935C46.8349 23.7803 45.8747 23.3839 45.608 23.4406C45.608 23.4406 45.608 23.4406 45.608 23.4972Z" fill="#FFE161"/>
<path d="M46.9416 22.8166C46.8883 22.9294 47.4751 23.0986 47.6884 23.0422C47.7951 22.7602 47.1017 22.8166 46.8883 22.8166" fill="#FFE161"/>
<path d="M44.4345 23.893C44.3812 24.0629 44.5412 24.4592 44.8613 24.4592C44.9146 24.2894 44.7546 23.893 44.4879 23.8364C44.4345 23.893 44.4345 23.893 44.4345 23.893Z" fill="#FFE161"/>
<path d="M42.1408 23.9502C42.0874 24.0068 41.8741 24.6296 42.2475 24.573C42.6209 24.5164 42.4075 24.0068 42.3008 23.9502" fill="#FFE161"/>
<path d="M45.0212 23.7797C45.1813 23.9495 45.288 24.176 45.5547 24.2326C45.7147 24.0628 45.608 23.9495 45.448 23.8363C45.3413 23.6665 44.8612 23.44 45.0212 23.7797Z" fill="#FFE161"/>
<path d="M42.8342 24.0625C42.8876 24.2323 42.8342 24.4588 43.1009 24.572C43.421 24.4022 43.0476 24.1757 42.9943 24.0059C42.8876 24.0059 42.8342 24.0059 42.7809 24.0625" fill="#FFE161"/>
<path d="M41.7141 23.8364C41.554 23.8364 41.2873 24.1761 41.394 24.346C41.554 24.2328 42.0341 23.9497 41.6607 23.8364" fill="#FFE161"/>
<path d="M41.2873 22.8171C41.2339 22.7043 40.3271 22.5352 40.3804 22.7607C40.3804 22.9299 41.1806 22.9299 41.2873 22.8171C41.2873 22.7607 41.2339 22.7043 41.1272 22.6479L41.2873 22.8171Z" fill="#FFE161"/>
<path d="M40.1671 19.7036C40.1138 19.647 39.207 19.647 39.3136 19.8168C39.367 19.9867 40.2738 19.9867 40.0604 19.647" fill="#FFE161"/>
<path d="M40.2738 20.6665C40.2205 20.6665 40.0604 20.8929 40.0604 21.0062C40.3805 21.0628 40.7539 20.7797 40.6472 20.5532C40.4338 20.5532 40.2205 20.6665 40.0604 20.7231" fill="#FFE161"/>
<path d="M113.033 46.4267C108.766 46.9362 104.659 44.898 103.805 41.8406C102.952 38.7832 105.725 35.8957 109.993 35.3861C114.26 34.8766 118.368 36.9148 119.221 39.9722C120.075 43.0296 117.301 45.9171 113.033 46.4267Z" fill="#C41414"/>
<path d="M112.767 39.9156C113.193 40.3119 114.207 39.4627 114.474 39.3494C114.794 39.1796 116.234 38.9531 116.287 38.67C116.287 38.5001 115.967 38.4435 115.861 38.3303C115.647 38.1604 115.594 37.934 115.434 37.7641C114.687 36.9148 112.34 36.5185 111.006 36.5751C109.886 36.5751 108.873 36.8016 107.966 37.1979C107.539 37.3678 107.059 37.5376 106.632 37.7641C106.152 37.9906 106.045 38.1604 105.832 38.5568C105.725 38.7832 105.725 39.0663 105.565 39.2928C105.352 39.5193 105.139 39.7457 105.032 40.0288C104.925 40.3685 105.245 40.4252 105.725 40.4252C106.312 40.4252 106.792 40.4818 107.379 40.5384C107.752 40.595 110.046 40.8781 109.406 40.1987C108.819 39.6325 107.539 40.0855 107.166 39.5193C106.312 38.3303 110.366 37.9906 111.433 37.934C112.287 37.8773 113.567 37.8773 114.207 38.3869C114.9 38.9531 112.127 39.2928 112.767 39.9156Z" fill="#EF2424"/>
<path d="M113.033 40.6518C113.353 40.5386 113.673 40.5952 114.047 40.6518C114.474 40.7084 114.954 40.5952 115.38 40.6518C116.074 40.7084 116.767 40.765 117.034 41.1614C117.354 41.6709 117.194 42.2371 116.874 42.7467C116.447 43.3695 115.22 43.6526 114.42 43.9923C113.407 44.4452 112.233 44.6717 111.06 44.7849C110.046 44.8982 109.246 44.5584 108.392 44.332C107.486 44.0489 106.579 43.7092 106.099 43.0864C105.725 42.5768 106.099 42.1805 106.846 42.0106C107.166 41.954 107.379 41.954 107.646 41.7842C107.912 41.6143 108.179 41.4445 108.499 41.3312C108.713 41.2746 109.299 41.1047 109.513 41.218C109.886 41.4445 109.353 41.8408 109.139 41.954C108.819 42.1239 108.446 42.2937 108.232 42.5202C107.966 42.8033 108.339 42.9165 108.766 43.0864C109.619 43.4261 110.58 43.6526 111.54 43.4827C111.966 43.4261 112.233 43.2562 112.607 43.143C112.98 43.0298 113.46 42.9165 113.833 42.8033C114.26 42.5768 115.007 42.1805 115.167 41.8408C115.38 41.3312 114.367 41.3878 113.887 41.3878C113.513 41.3878 113.247 41.3878 112.927 41.218C112.767 41.1614 112.447 40.9915 112.713 40.8217C112.767 40.765 112.82 40.765 112.927 40.765" fill="#EF2424"/>
<path d="M114.847 41.3878C115.06 41.218 115.914 40.9349 116.181 41.218C115.914 41.3878 115.22 41.5577 114.9 41.501C114.847 41.4444 114.9 41.3878 114.954 41.3878" fill="#FFE161"/>
<path d="M114.26 42.4634C114.634 42.4068 115.54 42.8597 114.74 42.9163C114.527 42.9163 114.26 42.8597 114.154 42.6899C114.047 42.5766 114.154 42.3501 114.42 42.52" fill="#FFE161"/>
<path d="M111.7 43.3697C111.593 43.4264 111.807 44.219 111.273 43.9359C110.953 43.7661 111.433 43.03 111.7 43.3697Z" fill="#FFE161"/>
<path d="M108.019 42.7461C107.806 42.8027 106.632 43.0858 107.219 43.2557C107.432 43.3123 108.233 42.9159 108.019 42.7461Z" fill="#FFE161"/>
<path d="M111.646 37.764C111.86 37.5376 111.753 36.9148 111.486 37.3111C111.326 37.5376 111.753 38.0471 111.86 37.6508" fill="#FFE161"/>
<path d="M110.366 37.9342C110.473 37.7078 110.366 36.9717 110.046 37.3681C109.886 37.5945 110.366 38.1607 110.473 37.821" fill="#FFE161"/>
<path d="M106.846 39.3496C106.686 39.3496 105.779 39.5761 105.992 39.7459C106.206 39.9724 106.952 39.5195 107.059 39.4062C107.059 39.3496 107.059 39.3496 106.952 39.3496" fill="#FFE161"/>
<path d="M109.353 38.0475C109.299 37.8777 108.979 37.3115 108.766 37.5946C108.553 37.8777 109.566 38.4438 109.353 37.821" fill="#FFE161"/>
<path d="M108.126 38.2745C107.966 38.1612 107.166 37.7083 107.272 38.048C107.326 38.2744 108.286 38.6708 108.019 38.1612" fill="#FFE161"/>
<path d="M112.82 37.8215C112.767 37.6517 113.14 37.3686 113.033 37.1421C112.553 37.1421 112.553 37.6517 112.607 37.8781C112.713 37.8781 112.767 37.8215 112.82 37.7649" fill="#FFE161"/>
<path d="M113.94 38.2737C114.314 38.2171 114.527 37.9906 114.58 37.7642C114.047 37.7642 113.727 38.3303 114.154 38.2171" fill="#FFE161"/>
<path d="M114.954 41.7835C115.22 41.6702 115.807 41.6136 116.021 41.7835C115.861 41.9533 115.541 41.9533 115.274 41.9533C115.114 41.9533 114.58 41.8967 114.954 41.7835Z" fill="#FFE161"/>
<path d="M113.3 42.8599C113.567 42.8599 113.78 43.3695 114.154 43.2563C114.687 43.0864 113.673 42.6901 113.3 42.7467C113.247 42.8033 113.3 42.8599 113.3 42.8599Z" fill="#FFE161"/>
<path d="M114.794 42.1802C114.74 42.35 115.38 42.4633 115.594 42.4633C115.701 42.1802 114.954 42.1802 114.687 42.2368" fill="#FFE161"/>
<path d="M111.967 43.3125C111.913 43.4823 112.073 43.9353 112.447 43.9353C112.5 43.7654 112.34 43.3125 112.02 43.2559C111.967 43.3125 111.967 43.3125 111.967 43.3125Z" fill="#FFE161"/>
<path d="M109.459 43.4253C109.406 43.4819 109.193 44.1613 109.566 44.1047C109.94 44.0481 109.726 43.4819 109.62 43.3687" fill="#FFE161"/>
<path d="M112.607 43.1991C112.767 43.3689 112.873 43.652 113.193 43.7087C113.353 43.5388 113.247 43.3689 113.087 43.2557C112.98 43.0859 112.447 42.8028 112.607 43.1991Z" fill="#FFE161"/>
<path d="M110.206 43.539C110.26 43.7089 110.206 43.992 110.473 44.1052C110.793 43.9354 110.42 43.6523 110.366 43.4824C110.26 43.4824 110.206 43.4824 110.153 43.539" fill="#FFE161"/>
<path d="M108.979 43.2568C108.766 43.2568 108.499 43.6531 108.606 43.7664C108.819 43.6531 109.299 43.37 108.926 43.2002" fill="#FFE161"/>
<path d="M108.499 42.1235C108.446 42.0103 107.432 41.7838 107.486 42.0669C107.539 42.2367 108.393 42.2367 108.499 42.1235C108.499 42.0669 108.446 42.0103 108.286 41.9536L108.499 42.1235Z" fill="#FFE161"/>
<path d="M107.272 38.7265C107.166 38.6699 106.206 38.6699 106.312 38.8398C106.366 39.0096 107.379 39.0096 107.112 38.6699" fill="#FFE161"/>
<path d="M107.379 39.8022C107.272 39.8022 107.112 40.0287 107.112 40.1419C107.486 40.1985 107.859 39.9154 107.806 39.689C107.592 39.689 107.326 39.8022 107.166 39.9154" fill="#FFE161"/>
<path d="M83.6415 36.8578C79.3741 37.3674 75.2667 35.3291 74.4132 32.2717C73.5597 29.2144 76.3335 26.3269 80.601 25.8173C84.8684 25.3077 88.9758 27.346 89.8293 30.4034C90.6294 33.4041 87.8556 36.2916 83.6415 36.8578Z" fill="#C41414"/>
<path d="M83.3214 30.2911C83.7482 30.6874 84.7617 29.8381 85.0284 29.7249C85.3485 29.5551 86.7887 29.3286 86.8421 29.0455C86.8421 28.8756 86.522 28.819 86.4153 28.7058C86.2019 28.5359 86.1486 28.3095 85.9886 28.1396C85.2418 27.2903 82.8947 26.894 81.5611 26.9506C80.4409 26.9506 79.4274 27.1771 78.5206 27.5734C78.0938 27.7433 77.6137 27.9131 77.187 28.1396C76.7069 28.3661 76.6002 28.5359 76.3869 28.8756C76.2802 29.1021 76.2802 29.3852 76.1201 29.6117C75.9068 29.8381 75.6934 30.0646 75.5867 30.3477C75.48 30.6874 75.8001 30.744 76.2802 30.744C76.8669 30.744 77.347 30.8006 77.9338 30.8573C78.3072 30.9139 80.6009 31.1404 79.9608 30.5176C79.4274 29.9514 78.0938 30.4043 77.7204 29.8381C76.8669 28.6492 80.921 28.3095 81.9879 28.1962C82.8413 28.1396 84.1216 28.1396 84.7617 28.6492C85.4551 29.3286 82.6813 29.6683 83.3214 30.2911Z" fill="#EF2424"/>
<path d="M83.5881 31.0268C83.9082 30.9136 84.2283 30.9702 84.6016 31.0268C85.0284 31.0268 85.5085 30.9702 85.9352 31.0268C86.6287 31.0834 87.3221 31.14 87.5888 31.5364C87.9089 31.9893 87.7489 32.6121 87.4288 33.1217C87.0021 33.7445 85.7752 34.0276 84.975 34.3673C83.9615 34.8202 82.788 35.0467 81.6144 35.1599C80.6009 35.2732 79.8008 34.9334 78.9473 34.707C78.0405 34.4239 77.1337 34.1408 76.6536 33.4614C76.2802 32.9518 76.6536 32.5555 77.4004 32.3856C77.7204 32.329 77.9338 32.329 78.2005 32.1592C78.4672 31.9893 78.7339 31.8195 79.054 31.7062C79.2674 31.6496 79.8541 31.4797 80.0675 31.593C80.4409 31.8195 79.9075 32.2158 79.6941 32.329C79.374 32.4989 79.0006 32.6687 78.7873 32.8952C78.5206 33.1783 78.894 33.2915 79.3207 33.4614C80.1742 33.8011 81.1344 34.0276 82.0945 33.8577C82.5213 33.8011 82.788 33.6312 83.1614 33.4614C83.5348 33.3481 84.0149 33.2915 84.3883 33.1217C84.815 32.8952 85.5618 32.4989 85.7218 32.1592C85.9352 31.6496 84.9217 31.7062 84.4416 31.7062C84.0682 31.7062 83.8015 31.7062 83.4814 31.5364C83.3214 31.4797 83.0014 31.3099 83.2681 31.14C83.3214 31.0834 83.3748 31.0834 83.4814 31.0834" fill="#EF2424"/>
<path d="M85.4019 31.7633C85.6152 31.5934 86.4687 31.3104 86.7354 31.5934C86.4687 31.7633 85.7753 31.9332 85.4552 31.8765C85.4552 31.8199 85.4552 31.7633 85.5085 31.7633" fill="#FFE161"/>
<path d="M84.815 32.838C85.1884 32.7813 86.0953 33.2343 85.2951 33.2909C85.0818 33.2909 84.815 33.2343 84.7084 33.0644C84.6017 32.8946 84.7084 32.7247 84.9751 32.8946" fill="#FFE161"/>
<path d="M82.2547 33.8007C82.148 33.8573 82.3613 34.6499 81.8279 34.3669C81.5079 34.1404 81.9879 33.4043 82.2547 33.8007Z" fill="#FFE161"/>
<path d="M78.574 33.1221C78.3606 33.1221 77.1871 33.4618 77.7738 33.6316C77.9872 33.7449 78.8407 33.3485 78.574 33.1221Z" fill="#FFE161"/>
<path d="M82.2546 28.1397C82.468 27.9698 82.3613 27.2904 82.0946 27.6867C81.9346 27.9132 82.3613 28.4227 82.468 28.0264" fill="#FFE161"/>
<path d="M80.9211 28.3086C81.0278 28.1388 80.9211 27.3461 80.6011 27.7425C80.4411 27.9689 80.9211 28.5351 81.0278 28.1954" fill="#FFE161"/>
<path d="M77.4005 29.7251C77.2404 29.7251 76.3336 29.9516 76.547 30.1214C76.7603 30.3479 77.5071 29.895 77.6138 29.7817C77.6138 29.7251 77.6138 29.7251 77.5071 29.7251" fill="#FFE161"/>
<path d="M79.9609 28.423C79.9076 28.2531 79.5876 27.687 79.3742 27.9701C79.1608 28.2531 80.1743 28.8193 79.9609 28.1965" fill="#FFE161"/>
<path d="M78.6807 28.6485C78.574 28.5352 77.7205 28.0823 77.8272 28.422C77.8805 28.6485 78.8407 29.0448 78.574 28.5352" fill="#FFE161"/>
<path d="M83.3748 28.1965C83.3215 28.0267 83.6949 27.7436 83.5882 27.5171C83.1081 27.5171 83.1081 28.0267 83.1615 28.2531C83.2681 28.2531 83.3215 28.1965 83.3748 28.1399" fill="#FFE161"/>
<path d="M84.5483 28.7049C84.9217 28.6483 85.1351 28.4218 85.1885 28.1953C84.655 28.1953 84.335 28.7615 84.7617 28.6483" fill="#FFE161"/>
<path d="M85.5085 32.159C85.7753 32.0457 86.362 31.9891 86.5754 32.159C86.4154 32.3288 86.0953 32.3288 85.8286 32.3288C85.6686 32.3854 85.1885 32.3288 85.5085 32.159Z" fill="#FFE161"/>
<path d="M83.855 33.2354C84.0684 33.2354 84.3351 33.745 84.7085 33.6317C85.2419 33.4619 84.2284 33.0656 83.855 33.1222C83.855 33.1788 83.855 33.2354 83.855 33.2354Z" fill="#FFE161"/>
<path d="M85.3485 32.5557C85.2952 32.7255 85.9353 32.8388 86.1486 32.8388C86.2553 32.5557 85.5085 32.5557 85.2418 32.6123" fill="#FFE161"/>
<path d="M82.5214 33.7441C82.468 33.914 82.628 34.3669 83.0014 34.3669C83.0548 34.1971 82.8948 33.7441 82.5747 33.6875C82.5747 33.6875 82.5214 33.6875 82.5214 33.7441Z" fill="#FFE161"/>
<path d="M80.0143 33.8012C79.961 33.8579 79.7476 34.5373 80.121 34.4807C80.4944 34.424 80.281 33.8579 80.1743 33.7446" fill="#FFE161"/>
<path d="M83.1614 33.5751C83.3215 33.745 83.4281 34.028 83.7482 34.0847C83.9082 33.9148 83.8015 33.8016 83.6415 33.6317C83.5348 33.5185 83.0014 33.1788 83.1614 33.5751Z" fill="#FFE161"/>
<path d="M80.7611 33.9145C80.8144 34.0844 80.7611 34.3675 81.0278 34.4807C81.3479 34.3109 80.9745 34.0278 80.9211 33.8579C80.8144 33.8579 80.7611 33.8579 80.7078 33.9145" fill="#FFE161"/>
<path d="M79.5342 33.6308C79.3208 33.6308 79.0541 34.0272 79.1608 34.1404C79.3741 34.0272 79.8542 33.7441 79.4808 33.5742" fill="#FFE161"/>
<path d="M79.1075 32.499C79.0541 32.3857 78.0406 32.1593 78.094 32.4424C78.094 32.6122 78.9474 32.6122 79.1075 32.499C79.1075 32.4424 79.0008 32.3857 78.8941 32.3291L79.1075 32.499Z" fill="#FFE161"/>
<path d="M77.8272 29.1025C77.7205 29.0459 76.7603 29.0459 76.867 29.2158C76.9204 29.3856 77.9339 29.3856 77.6672 29.0459" fill="#FFE161"/>
<path d="M77.9339 30.1777C77.8272 30.1777 77.6672 30.4042 77.7206 30.5174C78.094 30.574 78.4674 30.2909 78.414 30.0645C78.2006 30.0645 77.9339 30.1777 77.7739 30.2909" fill="#FFE161"/>
<path d="M57.6102 32.9518C57.7169 32.6121 58.0903 32.4989 58.357 32.329C58.7304 32.1026 58.9972 31.7062 59.3706 31.4798C59.9573 31.0834 60.5441 30.7437 61.2376 31.0268C61.9844 31.3665 62.4644 32.1592 62.6778 32.8952C62.9445 33.8577 62.2511 34.9335 61.9844 35.8394C61.611 36.9717 60.9175 37.9342 60.1174 38.7835C59.4239 39.5195 58.5171 39.6894 57.5569 39.9159C56.5967 40.1423 55.5299 40.3688 54.5164 39.9725C53.6629 39.6328 53.6095 38.9534 54.0896 38.3306C54.303 38.0475 54.4097 37.9342 54.463 37.5945C54.5164 37.2548 54.5164 36.8585 54.6764 36.5188C54.7831 36.2923 55.0498 35.7827 55.3698 35.7827C55.8499 35.7827 55.8499 36.5754 55.7966 36.8585C55.6899 37.2548 55.5832 37.6511 55.6366 38.0475C55.7432 38.557 56.1166 38.4438 56.6501 38.3872C57.6636 38.2173 58.6238 37.9342 59.2639 37.085C59.5306 36.7453 59.5839 36.3489 59.744 36.0092C59.904 35.6129 60.224 35.2732 60.3307 34.8202C60.4374 34.3107 60.6508 33.4048 60.3841 32.8952C60.064 32.2158 59.3172 32.8952 58.8905 33.1783C58.5704 33.4048 58.357 33.5746 57.9836 33.5746C57.7703 33.5746 57.3969 33.5746 57.4502 33.2916C57.4502 33.1783 57.5036 33.1783 57.6102 33.1217" fill="#C10B0B"/>
<path d="M59.7973 32.6116C59.7973 32.2719 60.224 31.4793 60.6508 31.5925C60.5974 31.9322 60.224 32.555 59.904 32.6683C59.8506 32.6116 59.8506 32.555 59.8506 32.4984" fill="#FFE161"/>
<path d="M60.3841 34.1972C60.6508 33.8575 61.771 33.8575 61.1843 34.3671C61.0242 34.5369 60.7042 34.5935 60.5442 34.4803C60.3308 34.3671 60.2241 34.1406 60.5975 34.1406" fill="#FFE161"/>
<path d="M59.3172 36.8022C59.2639 36.9155 60.2774 37.7081 59.5306 37.7081C59.1038 37.7081 58.7304 36.6324 59.3705 36.8589" fill="#FFE161"/>
<path d="M55.7432 38.3862C55.5832 38.5561 54.9964 39.6318 55.6366 39.462C55.9033 39.4054 56.17 38.4428 55.8499 38.3862" fill="#FFE161"/>
<path d="M60.2241 33.0087C60.2774 32.669 60.7042 32.2727 61.0776 32.3859C61.1309 32.669 60.9176 32.8955 60.7042 33.0654C60.5975 33.122 60.1174 33.3484 60.2241 33.0087Z" fill="#FFE161"/>
<path d="M60.0107 35.2162C60.2241 35.1029 60.9176 35.4993 61.0776 35.1596C61.3443 34.65 60.1174 34.8199 59.9041 35.1029C59.9041 35.1596 59.9574 35.2162 60.0641 35.2162" fill="#FFE161"/>
<path d="M60.4907 33.517C60.5974 33.6868 61.2375 33.4603 61.3975 33.2905C61.1842 32.8942 60.6507 33.4037 60.4374 33.5736" fill="#FFE161"/>
<path d="M59.4773 36.5755C59.5839 36.802 60.2241 37.1983 60.4908 36.9719C60.3307 36.7454 59.7973 36.3491 59.4773 36.4623C59.4239 36.5189 59.4239 36.5755 59.4773 36.5755Z" fill="#FFE161"/>
<path d="M57.5569 38.2739C57.6102 38.3871 58.037 39.293 58.357 38.9533C58.6237 38.6702 57.8769 38.1606 57.7169 38.104" fill="#FFE161"/>
<path d="M59.7973 36.0092C60.1174 36.1224 60.4375 36.2923 60.7575 36.179C60.7042 35.8959 60.4908 35.7827 60.2241 35.7261C60.0107 35.7261 59.3173 35.7261 59.7973 36.0092Z" fill="#FFE161"/>
<path d="M58.2504 37.934C58.4104 38.1039 58.6771 38.387 59.0505 38.4436C59.1039 38.0473 58.5704 37.9907 58.3571 37.8208C58.2504 37.8774 58.2504 37.934 58.2504 38.0473" fill="#FFE161"/>
<path d="M57.0234 38.3862C56.8634 38.4995 57.0234 39.1223 57.2368 39.2355C57.2902 39.009 57.3968 38.3296 56.9167 38.4428" fill="#FFE161"/>
<path d="M55.5299 37.3681C55.3699 37.2549 54.4097 37.6512 54.6231 37.9343C54.8364 38.1608 55.5299 37.6512 55.5832 37.4248C55.4765 37.3115 55.3699 37.3115 55.2098 37.3115" fill="#FFE161"/>
<path d="M82.2012 14.5509C78.4672 15.0038 74.8399 13.645 74.1465 11.5501C73.453 9.45528 75.9601 7.36041 79.6941 6.90747C83.4281 6.45452 87.0554 7.81336 87.7489 9.90822C88.4423 12.0031 85.9352 14.098 82.2012 14.5509Z" fill="#C41414"/>
<path d="M82.0412 9.96436C82.4146 10.2475 83.3215 9.62465 83.5348 9.51142C83.8549 9.39818 85.0818 9.17171 85.1351 9.00185C85.1351 8.88862 84.8684 8.832 84.7617 8.77538C84.6017 8.66215 84.5483 8.49229 84.3883 8.37906C83.7482 7.75626 81.7212 7.5864 80.4943 7.64302C79.5341 7.69964 78.6273 7.86949 77.7738 8.15258C77.3471 8.26582 76.9737 8.43568 76.6003 8.54891C76.1735 8.71877 76.0668 8.832 75.9068 9.11509C75.8001 9.28495 75.8001 9.4548 75.6401 9.62465C75.4801 9.79451 75.2667 9.96436 75.16 10.1342C75.0533 10.3607 75.32 10.4173 75.7468 10.4173C76.2269 10.4173 76.7069 10.4173 77.187 10.4739C77.5071 10.5305 79.5341 10.6438 78.9473 10.1908C78.4673 9.79451 77.2937 10.1342 76.9737 9.73789C76.2269 8.94524 79.8542 8.60553 80.761 8.49229C81.5078 8.43568 82.6813 8.43568 83.2148 8.77538C83.9616 9.22833 81.5078 9.51142 82.0412 9.96436Z" fill="#EF2424"/>
<path d="M82.2546 10.4746C82.5213 10.3613 82.8414 10.4179 83.1081 10.4179C83.4815 10.4179 83.9082 10.3613 84.2816 10.3613C84.8684 10.3613 85.5085 10.4179 85.7752 10.701C86.0419 11.0407 85.8819 11.4371 85.6152 11.7768C85.2418 12.2297 84.1216 12.4562 83.4281 12.6827C82.5213 13.0224 81.5078 13.1922 80.4409 13.3055C79.5874 13.4187 78.8406 13.1922 78.0938 13.0224C77.2937 12.8525 76.4936 12.626 76.1202 12.2297C75.8001 11.89 76.1202 11.6069 76.8136 11.4937C77.1337 11.4371 77.2937 11.4371 77.5071 11.3238C77.7738 11.2106 77.9872 11.0407 78.2539 10.9841C78.4672 10.9275 78.9473 10.8143 79.1607 10.8709C79.4808 10.9841 79.0007 11.3238 78.7873 11.3805C78.4672 11.4937 78.2005 11.6069 77.9872 11.7768C77.7738 12.0033 78.0405 12.0599 78.4672 12.1731C79.214 12.3996 80.0142 12.5128 80.921 12.3996C81.2944 12.343 81.5611 12.2297 81.8812 12.1165C82.2012 12.0033 82.628 11.9466 82.948 11.8334C83.3214 11.6635 84.0149 11.3805 84.1216 11.0974C84.335 10.7577 83.4281 10.8143 83.0014 10.8143C82.6813 10.8143 82.468 10.8143 82.2012 10.701C82.0946 10.6444 81.7745 10.5312 81.9879 10.4179C82.0412 10.3613 82.0946 10.3613 82.2012 10.4179" fill="#EF2424"/>
<path d="M83.8549 10.9267C84.0682 10.8135 84.815 10.587 85.0284 10.7569C84.7617 10.9267 84.1749 11.04 83.8549 10.9267C83.8549 10.9267 83.9082 10.9267 83.9615 10.8701L83.8549 10.9267Z" fill="#FFE161"/>
<path d="M83.3214 11.7198C83.6948 11.6632 84.4416 11.9463 83.7481 12.0029C83.5347 12.0029 83.3214 11.9463 83.2147 11.8897C83.1613 11.7765 83.2147 11.6632 83.428 11.7765" fill="#FFE161"/>
<path d="M81.081 12.4001C81.0276 12.4001 81.1343 13.0229 80.7076 12.7965C80.3875 12.6832 80.8143 12.1737 81.081 12.4001Z" fill="#FFE161"/>
<path d="M77.8271 12.0601C77.6137 12.0601 76.6002 12.3431 77.0803 12.4564C77.2936 12.4564 78.0404 12.1733 77.8271 12.0601Z" fill="#FFE161"/>
<path d="M81.1344 8.49282C81.3478 8.32297 81.2411 7.92664 80.9744 8.15312C80.8143 8.32297 81.1877 8.66268 81.2944 8.37959" fill="#FFE161"/>
<path d="M80.0142 8.60578C80.1209 8.43593 80.0142 7.92636 79.7475 8.20945C79.6408 8.37931 80.0142 8.77563 80.1209 8.49254" fill="#FFE161"/>
<path d="M76.8136 9.68113C76.7069 9.68113 75.8534 9.85098 76.0135 9.96422C76.2268 10.1341 76.8669 9.79437 76.9203 9.68113C76.9203 9.68113 76.9203 9.62451 76.8669 9.62451" fill="#FFE161"/>
<path d="M79.1074 8.71948C79.054 8.60624 78.7873 8.20992 78.574 8.43639C78.3606 8.66286 79.2674 9.00257 79.1074 8.60624" fill="#FFE161"/>
<path d="M77.9872 8.9452C77.8805 8.88858 77.1337 8.54887 77.2404 8.83196C77.2937 9.00182 78.1472 9.22829 77.8805 8.88858" fill="#FFE161"/>
<path d="M82.1479 8.49247C82.0945 8.37924 82.4679 8.15276 82.3612 7.98291C81.9345 7.98291 81.9345 8.32262 81.9879 8.49247C82.0412 8.49247 82.1479 8.43585 82.2012 8.43585" fill="#FFE161"/>
<path d="M83.1614 8.77526C83.4814 8.71864 83.6948 8.54878 83.7482 8.43555C83.2681 8.43555 82.948 8.83187 83.3748 8.77526" fill="#FFE161"/>
<path d="M83.9082 11.2097C84.1215 11.0965 84.655 11.0399 84.8683 11.2097C84.7617 11.323 84.4416 11.3796 84.2282 11.3796C84.0682 11.3796 83.6415 11.323 83.9082 11.2097Z" fill="#FFE161"/>
<path d="M82.4679 12.0025C82.6813 12.0025 82.8946 12.3422 83.2147 12.2856C83.6948 12.1724 82.788 11.8893 82.4679 11.9459V12.0025Z" fill="#FFE161"/>
<path d="M83.8015 11.4931C83.7482 11.6059 84.2816 11.6623 84.495 11.6623C84.6017 11.4367 83.9615 11.4931 83.7482 11.4931" fill="#FFE161"/>
<path d="M81.2944 12.3999C81.2411 12.5131 81.4011 12.8528 81.7212 12.7962C81.7745 12.683 81.6145 12.3999 81.3478 12.3433C81.2944 12.3433 81.2944 12.3433 81.2944 12.3999Z" fill="#FFE161"/>
<path d="M79.054 12.4555C79.0006 12.5122 78.7873 12.9651 79.1607 12.9085C79.5341 12.8519 79.3207 12.5122 79.214 12.3989" fill="#FFE161"/>
<path d="M81.8278 12.2292C81.9878 12.3424 82.0411 12.5123 82.3612 12.5689C82.5212 12.4557 82.4145 12.3424 82.2545 12.2292C82.1478 12.1726 81.7211 12.0027 81.8278 12.2292Z" fill="#FFE161"/>
<path d="M79.7474 12.5688C79.7474 12.6821 79.7474 12.8519 79.9608 12.9652C80.2275 12.8519 79.9075 12.6821 79.8541 12.5122C79.7474 12.5122 79.6941 12.5122 79.6407 12.5688" fill="#FFE161"/>
<path d="M78.6806 12.3989C78.5206 12.3989 78.2539 12.682 78.3606 12.7953C78.5206 12.7386 79.0007 12.5122 78.6273 12.3989" fill="#FFE161"/>
<path d="M78.2539 11.6067C78.2005 11.5503 77.347 11.3811 77.347 11.5503C77.4004 11.7195 78.1472 11.7195 78.2539 11.6067C78.2539 11.5503 78.2005 11.5503 78.0938 11.4939L78.2539 11.6067Z" fill="#FFE161"/>
<path d="M77.2403 9.22826C77.1869 9.22826 76.3335 9.17187 76.3868 9.34105C76.4401 9.45383 77.347 9.45383 77.0803 9.17188" fill="#FFE161"/>
<path d="M77.2937 9.96433C77.2403 9.96433 77.0803 10.1342 77.0803 10.2474C77.4004 10.304 77.7204 10.0776 77.6671 9.90771C77.4537 9.90771 77.2404 10.021 77.0803 10.0776" fill="#FFE161"/>
<path d="M92.4965 27.4023C93.1366 28.8178 93.7767 29.3274 95.377 29.3274C96.0705 29.3274 96.7639 29.0443 97.404 28.8744C98.2042 28.6479 98.6309 28.8178 97.7774 29.4406C96.7639 30.1766 94.8969 30.2332 93.7234 29.8935C93.0833 29.6671 92.6032 29.3274 92.2298 28.6479C92.1231 28.4215 91.8564 28.0251 92.0164 27.7421C92.1764 27.3457 92.7099 27.3457 92.6565 27.9119" fill="#34B412"/>
<path d="M95.0569 31.4787C95.8571 31.4787 99.7511 30.2897 98.1508 28.761C98.5242 29.1007 95.3236 30.1198 95.0036 30.0632C93.6167 30.0066 92.8699 29.2139 92.0164 28.1948C91.5896 30.1198 93.5633 31.5353 95.0569 31.4787Z" fill="#208F05"/>
<path d="M24.4175 31.8947C22.0704 31.3851 19.4032 31.4984 17.3762 33.0271C15.6692 34.2727 14.0156 36.9337 15.0291 39.1418C16.7361 42.822 21.8037 43.2183 24.7909 41.8029C26.9246 40.7837 30.1785 38.4624 29.6984 35.5749C29.2717 33.0271 26.4445 32.291 24.4175 31.8947Z" fill="url(#paint22_radial_20002_17368)"/>
<path d="M58.3037 20.2687C61.8684 20.2687 64.7582 18.4436 64.7582 16.1922C64.7582 13.9408 61.8684 12.1157 58.3037 12.1157C54.739 12.1157 51.8492 13.9408 51.8492 16.1922C51.8492 18.4436 54.739 20.2687 58.3037 20.2687Z" fill="url(#paint23_radial_20002_17368)"/>
<defs>
<linearGradient id="paint0_linear_20002_17368" x1="74.9867" y1="42.1431" x2="76.8729" y2="68.8044" gradientUnits="userSpaceOnUse">
<stop offset="0.005618" stop-color="#FCB856"/>
<stop offset="1" stop-color="#BA372D"/>
</linearGradient>
<radialGradient id="paint1_radial_20002_17368" cx="0" cy="0" r="1" gradientUnits="userSpaceOnUse" gradientTransform="translate(72.9346 29.9792) scale(50.8486 53.9706)">
<stop offset="0.1742" stop-color="#FFF3D2"/>
<stop offset="1" stop-color="#FFE799"/>
</radialGradient>
<radialGradient id="paint2_radial_20002_17368" cx="0" cy="0" r="1" gradientUnits="userSpaceOnUse" gradientTransform="translate(42.0875 43.6531) rotate(90) scale(2.94414 6.66785)">
<stop stop-color="#D74D2E"/>
<stop offset="0.79" stop-color="#B12E10"/>
<stop offset="1" stop-color="#AA391F"/>
</radialGradient>
<radialGradient id="paint3_radial_20002_17368" cx="0" cy="0" r="1" gradientUnits="userSpaceOnUse" gradientTransform="translate(84.2283 26.5535) rotate(90) scale(2.94414 6.66785)">
<stop stop-color="#D74D2E"/>
<stop offset="0.79" stop-color="#B12E10"/>
<stop offset="1" stop-color="#AA391F"/>
</radialGradient>
<radialGradient id="paint4_radial_20002_17368" cx="0" cy="0" r="1" gradientUnits="userSpaceOnUse" gradientTransform="translate(85.2418 13.2483) rotate(90) scale(2.94414 6.66785)">
<stop stop-color="#D74D2E"/>
<stop offset="0.79" stop-color="#B12E10"/>
<stop offset="1" stop-color="#AA391F"/>
</radialGradient>
<radialGradient id="paint5_radial_20002_17368" cx="0" cy="0" r="1" gradientUnits="userSpaceOnUse" gradientTransform="translate(64.8649 18.2884) rotate(90) scale(2.94414 6.66785)">
<stop stop-color="#D74D2E"/>
<stop offset="0.79" stop-color="#B12E10"/>
<stop offset="1" stop-color="#AA391F"/>
</radialGradient>
<radialGradient id="paint6_radial_20002_17368" cx="0" cy="0" r="1" gradientUnits="userSpaceOnUse" gradientTransform="translate(50.9957 28.1961) rotate(90) scale(2.94414 6.66785)">
<stop stop-color="#D74D2E"/>
<stop offset="0.79" stop-color="#B12E10"/>
<stop offset="1" stop-color="#AA391F"/>
</radialGradient>
<radialGradient id="paint7_radial_20002_17368" cx="0" cy="0" r="1" gradientUnits="userSpaceOnUse" gradientTransform="translate(70.3591 39.6897) rotate(90) scale(2.94414 6.66785)">
<stop stop-color="#D74D2E"/>
<stop offset="0.79" stop-color="#B12E10"/>
<stop offset="1" stop-color="#AA391F"/>
</radialGradient>
<radialGradient id="paint8_radial_20002_17368" cx="0" cy="0" r="1" gradientUnits="userSpaceOnUse" gradientTransform="translate(13.0156 31.1394) rotate(90) scale(2.94414 6.66785)">
<stop stop-color="#D74D2E"/>
<stop offset="0.79" stop-color="#B12E10"/>
<stop offset="1" stop-color="#AA391F"/>
</radialGradient>
<radialGradient id="paint9_radial_20002_17368" cx="0" cy="0" r="1" gradientUnits="userSpaceOnUse" gradientTransform="translate(131.917 33.9144) rotate(90) scale(2.94414 6.66785)">
<stop stop-color="#D74D2E"/>
<stop offset="0.79" stop-color="#B12E10"/>
<stop offset="1" stop-color="#AA391F"/>
</radialGradient>
<radialGradient id="paint10_radial_20002_17368" cx="0" cy="0" r="1" gradientUnits="userSpaceOnUse" gradientTransform="translate(116.445 45.946) rotate(90) scale(3.03242 6.62347)">
<stop stop-color="#D74D2E"/>
<stop offset="0.79" stop-color="#B12E10"/>
<stop offset="1" stop-color="#AA391F"/>
</radialGradient>
<radialGradient id="paint11_radial_20002_17368" cx="0" cy="0" r="1" gradientUnits="userSpaceOnUse" gradientTransform="translate(69.3991 6.56718) rotate(90) scale(2.94414 6.66785)">
<stop stop-color="#D74D2E"/>
<stop offset="0.79" stop-color="#B12E10"/>
<stop offset="1" stop-color="#AA391F"/>
</radialGradient>
<radialGradient id="paint12_radial_20002_17368" cx="0" cy="0" r="1" gradientUnits="userSpaceOnUse" gradientTransform="translate(48.4887 10.305) rotate(90) scale(2.94414 6.66785)">
<stop stop-color="#D74D2E"/>
<stop offset="0.79" stop-color="#B12E10"/>
<stop offset="1" stop-color="#AA391F"/>
</radialGradient>
<radialGradient id="paint13_radial_20002_17368" cx="0" cy="0" r="1" gradientUnits="userSpaceOnUse" gradientTransform="translate(29.6052 22.5911) rotate(90) scale(2.94414 6.66785)">
<stop stop-color="#D74D2E"/>
<stop offset="0.79" stop-color="#B12E10"/>
<stop offset="1" stop-color="#AA391F"/>
</radialGradient>
<radialGradient id="paint14_radial_20002_17368" cx="0" cy="0" r="1" gradientUnits="userSpaceOnUse" gradientTransform="translate(100.551 36.7444) rotate(90) scale(2.94414 6.66785)">
<stop stop-color="#D74D2E"/>
<stop offset="0.79" stop-color="#B12E10"/>
<stop offset="1" stop-color="#AA391F"/>
</radialGradient>
<radialGradient id="paint15_radial_20002_17368" cx="0" cy="0" r="1" gradientUnits="userSpaceOnUse" gradientTransform="translate(87.3755 51.1253) rotate(90) scale(2.94414 6.66785)">
<stop stop-color="#D74D2E"/>
<stop offset="0.79" stop-color="#B12E10"/>
<stop offset="1" stop-color="#AA391F"/>
</radialGradient>
<radialGradient id="paint16_radial_20002_17368" cx="0" cy="0" r="1" gradientUnits="userSpaceOnUse" gradientTransform="translate(115.647 25.7601) rotate(90) scale(2.94414 6.66785)">
<stop stop-color="#D74D2E"/>
<stop offset="0.79" stop-color="#B12E10"/>
<stop offset="1" stop-color="#AA391F"/>
</radialGradient>
<radialGradient id="paint17_radial_20002_17368" cx="0" cy="0" r="1" gradientUnits="userSpaceOnUse" gradientTransform="translate(107.112 12.9651) rotate(90) scale(2.94414 6.66785)">
<stop stop-color="#D74D2E"/>
<stop offset="0.79" stop-color="#B12E10"/>
<stop offset="1" stop-color="#AA391F"/>
</radialGradient>
<radialGradient id="paint18_radial_20002_17368" cx="0" cy="0" r="1" gradientUnits="userSpaceOnUse" gradientTransform="translate(122.352 32.3196) rotate(90) scale(5.88258 8.0627)">
<stop stop-color="#1962C6"/>
<stop offset="0.5" stop-color="#1054AF"/>
<stop offset="1" stop-color="#18427A"/>
</radialGradient>
<radialGradient id="paint19_radial_20002_17368" cx="0" cy="0" r="1" gradientUnits="userSpaceOnUse" gradientTransform="translate(62.6244 49.2192) rotate(90) scale(5.039 6.24111)">
<stop stop-color="#1962C6"/>
<stop offset="0.5" stop-color="#1054AF"/>
<stop offset="1" stop-color="#18427A"/>
</radialGradient>
<radialGradient id="paint20_radial_20002_17368" cx="0" cy="0" r="1" gradientUnits="userSpaceOnUse" gradientTransform="translate(36.2206 9.2477) rotate(78.7705) scale(4.17967 6.6303)">
<stop stop-color="#1962C6"/>
<stop offset="0.5" stop-color="#1054AF"/>
<stop offset="1" stop-color="#18427A"/>
</radialGradient>
<radialGradient id="paint21_radial_20002_17368" cx="0" cy="0" r="1" gradientUnits="userSpaceOnUse" gradientTransform="translate(104.259 8.65883) rotate(90) scale(4.2892 6.00785)">
<stop stop-color="#1962C6"/>
<stop offset="0.5" stop-color="#1054AF"/>
<stop offset="1" stop-color="#18427A"/>
</radialGradient>
<radialGradient id="paint22_radial_20002_17368" cx="0" cy="0" r="1" gradientUnits="userSpaceOnUse" gradientTransform="translate(22.2327 37.0913) rotate(90) scale(5.46921 7.51341)">
<stop stop-color="#1962C6"/>
<stop offset="0.5" stop-color="#1054AF"/>
<stop offset="1" stop-color="#18427A"/>
</radialGradient>
<radialGradient id="paint23_radial_20002_17368" cx="0" cy="0" r="1" gradientUnits="userSpaceOnUse" gradientTransform="translate(58.3037 16.1922) rotate(90) scale(4.0765 6.45448)">
<stop stop-color="#1962C6"/>
<stop offset="0.5" stop-color="#1054AF"/>
<stop offset="1" stop-color="#18427A"/>
</radialGradient>
</defs>
</svg>
