<svg width="140" height="134" viewBox="0 0 140 134" fill="none" xmlns="http://www.w3.org/2000/svg">
<path d="M135.244 48.6966C135.605 53.0546 131.64 53.4178 128.636 54.1441C127.194 54.5073 125.993 54.8705 125.512 55.8389C123.71 59.5917 129.477 66.2498 124.671 68.1867C118.664 70.6078 116.14 57.8969 113.257 55.8389C111.334 54.3863 104.846 52.2073 101.121 50.9967C100.881 50.8756 100.761 50.8756 100.521 50.8756C100.401 50.8756 100.16 50.7546 100.04 50.7546C99.6797 50.6335 99.3192 50.5125 98.9588 50.3914H98.8386C98.7185 50.3914 98.7185 50.3914 98.5983 50.2704C98.4782 50.2704 98.358 50.1493 98.358 50.1493C96.9162 45.6702 99.1991 43.2491 100.28 42.2806C100.521 42.0385 100.761 41.9175 100.761 41.9175C100.761 41.9175 101.362 42.1596 102.323 42.5228C102.563 42.6438 102.804 42.7649 103.164 42.8859C106.288 44.0965 112.055 46.1544 115.9 47.1229C116.02 47.1229 116.14 47.1229 116.261 47.1229C121.307 48.0913 134.644 41.1911 135.244 48.6966Z" fill="#FDF1D3"/>
<path opacity="0.1" d="M135.244 48.6966C135.605 53.0546 131.64 53.4178 128.636 54.1441C128.997 53.2967 129.237 52.2072 128.997 50.9967C127.555 44.5807 120.346 50.0282 116.14 48.9387C111.214 47.7281 103.284 44.4596 103.284 44.4596C103.284 44.4596 100.04 46.3965 101.121 50.8756C100.881 50.7545 100.761 50.7545 100.521 50.6335C100.401 50.6335 100.16 50.5124 100.04 50.5124C99.6797 50.3914 99.3192 50.2703 98.9588 50.1493H98.8386C98.7185 50.1493 98.7185 50.1493 98.5983 50.0282C98.4782 50.0282 98.358 50.0282 98.358 50.0282C96.9162 45.5491 99.1991 43.128 100.28 42.1596C100.521 41.9174 100.761 41.7964 100.761 41.7964C100.761 41.7964 101.362 42.0385 102.323 42.4017C102.563 42.5227 102.804 42.6438 103.164 42.7648C106.288 43.9754 112.055 46.0334 115.9 47.0018C116.02 47.0018 116.14 47.0018 116.261 47.0018C121.307 48.0913 134.644 41.1911 135.244 48.6966Z" fill="#C47630"/>
<path d="M87.4241 50.1492C91.9898 50.5123 99.6795 54.3861 101.241 52.3282C102.803 50.1492 103.524 46.7596 104.606 42.4016C105.687 38.0436 95.2339 38.0436 91.6294 31.7486C88.0249 25.4537 85.6218 7.90058 62.5528 1.36355C52.4601 -1.5418 31.5538 -1.17863 27.5889 16.4956C23.6239 34.1698 37.8017 48.2123 51.4989 51.965C69.7619 57.0494 80.3352 49.6649 87.4241 50.1492Z" fill="#C47630"/>
<g style="mix-blend-mode:overlay" opacity="0.1">
<path d="M38.7629 5.60058C35.2785 7.05325 27.2284 13.8324 28.0695 24.7275C28.7904 33.8067 32.7554 40.7069 42.007 45.307C47.8944 48.2123 69.4015 50.7545 71.8045 29.8118C74.2075 8.8691 53.7818 -0.694339 38.7629 5.60058Z" fill="#E7C8AC"/>
</g>
<g style="mix-blend-mode:overlay" opacity="0.1">
<path d="M37.4413 8.9901C34.798 10.0796 28.6703 15.164 29.3912 23.3958C29.9919 30.1749 32.8755 35.3803 39.8443 38.891C44.2899 41.07 60.3901 43.0069 62.3126 27.2696C64.235 11.5323 48.8556 4.26891 37.4413 8.9901Z" fill="#E7C8AC"/>
</g>
<path d="M81.2626 20.9681C81.8578 20.9185 82.3004 20.3921 82.2512 19.7925C82.202 19.1928 81.6796 18.7469 81.0844 18.7965C80.4892 18.846 80.0466 19.3724 80.0958 19.972C80.145 20.5717 80.6674 21.0176 81.2626 20.9681Z" fill="#935924"/>
<path opacity="0.4" d="M67.2129 52.3291C67.8081 52.2796 68.2507 51.7532 68.2015 51.1536C68.1523 50.5539 67.6299 50.1079 67.0347 50.1575C66.4395 50.2071 65.9969 50.7334 66.0461 51.3331C66.0954 51.9328 66.6177 52.3787 67.2129 52.3291Z" fill="#E7C8AC"/>
<path opacity="0.4" d="M84.3552 21.4609C84.752 21.4278 85.0471 21.0769 85.0143 20.6771C84.9815 20.2773 84.6332 19.9801 84.2364 20.0131C83.8396 20.0462 83.5446 20.3971 83.5774 20.7969C83.6102 21.1966 83.9585 21.4939 84.3552 21.4609Z" fill="#E7C8AC"/>
<path opacity="0.4" d="M70.2976 51.5949C70.6944 51.5618 70.9895 51.2109 70.9567 50.8112C70.9238 50.4114 70.5756 50.1141 70.1788 50.1472C69.782 50.1802 69.4869 50.5311 69.5198 50.9309C69.5526 51.3307 69.9008 51.628 70.2976 51.5949Z" fill="#E7C8AC"/>
<path opacity="0.4" d="M69.345 48.6916C69.7418 48.6585 70.0368 48.3076 70.004 47.9078C69.9712 47.5081 69.6229 47.2108 69.2261 47.2438C68.8294 47.2769 68.5343 47.6278 68.5671 48.0276C68.5999 48.4274 68.9482 48.7246 69.345 48.6916Z" fill="#E7C8AC"/>
<path d="M55.7697 2.93585C56.2326 2.89728 56.5768 2.48792 56.5385 2.02151C56.5003 1.5551 56.094 1.20826 55.631 1.24682C55.1681 1.28539 54.8239 1.69475 54.8622 2.16116C54.9004 2.62757 55.3067 2.97441 55.7697 2.93585Z" fill="#935924"/>
<path d="M82.3241 23.6338C82.787 23.5952 83.1312 23.1858 83.0929 22.7194C83.0546 22.253 82.6483 21.9062 82.1854 21.9448C81.7224 21.9834 81.3782 22.3927 81.4165 22.8592C81.4548 23.3256 81.8612 23.6724 82.3241 23.6338Z" fill="#935924"/>
<path opacity="0.3" d="M123.704 67.1035C125.228 66.4433 125.72 64.1653 124.803 62.0156C123.886 59.8658 121.906 58.6583 120.382 59.3185C118.858 59.9787 118.366 62.2566 119.284 64.4064C120.201 66.5562 122.18 67.7637 123.704 67.1035Z" fill="white"/>
<path opacity="0.3" d="M123.05 66.4946C124.086 66.0458 124.416 64.4869 123.787 63.0128C123.158 61.5386 121.808 60.7075 120.772 61.1563C119.736 61.6051 119.405 63.164 120.034 64.6381C120.663 66.1123 122.013 66.9434 123.05 66.4946Z" fill="white"/>
<path d="M23.2636 98.5718C23.2636 98.5718 25.4264 110.92 24.8256 114.43C24.2248 117.82 14.012 125.931 18.9382 130.167C22.783 133.557 26.1473 125.446 30.2324 125.446C33.5966 125.446 35.3989 134.404 41.046 131.136C47.5342 127.262 34.9183 118.062 33.7168 113.099C32.3951 107.288 31.5541 97.1192 31.5541 97.1192C31.5541 97.1192 27.4689 94.3349 23.2636 98.5718Z" fill="#FDF1D3"/>
<path opacity="0.1" d="M41.0458 131.136C38.2824 132.831 36.4801 131.499 34.9181 129.683C35.8793 130.289 37.0808 130.288 38.4025 129.441C43.9295 126.052 33.1159 118.304 32.1546 114.067C31.0733 109.104 30.3524 100.509 30.3524 100.509C30.3524 100.509 27.1083 98.4507 23.6239 101.477C23.3836 99.7824 23.1433 98.6929 23.1433 98.6929C27.4688 94.4559 31.4337 97.1191 31.4337 97.1191C31.4337 97.1191 32.2748 107.288 33.5965 113.099C34.798 117.941 47.534 127.141 41.0458 131.136Z" fill="#C47630"/>
<path d="M18.3373 88.6451C20.0195 92.882 20.0195 101.598 22.5426 101.961C25.0658 102.445 28.5502 101.477 32.8756 100.509C37.2011 99.5401 32.5152 90.0977 36.4802 84.0449C40.4451 77.9921 54.9834 68.0655 50.5378 44.3385C48.6154 33.9277 39.0033 15.164 21.4613 19.522C4.03936 23.88 -2.2085 42.8859 0.675129 56.9284C4.51996 75.8131 15.694 81.987 18.3373 88.6451Z" fill="#C47630"/>
<path d="M40.1756 38.5905C40.6867 38.2792 40.8505 37.6095 40.5416 37.0945C40.2327 36.5796 39.5679 36.4144 39.0568 36.7257C38.5457 37.037 38.3818 37.7068 38.6907 38.2217C38.9997 38.7367 39.6645 38.9018 40.1756 38.5905Z" fill="#935924"/>
<path opacity="0.4" d="M32.6887 89.8461C33.1998 89.5348 33.3637 88.8651 33.0548 88.3501C32.7458 87.8352 32.0811 87.6701 31.57 87.9813C31.0589 88.2926 30.895 88.9624 31.2039 89.4773C31.5129 89.9923 32.1776 90.1574 32.6887 89.8461Z" fill="#E7C8AC"/>
<path opacity="0.4" d="M38.98 41.4446C39.3207 41.2371 39.43 40.7906 39.224 40.4473C39.0181 40.104 38.5749 39.9939 38.2341 40.2014C37.8934 40.4089 37.7842 40.8554 37.9901 41.1987C38.1961 41.542 38.6393 41.6521 38.98 41.4446Z" fill="#E7C8AC"/>
<path opacity="0.4" d="M32.907 86.5955C33.2477 86.388 33.357 85.9415 33.151 85.5982C32.9451 85.2549 32.5019 85.1448 32.1611 85.3523C31.8204 85.5598 31.7112 86.0063 31.9171 86.3496C32.1231 86.6929 32.5663 86.803 32.907 86.5955Z" fill="#E7C8AC"/>
<path opacity="0.4" d="M21.0979 22.1134C21.4386 21.9059 21.5479 21.4594 21.342 21.1161C21.1361 20.7728 20.6929 20.6627 20.3522 20.8702C20.0114 21.0777 19.9022 21.5241 20.1081 21.8674C20.314 22.2107 20.7572 22.3209 21.0979 22.1134Z" fill="#E7C8AC"/>
<path d="M42.3307 41.0347C42.7282 40.7926 42.8556 40.2717 42.6154 39.8712C42.3751 39.4707 41.858 39.3423 41.4605 39.5843C41.063 39.8264 40.9355 40.3474 41.1758 40.7479C41.4161 41.1484 41.9331 41.2768 42.3307 41.0347Z" fill="#935924"/>
<path d="M19.1201 23.6607C19.5176 23.4186 19.6451 22.8977 19.4048 22.4972C19.1645 22.0967 18.6474 21.9682 18.2499 22.2103C17.8524 22.4524 17.7249 22.9734 17.9652 23.3739C18.2055 23.7744 18.7226 23.9028 19.1201 23.6607Z" fill="#935924"/>
<path d="M13.2284 74.3763C13.6259 74.1342 13.7533 73.6133 13.5131 73.2127C13.2728 72.8122 12.7557 72.6838 12.3582 72.9259C11.9607 73.168 11.8332 73.6889 12.0735 74.0895C12.3138 74.49 12.8308 74.6184 13.2284 74.3763Z" fill="#935924"/>
<g style="mix-blend-mode:overlay" opacity="0.1">
<path d="M14.7329 25.3326C26.9883 21.2167 36.1198 34.2907 38.2825 49.5438C40.4452 64.7969 31.5541 79.0815 21.5815 80.6552C12.5702 82.1079 3.31854 67.0969 1.99688 53.1755C0.79537 39.254 6.20217 28.2379 14.7329 25.3326Z" fill="#E7C8AC"/>
</g>
<g style="mix-blend-mode:overlay" opacity="0.1">
<path d="M13.1708 29.6905C22.4224 26.543 29.271 36.4696 30.9532 47.8489C32.6353 59.2282 25.9068 70.1232 18.4575 71.3338C11.729 72.4233 4.76022 61.1651 3.67886 50.6332C2.71766 40.1013 6.80279 31.8695 13.1708 29.6905Z" fill="#E7C8AC"/>
</g>
<path opacity="0.3" d="M24.5867 127.598C26.0894 125.814 26.2821 123.49 25.0172 122.409C23.7522 121.328 21.5086 121.897 20.006 123.682C18.5033 125.466 18.3106 127.789 19.5755 128.87C20.8405 129.952 23.0841 129.382 24.5867 127.598Z" fill="white"/>
<path opacity="0.3" d="M23.1446 127.196C24.175 125.972 24.313 124.384 23.4528 123.649C22.5927 122.914 21.06 123.309 20.0296 124.533C18.9992 125.756 18.8612 127.344 19.7214 128.08C20.5816 128.815 22.1142 128.419 23.1446 127.196Z" fill="white"/>
<path d="M72.8859 97.2398C72.8859 97.2398 87.304 80.5341 89.2264 55.2333C89.4667 52.6912 96.5556 54.8702 96.5556 56.686C96.6758 58.5018 89.707 88.4027 77.8121 100.266C76.7307 101.356 72.8859 97.2398 72.8859 97.2398Z" fill="#F4A025"/>
<path d="M70.603 105.835C70.603 105.835 89.1063 94.0925 98.2378 70.2444C99.199 67.8233 105.327 72.0603 104.846 73.7551C104.365 75.4498 89.2264 102.203 74.4479 110.072C73.1262 110.919 70.603 105.835 70.603 105.835Z" fill="#F4A025"/>
<path d="M64.7157 64.4337C64.7157 64.4337 56.4253 84.8922 62.6731 109.588C63.2739 112.13 55.8245 112.251 55.2238 110.556C54.623 108.861 51.6192 78.3551 59.0686 63.2231C59.6693 61.7705 64.7157 64.4337 64.7157 64.4337Z" fill="#F4A025"/>
<path d="M44.8907 88.4028C44.8907 88.4028 59.429 104.866 84.3002 110.072C86.8234 110.556 83.6995 117.456 81.8972 117.214C80.095 117.093 51.499 106.319 41.2862 93.003C40.3249 91.7924 44.8907 88.4028 44.8907 88.4028Z" fill="#F4A025"/>
<path d="M96.7959 68.6705C96.7959 68.6705 77.2113 78.476 65.797 101.235C64.5955 103.535 58.9484 98.6924 59.5491 96.9976C60.1499 95.3028 77.9322 70.3653 93.4317 63.9493C94.7534 63.344 96.7959 68.6705 96.7959 68.6705Z" fill="#F4A025"/>
<path d="M102.203 60.439C102.203 60.439 83.4592 71.9394 74.0874 95.5453C73.1262 97.9664 66.9985 93.6084 67.4791 91.9136C67.9597 90.2189 83.4592 63.7076 98.3579 56.081C99.6796 55.3547 102.203 60.439 102.203 60.439Z" fill="#F7BA24"/>
<path opacity="0.4" d="M102.203 60.439C102.203 60.439 83.4592 71.9394 74.0874 95.5453C73.1262 97.9664 66.9985 93.6084 67.4791 91.9136C67.4791 91.7926 67.5992 91.5505 67.7194 91.3084C69.2814 93.0031 72.6456 94.819 73.3665 93.1242C82.3778 70.3656 100.4 59.3495 100.4 59.3495C100.4 59.3495 99.4393 57.2916 98.3579 55.96C99.6796 55.3547 102.203 60.439 102.203 60.439Z" fill="#F4A025"/>
<path d="M73.006 102.082C73.006 102.082 87.7846 85.7395 112.536 80.8973C115.059 80.413 112.055 73.5128 110.253 73.6339C108.451 73.755 79.7345 84.1658 69.4015 97.3609C68.4403 98.8136 73.006 102.082 73.006 102.082Z" fill="#F7BA24"/>
<path opacity="0.4" d="M112.536 80.8972C87.6646 85.7394 73.0061 102.082 73.0061 102.082C73.0061 102.082 68.4404 98.6924 69.5218 97.4819L69.6419 97.3608C70.6031 98.6924 72.6457 100.266 72.6457 100.266C72.6457 100.266 87.0638 84.4078 111.214 79.5655C113.016 79.2024 111.935 75.5707 110.493 73.6338C112.296 74.2391 114.939 80.534 112.536 80.8972Z" fill="#F4A025"/>
<path d="M73.4867 116.246C73.4867 116.246 56.4253 102.324 50.2976 77.6288C49.6968 75.0866 43.0885 78.5973 43.2086 80.2921C43.449 82.1079 55.3439 110.314 69.0411 119.998C70.483 120.967 73.4867 116.246 73.4867 116.246Z" fill="#F7BA24"/>
<path opacity="0.4" d="M73.4867 116.246C73.4867 116.246 70.3628 120.967 69.0411 119.998C60.0298 113.582 51.7394 98.9345 47.0535 89.3711C51.8595 98.9345 59.5492 112.009 68.0799 117.94C69.0411 118.667 71.0837 116.124 71.9247 114.914C73.0061 115.761 73.4867 116.246 73.4867 116.246Z" fill="#F4A025"/>
<path d="M86.1025 65.6443C86.1025 65.6443 68.3201 78.5973 60.8708 102.93C60.1499 105.351 53.6617 101.598 54.0222 99.9032C54.3826 98.0874 67.7194 70.4866 82.0174 61.6495C83.2189 60.681 86.1025 65.6443 86.1025 65.6443Z" fill="#F7BA24"/>
<path opacity="0.4" d="M86.1025 65.6442C86.1025 65.6442 68.3201 78.5972 60.8708 102.929C60.1499 105.351 53.6617 101.598 54.0222 99.9031C54.0222 99.782 54.1423 99.661 54.1423 99.4189C55.7043 101.114 59.5491 102.929 60.1499 100.993C67.4791 77.3866 84.6607 64.6757 84.6607 64.6757C84.6607 64.6757 83.4592 62.6178 82.2577 61.4072C83.5793 61.4072 86.1025 65.6442 86.1025 65.6442Z" fill="#F4A025"/>
<path d="M83.0987 60.5597C83.0987 60.5597 63.2738 69.881 51.2587 92.2764C50.0572 94.5764 44.41 89.6131 45.131 87.9183C45.7317 86.2236 64.235 61.7702 79.8546 55.7174C81.2964 55.2332 83.0987 60.5597 83.0987 60.5597Z" fill="#F7BA24"/>
<path opacity="0.4" d="M83.0987 60.5598C83.0987 60.5598 63.2738 69.8811 51.2587 92.2765C50.0572 94.5766 44.41 89.6133 45.131 87.9185C45.131 87.7974 45.2511 87.6764 45.3713 87.5553C46.5728 89.4922 50.0572 92.0344 50.8982 90.3396C62.5529 68.5495 81.8972 59.4703 81.8972 59.4703C81.8972 59.4703 81.0561 57.1702 80.0949 55.8386C81.5367 56.0807 83.0987 60.5598 83.0987 60.5598Z" fill="#F4A025"/>
<path d="M55.9446 81.2603C55.9446 81.2603 71.3239 65.523 96.3153 61.7703C98.8385 61.4071 96.075 54.3859 94.2728 54.5069C92.4705 54.5069 63.3939 63.7072 52.4602 76.5391C51.499 77.7497 55.9446 81.2603 55.9446 81.2603Z" fill="#F7BA24"/>
<path opacity="0.4" d="M96.3154 61.7704C71.3239 65.5232 55.9446 81.2605 55.9446 81.2605C55.9446 81.2605 54.9834 80.5341 54.1423 79.5657C56.3051 77.3867 71.2038 63.8284 94.2728 60.3177C96.0751 60.0756 95.234 56.565 93.9123 54.507C94.1526 54.507 94.2728 54.386 94.393 54.386C96.0751 54.386 98.8385 61.4072 96.3154 61.7704Z" fill="#F4A025"/>
<path d="M104.125 86.7078C104.125 86.7078 87.5444 101.234 62.4328 103.171C59.9096 103.414 62.0724 110.556 63.8746 110.556C65.6769 110.677 95.3542 103.656 107.129 91.6711C108.21 90.5816 104.125 86.7078 104.125 86.7078Z" fill="#F7BA24"/>
<path opacity="0.4" d="M107.129 91.7921C95.3541 103.777 65.6768 110.677 63.8746 110.677C62.3126 110.556 60.3902 104.987 61.7118 103.535C61.832 105.593 63.0335 108.498 64.1149 108.498C65.797 108.619 93.9123 101.961 105.086 90.5816C105.687 89.9763 104.606 88.2815 103.524 87.192C103.885 86.8288 104.125 86.7078 104.125 86.7078C104.125 86.7078 108.21 90.5816 107.129 91.7921Z" fill="#F4A025"/>
<path d="M127.909 105.682C134.587 102.882 137.747 95.1576 134.967 88.4299C132.187 81.7021 124.521 78.5184 117.843 81.319C111.166 84.1196 108.006 91.8438 110.786 98.5716C113.565 105.299 121.232 108.483 127.909 105.682Z" fill="#FDF1D3"/>
<path d="M127.078 103.671C132.653 101.333 135.291 94.8846 132.97 89.2678C130.65 83.651 124.249 80.9931 118.675 83.3312C113.1 85.6693 110.462 92.118 112.782 97.7348C115.103 103.352 121.504 106.009 127.078 103.671Z" fill="#F7BA24"/>
<path d="M116.981 89.6135C116.981 89.6135 114.338 94.5768 118.063 98.3296C118.063 98.3296 111.815 95.3032 116.981 89.6135Z" fill="#F4A025"/>
<path d="M119.384 96.0292C119.384 96.0292 124.431 98.4503 127.915 94.4555C127.915 94.3344 125.272 100.993 119.384 96.0292Z" fill="#F4A025"/>
<path opacity="0.5" d="M121.908 99.661C121.908 99.661 127.314 100.75 129.838 96.0293C129.958 96.0293 128.876 103.051 121.908 99.661Z" fill="#FDF1D3"/>
<path opacity="0.5" d="M122.388 90.0974C122.388 90.0974 119.384 88.8868 117.462 91.308C117.462 91.308 118.784 87.4342 122.388 90.0974Z" fill="#FDF1D3"/>
<path d="M129.597 90.2189C129.597 90.2189 125.272 84.8924 119.384 87.4346C119.384 87.4346 125.752 81.6239 129.597 90.2189Z" fill="#F4A025"/>
<path d="M111.223 128.929C117.901 126.128 121.061 118.404 118.281 111.676C115.501 104.949 107.835 101.765 101.157 104.566C94.4798 107.366 91.32 115.09 94.0996 121.818C96.8793 128.546 104.546 131.73 111.223 128.929Z" fill="#FDF1D3"/>
<path d="M110.392 126.918C115.967 124.58 118.605 118.131 116.284 112.514C113.964 106.897 107.563 104.239 101.988 106.578C96.4135 108.916 93.7755 115.364 96.0961 120.981C98.4167 126.598 104.817 129.256 110.392 126.918Z" fill="#EA0000"/>
<path d="M101.121 121.451C101.121 121.451 105.207 125.325 109.772 122.662C109.772 122.662 105.207 127.988 101.121 121.451Z" fill="#B00000"/>
<path d="M102.083 110.556C102.083 110.556 97.9974 114.309 100.28 119.151C100.28 119.151 95.2339 114.188 102.083 110.556Z" fill="#B00000"/>
<path opacity="0.5" d="M103.284 120.604C103.284 120.604 108.691 121.693 111.214 116.972C111.214 116.972 110.253 123.872 103.284 120.604Z" fill="#FDF1D3"/>
<path opacity="0.5" d="M106.889 112.13C106.889 112.13 103.885 110.919 101.962 113.34C101.962 113.34 103.284 109.467 106.889 112.13Z" fill="#FDF1D3"/>
<path d="M112.175 118.909C112.175 118.909 112.776 112.13 106.768 109.709C106.768 109.709 115.299 110.072 112.175 118.909Z" fill="#B00000"/>
</svg>
