<svg width="92" height="132" viewBox="0 0 92 132" fill="none" xmlns="http://www.w3.org/2000/svg">
<path d="M45.8425 121.012C67.7397 121.012 90.8972 115.519 91.6849 105.317C91.5274 102.649 89.7945 100.137 86.9589 97.94C86.9589 97.94 89.3219 97.6261 89.3219 98.8817V84.1279C89.3219 82.7153 88.3767 81.4597 86.9589 80.361C86.9589 80.361 89.3219 74.5536 89.3219 75.9662V61.2124C89.3219 59.7998 88.3767 58.5441 86.9589 57.4454C86.9589 57.4454 89.3219 51.952 89.3219 53.3646V38.6108C89.3219 37.1982 88.3767 35.9425 86.9589 34.8438L88.8493 22.4443L4.72603 22.9152V34.8438C3.15068 35.9425 2.36301 37.1982 2.36301 38.6108V53.3646C2.36301 51.952 4.72603 57.4454 4.72603 57.4454C3.15068 58.5441 2.36301 59.7998 2.36301 61.2124V75.9662C2.36301 74.5536 4.72603 80.361 4.72603 80.361C3.15068 81.4597 2.36301 82.7153 2.36301 84.1279V98.8817C2.36301 97.4691 4.72603 97.94 4.72603 97.94C1.89041 100.137 0.157534 102.649 0 105.317C0.787671 115.519 23.9452 121.012 45.8425 121.012Z" fill="#B9BFC7"/>
<path opacity="0.4" d="M45.8424 3.76688C69.1574 3.76688 85.541 9.26032 86.8013 14.5968C86.8013 14.4399 86.9588 14.126 86.9588 13.969C86.9588 8.63251 70.1026 2.51123 45.8424 2.51123C21.5821 2.51123 4.72595 8.47555 4.72595 13.969C4.72595 14.126 4.72596 14.4399 4.8835 14.5968C5.98624 9.26032 22.5273 3.76688 45.8424 3.76688Z" fill="#8A96A8"/>
<path d="M45.8424 2.51123C21.5821 2.51123 4.72595 8.47555 4.72595 13.969C4.72595 15.0677 5.51365 16.1664 6.77393 17.2651V17.1081C6.61639 16.0094 6.61638 15.6955 6.61638 15.6955C6.61638 14.4399 6.93146 13.6551 7.5616 13.1842C8.0342 12.7134 8.66435 12.3994 9.29448 12.0855C12.6027 10.516 15.9109 8.94641 19.5342 8.78946C20.6369 8.78946 21.8972 8.94641 22.5273 9.73119C22.9999 10.2021 23.1575 10.8299 23.315 11.4577C23.4725 12.3994 23.6301 13.4981 23.6301 14.4399C23.6301 14.9107 23.6301 15.3816 23.315 15.6955C23.1575 15.8525 22.8424 16.0094 22.5273 16.1664C19.0616 17.422 15.2808 18.0498 11.9725 19.9333C19.0616 22.9155 31.1917 25.1128 45.9999 25.1128C70.2602 25.1128 87.1164 19.1485 87.1164 13.6551C86.9588 8.47554 69.9451 2.51123 45.8424 2.51123Z" fill="#B4BBC2"/>
<path d="M77.9793 20.8752C79.3971 20.4044 78.767 20.7183 79.8697 20.0904C73.0957 16.7944 62.0683 15.0679 45.9999 15.0679C29.9314 15.0679 19.0615 17.1083 12.13 20.4044C13.2327 20.8752 12.4451 20.4044 13.8629 20.8752C21.1095 18.207 32.4519 16.3235 45.9999 16.3235C59.3903 16.3235 70.5752 18.207 77.9793 20.8752Z" fill="#A3AAB5"/>
<path d="M77.9794 20.8749C70.7328 18.2067 59.3903 16.3232 45.8424 16.3232C32.2945 16.3232 20.952 18.2067 13.7054 20.8749C20.952 23.5432 32.2945 25.4267 45.8424 25.4267C59.3903 25.2697 70.5753 23.3862 77.9794 20.8749Z" fill="#B9BFC7"/>
<g opacity="0.2">
<path d="M63.4864 22.4451C47.4179 18.3642 30.4042 18.0503 14.1782 21.3464C19.8494 24.6424 26.6234 25.1133 33.2398 25.4272C40.4864 25.7411 47.5754 25.8981 54.822 25.7411C57.8152 25.7411 60.8083 25.5842 63.4864 24.7994C64.1165 24.6424 64.9042 24.1716 64.9042 23.5438C65.0617 22.9159 64.2741 22.602 63.4864 22.4451Z" fill="#8A96A8"/>
</g>
<path d="M45.8426 51.1671C24.733 51.1671 2.36316 46.3015 2.36316 37.355V56.0327C2.36316 64.9792 24.733 69.8448 45.8426 69.8448C66.9522 69.8448 89.322 64.9792 89.322 56.0327V37.355C89.322 46.3015 66.9522 51.1671 45.8426 51.1671Z" fill="#E0E7EF"/>
<path d="M45.8426 74.7105C24.733 74.7105 2.36316 69.8449 2.36316 60.8984V79.5762C2.36316 88.5226 24.733 93.3883 45.8426 93.3883C66.9522 93.3883 89.322 88.5226 89.322 79.5762V60.8984C89.322 69.8449 66.9522 74.7105 45.8426 74.7105Z" fill="#E0E7EF"/>
<path d="M45.8426 98.0977C24.733 98.0977 2.36316 93.2321 2.36316 84.2856V102.963C2.36316 111.91 24.733 116.775 45.8426 116.775C66.9522 116.775 89.322 111.91 89.322 102.963V84.2856C89.322 93.2321 66.9522 98.0977 45.8426 98.0977Z" fill="#E0E7EF"/>
<path d="M45.8425 121.013C23.6301 121.013 1.10274 115.362 0 105.317V115.676C0 126.349 23.6301 132 46 132C68.2123 132 92 126.192 92 115.676V104.689C91.6849 115.362 68.0548 121.013 45.8425 121.013Z" fill="#E0E7EF"/>
<path d="M45.8426 27.7808C24.733 27.7808 2.36316 22.9152 2.36316 13.9688V32.6465C2.36316 41.5929 24.733 46.4586 45.8426 46.4586C66.9522 46.4586 89.322 41.5929 89.322 32.6465V13.9688C89.322 22.9152 66.9522 27.7808 45.8426 27.7808ZM87.9043 27.31C87.9043 28.4087 87.7467 29.5074 87.5892 30.606C87.4316 32.1756 87.1166 33.5882 86.1714 34.8438C85.3837 35.7856 84.281 36.4134 83.1782 37.0412C81.4454 37.983 79.5549 38.7677 77.6645 39.5525C76.2467 40.0234 74.6714 40.4943 73.4111 39.8664C72.3083 39.2386 71.8357 37.983 71.6782 36.7273C71.5207 34.216 72.9385 31.8617 75.144 30.606C75.144 30.606 75.6166 30.4491 75.9316 30.2921C79.2399 28.5656 82.8631 27.4669 86.0138 25.4265C86.1714 25.2695 86.4864 25.1126 86.8015 25.1126C87.2741 25.1126 87.7467 25.4265 87.9043 25.8974C87.9043 26.2113 87.9043 26.6822 87.9043 27.31Z" fill="#E0E7EF"/>
<g opacity="0.2">
<path d="M3.78077 29.3507C4.09584 32.0189 5.04101 34.8441 7.08895 36.7276C9.13689 38.768 12.1301 39.5528 14.8082 40.1806C19.3767 41.4362 24.1027 42.6919 28.8287 42.5349C29.9314 42.5349 31.1917 42.221 31.9794 41.4362C33.2397 40.0236 32.2944 37.9832 31.6643 36.0998C31.0342 34.3732 30.8766 32.3328 31.1917 30.6063C31.1917 30.2924 31.3492 29.8215 31.0342 29.5076C30.8766 29.1937 30.5616 29.0367 30.2465 29.0367C25.678 27.4672 20.6369 27.6241 15.9109 26.8394C11.1848 26.0546 4.4109 21.189 4.4109 21.189C3.78076 23.8572 3.4657 26.6824 3.78077 29.3507Z" fill="white"/>
</g>
<g opacity="0.2">
<path d="M3.78146 43.4765L3.62323 42.8486C3.62323 43.0056 3.62324 43.3195 3.78146 43.4765Z" fill="white"/>
</g>
<g opacity="0.2">
<path d="M3.46586 53.0506C3.93847 56.0328 5.19876 59.015 7.71931 60.8984C8.97958 61.8402 10.5549 62.468 12.1302 62.9389C16.6987 64.5084 21.2672 65.6071 25.9932 66.3919C27.5686 66.7058 29.3015 66.7058 30.2467 65.6071C31.0343 64.6654 31.0343 63.2528 30.7193 62.1541C30.4042 60.8984 29.9316 59.7997 30.0891 58.5441C30.2467 56.8176 31.3494 55.0911 30.5618 53.6785C29.7741 52.5798 28.1987 52.4228 26.7809 52.4228C19.6919 52.2659 12.6028 50.2255 6.459 46.6155C5.19873 45.8307 3.93848 44.8889 3.62341 43.6333V44.1042C3.46587 46.9294 3.15079 50.0685 3.46586 53.0506Z" fill="white"/>
</g>
<g opacity="0.2">
<path d="M4.09584 80.6755C4.88351 82.2451 6.45884 83.1868 7.87665 83.9716C14.8082 87.7385 22.5274 90.8776 30.4041 89.7789C31.0342 89.622 31.8219 89.465 32.137 88.9942C32.7671 88.2094 32.452 87.1107 32.137 86.3259C31.5068 83.9716 31.6643 81.4603 32.2944 79.2629C32.6095 78.3212 32.9246 77.0655 32.137 76.5946C31.8219 76.4377 31.5068 76.2807 31.0342 76.2807C25.9931 75.6529 20.952 75.182 16.0684 73.9264C11.5 72.6708 6.93146 70.6303 3.46571 67.4912C3.46571 70.6303 3.30817 73.7694 3.30817 76.9086C3.4657 78.0072 3.4657 79.4199 4.09584 80.6755Z" fill="white"/>
</g>
<g opacity="0.2">
<path d="M30.404 98.8822C25.8355 99.1961 21.4246 97.7835 17.0136 96.3709C12.2876 94.8014 7.40405 93.0749 3.78076 89.7788V90.4066C3.78076 94.0166 3.78076 97.6266 3.78076 101.237C3.78076 102.335 3.78073 103.277 4.0958 104.219C4.5684 105.474 5.67116 106.416 6.7739 107.201C13.7054 112.223 22.5273 114.107 31.1917 114.421C32.1369 114.421 33.0821 114.421 33.7123 113.793C34.9725 112.537 33.5547 110.654 32.767 109.084C31.6643 106.573 32.767 103.748 33.3972 101.237C33.5547 100.766 33.5547 100.295 33.3972 99.9809C33.2396 98.7253 31.6643 98.7253 30.404 98.8822Z" fill="white"/>
</g>
<g opacity="0.2">
<path d="M35.6027 122.739C35.1301 122.269 34.3424 122.112 33.7123 122.112C30.8767 121.955 27.8835 122.426 25.0479 122.112C22.0548 121.798 19.0616 120.699 16.226 119.757C13.5479 118.816 11.0274 117.874 8.34929 116.932C5.67121 115.99 2.67804 114.735 1.73283 112.066L1.4178 110.968C0.47259 114.107 1.26024 117.717 3.46572 120.385C4.72599 121.955 6.45887 123.053 8.19175 123.995C15.5959 127.919 24.1027 128.861 32.2945 129.489C33.0821 129.489 33.8698 129.645 34.5 129.332C36.0753 128.704 36.2328 126.506 36.2328 124.937C36.0753 123.995 36.0753 123.21 35.6027 122.739Z" fill="white"/>
</g>
<g opacity="0.2">
<path d="M81.7604 38.7684C83.6508 37.9836 85.5411 36.8849 86.6439 35.3154C87.9042 33.5889 88.3768 31.2345 88.5343 28.8802C88.6918 26.2119 88.6918 23.7006 88.5343 21.0324C88.5343 20.4046 88.3768 19.7768 88.0617 19.4628C87.9042 19.3059 87.5891 19.1489 87.4316 19.1489C80.6576 25.2702 70.8905 27.1537 61.7535 27.6245C60.8083 27.6245 59.3905 27.9384 59.2329 28.8802C59.0754 29.508 59.548 30.1358 60.0206 30.6067C61.7535 32.961 63.1713 36.1001 61.596 38.6114C60.3357 40.8088 57.3426 41.5936 55.6097 43.634C64.5891 44.1049 73.7261 42.3784 81.7604 38.7684Z" fill="#8A96A8"/>
</g>
<g opacity="0.2">
<path d="M87.4315 19.1491C87.589 19.1491 87.589 18.9922 87.7465 18.9922L87.4315 19.1491Z" fill="#8A96A8"/>
</g>
<g opacity="0.2">
<path d="M57.3424 67.9616C63.0136 67.4907 68.6848 66.392 74.1985 64.9794C78.9245 63.7238 84.2807 61.5264 86.1711 56.9747C86.8012 55.4051 86.9588 53.6786 87.1163 51.9521C87.4314 48.97 87.5889 46.1448 87.904 43.1626C86.8012 44.8891 85.0684 45.9878 83.3355 46.9295C76.0889 51.0104 67.5821 52.7369 59.3903 52.1091C59.0752 52.58 58.9177 53.0508 58.9177 53.6786C59.0752 54.6204 59.7054 55.4051 60.3355 56.1899C61.5958 57.9164 62.6985 60.1138 61.7533 62.1542C60.8081 64.3516 57.815 64.9794 55.767 66.392C55.6095 66.549 55.4519 66.706 55.2944 66.8629C55.1369 67.6477 56.3972 67.9616 57.3424 67.9616Z" fill="#8A96A8"/>
</g>
<g opacity="0.2">
<path d="M59.3903 51.9524C59.5485 51.9524 59.5485 51.9524 59.5485 51.7954L59.3903 51.9524Z" fill="#8A96A8"/>
</g>
<g opacity="0.2">
<path d="M57.185 89.3078C56.87 89.6217 56.7124 89.9356 56.7124 90.2495C56.7124 91.0343 57.8152 91.3482 58.6028 91.3482C66.4795 91.3482 74.3563 89.6217 81.6028 86.4826C83.4932 85.6978 85.3837 84.5991 86.4864 82.8726C87.2741 81.46 87.4316 79.7335 87.5891 78.1639C87.9042 74.0831 88.3768 70.1592 88.6919 66.0784L87.9042 65.9214C84.596 69.0605 80.185 71.1009 75.6165 72.3566C71.048 73.6122 66.4796 74.0831 61.9111 75.0248C60.9659 75.1818 59.8631 75.6526 59.8631 76.5944C59.8631 77.5361 60.8083 78.007 61.4384 78.6348C63.0138 80.0474 62.8562 82.8726 61.596 84.7561C60.4932 86.3256 58.6028 87.5813 57.185 89.3078Z" fill="#8A96A8"/>
</g>
<g opacity="0.2">
<path d="M87.2739 105.161C89.7944 101.08 87.7465 95.7432 88.5341 91.0346L88.0616 90.4067C80.0273 95.4293 70.5752 98.2545 60.9657 98.5684C60.0205 98.5684 58.7602 98.8823 58.9177 99.8241C58.9177 100.138 59.0752 100.295 59.2328 100.452C60.3355 101.864 62.0684 102.963 62.3835 104.69C62.6985 106.573 61.2807 108.143 60.0204 109.555C58.9177 110.654 57.815 111.91 56.7122 113.008C56.3972 113.322 56.0821 113.636 56.0821 114.107C56.0821 114.892 57.1849 115.049 57.9725 115.049C65.5342 114.421 72.9383 112.694 79.8698 110.183C82.8629 109.084 85.8561 107.672 87.2739 105.161Z" fill="#8A96A8"/>
</g>
<g opacity="0.2">
<path d="M90.7395 110.654C82.3902 117.717 70.8902 118.972 60.3354 121.955C62.3834 122.896 62.6984 126.192 60.808 127.291C60.3354 127.605 59.8628 127.762 59.3902 128.076C58.9176 128.39 58.7601 129.175 59.2327 129.488C59.5477 129.802 60.0204 129.802 60.493 129.802C67.8971 129.175 75.1436 127.291 81.9176 124.309C84.5957 123.21 87.1163 121.798 88.8491 119.443C90.582 116.932 91.0546 113.95 91.3696 110.968L90.7395 110.654Z" fill="#8A96A8"/>
</g>
<g opacity="0.5">
<path d="M3.93845 27.9379C4.09598 30.4492 4.88366 32.9605 6.459 35.0009C9.29462 38.4539 14.0206 39.3957 18.2741 40.0235C19.0617 40.1804 19.8494 40.1804 20.6371 40.0235C21.4248 39.7096 22.0549 39.0818 21.8974 38.297C21.8974 37.5122 21.2672 37.0413 20.6371 36.5705C17.6439 34.3731 14.3357 32.4896 11.8152 29.6644C9.76721 27.3101 8.19189 24.3279 5.82888 22.1305C5.35628 21.8166 4.88368 21.3458 4.41108 21.6597C4.25355 21.6597 4.09598 21.8166 3.93845 21.9736C3.93845 21.9736 3.93849 21.6597 3.78095 22.2875C3.78095 22.6014 3.62342 22.9153 3.78095 23.0723C3.93849 24.6418 3.78091 26.3683 3.93845 27.9379Z" fill="white"/>
<path d="M20.3219 62.782C20.4794 62.3111 20.3219 61.8402 20.0068 61.5263C18.9041 59.7998 17.9589 57.9163 16.8561 56.1898C16.0685 54.9342 15.4383 53.8355 14.3356 52.8938C13.2328 51.952 11.9726 51.1672 10.7123 50.3825C8.8219 49.1268 7.08901 47.7142 5.6712 45.8308C5.51367 45.6738 5.35614 45.3599 5.04107 45.3599C4.41094 45.2029 4.25341 46.3016 4.41095 46.9294C4.56848 47.4003 4.56845 48.0281 4.72599 48.499C4.41092 52.109 5.51366 55.8759 7.87667 58.7011C10.7123 61.8402 14.9657 63.5667 19.2192 63.2528C19.5342 63.2528 20.0068 63.2528 20.3219 62.782Z" fill="white"/>
<path d="M17.4861 86.4822C17.9587 85.8544 17.4862 85.0696 17.0136 84.4418C14.3355 80.8318 10.8697 77.6927 9.13685 73.4549C8.66425 72.1993 8.19164 70.7867 7.40397 69.688C7.0889 69.2171 6.30123 68.7462 5.82863 69.0601C5.67109 69.2171 5.51354 69.531 5.51354 69.688V69.3741C5.51354 69.531 5.51354 69.531 5.51354 69.688C5.04094 71.2575 5.04095 72.8271 5.04095 74.3966V73.7688C5.04095 74.3966 5.04095 74.8675 5.04095 75.4953C5.19849 77.5358 5.82862 79.5762 7.24642 81.1457C8.34916 82.4014 9.76698 83.1861 11.3423 83.9709C12.6026 84.5987 13.8629 85.3835 15.1231 86.0114C15.9108 86.7961 17.0135 87.11 17.4861 86.4822Z" fill="white"/>
<path d="M5.04109 91.5044C5.04109 94.0157 5.04111 96.684 5.35618 99.1953C5.51371 101.393 5.98627 103.59 7.08901 105.317C8.82189 107.985 11.9726 109.397 15.1233 110.653C15.4383 110.81 15.911 110.967 16.226 110.653C16.5411 110.339 16.3836 109.868 16.226 109.397C12.9178 102.805 6.77396 97.6257 4.88354 90.4058L5.04109 91.5044Z" fill="white"/>
<path d="M9.13694 119.443C6.93146 117.403 5.19855 115.049 3.93828 112.38C3.78075 111.91 3.62322 111.596 3.30815 111.282C2.99309 110.968 2.5205 110.811 2.0479 110.968C1.73283 111.125 1.57531 111.439 1.41777 111.753C0.94517 112.851 0.94516 114.107 1.26023 115.206C1.26023 115.206 2.36295 118.031 4.09582 120.228C5.98624 122.426 8.82188 123.838 11.6575 123.838C11.9726 123.838 12.4451 123.838 12.6027 123.367C12.6027 123.21 12.6027 123.053 12.4452 122.896C11.6575 121.484 10.3972 120.542 9.13694 119.443Z" fill="white"/>
<path d="M6.77405 112.066C13.2329 115.519 20.322 118.344 27.5685 118.501C20.322 116.461 13.0754 114.577 6.6165 111.124C4.88363 110.183 2.8357 109.084 2.20557 107.357C0.787758 103.747 0.78772 105.16 0.78772 105.16C0.78772 105.945 1.10283 106.73 1.41789 107.357C2.20557 109.398 4.56857 110.967 6.77405 112.066Z" fill="white"/>
</g>
<g opacity="0.3">
<path d="M88.0615 35.9429C83.178 42.692 63.9588 46.3019 45.6848 46.3019C32.1369 46.3019 18.1163 44.2615 9.76703 40.4946C11.6574 41.5933 13.7054 42.535 15.7533 43.4767C23.3149 46.4589 31.6643 46.9298 39.8561 47.2437C42.2191 47.4006 44.4245 47.4006 46.7876 47.5576C50.0958 47.7145 53.2465 47.8715 56.5547 47.8715C65.8492 47.7145 75.1437 45.8311 83.8081 42.2211C85.856 41.4363 87.7464 40.4946 89.1642 38.7681C89.1642 38.4542 89.3218 38.2972 89.3218 37.9833C89.1643 37.3555 88.6917 36.5707 88.0615 35.9429Z" fill="#8A96A8"/>
</g>
<g opacity="0.3">
<path d="M89.3218 61.0561C89.3218 60.2713 89.0067 59.6434 88.5341 59.0156C84.2807 66.0786 64.5889 70.0025 45.8423 70.0025C30.5615 70.0025 14.6505 67.4912 7.0889 62.6256C5.82863 62.1547 4.56838 61.5269 3.46564 60.7421C10.7122 65.7647 19.8492 67.6482 28.6711 69.2177C32.1369 69.8456 35.6026 70.4734 39.0684 70.9443C51.8286 72.5138 64.904 71.886 77.3492 69.0608C80.0272 68.433 82.7053 67.8051 85.2259 66.7064C85.6985 66.5495 86.3286 66.2356 86.8012 66.0786C88.219 64.3521 89.1642 62.7826 89.3218 61.0561Z" fill="#8A96A8"/>
</g>
<g opacity="0.3">
<path d="M85.6987 88.9935C86.959 88.5226 88.2192 88.0517 89.4795 87.2669V84.1278C89.4795 83.3431 89.1644 82.7152 88.6918 82.0874C84.7535 89.4643 64.9041 93.3882 45.8425 93.3882C27.8836 93.3882 8.97954 89.7782 3.78091 83.1861C3.46584 83.0291 3.15076 82.8722 2.83569 82.5583C2.83569 82.5583 2.83569 82.5583 2.83569 82.7152C7.08912 86.6391 12.6028 89.1504 18.1165 90.8769C39.8562 97.9399 63.959 96.8412 85.6987 88.9935Z" fill="#8A96A8"/>
</g>
<path d="M45.8426 0C24.733 0 2.36316 4.86562 2.36316 13.8121C2.36316 22.7586 24.733 27.6242 45.8426 27.6242C66.9522 27.6242 89.322 22.7586 89.322 13.8121C89.322 4.86562 66.9522 0 45.8426 0ZM45.8426 25.2699C21.5823 25.2699 4.72617 19.3055 4.72617 13.8121C4.72617 8.4756 21.5823 2.35433 45.8426 2.35433C70.1029 2.35433 86.959 8.31864 86.959 13.8121C86.959 19.3055 69.9453 25.2699 45.8426 25.2699Z" fill="#C6CCD6"/>
<path d="M45.8425 13.3413C42.3767 13.3413 39.8562 14.283 39.8562 15.0678C39.8562 15.8526 42.2192 16.7943 45.8425 16.7943C49.3082 16.7943 51.8288 15.8526 51.8288 15.0678C51.6713 14.283 49.3082 13.3413 45.8425 13.3413Z" fill="#B4BBC2"/>
<g opacity="0.2">
<path d="M47.4178 13.6552C45.5274 13.4983 43.4795 13.6552 41.5891 14.2831C40.9589 14.44 40.3288 14.7539 40.0137 15.2248C40.0137 15.2248 40.0137 15.5387 40.1712 15.8526C40.3288 16.0096 40.6438 16.1665 40.9589 16.1665C41.1164 16.1665 41.274 16.0096 41.4315 15.8526C43.4795 14.44 46 13.8122 48.363 13.9692C48.048 13.6553 47.7329 13.6552 47.4178 13.6552Z" fill="#8A96A8"/>
</g>
<path d="M45.8424 16.9511C42.8493 16.9511 39.5411 16.3232 39.5411 14.9106V20.0902C39.5411 21.3458 42.8493 22.1306 45.8424 22.1306C48.8356 22.1306 52.1438 21.5028 52.1438 20.0902V14.9106C52.1438 16.3232 48.8356 16.9511 45.8424 16.9511Z" fill="#E0E7EF"/>
<g opacity="0.2">
<path d="M39.6986 19.6198C39.6986 20.0906 39.8561 20.4045 40.1712 20.7184C40.4863 21.0323 40.9589 21.1893 41.274 21.1893C41.9041 21.3463 42.6917 21.5032 43.3219 21.5032C43.4794 21.5032 43.637 21.5032 43.7945 21.3463C43.952 21.1893 43.7945 20.8754 43.7945 20.5615C43.637 20.2476 43.637 20.0906 43.7945 19.7767C43.952 17.2654 43.637 17.2654 41.589 16.7945C40.9589 16.6376 39.8562 16.0098 39.8562 16.0098C39.6986 16.4806 39.6986 19.3058 39.6986 19.6198Z" fill="white"/>
</g>
<g opacity="0.2">
<path d="M51.0411 21.0321C51.3562 20.8751 51.5138 20.7182 51.8288 20.5612C51.9864 20.2473 52.1439 19.9334 52.1439 19.6195C52.1439 19.3056 52.1439 16.4804 52.1439 16.0095C52.1439 15.8525 52.1439 15.8525 52.1439 15.8525C52.1439 15.8525 52.1438 15.8525 51.9863 15.8525C51.0411 16.7943 48.5206 17.2651 47.1028 17.2651C46.6302 17.2651 49.4658 18.6777 48.2055 21.189C48.048 21.5029 47.4179 21.8169 47.1028 21.9738C48.3631 21.9738 49.7809 21.5029 51.0411 21.0321Z" fill="#8A96A8"/>
</g>
<path d="M39.6986 17.1078C39.6986 17.4217 39.8562 20.2469 40.0137 20.5608C40.4863 21.0316 41.1164 21.1886 41.7465 21.3456C41.9041 21.3456 41.9041 21.3456 42.0616 21.3456C42.2192 21.3456 42.2192 21.1886 42.2192 21.0317C42.2192 20.8747 42.0616 20.8747 42.0616 20.7177C41.589 20.4038 41.1164 20.0899 40.8014 19.776C40.4863 19.4621 40.3288 16.6369 40.0137 16.323L39.8562 16.166V16.323C39.6986 16.6369 39.6986 16.7938 39.6986 17.1078Z" fill="white"/>
<path d="M45.8424 13.0269C42.8493 13.0269 39.5411 13.6547 39.5411 15.0673C39.5411 16.3229 42.8493 17.1077 45.8424 17.1077C48.8356 17.1077 52.1438 16.4799 52.1438 15.0673C52.1438 13.6547 48.8356 13.0269 45.8424 13.0269ZM45.8424 16.6368C42.3767 16.6368 39.8562 15.6951 39.8562 14.9103C39.8562 14.1256 42.2192 13.1838 45.8424 13.1838C49.3082 13.1838 51.8288 14.1256 51.8288 14.9103C51.6712 15.8521 49.3082 16.6368 45.8424 16.6368Z" fill="#C6CCD6"/>
<g opacity="0.4">
<path d="M87.7466 25.7403C87.5891 25.2695 87.1164 24.9556 86.6438 24.9556C86.4863 24.9556 86.3288 25.1125 86.1713 25.1125C86.1713 25.4264 86.1713 25.7403 86.1713 26.0543C86.1713 27.1529 86.0137 28.2516 85.8562 29.3503C85.6986 30.9199 85.3836 32.3325 84.4384 33.5881C83.6507 34.5299 82.548 35.1577 81.4452 35.7855C79.7124 36.7272 77.8219 37.512 75.9315 38.2968C74.8288 38.7677 73.5685 39.0816 72.4658 38.9246C72.6233 39.2385 72.9384 39.5524 73.2534 39.7094C74.5137 40.4942 76.2466 40.0233 77.5069 39.3955C79.3973 38.6107 81.2877 37.8259 83.0206 36.8842C84.1233 36.2564 85.226 35.6285 86.0137 34.6868C86.9589 33.4312 87.274 31.8616 87.4315 30.449C87.589 29.3503 87.5891 28.2516 87.7466 27.1529C87.9041 26.6821 87.9041 26.2112 87.7466 25.7403Z" fill="#8A96A8"/>
</g>
<g opacity="0.2">
<path d="M84.9109 34.5303C81.7603 36.2568 78.6096 37.8263 75.1438 39.082C75.1438 39.2389 75.3014 39.3959 75.4589 39.3959C75.6164 39.3959 75.9315 39.3959 76.089 39.2389C79.0822 38.2972 82.0753 36.8846 84.7534 35.0011C84.9109 35.0011 85.0685 34.6872 84.9109 34.5303Z" fill="#E0E7EF"/>
</g>
<g opacity="0.2">
<path d="M5.98623 16.4801C6.14376 16.794 6.45883 16.9509 6.7739 17.2648V17.1079C6.61637 16.0092 6.61636 15.6953 6.61636 15.6953C6.61636 14.4396 6.93144 13.6549 7.56157 13.184C8.03417 12.7131 8.66432 12.3992 9.29446 12.0853C12.6027 10.5157 15.9109 8.94619 19.5342 8.78923C20.6369 8.78923 21.8972 8.94619 22.5273 9.73097C22.9999 10.2018 23.1575 10.8297 23.315 11.4575C23.4725 12.2423 23.4725 12.8701 23.63 13.6549C35.9177 7.53359 49.7807 4.86534 63.4862 5.96403C61.4383 4.86534 59.0752 4.55143 56.7122 4.23752C43.1643 2.82492 29.3013 4.23752 16.0684 8.00446C12.1301 9.2601 5.82868 11.4575 5.67114 14.4396C5.67114 14.4396 5.67114 15.0675 5.67114 15.8522C5.82868 16.0092 5.8287 16.1662 5.98623 16.3231C5.8287 16.3231 5.98623 16.4801 5.98623 16.4801Z" fill="#8A96A8"/>
</g>
<path d="M22.3698 16.323C22.6848 16.166 22.9999 16.166 23.1574 15.8521C23.4725 15.5382 23.4725 15.0673 23.4725 14.5965C23.4725 13.4978 23.4725 12.5561 23.1574 11.6143C22.9999 10.9865 22.8424 10.3587 22.3698 9.88781C22.0547 9.41694 21.4246 9.25998 20.7944 9.10303C21.1095 9.57389 21.267 10.0448 21.267 10.5156C21.4246 11.4574 21.5821 12.5561 21.5821 13.4978C21.5821 13.9687 21.5821 14.4395 21.267 14.7534C21.1095 14.9104 20.7944 15.0673 20.4793 15.2243C17.0136 16.4799 12.7602 17.2647 9.6095 19.1482C10.7122 19.776 11.9725 20.2469 13.3903 20.7177C12.7602 20.5608 12.1301 20.2469 11.6575 20.0899C14.9657 18.2065 18.904 17.5786 22.3698 16.323Z" fill="#E0E7EF"/>
<g opacity="0.2">
<path d="M87.9042 101.55C87.4315 99.5096 87.4316 97.3122 87.274 95.1148C87.274 93.0744 87.274 91.034 87.1165 89.1505C87.1165 87.1101 87.1165 85.2266 87.1165 83.1862C87.274 81.1458 87.5891 79.2623 87.7466 77.2219C88.0617 74.2398 88.2192 71.1006 88.2192 68.1185C88.2192 66.5489 87.9042 64.5085 86.3288 64.1946C88.5343 56.5038 89.0069 48.3421 87.4315 40.4943C87.274 39.7095 87.1165 38.9247 87.1165 38.2969C87.1165 37.3552 87.4315 36.4134 87.5891 35.6287C88.8493 31.0769 89.0069 26.2113 88.3767 21.5026C88.2192 20.7179 88.0617 19.9331 87.4315 19.6192C86.8014 19.1483 85.6987 19.4622 85.6987 20.247L87.274 19.7761C80.0275 23.7 72.3083 26.6822 64.4316 28.5657C63.959 28.8796 64.274 29.6643 64.7466 29.9783C65.2192 30.2922 65.8493 30.1352 66.3219 30.1352C70.4178 29.5074 74.3562 28.4087 78.137 26.8391C80.0274 26.0544 82.0754 25.1126 83.9658 25.7405C86.9589 26.5252 88.0617 30.6061 86.8014 33.4313C85.5411 36.2565 82.8631 38.1399 80.185 39.7095C75.774 42.3777 71.048 44.5751 66.1644 46.3016C70.4178 45.3599 74.6713 44.5751 78.9247 43.6334C80.6576 43.3195 82.7055 42.8486 84.2808 43.9473C86.0137 45.2029 86.1712 47.5573 85.8562 49.5977C84.911 55.4051 80.8151 60.2707 76.0891 63.5668C71.3631 66.8628 65.6918 68.9033 60.1781 70.9437C66.322 70.002 72.4658 69.0602 78.4521 68.1185C79.2398 67.9615 80.0274 67.8046 80.8151 68.1185C82.3905 68.5893 83.1781 70.4728 83.1781 72.1993C83.4932 76.5941 81.1302 80.6749 78.137 83.971C74.5137 87.8949 69.7877 90.7201 64.5891 92.2896C62.3836 92.9175 59.7055 93.3883 58.4452 95.4288C64.9041 94.0162 71.5206 92.7605 77.9795 91.5049C79.5548 91.1909 81.4452 91.034 82.3905 92.4466C83.0206 93.3883 82.8631 94.487 82.548 95.5857C81.4453 99.6666 78.4521 102.963 75.3014 105.631C68.0548 111.909 59.3905 116.461 49.9384 118.501C52.459 119.443 55.2946 118.658 57.9727 118.658C60.6507 118.658 63.8014 120.228 63.9589 122.896C63.9589 125.721 60.6507 127.134 57.8151 127.762C51.6713 129.017 45.2124 129.802 38.911 129.802C53.5617 131.999 69.0001 129.017 81.7603 121.797C85.3836 119.757 89.3219 116.775 89.7945 112.537C90.8973 108.456 88.8494 105.16 87.9042 101.55Z" fill="#8A96A8"/>
</g>
<path d="M4.25336 29.0374C4.41089 31.3918 5.04101 34.06 7.08895 35.4726C7.24649 35.6296 7.56156 35.7865 7.87662 35.6296C8.19169 35.4726 8.34926 35.0018 8.34926 34.6878C8.66432 32.0196 8.66433 29.3514 8.5068 26.6831C8.34927 24.9566 8.03418 23.0731 6.61637 22.2883C5.98623 21.9744 5.04105 21.8175 4.56844 22.4453C4.41091 22.7592 4.25336 23.0731 4.25336 23.387V23.544C4.41089 25.2705 4.25336 27.154 4.25336 29.0374Z" fill="white"/>
<path d="M6.14391 45.3608C5.98637 45.6748 5.51373 45.6747 5.51373 46.3026C5.51373 49.5986 5.51373 52.8947 5.51373 56.0338C5.51373 56.9756 5.67128 58.0743 6.45895 58.3882C7.08908 58.5451 7.71923 58.2312 8.19183 57.6034C8.5069 56.9756 8.66442 56.3477 8.66442 55.7199C8.82195 53.8364 9.13703 51.953 8.82196 50.0695C8.66443 48.343 7.71925 46.4595 6.14391 45.3608Z" fill="white"/>
<path d="M7.24647 69.8452C7.08894 70.0022 7.08893 70.1591 7.08893 70.3161C6.9314 70.473 6.93143 70.473 6.93143 70.63C6.3013 71.8856 6.14373 73.2982 6.30126 74.7108C6.30126 74.7108 6.30126 75.8095 6.30126 77.5361C6.30126 78.9487 6.93141 80.3612 8.03415 81.303C9.29442 80.0473 9.76702 78.1639 9.60949 76.4374C9.60949 74.7109 9.13687 72.9843 8.66427 71.2578C8.3492 70.63 8.03415 69.8452 7.24647 69.8452Z" fill="white"/>
<path d="M6.45884 93.7026C5.98623 94.3305 5.67116 95.1152 5.51362 95.9C5.51362 95.9 5.51362 97.7835 5.51362 99.8239C5.51362 101.08 5.3561 102.335 5.67117 103.591C5.98623 104.846 6.77391 105.945 8.03418 106.259C8.82185 103.905 9.13694 101.393 9.13694 98.7252C9.29447 96.8417 8.66431 94.1735 6.45884 93.7026Z" fill="white"/>
<path d="M5.82876 114.264C5.35616 113.793 4.41093 113.479 3.93833 113.95C3.7808 114.107 3.62329 114.264 3.62329 114.421C3.93836 115.991 3.93837 117.717 4.56851 119.13C5.19864 120.699 6.61645 122.269 8.50686 122.112C8.19179 120.071 7.71915 118.031 7.08901 115.991C6.61641 115.363 6.30136 114.735 5.82876 114.264Z" fill="white"/>
<path d="M20.322 23.5438C19.3768 23.3868 18.274 23.0729 17.3288 22.9159C15.5959 22.4451 14.0206 21.6603 12.4453 21.0325C11.6576 20.7186 10.8699 20.4046 10.0822 19.9338C9.29457 19.6199 8.50686 19.3059 7.87673 18.8351C6.61645 18.0503 5.51375 17.1086 4.56855 15.8529C4.41101 15.539 4.09595 15.2251 3.78088 15.2251C3.46581 15.2251 2.99318 15.539 3.30825 15.8529C3.30825 15.8529 3.78085 16.3238 4.09592 16.6377C7.40413 19.6199 11.6576 21.6603 15.911 23.0729C20.1644 24.4855 24.7329 25.1133 29.1438 25.7411C29.6164 25.7411 30.2466 25.8981 30.7192 25.7411C27.2534 24.9564 23.7877 24.3285 20.322 23.5438Z" fill="white"/>
</svg>
