<svg width="140" height="108" viewBox="0 0 140 108" fill="none" xmlns="http://www.w3.org/2000/svg">
<path d="M139.967 55.0698C141.141 84.2205 110.436 108 71.3872 108C32.3381 107.934 0.394846 84.0895 0.00370365 55.0043C-0.387439 26.2466 30.252 3.18799 68.5188 3.18799C106.72 3.18799 138.729 26.3121 139.967 55.0698Z" fill="#FBA046"/>
<path d="M138.338 51.9909C138.533 78.8489 109.524 102.104 72.2347 104.069C33.3812 106.165 0.394884 84.4825 0.00374204 55.6593C-0.3874 26.7051 32.0774 3.18799 71.1264 3.18799C108.611 3.18799 138.142 25.0674 138.338 51.9909Z" fill="#EF9842"/>
<path d="M136.186 51.5984C136.382 78.1289 108.089 100.008 72.5606 101.056C36.5756 102.105 5.41455 81.5352 3.32845 54.4152C1.17717 26.5091 30.5128 2.86099 68.3885 2.40244C105.808 1.94389 135.991 24.2819 136.186 51.5984Z" fill="#7F4413"/>
<path d="M9.71706 69.0887C10.9557 71.6434 11.9987 73.0191 14.0848 75.0498C17.8659 78.7837 22.038 82.9762 26.7318 85.7275C28.2963 86.6446 29.7305 86.9722 31.0343 88.2823C31.947 89.2649 32.6641 90.1165 33.8375 90.8371C37.2274 93.1298 41.0736 93.7849 45.0502 94.7675C48.4401 95.6191 50.8522 97.0603 54.3725 97.5188C57.5668 97.9119 60.8915 98.4359 64.0206 98.96C71.7783 100.27 79.4056 98.2394 87.0981 97.6498C89.9012 97.3878 93.0304 97.2568 95.638 96.2087C98.6367 94.9641 101.244 93.4574 104.569 92.6713C112.131 90.8371 117.542 85.662 122.692 80.0284C124.908 77.6046 127.842 75.1808 129.602 72.364C131.102 69.9403 132.079 67.1234 133.514 64.5687C136.578 59.0005 137.686 53.6289 136.904 47.2092C136.252 41.9031 135.209 36.2695 132.731 31.422C129.733 25.5263 123.735 20.5478 118.324 17.1414C114.869 14.9141 111.023 13.2765 107.503 11.1802C104.308 9.34602 101.766 7.18427 98.2456 6.00514C91.0747 3.51587 83.9689 1.28862 76.4068 0.306009C72.6258 -0.152542 68.3232 -0.152542 64.6074 0.699053C60.5656 1.55065 56.5238 1.61615 52.4168 1.87818C47.7882 2.14021 43.0293 2.79529 38.792 4.89152C35.3369 6.59471 32.4033 9.34602 28.883 11.0492C23.6678 13.6695 17.8659 16.6828 14.15 21.3339C11.1512 25.0678 8.34806 29.1947 6.39235 33.5837C4.89297 36.9246 2.87207 41.1171 2.6765 44.7855C2.48093 48.6504 3.3284 51.7292 4.24107 55.3321C4.82778 57.4939 4.95816 59.8521 5.74045 61.9484C6.7183 64.4376 8.54363 66.5994 9.71706 69.0887Z" fill="#E8A15B"/>
<path d="M13.6285 68.957C14.802 71.3152 15.845 72.5599 17.8659 74.3941C21.5166 77.8004 25.6236 81.6654 30.1217 84.2202C31.6863 85.0718 33.0553 85.3338 34.2939 86.5784C35.2065 87.43 35.9236 88.2161 36.9667 88.9367C40.2262 91.0329 44.0072 91.6225 47.8535 92.5396C51.113 93.3257 53.525 94.6358 56.9149 95.0944C60.0441 95.4874 63.2384 95.946 66.2372 96.4045C73.7341 97.5837 81.1658 95.7494 88.5975 95.1599C91.3355 94.9634 94.3994 94.7668 96.8766 93.7842C99.8102 92.6706 102.287 91.2294 105.547 90.5089C112.913 88.8057 118.129 84.0891 123.083 78.9141C125.234 76.6868 128.038 74.4596 129.798 71.8393C131.297 69.612 132.21 66.9917 133.579 64.699C136.512 59.5894 137.621 54.6764 136.838 48.7807C136.186 43.9332 135.143 38.7581 132.797 34.3036C129.863 28.932 124.126 24.3465 118.846 21.2021C115.456 19.1714 111.805 17.6648 108.35 15.765C105.286 14.0619 102.809 12.0966 99.4191 10.983C92.4437 8.69025 85.5987 6.65953 78.2974 5.74243C74.6467 5.28387 70.4745 5.34938 66.8239 6.06996C62.9125 6.85605 59.001 6.92156 55.0244 7.11808C50.5263 7.38011 45.8978 7.96967 41.7908 9.86939C38.4009 11.4416 35.5977 13.9308 32.2078 15.503C27.1229 17.9268 21.5166 20.6781 17.9311 24.9361C15.0627 28.3424 12.3247 32.1419 10.4342 36.2033C9.00001 39.2822 7.0443 43.0816 6.84872 46.4225C6.65315 49.9599 7.43544 52.7767 8.3481 56.1175C8.86963 58.0828 9.00001 60.2445 9.78229 62.1442C10.7601 64.6335 12.5203 66.6642 13.6285 68.957Z" fill="#FFD880"/>
<path d="M21.3862 57.7562C21.7773 58.0838 22.3641 58.3458 23.0812 58.4768C28.4268 59.6559 28.1008 51.8606 32.9249 51.9261C41.856 51.9916 30.5129 66.7307 36.4452 66.7962C38.792 66.7962 39.9003 62.8658 42.0516 62.0142C45.8326 60.442 45.963 64.1104 44.3984 66.8617C41.9864 71.2507 35.7933 72.1023 33.9679 77.1464C31.8167 82.911 35.6629 84.9417 40.8781 85.6623C43.0946 85.9899 47.1364 86.1209 48.8965 84.1557C49.8092 83.1075 49.0269 82.1249 49.6788 81.2078C51.8301 78.26 56.0023 78.653 59.1966 79.3081C64.0859 80.2907 66.4328 79.7667 70.8005 77.0154C73.0822 75.5742 74.9727 74.4606 77.3196 77.2774C79.2101 79.5701 79.7316 85.7278 82.5348 80.7493C83.8386 78.4565 84.2297 74.7226 84.0342 72.1023C83.4474 65.093 79.4708 65.8136 73.9297 66.4687C69.4315 66.9927 59.9137 71.7093 57.5017 65.4861C56.2631 62.2762 59.7833 58.9354 56.589 56.7736C54.177 55.1359 50.3307 57.6252 48.701 54.2843C47.1364 51.0745 51.2434 47.0785 53.6554 45.5719C55.8067 44.1962 59.3922 42.6895 61.9346 42.5585C65.4549 42.362 65.4549 43.6066 66.8891 45.8339C67.8669 47.3406 66.6283 47.9301 68.6492 47.9301C70.5398 47.9301 72.8214 44.9823 73.5385 43.4756C75.8854 38.4971 76.7328 29.5226 84.8816 31.2258C90.5532 32.4049 91.2703 40.5278 86.5766 43.3446C84.2297 44.7203 73.1474 46.8165 75.3638 51.7951C77.2544 56.053 84.9468 49.7643 85.9899 55.0049C86.7722 58.9353 79.2101 60.2455 81.8829 63.8484C84.2949 67.0583 89.3146 63.2588 92.2482 66.8617C95.3121 70.6612 93.226 74.4606 90.814 77.6049C87.3589 81.9939 86.6418 86.0554 91.7918 89.1342C94.595 90.8374 100.462 89.7238 101.636 85.5968C102.092 83.9591 100.984 83.1075 100.593 81.6009C99.9406 78.9151 100.658 77.4084 102.092 75.0501C104.178 71.5783 109.328 62.9968 103.331 60.5075C99.8102 59.0009 95.3121 63.4554 92.0526 60.6385C89.9665 58.8698 90.0969 52.3191 91.9222 50.4849C95.7032 46.62 101.44 49.1093 103.526 52.7777C104.308 54.1533 104.113 55.8565 106.069 56.184C108.35 56.5771 109.784 53.6293 112.066 54.0223C118.389 55.1359 115.195 65.9446 115.065 69.7441C114.934 72.5609 115.651 77.4739 119.237 78.0635C124.257 78.8496 120.345 74.0675 119.824 72.2333C118.911 69.089 122.105 66.3377 122.822 62.9313C123.54 59.1974 122.301 55.8565 119.563 53.2362C117.738 51.4675 114.543 51.402 113.044 49.8298C111.284 48.0611 111.87 42.1 112.979 40.2658C114.934 36.9904 122.04 36.2043 122.496 33.06C123.214 28.2779 115.26 26.0507 112.196 28.0814C109.85 29.6536 107.307 31.6188 105.221 33.584C103.656 35.0907 102.483 37.58 99.9406 36.0078C97.0722 34.1736 100.201 27.0333 98.7672 24.02C97.007 20.3516 91.9222 19.5 88.2715 19.8275C85.4683 20.0895 83.2519 22.5788 80.4487 21.0066C76.9936 19.1069 75.755 14.6524 71.7784 12.9492C67.3454 11.0495 59.2618 10.1979 55.4156 13.9318C52.0909 17.2072 54.5681 22.5788 51.8301 26.4437C48.4402 31.2913 43.0294 33.322 37.3578 32.6014C32.1426 31.9463 27.2533 29.2605 22.1033 28.2779C19.1697 27.6884 17.6703 26.7713 15.5191 28.4745C13.3678 30.1776 11.6728 33.9771 10.5646 36.4663C9.45636 38.8246 6.78355 42.755 7.23989 45.5064C7.69622 48.1922 10.4342 49.1748 12.8463 48.1266C16.6273 46.4235 18.1267 41.7724 22.4292 40.5278C24.8413 39.8072 28.4268 39.8072 29.1439 42.8206C29.9913 46.5545 24.2546 48.7817 22.3641 51.3365C20.5387 53.4327 19.4957 56.3151 21.3862 57.7562Z" fill="#FFF5CC"/>
<path d="M85.012 94.7677C89.5753 96.4053 91.7266 90.6407 88.5974 87.6929C84.2949 83.6969 79.9923 92.999 85.012 94.7677Z" fill="#062D52"/>
<path d="M66.6286 58.2801C69.1065 58.2146 67.5415 54.8082 65.9765 55.5943C64.7376 56.1838 65.2593 58.3456 66.6286 58.2801Z" fill="white" stroke="#062D52"/>
<path d="M86.5769 92.7368C89.446 92.8679 86.7725 87.4963 85.4031 89.92C84.9467 90.7716 85.4684 92.6713 86.5769 92.7368Z" fill="#062D52"/>
<path d="M65.5852 59.3277C68.8447 60.1793 70.7353 55.4628 68.1276 53.4976C64.9985 51.1393 60.6959 58.1486 65.5852 59.3277Z" fill="#062D52"/>
<path d="M96.8117 86.9068C98.3115 87.2344 99.0288 82.6488 96.7465 83.8935C95.4424 84.5486 95.2467 86.5793 96.8117 86.9068Z" fill="white" stroke="#062D52"/>
<path d="M94.5297 83.828C94.2038 85.4657 94.8557 88.2825 96.4854 89.0031C99.1582 90.1822 100.136 86.5138 99.8753 84.5486C99.5494 81.1422 95.4424 79.5701 94.5297 83.828Z" fill="#062D52"/>
<path d="M96.0943 83.959C95.8336 85.0726 96.2899 86.9723 97.3981 87.4308C99.2235 88.2169 99.8754 85.7277 99.6798 84.4175C99.4842 82.1903 96.6811 81.0766 96.0943 83.959Z" fill="#062D52"/>
<path d="M68.1278 41.052C69.1711 42.4276 72.9531 40.8554 70.2796 39.6763C69.1711 39.1523 66.8888 39.4798 68.1278 41.052Z" fill="white" stroke="#062D52"/>
<path d="M72.1043 41.9686C70.9308 42.7547 68.7144 42.9512 67.5409 42.0341C65.0637 40.1344 67.4757 36.0729 70.2137 37.6451C71.4524 38.3657 73.7992 40.8549 72.1043 41.9686Z" fill="#062D52"/>
<path d="M26.2755 53.3669C27.3188 54.7426 31.1008 53.1704 28.4273 51.9913C27.384 51.4672 25.1017 51.7947 26.2755 53.3669Z" fill="white" stroke="#062D52"/>
<path d="M30.3172 54.2835C29.1438 55.0696 26.9273 55.2661 25.7539 54.349C23.2766 52.4493 25.6887 48.3879 28.4267 49.96C29.6653 50.6806 32.0122 53.1699 30.3172 54.2835Z" fill="#C45F26"/>
<path d="M28.1008 35.5495C29.1442 36.9252 32.9262 35.353 30.2527 34.1739C29.1442 33.6498 26.8619 33.9774 28.1008 35.5495Z" fill="white" stroke="#062D52"/>
<path d="M32.0773 36.4661C30.9039 37.2522 28.6874 37.4487 27.514 36.5316C25.0368 34.6319 27.4488 30.5705 30.1868 32.1426C31.4254 32.8632 33.7723 35.3525 32.0773 36.4661Z" fill="#062D52"/>
<path d="M38.0098 27.6877C39.0531 29.0634 42.8351 27.4912 40.1616 26.3121C39.0531 25.788 36.7708 26.1155 38.0098 27.6877Z" fill="white" stroke="#062D52"/>
<path d="M41.9863 28.6053C40.8129 29.3914 38.5964 29.5879 37.423 28.6708C34.9457 26.7711 37.3578 22.7096 40.0958 24.2818C41.3344 25.0024 43.6812 27.4917 41.9863 28.6053Z" fill="#C45F26"/>
<path d="M95.247 11.2466C96.1599 12.4257 99.355 11.1156 97.0728 10.0675C96.0947 9.60891 94.1384 9.87094 95.247 11.2466Z" fill="white" stroke="#062D52"/>
<path d="M98.6367 12.0319C97.6589 12.687 95.7031 12.8835 94.7253 12.0974C92.6392 10.4598 94.6601 6.98787 97.007 8.29802C98.1152 8.95309 100.136 11.1148 98.6367 12.0319Z" fill="#C45F26"/>
<path d="M100.267 12.8838C101.179 14.0629 104.375 12.7528 102.092 11.7047C101.114 11.2461 99.2233 11.5082 100.267 12.8838Z" fill="white" stroke="#062D52"/>
<path d="M103.656 13.6691C102.679 14.3242 100.723 14.5207 99.745 13.7346C97.6589 12.097 99.6798 8.62508 102.027 9.93522C103.135 10.5903 105.156 12.752 103.656 13.6691Z" fill="#C45F26"/>
<path d="M49.3528 89.2645C50.9826 90.7711 56.7846 89.068 52.6776 87.6923C50.9174 87.1682 47.4623 87.4958 49.3528 89.2645Z" fill="white" stroke="#062D52"/>
<path d="M55.5459 90.3131C53.7206 91.1647 50.2655 91.4267 48.4401 90.3786C44.5939 88.2824 48.375 83.7624 52.5471 85.4655C54.5029 86.2516 58.1535 89.0684 55.5459 90.3131Z" fill="#C45F26"/>
<path d="M80.7094 72.2333C84.2948 71.3817 83.7733 65.4206 80.0575 65.2241C75.1682 65.0275 75.2986 73.5435 80.7094 72.2333Z" fill="#96C5F0"/>
<path d="M80.6447 70.2676C82.5357 69.6781 82.0141 67.3198 80.2535 66.7957C77.3844 65.8786 78.6885 70.8572 80.6447 70.2676Z" fill="#062D52"/>
<path d="M117.412 76.622C121.062 76.2289 121.193 70.7918 117.803 69.6782C114.282 68.6301 112.392 77.2116 117.412 76.622Z" fill="#96C5F0"/>
<path d="M117.608 71.4472C115.456 70.6611 114.804 75.6397 117.542 74.9846C119.042 74.6571 118.977 71.9713 117.608 71.4472Z" fill="#062D52"/>
<path d="M126.082 60.3112C130.319 61.0318 131.884 55.7912 128.298 53.7605C124.517 51.5988 120.15 59.3941 126.082 60.3112Z" fill="#96C5F0"/>
<path d="M127.582 55.3327C125.365 53.957 123.278 58.477 126.604 58.7391C128.43 58.8701 129.082 56.2498 127.582 55.3327Z" fill="#062D52"/>
<path d="M33.3811 55.9214C35.4672 56.4454 37.7489 55.5283 38.2052 53.3011C38.8571 50.0912 34.5546 49.5017 32.4685 50.8118C30.1868 52.3185 30.7083 55.2008 33.3811 55.9214Z" fill="#96C5F0"/>
<path d="M36.6416 52.7121C37.2936 50.4848 33.3812 50.1573 33.316 52.2535C33.1856 54.0877 36.1199 54.4808 36.6416 52.7121Z" fill="#062D52"/>
<path d="M36.9666 50.2224C38.0097 51.336 40.2913 51.5325 41.7255 50.8119C43.2901 49.9603 44.0724 47.8641 42.6382 46.5539C40.2262 44.3922 34.359 47.6021 36.9666 50.2224Z" fill="#96C5F0"/>
<path d="M39.9658 47.2091C37.6184 47.4056 38.14 50.2879 40.1615 50.2224C42.3785 50.2224 42.3785 47.078 39.9658 47.2091Z" fill="#062D52"/>
<path d="M42.1167 51.926C44.5939 50.4194 44.3332 47.7336 42.2471 46.3579C43.0946 47.7336 42.573 49.5678 41.204 50.4849C40.0958 51.1399 35.4021 50.2883 36.2496 48.3886C35.9236 49.1747 37.2274 51.3365 37.7489 51.8605C38.9224 52.9741 40.8129 52.7121 42.1167 51.926Z" fill="#062D52"/>
<path d="M20.4083 44.4578C22.1033 40.9859 15.7798 40.6584 14.0197 42.0996C10.1735 45.3094 18.4526 48.5193 20.4083 44.4578Z" fill="#96C5F0"/>
<path d="M16.9532 42.0996C14.0196 42.4271 13.6936 45.506 16.9532 45.244C18.9741 44.9819 19.4956 41.7721 16.9532 42.0996Z" fill="#062D52"/>
<path d="M16.5621 48.0605C13.3678 47.995 13.107 45.8332 13.107 43.2784C13.107 48.1915 21.7773 46.1608 20.5387 42.7544C21.6469 45.7677 19.626 48.126 16.5621 48.0605Z" fill="#062D52"/>
<path d="M114.152 33.1252C115.326 31.3565 110.893 31.2255 109.654 31.9461C106.981 33.5183 112.718 35.156 114.152 33.1252Z" fill="#96C5F0"/>
<path d="M111.74 31.946C109.719 32.1426 109.458 33.6492 111.74 33.5182C113.11 33.3872 113.436 31.7495 111.74 31.946Z" fill="#062D52"/>
<path d="M111.414 34.8932C109.198 34.8277 109.002 33.7796 109.002 32.535C109.002 35.0243 115.065 33.9761 114.152 32.2729C114.934 33.7796 113.565 34.9587 111.414 34.8932Z" fill="#062D52"/>
<path d="M36.9666 40.3961C37.097 42.0993 39.5091 43.2129 40.9432 42.6889C42.9641 41.9683 44.2028 38.5619 42.573 36.7932C40.8129 35.0245 36.8363 38.4309 36.9666 40.3961Z" fill="#96C5F0"/>
<path d="M40.3571 40.1998C41.7916 39.5447 42.8349 36.9899 40.4223 37.0554C38.3356 37.1209 37.5531 41.4444 40.3571 40.1998Z" fill="#062D52"/>
<path d="M41.9864 21.4C43.8117 19.6968 40.8782 18.2556 38.9876 19.2382C36.2496 20.6794 39.9655 23.2997 41.9864 21.4Z" fill="#96C5F0"/>
<path d="M40.9438 21.2032C42.9 20.4171 40.0961 18.8449 39.2484 20.2206C38.5311 21.3342 39.9657 21.6617 40.9438 21.2032Z" fill="#062D52"/>
<path d="M40.0958 23.1684C39.3135 23.1029 38.5312 22.8408 38.0749 22.3168C37.9445 22.1203 37.8141 21.8582 37.8141 21.6617C37.7489 21.4652 37.8141 21.2032 37.8793 21.0066C37.9445 20.8101 38.0749 20.6136 38.0097 20.3516C38.5964 22.3168 41.5952 22.5133 42.6382 20.3516C42.8338 21.1377 42.7034 22.6443 41.1388 23.1029C40.8129 23.1684 40.4217 23.1684 40.0958 23.1684Z" fill="#062D52"/>
<path d="M40.6173 12.3596C43.0294 12.9491 42.6382 9.67375 40.7477 8.69114C38.0097 7.11897 37.8793 11.639 40.6173 12.3596Z" fill="#96C5F0"/>
<path d="M40.1613 11.3768C41.9219 12.556 41.661 9.41162 40.0309 9.41162C38.7267 9.41162 39.3136 10.7873 40.1613 11.3768Z" fill="#062D52"/>
<path d="M38.0749 11.7046C37.6838 11.0496 37.4882 10.198 37.6838 9.5429C37.749 9.28087 37.8794 9.08435 38.0749 8.95334C38.2053 8.82232 38.4009 8.69131 38.6616 8.6258C38.8572 8.56029 39.118 8.56029 39.2483 8.36377C37.9445 9.93594 39.4439 12.5562 41.856 12.2287C41.2692 12.8183 39.9654 13.5388 38.792 12.4907C38.5313 12.2942 38.2705 12.0322 38.0749 11.7046Z" fill="#062D52"/>
<path d="M65.0637 7.8398C65.0637 7.8398 62.6516 10.2636 58.6098 7.77429C58.6098 7.77429 57.8275 6.20211 59.1313 4.17139C59.1313 4.17139 63.3687 8.10182 65.0637 4.56443C64.9985 4.56443 65.9763 6.20211 65.0637 7.8398Z" fill="#062D52"/>
<path d="M65.3245 5.21895C65.3245 6.39808 63.8251 7.31518 62.065 7.31518C60.3049 7.31518 58.7403 6.46359 58.6099 5.28445C58.4143 4.10532 59.8485 2.9917 61.739 2.9917C63.6948 2.9917 65.3245 3.97431 65.3245 5.21895Z" fill="#96C5F0"/>
<path d="M64.0858 6.07058C64.0858 6.66014 63.2383 7.05319 62.1301 7.11869C61.0871 7.11869 60.1744 6.72565 60.1092 6.13608C59.9788 5.54652 60.8263 5.08797 61.9345 5.02246C63.108 5.02246 64.0206 5.48101 64.0858 6.07058Z" fill="#062D52"/>
<path d="M63.2384 21.2031C63.2384 21.2031 60.8263 23.6268 56.7845 21.1376C56.7845 21.1376 56.0022 19.5654 57.306 17.5347C57.306 17.5347 61.5434 21.4651 63.2384 17.9277C63.2384 17.9277 64.2162 19.5654 63.2384 21.2031Z" fill="#062D52"/>
<path d="M63.5644 18.5832C63.5644 19.7623 62.1302 20.6794 60.3049 20.6794C58.5447 20.6794 56.9802 19.8278 56.8498 18.6487C56.6542 17.4696 58.0884 16.356 59.9789 16.356C61.9346 16.356 63.5644 17.3386 63.5644 18.5832Z" fill="#96C5F0"/>
<path d="M62.2605 19.4342C62.2605 20.0237 61.4131 20.4168 60.3048 20.4823C59.2618 20.4823 58.3491 20.0892 58.2839 19.4997C58.2187 18.9101 59.0662 18.4516 60.1744 18.4516C61.3479 18.386 62.2605 18.8446 62.2605 19.4342Z" fill="#062D52"/>
<path d="M56.7194 22.5131C59.0011 19.9583 55.3504 17.7311 53.0035 19.2377C49.5485 21.465 54.177 25.3954 56.7194 22.5131Z" fill="#96C5F0"/>
<path d="M55.4161 22.2503C57.894 21.0056 54.3728 18.7129 53.3295 20.7436C52.3514 22.4468 54.2424 22.8399 55.4161 22.2503Z" fill="#062D52"/>
<path d="M54.3072 25.1331C53.3946 25.0675 52.3515 24.6745 51.83 23.8229C51.6344 23.4954 51.5041 23.1678 51.4389 22.8403C51.3737 22.5128 51.4389 22.1852 51.5041 21.8577C51.5692 21.5302 51.6996 21.2026 51.6344 20.8751C52.3515 23.8884 56.0674 24.1504 57.3712 20.8096C57.5668 22.0542 57.4364 24.347 55.5459 25.002C55.2199 25.1331 54.7636 25.1986 54.3072 25.1331Z" fill="#062D52"/>
<path d="M55.9372 72.0363C59.2619 69.3505 53.9163 66.9923 50.5264 68.5645C45.3763 70.9227 52.2213 75.0497 55.9372 72.0363Z" fill="#96C5F0"/>
<path d="M54.0465 71.7744C57.632 70.4643 52.5471 68.0405 50.9174 70.2022C49.5484 71.9709 52.2864 72.4295 54.0465 71.7744Z" fill="#062D52"/>
<path d="M52.4168 74.853C51.0478 74.7875 49.5484 74.329 48.7661 73.4774C48.5054 73.1498 48.3098 72.8223 48.2446 72.4292C48.1794 72.1017 48.1794 71.7742 48.3098 71.3811C48.4402 71.0536 48.6357 70.7261 48.5054 70.3985C49.5484 73.5429 55.0244 73.8049 56.9801 70.333C57.3061 71.6432 57.0453 74.0014 54.3073 74.722C53.7858 74.853 53.0687 74.853 52.4168 74.853Z" fill="#062D52"/>
<path d="M107.177 44.0648C108.741 40.855 103.852 40.986 101.831 43.4098C98.8324 46.9472 105.417 47.6677 107.177 44.0648Z" fill="#96C5F0"/>
<path d="M105.678 44.5229C107.96 42.2302 103.2 42.2302 102.744 44.3919C102.352 46.2916 104.57 45.6365 105.678 44.5229Z" fill="#062D52"/>
<path d="M105.547 47.4054C104.504 47.7984 103.2 48.0605 102.287 47.6674C101.961 47.5364 101.701 47.2744 101.505 47.0779C101.31 46.8158 101.244 46.5538 101.179 46.2918C101.179 45.9642 101.179 45.7022 100.984 45.4402C102.874 47.4709 107.111 45.7022 107.372 42.3613C108.089 43.2129 108.741 45.1126 106.851 46.6193C106.525 46.9468 106.068 47.2089 105.547 47.4054Z" fill="#062D52"/>
<path d="M74.6468 36.0073C73.2778 38.4966 77.1241 38.5621 78.819 36.7279C81.3614 34.0421 76.2114 33.256 74.6468 36.0073Z" fill="#96C5F0"/>
<path d="M75.8855 35.7453C73.9944 37.4485 77.7113 37.645 78.1677 35.9418C78.559 34.4352 76.7984 34.8937 75.8855 35.7453Z" fill="#062D52"/>
<path d="M76.0809 33.4522C76.9284 33.1247 77.9714 33.0592 78.6233 33.3867C78.8841 33.5177 79.0797 33.7143 79.21 33.9108C79.3404 34.1073 79.4056 34.3038 79.4056 34.5659C79.4056 34.8279 79.3404 35.0244 79.536 35.2209C78.1018 33.5832 74.7119 34.8279 74.3859 37.3827C73.8644 36.6621 73.4081 35.1554 74.9075 34.0418C75.2986 33.7798 75.6898 33.5832 76.0809 33.4522Z" fill="#062D52"/>
<path d="M115.651 42.8859C118.389 40.5932 113.826 38.6934 111.023 40.0691C106.786 42.1653 112.588 45.5062 115.651 42.8859Z" fill="#96C5F0"/>
<path d="M114.022 42.7546C117.02 41.5754 112.653 39.6757 111.414 41.4444C110.306 42.9511 112.588 43.2786 114.022 42.7546Z" fill="#062D52"/>
<path d="M112.783 45.3093C111.61 45.2438 110.371 44.9162 109.719 44.1956C109.458 43.9336 109.328 43.6061 109.263 43.344C109.198 43.0165 109.198 42.7545 109.328 42.4925C109.458 42.2304 109.589 41.9684 109.524 41.6409C110.436 44.2611 115.065 44.3922 116.629 41.4443C116.955 42.4925 116.76 44.5232 114.478 45.1127C113.891 45.2438 113.305 45.3093 112.783 45.3093Z" fill="#062D52"/>
<path d="M91.6614 25.0673C93.4216 21.923 88.5323 21.7919 86.381 24.0847C83.1867 27.5566 89.7057 28.6047 91.6614 25.0673Z" fill="#96C5F0"/>
<path d="M90.0968 25.4609C92.5089 23.2992 87.75 23.0371 87.1633 25.1989C86.7069 27.0331 88.9234 26.509 90.0968 25.4609Z" fill="#062D52"/>
<path d="M89.8361 28.3428C88.7278 28.7359 87.424 28.8669 86.5766 28.4083C86.2506 28.2773 85.9898 28.0153 85.8595 27.7532C85.6639 27.4912 85.5987 27.2292 85.5987 26.9017C85.5987 26.5741 85.6639 26.3121 85.4683 26.0501C87.2937 28.2118 91.5962 26.6396 92.0525 23.3643C92.7044 24.2814 93.226 26.1811 91.3355 27.6222C90.8791 27.9498 90.3576 28.1463 89.8361 28.3428Z" fill="#062D52"/>
<path d="M59.9137 78.3247C61.1523 77.211 62.2606 74.8528 61.1523 73.4116C59.5226 71.1844 55.8719 70.4638 55.2852 73.7391C55.0244 75.2458 54.6985 77.1455 55.8719 78.3247C56.9801 79.5038 58.7403 79.4383 59.9137 78.3247Z" fill="#96C5F0"/>
<path d="M59.9145 74.8531C59.8493 72.6258 56.8497 73.1499 56.8497 75.1806C56.7845 77.8009 59.9797 77.1458 59.9145 74.8531Z" fill="#062D52"/>
<path d="M102.027 82.8452C102.027 82.8452 107.829 84.5484 110.306 82.0591C110.306 82.0591 111.088 82.4521 111.023 84.3518C111.023 84.3518 108.155 85.924 102.679 85.7275C102.613 85.7275 101.44 84.3518 102.027 82.8452Z" fill="#062D52"/>
<path d="M102.027 82.8452C102.027 82.8452 101.31 81.4696 106.264 81.0765C106.264 81.0765 111.023 80.2904 110.306 82.3867C110.306 82.3867 107.763 84.3519 102.027 82.8452Z" fill="#96C5F0"/>
<path d="M102.744 83.2378C102.744 83.2378 105.808 81.338 109.915 82.5172C109.915 82.5827 107.372 84.1549 102.744 83.2378Z" fill="#062D52"/>
<path d="M120.932 58.4111C120.932 58.4111 120.15 53.8256 117.086 53.498C117.086 53.498 117.151 52.7775 118.781 51.8604C118.781 51.8604 121.258 52.9085 123.148 56.5769C123.148 56.5769 122.431 58.018 120.932 58.4111Z" fill="#062D52"/>
<path d="M120.932 58.4108C120.932 58.4108 120.019 59.59 117.803 56.5766C117.803 56.5766 115.326 53.9563 117.346 53.3013C117.346 53.3013 120.019 53.9563 120.932 58.4108Z" fill="#96C5F0"/>
<path d="M120.998 57.7555C120.998 57.7555 118.194 56.7729 117.672 53.4976C117.672 53.4976 120.02 54.3492 120.998 57.7555Z" fill="#062D52"/>
<path d="M125.886 44.4581C125.886 44.4581 127.777 43.148 132.079 44.9167C132.079 44.9167 133.383 45.0477 132.666 43.6065C132.666 43.6065 128.95 40.6587 125.3 42.5584C125.3 42.5584 123.8 44.5892 125.886 44.4581Z" fill="#DD4333"/>
<path d="M114.674 34.5658C114.674 34.5658 115.847 33.7142 118.52 34.8278C118.52 34.8278 119.367 34.8933 118.911 33.9762C118.911 33.9762 116.629 32.142 114.348 33.3211C114.282 33.3211 113.37 34.6313 114.674 34.5658Z" fill="#062D52"/>
<path d="M133.84 48.3232C133.84 48.3232 131.297 47.4061 132.797 50.4194C132.797 50.4194 135.469 53.5638 131.493 51.14C131.493 51.14 128.69 48.7817 131.623 47.144C131.623 47.144 136.186 47.6026 133.84 48.3232Z" fill="#DD4333"/>
<path d="M5.47965 53.4977C5.47965 53.4977 7.37017 52.1875 11.6727 53.9562C11.6727 53.9562 12.9765 54.0873 12.2595 52.6461C12.2595 52.6461 8.5436 49.6983 4.89294 51.598C4.89294 51.598 3.39356 53.6942 5.47965 53.4977Z" fill="#DD4333"/>
<path d="M23.733 23.8887C23.733 23.8887 25.2976 22.7751 28.8179 24.2817C28.8179 24.2817 29.9261 24.4128 29.2742 23.1681C29.2742 23.1681 26.2754 20.7443 23.2115 22.3165C23.2767 22.3165 22.0381 24.0197 23.733 23.8887Z" fill="#C45F26"/>
<path d="M34.9463 20.2859C34.9463 20.2859 34.229 18.5172 36.3808 15.3728C36.3808 15.3728 36.7069 14.3247 35.4027 14.6523C35.4027 14.6523 32.4032 17.1415 33.3161 20.4169C33.3161 20.4169 34.6854 21.9236 34.9463 20.2859Z" fill="#DD4333"/>
<path d="M73.0169 24.02C73.0169 24.02 74.7119 23.1684 78.0366 25.0026C78.0366 25.0026 79.0796 25.2646 78.6233 23.9545C78.6233 23.9545 75.9505 21.1376 72.7562 22.3168C72.691 22.4478 71.322 23.9545 73.0169 24.02Z" fill="#E59351"/>
<path d="M101.31 60.0488C101.31 60.0488 100.853 58.2146 103.461 55.3978C103.461 55.3978 103.982 54.4152 102.613 54.5462C102.613 54.5462 99.2887 56.5114 99.6798 59.9178C99.6798 59.9833 100.853 61.6865 101.31 60.0488Z" fill="#C45F26"/>
<path d="M10.043 54.415C10.043 54.415 7.50058 53.4979 8.99995 56.5112C8.99995 56.5112 11.6728 59.6556 7.69615 57.2318C7.69615 57.2318 4.89296 54.8735 7.82653 53.2358C7.82653 53.2358 12.455 53.6944 10.043 54.415Z" fill="#DD4333"/>
<path d="M37.5534 70.8572C37.5534 70.8572 29.2742 66.5337 33.8375 58.8038C33.8375 58.8038 34.6198 55.856 32.0774 57.6247C32.0122 57.6247 27.3185 68.6955 37.5534 70.8572Z" fill="#DD4333"/>
<path d="M78.2322 55.6599C78.2322 55.6599 83.3822 56.4459 84.7512 47.7335L84.1645 45.1787C84.1645 45.1787 85.1423 43.2135 86.3158 49.1091C86.3158 49.1091 87.0981 52.45 81.8176 56.2494C81.7525 56.2494 75.2334 57.6251 78.2322 55.6599Z" fill="#DD4333"/>
<path d="M36.1844 38.6279C36.1844 38.6279 35.9888 38.4969 35.7932 38.2348C35.0109 37.5142 33.7071 36.0076 35.5976 35.8111C35.5976 35.8111 39.9002 32.2737 48.7661 36.4006C48.7661 36.4006 51.3085 37.3832 49.9395 35.418C49.9395 35.418 48.9617 32.4702 38.1401 32.8632C38.1401 32.8632 31.0343 34.8284 32.99 37.3832C32.99 37.4487 34.1635 38.2348 36.1844 38.6279Z" fill="#DD4333"/>
<path d="M66.4979 12.8834C66.4979 12.8834 60.37 10.7216 56.6541 14.259C56.6541 14.259 56.0674 16.0277 57.8275 17.4034L56.6541 17.9929C56.6541 17.9929 52.5471 13.0144 58.0231 12.0318C58.0231 12.0973 69.627 9.93555 66.4979 12.8834Z" fill="#DD4333"/>
<path d="M81.8829 58.804C81.8829 58.804 87.424 59.9831 94.269 55.2666L97.5937 52.5153C97.5937 52.5153 100.918 50.5501 97.007 47.7333C97.007 47.7333 96.0292 45.375 100.332 49.6985C100.332 49.6985 101.505 52.6463 96.4203 55.2666L92.1177 58.4109C92.1177 58.4109 81.4917 62.2104 81.8829 58.804Z" fill="#DD4333"/>
<path d="M127.125 64.7646C127.125 64.7646 118.063 66.7299 120.41 72.4945C120.41 72.4945 121.193 73.8702 124.322 71.3154L122.562 70.7258C122.627 70.6603 121.062 68.8916 127.125 64.7646Z" fill="#DD4333"/>
<path d="M66.6934 78.3906C66.6934 78.3906 65.9111 76.4254 71.8435 75.0497C71.8435 75.0497 74.9726 74.0671 72.2346 78.9802C72.2346 78.9802 72.039 83.3037 74.5815 78.1941L75.9505 75.6393C75.9505 75.6393 76.7328 70.8573 70.4093 72.495C70.4093 72.495 60.5655 77.277 66.1067 79.4387C66.1067 79.3732 69.0403 78.3906 66.6934 78.3906Z" fill="#DD4333"/>
<path d="M92.1177 22.5788C92.1177 22.5788 102.548 17.4037 104.895 24.7405V28.671C104.895 28.671 104.699 31.8153 103.526 25.9197C103.526 25.9197 102.353 21.5962 96.6158 22.3823L92.7044 23.3649C92.7044 23.3649 90.0968 23.5614 92.1177 22.5788Z" fill="#DD4333"/>
<path d="M107.829 45.3751C107.829 45.3751 105.286 55.8562 110.371 54.6771L114.282 52.7119C114.282 52.7119 119.432 48.978 114.674 50.9432L110.762 52.5154C110.762 52.5154 108.22 54.2841 108.611 49.371L109.002 47.0128L109.654 44.2614C109.719 44.1959 110.045 33.6493 107.829 45.3751Z" fill="#DD4333"/>
<path d="M63.3688 89.7895C64.5422 89.593 65.3897 89.6585 65.1289 88.0208C64.9985 86.9727 64.7378 86.3831 63.5643 87.1692C62.7169 85.4005 62.065 87.3002 61.2175 87.4968C59.8485 87.8243 58.2187 86.4487 57.5016 87.8898C55.9371 90.7721 61.9346 90.0515 63.3688 89.7895Z" fill="#C45F26"/>
<path d="M73.7992 85.3999C72.6258 85.2689 69.953 85.0724 68.8448 85.8585C67.541 86.8411 68.1277 89.1338 69.6271 89.9854C70.4093 90.3785 71.4524 90.182 72.2999 90.182C73.9948 90.1165 73.9296 90.0509 74.7119 88.8063C75.4942 87.4307 75.755 85.5964 73.7992 85.3999Z" fill="#C45F26"/>
<path d="M41.53 77.1464C42.7686 75.9018 43.1597 73.2159 41.9211 71.7748C40.6825 70.3336 41.1388 71.7093 40.4217 72.6264C39.5091 73.871 40.161 73.609 38.6616 74.002C37.9445 74.1986 36.6407 73.9365 36.1192 74.4606C35.3369 75.3777 36.5103 77.2774 36.7059 78.129C35.5976 78.391 34.8154 77.4084 33.9679 76.9499C32.5989 76.2948 32.6641 77.867 32.2077 75.3777C31.8818 73.8055 31.7514 70.3336 29.8609 69.8096C29.7305 72.1678 30.5128 74.2641 30.8387 76.5568C31.0995 78.26 31.1647 79.3081 32.2077 80.6838C32.4685 81.0113 33.5115 82.1905 33.9679 82.3215C34.9457 82.649 34.8154 81.7319 35.5325 81.9284C37.6185 82.3215 38.0097 84.4177 38.2053 81.3389C38.466 78.391 39.5091 79.1116 41.53 77.1464Z" fill="#C45F26"/>
<path d="M78.8189 90.1821C79.536 89.9856 81.5569 87.1033 82.2088 86.4482C84.2297 84.352 84.5556 82.9108 84.36 79.963C82.0784 79.8975 79.7315 82.9108 78.2322 84.352C77.2543 85.2691 76.9283 85.8586 76.8632 87.1033C76.9283 88.0204 77.5151 90.5096 78.8189 90.1821Z" fill="#C45F26"/>
<path d="M50.9174 77.1457C51.5041 77.5388 53.2642 78.1939 53.6554 78.7834C54.6984 80.4211 52.156 82.5173 50.7218 83.3034C49.418 84.024 45.7673 83.3689 45.4414 81.1417C45.311 80.2901 46.8104 79.0455 47.0059 78.1284C47.3319 76.8837 46.5496 75.377 46.68 74.0669C48.1142 75.0495 49.4832 76.1631 50.9174 77.1457Z" fill="#E58C77"/>
<path d="M89.9664 85.9895C91.1399 83.2382 86.9677 79.1767 85.9246 82.9106C85.2727 85.0724 88.5322 89.1338 89.9664 85.9895Z" fill="#C45F26"/>
<path d="M45.8326 87.7584C45.7674 86.1862 42.8338 81.9282 41.0737 81.6662C39.5091 81.4042 38.2705 83.5659 36.3148 83.0418C35.5977 82.8453 35.2717 82.0592 34.5546 81.8627C33.8375 81.6662 32.9901 82.1247 32.2078 82.0592C31.8166 80.356 30.5128 78.5873 29.3394 77.3427C28.6875 76.6221 27.9052 76.0981 27.1881 75.3775C26.0147 74.1329 25.5584 72.6262 24.5805 71.3815C23.4071 69.8749 19.8216 67.9752 18.1267 69.1543C15.6494 70.923 18.7134 73.5433 19.4305 75.3775C20.6039 78.2598 21.5818 78.5218 24.6457 79.4389C27.1229 80.225 28.2312 81.4042 30.1217 82.9763C32.6641 85.0726 33.316 87.1033 36.7711 85.9242C39.3787 85.0071 40.9433 84.4175 42.7686 86.7103C43.7465 87.6274 46.0282 91.2958 45.8326 87.7584Z" fill="#C45F26"/>
<path d="M90.0968 73.0194C89.4449 72.2988 88.1411 71.7092 87.3588 70.9887C86.6417 70.3336 85.9898 69.351 85.012 69.0234C83.9689 71.5127 86.9677 75.3776 83.5778 76.1637C82.0132 76.5568 77.1239 75.6397 76.5372 77.3429C76.3417 77.9324 77.6455 80.1597 78.2974 80.3562C78.8841 80.4872 80.7094 78.784 81.4265 78.5875C83.4474 77.9979 85.9246 78.915 88.0759 78.1945C90.162 77.4739 91.857 74.9846 90.0968 73.0194Z" fill="#E58C77"/>
<path d="M12.9114 53.1703C12.8462 55.07 11.6727 56.9697 10.8253 58.6074C9.9126 60.5071 9.84741 60.7037 10.7601 62.8654C11.2816 64.0445 11.2164 64.8961 11.5424 66.2063C12.0639 68.106 14.9323 69.8092 16.9532 70.5298C17.2791 67.975 18.3222 66.2063 20.8646 65.5512C22.2336 65.1581 26.2754 65.4857 26.7969 64.0445C23.733 61.6208 19.7563 61.0967 17.0184 58.4764C14.5411 56.0526 15.3234 53.4979 14.7367 50.419C14.6063 49.5674 14.3455 47.7987 12.9765 48.6503C11.9987 49.3709 12.9765 52.1222 12.9114 53.1703Z" fill="#E58C77"/>
<path d="M93.5519 79.5042C94.5949 81.0763 99.0931 77.801 100.723 77.3424C101.701 77.0804 102.874 76.6218 103.917 76.7529C105.025 76.8839 106.003 77.6045 107.111 77.67C106.525 74.5256 102.222 76.0323 101.635 74.1326C101.31 73.0845 102.679 72.3639 102.222 71.1192C101.961 70.3331 100.723 69.3505 99.8753 69.6126C98.1152 70.1366 98.8323 73.412 97.1374 73.936C96.0943 74.2636 94.6601 74.1981 93.6171 73.936C92.6392 73.674 94.269 76.6218 94.269 76.6218C94.5949 77.9975 94.9861 78.5871 93.5519 79.5042Z" fill="#AA361C"/>
<path d="M43.4857 68.4338C44.1376 68.1718 45.8977 66.7306 45.2458 65.8135C44.6591 64.8964 43.2249 66.4031 42.7034 66.7961C42.1167 66.01 43.1597 64.0448 42.4426 63.6518C40.4869 62.6036 39.4439 69.9405 43.4857 68.4338Z" fill="#DD4333"/>
<path d="M96.2247 63.5863C95.8988 62.0796 94.0734 61.6211 92.7696 62.2106C91.4658 62.8657 91.4006 64.0448 90.8791 65.2895C90.162 66.9927 89.7709 68.8924 91.4006 70.4646C92.9 71.9057 93.7475 70.6611 94.269 68.8924C94.6601 67.7133 96.4855 64.7654 96.2247 63.5863Z" fill="#C45F26"/>
<path d="M56.6541 62.9966C56.0674 62.407 54.9592 61.9485 54.3073 61.2279C53.525 61.8175 53.0687 63.6517 51.7648 63.3896C50.5262 63.1931 50.9826 61.2279 51.5041 60.5073C51.2433 60.8349 49.2224 60.1798 48.5053 61.0969C47.723 62.014 47.7882 63.7827 48.7009 64.5033C50.2655 65.8134 55.3503 64.3067 56.6541 62.9966Z" fill="#DD4333"/>
<path d="M67.1498 67.7129C68.1928 68.761 68.9099 70.0057 70.5397 70.0712C70.9308 69.4161 70.5397 67.3854 70.4093 66.7303C69.9529 65.0271 69.7574 64.8306 67.8669 64.7651C66.7586 64.6996 65.7808 64.9616 64.7377 64.6341C64.0858 64.4375 62.8472 62.8654 62.1953 64.0445C61.4782 64.9616 66.4979 67.1233 67.1498 67.7129Z" fill="#C45F26"/>
<path d="M44.0073 56.7077C43.0946 55.6596 43.8117 53.2358 41.6604 53.5634C39.5091 53.8909 41.0737 57.0353 40.8781 58.5419C40.5522 61.2277 40.2914 61.2932 42.2471 63.324C43.5509 64.6996 44.5288 65.8132 46.5497 65.6822C47.2668 63.717 45.8978 62.1448 47.0712 60.1796C47.6579 59.197 49.744 58.1489 49.8744 56.9698C50.0048 55.6596 47.7231 54.2185 46.5497 54.2185C44.9199 54.1529 44.5288 55.2666 44.0073 56.7077Z" fill="#E58C77"/>
<path d="M108.415 66.2723C111.675 65.8793 109.98 59.7871 107.633 59.9181C107.372 59.9181 106.134 60.7042 106.003 60.9007C105.156 62.1453 106.59 66.4688 108.415 66.2723Z" fill="#062D52"/>
<path d="M110.436 69.22C111.088 70.0716 112.066 69.1545 112.783 69.6785C113.5 70.2026 113.109 71.5782 113.239 72.3643C114.217 71.7092 116.694 68.9579 117.02 67.8443C116.89 68.1063 114.934 67.8443 114.674 67.7133C112.913 67.1237 113.109 66.4032 112.718 64.8965C111.805 65.4205 109.458 67.9098 110.436 69.22Z" fill="#AA361C"/>
<path d="M28.8179 38.8896C29.6653 38.4311 31.947 38.2346 32.8597 38.6931C34.6198 39.6757 33.316 40.1343 33.4464 41.1169C34.1635 45.1128 43.8768 41.0514 43.4205 47.3401C41.8559 46.4885 40.3566 44.3923 37.9445 45.3749C36.2496 46.0954 36.5103 49.4363 34.6198 49.7639C34.0331 49.8294 32.99 48.9778 32.273 48.9778C31.1647 48.9123 30.1869 49.6328 29.1438 49.2398C26.4058 48.1917 29.9913 44.2612 30.8388 43.0821C29.209 42.9511 28.5571 44.5233 27.5141 42.4925C26.5362 40.9204 27.3185 39.6757 28.8179 38.8896Z" fill="#E58C77"/>
<path d="M14.8671 38.7588C14.7367 36.9901 15.3886 35.549 16.2361 34.1733C16.7576 33.2562 19.4304 29.1948 16.4968 30.898C15.7797 31.291 15.3234 32.6667 14.4759 33.1907C13.7588 33.6493 12.9765 33.7148 12.2594 34.1733C11.0208 35.0904 10.1082 36.8591 10.3689 38.5623C11.8031 39.0209 13.4981 38.1693 14.6715 38.9553" fill="#C45F26"/>
<path d="M22.0381 18.9098C21.321 19.6304 17.0836 18.1892 17.4096 20.744C17.54 21.9231 20.1476 22.4472 21.0602 22.6437C22.9508 23.0368 23.6678 22.5127 24.9717 21.1371C26.2755 19.6959 29.2742 15.8965 25.7539 14.7173C24.8413 14.3898 23.4723 14.9794 22.8204 15.7655C22.0381 16.6826 22.69 18.2547 22.0381 18.9098Z" fill="#C45F26"/>
<path d="M44.2028 25.1987C44.5288 26.3123 46.4193 26.8364 47.3319 26.1813C48.5054 25.3297 47.3971 25.0021 47.7231 24.0195C47.9838 23.3645 48.5706 22.9714 48.8965 22.3819C49.2225 21.6613 50.5915 18.4514 48.9617 18.0584C48.1142 17.8619 48.1794 18.9755 47.5927 19.041C47.2668 19.1065 46.3541 18.5169 46.2237 18.5824C44.4636 19.303 45.1807 19.7616 45.2459 21.1372C45.2459 21.8578 45.5066 22.1198 45.3762 22.9059C45.1807 23.823 43.8769 24.085 44.2028 25.1987Z" fill="#C45F26"/>
<path d="M43.8116 11.0493C40.0305 15.1108 54.568 14.9798 50.5914 12.0319C49.5483 11.2458 48.3749 11.8354 47.2015 11.8354C45.9629 11.8354 44.9198 11.3113 43.8116 11.0493Z" fill="#C45F26"/>
<path d="M58.8054 45.1782C56.0674 44.6541 55.0896 48.1915 57.8276 49.0431C59.4573 49.5672 61.9998 48.8466 60.9567 46.6848C60.9567 46.6193 58.8706 45.1782 58.8054 45.1782Z" fill="#062D52"/>
<path d="M73.734 42.8855C74.1904 44.2611 75.6897 43.4751 76.5372 44.0646C77.6455 44.7852 77.0587 45.7023 77.7758 46.6194C78.4929 47.471 80.2531 47.9295 81.3613 47.209C83.5126 45.8333 80.9702 41.6409 78.8189 41.7719C77.9714 41.8374 78.2322 42.6235 77.2543 42.1649C76.1461 41.5753 77.1891 39.3481 75.1682 40.0032C74.5815 40.3307 73.5385 42.1649 73.734 42.8855Z" fill="#C45F26"/>
<path d="M100.397 35.7457C101.179 32.2739 97.4633 34.2391 95.4424 33.6495C94.0082 33.2565 91.1399 30.4397 89.9012 32.6014C88.3367 35.2872 92.9652 35.3527 94.0082 36.4008C95.312 37.711 93.6171 38.8901 96.3551 38.6281C98.05 38.4315 99.9406 37.58 100.397 35.7457Z" fill="#C45F26"/>
<path d="M87.3588 45.1127C89.1189 45.0472 90.0316 46.0298 89.5753 47.7985C90.8139 47.7985 90.162 46.9469 90.7487 46.4229C91.3354 45.8333 91.9873 45.8333 92.5088 45.3092C94.269 43.7371 92.3785 42.6889 90.3576 42.6889C90.0968 41.1823 90.0968 40.0686 88.5974 39.4136C86.6417 38.562 83.1866 40.3962 82.9911 42.6889C82.6651 45.6368 85.5335 45.1782 87.3588 45.1127Z" fill="#E58C77"/>
<path d="M81.2309 33.4528C78.9493 34.1079 80.0575 39.676 81.8176 40.3966C82.8607 40.7896 83.7082 37.7763 83.7733 36.9247C83.8385 35.811 83.643 34.5664 82.2088 34.0424C81.6873 33.7803 82.0132 33.2563 81.2309 33.4528Z" fill="#C45F26"/>
<path d="M122.757 40.1344C123.67 36.5315 119.041 36.1385 118.194 39.3483C117.412 42.5582 121.975 43.2788 122.757 40.1344Z" fill="#062D52"/>
<path d="M14.0848 63.2584C14.9975 59.6555 10.369 59.2625 9.52152 62.4723C8.67404 65.7477 13.3026 66.4028 14.0848 63.2584Z" fill="#062D52"/>
<path d="M19.6912 30.0465C20.6038 26.4436 15.9753 26.0506 15.1278 29.2604C14.2804 32.4703 18.9089 33.1909 19.6912 30.0465Z" fill="#062D52"/>
<path d="M123.214 33.1251C123.279 34.0422 125.495 34.4352 126.147 35.3523C126.343 35.6799 126.929 38.8242 126.864 38.8242C128.494 39.2173 131.036 37.9071 131.297 36.0729C131.623 33.7802 128.82 32.601 127.06 32.339C126.343 32.2735 123.083 31.6839 123.214 33.1251Z" fill="#C45F26"/>
<path d="M115.912 27.6226C117.412 27.0986 118.846 27.4916 117.672 25.2644C117.151 24.2162 115.195 22.9061 114.152 22.6441C116.564 19.8928 113.109 16.2899 110.567 18.9102C109.002 18.1896 108.22 15.9623 106.46 15.0452C104.634 14.0626 102.809 13.8006 102.483 16.3554C102.092 19.5652 106.46 22.9061 109.132 23.1026C108.415 23.0371 108.806 27.1641 109.524 27.8191C111.284 29.3258 114.087 28.2777 115.912 27.6226Z" fill="#E58C77"/>
<path d="M110.045 41.3135C111.544 40.7895 112.979 41.1825 111.805 38.9553C111.284 37.9072 109.328 36.597 108.285 36.335C110.697 33.5837 107.242 29.9808 104.7 32.6011C103.135 31.8805 102.353 29.6532 100.593 28.7361C98.7672 27.7535 96.9418 27.4915 96.6159 30.0463C96.2247 33.2561 100.592 36.597 103.265 36.7935C102.548 36.728 102.939 40.855 103.656 41.5101C105.417 42.9512 108.155 41.9686 110.045 41.3135Z" fill="#DD4333"/>
<path d="M87.4892 59.6562C87.8803 58.1496 88.9886 57.1015 86.5113 56.8394C85.4031 56.7084 83.1866 57.6255 82.4043 58.4116C81.4917 54.8742 76.5372 55.7258 77.3195 59.3287C75.8201 60.2458 73.6036 59.7218 71.7783 60.6389C69.953 61.6215 68.7796 63.0626 70.7353 64.7003C73.2125 66.7965 78.3625 64.9623 79.9923 62.8006C79.536 63.3902 83.1866 65.2899 84.0993 65.0934C86.381 64.4383 87.0329 61.556 87.4892 59.6562Z" fill="#DD4333"/>
<path d="M44.985 64.1099C45.3762 62.6032 46.4844 61.5551 44.0072 61.293C42.899 61.162 40.6825 62.0791 39.9002 62.8652C38.9875 59.3278 34.0331 60.1794 34.8153 63.7823C33.316 64.6994 31.0995 64.1754 29.2742 65.0925C27.4488 66.0751 26.2754 67.5162 28.2311 69.1539C30.7083 71.2502 35.8584 69.4815 37.4881 67.2542C37.0318 67.8438 40.6825 69.7435 41.5951 69.547C43.8116 68.8919 44.4635 66.0096 44.985 64.1099Z" fill="#DD4333"/>
<path d="M73.7992 83.8935C74.7119 82.6488 76.0809 82.1248 73.9296 80.8802C72.9518 80.3561 70.5397 80.3561 69.5619 80.7491C70.0182 77.0807 65.1289 76.0981 64.5422 79.701C62.8472 80.0286 60.9567 78.6529 58.9358 78.8494C56.9149 79.0459 55.22 79.963 56.4586 82.1903C58.0232 85.0726 63.434 85.3347 65.7808 83.959C65.1941 84.352 67.8669 87.4964 68.7796 87.5619C70.9309 87.8894 72.6258 85.5312 73.7992 83.8935Z" fill="#DD4333"/>
<path d="M67.0194 35.4833C67.9321 34.2387 69.3011 33.7146 67.1498 32.47C66.1719 31.9459 63.7599 31.9459 62.782 32.339C63.2383 28.6706 58.3491 27.688 57.7624 31.2909C56.0674 31.6184 54.1769 30.2427 52.156 30.4393C50.1351 30.6358 48.4401 31.5529 49.6787 33.7801C51.2433 36.6625 56.6541 36.9245 59.001 35.5488C58.4143 35.9419 61.0871 39.0862 61.9997 39.1517C64.151 39.4793 65.846 37.121 67.0194 35.4833Z" fill="#DD4333"/>
<path d="M35.4021 29.5877C36.3147 28.3431 37.6837 27.819 35.5325 26.5744C34.5546 26.0503 32.1426 26.0503 31.1647 26.4434C31.621 22.8405 26.7318 21.7923 26.0799 25.4607C24.3849 25.7883 22.4944 24.4126 20.4735 24.6091C18.4526 24.8057 16.7576 25.7228 17.9962 27.95C19.5608 30.8323 24.9716 31.0944 27.3185 29.7187C26.7318 30.0463 29.4046 33.2561 30.3172 33.3216C32.5337 33.5836 34.2287 31.1599 35.4021 29.5877Z" fill="#DD4333"/>
<path d="M86.2506 10.853C87.1633 9.60833 88.5323 9.08427 86.381 7.83963C85.4031 7.31557 82.9911 7.31557 82.0132 7.70861C82.4695 4.0402 77.5803 3.05759 76.9936 6.6605C75.2986 6.98803 73.4081 5.61238 71.3872 5.8089C69.3663 6.00542 67.6713 6.92253 68.9099 9.14977C70.4745 12.0321 75.8853 12.2941 78.2322 10.9185C77.6455 11.3115 80.3183 14.4559 81.2309 14.5214C83.3822 14.8489 85.0772 12.4906 86.2506 10.853Z" fill="#DD4333"/>
<path d="M132.34 66.6645C133.253 65.4198 134.622 64.8958 132.471 63.6512C131.493 63.1271 129.081 63.1271 128.103 63.5201C128.559 59.8517 123.67 58.8691 123.083 62.472C121.388 62.7996 119.498 61.4239 117.477 61.6204C115.456 61.8169 113.761 62.7341 115 64.9613C116.564 67.8436 121.975 68.1056 124.322 66.73C123.735 67.123 126.408 70.2674 127.321 70.3329C129.472 70.6604 131.167 68.3022 132.34 66.6645Z" fill="#DD4333"/>
<path d="M60.2403 29.1945C60.6968 29.129 60.762 29.3255 61.1532 29.26C61.2836 31.3562 58.6101 33.8455 57.6972 30.7667C57.2408 29.1945 59.197 23.3643 61.1532 23.2988C61.0228 23.2988 60.0447 28.8014 60.2403 29.1945Z" fill="#C45F26"/>
<path d="M63.7599 27.8192C61.8041 28.9983 62.6516 30.3085 64.5421 30.243C65.3896 30.243 67.4757 28.6708 67.0194 31.2911C66.7586 32.8633 65.1289 32.5357 64.2814 33.2563C62.0649 35.025 65.3896 35.2215 66.7586 35.2215C68.0624 35.2215 69.7574 35.7456 70.8004 35.2215C72.8865 34.1734 72.4954 31.0946 71.5175 29.5879C69.7574 27.1641 66.1719 26.3125 63.7599 27.8192Z" fill="#E58C77"/>
<path d="M68.9099 22.1199C69.8878 22.3819 69.2359 22.906 70.4093 22.3164C71.1916 21.9234 71.5827 21.0063 71.4524 20.1547C70.8656 15.3071 58.2187 19.2376 68.9099 22.1199Z" fill="#C45F26"/>
<path d="M83.9689 14.5865C85.1424 16.2242 85.2076 19.172 85.2076 21.0717C87.1633 20.6787 86.2506 14.914 85.4031 13.6039C84.8164 12.6868 83.5778 11.1801 82.6651 10.6561C81.5569 10.0665 80.0575 10.5906 79.1449 10.0665C78.2322 9.47693 78.3626 8.16678 77.1891 7.90475C75.1682 7.4462 75.3638 9.60794 74.8423 10.6561C74.5163 11.3111 71.5828 13.6694 71.8435 14.39C72.1695 15.3071 76.6676 13.2763 77.2543 13.0798C79.6012 12.3592 82.274 12.1627 83.9689 14.5865Z" fill="#E58C77"/>
<path d="M82.991 24.4778C81.622 24.8054 81.7524 23.4952 80.0575 24.4778C78.8189 25.1984 77.6454 26.8361 77.1239 28.2118C77.2543 25.5915 78.3625 22.7091 80.8398 21.9231C80.1227 20.2854 83.1866 15.8964 84.686 17.7306C85.2727 18.4512 82.7955 19.9578 82.9258 21.137C83.0562 22.3161 85.2075 23.8883 82.991 24.4778Z" fill="#C45F26"/>
<path d="M53.851 9.80433C54.6332 9.28027 55.6763 6.92201 55.2852 6.07041C54.1117 3.45012 50.2003 4.56374 50.8522 7.57708C49.8743 7.38056 48.8965 6.8565 48.2446 7.90462C46.6148 10.4594 52.8079 10.5904 53.851 9.80433Z" fill="#C45F26"/>
<path d="M78.6885 4.49837C75.6246 4.03982 77.2544 8.16678 79.0797 8.75634C82.3392 9.86997 86.1202 8.16678 89.4449 9.47693C90.5532 9.93548 90.488 11.7697 92.1829 10.5905C93.0304 10.001 93.8779 8.10127 94.6602 7.24968C93.4867 5.74301 92.8348 7.51171 91.7266 7.4462C90.7488 7.38069 90.6836 6.72562 89.7057 6.00504C87.4241 4.36736 85.9247 6.07055 83.5778 6.07055C83.0563 6.07055 81.4265 6.00504 81.0354 5.87402C80.1879 5.6775 79.6012 4.62939 78.6885 4.49837Z" fill="#C45F26"/>
<path d="M51.9605 42.8203C52.7427 42.5583 54.6985 39.8725 54.4377 38.8899C54.0466 37.5797 49.5484 35.418 49.744 38.1038C49.8092 38.8244 50.8522 39.4794 51.3086 39.807C50.4611 39.2174 48.5054 43.9994 51.9605 42.8203Z" fill="#C45F26"/>
<path d="M27.2532 61.621C29.9912 63.3897 30.0564 62.6036 30.578 59.8523C31.0995 57.0355 30.1868 57.1665 27.84 55.9874C26.4058 55.2668 24.2545 53.8911 23.2766 52.6465C21.4513 55.6598 24.9064 60.1143 27.2532 61.621Z" fill="#C45F26"/>
<path d="M50.9174 51.795C51.3086 50.1573 56.1978 50.5503 56.0023 48.2576C55.9371 47.537 54.7636 47.275 54.6333 46.6854C54.2421 44.8512 57.0453 44.5892 56.589 42.6895C55.4807 42.4929 53.6554 44.7202 53.2643 45.7028C52.4168 47.668 53.3946 46.8819 54.2421 48.1921C52.6124 48.9781 49.0921 48.7816 48.5054 51.0089C48.1142 52.45 51.2434 55.7909 51.9605 53.5637C52.156 52.9741 50.7218 52.45 50.9174 51.795Z" fill="#DD4333"/>
<path d="M60.37 55.9871C61.3479 55.2665 61.9346 54.2839 62.9777 53.6288C64.0859 52.9738 65.5201 52.6462 66.6935 52.0567C70.279 50.288 68.91 46.4885 64.8682 47.2746C64.1511 47.4056 61.9998 48.3882 62.3909 49.3709C62.7169 50.2224 66.172 49.5674 66.8891 49.5674C66.6935 50.6155 65.3897 51.0085 64.5422 51.5981C64.0207 51.9911 62.8473 53.4978 62.3909 53.6943C60.696 54.4149 56.589 51.0085 56.5238 54.2839C56.4586 56.5111 59.001 56.9697 60.37 55.9871Z" fill="#C45F26"/>
<path d="M43.2249 19.4999C43.0293 19.3688 44.4635 17.6657 44.6591 17.5346C44.9851 17.2726 41.4648 14.7833 40.3565 15.5039C37.7489 17.2071 42.3774 18.7793 43.2249 19.4999Z" fill="#C45F26"/>
<path d="M25.3627 72.9533C25.4279 76.3597 30.4475 76.8837 31.621 73.8704C33.0552 70.202 25.2323 67.9093 25.3627 72.9533Z" fill="#062D52"/>
<path d="M96.2899 14.4562C96.3551 17.8626 101.375 18.3867 102.548 15.3733C103.982 11.7049 96.0943 9.41218 96.2899 14.4562Z" fill="#062D52"/>
</svg>
