<svg width="122" height="140" viewBox="0 0 122 140" fill="none" xmlns="http://www.w3.org/2000/svg">
<path d="M101.97 31.0137H83.9432V43.1257H101.97C106.34 43.1257 109.8 46.6125 109.8 51.0168V55.9718C109.8 70.8365 101.242 84.0496 88.1313 90.2891C89.0418 94.3264 90.1343 98.1803 91.4089 102.034C109.8 94.3265 122 76.1584 122 55.9718V51.2004C121.818 40.0059 112.895 31.0137 101.97 31.0137Z" fill="#B54E08"/>
<path d="M101.97 31.0137H83.9432V33.7664H100.331C110.528 33.7664 118.722 42.0246 118.722 52.3015V56.8893C118.722 75.6079 107.615 92.3078 90.6806 99.2814C90.3164 97.9968 90.6806 99.8319 91.4089 102.034C109.8 94.3265 122 76.1584 122 55.9718V51.2004C121.818 40.0059 112.895 31.0137 101.97 31.0137Z" fill="#D15906"/>
<path d="M112.714 55.0549V51.2011C112.714 45.3286 107.979 40.7407 102.334 40.7407H84.1254V43.3099H102.152C106.522 43.3099 109.982 46.7967 109.982 51.2011V56.156C109.982 71.0207 101.424 84.2338 88.3135 90.4734C88.4956 91.3909 88.6777 92.125 88.8598 93.0426C103.245 86.069 112.714 71.3878 112.714 55.0549Z" fill="#963F04"/>
<path d="M21.1224 22.9393C22.2149 21.1041 33.1403 17.9843 51.8955 17.9843C70.8329 17.9843 81.7582 21.2876 82.6687 22.9393H85.9463C85.9463 14.6811 53.3523 14.4976 51.8955 14.4976C50.4388 14.4976 17.8448 14.6811 17.8448 22.9393H21.1224Z" fill="#FBB03B"/>
<path d="M81.7583 11.5614C81.7583 5.13841 68.4657 0 52.0776 0C35.6896 0 22.3971 5.13841 22.3971 11.5614C22.3971 11.745 21.3045 17.801 21.3045 17.801V29.5459V30.8305C22.5791 34.6844 35.8717 37.6206 52.0776 37.6206C68.2836 37.6206 81.5762 34.6844 82.8508 30.8305V29.5459V17.801C82.6687 17.9845 81.7583 11.745 81.7583 11.5614Z" fill="#E6E6E6"/>
<path d="M72.6538 11.1941C73.018 11.3776 73.3822 11.5611 73.7464 11.7447C73.7464 11.3776 73.5643 11.0106 73.3822 10.6436L72.6538 11.1941Z" fill="#B3B3B3"/>
<path d="M78.2986 23.4895C78.1165 21.1038 78.1165 18.7181 77.2061 16.3324C76.4777 14.4973 75.3852 12.6621 73.7464 11.561C73.9285 12.6621 73.5643 13.9467 72.8359 14.8643C71.9255 16.1489 70.4688 16.883 68.8299 17.4335C63.3673 19.4522 57.3583 18.9017 51.7135 19.4522C50.9851 19.4522 50.0747 19.8192 50.0747 20.5533C50.0747 21.2874 50.9852 21.6544 51.5314 21.6544C55.9016 22.3884 60.2717 21.8379 64.6419 21.2874C66.0986 21.1038 67.9195 21.2873 68.2837 22.572C68.4658 23.4895 67.7374 24.5906 67.0091 24.9577C66.0986 25.5082 65.1882 25.6917 64.2777 26.4258C63.5493 26.9763 63.0031 28.2609 63.5493 28.995C63.9135 29.5455 64.6419 29.729 65.3702 29.9126C66.8269 30.2796 68.4658 30.4631 69.9225 30.8301C72.1075 31.1972 74.6568 31.5642 76.4777 30.2796C78.2986 28.995 78.4807 26.0587 78.2986 23.4895Z" fill="#B3B3B3"/>
<path d="M47.5253 5.50517C48.7999 5.32166 50.2567 5.32166 51.3492 4.58759C51.8955 4.22056 52.4417 3.48649 52.0776 2.93594L51.1671 2.75244C49.3462 3.11947 47.7074 3.11945 45.8865 3.30296C44.0656 3.48648 42.2447 4.03703 40.9701 5.13812C39.6955 6.42272 38.9671 8.4414 39.8776 9.90953C40.4238 11.0106 41.5164 11.5612 42.6089 12.1117C43.5194 12.4787 44.794 12.6623 45.7044 12.2952C45.8865 12.2952 46.0686 12.1117 46.2507 11.9282C46.6149 11.3777 46.0686 10.8271 45.7044 10.6436C45.1582 10.4601 44.6119 10.2766 44.2477 10.0931C43.1552 9.35899 43.3373 7.52382 44.2477 6.60625C44.9761 5.87218 46.2507 5.68869 47.5253 5.50517Z" fill="#B3B3B3"/>
<path d="M58.9971 4.4043C59.7254 4.4043 60.6359 4.58782 61.3642 4.95485C61.3642 4.95485 61.3642 4.77134 61.1821 4.58782L58.9971 4.4043Z" fill="#B3B3B3"/>
<path d="M58.2687 11.7451C59.7254 12.2957 61.1821 12.1122 62.6388 11.7451C63.7313 11.3781 65.006 10.8276 65.3702 9.72646C65.9164 8.07482 64.4597 6.6067 63.1851 5.68913C62.6388 5.3221 61.9105 5.13859 61.3642 4.95508C62.0925 6.60672 61.5463 8.80889 59.9075 9.35943C59.3612 9.54295 58.8149 9.72647 58.2687 9.90999C57.7224 10.277 57.5403 11.0111 57.9045 11.3781C57.9045 11.5616 58.0866 11.7451 58.2687 11.7451Z" fill="#B3B3B3"/>
<path d="M39.8776 22.2057C37.8747 21.1046 35.8717 20.0035 33.6866 19.0859C31.3194 17.8013 28.9523 16.7002 26.403 16.7002L27.6776 16.8837C27.3135 16.8837 26.9493 17.4343 27.1314 17.8013C27.1314 18.3518 27.6776 18.7189 28.0418 19.0859C30.9552 21.2881 34.415 22.9397 38.0567 23.6738C38.7851 23.8573 39.5135 23.8573 40.0597 23.6738C40.2418 23.4903 40.4239 23.4903 40.4239 23.1232C40.606 22.7562 40.2418 22.3892 39.8776 22.2057Z" fill="#B3B3B3"/>
<path d="M49.5284 25.325C50.6209 25.325 50.6209 23.6733 49.5284 23.6733C48.4358 23.6733 48.4358 25.325 49.5284 25.325Z" fill="white"/>
<path d="M42.9731 23.1233C44.0656 23.1233 44.0656 21.4717 42.9731 21.4717C41.8806 21.4717 41.8806 23.1233 42.9731 23.1233Z" fill="white"/>
<path d="M50.803 11.1938C50.985 11.1938 50.9851 11.1938 50.9851 11.0103C50.9851 11.0103 50.985 11.0103 51.1671 11.0103C51.5313 11.0103 51.8955 10.6433 51.8955 10.4598C51.8955 10.8268 52.0776 11.0103 52.6238 11.0103C53.5343 11.0103 53.7164 9.54218 52.6238 9.54218C52.4418 9.54218 52.2597 9.54217 52.0776 9.72568C52.0776 9.35865 51.8955 8.80811 51.3492 8.80811C51.1671 8.80811 51.1671 8.80812 51.1671 8.99163C51.1671 8.99163 51.1671 8.99163 50.9851 8.99163C50.4388 8.99163 50.2567 9.35866 50.2567 9.90921C49.7104 10.2762 49.8925 11.1938 50.803 11.1938Z" fill="white"/>
<path d="M53.1701 2.56911C54.2626 2.56911 54.2626 0.91748 53.1701 0.91748C52.2596 0.91748 52.0775 2.56911 53.1701 2.56911Z" fill="white"/>
<path d="M54.6269 5.32178C53.5344 5.32178 53.5344 6.78991 54.6269 6.78991C55.7194 6.78991 55.7194 5.32178 54.6269 5.32178Z" fill="white"/>
<path d="M56.2657 21.4711C56.4478 21.4711 56.4478 21.6546 56.2657 21.4711C57.3582 21.4711 57.5403 20.0029 56.4478 20.0029C56.4478 20.0029 56.4478 20.0029 56.2657 20.0029C55.3552 20.0029 55.1731 21.4711 56.2657 21.4711Z" fill="white"/>
<path d="M63.1851 25.6924C62.2747 25.6924 62.0926 27.1605 63.1851 27.1605C64.0955 27.1605 64.2776 25.6924 63.1851 25.6924Z" fill="white"/>
<path d="M66.2806 25.3251C67.1911 25.3251 67.3732 23.6735 66.2806 23.6735C65.9165 23.6735 65.7344 23.857 65.5523 24.0405C65.5523 24.0405 65.5523 24.0405 65.3702 24.0405C65.5523 23.49 65.3702 22.9395 64.6418 22.9395C64.2777 22.9395 64.0956 23.1229 63.9135 23.49C63.7314 23.49 63.5493 23.6735 63.5493 23.857C63.3672 23.857 63.1851 24.0405 63.003 24.0405C63.003 23.6735 62.8209 23.49 62.2747 23.49C61.1821 23.49 61.1821 24.9581 62.2747 24.9581C62.4568 24.9581 62.6388 24.7746 62.8209 24.7746C62.8209 24.9581 62.8209 25.1416 63.003 25.1416C63.1851 25.3251 63.3672 25.5087 63.3672 25.5087C63.9135 26.0592 64.6418 25.6922 64.6418 25.1416C64.8239 25.3251 65.006 25.6922 65.3702 25.6922C65.9165 25.6922 66.0985 25.5086 66.2806 25.3251Z" fill="white"/>
<path d="M58.0866 26.6096C58.2687 26.6096 58.2687 26.6096 58.0866 26.6096C58.2687 26.6096 58.4507 26.7931 58.6328 26.7931C59.5433 26.7931 59.7254 25.3249 58.8149 25.3249C58.6328 25.1414 58.4507 24.7744 58.0866 24.7744C57.5403 24.7744 57.3582 25.325 57.3582 25.692C57.3582 26.059 57.5403 26.6096 58.0866 26.6096Z" fill="white"/>
<path d="M46.4328 4.40481C46.797 4.40481 46.9791 4.2213 47.1612 4.03779C47.3432 4.03779 47.3432 4.22129 47.5253 4.22129C48.0716 4.22129 48.2537 3.85427 48.2537 3.48724C48.9821 3.30372 49.1641 2.20264 48.0716 2.20264C47.5253 2.20264 47.3433 2.56966 47.3433 2.93669C47.1612 2.93669 46.9791 3.1202 46.797 3.30371C46.6149 3.30371 46.6149 3.12021 46.4328 3.12021C45.3403 2.75318 45.3403 4.40481 46.4328 4.40481Z" fill="white"/>
<path d="M50.8029 35.6016C49.7104 35.6016 49.7104 37.2532 50.8029 37.2532C51.7134 37.0697 51.8955 35.6016 50.8029 35.6016Z" fill="white"/>
<path d="M74.6567 11.3784C74.4746 11.3784 74.4746 11.3784 74.4746 11.3784C74.1104 11.3784 73.9283 11.5619 73.9283 11.7454C73.1999 11.929 73.1999 13.03 74.1104 13.03C74.2925 13.03 74.4746 13.0301 74.6567 12.8465C74.6567 12.8465 74.6567 12.8465 74.8387 12.8465C75.5671 12.8465 75.7492 11.3784 74.6567 11.3784Z" fill="white"/>
<path d="M71.5612 8.44189C70.4687 8.44189 70.4687 10.0935 71.5612 10.0935C72.4717 9.91003 72.6538 8.44189 71.5612 8.44189Z" fill="white"/>
<path d="M69.7402 10.4598C70.8328 10.4598 70.8328 8.80811 69.7402 8.80811C68.6477 8.80811 68.6477 10.4598 69.7402 10.4598Z" fill="white"/>
<path d="M71.3791 4.77174C72.4716 4.77174 72.4716 3.12012 71.3791 3.12012C70.2866 3.30363 70.2866 4.77174 71.3791 4.77174Z" fill="white"/>
<path d="M65.188 3.11943C66.2805 3.11943 66.2805 1.46777 65.188 1.46777C64.0955 1.65129 64.0955 3.11943 65.188 3.11943Z" fill="white"/>
<path d="M78.6626 10.8276C79.7552 10.8276 79.7552 9.35945 78.6626 9.35945C77.7522 9.17593 77.5701 10.8276 78.6626 10.8276Z" fill="white"/>
<path d="M79.3911 12.6626C78.8448 12.6626 78.4806 13.2131 78.6627 13.5802C78.4806 13.5802 78.4806 13.3966 78.2985 13.3966C77.206 13.3966 77.206 14.8648 78.2985 14.8648C78.8448 14.8648 79.209 14.3142 79.0269 13.9472C79.209 13.9472 79.209 14.1307 79.3911 14.1307C79.5731 14.1307 79.7552 14.1307 79.9373 13.9472C80.1194 14.1307 80.3015 14.1307 80.4836 14.1307C81.394 14.1307 81.5761 12.6626 80.4836 12.6626C80.3015 12.6626 80.1194 12.6626 79.9373 12.8461C79.7552 12.6626 79.5731 12.6626 79.3911 12.6626Z" fill="white"/>
<path d="M79.0269 15.0483C78.6627 15.0483 78.4806 15.2318 78.2985 15.5988C78.2985 15.2318 78.1164 14.8647 77.5701 14.8647C76.4776 14.8647 76.4776 16.5164 77.5701 16.5164C77.9343 16.5164 78.1164 16.3329 78.2985 15.9658C78.2985 16.1494 78.4806 16.5164 78.8448 16.5164V16.6999C78.4806 16.8834 78.2985 17.0669 78.2985 17.434C78.2985 17.6175 78.2985 17.801 78.4806 17.9845C77.9343 18.3515 77.9343 19.2691 78.8448 19.2691C79.0269 19.2691 79.209 19.2691 79.209 19.0856C79.0269 19.4526 79.209 20.0032 79.7552 20.0032C80.6657 20.0032 80.8478 18.5351 79.7552 18.5351C79.5731 18.5351 79.391 18.5351 79.391 18.7186C79.5731 18.5351 79.5731 18.168 79.391 17.9845C79.5731 17.801 79.7552 17.6175 79.7552 17.434C79.7552 17.434 79.9373 17.434 79.9373 17.2505C80.6657 17.0669 80.6657 15.7823 79.7552 15.7823C79.7552 15.7823 79.7552 15.7823 79.5731 15.7823C79.7552 15.5988 79.5731 15.0483 79.0269 15.0483Z" fill="white"/>
<path d="M79.0268 22.9395C77.9343 22.9395 77.9343 24.5911 79.0268 24.5911C79.9372 24.5911 79.9372 22.9395 79.0268 22.9395Z" fill="white"/>
<path d="M75.7492 24.0404C75.9313 23.6734 75.7492 23.1228 75.0208 23.1228C74.8388 23.1228 74.8388 23.1228 74.6567 23.1228C74.6567 22.9393 74.6567 22.9393 74.4746 22.7558C74.6567 22.7558 74.6567 22.9393 74.8387 22.9393C75.5671 22.9393 75.7492 22.2053 75.5671 21.8382C76.2955 21.4712 76.2955 20.3701 75.385 20.3701C74.6567 20.3701 74.4746 21.1042 74.6567 21.4712C74.1104 21.6547 74.1104 22.2053 74.2925 22.5723C74.1104 22.5723 74.1104 22.3888 73.9283 22.3888C73.382 22.3888 73.1999 22.9393 73.1999 23.3064C72.4716 23.4899 72.4716 24.591 73.1999 24.7745H73.0178C72.8358 24.591 72.6537 24.4074 72.4716 24.4074C71.7432 24.4074 71.5611 25.1415 71.7432 25.6921C71.197 26.0591 71.379 26.9767 72.1074 26.9767C72.6537 26.9767 73.0179 26.4261 72.8358 26.0591C73.0179 26.0591 73.0179 26.2426 73.1999 26.2426C73.382 26.2426 73.5641 26.0591 73.7462 26.0591C73.7462 26.4261 73.9283 26.7932 74.2925 26.7932C73.382 26.9767 73.382 28.4448 74.4746 28.4448C75.5671 28.4448 75.5671 26.9767 74.6567 26.7932C75.5671 26.6096 75.5671 25.325 74.6567 25.325C74.4746 25.325 74.2925 25.325 74.1104 25.5086C74.1104 25.1415 73.9283 24.7745 73.5641 24.7745C73.9283 24.7745 74.1104 24.591 74.1104 24.4074C74.2925 24.591 74.4746 24.591 74.6567 24.591C74.2925 25.325 75.2029 26.0591 75.9313 25.325L76.1134 25.1415C76.4776 24.7745 76.1134 24.2239 75.7492 24.0404Z" fill="white"/>
<path d="M51.1671 19.8193C50.0746 19.8193 50.0746 21.2875 51.1671 21.2875C52.0776 21.2875 52.2597 19.8193 51.1671 19.8193Z" fill="white"/>
<path d="M46.0687 13.2128C47.1612 13.2128 47.1612 11.7446 46.0687 11.7446C44.9761 11.7446 44.9761 13.2128 46.0687 13.2128Z" fill="white"/>
<path d="M60.8179 22.9398C61.9105 22.9398 61.9105 21.4717 60.8179 21.4717C59.9075 21.4717 59.7254 22.9398 60.8179 22.9398Z" fill="white"/>
<path d="M59.9075 20.1865C58.8149 20.1865 58.8149 21.6546 59.9075 21.6546C60.8179 21.6546 60.8179 20.1865 59.9075 20.1865Z" fill="white"/>
<path d="M69.5583 27.3438C68.4658 27.3438 68.4658 28.8119 69.5583 28.8119C70.4687 28.8119 70.6508 27.3438 69.5583 27.3438Z" fill="white"/>
<path d="M64.6418 29.5458H64.4597C64.6418 28.9953 64.4597 28.2612 63.7314 28.2612C62.6389 28.2612 62.6389 29.9129 63.7314 29.9129H63.9135C63.7314 30.2799 63.9135 30.8304 64.4597 30.8304C65.5523 31.0139 65.5523 29.5458 64.6418 29.5458Z" fill="white"/>
<path d="M68.1015 29.9126C67.191 29.9126 67.0089 31.3807 68.1015 31.3807C69.0119 31.1972 69.194 29.9126 68.1015 29.9126Z" fill="white"/>
<path d="M71.7432 30.6475C70.6507 30.6475 70.6507 32.2991 71.7432 32.2991C72.8358 32.1156 72.8358 30.6475 71.7432 30.6475Z" fill="white"/>
<path d="M74.2925 31.9316C73.1999 31.9316 73.1999 33.3998 74.2925 33.3998C75.2029 33.3998 75.2029 31.9316 74.2925 31.9316Z" fill="white"/>
<path d="M78.2985 31.3813C77.206 31.3813 77.206 33.033 78.2985 33.033C79.3911 33.033 79.3911 31.3813 78.2985 31.3813Z" fill="white"/>
<path d="M77.7523 29.9128C77.7523 28.9952 76.1135 28.9952 76.1135 29.9128V30.0963C76.1135 31.0139 77.7523 31.0139 77.7523 30.0963V29.9128Z" fill="white"/>
<path d="M79.7553 27.5277C80.8478 27.5277 80.8478 26.0596 79.7553 26.0596C78.6627 26.0596 78.6627 27.5277 79.7553 27.5277Z" fill="white"/>
<path d="M79.7553 27.7107C79.209 27.7107 79.0269 28.0778 79.0269 28.4448H78.8448C79.3911 28.0778 79.209 27.1602 78.2985 27.1602C77.3881 27.1602 77.206 28.2613 77.9344 28.6283C77.3881 28.9953 77.5702 30.0964 78.4806 30.0964C79.0269 30.0964 79.209 29.7294 79.209 29.3624C79.3911 29.3624 79.3911 29.5459 79.5732 29.5459C80.8478 29.3623 80.8478 27.7107 79.7553 27.7107Z" fill="white"/>
<path d="M80.6657 30.8301C79.5731 30.8301 79.5731 32.2982 80.6657 32.2982C81.5761 32.2982 81.5761 30.8301 80.6657 30.8301Z" fill="white"/>
<path d="M71.3791 32.6655C71.197 32.6655 71.015 32.6655 71.015 32.6655C69.9224 32.6655 69.9224 34.3172 71.015 34.3172C71.197 34.3172 71.3791 34.3172 71.3791 34.3172C72.2896 34.3172 72.4717 32.6655 71.3791 32.6655Z" fill="white"/>
<path d="M67.5552 34.3179C67.3731 34.3179 67.191 34.3179 67.191 34.3179C66.0984 34.3179 66.0984 35.786 67.191 35.786C67.3731 35.786 67.5552 35.786 67.5552 35.786C68.6477 35.786 68.6477 34.3179 67.5552 34.3179Z" fill="white"/>
<path d="M56.6298 35.418C55.5372 35.418 55.5372 36.8861 56.6298 36.8861C57.5402 36.8861 57.5402 35.418 56.6298 35.418Z" fill="white"/>
<path d="M52.0776 25.5087C53.1701 25.5087 53.1701 24.0405 52.0776 24.0405C51.1672 24.0405 51.1672 25.5087 52.0776 25.5087Z" fill="white"/>
<path d="M56.0835 23.4902C56.6298 23.1231 56.4477 22.2056 55.5373 22.2056C54.991 22.2056 54.8089 22.5726 54.8089 22.9396C54.4447 23.3067 54.4447 24.2242 55.3552 24.2242C55.7193 24.0407 55.9014 23.8572 56.0835 23.4902Z" fill="white"/>
<path d="M38.603 21.1044C39.6955 21.1044 39.6955 19.6362 38.603 19.6362C37.6926 19.6362 37.5105 21.1044 38.603 21.1044Z" fill="white"/>
<path d="M22.397 15.7825C21.3044 15.7825 21.3044 17.2506 22.397 17.2506C23.3074 17.2506 23.4895 15.7825 22.397 15.7825Z" fill="white"/>
<path d="M41.3344 21.6547C42.4269 21.6547 42.4269 20.1866 41.3344 20.1866C40.2418 20.0031 40.2418 21.6547 41.3344 21.6547Z" fill="white"/>
<path d="M36.9642 20.7374C37.8746 20.7374 38.0567 19.4528 37.1462 19.2693C37.5104 18.9023 37.3283 17.9847 36.6 17.9847C36.2358 17.9847 36.0537 18.1682 36.0537 18.3518C35.8716 18.3518 35.8716 18.1682 35.6895 18.1682C35.5074 18.1682 35.5074 18.1682 35.5074 18.3518C35.5074 17.9847 35.3253 17.6177 34.7791 17.6177C33.6865 17.6177 33.6865 19.2693 34.7791 19.2693C34.9611 19.2693 34.9612 19.2693 34.9612 19.0858C34.9612 19.4528 35.1432 19.8199 35.6895 19.8199C36.0537 19.8199 36.2358 19.6363 36.4179 19.4528C36.4179 19.4528 36.6 19.4528 36.6 19.6364C36.0537 19.8199 36.2358 20.7374 36.9642 20.7374Z" fill="white"/>
<path d="M69.5582 22.0214C69.9223 21.6544 69.7402 20.7368 69.0119 20.7368C68.6477 20.7368 68.4656 20.9204 68.4656 21.1039C68.2835 21.2874 68.1014 21.4709 68.1014 21.6544V21.8379C68.1014 22.7555 69.3761 22.7555 69.5582 22.0214Z" fill="white"/>
<path d="M73.3821 22.205C74.4746 22.205 74.4746 20.7369 73.3821 20.7369C72.2895 20.5534 72.2895 22.205 73.3821 22.205Z" fill="white"/>
<path d="M72.2896 22.2049C72.2896 22.0214 72.1075 22.0214 71.9254 21.8379C72.2896 21.4709 72.1075 20.7368 71.3792 20.7368C71.015 20.7368 70.8329 20.9204 70.6508 21.1039C69.7404 21.1039 69.7403 22.3885 70.2866 22.572C70.2866 22.7555 70.4687 22.939 70.8329 22.939C70.8329 23.1225 71.015 23.1225 71.1971 23.1225C71.3792 23.4896 71.5613 23.6731 71.9254 23.6731C72.8359 23.6731 73.018 22.3885 72.2896 22.2049Z" fill="white"/>
<path d="M68.8299 24.7746C69.012 24.7746 69.012 24.9581 68.8299 24.7746C69.012 25.1416 69.194 25.3252 69.3761 25.5087C69.9224 26.4262 71.3791 25.5087 70.8328 24.7746C70.6507 24.5911 70.4687 24.4076 70.4687 24.2241C70.1045 23.6735 69.194 23.857 69.0119 24.4076C69.0119 24.2241 68.8299 24.0405 68.6478 24.0405C68.4657 23.3065 67.191 23.49 67.191 24.2241V24.4076C67.191 24.7746 67.5552 24.9581 67.7373 25.1416C67.9194 25.3252 68.1015 25.5087 68.2836 25.5087C68.6478 25.3252 68.8299 25.1416 68.8299 24.7746Z" fill="white"/>
<path d="M77.206 23.6737C78.2985 23.6737 78.2985 22.2056 77.206 22.2056C76.2955 22.2056 76.1134 23.6737 77.206 23.6737Z" fill="white"/>
<path d="M81.5761 21.8379C81.0298 21.8379 80.6656 22.3884 80.8477 22.7555C80.1193 23.1225 80.3014 24.2236 81.2119 24.2236C81.7581 24.2236 82.1223 23.673 81.9402 23.306C82.4865 22.939 82.4865 21.8379 81.5761 21.8379Z" fill="white"/>
<path d="M81.576 18.5346C82.6686 18.5346 82.6686 17.0665 81.576 17.0665C80.6656 16.883 80.4835 18.5346 81.576 18.5346Z" fill="white"/>
<path d="M80.4836 20.0029C80.1194 20.0029 79.9373 20.1864 79.7553 20.3699C79.7553 20.3699 79.7552 20.3699 79.5732 20.3699C79.3911 20.3699 79.209 20.5534 79.0269 20.5534C79.0269 20.1864 78.8448 19.8193 78.2985 19.8193C77.206 19.8193 77.206 21.2875 78.2985 21.2875C78.4806 21.2875 78.6627 21.104 78.8448 21.104C78.8448 21.471 79.0269 22.0215 79.5732 22.0215C79.9373 22.0215 80.1194 21.838 80.3015 21.471C80.3015 21.471 80.3015 21.471 80.4836 21.471C81.394 21.471 81.394 20.0029 80.4836 20.0029Z" fill="white"/>
<path d="M76.2955 20.3709C77.388 20.3709 77.388 18.7192 76.2955 18.7192C75.2029 18.7192 75.2029 20.3709 76.2955 20.3709Z" fill="white"/>
<path d="M80.6657 15.7821C81.5761 15.7821 81.7582 14.314 80.6657 14.314C79.7552 14.314 79.7552 15.7821 80.6657 15.7821Z" fill="white"/>
<path d="M65.7343 21.1041C65.7343 21.1041 65.7343 21.2876 65.9164 21.2876C66.0985 21.8382 66.6448 21.6547 67.0089 21.4712C67.5552 21.4712 67.9194 21.1041 67.9194 20.7371C68.1015 20.5536 68.1015 20.1865 68.1015 20.003C68.2836 19.636 68.1015 19.0854 67.3731 19.0854C67.0089 19.0854 66.6447 19.4525 66.6447 19.636C66.0985 19.0855 65.188 19.8195 65.3701 20.5536C65.3701 20.7371 65.5522 20.9206 65.7343 21.1041Z" fill="white"/>
<path d="M67.1911 27.5275C66.4627 27.8946 66.4627 28.8121 67.3732 28.8121C67.7373 28.8121 67.9194 28.6286 68.1015 28.2616C68.8299 27.8946 68.8299 26.7935 67.9194 26.7935C67.3732 26.7935 67.1911 27.1605 67.1911 27.5275Z" fill="white"/>
<path d="M71.3791 30.2801C72.4716 30.2801 72.4716 28.6284 71.3791 28.6284C70.2866 28.6284 70.2866 30.2801 71.3791 30.2801Z" fill="white"/>
<path d="M66.6447 31.3813C65.5522 31.3813 65.5522 33.033 66.6447 33.033C67.5552 33.033 67.7373 31.3813 66.6447 31.3813Z" fill="white"/>
<path d="M64.0955 31.9316C63.7314 31.9316 63.5493 32.1152 63.3672 32.4822C63.1851 32.4822 63.1851 32.2987 63.003 32.2987C61.9105 32.2987 61.9105 33.9503 63.003 33.9503C63.3672 33.9503 63.5493 33.7668 63.7314 33.3998C63.9135 33.3998 63.9135 33.5833 64.0955 33.5833C65.1881 33.5833 65.1881 31.9316 64.0955 31.9316Z" fill="white"/>
<path d="M61.5463 32.2986C60.8179 32.2986 60.6358 32.8492 60.8179 33.3997C60.6358 33.2162 60.4537 33.2162 60.2716 33.2162C60.0895 33.2162 59.9075 33.3997 59.7254 33.3997C59.1791 33.2162 58.8149 33.2162 58.2687 33.0327C58.4507 32.6657 58.4507 31.9316 57.7224 31.9316C57.1761 31.9316 56.994 32.2986 56.994 32.4821C56.8119 32.4821 56.8119 32.4821 56.6298 32.4821C56.994 32.2986 57.1761 32.1151 57.1761 31.7481C57.3582 31.5645 57.5403 31.5645 57.5403 31.381C57.5403 31.381 57.5403 31.381 57.7224 31.1975C58.2686 31.1975 58.6328 30.647 58.4507 30.28C58.997 29.5459 59.5433 28.8118 60.0895 28.8118C60.2716 29.7294 61.7283 29.7294 61.7283 28.6283V28.4448C61.7283 28.0778 61.5462 27.8942 61.1821 27.7107C61.1821 27.3437 61 27.1602 60.6358 27.1602C57.3582 26.6096 57.7224 30.647 54.2627 30.8305C53.8985 30.8305 53.7164 31.014 53.7164 31.1975C53.5343 31.1975 53.1701 31.1975 52.988 31.1975C52.0776 30.647 51.3492 30.0964 50.4388 29.3624C50.6209 28.8118 50.6209 28.0777 49.8925 28.0777C49.5283 28.0777 49.3462 28.2613 49.3462 28.4448C49.3462 28.4448 49.3463 28.4448 49.1642 28.4448C48.9821 28.4448 48.8 28.2613 48.8 28.2613C48.6179 28.0778 48.4358 27.8942 48.2537 27.8942C48.2537 27.8942 48.2537 27.8942 48.0716 27.8942C48.2537 27.5272 48.0716 26.9767 47.3433 26.9767C46.797 26.9767 46.6149 27.3437 46.6149 27.7107C46.4328 27.5272 46.4328 27.3437 46.0686 27.1602C45.7045 26.9767 45.3403 26.9767 44.9761 26.9767C44.9761 26.7932 45.1582 26.4261 45.1582 26.2426C45.1582 26.2426 45.1582 26.2426 45.3403 26.2426C46.4328 26.2426 46.4328 24.591 45.3403 24.591C44.794 24.591 44.6119 24.958 44.6119 25.325C44.4298 25.325 44.4298 25.325 44.2477 25.325C43.8836 25.5085 43.5194 25.6921 42.9731 25.8756C42.9731 25.5085 42.791 25.1415 42.2448 25.1415C41.8806 25.1415 41.6985 25.325 41.5164 25.5085C40.788 25.1415 40.0597 24.7745 39.3313 24.4074V24.2239C39.3313 24.0404 39.3313 24.0404 39.3313 23.8569H39.5134C40.6059 23.8569 40.6059 22.2053 39.5134 22.2053C39.1492 22.2053 38.9671 22.3888 38.7851 22.7558H38.603C38.603 22.3888 38.4209 22.0218 37.8746 22.0218C37.3283 22.0218 37.1462 22.3888 37.1462 22.7558C36.7821 22.7558 36.4179 22.7558 36.2358 22.7558C36.0537 22.5723 35.6895 22.3888 35.5074 22.3888C35.3254 22.2053 34.9612 22.0218 34.7791 21.8382V21.6547C34.9612 21.8382 35.1433 21.8382 35.3253 21.8382C35.5074 21.8382 35.6895 21.8382 35.6895 21.6547C35.8716 21.8382 36.0537 22.0218 36.2358 22.0218C37.3283 22.0218 37.3283 20.3701 36.2358 20.3701C36.0537 20.3701 35.8716 20.3701 35.8716 20.5536C35.6895 20.3701 35.5074 20.1866 35.3253 20.1866C34.9612 20.1866 34.7791 20.3701 34.597 20.7371C34.4149 20.5536 34.2328 20.5536 34.0507 20.5536C33.6865 20.5536 33.5045 20.7372 33.3224 21.1042C32.594 20.7372 31.6835 20.5536 30.7731 20.3701C31.1373 19.8196 30.591 19.269 30.0448 19.269C30.591 19.0855 30.7731 18.7185 30.591 18.1679C30.591 18.1679 30.591 18.1679 30.7731 18.1679C31.3194 18.1679 31.6836 17.6174 31.5015 17.2504C32.2298 17.2504 32.7761 16.3328 32.0477 15.9658C31.8656 15.9658 31.6835 15.7822 31.6835 15.7822C31.5015 15.7822 31.5015 15.7822 31.5015 15.7822C31.5015 15.4152 31.3194 15.0482 30.7731 15.0482H30.591C29.6806 15.0482 29.6806 16.1493 30.2268 16.5163C30.4089 16.6998 30.591 16.6998 30.7731 16.8833C30.4089 17.0668 30.2268 17.4339 30.4089 17.8009C30.4089 17.8009 30.4089 17.8009 30.2268 17.8009C29.4985 17.8009 29.3164 18.3514 29.4985 18.902C29.3164 18.902 29.3164 18.902 29.1343 18.902C28.9522 19.0855 28.588 19.269 28.4059 19.4525C28.2238 19.269 28.0418 19.269 27.8597 19.269C27.6776 19.0855 27.4955 18.902 27.1313 18.902C26.2209 18.902 26.0388 20.3701 26.9492 20.3701L26.7671 20.5536C26.7671 20.5536 26.585 20.5536 26.585 20.3701C26.4029 20.1866 26.0388 20.1866 25.8567 20.1866C25.8567 19.8196 25.6746 19.4525 25.6746 19.0855C25.8567 18.902 25.8567 18.535 25.6746 18.1679C26.2209 17.9844 26.403 17.2504 25.8567 16.8833C25.8567 16.6998 25.8567 16.6998 25.8567 16.5163C26.0388 16.5163 26.2209 16.3328 26.403 16.1493C26.403 16.1493 26.4029 16.1493 26.585 16.1493C27.4955 16.1493 27.6776 14.6812 26.585 14.6812C26.2209 14.6812 26.0388 14.8647 25.8567 15.0482C25.8567 15.0482 25.8567 15.0482 25.6746 15.0482C25.1283 15.0482 24.9462 15.4152 24.9462 15.7822C24.9462 15.7822 24.7641 15.7822 24.7641 15.9658C24.9462 15.4152 24.7641 14.8647 24.0358 14.8647C22.9433 14.8647 22.9433 16.5163 24.0358 16.5163C24.2179 16.5163 24.2179 16.3328 24.4 16.3328C24.2179 16.6998 24.2179 17.0668 24.5821 17.2504C24.5821 17.4339 24.5821 17.6174 24.5821 17.8009C24.2179 17.9844 24.0358 18.1679 24.0358 18.535C24.0358 18.535 24.0358 18.7185 23.8537 18.7185C23.6716 18.535 23.4895 18.535 23.3074 18.535C22.2149 18.535 22.2149 20.0031 23.3074 20.0031C23.4895 20.0031 23.6716 20.0031 23.8537 19.8196C23.8537 21.2877 24.4 22.5723 25.1283 23.6734C25.1283 23.6734 24.9462 23.8569 24.9462 24.0404C24.9462 24.4074 24.7641 24.7745 24.7641 24.958C24.582 25.1415 24.5821 25.325 24.4 25.5085C23.6716 25.1415 22.9433 25.8756 23.3074 26.6096C23.8537 27.5272 24.4 28.2613 24.9462 28.9953C24.7641 29.1788 24.7642 29.1789 24.5821 29.3624C24.0358 30.0964 24.9462 30.647 25.4925 30.4635V30.647C25.4925 30.8305 25.6746 31.014 25.8567 31.014C25.3104 31.7481 26.585 32.4821 27.1313 31.9316C27.1313 32.1151 27.1313 32.2986 27.3134 32.4821C28.2239 33.3997 28.9522 33.7667 30.2268 34.1338H30.4089C31.3194 34.5008 32.2298 34.5008 33.3224 34.3173C33.5045 34.3173 33.5045 34.1338 33.6865 34.1338C33.8686 34.1338 33.8686 34.3173 34.0507 34.3173C35.6895 34.8678 37.3283 35.2348 39.1492 35.4184H39.3313C39.6955 35.4184 40.0597 35.6019 40.4239 35.6019C41.1522 35.6019 41.5164 34.5008 40.788 34.1338C41.8806 34.5008 43.1552 34.6843 44.2477 34.8678C44.794 35.0513 45.3403 34.6843 45.3403 34.1338C45.3403 33.5832 45.1582 33.2162 44.9761 32.8492C45.3403 32.6656 45.5224 32.2986 45.5224 31.9316C45.8866 32.1151 46.2507 32.2986 46.4328 32.4821C45.5224 32.6656 45.5224 33.9503 46.4328 33.9503C46.9791 33.9503 47.3433 33.3997 47.1612 33.0327C47.8895 33.3997 48.6179 33.5832 49.3462 33.9503C49.3462 34.1338 49.5284 34.3173 49.7104 34.3173C50.9851 34.8678 50.6209 34.8678 52.0776 35.0513C52.4418 35.0513 52.6239 35.0513 52.806 34.8678C54.991 35.2349 57.1761 35.4184 59.3612 35.2349C59.3612 35.6019 59.7254 35.9689 60.0895 35.9689C60.6358 35.9689 61 35.4184 60.8179 34.8678C61 34.8678 61 35.0513 61 35.0513C61.7284 35.0513 61.9104 34.3173 61.7283 33.9503C62.4567 33.2162 62.2746 32.2986 61.5463 32.2986ZM32.2298 28.8118C32.2298 28.8118 32.2298 28.9953 32.0477 28.9953H31.8656C31.8656 28.9953 31.8656 28.8118 32.2298 28.8118C32.0477 28.8118 32.0477 28.8118 32.2298 28.8118ZM26.585 26.7931C26.585 26.9767 26.585 26.9767 26.585 26.9767C26.585 26.7932 26.585 26.7931 26.585 26.7931ZM33.6865 23.6734C33.5045 23.6734 33.5045 23.8569 33.3224 23.8569C33.3224 23.8569 33.3224 23.8569 33.1403 23.8569C33.3224 23.8569 33.5045 23.6734 33.6865 23.6734ZM32.0477 22.9393C32.0477 22.7558 32.0477 22.7558 32.0477 22.9393V22.9393ZM41.8806 32.2986C41.6985 32.2986 41.6985 32.2986 41.8806 32.2986V32.2986Z" fill="white"/>
<path d="M54.6267 29.7297C55.5372 29.7297 55.7193 28.2616 54.8088 28.0781C55.3551 27.8945 55.5372 27.1605 55.173 26.7935C55.3551 26.2429 55.173 25.6924 54.4446 25.6924C53.5342 25.6924 53.5342 26.6099 53.8984 27.1605C53.7163 27.5275 53.8984 28.0781 54.4446 28.0781C53.7163 28.2616 53.7163 29.7297 54.6267 29.7297Z" fill="white"/>
<path d="M47.5253 23.3071C46.4328 23.3071 46.4328 24.9588 47.5253 24.9588C48.4358 24.9588 48.6179 23.3071 47.5253 23.3071Z" fill="white"/>
<path d="M48.2537 4.58785C48.2537 4.77137 48.0716 4.77136 48.0716 4.95488C47.7074 5.32191 47.7074 5.68892 48.0716 6.05595C47.8895 6.42298 47.8895 6.79002 48.0716 7.15705H47.8895C47.1612 7.15705 46.797 8.07462 47.3433 8.44166C46.797 8.62517 46.6149 9.35923 46.9791 9.72626C46.9791 10.0933 47.1612 10.4603 47.7074 10.4603C47.8895 10.4603 47.8895 10.4603 47.8895 10.4603C47.5254 10.8274 47.7074 11.5614 48.4358 11.5614C49.5283 11.5614 49.5283 10.0933 48.4358 10.0933C48.2537 10.0933 48.2537 10.0933 48.2537 10.2768C48.4358 9.90978 48.4358 9.54275 48.2537 9.35923C48.2537 9.17572 48.2537 8.9922 48.0716 8.80868C48.6179 8.62516 48.8 8.07462 48.4358 7.52408H48.6179C48.8 7.52408 48.9821 7.34058 48.9821 7.34058C48.4358 7.70761 48.4358 8.62518 49.1642 8.62518C49.3462 8.8087 49.5283 9.17573 49.8925 9.17573C50.985 9.17573 50.985 7.70761 49.8925 7.70761C49.8925 7.52409 49.7104 7.52408 49.5283 7.52408C50.0746 7.15705 50.0746 6.05595 49.1642 6.05595H48.9821C48.9821 5.87244 49.1641 5.87244 48.9821 5.68893C49.1641 5.50541 49.1642 5.13838 49.1642 4.77135C49.3462 4.2208 49.1641 3.67027 48.4358 3.67027C48.2537 3.48676 48.0716 4.0373 48.2537 4.58785Z" fill="white"/>
<path d="M49.7105 3.30381C49.8926 3.30381 50.0747 3.30382 50.0747 3.12031C50.2568 3.30382 50.4389 3.48733 50.621 3.48733C51.3493 3.48733 51.5314 2.93678 51.3493 2.38623C51.5314 1.83569 51.3493 1.28516 50.621 1.28516C50.2568 1.28516 50.0747 1.65219 49.8926 1.83571C49.7105 1.83571 49.7105 1.65218 49.5284 1.65218C48.8001 1.8357 48.618 3.30381 49.7105 3.30381Z" fill="white"/>
<path d="M41.1522 5.13814C40.606 5.50517 40.7881 6.42277 41.6985 6.42277C41.8806 6.42277 42.0627 6.23925 42.2448 6.23925C42.0627 6.60628 42.2448 7.34035 42.9731 7.34035C43.3373 7.34035 43.7015 6.97331 43.7015 6.7898C43.8836 6.97331 44.0657 6.9733 44.2478 6.9733C44.9762 6.9733 45.1582 6.42277 44.9761 5.87222C45.1582 6.05574 45.1582 6.05572 45.3403 6.05572C45.1582 6.42275 45.3403 6.9733 46.0687 6.9733C46.615 6.9733 46.9791 6.42275 46.797 6.05572C47.3433 5.68869 47.1612 4.58762 46.2508 4.58762C46.0687 4.58762 45.8866 4.77112 45.7045 4.77112C45.5224 4.77112 45.5224 4.58762 45.3403 4.58762C44.794 4.58762 44.4299 5.13817 44.612 5.5052C44.4299 5.32168 44.2478 5.32167 44.0657 5.32167C43.7015 5.32167 43.3373 5.68869 43.3373 6.05572C43.1553 5.87221 43.1552 5.87222 42.7911 5.87222C42.609 5.87222 42.4269 6.05572 42.2448 6.05572C42.609 6.05572 42.7911 5.87221 42.7911 5.6887C42.9732 5.6887 42.9732 5.87222 43.1552 5.87222C44.2478 5.87222 44.2478 4.22057 43.1552 4.22057C42.7911 4.22057 42.4269 4.5876 42.4269 4.77112C42.4269 4.40409 42.0627 4.22057 41.6985 4.22057C41.3343 4.03705 40.9702 4.5876 41.1522 5.13814Z" fill="white"/>
<path d="M43.5193 3.6706C44.0656 3.6706 44.2477 3.30355 44.2477 2.93652C44.2477 3.12004 44.4298 3.48708 44.976 3.48708C46.0686 3.48708 46.0686 2.01895 44.976 2.01895C44.6119 2.01895 44.4298 2.20247 44.2477 2.5695C44.2477 2.20247 44.0656 1.83545 43.5193 1.83545C42.973 1.83545 42.6089 2.386 42.791 2.75303C42.791 3.30357 42.973 3.6706 43.5193 3.6706Z" fill="white"/>
<path d="M38.7851 4.404C39.1493 4.404 39.3314 4.22048 39.5135 3.85345C39.6956 3.85345 39.6955 4.03698 39.8776 4.03698C40.0597 4.03698 40.2418 3.85345 40.4239 3.85345C40.606 3.85345 40.606 4.03698 40.7881 4.03698C41.6985 4.03698 41.8806 2.56885 40.7881 2.56885C40.606 2.56885 40.4239 2.56886 40.2418 2.75237C40.0597 2.56886 39.8777 2.56885 39.6956 2.56885C39.3314 2.56885 39.1493 2.75237 38.9672 3.1194C38.7851 3.1194 38.7851 2.93587 38.603 2.93587C37.8747 2.75236 37.6926 4.404 38.7851 4.404Z" fill="white"/>
<path d="M24.9463 13.2134C25.1283 13.2134 25.1283 13.2134 24.9463 13.2134C25.1283 13.2134 25.3104 13.2134 25.3104 13.2134H25.4925C25.3104 13.5804 25.3104 13.9475 25.6746 14.131C26.0388 14.3145 26.403 14.498 26.9493 14.6815C27.1313 14.6815 27.1313 14.6815 27.3134 14.6815C27.1313 15.0486 27.3134 15.5991 28.0418 15.5991C28.9522 15.5991 29.1343 14.3145 28.2239 14.131C28.2239 13.9475 28.2239 13.7639 28.0418 13.5804C28.2239 13.5804 28.2239 13.5804 28.4059 13.3969C28.4059 13.3969 28.406 13.5804 28.588 13.5804C28.588 13.9474 28.7701 14.3145 29.3164 14.3145H29.4985C29.3164 14.6815 29.4985 14.865 29.8627 15.0485C30.591 15.2321 31.3194 15.4156 32.0477 15.7826C31.6836 16.1496 31.8657 16.8837 32.594 16.8837H32.7761C32.9582 16.8837 33.1403 16.8837 33.1403 16.8837C33.5045 16.8837 33.8686 16.7002 33.8686 16.3331C34.0507 16.3331 34.4149 16.5167 34.597 16.5167C34.4149 16.8837 34.597 17.6177 35.1433 17.6177C35.6896 17.6177 35.8716 17.2507 35.8716 16.8837C36.2358 17.0672 36.7821 17.0672 37.1463 17.2507C37.1463 17.4342 37.1463 17.8013 37.3284 17.9848L37.5104 18.1683C37.6925 18.3518 37.6925 18.3518 37.8746 18.3518C37.6925 18.7189 37.8746 19.4529 38.4209 19.4529C38.603 19.4529 38.603 19.4529 38.603 19.4529C38.7851 19.6364 38.9672 19.6364 39.1493 19.6364C39.5134 19.6364 39.6955 19.4529 39.6955 19.2694C39.8776 19.4529 40.0597 19.6364 40.2418 19.6364C40.788 19.6364 40.9702 19.2694 40.9702 19.0859H41.1522C41.3343 19.4529 41.5164 19.6364 42.0627 19.6364C42.4269 19.6364 42.6089 19.4529 42.9731 19.4529C43.1552 19.6364 43.3373 19.6364 43.5194 19.6364H43.7015C43.8836 19.8199 44.0657 20.187 44.4298 20.187C44.6119 20.187 44.794 20.187 44.794 20.187C44.4298 20.554 44.6119 21.2881 45.3403 21.2881C45.5224 21.2881 45.7045 21.2881 45.7045 21.1046C45.8866 21.2881 46.0687 21.4716 46.4328 21.4716C47.5254 21.4716 47.5254 19.8199 46.4328 19.8199C46.2508 19.8199 46.0687 20.0035 46.0687 20.0035L45.8866 19.8199C46.2507 19.6364 46.2507 19.2694 46.2507 18.9023C46.4328 19.0859 46.6149 19.0859 46.797 19.0859C47.1612 19.0859 47.3433 18.9024 47.5254 18.5353C47.7075 18.5353 47.7075 18.3518 47.8896 18.3518C48.0717 18.3518 48.4358 18.3518 48.6179 18.3518C48.6179 18.7189 48.8 18.9023 49.1642 18.9023C48.6179 19.2694 48.6179 20.187 49.5284 20.187C50.4388 20.187 50.6209 19.0859 49.7105 18.7189C49.8926 18.7189 50.0746 18.7189 50.2567 18.7189C50.4388 18.7189 50.6209 18.5353 50.6209 18.5353C50.803 18.7188 50.9851 18.9023 51.1672 18.9023C51.1672 18.9023 51.1672 18.9023 51.3493 18.9023C51.3493 18.9023 51.3493 18.9023 51.5314 18.9023C51.5314 18.9023 51.5314 18.9024 51.5314 19.0859C50.9851 19.4529 50.9851 20.554 51.8955 20.554C52.2597 20.554 52.6239 20.187 52.6239 20.0035H52.806C52.806 20.3705 53.1702 20.554 53.5343 20.554C54.2627 20.554 54.4448 19.8199 54.2627 19.4529C54.4448 19.6364 54.6269 19.6364 54.809 19.6364C55.3552 19.6364 55.7194 19.0859 55.5373 18.7189C55.7194 18.9024 55.9015 18.9023 56.0836 18.9023C56.2657 18.9023 56.4478 18.7189 56.6298 18.7189C56.6298 18.9024 56.812 19.2694 56.9941 19.2694C56.6299 19.6364 56.8119 20.554 57.5403 20.554C57.9045 20.554 58.0866 20.3705 58.2687 20.0035C58.4508 20.187 58.6329 20.187 58.8149 20.187C59.5433 20.187 59.7254 19.6364 59.5433 19.0859C59.5433 18.9024 59.5433 18.7188 59.5433 18.5353C59.9075 18.5353 60.2717 18.1683 60.0896 17.8013C60.0896 17.8013 60.0896 17.8013 60.2716 17.8013C60.2716 18.1683 60.4538 18.5353 61 18.5353C60.8179 18.9024 61 19.4529 61.7284 19.4529H61.9105C62.0926 19.4529 62.2747 19.2694 62.4567 19.2694C62.4567 19.2694 62.6388 19.4529 62.8209 19.4529C62.4567 19.8199 62.6388 20.554 63.3672 20.554C63.9135 20.554 64.0955 20.187 64.0955 19.8199C65.1881 19.8199 65.1881 18.1683 64.0955 18.1683C63.9134 18.1683 63.7314 18.3518 63.5493 18.3518L63.3672 18.1683C63.3672 18.1683 63.3672 18.1683 63.5493 18.1683C63.7314 18.1683 63.9134 17.9848 63.9134 17.9848C64.0955 17.9848 64.0955 17.8013 64.0955 17.8013C64.2776 17.9848 64.4597 18.1683 64.6418 18.1683H64.8239C64.6418 18.7188 64.8239 19.2694 65.3702 19.2694C66.2806 19.2694 66.4627 18.1683 65.7343 17.8013C65.9164 17.6178 66.0985 17.6178 66.0985 17.4342C66.0985 17.8013 66.2806 17.9848 66.8269 17.9848C67.3731 17.9848 67.5552 17.4342 67.5552 17.0672C67.5552 16.8837 67.5552 16.8837 67.5552 16.7002V16.5167C67.7373 16.5167 67.9194 16.5167 68.1015 16.3331C68.1015 16.3331 68.1015 16.8837 68.1015 17.2507C67.9194 17.6178 67.9194 17.8013 68.2836 17.9848C68.2836 18.5353 68.4657 18.9024 68.4657 19.0859C68.2836 19.6364 68.6478 20.0035 69.1941 20.0035C69.5582 20.0035 69.9224 19.6364 69.9224 19.4529C70.2866 19.2694 70.6508 19.0859 71.0149 18.9023C71.197 18.9023 71.5612 18.9023 71.7433 18.9023C71.9254 18.9023 71.9254 19.0859 72.1075 19.0859C72.4717 19.0859 72.6538 18.9024 72.8358 18.7189C73.0179 18.7189 73.0179 18.9023 73.2 18.9023C73.7463 18.9023 74.1105 18.3518 73.9284 17.9848L74.1105 18.1683C73.9284 18.5353 74.1105 19.2694 74.8388 19.2694C75.9314 19.2694 75.9314 17.8013 74.8388 17.8013C74.8388 17.8013 74.8388 17.8013 74.8388 17.6177C75.0209 17.4342 75.203 17.2507 75.0209 16.8837C75.7493 16.7002 75.9314 15.5991 75.0209 15.4156C75.3851 15.0485 75.203 14.6815 75.0209 14.3145C75.9314 14.131 75.9314 12.8464 75.0209 12.8464C74.2926 12.8464 73.9284 13.7639 74.4746 14.131H74.2926C74.1105 14.131 73.9284 14.3145 73.9284 14.3145C73.2 14.6815 73.5642 15.5991 74.1105 15.7826C74.1105 15.9661 74.1105 16.1496 74.1105 16.3331C73.9284 16.5167 73.9284 16.7002 73.9284 16.7002C73.7463 16.8837 73.7463 17.0672 73.7463 17.4342C73.5642 17.4342 73.5642 17.2507 73.3821 17.2507C73.0179 17.2507 72.8358 17.4342 72.6537 17.6177H72.4717C72.8359 17.2507 73.0179 16.7002 72.4717 16.5167C73.2 16.1496 73.2 15.0485 72.2896 15.0485C71.5612 15.0485 71.3791 15.5991 71.5612 16.1496C71.5612 15.7826 71.3791 15.4156 70.8329 15.4156C70.4687 15.4156 70.2866 15.5991 70.2866 15.7826C70.2866 15.7826 70.1045 15.7826 70.1045 15.5991C70.4687 15.4156 70.6508 15.0486 70.4687 14.6815C70.4687 14.6815 70.4687 14.6815 70.6508 14.6815C71.197 14.6815 71.5612 14.131 71.3791 13.7639C71.3791 13.5804 71.3791 13.5804 71.3791 13.3969H71.5612C71.5612 13.5804 71.5612 13.5804 71.7433 13.5804C71.5612 13.9474 71.5612 14.131 71.9254 14.3145C71.9254 14.6815 72.1075 14.865 72.6537 14.865C73.0179 14.865 73.2 14.6815 73.2 14.498C73.7463 14.131 73.7463 13.5804 73.2 13.2134C73.3821 12.6628 73.0179 12.1123 72.4717 12.1123C72.2896 12.1123 72.1075 12.2958 71.9254 12.2958C71.9254 12.1123 71.7433 11.9288 71.3791 11.7453C71.3791 11.5617 71.3791 11.3782 71.197 11.1947C71.9254 11.0112 72.1075 9.72658 71.0149 9.72658C70.4687 9.72658 70.2866 10.0936 70.2866 10.4607C69.7403 10.6442 69.5582 11.1947 69.9224 11.5617V11.7453C69.3761 12.1123 69.3761 13.0299 70.1045 13.0299V13.2134C70.1045 13.3969 70.1045 13.5804 70.1045 13.7639C70.1045 13.7639 70.1045 13.7639 69.9224 13.7639C69.7403 13.7639 69.7403 13.7639 69.7403 13.9474C69.5582 13.9474 69.5582 13.7639 69.3761 13.7639C69.194 13.7639 69.1941 13.7639 69.1941 13.9474C69.1941 13.7639 69.1941 13.7639 69.1941 13.3969C69.1941 13.0299 68.8299 12.6628 68.4657 12.6628C68.4657 12.4793 68.2836 12.1123 68.1015 12.1123L68.2836 11.9288C68.4657 11.7453 68.4657 11.7453 68.4657 11.5617C68.8299 11.1947 68.8299 10.2771 68.1015 10.2771C68.1015 9.91011 67.9194 9.7266 67.5552 9.54309C67.5552 9.17606 67.3731 8.80902 66.8269 8.62551C66.6448 8.25848 66.2806 7.89144 65.9164 7.52441C65.5523 7.15738 65.1881 6.79035 64.8239 6.60683C65.006 6.60683 65.1881 6.42332 65.1881 6.23981C65.1881 6.60684 65.3702 7.15738 65.9164 7.15738C66.4627 7.15738 66.6448 6.60684 66.6448 6.23981V6.05628C67.7373 6.05628 67.7373 4.58818 66.6448 4.58818C66.0985 4.58818 65.9164 4.9552 65.9164 5.32223C65.5523 5.32223 65.3702 5.50575 65.1881 5.87278C65.1881 5.50575 65.006 5.1387 64.4597 5.1387C63.9134 5.1387 63.7314 5.68925 63.7314 6.05628C63.5493 6.05628 63.5493 6.0563 63.3672 5.87278C63.5493 5.32223 63.3672 4.9552 62.6388 4.9552C62.4567 4.9552 62.2746 5.1387 62.2746 5.1387C62.6388 4.58816 62.4567 4.03763 61.7284 4.03763C60.6358 4.03763 60.6358 5.68925 61.7284 5.68925C61.9105 5.68925 62.0925 5.50576 62.0925 5.50576C62.0925 5.50576 62.0926 5.68925 61.9105 5.68925C60.6358 5.50574 59.5433 5.50574 58.2687 5.68925C58.997 5.50574 59.1791 4.40465 58.2687 4.40465C58.4508 4.22114 58.6328 4.22114 58.6328 4.03763C58.6328 4.40466 58.8149 4.58818 59.3612 4.58818C60.4537 4.58818 60.4537 3.12005 59.3612 3.12005C58.997 3.12005 58.6328 3.48709 58.6328 3.6706C58.6328 3.30357 58.4508 3.12005 57.9045 3.12005C57.5403 3.12005 57.3582 3.30356 57.1761 3.48708C57.1761 3.48708 57.1761 3.30355 57.3582 3.30355C58.2687 3.12003 58.2687 1.83545 57.3582 1.83545C56.994 1.83545 56.812 2.01896 56.812 2.20247C55.7194 2.20247 55.7194 3.8541 56.812 3.8541C56.994 3.8541 57.3582 3.6706 57.3582 3.6706C57.1761 4.03763 57.3582 4.58818 57.9045 4.58818C57.7224 4.58818 57.7224 4.40465 57.5403 4.40465C57.3582 4.40465 57.1761 4.40465 56.9941 4.40465C56.0836 4.40465 55.9015 5.68926 56.812 5.87278C56.812 5.87278 56.6298 6.05629 56.6298 6.23981C56.2657 6.42332 56.2657 6.79034 56.2657 6.97386C55.5373 6.97386 55.3552 7.52441 55.5373 8.07496C55.5373 8.07496 55.5373 8.07496 55.3552 8.07496C54.991 8.07496 54.809 8.25847 54.6269 8.44198C53.7164 8.44198 53.5343 10.0936 54.6269 10.0936C54.9911 10.0936 55.1731 9.91012 55.3552 9.54309C55.9015 9.54309 56.2657 8.99253 55.9015 8.44198C55.9015 8.44198 55.9015 8.44198 56.0836 8.44198C56.6299 8.44198 56.812 8.07495 56.812 7.52441C56.994 7.52441 57.1761 7.70793 57.3582 7.70793C56.6299 7.89145 56.6299 8.6255 56.9941 8.99253V9.17606L56.812 8.99253C56.6299 8.99253 56.6299 8.99255 56.4478 9.17606C56.2657 9.17606 56.2657 8.99253 56.2657 8.99253C55.3552 8.99253 55.1731 10.0936 55.9015 10.4607C55.5373 10.6442 55.3552 11.0112 55.5373 11.3782C55.5373 11.3782 55.5373 11.3782 55.3552 11.3782C55.1731 11.3782 54.9911 11.3782 54.9911 11.5617C54.809 11.3782 54.6269 11.1947 54.4448 11.1947C55.3552 11.1947 55.5373 9.72658 54.4448 9.72658H54.2627C53.3523 9.72658 53.1702 11.1947 54.2627 11.1947H54.4448C54.0806 11.1947 53.8985 11.3782 53.8985 11.5617C53.7164 11.3782 53.5343 11.3782 53.3523 11.3782C52.9881 11.3782 52.806 11.5617 52.806 11.7453C52.4418 11.9288 52.4418 12.2958 52.4418 12.6628C52.2597 13.0299 52.4418 13.3969 52.6239 13.5804C52.6239 13.9474 52.9881 14.131 53.3523 14.131C53.7164 14.131 54.0806 13.7639 54.0806 13.3969H54.2627C54.0806 13.7639 54.2627 14.131 54.4448 14.3145C54.2627 14.498 54.2627 14.6815 54.2627 15.0485H54.0806C54.0806 14.6815 53.7164 14.3145 53.3523 14.3145C53.1702 14.131 52.9881 14.131 52.806 14.131C52.6239 14.131 52.4418 14.3145 52.2597 14.3145C52.0776 13.9474 51.5314 13.7639 50.9851 14.131C50.803 13.9475 50.803 13.7639 50.6209 13.5804L50.4388 13.3969C50.4388 13.0299 50.2567 12.6628 49.7105 12.6628C49.3463 12.6628 49.1642 12.8464 49.1642 13.0299C48.9821 13.0299 48.9821 13.0299 48.8 13.2134V13.0299C49.1642 13.0299 49.3463 12.8464 49.5284 12.6628C49.7105 12.8464 49.8925 12.8464 50.0746 12.8464C51.1672 12.8464 51.1672 11.3782 50.0746 11.3782C49.7105 11.3782 49.5284 11.5617 49.3463 11.7453L49.1642 11.5617C48.6179 11.0112 47.5254 11.7453 47.8896 12.4793C46.9791 12.6628 46.9791 13.9474 47.8896 13.9474C48.0717 13.9474 48.2537 13.7639 48.4358 13.7639C48.4358 14.131 48.6179 14.498 48.9821 14.498V14.6815L49.1642 14.865C48.8 14.865 48.2537 14.865 47.8896 14.865C47.8896 14.6815 47.8896 14.498 47.7075 14.3145L47.5254 14.131C47.1612 13.7639 46.797 13.9475 46.4328 14.131C46.4328 14.131 46.4328 14.131 46.2507 14.131C45.8866 14.131 45.7045 14.3145 45.5224 14.6815C45.5224 14.6815 45.5224 14.6815 45.3403 14.6815C45.1582 14.6815 44.9761 14.865 44.9761 14.865C44.794 14.865 44.794 14.865 44.6119 14.865L44.794 14.6815C45.1582 14.3145 45.1582 13.7639 44.6119 13.5804C44.794 13.2134 44.6119 12.6628 43.8836 12.6628C43.7015 12.6628 43.5194 12.6629 43.5194 12.8464C43.5194 12.6629 43.7015 12.4793 43.7015 12.4793C43.8836 12.4793 43.8836 12.6628 44.0657 12.6628C45.1582 12.6628 45.1582 11.0112 44.0657 11.0112C44.0657 11.0112 44.0657 11.0112 43.8836 11.0112C43.7015 10.8277 43.7015 10.8277 43.3373 10.8277C43.1552 10.8277 43.1552 10.8277 42.9731 11.0112C42.9731 10.6442 42.791 10.2771 42.2448 10.2771C41.1522 10.2771 41.1522 11.9288 42.2448 11.9288C42.4269 11.9288 42.4269 11.9288 42.6089 11.7453C42.0627 11.9288 41.8806 12.6628 42.0627 13.0299C41.8806 13.2134 41.8806 13.3969 42.0627 13.5804C41.8806 13.5804 41.8806 13.3969 41.6985 13.3969C41.5164 13.3969 41.5164 13.3969 41.3343 13.5804C40.4239 13.5804 40.2418 14.6815 40.9702 15.0485C40.7881 15.0485 40.606 15.0485 40.606 15.232C40.4239 15.232 40.4239 15.0485 40.2418 15.0485H40.0597C40.0597 15.0485 40.0597 15.0485 39.8776 14.865C39.8776 14.6815 39.8776 14.6815 39.8776 14.498C40.4239 14.498 40.606 14.131 40.606 13.5804C40.606 13.3969 40.606 13.0299 40.2418 12.8464C40.0597 12.6629 39.8776 12.4793 39.5134 12.4793C38.9672 12.4793 38.7851 12.8463 38.7851 13.3969C38.603 13.3969 38.603 13.2134 38.4209 13.2134C38.0567 13.2134 37.8746 13.3969 37.8746 13.5804C37.8746 13.5804 37.6925 13.5804 37.6925 13.7639H37.5104C37.3283 13.7639 37.1463 13.7639 37.1463 13.9474H36.9642C36.7821 13.7639 36.6 13.7639 36.4179 13.7639H36.2358C36.0537 13.7639 36.0537 13.7639 36.0537 13.7639C35.8716 13.7639 35.6896 13.7639 35.5075 13.7639C36.0537 13.5804 36.2358 13.0299 36.0537 12.6628C36.0537 12.4793 36.2358 12.2958 36.2358 12.2958C36.2358 12.2958 36.4179 12.2958 36.4179 12.4793C36.0537 13.0299 36.2358 13.9474 36.9642 13.9474C37.8746 13.9474 38.0567 12.4793 37.1463 12.2958C37.3283 11.9288 37.3283 11.5618 37.1463 11.3782C37.3283 11.3782 37.5104 11.3782 37.6925 11.1947C37.6925 11.5617 37.8746 11.7453 38.0567 11.9288C37.6925 12.2958 37.8746 13.0299 38.603 13.0299C38.7851 13.0299 38.7851 13.0299 38.7851 13.0299C38.9672 13.2134 39.1492 13.2134 39.3313 13.2134C40.2418 13.2134 40.4239 11.7453 39.3313 11.7453C39.1492 11.7453 39.1493 11.7453 39.1493 11.7453L38.9672 11.5617C39.1492 11.3782 39.1493 11.1947 39.1493 11.0112C39.5134 10.8277 39.6955 10.6442 39.5134 10.2771C39.6955 10.2771 39.6955 10.2772 39.6955 10.0936C39.3314 10.4607 39.5134 11.1947 40.2418 11.1947C40.9701 11.1947 41.3343 10.2771 40.7881 9.91011C41.1522 9.54308 40.9701 8.62551 40.2418 8.62551C40.0597 8.62551 39.8776 8.62549 39.8776 8.80901C39.6955 8.62549 39.5134 8.44198 39.3313 8.44198C38.7851 8.44198 38.603 8.80903 38.603 9.17606C38.4209 9.17606 38.4209 8.99253 38.2388 8.99253C37.6925 8.99253 37.5104 9.35955 37.5104 9.72658L37.3284 9.54309C36.6 9.54309 36.4179 10.2771 36.6 10.8277C36.0537 10.8277 35.8716 11.1947 35.8716 11.5617C35.6895 11.3782 35.6896 11.3782 35.5075 11.3782C35.3254 11.3782 35.3254 11.3782 35.3254 11.5617C35.3254 11.3782 35.1433 11.1947 35.1433 11.0112C35.5075 10.8277 35.6896 10.6442 36.0537 10.4607C36.4179 10.2771 36.4179 9.9101 36.4179 9.72658C36.6 9.72658 36.7821 9.54309 36.9642 9.54309C37.5105 9.35957 37.5104 8.80902 37.3284 8.62551C37.3284 8.62551 37.3283 8.62551 37.5104 8.62551C37.6925 8.62551 37.6925 8.80901 37.8746 8.80901C38.7851 8.80901 38.9672 7.70792 38.2388 7.52441C38.4209 7.52441 38.4209 7.34091 38.603 7.34091C38.7851 7.34091 38.7851 7.15738 38.7851 7.15738C38.9672 7.3409 39.1492 7.52441 39.3313 7.52441C39.5134 7.52441 39.5134 7.52442 39.6955 7.34091C39.6955 7.52442 39.8776 7.89143 40.4239 7.89143C41.5164 7.89143 41.5164 6.42333 40.4239 6.42333C40.2418 6.42333 40.2418 6.42332 40.2418 6.60683C40.2418 6.42332 40.0597 6.05628 39.8776 6.05628C39.6955 5.87276 39.5134 5.68925 39.3313 5.68925C38.9671 5.68925 38.603 6.05629 38.603 6.23981C38.4209 6.23981 38.2388 6.23981 38.0567 6.23981C38.9672 6.05629 38.9672 4.77168 38.0567 4.77168C37.8746 4.77168 37.8746 4.77169 37.6925 4.9552C37.5104 4.77169 37.3283 4.77168 37.1463 4.77168C36.0537 4.77168 36.0537 6.23982 36.9642 6.42333C36.7821 6.42333 36.6 6.42332 36.2358 6.60683C36.4179 6.05628 36.2358 5.50576 35.5075 5.50576C34.9612 5.50576 34.7791 6.0563 34.7791 6.42333C34.597 6.42333 34.597 6.60684 34.597 6.79036V6.97386C34.2328 6.97386 34.0507 7.15738 33.6866 7.15738C33.6866 6.79035 33.5045 6.42333 32.9582 6.42333C32.4119 6.42333 32.2298 6.79035 32.2298 7.15738C32.0478 6.97387 31.8657 6.60683 31.5015 6.60683C30.7731 6.60683 30.591 7.34089 30.7731 7.89143C30.7731 8.07495 30.591 8.25848 30.591 8.25848C30.2269 8.442 29.8627 8.62549 29.4985 8.80901H29.3164H29.1343C29.3164 8.44198 29.1343 7.89143 28.4059 7.89143C27.8597 7.89143 27.6776 8.25848 27.6776 8.62551C26.9492 8.80902 26.7672 9.91012 27.6776 10.0936C27.4955 10.2772 27.1313 10.4606 26.9493 10.6442C26.9493 10.2771 26.7671 9.91011 26.2209 9.91011C25.3104 9.91011 25.1283 11.1947 25.8567 11.3782C25.6746 11.5618 25.6746 11.7453 25.6746 11.7453C25.3104 11.9288 25.3104 12.4793 25.4925 12.8464C25.4925 12.8464 25.4925 12.8464 25.3104 12.8464C24.0358 11.7453 24.0358 13.2134 24.9463 13.2134ZM42.4269 14.3145C42.4269 14.3145 42.6089 14.3145 42.6089 14.131C42.6089 14.3145 42.6089 14.3145 42.6089 14.498C42.4269 14.498 42.2448 14.498 42.0627 14.498C42.2448 14.498 42.2448 14.498 42.4269 14.3145ZM60.8179 7.34091C60.8179 7.52442 61 7.70792 61.1821 7.89143C61 7.89143 61 7.89144 60.8179 8.07496C60.6358 7.89144 60.4538 7.70793 60.0896 7.70793C60.0896 7.70793 59.9075 7.70792 59.9075 7.52441C60.0896 7.52441 60.0896 7.52442 60.2716 7.34091C60.4537 7.34091 60.6358 7.34091 60.8179 7.34091ZM63.003 9.35956C63.003 9.72659 63.1851 10.2771 63.7314 10.2771C64.0955 10.2771 64.2776 10.0936 64.2776 9.91011C64.6418 9.7266 64.8239 9.54309 64.8239 9.17606C65.006 9.35958 65.1881 9.35957 65.3702 9.54309C66.2806 10.4607 66.8269 11.5618 66.2806 12.8464C66.0985 12.8464 65.9164 12.6628 65.9164 12.6628C65.7343 12.4793 65.5523 12.4793 65.1881 12.6628C65.9164 12.4793 65.9164 11.1947 65.006 11.1947C65.7343 10.8277 65.7343 9.72658 64.8239 9.72658C64.0955 9.72658 63.9134 10.4607 64.0955 10.8277C64.0955 10.8277 64.0955 10.8277 63.9134 10.8277C63.003 10.8277 62.8209 11.9288 63.5493 12.2958C63.5493 12.4793 63.7313 12.6628 63.9134 12.6628C63.7313 12.6628 63.5493 12.8464 63.3672 13.0299C63.3672 12.8464 63.1851 12.4793 62.8209 12.4793C62.4567 12.4793 62.2746 12.4793 62.0925 12.4793C62.2746 12.1123 62.2746 11.7453 62.2746 11.3782C62.2746 11.1947 62.2746 11.0112 62.0925 10.8277C61.9104 10.2771 61.7284 9.91011 61.5463 9.35956C61.9105 8.99253 61.7284 8.44199 61.1821 8.07496C61.3642 8.07496 61.3642 8.07495 61.5463 7.89143C61.7284 8.07495 61.9104 8.25848 62.0925 8.25848C62.2746 8.25848 62.4567 8.25848 62.4567 8.25848C62.6388 8.25848 62.6388 8.25848 62.6388 8.25848C62.6388 8.25848 62.6388 8.25848 62.8209 8.25848C62.4567 8.25848 62.2746 8.99253 63.003 9.35956ZM58.4507 18.7189V18.9023C58.4507 18.9023 58.4507 18.9024 58.4507 18.7189C58.4507 18.9024 58.4507 18.9024 58.4507 18.7189ZM65.006 12.8464C65.1881 12.6629 65.1881 12.6628 65.3702 12.6628C65.1881 12.6628 65.1881 12.8464 65.006 12.8464ZM26.2209 12.4793C26.2209 12.6628 26.0388 12.6629 26.0388 12.8464C26.2209 12.6629 26.2209 12.6628 26.2209 12.4793ZM61 16.5167L60.8179 16.3331C60.6358 16.3331 60.4538 16.3331 60.0896 16.3331C60.0896 16.3331 60.0896 16.3331 60.0896 16.1496C60.2717 16.1496 60.4538 15.9661 60.6358 15.9661C60.6358 16.1496 60.8179 16.3332 61 16.5167ZM43.3373 13.5804C43.1552 13.5804 42.9731 13.7639 42.791 13.7639V13.5804C42.9731 13.5804 42.9731 13.7639 43.1552 13.7639C43.1552 13.5804 43.3373 13.5804 43.3373 13.5804ZM27.4955 12.4793L27.3134 12.2958C27.4955 12.1123 27.4955 11.9288 27.4955 11.7453C27.4955 11.7453 27.4955 11.7453 27.6776 11.7453C28.7701 11.5617 29.8627 11.1947 31.1373 10.8277V11.0112C30.9552 11.0112 30.7731 11.1947 30.7731 11.1947C30.591 11.1947 30.591 11.0112 30.4089 11.0112C29.6806 11.0112 29.4985 11.7453 29.6806 12.1123C29.4985 12.1123 29.3164 12.1123 29.3164 12.1123C29.1343 12.1123 29.1343 12.1123 28.9522 12.2958C28.7701 12.1123 28.588 11.9288 28.4059 11.9288C27.8597 12.1123 27.6776 12.2958 27.4955 12.4793ZM39.5134 17.4342C39.3313 17.6178 39.3313 17.8013 39.3313 17.8013H39.1493C39.1493 17.6178 39.3313 17.6178 39.3313 17.4342C39.3313 17.4342 39.3313 17.4342 39.5134 17.4342ZM44.794 18.1683C45.3403 17.9848 45.8866 17.9848 46.4328 18.1683V18.3518C46.2508 18.1683 46.0687 18.1683 45.8866 18.1683C45.7045 18.1683 45.3403 18.1683 44.794 18.1683C44.9761 18.1683 44.9761 18.1683 44.794 18.1683ZM54.6269 18.9023C54.6269 18.9023 54.4448 18.9024 54.4448 18.7189C54.4448 18.5353 54.4448 18.5353 54.2627 18.5353C54.2627 18.3518 54.2627 18.1683 54.0806 18.1683C54.4448 18.1683 54.991 18.1683 55.3552 18.1683C54.6269 18.1683 54.4448 18.5353 54.6269 18.9023ZM55.3552 17.9848C55.5373 17.9848 55.5373 18.1683 55.3552 17.9848C55.5373 17.9848 55.7194 17.9848 55.7194 17.9848V18.1683C55.7194 18.1683 55.5373 18.1683 55.3552 17.9848ZM58.997 17.9848C58.6328 17.9848 58.4507 18.1683 58.4507 18.5353C58.4507 18.3518 58.2687 18.1683 58.0866 17.9848C58.4508 17.9848 58.8149 17.9848 58.997 17.9848ZM65.9164 16.3331C65.7343 16.3331 65.7343 16.3332 65.5523 16.5167L65.3702 16.3331C65.006 16.3331 64.8239 16.5167 64.8239 16.7002C64.6418 16.7002 64.6418 16.8837 64.6418 16.8837C65.006 16.5167 64.8239 15.7826 64.0955 15.7826C63.3672 15.7826 63.1851 16.5167 63.3672 16.8837C63.3672 16.8837 63.3672 16.8837 63.1851 16.8837C63.003 17.0672 63.003 17.0672 62.8209 17.2507C62.6388 17.4342 62.4567 17.4342 62.4567 17.8013C62.4567 17.6178 62.4567 17.6178 62.2746 17.4342L62.0925 17.2507C62.0925 17.2507 62.0926 17.2507 62.2746 17.2507C63.003 17.2507 63.3672 16.1496 62.6388 15.7826C62.4567 15.5991 62.2746 15.5991 62.0925 15.4156C62.4567 15.2321 62.6388 14.865 62.8209 14.6815C63.003 15.0486 63.1851 15.232 63.5493 15.232C64.0955 15.232 64.2776 14.865 64.2776 14.498C64.4597 14.6815 64.6418 14.6815 64.8239 14.6815C65.006 14.6815 65.006 14.6815 65.006 14.6815C65.006 14.6815 65.006 14.865 65.1881 14.865C65.1881 15.0485 65.1881 15.0485 65.1881 15.232C65.1881 15.5991 65.3702 16.1496 65.9164 16.1496C66.2806 16.1496 66.4627 15.9661 66.6448 15.7826C67.009 15.5991 67.1911 15.5991 67.5552 15.4156C67.5552 15.5991 67.3732 15.7826 67.3732 15.9661V16.1496C66.8269 16.1496 66.4627 16.7002 66.6448 17.0672C66.6448 17.0672 66.6448 17.0672 66.6448 17.2507C66.6448 16.5167 66.4627 16.3331 65.9164 16.3331ZM70.6508 17.9848C70.6508 17.8013 70.6508 17.8013 70.6508 17.6177C70.6508 17.6177 70.6508 17.6177 70.8329 17.6177C71.197 17.6177 71.3791 17.4342 71.5612 17.0672C71.5612 17.2507 71.7433 17.2507 71.7433 17.4342C71.5612 17.4342 71.5612 17.6177 71.3791 17.6177C71.197 17.6177 71.197 17.6177 71.0149 17.6177C70.8329 17.8013 70.6508 17.8013 70.6508 17.9848ZM64.0955 8.44198C63.9134 8.44198 63.9134 8.44198 64.0955 8.44198V8.44198ZM58.0866 6.05628C58.0866 5.87276 58.2687 6.05628 58.4507 6.05628C58.2687 5.87276 58.2687 6.05628 58.0866 6.05628ZM55.9015 12.8464C55.9015 13.2134 56.0836 13.5804 56.6298 13.5804C57.7224 13.5804 57.7224 11.9288 56.6298 11.9288C56.4478 11.9288 56.2657 12.1123 56.0836 12.1123V11.9288C56.0836 11.9288 56.0836 11.9288 56.2657 11.9288C56.994 11.9288 57.1761 11.1947 56.9941 10.6442C57.1761 10.6442 57.3582 10.4607 57.5403 10.4607C57.3582 11.0112 57.5403 11.5617 58.2687 11.5617C58.4508 11.5617 58.4508 11.5618 58.6328 11.3782H58.8149C58.8149 11.7453 59.1791 11.9288 59.5433 11.9288C60.6358 11.9288 60.6358 10.2771 59.5433 10.2771H59.3612C59.1791 10.0936 58.997 9.91011 58.8149 9.91011C58.8149 9.91011 58.8149 9.91011 58.6328 9.91011C58.4508 9.91011 58.4508 9.72658 58.2687 9.72658C58.0866 9.72658 57.9045 9.91011 57.7224 9.91011V9.72658H57.9045C58.6329 9.72658 58.997 8.80901 58.4507 8.44198C58.4507 8.25847 58.6328 8.07495 58.4507 7.89143C58.8149 8.07495 59.1791 8.25847 59.3612 8.44198C59.3612 8.6255 59.3612 8.62549 59.3612 8.80901C59.3612 9.54307 60.0896 9.7266 60.6358 9.54309C60.8179 9.7266 60.8179 10.0936 61 10.2771C60.4538 10.4607 60.2717 10.8277 60.4537 11.1947C60.2717 11.5617 60.4537 11.7453 60.8179 11.9288C60.6358 12.1123 60.6358 12.2958 60.6358 12.4793C60.6358 12.6628 60.6358 12.6629 60.6358 12.8464C60.4538 12.8464 60.4537 12.6628 60.2716 12.6628C59.9075 12.6628 59.7254 12.8464 59.5433 13.0299C58.997 13.0299 58.8149 13.3969 58.8149 13.7639C58.6329 13.9475 58.4508 14.3145 58.8149 14.6815C58.4508 14.6815 57.9045 14.865 57.5403 14.865C57.5403 14.6815 57.5403 14.6815 57.5403 14.498C58.4507 14.3145 58.6328 13.0299 57.5403 13.0299C56.8119 13.0299 56.6299 13.5804 56.812 14.131C56.6299 14.131 56.4478 14.3145 56.2657 14.498V14.3145L56.0836 14.131H55.9015C56.2657 13.7639 56.0836 13.0299 55.3552 13.0299H55.1732C55.1732 12.8464 55.3552 12.6628 55.1732 12.4793C55.3552 12.6628 55.5373 12.8464 55.7194 12.8464C55.7194 13.0299 55.9015 13.0299 55.9015 12.8464ZM36.9642 5.32223L37.1463 5.50576C37.3283 5.32224 37.3284 5.32223 36.9642 5.32223C37.1463 5.32223 37.1463 5.32223 36.9642 5.32223C36.7821 5.32223 36.7821 5.50576 36.7821 5.50576C36.9642 5.32224 36.9642 5.32223 36.9642 5.32223ZM31.6836 6.60683V6.42333C31.8657 6.42333 31.8657 6.42332 31.6836 6.60683Z" fill="white"/>
<path d="M23.3074 12.1117C24.2179 12.1117 24.4 10.6436 23.3074 10.6436C22.397 10.8271 22.2149 12.1117 23.3074 12.1117Z" fill="white"/>
<path d="M23.8536 13.0298C22.7611 13.0298 22.7611 14.6814 23.8536 14.6814H24.0357C25.1283 14.6814 25.1283 13.0298 24.0357 13.0298H23.8536Z" fill="white"/>
<path d="M41.5163 6.79053C40.6059 6.79053 40.4238 8.25866 41.3342 8.25866C41.5163 8.62569 41.6984 8.80918 42.0626 8.80918C43.1551 8.80918 43.1551 7.15755 42.0626 7.15755C42.0626 6.97404 41.8805 6.79053 41.5163 6.79053Z" fill="white"/>
<path d="M45.1582 8.80911C45.8865 8.80911 46.2507 7.89154 45.7044 7.52451C45.7044 7.15748 45.5223 6.60693 44.9761 6.60693C44.2477 6.60693 44.0656 7.15749 44.2477 7.70804C43.5194 7.70804 43.3373 8.44209 43.7014 8.99264C43.5193 9.35967 43.5194 10.0937 44.2477 10.0937C44.9761 10.0937 45.3402 9.35966 45.1582 8.80911C44.9761 8.99263 44.9761 8.80911 45.1582 8.80911Z" fill="white"/>
<path d="M46.2507 9.17578C45.1581 9.17578 45.1581 10.8274 46.2507 10.8274C47.3432 10.8274 47.3432 9.17578 46.2507 9.17578Z" fill="white"/>
<path d="M50.9849 6.05527C50.8028 6.60582 50.9849 7.15637 51.7133 7.15637C52.4416 7.15637 52.6237 6.60582 52.4417 6.05527C52.6237 5.68824 52.4416 5.1377 51.7133 5.1377C51.167 5.1377 50.9849 5.68824 50.9849 6.05527Z" fill="white"/>
<path d="M51.3492 5.13851C52.2597 5.13851 52.4418 3.67041 51.3492 3.67041C50.4388 3.67041 50.2567 5.13851 51.3492 5.13851Z" fill="white"/>
<path d="M54.4447 4.03707C54.4447 4.03707 54.4447 4.22057 54.2626 4.22057C54.2626 4.03706 54.0805 3.67005 53.5343 3.67005C52.988 3.67005 52.8059 4.03707 52.8059 4.4041C52.2596 4.77113 52.2596 5.6887 53.1701 5.6887C53.7164 5.6887 53.8984 5.32168 53.8984 4.95465C54.0805 4.77113 54.2626 4.58761 54.2626 4.4041C54.2626 4.58761 54.4447 4.77112 54.991 4.77112C55.7193 4.77112 56.0835 3.85355 55.5373 3.48652C55.7193 3.303 55.7193 2.93599 55.5373 2.75247C55.7193 2.38544 55.7193 1.65137 54.991 1.65137C54.2626 1.65137 54.0805 2.38542 54.2626 2.93597C54.0805 3.303 54.0805 3.67004 54.4447 4.03707Z" fill="white"/>
<path d="M59.5433 3.30355C60.6358 3.30355 60.6358 1.83545 59.5433 1.83545C58.6328 1.83545 58.4507 3.30355 59.5433 3.30355Z" fill="white"/>
<path d="M60.8179 4.03698C61 4.22049 61.1821 4.404 61.5462 4.404C62.4567 4.404 62.4567 3.3029 61.9104 2.93587C61.7283 2.75236 61.5462 2.56885 61.182 2.56885C60.4537 2.56885 60.2716 3.66995 60.8179 4.03698Z" fill="white"/>
<path d="M63.5492 4.40472C63.5492 4.77175 63.7313 5.13877 64.2776 5.13877C65.188 5.13877 65.3701 3.67067 64.4596 3.67067C64.4596 3.30364 64.2776 3.12012 63.7313 3.12012C62.8208 3.12012 62.6387 4.40472 63.5492 4.40472Z" fill="white"/>
<path d="M66.8268 4.95494C67.7373 4.95494 67.9194 3.48682 66.8268 3.48682C65.9164 3.48682 65.7343 4.95494 66.8268 4.95494Z" fill="white"/>
<path d="M68.6477 8.99208C69.3761 8.99208 69.5582 8.25803 69.3761 7.70748C69.5582 7.70748 69.5582 7.89098 69.7403 7.89098C70.1045 7.89098 70.2865 7.70749 70.4686 7.34046C70.4686 7.70749 70.6507 8.07451 71.197 8.07451C71.3791 8.25802 71.5612 8.44153 71.7433 8.44153C72.6537 8.44153 72.6537 7.34043 72.1074 6.9734C72.1074 6.9734 72.1074 6.97342 72.1074 6.78991C72.1074 6.78991 72.1074 6.78991 72.2895 6.78991C73.3821 6.78991 73.3821 5.32178 72.2895 5.32178C71.9254 5.32178 71.7433 5.50529 71.5612 5.6888C71.5612 5.6888 71.5612 5.6888 71.3791 5.6888C70.8328 5.6888 70.4686 6.23936 70.6507 6.78991C70.4686 6.78991 70.2865 6.97342 70.2865 7.15693C70.2865 6.7899 70.1045 6.42288 69.5582 6.42288C68.8298 6.42288 68.6478 7.15692 68.8298 7.52396C68.6478 7.52396 68.6477 7.34046 68.4656 7.34046C67.5552 7.34046 67.5552 8.99208 68.6477 8.99208Z" fill="white"/>
<path d="M69.376 6.23971C70.1044 6.23971 70.2865 5.68915 70.1044 5.13861C70.6507 4.77157 70.4686 3.854 69.5581 3.854C69.0119 3.854 68.6477 4.40456 68.8298 4.95511C68.4656 5.32214 68.6477 6.23971 69.376 6.23971Z" fill="white"/>
<path d="M73.9284 8.07444C74.1105 8.07444 74.1105 8.07444 73.9284 8.07444C73.9284 8.25795 73.9284 8.44147 74.1105 8.62499C73.9284 8.62499 73.9284 8.44146 73.7463 8.44146C73.3821 8.44146 73.2001 8.62497 73.2001 8.80849H73.018C71.9254 8.80849 71.9254 10.2766 73.018 10.2766C73.3821 10.2766 73.5642 10.0931 73.5642 9.90959H73.7463C73.9284 9.90959 73.9284 9.90958 74.1105 9.72606C74.1105 10.0931 74.2926 10.4601 74.8388 10.4601C75.203 10.4601 75.3851 10.2766 75.5672 10.0931C75.5672 10.2766 75.5672 10.2766 75.5672 10.4601C75.5672 11.0107 75.9314 11.1942 76.2956 11.1942V11.3777C75.7493 11.7448 75.7493 12.6623 76.6597 12.6623H76.8418C77.0239 12.8458 77.206 13.0293 77.3881 13.0293C78.2986 13.0293 78.4807 11.9282 77.7523 11.5612C77.9344 11.1942 77.7523 10.8272 77.206 10.8272C77.206 10.8272 77.206 10.8272 77.206 10.6436C77.206 10.4601 77.206 10.2766 77.206 10.2766C77.206 9.17552 75.7493 9.35904 75.5672 10.2766C75.7493 9.72607 75.5672 9.17554 75.0209 9.17554C74.8389 9.17554 74.8389 9.17552 74.6568 9.35904C74.6568 9.17552 74.6568 9.17553 74.4747 8.99201C74.6568 8.99201 74.6568 9.17554 74.8388 9.17554C75.203 9.17554 75.3851 8.992 75.5672 8.80849C75.5672 9.17552 75.7493 9.54257 76.2956 9.54257C76.4777 9.54257 76.6597 9.35904 76.6597 9.35904C76.8418 9.54256 77.0239 9.72606 77.206 9.72606C78.1165 9.72606 78.2986 8.44148 77.3881 8.25797C77.206 8.07445 77.0239 8.07444 76.8418 8.07444C76.6598 8.07444 76.6597 8.07444 76.6597 8.07444C76.4777 8.07444 76.4777 7.89091 76.2956 7.89091C75.9314 7.89091 75.5672 8.25795 75.5672 8.44146C75.7493 7.89092 75.5672 7.34039 74.8388 7.34039C74.8388 7.34039 74.8389 7.34039 74.6568 7.34039C74.6568 7.15687 74.6568 6.97335 74.6568 6.78984C75.021 6.78984 75.3851 6.42279 75.3851 6.05576C75.3851 5.87224 75.3851 5.68873 75.3851 5.68873C75.3851 4.58764 73.7463 4.77116 73.7463 5.68873C73.7463 5.87225 73.7463 6.05576 73.7463 6.05576C73.7463 6.23927 73.7463 6.23929 73.9284 6.23929C73.018 6.60632 73.018 8.07444 73.9284 8.07444Z" fill="white"/>
<path d="M53.5343 7.89053L53.7164 7.70703C54.4447 6.97297 53.3522 6.05538 52.6238 6.60592L52.4417 6.78945C51.8955 7.34 52.2596 7.89054 52.8059 8.07405C52.4417 8.44108 52.6238 9.35865 53.3522 9.35865C54.4447 9.35865 54.4447 8.07404 53.5343 7.89053Z" fill="white"/>
<path d="M85.9464 23.123C85.218 26.7934 70.2867 29.5461 51.8956 29.5461C33.5045 29.5461 18.5732 26.6098 18.0269 23.123V43.6768V54.3206C18.0269 73.7733 14.5672 93.2259 7.64781 111.394L2.18512 125.708V126.442C19.1195 144.243 87.221 144.794 101.97 126.442V125.708L96.5075 111.394C89.5881 93.2259 86.1285 73.7733 86.1285 54.3206V43.6768V23.123H85.9464Z" fill="#F9D935"/>
<path d="M82.8509 23.123C81.9404 24.9581 71.015 28.2614 52.0777 28.2614C32.9583 28.2614 22.215 24.9581 21.3045 23.123H18.0269V23.3065V23.49C18.209 24.7746 19.4836 25.8757 21.1224 26.9768C27.4956 30.4636 42.4269 31.3811 51.8956 31.3811C61.3643 31.3811 76.2956 30.2801 82.6688 26.9768C84.4897 26.0592 85.5822 24.9581 85.7643 23.6735L85.9464 22.9395H82.8509V23.123Z" fill="#FBB03B"/>
<path d="M96.5075 111.21C89.5881 93.0423 86.1284 73.5897 86.1284 54.1371V43.4932V22.9395L85.9463 23.6735C85.7642 24.9581 84.4896 26.0592 82.8508 26.9768C81.0299 27.8944 78.2985 28.8119 75.203 29.3625V35.235V48.081C75.203 71.7545 77.5702 95.2445 82.3045 117.45L85.9463 134.884V135.434C93.0478 133.232 98.6926 130.112 101.788 126.259V125.524L96.5075 111.21Z" fill="#963F04"/>
<path d="M21.6687 117.633C26.403 95.4278 28.7702 71.9378 28.7702 48.2643V35.4182V29.5458C25.6747 28.9952 23.1254 28.0776 21.1224 27.1601C19.3015 26.2425 18.209 25.1414 18.0269 23.6733V23.4897V43.6764V54.3203C18.0269 73.7729 14.5672 93.2255 7.64781 111.394L2.18512 125.708V126.442C5.64482 130.112 11.2896 133.048 18.0269 135.251L21.6687 117.633Z" fill="#D15906"/>
<path d="M82.3045 117.634C77.5701 95.4284 75.203 71.9384 75.203 48.2649V35.4189V29.5464C70.8328 30.464 65.5522 31.0145 60.6358 31.198V35.4189V48.2649C60.6358 71.9384 61.5463 95.4284 63.3671 117.634L64.8238 135.068V139.472C72.4716 138.922 79.9373 137.453 86.1284 135.618V135.068L82.3045 117.634Z" fill="#D35C02"/>
<path d="M39.3313 135.068L40.788 117.634C42.6089 95.4283 43.5194 71.9383 43.5194 48.2648V35.4188V31.1979C38.603 30.8309 33.5044 30.2804 28.9522 29.3628V35.2353V48.0813C28.9522 71.7548 26.585 95.2448 21.8507 117.45L18.2089 134.884C24.4 136.903 31.8656 138.371 39.5134 139.105V135.068H39.3313Z" fill="#EA801F"/>
<path d="M43.3373 31.1973V35.4181V48.2642C43.3373 71.9376 42.4269 95.4276 40.606 117.633L39.1492 135.067V139.288C47.5254 140.022 56.2657 140.205 64.6418 139.471V135.067L63.1851 117.633C61.3642 95.4276 60.4537 71.9376 60.4537 48.2642V35.4181V31.1973C57.3582 31.3808 54.4448 31.3808 51.7134 31.3808C49.3462 31.3808 46.4328 31.3808 43.3373 31.1973Z" fill="#E86F0C"/>
<path d="M6.55521 108.824C6.19103 109.558 0 125.524 0 125.524V126.258C17.6627 144.059 88.4956 144.609 103.791 126.258V125.524C103.791 125.524 97.6 109.742 97.4179 109.191C77.0239 120.752 28.2239 120.385 6.55521 108.824Z" fill="#B54E08"/>
<path d="M95.415 108.275C76.4776 118.185 29.6806 118.368 8.74027 107.724C8.74027 107.724 7.46562 108.275 6.55518 108.825C28.2238 120.387 77.0239 120.754 97.4179 109.192C96.8717 109.009 95.415 108.275 95.415 108.275Z" fill="#963F04"/>
<g opacity="0.2">
<path d="M41.5164 36.1527C42.2448 35.9692 42.9731 35.7857 43.3373 35.2351C43.8836 34.6846 43.8836 33.767 43.3373 33.4C43.1552 33.2165 42.791 33.2165 42.4269 33.2165C34.7791 33.4 27.1313 31.5648 20.2119 28.2616H20.9403C20.394 28.078 19.8477 28.078 19.4836 27.8945C18.7552 33.4 20.2119 39.089 20.7582 44.7779C21.1224 49.1823 20.7582 53.5867 20.394 57.8075C19.1194 73.7734 17.1164 89.9227 11.6537 105.154C11.4716 105.521 11.4716 105.889 11.4716 106.256C11.6537 107.173 12.7462 107.724 13.6567 107.907C22.2149 109.742 30.7731 111.577 39.3313 113.229C40.4239 113.413 42.0627 113.229 42.2448 112.128C42.2448 111.578 41.6985 111.027 41.3343 110.66C35.8716 106.072 32.594 99.282 31.1373 92.4919C29.4985 85.5183 29.4985 78.3612 29.4985 71.2041C29.4985 68.6349 29.4985 66.0657 29.4985 63.4965C29.4985 58.1745 29.4985 52.6691 31.1373 47.5307C32.594 42.5757 36.2358 37.8044 41.5164 36.1527Z" fill="#F9AE06"/>
</g>
<g opacity="0.2">
<path d="M92.3195 104.604C85.7643 92.1246 84.6717 77.6268 83.7613 63.4962C83.5792 59.4588 83.2151 55.4215 83.5792 51.3842C83.7613 48.6314 84.8538 34.6843 84.8538 30.4634C84.8538 29.7293 84.8539 28.8118 84.3076 28.2612C74.8389 31.9315 64.4598 33.3997 54.2628 33.3997C53.3523 33.3997 52.0777 33.7667 52.0777 34.6843C52.0777 35.0513 52.4419 35.4183 52.624 35.6018C56.4478 39.2721 61.1822 42.0249 64.4598 46.4292C68.6479 51.7512 69.9225 58.9083 70.6509 65.6983C71.5613 74.5071 71.7434 83.4994 69.3762 91.9411C67.009 100.383 61.5464 108.274 53.5344 111.944C52.0777 112.678 50.621 113.045 49.5284 114.146C63.3673 115.798 77.5703 114.146 90.4986 109.008C91.4091 108.641 92.6837 108.09 92.8658 106.989C93.2299 106.072 92.8658 105.338 92.3195 104.604Z" fill="#661E01"/>
</g>
<g opacity="0.2">
<path d="M83.9434 33.2165C84.1255 33.033 84.3076 32.6659 84.3076 32.2989C84.4897 29.7297 82.8509 30.0967 82.8509 30.0967C76.1135 31.3813 69.3762 32.4824 62.6389 33.767C61.9105 33.9506 61.0001 34.1341 60.818 35.0516C60.818 35.4187 61.0001 35.7857 61.1822 35.9692C62.0926 37.2538 64.0956 37.0703 65.7344 36.8868C71.5613 35.9692 77.3881 34.8681 83.0329 33.5835C83.3971 33.5835 83.5792 33.4 83.9434 33.2165Z" fill="#661E01"/>
</g>
<g opacity="0.2">
<path d="M71.1971 46.7961C70.8329 47.3467 71.015 48.0807 71.015 48.8148C71.3792 51.5675 71.7434 54.3202 72.1075 57.073C72.1075 57.44 72.2896 57.9905 72.4717 58.3576C73.018 59.2751 74.4747 59.0916 75.3852 58.9081C76.6598 58.5411 77.9344 58.3576 79.3911 57.9905C80.4837 57.6235 81.5762 57.2565 82.3046 56.5224C83.215 55.6048 83.3971 54.1367 83.3971 52.8521C83.5792 51.2005 83.5792 49.3653 83.7613 47.7137C83.9434 46.2456 83.9434 44.5939 82.8508 43.8599C79.7553 44.4104 76.8419 45.1445 73.7464 45.695C72.8359 45.5115 71.7434 45.8785 71.1971 46.7961Z" fill="#661E01"/>
</g>
<g opacity="0.2">
<path d="M90.6807 102.035C87.0389 93.4097 85.0359 84.0504 84.6717 74.5076C84.4896 71.9384 84.3075 68.8186 82.1225 67.3505L82.6687 66.7999C80.8478 65.3318 77.9344 66.7999 76.8419 69.0021C75.9314 71.2043 76.2956 73.7735 76.6598 76.1592C77.9344 86.6196 75.9314 97.447 70.8329 106.623C70.2866 107.724 69.7404 109.008 70.2866 109.926C70.8329 110.844 72.2896 110.844 73.3822 110.66C78.1165 110.11 82.8508 109.008 87.5852 107.724C89.0419 107.357 90.4986 106.623 91.0448 105.338C91.5911 104.237 91.227 103.136 90.6807 102.035Z" fill="#661E01"/>
</g>
<g opacity="0.2">
<path d="M115.081 51.3842C114.717 47.1633 113.26 42.3919 107.433 39.8227C101.788 37.2535 91.7732 38.5381 85.4001 38.7216C85.0359 40.3733 85.4001 42.0249 87.221 42.5754C88.8598 43.126 103.063 42.0249 105.43 43.493C108.89 45.6952 110.164 48.4479 110.346 52.6688C110.893 75.0577 98.1464 86.2521 89.7702 89.5553C91.0449 90.1059 94.8687 90.6565 95.9613 89.9224C102.334 85.518 106.705 81.1137 110.164 74.1401C111.803 70.6533 113.078 66.2489 113.988 62.5786C114.717 59.8259 115.263 53.9534 115.081 51.3842Z" fill="#661E01"/>
</g>
<g opacity="0.2">
<path d="M119.815 44.5946C118.176 39.8232 113.988 35.4188 109.436 33.5837C107.979 33.0331 106.158 32.299 104.52 32.299C98.8748 31.7485 94.5046 31.7485 89.4061 31.932C87.4031 31.932 86.8568 32.8496 87.5852 33.2166C89.224 34.1342 91.227 33.2166 93.23 33.2166C99.9673 33.4001 106.34 32.299 111.439 36.3364C115.445 39.4561 118.176 44.2275 119.269 49.1825C119.633 50.8341 119.269 62.212 118.905 64.0472C117.448 73.7735 109.8 88.4547 99.421 95.2448C97.9643 96.1624 97.2359 96.8964 95.7792 97.6305C95.5971 97.814 93.9583 98.7316 93.9583 98.9151C93.9583 99.6492 94.8688 99.4657 95.4151 99.2822C101.788 96.3459 107.069 91.2074 111.257 85.702C115.081 80.7471 117.812 73.59 119.633 67.7175C121.636 61.2945 121.272 48.6319 119.815 44.5946Z" fill="#F9AE06"/>
</g>
<g opacity="0.2">
<path d="M36.4178 131.948C30.2268 128.828 24.9462 124.79 20.2118 120.57C18.0268 118.551 16.0238 116.349 13.8387 114.33C12.7462 113.229 11.2895 112.311 9.83274 112.128C8.92229 112.128 8.19394 112.495 7.64767 113.229C7.64767 113.229 5.82676 118.367 4.73422 120.937C3.82377 123.139 4.00589 124.607 6.00887 125.892C14.2029 131.397 23.3074 133.599 33.5044 135.251C52.2596 138.738 37.3283 132.315 36.4178 131.948Z" fill="#F9AE06"/>
</g>
<g opacity="0.2">
<path d="M20.7583 127.176C16.7523 123.322 14.5672 118 11.2896 113.596C10.7433 112.862 9.83289 112.128 8.92244 112.679C8.55826 112.862 8.37618 113.413 8.19409 113.963C7.82991 115.064 7.64782 116.165 7.28364 117.083C7.10155 117.45 7.10154 117.817 7.10154 118.184C6.91945 118.918 6.73736 119.469 6.55527 120.203C6.37318 120.753 6.37318 121.304 6.55527 121.854C6.91945 122.588 7.64782 122.955 8.19409 123.322C11.6538 125.158 14.9314 126.626 18.3911 128.277C19.3015 128.644 20.3941 129.011 21.3045 128.828C21.6687 128.277 21.1224 127.727 20.7583 127.176Z" fill="white"/>
</g>
<g opacity="0.2">
<path d="M101.606 123.322C100.514 119.652 99.2389 116.165 97.7822 112.862C97.6001 112.495 97.4181 112.311 97.236 112.128C96.8718 111.944 96.5076 112.128 96.1434 112.311C86.1285 117.45 74.8389 119.835 63.7314 119.285L64.0956 119.468C62.4568 119.101 60.6359 119.285 59.1792 119.835C67.1911 121.12 75.2031 122.588 83.215 123.873C84.1255 124.056 85.4001 124.423 85.5822 125.341C85.5822 125.708 85.5822 126.258 85.218 126.625C84.1255 128.461 82.1225 129.378 80.1195 129.929C71.1971 132.865 61.9105 135.067 52.624 136.535C57.1762 138.003 62.0926 137.453 67.0091 136.719C78.4807 135.067 90.1344 132.498 100.331 126.625C101.06 126.258 101.788 125.708 101.97 124.974C101.788 124.607 101.606 124.056 101.606 123.322Z" fill="#661E01"/>
</g>
<g opacity="0.2">
<path d="M98.1464 115.431C97.7822 114.88 97.2359 114.33 96.6896 114.33C95.415 114.146 94.5045 115.981 93.2299 116.348L95.7792 114.33C92.1374 115.431 88.3135 116.715 84.6717 117.817C84.1254 118 83.3971 118.367 83.7612 118.918C83.7612 119.101 83.9433 119.101 84.1254 119.285C85.218 119.835 86.3105 120.202 87.403 120.569C88.8597 120.936 90.8627 121.303 91.2269 122.955C91.5911 124.607 89.9523 126.075 89.2239 127.543C89.0418 127.91 88.8598 128.46 89.0419 128.827C89.4061 129.745 90.4986 129.562 91.409 129.378C93.7762 128.644 96.1433 127.91 98.5105 126.809C99.0568 126.625 99.6031 126.258 99.9673 125.891C100.331 125.341 100.331 124.79 100.514 124.24C100.696 121.12 99.9673 118 98.1464 115.431Z" fill="#661E01"/>
</g>
<path d="M85.9463 32.8491C85.4 36.5194 70.4686 39.2722 52.0776 39.2722C33.6865 39.2722 18.7552 36.3359 18.2089 32.8491V38.9051C18.7552 42.5754 33.6865 45.3282 52.0776 45.3282C70.4686 45.3282 85.4 42.3919 85.9463 38.9051V32.8491Z" fill="#D9E6EF"/>
<path d="M51.8956 61.4777C33.5045 61.4777 18.5732 58.5415 18.0269 55.0547V59.459V61.1107C18.5732 64.781 33.5045 67.5337 51.8956 67.5337C70.2867 67.5337 85.218 64.5975 85.7643 61.1107V59.459V55.0547C85.218 58.5415 70.2867 61.4777 51.8956 61.4777Z" fill="#D9E6EF"/>
<path d="M22.5791 40.3739C23.2831 40.3739 23.8537 39.7988 23.8537 39.0893C23.8537 38.3798 23.2831 37.8047 22.5791 37.8047C21.8752 37.8047 21.3045 38.3798 21.3045 39.0893C21.3045 39.7988 21.8752 40.3739 22.5791 40.3739Z" fill="#AA4526"/>
<g opacity="0.1">
<path d="M23.8538 82.5817C23.6717 80.196 22.3971 75.0576 20.7582 73.2224C20.5762 78.5444 18.9373 91.7574 15.2956 103.135C14.9314 104.053 14.9314 105.154 15.4777 105.888C16.0239 106.622 16.7523 106.806 17.6627 106.989C20.5762 107.723 23.4896 108.457 26.403 109.191C26.9493 109.375 27.3135 109.375 27.8598 109.191C28.5881 109.008 28.9523 108.09 28.7702 107.356C28.7702 106.622 28.2239 105.888 27.8598 105.154C24.4001 98.5475 24.2179 90.4729 23.8538 82.5817Z" fill="white"/>
<path d="M22.3971 32.8492L22.9433 31.9316C22.5791 32.1152 22.215 32.4822 22.3971 32.8492Z" fill="white"/>
<path d="M22.9433 31.9316C23.1254 31.7481 23.1254 31.748 23.1254 31.748L22.9433 31.9316Z" fill="white"/>
<path d="M30.2269 35.7854C29.3165 33.7667 27.1314 32.8492 25.1284 32.1151C24.5821 31.9316 24.0359 31.748 23.4896 31.748C23.3075 31.748 23.1254 31.7481 23.1254 31.9316C22.3971 33.5832 22.7612 35.6019 23.1254 37.2535C24.7642 45.1447 24.9463 53.2193 23.8538 61.1105C25.3105 61.294 26.2209 59.6424 26.5851 58.3578C28.0418 53.4029 28.2239 47.8974 29.6807 42.9425C30.2269 40.5568 31.1373 37.9876 30.2269 35.7854Z" fill="white"/>
</g>
<path d="M35.6895 42.7591C36.3935 42.7591 36.9642 42.184 36.9642 41.4745C36.9642 40.7651 36.3935 40.1899 35.6895 40.1899C34.9856 40.1899 34.4149 40.7651 34.4149 41.4745C34.4149 42.184 34.9856 42.7591 35.6895 42.7591Z" fill="#AA4526"/>
<path d="M51.8955 43.4926C52.5995 43.4926 53.1702 42.9174 53.1702 42.208C53.1702 41.4985 52.5995 40.9233 51.8955 40.9233C51.1916 40.9233 50.6209 41.4985 50.6209 42.208C50.6209 42.9174 51.1916 43.4926 51.8955 43.4926Z" fill="#AA4526"/>
<path d="M68.1016 42.7591C68.8055 42.7591 69.3762 42.184 69.3762 41.4745C69.3762 40.7651 68.8055 40.1899 68.1016 40.1899C67.3976 40.1899 66.827 40.7651 66.827 41.4745C66.827 42.184 67.3976 42.7591 68.1016 42.7591Z" fill="#AA4526"/>
<path d="M81.3941 40.3739C82.098 40.3739 82.6687 39.7988 82.6687 39.0893C82.6687 38.3798 82.098 37.8047 81.3941 37.8047C80.6901 37.8047 80.1194 38.3798 80.1194 39.0893C80.1194 39.7988 80.6901 40.3739 81.3941 40.3739Z" fill="#AA4526"/>
<path d="M22.7612 62.7621C23.4652 62.7621 24.0358 62.187 24.0358 61.4775C24.0358 60.768 23.4652 60.1929 22.7612 60.1929C22.0572 60.1929 21.4866 60.768 21.4866 61.4775C21.4866 62.187 22.0572 62.7621 22.7612 62.7621Z" fill="#AA4526"/>
<path d="M35.8717 65.1483C36.5756 65.1483 37.1463 64.5732 37.1463 63.8637C37.1463 63.1542 36.5756 62.5791 35.8717 62.5791C35.1677 62.5791 34.597 63.1542 34.597 63.8637C34.597 64.5732 35.1677 65.1483 35.8717 65.1483Z" fill="#AA4526"/>
<path d="M52.0777 65.8817C52.7816 65.8817 53.3523 65.3066 53.3523 64.5971C53.3523 63.8876 52.7816 63.3125 52.0777 63.3125C51.3737 63.3125 50.803 63.8876 50.803 64.5971C50.803 65.3066 51.3737 65.8817 52.0777 65.8817Z" fill="#AA4526"/>
<path d="M68.2835 65.1483C68.9875 65.1483 69.5582 64.5732 69.5582 63.8637C69.5582 63.1542 68.9875 62.5791 68.2835 62.5791C67.5796 62.5791 67.0089 63.1542 67.0089 63.8637C67.0089 64.5732 67.5796 65.1483 68.2835 65.1483Z" fill="#AA4526"/>
<path d="M81.5762 62.7621C82.2801 62.7621 82.8508 62.187 82.8508 61.4775C82.8508 60.768 82.2801 60.1929 81.5762 60.1929C80.8722 60.1929 80.3015 60.768 80.3015 61.4775C80.3015 62.187 80.8722 62.7621 81.5762 62.7621Z" fill="#AA4526"/>
</svg>
