<svg width="150" height="104" viewBox="0 0 150 104" fill="none" xmlns="http://www.w3.org/2000/svg">
<path d="M94.4716 82.0649C102.788 82.0649 110.639 80.0328 117.686 76.8089C115.154 81.1507 105.508 84.6083 93.9622 84.6083C81.8651 84.6083 71.8263 81.0604 69.8954 76.4062C77.5468 80.1461 85.9544 82.0819 94.4716 82.0649Z" fill="#B7BECA"/>
<path d="M94.5757 61.8097C121.865 61.8097 144.46 50.5989 148.37 35.9815C144.342 60.9325 122.169 82.3218 94.2353 82.3218C65.6469 82.3218 44.2657 59.9975 40.6007 35.2524C43.9462 50.224 66.8346 61.8097 94.5757 61.8097Z" fill="url(#paint0_linear_20003_27165)"/>
<path d="M94.2377 83.0181C87.3161 83.032 80.4583 81.6955 74.0489 79.0837C67.9806 76.5975 62.4117 73.0356 57.6107 68.5696C48.072 59.7449 41.7908 47.9464 39.9224 35.347L41.2883 35.0947C44.6014 49.9251 67.513 61.1081 94.5849 61.1081C107.597 61.1081 120.154 58.4929 129.945 53.7461C139.549 49.0896 145.858 42.7159 147.708 35.796L149.065 36.0853C147.039 48.6314 140.528 60.3282 130.737 69.0209C120.566 78.0492 107.608 83.0181 94.2377 83.0181ZM42.8581 42.1998C48.8383 62.4041 67.4342 81.6295 94.2423 81.6295C118.302 81.6295 139.607 65.1166 146.247 42.2854C143.033 47.171 137.655 51.5591 130.55 55.0144C120.571 59.8514 107.798 62.5175 94.5826 62.5175C81.1334 62.5175 68.189 59.7704 58.1363 54.7806C51.2045 51.3415 45.9836 47.0044 42.8581 42.1998Z" fill="#B7BECA"/>
<path d="M94.5735 0.696289C124.794 0.696289 149.294 14.2816 149.294 31.0421C149.294 47.8027 124.794 61.3857 94.5735 61.3857C64.3528 61.3857 39.8484 47.8004 39.8484 31.0398C39.8484 14.2792 64.3528 0.696289 94.5735 0.696289Z" fill="url(#paint1_linear_20003_27165)"/>
<path d="M94.5733 62.0803C79.8392 62.0803 65.9756 58.8934 55.5386 53.1029C44.9719 47.243 39.1537 39.4089 39.1537 31.0401C39.1537 22.6714 44.9719 14.8397 55.5386 8.97739C65.9756 3.1915 79.8485 0 94.5733 0C109.298 0 123.171 3.18918 133.615 8.98896C144.182 14.8489 150 22.683 150 31.0517C150 39.4204 144.182 47.2522 133.615 53.1145C123.171 58.8911 109.305 62.0803 94.5733 62.0803ZM94.5733 1.39093C64.7879 1.39093 40.5544 14.6915 40.5544 31.0425C40.5544 47.3934 64.7879 60.6917 94.5733 60.6917C124.359 60.6917 148.592 47.3911 148.592 31.0401C148.592 14.6892 124.354 1.39093 94.5733 1.39093Z" fill="#B7BECA"/>
<path d="M144.346 40.4131C144.346 41.959 143.71 42.4289 143.33 43.6346C134.995 53.834 116.513 60.7609 95.3721 60.7609C73.8405 60.7609 55.3187 53.8178 46.5671 43.6346C46.2626 42.5864 46.0915 41.504 46.0577 40.4131C46.0577 27.1171 68.0524 16.3438 95.2008 16.3438C122.349 16.3438 144.346 27.1171 144.346 40.4131Z" fill="#FFECA8"/>
<path d="M117.832 34.3316C115.531 34.3316 113.665 34.7459 113.665 35.2573C113.665 35.7688 115.531 36.1831 117.832 36.1831C120.134 36.1831 122 35.7688 122 35.2573C122 34.7459 120.134 34.3316 117.832 34.3316ZM67.5917 31.9015C67.5917 31.8367 66.918 31.7858 66.0868 31.7858C65.2556 31.7858 64.5819 31.8367 64.5819 31.9015C64.5819 31.9663 65.2556 32.0172 66.0868 32.0172C66.918 32.0172 67.5917 31.9663 67.5917 31.9015ZM98.1528 32.943C96.3631 32.943 94.9114 33.3573 94.9114 33.8687C94.9114 34.3802 96.3631 34.7945 98.1528 34.7945C99.9424 34.7945 101.394 34.3802 101.394 33.8687C101.394 33.3573 99.9424 32.943 98.1528 32.943ZM104.635 50.7635C103.1 50.7635 101.857 51.1778 101.857 51.6893C101.857 52.2007 103.1 52.615 104.635 52.615C106.17 52.615 107.414 52.2007 107.414 51.6893C107.414 51.1778 106.17 50.7635 104.635 50.7635ZM68.7493 44.2833C67.087 44.2833 65.7395 44.6467 65.7395 45.0934C65.7395 45.54 67.087 45.9034 68.7493 45.9034C70.4117 45.9034 71.7591 45.54 71.7591 45.0934C71.7591 44.6467 70.4093 44.2833 68.7493 44.2833ZM84.7244 24.6113C84.7244 24.2271 83.9997 23.917 83.1038 23.917C82.2078 23.917 81.4831 24.2271 81.4831 24.6113C81.4831 24.9955 82.2078 25.3056 83.1038 25.3056C83.9997 25.3056 84.7244 24.9955 84.7244 24.6113ZM84.4929 38.7289C83.0852 38.7289 81.9461 39.2473 81.9461 39.8861C81.9461 40.5248 83.0852 41.0432 84.4929 41.0432C85.9005 41.0432 87.0396 40.5248 87.0396 39.8861C87.0396 39.2473 85.9005 38.7289 84.4929 38.7289ZM115.285 25.7685C115.285 24.7455 113.524 23.917 111.35 23.917C109.176 23.917 107.414 24.7455 107.414 25.7685C107.414 26.7914 109.176 27.62 111.35 27.62C113.524 27.62 115.285 26.7914 115.285 25.7685Z" fill="#F16944"/>
<path d="M61.3892 93.7775C59.4698 93.7775 59.0739 92.6504 57.8307 91.2317C57.7643 91.1577 57.7153 91.07 57.6871 90.9748L25.4799 51.9177C21.2523 54.2968 14.8299 52.4685 10.3962 47.3723C5.50414 41.753 4.87672 34.2892 8.9932 30.7089C13.1097 27.1286 20.4142 28.7672 25.3063 34.3864C29.3904 39.0776 30.4994 45.0533 28.3601 48.9877L64.2693 90.0999C64.5806 90.3977 64.8642 90.723 65.1167 91.072C65.1121 92.2986 63.3085 93.7775 61.3892 93.7775Z" fill="#B7BECA"/>
<path d="M51.1235 101.236L50.1071 101.745C49.1324 101.907 48.718 101.491 48.2433 100.898L4.19376 45.8005C3.7122 45.2057 3.29777 44.6942 4.02475 44.1041C4.02475 44.1041 3.58486 43.1251 4.87212 43.9351L51.2948 98.5239C51.7741 99.1187 51.8528 100.648 51.1235 101.236ZM47.734 103.104L46.5486 103.951C45.5739 104.113 45.1594 103.868 44.6848 103.273L1.13303 47.6682C0.65146 47.0734 -0.487633 45.8537 0.232404 45.2636C0.232404 45.2636 0.695451 45.1641 1.9804 45.9741L47.396 100.898C47.8775 101.493 48.4633 102.514 47.7363 103.104H47.734Z" fill="#B7BECA"/>
<path opacity="0.6" d="M11.6071 31.8966C15.1633 28.8255 21.4677 30.2349 25.693 35.0465C29.9183 39.858 30.46 46.2503 26.9039 49.3214C23.3477 52.3926 17.0433 50.9831 12.818 46.1716C8.5927 41.36 8.05093 34.9678 11.6071 31.8966Z" fill="url(#paint2_radial_20003_27165)"/>
<defs>
<linearGradient id="paint0_linear_20003_27165" x1="94.4854" y1="35.2524" x2="94.4854" y2="82.3218" gradientUnits="userSpaceOnUse">
<stop stop-color="#E7ECF3"/>
<stop offset="1" stop-color="#B3BCCA"/>
</linearGradient>
<linearGradient id="paint1_linear_20003_27165" x1="94.5712" y1="0.696289" x2="94.5712" y2="61.3857" gradientUnits="userSpaceOnUse">
<stop stop-color="#EDF0F3"/>
<stop offset="1" stop-color="#ACBBCA"/>
</linearGradient>
<radialGradient id="paint2_radial_20003_27165" cx="0" cy="0" r="1" gradientUnits="userSpaceOnUse" gradientTransform="translate(20.4929 41.1125) rotate(47.7155) scale(8.80928 8.51696)">
<stop stop-color="#DAE1EB"/>
<stop offset="1" stop-color="#B7BECA"/>
</radialGradient>
</defs>
</svg>
