<svg width="140" height="112" viewBox="0 0 140 112" fill="none" xmlns="http://www.w3.org/2000/svg">
<path d="M109.352 94.1248C109.352 103.998 91.9167 112 70.4087 112C48.9013 112 31.4658 103.998 31.4658 94.1248C31.4658 84.2542 48.9013 76.2505 70.4087 76.2505C91.9161 76.2505 109.352 84.2542 109.352 94.1248Z" fill="#BBBBBB"/>
<g style="mix-blend-mode:overlay" opacity="0.8">
<path d="M104.336 85.3535C99.5106 99.1323 79.7847 109.647 55.6475 110.667C60.2009 111.525 65.1827 112 70.4087 112C91.9161 112 109.352 103.997 109.352 94.1238C109.352 90.9365 107.524 87.9457 104.336 85.3535Z" fill="#A5A4A6"/>
</g>
<path d="M0.0957583 29.3135C-0.153532 59.1885 16.2511 105.76 69.3026 106.078C121.472 106.393 139.671 62.1919 139.921 32.2629" fill="#D2D2D2"/>
<g style="mix-blend-mode:overlay" opacity="0.1">
<path d="M80.0152 45.805C82.6365 69.1964 68.8274 96.0159 49.1712 98.2412C29.5154 100.466 11.4559 77.2546 8.83463 53.8638C6.21338 30.4724 20.023 9.70654 39.6787 7.48127C59.3344 5.25601 77.394 22.4142 80.0152 45.805Z" fill="white"/>
</g>
<g style="mix-blend-mode:overlay" opacity="0.1">
<path d="M95.3605 31.3223C98.0336 37.6838 99.5026 44.5959 99.5026 51.8238C99.5026 76.4462 82.4961 97.4139 58.6954 105.344C62.2123 105.816 65.7556 106.061 69.3037 106.078C121.473 106.392 139.673 62.191 139.922 32.262L95.3605 31.3223Z" fill="#B2B2B2"/>
</g>
<path opacity="0.32" d="M24.201 55.7327C24.201 57.5398 24.4843 59.3292 25.0348 60.9987C25.5852 62.6683 26.392 64.1853 27.409 65.4631C28.4261 66.741 29.6335 67.7546 30.9624 68.4461C32.2912 69.1377 33.7155 69.4936 35.1538 69.4936C36.5922 69.4936 38.0164 69.1377 39.3453 68.4461C40.6741 67.7546 41.8816 66.741 42.8986 65.4631C43.9157 64.1853 44.7225 62.6683 45.2729 60.9987C45.8233 59.3292 46.1066 57.5398 46.1066 55.7327C46.1066 52.083 44.9527 48.5829 42.8986 46.0022C40.8446 43.4215 38.0587 41.9717 35.1538 41.9717C32.249 41.9717 29.4631 43.4215 27.409 46.0022C25.355 48.5829 24.201 52.083 24.201 55.7327Z" fill="white"/>
<path d="M0.000514221 31.422C-0.146094 49.0062 31.0751 63.4495 69.7345 63.6817C108.395 63.9139 139.853 49.8468 139.999 32.2625C140.147 14.6783 108.925 0.235596 70.2655 0.00280663C31.605 -0.228263 0.146551 13.8377 0.000514221 31.422Z" fill="#FAFAFA"/>
<path d="M6.0188 30.3718C5.88874 45.9762 34.4333 58.7991 69.7738 59.0113C105.114 59.2234 133.869 46.7445 133.999 31.1407C134.13 15.5352 105.586 2.71286 70.2438 2.50071C34.9039 2.28856 6.1483 14.7669 6.0188 30.3718Z" fill="#EDEDED"/>
<path d="M9.27276 33.0712C9.15582 47.0042 35.7432 58.4608 68.6569 58.6603C101.57 58.8598 128.346 47.7255 128.464 33.7925C128.581 19.8589 101.994 8.40236 69.079 8.20282C36.1664 8.00386 9.38971 19.1376 9.27276 33.0712Z" fill="#ECB16D"/>
<path d="M14.4371 30.5076C14.339 42.0811 37.5835 51.606 66.3539 51.7821C95.125 51.9575 118.527 42.717 118.626 31.1446C118.723 19.5699 95.4798 10.0456 66.7076 9.87015C37.9377 9.69412 14.5347 18.934 14.4371 30.5076Z" fill="#FDCA8F"/>
<path d="M82.0272 8.95563C85.9896 15.503 69.0418 24.8077 47.8818 24.681C26.3841 24.552 17.8575 42.385 13.8945 35.8377C9.9321 29.2909 19.635 12.7886 40.7745 11.9699C59.5317 11.244 78.0642 2.40885 82.0272 8.95563Z" fill="#18910D"/>
<path d="M82.1122 9.71246C85.4288 15.0144 68.6807 24.115 48.5744 25.4751C28.148 26.8569 18.8176 42.6379 15.5004 37.3365C12.1831 32.035 22.5398 17.3062 42.6907 15.1429C60.5711 13.2221 78.7944 4.41105 82.1122 9.71246Z" fill="#64D55A"/>
<path d="M80.848 10.9341C83.8498 15.6724 67.8456 24.3418 48.859 26.0585C29.5701 27.8027 20.4012 42.3641 17.3988 37.6263C14.3977 32.8885 24.5096 19.2583 43.5566 16.8106C60.4587 14.6375 77.8451 6.1957 80.848 10.9341Z" fill="#26A212"/>
<path opacity="0.92" d="M34.9747 33.8089C37.1995 37.6213 42.9081 40.4062 48.6503 42.1481C54.5996 43.8802 60.5831 44.57 68.1486 43.9743C75.6176 43.5431 82.2834 42.0323 88.3553 39.9297C94.2413 37.787 99.534 35.0526 99.967 31.2523C100.385 27.4623 93.9789 23.6493 87.3114 20.4499C80.3895 17.3279 73.2062 14.8188 66.1731 15.4208C53.2191 16.9632 31.4926 26.7863 34.9747 33.8089Z" fill="#FF3939"/>
<path d="M60.4217 31.9396C57.886 41.3429 69.6174 50.4578 86.6279 52.2955C103.637 54.1349 119.484 48.0038 122.02 38.5987C124.556 29.1954 112.479 16.0588 95.814 18.2422C78.5805 20.5008 62.9591 22.5357 60.4217 31.9396Z" fill="#9C5910"/>
<path d="M90.0684 37.8802C83.997 39.9828 77.3312 41.4936 69.8616 41.9248C62.2968 42.5205 56.3133 41.8313 50.3634 40.0986C44.6217 38.3567 38.9132 35.5718 36.6878 31.7595C36.0249 30.4224 36.2776 28.9843 37.2081 27.5205C34.9947 29.6741 34.0038 31.8506 34.9747 33.8093C37.1995 37.6216 42.9081 40.4065 48.6503 42.1484C54.6002 43.8806 60.5837 44.5704 68.1491 43.9746C75.6181 43.5434 82.2839 42.0326 88.3559 39.93C93.2601 38.1451 97.7411 35.9468 99.3538 33.0656C97.1792 34.9772 93.7399 36.5437 90.0684 37.8802Z" fill="#CD1212"/>
<path opacity="0.92" d="M40.3724 30.071C42.0193 32.6712 46.2441 34.5708 50.4934 35.7583C54.8968 36.94 59.3247 37.4102 64.9243 37.0036C70.4521 36.7095 75.3848 35.6791 79.8783 34.2451C84.2355 32.7842 88.1517 30.919 88.4723 28.3268C88.782 25.7414 84.0398 23.1412 79.1065 20.9589C73.9838 18.8294 68.6677 17.1185 63.4622 17.529C53.8746 18.5817 37.795 25.281 40.3724 30.071Z" fill="#FF8080"/>
<path d="M60.4331 31.4347C57.6247 40.2423 68.8759 48.3057 85.5658 49.4427C102.255 50.5802 118.062 44.3632 120.87 35.5538C123.679 26.7462 112.221 14.964 95.7382 17.5459C78.6935 20.2172 63.2426 22.6266 60.4331 31.4347Z" fill="#E6E6E6"/>
<path d="M63.6762 30.9987C60.987 38.0139 70.2227 43.9403 84.3062 44.235C98.3897 44.5297 111.987 39.0827 114.676 32.0663C117.365 25.0511 108.086 16.2125 94.0462 18.83C79.5275 21.538 66.3659 23.9835 63.6762 30.9987Z" fill="white"/>
<path d="M74.3397 29.8845C72.9232 34.3275 78.4812 38.3859 86.7534 38.9495C95.0268 39.5137 102.881 36.3693 104.298 31.9274C105.715 27.4849 100.158 23.426 91.8841 22.8624C83.6113 22.2982 75.7572 25.4425 74.3397 29.8845Z" fill="#E3C364"/>
<path d="M74.9542 28.9815C73.479 32.8133 78.4191 36.0403 85.9891 36.1888C93.5596 36.3384 100.892 33.354 102.368 29.5233C103.843 25.692 98.9031 22.4645 91.3326 22.3154C83.762 22.1663 76.4305 25.1507 74.9542 28.9815Z" fill="#FFDB70"/>
<path opacity="0.65" d="M81.768 27.1455C81.8059 27.46 81.9737 27.7556 82.2616 28.0154C82.5496 28.2751 82.9521 28.4939 83.4462 28.6593C83.9403 28.8247 84.5164 28.9334 85.1414 28.9793C85.7664 29.0251 86.4283 29.0072 87.089 28.9265C87.7498 28.8458 88.3967 28.7039 88.9926 28.509C89.5886 28.314 90.1219 28.0699 90.5623 27.7904C91.0026 27.5109 91.3413 27.2016 91.559 26.8801C91.7767 26.5586 91.8691 26.2312 91.831 25.9166C91.7931 25.6021 91.6253 25.3065 91.3374 25.0467C91.0494 24.787 90.6469 24.5682 90.1528 24.4028C89.6587 24.2374 89.0827 24.1287 88.4576 24.0829C87.8326 24.037 87.1708 24.055 86.51 24.1357C85.8492 24.2163 85.2023 24.3582 84.6064 24.5531C84.0105 24.7481 83.4771 24.9923 83.0368 25.2717C82.5964 25.5512 82.2577 25.8606 82.04 26.1821C81.8223 26.5036 81.7299 26.8309 81.768 27.1455Z" fill="white"/>
</svg>
