<svg width="116" height="140" viewBox="0 0 116 140" fill="none" xmlns="http://www.w3.org/2000/svg">
<path d="M104.323 49.6526C101.308 66.1743 104.645 107.322 105.897 116.567C106.03 117.528 106.285 121.105 104.955 125.141C104.046 127.879 102.162 130.428 99.4795 131.445C98.0718 131.971 96.5421 132.06 95.0458 132.138C88.2732 132.485 81.4896 132.831 74.717 133.178C71.5025 133.345 68.277 133.502 65.0625 133.502C54.0225 133.468 42.8716 131.423 32.02 133.457C29.0715 134.016 25.8903 134.832 23.1968 133.502C20.9688 132.395 19.6055 129.981 19.1178 127.522C18.63 125.062 18.8739 122.525 19.0956 120.032C20.337 105.869 20.4922 91.65 20.6363 77.431C20.7028 71.3276 20.7582 65.213 20.8247 59.1095C20.858 56.1473 20.8802 53.1738 20.5366 50.2339C19.8604 44.6111 17.7876 39.0443 18.5524 33.4327C19.7274 24.8924 27.7081 19.6273 29.526 18.3977C30.8118 17.537 34.0706 15.5137 46.2634 13.4233C55.1309 11.903 61.3492 10.8299 70.0948 11.2211C80.359 11.6795 88.384 12.0372 95.6221 17.7046C99.9672 21.1141 102.439 25.183 103.791 27.8994C103.98 28.6371 104.279 29.8668 104.556 31.387C106.163 40.4192 104.689 47.6405 104.323 49.6526Z" fill="#F2BB7C"/>
<path d="M99.679 48.3671C98.881 52.7714 98.5595 57.2652 98.4043 61.7365C98.227 66.7892 98.2602 71.8642 98.3822 76.9168C98.626 86.7874 99.2024 96.6691 100.056 106.506C100.377 110.307 100.754 114.085 101.264 117.863C101.209 117.427 101.153 117.003 101.087 116.567C101.286 118.121 101.209 119.719 101.02 121.273C101.076 120.837 101.131 120.412 101.198 119.976C100.987 121.586 100.621 123.196 100.012 124.693C100.178 124.302 100.333 123.922 100.499 123.531C100.1 124.481 99.5904 125.375 98.9696 126.203C99.2246 125.878 99.4684 125.543 99.7234 125.219C99.2357 125.834 98.7036 126.381 98.094 126.873C98.4154 126.616 98.7479 126.37 99.0694 126.113C98.5484 126.516 97.9942 126.84 97.3957 127.108C97.7836 126.94 98.1605 126.784 98.5484 126.616C97.7393 126.951 96.8969 127.142 96.0323 127.264C96.4646 127.209 96.8858 127.153 97.3181 127.086C95.0901 127.354 92.8289 127.376 90.5898 127.488C88.2954 127.611 85.9898 127.723 83.6954 127.846C79.1064 128.081 74.5064 128.36 69.9175 128.528C65.395 128.695 60.8948 128.561 56.3834 128.293C51.9164 128.025 47.4605 127.678 42.9824 127.678C40.5328 127.678 38.072 127.779 35.6335 128.047C32.8624 128.36 30.1689 128.964 27.42 129.355C27.8522 129.299 28.2734 129.243 28.7057 129.176C27.5973 129.321 26.4999 129.388 25.3804 129.254C25.8127 129.31 26.2339 129.366 26.6662 129.433C26.0566 129.344 25.4691 129.198 24.8927 128.964C25.2807 129.131 25.6575 129.288 26.0455 129.455C25.5245 129.232 25.0479 128.952 24.6045 128.606C24.926 128.863 25.2585 129.109 25.5799 129.366C25.1033 128.986 24.6932 128.561 24.3163 128.081C24.5713 128.405 24.8151 128.74 25.0701 129.064C24.5934 128.427 24.2055 127.734 23.8951 126.996C24.0614 127.387 24.2166 127.768 24.3828 128.159C24.017 127.231 23.7843 126.281 23.6513 125.286C23.7067 125.722 23.7621 126.147 23.8286 126.583C23.485 123.754 23.8951 120.904 24.1279 118.087C24.3607 115.27 24.538 112.453 24.6932 109.625C25.0036 103.902 25.1809 98.167 25.3028 92.4325C25.5356 80.9187 25.6132 69.4049 25.713 57.8912C25.7462 54.3364 25.5799 50.8487 25.0146 47.3275C24.5269 44.287 23.7621 41.3024 23.3409 38.2506C23.3963 38.6866 23.4517 39.1114 23.5182 39.5473C23.2522 37.5129 23.1635 35.456 23.4296 33.4216C23.3742 33.8575 23.3187 34.2823 23.2522 34.7183C23.4517 33.3433 23.8175 32.0131 24.3496 30.7276C24.1833 31.1188 24.0281 31.4989 23.8619 31.8901C24.5269 30.3028 25.4137 28.8161 26.4667 27.4523C26.2118 27.7765 25.9679 28.1118 25.713 28.436C27.1428 26.5804 28.8387 24.9483 30.6788 23.5063C30.3573 23.7634 30.0248 24.0093 29.7033 24.2664C31.233 23.0703 32.8291 21.986 34.6137 21.2259C34.2258 21.3936 33.8489 21.5501 33.4609 21.7177C38.7925 19.4597 44.7116 18.6101 50.3646 17.6488C52.5482 17.2799 54.743 16.9222 56.9377 16.6204C56.5054 16.6763 56.0842 16.7322 55.6519 16.7992C59.9637 16.218 64.2977 15.9273 68.6539 16.0391C72.8105 16.1509 77.0004 16.3297 81.1238 16.8887C80.6915 16.8328 80.2703 16.7769 79.838 16.7098C82.864 17.1234 85.8457 17.8053 88.6722 19.0014C88.2843 18.8337 87.9074 18.6772 87.5195 18.5095C89.5701 19.3926 91.4766 20.5328 93.239 21.9078C92.9176 21.6507 92.585 21.4048 92.2636 21.1476C94.1258 22.6232 95.7995 24.3223 97.2516 26.2115C96.9966 25.8873 96.7528 25.552 96.4978 25.2278C97.7171 26.8375 98.7701 28.5478 99.679 30.3587C99.5128 29.9674 99.3576 29.5874 99.1913 29.1961C99.668 31.0406 100.034 32.9185 100.289 34.8077C100.233 34.3717 100.178 33.947 100.111 33.511C100.666 37.7812 100.654 42.1184 100.089 46.3885C100.145 45.9526 100.2 45.5278 100.267 45.0919C100.067 46.1873 99.8786 47.2716 99.679 48.3671C99.4352 49.675 99.4795 50.927 100.167 52.1119C100.754 53.118 101.896 54.0793 103.049 54.3476C104.279 54.627 105.665 54.5712 106.762 53.8557C107.76 53.2074 108.746 52.179 108.979 50.9493C109.744 46.791 110.22 42.5879 110.098 38.3401C109.999 34.9195 109.555 31.4877 108.813 28.1453C108.702 27.6647 108.602 27.1952 108.469 26.7145C108.247 25.9097 107.804 25.1272 107.405 24.3894C106.884 23.428 106.319 22.5002 105.709 21.5948C102.361 16.7098 97.8723 12.5067 92.4188 10.1257C89.8472 9.00787 87.2534 8.14713 84.4934 7.6441C81.6226 7.11872 78.7185 6.8169 75.8033 6.62687C70.0061 6.2468 64.2201 6.07912 58.423 6.69394C55.2196 7.04047 52.0273 7.52114 48.8571 8.04653C45.8089 8.54956 42.7496 9.06376 39.7236 9.71211C36.0658 10.4946 32.4633 11.4895 29.0604 13.0768C27.553 13.7811 26.1785 14.7536 24.8705 15.7708C21.1794 18.6213 17.7433 22.0307 15.7592 26.3456C14.3625 29.3973 13.5866 32.5273 13.5756 35.9032C13.5645 39.4691 14.3293 43.0127 15.0387 46.4892C15.3491 47.9982 15.6373 49.5073 15.8479 51.0388C15.7924 50.6028 15.737 50.178 15.6705 49.7421C16.1028 53.0397 16.0474 56.3709 16.0141 59.6909C15.9809 63.0668 15.9476 66.4538 15.9144 69.8297C15.8479 76.4697 15.7924 83.1209 15.6816 89.7608C15.5707 96.4679 15.3823 103.164 15.0165 109.86C14.8392 113.168 14.6064 116.466 14.3182 119.764C14.0189 123.173 13.7307 126.728 14.817 130.037C16.1471 134.106 19.1621 137.761 23.485 138.7C27.5973 139.594 31.5766 138.309 35.6335 137.75C35.2012 137.806 34.78 137.862 34.3477 137.929C40.167 137.146 46.0528 137.381 51.8943 137.739C57.8244 138.096 63.7213 138.476 69.6625 138.264C75.7479 138.04 81.8332 137.672 87.9185 137.359C90.8891 137.202 93.9041 137.169 96.8636 136.867C98.9807 136.654 100.843 136.263 102.738 135.268C104.002 134.609 105.188 133.647 106.13 132.574C108.436 129.947 109.832 126.706 110.387 123.251C110.641 121.653 110.852 120.043 110.841 118.422C110.841 117.316 110.697 116.254 110.542 115.147C110.597 115.583 110.653 116.008 110.719 116.444C109.799 109.513 109.334 102.515 108.879 95.5401C108.247 85.6919 107.815 75.8214 107.948 65.9508C108.014 61.267 108.181 56.5721 108.79 51.9219C108.735 52.3578 108.68 52.7826 108.613 53.2186C108.713 52.4584 108.835 51.6871 108.968 50.9382C109.201 49.6303 109.167 48.3783 108.48 47.1934C107.893 46.1873 106.751 45.226 105.598 44.9577C104.368 44.6782 102.982 44.7341 101.885 45.4496C100.887 46.1091 99.9007 47.1375 99.679 48.3671Z" fill="#D8853A"/>
<path d="M110.309 110.385C111.284 112.296 111.695 114.521 111.816 116.868C111.839 117.304 111.85 117.751 111.861 118.199C111.872 118.914 111.85 119.641 111.828 120.378C111.783 121.686 111.683 123.005 111.595 124.302C111.517 125.386 111.307 126.895 110.331 127.477C108.779 128.404 107.028 126.828 105.476 125.923C103.226 124.604 100.388 124.66 97.9055 125.431C95.4227 126.202 93.1947 127.633 90.9556 128.975C87.3643 131.143 83.651 133.178 79.6163 134.307C75.5816 135.436 71.1922 135.603 67.2905 134.094C63.3555 132.563 59.8861 129.366 55.6741 129.388C51.3179 129.411 47.782 132.853 43.6253 134.173C39.3246 135.525 34.381 134.586 30.446 136.777C29.1602 137.493 28.0518 138.521 26.766 139.225C25.4691 139.941 23.8508 140.31 22.5428 139.628C21.6672 139.169 21.1019 138.353 20.7028 137.425C20.4257 136.788 20.2262 136.095 20.0378 135.425C19.6498 134.005 19.2729 132.585 18.885 131.166C18.7409 130.64 18.5968 130.126 18.4638 129.601C17.9872 127.834 17.4994 126.057 17.0228 124.291C16.912 123.888 16.8011 123.475 16.6903 123.072C16.5684 122.603 16.4353 122.111 16.5462 121.642C16.657 121.15 17.0117 120.747 17.3775 120.39C21.9332 116.041 29.3154 117.014 34.9573 114.264C38.7482 112.419 41.6191 108.932 45.5097 107.322C50.3425 105.31 55.8625 106.506 60.8394 108.104C65.8274 109.703 70.8929 111.693 76.0915 111.212C84.4824 110.43 85.7127 105.846 95.4005 104.974C99.3244 104.617 104.201 104.181 107.893 107.322C108.946 108.205 109.733 109.245 110.309 110.385Z" fill="#DA735B"/>
<path d="M110.309 110.385C106.707 111.525 103.326 108.339 95.0901 108.708C86.799 109.088 87.6747 111.782 78.6187 113.347C71.2144 114.622 63.6548 113.124 56.2172 111.983C54.488 111.715 52.7256 111.469 50.9854 111.626C45.6205 112.118 42.5391 114.499 38.6595 116.667C28.6836 122.234 26.0233 118.467 17.3664 124.078C17.2556 124.157 17.1337 124.224 17.0228 124.302C16.912 123.9 16.8011 123.486 16.6903 123.084C16.5684 122.614 16.4353 122.122 16.5462 121.653C16.657 121.161 17.0117 120.758 17.3775 120.401C21.9332 116.052 29.3154 117.025 34.9573 114.275C38.7482 112.431 41.6191 108.943 45.5097 107.333C50.3425 105.321 55.8625 106.517 60.8394 108.116C65.8163 109.714 70.8929 111.704 76.0915 111.223C84.4824 110.441 85.7127 105.858 95.4005 104.986C99.3244 104.628 104.201 104.192 107.893 107.333C108.946 108.205 109.733 109.245 110.309 110.385Z" fill="#D76827"/>
<path d="M111.761 121.798C111.794 122.413 111.783 123.285 111.595 124.313C111.34 125.767 111.118 127.019 110.331 127.488C108.779 128.416 107.028 126.84 105.476 125.934C103.226 124.615 100.388 124.671 97.9056 125.442C95.4227 126.214 93.1947 127.645 90.9557 128.986C87.3643 131.155 83.6511 133.189 79.6163 134.318C75.5816 135.447 71.1922 135.615 67.2794 134.106C63.3445 132.574 59.8751 129.377 55.663 129.4C51.3068 129.422 47.7709 132.865 43.6143 134.184C39.3135 135.536 34.3699 134.597 30.4349 136.788C29.1492 137.504 28.0407 138.532 26.7549 139.237C25.4581 139.952 23.8397 140.321 22.5318 139.639C21.6561 139.181 21.0908 138.365 20.6918 137.437C21.5785 136.688 22.4874 136.006 23.4074 135.414C24.4715 134.732 30.4017 131.099 37.5622 131.087C39.2138 131.087 40.8764 131.244 42.5058 130.953C46.3965 130.249 48.2808 128.617 50.3425 127.645C57.4476 124.269 62.9898 131.032 75.1383 129.847C78.3195 129.534 81.279 128.751 81.4785 128.695C83.8727 128.047 85.8347 127.276 89.1711 125.744C97.8502 121.753 97.828 120.915 100.588 120.311C103.015 119.775 106.707 119.618 111.761 121.798Z" fill="#A64545"/>
<path d="M18.5192 129.578C18.7963 129.522 19.0734 129.478 19.3395 129.433C23.9062 128.718 32.7516 126.583 41.5637 122.458C49.3892 118.802 51.2292 116.354 56.6717 116.332C60.8172 116.321 65.1401 117.338 65.1401 117.338C69.3744 118.333 70.0394 119.272 73.4534 119.674C78.0313 120.222 81.0351 119.037 81.3455 119.853C81.6115 120.535 79.7272 122.011 78.264 122.793C72.5002 125.856 66.825 119.73 59.7975 120.323C47.5714 121.362 37.0191 129.355 24.8817 130.964C22.9641 131.222 21.0021 131.322 19.0624 131.512L18.5192 129.578Z" fill="#F1A072"/>
<path d="M98.5927 117.953C103.137 116.835 107.904 116.935 112.127 118.21C112.094 118.724 112.038 119.249 111.983 119.775C107.527 118.769 102.683 118.825 98.0274 119.976C89.8139 122.01 82.2765 127.309 73.9522 128.013C71.1478 128.248 68.0885 127.812 66.5145 125.834C67.4678 124.716 69.2413 125.174 70.6047 125.521C75.1271 126.683 80.237 125.33 84.8148 123.441C89.4038 121.563 93.8154 119.126 98.5927 117.953Z" fill="#F1A072"/>
<path d="M113.424 42.8226C113.368 44.9801 112.681 47.1263 111.661 49.2502C111.473 49.6526 111.273 50.0439 111.063 50.4463C110.73 51.0835 110.375 51.7095 109.999 52.3355C109.334 53.4533 108.635 54.5711 107.937 55.6778C107.361 56.5944 106.452 57.8129 105.321 57.8576C103.525 57.9247 102.727 55.689 101.796 54.1464C100.444 51.8995 97.9388 50.5804 95.3894 50.0551C92.84 49.5297 90.213 49.7085 87.6082 49.8091C83.4293 49.9768 79.1951 49.9656 75.1271 49.0043C71.0592 48.0429 67.1131 46.0755 64.4085 42.8562C61.6818 39.6144 60.1521 35.1319 56.45 33.1086C52.6148 31.0182 47.8706 32.3372 43.6032 31.4877C39.1805 30.6046 35.301 27.3852 30.7896 27.4076C29.3154 27.4187 27.8633 27.7764 26.3891 27.7764C24.9149 27.7764 23.3187 27.3181 22.4874 26.0885C21.9332 25.2613 21.8334 24.2776 21.9221 23.2715C21.9775 22.5785 22.1327 21.8631 22.2879 21.2035C22.6204 19.7727 22.964 18.3419 23.2966 16.911C23.4185 16.3856 23.5404 15.8602 23.6734 15.3349C24.0946 13.5463 24.5158 11.7578 24.9371 9.9692C25.0368 9.5556 25.1255 9.15318 25.2252 8.73958C25.3361 8.27008 25.458 7.77823 25.7795 7.40934C26.112 7.02928 26.6108 6.83924 27.0985 6.71628C33.1617 5.09541 39.1805 9.52207 45.4432 9.83506C49.6441 10.0475 53.823 8.37069 58.0018 8.84018C63.2003 9.41028 67.4789 13.1215 71.0924 16.9334C74.7059 20.7452 78.2086 24.9483 83.0081 27.0387C90.745 30.4034 94.0038 26.9716 102.927 30.8952C106.54 32.4826 111.029 34.45 112.781 38.9884C113.257 40.2516 113.457 41.5371 113.424 42.8226Z" fill="#DA735B"/>
<path d="M113.424 42.8226C109.71 42.0848 108.269 37.6582 100.854 34.0028C93.4053 30.3251 92.8844 33.1197 84.1942 30.1127C77.0891 27.6535 71.159 22.6903 65.1845 18.0959C63.7879 17.0228 62.3691 15.9608 60.7618 15.2566C55.8182 13.088 51.983 13.7028 47.5492 13.7252C36.1434 13.781 35.6003 9.18671 25.3361 9.93567C25.2031 9.94685 25.059 9.95803 24.926 9.9692C25.0258 9.5556 25.1145 9.15318 25.2142 8.73958C25.3251 8.27008 25.447 7.77823 25.7684 7.40934C26.101 7.02928 26.5998 6.83924 27.0875 6.71628C33.1506 5.09541 39.1695 9.52207 45.4321 9.83506C49.6331 10.0475 53.8119 8.37069 57.9907 8.84018C63.1893 9.41028 67.4679 13.1215 71.0814 16.9334C74.6949 20.7452 78.1976 24.9483 82.9971 27.0387C90.734 30.4034 93.9928 26.9716 102.916 30.8952C106.529 32.4826 111.018 34.45 112.77 38.9884C113.257 40.2516 113.457 41.5371 113.424 42.8226Z" fill="#D76827"/>
<path d="M109.278 53.5427C109.012 54.1016 108.591 54.8618 107.937 55.6666C107.017 56.818 106.23 57.8129 105.321 57.8464C103.525 57.9135 102.727 55.6778 101.796 54.1352C100.444 51.8883 97.9388 50.5693 95.3894 50.0439C92.84 49.5185 90.213 49.6973 87.6081 49.7979C83.4293 49.9656 79.1951 49.9544 75.1271 48.9931C71.0592 48.0318 67.1131 46.0644 64.4085 42.845C61.6818 39.6032 60.1521 35.1207 56.45 33.0974C52.6258 31.007 47.8706 32.3261 43.6032 31.4765C39.1805 30.5934 35.3009 27.374 30.7896 27.3964C29.3154 27.4075 27.8633 27.7653 26.3891 27.7653C24.9149 27.7653 23.3187 27.3069 22.4874 26.0773C21.9332 25.2501 21.8334 24.2664 21.9221 23.2604C23.0527 23.0256 24.1833 22.8691 25.2696 22.7909C26.5221 22.7014 33.4609 22.3773 39.7458 25.8314C41.1978 26.6251 42.5834 27.5752 44.1463 28.1006C47.8928 29.3638 50.3203 28.8384 52.5926 28.9725C60.4292 29.442 62.0808 38.0494 73.3204 42.8897C76.2577 44.1528 79.2284 44.8906 79.439 44.9465C81.8443 45.539 83.9392 45.8072 87.5971 46.0644C97.1075 46.7574 97.4954 46.0085 100.2 46.8133C102.561 47.5399 105.875 49.1831 109.278 53.5427Z" fill="#A64545"/>
<path d="M23.74 15.3237C24.006 15.4132 24.272 15.5026 24.527 15.592C28.8831 17.1682 37.6509 19.5715 47.3497 20.2087C55.9512 20.7788 58.7334 19.5156 63.5218 22.1314C67.1686 24.1212 70.4828 27.1058 70.4828 27.1058C73.7194 30.0234 73.8635 31.1636 76.6679 33.1757C80.4255 35.8697 83.6289 36.2721 83.518 37.144C83.4294 37.8706 81.0684 38.2619 79.4168 38.2395C72.8992 38.1501 70.8375 30.0234 64.3753 27.1505C53.1468 22.1649 40.0894 24.0764 28.6725 19.6274C26.8658 18.9232 25.0923 18.0624 23.3077 17.2911L23.74 15.3237Z" fill="#F1A072"/>
<path d="M99.5461 43.8065C104.068 45.025 108.203 47.406 111.307 50.5807C111.029 51.0166 110.741 51.4526 110.431 51.8885C107.006 48.848 102.727 46.5564 98.094 45.3156C89.9137 43.1358 80.7913 44.1419 73.1431 40.7437C70.5715 39.6035 68.0997 37.7367 67.6452 35.2439C69.0086 34.7297 70.3498 35.9705 71.3806 36.943C74.7946 40.1512 79.9267 41.4255 84.8371 41.9845C89.7585 42.5322 94.7909 42.521 99.5461 43.8065Z" fill="#F1A072"/>
<path d="M25.5911 14.7647C25.8239 14.7647 25.8239 14.407 25.5911 14.407C25.3583 14.407 25.3583 14.7647 25.5911 14.7647Z" fill="#F1A072"/>
<path d="M114.288 53.2521C112.836 54.627 110.763 55.0518 108.99 55.9684C108.657 56.1361 108.336 56.3485 108.026 56.5721C106.684 57.6005 105.698 59.1766 106.23 60.7193C106.352 61.0882 106.562 61.4235 106.795 61.7589C107.638 62.9438 108.879 63.9945 108.402 65.2801C107.904 66.6438 106.019 66.6215 104.722 67.2587C104.201 67.5158 103.78 67.8846 103.414 68.3206C103.004 68.8236 102.672 69.4049 102.406 70.0197C102.284 70.2992 102.173 70.5786 102.062 70.8581C101.53 72.3001 101.109 73.8428 100.067 74.9606C99.025 76.0784 97.1074 76.5591 95.999 75.5195C95.0457 74.6252 94.9238 72.9149 93.7932 72.356C93.7489 72.3337 93.6935 72.3113 93.6491 72.2889C92.1195 71.7188 90.8558 73.8875 91.2438 75.486C91.6318 77.0845 92.851 78.3812 93.239 79.9797C93.3831 80.5722 93.3942 81.187 93.2833 81.7794C93.0284 83.2103 92.1195 84.5293 90.8226 85.1665C88.9826 86.072 86.5551 85.513 85.2804 83.8922C84.0944 82.3719 83.9724 80.2815 83.1855 78.5265C82.8086 77.6769 82.0881 76.9056 81.2789 76.4585C80.4033 75.9666 79.4168 75.8772 78.6409 76.5032C78.1642 76.8945 77.8982 77.4534 77.6876 78.057C77.3883 78.873 77.1666 79.7561 76.557 80.3486C75.3377 81.5111 72.9102 80.4939 72.8659 78.806C72.8437 78.0682 73.1763 77.2522 72.7661 76.6485C72.223 75.8549 70.8707 76.2796 70.4606 77.1404C70.0505 78.0011 70.25 79.0184 70.4273 79.9685C70.6269 81.0417 70.7599 82.1707 70.383 83.1879C70.0172 84.2051 68.9864 85.0659 67.9223 84.8759C66.4591 84.6188 66.0601 82.9308 65.5945 81.3994C65.4948 81.0864 65.395 80.7734 65.2842 80.4827C64.3309 78.057 61.7483 76.8721 59.1434 76.9503C57.9352 76.9839 56.727 77.2857 55.674 77.867C55.3193 78.0682 54.9757 78.2918 54.6653 78.5489C53.2022 79.7561 52.1492 81.4217 50.6639 82.6066C49.1786 83.7915 46.9174 84.384 45.4431 83.1767C44.7337 82.5955 44.3458 81.7012 43.7472 80.9969C43.1487 80.2927 42.0957 79.7897 41.3197 80.2815C40.2446 80.9746 40.566 83.0202 39.3689 83.4562C38.4932 83.7804 37.6176 82.8526 37.407 81.9248C37.1964 81.0081 37.3515 80.0132 37.0523 79.119C36.6311 77.9005 35.4229 77.0845 35.0016 75.866C34.6137 74.7594 34.9462 73.608 35.4894 72.5237C35.7443 72.0095 36.0547 71.5176 36.3539 71.0593C38.3824 67.9517 40.4108 64.8441 42.4393 61.7477C42.6055 61.5018 42.7718 61.2335 42.9048 60.9652C43.0822 60.6075 43.2041 60.2386 43.2041 59.8474C43.2041 59.6014 43.1598 59.389 43.0711 59.1766C42.6166 58.0588 41.0426 57.4887 39.7236 57.5334C38.1718 57.5781 36.5091 58.0141 35.1457 57.2763C33.6494 56.4603 33.1173 54.5264 31.8204 53.4198C30.0802 51.9442 27.2315 52.1566 25.8016 50.368C24.8151 49.1384 24.8816 47.2828 25.6243 45.8855C26.3669 44.4882 27.6527 43.4709 28.9828 42.6214C30.8339 41.4476 33.206 39.6703 32.3636 37.6246C31.9313 36.5739 30.8007 36.0485 29.7587 35.6237C27.2537 34.5841 24.7486 33.5445 22.2435 32.5049C21.3235 32.1248 20.3259 31.6665 19.8936 30.7611C19.4059 29.7327 19.8382 28.5142 20.2705 27.4523C21.8777 23.5622 23.8286 19.3032 27.697 17.7047C30.7896 16.4303 34.7245 17.0787 37.1631 14.7759C40.0118 12.0931 39.3246 7.05162 42.7607 4.89418C47.3053 2.04368 52.7699 6.50387 57.5805 5.96731C60.6177 5.63196 63.1449 3.5863 65.7497 1.98779C68.3656 0.389273 71.702 -0.795641 74.3955 0.657555C76.8452 1.97661 77.9093 5.06186 80.2592 6.57094C83.1079 8.40421 86.7879 7.40933 90.1575 7.15222C93.3831 6.9063 96.8525 7.58818 99.4906 9.35437C100.699 10.1592 101.741 11.1988 102.506 12.4843C104.113 15.1895 104.257 18.4983 104.357 21.6506C104.479 25.6302 104.612 29.5985 104.733 33.578C107.061 36.9316 110.741 39.0555 113.368 42.1742C115.995 45.3154 117.248 50.4575 114.288 53.2521Z" fill="#71A642"/>
<g opacity="0.5">
<path d="M97.573 56.7957C97.8945 58.5284 97.7282 60.574 96.3427 61.6472C95.5335 62.2732 94.414 62.4744 93.7489 63.2569C92.6405 64.5536 93.4275 66.521 93.4275 68.2313C93.4386 71.5513 90.0246 74.167 86.7325 74.0888C84.2274 74.0329 81.811 72.7809 79.3281 73.0715C78.0091 73.228 76.6679 73.8093 75.3932 73.4181C74.2182 73.0603 72.999 71.9313 71.9681 72.6132C71.5912 72.8591 71.3917 73.2951 71.0924 73.6304C70.1392 74.7371 68.3879 74.6812 67.0356 74.1447C65.6833 73.6081 64.4972 72.6691 63.1006 72.2555C61.704 71.8307 59.9083 72.1214 59.2654 73.4404C58.8331 74.3347 59.0659 75.3855 59.1102 76.3803C59.1213 76.5816 59.1213 76.7716 59.1213 76.9616C57.9131 76.9952 56.7049 77.297 55.6519 77.8783C55.2972 78.0795 54.9536 78.303 54.6432 78.5601C53.1801 79.7674 52.1271 81.433 50.6418 82.6179C49.1564 83.8028 46.8952 84.3953 45.421 83.188C44.7116 82.6067 44.3237 81.7125 43.7251 81.0082C43.1265 80.304 42.0735 79.8009 41.2976 80.2928C40.2224 80.9859 40.5439 83.0315 39.3468 83.4675C38.4711 83.7916 37.5954 82.8638 37.3848 81.936C37.1742 81.0194 37.3294 80.0245 37.0301 79.1302C36.6089 77.9118 35.4007 77.0958 34.9795 75.8773C34.5916 74.7706 34.9241 73.6193 35.4672 72.535C35.7222 72.0208 36.0325 71.5289 36.3318 71.0706C38.3603 67.963 40.3887 64.8554 42.4171 61.759C42.5834 61.513 42.7497 61.2447 42.8827 60.9765L42.8938 60.9876C43.6808 59.7133 43.0268 58.0142 42.0292 56.9075C41.0316 55.8009 39.7015 55.0184 38.8036 53.8223C37.0745 51.5531 37.2407 48.4231 36.9858 45.5726C36.5203 40.3858 34.3588 35.3779 30.9226 31.4989C29.6923 30.1128 28.2402 28.7602 27.8412 26.9381C27.2981 24.4118 29.0937 21.8408 31.3771 20.6782C33.6716 19.5045 36.3318 19.4151 38.8923 19.3703C39.7791 19.3592 40.688 19.3368 41.475 18.9232C43.3482 17.9395 43.5367 15.3908 44.3458 13.4122C45.1993 11.3219 47.2167 9.58922 49.4668 9.67865C51.6948 9.76808 53.4683 11.5119 55.5521 12.3056C59.21 13.6917 63.3888 11.9479 66.3151 9.32094C67.2572 8.47138 68.2438 7.4765 69.5074 7.40943C70.3054 7.36472 71.0814 7.71125 71.8018 8.0466C74.1628 9.14209 76.6901 10.4052 77.8317 12.7639C78.3416 13.8035 78.5744 15.0555 79.4833 15.7709C80.7802 16.7993 82.6424 16.1621 84.2829 15.9945C88.4284 15.5473 92.6072 18.9567 93.0506 23.1375C93.3388 25.8427 92.2525 28.5367 92.4077 31.2418C92.7292 37.0993 98.6371 41.962 97.6395 47.7412C97.4178 49.0491 96.8415 50.2899 96.7195 51.6201C96.5865 53.364 97.2627 55.0631 97.573 56.7957Z" fill="#ACC055"/>
</g>
<g opacity="0.6">
<path d="M91.0776 58.9642C90.3903 60.6298 88.8053 61.8929 87.0318 62.1836C86.3224 62.2954 85.4689 62.3177 85.0588 62.9214C84.4713 63.7598 85.2804 64.8888 86.1339 65.4365C86.9874 65.9843 88.0626 66.5096 88.2511 67.5157C88.5171 68.9465 86.6882 69.9191 85.2583 69.6843C83.8395 69.4608 82.5759 68.5665 81.146 68.3876C78.3416 68.0299 75.4153 70.4556 72.8548 69.226C72.0124 68.8236 70.8818 68.1193 70.3498 68.8906C70.0727 69.2931 70.2278 69.8296 70.1724 70.3215C70.0394 71.607 68.3989 72.2442 67.1796 71.8529C65.9604 71.4617 65.0736 70.4221 64.1979 69.4831C63.3223 68.5329 62.3025 67.5828 61.0278 67.4598C59.4317 67.3145 57.9907 68.5665 57.3145 70.0308C56.6384 71.4952 56.5386 73.1496 56.317 74.7481C56.1729 75.7989 55.9512 76.8497 55.6741 77.8781C55.3194 78.0793 54.9757 78.3029 54.6654 78.56C53.2022 79.7673 52.1492 81.4328 50.6639 82.6178C49.1786 83.8027 46.9174 84.3951 45.4432 83.1879C44.7338 82.6066 44.3458 81.7123 43.7473 81.0081C43.1487 80.3038 42.0957 79.8008 41.3198 80.2926C40.2446 80.9857 40.566 83.0314 39.3689 83.4673C38.4933 83.7915 37.6176 82.8637 37.407 81.9359C37.1964 81.0192 37.3516 80.0244 37.0523 79.1301C36.6311 77.9116 35.4229 77.0956 35.0017 75.8772C34.6137 74.7705 34.9463 73.6191 35.4894 72.5348C35.7443 72.0206 36.0547 71.5288 36.354 71.0704C38.3824 67.9628 40.4109 64.8552 42.4393 61.7588C42.8162 61.1775 43.2152 60.5515 43.2041 59.8585C43.2041 59.6125 43.1598 59.4002 43.0711 59.1878C43.9246 57.7458 44.6451 56.1025 45.0774 54.2245C45.554 52.1789 46.5516 47.9423 44.501 44.3763C41.8297 39.7373 39.0364 37.591 39.0364 37.591C38.3603 36.9762 37.6287 36.3391 37.3848 35.456C37.1299 34.5281 37.4846 33.5444 37.4957 32.5831C37.54 29.7997 34.9463 27.8323 33.3944 25.5183C33.0841 25.06 32.807 24.5458 32.7626 23.9981C32.6851 23.0144 33.3723 22.1089 34.1925 21.5723C36.0436 20.3651 38.726 20.6781 40.2557 22.2766C41.3087 23.3721 41.7964 24.9259 42.8716 26.0102C43.9468 27.0833 46.1304 27.3292 46.7068 25.9208C46.9507 25.3283 46.8066 24.6464 46.6625 24.0204C46.1415 21.9077 45.7646 19.1466 47.6157 18.0176C48.9237 17.2239 50.6196 17.8164 51.9165 18.6101C54.8427 20.3986 57.1372 23.2156 58.3011 26.4685C58.9772 28.3577 59.2876 30.3809 60.2297 32.1471C60.6399 32.9185 61.4712 33.7233 62.2693 33.3656C62.6683 33.1867 62.89 32.762 63.0784 32.3707C63.677 31.0852 64.1536 29.7326 64.4861 28.3465C64.8408 26.8597 65.0404 25.3059 65.7387 23.9422C66.437 22.5896 67.8225 21.4382 69.33 21.5835C71.037 21.7512 72.223 23.495 72.478 25.2053C72.7329 26.9156 72.3339 28.6483 72.2009 30.3698C72.0679 32.0912 72.2785 34.0028 73.4867 35.2324C73.9965 35.7466 74.6394 36.2161 76.3353 36.7079C81.5783 38.2059 84.8038 36.7079 85.9233 38.4294C86.3667 39.1113 86.3445 40.095 86.0342 40.7322C85.5908 41.6488 84.4935 41.8836 83.9392 42.1183C81.9995 42.9679 80.0597 43.8174 78.1199 44.667C74.972 46.0419 71.6245 47.5957 69.8953 50.5804C69.6847 50.9493 69.4852 51.374 69.5295 51.7988C69.6293 52.7266 70.7266 53.1514 71.6356 53.252C74.9276 53.5986 78.1199 52.2236 81.3566 51.5417C84.5932 50.8598 88.506 51.1393 90.4458 53.8445C91.521 55.2753 91.7648 57.2986 91.0776 58.9642Z" fill="#BDDA81"/>
</g>
<path d="M37.8504 67.1021C38.0831 67.1021 38.0831 66.7444 37.8504 66.7444C37.6176 66.7444 37.6176 67.1021 37.8504 67.1021Z" fill="#BDDA81"/>
<g opacity="0.5">
<g opacity="0.5">
<path d="M77.6876 78.0682C77.3883 78.8842 77.1666 79.7673 76.557 80.3598C75.3377 81.5223 72.9102 80.5051 72.8659 78.8172C72.8437 78.0794 73.1763 77.2634 72.7661 76.6597C72.223 75.866 70.8707 76.2908 70.4606 77.1516C70.0505 78.0123 70.25 79.0295 70.4273 79.9797C70.6269 81.0528 70.7599 82.1819 70.383 83.1991C70.0172 84.2163 68.9864 85.0771 67.9223 84.887C66.4591 84.6299 66.0601 82.942 65.5945 81.4105C65.8384 81.3099 66.0601 81.187 66.2818 81.0081C67.4456 80.058 66.8138 78.9178 67.7671 76.7044C68.5652 74.8376 70.2832 73.3956 72.2452 72.9261C73.8635 72.5461 76.036 73.2168 76.2023 74.8935C76.2688 75.5866 75.9695 76.302 76.158 76.9727C76.3353 77.677 76.956 78.0123 77.6876 78.0682Z" fill="#477437"/>
</g>
<g opacity="0.5">
<path d="M92.8843 82.0478C93.0506 81.9919 93.1836 81.9136 93.2944 81.8018C93.0395 83.2327 92.1306 84.5517 90.8337 85.1889C88.9937 86.0943 86.5662 85.5354 85.2915 83.9146C84.1055 82.3943 83.9835 80.3039 83.1965 78.5489C82.8197 77.6993 82.0992 76.928 81.29 76.4809C82.1879 75.8102 83.119 75.2289 84.172 75.3966C85.8457 75.6649 86.5884 77.5876 87.5527 78.996C88.5614 80.4604 90.091 81.5559 91.798 82.0142C92.1527 82.0925 92.5407 82.1595 92.8843 82.0478Z" fill="#477437"/>
</g>
<g opacity="0.5">
<path d="M102.417 70.0309C102.295 70.3104 102.184 70.5899 102.073 70.8693C101.541 72.3113 101.12 73.854 100.078 74.9718C99.0362 76.0897 97.1186 76.5703 96.0101 75.5307C95.0569 74.6365 94.9349 72.9262 93.8043 72.3672C93.8154 72.3113 93.8265 72.2555 93.8376 72.1996C94.0482 71.1488 94.7022 69.8744 95.7552 70.0309C96.2318 70.098 96.5976 70.4557 96.9855 70.7352C98.626 71.9313 101.02 71.4282 102.417 70.0309Z" fill="#477437"/>
</g>
<g opacity="0.5">
<path d="M106.806 61.77C107.649 62.9549 108.89 64.0057 108.414 65.2912C107.915 66.655 106.03 66.6326 104.733 67.2698C104.213 67.5269 103.791 67.8958 103.426 68.3318C103.47 68.1753 103.503 68.0076 103.525 67.8399C103.703 66.3644 103.137 64.6876 104.002 63.4691C104.634 62.5749 105.842 62.3066 106.806 61.77Z" fill="#477437"/>
</g>
<g opacity="0.5">
<path d="M114.288 53.252C112.836 54.6269 110.763 55.0517 108.99 55.9684C108.657 56.136 108.336 56.3484 108.026 56.572C107.959 56.069 107.926 55.5659 107.97 55.0741C108.203 52.5701 110.664 50.7592 111.007 48.2664C111.24 46.5785 110.442 44.9017 109.333 43.6162C108.225 42.3307 106.828 41.347 105.543 40.2403C102.594 37.6804 100.211 34.204 99.7677 30.3027C99.2467 25.7083 101.43 21.1811 101.175 16.5644C101.042 14.094 100.222 11.7353 99.4684 9.36548C100.677 10.1703 101.719 11.2099 102.483 12.4954C104.091 15.2006 104.235 18.5094 104.334 21.6618C104.456 25.6413 104.589 29.6096 104.711 33.5891C107.039 36.9427 110.719 39.0666 113.346 42.1854C115.995 45.3153 117.248 50.4574 114.288 53.252Z" fill="#477437"/>
</g>
</g>
<path d="M44.6673 82.327C44.8336 80.8402 45.0553 79.3535 45.3324 77.8891C45.3989 77.5202 45.4765 77.1513 45.554 76.7825C45.6316 76.4136 45.6981 76.0447 45.7868 75.6758L46.0418 74.5803L46.1748 74.0326L46.3189 73.4848C47.0615 70.5784 47.9815 67.7056 49.0567 64.8998C49.1897 64.5533 49.3227 64.1955 49.4668 63.849L49.8991 62.8094C50.0432 62.4629 50.1873 62.1164 50.3314 61.7698L50.797 60.7414L51.2625 59.713C51.4177 59.3665 51.584 59.0311 51.7502 58.6958C52.0827 58.0251 52.4042 57.3432 52.7589 56.6725L53.2799 55.6776C53.4572 55.3422 53.6235 55.0069 53.8119 54.6827L54.9204 52.7153C55.3083 52.0669 55.6963 51.4298 56.0953 50.7926L56.3835 50.3119L56.6939 49.8424L57.3035 48.8923L57.9242 47.9533L58.5671 47.0255L59.21 46.0977L59.5315 45.6393L59.864 45.181C60.3184 44.5774 60.7618 43.9738 61.2163 43.3701C61.6818 42.7777 62.1363 42.1852 62.6129 41.6039C63.5662 40.4414 64.5194 39.29 65.517 38.1722C65.7609 37.8927 66.0158 37.6132 66.2597 37.3338L67.0245 36.5066L67.7893 35.6905C68.0443 35.4223 68.3103 35.154 68.5763 34.8857C70.6713 32.7394 72.8549 30.6938 75.1272 28.7711L75.9807 28.0557C76.1248 27.9327 76.2689 27.8209 76.413 27.698L76.8453 27.3514L77.7209 26.6472C78.0091 26.4124 78.3084 26.1889 78.6077 25.9653C79.7826 25.0487 80.9908 24.1879 82.2212 23.3384C81.6891 23.8638 81.1349 24.3556 80.6029 24.881C80.0708 25.3952 79.5277 25.9094 78.9956 26.4236L78.1976 27.1949L77.4106 27.9774C77.1445 28.2457 76.8785 28.4916 76.6236 28.7599L75.8477 29.5536C73.7749 31.6663 71.7575 33.8237 69.8178 36.0483C69.5739 36.3277 69.33 36.596 69.0862 36.8755L68.3768 37.725L67.6563 38.5634C67.4235 38.8429 67.1908 39.1335 66.958 39.413C66.0158 40.5532 65.1069 41.7045 64.2091 42.8783C63.7657 43.4707 63.3223 44.052 62.8789 44.6445C62.4466 45.2369 62.0144 45.8406 61.5931 46.433L61.2717 46.8802L60.9613 47.3385L60.3406 48.2439L59.7199 49.1494L59.1213 50.0772L58.5117 51.005L58.2124 51.4633L57.9242 51.9328L56.7604 53.8108L55.6408 55.7111C55.4524 56.0241 55.2751 56.3483 55.0977 56.6725L54.5546 57.6338C54.1888 58.271 53.8562 58.9305 53.5126 59.5788L53.2577 60.0707C53.169 60.2384 53.0803 60.3949 53.0028 60.5625L52.504 61.5463L52.0052 62.5411L51.5396 63.5472L51.063 64.5421C50.9078 64.8774 50.7637 65.2128 50.6085 65.5481C49.4003 68.2421 48.303 70.992 47.3165 73.7866L47.128 74.312L46.9507 74.8374L46.596 75.8882C46.4741 76.2347 46.3743 76.5924 46.2524 76.9501L46.0861 77.4867L45.9974 77.755L45.9198 78.0233L45.5984 79.0964L45.5208 79.3647L45.4432 79.633L45.288 80.1695C45.0553 80.8738 44.8779 81.6004 44.6673 82.327Z" fill="#BDDA81"/>
<path d="M50.4644 66.0849C50.2649 65.8389 50.0876 65.593 49.8991 65.3471L49.3449 64.6205C49.1565 64.3746 48.9791 64.1286 48.7907 63.8939C48.6023 63.6591 48.4249 63.4132 48.2365 63.1673C47.4938 62.2059 46.7512 61.2669 45.9863 60.3391C45.2215 59.4113 44.4456 58.5059 43.6586 57.6116L43.3593 57.2763C43.2596 57.1645 43.1598 57.0527 43.0601 56.9409C42.8605 56.7173 42.661 56.5049 42.4615 56.2814L41.8519 55.633C41.7521 55.5212 41.6523 55.4095 41.5526 55.3088L41.2422 54.9847C39.6017 53.2632 37.8837 51.6088 36.1102 49.9879C35.2234 49.1719 34.3256 48.3782 33.4167 47.5734L32.0422 46.3661C31.5877 45.9637 31.1222 45.5613 30.6677 45.1365C31.2441 45.3489 31.8094 45.5948 32.3636 45.8631C32.6407 45.986 32.9179 46.1314 33.195 46.2655C33.4721 46.4108 33.7381 46.5561 34.0152 46.7015C35.0904 47.2939 36.1434 47.9534 37.1521 48.6577C39.1805 50.0662 41.0649 51.6982 42.7719 53.4868C43.2042 53.9339 43.6143 54.3922 44.0244 54.8617C44.2239 55.0965 44.4234 55.3312 44.623 55.5771C44.8225 55.8119 45.0109 56.0578 45.1993 56.3037C45.9642 57.2874 46.6847 58.2935 47.3386 59.3554C47.9926 60.4174 48.5912 61.5017 49.1232 62.6195C49.3892 63.1785 49.6331 63.7486 49.8548 64.3298C49.9767 64.6205 50.0765 64.9111 50.1762 65.2018C50.2871 65.4924 50.3758 65.783 50.4644 66.0849Z" fill="#BDDA81"/>
<path d="M56.583 53.7663C56.3835 53.1068 56.1839 52.4584 55.9512 51.8212C55.7184 51.1953 55.4635 50.5804 55.1753 49.9768C54.5989 48.7919 53.9227 47.6741 53.1357 46.6568C53.036 46.5339 52.9362 46.4109 52.8365 46.2879C52.7367 46.165 52.6369 46.042 52.5261 45.919C52.4152 45.8073 52.3155 45.6843 52.2046 45.5613L52.0495 45.3825C51.994 45.3266 51.9386 45.2707 51.8832 45.2148L51.5507 44.8794C51.5174 44.8571 51.4952 44.8236 51.462 44.8012L51.3733 44.7229L51.196 44.5664L51.0186 44.4099C50.9632 44.3541 50.9078 44.2982 50.8413 44.2535L50.4755 43.9405C49.489 43.1132 48.4027 42.3867 47.3053 41.5483L46.8952 41.2353L46.4851 40.9111L46.2856 40.7434L46.0861 40.5646L45.687 40.218L45.2991 39.8491L45.0996 39.6703C45.0331 39.6032 44.9776 39.5362 44.9111 39.4803L44.5343 39.089C44.4123 38.9549 44.3015 38.8207 44.1796 38.6866C44.0687 38.5524 43.9468 38.4183 43.8359 38.273C43.7251 38.1277 43.6143 37.9935 43.5034 37.8482C43.4036 37.7029 43.2928 37.5576 43.193 37.4122L42.8938 36.9651C42.7053 36.6633 42.5169 36.3503 42.3506 36.0373L42.2287 35.8026L42.1068 35.5566L41.9848 35.3107C41.9405 35.2325 41.9073 35.1542 41.874 35.0648C41.8075 34.8971 41.7299 34.7406 41.6634 34.5729C41.5969 34.4053 41.5415 34.2376 41.475 34.0699L41.3863 33.824L41.3087 33.5669C41.2533 33.3992 41.1979 33.2315 41.1535 33.0638L41.0205 32.5496L40.954 32.2925L40.8986 32.0354L40.7988 31.5212C40.7656 31.3424 40.7434 31.1747 40.7212 30.9958C40.6658 30.6493 40.6326 30.3028 40.5993 29.9562C40.5882 29.8668 40.5771 29.7886 40.5771 29.6991L40.566 29.442C40.555 29.2632 40.555 29.0955 40.5439 28.9166C40.5328 28.5701 40.555 28.2236 40.555 27.877C40.5771 27.5305 40.5993 27.184 40.6436 26.8486C40.7323 27.184 40.7988 27.5193 40.8764 27.8435L41.0094 28.3354C41.0538 28.503 41.087 28.6595 41.1313 28.8272C41.3198 29.4756 41.5082 30.1127 41.7299 30.7387L41.8962 31.2082L42.0846 31.6665L42.1733 31.8901L42.273 32.1137L42.4726 32.5608C42.7497 33.1533 43.0489 33.7234 43.3815 34.2823C43.4147 34.3494 43.4591 34.4164 43.5034 34.4835L43.6364 34.6847L43.7694 34.8859L43.9024 35.0871C44.0798 35.3554 44.2682 35.6125 44.4567 35.8696C44.8446 36.3727 45.2547 36.8645 45.6981 37.3116L45.8644 37.4793C45.9198 37.5352 45.9752 37.5911 46.0306 37.647L46.3743 37.9712L46.5516 38.1388L46.729 38.2953L47.0837 38.6083L47.4494 38.9213L47.6379 39.0778L47.8263 39.2232L48.2032 39.525L48.6022 39.8268C49.6552 40.6205 50.7858 41.4365 51.8278 42.409L52.2157 42.7779C52.2822 42.8338 52.3377 42.9009 52.4042 42.9679L52.5926 43.1691L52.781 43.3704C52.8475 43.4374 52.903 43.5045 52.9584 43.5716L53.302 43.9852C53.3574 44.0522 53.4239 44.1193 53.4683 44.1976L53.6345 44.4099C53.7454 44.5553 53.8451 44.7006 53.956 44.8459C54.0557 44.9912 54.1555 45.1477 54.2553 45.293C54.355 45.4384 54.4548 45.5949 54.5435 45.7402C55.275 46.9698 55.8292 48.2889 56.1839 49.6526C56.3613 50.3345 56.4832 51.0276 56.5497 51.7206C56.6051 52.3802 56.6273 53.0732 56.583 53.7663Z" fill="#BDDA81"/>
<path d="M61.3382 46.3101C61.2495 46.176 61.1608 46.0418 61.0832 45.8965C60.9946 45.7624 60.9059 45.617 60.8394 45.4717C60.6842 45.1811 60.529 44.9016 60.3849 44.5998C60.3184 44.4545 60.2408 44.3092 60.1743 44.1527L59.9859 43.6943C59.9526 43.6161 59.9194 43.5378 59.8972 43.4596L59.8196 43.2248C59.7642 43.0683 59.7088 42.9118 59.6534 42.7554C59.4538 42.1294 59.2876 41.481 59.1767 40.8215C59.1546 40.6538 59.1213 40.4861 59.0991 40.3185C59.077 40.1508 59.0659 39.9831 59.0437 39.8154C59.0326 39.726 59.0215 39.6478 59.0215 39.5583L58.9994 39.3012L58.9883 39.0441C58.9883 38.9547 58.9883 38.8764 58.9772 38.787C58.955 38.1051 58.9994 37.4232 59.077 36.7525C59.1656 36.0707 59.3097 35.3999 59.4871 34.7404L59.6423 34.2486C59.6644 34.1703 59.6977 34.0809 59.7199 34.0026L59.8085 33.7679C59.864 33.6114 59.9305 33.4437 59.9859 33.2872L60.1854 32.8177C60.2519 32.6612 60.3184 32.5159 60.396 32.3594C60.4625 32.2141 60.5401 32.0576 60.6066 31.9123L60.8283 31.4763L61.05 31.0515C61.6485 29.9113 62.2138 28.8606 62.624 27.7427C62.7348 27.4633 62.8124 27.1838 62.9122 26.9043C62.9676 26.759 62.9898 26.6137 63.0341 26.4796L63.1449 26.0436L63.2447 25.6076C63.2558 25.5294 63.2779 25.4623 63.289 25.3841L63.3223 25.1605C63.3445 25.0152 63.3777 24.8699 63.3999 24.7134L63.4553 24.2662C63.6105 23.0701 63.6105 21.8405 63.5107 20.5997C63.4553 19.9849 63.3666 19.3589 63.2669 18.7329C63.156 18.1069 63.023 17.4809 62.89 16.8438C63.2558 17.3803 63.5661 17.9504 63.8432 18.5541C64.1204 19.1465 64.3531 19.7613 64.5527 20.3985C64.9406 21.6728 65.1401 23.0142 65.1512 24.3668L65.1401 24.881C65.129 25.0487 65.118 25.2164 65.1069 25.3952L65.0847 25.6524C65.0736 25.7418 65.0625 25.82 65.0514 25.9095L64.9849 26.4125L64.8963 26.9155C64.863 27.0832 64.8408 27.2509 64.7965 27.4185L64.6746 27.9216L64.6413 28.0445C64.6302 28.0893 64.6192 28.1228 64.6081 28.1675L64.5305 28.4134C64.1425 29.7325 63.5218 30.9509 62.9343 32.0688L62.7126 32.4936L62.502 32.9072C62.4245 33.0413 62.3579 33.1866 62.2914 33.3208C62.2249 33.4549 62.1584 33.589 62.0919 33.7344L61.9035 34.148C61.8481 34.2821 61.7926 34.4274 61.7261 34.5616L61.6375 34.7628C61.6153 34.8298 61.582 34.8969 61.5599 34.9752L61.4047 35.3888L61.2717 35.8135C61.2273 35.9589 61.183 36.093 61.1387 36.2383C61.0611 36.529 60.9835 36.8084 60.917 37.1102C60.784 37.6915 60.6953 38.284 60.6288 38.8876C60.6066 39.0329 60.5955 39.1894 60.5844 39.3348L60.5623 39.5583C60.5512 39.6366 60.5512 39.7148 60.5512 39.7819C60.529 40.0837 60.5401 40.3855 60.529 40.6985C60.5401 41.0003 60.5401 41.3133 60.5623 41.6152C60.5734 41.9282 60.6066 42.23 60.6399 42.543C60.6509 42.6995 60.6731 42.856 60.6953 43.0125L60.7285 43.2472L60.7618 43.4819L60.8283 43.9514L60.917 44.4209C60.9724 44.7339 61.0389 45.0469 61.1054 45.3599C61.1387 45.5164 61.1719 45.6729 61.2052 45.8294C61.2717 45.9859 61.3049 46.1424 61.3382 46.3101Z" fill="#BDDA81"/>
<path d="M72.6997 32.6502C73.0322 32.4602 73.3648 32.3037 73.7084 32.1584C74.052 32.0131 74.3956 31.8789 74.7392 31.7559C75.4375 31.51 76.1359 31.3088 76.8564 31.1411C78.2862 30.8058 79.7383 30.6157 81.2014 30.5375C82.6646 30.4704 84.1277 30.5263 85.5798 30.7275C86.3113 30.8281 87.0318 30.9623 87.7412 31.1523C88.0959 31.2417 88.4506 31.3423 88.8053 31.4653C89.16 31.5771 89.5036 31.7112 89.8583 31.8677C89.4925 31.9572 89.1268 32.0131 88.761 32.0689C88.3952 32.1248 88.0405 32.1695 87.6747 32.2143C86.9542 32.3037 86.2448 32.3708 85.5354 32.4378C84.1166 32.5608 82.7089 32.639 81.3012 32.7061C79.8935 32.7732 78.4858 32.8179 77.0559 32.8291C76.3465 32.8403 75.626 32.8291 74.9055 32.8067C74.5397 32.7955 74.1739 32.7844 73.8081 32.762C73.4424 32.7285 73.0655 32.6949 72.6997 32.6502Z" fill="#BDDA81"/>
<path d="M61.5377 44.5217C61.8369 44.3317 62.1473 44.164 62.4577 43.9851C62.768 43.8175 63.0784 43.6498 63.3998 43.4933C63.7213 43.3368 64.0427 43.1915 64.3642 43.0462C64.5304 42.9791 64.6856 42.9008 64.8519 42.8338C65.0182 42.7667 65.1733 42.6885 65.3396 42.6326C66.6586 42.1072 68.0109 41.66 69.3965 41.3247C70.782 40.9893 72.1897 40.7434 73.6196 40.6093C75.0384 40.4751 76.4905 40.4528 77.8982 40.4975L79.971 40.5757C80.6582 40.5981 81.3233 40.6093 81.9994 40.6093C82.6756 40.6093 83.3406 40.5757 84.0168 40.5422L84.5267 40.5087L84.7816 40.4863L85.0365 40.4639L85.5464 40.4192L86.0563 40.3633C87.4086 40.218 88.7609 40.0056 90.1132 39.7597C90.7893 39.6367 91.4655 39.4914 92.1416 39.3349C92.8178 39.1784 93.505 39.0219 94.1922 38.8542C91.798 40.3633 89.1156 41.4029 86.3334 42.0401C84.9368 42.3531 83.518 42.5655 82.077 42.6549C81.3565 42.6996 80.636 42.7108 79.9266 42.7108C79.5719 42.7108 79.2172 42.6996 78.8736 42.6885L77.8317 42.6549C76.4572 42.6102 75.116 42.599 73.7526 42.6549C73.0765 42.6884 72.4003 42.722 71.7242 42.7779C71.3917 42.8114 71.0481 42.8338 70.7155 42.8785C70.3719 42.912 70.0394 42.9567 69.6958 42.9903C68.3435 43.1579 66.9912 43.3815 65.6389 43.6498C65.2953 43.7057 64.9627 43.7839 64.6191 43.851C64.2755 43.9181 63.943 43.9963 63.5994 44.0634C63.2557 44.1416 62.9232 44.2199 62.5796 44.287C62.2249 44.3652 61.8813 44.4546 61.5377 44.5217Z" fill="#BDDA81"/>
<path d="M53.1357 60.2609C54.233 59.2772 55.4301 58.4165 56.7049 57.6564L56.9487 57.511L57.1926 57.3769L57.6803 57.1086C57.8465 57.0192 58.0128 56.9409 58.1791 56.8515L58.4229 56.7286L58.6779 56.6056C58.8441 56.5273 59.0104 56.4491 59.1878 56.3709C59.354 56.2926 59.5314 56.2255 59.6976 56.1585C60.0412 56.0131 60.3849 55.879 60.7396 55.7449C60.9169 55.6778 61.0943 55.6219 61.2716 55.566C61.449 55.5101 61.6263 55.443 61.8037 55.3871C61.981 55.3313 62.1584 55.2865 62.3468 55.2306L62.6128 55.1524L62.8899 55.0853L63.4331 54.9512C63.6104 54.9065 63.7989 54.8729 63.9873 54.8282C64.1757 54.7947 64.3531 54.75 64.5415 54.7164L65.0957 54.627C65.8384 54.5041 66.5921 54.4258 67.3459 54.3811C67.7227 54.3587 68.0996 54.3476 68.4654 54.3364C68.8312 54.3364 69.208 54.3364 69.5627 54.3364C69.9285 54.3364 70.2832 54.3364 70.6379 54.3364C70.9926 54.3364 71.3473 54.3364 71.6909 54.3252C72.3893 54.314 73.0876 54.2693 73.7859 54.2134C75.1825 54.1016 76.5791 53.9116 77.9758 53.6545C80.769 53.1515 83.5069 52.3466 86.3001 51.4412C86.0009 51.6536 85.7016 51.8659 85.3912 52.0672C85.0809 52.2572 84.7705 52.4584 84.4491 52.6484C83.8173 53.0173 83.1633 53.375 82.4982 53.688C81.8331 54.0122 81.157 54.3028 80.4698 54.5711C80.2924 54.6382 80.1262 54.7053 79.9488 54.7612C79.7715 54.8282 79.6052 54.8841 79.4278 54.9512L78.8958 55.13C78.7184 55.1859 78.5411 55.2418 78.3637 55.2977C78.009 55.4095 77.6543 55.4989 77.2885 55.5995C77.1112 55.6443 76.9228 55.689 76.7454 55.7337L76.4794 55.8008L76.2023 55.8566C75.4707 56.0243 74.7391 56.1473 73.9965 56.2367C73.2538 56.3373 72.5112 56.4044 71.7685 56.4491C71.3917 56.4715 71.0259 56.4826 70.649 56.4826C70.2832 56.4826 69.9064 56.4826 69.5517 56.4826C68.8312 56.4826 68.1329 56.4715 67.4345 56.4938C66.7362 56.5162 66.049 56.5609 65.3618 56.6391L64.8408 56.695C64.6634 56.7174 64.4972 56.7397 64.3198 56.7621C64.1425 56.7845 63.9762 56.8068 63.7989 56.8403L63.2779 56.9298L63.0229 56.9745L62.768 57.0304C62.6017 57.0639 62.4244 57.0974 62.247 57.131C62.0697 57.1645 61.9034 57.2092 61.7372 57.2428C61.5709 57.2875 61.3935 57.321 61.2273 57.3657C60.5401 57.5334 59.8639 57.7123 59.1878 57.9247L58.9328 58.0029L58.6779 58.0812C58.5116 58.137 58.3453 58.1929 58.168 58.2488L57.6581 58.4277L57.4032 58.5171L57.1482 58.6065L56.6383 58.7854C56.4721 58.8525 56.3058 58.9195 56.1395 58.9754C55.9733 59.0425 55.807 59.1096 55.6408 59.1766C55.4745 59.2437 55.3082 59.3108 55.142 59.3778C54.4769 59.6797 53.8118 59.9703 53.1357 60.2609Z" fill="#BDDA81"/>
<path d="M42.4281 60.8536C42.5168 60.8536 42.5944 60.8536 42.6831 60.8536C42.7274 60.8536 42.7718 60.8312 42.805 60.7977C42.8272 60.7865 42.8383 60.7641 42.8383 60.7418C42.8493 60.7194 42.8493 60.6971 42.8493 60.6747C42.8493 60.63 42.8272 60.5853 42.7939 60.5517C42.7607 60.5182 42.7163 60.4958 42.672 60.4958C42.5833 60.4958 42.5057 60.4958 42.4171 60.4958C42.3727 60.4958 42.3284 60.5182 42.2951 60.5517C42.273 60.5629 42.2619 60.5853 42.2619 60.6076C42.2508 60.63 42.2508 60.6523 42.2508 60.6747C42.2508 60.7194 42.273 60.7641 42.3062 60.7977C42.3395 60.8312 42.3838 60.8536 42.4281 60.8536Z" fill="#AACF37"/>
<path d="M42.7607 60.7975C42.7607 60.8422 42.7607 60.8869 42.7607 60.9205C42.7607 60.9428 42.7607 60.9652 42.7718 60.9875C42.7829 61.0099 42.794 61.0323 42.8051 61.0434C42.8162 61.0658 42.8383 61.077 42.8605 61.077C42.8827 61.0882 42.9048 61.0881 42.927 61.0881C42.9381 61.0881 42.9603 61.0882 42.9713 61.077C43.0046 61.0658 43.0268 61.0546 43.0489 61.0323C43.06 61.0211 43.0711 61.0099 43.0822 60.9987C43.0933 60.9652 43.1044 60.9428 43.1044 60.9093C43.1044 60.8646 43.1044 60.8199 43.1044 60.7863C43.1044 60.764 43.1044 60.7416 43.0933 60.7193C43.0822 60.6969 43.0711 60.6745 43.06 60.6634C43.0489 60.641 43.0268 60.6298 43.0046 60.6298C42.9824 60.6187 42.9603 60.6187 42.9381 60.6187C42.927 60.6187 42.9048 60.6187 42.8938 60.6298C42.8605 60.641 42.8383 60.6522 42.8162 60.6745C42.8051 60.6857 42.794 60.6969 42.7829 60.7081C42.7718 60.7416 42.7607 60.764 42.7607 60.7975Z" fill="#AACF37"/>
<path d="M42.8162 61.0546C42.8605 61.0993 42.9048 61.144 42.9381 61.1775C42.9492 61.1999 42.9713 61.2111 42.9935 61.2111C43.0157 61.2222 43.0379 61.2222 43.06 61.2222C43.0822 61.2222 43.1044 61.2222 43.1265 61.2111C43.1487 61.1999 43.1709 61.1887 43.182 61.1775C43.193 61.1663 43.2041 61.1552 43.2152 61.144C43.2263 61.1104 43.2374 61.0881 43.2374 61.0546C43.2374 61.0434 43.2374 61.021 43.2263 61.0098C43.2152 60.9763 43.2041 60.9539 43.182 60.9316C43.1376 60.8869 43.0933 60.8422 43.06 60.8086C43.0489 60.7863 43.0268 60.7751 43.0046 60.7751C42.9824 60.7639 42.9603 60.7639 42.9381 60.7639C42.9159 60.7639 42.8938 60.7639 42.8716 60.7751C42.8494 60.7863 42.8272 60.7974 42.8162 60.8086C42.8051 60.8198 42.794 60.831 42.7829 60.8422C42.7718 60.8757 42.7607 60.8981 42.7607 60.9316C42.7607 60.9428 42.7607 60.9651 42.7718 60.9763C42.7829 61.0098 42.794 61.0322 42.8162 61.0546Z" fill="#AACF37"/>
<path d="M43.0711 61.3677C43.3039 61.3677 43.3039 61.01 43.0711 61.01C42.8384 61.01 42.8384 61.3677 43.0711 61.3677Z" fill="#AACF37"/>
<path d="M43.0711 61.3677C43.3039 61.3677 43.3039 61.01 43.0711 61.01C42.8384 61.01 42.8384 61.3677 43.0711 61.3677Z" fill="#AACF37"/>
<path d="M43.0711 61.4905C43.3039 61.4905 43.3039 61.1328 43.0711 61.1328C42.8384 61.1328 42.8384 61.4905 43.0711 61.4905Z" fill="#AACF37"/>
<path d="M91.3104 62.5527C93.2501 60.9542 95.1899 58.7744 94.8795 56.7175C94.68 55.3985 93.5827 54.5154 92.6183 53.6323C92.2747 53.3193 91.9533 53.0063 91.6318 52.6709C89.6034 53.3193 87.3865 52.6486 86.2226 50.8824C85.1253 49.1944 85.3137 47.0146 86.533 45.4161C85.6241 43.7505 84.7927 42.0291 83.9503 40.3076C82.9084 38.1837 81.8554 36.0598 80.6583 34.0477C75.5927 25.5521 67.7339 18.8562 63.7657 9.73457C60.9281 3.16166 58.29 -2.21517 48.9015 2.88219C38.1164 8.72851 27.3202 14.5748 16.7679 20.8795C16.657 20.9465 16.5573 21.0024 16.4464 21.0695C18.1756 21.3378 19.7496 22.2768 20.7472 23.8082C22.698 26.804 21.7115 30.9401 18.5303 33.0416C18.2643 33.2205 17.9983 33.377 17.7211 33.5111C14.684 35.009 11.0373 34.1706 9.25268 31.4319C8.15533 29.7551 7.98906 27.7207 8.60979 25.8874C7.71195 26.4575 6.81412 27.0276 5.92737 27.5977C3.73266 29.0062 1.38277 30.6382 0.440599 32.8627C-0.579164 35.2773 0.363008 37.6136 1.32735 39.6592C4.97411 47.4282 8.89798 55.0631 13.2209 62.4409C13.5756 61.8149 14.0855 61.256 14.7284 60.8312C16.8011 59.4562 19.5168 59.9257 20.7915 61.882C22.0662 63.8382 21.4233 66.5434 19.3395 67.9183C18.6079 68.399 17.7987 68.6561 17.0117 68.7008C21.0243 75.0725 25.3472 81.243 30.0691 87.1117C31.7096 89.1573 33.6051 91.2812 36.4981 91.6837C38.6485 91.9855 41.0316 91.2701 43.2596 90.3646C46.4297 89.0791 49.4336 87.3911 52.3709 85.5579C52.2601 85.4237 52.1492 85.2784 52.0495 85.1219C50.9521 83.4452 51.063 81.2989 52.1382 79.6333C52.5483 79.0073 53.0914 78.4372 53.7565 78.0013C56.2061 76.3804 59.4206 76.9393 60.917 79.2421C61.0278 79.4097 61.1165 79.5774 61.2052 79.7451C61.2384 79.7227 61.2828 79.7004 61.316 79.6668C63.0452 78.5378 64.7854 77.4423 66.5589 76.4251C74.8057 71.7078 83.9836 68.5778 91.3104 62.5527ZM46.596 23.8865C46.5516 23.8082 46.5184 23.73 46.4851 23.6405C45.3767 21.1589 46.3078 18.0849 48.7907 16.4416C51.5174 14.6307 55.0866 15.2567 56.7603 17.8278C58.2789 20.1641 57.7247 23.3052 55.5632 25.2167C55.4967 25.2838 55.4191 25.3397 55.3415 25.4067C52.3155 27.0611 48.6244 26.4128 46.596 23.8865ZM64.8298 65.4143C64.0317 64.1959 64.4418 62.5079 65.7276 61.6472C67.0245 60.7865 68.7093 61.0883 69.5074 62.3067C70.3055 63.5252 69.8953 65.2131 68.6096 66.0739C67.3127 66.9234 65.6168 66.6328 64.8298 65.4143Z" fill="#F2CB57"/>
<path d="M55.9179 25.0601C55.8292 25.116 55.7295 25.1831 55.6408 25.239C55.541 25.2949 55.4413 25.3508 55.3415 25.4067C55.4191 25.3508 55.4856 25.2837 55.5632 25.2166C57.7136 23.3051 58.2789 20.164 56.7603 17.8277C55.0866 15.2567 51.5174 14.6307 48.7907 16.4416C46.3188 18.0848 45.3878 21.1589 46.4851 23.6405C46.5184 23.7187 46.5627 23.8082 46.596 23.8864C46.5294 23.8082 46.4629 23.7187 46.3964 23.6293C46.341 23.551 46.2745 23.4616 46.2191 23.3722C44.1796 20.2422 45.2215 15.9274 48.5357 13.7364C51.8499 11.5454 56.1839 12.2944 58.2235 15.4243C60.2741 18.5543 59.2321 22.8692 55.9179 25.0601Z" fill="#F0B61B"/>
<path d="M23.9075 53.0492C25.473 52.0116 25.9626 49.9744 25.001 48.4988C24.0395 47.0232 21.9909 46.6681 20.4254 47.7056C18.86 48.7432 18.3704 50.7804 19.3319 52.256C20.2935 53.7316 22.342 54.0867 23.9075 53.0492Z" fill="#F0B61B"/>
<path d="M48.0148 51.1731C47.7598 51.3408 47.4938 51.4973 47.2278 51.6202C47.1058 51.6761 46.9839 51.732 46.862 51.7767C47.0837 51.6761 47.3054 51.5643 47.516 51.4302C49.6663 49.9099 50.3092 47.0482 48.9569 44.969C47.5714 42.8451 44.6229 42.3309 42.3728 43.8288C40.167 45.2932 39.4465 48.1437 40.7212 50.2564C41.1314 50.8489 41.6745 51.3184 42.273 51.6537C41.9738 51.5084 41.6745 51.3296 41.4085 51.1284C40.9429 50.7818 40.5328 50.3459 40.2003 49.8317C38.5598 47.3053 39.3911 43.8288 42.0624 42.0515C44.7338 40.2741 48.2364 40.8889 49.8769 43.4152C51.5285 45.9192 50.6972 49.3957 48.0148 51.1731Z" fill="#F0B61B"/>
<path d="M71.6507 47.6249C73.3185 46.5195 73.8392 44.3478 72.8138 42.7742C71.7884 41.2006 69.6051 40.821 67.9373 41.9264C66.2695 43.0317 65.7488 45.2034 66.7742 46.777C67.7996 48.3506 69.9829 48.7302 71.6507 47.6249Z" fill="#F0B61B"/>
<path d="M46.8619 51.7767C45.3323 52.4698 43.6253 52.3915 42.273 51.6426C43.6586 52.3133 45.3323 52.3804 46.8619 51.7767Z" fill="#F2CB57"/>
<path d="M47.6601 51.3407C47.6157 51.3743 47.5603 51.3966 47.516 51.4301C49.6663 49.9099 50.3092 47.0482 48.9569 44.969C47.5714 42.8451 44.623 42.3309 42.3728 43.8288C40.167 45.2932 39.4465 48.1437 40.7213 50.2564C40.688 50.2117 40.6658 50.167 40.6326 50.1223C39.1584 47.8531 39.901 44.7343 42.3063 43.1358C44.7116 41.5484 47.8485 42.0962 49.3338 44.3542C50.808 46.6122 50.0654 49.7422 47.6601 51.3407Z" fill="#F2CB57"/>
<path d="M57.4919 16.6316C55.6408 13.7811 51.6837 13.0992 48.6577 15.1001C45.7203 17.0452 44.756 20.8123 46.3965 23.6293L46.4741 23.6404C45.3656 21.1588 46.2967 18.0848 48.7796 16.4415C51.5064 14.6306 55.0755 15.2566 56.7493 17.8277C58.2678 20.1639 57.7136 23.3051 55.5522 25.2166L55.6298 25.2278C58.4563 23.1821 59.2987 19.4038 57.4919 16.6316Z" fill="#F2CB57"/>
<path d="M61.3382 79.6778C61.305 79.7002 61.2606 79.7225 61.2274 79.7561C61.1387 79.5884 61.05 79.4207 60.9392 79.253C59.4317 76.9391 56.2283 76.3802 53.7787 78.0122C53.1025 78.4594 52.5594 79.0183 52.1603 79.6443C52.249 78.4482 52.9917 77.2409 54.0558 76.5814C56.2283 75.24 59.3874 75.9219 60.7729 77.9228C60.8394 78.0234 60.9059 78.124 60.9724 78.2358C61.1941 78.6606 61.3382 79.1636 61.3382 79.6778Z" fill="#F0B61B"/>
<path d="M19.0956 33.2427C18.619 33.388 18.1535 33.4774 17.7212 33.511C17.9983 33.3768 18.2754 33.2203 18.5303 33.0415C21.7116 30.9399 22.6981 26.8039 20.7472 23.8081C19.7496 22.2767 18.1756 21.3377 16.4465 21.0694C16.5573 21.0023 16.6571 20.9464 16.7679 20.8794C17.433 20.8346 18.1535 20.8682 18.885 21.0806C22.1217 21.986 24.5381 25.7643 23.3853 29.1626C22.7535 30.9958 21.1241 32.6055 19.0956 33.2427Z" fill="#F0B61B"/>
<path d="M60.3739 19.169C42.5391 22.4554 27.0653 37.3339 21.8113 55.4765C16.6349 73.3396 21.8667 93.8744 34.9463 107.009C36.0547 108.116 37.2297 109.211 37.9169 110.631C39.4244 113.772 38.1386 117.729 39.6682 120.848C40.7434 123.05 43.0157 124.403 45.288 125.252C52.9141 128.114 62.0033 126.56 68.2548 121.306C69.8953 119.931 71.3696 118.31 73.2539 117.327C77.8539 114.923 83.3739 116.846 88.4728 117.796C92.5186 118.556 96.7639 118.657 100.699 117.405C104.623 116.164 108.203 113.459 109.943 109.692C111.672 105.936 111.44 101.588 111.129 97.4515C110.874 94.0644 110.564 90.5991 109.201 87.4915C107.66 83.9815 104.844 81.1086 103.603 77.4757C101.874 72.3895 103.536 66.8561 104.39 61.5352C105.155 56.5832 105.631 48.2217 102.639 40.2403C99.3244 31.3758 92.5518 26.1219 89.2265 23.9533C77.1445 16.0725 64.0649 18.4871 60.3739 19.169Z" fill="#EFD2BB"/>
<path d="M63.8509 89.9897C76.3493 88.5408 85.2724 76.7606 83.7812 63.6777C82.29 50.5949 70.9492 41.1636 58.4508 42.6125C45.9524 44.0613 37.0293 55.8416 38.5205 68.9245C40.0117 82.0073 51.3525 91.4385 63.8509 89.9897Z" fill="#F0B61B"/>
<path d="M69.2081 87.0445C67.7893 87.0445 66.4703 86.0832 65.9936 84.5741C65.4062 82.6849 66.3705 80.6505 68.144 80.0245C71.0814 78.9961 73.3869 76.3915 74.6505 72.7138C76.0139 68.7343 75.9806 64.0505 74.5729 59.5009C73.9855 57.6117 74.9498 55.5772 76.7233 54.9512C78.4968 54.3253 80.4144 55.3537 81.0019 57.2428C82.8862 63.3127 82.8973 69.6844 81.013 75.173C80.0708 77.9453 78.6852 80.3486 76.9228 82.3272C75.0385 84.4399 72.7994 85.9602 70.2722 86.8433C69.9175 86.9886 69.5628 87.0445 69.2081 87.0445Z" fill="#F09E1F"/>
<path d="M61.0943 89.5707C60.1189 89.5707 59.21 89.4925 58.4119 89.4142C56.5497 89.2242 55.1863 87.458 55.3748 85.4794C55.5521 83.5008 57.2148 82.0476 59.0659 82.2488C59.9415 82.3383 60.9613 82.4165 61.9035 82.3494C63.7656 82.2041 65.395 83.6797 65.5281 85.6694C65.6722 87.648 64.2755 89.3807 62.4133 89.526C61.9589 89.5595 61.5155 89.5707 61.0943 89.5707Z" fill="#D77A27"/>
<path d="M42.6278 68.4547C42.4282 68.4547 42.2398 68.4435 42.0403 68.41C40.1005 68.0858 38.7815 66.2302 39.1029 64.2739C40.1227 58.0699 43.4369 52.626 48.436 48.9371C50.8745 47.1374 53.5791 45.8631 56.4722 45.1365C59.476 44.3875 62.5686 44.2646 65.6389 44.7788C67.5787 45.1029 68.8978 46.9586 68.5763 48.9148C68.2549 50.871 66.4149 52.2012 64.4751 51.8771C60.3074 51.1728 56.1064 52.1901 52.648 54.7387C49.1676 57.2986 46.862 61.0993 46.1415 65.4365C45.8533 67.2139 44.3348 68.4547 42.6278 68.4547Z" fill="#F8C34F"/>
<g opacity="0.7">
<path d="M78.5412 42.3978C78.4193 42.2301 78.4525 41.9954 78.6188 41.8724L81.8887 39.402C82.055 39.279 82.2877 39.3126 82.4097 39.4803C82.5316 39.6479 82.4983 39.8827 82.3321 40.0056L79.0622 42.4761C78.8959 42.599 78.6631 42.5655 78.5412 42.3978Z" fill="#5A4539"/>
<path d="M76.9561 49.552L74.6506 46.4555C74.4843 46.232 74.5287 45.9078 74.7503 45.7401C74.972 45.5724 75.2935 45.6172 75.4597 45.8407L77.7653 48.9372C77.9316 49.1607 77.8872 49.4849 77.6655 49.6526C77.4438 49.8202 77.1224 49.7755 76.9561 49.552Z" fill="#5A4539"/>
<path d="M88.4395 54.0679L88.2622 53.9561C88.1402 53.8779 88.1291 53.6878 88.2289 53.5313L89.9581 51.0162C90.0689 50.8597 90.2573 50.8038 90.3793 50.882L90.5566 50.9938C90.6785 51.0721 90.6896 51.2621 90.5899 51.4186L88.8607 53.9337C88.7499 54.0791 88.5614 54.1461 88.4395 54.0679Z" fill="#5A4539"/>
<path d="M70.9151 64.4417L71.5358 61.6136C71.6023 61.3118 71.8683 61.0882 72.1122 61.1329L72.5556 61.2112C72.8105 61.2559 72.9546 61.5353 72.8881 61.8483L72.2674 64.6765C72.2009 64.9783 71.9348 65.2019 71.691 65.1571L71.2476 65.0789C70.9927 65.0342 70.8375 64.7435 70.9151 64.4417Z" fill="#5A4539"/>
<path d="M58.2235 49.4514L58.0351 49.3955C57.9131 49.3619 57.8577 49.1831 57.9131 48.993L58.8221 46.1761C58.8775 45.986 59.0327 45.8631 59.1546 45.8966L59.343 45.9525C59.465 45.986 59.5204 46.1649 59.4649 46.3549L58.556 49.1719C58.5006 49.3619 58.3565 49.4849 58.2235 49.4514Z" fill="#5A4539"/>
<path d="M70.8819 32.4601L71.026 32.136C71.1257 31.9012 71.4361 31.8118 71.7021 31.9124L74.6727 33.1309C74.9388 33.2426 75.0718 33.5221 74.972 33.7457L74.8279 34.0698C74.7282 34.3046 74.4178 34.394 74.1518 34.2934L71.1812 33.075C70.9041 32.9632 70.771 32.6949 70.8819 32.4601Z" fill="#5A4539"/>
<path d="M54.7208 67.2474L54.7651 66.8561C54.7984 66.5767 55.0312 66.3643 55.2861 66.3866L59.088 66.6437C59.343 66.6661 59.5314 66.9008 59.4982 67.1803L59.4538 67.5715C59.4206 67.851 59.1878 68.0634 58.9329 68.041L55.1309 67.7839C54.8649 67.7616 54.6875 67.5268 54.7208 67.2474Z" fill="#5A4539"/>
<path d="M85.1696 67.0015L82.9084 63.9721C82.7089 63.7039 82.7643 63.3126 83.0304 63.1114C83.2964 62.9102 83.6843 62.9661 83.8838 63.2344L86.134 66.2637C86.3335 66.532 86.2781 66.9232 86.0121 67.1245C85.7571 67.3257 85.3692 67.2698 85.1696 67.0015Z" fill="#5A4539"/>
<path d="M67.2129 54.9288C67.091 54.7612 67.1242 54.5264 67.2905 54.4034L70.0616 52.3019C70.2279 52.1789 70.4606 52.2125 70.5826 52.3802C70.7045 52.5478 70.6712 52.7826 70.505 52.9055L67.7339 55.0071C67.5676 55.13 67.3348 55.0965 67.2129 54.9288Z" fill="#5A4539"/>
<path d="M65.8621 77.6884C66.4396 77.2508 66.6544 76.5559 66.3418 76.1364C66.0293 75.7168 65.3077 75.7315 64.7302 76.1691C64.1526 76.6067 63.9378 77.3015 64.2504 77.7211C64.563 78.1406 65.2846 78.126 65.8621 77.6884Z" fill="#5A4539"/>
<path d="M66.2749 38.8288C66.7448 38.4728 66.8723 37.844 66.5597 37.4245C66.2471 37.005 65.6128 36.9535 65.143 37.3095C64.6731 37.6655 64.5456 38.2942 64.8582 38.7138C65.1708 39.1333 65.8051 39.1848 66.2749 38.8288Z" fill="#5A4539"/>
<path d="M45.6923 53.1212C46.1181 52.7986 46.2337 52.2289 45.9505 51.8489C45.6674 51.4688 45.0927 51.4223 44.6669 51.7449C44.2411 52.0675 44.1254 52.6372 44.4086 53.0173C44.6917 53.3973 45.2665 53.4439 45.6923 53.1212Z" fill="#5A4539"/>
<path d="M91.683 45.1835C91.9815 44.9573 92.0626 44.5579 91.864 44.2913C91.6654 44.0248 91.2624 43.9921 90.9639 44.2183C90.6653 44.4445 90.5843 44.844 90.7828 45.1105C90.9814 45.3771 91.3844 45.4098 91.683 45.1835Z" fill="#5A4539"/>
<path d="M95.1739 56.0763C95.6682 55.7017 95.8394 55.09 95.5562 54.7099C95.2731 54.3299 94.6428 54.3254 94.1485 54.7C93.6541 55.0745 93.483 55.6863 93.7661 56.0663C94.0493 56.4464 94.6795 56.4509 95.1739 56.0763Z" fill="#5A4539"/>
<path d="M92.6147 66.4334C92.9964 66.1442 93.1002 65.6336 92.8465 65.293C92.5927 64.9524 92.0776 64.9108 91.6958 65.2001C91.3141 65.4894 91.2103 66 91.464 66.3405C91.7177 66.6811 92.2329 66.7227 92.6147 66.4334Z" fill="#5A4539"/>
<path d="M77.8002 59.6897C77.9911 59.545 78.0415 59.2877 77.9128 59.115C77.7841 58.9422 77.525 58.9194 77.3341 59.064C77.1433 59.2087 77.0929 59.466 77.2216 59.6387C77.3503 59.8115 77.6093 59.8343 77.8002 59.6897Z" fill="#5A4539"/>
<path d="M76.3748 71.2937C76.6832 71.0601 76.7662 70.6466 76.5603 70.3702C76.3543 70.0938 75.9374 70.0591 75.6291 70.2928C75.3208 70.5264 75.2377 70.9399 75.4437 71.2163C75.6496 71.4927 76.0665 71.5274 76.3748 71.2937Z" fill="#5A4539"/>
<path d="M59.0143 60.0451C59.4841 59.6891 59.6116 59.0604 59.2991 58.6408C58.9865 58.2213 58.3522 58.1698 57.8824 58.5258C57.4125 58.8818 57.285 59.5105 57.5976 59.9301C57.9102 60.3496 58.5444 60.4011 59.0143 60.0451Z" fill="#5A4539"/>
</g>
<path d="M15.7925 45.4718C17.2113 44.667 18.8739 44.2869 20.6474 44.1304C20.98 44.0969 21.3125 44.0745 21.6561 44.0633C22.1993 44.041 22.7424 44.0298 23.2966 44.0298C24.2831 44.0298 25.2807 44.0633 26.2672 44.0969C27.0875 44.1192 28.2292 44.2422 28.6947 44.98C29.4374 46.1425 28.2957 47.5286 27.6528 48.7583C26.7217 50.5245 26.8436 52.6931 27.4976 54.5822C28.1516 56.4714 29.2822 58.137 30.3685 59.8137C32.1087 62.5077 33.7381 65.3023 34.7024 68.3652C35.6668 71.4281 35.9217 74.7928 34.8909 77.8334C33.8489 80.8962 31.5323 83.6461 31.6653 86.8879C31.7983 90.2302 34.5029 92.846 35.6114 95.9983C36.7531 99.2624 36.1767 103.074 37.9502 106.037C38.5266 107.009 39.3357 107.825 39.901 108.798C40.4774 109.77 40.7989 111 40.3222 112.028C40.0008 112.71 39.4022 113.168 38.715 113.504C38.2384 113.738 37.7174 113.906 37.2297 114.063C36.1656 114.398 35.1126 114.733 34.0485 115.069C33.6605 115.192 33.2726 115.315 32.8735 115.438C31.5545 115.851 30.2244 116.276 28.9053 116.69C28.606 116.79 28.2957 116.88 27.9964 116.98C27.6528 117.092 27.2759 117.204 26.9212 117.137C26.5443 117.07 26.234 116.813 25.9569 116.533C22.5429 113.146 23.0749 107.445 20.8359 103.197C19.3395 100.336 16.6238 98.234 15.2937 95.2941C13.6421 91.6387 14.3848 87.3686 15.4489 83.5008C16.513 79.6331 17.8764 75.6871 17.3665 71.7076C16.5462 65.2912 13.0436 64.4751 12.1125 57.0638C11.7356 54.0568 11.2701 50.3344 13.5313 47.4168C14.1963 46.5785 14.9501 45.9525 15.7925 45.4718Z" fill="#DA735B"/>
<path d="M15.7925 45.4719C16.7568 48.2106 14.4402 50.8823 14.9612 57.1981C15.471 63.5474 17.4884 62.7985 18.9183 69.7068C20.0932 75.3519 19.1732 81.1982 18.5192 86.9327C18.3641 88.2741 18.2311 89.6267 18.3973 90.957C18.9183 95.0594 20.8026 97.3622 22.5429 100.28C27.021 107.78 24.261 109.927 28.728 116.41C28.7834 116.5 28.8499 116.578 28.9053 116.667C28.606 116.768 28.2957 116.857 27.9964 116.958C27.6528 117.07 27.2759 117.182 26.9212 117.114C26.5443 117.047 26.234 116.779 25.9569 116.511C22.5429 113.146 23.0749 107.445 20.8359 103.197C19.3395 100.336 16.6349 98.2341 15.2937 95.2942C13.6421 91.6388 14.3848 87.3687 15.4489 83.5009C16.513 79.6332 17.8764 75.6872 17.3665 71.7077C16.5462 65.2913 13.0436 64.4753 12.1125 57.064C11.7356 54.057 11.2701 50.3345 13.5313 47.417C14.1963 46.5786 14.9501 45.9526 15.7925 45.4719Z" fill="#D76827"/>
<path d="M24.3607 44.041C24.8262 43.9963 25.4802 43.9851 26.2672 44.0969C27.3646 44.2534 28.3289 44.3875 28.6947 44.98C29.4373 46.1426 28.2957 47.5399 27.6528 48.7583C26.7217 50.5245 26.8436 52.6931 27.4976 54.5823C28.1516 56.4714 29.2822 58.137 30.3684 59.8138C32.1087 62.5078 33.7381 65.3024 34.7024 68.3653C35.6668 71.4282 35.9217 74.7929 34.8909 77.8334C33.8489 80.8963 31.5323 83.6462 31.6653 86.8879C31.7983 90.2303 34.5029 92.846 35.6113 95.9984C36.753 99.2625 36.1766 103.074 37.9501 106.037C38.5265 107.009 39.3357 107.825 39.901 108.798C40.4774 109.77 40.7988 111 40.3222 112.028C40.0008 112.71 39.4022 113.168 38.715 113.504C38.1275 112.844 37.5844 112.162 37.1077 111.469C36.5646 110.676 33.6494 106.227 33.4499 100.727C33.4056 99.4637 33.4721 98.1781 33.206 96.9373C32.5631 93.9751 31.2884 92.5666 30.4904 91.0239C27.7414 85.6695 32.6851 81.2205 31.4547 71.9312C31.1333 69.5055 30.4571 67.2474 30.4128 67.0909C29.8585 65.2688 29.2157 63.7821 27.9631 61.267C24.7043 54.7164 24.0725 54.7611 23.5405 52.6596C23.086 50.804 22.8643 47.9758 24.3607 44.041Z" fill="#A64545"/>
<path d="M32.8513 115.371C32.807 115.158 32.7627 114.957 32.7183 114.745C32.0422 111.257 30.1911 104.539 26.8325 97.8877C23.8508 91.9855 21.9554 90.644 21.7891 86.4633C21.6672 83.2775 22.3101 79.9351 22.3101 79.9351C22.9419 76.6598 23.6291 76.1233 23.8397 73.4963C24.1279 69.9639 23.1414 67.6947 23.7511 67.4376C24.2609 67.214 25.4248 68.6114 26.0566 69.718C28.5284 74.0552 24.0614 78.5825 24.7154 83.9593C25.846 93.3045 32.1641 101.185 33.727 110.452C33.9709 111.917 34.1039 113.426 34.3034 114.901L32.8513 115.371Z" fill="#F1A072"/>
<path d="M21.8335 54.247C20.858 50.7817 20.8026 47.1264 21.6561 43.8511C22.0441 43.8623 22.4431 43.8846 22.8421 43.9181C22.1992 47.3611 22.3766 51.0835 23.3853 54.6159C25.1477 60.8646 29.3597 66.4986 30.1246 72.8703C30.3795 75.0165 30.1357 77.3752 28.6947 78.6383C27.8301 77.9453 28.1183 76.5703 28.34 75.5084C29.0937 72.0095 27.9188 68.1194 26.378 64.6653C24.8152 61.2 22.8532 57.88 21.8335 54.247Z" fill="#F1A072"/>
<path d="M97.9943 84.7195C99.7123 84.999 102.65 85.4685 105.155 87.5365C108.347 90.1634 109.079 93.8858 109.345 95.1937C109.566 96.3339 110.531 101.185 107.638 105.523C105.465 108.776 101.619 110.508 97.8058 111.313C94.5581 111.995 91.1552 112.107 87.9407 111.279C84.7263 110.452 81.7113 108.619 79.7604 105.914C77.5657 102.873 76.8453 98.8155 77.7763 95.1714C78.6188 91.8625 80.7691 88.9561 83.6067 87.1117C87.3754 84.6636 91.3991 84.5407 94.5248 84.496C96.3538 84.4736 97.5841 84.6636 97.9943 84.7195Z" fill="#D81F26"/>
<path d="M108.369 99.8887C108.192 101.096 107.638 104.751 104.678 107.401C103.448 108.496 102.262 108.999 100.876 109.592C98.2602 110.698 96.7306 110.62 96.2761 110.575C94.9792 110.463 94.0482 109.972 93.6048 109.491C93.5604 109.446 93.5161 109.401 93.4829 109.346C92.9176 108.653 92.8178 107.892 92.4188 107.892C92.0641 107.892 91.9421 108.463 91.5098 109.033C91.5098 109.033 91.4101 109.156 91.2992 109.29C90.8337 109.826 89.0824 110.374 87.0318 109.893C85.1917 109.457 84.0279 108.407 82.9084 107.401C82.2433 106.797 81.1681 105.824 80.2481 104.271C77.9093 100.313 78.6852 96.1662 78.7961 95.6408C78.9291 95.0037 79.6052 91.9296 82.2433 89.3474C83.784 87.8383 85.3137 87.1564 86.1672 86.7763C87.1093 86.3627 88.7166 85.6809 90.0467 86.0386C91.133 86.3292 91.9865 87.0111 91.9865 87.0111C92.0641 87.0782 92.1306 87.1341 92.1971 87.19C93.106 88.0172 93.1725 88.7438 93.7045 88.7996C94.2809 88.8555 94.5137 88.0395 95.1566 87.2123C95.1566 87.2123 95.6554 86.6757 96.132 86.2957C97.44 85.2561 99.7677 85.9044 100.533 86.1168C104.246 87.1564 106.274 90.1746 106.596 90.6776C107.992 92.8239 108.281 94.9254 108.425 96.0321C108.624 97.7647 108.469 99.1732 108.369 99.8887Z" fill="#EF4C4B"/>
<path d="M97.4068 89.7051C98.4266 88.3525 100.743 88.2072 102.362 88.7773C104.213 89.4257 105.11 90.9906 105.809 92.1979C107.782 95.6185 107.405 99.1062 107.283 100.056C107.239 100.459 106.729 104.83 103.958 107.054C103.293 107.591 102.517 108.027 101.674 108.194C100.832 108.362 99.923 108.25 99.2025 107.769C98.615 107.378 98.2049 106.763 97.8613 106.149C97.4733 105.433 97.1408 104.651 97.1297 103.835C97.1186 102.717 97.6839 101.688 98.0719 100.638C98.9475 98.2454 97.1075 97.2282 96.9413 92.6674C96.8637 90.5435 97.1962 89.9846 97.4068 89.7051Z" fill="#D81F26"/>
<path d="M89.6366 89.459C88.6168 88.1064 86.3002 87.9611 84.6819 88.5312C82.8308 89.1796 81.9329 90.7446 81.2346 91.9518C79.2616 95.3724 79.6385 98.8601 79.7604 99.8103C79.8047 100.213 80.3146 104.583 83.0857 106.808C83.7508 107.345 84.5267 107.78 85.3691 107.948C86.2115 108.116 87.1204 108.004 87.8409 107.523C88.4284 107.132 88.8385 106.517 89.1821 105.903C89.5701 105.187 89.9026 104.405 89.9137 103.589C89.9248 102.471 89.3595 101.442 88.9715 100.392C88.0959 97.9994 89.9359 96.9821 90.1021 92.4213C90.1797 90.2974 89.8472 89.7273 89.6366 89.459Z" fill="#D81F26"/>
<path d="M103.126 100.224C102.96 100.895 102.738 101.733 102.029 102.571C101.796 102.851 101.076 103.667 99.9008 103.991C98.9808 104.248 98.0053 104.125 97.0742 104.025C96.3205 103.935 96.2429 103.857 95.9769 103.935C95.1234 104.203 94.7465 105.377 94.3697 106.629C94.0039 107.825 93.9152 108.764 93.4607 109.357C92.8954 108.664 92.7957 107.903 92.3966 107.903C92.0419 107.903 91.92 108.474 91.4877 109.044C91.266 108.485 91.3436 107.825 91.388 107.333C91.4545 106.651 91.7316 103.499 90.9335 103.141C90.5345 102.963 90.2352 103.678 88.905 104.103C88.5171 104.226 87.6193 104.516 86.5662 104.27C86.4221 104.237 85.5132 104.013 84.7373 103.276C83.1855 101.789 83.385 99.3631 83.518 97.8093C83.64 96.3673 83.7176 95.3165 84.5267 94.3328C84.6043 94.2434 85.9455 92.6337 87.8964 92.6002C89.0491 92.5778 89.8805 93.1255 90.4125 92.6337C90.6675 92.3878 90.6896 92.0636 90.734 91.65C90.8337 90.6887 91.0443 88.7548 91.7981 87.6481C91.8978 87.5028 92.0198 87.3463 92.1528 87.2122C93.0617 88.0394 93.1282 88.766 93.6603 88.8219C94.2366 88.8777 94.4694 88.0617 95.1123 87.2345C95.5224 87.9388 95.7219 88.9225 95.6222 89.7273C95.5889 89.9621 95.467 90.7893 95.334 92.0301C95.2786 92.5219 95.2675 92.7567 95.4227 92.9355C95.7663 93.3268 96.5533 92.9243 97.573 92.8237C97.6728 92.8126 99.413 92.6672 100.909 93.6174C102.406 94.5676 102.905 96.1549 103.06 96.6579C103.592 98.2453 103.281 99.5867 103.126 100.224Z" fill="#F06364"/>
<path d="M100.1 103.812C99.9673 104.103 99.8453 104.393 99.7123 104.684C99.668 104.785 99.6236 104.885 99.6015 104.997C99.5461 105.321 99.801 105.668 100.122 105.735C100.444 105.802 100.799 105.634 100.965 105.344C101.02 105.243 101.054 105.142 101.042 105.031C101.031 104.885 100.932 104.751 100.832 104.639C100.555 104.304 100.278 103.969 99.9894 103.633" fill="#F26C3C"/>
<path d="M86.7214 92.8351C86.7103 92.5221 86.6992 92.198 86.6881 91.885C86.6881 91.7732 86.6771 91.6614 86.6438 91.5608C86.544 91.2478 86.1672 91.0578 85.8568 91.136C85.5354 91.2143 85.3026 91.5272 85.2804 91.8626C85.2693 91.9744 85.2915 92.0862 85.3469 92.1756C85.4245 92.2986 85.5686 92.3656 85.7127 92.4327C86.1117 92.6116 86.5108 92.7792 86.9098 92.9581" fill="#F26C3C"/>
<path d="M84.4602 94.3665C84.3161 94.0647 84.1831 93.7741 84.039 93.4723C83.9947 93.3716 83.9393 93.271 83.8727 93.1816C83.6511 92.9133 83.252 92.8798 83.0082 93.081C82.7643 93.2822 82.6867 93.6735 82.8086 93.9976C82.853 94.1094 82.9084 94.21 82.9971 94.2771C83.119 94.3665 83.2742 94.3777 83.4183 94.3777C83.8395 94.3889 84.2496 94.4112 84.6708 94.4224" fill="#F26C3C"/>
<path d="M101.985 102.203C102.129 102.504 102.262 102.795 102.406 103.097C102.45 103.198 102.506 103.298 102.572 103.388C102.794 103.656 103.193 103.689 103.437 103.488C103.681 103.287 103.758 102.896 103.636 102.572C103.592 102.46 103.536 102.359 103.448 102.292C103.326 102.203 103.171 102.191 103.027 102.191C102.605 102.18 102.195 102.158 101.774 102.147" fill="#F26C3C"/>
<path d="M102.949 99.8102C103.182 100.023 103.403 100.246 103.636 100.459C103.714 100.537 103.791 100.604 103.891 100.66C104.179 100.816 104.578 100.693 104.756 100.403C104.933 100.123 104.878 99.7208 104.656 99.4749C104.589 99.3966 104.49 99.3184 104.39 99.296C104.246 99.2625 104.091 99.3184 103.958 99.3743C103.548 99.5308 103.148 99.6873 102.738 99.8438" fill="#F26C3C"/>
<path d="M103.137 96.7137C103.448 96.8255 103.747 96.9373 104.057 97.0491C104.168 97.0826 104.268 97.1273 104.379 97.1385C104.711 97.172 105.033 96.9149 105.066 96.6019C105.099 96.2889 104.889 95.9536 104.578 95.8083C104.479 95.7635 104.357 95.73 104.246 95.7412C104.102 95.7635 103.98 95.8641 103.88 95.9647C103.57 96.2442 103.259 96.5349 102.949 96.8143" fill="#F26C3C"/>
<path d="M84.4602 102.65C84.1498 102.605 83.8395 102.571 83.5291 102.527C83.4183 102.516 83.3185 102.493 83.2077 102.516C82.8862 102.56 82.6313 102.896 82.6534 103.231C82.6756 103.566 82.9416 103.857 83.2631 103.924C83.3739 103.946 83.4848 103.958 83.5845 103.913C83.7175 103.857 83.8173 103.723 83.8949 103.6C84.1388 103.231 84.3715 102.873 84.6154 102.504" fill="#F26C3C"/>
<path d="M86.6549 104.148C86.3778 104.326 86.1007 104.494 85.8236 104.673C85.7239 104.729 85.6352 104.796 85.5576 104.874C85.3248 105.12 85.3359 105.534 85.5576 105.746C85.7793 105.97 86.1783 106.003 86.4776 105.847C86.5774 105.791 86.6771 105.724 86.7325 105.623C86.8101 105.489 86.799 105.333 86.788 105.187C86.7547 104.762 86.7214 104.349 86.6882 103.924" fill="#F26C3C"/>
<path d="M83.4847 97.038C83.2741 96.8032 83.0635 96.5685 82.8418 96.3337C82.7642 96.2555 82.6977 96.1773 82.598 96.1102C82.3209 95.9313 81.9107 96.0319 81.7223 96.3002C81.5339 96.5685 81.556 96.9709 81.7556 97.228C81.8221 97.3175 81.9107 97.3957 82.0105 97.4292C82.1546 97.474 82.3098 97.4292 82.4539 97.3845C82.8751 97.2616 83.2852 97.1274 83.7064 97.0045" fill="#F26C3C"/>
<path d="M83.5291 100.09C83.2409 99.9446 82.9417 99.7992 82.6535 99.6539C82.5537 99.6092 82.4539 99.5533 82.3431 99.531C82.0106 99.4639 81.667 99.6763 81.6004 99.9893C81.5339 100.302 81.7113 100.649 81.9995 100.828C82.0992 100.884 82.2101 100.928 82.3209 100.928C82.4761 100.928 82.598 100.839 82.7089 100.749C83.0414 100.503 83.385 100.246 83.7176 100" fill="#F26C3C"/>
<path d="M102.04 94.6459C102.339 94.5453 102.639 94.4447 102.938 94.3441C103.038 94.3105 103.149 94.277 103.237 94.2099C103.514 94.0311 103.592 93.6175 103.426 93.3268C103.259 93.0362 102.894 92.9021 102.572 92.9691C102.461 92.9915 102.362 93.0362 102.284 93.1256C102.184 93.2374 102.162 93.3939 102.14 93.5504C102.084 93.9864 102.029 94.4223 101.974 94.8583" fill="#F26C3C"/>
<path d="M99.5128 93.1258C99.7899 92.9469 100.056 92.7681 100.333 92.5892C100.422 92.5222 100.521 92.4663 100.599 92.3768C100.832 92.1197 100.81 91.7173 100.588 91.5049C100.355 91.2814 99.9673 91.259 99.668 91.4267C99.5682 91.4826 99.4796 91.5608 99.4241 91.6502C99.3465 91.7844 99.3687 91.9409 99.3798 92.0862C99.4241 92.511 99.4685 92.9246 99.5017 93.3494" fill="#F26C3C"/>
<path d="M76.8231 103.086C78.1532 104.226 80.4144 106.16 81.5007 109.234C82.8863 113.146 81.5894 116.723 81.146 117.975C80.747 119.071 79.0843 123.721 74.3735 125.912C70.8375 127.555 66.6587 127.03 62.9898 125.722C59.864 124.604 56.8934 122.927 54.5768 120.535C52.2601 118.143 50.6196 115.002 50.3425 111.671C50.0322 107.926 51.5064 104.08 54.1666 101.454C56.583 99.0726 59.9305 97.7088 63.3002 97.6082C67.7893 97.4852 71.292 99.4862 73.9855 101.085C75.5595 102.024 76.5127 102.817 76.8231 103.086Z" fill="#D81F26"/>
<path d="M77.8982 121.485C77.1223 122.424 74.7724 125.264 70.8818 125.968C69.2635 126.259 67.9888 126.069 66.5035 125.845C63.6992 125.42 62.4355 124.548 62.0587 124.28C61.0057 123.509 60.4625 122.592 60.3295 121.955C60.3184 121.888 60.3073 121.832 60.2962 121.765C60.1632 120.871 60.4736 120.178 60.13 119.965C59.8307 119.775 59.4317 120.2 58.7666 120.457C58.7666 120.457 58.6114 120.513 58.4562 120.558C57.7801 120.77 56.0066 120.334 54.4991 118.836C53.1579 117.506 52.6924 115.997 52.2601 114.544C51.994 113.683 51.5839 112.286 51.595 110.475C51.6283 105.869 54.4326 102.728 54.7873 102.337C55.2307 101.856 57.3811 99.5869 60.9724 98.7597C63.0673 98.2678 64.73 98.4914 65.65 98.6144C66.6698 98.7597 68.3878 99.0168 69.3411 100.012C70.1281 100.828 70.4939 101.856 70.4939 101.856C70.5271 101.946 70.5604 102.035 70.5826 102.124C70.9373 103.309 70.6158 103.958 71.0481 104.282C71.5136 104.628 72.1344 104.058 73.0987 103.689C73.0987 103.689 73.8081 103.488 74.3956 103.421C76.0582 103.22 77.7098 104.986 78.2419 105.567C80.8799 108.396 81.0573 112.04 81.0795 112.632C81.1681 115.203 80.3368 117.148 79.8934 118.165C79.2173 119.809 78.3638 120.927 77.8982 121.485Z" fill="#EF4C4B"/>
<path d="M73.7638 107.043C75.3378 106.417 77.3773 107.512 78.4747 108.842C79.7161 110.363 79.6829 112.174 79.6607 113.571C79.5831 117.528 77.466 120.312 76.8785 121.06C76.6236 121.385 73.9522 124.85 70.4385 125.297C69.585 125.409 68.7093 125.375 67.9002 125.085C67.091 124.794 66.3705 124.213 66.0047 123.43C65.7055 122.782 65.6611 122.044 65.6944 121.34C65.7276 120.524 65.8496 119.686 66.2597 118.981C66.825 118.02 67.8448 117.439 68.7093 116.734C70.6824 115.147 69.6404 113.314 71.8351 109.334C72.866 107.479 73.4424 107.166 73.7638 107.043Z" fill="#D81F26"/>
<path d="M67.2462 102.761C67.0688 101.062 65.1623 99.7432 63.4886 99.3854C61.571 98.9718 59.997 99.8438 58.7888 100.503C55.3416 102.404 53.8674 105.578 53.4794 106.45C53.3131 106.819 51.5064 110.821 52.7257 114.175C53.0249 114.979 53.4572 115.762 54.089 116.343C54.7208 116.924 55.5633 117.304 56.4168 117.271C57.1262 117.237 57.7912 116.936 58.4009 116.589C59.0992 116.187 59.7864 115.684 60.2076 114.991C60.7951 114.04 60.8394 112.867 61.05 111.76C61.5377 109.256 63.6216 109.345 66.1156 105.534C67.2795 103.767 67.2905 103.108 67.2462 102.761Z" fill="#D81F26"/>
<path d="M73.2539 119.026C72.7662 119.507 72.1455 120.121 71.1147 120.457C70.771 120.568 69.7291 120.893 68.5652 120.557C67.6452 120.289 66.8693 119.685 66.1378 119.104C65.5392 118.635 65.517 118.523 65.251 118.456C64.3864 118.232 63.4664 119.048 62.491 119.92C61.5599 120.759 61.0057 121.507 60.3185 121.776C60.1855 120.881 60.4958 120.188 60.1522 119.976C59.8529 119.786 59.4539 120.211 58.7888 120.468C58.8775 119.875 59.2876 119.35 59.5869 118.948C59.9859 118.4 61.8592 115.851 61.3493 115.136C61.0944 114.767 60.4737 115.225 59.1214 114.901C58.7223 114.812 57.8134 114.577 57.0375 113.817C56.9377 113.716 56.2727 113.045 55.9845 112.006C55.4303 109.927 56.8491 107.948 57.7469 106.696C58.5893 105.522 59.199 104.673 60.3961 104.248C60.5069 104.203 62.491 103.533 64.1758 104.527C65.1734 105.12 65.6057 106.014 66.3151 105.869C66.6587 105.802 66.8472 105.522 67.1021 105.187C67.6896 104.416 68.8534 102.873 70.0727 102.325C70.239 102.247 70.4163 102.191 70.6048 102.135C70.9595 103.32 70.638 103.969 71.0703 104.293C71.5359 104.639 72.1566 104.069 73.1209 103.7C73.1098 104.516 72.7662 105.455 72.2674 106.104C72.1233 106.294 71.5913 106.931 70.8375 107.926C70.5494 108.317 70.4053 108.507 70.4496 108.742C70.5383 109.256 71.425 109.323 72.345 109.77C72.4337 109.815 73.9966 110.597 74.7836 112.196C75.5706 113.794 75.1826 115.404 75.0607 115.918C74.6727 117.573 73.7084 118.568 73.2539 119.026Z" fill="#F06364"/>
<path d="M68.809 120.513C68.5541 120.692 68.2881 120.87 68.0331 121.049C67.9445 121.116 67.8558 121.172 67.7893 121.262C67.5787 121.519 67.623 121.932 67.8558 122.167C68.0886 122.402 68.4876 122.424 68.7758 122.268C68.8756 122.212 68.9642 122.134 69.0086 122.044C69.0751 121.91 69.0529 121.753 69.0307 121.597C68.9642 121.161 68.8977 120.736 68.8312 120.3" fill="#F26C3C"/>
<path d="M63.023 104.125C63.1782 103.846 63.3334 103.566 63.4775 103.298C63.5329 103.197 63.5883 103.108 63.6105 102.996C63.6881 102.672 63.4664 102.314 63.156 102.214C62.8457 102.113 62.4799 102.258 62.2915 102.538C62.225 102.627 62.1806 102.739 62.1917 102.84C62.1917 102.985 62.2804 103.119 62.3691 103.242C62.624 103.6 62.8678 103.958 63.1228 104.315" fill="#F26C3C"/>
<path d="M60.2963 104.259C60.3295 103.935 60.3628 103.6 60.396 103.276C60.4071 103.164 60.4182 103.052 60.4071 102.94C60.3628 102.605 60.0303 102.359 59.7199 102.404C59.4095 102.448 59.1435 102.739 59.077 103.074C59.0548 103.186 59.0548 103.309 59.0992 103.41C59.1546 103.555 59.2876 103.633 59.3984 103.723C59.7532 103.957 60.0968 104.181 60.4515 104.416" fill="#F26C3C"/>
<path d="M71.2476 120.122C71.2144 120.446 71.1811 120.781 71.1479 121.105C71.1368 121.217 71.1257 121.329 71.1368 121.441C71.1811 121.776 71.5137 122.022 71.824 121.977C72.1344 121.932 72.4004 121.642 72.4669 121.306C72.4891 121.195 72.4891 121.072 72.4448 120.971C72.3893 120.826 72.2563 120.748 72.1455 120.658C71.7908 120.423 71.4472 120.2 71.0925 119.965" fill="#F26C3C"/>
<path d="M73.3094 118.579C73.3981 118.881 73.4757 119.194 73.5643 119.495C73.5976 119.596 73.6197 119.708 73.6752 119.797C73.8414 120.088 74.2516 120.177 74.5398 120.032C74.8279 119.875 74.9942 119.518 74.9388 119.194C74.9166 119.082 74.8834 118.981 74.8058 118.903C74.6949 118.802 74.5398 118.769 74.3957 118.735C73.9634 118.657 73.5422 118.579 73.1099 118.5" fill="#F26C3C"/>
<path d="M75.0607 116.03C75.2602 116.287 75.4708 116.544 75.6703 116.802C75.7369 116.891 75.8144 116.98 75.9031 117.047C76.1691 117.26 76.5682 117.204 76.7677 116.947C76.9672 116.701 76.945 116.298 76.7566 116.008C76.6901 115.907 76.6125 115.829 76.5128 115.784C76.3687 115.728 76.2246 115.751 76.0805 115.784C75.6703 115.863 75.2602 115.952 74.8501 116.03" fill="#F26C3C"/>
<path d="M56.051 111.335C55.8072 111.134 55.5633 110.933 55.3194 110.743C55.2308 110.676 55.1532 110.608 55.0534 110.564C54.7541 110.43 54.3662 110.586 54.211 110.888C54.0558 111.179 54.1445 111.57 54.3773 111.805C54.4549 111.883 54.5546 111.95 54.6544 111.961C54.7985 111.983 54.9426 111.916 55.0867 111.849C55.4746 111.659 55.8737 111.469 56.2616 111.29" fill="#F26C3C"/>
<path d="M57.1483 113.772C56.8269 113.772 56.4943 113.783 56.1729 113.783C56.0621 113.783 55.9512 113.783 55.8404 113.817C55.5078 113.906 55.3083 114.253 55.3859 114.566C55.4635 114.879 55.785 115.102 56.1286 115.136C56.2394 115.147 56.3613 115.136 56.4611 115.08C56.5941 115.002 56.6606 114.868 56.7271 114.745C56.9156 114.365 57.104 113.985 57.2924 113.616" fill="#F26C3C"/>
<path d="M58.1016 106.025C58.035 105.712 57.9796 105.399 57.9131 105.098C57.8909 104.986 57.8688 104.885 57.8244 104.785C57.6803 104.483 57.2813 104.36 56.9709 104.494C56.6717 104.628 56.4832 104.975 56.5165 105.31C56.5276 105.422 56.5608 105.534 56.6384 105.612C56.7382 105.724 56.8934 105.768 57.0374 105.802C57.4587 105.914 57.8799 106.014 58.3011 106.126" fill="#F26C3C"/>
<path d="M56.5608 108.664C56.3835 108.384 56.2061 108.105 56.0288 107.836C55.9733 107.736 55.9068 107.646 55.8293 107.568C55.5854 107.333 55.1753 107.345 54.9647 107.568C54.743 107.792 54.7208 108.194 54.876 108.496C54.9314 108.597 54.9979 108.697 55.0977 108.742C55.2307 108.82 55.3859 108.809 55.53 108.798C55.9512 108.764 56.3613 108.72 56.7825 108.686" fill="#F26C3C"/>
<path d="M75.1826 113.694C75.493 113.761 75.7923 113.839 76.1026 113.906C76.2135 113.929 76.3132 113.951 76.4241 113.951C76.7566 113.94 77.0337 113.627 77.0337 113.291C77.0448 112.956 76.8009 112.643 76.4906 112.542C76.3908 112.509 76.2689 112.498 76.1691 112.531C76.025 112.576 75.9253 112.699 75.8366 112.822C75.5595 113.168 75.2935 113.504 75.0164 113.85" fill="#F26C3C"/>
<path d="M73.8082 111.067C74.1296 111.056 74.4621 111.045 74.7836 111.033C74.8944 111.033 75.0053 111.022 75.1161 110.989C75.4376 110.899 75.6371 110.542 75.5595 110.229C75.4819 109.927 75.1494 109.692 74.8058 109.681C74.6949 109.67 74.573 109.692 74.4732 109.748C74.3402 109.826 74.2737 109.96 74.2072 110.094C74.0298 110.474 73.8414 110.855 73.6641 111.235" fill="#F26C3C"/>
</svg>
