<svg width="140" height="126" viewBox="0 0 140 126" fill="none" xmlns="http://www.w3.org/2000/svg">
<path d="M9.605 79.1279C8.03955 77.2451 6.58253 75.2763 5.24086 73.231C3.95212 71.2653 -1.23798 64.0219 4.49886 66.005C7.23255 66.953 8.14638 71.0661 10.3118 72.7899C25.5229 84.9184 43.1825 90.7476 62.3085 92.2702C74.2368 93.2528 86.2454 92.0279 97.7215 88.6581C112.144 84.4405 125.211 78.5823 135.152 67.0594C137.737 64.0606 138.162 65.9759 138.371 68.4272C138.711 72.3778 130.34 80.6157 127.81 83.3378C125.172 86.1779 119.023 88.9851 118.087 92.7809C117.295 95.9712 118.992 101.68 119.86 104.938C120.169 105.849 120.27 106.815 120.155 107.769C120.088 108.244 119.877 108.688 119.55 109.041C119.222 109.394 118.794 109.64 118.322 109.746C117.81 109.736 117.306 109.613 116.847 109.388C116.389 109.163 115.985 108.841 115.666 108.444C111.929 104.894 112.542 106.912 109.681 102.64C108.949 101.191 107.75 100.025 106.274 99.3259C104.503 99.0237 102.681 99.3563 101.135 100.264C97.1376 101.943 92.9268 103.07 88.6203 103.613C85.4336 104.016 81.4404 103.851 79.7905 107.202C79.0042 108.505 78.5754 109.989 78.5466 111.507C78.4719 115.702 77.6461 119.85 76.1078 123.759C75.9099 124.359 75.5948 124.914 75.1803 125.394C74.0087 126.595 72.6028 125.831 71.8218 124.659C71.2995 123.759 70.9375 122.778 70.7517 121.757C69.9043 118.3 68.9644 114.868 67.9321 111.46C67.0749 108.632 66.9324 104.495 63.2458 104.573C58.5183 104.666 53.7995 104.13 49.2161 102.979C44.9106 101.899 40.4293 99.0667 35.9128 100.727C30.2229 102.816 30.9727 103.137 28.1316 107.86C27.6384 108.757 26.9885 109.561 26.2121 110.234C23.5702 112.341 22.0042 110.085 22.3928 107.403C23.0294 103.013 22.1565 104.271 24.1013 100.317C25.5717 97.3255 26.9854 93.963 23.5859 91.7052C18.3344 88.207 13.6248 83.9702 9.605 79.1279Z" fill="url(#paint0_linear_20007_34106)"/>
<path d="M69.1856 0.119424C86.4952 -0.785937 103.681 3.47255 118.523 12.3447C125.655 16.3795 131.599 22.1911 135.767 29.2035C144.553 44.7815 138.832 60.9438 126.232 70.594C113.074 80.8265 97.1147 86.9014 80.4269 88.0293C65.1351 89.4156 49.7185 87.7096 35.1122 83.0146C26.1178 80.0731 17.9158 75.1445 11.126 68.6013C-3.93268 54.2846 -3.58902 34.4058 11.4502 19.9828C23.2324 8.68038 45.0374 0.419299 69.1856 0.119424ZM48.2085 50.4443C47.4899 52.1855 45.8517 53.5088 45.8341 55.5693C45.5362 55.5337 45.2341 55.563 44.9489 55.6551C44.6637 55.7473 44.4022 55.9 44.1828 56.1027C43.9633 56.3054 43.7912 56.5531 43.6785 56.8286C43.5657 57.104 43.515 57.4006 43.53 57.6974C42.8477 57.7722 42.1987 58.0293 41.6525 58.4413C41.1063 58.8533 40.6835 59.4047 40.4292 60.0365C39.3045 60.1313 37.9474 59.6282 37.4007 61.1973L37.1859 61.4778C36.2904 61.6123 35.4179 61.8681 34.5928 62.2381C31.8806 63.9348 27.7 64.5443 28.6978 69.2533C29.3597 72.3778 34.8486 75.4442 38.6328 74.8174C48.849 73.1033 59.0124 64.1167 58.7996 52.7969C58.7547 50.3785 58.2626 48.291 56.0405 47.4649C53.6798 46.5866 50.9871 46.1513 49.4211 49.15C49.253 49.1474 49.0863 49.1799 48.9317 49.2453C48.7772 49.3107 48.6382 49.4076 48.5239 49.5296C48.4095 49.6517 48.3224 49.7962 48.268 49.9537C48.2137 50.1113 48.1934 50.2785 48.2085 50.4443ZM113.792 59.1349C113.737 59.4112 113.661 59.6829 113.563 59.9475C110.974 60.3073 111.243 63.4144 109.252 64.3469C107.313 64.2521 105.237 63.4396 103.64 65.262C101.633 67.5527 98.9145 67.6397 96.1808 67.7133C94.402 67.5523 92.652 67.1621 90.9751 66.5525C83.9881 63.1135 75.9757 62.3157 68.4378 64.3082C65.0285 65.0821 61.1603 65.8792 60.7229 70.5321C58.1201 74.5949 59.9868 80.5673 64.1908 81.4301C70.5731 82.7097 77.1627 82.5676 83.4828 81.0142C86.1381 80.4422 88.6378 79.3103 90.8121 77.6955C92.9864 76.0807 94.7842 74.0209 96.0832 71.6561C98.9145 71.7374 101.902 70.0349 104.513 72.8672C104.99 73.4278 105.664 73.7883 106.4 73.8762C107.135 73.9642 107.876 73.773 108.475 73.3412C109.668 72.3043 109.256 71.039 108.568 69.9169C107.301 67.8448 109.83 66.2603 109.228 64.3063C113.286 63.5324 114.305 68.669 117.943 68.7019C118.388 69.5764 117.865 71.4646 119.253 71.2286C122.494 70.6753 124.281 67.8216 126.087 65.5174C126.413 65.0743 126.635 64.5647 126.736 64.0257C126.837 63.4868 126.816 62.9323 126.673 62.4027C126.53 61.8731 126.269 61.382 125.909 60.9652C125.55 60.5484 125.101 60.2165 124.596 59.9939C124.471 59.2723 124.348 58.5506 124.228 57.829L125.595 54.54C128.632 53.8648 131.928 53.6249 133.234 50.0554C136.749 45.6521 136.358 43.9148 131.067 40.7071C128.827 40.6839 126.398 39.5695 124.545 41.806L123.701 42.6224C123.097 42.8537 122.559 43.2256 122.13 43.7066C121.702 44.1875 121.397 44.7635 121.24 45.3859C121.084 46.0083 121.081 46.6589 121.232 47.2827C121.382 47.9065 121.682 48.4852 122.106 48.9701C123.184 50.7306 123.982 52.6595 124.904 54.5168C122.547 56.3606 119.763 55.7453 117.133 55.7163C114.637 55.6834 113.385 56.5327 113.794 59.1368L113.792 59.1349ZM104.69 58.4152C110.771 58.0031 114.209 52.9575 112.643 46.7433C112.271 45.0539 111.334 43.5386 109.984 42.4424C108.634 41.3463 106.951 40.7335 105.206 40.7032C96.1359 40.7709 87.269 41.9994 79.8997 48.0395C78.4958 48.6683 78.6071 49.9336 78.5739 51.135C75.436 50.9667 72.2708 53.7352 69.0392 50.4598C68.0355 49.4422 65.3663 49.5872 65.665 53.1122C66.0419 57.562 66.2821 60.0539 71.1812 56.0936C72.6984 54.867 75.2818 54.9328 77.3691 54.4007C80.3937 55.3565 82.4167 58.777 86.1794 57.9199C86.8353 58.6402 87.6502 59.2007 88.5606 59.5578C89.471 59.9148 90.4523 60.0588 91.4281 59.9784C95.8908 59.9045 100.334 59.3814 104.69 58.4171V58.4152ZM22.6993 21.8111L18.5499 21.4454C14.6623 23.1537 12.405 26.5916 9.73966 29.5962C7.63667 33.3243 4.42459 36.6694 5.56884 41.5119C4.88737 45.8785 9.2105 46.5827 11.4267 47.9505C13.2153 49.0552 14.8146 45.5786 15.8104 43.5646C16.594 41.9924 17.4865 40.4758 18.4816 39.0258C22.5528 33.0283 29.309 32.061 35.3309 29.7084C37.4612 28.8746 39.2771 27.5803 39.199 25.1813C39.1385 23.3143 38.7402 21.1455 35.9713 21.1417C34.9875 20.1485 33.7623 19.4229 32.4136 19.0346C31.0648 18.6463 29.6379 18.6084 28.2702 18.9245C26.007 19.1277 23.041 17.9862 22.6993 21.8111ZM72.0521 30.3972C72.8409 29.9613 73.715 29.6987 74.6153 29.6272C75.5156 29.5558 76.4208 29.6772 77.2695 29.9831C81.1748 31.9178 83.4223 28.9462 84.5626 26.5162C85.9589 24.0999 86.8239 21.4186 87.101 18.6479C87.0464 15.7749 90.194 11.1935 84.2893 10.0095C84.1897 7.06492 81.4091 6.97206 79.683 5.75321C79.3491 5.17281 79.0308 4.11647 78.6793 4.10486C72.9054 3.923 67.0826 2.70802 61.381 4.66205C59.7503 5.2594 58.0623 5.68985 56.3432 5.94668C52.6332 7.21196 47.3942 6.42648 46.5234 12.1609C45.5724 12.4298 43.6413 12.453 44.4301 13.726C45.506 15.4672 46.0996 17.5064 48.1401 18.8413C54.3906 23.2779 61.365 26.6155 68.758 28.7082C67.276 30.1998 65.1261 30.9969 64.4193 33.305C63.6636 35.7698 62.246 35.7059 61.2521 33.5236C60.6663 32.2506 59.1608 31.6605 59.1842 29.9077C59.2096 28.0194 57.1047 27.9362 55.9526 27.8879C54.1113 27.8105 54.7537 29.6717 54.537 30.7899C53.7813 34.6593 56.9992 36.9615 58.3407 39.9932C58.7899 41.0742 59.5388 42.0072 60.5009 42.684C61.4629 43.3609 62.5987 43.7541 63.7768 43.818C65.7139 43.64 65.2999 40.6258 65.5479 38.7201C65.7634 38.0456 66.0815 37.4076 66.491 36.828C69.6289 40.7361 71.3179 45.3735 75.4458 48.5135C76.1963 46.9836 76.5445 45.2906 76.4581 43.5917C76.3718 41.8928 75.8536 40.2431 74.9518 38.7956C73.5771 36.1799 71.1598 33.8177 72.0521 30.3991V30.3972ZM19.5555 47.9795C18.813 48.3847 18.2056 48.9952 17.8072 49.7365C17.4088 50.4778 17.2367 51.318 17.312 52.1546C12.6432 54.7374 13.723 58.3978 15.3984 62.1704C15.7323 65.9295 18.3371 66.4673 21.4242 66.3706C24.4196 66.2758 23.9763 64.0741 24.0778 62.1956C24.5855 62.0214 25.4662 61.9479 25.5443 61.6616C27.2196 55.4203 31.7322 51.9727 37.3401 49.4344C38.7974 48.747 40.0655 47.7208 41.0365 46.4434C42.8173 44.0792 43.5144 41.9201 40.0484 39.8481C35.4168 37.0776 30.1486 38.0546 23.8631 43.6265L21.8948 45.0524C21.2392 45.2268 20.6577 45.6059 20.2367 46.1335C19.8157 46.6611 19.5775 47.3092 19.5575 47.9815L19.5555 47.9795ZM91.9241 24.0089C90.4166 29.84 93.822 32.208 98.6626 34.0479C102.859 35.6421 107.293 35.7736 111.413 36.7565C116.449 37.8963 121.66 38.0625 126.759 37.2459C128.655 36.9944 130.86 36.8396 130.725 34.5529C130.59 32.2661 132.947 29.0235 128.772 27.8395C125.784 22.6985 121.779 18.2081 116.998 14.6373C111.691 10.6151 105.157 8.47337 98.7231 11.1432C93.5486 13.2985 91.225 18.1719 91.926 24.0108L91.9241 24.0089ZM53.6524 40.0996C52.3698 35.6882 50.112 31.6152 47.0428 28.1761C46.2617 27.1972 45.8849 24.5157 43.6296 25.9958C42.9041 26.5663 42.4178 27.383 42.2645 28.2881C42.1113 29.1932 42.3019 30.1224 42.7997 30.8963C44.8519 34.8353 47.238 38.6118 49.6534 42.3496C50.2509 43.2744 51.0652 44.7738 52.5824 44.145C54.0488 43.5375 53.3244 41.9665 53.6622 40.1015L53.6524 40.0996ZM38.0314 7.37834L33.0092 13.4145C36.3658 12.689 38.8183 11.2709 38.0372 7.37834H38.0314ZM93.3495 34.7986C90.1745 36.9693 88.38 38.2075 87.7064 41.1675C90.938 40.5523 91.7034 38.368 93.3534 34.7986H93.3495ZM48.9954 79.9791C50.704 79.4103 52.7054 78.9886 52.5101 76.2916C51.7037 76.6388 50.9769 77.1447 50.3737 77.7786C49.7706 78.4125 49.3036 79.1611 49.0013 79.9791H48.9954ZM54.9314 75.0341C55.4156 74.6261 55.8401 74.1534 56.1928 73.6295C56.3275 73.3741 55.8999 72.8286 55.7281 72.4165C55.2087 72.8344 54.7254 73.2945 54.2831 73.792C53.9649 74.2157 53.9629 74.7362 54.9392 75.0341H54.9314Z" fill="url(#paint1_linear_20007_34106)"/>
<path d="M91.9241 24.0113C91.2231 18.1724 93.5429 13.297 98.7291 11.1476C105.173 8.47775 111.696 10.6194 117.004 14.6436C121.785 18.2143 125.79 22.7039 128.78 27.8439C128.06 30.9994 125.384 31.2857 122.899 31.5449C111.679 32.7135 101.061 31.3147 91.9241 24.0113Z" fill="url(#paint2_linear_20007_34106)"/>
<path d="M79.6888 5.76133C81.4149 6.97437 84.1955 7.06917 84.2931 10.0176C85.1683 12.0106 85.2875 14.2496 84.629 16.3227C82.7974 21.2813 79.1831 23.1348 73.6083 22.3009C63.8276 20.8383 54.4295 18.5051 46.5272 12.1729C47.3981 6.43847 52.6409 7.22395 56.347 5.95867C58.0648 5.70269 59.7516 5.27287 61.3809 4.67597C65.79 4.21745 70.0506 5.48273 74.3972 5.77874C74.1746 10.6019 75.723 14.7479 79.6693 19.515C79.2436 13.5813 76.8419 9.79901 75.1782 5.77874L79.6888 5.76133Z" fill="url(#paint3_linear_20007_34106)"/>
<path d="M43.5319 57.6933C43.517 57.3964 43.5676 57.0998 43.6804 56.8244C43.7931 56.5489 43.9653 56.3012 44.1847 56.0985C44.4041 55.8958 44.6656 55.7431 44.9509 55.6509C45.2361 55.5588 45.5382 55.5295 45.836 55.5651C48.4936 59.9297 49.2961 56.7665 50.3154 54.4817L53.1115 56.8207C51.9263 54.1122 52.9768 50.4363 49.4269 49.142C50.989 46.1432 53.6798 46.5766 56.0405 47.4569C58.2626 48.2849 58.7547 50.3705 58.7996 52.7888C59.0124 64.1067 48.8411 73.103 38.6328 74.8074C34.8505 75.442 29.3597 72.3697 28.6978 69.2433C27.7 64.5343 31.8806 63.9249 34.5928 62.2281C35.4181 61.8584 36.2905 61.6019 37.1859 61.4659C39.0604 64.4066 41.1751 65.3449 44.1607 62.6751C46.5429 60.5508 45.9961 59.0765 43.5319 57.6933Z" fill="url(#paint4_linear_20007_34106)"/>
<path d="M23.8669 43.6243C30.1544 38.0505 35.4206 37.0754 40.0523 39.8459C43.5182 41.9199 42.8192 44.077 41.0403 46.4412C40.0694 47.7187 38.8013 48.7448 37.344 49.4322C31.736 51.9705 27.2235 55.4181 25.5481 61.6594C25.47 61.9457 24.5894 62.0212 24.0817 62.1934C21.2933 63.293 18.1841 63.284 15.4022 62.1682C13.7249 58.3956 12.6471 54.7352 17.3158 52.1543C17.8137 54.9538 19.9109 53.8839 20.7603 53.0211C22.6817 51.0651 21.6526 49.2755 19.5574 47.9793C19.5778 47.3062 19.8169 46.6576 20.239 46.1299C20.6612 45.6022 21.2439 45.2235 21.9006 45.0502C21.9358 46.4412 21.5706 48.3604 23.5408 48.3894C24.2704 48.2963 24.9505 47.9738 25.4813 47.4691C26.012 46.9645 26.3653 46.3045 26.4893 45.5861C26.7841 43.8932 25.0561 43.9068 23.8669 43.6243Z" fill="url(#paint5_linear_20007_34106)"/>
<path d="M60.7249 70.536C61.1622 65.8812 65.0206 65.086 68.4397 64.3122C75.9776 62.3194 83.9901 63.1173 90.977 66.5564C92.6538 67.1664 94.4039 67.5566 96.1827 67.7172L95.9738 69.9305C95.101 69.7525 93.8142 69.1141 93.4178 69.4642C86.1345 75.9028 77.2519 75.1967 68.4924 75.1715C66.8709 75.3016 65.2491 74.9242 63.8556 74.0926C62.462 73.261 61.367 72.017 60.7249 70.536Z" fill="url(#paint6_linear_20007_34106)"/>
<path d="M79.8998 48.0399C87.269 41.9999 96.1359 40.7733 105.206 40.7036C108.933 40.6746 111.472 43.1413 112.643 46.7456C111.015 48.3147 110.138 50.4602 107.586 51.3057C99.8674 53.8633 92.0725 52.8379 84.2913 52.215C83.1973 52.0956 82.1737 51.6217 81.3796 50.8667C80.5855 50.1117 80.0653 49.118 79.8998 48.0399Z" fill="url(#paint7_linear_20007_34106)"/>
<path d="M46.5292 12.1723C54.4315 18.5065 63.8295 20.8378 73.6102 22.3004C79.185 23.1342 82.7993 21.2808 84.6309 16.3222C85.2895 14.2491 85.1702 12.01 84.2951 10.0171C90.2018 11.1992 87.0541 15.7824 87.1088 18.6535C86.8317 21.4242 85.9666 24.1056 84.5704 26.5218C83.43 28.9518 81.1904 31.9389 77.2773 29.9888C76.4286 29.6825 75.5231 29.5611 74.6228 29.6329C73.7224 29.7046 72.8482 29.9679 72.0599 30.4047C71.7848 29.7962 71.3098 29.2978 70.7124 28.9907C70.115 28.6837 69.4302 28.5861 68.7697 28.7138C61.3766 26.6212 54.4022 23.2835 48.1518 18.847C46.1113 17.512 45.5177 15.4671 44.4418 13.7317C43.6471 12.4587 45.5763 12.4354 46.5292 12.1723Z" fill="url(#paint8_linear_20007_34106)"/>
<path d="M28.2643 18.9242C29.6321 18.6083 31.059 18.6463 32.4077 19.0346C33.7564 19.4229 34.9816 20.1484 35.9655 21.1414C35.7019 26.1561 31.8044 28.2455 27.9792 29.445C22.7123 30.8382 18.1493 34.1076 15.1641 38.627C12.7331 42.4441 9.7143 43.634 5.56886 41.5155C4.42462 36.6788 7.6367 33.3279 9.73968 29.5998C10.593 34.1908 12.1766 31.341 13.6996 30.0177C14.6213 29.2148 13.067 26.9822 15.8358 27.1311C20.8385 27.4001 19.866 24.3994 18.55 21.449L22.6993 21.8166C26.589 20.9402 26.7335 25.2487 28.9224 26.8468C30.1564 23.7532 26.9033 21.6096 28.2643 18.9242Z" fill="url(#paint9_linear_20007_34106)"/>
<path d="M60.723 70.5357C61.364 72.0176 62.4582 73.2628 63.8514 74.0959C65.2446 74.9289 66.8665 75.3077 68.4886 75.179C77.2461 75.2041 86.1287 75.9103 93.4139 69.4717C93.8045 69.1215 95.0971 69.7599 95.9719 69.936L96.0832 71.6772C94.7841 74.0419 92.9863 76.1016 90.812 77.7164C88.6378 79.3312 86.1381 80.4631 83.4828 81.0352C77.1627 82.5887 70.5732 82.7308 64.1908 81.4512C59.9868 80.5729 58.122 74.6063 60.723 70.5357Z" fill="url(#paint10_linear_20007_34106)"/>
<path d="M91.9241 24.0093C101.061 31.3146 111.679 32.7153 122.897 31.541C125.383 31.2817 128.058 30.9954 128.778 27.8399C132.943 29.0259 130.594 32.2897 130.731 34.5533C130.867 36.8169 128.661 36.9949 126.765 37.2464C121.666 38.063 116.455 37.8968 111.419 36.7569C107.299 35.7721 102.865 35.6425 98.6685 34.0483C93.8221 32.2085 90.4226 29.8404 91.9241 24.0093Z" fill="url(#paint11_linear_20007_34106)"/>
<path d="M68.7619 28.7119C69.4225 28.5842 70.1072 28.6818 70.7047 28.9888C71.3021 29.2958 71.777 29.7942 72.0521 30.4028C71.1598 33.8194 73.5752 36.1817 74.9576 38.7916C75.8595 40.239 76.3777 41.8888 76.464 43.5877C76.5504 45.2866 76.2022 46.9795 75.4517 48.5095C71.3218 45.3695 69.6348 40.7321 66.4969 36.824C66.0873 37.4036 65.7693 38.0416 65.5538 38.7161C65.3038 40.6237 65.7197 43.6379 63.7827 43.814C62.6046 43.75 61.4688 43.3569 60.5067 42.68C59.5447 42.0031 58.7958 41.0702 58.3466 39.9891C57.0051 36.9575 53.7892 34.6533 54.5429 30.7859C54.7596 29.6715 54.1172 27.8123 55.9585 27.8838C57.1106 27.9322 59.2155 28.0173 59.1901 29.9056C59.1667 31.6584 60.678 32.2465 61.258 33.5215C62.2499 35.7038 63.6695 35.7677 64.4251 33.3029C65.1281 31.0006 67.2779 30.2035 68.7619 28.7119Z" fill="url(#paint12_linear_20007_34106)"/>
<path d="M79.9017 48.0419C80.0668 49.1203 80.5868 50.1144 81.381 50.8698C82.1752 51.6252 83.1989 52.0994 84.2932 52.2189C92.0744 52.8418 99.8693 53.8672 107.588 51.3096C110.14 50.4641 111.017 48.3185 112.645 46.7495C114.208 52.9598 110.773 58.0055 104.692 58.4195C98.5533 57.1581 92.3556 57.9803 86.1814 57.9281C82.4186 58.7852 80.3957 55.3627 77.3711 54.4089L78.5759 51.1432C78.6071 49.9379 78.4958 48.6726 79.9017 48.0419Z" fill="url(#paint13_linear_20007_34106)"/>
<path d="M5.56885 41.514C9.71234 43.6325 12.7331 42.4427 15.1641 38.6255C18.1494 34.1063 22.7124 30.8369 27.9792 29.4436C31.8044 28.2441 35.7038 26.1546 35.9655 21.1418C38.7343 21.1418 39.1327 23.3145 39.1932 25.1815C39.2713 27.5843 37.4554 28.8748 35.325 29.7086C29.3031 32.0689 22.5489 33.0285 18.4758 39.026C17.4807 40.476 16.5882 41.9926 15.8046 43.5648C14.8087 45.5807 13.2095 49.0554 11.4209 47.9526C9.21051 46.5848 4.88738 45.8806 5.56885 41.514Z" fill="url(#paint14_linear_20007_34106)"/>
<path d="M53.6642 40.1015C53.3303 41.9665 54.0547 43.5375 52.5863 44.1469C51.075 44.7757 50.2607 43.2763 49.6574 42.3516C47.2419 38.6138 44.8558 34.8373 42.8036 30.8982C42.3058 30.1243 42.1152 29.1951 42.2684 28.29C42.4217 27.385 42.908 26.5683 43.6335 25.9977C45.8888 24.5177 46.2715 27.1991 47.0467 28.1781C50.1188 31.6163 52.3794 35.6895 53.6642 40.1015Z" fill="url(#paint15_linear_20007_34106)"/>
<path d="M124.91 54.5074C123.986 52.652 123.186 50.7232 122.108 48.9626C121.684 48.4779 121.384 47.8993 121.233 47.2756C121.083 46.6519 121.085 46.0014 121.242 45.379C121.398 44.7566 121.703 44.1806 122.131 43.6995C122.559 43.2185 123.098 42.8465 123.701 42.6149C123.256 44.9365 123.162 47.0473 126.523 46.9525C128.507 46.8964 129.772 45.6737 129.584 43.9518C129.231 40.7305 126.656 41.5818 124.545 41.8004C126.398 39.5639 128.827 40.6802 131.067 40.7015C130.549 44.0988 134.45 46.494 133.234 50.0518C131.928 53.6213 128.632 53.8612 125.595 54.5364C125.368 54.5111 125.139 54.5014 124.91 54.5074Z" fill="url(#paint16_linear_20007_34106)"/>
<path d="M96.0832 71.6622L95.9719 69.921L96.1809 67.7096C98.9145 67.6361 101.633 67.551 103.642 65.2584C105.239 63.4378 107.315 64.2485 109.254 64.3433L109.232 64.2949C109.832 66.2586 107.303 67.8431 108.57 69.9055C109.258 71.0276 109.67 72.2929 108.477 73.3299C107.878 73.7616 107.137 73.9528 106.402 73.8648C105.666 73.7769 104.992 73.4164 104.515 72.8559C101.902 70.0409 98.9165 71.7415 96.0832 71.6622Z" fill="url(#paint17_linear_20007_34106)"/>
<path d="M124.227 57.8251L124.598 59.9881C122.84 63.2345 122.532 67.5721 117.943 68.6942C114.301 68.6613 113.286 63.5208 109.23 64.2986L109.252 64.3469C111.244 63.4144 110.974 60.3054 113.563 59.9475C113.942 61.9828 114.764 63.2577 117.248 62.656C117.789 62.5757 118.305 62.3801 118.762 62.0826C119.219 61.785 119.605 61.3928 119.894 60.9328C120.183 60.4729 120.368 59.9563 120.435 59.4187C120.503 58.8812 120.452 58.3355 120.286 57.8193L124.227 57.8251Z" fill="url(#paint18_linear_20007_34106)"/>
<path d="M78.5739 51.1407L77.3691 54.4064C75.2759 54.9346 72.7004 54.8746 71.1812 56.0993C66.2801 60.0596 66.0419 57.5755 65.665 53.118C65.3663 49.591 68.0355 49.4421 69.0392 50.4655C72.2727 53.7429 75.436 50.9685 78.5739 51.1407Z" fill="url(#paint19_linear_20007_34106)"/>
<path d="M18.5499 21.447C19.866 24.3974 20.8384 27.3981 15.8357 27.1292C13.0669 26.9802 14.6212 29.2148 13.6996 30.0157C12.1765 31.3429 10.5929 34.1888 9.73962 29.5978C12.405 26.5933 14.6622 23.1553 18.5499 21.447Z" fill="url(#paint20_linear_20007_34106)"/>
<path d="M117.943 68.6978C122.532 67.5737 122.836 63.2362 124.598 59.9917C125.103 60.2143 125.552 60.5462 125.911 60.963C126.271 61.3798 126.532 61.871 126.675 62.4005C126.818 62.9301 126.839 63.4846 126.738 64.0235C126.637 64.5625 126.415 65.0721 126.089 65.5152C124.281 67.8194 122.495 70.6731 119.255 71.2264C117.865 71.4605 118.386 69.5703 117.943 68.6978Z" fill="url(#paint21_linear_20007_34106)"/>
<path d="M43.5222 57.7029C45.9786 59.0862 46.5332 60.5604 44.1529 62.6905C41.1673 65.3603 39.0526 64.4317 37.1781 61.4813L37.3929 61.2027C38.4356 60.9009 40.3492 62.8259 40.4234 60.0419C40.6775 59.4104 41.1001 58.8592 41.6459 58.4472C42.1917 58.0352 42.8402 57.778 43.5222 57.7029Z" fill="url(#paint22_linear_20007_34106)"/>
<path d="M86.1794 57.9274C92.3537 57.9777 98.5494 57.1535 104.69 58.4188C100.335 59.3855 95.8911 59.9112 91.4281 59.9878C90.4522 60.068 89.4708 59.9237 88.5604 59.5663C87.65 59.2089 86.8352 58.648 86.1794 57.9274Z" fill="url(#paint23_linear_20007_34106)"/>
<path d="M120.288 57.8076C120.454 58.3237 120.505 58.8694 120.437 59.407C120.37 59.9446 120.185 60.4612 119.896 60.9211C119.607 61.381 119.221 61.7733 118.764 62.0708C118.307 62.3683 117.79 62.564 117.25 62.6443C114.766 63.2537 113.944 61.9788 113.565 59.9357C113.662 59.6699 113.739 59.3969 113.794 59.1193C115.857 58.21 117.56 55.5363 120.288 57.8076Z" fill="#FFA4A0"/>
<path d="M124.549 41.8006C126.654 41.5839 129.235 40.7327 129.589 43.952C129.784 45.6738 128.511 46.8985 126.527 46.9527C123.164 47.0475 123.26 44.9464 123.705 42.6151L124.549 41.8006Z" fill="#FFA4A0"/>
<path d="M79.6889 5.76118L75.1978 5.77859C74.9381 5.8039 74.6765 5.8039 74.4168 5.77859C70.0702 5.48258 65.8096 4.2173 61.4005 4.67582C67.1061 2.72179 72.921 3.93677 78.7028 4.11863C79.0367 4.12444 79.355 5.18658 79.6889 5.76118Z" fill="url(#paint24_linear_20007_34106)"/>
<path d="M15.4004 62.1704C18.1822 63.2866 21.2915 63.2956 24.0798 62.1956C23.9783 64.0741 24.4196 66.2758 21.4262 66.3706C18.3391 66.4673 15.7343 65.9295 15.4004 62.1704Z" fill="url(#paint25_linear_20007_34106)"/>
<path d="M28.2643 18.9245C26.8975 21.6098 30.1564 23.7612 28.9224 26.8373C26.7335 25.2451 26.589 20.9366 22.6993 21.8072C23.0411 17.9862 26.0071 19.1257 28.2643 18.9245Z" fill="url(#paint26_linear_20007_34106)"/>
<path d="M120.286 57.8081C117.552 55.5388 115.856 58.2106 113.792 59.1353C113.384 56.5332 114.629 55.6819 117.136 55.709C119.769 55.738 122.551 56.3533 124.91 54.5076C125.139 54.5 125.369 54.5084 125.597 54.5327L124.23 57.8217L120.286 57.8081Z" fill="url(#paint27_linear_20007_34106)"/>
<path d="M133.23 50.0498C134.447 46.4919 130.545 44.0968 131.063 40.6995C136.354 43.9091 136.757 45.6464 133.23 50.0498Z" fill="url(#paint28_linear_20007_34106)"/>
<path d="M50.3154 54.4859C49.2961 56.7707 48.4936 59.9339 45.8361 55.5693C45.8517 53.5069 47.4899 52.1836 48.2105 50.4424C50.0791 51.193 50.3232 52.7756 50.3154 54.4859Z" fill="url(#paint29_linear_20007_34106)"/>
<path d="M19.5556 47.9814C21.6507 49.2777 22.6798 51.0769 20.7584 53.0232C19.909 53.888 17.8119 54.9579 17.3139 52.1565C17.2383 51.3201 17.4099 50.48 17.808 49.7386C18.206 48.9972 18.8133 48.3867 19.5556 47.9814Z" fill="url(#paint30_linear_20007_34106)"/>
<path d="M38.0372 7.37842C38.8182 11.2691 36.3638 12.6891 33.015 13.4146L38.0372 7.37842Z" fill="url(#paint31_linear_20007_34106)"/>
<path d="M23.8689 43.6245C25.0581 43.8992 26.7862 43.8934 26.4894 45.5843C26.3657 46.3029 26.0125 46.9631 25.4817 47.4677C24.9509 47.9724 24.2706 48.2949 23.5409 48.3877C21.5687 48.3587 21.9339 46.4395 21.9007 45.0484L23.8689 43.6245Z" fill="url(#paint32_linear_20007_34106)"/>
<path d="M50.3134 54.4881C50.3134 52.7778 50.0772 51.1991 48.2085 50.4466C48.1931 50.2804 48.2132 50.1129 48.2676 49.9549C48.3219 49.797 48.4092 49.6521 48.5238 49.5298C48.6383 49.4075 48.7776 49.3105 48.9326 49.2452C49.0875 49.1798 49.2547 49.1475 49.423 49.1503C52.9768 50.4408 51.9263 54.1186 53.1116 56.8291L50.3134 54.4881Z" fill="url(#paint33_linear_20007_34106)"/>
<path d="M93.3534 34.7988C91.7015 38.3683 90.9361 40.5526 87.7103 41.1678C88.3762 38.2077 90.1785 36.9695 93.3534 34.7988Z" fill="url(#paint34_linear_20007_34106)"/>
<path d="M49.0013 79.9792C49.3044 79.1607 49.7722 78.4117 50.3764 77.7778C50.9806 77.1439 51.7086 76.6383 52.5161 76.2917C52.7055 78.9887 50.7099 79.4124 49.0013 79.9792Z" fill="url(#paint35_linear_20007_34106)"/>
<path d="M54.9392 75.0319C53.9629 74.734 53.9629 74.2136 54.2909 73.7899C54.7331 73.2923 55.2165 72.8322 55.7359 72.4143C55.9077 72.8283 56.3353 73.3816 56.2006 73.6273C55.8479 74.1512 55.4234 74.624 54.9392 75.0319Z" fill="url(#paint36_linear_20007_34106)"/>
<path d="M40.4312 60.0309C40.357 62.8168 38.4435 60.8918 37.4008 61.1917C37.9494 59.6246 39.3065 60.1257 40.4312 60.0309Z" fill="url(#paint37_linear_20007_34106)"/>
<path d="M74.3992 5.77222C74.659 5.7973 74.9206 5.7973 75.1803 5.77222C76.8439 9.79055 79.2476 13.5748 79.6714 19.5084C75.7251 14.7414 74.1766 10.5954 74.3992 5.77222Z" fill="url(#paint38_linear_20007_34106)"/>
<defs>
<linearGradient id="paint0_linear_20007_34106" x1="70.1177" y1="65.5269" x2="70.1177" y2="126" gradientUnits="userSpaceOnUse">
<stop offset="0.43678" stop-color="#2C3C9D"/>
<stop offset="0.578893" stop-color="#4859C1"/>
<stop offset="0.846065" stop-color="#031061"/>
</linearGradient>
<linearGradient id="paint1_linear_20007_34106" x1="70" y1="0" x2="70" y2="88.4966" gradientUnits="userSpaceOnUse">
<stop stop-color="#FFF0D2"/>
<stop offset="0.195" stop-color="#FFF5E2"/>
<stop offset="1" stop-color="#FFE4AF"/>
</linearGradient>
<linearGradient id="paint2_linear_20007_34106" x1="110.291" y1="9.96436" x2="110.291" y2="31.9113" gradientUnits="userSpaceOnUse">
<stop stop-color="#FFD3BC"/>
<stop offset="1" stop-color="#FFA06D"/>
</linearGradient>
<linearGradient id="paint3_linear_20007_34106" x1="65.788" y1="4.5769" x2="65.788" y2="22.4934" gradientUnits="userSpaceOnUse">
<stop stop-color="#FFD3BC"/>
<stop offset="1" stop-color="#FFA06D"/>
</linearGradient>
<linearGradient id="paint4_linear_20007_34106" x1="43.6749" y1="46.8052" x2="43.6749" y2="74.8914" gradientUnits="userSpaceOnUse">
<stop stop-color="#F7A260"/>
<stop offset="1" stop-color="#EB7314"/>
</linearGradient>
<linearGradient id="paint5_linear_20007_34106" x1="28.2417" y1="38.3496" x2="28.2417" y2="63.0117" gradientUnits="userSpaceOnUse">
<stop stop-color="#F7A260"/>
<stop offset="1" stop-color="#EB7314"/>
</linearGradient>
<linearGradient id="paint6_linear_20007_34106" x1="78.4538" y1="63.238" x2="78.4538" y2="75.2059" gradientUnits="userSpaceOnUse">
<stop stop-color="#FFD3BC"/>
<stop offset="1" stop-color="#FFA06D"/>
</linearGradient>
<linearGradient id="paint7_linear_20007_34106" x1="96.2716" y1="40.7034" x2="96.2716" y2="52.9534" gradientUnits="userSpaceOnUse">
<stop stop-color="#FFD3BC"/>
<stop offset="1" stop-color="#FFA06D"/>
</linearGradient>
<linearGradient id="paint8_linear_20007_34106" x1="66.0762" y1="10.0171" x2="66.0762" y2="30.6179" gradientUnits="userSpaceOnUse">
<stop stop-color="#E45B46"/>
<stop offset="1" stop-color="#D62E15"/>
</linearGradient>
<linearGradient id="paint9_linear_20007_34106" x1="20.6474" y1="18.7124" x2="20.6474" y2="42.5565" gradientUnits="userSpaceOnUse">
<stop stop-color="#F7A260"/>
<stop offset="1" stop-color="#EB7314"/>
</linearGradient>
<linearGradient id="paint10_linear_20007_34106" x1="77.8056" y1="69.3684" x2="77.8056" y2="82.3159" gradientUnits="userSpaceOnUse">
<stop stop-color="#F7A260"/>
<stop offset="1" stop-color="#EB7314"/>
</linearGradient>
<linearGradient id="paint11_linear_20007_34106" x1="111.417" y1="24.0093" x2="111.417" y2="37.7559" gradientUnits="userSpaceOnUse">
<stop stop-color="#E45B46"/>
<stop offset="1" stop-color="#D62E15"/>
</linearGradient>
<linearGradient id="paint12_linear_20007_34106" x1="65.4534" y1="27.8818" x2="65.4534" y2="48.5095" gradientUnits="userSpaceOnUse">
<stop stop-color="#5EB762"/>
<stop offset="0.33" stop-color="#57C95C"/>
<stop offset="1" stop-color="#1A990F"/>
</linearGradient>
<linearGradient id="paint13_linear_20007_34106" x1="95.1961" y1="46.7495" x2="95.1961" y2="58.4195" gradientUnits="userSpaceOnUse">
<stop stop-color="#F7A260"/>
<stop offset="1" stop-color="#EB7314"/>
</linearGradient>
<linearGradient id="paint14_linear_20007_34106" x1="22.3462" y1="21.1418" x2="22.3462" y2="48.1639" gradientUnits="userSpaceOnUse">
<stop stop-color="#E45B46"/>
<stop offset="1" stop-color="#D62E15"/>
</linearGradient>
<linearGradient id="paint15_linear_20007_34106" x1="47.9405" y1="25.5615" x2="47.9405" y2="44.2965" gradientUnits="userSpaceOnUse">
<stop stop-color="#5EB762"/>
<stop offset="0.33" stop-color="#57C95C"/>
<stop offset="1" stop-color="#1A990F"/>
</linearGradient>
<linearGradient id="paint16_linear_20007_34106" x1="127.296" y1="40.4043" x2="127.296" y2="54.5364" gradientUnits="userSpaceOnUse">
<stop stop-color="#DD2728"/>
<stop offset="1" stop-color="#BE0608"/>
</linearGradient>
<linearGradient id="paint17_linear_20007_34106" x1="102.649" y1="64.082" x2="102.649" y2="73.8858" gradientUnits="userSpaceOnUse">
<stop stop-color="#FAD18A"/>
<stop offset="1" stop-color="#EBB14C"/>
</linearGradient>
<linearGradient id="paint18_linear_20007_34106" x1="116.914" y1="57.8193" x2="116.914" y2="68.6942" gradientUnits="userSpaceOnUse">
<stop stop-color="#DD2728"/>
<stop offset="1" stop-color="#BE0608"/>
</linearGradient>
<linearGradient id="paint19_linear_20007_34106" x1="72.1079" y1="49.9146" x2="72.1079" y2="58.081" gradientUnits="userSpaceOnUse">
<stop stop-color="#FFE1AE"/>
<stop offset="1" stop-color="#FBCA76"/>
</linearGradient>
<linearGradient id="paint20_linear_20007_34106" x1="14.6745" y1="21.447" x2="14.6745" y2="32.1115" gradientUnits="userSpaceOnUse">
<stop stop-color="#FFEFBA"/>
<stop offset="1" stop-color="#FFDE70"/>
</linearGradient>
<linearGradient id="paint21_linear_20007_34106" x1="122.372" y1="59.9917" x2="122.372" y2="71.2463" gradientUnits="userSpaceOnUse">
<stop stop-color="#E45B46"/>
<stop offset="1" stop-color="#D62E15"/>
</linearGradient>
<linearGradient id="paint22_linear_20007_34106" x1="41.4282" y1="57.7029" x2="41.4282" y2="64.2684" gradientUnits="userSpaceOnUse">
<stop stop-color="#FFEFBA"/>
<stop offset="1" stop-color="#FFDE70"/>
</linearGradient>
<linearGradient id="paint23_linear_20007_34106" x1="95.4349" y1="57.7097" x2="95.4349" y2="60.0094" gradientUnits="userSpaceOnUse">
<stop stop-color="#ECA675"/>
<stop offset="1" stop-color="#DC8447"/>
</linearGradient>
<linearGradient id="paint24_linear_20007_34106" x1="70.5447" y1="3.57886" x2="70.5447" y2="5.79757" gradientUnits="userSpaceOnUse">
<stop stop-color="#5EB762"/>
<stop offset="0.33" stop-color="#57C95C"/>
<stop offset="1" stop-color="#1A990F"/>
</linearGradient>
<linearGradient id="paint25_linear_20007_34106" x1="19.7401" y1="62.1704" x2="19.7401" y2="66.3807" gradientUnits="userSpaceOnUse">
<stop stop-color="#E45B46"/>
<stop offset="1" stop-color="#D62E15"/>
</linearGradient>
<linearGradient id="paint26_linear_20007_34106" x1="25.9533" y1="18.9121" x2="25.9533" y2="26.8373" gradientUnits="userSpaceOnUse">
<stop stop-color="#E45B46"/>
<stop offset="1" stop-color="#D62E15"/>
</linearGradient>
<linearGradient id="paint27_linear_20007_34106" x1="119.656" y1="54.5049" x2="119.656" y2="59.1353" gradientUnits="userSpaceOnUse">
<stop stop-color="#E45B46"/>
<stop offset="1" stop-color="#D62E15"/>
</linearGradient>
<linearGradient id="paint28_linear_20007_34106" x1="133.269" y1="40.6995" x2="133.269" y2="50.0498" gradientUnits="userSpaceOnUse">
<stop stop-color="#E45B46"/>
<stop offset="1" stop-color="#D62E15"/>
</linearGradient>
<linearGradient id="paint29_linear_20007_34106" x1="48.0758" y1="50.4424" x2="48.0758" y2="57.7487" gradientUnits="userSpaceOnUse">
<stop stop-color="#FFEFBA"/>
<stop offset="1" stop-color="#FFDE70"/>
</linearGradient>
<linearGradient id="paint30_linear_20007_34106" x1="19.5357" y1="47.9814" x2="19.5357" y2="53.9657" gradientUnits="userSpaceOnUse">
<stop stop-color="#FFEFBA"/>
<stop offset="1" stop-color="#FFDE70"/>
</linearGradient>
<linearGradient id="paint31_linear_20007_34106" x1="35.599" y1="7.37842" x2="35.599" y2="13.4146" gradientUnits="userSpaceOnUse">
<stop stop-color="#5EB762"/>
<stop offset="0.33" stop-color="#57C95C"/>
<stop offset="1" stop-color="#1A990F"/>
</linearGradient>
<linearGradient id="paint32_linear_20007_34106" x1="24.2083" y1="43.6245" x2="24.2083" y2="48.3877" gradientUnits="userSpaceOnUse">
<stop stop-color="#FFEFBA"/>
<stop offset="1" stop-color="#FFDE70"/>
</linearGradient>
<linearGradient id="paint33_linear_20007_34106" x1="50.6575" y1="49.1501" x2="50.6575" y2="56.8291" gradientUnits="userSpaceOnUse">
<stop stop-color="#E45B46"/>
<stop offset="1" stop-color="#D62E15"/>
</linearGradient>
<linearGradient id="paint34_linear_20007_34106" x1="90.5319" y1="34.7988" x2="90.5319" y2="41.1678" gradientUnits="userSpaceOnUse">
<stop stop-color="#5EB762"/>
<stop offset="0.33" stop-color="#57C95C"/>
<stop offset="1" stop-color="#1A990F"/>
</linearGradient>
<linearGradient id="paint35_linear_20007_34106" x1="50.765" y1="76.2917" x2="50.765" y2="79.9792" gradientUnits="userSpaceOnUse">
<stop stop-color="#5EB762"/>
<stop offset="0.33" stop-color="#57C95C"/>
<stop offset="1" stop-color="#1A990F"/>
</linearGradient>
<linearGradient id="paint36_linear_20007_34106" x1="55.1604" y1="72.4143" x2="55.1604" y2="75.0319" gradientUnits="userSpaceOnUse">
<stop stop-color="#5EB762"/>
<stop offset="0.33" stop-color="#57C95C"/>
<stop offset="1" stop-color="#1A990F"/>
</linearGradient>
<linearGradient id="paint37_linear_20007_34106" x1="38.916" y1="60.0256" x2="38.916" y2="61.5632" gradientUnits="userSpaceOnUse">
<stop stop-color="#F7A260"/>
<stop offset="1" stop-color="#EB7314"/>
</linearGradient>
<linearGradient id="paint38_linear_20007_34106" x1="77.0249" y1="5.77222" x2="77.0249" y2="19.5084" gradientUnits="userSpaceOnUse">
<stop stop-color="#E45B46"/>
<stop offset="1" stop-color="#D62E15"/>
</linearGradient>
</defs>
</svg>
