<svg width="124" height="140" viewBox="0 0 124 140" fill="none" xmlns="http://www.w3.org/2000/svg">
<path d="M18.8991 58.9191L13.7324 47.1623L16.8596 35.2705L48.1316 27.1624L56.6974 31.8921L61.4561 46.4867L18.8991 58.9191Z" fill="#F4D9A4"/>
<path d="M61.4562 46.3513L67.5746 32.7026L76.0044 28.2432L110.54 36.4864L112.851 45.8107L107.956 59.1891L61.4562 46.3513Z" fill="#F4D9A4"/>
<path d="M18.8992 59.054L31.6799 125L63.7676 140L61.8641 75.9458L18.8992 59.054Z" fill="#F9D6A7"/>
<g style="mix-blend-mode:overlay" opacity="0.34">
<path d="M61.8641 75.9458L18.8992 59.054L22.4343 77.5675C22.9781 77.7026 23.522 77.8377 23.9299 78.2431C30.7281 82.9729 40.6536 82.5675 48.1316 85.6756C48.6755 85.6756 49.3553 85.6756 49.8992 85.9459C59.8246 89.1891 60.9123 103.784 61.5922 112.297C62.136 119.459 62.272 126.622 62.136 133.784C62.272 135.676 62.408 137.567 62.408 139.459L63.6316 140L61.8641 75.9458Z" fill="#E8B989"/>
</g>
<path d="M107.956 59.3242L61.864 75.9458L63.7675 140L99.1184 122.838L107.956 59.3242Z" fill="#D8A26C"/>
<g style="mix-blend-mode:overlay" opacity="0.34">
<path d="M65.3991 131.351C65.671 121.757 65.1272 112.027 65.671 102.297C66.0789 94.1892 67.0307 86.8919 76.5482 85.2703C81.171 84.4595 84.1623 85.8108 90.5526 82.027C95.1754 79.3243 100.342 77.5676 105.645 76.0811L107.956 59.1892L61.864 75.6757L63.7675 139.73L65.2631 139.054C65.1272 136.216 65.3991 133.108 65.3991 131.351Z" fill="#C48E62"/>
</g>
<mask id="mask0_20002_25767" style="mask-type:luminance" maskUnits="userSpaceOnUse" x="18" y="46" width="90" height="32">
<path d="M18.8992 58.9189L61.5921 77.9729L107.956 59.1892L61.5921 46.3513L18.8992 58.9189Z" fill="white"/>
</mask>
<g mask="url(#mask0_20002_25767)">
<path d="M18.8992 58.9189L61.5921 77.9729L107.956 59.1892L61.5921 46.3513L18.8992 58.9189Z" fill="#C9985D"/>
</g>
<mask id="mask1_20002_25767" style="mask-type:luminance" maskUnits="userSpaceOnUse" x="18" y="46" width="90" height="32">
<path d="M18.8992 58.9189L61.5921 77.9729L107.956 59.1892L61.5921 46.3513L18.8992 58.9189Z" fill="white"/>
</mask>
<g mask="url(#mask1_20002_25767)">
<path d="M90.1448 56.6218C87.1536 55.5407 83.2106 54.3245 80.0834 53.9191C76.4124 53.3785 72.8773 56.3515 69.3422 55.9461C67.5747 55.6758 66.079 54.3245 64.4475 53.6488C62.408 52.838 60.0966 52.838 58.0571 52.5677C54.1141 52.0272 50.579 52.5677 46.772 53.9191C43.2369 55.1353 40.6536 57.7029 37.3904 59.3245C35.7589 60.1353 35.7588 61.3515 34.3992 62.4326C32.7676 63.784 30.4562 63.6488 28.4167 64.3245C28.4167 64.3245 28.5527 64.3245 28.5527 64.4596C30.5922 65.6758 35.351 66.7569 38.0703 68.5137C42.4211 71.3515 45.9562 72.838 51.1229 73.9191C57.9211 75.4056 64.3115 77.7029 71.2457 78.784C74.7808 79.3245 75.7325 80.0002 78.5878 77.7029C81.4431 75.4056 84.2983 72.838 87.9694 71.6218C91.7764 70.2704 99.6624 70.2705 96.6712 64.3245C95.3115 61.2164 93.6799 57.7029 90.1448 56.6218Z" fill="#CC7E17"/>
</g>
<mask id="mask2_20002_25767" style="mask-type:luminance" maskUnits="userSpaceOnUse" x="18" y="46" width="90" height="32">
<path d="M18.8992 58.9189L61.5921 77.9729L107.956 59.1892L61.5921 46.3513L18.8992 58.9189Z" fill="white"/>
</mask>
<g mask="url(#mask2_20002_25767)">
<path d="M28.2807 64.3246C28.4166 64.3246 28.4166 64.3246 28.2807 64.3246C27.3289 63.6489 28.2807 64.1895 28.2807 64.3246Z" fill="#CC7E17"/>
</g>
<mask id="mask3_20002_25767" style="mask-type:luminance" maskUnits="userSpaceOnUse" x="18" y="46" width="90" height="32">
<path d="M18.8992 58.9189L61.5921 77.9729L107.956 59.1892L61.5921 46.3513L18.8992 58.9189Z" fill="white"/>
</mask>
<g mask="url(#mask3_20002_25767)">
<path d="M87.6974 54.7296C82.8026 52.4323 73.0131 49.3242 66.2149 57.9728C65.807 58.7837 65.671 59.4593 66.0789 60.2702C66.3509 60.2702 66.7588 60.4053 67.1666 60.5404C70.5658 54.5945 80.4912 54.1891 86.6096 56.6215C92.5921 59.0539 98.9824 64.8647 97.7588 72.0269C101.974 74.4593 98.9825 64.7296 98.0307 63.2431C95.5833 59.5945 91.6403 56.4864 87.6974 54.7296Z" fill="#F7B54B"/>
<path d="M65.9429 58.1082L66.0788 57.973C66.0788 57.973 66.0788 57.8379 66.2148 57.8379L65.9429 58.1082Z" fill="#F7B54B"/>
<path d="M97.8946 65.8106C97.0788 64.189 96.263 62.5674 95.0394 61.3512C93.6797 59.9998 92.1841 58.9187 90.8244 57.7025C90.4165 57.5674 89.8727 57.4322 89.4648 57.162C81.3069 52.0268 72.0613 53.5133 65.9429 59.8647C65.9429 59.9998 65.9429 60.135 66.0788 60.2701C66.3508 60.2701 66.7587 60.4052 67.1665 60.5404C70.5657 54.5944 80.4911 54.189 86.6095 56.6214C92.592 59.0539 98.9823 64.8647 97.7587 72.0268C98.1665 72.2971 98.4385 72.4322 98.7104 72.4322C98.7104 71.8917 98.8464 71.3512 98.9823 70.8106C98.9823 70.6755 99.1183 70.5404 99.1183 70.4052C99.1183 70.4052 99.1183 70.4052 99.1183 70.2701C98.4385 68.7836 98.4385 67.2971 97.8946 65.8106Z" fill="#E28F20"/>
</g>
<mask id="mask4_20002_25767" style="mask-type:luminance" maskUnits="userSpaceOnUse" x="18" y="46" width="90" height="32">
<path d="M18.8992 58.9189L61.5921 77.9729L107.956 59.1892L61.5921 46.3513L18.8992 58.9189Z" fill="white"/>
</mask>
<g mask="url(#mask4_20002_25767)">
<path d="M87.6973 57.7029C85.9298 55.811 82.8026 52.2975 80.2192 54.0543C77.9078 55.5408 78.1798 60.1353 78.3157 62.0272C78.3157 62.7029 78.4517 63.3786 78.4517 64.0543C78.5876 65.5407 78.7236 67.0272 78.9956 68.5137C79.4035 69.8651 79.8114 71.4867 79.6754 72.7029C79.8114 73.1083 79.8113 73.6489 79.9473 74.0543C80.0833 75.0002 80.3552 75.9462 80.4912 76.8921C81.171 77.1624 81.8508 77.4326 82.6666 77.7029C82.2587 76.3516 81.9868 75.0002 81.7149 73.6489C81.5789 72.9732 81.4429 72.2975 81.307 71.6218C80.7631 69.0543 80.4912 66.3516 80.2192 63.784C80.2192 63.1083 80.0833 62.4326 80.0833 61.757C79.8113 59.1894 80.0833 56.2164 81.171 55.5408C82.2587 54.8651 84.2982 56.8921 85.6578 58.2435C85.9298 58.5137 86.2017 58.784 86.3377 58.9191C86.4736 59.0543 86.6096 59.3245 86.7455 59.4597C91.7763 64.7299 97.3508 72.5678 95.5833 79.4597C95.3113 80.4056 94.7675 81.6218 93.9517 82.2975C94.4956 82.5678 95.1754 82.8381 95.7192 83.1083C96.535 82.1624 97.0789 80.9462 97.3508 80.0002C99.3903 72.2975 93.4078 63.9191 88.1052 58.2435C87.9692 57.9732 87.8333 57.838 87.6973 57.7029Z" fill="#FCBE59"/>
<path d="M84.4342 56.0814C81.8509 54.1895 80.7631 55.0004 80.4912 56.8923C80.4912 56.8923 80.4912 56.8922 80.4912 57.0274C80.6272 56.3517 80.8991 55.8112 81.307 55.5409C82.3947 54.8652 84.4342 56.8923 85.7939 58.2436C86.0658 58.5139 86.3377 58.7841 86.4737 58.9193C86.6097 59.0544 86.7456 59.3247 86.8816 59.4598C91.9123 64.7301 97.4868 72.5679 95.7193 79.4598C95.4474 80.4058 94.9035 81.622 94.0877 82.2976C94.4956 82.4328 94.9035 82.7031 95.4474 82.8382C95.5833 82.7031 95.5833 82.4328 95.7193 82.2976C99.2544 76.0814 95.7193 68.5139 91.7763 63.5139C89.4649 60.8112 87.1535 58.1085 84.4342 56.0814Z" fill="#F2AB44"/>
<path d="M82.1227 53.6489C81.4429 53.5138 80.7631 53.6489 80.2192 54.0543C77.9078 55.5408 78.1798 60.1354 78.3157 62.0273C78.3157 62.703 78.4517 63.3787 78.4517 64.0543C78.5876 65.1354 78.7236 66.3516 78.8596 67.5678C78.9956 67.8381 78.9956 68.2435 78.9956 68.6489C79.4035 70.0003 79.6754 71.6219 79.6754 72.5678C79.8114 72.9732 79.8113 73.5138 79.9473 73.9192C80.0833 74.8651 80.3552 75.8111 80.4912 76.757C80.7631 76.8922 81.035 77.0273 81.307 77.0273C80.3552 72.8381 79.5394 68.5138 79.1315 64.3246C78.8596 60.676 78.8596 55.9462 82.1227 53.6489Z" fill="#F2AB44"/>
</g>
<mask id="mask5_20002_25767" style="mask-type:luminance" maskUnits="userSpaceOnUse" x="18" y="46" width="90" height="32">
<path d="M18.8992 58.9189L61.5921 77.9729L107.956 59.1892L61.5921 46.3513L18.8992 58.9189Z" fill="white"/>
</mask>
<g mask="url(#mask5_20002_25767)">
<path d="M85.7939 64.865C84.0264 62.9731 80.8992 59.4596 78.3158 61.2164C76.0044 62.7029 76.2763 67.2975 76.4123 69.1893C76.4123 69.865 76.5483 70.5407 76.5483 71.2164C76.6842 72.7029 76.8202 74.1893 77.0921 75.6758C77.5 77.0272 77.9079 78.6488 77.7719 79.865C77.9079 80.2704 77.9079 80.811 78.0439 81.2164C78.1799 82.1623 78.4518 83.1083 78.5877 84.0542C79.2676 84.3245 79.9474 84.5948 80.7632 84.865C80.3553 83.5137 80.0833 82.1623 79.8114 80.811C79.6755 80.1353 79.5395 79.4596 79.4035 78.7839C78.8597 76.2164 78.5878 73.5137 78.3158 70.9461C78.3158 70.2704 78.1799 69.5948 78.1799 68.9191C77.9079 66.3515 78.1798 63.3785 79.2676 62.7029C80.3553 62.0272 82.3948 64.0542 83.7544 65.4056C84.0264 65.6758 84.2983 65.9461 84.4343 66.0812C84.5702 66.2164 84.7062 66.4866 84.8421 66.6218C89.8728 71.8921 95.4474 79.7299 93.6799 86.6218C93.4079 87.5677 92.8641 88.7839 92.0483 89.4596C92.5921 89.7299 93.272 90.0002 93.8158 90.2704C94.6316 89.3245 95.1755 88.1083 95.4474 87.1623C97.4869 79.4596 91.5044 71.0812 86.2018 65.4056C86.2018 65.2704 86.0658 65.0002 85.7939 64.865Z" fill="#FCBE59"/>
<path d="M82.5307 63.3786C79.9474 61.4867 78.8597 62.2975 78.5878 64.1894C78.5878 64.1894 78.5878 64.1894 78.5878 64.3245C78.7237 63.6488 78.9957 63.1083 79.4036 62.838C80.4913 62.1623 82.5307 64.1894 83.8904 65.5407C84.1623 65.811 84.4343 66.0813 84.5702 66.2164C84.7062 66.3515 84.8422 66.6218 84.9781 66.7569C90.0088 72.0272 95.5834 79.865 93.8159 86.7569C93.5439 87.7029 93.0001 88.9191 92.1843 89.5948C92.5922 89.7299 93.0001 90.0002 93.5439 90.1353C93.6799 90.0002 93.6799 89.7299 93.8159 89.5948C97.3509 83.3786 93.8159 75.811 89.8729 70.811C87.6974 67.9731 85.25 65.2704 82.5307 63.3786Z" fill="#F2AB44"/>
<path d="M80.3553 60.8109C79.6755 60.6758 78.9957 60.8109 78.4518 61.2163C76.1404 62.7028 76.4123 67.2974 76.5483 69.1893C76.5483 69.865 76.6843 70.5407 76.6843 71.2163C76.8202 72.2974 76.9562 73.5136 77.0921 74.7299C77.2281 75.0001 77.2281 75.4055 77.2281 75.8109C77.636 77.1623 77.9079 78.7839 77.9079 79.865C78.0439 80.2704 78.0439 80.8109 78.1799 81.2163C78.3159 82.1623 78.5878 83.1082 78.7237 84.0542C78.9957 84.1893 79.2676 84.3244 79.5395 84.3244C78.5878 80.1352 77.772 75.8109 77.3641 71.6217C76.9562 67.9731 76.9562 63.2434 80.3553 60.8109Z" fill="#F2AB44"/>
</g>
<mask id="mask6_20002_25767" style="mask-type:luminance" maskUnits="userSpaceOnUse" x="18" y="46" width="90" height="32">
<path d="M18.8992 58.9189L61.5921 77.9729L107.956 59.1892L61.5921 46.3513L18.8992 58.9189Z" fill="white"/>
</mask>
<g mask="url(#mask6_20002_25767)">
<path d="M63.2237 52.9732C59.4167 51.0813 54.386 50.5407 50.0351 50.9462C44.5965 51.4867 34.6711 53.9191 33.3114 64.8651C33.3114 65.6759 33.7193 66.3516 34.3991 66.8921C34.671 66.757 35.0789 66.6218 35.3509 66.4867C35.0789 59.5948 43.3728 54.0543 49.8991 53.1083C56.2895 52.1624 64.8553 53.784 67.4386 60.4056C72.4693 60.5407 64.8553 53.784 63.2237 52.9732Z" fill="#F4A640"/>
<path d="M67.9825 58.5136C66.7588 57.4325 65.807 56.2163 64.7193 55.2703C63.2237 54.3244 61.5921 53.3784 59.9605 52.973C58.057 52.5676 56.2895 52.2974 54.386 52.0271C53.9781 52.1622 53.4342 52.2974 52.8904 52.2974C43.2369 52.1622 36.1667 58.1082 34.2632 66.7568C34.3991 66.892 34.3991 66.892 34.5351 67.0271C34.807 66.892 35.2149 66.7568 35.4869 66.6217C35.2149 59.7298 43.5088 54.1893 50.0351 53.2433C56.4255 52.2974 64.9912 53.919 67.5746 60.5406C67.9825 60.5406 68.3904 60.4055 68.6623 60.4055C68.3904 60.0001 68.2544 59.4595 68.1185 58.919C67.9825 58.7839 67.9825 58.6487 67.9825 58.5136Z" fill="#DF901E"/>
</g>
<mask id="mask7_20002_25767" style="mask-type:luminance" maskUnits="userSpaceOnUse" x="18" y="46" width="90" height="32">
<path d="M18.8992 58.9189L61.5921 77.9729L107.956 59.1892L61.5921 46.3513L18.8992 58.9189Z" fill="white"/>
</mask>
<g mask="url(#mask7_20002_25767)">
<path d="M43.6448 60.4053L43.7807 60.2702C43.7807 60.2702 43.7807 60.135 43.9167 60.135L43.6448 60.4053Z" fill="#E89F28"/>
<path d="M65.2632 57.027C60.3684 54.7297 50.5789 51.6216 43.7807 60.2702C43.3728 61.081 43.2368 61.7567 43.6447 62.5675C44.0526 62.5675 44.3245 62.7026 44.7324 62.8378C48.1316 56.8918 58.057 56.4864 64.1754 58.9189C70.1579 61.3513 76.5482 67.1621 75.3246 74.3243C79.5395 76.7567 76.5483 67.027 75.5965 65.5405C73.2851 62.027 69.2061 58.9189 65.2632 57.027Z" fill="#E89F28"/>
<path d="M75.5966 68.243C74.7808 66.6214 73.965 64.9997 72.7413 63.7835C71.3816 62.4322 69.886 61.3511 68.5264 60.1349C68.1185 59.9997 67.5746 59.8646 67.1667 59.5943C59.0088 54.4592 49.7632 55.9457 43.6448 62.2971C43.6448 62.4322 43.6448 62.5673 43.7807 62.7024C44.1886 62.7024 44.4606 62.8376 44.8685 62.9727C48.2676 57.0268 58.193 56.6214 64.3114 59.0538C70.2939 61.4862 76.6843 67.2971 75.4606 74.4592C75.8685 74.7295 76.1404 74.8646 76.4123 74.8646C76.4123 74.3241 76.5483 73.7835 76.6843 73.243C76.6843 73.1078 76.6843 72.9727 76.8202 72.8376C76.8202 72.8376 76.8202 72.8376 76.8202 72.7025C76.1404 71.216 76.0045 69.5943 75.5966 68.243Z" fill="#DF901E"/>
</g>
<mask id="mask8_20002_25767" style="mask-type:luminance" maskUnits="userSpaceOnUse" x="18" y="46" width="90" height="32">
<path d="M18.8992 58.9189L61.5921 77.9729L107.956 59.1892L61.5921 46.3513L18.8992 58.9189Z" fill="white"/>
</mask>
<g mask="url(#mask8_20002_25767)">
<path d="M49.6273 62.8378C44.7326 60.5405 34.9431 57.4323 28.1448 66.081C27.7369 66.8918 27.601 67.5675 28.0089 68.3783C28.2808 68.3783 28.6887 68.5134 29.0966 68.6486C32.4957 62.7026 42.4211 62.2972 48.5396 64.7296C54.522 67.1621 60.9124 72.9729 59.6887 80.1351C63.9036 82.5675 60.9124 72.8378 59.9606 71.3513C57.5132 67.7026 53.5703 64.5945 49.6273 62.8378Z" fill="#F7B54B"/>
<path d="M28.0089 66.0811L28.1449 65.9459C28.1449 65.9459 28.1449 65.8108 28.2808 65.8108L28.0089 66.0811Z" fill="#F7B54B"/>
<path d="M59.8247 73.9188C59.0089 72.2971 58.1931 70.6755 56.9694 69.4593C55.6098 68.108 54.1141 67.0269 52.7545 65.8107C52.3466 65.6755 51.8027 65.5404 51.3948 65.2701C43.2369 60.135 33.9913 61.6215 27.8729 67.9728C27.8729 68.108 28.0089 68.2431 28.0089 68.3782C28.2808 68.3782 28.6887 68.5134 29.0966 68.6485C32.4957 62.7026 42.4212 62.2971 48.5396 64.7296C54.522 67.162 60.9124 72.9728 59.6887 80.135C60.0966 80.4053 60.3685 80.5404 60.6405 80.5404C60.6405 79.9999 60.7764 79.4593 60.9124 78.9188C60.9124 78.7836 60.9124 78.6485 61.0484 78.5134C61.0484 78.5134 61.0484 78.5134 61.0484 78.3782C60.5045 76.8917 60.3685 75.2701 59.8247 73.9188Z" fill="#E28F20"/>
</g>
<mask id="mask9_20002_25767" style="mask-type:luminance" maskUnits="userSpaceOnUse" x="18" y="46" width="90" height="32">
<path d="M18.8992 58.9189L61.5921 77.9729L107.956 59.1892L61.5921 46.3513L18.8992 58.9189Z" fill="white"/>
</mask>
<g mask="url(#mask9_20002_25767)">
<path d="M67.4386 60.135C65.3991 60.135 64.4473 60.9458 64.0394 61.6215C63.6315 62.2972 63.2236 63.6485 64.3114 65.6756C65.807 68.6485 67.8465 70.2701 71.1096 71.3512C72.0614 71.6215 72.8772 71.8918 73.8289 72.0269C74.9166 71.4864 76.1403 71.081 77.228 70.6756C77.0921 70.6756 76.8201 70.5404 76.6842 70.5404C76.2763 70.5404 76.0044 70.4053 75.5965 70.4053C74.2368 70.2702 73.0131 70.135 71.7894 69.7296C68.9342 68.7837 67.4386 67.4323 66.0789 64.8647C65.5351 63.9188 65.3991 62.9729 65.671 62.5674C65.9429 62.162 66.4868 61.8918 67.4386 61.8918C67.5745 61.8918 67.7105 61.8918 67.7105 61.8918C71.1096 62.0269 74.1009 64.8647 76.8202 67.8377C77.5 68.6485 78.0438 69.3242 78.5877 69.9999C79.1315 69.7296 79.8114 69.5945 80.3553 69.3242C79.6754 68.2431 78.9956 67.4323 78.1798 66.6215C75.1886 63.3783 71.7895 60.135 67.4386 60.135Z" fill="#FCBE59"/>
<path d="M83.7545 58.2432C83.3466 58.108 83.0747 57.9729 82.6668 57.9729C81.4431 57.5675 80.2194 57.1621 78.9957 56.7567C75.1887 55.4053 71.3817 54.054 67.1668 53.5134C61.4563 52.7026 56.5615 52.5675 52.4826 53.2432L52.0747 53.3783C49.0834 53.7837 42.965 54.8648 41.1975 57.9729C40.5176 59.054 40.5177 60.2702 41.0615 61.6216C41.6054 62.9729 43.2369 63.5134 44.5966 64.054C45.2764 64.3242 45.8203 64.4594 46.2282 64.7296L46.5001 64.8648C48.4036 66.081 50.3071 67.2972 52.6185 68.3783C53.7063 68.7837 54.794 69.1891 55.8817 69.5945C57.5133 70.1351 59.1449 70.6756 60.5045 71.4864C62.544 72.5675 64.7194 74.4594 64.4475 76.081H64.8554C65.2633 75.8107 65.8071 75.6756 66.215 75.4053C66.0791 73.6486 64.7194 72.2972 63.3598 71.2161C63.6317 71.3513 63.9036 71.6216 64.1756 71.7567C64.7194 72.1621 65.2633 72.4323 65.8071 72.8378C66.6229 73.3783 67.4387 73.9189 68.2545 74.4594C68.9343 74.1891 69.6141 73.7837 70.294 73.5134C69.0703 72.8378 67.9826 72.027 66.7589 71.3513C66.215 70.9459 65.6712 70.5405 65.1273 70.2702C62.9519 68.7837 60.7764 67.1621 58.8729 65.4053C58.3291 64.9999 57.7852 64.5945 57.3773 64.1891C55.3378 62.5675 53.4343 60.2702 53.7063 59.054C53.9782 57.8378 56.8334 57.7026 58.737 57.8378C59.1449 57.8378 59.4168 57.8378 59.6887 57.8378C59.9606 57.8378 60.2326 57.8378 60.3685 57.8378C67.7106 58.108 77.2282 59.7297 80.8992 65.8107C81.4431 66.7567 81.851 67.9729 81.715 68.9188C82.3949 68.6486 82.9387 68.5134 83.6185 68.2432C83.4826 67.027 83.0747 65.8107 82.5308 64.8648C78.4519 57.9729 68.3905 56.2161 60.5045 55.9459C60.3685 55.9459 60.0966 55.9459 59.8247 55.9459C57.2413 55.8107 52.4826 55.5405 51.9387 58.6486C51.3948 61.3513 54.794 64.4594 56.2896 65.5405C56.8334 65.9459 57.3773 66.3513 57.7852 66.7567C59.2808 67.9729 60.7764 69.1891 62.272 70.2702C62.0001 69.9999 61.5922 69.8648 61.4563 69.7297C59.8247 68.7837 58.1931 68.2432 56.5615 67.7026C55.4738 67.2972 54.3861 66.8918 53.4343 66.4864C51.2589 65.5405 49.6273 64.4594 47.5878 63.108L47.3159 62.9729C46.772 62.5675 45.9562 62.2972 45.2764 62.0269C44.1887 61.6215 43.101 61.2161 42.8291 60.5405C42.5571 59.7297 42.5571 59.054 42.8291 58.5134C44.1887 56.081 50.1712 55.1351 52.4826 54.8648L53.0264 54.7297C56.9694 54.054 61.5922 54.1891 67.1668 54.9999C71.1098 55.5405 74.7808 56.8918 78.5878 58.108C79.8115 58.5134 81.0352 58.9188 82.2589 59.3242C82.6668 59.4594 82.9387 59.5945 83.3466 59.5945C84.9782 59.9999 86.7457 60.5405 87.4255 61.7567C88.1054 62.8378 88.3773 64.5945 88.6492 66.3513C89.0571 66.2161 89.3291 66.081 89.737 65.9459C90.0089 65.8107 90.2808 65.8107 90.4168 65.8107C90.1449 64.054 89.737 62.1621 88.9212 60.8107C87.8335 59.4594 85.5221 58.7837 83.7545 58.2432Z" fill="#FCBE59"/>
<path d="M57.9211 69.7298C54.2501 68.1082 47.8597 65.1352 44.3246 63.2433C41.3334 61.6217 41.6053 61.2163 41.1974 57.8379C41.1974 57.8379 41.1975 57.973 41.0615 57.973C40.3817 59.0541 40.3817 60.2703 40.9255 61.6217C41.4694 62.973 43.101 63.5136 44.4606 64.0541C45.1404 64.3244 45.6843 64.4595 46.0922 64.7298L46.3641 64.8649C48.2676 66.0811 50.1711 67.2974 52.4825 68.3784C53.5703 68.7838 54.658 69.1892 55.7457 69.5946C57.3773 70.1352 59.0089 70.6757 60.3685 71.4865C62.408 72.5676 64.5834 74.4595 64.3115 76.0811H64.7194C64.9913 75.946 65.1273 75.8109 65.3992 75.6757C64.1755 71.8919 61.4562 71.2163 57.9211 69.7298Z" fill="#F2AB44"/>
<path d="M66.6229 57.4325C63.2238 57.0271 59.6887 56.7568 56.2895 57.2973C53.1623 57.8379 53.0264 59.0541 53.9781 60.6757C53.7062 60.1352 53.4343 59.4595 53.5702 59.0541C53.8422 57.8379 56.6974 57.7027 58.6009 57.8379C59.0088 57.8379 59.2808 57.8379 59.5527 57.8379C59.8246 57.8379 60.0965 57.8379 60.2325 57.8379C67.5746 58.1082 77.0922 59.7298 80.7632 65.8108C81.3071 66.7568 81.715 67.973 81.579 68.919C81.9869 68.7838 82.5308 68.6487 82.9387 68.3784C82.8027 68.2433 82.8027 67.973 82.8027 67.8379C80.8992 61.0811 73.1492 58.2433 66.6229 57.4325Z" fill="#F2AB44"/>
<path d="M69.0702 61.4865C67.3027 60.9459 64.9913 61.7567 65.3992 63.1081C65.3992 62.8378 65.3992 62.7027 65.5351 62.5675C65.8071 62.1621 66.3509 61.8919 67.3027 61.8919C67.4387 61.8919 67.5746 61.8919 67.5746 61.8919C70.9737 62.027 73.965 64.8648 76.6843 67.8378C77.3641 68.6486 77.9079 69.3243 78.4518 70C78.5878 69.8648 78.8597 69.8648 78.9957 69.7297C76.2764 65.9459 74.3729 62.9729 69.0702 61.4865Z" fill="#F2AB44"/>
<path d="M64.0396 61.7566C63.6317 62.5674 63.2238 63.7836 64.3115 65.8106C65.8071 68.7836 67.8466 70.4052 71.1097 71.4863C72.0615 71.7566 72.8773 72.0269 73.829 72.162C73.965 72.162 73.965 72.0269 74.101 72.0269C68.6624 70.2701 63.9036 66.7566 64.0396 61.7566Z" fill="#F2AB44"/>
<path d="M53.0264 57.0269C52.4826 57.4323 52.0747 57.9728 51.9387 58.6485C51.3949 61.3512 54.794 64.4593 56.2896 65.5404C56.8334 65.9458 57.3773 66.3512 57.7852 66.7566C58.737 67.4323 59.5528 68.2431 60.5045 68.9188C60.9124 69.0539 61.3203 69.4593 61.5922 69.8647C61.8641 69.9998 62.0001 70.135 62.272 70.4052C62.1361 70.2701 62.0001 70.2701 61.8642 70.135C62.6799 71.216 63.9036 71.7566 64.8554 72.5674C64.4475 72.0269 63.9036 71.6214 63.4957 71.216C63.7677 71.3512 64.0396 71.6215 64.3115 71.7566C64.8554 72.162 65.3992 72.4323 65.9431 72.8377C66.7589 73.3782 67.5747 73.9188 68.3905 74.4593C68.6624 74.3242 68.9343 74.189 69.2063 74.0539C65.5352 71.7566 62.0001 69.189 58.601 66.4863C55.6098 64.4593 52.2106 61.0809 53.0264 57.0269Z" fill="#F2AB44"/>
<path d="M83.0747 59.1893C78.7238 57.7028 74.5089 55.8109 70.1581 54.7298C62.408 52.7028 52.8905 52.7028 45.4124 56.0811C45.0045 56.2163 44.7326 56.4865 44.3247 56.6217C44.1887 56.7568 43.9168 56.7568 43.7808 56.892C43.101 57.5676 42.8291 58.2433 42.6931 59.0541V58.919C44.0528 56.4866 50.0352 55.5406 52.3466 55.2703L52.8905 55.1352C56.8335 54.4595 61.4563 54.5947 67.0308 55.4055C70.9738 55.946 74.6449 57.2974 78.4519 58.5136C79.6756 58.919 80.8993 59.3244 82.1229 59.7298C82.5308 59.8649 82.8028 60.0001 83.2107 60.0001C84.8422 60.4055 86.6098 60.946 87.2896 62.1622C87.9694 63.2433 88.2414 65.0001 88.5133 66.7568C88.7852 66.6217 89.1931 66.4865 89.465 66.4865C89.3291 65.1352 88.9212 63.7839 88.3773 62.5676C87.4256 60.4055 85.2502 60.0001 83.0747 59.1893Z" fill="#F2AB44"/>
</g>
<mask id="mask10_20002_25767" style="mask-type:luminance" maskUnits="userSpaceOnUse" x="18" y="46" width="90" height="32">
<path d="M18.8992 58.9189L61.5921 77.9729L107.956 59.1892L61.5921 46.3513L18.8992 58.9189Z" fill="white"/>
</mask>
<g mask="url(#mask10_20002_25767)">
<path d="M73.5572 63.7839C71.6537 64.3244 70.9738 65.4055 70.7019 66.0812C70.43 66.892 70.5659 68.2433 72.0616 70.0001C74.373 72.4325 76.6844 73.5136 80.0835 73.7839C81.0352 73.7839 81.987 73.7839 82.9388 73.6487C83.8905 72.8379 84.8422 72.1623 85.93 71.3514C85.794 71.3514 85.5221 71.3514 85.3861 71.3514C84.9782 71.3514 84.7063 71.4866 84.2984 71.4866C82.9388 71.6217 81.7151 71.892 80.3554 71.7569C77.3642 71.6217 75.4607 70.6758 73.5572 68.5136C72.7414 67.7028 72.4694 66.892 72.6054 66.3515C72.7414 65.946 73.2853 65.5406 74.237 65.2704C74.373 65.2704 74.5089 65.2704 74.5089 65.1352C77.908 64.3244 81.4431 66.3514 84.9782 68.5136C85.794 69.0541 86.6098 69.5947 87.2896 70.1352C87.8335 69.7298 88.2414 69.3244 88.7852 69.0542C87.8335 68.2433 86.8817 67.5677 86.0659 67.0271C81.851 64.7298 77.7721 62.5677 73.5572 63.7839Z" fill="#FCBE59"/>
<path d="M94.4957 59.1892C93.0001 57.7027 90.6887 57.7027 88.7852 57.7027C88.3773 57.7027 87.9694 57.7027 87.6975 57.7027C86.3378 57.7027 85.1141 57.5676 83.8904 57.4324C79.9474 57.1622 75.8685 56.8919 71.6536 57.2973C65.9431 57.973 61.1843 59.1892 57.3773 60.946L56.9694 61.0811C54.2501 62.2973 48.5396 64.8649 47.5878 68.3784C47.3159 69.5946 47.5878 70.8108 48.4036 72.027C49.3553 73.2433 50.9869 73.3784 52.4825 73.5135C53.1624 73.5135 53.8422 73.6487 54.2501 73.7838L54.522 73.9189C56.6975 74.5946 58.8729 75.2703 61.3203 75.6757C62.408 75.8108 63.6317 75.946 64.7194 76.0811C66.351 76.2162 68.1185 76.3514 69.7501 76.7568C71.9255 77.2973 74.6448 78.5135 74.7808 80.1352H75.1887C75.5966 79.7297 76.0045 79.4595 76.4124 79.1892C75.8685 77.5676 74.101 76.4865 72.6054 75.8108C72.8773 75.946 73.1492 75.946 73.4212 76.0811C73.965 76.2162 74.6448 76.4865 75.3247 76.7568C76.2764 77.027 77.2282 77.4324 78.1799 77.7027C78.7238 77.1622 79.2676 76.7568 79.9475 76.2162C78.5878 75.946 77.3641 75.4054 76.0045 75C75.3247 74.7297 74.7808 74.5946 74.101 74.3243C71.6536 73.5135 69.0703 72.4325 66.7589 71.3514C66.215 71.0811 65.5352 70.8108 64.9913 70.5406C62.6799 69.4595 60.2326 67.8379 60.0966 66.4865C59.9606 65.2703 62.8159 64.4595 64.5834 64.0541C64.9913 63.9189 65.2633 63.9189 65.5352 63.7838C65.8071 63.7838 65.9431 63.6487 66.215 63.6487C73.4211 62.0271 82.9387 61.0811 88.1053 66.0811C88.7852 66.7568 89.601 67.8379 89.7369 68.9189C90.2808 68.5135 90.8246 68.1081 91.3685 67.8379C90.9606 66.6216 90.1448 65.5406 89.465 64.8649C83.7545 59.3243 73.4212 60.1352 65.9431 61.8919C65.8071 61.8919 65.5352 62.027 65.2633 62.027C62.8159 62.5676 58.0571 63.5135 58.329 66.6216C58.465 69.3243 62.5439 71.4865 64.3115 72.1622C64.8553 72.4324 65.5352 72.7027 66.079 72.973C67.8466 73.7838 69.6141 74.5946 71.3817 75.2703C70.9738 75.1351 70.7018 75 70.4299 75C68.6624 74.5946 66.8948 74.4595 65.1273 74.3243C64.0396 74.1892 62.9519 74.1892 61.8641 73.9189C59.5527 73.5135 57.6492 72.973 55.3378 72.1622L55.0659 72.027C54.3861 71.7568 53.7062 71.7568 52.8904 71.6216C51.8027 71.4865 50.579 71.3514 50.1711 70.8108C49.6273 70.1351 49.4913 69.4595 49.6273 68.7838C50.3071 66.0811 55.8817 63.6487 57.9211 62.7027L58.329 62.5676C62.0001 60.946 66.4869 59.7298 72.0615 59.1892C76.0045 58.7838 79.9474 59.0541 83.8904 59.3243C85.2501 59.4595 86.4738 59.4595 87.8334 59.5946C88.2413 59.5946 88.6492 59.5946 89.0571 59.5946C90.6887 59.5946 92.5922 59.5946 93.5439 60.6757C94.4957 61.6216 95.3115 63.2433 95.9913 64.7297C96.2633 64.4595 96.6711 64.3243 96.9431 64.0541C97.215 63.9189 97.351 63.7838 97.6229 63.7838C96.5352 62.027 95.7194 60.2703 94.4957 59.1892Z" fill="#FCBE59"/>
<path d="M66.7589 75.4053C62.8159 74.7297 55.8817 73.5134 51.9387 72.7026C48.5396 72.027 48.8115 71.4864 47.5878 68.2432V68.3783C47.3159 69.5945 47.5878 70.8107 48.4036 72.027C49.3553 73.2432 50.9869 73.3783 52.4825 73.5134C53.1624 73.5134 53.8422 73.6486 54.2501 73.7837L54.522 73.9188C56.6975 74.5945 58.8729 75.2702 61.3203 75.6756C62.408 75.8107 63.6317 75.9459 64.7194 76.081C66.351 76.2161 68.1185 76.3513 69.7501 76.7567C71.9255 77.2972 74.6448 78.5134 74.7808 80.1351H75.1887C75.3246 79.9999 75.5966 79.7296 75.7325 79.5945C73.4211 75.8107 70.7019 75.9459 66.7589 75.4053Z" fill="#F2AB44"/>
<path d="M72.0616 61.2164C68.6624 61.7569 65.2633 62.4326 62.1361 63.784C59.2808 65.0002 59.4168 66.3515 60.7765 67.5677C60.7765 67.5677 60.7764 67.5677 60.9124 67.5677C60.3685 67.0272 60.0966 66.6218 60.0966 66.0812C59.9607 64.865 62.8159 64.0542 64.5835 63.6488C64.9914 63.5137 65.2633 63.5137 65.5352 63.3785C65.8072 63.3785 65.9431 63.2434 66.2151 63.2434C73.4212 61.6218 82.9387 60.6759 88.1054 65.6759C88.7852 66.3515 89.601 67.4326 89.737 68.5137C90.1449 68.2434 90.5528 67.9732 90.9607 67.7029C90.8247 67.5677 90.6888 67.4326 90.5528 67.1623C86.8817 61.0812 78.4519 60.4056 72.0616 61.2164Z" fill="#F2AB44"/>
<path d="M72.4695 67.1622C72.4695 67.027 72.4695 66.7568 72.4695 66.6216C72.6054 66.2162 73.1493 65.8108 74.1011 65.5406C74.237 65.5406 74.373 65.5405 74.373 65.4054C77.7721 64.5946 81.3072 66.6216 84.8423 68.7838C85.6581 69.3243 86.4739 69.8649 87.1537 70.4054C87.2897 70.2703 87.4256 70.1352 87.6975 70C83.8905 66.8919 81.1712 64.4595 75.7326 64.4595C73.6931 64.5946 71.6537 65.8108 72.4695 67.1622Z" fill="#F2AB44"/>
<path d="M70.7019 66.0813C70.43 66.8921 70.5659 68.2435 72.0616 70.0002C74.373 72.4327 76.6844 73.5137 80.0835 73.784C81.0352 73.784 81.987 73.784 82.9388 73.6489C83.0747 73.6489 83.0747 73.5137 83.2107 73.5137C77.3642 73.1083 71.7896 71.0813 70.7019 66.0813Z" fill="#F2AB44"/>
<path d="M58.7371 64.4595C58.3292 65 58.0573 65.5406 58.0573 66.3514C58.1932 69.0541 62.2722 71.2162 64.0397 71.8919C64.5836 72.1622 65.2634 72.4325 65.8072 72.7027C66.895 73.2433 67.9827 73.6487 69.0704 74.0541C69.4783 74.1892 70.0222 74.3243 70.43 74.5946C70.702 74.7297 70.9739 74.8649 71.1099 74.8649C70.9739 74.8649 70.702 74.7298 70.566 74.7298C71.6537 75.5406 72.8774 75.8108 74.1011 76.2162C73.5573 75.8108 73.0134 75.5406 72.3335 75.2703C72.6055 75.4054 72.8774 75.4054 73.1493 75.5405C73.6932 75.6757 74.373 75.946 75.0528 76.2162C76.0046 76.4865 76.9564 76.8919 77.9081 77.1622C78.18 77.0271 78.316 76.7568 78.5879 76.6216C74.509 75.2703 70.2941 73.7838 66.3511 72.1622C63.2239 70.8108 59.145 68.5135 58.7371 64.4595Z" fill="#F2AB44"/>
<path d="M88.3774 58.7838C83.8905 58.3784 79.2677 57.7028 74.7809 57.8379C66.759 57.8379 57.6493 60.2703 51.259 65.5406C50.987 65.8109 50.7151 66.0811 50.3072 66.3514C50.1712 66.4865 49.8993 66.6217 49.7633 66.7568C49.3554 67.5676 49.2195 68.3784 49.3554 69.0541V68.919C50.0353 66.2163 55.6098 63.7838 57.6493 62.8379L58.0572 62.7027C61.7283 61.0811 66.2151 59.8649 71.7896 59.3244C75.7326 58.919 79.6756 59.1892 83.6186 59.4595C84.9783 59.5946 86.2019 59.5946 87.5616 59.7298C87.9695 59.7298 88.3774 59.7298 88.7853 59.7298C90.4168 59.7298 92.3204 59.7298 93.2721 60.8109C94.2239 61.7568 95.0397 63.3784 95.7195 64.8649C95.9914 64.7298 96.2634 64.4595 96.5353 64.3244C95.9914 63.1082 95.3116 61.7568 94.4958 60.8109C92.8642 58.7838 90.6888 58.919 88.3774 58.7838Z" fill="#F2AB44"/>
</g>
<mask id="mask11_20002_25767" style="mask-type:luminance" maskUnits="userSpaceOnUse" x="18" y="46" width="90" height="32">
<path d="M18.8992 58.9189L61.5921 77.9729L107.956 59.1892L61.5921 46.3513L18.8992 58.9189Z" fill="white"/>
</mask>
<g mask="url(#mask11_20002_25767)">
<path d="M40.9255 61.3514C39.022 60.5406 37.9342 60.946 37.2544 61.3514C36.5746 61.892 35.7588 62.8379 35.7588 65.1352C35.8948 68.5136 36.9825 70.8109 39.4299 73.1082C40.1097 73.7839 40.9255 74.3244 41.6053 74.8649C42.829 74.8649 44.0527 75.0001 45.2763 75.0001C45.1404 74.8649 45.0044 74.7298 44.7325 74.7298C44.4606 74.5947 44.0527 74.3244 43.7807 74.1893C42.557 73.5136 41.4693 72.8379 40.5176 71.892C38.3421 69.8649 37.5263 67.973 37.3904 65.1352C37.3904 64.0541 37.5263 63.2433 38.0702 62.8379C38.4781 62.5676 39.1579 62.7028 39.9737 62.9731C40.1097 62.9731 40.1097 63.1082 40.2456 63.1082C43.3728 64.5947 44.8684 68.3785 46.0921 72.2974C46.3641 73.2433 46.636 74.1893 46.772 75.0001C47.4518 75.0001 47.9956 75.1352 48.6755 75.1352C48.5395 73.919 48.1316 72.8379 47.8597 71.7568C46.636 67.4325 44.8684 63.1082 40.9255 61.3514Z" fill="#FCBE59"/>
<path d="M41.8772 63.2436C40.5175 62.0274 38.0702 61.7571 37.9342 63.2436C38.0702 63.1084 38.0702 62.8382 38.3421 62.8382C38.75 62.5679 39.4298 62.703 40.2456 62.9733C40.3816 62.9733 40.3816 63.1084 40.5175 63.1084C43.6447 64.5949 45.1403 68.3787 46.364 72.2976C46.636 73.2436 46.9079 74.1895 47.0439 75.0003C47.1798 75.0003 47.4518 75.0003 47.5877 75.0003C46.5 70.2706 45.9561 66.8922 41.8772 63.2436Z" fill="#F2AB44"/>
<path d="M37.2544 61.3516C36.5746 61.8921 35.7588 62.8381 35.7588 65.1354C35.8948 68.5137 36.9825 70.811 39.4299 73.1083C40.1097 73.784 40.9255 74.3245 41.6053 74.8651C41.7413 74.8651 41.8772 74.8651 41.8772 74.8651C37.7983 71.0813 34.807 65.9462 37.2544 61.3516Z" fill="#F2AB44"/>
</g>
<mask id="mask12_20002_25767" style="mask-type:luminance" maskUnits="userSpaceOnUse" x="18" y="46" width="90" height="32">
<path d="M18.8992 58.9189L61.5921 77.9729L107.956 59.1892L61.5921 46.3513L18.8992 58.9189Z" fill="white"/>
</mask>
<g mask="url(#mask12_20002_25767)">
<path d="M57.3772 66.892C57.2412 66.892 56.9693 67.0272 56.6973 67.0272C54.25 67.5677 49.4912 68.5137 49.7631 71.6218C49.8991 74.3245 53.9781 76.4866 55.7456 77.1623C56.2895 77.4326 56.9693 77.7028 57.5131 77.9731C58.8728 78.6488 60.2324 79.1893 61.5921 79.7299C62.9517 80.0001 64.5833 80.5407 65.5351 81.2164C65.943 81.3515 66.4868 81.4866 66.8947 81.6218C67.8464 81.892 68.7982 82.2974 69.75 82.5677C70.2938 82.0272 70.8377 81.6218 71.5175 81.0812C70.1579 80.811 68.9342 80.2704 67.5745 79.865C66.8947 79.5947 66.3508 79.4596 65.671 79.1893C63.2237 78.3785 60.6403 77.2974 58.3289 76.2164C57.7851 75.9461 57.1052 75.6758 56.5614 75.4056C54.25 74.3245 51.8026 72.7029 51.6666 71.3515C51.5307 70.1353 54.3859 69.3245 56.1535 68.9191C56.5614 68.7839 56.8333 68.7839 57.1052 68.6488C57.3772 68.6488 57.6491 68.5137 57.7851 68.5137C64.9912 66.892 74.5088 65.9461 79.6754 70.9461C80.3553 71.6218 81.171 72.7029 81.307 73.7839C81.8508 73.3785 82.3947 72.9731 82.9386 72.7029C82.5307 71.4866 81.7149 70.4056 81.0351 69.7299C75.3246 64.3245 64.9912 65.1353 57.3772 66.892Z" fill="#F7CD6F"/>
<path d="M63.7675 66.6216C60.3684 67.1622 56.9692 67.8378 53.842 69.1892C50.9868 70.4054 51.1227 71.7568 52.4824 72.973C52.4824 72.973 52.4824 72.973 52.6184 72.973C52.0745 72.4324 51.8026 72.027 51.8026 71.4865C51.6666 70.2703 54.5219 69.4595 56.2894 69.0541C56.6973 68.9189 56.9692 68.9189 57.2412 68.7838C57.5131 68.7838 57.785 68.6487 57.921 68.6487C65.1271 67.027 74.6447 66.0811 79.8113 71.0811C80.4912 71.7568 81.307 72.8378 81.4429 73.9189C81.8508 73.6486 82.2587 73.3784 82.6666 73.1081C82.5306 72.973 82.3947 72.8378 82.2587 72.5676C78.5877 66.4865 70.1578 65.6757 63.7675 66.6216Z" fill="#EFB754"/>
<path d="M50.4429 69.8648C50.4429 69.7296 50.4429 69.7296 50.4429 69.8648C50.035 70.4053 49.7631 70.9459 49.7631 71.7567C49.899 74.4594 53.978 76.6215 55.7455 77.2972C56.2894 77.5675 56.9692 77.8378 57.5131 78.108C58.6008 78.6486 59.6885 79.054 60.7762 79.4594C61.1841 79.5945 61.4561 79.7297 61.864 79.8648C63.2236 80.1351 64.7192 80.6756 65.671 81.3513C66.0788 81.4864 66.6227 81.6215 67.0306 81.7567C67.9824 82.0269 68.9341 82.4323 69.8859 82.7026C70.1578 82.5675 70.2938 82.2972 70.5657 82.1621C66.4868 80.8107 62.2718 79.3242 58.3289 77.7026C55.0657 76.2161 50.8508 73.9188 50.4429 69.8648Z" fill="#EFB754"/>
</g>
<mask id="mask13_20002_25767" style="mask-type:luminance" maskUnits="userSpaceOnUse" x="18" y="46" width="90" height="32">
<path d="M18.8992 58.9189L61.5921 77.9729L107.956 59.1892L61.5921 46.3513L18.8992 58.9189Z" fill="white"/>
</mask>
<g mask="url(#mask13_20002_25767)">
<path d="M82.1228 66.6216C81.7149 66.4865 81.443 66.3513 81.0351 66.2162C79.8114 65.8108 78.5877 65.4054 77.364 64.8648C73.557 63.5135 69.7499 62.027 65.671 61.3513C59.9605 60.4054 55.2017 60.2702 50.9868 60.8108H50.4429C47.4517 61.2162 41.3333 62.027 39.4298 65.2703C38.75 66.3513 38.7499 67.5675 39.2938 68.9189C39.8377 70.2702 41.3333 70.9459 42.8289 71.4865C43.5087 71.7567 44.0526 72.027 44.4605 72.2973L44.7324 72.4324C46.6359 73.7838 48.5394 75 50.7148 75.9459C51.8026 76.4865 52.8903 76.8919 53.978 77.2973C55.6096 77.8378 57.2412 78.5135 58.6008 79.3243C60.5043 80.4054 62.8157 82.4324 62.5438 83.9189L62.9517 84.054C63.3596 83.7838 63.9034 83.6486 64.3113 83.3783C64.3113 82.4324 63.9035 81.6216 63.2236 80.9459C62.8157 80.6756 62.5438 80.4054 62.1359 80C61.1842 79.3243 60.2324 78.6486 59.2806 78.1081C58.057 77.4324 56.8333 76.6216 55.6096 75.9459C55.2017 75.8108 54.9298 75.6756 54.5219 75.5405C53.4342 75.1351 52.4824 74.7297 51.3947 74.3243C49.2192 73.3784 47.5877 72.1621 45.5482 70.9459L45.2763 70.8108C44.7324 70.4054 44.0526 70.1351 43.2368 69.8648C42.1491 69.4594 41.0614 69.054 40.7894 68.3784C40.5175 67.5676 40.5175 66.8919 40.7894 66.2162C42.1491 63.7838 48.1315 62.9729 50.4429 62.7027H50.9868C54.9298 62.1621 59.5526 62.2973 65.1271 63.2432C69.0701 63.9189 72.7412 65.2703 76.5482 66.6216C77.7719 67.027 78.9956 67.5675 80.2193 67.973C80.6272 68.1081 80.8991 68.2432 81.307 68.3784C82.9385 68.9189 84.7061 69.4594 85.3859 70.5405C86.0657 71.6216 86.3377 73.5135 86.6096 75.1351C87.0175 75 87.2894 74.8648 87.6973 74.8648C87.9693 74.7297 88.2412 74.7297 88.3772 74.7297C88.1052 72.973 87.8333 71.0811 87.0175 69.7297C86.2017 67.8378 83.8903 67.1621 82.1228 66.6216Z" fill="#F7CD6F"/>
<path d="M56.0175 77.5677C52.3464 75.8109 46.092 72.7028 42.557 70.8109C39.5657 69.1893 39.8377 68.7839 39.5657 65.4055C39.5657 65.4055 39.5657 65.5407 39.4298 65.5407C38.75 66.6217 38.7499 67.838 39.2938 69.1893C39.8377 70.5407 41.3333 71.2163 42.8289 71.7569C43.5087 72.0272 44.0526 72.2974 44.4605 72.5677L44.7324 72.7028C46.6359 74.0542 48.5394 75.2704 50.7148 76.2163C51.8026 76.7569 52.8903 77.1623 53.978 77.5677C55.6096 78.1082 57.2412 78.7839 58.6008 79.5947C60.5043 80.6758 62.8157 82.7028 62.5438 84.1893L62.9517 84.3244C63.2236 84.1893 63.3596 84.0542 63.6315 84.0542C62.2719 79.865 59.5526 79.1893 56.0175 77.5677Z" fill="#EFB754"/>
<path d="M81.443 67.5678C77.2281 65.9462 73.0132 64.0543 68.6623 62.8381C60.9123 60.6759 51.3947 60.4057 43.9167 63.784C43.5088 63.9192 43.2368 64.1895 42.8289 64.3246C42.557 64.4597 42.4211 64.4597 42.1491 64.5949C41.4693 65.2705 41.1974 65.9462 41.0614 66.757C41.0614 66.757 41.0614 66.6219 41.1974 66.6219C42.557 64.1894 48.5395 63.3786 50.8509 63.1084H51.3947C55.3377 62.5678 59.9605 62.703 65.5351 63.6489C69.4781 64.3246 73.1491 65.6759 76.9562 67.0273C78.1798 67.4327 79.4035 67.9732 80.6272 68.3786C81.0351 68.5138 81.307 68.6489 81.7149 68.784C83.3465 69.3246 85.1141 69.8651 85.7939 70.9462C86.4737 72.0273 86.7456 73.9192 87.0176 75.5408C87.2895 75.4057 87.6974 75.4057 87.9693 75.2705C87.8333 73.9192 87.5614 72.5678 87.0176 71.3516C85.6579 68.784 83.4825 68.3786 81.443 67.5678Z" fill="#EFB754"/>
</g>
<path d="M18.8991 58.7839L3.26315 58.2434L0 63.2434L39.4298 81.3515L47.9956 81.6218L61.5921 77.9731L18.8991 58.7839Z" fill="#F4D9A4"/>
<path d="M107.956 59.1892L119.921 62.4324L116.522 68.5135L88.1052 81.4865L78.9956 82.7027L61.592 77.973L107.956 59.1892Z" fill="#F4D9A4"/>
<path d="M64.0395 69.5944C63.3596 71.3512 60.7763 73.3782 58.8728 72.8377C57.7851 72.9728 55.4737 72.162 55.3377 71.2161C54.9298 69.7296 56.4254 67.2971 57.3772 66.0809C59.4167 63.2431 63.0877 62.8377 66.3509 63.7836C66.2149 64.7296 65.5351 65.6755 65.1272 66.6215C64.7193 67.5674 64.4474 68.6485 64.0395 69.5944Z" fill="#3CC251"/>
<path d="M55.4736 70C55.7456 68.6486 56.8333 67.027 57.3772 66.2162C59.4166 63.3783 63.0877 62.9729 66.3508 63.9189C66.3508 64.1891 66.2149 64.4594 66.0789 64.7297C65.807 63.9189 64.4473 63.7837 63.7675 63.7837C63.2236 63.7837 62.5438 63.9189 62 64.054C61.5921 64.054 61.3201 64.054 61.0482 64.1891C60.7763 64.1891 60.7763 64.1891 60.5044 64.3243C60.2324 64.4594 59.8245 64.7297 59.6886 64.8648C58.6008 65.5405 57.5131 66.3513 57.2412 67.4324C57.1052 67.7026 56.8333 67.7027 56.6973 67.9729C56.1535 68.3783 55.7456 69.3243 55.4736 70Z" fill="#48C634"/>
<path d="M66.0789 63.7837H66.2149C66.0789 64.7296 65.3991 65.6756 64.9912 66.6215C64.5833 67.5675 64.3114 68.6486 63.9035 69.7296C63.3596 71.081 61.864 72.5675 60.2324 72.9729C61.728 72.1621 63.0877 70.8107 63.7675 69.3242C63.9035 68.9188 64.1754 68.5134 64.1754 67.9729V67.8377C64.1754 67.8377 64.1754 67.8378 64.1754 67.9729C64.4473 67.2972 64.7193 66.6215 64.8552 65.9459C65.5351 65.1351 65.943 64.4594 66.0789 63.7837Z" fill="#48C634"/>
<path d="M57.785 70C58.1929 69.4595 59.0087 69.4595 59.2806 68.7838C59.8245 67.7027 60.5043 67.2973 61.4561 66.4865C62.1359 65.946 62.9517 65.5406 63.7675 65.1352C64.3113 64.8649 64.5833 64.4595 64.9912 64.1892C64.7192 64.4595 64.5833 64.5946 64.3113 64.7297C63.9034 65 63.7675 65.2703 63.4956 65.6757C63.0877 66.0811 62.5438 66.0811 62.1359 66.4865C62.4078 66.4865 62.8157 66.4865 63.2236 66.4865C63.4956 66.4865 63.7675 66.6216 64.0394 66.7568C63.7675 66.8919 63.3596 66.8919 63.0877 66.8919C62.6798 66.8919 62.4078 67.0271 61.9999 67.0271C61.728 67.0271 61.3201 66.8919 61.0482 67.0271C60.7763 67.1622 60.6403 67.4325 60.5043 67.5676C61.0482 68.1081 61.864 68.2433 62.5438 68.1081C62.6798 68.1081 64.0394 68.2433 63.3596 68.5135C63.0877 68.6487 62.6798 68.3784 62.4078 68.3784C62.1359 68.2433 61.728 68.2433 61.4561 68.2433C61.0482 68.2433 60.3684 68.1081 60.0964 68.3784C60.2324 68.5135 60.5043 68.6487 60.7763 68.7838C61.1842 68.9189 61.4561 69.0541 61.728 69.3243C61.1842 69.4595 60.6403 68.9189 60.0964 69.1892C60.3684 69.4595 60.3684 69.7297 60.6403 69.8649C61.0482 70.2703 62 70.1351 62.5438 70.1351C62.6798 70.1351 63.2236 70 63.0877 70.4054C62.9517 70.6757 62.1359 70.5406 61.864 70.5406C60.9122 70.5406 60.2324 70.4054 59.2806 70.1351C59.0087 70 58.7368 69.8649 58.4649 70.1351C58.1929 70.2703 58.1929 70.5406 58.4649 70.6757C58.7368 70.8108 59.1447 70.8108 59.5526 70.946C59.8245 71.0811 60.0964 71.2162 60.3684 71.3514C60.0964 71.6216 58.7368 70.946 58.6008 71.2162C58.4649 71.4865 59.8245 71.8919 59.9605 72.0271C59.8245 72.2973 58.6008 72.027 58.3289 71.8919C58.057 71.8919 57.785 71.6216 57.6491 71.6216C57.3771 71.6216 56.4254 71.4865 56.1534 71.6216C56.2894 71.4865 56.8333 70.946 56.8333 70.8108C56.9692 70.8108 57.5131 70.4054 57.785 70Z" fill="#1E9E1C"/>
<path d="M62.6797 64.1892C62.4078 64.8649 61.728 65.6757 61.1841 66.2162L61.4561 65.946C61.3201 66.2162 61.0482 66.6216 60.7762 66.7568C60.9122 66.2162 61.4561 65.946 61.728 65.4054C61.9999 65.2703 62.2719 64.4595 62.6797 64.1892Z" fill="#1E9E1C"/>
<path d="M59.6886 66.3512C59.6886 65.9458 59.6886 65.2702 59.8246 64.8647C59.8246 65.2702 59.8246 65.6756 59.8246 65.9458C59.8246 66.3512 59.9605 67.4323 59.6886 67.5674L59.8246 67.4323C59.8246 67.8377 59.6886 67.9729 59.4167 68.2431C59.1447 68.6485 59.1447 68.3783 58.7368 68.108C58.329 67.8377 57.6491 67.2972 57.3772 66.8918C57.7851 67.2972 58.193 67.4323 58.6009 67.8377C58.8728 67.9728 59.0088 68.2431 59.1447 68.108C59.2807 67.9728 59.4167 67.7026 59.4167 67.5674C59.6886 67.2972 59.6886 66.7566 59.6886 66.3512Z" fill="#1E9E1C"/>
<path d="M57.5132 69.054C57.2412 68.7837 56.9693 68.5134 56.8333 68.2432C56.9693 68.3783 57.2412 68.6486 57.3772 68.9188C57.5132 69.1891 57.7851 69.4594 58.057 69.5945H58.193C57.7851 69.9999 57.7851 70.2702 57.1053 70.135C56.6974 69.9999 56.2895 69.8648 55.8816 69.5945C56.1535 69.4594 56.4255 69.7297 56.6974 69.7297C56.9693 69.8648 57.2412 69.8648 57.6491 69.8648C57.6491 69.8648 57.6491 69.8648 57.6491 69.7297C57.6491 69.5945 57.9211 69.4594 57.9211 69.3242C57.7851 69.3242 57.5132 69.054 57.5132 69.054Z" fill="#1E9E1C"/>
<path opacity="0.48" d="M56.0175 71.8917C56.0175 72.0268 56.0175 72.0268 56.0175 71.8917C56.5614 71.4863 57.1052 71.216 57.6491 70.8106C58.3289 69.9998 59.0087 69.3241 59.5526 68.3782C60.6403 66.7566 60.5043 64.8647 62.4079 63.3782C60.5043 63.6484 58.7368 64.4593 57.3772 66.0809C57.3772 66.0809 57.2412 66.216 57.2412 66.3512L57.1052 66.4863C57.1052 66.6214 56.9693 66.6214 56.9693 66.7566C56.9693 66.8917 56.8333 66.8917 56.8333 67.0268C56.8333 67.0268 56.8333 67.0268 56.8333 67.162C56.8333 67.162 56.6973 67.2971 56.6973 67.4322C56.6973 67.4322 56.6973 67.4322 56.6973 67.5674C56.6973 67.7025 56.5614 67.7025 56.5614 67.8376C56.5614 67.9728 56.4254 67.9728 56.4254 68.1079V68.243C56.4254 68.3782 56.4254 68.3782 56.2894 68.5133V68.6485C56.2894 68.7836 56.1535 68.9187 56.1535 68.9187C56.1535 68.9187 56.1535 68.9187 56.1535 69.0539C56.1535 69.189 56.1535 69.189 56.0175 69.3241V69.4593V69.5944V69.7295C56.0175 69.8647 56.0175 69.8647 55.8815 69.9998C55.7456 70.4052 55.7456 70.9458 55.8815 71.3512C55.4736 71.4863 55.6096 71.7566 56.0175 71.8917Z" fill="#608420"/>
<path d="M52.2105 61.7567C50.7149 63.3783 50.0351 67.2973 51.6666 68.9189C52.2105 70.1351 54.3859 72.1621 55.3377 71.8919C57.1052 71.3513 59.0087 68.5135 59.6886 66.8919C61.4561 63.1081 59.9605 58.9189 57.2412 56.0811C56.2894 56.6216 55.6096 57.973 54.9298 58.9189C54.114 60 53.1622 60.8108 52.2105 61.7567Z" fill="#3CC251"/>
<path d="M56.6973 71.0811C58.057 70 59.1447 68.1081 59.6886 66.8919C61.4561 63.1081 59.9605 58.9189 57.2412 56.0811C56.9693 56.2162 56.6973 56.4865 56.4254 56.7567C57.3772 56.6216 58.3289 57.9729 58.7368 58.7838C59.0087 59.4594 59.2807 60.1351 59.5526 60.8108C59.6886 61.2162 59.8245 61.6216 59.9605 61.8919C60.0965 62.1621 60.0965 62.1621 60.0965 62.5675C60.0965 62.8378 60.0965 63.5135 59.9605 63.7838C59.9605 65.2702 59.5526 67.027 58.6008 67.7027C58.4649 68.1081 58.4649 68.2432 58.3289 68.6486C58.057 69.5946 57.2412 70.4054 56.6973 71.0811Z" fill="#48C634"/>
<path d="M57.5131 56.2162L57.3772 56.0811C56.4254 56.6216 55.7456 57.973 55.0658 58.9189C54.25 60 53.1623 60.8108 52.3465 61.7567C51.2588 62.9729 50.5789 65.5405 50.9868 67.4324C50.9868 65.4054 51.6667 63.2432 52.8903 61.6216C53.2982 61.2162 53.5702 60.8108 53.9781 60.4054C53.9781 60.4054 53.978 60.2703 54.114 60.2703C54.7938 59.5946 55.3377 58.9189 55.8816 58.3783C56.2895 57.5675 56.8333 56.8919 57.5131 56.2162Z" fill="#48C634"/>
<path d="M55.3377 68.6486C55.6097 67.9729 55.3377 67.1621 55.7456 66.4864C56.6974 65.4053 56.6974 64.3243 56.9693 62.9729C57.1053 61.8918 57.1053 60.8108 57.1053 59.8648C57.1053 59.1891 57.3772 58.6486 57.3772 57.9729C57.2412 58.3783 57.2412 58.6486 57.1053 59.054C56.9693 59.5945 56.8333 59.9999 56.5614 60.5405C56.2895 61.081 56.6974 61.7567 56.5614 62.4324C56.2895 62.1621 56.1535 61.7567 55.8816 61.3513C55.6096 61.081 55.3377 60.8107 55.0658 60.6756C55.0658 60.9459 55.3377 61.4864 55.4737 61.8918C55.6096 62.2972 55.7456 62.7026 56.0176 63.108C56.1535 63.3783 56.5614 63.7837 56.5614 64.1891C56.5614 64.4594 56.4254 64.7297 56.2895 64.9999C55.3377 64.8648 54.7939 63.9189 54.5219 63.2432C54.386 62.9729 53.5702 61.8918 53.5702 62.5675C53.5702 62.8378 54.114 63.2432 54.25 63.5134C54.5219 63.7837 54.6579 64.1891 54.9298 64.4594C55.2018 64.8648 55.6096 65.5405 55.4737 66.081C55.2017 65.9459 54.9298 65.8107 54.7939 65.5405C54.5219 65.2702 54.114 64.9999 53.7062 64.8648C53.8421 65.4053 54.7939 65.8107 54.6579 66.4864C54.25 66.3513 53.9781 66.3513 53.7062 66.2162C53.1623 65.9459 52.6184 64.8648 52.3465 64.3243C52.2105 64.1891 52.0746 63.5134 51.8026 63.7837C51.5307 64.054 52.0746 64.8648 52.2105 65.1351C52.7544 66.081 53.2982 66.7567 54.114 67.5675C54.386 67.8378 54.6579 68.1081 54.6579 68.3783C54.6579 68.7837 54.386 68.9189 54.114 68.6486C53.8421 68.3783 53.5702 67.8378 53.2983 67.5675C53.0263 67.2972 52.6184 67.027 52.3465 66.8918C52.2105 67.4324 53.7061 68.3783 53.4342 68.7837C53.1623 69.054 52.0746 67.8378 51.8026 67.8378C51.6667 68.108 52.6184 69.3243 52.8904 69.5945C53.1623 69.8648 53.4342 69.9999 53.5702 70.2702C53.7061 70.5405 54.25 71.4864 54.386 71.7567C54.5219 71.6216 54.6579 70.6756 54.7939 70.6756C55.0658 69.9999 55.0658 69.1891 55.3377 68.6486Z" fill="#1E9E1C"/>
<path d="M58.8728 60.2705C58.3289 60.9462 57.785 62.0273 57.5131 62.9732L57.6491 62.5678C57.5131 62.8381 57.1052 63.3786 57.1052 63.784C57.5131 63.2435 57.6491 62.5678 57.921 62.0272C58.1929 61.4867 58.8728 60.811 58.8728 60.2705Z" fill="#1E9E1C"/>
<path d="M58.193 64.4593C58.6009 64.189 59.4167 63.9187 59.6886 63.3782C59.2807 63.6484 58.8728 63.7836 58.4649 64.0538C58.0571 64.189 56.8334 64.7295 56.8334 65.1349V64.9998C56.4255 65.2701 56.4255 65.5403 56.1535 65.8106C55.8816 66.3512 56.1535 66.216 56.5614 66.4863C57.1053 66.7566 58.057 67.2971 58.6009 67.162C58.057 66.8917 57.5132 66.6214 56.8334 66.3512C56.5614 66.216 56.1535 66.216 56.1535 65.9458C56.1535 65.6755 56.4255 65.4052 56.5614 65.2701C57.1053 64.9998 57.7851 64.8647 58.193 64.4593Z" fill="#1E9E1C"/>
<path d="M56.5614 68.3782C56.9693 68.5133 57.3772 68.6485 57.7851 68.5133C57.6491 68.3782 57.1053 68.3782 56.6974 68.2431C56.2895 68.2431 56.0175 68.1079 55.6097 67.9728V67.8376C55.3377 68.5133 55.0658 68.6485 55.6097 69.189C56.0175 69.5944 56.4254 69.9998 56.8333 70.2701C56.8333 69.8647 56.4254 69.7295 56.1535 69.4593C55.8816 69.189 55.6096 68.9187 55.4737 68.5133H55.6097C55.7456 68.3782 55.7456 68.1079 55.8816 67.9728C56.1535 68.1079 56.4254 68.3782 56.5614 68.3782Z" fill="#1E9E1C"/>
<path d="M93.1359 58.1082L107.412 1.48661L105.373 0.135254L91.2324 56.7569L93.1359 58.1082Z" fill="#FF8500"/>
<path d="M110.132 1.21606L107.412 1.48633L93.136 58.108L94.4956 59.0539L110.132 1.21606Z" fill="#E56A0E"/>
<path d="M105.373 0.135133L107.82 0L110.132 1.21622L107.412 1.48648L105.373 0.135133Z" fill="#FFAA00"/>
<path d="M96.2631 60.946L121.417 8.10819L119.649 6.48657L94.6316 59.1893L96.2631 60.946Z" fill="#FF8500"/>
<path d="M124 8.51356L121.417 8.10815L96.2632 60.946L97.215 62.2973L124 8.51356Z" fill="#E56A0E"/>
<path d="M119.649 6.48657L121.961 6.89197L124 8.5136L121.417 8.10819L119.649 6.48657Z" fill="#FFAA00"/>
<path d="M43.8897 115.834C48.6081 114.927 51.2886 108.311 49.8769 101.056C48.4652 93.8022 43.4958 88.6569 38.7774 89.5639C34.059 90.471 31.3784 97.087 32.7902 104.341C34.2019 111.595 39.1713 116.741 43.8897 115.834Z" fill="#AE2217"/>
<path fill-rule="evenodd" clip-rule="evenodd" d="M48.6582 104.651C48.9184 104.772 49.238 104.92 49.3553 105.27C49.4912 105.405 49.3553 105.675 49.0833 106.216H48.9474H48.8114C48.1316 106.216 47.1798 106.081 46.5 105.811L44.0526 105C43.2906 104.621 42.6472 104.242 41.9008 103.754C42.1181 104.433 42.2377 105.582 42.3334 106.503C42.3643 106.799 42.3926 107.072 42.421 107.297C42.557 108.514 42.6929 109.865 42.5569 111.081C41.8771 111.757 41.6052 111.622 41.4692 111.216C41.3333 111.216 41.1973 111.284 41.0613 111.351C40.9254 111.419 40.7894 111.487 40.6534 111.487C40.1096 111.487 39.5657 111.487 39.1578 111.081C37.9341 110 38.2061 107.432 38.478 105.946C38.478 105.541 38.478 105 38.7499 104.73C38.9206 104.56 39.1985 104.497 39.4489 104.44C39.5975 104.406 39.7364 104.375 39.8376 104.324C40.0926 104.223 40.2902 104.065 40.4877 103.906C40.745 103.7 41.0023 103.494 41.3863 103.414C40.8914 103.079 40.1854 102.553 39.9737 102.027C39.9057 102.094 39.8377 102.128 39.7697 102.162C39.7017 102.196 39.6338 102.23 39.5658 102.297C39.4298 102.432 39.1579 102.567 38.886 102.702C38.75 102.838 38.75 102.838 38.75 102.973C38.5387 103.445 38.3684 103.938 38.1993 104.428C37.9332 105.198 37.67 105.96 37.2544 106.621C36.7105 107.567 35.8947 108.784 34.943 108.784C34.8315 108.229 35.1774 107.766 35.4554 107.394C35.5163 107.312 35.5739 107.235 35.6228 107.162C36.3026 106.216 36.7105 105.405 37.1184 104.324C37.1864 104.189 37.2204 104.088 37.2544 103.986C37.2884 103.885 37.3224 103.784 37.3904 103.648C37.2544 103.716 37.1524 103.784 37.0504 103.851C36.9485 103.919 36.8465 103.986 36.7105 104.054C35.8947 104.73 35.3509 105.135 34.807 103.919C35.2149 103.648 35.4868 103.378 35.7588 103.108C36.5745 102.432 37.3903 101.892 38.2061 101.486C38.2741 101.284 38.3081 101.115 38.3421 100.946C38.3761 100.777 38.4101 100.608 38.4781 100.405C38.4101 100.405 38.3421 100.439 38.2741 100.473C38.2061 100.507 38.1382 100.54 38.0702 100.54C37.9342 100.594 37.8146 100.654 37.708 100.707C37.2816 100.919 37.064 101.027 36.8465 100.27C36.6127 100.154 37.2832 99.838 37.6488 99.6658C37.7085 99.6376 37.7601 99.6133 37.7982 99.5944L38.614 99.189C38.6374 99.0962 38.6607 99.0074 38.6833 98.9213C38.7926 98.5053 38.886 98.1503 38.886 97.7025C38.2061 97.8376 37.2544 97.8376 37.1184 96.7565C37.1184 96.3464 37.8229 96.4031 38.4597 96.4542C38.6622 96.4705 38.8579 96.4863 39.0219 96.4863C39.0219 96.1575 38.8878 95.8065 38.7555 95.4603C38.5813 95.0045 38.4103 94.557 38.5529 94.1795C38.8237 93.6743 39.2176 93.1554 39.8377 93.6484C40.2919 93.987 40.272 94.6083 40.253 95.1976C40.2493 95.3139 40.2456 95.4289 40.2456 95.5403V96.0809C40.5855 95.9457 40.9254 95.7768 41.2654 95.6079C41.6053 95.439 41.9452 95.27 42.2851 95.1349C42.3076 95.1237 42.3329 95.1107 42.3605 95.0965C42.6659 94.9391 43.2481 94.6391 43.3728 95.1349C43.6447 95.6754 42.8289 96.216 42.557 96.3511C41.8772 96.7565 41.0615 97.0268 40.2457 97.297L40.2456 97.2971C40.2456 97.4998 40.2116 97.6687 40.1776 97.8376C40.1436 98.0065 40.1096 98.1755 40.1096 98.3782L40.1098 98.3781C40.9255 97.9727 41.7412 97.5673 42.557 97.5673C42.557 98.7256 41.3583 99.189 40.4165 99.553C40.2595 99.6137 40.1096 99.6716 39.9737 99.7295H39.8377C39.7697 99.9322 39.7357 100.101 39.7017 100.27C39.6678 100.439 39.6338 100.608 39.5658 100.811C39.8951 100.592 40.3131 100.462 40.6766 100.349C40.7633 100.322 40.8469 100.296 40.9254 100.27C41.4013 100.135 41.8432 99.9322 42.2851 99.7295C42.727 99.5268 43.1688 99.3241 43.6447 99.189C43.9167 99.0538 44.7325 98.7836 44.8684 99.0538C45.2763 99.4592 44.8684 99.9998 44.5965 100.135C44.3925 100.202 44.1886 100.236 43.9846 100.27C43.7807 100.304 43.5768 100.338 43.3728 100.405C43.1009 100.675 42.693 100.811 42.2851 100.946L42.2851 100.946C41.7412 101.081 41.1974 101.216 40.7895 101.486C41.0481 101.486 41.3613 101.595 41.5906 101.674C41.723 101.72 41.8274 101.757 41.8772 101.757C42.0773 101.836 42.301 101.916 42.5344 101.999C43.0938 102.198 43.7089 102.416 44.1886 102.702C44.5285 102.905 44.8344 103.108 45.1404 103.311C45.4463 103.513 45.7522 103.716 46.0921 103.919C46.5816 104.162 47.0711 104.259 47.5605 104.357C47.8868 104.421 48.2132 104.486 48.5395 104.594C48.5769 104.613 48.6168 104.632 48.6582 104.651ZM38.5605 94.1602C38.5579 94.1666 38.5554 94.173 38.5529 94.1795C38.527 94.2279 38.5021 94.2763 38.4783 94.3236L38.5605 94.1602ZM38.614 94.0538C38.5931 94.0886 38.5753 94.1241 38.5605 94.1602L38.614 94.0538ZM40.6524 105.044C40.2667 105.168 39.8081 105.314 39.5657 105.676C39.4298 105.811 39.4298 106.892 39.7017 107.162C39.7794 107.239 40.0347 107.14 40.2899 107.041C40.4814 106.966 40.6729 106.892 40.7894 106.892H40.9254C40.7894 106.216 40.7894 105.541 40.7894 105V105C40.7452 105.015 40.6993 105.029 40.6524 105.044ZM39.4298 110.135C39.9736 110.27 40.7894 110.405 41.3333 110.405C41.1973 109.73 41.1973 109.054 41.3333 108.919C41.3333 108.784 41.2993 108.615 41.2653 108.446C41.2313 108.277 41.1973 108.108 41.1973 107.973C41.1244 108.009 41.0613 108.045 41.0027 108.079C40.8427 108.171 40.7165 108.243 40.5175 108.243C40.3815 108.277 40.2625 108.294 40.1584 108.309C39.8461 108.353 39.6677 108.378 39.5657 108.784C39.4298 109.054 39.4298 109.73 39.4298 110.135V110.135Z" fill="#F2F0B5"/>
</svg>
