<svg width="150" height="96" viewBox="0 0 150 96" fill="none" xmlns="http://www.w3.org/2000/svg">
<path d="M108.192 85.4048C107.992 87.4662 106.946 89.3059 105.387 90.7688C105.165 90.9683 104.942 91.1678 104.697 91.3673C103.183 92.5643 101.313 93.4509 99.2876 93.8942C95.3695 94.8695 89.0917 95.5788 81.6785 95.8669C80.3206 95.9113 78.9403 95.9556 77.4933 95.9777C76.6028 95.9999 75.7124 95.9999 74.7996 95.9999C66.5405 95.9999 59.0828 95.4679 53.829 94.6035C52.2262 94.3375 50.8237 94.0493 49.6661 93.739C48.6643 93.5395 47.7293 93.1849 46.8833 92.7416C43.789 91.1013 41.7409 88.0203 41.8299 84.5846C41.8299 84.0748 41.8967 83.5429 42.008 83.0109C42.008 82.9666 42.0303 82.9222 42.0303 82.9001C43.3215 77.0705 58.5485 75.6298 69.2119 75.3194C71.3936 75.2529 73.3749 75.2308 75.0223 75.2529C78.1612 75.2308 82.6135 75.2973 87.2217 75.6298C96.7498 76.3169 106.968 78.1566 108.014 82.9001C108.037 82.9444 108.036 82.9666 108.036 83.0109C108.215 83.831 108.259 84.629 108.192 85.4048Z" fill="#681919"/>
<g style="mix-blend-mode:overlay" opacity="0.1">
<path d="M105.365 90.747C105.142 90.9464 104.92 91.1459 104.675 91.3454C103.161 92.5424 101.291 93.429 99.2654 93.8723C95.3473 94.8476 89.0695 95.5569 81.6563 95.845C80.2983 95.8894 78.9181 95.9337 77.4711 95.9559C76.5806 95.978 75.6901 95.978 74.7774 95.978C66.5182 95.978 59.0605 95.4461 53.8068 94.5816C57.9475 92.6532 61.9323 89.417 63.9804 84.053C65.0712 81.2158 67.431 79.4425 70.4809 78.4229C82.6581 74.3666 106.077 82.2132 106.077 82.2132C106.167 82.3905 106.589 86.5577 105.365 90.747Z" fill="url(#paint0_linear_20002_16339)"/>
</g>
<path d="M84.6171 23.3412H65.4052L0.0667877 23.5851C5.09795 61.333 22.0392 79.797 41.6741 84.9172C53.4283 87.976 66.2956 88.4194 75.2004 88.7962C84.2832 88.4194 96.6607 87.976 108.393 84.9172C128.005 79.797 144.902 60.9784 149.933 23.2083L84.6171 23.3412Z" fill="url(#paint1_linear_20002_16339)"/>
<g style="mix-blend-mode:overlay" opacity="0.1">
<path d="M142.03 21.4795C142.03 21.4795 141.674 69.7118 108.192 85.3828C107.168 85.8705 106.1 86.3138 105.009 86.7349L104.697 91.3232C103.183 92.5201 101.313 93.4068 99.2876 93.8501C95.3695 94.8254 89.0917 95.5347 81.6785 95.8228V88.9515C81.6785 88.9515 84.3945 83.8756 87.244 75.6078C91.4737 63.2173 95.9038 43.6672 91.6963 23.3192L142.03 21.4795Z" fill="url(#paint2_linear_20002_16339)"/>
</g>
<g style="mix-blend-mode:overlay" opacity="0.1">
<path d="M77.4933 95.9554C76.6029 95.9776 75.7124 95.9776 74.7996 95.9776C66.5405 95.9776 59.0828 95.4456 53.829 94.5811C52.2262 94.3151 50.8237 94.027 49.6661 93.7167C48.6643 93.5172 47.7293 93.1625 46.8834 92.7192L46.7275 86.402C45.0134 85.8701 43.3882 85.2494 41.8299 84.5845C9.26091 70.2877 7.4577 23.9395 7.4577 23.9395L75.3562 25.6684C77.8272 47.5458 77.5824 88.5964 77.5824 88.5964L77.4933 95.9554Z" fill="url(#paint3_linear_20002_16339)"/>
</g>
<path d="M75 31.2763C116.421 31.2763 150 27.7236 150 23.341C150 18.9585 116.421 15.4058 75 15.4058C33.5786 15.4058 0 18.9585 0 23.341C0 27.7236 33.5786 31.2763 75 31.2763Z" fill="url(#paint4_linear_20002_16339)"/>
<g style="mix-blend-mode:overlay" opacity="0.2">
<path d="M75 30.4123C38.0231 30.4123 7.21282 27.6637 0.289398 24.0286C3.58414 28.0849 35.7747 31.2767 75 31.2767C114.225 31.2767 146.416 28.0849 149.711 24.0286C142.787 27.6637 111.977 30.4123 75 30.4123Z" fill="#E07C68"/>
</g>
<path d="M75 28.1292C112.536 28.1292 142.965 25.9857 142.965 23.3415C142.965 20.6973 112.536 18.5537 75 18.5537C37.4638 18.5537 7.03473 20.6973 7.03473 23.3415C7.03473 25.9857 37.4638 28.1292 75 28.1292Z" fill="url(#paint5_linear_20002_16339)"/>
<g style="mix-blend-mode:overlay" opacity="0.2">
<path d="M31.6563 80.1296C31.6563 80.1296 66.0953 90.8134 109.617 82.7008C109.617 82.7008 71.1042 96.1553 31.6563 80.1296Z" fill="url(#paint6_linear_20002_16339)"/>
</g>
<path d="M138.068 25.1143C128.028 26.8654 103.562 28.1067 75 28.1067C45.3695 28.1067 20.1914 26.7768 10.886 24.9149C12.2217 23.9617 13.7801 22.8978 15.5387 21.7452C16.0062 21.4349 16.496 21.1245 16.9858 20.8142C25 15.8048 35.7525 11.7042 49.4435 5.98546C72.3954 -3.61223 80.7435 1.48585 97.2173 4.81068C111.086 7.64788 124.199 13.0563 133.638 20.9029C135.218 22.2328 136.71 23.6293 138.068 25.1143Z" fill="url(#paint7_linear_20002_16339)"/>
<g style="mix-blend-mode:overlay" opacity="0.2">
<path d="M138.068 25.1145C128.028 26.8656 103.562 28.1069 75 28.1069C45.3695 28.1069 20.1914 26.7769 10.886 24.915C12.2217 23.9619 13.7801 22.8979 15.5387 21.7453C58.3482 25.9125 85.0401 13.2781 97.2173 4.83301C111.086 7.64804 124.199 13.0564 133.638 20.903C135.218 22.233 136.71 23.6294 138.068 25.1145Z" fill="url(#paint8_linear_20002_16339)"/>
</g>
<path d="M85.5914 21.1045C86.113 20.5851 85.4505 19.0835 84.1117 17.7504C82.7729 16.4174 81.2647 15.7578 80.7431 16.2771C80.2214 16.7965 80.8839 18.2982 82.2227 19.6312C83.5616 20.9643 85.0698 21.6239 85.5914 21.1045Z" fill="#FFE8D5"/>
<path d="M64.2656 10.2978C64.6829 9.69217 63.7555 8.33663 62.1942 7.27016C60.6329 6.20369 59.0289 5.83014 58.6116 6.43581C58.1943 7.04148 59.1217 8.39702 60.683 9.46349C62.2443 10.53 63.8483 10.9035 64.2656 10.2978Z" fill="#FFF3EA"/>
<path d="M93.2981 10.7126C93.5446 10.0203 92.2976 8.94841 90.5128 8.31856C88.7281 7.68871 87.0815 7.73936 86.8351 8.43171C86.5886 9.12405 87.8356 10.1959 89.6203 10.8258C91.4051 11.4556 93.0517 11.4049 93.2981 10.7126Z" fill="#FFE8D5"/>
<path d="M68.366 5.89701C70.2137 5.56453 71.8388 5.87485 71.9724 6.60631C72.1059 7.31561 70.7035 8.18007 68.8335 8.51255C66.9857 8.84503 65.3606 8.53472 65.227 7.80325C65.1157 7.07179 66.5182 6.2295 68.366 5.89701Z" fill="url(#paint9_linear_20002_16339)"/>
<path d="M71.9279 7.47054C73.642 6.67258 75.2671 6.56175 75.5788 7.22672C75.8905 7.89169 74.7551 9.06646 73.041 9.86442C71.3268 10.6624 69.7017 10.7732 69.39 10.1082C69.0784 9.46544 70.2137 8.2685 71.9279 7.47054Z" fill="url(#paint10_linear_20002_16339)"/>
<path d="M99.4012 18.0358C99.5285 17.3123 98.1198 16.4621 96.2548 16.1367C94.3898 15.8113 92.7747 16.134 92.6474 16.8575C92.5201 17.581 93.9287 18.4313 95.7937 18.7567C97.6587 19.082 99.2738 18.7593 99.4012 18.0358Z" fill="#FFE8D5"/>
<path d="M101.431 16.0054C101.698 15.4005 100.638 14.3502 99.0628 13.6597C97.4875 12.9692 95.9936 12.8999 95.7261 13.5049C95.4586 14.1099 96.5188 15.1601 98.0942 15.8506C99.6695 16.5411 101.163 16.6104 101.431 16.0054Z" fill="#FFE8D5"/>
<path d="M128.08 20.5113C128.348 19.9063 127.287 18.8561 125.712 18.1656C124.137 17.4751 122.643 17.4058 122.375 18.0108C122.108 18.6158 123.168 19.666 124.743 20.3565C126.319 21.047 127.813 21.1163 128.08 20.5113Z" fill="#FFE8D5"/>
<path d="M117.499 25.146C119.21 24.9552 120.536 24.268 120.463 23.6111C120.389 22.9541 118.942 22.5762 117.231 22.7669C115.521 22.9577 114.194 23.6449 114.268 24.3018C114.342 24.9588 115.788 25.3367 117.499 25.146Z" fill="#FFE8D5"/>
<path d="M114.094 13.7089C114.321 13.088 113.195 12.1083 111.578 11.5208C109.961 10.9333 108.466 10.9604 108.238 11.5814C108.011 12.2024 109.137 13.1821 110.754 13.7696C112.371 14.3571 113.866 14.3299 114.094 13.7089Z" fill="#FFE8D5"/>
<path d="M121.129 12.7648C121.356 12.1439 120.23 11.1642 118.613 10.5767C116.996 9.98916 115.501 10.0163 115.273 10.6373C115.046 11.2583 116.172 12.238 117.789 12.8255C119.406 13.413 120.901 13.3858 121.129 12.7648Z" fill="#FFE8D5"/>
<path d="M111.133 14.2602C111.36 13.6392 110.234 12.6595 108.617 12.072C107 11.4845 105.505 11.5117 105.277 12.1327C105.049 12.7537 106.176 13.7333 107.793 14.3209C109.41 14.9084 110.905 14.8812 111.133 14.2602Z" fill="#FFE8D5"/>
<path d="M108.335 22.6563C110.035 22.3872 111.329 21.6399 111.224 20.987C111.12 20.3341 109.658 20.023 107.958 20.2921C106.258 20.5612 104.964 21.3085 105.068 21.9614C105.173 22.6143 106.635 22.9254 108.335 22.6563Z" fill="#FFE8D5"/>
<path d="M49.6328 13.6373C51.3327 13.3682 52.6263 12.6208 52.522 11.968C52.4178 11.3151 50.9552 11.004 49.2553 11.2731C47.5553 11.5421 46.2618 12.2895 46.366 12.9424C46.4702 13.5952 47.9328 13.9063 49.6328 13.6373Z" fill="#FFF3EA"/>
<path d="M36.0398 12.6219C37.6126 11.9252 38.6687 10.8708 38.3989 10.2668C38.129 9.6628 36.6352 9.73793 35.0625 10.4346C33.4898 11.1313 32.4336 12.1857 32.7035 12.7897C32.9734 13.3937 34.4671 13.3186 36.0398 12.6219Z" fill="#FFF3EA"/>
<path d="M44.7665 24.0348C46.2585 22.8741 47.0998 21.4639 46.6457 20.8851C46.1915 20.3063 44.6137 20.7781 43.1217 21.9388C41.6297 23.0996 40.7884 24.5097 41.2426 25.0885C41.6968 25.6673 43.2745 25.1955 44.7665 24.0348Z" fill="#FFF3EA"/>
<path d="M44.6401 24.4159C46.1321 23.2552 46.9734 21.845 46.5192 21.2662C46.065 20.6874 44.4873 21.1592 42.9953 22.3199C41.5033 23.4807 40.662 24.8908 41.1162 25.4696C41.5704 26.0484 43.1481 25.5766 44.6401 24.4159Z" fill="#FFF3EA"/>
<path d="M36.8702 24.1669C38.3622 23.0062 39.2035 21.596 38.7493 21.0172C38.2952 20.4384 36.7174 20.9102 35.2254 22.0709C33.7334 23.2316 32.8921 24.6418 33.3463 25.2206C33.8005 25.7994 35.3782 25.3276 36.8702 24.1669Z" fill="#FFF3EA"/>
<path d="M46.8866 12.7032C48.6488 12.0136 49.8586 10.9004 49.5888 10.2168C49.3189 9.53317 47.6716 9.53805 45.9094 10.2277C44.1472 10.9173 42.9374 12.0305 43.2073 12.7141C43.4771 13.3977 45.1244 13.3928 46.8866 12.7032Z" fill="#FFF3EA"/>
<path d="M33.6344 21.4815C35.3966 20.7919 36.6064 19.6787 36.3365 18.9951C36.0667 18.3115 34.4194 18.3164 32.6572 19.006C30.895 19.6956 29.6852 20.8088 29.955 21.4924C30.2249 22.176 31.8722 22.1711 33.6344 21.4815Z" fill="#FFF9E2"/>
<path d="M44.9476 16.5108C46.7098 15.8212 47.9196 14.708 47.6497 14.0244C47.3799 13.3408 45.7326 13.3457 43.9704 14.0353C42.2082 14.7249 40.9984 15.8381 41.2682 16.5217C41.5381 17.2053 43.1854 17.2004 44.9476 16.5108Z" fill="#FFF9E2"/>
<path d="M52.6908 8.35335C54.453 7.66373 55.6628 6.55052 55.3929 5.86692C55.1231 5.18332 53.4758 5.18819 51.7136 5.87781C49.9514 6.56742 48.7416 7.68063 49.0115 8.36423C49.2813 9.04784 50.9286 9.04296 52.6908 8.35335Z" fill="#FFF9E2"/>
<path d="M27.7135 23.1422C29.4757 22.4526 30.6855 21.3393 30.4156 20.6557C30.1458 19.9721 28.4985 19.977 26.7363 20.6666C24.9741 21.3562 23.7643 22.4695 24.0342 23.1531C24.304 23.8367 25.9513 23.8318 27.7135 23.1422Z" fill="#FFF9E2"/>
<path d="M55.8759 5.07185C57.6381 4.38224 58.8479 3.26903 58.578 2.58542C58.3082 1.90182 56.6609 1.9067 54.8987 2.59631C53.1365 3.28593 51.9267 4.39914 52.1965 5.08274C52.4664 5.76634 54.1137 5.76147 55.8759 5.07185Z" fill="#FFF9E2"/>
<path d="M57.7237 17.2425C59.4859 16.5529 60.6957 15.4397 60.4259 14.7561C60.156 14.0725 58.5087 14.0774 56.7465 14.767C54.9843 15.4566 53.7745 16.5698 54.0444 17.2534C54.3142 17.937 55.9615 17.9321 57.7237 17.2425Z" fill="#FFF9E2"/>
<path d="M96.1055 23.7587C96.2758 23.044 94.9203 22.1119 93.078 21.6768C91.2358 21.2417 89.6043 21.4684 89.434 22.183C89.2638 22.8977 90.6192 23.8298 92.4615 24.2649C94.3038 24.7 95.9353 24.4734 96.1055 23.7587Z" fill="#FFF9E2"/>
<path d="M96.719 10.7353C96.9864 10.0507 95.7727 8.94179 94.008 8.2584C92.2433 7.575 90.596 7.57595 90.3286 8.2605C90.0612 8.94506 91.275 10.054 93.0396 10.7374C94.8043 11.4208 96.4516 11.4198 96.719 10.7353Z" fill="#FFF9E2"/>
<path d="M70.5751 18.9239C71.914 17.5909 72.5765 16.0892 72.0548 15.5698C71.5332 15.0504 70.025 15.7101 68.6862 17.0431C67.3474 18.3761 66.6849 19.8778 67.2065 20.3972C67.7281 20.9166 69.2363 20.2569 70.5751 18.9239Z" fill="#FFF3EA"/>
<path d="M68.1651 17.6248C68.5885 15.7873 68.3488 14.1645 67.6298 14.0003C66.9108 13.836 65.9847 15.1925 65.5613 17.03C65.1379 18.8676 65.3776 20.4903 66.0967 20.6546C66.8157 20.8188 67.7418 19.4623 68.1651 17.6248Z" fill="#FFF3EA"/>
<path d="M70.3405 23.4328C72.2021 23.0892 73.6022 22.2251 73.4677 21.503C73.3332 20.7808 71.7151 20.474 69.8535 20.8177C67.9919 21.1613 66.5918 22.0254 66.7263 22.7475C66.8607 23.4697 68.4789 23.7765 70.3405 23.4328Z" fill="#FFF3EA"/>
<path d="M84.1369 10.8041C84.3501 10.101 83.0535 9.08929 81.241 8.54446C79.4284 7.99963 77.7862 8.12796 77.573 8.8311C77.3598 9.53424 78.6564 10.5459 80.4689 11.0907C82.2815 11.6356 83.9237 11.5072 84.1369 10.8041Z" fill="#FFF3EA"/>
<path d="M83.3993 3.79214C83.6125 3.089 82.316 2.07732 80.5034 1.53249C78.6908 0.987664 77.0486 1.116 76.8355 1.81914C76.6223 2.52228 77.9188 3.53396 79.7314 4.07879C81.5439 4.62362 83.1861 4.49528 83.3993 3.79214Z" fill="#FFF3EA"/>
<path d="M87.656 3.24575C87.8692 2.54262 86.5727 1.53094 84.7601 0.986107C82.9476 0.441278 81.3054 0.569613 81.0922 1.27275C80.879 1.97589 82.1755 2.98757 83.9881 3.5324C85.8006 4.07723 87.4428 3.94889 87.656 3.24575Z" fill="#FFF3EA"/>
<defs>
<linearGradient id="paint0_linear_20002_16339" x1="53.8256" y1="86.6159" x2="106.225" y2="86.6159" gradientUnits="userSpaceOnUse">
<stop stop-color="white"/>
<stop offset="0.027444" stop-color="#F9F5F5"/>
<stop offset="0.2298" stop-color="#CDB3B3"/>
<stop offset="0.4222" stop-color="#A97C7C"/>
<stop offset="0.5992" stop-color="#8D5151"/>
<stop offset="0.7578" stop-color="#793333"/>
<stop offset="0.8923" stop-color="#6C2020"/>
<stop offset="0.9865" stop-color="#681919"/>
</linearGradient>
<linearGradient id="paint1_linear_20002_16339" x1="0.0617343" y1="55.9978" x2="149.927" y2="55.9978" gradientUnits="userSpaceOnUse">
<stop stop-color="#681919"/>
<stop offset="0.0494118" stop-color="#711C1C"/>
<stop offset="0.2123" stop-color="#882626"/>
<stop offset="0.3135" stop-color="#912929"/>
<stop offset="0.7315" stop-color="#751E1E"/>
<stop offset="1" stop-color="#681919"/>
</linearGradient>
<linearGradient id="paint2_linear_20002_16339" x1="81.6606" y1="58.6701" x2="142.026" y2="58.6701" gradientUnits="userSpaceOnUse">
<stop stop-color="white"/>
<stop offset="0.027444" stop-color="#F9F5F5"/>
<stop offset="0.2298" stop-color="#CDB3B3"/>
<stop offset="0.4222" stop-color="#A97C7C"/>
<stop offset="0.5992" stop-color="#8D5151"/>
<stop offset="0.7578" stop-color="#793333"/>
<stop offset="0.8923" stop-color="#6C2020"/>
<stop offset="0.9865" stop-color="#681919"/>
</linearGradient>
<linearGradient id="paint3_linear_20002_16339" x1="7.46612" y1="59.9603" x2="77.5939" y2="59.9603" gradientUnits="userSpaceOnUse">
<stop stop-color="white"/>
<stop offset="0.0902127" stop-color="#DDDDDD"/>
<stop offset="0.278" stop-color="#9A9A9A"/>
<stop offset="0.4568" stop-color="#636363"/>
<stop offset="0.6213" stop-color="#383838"/>
<stop offset="0.7687" stop-color="#1A1A1A"/>
<stop offset="0.8936" stop-color="#070707"/>
<stop offset="0.9811"/>
</linearGradient>
<linearGradient id="paint4_linear_20002_16339" x1="0" y1="23.3332" x2="149.989" y2="23.3332" gradientUnits="userSpaceOnUse">
<stop stop-color="#B23F3F"/>
<stop offset="0.2838" stop-color="#BC4C48"/>
<stop offset="0.8059" stop-color="#D56E5E"/>
<stop offset="1" stop-color="#E07C68"/>
</linearGradient>
<linearGradient id="paint5_linear_20002_16339" x1="7.03651" y1="23.3337" x2="142.952" y2="23.3337" gradientUnits="userSpaceOnUse">
<stop stop-color="#4F0D0D"/>
<stop offset="0.2367" stop-color="#5C1313"/>
<stop offset="0.5461" stop-color="#651818"/>
<stop offset="0.9946" stop-color="#681919"/>
</linearGradient>
<linearGradient id="paint6_linear_20002_16339" x1="31.6643" y1="84.0528" x2="109.622" y2="84.0528" gradientUnits="userSpaceOnUse">
<stop stop-color="white"/>
<stop offset="0.0745666" stop-color="#E9DDDD"/>
<stop offset="0.2031" stop-color="#C7AAAA"/>
<stop offset="0.334" stop-color="#AA7D7D"/>
<stop offset="0.4647" stop-color="#925959"/>
<stop offset="0.5952" stop-color="#803D3D"/>
<stop offset="0.7257" stop-color="#732929"/>
<stop offset="0.856" stop-color="#6B1D1D"/>
<stop offset="0.9865" stop-color="#681919"/>
</linearGradient>
<linearGradient id="paint7_linear_20002_16339" x1="10.8733" y1="14.2966" x2="138.071" y2="14.2966" gradientUnits="userSpaceOnUse">
<stop stop-color="#FFE5CD"/>
<stop offset="1" stop-color="#E1A18F"/>
</linearGradient>
<linearGradient id="paint8_linear_20002_16339" x1="10.8733" y1="16.4785" x2="138.071" y2="16.4785" gradientUnits="userSpaceOnUse">
<stop stop-color="#FFDCBD"/>
<stop offset="0.535" stop-color="#FDD8BE"/>
<stop offset="1" stop-color="#F9CEC2"/>
</linearGradient>
<linearGradient id="paint9_linear_20002_16339" x1="66.286" y1="9.14758" x2="70.9092" y2="5.23476" gradientUnits="userSpaceOnUse">
<stop stop-color="#FFF0BD"/>
<stop offset="1" stop-color="#FFE0D8"/>
</linearGradient>
<linearGradient id="paint10_linear_20002_16339" x1="70.7569" y1="11.1518" x2="74.2121" y2="6.18575" gradientUnits="userSpaceOnUse">
<stop stop-color="#FFE4CC"/>
<stop offset="1" stop-color="#FFC2B1"/>
</linearGradient>
</defs>
</svg>
