<svg width="140" height="108" viewBox="0 0 140 108" fill="none" xmlns="http://www.w3.org/2000/svg">
<path d="M132.025 22.4336L131.475 22.5548C128.266 23.3126 123.072 24.1007 115.983 24.9494C112.835 25.2525 104.157 25.4343 89.9484 25.4646L36.5356 29.3141C16.8572 28.8594 6.40683 28.1319 5.21512 27.1923C-4.80742 50.4101 -0.376726 71.0818 18.4461 89.268C23.9157 94.2389 30.1798 98.2702 37.1773 101.301C46.2525 104.696 51.9361 106.424 54.1972 106.545C57.314 107.424 62.5086 107.909 69.8116 108C76.9924 108 83.8065 107.212 90.2845 105.605C111.796 99.3008 126.494 88.2678 134.378 72.4761C137.494 67.1414 139.389 59.5335 140 49.622C139.053 37.5282 136.394 28.4654 132.025 22.4336Z" fill="url(#paint0_linear_20002_16956)"/>
<g style="mix-blend-mode:overlay" opacity="0.1">
<path d="M5.21512 27.2227C-4.80742 50.4101 -0.376727 71.0818 18.4461 89.268C23.9157 94.2389 30.1798 98.2702 37.1773 101.301C46.2526 104.696 51.9361 106.424 54.1973 106.545C55.9695 107.06 58.4141 107.424 61.5308 107.666C60.9197 98.9371 60.828 93.0568 61.2864 90.0561C61.6225 85.7823 64.1587 79.9931 68.8338 72.6883L17.4988 28.6776C10.0431 28.2835 5.94848 27.7986 5.21512 27.2227Z" fill="#484747"/>
</g>
<path d="M139.815 39.4997L139.164 44.8531C136.146 55.6468 127.301 64.2991 112.657 70.7811C97.895 77.2631 80.5 79.8964 60.5017 78.6521C41.4204 76.9448 26.1554 71.9386 14.7067 63.6336C11.0383 60.9424 8.02084 58.0197 5.65417 54.8655L2.63667 50.004C0.980006 46.6473 0.151672 43.1458 0.151672 39.4997C0.654589 28.3298 7.45876 19.0119 20.5938 11.575C33.7288 4.13806 50.2067 0.289375 69.9684 0C89.7596 0.289375 106.208 4.13806 119.343 11.575C132.478 19.0119 139.312 28.3298 139.815 39.4997Z" fill="#F7F7F7"/>
<path d="M68.8338 4.4292C50.011 4.7323 34.4883 8.36955 22.2962 15.3713C11.632 21.494 6.07067 28.7381 5.64288 37.1644C5.67344 39.468 6.1929 41.6807 7.17071 43.8327L9.79857 48.1671C11.6931 50.6526 14.107 52.9865 17.071 55.1688C27.5214 62.8373 41.7302 67.5051 59.728 69.1419C62.7836 69.3238 65.7781 69.4147 68.681 69.4147C84.051 69.4147 97.5569 66.8383 109.23 61.6552C121.513 56.1387 128.939 49.1977 131.505 40.8623L131.994 36.7401C131.383 28.526 125.822 21.403 115.341 15.3713C103.179 8.36955 87.6566 4.7323 68.8338 4.4292Z" fill="#C8BBBB"/>
<path d="M70.9117 12.0674C51.3249 12.0674 34.6716 16.5836 20.9823 25.5858C14.7182 29.708 9.67638 34.3758 5.85681 39.5892C6.10126 41.0138 6.52906 42.4384 7.17074 43.8024L9.79861 48.1368C11.6931 50.6222 14.1071 52.9561 17.0711 55.1385C27.5214 62.807 41.7302 67.4748 59.728 69.1116C62.7836 69.2934 65.7782 69.3844 68.6811 69.3844C84.051 69.3844 97.557 66.808 109.23 61.6249C121.513 56.1084 128.939 49.1673 131.505 40.832L131.994 36.7097C131.964 36.1338 131.903 35.5579 131.811 35.0124C130.222 33.4665 128.541 31.951 126.708 30.4961C113.11 19.6147 95.7542 13.492 74.609 12.128C73.3562 12.0674 72.1034 12.0674 70.9117 12.0674Z" fill="#EDEBE3"/>
<path d="M50.9583 20.0087L49.1249 20.039C45.947 20.0087 42.3108 20.433 38.2162 21.2514C31.2799 23.07 26.4825 24.7977 23.8546 26.4345C22.8463 27.0104 21.9601 27.6166 21.2573 28.2228L16.8878 32.6178C20.1573 32.1025 22.2963 31.9207 23.2741 32.1328C20.799 33.0725 19.4239 33.709 19.1489 33.9515C18.8128 34.103 18.7211 34.5577 18.8739 35.376C17.7128 35.9823 16.46 37.0128 15.1155 38.5283C14.4432 39.377 14.046 40.256 13.9238 41.1653C14.1071 42.2565 15.3905 43.1961 17.7739 43.9236C17.8961 43.9539 17.5294 44.4085 16.6433 45.2875C16.5822 45.4391 16.5822 45.5907 16.6739 45.8028C16.7044 46.1362 17.5906 46.6818 19.2712 47.4093C17.7128 48.7732 17.1933 50.1069 17.6822 51.4102C17.835 51.8346 18.11 52.2892 18.5072 52.7136C19.1184 53.4714 19.8517 54.0776 20.6462 54.5625C22.0824 55.4112 24.4963 56.3205 27.827 57.2905C28.4381 58.2604 29.0493 58.8969 29.6298 59.1697C29.9965 59.4122 31.7382 59.7759 34.8855 60.2609C36.1995 61.4733 37.8801 62.3523 39.9579 62.9282C43.258 63.9588 47.2609 64.474 52.0278 64.4437C59.2391 64.1406 63.9448 63.1404 66.1143 61.443C66.4199 61.3521 66.5116 60.2912 66.3893 58.321C69.8422 56.9874 71.9812 55.3203 72.8062 53.3198C73.0201 52.8955 73.0812 52.4711 73.0201 52.0165C71.7978 49.7735 71.2478 48.5005 71.3701 48.258C71.7673 47.6214 72.9895 46.9243 75.0063 46.1666C75.3424 45.9544 75.7396 45.4694 76.198 44.742C76.5952 44.0145 75.9841 42.9233 74.4257 41.4381C74.4257 41.1956 75.2202 40.7107 76.8702 39.9529C76.1063 38.8617 76.3813 37.5887 77.6647 36.0732C77.6341 35.7398 76.7786 35.1336 75.1285 34.2242C70.6673 32.5572 68.3755 31.5872 68.3144 31.2841C68.3144 31.0113 68.3755 30.8295 68.5588 30.7082C70.3922 30.2233 71.6756 29.6171 72.4395 28.8896C73.1423 27.4347 72.5923 26.2829 70.82 25.4039C69.995 24.7371 66.481 23.9187 60.2475 22.9791L57.4668 20.2512C54.6862 20.0693 52.5167 19.9784 50.9583 20.0087Z" fill="#FBD3A4"/>
<path d="M102.843 22.7671L101.988 22.7974C99.1153 23.0702 96.3652 23.5552 93.7985 24.3129C92.5151 24.5251 90.9567 25.1313 89.1845 26.1922C86.4649 28.1623 85.2121 29.2838 85.4871 29.5263C84.9982 30.6478 85.2427 32.0724 86.1899 33.8304C82.2787 35.3762 80.1397 36.4068 79.7425 36.9524C79.3147 37.3161 79.8342 38.4679 81.3314 40.4381C81.3009 40.7715 80.7814 41.5292 79.7425 42.7113C79.8342 42.9538 79.8953 43.0751 79.9564 43.1054C80.2008 43.3782 80.5675 43.6206 81.1175 43.8934C85.8232 45.0452 88.0539 45.7727 87.7483 46.0758C87.5344 46.197 85.3649 46.4092 81.2092 46.6517C80.2925 46.8032 79.3147 47.167 78.2758 47.6822C77.8174 48.0763 77.7258 48.4703 77.9702 48.8947C80.0786 49.804 81.0259 50.3799 80.8731 50.5617C75.7396 51.1376 72.3478 51.8651 70.6978 52.7138C67.306 54.5627 65.3504 56.5329 64.7698 58.594C64.3114 59.5942 64.342 61.0491 64.8615 62.989C65.2892 63.9589 66.0226 64.747 67.0921 65.3229C70.6672 67.0506 76.6257 67.9296 84.9371 67.9599C88.5428 67.5659 91.9345 67.0506 95.0819 66.4141L99.6653 65.4138C105.563 63.9589 110.543 62.0797 114.669 59.7761C116.716 58.6243 118.549 57.3816 120.169 56.0176C121.36 54.8658 122.155 54.108 122.461 53.6837C122.583 53.6534 122.705 53.2897 122.797 52.5925C122.827 52.0469 122.674 51.3801 122.369 50.592L122.522 50.0464C124.936 48.2884 126.494 46.5608 127.197 44.8634C127.472 43.9844 127.105 42.5598 126.097 40.6199C125.944 40.3774 126.402 39.5894 127.533 38.2254C127.655 37.7707 127.502 37.3161 127.075 36.8311C126.647 36.4674 125.822 36.0734 124.63 35.649L115.188 33.4363C114.913 33.2545 116.044 33.0726 118.61 32.9211C119.038 32.8301 119.344 32.5877 119.558 32.2239C119.68 31.9511 119.588 31.6177 119.283 31.1934L117.541 29.4354C116.746 28.6473 112.071 26.8287 103.577 24.0098L103.882 22.8277L102.843 22.7671Z" fill="#FBD3A4"/>
<path d="M67.1838 24.8589C66.9699 24.8589 66.8171 24.9195 66.6643 25.0407C66.6338 25.0407 66.5727 25.1317 66.481 25.2529L66.3893 25.4348C66.3282 25.556 66.2976 25.6773 66.2671 25.8288C66.2365 25.8894 66.206 26.1016 66.1754 26.4956C66.1754 26.5563 66.1754 26.8291 66.1754 27.2534C66.1754 27.314 66.206 27.405 66.2365 27.4656L66.2976 27.5565C66.3282 27.6171 66.3893 27.6778 66.4199 27.7384C66.5421 27.8596 66.6643 27.9505 66.8782 28.0415C67.0921 28.1021 67.2755 28.1627 67.4893 28.193C67.5505 28.193 67.7032 28.2233 67.9783 28.2537C68.1005 28.2537 68.2227 28.2537 68.3144 28.2537C69.17 28.2537 70.1172 28.0718 71.1867 27.6778L71.5839 27.5262L71.9506 26.9503L71.6756 26.7078C71.4923 26.5563 71.2784 26.4047 71.0645 26.2532C70.6367 25.9804 70.1172 25.7076 69.5672 25.4954C68.8644 25.2226 68.3755 25.0711 68.1005 25.0407C67.7949 24.9195 67.4588 24.8589 67.1838 24.8589Z" fill="#FFF1E1"/>
<path d="M68.8338 28.7383H68.7116C68.4061 28.7383 68.131 28.7686 67.8866 28.7686C67.4282 28.8292 67.0616 28.8898 66.7254 28.9808C66.206 29.102 65.8393 29.2536 65.5949 29.4354C65.2893 29.6779 65.2282 29.8901 65.3504 30.1326C65.381 30.1932 65.4421 30.2235 65.5032 30.2841L65.5949 30.3447C65.656 30.375 65.7171 30.4054 65.8087 30.4357C65.9615 30.4963 66.1449 30.4963 66.3893 30.4963H66.4504L66.8171 30.466L67.1838 30.4054L67.5505 30.3144L67.9172 30.1932L68.3144 30.0416C68.5588 29.9204 68.8338 29.7991 69.1089 29.6476L69.5061 29.4051C69.7505 29.2232 70.0561 29.0414 70.3617 28.8595C69.72 28.7686 69.2005 28.7383 68.8338 28.7383Z" fill="#FFF1E1"/>
<path d="M68.7116 32.5576H68.6199C68.4671 32.5879 68.3755 32.6182 68.3755 32.6485C68.2838 32.7092 68.1921 32.8001 68.131 32.9213C68.0699 33.0123 68.0393 33.2244 68.1004 33.5882C68.1921 34.0428 68.4977 34.5581 69.0171 35.134C69.2005 35.3462 69.4144 35.528 69.6588 35.6796L69.9644 35.8615C70.1783 35.9827 70.3616 36.0736 70.5755 36.1646L70.8811 36.2858C71.0644 36.3464 71.2783 36.407 71.4617 36.4677C71.8589 36.5586 72.195 36.5889 72.47 36.5586C72.6228 36.5586 72.8367 36.5283 73.0812 36.4677L73.4784 34.9521C72.5006 34.3156 71.37 33.6791 70.1172 33.0426C69.8727 32.9213 69.5977 32.8001 69.2922 32.6789C69.0477 32.5879 68.8644 32.5576 68.7116 32.5576Z" fill="#FFF1E1"/>
<path d="M67.1227 35.2549H66.8477C66.0838 35.3155 65.1059 35.5883 63.9448 36.043C63.0281 36.4673 62.2947 36.922 61.6836 37.3766C61.5614 37.4372 61.2864 37.6797 60.8891 38.0737L60.8586 38.1647C60.8586 38.2253 60.8586 38.2859 60.8891 38.3465C60.9503 38.4678 61.1336 38.5284 61.378 38.6193C61.5003 38.6496 61.6531 38.68 61.8364 38.7103C61.9892 38.7406 62.2031 38.7406 62.417 38.7406C62.8753 38.7103 63.3337 38.6193 63.8531 38.4678C64.4643 38.2859 64.9837 38.0131 65.4421 37.6797C65.9004 37.3463 66.2671 36.9523 66.5727 36.4976C66.6032 36.437 66.8477 36.0126 67.3366 35.2852L67.1227 35.2549Z" fill="#FFF1E1"/>
<path d="M67.4282 37.0127H67.3366C66.9393 37.0733 66.756 37.3158 66.8477 37.7401C66.8477 37.8311 66.9393 38.0129 67.0921 38.2554C67.2143 38.407 67.3671 38.5888 67.5505 38.7101L67.856 38.9223L68.2227 39.1041C68.4672 39.2254 68.7422 39.3466 69.0783 39.4375C69.3839 39.5285 69.7505 39.6194 70.1172 39.7103L70.6978 39.8316C70.7589 39.8316 70.9117 39.8619 71.1256 39.8922C71.4617 39.9225 71.8589 39.9528 72.2562 39.9225C72.5006 39.9225 72.8062 39.8619 73.1729 39.7709C73.4173 39.7103 73.7229 39.5891 74.0896 39.4678C74.1507 39.4375 74.1812 39.4072 74.2118 39.3769C74.2424 39.286 74.2729 39.2254 74.2424 39.1647L73.4479 38.1342C73.3562 38.0736 73.234 38.0129 73.1423 37.9523C73.0201 37.8917 72.8979 37.8311 72.7451 37.8008L72.5312 37.7401C72.2256 37.6492 71.8895 37.5583 71.5228 37.4977C71.1561 37.437 70.4228 37.3158 69.3839 37.1946C68.7422 37.1036 68.1005 37.043 67.4282 37.0127Z" fill="#FFF1E1"/>
<path d="M72.1645 41.3774H71.6145C69.3533 41.4684 67.1532 42.014 64.9837 43.0748L64.5559 43.287C64.2809 43.4385 64.067 43.5901 63.8531 43.7417C63.6392 43.8932 63.4865 44.0448 63.3337 44.166C63.3337 44.2266 63.3337 44.2569 63.3948 44.3175C63.4253 44.3782 63.517 44.4085 63.6087 44.4388L63.7615 44.4994C63.9448 44.56 64.342 44.6207 64.9837 44.6813C65.1976 44.6813 65.5643 44.651 66.0532 44.56C66.1754 44.5297 66.7866 44.4388 67.8255 44.2266L68.6505 44.0448C69.6894 43.8023 70.5145 43.5295 71.0645 43.2264L71.4312 43.0142L71.7062 42.7717L71.8895 42.5292L72.1645 41.3774Z" fill="#FFF1E1"/>
<path d="M61.5614 45.106H61.4392C60.9808 45.106 60.7669 45.2272 60.7975 45.4697C60.828 45.6515 61.103 45.9546 61.5919 46.3487C62.0503 46.7427 62.6003 47.0761 63.2114 47.3792C63.6392 47.5611 63.9754 47.6823 64.1893 47.743C64.4032 47.7733 64.5865 47.8036 64.8004 47.8036C65.0448 47.8036 65.3198 47.743 65.5949 47.6823L66.9393 46.2577C66.0532 45.8637 65.106 45.5606 64.067 45.3484C63.242 45.1666 62.3864 45.106 61.5614 45.106Z" fill="#FFF1E1"/>
<path d="M65.4421 39.0439L65.1365 39.1955C64.3115 39.6198 63.4253 40.2564 62.5392 41.1657C61.7447 41.9841 61.1336 42.7721 60.7669 43.439C60.6752 43.6814 60.8891 43.7724 61.4086 43.7117C61.6225 43.6814 61.8669 43.6208 62.1419 43.5602C62.7225 43.348 63.1198 43.1965 63.3031 43.1055C63.792 42.8631 64.3115 42.5296 64.8309 42.075C65.4115 41.5597 65.8393 41.0747 66.1143 40.5898C66.1449 40.4988 66.206 40.4079 66.206 40.3473C66.2365 40.317 66.2365 40.1957 66.2671 39.9836L65.4421 39.0439Z" fill="#FFF1E1"/>
<path d="M86.8927 35.7402H86.6483C86.1594 35.7402 85.6094 35.8009 85.0288 35.8918C84.2954 36.013 83.8371 36.0736 83.6232 36.104C83.3176 36.1646 83.1037 36.1949 82.9815 36.2555C82.8287 36.3161 82.7065 36.4071 82.6454 36.5283C82.6148 36.6799 82.6148 36.8011 82.6759 36.892C82.737 36.983 82.7982 37.0436 82.8898 37.1345L83.0426 37.2558C83.1648 37.3164 83.2871 37.4073 83.4398 37.4679C83.6843 37.5892 84.1427 37.7104 84.7538 37.862C85.2732 37.9832 85.7316 38.0741 86.1594 38.1044C86.9844 38.1954 87.6261 38.2257 88.0233 38.2257L88.4206 38.1954L88.7567 38.1348L89.0317 38.0438L89.2456 37.9226L89.3678 37.771L89.4289 37.5892V37.377L89.3678 37.1345L89.2456 36.8617L88.6345 35.9524C88.39 35.8918 88.1456 35.8615 87.9011 35.8312C87.565 35.8009 87.3816 35.7705 87.29 35.7705C87.1677 35.7402 87.0455 35.7402 86.8927 35.7402Z" fill="#FFF1E1"/>
<path d="M88.9706 39.1045H88.4511L87.9317 39.1348C87.5955 39.1651 87.2594 39.1954 86.9538 39.2257C86.3122 39.3167 85.701 39.4682 85.0899 39.6501L84.6316 39.8016C84.326 39.9229 84.0204 40.0441 83.7454 40.1654C83.1954 40.4381 82.737 40.7413 82.3398 41.0747C82.1565 41.2565 81.9731 41.4081 81.8204 41.6203L81.6065 41.893C81.5759 42.0446 81.637 42.1962 81.7898 42.2871C81.8509 42.3477 81.9426 42.378 82.0648 42.4386C82.187 42.4689 82.3093 42.5296 82.462 42.5599L82.7065 42.5902C83.226 42.6508 83.6843 42.6508 84.051 42.6508C84.8454 42.6508 85.7621 42.5296 86.8011 42.2871C87.6261 42.0749 88.1761 41.8627 88.4511 41.6203C88.5122 41.5596 88.6039 41.499 88.6345 41.4081C88.6956 41.3171 88.7567 41.2565 88.7872 41.1353L88.8484 40.9837C88.8484 40.8625 89.0623 40.226 89.4289 39.1045H88.9706Z" fill="#FFF1E1"/>
<path d="M87.4122 42.9233H87.3816C87.1066 42.9233 86.9233 42.9233 86.8316 42.9233L86.6482 42.9537C86.4344 42.984 86.2816 43.0749 86.251 43.1961L86.2205 43.2871C86.2205 43.3477 86.2205 43.4386 86.2816 43.5295C86.3732 43.7114 86.526 43.8933 86.7094 44.0751C87.0455 44.4086 87.6261 44.7723 88.39 45.136C88.7567 45.3179 89.0928 45.4391 89.4595 45.5603C89.8567 45.7119 90.1928 45.7725 90.4373 45.7725H90.6206C90.7428 45.7422 90.8345 45.7119 90.9262 45.6816C91.0178 45.621 91.1095 45.5603 91.1706 45.4694C91.3234 45.2876 91.3845 45.0754 91.4456 44.7723L90.8345 43.4083C90.5289 43.2568 90.1317 43.1658 89.6428 43.0749C89.3983 43.0446 89.1539 43.0143 88.8789 42.984L88.4511 42.9537C88.0844 42.9537 87.7483 42.9233 87.4122 42.9233Z" fill="#FFF1E1"/>
<path d="M86.74 47.1675H86.6788C86.5261 47.1675 86.3427 47.1675 86.1899 47.1978C85.8844 47.2281 85.5788 47.2584 85.3344 47.2887L84.9677 47.3493C84.7232 47.3797 84.5093 47.4403 84.326 47.5009C83.6843 47.6828 83.3787 47.8949 83.4398 48.0768C83.4398 48.1374 83.4704 48.1677 83.501 48.2283C83.501 48.2587 83.5926 48.3193 83.7454 48.4405C83.8676 48.5315 84.1121 48.6224 84.4482 48.7436C85.2732 49.0164 86.0677 49.168 86.8316 49.168C87.29 49.168 87.6567 49.077 87.9011 48.8952C87.9622 48.8649 88.0233 48.8042 88.0844 48.7436C88.115 48.7133 88.2067 48.6224 88.3289 48.4708L89.215 47.5918C89.0317 47.5312 88.8484 47.4706 88.665 47.4403L88.39 47.3797C88.2067 47.3493 88.0233 47.319 87.84 47.2887C87.4733 47.1978 87.1066 47.1675 86.74 47.1675Z" fill="#FFF1E1"/>
<path d="M80.9037 48.1675C80.812 48.1675 80.7203 48.2584 80.6898 48.3797C80.6592 48.41 80.6898 48.5312 80.7203 48.7737C80.8426 49.1374 81.0259 49.5011 81.3315 49.9255C81.362 49.9861 81.5454 50.1983 81.8509 50.5923C82.1565 50.956 82.401 51.2288 82.6148 51.4107C82.951 51.6835 83.2565 51.8047 83.5315 51.8047C83.7454 51.8047 83.9288 51.7744 84.051 51.7441C84.2038 51.7138 84.3871 51.6532 84.5705 51.5926L86.465 51.1379C86.0677 50.8348 85.6705 50.562 85.2733 50.2892C84.9677 50.077 84.4788 49.7739 83.776 49.4102C83.0426 49.0465 82.4315 48.7737 81.9732 48.5918C81.7287 48.5009 81.5454 48.41 81.3926 48.3493C81.2398 48.2887 81.1176 48.2584 81.0259 48.2281L80.9037 48.1675Z" fill="#FFF1E1"/>
<path d="M80.9953 52.2896H80.9342C80.1398 52.2896 79.2536 52.532 78.1842 53.017C77.3286 53.4413 76.9313 53.8354 76.9924 54.1385L77.0841 54.3507L77.2675 54.5325L77.5425 54.7144L77.9091 54.8659L78.398 55.0175L78.9786 55.1387L79.6509 55.26L80.537 55.3509C80.812 55.3812 81.0565 55.3812 81.2704 55.3812C81.5759 55.3812 81.8204 55.3509 81.9732 55.2903C82.1565 55.2297 82.3704 55.1084 82.6148 54.8962C82.7371 54.775 82.8593 54.5931 82.9815 54.4113L83.5927 52.9867C83.4093 52.8654 83.226 52.7745 83.0426 52.7139C82.8593 52.623 82.676 52.5623 82.4926 52.5017L82.2176 52.4108C81.7593 52.3502 81.3926 52.2896 80.9953 52.2896Z" fill="#FFF1E1"/>
<path d="M75.8007 56.1089H75.4646C75.3424 56.1089 75.2507 56.1392 75.159 56.1695L75.0368 56.1998C74.9451 56.2301 74.884 56.2604 74.8229 56.3211C74.7007 56.4423 74.6396 56.5635 74.609 56.6848V56.7757C74.609 56.8363 74.609 56.9273 74.6396 56.9879C74.6701 57.0788 74.7007 57.1394 74.7312 57.2304C74.884 57.4729 74.9757 57.5941 75.0062 57.6547C75.2201 57.8972 75.4035 58.1094 75.6174 58.2609C75.6785 58.3215 75.8313 58.4428 76.0757 58.6247C76.1674 58.6853 76.2896 58.7459 76.3813 58.8065C76.5341 58.8974 76.6563 58.9278 76.7785 58.8974C76.9619 58.8974 77.1146 58.8368 77.1758 58.7762C77.3285 58.6853 77.3897 58.6247 77.4202 58.5943C77.5424 58.5034 77.6341 58.3822 77.7258 58.2306L77.7869 58.1397L78.3675 56.6848C77.3285 56.3817 76.7174 56.2301 76.5035 56.1695C76.1674 56.1695 75.9229 56.1089 75.8007 56.1089Z" fill="#FFF1E1"/>
<path d="M78.9785 62.1406H78.948C78.3369 62.1406 77.8785 62.1709 77.6646 62.2316C77.1452 62.3225 76.6868 62.4134 76.2896 62.565C76.2285 62.5953 76.1062 62.6559 75.9229 62.7468C75.8618 62.7771 75.8007 62.8378 75.7701 62.8984C75.709 62.9893 75.6479 63.1106 75.6479 63.2015C75.6479 63.2621 75.6479 63.2924 75.6784 63.353C75.7701 63.5046 75.9535 63.6865 76.3201 63.8683C76.9313 64.1714 77.2674 64.323 77.3896 64.3533C77.6035 64.4442 77.8174 64.5351 78.0313 64.5958C78.4285 64.7473 78.7952 64.8382 79.1008 64.9292C79.5897 65.0201 80.048 65.0807 80.5369 65.0807C81.087 65.111 81.5759 64.8989 82.0648 64.4442L82.4314 62.8984C82.2175 62.7771 81.9731 62.6862 81.7286 62.5953L81.362 62.474C81.1175 62.3831 80.8731 62.3225 80.6286 62.2922C80.048 62.2012 79.5286 62.1406 78.9785 62.1406Z" fill="#FFF1E1"/>
<path d="M93.2485 60.5337L92.6679 60.6852C91.1095 61.1096 89.5817 61.7461 88.0844 62.5645C86.4649 63.4738 85.3343 64.2619 84.7232 65.0196L84.5093 65.2924C84.4788 65.353 84.4788 65.4743 84.5093 65.6561L84.5704 65.7471C84.6315 65.8077 84.6926 65.838 84.7843 65.8683C84.876 65.8986 84.9982 65.9289 85.151 65.9289C85.8844 65.9593 86.9844 65.8077 88.4817 65.444C88.9706 65.3227 89.6734 65.0803 90.6817 64.6559C90.9567 64.5347 91.2012 64.3831 91.4151 64.2013L91.7207 63.9285C91.904 63.7163 92.0568 63.5041 92.179 63.2616L92.3623 62.8676C92.454 62.5948 92.5457 62.322 92.5762 61.9886L93.2485 60.5337Z" fill="#FFF1E1"/>
<path d="M53.4028 43.4082H53.3722C53.1889 43.4385 53.0666 43.4991 53.0055 43.6506C52.975 43.7113 52.975 43.7719 52.975 43.8628C53.0055 44.1053 53.0361 44.2569 53.0666 44.3175C53.2805 44.9843 53.7389 45.6208 54.3806 46.227C55.1139 46.8939 55.7862 47.3182 56.3362 47.5607C56.7945 47.7425 57.4057 47.8335 58.1696 47.8335L59.0252 47.1363C58.5974 46.6514 58.3529 46.3786 58.2307 46.2876C57.6501 45.7421 56.9779 45.2268 56.1834 44.7418C54.5945 43.8325 53.7083 43.3778 53.4028 43.4082Z" fill="#FFF1E1"/>
<path d="M39.9579 60.0186H39.9273C39.7135 60.0489 39.5912 60.1398 39.5607 60.352C39.5912 60.5944 39.6829 60.8066 39.8357 60.9582C40.5996 61.8675 41.3941 62.5646 42.1885 63.0496C42.7385 63.383 43.2886 63.6255 43.8997 63.777C44.6331 63.9286 45.3664 64.0195 46.0692 63.9892C46.3748 63.9892 46.6192 63.9589 46.8331 63.8983C47.0776 63.8074 47.2304 63.777 47.2609 63.7467C47.3526 63.6861 47.4137 63.6558 47.4748 63.5952L46.4359 62.2312C45.397 61.5644 44.2969 61.0491 43.1969 60.6854L42.6469 60.5035C42.2802 60.3823 41.883 60.2913 41.4857 60.2307C40.844 60.1095 40.3246 60.0186 39.9579 60.0186Z" fill="#FFF1E1"/>
<path d="M25.7186 48.4097H25.5963C25.5047 48.44 25.4436 48.4703 25.3519 48.5006C25.3213 48.5006 25.1686 48.6218 24.9241 48.8643C24.8936 48.8946 24.7102 49.0765 24.4352 49.4402C24.3741 49.5615 24.2824 49.6524 24.2213 49.7736C23.9157 50.3192 23.7935 51.1073 23.8241 52.1378C23.8241 52.5016 23.8852 52.8653 23.9463 53.1684C23.9769 53.2896 24.038 53.4715 24.1296 53.714L24.1907 53.8049C24.4658 54.108 25.0463 54.3202 25.9325 54.4717C25.9936 54.2293 26.0547 54.0171 26.1158 53.7746C26.1464 53.6534 26.2075 53.32 26.2686 52.8047C26.2992 52.5925 26.2992 52.3803 26.3297 52.1985V51.8954V51.4104C26.2992 50.8648 26.238 49.9858 26.0853 48.7431C26.0547 48.6218 26.0241 48.5309 26.0241 48.5309C25.9936 48.5006 25.9936 48.4703 25.963 48.44C25.9019 48.44 25.8102 48.4097 25.7186 48.4097Z" fill="#FFF1E1"/>
<path d="M19.3322 49.895L19.2405 49.9253C19.0878 49.986 19.0266 50.1375 19.0572 50.38C19.0572 50.4709 19.1183 50.7437 19.2711 51.1377C19.4239 51.5015 19.6378 51.8652 19.9128 52.2895C20.035 52.4714 20.1878 52.623 20.3406 52.7745L20.585 53.017C21.0739 53.4716 21.6545 53.8354 22.3573 54.1385L23.5796 53.9263C23.5185 53.7444 23.4573 53.5626 23.3657 53.3807C23.274 53.1989 23.1823 53.017 23.0601 52.8351L22.8768 52.5623C22.6323 52.1986 22.3267 51.8652 21.9601 51.5015C21.5017 51.0468 21.0434 50.7134 20.6461 50.4406C20.4322 50.3194 20.2489 50.1981 20.0656 50.1375L19.7906 50.0163C19.6683 49.9556 19.485 49.9253 19.3322 49.895Z" fill="#FFF1E1"/>
<path d="M21.4406 45.4697H21.3795C21.2878 45.4697 21.2267 45.5303 21.1656 45.591C21.1351 45.591 21.1045 45.6819 21.0128 45.8031C20.8906 46.0456 20.7989 46.3487 20.7378 46.7428C20.6767 47.0762 20.6767 47.4702 20.7073 47.8642L20.7378 48.2583L20.7989 48.622L20.8906 48.9554L21.0128 49.2585L21.1351 49.5313L21.2878 49.8041C21.4101 49.9557 21.5323 50.1072 21.6545 50.2588L22.9379 50.8044C22.999 49.6222 22.8462 48.4401 22.5101 47.1974C22.449 46.9246 22.3573 46.7125 22.2962 46.5003C22.2351 46.2881 22.1434 46.1366 22.0518 45.985L21.9295 45.8031C21.8073 45.591 21.624 45.4697 21.4406 45.4697Z" fill="#FFF1E1"/>
<path d="M102.385 59.7158H102.293C102.11 59.7158 101.988 59.7158 101.896 59.7461L101.56 59.8068L101.346 59.8674L101.163 59.928C101.04 59.9886 100.949 60.0492 100.888 60.1099L100.796 60.2311C100.735 60.322 100.735 60.413 100.735 60.5342L100.765 60.7161C100.796 60.807 100.857 60.8979 100.918 60.9889C101.102 61.1707 101.407 61.3829 101.865 61.5951L102.232 61.7466C102.507 61.8679 102.782 61.9588 103.118 62.08C103.516 62.2013 103.852 62.2922 104.157 62.3831C104.31 62.4134 104.463 62.4438 104.585 62.4741L104.799 62.5044C104.921 62.5044 105.043 62.5347 105.166 62.5347C105.379 62.5347 105.532 62.5044 105.593 62.5044C105.685 62.4741 105.777 62.4438 105.868 62.4134L105.349 60.0189C104.891 59.928 104.432 59.8674 103.974 59.8068C103.424 59.7461 102.935 59.7158 102.385 59.7158Z" fill="#FFF1E1"/>
<path d="M104.218 36.8916L103.852 36.9219C103.607 36.9522 103.363 36.9825 103.118 37.0128L102.752 37.1038C102.263 37.225 101.804 37.3766 101.315 37.5887C100.49 38.0131 99.8792 38.4071 99.5126 38.7708L99.3598 38.9527C99.2681 39.074 99.2375 39.1649 99.2375 39.2558C99.2375 39.3771 99.2376 39.4377 99.2681 39.468C99.2987 39.5286 99.3292 39.5589 99.3903 39.5892L99.482 39.6498C99.5431 39.6802 99.6042 39.7105 99.6959 39.7408C99.7876 39.7711 99.8792 39.8014 100.001 39.8014C100.307 39.862 100.613 39.862 100.918 39.862C101.163 39.862 101.407 39.8317 101.682 39.7711C102.14 39.6802 102.507 39.5892 102.752 39.4983C103.363 39.3164 103.852 39.074 104.188 38.8012C104.279 38.7405 104.402 38.5587 104.524 38.3162L104.218 36.8916Z" fill="#FFF1E1"/>
<path d="M93.2485 38.3467H93.1263C93.0347 38.3467 92.943 38.3467 92.8513 38.377L92.7291 38.4073C92.6374 38.4376 92.5457 38.4376 92.4541 38.4679C92.3624 38.4982 92.2707 38.5285 92.2096 38.5589L92.0874 38.6195L91.8124 38.771L91.5985 38.9226L91.4457 39.0741L91.354 39.2257L91.3235 39.3772L91.354 39.5288L91.4457 39.6803L91.5985 39.8319L91.8124 39.9834C91.8429 40.0137 91.9957 40.0744 92.2402 40.1653C92.7596 40.3472 93.3097 40.4381 93.8902 40.4381C94.1652 40.4381 94.4097 40.4078 94.6847 40.3472C94.7458 40.3472 94.8986 40.2865 95.1125 40.1956C95.2042 40.1653 95.2653 40.1047 95.3264 40.0744C95.3569 40.0441 95.4486 39.9834 95.5708 39.8319C95.6625 39.7106 95.6931 39.6197 95.632 39.5591C95.632 39.5288 95.5708 39.4682 95.4486 39.3469C95.3875 39.2863 95.3264 39.2257 95.2347 39.1651L95.1125 39.0741L94.4097 38.7104C94.2263 38.6498 94.0125 38.5892 93.8291 38.5285C93.7374 38.4982 93.6458 38.4982 93.5541 38.4679C93.4319 38.3467 93.2791 38.3467 93.2485 38.3467Z" fill="#C6AA89"/>
<path d="M86.9844 31.4966H86.8928C86.465 31.5269 86.19 31.5875 86.0983 31.7391C86.0372 31.83 86.0066 31.9512 86.0677 32.1331L86.1594 32.3756L86.2816 32.5878L86.4344 32.7999L86.6177 32.9818L86.8316 33.1637L87.0761 33.3152L87.3511 33.4668L87.6567 33.588L87.9928 33.6789C88.2372 33.7092 88.4206 33.7396 88.5428 33.7396H88.7262C88.8484 33.7396 88.9706 33.7092 89.0623 33.6789C89.2762 33.6183 89.429 33.4971 89.5512 33.3152C89.6123 33.2243 89.6734 33.1333 89.704 33.0121L89.5512 32.3453C88.7262 31.7997 87.8706 31.4966 86.9844 31.4966Z" fill="#C6AA89"/>
<path d="M90.5595 26.374H90.4067C90.0095 26.374 89.6734 26.465 89.3373 26.5862C89.1845 26.6468 89.0622 26.7074 88.94 26.7984L88.7567 26.8893C88.5428 27.0409 88.39 27.1621 88.2983 27.344C88.2372 27.4349 88.2067 27.4955 88.2067 27.5864V27.6471C88.2067 27.738 88.2678 27.8289 88.3594 27.8895C88.4511 27.9502 88.6039 28.0108 88.7567 28.0714C88.94 28.1017 89.1845 28.132 89.4595 28.132C89.8873 28.1017 90.2234 28.0714 90.4373 28.0108C90.5595 27.9805 90.6512 27.9199 90.7429 27.8592C90.804 27.8289 90.8956 27.738 90.9873 27.5864C91.1095 27.3743 91.2012 26.9802 91.2623 26.4043C91.0484 26.4043 90.8345 26.374 90.5595 26.374Z" fill="#C6AA89"/>
<path d="M80.2009 58.9277H79.8647C79.2231 58.958 78.7953 59.0793 78.5508 59.2915C78.3369 59.5036 78.3675 59.7764 78.6119 60.1705C78.8564 60.4736 79.4064 60.8373 80.262 61.2313C80.5981 61.3829 80.9342 61.5041 81.2703 61.5647C81.6981 61.6557 82.0343 61.7163 82.3093 61.686C82.5843 61.686 82.8593 61.6254 83.1343 61.4738C83.1649 61.4738 83.1954 61.4435 83.2871 61.3829C83.6232 61.1404 83.8371 60.9585 83.9288 60.9282C84.051 60.8373 84.1732 60.7767 84.2343 60.7464L84.3566 59.8977C84.2343 59.8067 83.9899 59.6855 83.6232 59.5339C83.3176 59.4127 82.9204 59.2915 82.4315 59.2005C81.6981 59.0187 80.9342 58.9277 80.2009 58.9277Z" fill="#C6AA89"/>
<path d="M70.82 30.5874H70.7589C70.5756 30.5874 70.3922 30.648 70.1783 30.739C70.0561 30.7996 69.9339 30.8905 69.8728 30.9814C69.8117 31.0724 69.7811 31.1936 69.8117 31.3452C69.8422 31.4967 69.9033 31.618 70.0256 31.7392L70.1172 31.8301C70.1783 31.8908 70.27 31.9514 70.3617 32.012C70.7284 32.1939 70.9728 32.3151 71.0339 32.3454C71.1867 32.406 71.3395 32.4666 71.4923 32.5273C71.7978 32.6182 72.1034 32.7091 72.3784 32.7698C72.6534 32.8001 72.8673 32.8304 73.0201 32.8001C73.0507 32.8001 73.1423 32.8001 73.2646 32.7698C73.3257 32.7698 73.3562 32.7394 73.3868 32.7091C73.4785 32.6485 73.509 32.5576 73.509 32.4363C73.509 32.3151 73.4173 32.1939 73.2951 32.012C73.1118 31.7998 72.9895 31.6786 72.8979 31.618L72.9284 31.4058C72.6534 31.1936 72.2562 31.0117 71.7978 30.8299C71.4617 30.7086 71.2478 30.648 71.1867 30.6177C71.1256 30.6177 70.9728 30.5874 70.82 30.5874Z" fill="#C6AA89"/>
<path d="M80.1398 44.1058H79.9259C79.5286 44.1058 79.1925 44.1664 78.9175 44.2271C78.5814 44.318 78.3369 44.4392 78.1842 44.5302C77.7258 44.803 77.573 45.1364 77.7869 45.4698C77.9092 45.6516 78.123 45.8032 78.4286 45.9547C78.612 46.0457 78.8259 46.1366 79.0703 46.1972C79.3453 46.2579 79.6509 46.3185 79.987 46.3791C80.4453 46.4397 80.9343 46.4397 81.4843 46.4397C81.8509 46.4397 82.2482 46.4094 82.6454 46.3791C83.4704 46.2882 83.9593 46.2275 84.0816 46.1972C84.2955 46.1366 84.4788 46.0457 84.6621 45.8941L84.7538 45.3485L84.326 45.1061C84.051 44.9545 83.7455 44.803 83.4399 44.712C83.1343 44.5908 82.8288 44.4999 82.4926 44.4089L82.0037 44.2877L81.4843 44.1967L80.9648 44.1361C80.537 44.1058 80.262 44.0755 80.1398 44.1058Z" fill="#C6AA89"/>
<path d="M58.3529 36.3467C58.3223 36.3467 58.2612 36.3467 58.2307 36.3467L55.0528 37.9531C54.7778 38.1047 54.5333 38.2562 54.2889 38.4684C53.7083 38.9534 53.3722 39.408 53.2194 39.8021C53.1583 39.9839 53.1889 40.0749 53.25 40.1658C53.3111 40.1961 53.3416 40.2264 53.3722 40.2264C53.4944 40.2567 53.6166 40.2567 53.7389 40.2567C54.3194 40.2567 55.1445 40.0749 56.1528 39.7111C56.489 39.5899 56.8556 39.4383 57.2223 39.2868L57.8029 39.014C58.2307 38.8018 58.5668 38.5897 58.8113 38.3472C59.0557 38.135 59.239 37.8925 59.3307 37.65L59.3918 37.4682C59.3918 37.2863 59.3613 37.1347 59.3307 37.0135C59.3002 36.8923 59.239 36.771 59.1779 36.6801L59.0557 36.5589C58.8724 36.4073 58.6279 36.3467 58.3529 36.3467Z" fill="#C6AA89"/>
<path d="M98.0765 39.2559L97.7098 39.4074C97.4653 39.4983 97.2514 39.6196 97.0375 39.7408L96.732 39.953C96.5181 40.1046 96.3347 40.2561 96.1514 40.438C95.9681 40.6198 95.7847 40.8017 95.6014 40.9836L95.3569 41.2867C95.2347 41.4685 95.143 41.6504 95.0514 41.8019L94.9597 42.0444L94.9291 42.2566V42.4385L94.9597 42.6203L95.0514 42.7719L95.1736 42.8931C95.418 43.1053 95.7542 43.1053 96.2125 42.9234C96.6403 42.7416 97.1292 42.4081 97.7403 41.8929C98.1681 41.4988 98.4431 41.1351 98.657 40.7714C98.7487 40.5895 98.8098 40.438 98.8404 40.2864L98.8709 40.0439V39.8318L98.8098 39.6196L98.0765 39.2559Z" fill="#C6AA89"/>
<path d="M28.0408 26.2832H27.9186C27.5519 26.2832 27.1547 26.3438 26.7574 26.4044L26.3602 26.5257L26.0241 26.6469L25.7491 26.7985L25.5352 26.95L25.3824 27.1016L25.2907 27.2834L25.2296 27.4653V27.6472C25.2602 27.7987 25.3213 27.92 25.413 28.0412L25.5963 28.2231L25.8102 28.3746L26.0852 28.5262L26.4213 28.6474L26.8186 28.7383L27.2769 28.8293L27.7658 28.8899C28.2242 28.9505 28.4992 28.9505 28.6214 28.9505C28.8964 28.9505 29.1409 28.9202 29.3547 28.8899L29.6603 28.8293L29.9353 28.7383L30.1798 28.6474L30.3937 28.5262L30.577 28.3746C30.6687 28.2534 30.7603 28.1321 30.8215 28.0109L30.3326 26.8288L30.2409 26.7379C30.1798 26.6772 30.0881 26.6469 29.9964 26.5863C29.9659 26.556 29.7825 26.4954 29.477 26.4044C29.1714 26.3438 28.8964 26.2832 28.6519 26.2832C28.4686 26.2832 28.2853 26.2832 28.0408 26.2832Z" fill="#C6AA89"/>
<path d="M24.7713 29.0415H24.6185C24.3435 29.0415 24.038 29.1022 23.7018 29.1628C23.3352 29.2234 22.9379 29.3446 22.5407 29.4659C22.4185 29.4962 22.2962 29.5568 22.2046 29.5871C21.9601 29.7084 21.8379 29.769 21.8073 29.769C21.624 29.8902 21.4407 30.0115 21.3184 30.1024L21.1351 30.254L21.0129 30.4055L20.9518 30.5571L20.9212 30.7086L20.9518 30.8602L21.0129 30.9814L21.1351 31.1026L21.2268 31.1633C21.2879 31.1936 21.349 31.2239 21.4407 31.2542C21.5018 31.2845 21.5934 31.3148 21.6851 31.3148C21.8379 31.3451 22.0518 31.3754 22.3574 31.3754C22.8768 31.3754 23.4268 31.2542 23.9769 31.0723C24.3435 30.9511 24.5269 30.8602 24.5574 30.8299C24.7713 30.7086 24.9241 30.5874 25.0769 30.4661C25.3519 30.1933 25.4741 29.9205 25.4436 29.6174C25.413 29.4962 25.3825 29.375 25.2908 29.284C25.2908 29.284 25.1991 29.1931 24.9547 29.0112L24.7713 29.0415Z" fill="#C6AA89"/>
<path d="M25.8714 30.2539H25.7186C25.5352 30.2842 25.413 30.4055 25.3213 30.5873L25.2602 30.7389C25.2297 30.8601 25.1991 30.9814 25.1686 31.1329L25.138 31.3754C25.138 31.5876 25.1686 31.7997 25.1991 31.9816L25.2602 32.2847C25.2908 32.4666 25.3519 32.6787 25.413 32.8606C25.5963 33.4365 25.9019 33.9215 26.2686 34.3155C26.4825 34.558 26.6964 34.7398 26.8797 34.8308C27.0936 34.9217 27.2464 34.952 27.3075 34.952C27.3686 34.952 27.4297 34.9217 27.4603 34.9217L27.3992 32.0422C27.3075 31.83 27.2158 31.6482 27.1242 31.4663L26.9714 31.2238C26.8797 31.0723 26.7575 30.9207 26.6353 30.7995L26.4519 30.6176C26.3297 30.5267 26.2075 30.4358 26.0853 30.3448L25.9019 30.2539H25.8714Z" fill="#C6AA89"/>
<path d="M22.1129 33.5576C21.6851 33.5576 21.3184 33.6182 20.9823 33.7092C20.8907 33.7395 20.7684 33.7698 20.6768 33.8304C20.6156 33.8304 20.4934 33.9213 20.2795 34.0729C19.8823 34.376 19.7601 34.7094 19.974 35.0731L20.0962 35.2853L20.2795 35.4672L20.524 35.6187L20.8295 35.74L21.1962 35.8612L21.624 35.9521L22.1129 36.0128C22.6629 36.0431 23.0907 36.0734 23.4268 36.0734H23.8546L24.2213 36.0431L24.5269 35.9824L24.7713 35.8915L24.9547 35.8006L25.0769 35.6793L25.1686 35.5278L25.1991 35.3459L25.0463 34.6791C24.9547 34.5579 24.8324 34.4366 24.6491 34.3154C24.6186 34.2851 24.4658 34.1941 24.1908 34.0729C24.0685 34.0123 23.9463 33.982 23.7935 33.9213C23.2435 33.7698 22.8768 33.6789 22.6935 33.6789C22.5407 33.5879 22.2963 33.5576 22.1129 33.5576Z" fill="#C6AA89"/>
<path d="M27.4297 35.1948L27.1852 35.2251C26.6963 35.3161 26.2074 35.5282 25.7185 35.8617C25.5658 35.9829 25.413 36.1041 25.2602 36.2254L25.0768 36.4072C24.863 36.6497 24.7102 36.8922 24.5879 37.1347C24.4657 37.4075 24.4046 37.65 24.4046 37.9531L24.4352 38.044C24.4352 38.1046 24.4657 38.1652 24.4963 38.2259C24.5268 38.2865 24.5574 38.3471 24.5879 38.3774C24.7102 38.529 24.863 38.6502 25.0463 38.7108C25.2296 38.7715 25.4741 38.7715 25.7185 38.7411C26.0241 38.7108 26.2991 38.5896 26.5436 38.3774C26.6658 38.2865 26.8186 38.1652 26.9714 38.044L27.1852 37.8318C27.338 37.6803 27.4908 37.4984 27.6436 37.3166L27.4297 35.1948Z" fill="#C6AA89"/>
<path d="M27.7353 39.0137L27.4603 39.0743C26.727 39.2258 26.1158 39.4683 25.5658 39.7714C25.1075 40.0442 24.863 40.3473 24.8325 40.6504V40.8323L24.863 40.9232C24.863 40.9535 24.8936 41.0445 25.0158 41.2566C25.1075 41.4385 25.2297 41.6507 25.413 41.9235C25.5047 42.0447 25.5964 42.1356 25.688 42.1963C25.7797 42.2872 25.9019 42.3478 25.9936 42.3781C26.1158 42.4084 26.2075 42.4691 26.2992 42.4691C26.5131 42.5297 26.7575 42.5297 27.002 42.4994C27.1853 42.4691 27.3687 42.3781 27.5214 42.2569L27.6437 42.166C27.7353 42.1053 27.7964 42.0144 27.8576 41.9235L27.7353 39.0137Z" fill="#C6AA89"/>
<path d="M22.1435 38.3774H21.8685C21.3184 38.4078 20.9518 38.529 20.7379 38.7109L20.6462 38.8018C20.5851 38.8927 20.5545 38.9533 20.5545 39.014C20.5545 39.0746 20.524 39.1352 20.5545 39.1655C20.5851 39.2868 20.5851 39.3777 20.6156 39.408C20.7073 39.5292 20.7684 39.5899 20.799 39.6202C20.8601 39.6808 20.9518 39.7414 21.0129 39.802C21.074 39.8627 21.1657 39.893 21.2573 39.9536C21.4712 40.0445 21.5935 40.1051 21.624 40.1354C22.1129 40.287 22.6018 40.3779 23.0602 40.3476C23.1213 40.3476 23.213 40.3476 23.2741 40.3476H23.3657C23.4269 40.3476 23.488 40.3173 23.5796 40.287C23.7935 40.2264 23.9769 40.1051 24.1602 39.9536L24.4658 39.1655C24.3435 39.0746 24.1908 38.9837 24.038 38.8927C23.8852 38.8018 23.763 38.7412 23.6102 38.6805L23.3963 38.5896C23.2435 38.529 23.0907 38.4987 22.9379 38.4684L22.6935 38.4381C22.5407 38.3774 22.3574 38.3774 22.1435 38.3774Z" fill="#C6AA89"/>
<path d="M20.585 35.9224L20.2795 35.9527C19.6683 36.0436 19.1183 36.1952 18.5989 36.468C18.0488 36.7711 17.5294 37.1348 17.071 37.5894C16.9488 37.7107 16.8266 37.8622 16.7349 37.9835L16.6127 38.1956C16.5516 38.3169 16.4905 38.4684 16.4599 38.5897C16.4599 38.6503 16.4905 38.6806 16.4905 38.7109L16.521 38.7715C16.5516 38.8018 16.6127 38.8322 16.6432 38.8625C16.8266 38.9231 17.0405 38.9534 17.2849 38.9231C17.621 38.8625 17.8349 38.8018 17.9266 38.7715C18.2016 38.6806 18.5072 38.5897 18.7822 38.4684L19.5156 38.135L19.76 37.9835C19.9128 37.8925 20.0656 37.7713 20.1572 37.6501C20.2795 37.5288 20.3711 37.4076 20.4322 37.2863L20.5239 37.0742C20.5545 36.9226 20.585 36.7711 20.585 36.6195V35.9224Z" fill="#C6AA89"/>
<path d="M53.1583 20.6758H53.0972C52.4249 20.6758 51.8138 20.7364 51.2943 20.888C50.9582 20.9789 50.7138 21.1001 50.5304 21.2517L50.4082 21.3729V21.5548L50.4693 21.7366L50.5915 21.8882L50.7749 22.0397L51.0193 22.161L51.3249 22.2822L51.6916 22.4035L52.1194 22.4944L52.6083 22.5853C53.1583 22.646 53.525 22.6763 53.6778 22.6763C54.075 22.6763 54.5639 22.4641 55.1139 22.0397L55.6028 20.9789C55.2667 20.888 54.9306 20.8273 54.5639 20.7667C54.1055 20.7061 53.8305 20.6758 53.7389 20.6758C53.5555 20.6758 53.3416 20.6758 53.1583 20.6758Z" fill="#AA8962"/>
<path d="M47.0775 22.0396H46.9247C46.8331 22.0396 46.772 22.0396 46.6803 22.0699L46.5886 22.1002C46.5275 22.1305 46.4664 22.1305 46.4358 22.1608C46.2831 22.2517 46.2219 22.3427 46.2831 22.4639C46.2831 22.4942 46.3136 22.5548 46.3442 22.5851C46.4358 22.6761 46.5275 22.767 46.5581 22.767L46.8331 22.9489C46.9553 23.0398 47.1386 23.1004 47.322 23.1913C47.9026 23.4338 48.7581 23.646 49.8582 23.8582L51.2332 23.8885C51.1416 23.7672 51.0499 23.6763 50.9277 23.5854L50.7443 23.4338C50.6221 23.3429 50.4999 23.252 50.3471 23.161C50.0721 22.9792 49.736 22.7973 49.3387 22.6458C49.1859 22.5851 49.0026 22.5245 48.8498 22.4639L48.6054 22.373C48.4526 22.3123 48.2692 22.282 48.0859 22.2517C47.8109 22.1002 47.4442 22.0699 47.0775 22.0396Z" fill="#AA8962"/>
<path d="M46.5887 20.6455H46.3137C45.5803 20.6455 44.8775 20.7364 44.2358 20.8577C43.6247 20.9789 43.1663 21.1002 42.8608 21.2214C42.708 21.282 42.5858 21.3426 42.4941 21.373L42.4024 21.4639L42.3413 21.5548C42.3413 21.6458 42.3413 21.7064 42.3719 21.7367C42.4024 21.767 42.433 21.7973 42.5246 21.8276C42.708 21.9185 42.8608 21.9489 42.9219 21.9792C43.0441 22.0095 43.1663 22.0398 43.3191 22.0701L43.6552 22.1004C44.1136 22.161 44.4803 22.161 44.7553 22.161C44.9386 22.161 45.1525 22.1307 45.4886 22.1004C45.7025 22.0701 46.0387 22.0095 46.5276 21.9185C46.8942 21.8579 47.1387 21.767 47.2609 21.6457C47.3526 21.5548 47.4443 21.4639 47.4443 21.373V21.3123C47.4443 21.2517 47.4137 21.2214 47.4137 21.1608L47.322 20.6455C47.1081 20.6455 46.8942 20.6455 46.5887 20.6455Z" fill="#AA8962"/>
<path d="M38.3079 22.1914H38.094C37.819 22.1914 37.5745 22.2217 37.3912 22.252L37.2384 22.2823C37.1467 22.3126 37.055 22.3126 36.9939 22.343L36.7495 22.4642C36.6578 22.5248 36.5967 22.5551 36.5356 22.6158L36.4745 22.7067C36.4439 22.7673 36.4439 22.8279 36.4439 22.8582C36.4745 22.9189 36.505 22.9795 36.5661 23.0401L36.6578 23.131C36.78 23.222 36.9328 23.3129 37.055 23.3735L37.2689 23.4948C37.7273 23.7069 38.2773 23.8888 38.8884 24.0403L41.6385 22.8582C41.0579 22.6461 40.4774 22.4945 39.8968 22.3733L39.5912 22.3126C39.4079 22.2823 39.194 22.252 39.0107 22.2217C38.7051 22.1914 38.4606 22.1914 38.3079 22.1914Z" fill="#AA8962"/>
<path d="M51.5694 23.0092H51.4777C51.2332 23.0395 51.0805 23.1607 51.0193 23.4032V23.676L51.0805 23.9791L51.2332 24.2822L51.4471 24.6156L51.7221 24.9793L52.0583 25.3431L52.4555 25.7371L52.9139 26.1311L53.4333 26.5555L53.9222 23.7972C53.8 23.7366 53.525 23.6154 53.0666 23.4335L52.5777 23.2516C52.1194 23.0698 51.7833 22.9789 51.5694 23.0092Z" fill="#AA8962"/>
<path d="M65.1059 25.6162H65.0143C64.9532 25.6162 64.8004 25.6768 64.5559 25.7981C64.4948 25.7981 64.2504 25.9799 63.8226 26.3133C63.5476 26.5558 63.242 26.8286 62.8753 27.1924C62.4475 27.6773 62.1725 27.9804 62.0503 28.132L63.792 29.8597C64.2809 29.6778 64.617 29.4656 64.8004 29.2231C65.0448 28.92 65.2587 28.4654 65.5032 27.8289C65.5643 27.5864 65.6254 27.3742 65.656 27.1924L65.6865 26.8892C65.6865 26.7074 65.6865 26.5255 65.656 26.374L65.5949 26.1618C65.5337 26.0102 65.4726 25.889 65.4115 25.7678C65.381 25.6768 65.2587 25.6465 65.1059 25.6162Z" fill="#AA8962"/>
<path d="M66.4505 31.375C66.0532 31.375 65.7782 31.4053 65.5949 31.4356C65.5032 31.4659 65.381 31.4962 65.2893 31.5266C65.1976 31.5569 65.106 31.5872 65.0143 31.6478L64.8921 31.7084L64.6476 31.9206L64.4643 32.1024L64.3421 32.2843L64.2809 32.4662V32.648L64.3726 32.8299L64.5254 33.0118L64.7393 33.1633C65.1365 33.4058 65.5643 33.527 66.1143 33.5573C66.5116 33.5573 67.1227 33.4361 67.9172 33.2239C68.4061 33.0724 68.7728 32.9511 69.0783 32.8299C69.3839 32.7087 69.5367 32.5874 69.5367 32.5268V32.4965C69.5061 32.4359 69.4756 32.3752 69.445 32.3449C69.4144 32.3146 69.3533 32.2843 69.2922 32.2237C69.2311 32.1934 69.1394 32.1631 69.0478 32.1024L68.895 32.0418C68.8033 32.0115 68.6811 31.9812 68.5589 31.9206L67.9172 31.6175C67.7949 31.5872 67.7033 31.5569 67.5811 31.5266L67.4283 31.4962C67.306 31.4659 67.2144 31.4659 67.0921 31.4356C66.8782 31.375 66.6644 31.375 66.4505 31.375Z" fill="#AA8962"/>
<path d="M74.0284 35.0732H73.8757L73.7534 35.1036C73.6618 35.1036 73.5701 35.1339 73.4784 35.1642C73.3868 35.1945 73.3256 35.2248 73.234 35.2551C73.0812 35.346 72.9284 35.437 72.8062 35.5885C72.5923 35.8613 72.5006 36.2857 72.5923 36.8312C72.7145 37.4375 73.0201 37.9527 73.509 38.3771C73.8451 38.6802 74.2118 38.8317 74.609 38.8317C75.159 38.8317 75.7702 38.5589 76.4424 38.0134C76.6869 37.8012 76.9008 37.6193 77.0535 37.4375C77.1146 37.3465 77.1758 37.2556 77.2369 37.1344L77.298 36.9828C77.3285 36.8616 77.3591 36.8009 77.3591 36.7403C77.3591 36.6191 77.2674 36.4978 77.1452 36.3766C76.9924 36.2553 76.7785 36.1341 76.5035 35.9826L76.1063 35.5885C75.3424 35.2854 74.6396 35.1036 74.0284 35.0732Z" fill="#AA8962"/>
<path d="M61.5308 46.8941H61.4085L61.2863 46.9244C61.2252 46.9547 61.1335 46.9547 61.0724 47.0154C61.0113 47.0457 60.9502 47.1063 60.9196 47.1366C60.8585 47.1972 60.828 47.2578 60.7974 47.3185L60.7668 47.4397V47.6519C60.7974 48.0762 61.0419 48.5612 61.5002 49.0765C61.653 49.2583 61.8363 49.4099 62.0502 49.5917C62.1724 49.713 62.3252 49.8039 62.478 49.9252L62.7225 50.0464C63.2114 50.2889 63.7919 50.4101 64.4642 50.4404L64.8614 48.7127C64.4947 48.2581 63.9753 47.864 63.3336 47.5003C63.1197 47.3791 62.8752 47.2881 62.6308 47.1669L62.2641 47.0154C61.8974 46.9244 61.653 46.8638 61.5308 46.8941Z" fill="#AA8962"/>
<path d="M82.1871 55.1992H82.0648C81.5759 55.2295 81.2704 55.4114 81.1482 55.6842C81.0259 55.957 81.1482 56.351 81.5454 56.8663C81.9732 57.4422 82.5843 58.0181 83.4093 58.6243C83.6538 58.8062 83.9594 58.9274 84.2649 59.079C84.4177 59.1396 84.5705 59.2002 84.7538 59.2608C84.8149 59.2608 84.9066 59.2911 84.9983 59.2911C85.5788 59.2608 85.9761 58.988 86.2511 58.4121C86.3428 58.2 86.3733 57.9878 86.3733 57.7756C86.3733 57.6847 86.3428 57.5937 86.3122 57.5028L86.2511 57.3816L86.0066 56.7754C84.6316 55.7751 83.4093 55.2598 82.1871 55.1992Z" fill="#AA8962"/>
<path d="M86.1899 51.2593H85.9455C85.151 51.2896 84.4176 51.4411 83.7454 51.6836C83.287 51.8655 82.9509 52.017 82.7065 52.1989C82.5842 52.2898 82.4926 52.3808 82.4315 52.4414L82.3703 52.5626L82.3398 52.6839C82.3703 52.7445 82.4009 52.8354 82.4315 52.896C82.5231 53.0173 82.7065 53.1385 82.9204 53.2598C83.1954 53.381 83.4398 53.4719 83.6537 53.5022C83.8065 53.5326 83.9898 53.5629 84.1426 53.5629C84.2649 53.5932 84.4787 53.5932 84.7538 53.5932C85.1204 53.5932 85.5482 53.5326 86.0066 53.4416L86.1593 53.4113C86.251 53.381 86.3427 53.3507 86.4038 53.3204C86.5566 53.2295 86.6788 53.1385 86.7705 53.0173C86.801 52.987 86.8622 52.8657 86.9538 52.6536C86.9844 52.5626 87.0149 52.4717 87.0149 52.4111C87.0149 52.3201 87.0149 52.2292 87.0149 52.1383C87.0149 52.0474 86.9844 51.9564 86.9844 51.8655L86.9538 51.3502C86.7399 51.2593 86.4955 51.2593 86.1899 51.2593Z" fill="#AA8962"/>
<path d="M121.147 49.5312H121.086C120.933 49.5312 120.78 49.5616 120.597 49.6222C120.413 49.7131 120.23 49.804 120.047 49.9253L119.772 50.1072C119.191 50.5315 118.61 51.1377 117.969 51.8955L118.305 54.7143C118.397 54.8356 118.58 54.8962 118.794 54.9265H118.947C119.038 54.8962 119.16 54.8659 119.283 54.8053C119.497 54.684 119.772 54.5022 120.016 54.2294C120.138 54.1081 120.291 53.9263 120.444 53.7747L120.78 53.3504C120.994 53.0776 121.147 52.8048 121.299 52.532L121.513 52.1379C121.636 51.8652 121.727 51.6227 121.819 51.3802L121.911 51.0165C121.972 50.774 121.972 50.5315 121.972 50.3193C121.941 50.1071 121.849 49.9253 121.758 49.804C121.697 49.7434 121.636 49.6828 121.574 49.6525C121.483 49.5919 121.361 49.5616 121.147 49.5312Z" fill="#AA8962"/>
<path d="M122.705 45.5605H122.583C121.819 45.5909 121.055 45.7727 120.291 46.0758C119.527 46.4395 119.069 46.8033 119.008 47.1367C118.977 47.167 118.977 47.2882 118.977 47.4701C118.977 47.5307 119.008 47.5913 119.038 47.652C119.13 47.8338 119.313 48.0157 119.619 48.1672C119.985 48.4097 120.566 48.5007 121.422 48.5007C121.819 48.5007 122.063 48.4703 122.124 48.4703C122.277 48.44 122.43 48.44 122.583 48.4097C122.888 48.3491 123.163 48.2582 123.438 48.1672C123.499 48.1369 123.713 48.046 123.988 47.8944L124.294 47.7126L124.538 47.5307L124.722 47.3185L124.844 47.1064L124.875 46.8942L124.844 46.682L124.752 46.4395L124.6 46.1971L123.347 45.6212C123.163 45.5909 122.949 45.5605 122.705 45.5605Z" fill="#AA8962"/>
<path d="M113.874 30.5571L113.63 30.7996C113.141 31.3149 112.682 31.8908 112.316 32.6182C111.919 33.376 111.674 34.0428 111.582 34.6187C111.491 35.1946 111.582 35.5583 111.827 35.6796C111.98 35.7705 112.163 35.8008 112.346 35.7705C112.56 35.7402 112.805 35.5887 113.049 35.3765C113.477 34.9521 113.844 34.4975 114.119 34.0125L114.333 33.6185L114.516 33.2244L114.638 32.8607L114.73 32.5273L114.76 32.1939L114.73 31.8908L114.669 31.618L114.546 31.3452L113.874 30.5571Z" fill="#AA8962"/>
<path d="M116.991 28.5869H116.96C116.838 28.5869 116.716 28.6475 116.655 28.7385L116.594 28.8597V29.0113C116.594 29.2234 116.716 29.4962 116.899 29.86C117.296 30.5571 117.694 31.1027 118.121 31.527C118.244 31.6483 118.366 31.7392 118.458 31.8301L118.61 31.9211C118.702 31.9817 118.794 31.9817 118.885 31.9817C118.916 31.9817 118.916 31.9817 118.946 31.9817L119.435 31.6483C119.435 31.4967 119.405 31.3755 119.374 31.2239L119.313 31.0117C119.252 30.8602 119.191 30.7086 119.099 30.5268C118.794 29.9812 118.427 29.5265 118.03 29.1628C117.785 28.9506 117.571 28.7991 117.388 28.7082L117.266 28.6475C117.144 28.5869 117.052 28.5869 116.991 28.5869Z" fill="#AA8962"/>
<path d="M117.327 32.3149H117.205C116.869 32.3149 116.563 32.3453 116.227 32.3756L115.952 32.4362C115.769 32.4665 115.616 32.5271 115.463 32.5877C115.035 32.7696 114.791 32.9818 114.699 33.2849C114.699 33.3455 114.699 33.4061 114.699 33.4364C114.73 33.5577 114.76 33.6486 114.791 33.6486C114.852 33.7395 114.974 33.8305 115.127 33.8911C115.188 33.9214 115.28 33.9517 115.371 33.982L115.494 34.0123C115.585 34.0426 115.677 34.0426 115.799 34.0729C115.983 34.1033 116.227 34.1336 116.533 34.1336C116.594 34.1336 116.838 34.1336 117.235 34.0729C117.388 34.0426 117.541 34.0426 117.724 34.0123C118.03 33.9517 118.366 33.8608 118.702 33.7698C118.916 33.7092 119.099 33.6183 119.252 33.5577C119.313 33.5274 119.374 33.4667 119.497 33.3758C119.527 33.3455 119.558 33.2849 119.588 33.2243L119.741 32.5877C119.374 32.4968 119.038 32.4362 118.702 32.4059C118.61 32.3756 118.366 32.3756 117.908 32.3453C117.663 32.3149 117.48 32.3149 117.327 32.3149Z" fill="#C6AA89"/>
<path d="M115.28 34.1641L115.005 34.3156L114.73 34.4672C114.546 34.5884 114.394 34.7097 114.21 34.8612C114.058 35.0128 113.874 35.1643 113.721 35.3159C113.569 35.4674 113.416 35.6493 113.263 35.8614L113.049 36.1646L112.896 36.4373C112.805 36.5889 112.744 36.7404 112.713 36.892C112.682 37.0132 112.652 37.1345 112.682 37.2557L112.713 37.4073L112.774 37.5285L112.866 37.6194L113.019 37.6801C113.141 37.7104 113.294 37.7407 113.477 37.7104C113.599 37.6801 113.752 37.6498 113.905 37.5891L114.119 37.4679C114.271 37.377 114.424 37.286 114.608 37.1648C114.76 37.0435 114.944 36.892 115.127 36.7404L115.402 36.4677C115.83 35.9827 116.105 35.5887 116.227 35.2855L116.288 35.0734V34.8915L116.227 34.74L116.105 34.6187L115.952 34.5278L115.28 34.1641Z" fill="#C6AA89"/>
<path d="M116.471 46.5908H116.41C116.196 46.6211 116.013 46.6818 115.86 46.803C115.799 46.8333 115.769 46.8939 115.738 46.9545L115.677 47.0455C115.646 47.1061 115.616 47.1667 115.616 47.2273L115.585 47.3183C115.585 47.3789 115.585 47.4698 115.585 47.5304L115.677 47.8942C115.738 48.1367 115.83 48.3488 115.952 48.561C116.074 48.7732 116.196 48.9853 116.349 49.1975L116.594 49.5006C116.777 49.6825 116.991 49.8643 117.205 50.0462C117.663 50.4099 118.122 50.6221 118.519 50.5918C118.977 50.5615 119.283 50.3493 119.497 49.9856L119.558 49.8643L119.466 48.8338C119.283 48.561 119.069 48.3488 118.885 48.1063L118.61 47.8032C118.427 47.6214 118.244 47.4395 118.06 47.288C117.419 46.8333 116.899 46.6211 116.471 46.5908Z" fill="#C6AA89"/>
<path d="M99.6959 62.4131C99.5737 62.4131 99.3903 62.4131 99.0848 62.4434L98.7486 62.4737L98.4431 62.5343L98.1681 62.6253L97.9236 62.7162C97.7708 62.7768 97.618 62.8677 97.4958 62.989L97.3125 63.1405L97.1597 63.3224C97.1291 63.3527 97.1291 63.4436 97.1597 63.6255C97.2208 63.7771 97.2819 63.868 97.3125 63.8983C97.3736 63.9589 97.4347 64.0195 97.5264 64.0802C97.7097 64.2014 97.9542 64.3226 98.2292 64.4136C98.7486 64.5954 99.3903 64.7167 100.154 64.7167C100.215 64.7167 100.399 64.7167 100.704 64.6864C100.949 64.6561 101.224 64.6257 101.499 64.5954C101.957 64.5348 102.385 64.4136 102.782 64.2317C102.904 64.1711 102.996 64.1105 103.088 64.0499C103.149 64.0195 103.24 63.9286 103.393 63.7467L103.607 63.1102C103.332 62.989 103.057 62.8981 102.782 62.8374L102.354 62.7162C102.079 62.6556 101.774 62.595 101.499 62.5343C100.949 62.4737 100.338 62.4131 99.6959 62.4131Z" fill="#C6AA89"/>
<path d="M76.8091 65.1411H76.534C75.8312 65.1714 75.0673 65.2624 74.2423 65.4442L74.4562 68.6874C75.1896 68.8996 76.0146 68.9905 76.9924 68.9602C77.7257 68.9299 78.5508 68.8693 79.4369 68.7177C79.8342 68.6571 80.1703 68.5662 80.4453 68.4753L80.8425 68.3237C81.6064 68.0206 81.9426 67.6569 81.8814 67.2325C81.8814 67.2022 81.8509 67.1113 81.7898 66.9294C81.6981 66.8082 81.5759 66.6566 81.3925 66.5354C81.1175 66.3232 80.7203 66.111 80.2008 65.8686C79.7119 65.6564 79.1008 65.4745 78.3674 65.2927C78.0313 65.2017 77.5119 65.1411 76.8091 65.1411Z" fill="#C6AA89"/>
<path d="M76.3202 59.1392H76.2591C75.9229 59.1695 75.4646 59.321 74.9146 59.5938C74.4257 59.8666 73.8145 60.3213 73.0812 60.9275L73.5395 63.3826C73.9673 63.3826 74.4257 63.1704 74.9146 62.8067L75.159 62.5945C75.3118 62.443 75.4646 62.2914 75.6479 62.1096L75.984 61.7155C76.1979 61.4731 76.3507 61.2306 76.5035 61.0184C76.6563 60.8062 76.748 60.5941 76.8396 60.4122C76.9313 60.2303 76.9924 60.0788 76.9924 59.9272V59.7151C76.9924 59.5332 76.9007 59.3816 76.7785 59.2604C76.748 59.2301 76.6868 59.1998 76.6257 59.1695C76.4424 59.1695 76.3507 59.1392 76.3202 59.1392Z" fill="#FFF1E1"/>
<path d="M77.4813 37.5894H77.4202C77.298 37.5894 77.1146 37.6197 76.9619 37.6803C76.8091 37.7106 76.6868 37.7712 76.5341 37.8318L76.3202 37.9531C75.8618 38.1956 75.3729 38.5896 74.8535 39.0746L75.2507 40.7416C75.2507 40.7719 75.3118 40.7719 75.3424 40.7719C75.6479 40.7416 76.1979 40.4688 77.0841 39.8929C77.2674 39.7717 77.4202 39.6505 77.5119 39.5595C77.6341 39.4383 77.7258 39.317 77.8174 39.2261L77.9397 39.0443C78.1536 38.7108 78.2147 38.3774 78.1536 38.044C78.123 37.8925 78.0619 37.8015 77.9702 37.7106C77.9397 37.6803 77.8786 37.65 77.8174 37.6197L77.7258 37.5894C77.6341 37.6197 77.573 37.5894 77.4813 37.5894Z" fill="#DAC5AC"/>
<path d="M75.6174 34.4971L75.3423 35.2548C75.6785 35.5579 76.0146 35.8307 76.259 36.0126C76.3813 36.1035 76.5035 36.1945 76.6257 36.2854C76.6868 36.346 76.8396 36.4369 77.0535 36.5582C77.6035 36.831 77.9396 36.8613 78.0619 36.6491C78.123 36.4672 77.9397 36.1641 77.5424 35.8004C77.1452 35.4064 76.5035 34.982 75.6174 34.4971Z" fill="#DAC5AC"/>
<path d="M19.9434 29.4658H19.8823C19.1183 29.5264 18.2628 30.072 17.2544 31.1026C16.8877 31.5269 16.6433 31.9513 16.5822 32.3756C16.5822 32.6484 16.7349 32.8 17.0711 32.8C17.1933 32.8 17.285 32.7697 17.4377 32.7393C17.6822 32.6484 17.835 32.5878 17.9572 32.5272L19.3934 31.3148C19.4545 31.2844 19.5767 31.1329 19.7906 30.9207C20.1267 30.557 20.3101 30.2236 20.3406 29.9508V29.8599C20.3406 29.7992 20.3406 29.7386 20.3101 29.678C20.2795 29.6174 20.2489 29.5871 20.2184 29.5264C20.1878 29.4961 20.0962 29.4658 19.9434 29.4658Z" fill="#DAC5AC"/>
<path d="M48.2387 47.6214L48.0554 47.6518C47.6276 47.7427 47.047 48.0761 46.3137 48.6823L45.947 49.0157C45.6109 49.3188 45.397 49.5007 45.3053 49.5916C45.1831 49.7129 44.9997 49.925 44.7553 50.2584C44.3275 50.8343 44.1442 51.2587 44.1442 51.4709C44.1442 51.6224 44.2053 51.7437 44.3581 51.8346C44.4803 51.8952 44.572 51.9255 44.6025 51.9255C44.7247 51.9558 44.847 51.9558 44.9997 51.9255C45.0303 51.9255 45.1525 51.8952 45.3359 51.8649C45.4887 51.8043 45.6414 51.7437 45.7942 51.6527L48.2082 49.3794C48.2999 49.2582 48.3915 49.1673 48.4832 49.046C48.636 48.8339 48.7582 48.652 48.8193 48.4701C48.8499 48.3792 48.8804 48.3186 48.911 48.2276C48.9415 48.0458 48.9415 47.9245 48.911 47.9245C48.8804 47.8033 48.8193 47.7124 48.7276 47.6518C48.5749 47.6214 48.4221 47.5911 48.2387 47.6214Z" fill="#FFF1E1"/>
<path d="M43.7469 52.2896H43.4719C43.2886 52.2896 43.1358 52.3199 42.983 52.3805C42.8302 52.4108 42.6774 52.4714 42.5552 52.532L42.3719 52.6533C42.2497 52.7442 42.1274 52.8351 42.0358 52.9261L41.883 53.0776C41.7913 53.2292 41.7302 53.3504 41.6996 53.502C41.6691 53.6838 41.6691 54.0172 41.7302 54.4113C41.7607 54.6235 41.8219 54.775 41.9135 54.8962C42.0052 55.0781 42.1274 55.1994 42.2802 55.26C42.3413 55.2903 42.433 55.3206 42.4941 55.3509C42.5552 55.3812 42.6469 55.3812 42.7997 55.3812C42.8302 55.3812 42.8608 55.3812 42.8913 55.3812L44.9081 52.4108C44.5414 52.3199 44.1747 52.2896 43.7469 52.2896Z" fill="#FFF1E1"/>
<path d="M39.6524 54.5933L39.469 54.6236L39.3162 54.6842L39.194 54.8054L39.0718 54.957L38.9801 55.1692L38.919 55.4116L38.8579 55.7148C38.8273 55.9269 38.8273 56.1694 38.8273 56.4422C38.8579 56.715 38.8884 56.9878 38.9496 57.2303L39.0412 57.594C39.1023 57.8062 39.194 58.0183 39.2857 58.2002C39.3773 58.3821 39.469 58.5639 39.5912 58.7155L39.7746 58.9277C40.1107 59.2611 40.4774 59.3823 40.8441 59.3217C41.0885 59.2914 41.2413 59.2004 41.3024 59.1095C41.3941 59.0186 41.4858 58.867 41.5469 58.6852C41.5774 58.6549 41.608 58.5033 41.6691 58.2305L41.6385 57.0484L41.4858 56.6241C41.3635 56.3513 41.2413 56.1088 41.1191 55.8663C40.9968 55.6541 40.8441 55.442 40.7218 55.2904C40.5691 55.1085 40.4163 54.9873 40.2635 54.8661L40.019 54.7145L39.744 54.5933H39.6524Z" fill="#FFF1E1"/>
<path d="M70.4533 44.8936H70.27C69.7505 44.8936 69.231 44.9542 68.681 45.0451L67.9171 45.3179C67.4282 45.5301 66.9393 45.7726 66.481 46.0757C65.1059 47.0153 63.9142 48.4399 62.9364 50.3797L69.6894 58.2301C70.5755 58.1998 71.3089 58.0483 71.8895 57.7755C72.2561 57.6542 72.5617 57.2905 72.7756 56.6843C74.3951 55.9872 75.3729 55.4719 75.709 55.0779C76.0757 54.7747 76.3813 54.3504 76.6563 53.8654C76.7785 53.2895 76.8702 52.744 76.9007 52.1984C76.9619 51.1072 76.7785 50.0766 76.4118 49.1067L76.0757 48.3793C75.8313 47.8943 75.5257 47.4396 75.1896 47.0153C74.9451 46.7122 74.6701 46.4091 74.3645 46.1666L73.9062 45.8332C73.6006 45.621 73.2645 45.4391 72.8978 45.3179C72.1645 45.0148 71.3394 44.8936 70.4533 44.8936Z" fill="#585E6F"/>
<path d="M58.3835 19.918H58.078C57.7724 19.918 57.3446 20.0089 56.764 20.1908C56.6112 20.2514 56.4585 20.312 56.3057 20.4029L55.4806 20.8273C54.7167 21.2819 54.0139 21.9185 53.3723 22.7065C52.7 23.5552 52.0583 25.4042 51.5083 28.223L62.2336 28.7686C62.6309 28.4049 62.967 28.0412 63.1809 27.7077C63.2726 27.6168 63.3948 27.3743 63.5781 26.95C63.6392 26.7984 63.6698 26.6469 63.7004 26.4953C63.7309 25.586 63.7309 24.9192 63.6392 24.5251C63.5476 23.9796 63.4254 23.4643 63.242 22.8884L62.9364 22.3428C62.7226 22.0094 62.4781 21.676 62.1725 21.4032C61.8975 21.1304 61.5614 20.8879 61.1947 20.6757C60.828 20.4636 60.4308 20.312 60.003 20.1908L59.3308 20.0089L58.5669 19.918H58.3835Z" fill="#585E6F"/>
<path d="M63.3643 23.3433L63.242 23.4645C62.6309 24.0101 61.9892 24.4344 61.3475 24.7072C60.7364 24.98 59.9725 25.1619 59.0558 25.2225C58.9947 25.2225 58.9336 25.2225 58.8419 25.2225C58.3835 25.2225 57.7419 25.1316 56.9474 24.9497C56.4585 24.8285 55.4807 24.5254 54.1056 24.0404C53.4334 23.8585 53.0056 23.7373 52.7917 23.707C52.4861 24.4041 52.1806 25.3437 51.875 26.5259C51.9056 26.5562 51.9361 26.5865 51.9667 26.6168C52.5472 27.1018 53.1278 27.5564 53.7389 27.9504C53.9528 28.102 54.1973 28.2535 54.4112 28.3748L62.2642 28.7688C62.6615 28.4051 62.9976 28.0414 63.2115 27.708C63.3031 27.617 63.4254 27.3745 63.6087 26.9502C63.6698 26.7986 63.7004 26.6471 63.7309 26.4955C63.7615 25.5862 63.7615 24.9194 63.6698 24.5254C63.5782 24.1313 63.4865 23.7373 63.3643 23.3433Z" fill="#041133" fill-opacity="0.4549"/>
<path d="M64.7392 47.6523C64.067 48.4101 63.4864 49.3194 62.9364 50.3803L69.6894 58.2307C70.5755 58.2004 71.3089 58.0488 71.8895 57.776C72.2561 57.6548 72.5617 57.2911 72.7756 56.6848C74.3951 55.9877 75.3729 55.4724 75.709 55.0784C76.0757 54.7753 76.3813 54.3509 76.6563 53.866C76.7785 53.2901 76.8702 52.7445 76.9007 52.1989C76.9007 52.0777 76.9007 51.9564 76.9007 51.8352C76.3507 51.9261 75.8007 51.9867 75.2507 51.9867C74.6701 51.9867 74.0895 51.9261 73.509 51.8352C72.3173 51.5927 71.2783 51.2593 70.3311 50.8349C69.9644 50.6834 69.3533 50.35 68.4671 49.8347L64.7392 47.6523Z" fill="#041133" fill-opacity="0.4549"/>
<path d="M41.9746 22.6763L40.9968 22.7066C39.0412 22.7672 37.1773 23.04 35.405 23.4947C34.8244 23.6462 34.2133 23.8281 33.6633 24.0099L32.4716 24.7677C29.4465 26.7985 27.6131 29.0415 27.0325 31.5572C26.8492 32.1634 26.8186 33.194 26.9408 34.6186C27.0631 35.4369 27.2769 36.2553 27.6131 37.0737C27.3075 38.3164 27.2158 39.2258 27.3075 39.8016C27.3686 40.5594 27.7353 41.499 28.4075 42.6205C28.8964 43.4995 29.752 44.1967 30.9132 44.7726C32.1354 45.1969 33.5716 45.3788 35.2522 45.3181C39.9579 45.2272 44.572 44.4391 49.1249 42.863L52.6694 39.9229C57.589 37.3162 60.7364 35.4673 62.0808 34.3761C63.8531 32.8303 64.7698 31.6178 64.8615 30.7995C64.9532 30.0114 64.9226 29.5567 64.8004 29.4355C61.8058 27.7381 58.628 26.3438 55.2667 25.192C50.4999 23.4947 46.0692 22.6763 41.9746 22.6763Z" fill="#AD0C24"/>
<path d="M55.1751 46.4697L54.35 46.5C52.7305 46.6213 51.2333 47.1062 49.9193 47.9549C49.4916 48.2277 49.0638 48.5611 48.636 48.9249L44.6331 52.4712C43.7775 53.4108 43.2275 54.3504 42.983 55.3507C42.708 56.4418 42.7997 57.5633 43.2886 58.6848C43.3191 58.897 43.6553 59.4426 44.2969 60.3519L45.2748 61.4431L46.5276 62.5039C47.4443 63.2314 48.5443 63.9285 49.7971 64.6257C52.3028 66.0199 55.5112 67.3839 59.3919 68.7176C60.4919 69.0813 62.2336 69.445 64.5865 69.8087C64.617 69.7178 65.1671 69.6572 66.2365 69.6269C68.4672 69.5662 70.6061 69.5056 72.6534 69.5056C73.3868 69.4753 74.5785 69.3844 76.198 69.2025L75.923 68.6872C75.2202 65.929 74.4562 63.5042 73.5701 61.4431C72.684 59.3516 71.7367 57.5936 70.6978 56.1994C68.5283 53.3805 66.8171 51.4709 65.5337 50.5313C62.2947 47.9246 58.8419 46.5607 55.1751 46.4697Z" fill="#AD0C24"/>
<path d="M101.713 20.5542H101.468C100.551 20.6148 99.7876 20.7664 99.207 21.0089C98.5348 21.2816 97.7403 21.8272 96.8236 22.6153C95.2347 22.6759 93.8596 23.1609 92.729 24.0702C92.3012 24.4339 91.9651 24.7977 91.7512 25.1917C91.4762 25.6767 91.2012 26.4647 90.9873 27.5862C89.8262 28.6168 89.215 29.5261 89.1845 30.3141C89.0928 30.89 89.3067 31.7387 89.765 32.8602C89.215 34.1029 89.1845 35.2244 89.6428 36.255C90.4678 36.7096 91.7207 37.2249 93.4624 37.7402C95.6319 38.1949 97.2514 38.4373 98.3514 38.4676C98.4737 38.5283 98.7792 38.407 99.2681 38.1342L100.429 36.6793C100.735 36.4065 101.04 36.1944 101.315 36.1034C101.713 35.9519 102.202 35.8913 102.721 35.9216C104.218 36.255 105.135 36.4065 105.41 36.3762C105.96 36.255 106.571 35.9519 107.304 35.4366C108.649 35.2244 109.596 34.9516 110.146 34.6485C110.849 34.2242 111.369 33.8302 111.644 33.3755C111.98 32.9512 112.194 32.4056 112.285 31.7084C113.019 31.0719 113.385 30.5869 113.385 30.2535C113.416 30.1323 113.416 29.9807 113.416 29.8595L112.163 25.7373L111.857 25.0704C111.644 24.6461 111.399 24.2521 111.094 23.9187C110.788 23.5852 110.482 23.2518 110.116 22.979C109.199 22.3728 108.527 22.0394 108.068 21.9182C107.396 21.706 106.541 21.5848 105.471 21.4938C104.249 20.9785 103.454 20.7058 103.179 20.6451C102.66 20.6148 102.171 20.5542 101.713 20.5542Z" fill="#AD0C24"/>
<path d="M112.407 48.0459H112.071C111.185 48.0762 110.268 48.2884 109.321 48.6218L108.068 49.2886L106.999 50.0161L106.113 50.8345L105.379 51.7438L104.829 52.744L104.463 53.8352L104.279 54.987V56.2297L104.432 57.5634C104.616 58.1696 104.799 58.6848 105.043 59.1395C105.532 60.0791 106.113 60.7156 106.877 61.14C107.243 61.3522 107.641 61.4734 108.099 61.534L108.863 61.5946C109.107 61.5946 109.352 61.5643 109.596 61.534C109.688 61.5643 110.268 61.3219 111.369 60.8672C112.805 60.2004 114.73 59.0789 117.144 57.5331C118.152 56.7753 118.763 56.2297 118.947 55.8963C119.283 55.4416 119.497 54.987 119.619 54.5323L119.099 52.1378L118.458 51.2891C118.03 50.7435 117.572 50.2889 117.083 49.8645C115.677 48.6521 114.119 48.0459 112.407 48.0459Z" fill="#585E6F"/>
<path d="M31.7381 49.9863L30.7603 50.0469L29.8742 50.1985L29.0492 50.4713L28.3158 50.835L27.6741 51.32L27.1241 51.8959C26.0241 53.3205 25.5657 55.0785 25.7491 57.1699L25.9324 57.958L26.238 58.6551L26.6658 59.2916L27.2158 59.8372L27.888 60.2919C28.8964 60.8981 30.1492 61.1406 31.7381 60.989C34.2743 60.7162 35.9855 60.2919 36.8716 59.6553C37.1161 59.4735 37.3605 59.2916 37.5439 59.0794L37.7883 58.746C38.0328 58.352 38.2467 57.7458 38.43 56.8668C38.3689 55.1694 37.6661 53.563 36.3522 52.0474C36.0772 51.7746 35.8327 51.5018 35.5577 51.2897C35.4355 51.1381 35.0077 50.8653 34.3355 50.4713C34.2132 50.3804 33.7854 50.2288 33.0826 50.0469C32.5021 50.0166 32.0743 49.9863 31.7381 49.9863Z" fill="#585E6F"/>
<path d="M101.713 20.5542H101.468C100.551 20.6148 99.7876 20.7664 99.207 21.0089C98.5348 21.2816 97.7403 21.8272 96.8236 22.6153C95.2347 22.6759 93.8596 23.1609 92.729 24.0702C92.3012 24.4339 91.9651 24.7977 91.7512 25.1917C91.4762 25.6767 91.2012 26.4647 90.9873 27.5862C89.8262 28.6168 89.215 29.5261 89.1845 30.3141C89.0928 30.89 89.3067 31.7387 89.765 32.8602C89.2456 34.0423 89.1845 35.1335 89.5817 36.1337C90.804 35.5882 92.4846 34.9213 94.593 34.1333C94.7152 34.012 94.7763 33.8908 94.7458 33.7392C94.4096 32.8905 94.2263 32.1631 94.2568 31.5569C94.318 30.7082 94.5013 30.0717 94.8069 29.6776C95.1736 28.7683 96.4569 28.253 98.5959 28.1318C98.8403 26.3738 99.6042 25.3129 100.918 24.9492C101.285 24.828 101.621 24.7673 101.957 24.7673C103.027 24.7673 104.035 25.3129 104.982 26.4041C105.532 26.1919 106.082 26.101 106.602 26.101C107.304 26.101 107.946 26.2829 108.557 26.6769C109.138 27.2225 109.443 27.5862 109.413 27.7378C109.505 28.0106 109.535 28.2834 109.535 28.6168C109.474 29.2533 109.199 29.9504 108.649 30.7688C109.505 30.7688 110.177 30.9507 110.605 31.2841L110.88 31.5569C111.032 31.769 111.155 32.0115 111.216 32.3146C111.277 32.6177 111.277 32.9208 111.246 33.3149C111.307 33.3149 111.338 33.3149 111.399 33.3149C111.491 33.3149 111.582 33.3149 111.674 33.2846C111.98 32.8905 112.163 32.3449 112.224 31.7084C112.957 31.0719 113.324 30.5869 113.324 30.2535C113.355 30.1323 113.355 29.9807 113.355 29.8595L112.102 25.7373L111.796 25.0704C111.582 24.6461 111.338 24.2521 111.032 23.9187C110.727 23.5852 110.421 23.2518 110.055 22.979C109.138 22.3728 108.466 22.0394 108.007 21.9182C107.335 21.706 106.479 21.5848 105.41 21.4938C104.188 20.9785 103.393 20.7058 103.118 20.6451C102.66 20.6148 102.171 20.5542 101.713 20.5542Z" fill="#F6657B" fill-opacity="0.2392"/>
<path d="M50.0721 47.834C50.011 47.8643 49.9499 47.8946 49.9193 47.925C49.4915 48.1977 49.0637 48.5312 48.6359 48.8949L44.633 52.4412C43.7774 53.3808 43.2274 54.3204 42.983 55.3207C42.9524 55.4419 42.9219 55.5935 42.8913 55.7147C43.533 56.624 44.1747 57.4121 44.8775 58.0183C46.6192 59.7157 51.386 62.3224 59.239 65.8081C62.478 67.0508 66.1448 67.8086 70.3005 68.0207C70.3922 68.0207 70.4533 68.0207 70.545 68.0207C71.3394 68.0207 71.7978 67.8389 71.92 67.4752C71.8283 66.5658 71.4617 65.5959 70.82 64.535C69.4144 62.2011 68.1921 60.3522 67.1226 58.9882C65.4115 56.7756 63.792 54.957 62.2336 53.5627C59.8502 51.6228 58.4446 50.5923 58.0473 50.4407C57.1306 49.8951 56.1528 49.4405 55.1445 49.0464C54.1361 48.6524 53.0972 48.3493 52.0277 48.1068L50.3776 47.8037C50.2249 47.8643 50.1332 47.8643 50.0721 47.834Z" fill="#FF94A4" fill-opacity="0.4549"/>
<path d="M48.2388 49.2583L44.6331 52.4409C44.5414 52.5621 44.4192 52.6834 44.3275 52.8046C45.2442 53.5624 46.0998 54.2595 46.9554 54.896L49.3693 56.745C50.8972 57.8968 52.3028 58.8364 53.525 59.5941L55.2362 60.5944L56.7335 61.3218L57.9863 61.7462L58.9947 61.8977C59.2697 61.8977 59.4836 61.8674 59.6975 61.7765C60.3697 61.534 60.828 61.2006 61.0725 60.8066C61.1947 60.5944 61.2864 60.3822 61.3475 60.1094C61.4086 60.0185 61.4086 59.5638 61.2864 58.7758C60.7364 57.6543 60.2475 56.8056 59.728 56.26C59.1474 55.5629 58.4752 54.8354 57.6502 54.0777C55.8473 52.6531 54.0445 51.5013 52.2111 50.6526C51.2944 50.2282 50.4083 49.8645 49.4916 49.5917L48.2388 49.2583Z" fill="#AD0C24" fill-opacity="0.4549"/>
<path d="M101.896 20.8271H101.774C101.407 20.8271 101.01 20.8878 100.613 21.009C100.277 21.0999 99.971 21.2212 99.696 21.3424C99.1154 21.6455 98.7182 22.0093 98.4737 22.4336C98.3515 22.6458 98.3209 22.8579 98.3209 23.1004C98.3209 23.2217 98.3209 23.3429 98.3515 23.3732L98.382 23.4642C98.4126 23.5248 98.4432 23.5854 98.5043 23.646C98.5654 23.7066 98.6265 23.7369 98.7182 23.7976L98.8404 23.8582C98.932 23.8885 99.0237 23.9188 99.1459 23.9491C99.421 23.9794 99.7876 24.0097 100.277 24.0097C100.765 24.0097 101.315 23.9491 101.988 23.8885C102.66 23.7673 103.179 23.646 103.516 23.5248C103.638 23.4945 103.729 23.4338 103.791 23.4035C103.943 23.3126 104.127 23.2217 104.341 23.0701C104.616 22.8579 104.799 22.6155 104.921 22.373L104.829 21.7971C104.799 21.7365 104.616 21.6455 104.31 21.4334C104.188 21.3727 104.035 21.2818 103.882 21.2212C103.821 21.1909 103.577 21.0999 103.118 20.9787C102.752 20.8878 102.324 20.8271 101.896 20.8271Z" fill="#EF97A4" fill-opacity="0.4549"/>
<path d="M96.1208 23.4644H95.9375C95.4486 23.525 94.8986 23.7675 94.318 24.2221L93.9513 24.5252C93.7374 24.7374 93.5235 24.9496 93.3402 25.1314C93.1568 25.3436 93.004 25.5255 92.8818 25.7073L92.6985 25.9801C92.6068 26.162 92.5151 26.3438 92.454 26.5257C92.3624 26.9197 92.3012 27.2532 92.2707 27.5866C92.2707 27.8897 92.3012 28.1322 92.4235 28.2837C92.4846 28.3746 92.5457 28.4353 92.6374 28.4656C92.6679 28.4959 92.729 28.4959 92.8207 28.4959C92.9735 28.4959 93.1568 28.4353 93.3707 28.3443C93.6457 28.1928 93.8291 28.0715 93.8902 28.0109C94.0124 27.92 94.1652 27.7987 94.2874 27.6775L94.2569 27.8291L94.593 27.5563C95.143 27.0713 95.4486 26.7985 95.5097 26.6773C95.8764 26.2832 96.2125 25.8892 96.4569 25.4952C96.8542 24.8889 97.007 24.4343 96.9764 24.0706C96.9458 23.8281 96.8236 23.6462 96.6097 23.4947C96.4569 23.4947 96.2736 23.4644 96.1208 23.4644Z" fill="#EF97A4" fill-opacity="0.4549"/>
<path d="M91.1707 29.3745H91.1096C91.0179 29.3745 90.8957 29.4351 90.804 29.5261C90.7429 29.5867 90.6818 29.6776 90.6207 29.7989L90.529 29.9807L90.4679 30.1626L90.4068 30.3748L90.3762 30.5869V30.8294V31.0719L90.4068 31.3144L90.4373 31.5872L90.4679 31.7084C90.529 31.9509 90.6207 32.1631 90.7123 32.3752C90.7735 32.4965 90.8651 32.648 91.0179 32.7996C91.1401 32.9208 91.2624 32.9814 91.354 32.9814C91.3846 32.9814 91.4151 32.9815 91.4151 32.9511L91.7818 32.4662C91.8124 32.2843 91.8429 32.0418 91.8735 31.7084C91.8735 31.5266 91.904 31.3447 91.8735 31.1628C91.8124 30.5869 91.7207 30.102 91.5985 29.7685C91.5374 29.4958 91.354 29.3745 91.1707 29.3745Z" fill="#EF97A4" fill-opacity="0.4549"/>
<path d="M107.243 22.9189H107.213C107.029 22.9189 106.877 22.9493 106.693 23.0099C106.632 23.0402 106.571 23.0705 106.541 23.1008C106.51 23.1311 106.449 23.1614 106.418 23.222L106.388 23.2827C106.357 23.313 106.357 23.3736 106.357 23.4342L106.388 23.6161L106.51 23.8283L106.693 24.0404L106.938 24.2526L107.243 24.4951C107.488 24.6466 107.763 24.8285 108.068 24.9801L108.588 25.2528L109.168 25.5256L109.291 25.5559C109.657 25.6772 109.963 25.7075 110.207 25.7075C110.391 25.7075 110.543 25.6772 110.666 25.6166C110.757 25.556 110.788 25.465 110.788 25.3438C110.788 25.2225 110.696 25.1013 110.574 24.9194V24.7376C110.421 24.5557 110.268 24.4042 110.116 24.2526C109.963 24.1011 109.78 23.9495 109.627 23.8283L109.352 23.6464C109.168 23.5252 108.985 23.4342 108.771 23.3433C108.252 23.0402 107.702 22.9189 107.243 22.9189Z" fill="#EF97A4" fill-opacity="0.4549"/>
<path d="M40.8135 25.9194C40.7829 25.9194 40.7524 25.9194 40.7218 25.9194L38.7051 25.9497C35.6189 26.071 32.5327 26.4953 29.477 27.1622C28.1936 28.5261 27.3686 29.9507 27.0325 31.4965C26.8492 32.1028 26.8186 33.1333 26.9408 34.5579C27.0631 35.3763 27.2769 36.1947 27.6131 37.013C27.3075 38.2558 27.2158 39.1651 27.3075 39.741C27.3686 40.4987 27.7353 41.4384 28.4075 42.5598C28.4687 42.6508 28.5298 42.7417 28.5909 42.8326C28.7131 42.8326 28.8048 42.8023 28.927 42.8023L31.4326 42.4992C34.855 41.9839 38.5523 41.1353 42.5247 39.9532C47.5665 38.377 50.7749 37.2252 52.15 36.5281C54.1667 35.5581 55.664 34.5276 56.6112 33.4061C57.0696 32.8605 57.4057 32.2846 57.6196 31.6784C57.8335 30.8903 57.8946 30.466 57.8029 30.4054C57.6807 29.6779 56.9473 29.0111 55.6029 28.4049C54.8389 28.0715 53.5556 27.6471 51.6611 27.1622C51.2638 27.0409 50.0721 26.7681 48.1165 26.4044C45.947 26.1013 43.5025 25.9194 40.8135 25.9194Z" fill="#EF97A4" fill-opacity="0.4549"/>
<path d="M36.9634 31.7695C35.1605 31.7695 32.716 32.012 29.6603 32.497C28.7742 32.6485 27.9492 32.8304 27.1853 33.0123L26.8797 33.1032C26.8797 33.5275 26.9103 34.0428 26.9714 34.5884C27.0936 35.4068 27.3075 36.2252 27.6436 37.0435C27.5519 37.4376 27.4603 37.8013 27.4297 38.1347C36.2606 36.2555 41.608 34.7703 43.4719 33.6488L44.083 33.1941C44.1441 33.1032 44.1441 33.0426 44.083 32.9516C43.9608 32.8001 43.5941 32.6182 43.0136 32.4364C42.4024 32.2545 41.608 32.0726 40.569 31.9211C39.9885 31.8302 38.9495 31.7695 37.4217 31.7695H37.2384C37.1161 31.7695 37.0245 31.7695 36.9634 31.7695Z" fill="#AD0C24" fill-opacity="0.4549"/>
<path d="M70.9117 45.6816H70.6978C69.8727 45.7423 69.0477 45.9847 68.2532 46.4697C67.3977 46.985 66.8171 47.5306 66.481 48.1065C66.3893 48.3186 66.3587 48.5005 66.4199 48.6824C66.5115 48.8642 66.6643 49.0461 66.8782 49.1976C67.0921 49.3492 67.3366 49.4401 67.6116 49.5008C68.0394 49.5917 68.406 49.622 68.7422 49.5917C69.2311 49.5614 69.8422 49.4704 70.5144 49.2886C70.9728 49.137 71.4006 48.9552 71.7673 48.7733C72.1339 48.5914 72.4395 48.4096 72.6839 48.2277L73.0201 47.9549L73.2951 47.6518L73.4784 47.3487L73.6006 47.0456L73.6312 46.7122L73.2034 45.9544C73.1117 45.9241 73.0201 45.8635 72.8978 45.8332C72.8673 45.8029 72.6228 45.7726 72.2256 45.712C71.8589 45.712 71.4006 45.6816 70.9117 45.6816Z" fill="#A4A8B2" fill-opacity="0.4549"/>
<path d="M58.7196 20.3726C57.9251 20.3726 57.1918 20.5241 56.5501 20.8272C56.1223 21.0394 55.8473 21.1909 55.7862 21.2516C55.6334 21.3425 55.5112 21.4334 55.4195 21.5547C55.2056 21.7365 55.0834 21.9184 55.0834 22.1003C55.0834 22.2821 55.1139 22.4034 55.2362 22.5246C55.2973 22.5852 55.3584 22.6458 55.4195 22.7065L55.5417 22.7974C55.6334 22.858 55.7251 22.8883 55.8473 22.9489C56.5501 23.2217 57.314 23.343 58.139 23.343C58.6279 23.343 59.0252 23.3127 59.3307 23.3127C59.4835 23.3127 59.6363 23.2824 59.7891 23.252C59.8807 23.252 60.0641 23.2217 60.3391 23.1308C60.4613 23.1005 60.7669 23.0096 61.1947 22.858C61.3475 22.7974 61.5002 22.7368 61.6225 22.6761C61.8669 22.5549 62.0503 22.4337 62.1725 22.3124L62.1419 21.979L61.8364 21.6456L61.5002 21.3425C61.2864 21.1606 61.0419 21.0091 60.7974 20.8878L60.4002 20.706L60.003 20.5847L59.5752 20.4938L59.1474 20.4332L58.7196 20.3726Z" fill="#A4A8B2" fill-opacity="0.4549"/>
<path d="M31.6465 50.3501H31.4938C31.3104 50.3501 31.0965 50.3804 30.9132 50.4107C30.6687 50.441 30.5465 50.5016 30.4854 50.5016L30.3632 50.532L29.8131 50.7441L29.3854 50.9563L29.0492 51.1685L28.8353 51.3807L28.7131 51.6231L28.6826 51.8656L28.7742 52.1081L28.9576 52.3506L29.2326 52.5931C29.5076 52.7446 29.6909 52.8356 29.7826 52.8659C30.1493 52.9871 30.3937 53.078 30.5159 53.078C30.6993 53.1083 30.9132 53.169 31.1271 53.1993C31.616 53.2902 32.0743 53.3205 32.5021 53.3205C32.9299 53.3205 33.3883 53.2599 33.8466 53.1993C34.0911 53.1387 34.2744 53.0477 34.4577 52.9568C34.5494 52.8962 34.6105 52.8356 34.6716 52.7749C34.7328 52.7143 34.7939 52.6537 34.8244 52.5628L34.8855 52.4415C34.9161 52.3203 34.9466 52.2293 34.9772 52.1384C35.0078 51.8959 35.0078 51.7444 34.9772 51.7141C34.9466 51.5322 34.855 51.3807 34.7022 51.2594L34.3355 51.0169L34.03 50.8654C33.1744 50.532 32.3799 50.3501 31.6465 50.3501Z" fill="#A4A8B2" fill-opacity="0.4549"/>
<path d="M34.6105 51.1982L34.5799 51.3498C34.5188 51.5317 34.366 51.6832 34.1827 51.7741C34.091 51.8348 33.9688 51.8954 33.8466 51.9257C33.7244 51.956 33.5716 52.0166 33.4188 52.0166C33.3882 52.0166 33.3577 52.0166 33.266 52.0469C32.8993 52.0772 32.441 52.0469 31.9521 51.9863C31.5548 51.9257 30.9132 51.7741 30.0881 51.5317C29.9965 51.5013 29.8742 51.5013 29.752 51.471C29.5687 51.471 29.4464 51.471 29.3548 51.5317C29.202 51.6226 29.1103 51.7135 29.0798 51.8045C29.0186 51.9863 29.1103 52.1985 29.4159 52.441C29.6603 52.6531 30.027 52.835 30.4548 52.9866C30.9132 53.1078 31.3715 53.1987 31.7993 53.2594C32.2271 53.32 32.6854 53.2897 33.1743 53.2594L33.3882 53.229C33.5105 53.1987 33.6632 53.1987 33.7855 53.1684C34.0299 53.1078 34.2438 53.0472 34.4577 52.9562C34.6716 52.8047 34.8244 52.6531 34.9161 52.5016C34.9772 52.4107 35.0077 52.35 35.0383 52.2591C35.0688 52.2288 35.0688 52.1076 35.0688 51.8954L34.6105 51.1982Z" fill="#A4A8B2" fill-opacity="0.4549"/>
<path d="M60.4919 21.252C60.3085 21.252 60.1252 21.2823 59.9113 21.4035C59.8502 21.4338 59.5141 21.646 58.9335 22.04C58.8113 22.131 58.5974 22.2219 58.3529 22.2825C58.2001 22.3431 57.9862 22.3734 57.7723 22.4037C57.6501 22.4037 57.3446 22.4341 56.8251 22.4644C56.7334 22.4644 56.6723 22.4644 56.5806 22.4947C56.4584 22.525 56.3362 22.5553 56.2751 22.6159C56.214 22.7372 56.3362 22.8887 56.7334 22.9796C57.0695 23.0706 57.3751 23.1312 57.7418 23.1918C57.864 23.1918 57.9557 23.2221 58.0779 23.2221C58.139 23.2221 58.2918 23.2221 58.5363 23.2524C58.6585 23.2524 58.7807 23.2524 58.9029 23.2524L59.4529 23.1918L59.9113 23.1312C60.1863 23.0706 60.4613 23.0403 60.7058 22.9796C60.9502 22.919 61.1336 22.8584 61.3169 22.7675L61.5614 22.6462C61.7141 22.5553 61.8364 22.4644 61.928 22.3734L62.0503 22.04C61.928 21.9188 61.8364 21.8279 61.7141 21.7369L61.5614 21.6157C61.4391 21.5551 61.3475 21.4641 61.2252 21.4338C60.9502 21.2823 60.7363 21.252 60.4919 21.252Z" fill="#A4A8B2" fill-opacity="0.4549"/>
<path d="M111.674 48.5918H111.491C111.032 48.6221 110.482 48.6827 109.902 48.8343L109.443 48.9858C109.138 49.0768 108.863 49.198 108.588 49.3496C108.038 49.6224 107.549 49.9861 107.091 50.3801C106.877 50.5923 106.663 50.8045 106.449 51.0469L106.174 51.441C105.838 51.9562 105.654 52.4109 105.624 52.8049C105.593 53.0171 105.624 53.199 105.685 53.3505L105.807 53.593L105.96 53.8052C105.991 53.8355 106.143 53.9264 106.388 54.078C106.724 54.2295 107.152 54.2901 107.641 54.2901C108.068 54.3205 108.741 54.2295 109.688 54.0174C110.055 53.9264 110.391 53.8052 110.727 53.6536L111.216 53.4415C111.857 53.1384 112.499 52.7443 113.08 52.2897C113.385 52.0472 113.66 51.8047 113.935 51.5319C114.058 51.4107 114.149 51.2894 114.241 51.1682C114.485 50.8651 114.669 50.4407 114.821 49.8648C114.852 49.5314 114.791 49.2586 114.638 49.1071C114.485 48.9858 114.363 48.8949 114.302 48.8949L114.271 48.9555C114.027 48.8646 113.752 48.7737 113.416 48.713C112.927 48.6524 112.346 48.5918 111.674 48.5918Z" fill="#A4A8B2" fill-opacity="0.4549"/>
<path d="M112.407 48.8643H112.163C111.368 48.8946 110.818 49.0461 110.543 49.2886C110.452 49.3795 110.36 49.5008 110.299 49.622L109.932 51.2285L109.902 51.3497C109.78 51.6225 109.627 51.8953 109.443 52.1075C109.168 52.4106 108.893 52.6531 108.588 52.7743C108.435 52.8652 107.946 53.0471 107.182 53.3502C106.968 53.4411 106.816 53.5321 106.785 53.623C106.541 53.9867 106.968 54.1989 108.007 54.1989C108.252 54.1989 108.557 54.1686 108.863 54.1686C109.077 54.1383 109.291 54.108 109.474 54.0473C110.085 53.8958 110.666 53.6836 111.246 53.4108C112.01 52.9865 112.499 52.6531 112.774 52.4409L113.294 52.0468C113.599 51.7741 113.874 51.5013 114.088 51.2285L114.363 50.8041L114.546 50.3798L114.669 49.9554L114.699 49.5311L114.485 49.0461C113.538 48.9249 112.835 48.8643 112.407 48.8643Z" fill="#A4A8B2" fill-opacity="0.4549"/>
<path d="M72.8979 45.894L72.9284 46.1971C72.9284 46.4093 72.8979 46.5912 72.8368 46.773L72.7145 47.0458C72.6229 47.2277 72.5006 47.3793 72.3173 47.5308C72.0423 47.8036 71.5534 48.0764 70.82 48.3492C70.27 48.5614 69.7505 48.6826 69.2311 48.7432C68.7727 48.7735 68.4672 48.7735 68.2227 48.7432C68.1005 48.7432 67.7033 48.6523 67.031 48.4704C66.9088 48.4401 66.8171 48.4401 66.756 48.4401C66.6949 48.4098 66.6338 48.4401 66.5116 48.531C66.481 48.531 66.4504 48.5917 66.4504 48.7129C66.4504 48.9251 66.6949 49.1373 67.1532 49.3797L67.3366 49.4707C67.4588 49.5313 67.6116 49.5616 67.7338 49.6222C68.0394 49.6828 68.3449 49.7435 68.62 49.7435C69.3228 49.8041 70.2394 49.5919 71.3089 49.1676C71.4006 49.1373 71.7062 48.9857 72.1645 48.7129C72.3478 48.5917 72.5312 48.4704 72.7145 48.3492C72.8979 48.2279 73.0506 48.0764 73.234 47.9248C73.2951 47.8945 73.3868 47.743 73.5396 47.5308C73.6923 47.258 73.6923 46.9246 73.5396 46.5912L72.8979 45.894Z" fill="#A4A8B2" fill-opacity="0.4549"/>
<path d="M115.371 48.7129C115.402 48.9251 115.433 49.1372 115.433 49.3797C115.494 50.3497 115.341 51.4408 114.974 52.6532C114.608 53.4716 114.21 54.0778 113.721 54.5022C113.507 54.684 113.294 54.8962 113.019 55.1084C111.277 56.3208 110.299 57.0179 110.085 57.2301C109.566 57.6848 109.138 58.1091 108.863 58.5032C108.466 59.0184 108.16 59.6549 107.946 60.4127L107.916 60.8674C107.916 61.1098 107.977 61.3523 108.099 61.5645H108.13L108.893 61.6251C109.138 61.6251 109.382 61.5948 109.627 61.5645C109.749 61.5645 110.33 61.3523 111.399 60.8977C112.835 60.2308 114.76 59.1094 117.174 57.5635C118.183 56.8058 118.794 56.2602 118.977 55.9268C119.313 55.4721 119.527 55.0175 119.649 54.5628L119.13 52.1683L118.488 51.3196C118.06 50.774 117.602 50.3193 117.113 49.895C116.533 49.3797 115.952 48.9857 115.371 48.7129Z" fill="#041133" fill-opacity="0.4549"/>
<path d="M37.9412 54.6235C37.819 54.8054 37.7579 54.8963 37.6662 54.957C37.3912 55.3207 37.0551 55.6541 36.7189 55.9572C36.3828 56.23 36.0161 56.5028 35.6189 56.6846C34.8855 57.0484 34.2439 57.2605 33.755 57.3818C33.2049 57.5333 32.6549 57.6243 32.0743 57.6849C31.7993 57.7152 31.5243 57.7152 31.2493 57.7152C30.8521 57.7152 30.4548 57.6849 30.0576 57.6243C29.7215 57.5636 29.3854 57.503 28.9576 57.3818L26.0547 56.23C25.9325 56.1997 25.8103 56.1694 25.6575 56.1391C25.6575 56.4725 25.6575 56.8059 25.688 57.1393L25.8714 57.9274L26.1769 58.6245L26.6047 59.261L27.1547 59.8066L27.827 60.2613C28.652 60.7462 29.6604 60.9887 30.8826 60.9887C31.1271 60.9887 31.4021 60.9887 31.6771 60.9584C34.2133 60.6856 35.9245 60.2613 36.8106 59.6248C37.0551 59.4429 37.2995 59.261 37.4828 59.0489L37.7273 58.7154C37.9718 58.3214 38.1856 57.7152 38.369 56.8362C38.369 56.1087 38.2162 55.351 37.9412 54.6235Z" fill="#041133" fill-opacity="0.4549"/>
<path d="M61.5919 48.0459C61.6836 48.1065 61.7753 48.1975 61.8975 48.2884C63.2114 49.3492 64.3726 50.3192 65.3809 51.1982C67.1838 52.8956 68.1921 53.8655 68.3144 54.0474C70.27 56.4116 71.4006 57.7149 71.6756 57.9877L71.9506 58.1696C71.5534 57.4724 71.1256 56.8056 70.6978 56.2297C68.5283 53.4108 66.8171 51.5013 65.5337 50.5617C64.2503 49.5008 62.9364 48.6824 61.5919 48.0459Z" fill="#041133" fill-opacity="0.4549"/>
<path d="M69.4449 14.6138L62.8142 15.0684C59.6669 15.4625 57.864 15.7049 57.4057 15.8262C56.489 16.008 55.9695 16.1293 55.8473 16.2505L57.4973 16.2202L64.7087 16.4324L71.4311 17.0386L76.0757 17.7357C71.6145 17.3114 68.1616 17.2205 65.6559 17.4326C64.7087 17.5539 63.5781 17.7964 62.2642 18.1601C61.3475 18.4632 60.9808 18.7966 61.1947 19.0997L62.0808 19.6756C62.2336 19.7665 62.4781 19.8575 62.8753 19.9484C64.0364 20.2818 66.3282 20.7365 69.72 21.3124L72.7756 22.2823C73.5395 22.6157 73.9062 22.7976 73.8756 22.8279C73.8756 23.8584 74.2729 24.4647 75.0062 24.7071L75.4646 24.9193C77.0535 25.1921 78.6119 25.5861 80.0786 26.1317C80.3536 26.1923 80.5064 26.5258 80.5675 27.0713C81.0564 27.1926 81.6676 27.2532 82.462 27.2229C83.1343 27.1926 84.2649 26.8289 85.8233 26.162C86.0066 26.0711 86.3122 25.8892 86.74 25.5558C87.0455 24.7071 87.4122 24.2222 87.7789 24.0706C87.8094 23.9797 89.1234 23.5553 91.6901 22.7673L93.3096 21.7064L100.307 20.1606C100.49 20.1 100.521 20.009 100.399 19.8575C100.429 19.8272 100.215 19.7362 99.7876 19.5241C99.7876 19.5544 98.8098 19.1603 96.8847 18.3419C93.2179 17.7054 91.1401 17.3417 90.6817 17.2811C85.6094 16.2202 82.6454 15.6443 81.8203 15.5231L80.7203 15.3715L73.234 14.7047L69.4449 14.6138Z" fill="#FBD3A4"/>
<path d="M82.2482 24.1004C81.912 24.1004 81.6676 24.1004 81.5454 24.1307C81.4231 24.1307 81.3009 24.1914 81.1787 24.252C80.9953 24.3429 80.8731 24.4642 80.812 24.5854C80.7814 24.6157 80.7509 24.737 80.7203 24.9188C80.7203 25.1613 80.7815 25.4341 80.9037 25.7675C80.9648 25.9191 81.0259 26.0403 81.087 26.1615L81.2092 26.3131C81.3009 26.404 81.362 26.495 81.4843 26.5556L81.6676 26.6768C81.7593 26.7374 81.9426 26.7374 82.1565 26.7374C82.4621 26.7374 82.676 26.7071 82.8287 26.6768C83.0121 26.6465 83.3176 26.5556 83.7454 26.4343C83.8371 26.404 84.1121 26.3131 84.601 26.1615C84.6927 26.1312 84.9983 26.01 85.4566 25.7978L86.0066 25.5856C85.701 25.3432 85.0594 25.0097 84.0204 24.5854C83.1343 24.252 82.5537 24.0701 82.2482 24.1004Z" fill="#FFF1E1"/>
<path d="M71.3394 19.0693H71.2172C70.9116 19.0996 70.6978 19.1906 70.545 19.3118C70.4839 19.3421 70.4533 19.4028 70.4227 19.4634C70.3922 19.4937 70.3922 19.6149 70.3616 19.7968C70.3616 20.0696 70.6061 20.4939 71.1255 21.0698H71.5533C72.1339 21.3426 72.5617 21.5245 72.8978 21.6154C72.9589 21.6457 73.2339 21.676 73.6617 21.7367H73.8145C73.9062 21.7367 73.9673 21.7063 74.0284 21.676L74.1201 21.6154C74.2118 21.5245 74.2729 21.4032 74.3034 21.2517V21.1304C74.2729 21.0395 74.2423 20.9486 74.2118 20.8577L74.1201 20.7061C74.059 20.6152 73.9979 20.5242 73.9062 20.4333C73.6923 20.2211 73.5395 20.0696 73.4784 20.0393C73.2339 19.8574 72.9589 19.6755 72.6534 19.4937C72.195 19.2815 71.7672 19.13 71.3394 19.0693Z" fill="#FFF1E1"/>
<path d="M85.3955 21.373C85.3649 21.373 85.3038 21.4034 85.1816 21.4337C85.151 21.464 85.0899 21.4943 85.0593 21.5246C84.9982 21.5852 84.9371 21.6762 84.876 21.8277C84.8454 21.9489 84.8149 22.1308 84.8149 22.3733V22.6764C84.8149 22.737 84.8454 22.8279 84.8454 22.9189L84.9066 23.222C84.9677 23.4342 84.9982 23.5857 85.0593 23.7373C85.2732 24.2525 85.4566 24.6163 85.5788 24.8284C85.701 25.0103 85.8538 25.1012 86.0677 25.1012C86.3427 25.1012 86.5872 24.98 86.7399 24.7981L86.8011 24.7072C86.8622 24.6466 86.8927 24.5859 86.9233 24.5253L87.1372 23.9191L86.9538 23.3432L86.8316 23.0401C86.6177 22.5248 86.4344 22.1308 86.2816 21.9186C86.1899 21.7974 86.1288 21.7065 86.0983 21.7065C85.976 21.5852 85.8844 21.4943 85.7927 21.464C85.701 21.4034 85.5482 21.373 85.3955 21.373Z" fill="#FFF1E1"/>
<path d="M77.3285 20.979H77.298C77.1758 20.979 77.0535 21.0699 76.9619 21.2821C76.9008 21.373 76.8702 21.464 76.8091 21.5549L76.748 21.7065C76.7174 21.7974 76.6869 21.9186 76.6869 22.0399C76.6563 22.2217 76.6563 22.5248 76.6869 22.9795C76.7174 23.4341 76.7785 23.7069 76.8702 23.8585C76.9619 24.0707 77.0535 24.2525 77.2063 24.495C77.3591 24.6769 77.5119 24.7981 77.6647 24.9194C77.8175 25.0406 77.9702 25.1012 78.0925 25.1618C78.398 25.2528 78.6425 25.2831 78.8564 25.2831C79.1008 25.2831 79.3758 25.2225 79.6508 25.1012L79.8953 24.7981C79.4981 23.7676 78.9786 22.7976 78.3675 21.8883C78.1536 21.5549 77.9397 21.3124 77.7869 21.1609C77.7563 21.1306 77.6952 21.1002 77.6036 21.0396C77.4813 21.0093 77.3897 20.979 77.3285 20.979Z" fill="#C6AA89"/>
<path d="M89.8567 21.5549H89.8261C89.2455 21.5852 88.7566 21.6458 88.3288 21.7973C88.0538 21.8883 87.8705 21.9792 87.8094 22.0095C87.7177 22.0701 87.626 22.1308 87.5649 22.252C87.5038 22.3429 87.4733 22.4945 87.4733 22.6763C87.4733 22.9188 87.5038 23.0704 87.5649 23.1007C87.6566 23.2522 87.8094 23.3735 88.0538 23.4644C88.3288 23.525 88.4816 23.5553 88.5122 23.5553C88.6955 23.5553 89.0316 23.525 89.5511 23.4644C89.5511 23.4644 89.6733 23.4341 89.8567 23.4038C89.8872 23.4038 90.04 23.3432 90.2845 23.2826C90.4678 23.2219 90.7428 23.131 91.1095 22.9188C91.1706 22.8885 91.2317 22.8279 91.2928 22.7976L91.3539 22.737C91.3845 22.7067 91.4456 22.646 91.4762 22.5854C91.5373 22.4945 91.5678 22.3732 91.5678 22.2823L91.4456 21.6155C90.5289 21.5549 90.0095 21.5245 89.8567 21.5549Z" fill="#C6AA89"/>
<path d="M90.8651 19.312H90.8345C90.7429 19.312 90.6512 19.3726 90.5595 19.4939C90.529 19.5848 90.4984 19.6757 90.4984 19.7667C90.4984 20.0395 90.5901 20.3426 90.804 20.676C90.9873 20.9791 91.2012 21.2216 91.4457 21.4337C91.6901 21.6156 91.8735 21.7368 91.9957 21.7975C92.0568 21.8278 92.179 21.8581 92.3318 21.8581C92.3624 21.8581 92.4235 21.8581 92.5151 21.8278C92.5457 21.7975 92.5763 21.7975 92.6374 21.7672C92.7902 21.6762 92.9124 21.5853 93.0041 21.4944C93.0652 21.4337 93.1263 21.3731 93.1263 21.3428L93.4318 20.8275C93.1568 20.4638 92.8513 20.191 92.5151 20.0092C92.0568 19.7667 91.7512 19.5848 91.5679 19.5242C91.2623 19.3726 91.0484 19.312 90.8651 19.312Z" fill="#C6AA89"/>
<path d="M72.684 17.5234C72.5006 17.5234 72.3784 17.5537 72.2256 17.5841L72.0423 17.6447C71.9201 17.7053 71.8284 17.7659 71.7673 17.8265C71.5534 18.0387 71.5839 18.3115 71.7673 18.6146C71.9201 18.7662 72.1034 18.948 72.2867 19.1299C72.3173 19.1602 72.3784 19.1905 72.5006 19.2814C72.5923 19.3724 72.9284 19.5542 73.4785 19.8573C74.1201 20.1908 74.6702 20.3423 75.1285 20.3726C75.3424 20.3726 75.4952 20.312 75.6174 20.1908C75.7396 20.0695 75.8313 19.918 75.8924 19.7664C75.9535 19.6755 75.923 19.4936 75.8619 19.2511L75.8007 19.1299C75.7396 19.039 75.6785 18.948 75.6174 18.8571C75.4646 18.6752 75.2507 18.4934 74.9452 18.3115L74.8229 18.069C74.7007 18.0084 74.4257 17.9175 73.9368 17.7659C73.7535 17.7053 73.6007 17.675 73.4479 17.6447C73.1729 17.5841 72.8979 17.5234 72.684 17.5234Z" fill="#C6AA89"/>
<path d="M69.17 19.1299C68.8338 19.1602 68.4061 19.1905 67.9172 19.2208C67.7644 19.2511 67.6116 19.2814 67.4588 19.3117C67.031 19.5239 66.8171 19.7361 66.756 19.9483C66.7254 20.0695 66.756 20.1907 66.8171 20.2817C66.9088 20.4332 67.0616 20.5545 67.306 20.706C67.7644 20.9788 68.2838 21.1304 68.8644 21.1304C69.1394 21.1304 69.4144 21.1001 69.72 21.0394L69.8422 21.0091L70.2089 20.8576C70.0867 20.4332 69.9033 19.9786 69.6283 19.4936C69.5366 19.3421 69.4755 19.2511 69.3839 19.1905C69.2922 19.1602 69.2616 19.1299 69.17 19.1299Z" fill="#C6AA89"/>
<path d="M77.6035 26.374H77.4202C77.0535 26.4346 76.8396 26.6165 76.7785 26.9499C76.6868 27.4046 76.8091 27.7986 77.1757 28.132C77.2368 28.1926 77.3285 28.2533 77.3896 28.3442L78.3369 28.9504L79.0091 29.2535L79.9258 29.5566C80.1092 29.5869 80.3231 29.6172 80.5369 29.5869C80.7814 29.5263 80.9647 29.4051 81.0564 29.2232C81.087 29.1929 81.1175 29.102 81.1481 28.9504L81.1175 28.5564C80.4453 27.7986 79.773 27.253 79.1313 26.8893C78.9175 26.7681 78.7036 26.6468 78.4897 26.5862L78.1841 26.465C78.0313 26.4043 77.8174 26.374 77.6035 26.374Z" fill="#C6AA89"/>
<path d="M83.3176 30.6475L82.9204 30.799C82.1565 31.1324 81.5759 31.4962 81.1481 31.8599C80.7814 32.1933 80.537 32.557 80.4759 32.9207C80.4453 33.1329 80.4453 33.3148 80.537 33.4663C80.5675 33.5269 80.5981 33.5573 80.6286 33.5876L80.6897 33.6482C80.7509 33.6785 80.7814 33.7088 80.8425 33.7088C81.0259 33.7391 81.2092 33.7694 81.3926 33.7391C81.637 33.7088 81.9426 33.6179 82.2481 33.4966C82.737 33.3148 83.2565 33.0117 83.776 32.6479C83.8982 32.557 84.0204 32.4661 84.1426 32.3448L84.2649 32.2236C84.326 32.1933 84.3871 32.072 84.5093 31.8902C84.5399 31.8296 84.5704 31.7386 84.601 31.678C84.6315 31.6174 84.6315 31.5568 84.6315 31.4962C84.6315 31.4355 84.6315 31.3749 84.601 31.3143L84.5704 31.2234C84.5093 31.1021 84.4482 31.0112 84.326 30.9203C84.2954 30.8899 84.2038 30.8293 83.9899 30.7687L83.3176 30.6475Z" fill="#C6AA89"/>
<path d="M75.4035 32.5269H75.159L74.9451 32.5572L74.7618 32.5875L74.609 32.6481L74.4868 32.7087L74.3951 32.7996L74.3646 32.8906V33.0118L74.3951 33.1331L74.5173 33.3452C74.609 33.4665 74.7312 33.618 74.884 33.7393C75.0368 33.8605 75.2201 33.9818 75.4035 34.103L75.7091 34.2545C75.9229 34.3758 76.1674 34.4667 76.4424 34.5577L76.8702 34.7092L76.9619 34.7395C77.2369 34.8001 77.4508 34.8001 77.6647 34.8001C78.0925 34.8001 78.3675 34.6789 78.4897 34.4667C78.5203 34.4061 78.5508 34.3152 78.5508 34.2242V34.0727L78.3369 33.4968C77.4202 32.8603 76.4119 32.5269 75.4035 32.5269Z" fill="#DABE9D"/>
<path d="M78.8563 38.8921H78.7647C78.6425 38.9224 78.5202 39.0133 78.4286 39.1649C78.398 39.2255 78.3369 39.3164 78.3063 39.4377L78.2452 39.5892L78.2147 39.7711V40.1045V40.4076L78.2452 40.6804L78.3063 40.9229L78.3674 41.1351L78.4591 41.3472L78.5508 41.5291L78.673 41.6806L78.8258 41.8019C78.8563 41.8019 78.8869 41.8322 78.9786 41.8625C79.1008 41.9231 79.2536 41.9231 79.4064 41.9231C79.498 41.8928 79.5591 41.8928 79.5897 41.8928C79.6508 41.8625 79.7425 41.8322 79.8342 41.8019C79.9258 41.711 80.0175 41.62 80.0786 41.4988L80.1092 41.4078C80.1397 41.3472 80.1397 41.2563 80.1703 41.1957C80.1703 41.1047 80.2008 41.0441 80.2008 40.9532L80.262 40.3773C79.8647 39.4377 79.4064 38.9527 78.8563 38.8921Z" fill="#DABE9D" fill-opacity="0.3255"/>
<path d="M74.4562 27.9805H74.3645C74.2118 27.9805 74.059 28.0411 73.9673 28.1623C73.8756 28.2533 73.8451 28.3139 73.8451 28.3442C73.8145 28.4048 73.8145 28.4654 73.8145 28.5261C73.8145 28.6473 73.8451 28.7989 73.9367 28.9807C74.0895 29.3141 74.2423 29.5263 74.334 29.6475C74.5784 29.9203 74.7618 30.1022 74.884 30.2234C75.0979 30.375 75.3118 30.5569 75.5562 30.7084C75.9535 30.9812 76.3507 31.1024 76.7174 31.1328C76.9313 31.1328 77.0841 31.0721 77.2063 30.9206L77.2674 30.86L77.6035 30.2234C77.2674 29.7991 76.9618 29.4354 76.6563 29.1626C76.5035 29.011 76.3507 28.8898 76.1979 28.7685L75.984 28.617C75.709 28.4351 75.434 28.2836 75.1284 28.1623C74.884 28.0411 74.6395 27.9805 74.4562 27.9805Z" fill="#DABE9D" fill-opacity="0.3255"/>
<path d="M68.9255 22.0098H68.8644C68.5893 22.0098 68.3143 22.0704 68.1004 22.1613C68.0699 22.1613 67.9782 22.2219 67.856 22.3129C67.8254 22.3432 67.7949 22.4038 67.7643 22.4341C67.7338 22.4644 67.7338 22.525 67.7338 22.5857L67.7949 22.7978L67.9171 23.01C68.0088 23.1616 68.1616 23.3131 68.3143 23.4647C68.4977 23.6162 68.681 23.7678 68.9255 23.9193L69.3227 24.1618C69.5977 24.3134 69.9033 24.4649 70.27 24.6165C70.8505 24.8286 71.2172 24.9499 71.37 24.9802C71.5839 25.0408 71.7978 25.0711 71.9506 25.0711H72.1339C72.2256 25.0711 72.3172 25.0408 72.4089 25.0105C72.5617 24.9499 72.6839 24.8893 72.745 24.768C72.7756 24.7074 72.8061 24.6468 72.8367 24.5861L72.9284 23.889C72.195 23.2828 71.4922 22.8281 70.7894 22.4947C70.545 22.3735 70.3311 22.2826 70.0866 22.2219L69.7505 22.131C69.3838 22.0401 69.1088 22.0098 68.9255 22.0098Z" fill="#DABE9D" fill-opacity="0.3255"/>
<path d="M64.4337 20.585H64.342C63.8531 20.585 63.4559 20.7062 63.1809 20.8881C62.9059 21.1002 62.8142 21.3427 62.9364 21.6155C62.9364 21.6458 62.9975 21.7368 63.1503 21.9186L63.242 22.0399L63.7003 22.4945C64.2809 22.5551 64.8004 22.6158 65.2893 22.5854C65.8393 22.5854 66.2671 22.4945 66.6032 22.3733L66.756 22.2823L66.8782 22.1914L66.9699 22.1005L67.031 21.9792V21.858L67.0004 21.7368C66.9088 21.464 66.6032 21.2215 66.1143 20.979C65.8698 20.8578 65.6254 20.7668 65.3198 20.7062C65.167 20.6759 65.0448 20.6456 64.9226 20.6153C64.8309 20.6153 64.6476 20.585 64.4337 20.585Z" fill="#DABE9D" fill-opacity="0.3255"/>
<path d="M58.2307 16.8564H58.0779C57.3446 16.8868 56.764 17.008 56.3362 17.2808C55.9695 17.493 55.8168 17.7658 55.9084 18.0992C56.0001 18.2507 56.0612 18.3417 56.0918 18.372C56.1529 18.4326 56.214 18.4932 56.3057 18.5538C56.4585 18.6751 56.6723 18.766 56.8862 18.8569C57.0696 18.9176 57.3751 19.0085 57.8335 19.0691C58.2307 19.1297 58.6585 19.16 59.1474 19.16C59.453 19.16 59.728 19.1297 59.9725 19.0691C60.1252 19.0388 60.2475 19.0085 60.3697 18.9782C60.4308 18.9782 60.5836 18.8872 60.828 18.766C61.0419 18.6448 61.1336 18.5538 61.1642 18.4932C61.2253 18.4326 61.2558 18.372 61.3169 18.281C61.3781 18.1598 61.3781 18.0082 61.3169 17.887C61.2864 17.8264 61.2558 17.7658 61.1947 17.7051L60.6141 17.2202C60.4308 17.1595 60.2475 17.1292 60.0641 17.0686C59.9725 17.0383 59.6974 16.9777 59.2697 16.9171C58.8724 16.8868 58.5668 16.8564 58.2307 16.8564Z" fill="#C6AA89" fill-opacity="0.3255"/>
<path d="M15.7266 45.9549C15.6043 45.9246 15.4516 46.0155 15.3293 46.2277C15.2988 46.2883 15.2377 46.3489 15.2071 46.4399C15.1765 46.4702 15.146 46.5914 15.0849 46.8642L15.0238 47.1673L14.9932 47.3189C14.9932 47.4098 14.9932 47.531 14.9626 47.6523C14.9626 47.7735 14.9626 47.8948 14.9626 48.016C14.9932 48.3797 15.0238 48.5919 15.0238 48.6828L15.1154 49.1375L15.2377 49.5315L15.3599 49.8649L15.4821 50.168L15.6349 50.4105L15.7877 50.5924L15.9405 50.7439L16.1238 50.8349L16.3071 50.8652L16.8266 50.5015C16.8877 50.259 16.9488 49.9559 16.9488 49.5618C16.9794 49.1072 16.9488 48.7435 16.9183 48.501C16.8877 48.1979 16.8266 47.8645 16.7044 47.531L16.5821 47.1976C16.4905 46.9855 16.4294 46.8036 16.3377 46.652C16.2155 46.1671 15.971 45.9549 15.7266 45.9549Z" fill="#C6AA89" fill-opacity="0.3255"/>
<path d="M122.583 31.7993H122.491C121.911 31.8296 121.483 31.9812 121.269 32.254C121.238 32.2843 121.177 32.3752 121.116 32.5268C121.116 32.5874 121.116 32.6783 121.116 32.7389C121.147 32.8905 121.208 33.042 121.361 33.1936C121.483 33.3451 121.666 33.527 121.941 33.7089C122.277 33.921 122.461 34.0423 122.552 34.0726C122.705 34.1332 122.827 34.2241 122.98 34.2848C123.133 34.3454 123.286 34.406 123.438 34.4666C123.713 34.5576 123.958 34.6182 124.141 34.6485C124.447 34.7091 124.752 34.7394 125.119 34.7394C125.608 34.7394 125.975 34.6182 126.219 34.3757C126.25 34.3151 126.28 34.2545 126.311 34.1938C126.311 34.1332 126.311 34.0726 126.311 33.9817L126.433 33.3755C125.822 32.8299 125.15 32.4358 124.447 32.1327C124.202 32.0418 123.958 31.9509 123.713 31.8902L123.347 31.7993C123.102 31.8296 122.858 31.7993 122.583 31.7993Z" fill="#C6AA89" fill-opacity="0.3255"/>
<defs>
<linearGradient id="paint0_linear_20002_16956" x1="70" y1="73.738" x2="70" y2="108" gradientUnits="userSpaceOnUse">
<stop stop-color="#D6E1E8"/>
<stop offset="1" stop-color="#AEBFC9"/>
</linearGradient>
</defs>
</svg>
