<svg width="140" height="134" viewBox="0 0 140 134" fill="none" xmlns="http://www.w3.org/2000/svg">
<path d="M69.9506 3.06196e-06L60.437 0.61362C41.2635 3.50634 25.9539 12.0092 14.479 26.0637C3.00416 40.2351 -1.6502 56.8901 0.515989 76.0872C3.53107 94.4078 12.4007 109.047 27.1248 120.033C31.867 123.539 37.0775 126.461 42.6685 128.741L51.304 131.604C57.2463 133.182 63.4521 133.971 69.9214 134C89.7682 133.532 106.307 126.987 119.48 114.365C132.653 101.771 139.502 85.9634 140 67C139.502 48.0074 132.653 32.229 119.48 19.6354C106.307 7.01266 89.7975 0.467516 69.9506 3.06196e-06Z" fill="url(#paint0_radial_20002_18096)"/>
<path d="M129.579 67.0002C129.081 82.9832 123.315 96.278 112.279 106.826C101.067 117.55 86.8994 123.131 69.775 123.569C64.3888 123.54 59.2076 122.897 54.2605 121.611L46.2691 118.952C41.6147 117.024 37.2824 114.599 33.3306 111.677C20.9482 102.414 13.4545 90.0835 10.8492 74.6849C10.5565 72.1136 10.4394 69.6007 10.4394 67.1755C10.4394 54.1729 14.479 42.6897 22.5582 32.6966C32.2475 20.8336 45.2445 13.6164 61.5201 11.0451L70.097 10.4899C87.0751 10.9867 101.126 16.5675 112.25 27.2034C123.315 37.7224 129.081 51.0172 129.579 67.0002Z" fill="#D4E6E9"/>
<path d="M123.461 67.0001C122.993 81.2591 117.841 93.0637 108.034 102.443C97.9938 112.056 85.2016 117.053 69.7164 117.462C64.945 117.433 60.3492 116.848 55.9875 115.738L48.4059 113.225C44.2785 111.501 40.4731 109.339 36.9603 106.768C25.9538 98.5278 19.2504 87.5413 16.8793 73.8082C16.6451 71.5291 16.5281 69.3084 16.5281 67.117C16.5281 55.5753 20.0993 45.3485 27.2711 36.4951C35.9358 25.8884 47.557 19.4017 62.1933 17.0642L70.1848 16.5382C85.4651 17.035 98.0523 22.0315 108.005 31.557C117.841 40.9364 122.993 52.741 123.461 67.0001Z" fill="#DBE3E7"/>
<path d="M123.224 66.8708C122.751 81.3305 117.641 93.305 107.988 102.794C97.9889 112.606 85.2135 117.706 69.6621 118.158C64.9305 118.125 60.4512 117.544 56.1611 116.447L48.3066 113.768C44.2374 112.025 40.4836 109.83 37.0453 107.216C26.1625 98.8565 19.5066 87.7212 17.1408 73.8102C16.92 71.4863 16.7938 69.227 16.7938 67.0645C16.7938 55.3805 20.3268 45.0198 27.3927 36.047C35.9728 25.2667 47.5495 18.6501 62.123 16.1971L70.3245 15.6484C85.5604 16.1971 98.1466 21.329 107.988 30.9796C117.641 40.4365 122.751 52.411 123.224 66.8708Z" fill="#FCEEBE"/>
<path d="M110.786 120.296L108.737 121.494C104.287 123.948 101.448 125.409 100.218 125.906C98.7256 126.578 96.7643 127.308 94.3347 128.068C88.4802 129.909 82.6256 131.165 76.7126 131.75C70.4482 132.217 64.945 132.159 60.2906 131.487C56.2217 130.844 52.9432 130.143 50.4258 129.383C46.591 128.156 44.864 127.396 45.2738 127.133C47.5863 126.49 53.0017 125.848 61.5493 125.234C62.8081 125.234 64.3888 125.292 66.3501 125.468C72.6144 126.286 76.8589 126.753 79.0544 126.87C80.84 126.987 82.8013 126.929 84.9089 126.724C86.8994 126.49 88.8314 126.198 90.6463 125.877C92.4905 125.555 94.2469 125.205 95.9154 124.825L98.3743 124.24C101.565 123.422 104.404 122.458 106.922 121.348L110.786 120.296Z" fill="white" fill-opacity="0.4235"/>
<path d="M87.8948 106.505L87.8655 107.586C87.8362 108.317 87.807 108.989 87.7484 109.69C87.7484 110.041 87.6021 111.034 87.3386 112.612C87.3093 112.933 87.0751 113.839 86.6653 115.271L86.4897 115.475C86.0213 115.826 85.0846 115.592 83.621 114.833L82.011 113.868L80.1375 112.115L78.4397 110.245C77.3566 108.959 76.3614 107.586 75.4832 106.154C74.605 104.723 73.8439 103.203 73.1707 101.596C72.4974 99.9891 71.9412 98.3236 71.5021 96.5704L70.9167 93.8823C70.8288 93.2102 70.7703 92.3629 70.7703 91.3402L70.8581 89.6162C70.9752 88.4767 71.1801 87.3663 71.4728 86.3144C72.0876 84.1814 73.1121 82.2237 74.5757 80.3829C75.3075 79.4771 76.1272 78.6005 77.0639 77.7532L80.2546 80.0031C81.3084 81.9023 82.2744 83.7724 83.0941 85.584C83.943 87.4248 84.6748 89.2364 85.2895 90.9895L86.1384 93.6485C86.6361 95.4017 87.0459 97.1256 87.3093 98.8203L87.6606 101.333C87.807 103.729 87.8948 105.453 87.8948 106.505Z" fill="#F36208"/>
<path d="M87.8948 106.213C87.8948 106.33 87.8948 106.417 87.8948 106.505L87.8655 107.586C87.8362 108.316 87.807 108.988 87.7484 109.69C87.7484 110.04 87.6313 110.946 87.3971 112.378C86.3433 112.057 85.0553 111.501 83.5039 110.712C81.9524 109.836 80.6059 108.784 79.4643 107.557C78.4397 106.563 77.4152 104.927 76.3614 102.589C75.6588 100.895 75.249 99.6967 75.1319 98.9662C74.927 98.2065 74.7514 97.0378 74.5465 95.4599C74.3416 93.8236 74.2537 92.3627 74.2537 91.0478C74.2537 89.8498 74.3416 88.7687 74.4879 87.8044C74.8392 85.613 75.3954 83.9475 76.1272 82.7787L76.7419 81.8437C77.181 81.2593 77.6786 80.7334 78.2348 80.2659C78.6154 79.9737 78.9959 79.6815 79.4057 79.4185L80.1668 79.9444C81.2206 81.8437 82.1866 83.7137 83.0062 85.5253C83.8552 87.3662 84.587 89.1778 85.2017 90.9309L86.0506 93.5899C86.5482 95.343 86.9581 97.067 87.2215 98.7617L87.5728 101.275C87.807 103.524 87.8948 105.132 87.8948 106.213Z" fill="#D34309"/>
<path d="M81.3669 85.9923L81.3669 86.1092C81.3084 86.752 81.162 87.3948 80.84 88.0084C80.7229 88.2422 80.6059 88.4759 80.4595 88.6805C80.3131 88.885 80.1668 89.0895 80.0204 89.2649L79.7862 89.4986C79.6399 89.6447 79.4349 89.7908 79.1422 89.9661C79.0837 89.9954 78.9959 90.0246 78.9373 90.0538L78.8202 90.083C78.7617 90.083 78.6739 90.083 78.6153 90.0538C78.4104 89.9954 78.2348 89.8785 78.0884 89.6739C77.9713 89.4986 77.8835 89.2941 77.8835 89.0019L77.8835 88.9727L78.1762 87.9792L78.264 87.3656L78.3811 86.8104L78.5275 86.3137L78.7031 85.8754L78.908 85.4956L79.1422 85.1742L79.4057 84.9112L79.6984 84.7066L80.0204 84.5606L80.196 84.5313C80.4302 84.5021 80.6351 84.5313 80.8108 84.6482C80.9864 84.7651 81.162 84.9404 81.3084 85.1742C81.3377 85.5248 81.3669 85.7585 81.3669 85.9923Z" fill="#DE642B"/>
<path d="M83.621 91.8073L83.5917 91.9826C83.5039 92.3333 83.2404 92.6839 82.8306 93.093C82.4501 93.4436 82.2159 93.6481 82.1281 93.6774C81.8061 93.9111 81.4841 94.0864 81.1328 94.2617C80.7815 94.4078 80.4595 94.5247 80.079 94.6124C79.9033 94.6416 79.757 94.6416 79.6399 94.6416L79.4643 94.6416L79.3179 94.6124C79.2301 94.5832 79.1423 94.5539 79.0837 94.4955C78.9666 94.3786 78.9374 94.2325 78.9666 94.0572C79.0252 93.7066 79.3179 93.2099 79.8741 92.5378L79.8741 92.6839C79.9619 92.5086 80.079 92.3625 80.1961 92.2164L80.3717 92.0119C80.6352 91.7489 80.9572 91.5444 81.3084 91.369C81.4841 91.2814 81.689 91.2229 81.8939 91.1645L82.2452 91.1061L82.5672 91.0768L82.8306 91.0768L83.0648 91.1061L83.2697 91.1645L83.4161 91.2522L83.5332 91.369L83.5917 91.5443L83.621 91.8073Z" fill="#DE642B"/>
<path d="M85.0553 100.427C85.0553 100.603 84.9968 100.749 84.8504 100.924C84.704 101.07 84.4991 101.216 84.2064 101.333C83.5331 101.596 82.8306 101.742 82.128 101.713C81.2499 101.684 80.6059 101.567 80.196 101.333C80.1375 101.304 79.9619 101.216 79.6984 101.012C79.6106 100.924 79.4935 100.837 79.4057 100.72C79.3471 100.574 79.3179 100.486 79.3179 100.398C79.3179 100.281 79.3471 100.194 79.3764 100.077C79.4642 99.8723 79.552 99.7262 79.6399 99.6385L79.874 99.0541C80.079 98.9665 80.3131 98.8788 80.5473 98.8496L80.8986 98.7912L81.2791 98.762L81.6597 98.762C82.5964 98.8204 83.3282 98.9665 83.9137 99.2295C84.2357 99.3756 84.4991 99.5801 84.704 99.7846C84.9675 100.048 85.0846 100.252 85.0553 100.427Z" fill="#DE642B"/>
<path d="M86.4019 106.329C86.4019 106.475 86.3433 106.621 86.2262 106.767C86.1091 106.884 85.9335 107.001 85.67 107.089C85.4066 107.177 85.1139 107.235 84.7919 107.264C84.6455 107.264 84.5284 107.264 84.382 107.264C84.0308 107.235 83.8259 107.206 83.7673 107.177C83.5039 107.147 83.2111 107.03 82.8599 106.884C82.6842 106.797 82.5379 106.709 82.3915 106.592L82.2159 106.417L82.0695 106.241C81.9817 106.125 81.9231 106.008 81.8646 105.862L81.8061 105.657L81.7768 105.394C81.7768 105.248 81.8061 105.073 81.8646 104.927L82.0695 104.459C82.3037 104.43 82.5379 104.43 82.772 104.43C83.0062 104.43 83.2404 104.459 83.4453 104.488L83.7673 104.547C84.4406 104.693 85.0553 104.956 85.5529 105.336C85.8457 105.54 86.0799 105.745 86.1969 105.949L86.2848 106.095C86.3726 106.154 86.4019 106.241 86.4019 106.329Z" fill="#DE642B"/>
<path d="M79.4642 67.7889L79.4349 68.7532C79.2593 72.6978 77.7664 76.847 74.8977 81.2006C72.5266 84.6193 69.3944 87.2198 65.5304 88.973C61.9592 90.5801 58.2416 90.843 54.3776 89.7035C53.1774 89.2652 51.8601 88.447 50.455 87.1906C50.133 87.0153 49.0207 85.8465 47.118 83.6843C46.9423 83.4505 46.8838 83.1583 46.9131 82.8077L47.0594 81.9603C47.6156 80.3825 48.2303 78.3371 48.9621 75.8535C49.1378 75.4444 49.3427 75.0354 49.6061 74.6555L57.3927 65.3053C59.0027 63.5229 61.4908 60.9516 64.8572 57.5622L69.0432 52.741C69.9799 52.8871 70.9166 53.2961 71.8533 53.9098C73.4926 55.1662 74.6928 56.2765 75.3953 57.3284L78.7909 63.1723C79.2886 64.9547 79.5228 66.5033 79.4642 67.7889Z" fill="#F36208"/>
<path d="M50.6599 34.8002L48.0839 53.1207C48.0839 54.494 47.8497 55.5167 47.3814 56.1887C46.2105 58.2341 45.0688 59.4321 43.9272 59.7827C40.2389 59.3736 36.9018 57.9127 33.9745 55.3706C31.3985 53.296 27.9444 48.9131 23.612 42.2219C21.4166 38.4234 20.1578 35.9689 19.8651 34.8878C19.2504 33.2515 18.9284 31.849 18.9284 30.7095C19.0455 29.9497 19.4553 29.2485 20.2164 28.6349C21.7678 27.6122 23.2315 26.9694 24.6073 26.7064C27.3296 26.0636 29.3202 25.7714 30.6667 25.7714C32.3645 25.6837 34.1502 25.7422 36.0236 25.9175C38.9801 26.2973 41.5854 27.0863 43.8394 28.2842C44.981 28.8979 46.0056 29.5991 46.9716 30.4173L48.3181 31.7321C49.1963 32.6379 49.9574 33.6606 50.6599 34.8002Z" fill="#F36208"/>
<path d="M114.504 112.991L114.504 113.254C114.445 113.955 114.123 114.394 113.567 114.54C112.132 114.744 110.581 114.715 108.854 114.452C104.697 113.721 101.419 112.523 99.0476 110.8C96.618 108.871 94.6274 106.271 93.076 103.027C92.4027 101.566 91.9343 100.105 91.6416 98.5566C91.3489 96.6281 91.2318 95.4594 91.2904 95.0503C91.2318 94.7873 91.3782 93.7062 91.7587 91.8654C91.9343 91.1057 92.1978 90.2875 92.4905 89.4402C93.076 87.7454 93.8956 85.8754 94.9494 83.8593L97.9352 82.6321C100.218 85.7293 101.624 87.7162 102.15 88.6512C104.112 91.6901 106.219 95.2548 108.473 99.3163C111.43 104.751 113.069 107.936 113.362 108.842C114.123 110.624 114.504 112.027 114.504 112.991Z" fill="#F36208"/>
<path d="M52.1236 105.949L52.1236 106.008C52.1821 106.095 52.0943 106.475 51.8601 107.147L51.421 107.761L50.777 108.228C50.2794 108.491 49.6061 108.667 48.8157 108.725L47.5277 108.725C46.591 108.696 45.5079 108.55 44.3078 108.287C42.0538 107.849 40.473 107.293 39.5363 106.651C38.2776 105.92 37.0189 104.897 35.7894 103.612C34.1794 101.829 33.3013 100.748 33.1549 100.368C31.2522 97.4464 30.3155 94.6706 30.3154 92.0116C30.3447 90.8721 30.4033 89.9955 30.5204 89.3819C30.8716 87.5995 31.1351 86.5768 31.34 86.3138C32.1304 84.4438 33.2427 82.866 34.7063 81.5511C35.5845 80.6745 36.4042 79.8856 37.1945 79.1843C39.1265 77.6649 40.2389 76.876 40.5316 76.8176C40.9121 76.4961 41.8781 76.1747 43.371 75.8241L45.2152 76.4085C46.5618 81.405 48.6401 89.9078 51.4503 101.917C51.9479 104.225 52.1821 105.569 52.1236 105.949Z" fill="#F36208"/>
<path d="M80.0497 10.8988L80.0204 11.454C79.8448 13.9961 76.6248 21.3009 70.419 33.3393C68.7212 36.5242 67.0234 39.5338 65.3548 42.3096L60.9054 48.5041C60.2029 49.4391 59.7345 50.0235 59.4418 50.2281C59.1783 50.6664 58.2123 50.0235 56.6023 48.2996C55.2265 46.6633 54.4654 45.6406 54.3191 45.2316C53.88 44.5011 53.4994 43.7706 53.1481 42.9817C51.7723 39.9721 51.1576 36.3197 51.304 32.0244C51.5089 29.0733 52.3285 26.3851 53.7336 23.9014C56.1047 20.1614 58.7099 17.3271 61.5201 15.457C63.5692 13.9668 65.9403 12.5643 68.6334 11.2494C71.8241 10.0514 73.5804 9.46706 73.961 9.49628C75.9808 9.02877 77.5615 8.97033 78.6739 9.35018C79.23 9.5255 79.6691 9.81769 79.9911 10.2268C80.0204 10.4605 80.0497 10.6651 80.0497 10.8988Z" fill="#F36208"/>
<path d="M111.459 50.5498L111.401 52.2446C111.342 53.3549 111.196 54.4652 111.02 55.5464L110.698 57.1534C110.2 59.2572 109.41 61.3026 108.386 63.2311C107.039 65.6855 105.751 67.4971 104.58 68.6951C103.731 69.6009 102.853 70.3606 101.946 71.0034C101.828 71.1495 101.477 71.2664 100.892 71.4125C100.189 71.4709 99.5452 71.0618 98.8719 70.2437C98.6963 69.9223 98.4914 69.484 98.3158 68.958L98.0523 68.0522C97.7303 66.7374 97.4376 64.955 97.1741 62.7051C96.6765 58.2053 96.4716 55.5171 96.5887 54.699C96.618 53.0627 96.8229 51.5433 97.1449 50.1116L103.878 38.5699L104.17 37.6641C104.375 37.1089 104.58 36.6706 104.814 36.3492C105.048 36.0278 105.253 35.7941 105.517 35.6772C105.985 35.4434 106.512 35.648 107.039 36.2908C107.976 37.5765 108.795 38.979 109.439 40.4984C110.815 43.771 111.488 47.102 111.459 50.5498Z" fill="#F36208"/>
<path d="M73.8439 66.7667L73.6975 68.549C73.4341 70.8866 72.7901 73.0196 71.7655 74.9481L70.9459 76.3506C70.3604 77.2564 69.6579 78.133 68.8675 78.9511L67.6088 80.1491L64.2425 82.4282L61.0225 83.9769L57.9488 84.7658L54.9923 84.8242L52.1821 84.123L49.5183 82.6912L47.3522 80.8504C47.8205 79.4479 48.3182 77.7531 48.9036 75.7954C49.0792 75.3864 49.2841 74.9773 49.5476 74.5974L57.3341 65.2472C58.9441 63.4649 61.4323 60.8936 64.7986 57.5041L67.5795 54.29C69.131 55.8094 70.3897 57.358 71.3557 58.9359C71.9704 59.9293 72.4681 60.952 72.8486 61.9747L73.3462 63.5233C73.6682 64.6336 73.8146 65.6855 73.8439 66.7667Z" fill="#A0120C" fill-opacity="0.3922"/>
<path d="M78.8788 15.3696C77.4444 19.1681 74.605 25.1581 70.3897 33.3103C68.6919 36.4952 66.9941 39.5048 65.3256 42.2806L62.3105 46.459C62.1348 46.3421 61.9592 46.2252 61.7543 46.0791C61.1981 45.5824 60.6127 44.8811 60.0565 43.9753C59.0319 42.2806 58.3001 40.8489 57.8318 39.7093C56.8658 37.5179 56.3681 35.3556 56.3681 33.1934C56.3681 30.9143 56.895 28.6644 57.9489 26.3853C58.7099 24.8074 59.8809 23.3172 61.4616 21.9147C62.2519 21.2135 63.1594 20.5414 64.1547 19.8986C66.8477 18.3207 68.6041 17.4149 69.3945 17.152C69.8335 16.8598 71.2386 16.4215 73.639 15.8079C74.605 15.6033 75.6295 15.4865 76.6248 15.3988C77.3859 15.3696 78.1177 15.3696 78.8788 15.3696Z" fill="#A0120C" fill-opacity="0.3922"/>
<path d="M109.147 49.9065C109.147 49.9942 109.147 50.0526 109.147 50.1403L109.059 51.8934C108.766 55.3705 107.537 58.76 105.429 62.0326C104.726 63.1137 103.907 64.1948 102.999 65.2759L102.004 66.1817C100.453 67.4674 99.2232 68.3439 98.2572 68.7822L98.0523 68.0517C97.7303 66.7369 97.4376 64.9545 97.1741 62.7046C96.7643 59.023 96.5594 56.5685 96.5594 55.3413C96.5594 55.0783 96.5594 54.8446 96.5887 54.6985C96.6179 53.0622 96.8228 51.5428 97.1448 50.1111L103.878 38.5694L103.965 38.3356C104.58 38.7739 105.166 39.2707 105.663 39.7966C106.336 40.5271 106.922 41.3452 107.42 42.251C107.888 43.1568 108.268 44.1503 108.561 45.2606L108.912 46.9554C109.059 48.241 109.147 49.2053 109.147 49.9065Z" fill="#A0120C" fill-opacity="0.3922"/>
<path d="M113.889 110.186C113.362 110.274 112.806 110.332 112.279 110.332C110.844 110.508 108.532 110.157 105.37 109.251C102.502 108.228 99.955 106.037 97.7596 102.618C96.735 100.924 96.0618 98.7906 95.7105 96.1317C95.5349 94.2616 95.447 92.9468 95.447 92.2163C95.447 92.0702 95.447 91.9241 95.447 91.8072C95.447 90.6969 95.4763 89.5281 95.5641 88.3009C95.769 86.723 95.974 85.525 96.1789 84.7069C96.2959 84.1517 96.4423 83.6258 96.5887 83.1291L97.8767 82.6031C100.16 85.7004 101.565 87.6873 102.092 88.6223C104.053 91.6611 106.161 95.2259 108.415 99.2874C111.371 104.722 113.011 107.907 113.303 108.813C113.538 109.31 113.713 109.777 113.889 110.186Z" fill="#A0120C" fill-opacity="0.3922"/>
<path d="M52.1235 106.066C52.1235 106.242 52.0357 106.592 51.8601 107.118L51.5673 107.557L51.5381 107.557L48.6401 107.118L46.0348 106.329L43.693 105.19L41.6439 103.7L39.8583 101.859L38.3654 99.6382L37.136 97.0669C36.8432 96.1611 36.6676 95.6059 36.6383 95.4014C36.3749 94.4956 36.2578 93.4437 36.2578 92.2165C36.2578 91.6905 36.287 91.1061 36.3456 90.5218C36.4627 89.4699 36.6969 88.418 37.0481 87.3953C37.5458 86.0804 37.897 85.2915 38.0434 85.0285C39.0972 83.3046 40.2681 81.8728 41.6147 80.7333L42.6392 79.9151C43.3417 79.4184 44.0736 78.9801 44.8639 78.6295C45.1566 78.5126 45.4201 78.3957 45.7128 78.2788C47.0594 83.4214 48.9621 91.2815 51.4503 101.859C51.8893 103.933 52.1235 105.219 52.1235 105.745C52.1235 105.803 52.1235 105.862 52.1235 105.891L52.1235 105.95C52.1235 106.008 52.1235 106.037 52.1235 106.066Z" fill="#A0120C" fill-opacity="0.3922"/>
<path d="M70.4189 68.0813L70.4189 68.1105C70.3604 69.1916 70.0677 70.2435 69.5115 71.2662C68.9846 72.1428 68.2235 72.9609 67.199 73.7206C66.555 75.6199 65.9695 76.7887 65.4426 77.2562C65.1499 77.5776 64.7401 77.9574 64.1546 78.3081C63.8326 78.5126 63.2179 78.7756 62.2519 79.097C60.8468 80.1781 59.9394 80.7333 59.5295 80.7625C59.2661 80.8794 58.8855 80.9378 58.3294 80.967C57.9781 80.9963 57.2463 80.8502 56.1632 80.558C55.1679 80.7333 54.5239 80.7625 54.1726 80.7041C53.8506 80.6456 53.5286 80.5287 53.2652 80.3534C52.709 79.9736 52.2407 79.5937 51.9187 79.2431C50.5428 79.3308 49.6354 79.2723 49.2548 79.097C48.845 78.9509 48.4645 78.7171 48.1425 78.3665C48.3767 77.5776 48.6401 76.701 48.9036 75.766C49.0792 75.3569 49.2841 74.9478 49.5476 74.568L57.3341 65.2178C58.9441 63.4354 61.4323 60.8641 64.7986 57.4747L65.2962 56.8903C65.6768 57.0656 65.9695 57.2409 66.1744 57.4747C66.4671 57.7669 66.877 58.4681 67.3746 59.6077L69.7457 61.6238C69.8042 61.7115 69.8628 61.7991 69.9213 61.8868C70.1262 62.2374 70.2433 62.6465 70.2726 63.0556C70.2726 63.114 70.2726 63.1724 70.2726 63.2309C70.2726 63.7276 70.1848 64.5165 70.0384 65.6561C70.3019 66.8249 70.3897 67.6138 70.4189 68.0813Z" fill="#EE9761" fill-opacity="0.3922"/>
<path d="M69.3651 63.7858C69.3358 64.0488 69.248 64.2825 69.1309 64.5163C69.0724 64.6332 68.9846 64.7208 68.8967 64.8377C68.6626 65.0714 68.5162 65.2175 68.4577 65.2468C68.2235 65.4221 67.9893 65.5682 67.6966 65.6851C67.5502 65.7435 67.4038 65.8019 67.2575 65.8604C67.1989 65.8896 66.9355 65.948 66.5257 66.0649C65.6475 66.2402 64.9157 66.2694 64.3302 66.0941C64.0375 65.9773 63.8619 65.8896 63.8326 65.8604C63.7448 65.8019 63.6569 65.7435 63.5984 65.6851C63.4228 65.4805 63.335 65.276 63.3642 65.0715C63.3642 64.8961 63.3935 64.75 63.4813 64.6039C63.6277 64.341 63.8033 64.1657 63.9497 64.0488L64.6815 63.552L65.1791 63.2891L65.6475 63.0845L66.1159 62.9092L66.5842 62.7923L67.0526 62.7339L67.4917 62.7339L67.9308 62.7923L68.3698 62.88L68.7797 63.0261C68.8382 63.0553 68.926 63.1138 69.1017 63.2306C69.1602 63.2891 69.1895 63.3475 69.248 63.4059C69.3358 63.4936 69.3651 63.6397 69.3651 63.7858Z" fill="#EE9761" fill-opacity="0.3922"/>
<path d="M68.7212 69.776C68.7212 69.9513 68.6626 70.1851 68.5456 70.5065C68.4285 70.7403 68.2821 70.9448 68.1065 71.0909C67.6674 71.3831 67.0234 71.5 66.2037 71.4707C65.7939 71.4415 65.3841 71.3831 64.9743 71.237C64.5938 71.1201 64.2718 70.974 64.0083 70.7987C63.7448 70.6234 63.5399 70.4188 63.4228 70.2143C63.2765 69.9221 63.2179 69.6884 63.2472 69.513C63.2765 69.2501 63.3058 69.104 63.3936 69.0163C63.4814 68.8994 63.5985 68.7826 63.7448 68.6949L63.7741 68.1982C64.4181 68.1105 65.0328 68.0813 65.6183 68.1105L66.0574 68.1397C66.3501 68.169 66.6136 68.1982 66.877 68.2566C67.4917 68.3735 67.9016 68.5196 68.1065 68.6657C68.487 68.8994 68.7212 69.2793 68.7212 69.776Z" fill="#EE9761" fill-opacity="0.3922"/>
<path d="M64.8279 75.8827L64.7986 76.0872C64.7693 76.321 64.623 76.5255 64.4473 76.6716C64.3595 76.73 64.2132 76.7885 64.0961 76.8469L63.8619 76.9054L63.5984 76.9346C63.335 76.9346 63.1593 76.9054 63.1008 76.8761C62.8959 76.8177 62.691 76.7593 62.4861 76.6424C62.1055 76.4086 61.8128 76.1749 61.6079 75.9703C61.3737 75.7366 61.1688 75.5028 60.9932 75.2691C60.5541 74.6555 60.3492 74.0711 60.4077 73.5159C60.4077 73.399 60.437 73.2237 60.5248 72.99C60.5833 72.8146 60.7004 72.6685 60.8175 72.6101C60.8761 72.5809 60.9639 72.5224 61.0224 72.5224L61.1395 72.4932L62.1348 72.464C62.9837 73.0192 63.6277 73.6328 64.0961 74.3048C64.2424 74.5386 64.3888 74.7431 64.5059 74.9769L64.6815 75.3275C64.7986 75.4736 64.8279 75.6781 64.8279 75.8827Z" fill="#EE9761" fill-opacity="0.3922"/>
<path d="M58.9441 76.4671L58.9441 76.6132C58.9441 76.8762 58.9148 77.0223 58.9148 77.0515C58.8855 77.256 58.8563 77.4314 58.7977 77.6067C58.7392 77.8404 58.6806 77.9865 58.6514 78.045C58.6221 78.1326 58.5635 78.2203 58.505 78.3079C58.4465 78.3956 58.3879 78.4833 58.3294 78.5417C58.3001 78.5709 58.183 78.6878 58.0074 78.8631C57.7732 79.0092 57.5683 79.0969 57.3634 79.0676C57.1877 79.0384 57.0999 79.0092 57.0706 78.98C57.0121 78.9215 56.9243 78.8631 56.8657 78.8047C56.7486 78.6586 56.6316 78.5125 56.5437 78.3079C56.3681 77.8696 56.251 77.256 56.251 76.4671C56.251 76.1457 56.2803 75.8535 56.3388 75.5321L56.4559 75.0354L56.6023 74.5971L56.7486 74.2464L56.9243 73.9543L57.0999 73.7497L57.3048 73.6328L57.5097 73.5744L57.7439 73.6036L57.9781 73.6913L58.505 74.0127C58.5343 74.1296 58.6221 74.4218 58.7392 74.8893C58.7685 75.0646 58.827 75.2691 58.8563 75.4444C58.9148 75.8243 58.9441 76.1457 58.9441 76.4671Z" fill="#EE9761" fill-opacity="0.3922"/>
<path d="M55.1094 73.2529L54.9045 73.7496C54.5239 74.6846 54.1141 75.4443 53.7043 76.0287C53.2652 76.6131 52.8847 77.0222 52.5041 77.1975L52.3285 77.2559C52.2114 77.2851 52.0943 77.2851 52.0065 77.2559C51.9187 77.2267 51.8016 77.1975 51.7137 77.1098C51.6552 77.0514 51.6259 76.9637 51.5967 76.8761C51.5381 76.7007 51.5381 76.4378 51.5674 76.0871C51.6259 75.7073 51.7138 75.3567 51.8308 75.006C51.9772 74.597 52.2992 74.071 52.7676 73.4574C53.1481 72.9899 53.4701 72.6685 53.7628 72.5224L53.997 72.4347L54.2019 72.4347L54.4068 72.4932L55.1094 73.2529Z" fill="#EE9761" fill-opacity="0.3922"/>
<path d="M77.3859 18.9928C75.7759 22.616 73.4633 27.4079 70.3897 33.3102C68.6919 36.4952 66.9941 39.5048 65.3255 42.2806L64.8279 42.9526C64.3888 42.7773 63.8034 42.339 63.1008 41.6962C62.7203 41.2871 62.3397 40.7612 61.9592 40.0891C61.7543 39.7385 61.6372 38.8619 61.6079 37.4886C60.6712 35.6478 60.2028 34.4498 60.2028 33.9239C60.2028 33.8654 60.2028 33.8362 60.2028 33.7778C60.2321 33.1057 60.3492 32.5798 60.5541 32.1415C60.6419 31.7908 61.0225 31.148 61.6665 30.3007C61.8421 29.2488 62.047 28.4891 62.2812 28.0215C62.3983 27.6417 62.9837 26.9112 64.0375 25.8009C64.7108 24.3107 65.1499 23.4633 65.3548 23.2296C65.7939 22.7913 66.233 22.4699 66.6135 22.2653C66.8477 22.1192 67.3746 21.9439 68.1943 21.6809C68.9554 21.155 69.5115 20.8336 69.8628 20.6875C70.3604 20.3953 71.4728 20.1615 73.1706 19.9862C74.1659 19.3142 74.9855 18.9635 75.6588 18.8759C76.2735 18.9051 76.8297 18.9343 77.3859 18.9928Z" fill="#EE9761" fill-opacity="0.3922"/>
<path d="M69.5115 25.8296L69.5115 25.9465C69.4823 26.2679 69.2774 26.5017 68.9554 26.677L68.7212 26.7354L68.4577 26.7646L68.1943 26.7354L67.9308 26.6478L67.6674 26.5309L67.4039 26.3556L67.1112 26.1218C66.9355 25.9465 66.7306 25.7712 66.5257 25.5374L66.4086 25.3621C66.2623 25.1284 66.1452 24.8946 66.0574 24.6901C66.0281 24.5732 65.9988 24.4855 65.9696 24.3687L65.9403 24.2226C65.9403 24.1057 65.9403 24.018 65.9403 23.9596C65.9696 23.6674 66.0866 23.4044 66.2916 23.1414L67.0819 22.8493C67.7552 23.2291 68.2821 23.6674 68.7212 24.1641C68.8675 24.3394 68.9846 24.5148 69.1017 24.6901L69.2774 24.9823C69.453 25.3913 69.5408 25.6543 69.5115 25.8296Z" fill="#EE9761" fill-opacity="0.3922"/>
<path d="M72.5266 23.9894L72.5266 24.0186C72.5266 24.2523 72.4973 24.4861 72.4388 24.6906C72.4095 24.8075 72.3802 24.8952 72.3217 25.012C72.2046 25.2458 72.1168 25.3919 72.0875 25.4211C71.9119 25.6256 71.7948 25.7425 71.707 25.7717C71.6484 25.801 71.5899 25.8302 71.5313 25.8302C71.5021 25.8594 71.4143 25.8302 71.2386 25.801C71.1801 25.7717 71.0923 25.7425 71.0337 25.7133L70.7117 25.4211C70.5653 25.1581 70.4483 24.8952 70.3604 24.6906C70.2726 24.5153 70.2141 24.2816 70.1555 24.0186C70.097 23.6387 70.0677 23.3173 70.097 23.142C70.097 22.6745 70.1848 22.2362 70.3604 21.8271L70.4775 21.6226L70.6239 21.4765L70.7703 21.3888L70.9459 21.3596L71.1508 21.3888L71.3557 21.4765L71.5899 21.6226C71.6777 21.681 71.7363 21.7687 71.7948 21.8564C71.9412 22.0609 72.029 22.1778 72.0583 22.2362C72.2046 22.5284 72.3217 22.8206 72.3802 23.0836C72.4388 23.2881 72.4388 23.405 72.4388 23.4342C72.4973 23.668 72.5266 23.814 72.5266 23.9894Z" fill="#EE9761" fill-opacity="0.3922"/>
<path d="M67.199 30.3586L67.199 30.4171C67.199 30.5632 67.1404 30.68 67.0233 30.7677C66.9063 30.8846 66.7599 30.9722 66.5843 30.9722C66.233 31.0307 65.7353 30.9722 65.1206 30.7969C65.0328 30.7677 64.8572 30.7093 64.5644 30.5632C64.3303 30.4463 64.1254 30.3294 63.979 30.1833C63.8912 30.0957 63.8034 30.008 63.7448 29.9495C63.6863 29.9203 63.5984 29.7742 63.4814 29.5697C63.3935 29.4236 63.335 29.2483 63.335 29.073C63.335 28.81 63.4228 28.6055 63.5692 28.4594C63.6277 28.4009 63.6863 28.3717 63.7448 28.3133L63.8619 28.2548L64.623 27.8165C64.8279 27.9042 65.0328 27.9919 65.2377 28.1087L65.5012 28.2548C65.8524 28.4594 66.1744 28.7223 66.4379 28.9853C66.5843 29.1314 66.7013 29.2775 66.8184 29.4236C66.877 29.5113 66.9355 29.5989 66.9648 29.6574C67.0526 29.8035 67.1112 29.9495 67.1404 30.0664C67.199 30.2417 67.199 30.3294 67.199 30.3586Z" fill="#EE9761" fill-opacity="0.3922"/>
<path d="M66.0867 34.4492L66.0867 34.5076C66.0574 34.6537 65.9696 34.7998 65.8232 34.9459C65.6183 35.1212 65.4134 35.2673 65.2378 35.355C64.9743 35.4719 64.8279 35.5595 64.7401 35.5888C64.623 35.6472 64.506 35.6764 64.3596 35.7056C64.2132 35.7641 64.0961 35.7933 63.979 35.8225C63.7156 35.8809 63.5692 35.9102 63.5107 35.9102L63.3643 35.9102C63.2765 35.9102 63.1887 35.9102 63.1009 35.9102C63.0131 35.9102 62.9252 35.8809 62.8667 35.8809L62.691 35.8225C62.574 35.7933 62.4861 35.7348 62.3983 35.7056L62.2812 35.618C62.2227 35.5595 62.1641 35.5011 62.1056 35.4427C62.0178 35.2966 61.9885 35.1505 62.0178 35.0336C62.0178 34.8583 62.1056 34.6537 62.2227 34.42L63.1009 33.7187C63.2472 33.6895 63.3643 33.6603 63.4229 33.6603C63.6863 33.6311 64.0961 33.6018 64.623 33.6018C64.9158 33.631 65.0914 33.6603 65.2085 33.6895C65.3549 33.7187 65.4719 33.7771 65.589 33.8356C65.6476 33.8648 65.7061 33.9232 65.7647 33.9525L65.8232 34.0109C65.9989 34.1862 66.0867 34.3031 66.0867 34.4492Z" fill="#EE9761" fill-opacity="0.3922"/>
<path d="M105.956 44.5887L105.956 44.6764C105.956 44.8809 105.897 45.1147 105.78 45.3484C105.575 45.6991 105.37 45.9913 105.136 46.2835C104.902 46.5757 104.697 46.8094 104.463 47.0139L104.112 47.3061L103.731 47.5691L103.351 47.7736L102.97 47.9197L102.56 48.0366C102.443 48.0366 102.326 48.0366 102.238 48.0366C102.033 48.0074 101.887 47.9197 101.799 47.8029C101.741 47.7444 101.711 47.6568 101.682 47.5691C101.653 47.4815 101.624 47.3646 101.624 47.2477C101.624 47.16 101.624 47.0724 101.653 46.9555C101.653 46.9263 101.711 46.751 101.799 46.488C101.887 46.2835 102.033 46.0497 102.209 45.7867L102.531 45.1147L102.765 44.7933C102.941 44.5887 103.087 44.4134 103.263 44.2673C103.438 44.1212 103.614 43.9751 103.79 43.8875C103.965 43.7706 104.17 43.7122 104.346 43.6537L104.639 43.5953L104.931 43.5661C105.019 43.5661 105.107 43.5953 105.166 43.5953C105.4 43.6537 105.605 43.7998 105.751 44.0336C105.897 44.1797 105.956 44.3842 105.956 44.5887Z" fill="#EE9761" fill-opacity="0.3922"/>
<path d="M107.507 50.9002L107.507 50.9294C107.507 51.0171 107.478 51.134 107.449 51.2216L107.244 51.5723L107.01 51.8645L106.717 52.1274L106.395 52.3612L106.015 52.5365L105.605 52.6826L105.166 52.7703L104.668 52.8287L104.141 52.8579C103.79 52.8287 103.497 52.7703 103.234 52.7118C102.97 52.6242 102.765 52.5073 102.619 52.3612C102.473 52.2151 102.414 52.1274 102.385 52.0982C102.326 51.9813 102.297 51.8937 102.297 51.7768C102.297 51.6891 102.326 51.5723 102.355 51.4846L102.414 51.3385C102.502 51.1924 102.531 51.1048 102.56 51.0755L102.736 50.608L103.175 50.4327C103.468 50.3158 103.731 50.2282 104.024 50.1405C104.287 50.0529 104.58 49.9944 104.844 49.9652C105.107 49.936 105.371 49.9068 105.634 49.8775L106.015 49.8775L106.395 49.9068C106.454 49.9068 106.571 49.936 106.776 49.9944C107.244 50.1113 107.478 50.4327 107.507 50.9002Z" fill="#EE9761" fill-opacity="0.3922"/>
<path d="M105.722 57.0657L105.722 57.1242C105.693 57.4748 105.488 57.7085 105.078 57.8254C105.049 57.8546 104.873 57.8839 104.58 57.9131C104.463 57.9131 104.317 57.9131 104.2 57.9131C103.936 57.8839 103.673 57.8254 103.409 57.7378C103.292 57.7085 103.146 57.6501 103.029 57.5917C102.707 57.4456 102.502 57.3287 102.443 57.2995C102.297 57.1826 102.151 57.0365 102.004 56.9196C101.741 56.6859 101.565 56.4229 101.477 56.1891C101.419 56.0723 101.389 55.9554 101.36 55.8385L101.36 55.5755C101.36 55.4002 101.419 55.1957 101.536 55.0204L102.18 54.3483C102.414 54.4068 102.648 54.4652 102.853 54.5529L103.175 54.6697C103.409 54.7574 103.614 54.8743 103.819 54.9911C104.229 55.2249 104.639 55.4879 105.049 55.8385C105.253 56.0723 105.4 56.2768 105.517 56.4521C105.546 56.5106 105.605 56.6274 105.693 56.8612C105.722 56.8904 105.722 56.9781 105.722 57.0657Z" fill="#EE9761" fill-opacity="0.3922"/>
<path d="M102.033 61.2147L102.033 61.3024C102.004 61.6822 101.829 61.9452 101.507 62.1205C101.36 62.179 101.214 62.2082 101.038 62.179C100.745 62.1497 100.57 62.0913 100.482 62.0037C99.9551 61.653 99.4867 61.2147 99.0769 60.6596L98.9891 60.5135C98.9306 60.4258 98.872 60.3381 98.8427 60.2505C98.8135 60.1921 98.7842 60.0752 98.7256 59.8999C98.6378 59.6661 98.6086 59.4323 98.6086 59.1401C98.6086 58.9648 98.6378 58.8187 98.6964 58.6726L99.6038 57.6792C100.043 58.0006 100.423 58.322 100.745 58.6434C100.921 58.7895 101.038 58.9648 101.185 59.1109L101.36 59.3447C101.594 59.6369 101.741 59.9583 101.858 60.3089C101.975 60.718 102.033 60.981 102.033 61.2147Z" fill="#EE9761" fill-opacity="0.3922"/>
<path d="M101.77 90.7843L101.77 90.8719C101.741 91.0764 101.653 91.281 101.448 91.544L100.628 92.0407C100.336 92.1868 100.043 92.3037 99.7501 92.3913L99.3403 92.5082L98.9597 92.5959L98.5792 92.6543L98.2279 92.6543L97.9059 92.6251L97.5839 92.5666L97.2912 92.479L97.1155 92.3621C96.8814 92.216 96.7057 92.0699 96.5886 91.8946C96.5301 91.8069 96.4716 91.7193 96.4423 91.6024C96.413 91.544 96.3837 91.3979 96.3545 91.1933C96.3545 90.8427 96.6179 90.5213 97.2034 90.1999C97.7595 89.9077 98.4328 89.7031 99.1939 89.6447C99.955 89.5863 100.599 89.7031 101.097 89.9661L101.302 90.083C101.419 90.1414 101.506 90.2291 101.594 90.3167C101.711 90.4336 101.77 90.6089 101.77 90.7843Z" fill="#EE9761" fill-opacity="0.3922"/>
<path d="M103.204 95.8688L103.204 96.0149C103.146 96.2779 103.117 96.424 103.087 96.4532C103.029 96.5409 102.999 96.6577 102.912 96.7454C102.795 96.8915 102.59 97.096 102.297 97.359C101.975 97.6512 101.624 97.885 101.302 98.0603C101.126 98.1479 100.98 98.2356 100.804 98.3233C100.365 98.4986 100.131 98.5862 100.072 98.5862C99.516 98.7323 98.9891 98.7323 98.5207 98.5862C98.3744 98.5278 98.228 98.4693 98.1109 98.4109C97.8475 98.2356 97.6718 98.1479 97.6718 98.0895C97.4084 97.8265 97.3205 97.5928 97.3498 97.4467L97.3498 97.2714C97.3791 97.1545 97.4084 97.0376 97.4669 96.9207C97.5255 96.8038 97.584 96.687 97.6718 96.5993C97.8475 96.3948 98.1109 96.1902 98.4329 96.0149L98.6964 95.8688C98.9013 95.7812 99.1355 95.6643 99.3989 95.5474C99.6624 95.4305 99.9844 95.3429 100.336 95.226C101.038 94.9922 101.887 94.7585 102.912 94.4663L103.204 95.7227L103.204 95.8688Z" fill="#EE9761" fill-opacity="0.3922"/>
<path d="M106.512 100.515L106.512 100.69C106.454 101.216 106.219 101.888 105.751 102.677C105.517 103.028 105.283 103.378 105.049 103.641C104.931 103.787 104.814 103.904 104.668 104.05C104.346 104.343 104.141 104.518 104.083 104.547C104.024 104.606 103.848 104.693 103.526 104.839C103.409 104.898 103.292 104.927 103.175 104.956C102.941 105.015 102.736 105.015 102.531 104.956C102.414 104.927 102.326 104.898 102.238 104.839L102.121 104.752C102.063 104.693 102.004 104.635 101.946 104.547C101.887 104.459 101.858 104.401 101.829 104.313C101.799 104.255 101.799 104.109 101.799 103.904C101.829 103.583 101.946 103.174 102.151 102.735C102.326 102.414 102.443 102.21 102.473 102.151C102.56 102.005 102.648 101.888 102.765 101.742C103.526 100.778 104.287 100.018 105.049 99.4922L105.253 99.3461L105.751 99.4629C105.868 99.4337 105.956 99.4337 106.044 99.4629L106.161 99.4922L106.249 99.5798C106.307 99.6382 106.366 99.7259 106.395 99.8136C106.512 100.077 106.541 100.31 106.512 100.515Z" fill="#EE9761" fill-opacity="0.3922"/>
<path d="M109.966 104.401L109.966 104.518C109.966 104.839 109.908 105.161 109.849 105.482L109.732 105.949C109.644 106.242 109.556 106.505 109.439 106.768C109.322 107.001 109.205 107.235 109.088 107.41L108.883 107.673C108.737 107.849 108.62 107.966 108.473 108.083C108.034 108.375 107.624 108.433 107.273 108.258C106.922 108.053 106.776 107.703 106.776 107.206C106.805 106.914 106.834 106.651 106.922 106.388C106.951 106.242 107.01 106.096 107.068 105.949C107.215 105.57 107.332 105.336 107.361 105.248C107.683 104.635 108.064 104.021 108.532 103.407L109.352 102.998L109.439 102.969L109.527 102.969C109.586 102.969 109.615 102.998 109.674 103.028L109.732 103.086C109.761 103.144 109.82 103.203 109.849 103.291C109.878 103.378 109.908 103.466 109.937 103.583C109.966 103.904 109.966 104.196 109.966 104.401Z" fill="#EE9761" fill-opacity="0.3922"/>
<path d="M53.2944 55.6339L52.2992 58.1467C51.9479 58.0299 51.5673 57.8838 51.1868 57.7669L48.4645 56.5105C48.1425 56.3351 47.8204 56.1598 47.4984 55.9845C47.4692 56.043 47.4106 56.1014 47.3814 56.1598C46.6788 57.387 46.0055 58.2928 45.3323 58.9064C45.3615 58.9357 45.4201 58.9649 45.4494 58.9649C46.6788 60.1629 47.7912 62.2082 48.8157 65.101C48.9328 65.4516 49.0206 65.773 49.1377 66.1236L47.9668 69.104C43.6052 68.169 39.7705 66.9126 36.5212 65.247C34.882 64.4289 33.4183 63.5231 32.0425 62.5004C30.696 61.507 29.4958 60.3966 28.4127 59.2279L26.9198 57.387C26.3636 56.6566 25.8367 55.8384 25.2805 54.9034C25.3684 54.8742 25.4269 54.845 25.4562 54.8157C25.8367 54.6404 26.188 54.4359 26.4807 54.2314C27.1247 53.7931 27.6516 53.2963 28.0907 52.7119L29.9934 51.1341C30.052 51.1925 30.0812 51.2218 30.1398 51.2802C29.6422 50.6958 29.1445 50.053 28.6176 49.3517C27.1247 47.3648 25.4562 44.9688 23.6705 42.193C21.4751 38.3945 20.2164 35.94 19.9236 34.8589C19.3089 33.2226 18.9869 31.8201 18.9869 30.6805C19.104 29.9208 19.5138 29.2196 20.2749 28.606C20.7725 28.2846 21.2409 27.9924 21.7093 27.7586C22.9094 28.6352 24.4902 29.7747 26.4514 31.2065C26.832 31.4695 27.2711 31.8785 27.7102 32.4337C28.0322 32.8428 28.3542 33.5148 28.6176 34.4206C29.086 38.073 29.8763 41.0534 30.9594 43.391C33.0085 46.9557 35.0576 49.4686 37.0774 50.8711C38.863 52.3905 40.9121 53.5301 43.2539 54.319C44.4248 54.7281 45.6543 55.0203 46.9715 55.2248C47.4985 55.4586 49.6061 55.6047 53.2944 55.6339Z" fill="#C60700" fill-opacity="0.3922"/>
<path d="M45.6543 86.5769L45.6543 86.6353C45.6543 86.8107 45.5665 86.986 45.4494 87.1613C45.303 87.3074 45.0981 87.4535 44.8639 87.5411C44.7468 87.5996 44.6298 87.6288 44.4834 87.658C44.1028 87.7457 43.8687 87.7749 43.7809 87.7749C43.4589 87.7749 43.1661 87.7749 42.8734 87.7165C42.727 87.6872 42.5807 87.658 42.4636 87.6288C42.1416 87.5411 41.9367 87.4535 41.8781 87.4243C41.4976 87.249 41.2049 87.0736 40.9414 86.8691C40.678 86.6938 40.473 86.4892 40.3267 86.2847C40.151 86.0802 40.0632 85.8756 40.0632 85.6711C40.0632 85.2913 40.4145 84.9698 41.1463 84.6776L41.439 84.59C41.6732 84.5316 41.9074 84.5023 42.1416 84.4731L42.4928 84.4731C42.727 84.4731 42.9905 84.5023 43.2539 84.5316C43.7808 84.6192 44.3078 84.7653 44.8639 84.9698L45.4201 85.8464C45.4494 85.9049 45.4787 85.9633 45.5079 85.9925C45.5958 86.1678 45.625 86.3432 45.6543 86.5769Z" fill="#DE642B"/>
<path d="M44.7469 89.8497L44.542 90.697C44.542 91.0476 44.5128 91.2814 44.4542 91.4567C44.4542 91.5152 44.3664 91.632 44.2493 91.8074C44.1908 91.8658 44.1322 91.9242 44.0444 91.9827C43.898 92.0995 43.6639 92.1872 43.4004 92.2456C43.254 92.2749 43.1077 92.3041 42.932 92.3333C42.493 92.3917 42.2002 92.421 42.0831 92.421C41.5855 92.4502 41.1171 92.4502 40.7073 92.421L40.4146 92.3917C40.239 92.3625 40.0633 92.3333 39.8877 92.3041C39.7413 92.2749 39.595 92.2164 39.4486 92.158C39.3315 92.0995 39.2437 92.0703 39.1559 92.0119C39.0973 91.9827 39.0095 91.895 38.8632 91.7489C38.7168 91.5152 38.6875 91.3106 38.7461 91.0769C38.7461 90.96 38.8046 90.8431 38.8924 90.7555C38.9802 90.6386 39.0681 90.5509 39.2144 90.4633L39.4486 90.3464C39.7413 90.2003 40.239 90.025 40.9415 89.8789C41.2928 89.8204 41.8782 89.762 42.6979 89.762C43.137 89.762 43.8395 89.7912 44.7469 89.8497Z" fill="#DE642B"/>
<path d="M46.0349 96.3654L45.9471 96.6576L45.8007 96.9206L45.6251 97.1836L45.3909 97.4173L45.0982 97.6511L44.7469 97.8556C44.5127 98.0017 44.22 98.1186 43.898 98.2355L43.4004 98.4108C43.1077 98.4984 42.8149 98.5861 42.5807 98.6153L42.2295 98.6445L41.9075 98.6445L41.6147 98.6153L41.3806 98.5277L41.1757 98.4108L41 98.2355L40.8537 98.0017C40.8244 97.914 40.8244 97.8556 40.8244 97.768L40.8829 97.4758L41.0586 97.1543L41.3513 96.8329L41.7611 96.5115L42.2587 96.1901L42.8735 95.8395L43.6053 95.4888L44.4542 95.1382L45.4202 94.7876L46.0349 96.3654Z" fill="#DE642B"/>
<path d="M48.6108 100.223L48.6108 100.281C48.6108 100.456 48.523 100.661 48.4059 100.895C48.1425 101.333 47.9376 101.654 47.7619 101.83C47.557 102.093 47.2936 102.356 47.0008 102.619C46.7667 102.823 46.5618 102.969 46.3568 103.115L46.0641 103.291C45.8592 103.378 45.6836 103.466 45.5079 103.495L45.2445 103.524L45.0103 103.495L44.7761 103.437C44.4541 103.291 44.2785 103.057 44.2785 102.706C44.3663 101.596 45.4201 100.369 47.4692 99.0246L48.4937 99.7843C48.5523 99.9012 48.6108 100.047 48.6108 100.223Z" fill="#DE642B"/>
<path d="M92.6954 57.8545L92.6954 58.0883C92.6662 60.5719 92.3442 63.6984 91.6709 67.4092C91.2903 69.104 90.8513 70.0098 90.3536 70.1266C89.0656 70.302 87.6313 70.1266 86.0213 69.6007C82.6842 68.4027 79.8448 67.1463 77.5029 65.8314C77.2395 65.51 77.0931 65.0425 77.0639 64.4873C76.976 60.6303 76.8004 58.1467 76.537 56.9779C76.1271 54.9326 75.6588 53.4132 75.1319 52.3905C74.4879 51.1341 73.8146 50.1698 73.1121 49.527C72.673 49.0887 71.5606 48.4459 69.8628 47.5693L65.1499 42.8065C65.1206 42.7481 65.0914 42.6604 65.0914 42.5436C65.0914 42.4267 65.1206 42.2514 65.2377 42.0176L69.0432 34.6251C69.8921 33.0765 70.7702 31.7616 71.6484 30.6805L75.1611 30.0669L77.5615 31.1188C82.1866 33.4271 85.8164 36.9919 88.5094 41.8131L89.7682 44.3259C90.6464 46.2836 91.2318 47.9491 91.6123 49.2932C92.1978 51.1925 92.5783 54.0268 92.6954 57.8545Z" fill="#DECF07"/>
<path d="M92.6954 57.8539L92.6954 58.0876C92.6662 60.5713 92.3442 63.6977 91.6709 67.4086C91.2903 69.1033 90.8513 70.0091 90.3536 70.126C89.6218 70.2136 88.8607 70.2137 88.0411 70.0968C88.3631 68.8111 88.568 67.7592 88.6558 66.9703C88.9778 64.8373 89.1534 62.7335 89.1534 60.5713C89.0071 54.4936 88.0996 49.7309 86.4311 46.2246C83.9429 40.9359 80.8986 36.962 77.3273 34.2738C76.0979 33.5434 74.8977 32.9882 73.6975 32.5791C72.673 33.0758 71.2386 33.5434 69.3944 33.9816C70.1262 32.696 70.8873 31.6149 71.6191 30.7091L75.1319 30.0955L77.5322 31.1474C82.1573 33.4557 85.7871 37.0205 88.4802 41.8417L89.7389 44.3545C90.6171 46.3122 91.2025 47.9777 91.5831 49.3218C92.1978 51.1919 92.5783 54.0261 92.6954 57.8539Z" fill="#548C09"/>
<path d="M79.0837 66.3569L79.0837 66.7075C78.4983 66.4153 77.9714 66.1231 77.4445 65.8309C77.181 65.5095 77.0347 65.042 77.0054 64.4869C76.9176 60.6299 76.7419 58.1462 76.4785 56.9775C76.0687 54.9321 75.6003 53.4127 75.0734 52.39C74.4294 51.1336 73.7561 50.1694 73.0536 49.5265C72.6145 49.0882 71.5021 48.4454 69.8043 47.5688L65.0914 42.8061C65.0622 42.7476 65.0329 42.66 65.0329 42.5431L65.0329 42.5139C65.0329 42.397 65.0914 42.2217 65.1792 42.0172L68.9847 34.6247C69.8336 33.076 70.7118 31.7612 71.5899 30.68L75.1027 30.0664L75.1612 30.0957C73.8732 32.141 72.7901 33.9818 71.9412 35.5597C70.7118 37.9557 70.0678 39.2998 70.0092 39.592C69.6872 40.3809 69.453 41.0529 69.3067 41.6665C69.8043 41.9003 70.946 42.8353 72.7609 44.4716C73.4341 45.1436 74.0489 45.8741 74.6343 46.6046C75.7759 48.0948 76.6541 49.7603 77.3274 51.5427C77.8543 53.8802 78.2641 56.1593 78.5568 58.3508C78.8203 60.0747 79.0252 62.7337 79.0837 66.3569Z" fill="#548C09" fill-opacity="0.2902"/>
<path d="M50.8942 75.0642L50.8942 75.2103C50.8942 75.6194 50.8356 75.9408 50.7185 76.1161C50.3965 76.3207 50.0745 76.4668 49.7525 76.496C43.0784 76.759 37.6922 77.2265 33.594 77.9277C32.7451 75.6778 32.1304 74.2753 31.7206 73.6909L30.6668 72.2592L27.359 68.3146C26.715 67.4672 26.1003 66.3569 25.4855 64.9836C24.9294 63.7271 24.4903 62.4415 24.1975 61.1266C23.6999 58.5261 23.4657 56.7437 23.5243 55.8379L23.5243 55.5749C24.6074 55.2243 25.2221 54.9905 25.3684 54.8737C25.749 54.6983 26.1003 54.4938 26.393 54.2893C27.037 53.851 27.5639 53.3543 28.003 52.7699L29.9057 51.192C33.0086 54.2016 35.3211 56.1009 36.8433 56.9482C38.102 57.6203 39.1851 58.0586 40.0926 58.2339C42.1124 58.643 43.7516 58.8475 44.9811 58.8767C45.0982 58.9059 45.2446 58.9644 45.3616 59.052C46.5911 60.25 47.7035 62.2954 48.728 65.1881C50.1038 69.308 50.7771 72.6098 50.8942 75.0642Z" fill="#DECF07"/>
<path d="M104.024 37.3128L104.024 37.4589C103.995 37.8679 103.878 38.3355 103.702 38.8322L101.067 45.2604C100.862 45.7572 100.306 46.7798 99.4281 48.3285C99.2232 48.6499 99.0183 48.9421 98.7841 49.1466C97.9938 49.7894 97.379 50.0232 96.9692 49.8187C95.9154 49.4972 94.8909 48.9421 93.9249 48.1532C91.8465 46.4584 89.7974 44.1793 87.7776 41.345C86.1969 39.4166 84.382 36.6699 82.3915 33.1636C80.0204 28.6054 78.908 23.755 79.0544 18.6124C79.2593 15.2522 79.4642 13.499 79.7277 13.3821C80.2838 12.9438 81.3084 12.6224 82.8305 12.4471L94.5396 17.1514C93.8956 21.1253 94.2176 24.7485 95.5056 28.0795C96.2667 29.6281 97.1156 30.8553 98.0523 31.8195C98.7549 32.6085 100.511 34.011 103.321 35.9979C103.76 36.4654 103.995 36.8745 104.024 37.3128Z" fill="#DECF07"/>
<path d="M99.6038 47.9778C99.5452 48.0947 99.4574 48.2116 99.3989 48.3285C99.1939 48.6499 98.989 48.9421 98.7549 49.1466C97.9645 49.7894 97.3498 50.0232 96.94 49.8187C95.8861 49.4972 94.8616 48.9421 93.8956 48.1532C92.3149 46.8675 90.7342 45.2312 89.1827 43.2443L89.7096 44.2962C89.9438 44.8222 90.1487 45.3481 90.3536 45.8156C89.9731 45.4358 89.6803 45.1143 89.4754 44.8514C87.1336 42.0755 85.1724 39.3873 83.6209 36.8453C83.0355 35.9102 82.45 34.946 81.8938 33.9233C82.5671 34.4493 83.2111 35.0337 83.8258 35.6473C83.7673 35.5304 83.6795 35.4135 83.6209 35.2966C83.2111 34.6246 82.8013 33.8941 82.3622 33.1344C80.1375 28.8684 79.0251 24.3394 79.0251 19.5182C79.0251 19.489 79.0251 19.4597 79.0251 19.4305C79.0251 19.4013 79.0251 19.3721 79.0251 19.3429C79.0251 19.0799 79.0251 18.8169 79.0251 18.5539C79.23 15.1937 79.4349 13.4406 79.6984 13.3237C80.2546 12.8854 81.2791 12.564 82.8013 12.3887L83.094 12.5055C82.9769 13.2652 82.9184 14.0834 82.9184 14.9307C82.9184 18.7585 84.0015 23.5797 86.1384 29.3943C87.5142 32.8714 89.3876 36.2317 91.7587 39.4166C93.9834 42.4262 96.5887 45.2604 99.6038 47.9778Z" fill="#548C09"/>
<path d="M104.024 37.3131L104.024 37.4592C103.995 37.8098 103.907 38.1896 103.76 38.6279L103.116 38.5111C101.741 38.1896 100.277 37.4299 98.7841 36.2027L97.6425 35.2093L96.4716 34.0697L95.769 33.2516L95.1251 32.375C94.7152 31.7614 94.364 31.1186 94.042 30.4465C93.398 29.0732 92.9003 27.5246 92.5783 25.8298C92.3149 24.6026 92.1978 23.2293 92.1685 21.6807C92.1685 21.6223 92.1685 21.5638 92.1685 21.4762C92.1685 21.0671 92.2271 20.2782 92.3442 19.1386C92.432 18.5834 92.5198 18.0575 92.6661 17.5023C92.754 17.1809 92.8418 16.8303 92.9589 16.5089L94.5396 17.1517C94.3347 18.4666 94.2176 19.7522 94.2176 21.0087C94.2176 23.4923 94.6567 25.8591 95.5056 28.0797C96.2667 29.6284 97.1156 30.8556 98.0523 31.8198C98.7549 32.6087 100.511 34.0113 103.321 35.9982C103.76 36.4657 103.995 36.8748 104.024 37.3131Z" fill="#B6BC07"/>
<path d="M50.8942 75.064L50.8942 75.2101C50.8942 75.6192 50.8356 75.9406 50.7185 76.1159C50.3965 76.3204 50.0745 76.4665 49.7525 76.4958C49.2842 76.525 48.8451 76.525 48.3767 76.5542C48.2889 75.7945 48.0255 74.5088 47.5864 72.668C47.118 70.9733 46.3276 69.2494 45.1567 67.467C44.542 66.4735 43.5175 65.3047 42.0538 63.9607C36.2871 59.7823 32.8622 57.1525 31.8377 56.0422C30.7253 54.815 29.8179 53.3833 29.2032 51.8054L29.9057 51.221C33.0086 54.2306 35.3211 56.1299 36.8433 56.9772C38.102 57.6493 39.1851 58.0876 40.0926 58.2629C42.1124 58.6719 43.7516 58.8765 44.9811 58.9057C45.0982 58.9349 45.2446 58.9934 45.3616 59.081C46.5911 60.279 47.7035 62.3244 48.728 65.2171C50.1038 69.3078 50.7771 72.6096 50.8942 75.064Z" fill="#618B05"/>
<path d="M102.092 71.0618L102.092 71.7631C101.975 75.4155 100.804 78.9803 98.5792 82.4574L97.3204 84.0352C96.413 85.0579 95.3884 86.0221 94.2468 86.9279C91.3196 89.0025 89.0656 90.3174 87.5434 90.8141C86.4896 91.2524 85.7285 91.3109 85.2601 91.0187C82.8012 86.9279 80.9863 83.8015 79.7861 81.5808C79.4349 80.9672 79.23 80.3536 79.1714 79.74C79.4056 78.5712 80.0203 77.6362 80.957 76.9641C82.7134 76.146 84.2356 75.3571 85.465 74.6266C87.4556 73.3409 88.5679 72.4351 88.8314 71.9676C89.6803 71.0034 90.4121 69.8346 90.939 68.4905C91.261 67.7016 91.6708 66.3283 92.1099 64.3998C92.2855 63.9031 92.549 63.4064 92.9003 62.9096C94.3932 61.0688 96.2081 59.8416 98.2864 59.1988C99.2232 60.0754 100.072 61.5948 100.804 63.8154C101.711 66.4452 102.15 68.8704 102.092 71.0618Z" fill="#DECF07"/>
<path d="M100.219 79.3894C99.7501 80.412 99.194 81.4347 98.55 82.4574L97.2912 84.0352C96.3838 85.0579 95.3593 86.0221 94.2176 86.9279C91.2904 89.0025 89.0364 90.3174 87.5142 90.8141C86.4604 91.2524 85.6993 91.3109 85.2309 91.0187C82.772 86.9279 80.9571 83.8015 79.7569 81.5808C79.4057 80.9672 79.2008 80.3536 79.1422 79.74C79.3764 78.5712 79.9911 77.6362 80.9279 76.9641C81.0449 76.9057 81.1913 76.8473 81.3084 76.7888C82.1866 77.5778 83.1818 78.5128 84.3235 79.6815C85.5237 81.0256 86.8702 83.3047 88.4216 86.5773C88.6851 86.8987 89.0071 87.1325 89.3876 87.2494C89.6804 87.3955 90.2365 87.2786 91.1147 86.9572C91.6124 86.7234 92.1685 86.3436 92.7833 85.8468C93.1931 85.5254 93.8663 84.9118 94.8323 83.9476L98.3451 80.1491C98.7841 79.6815 99.1354 79.3894 99.3696 79.2725C99.516 79.1848 99.6331 79.1264 99.7501 79.1264C100.014 79.1556 100.131 79.2433 100.16 79.3309C100.189 79.3309 100.219 79.3601 100.219 79.3894Z" fill="#B6BC07"/>
<path d="M77.0053 106.914L76.9761 107.732C77.0053 108.024 76.8882 108.813 76.5955 110.099C76.4784 110.595 76.3028 111.092 76.0979 111.589C75.7173 112.524 75.1904 113.459 74.5464 114.452C74.2244 114.978 73.8439 115.533 73.4048 116.059C72.2632 117.579 70.3605 119.39 67.6674 121.523C67.0819 121.962 66.555 122.195 66.0867 122.225C65.5305 122.166 65.2085 122.079 65.1499 121.932C64.7108 121.523 63.7741 120.15 62.369 117.812C61.4909 116.147 61.081 115.037 61.1689 114.423C61.1103 113.809 61.1396 113.283 61.2567 112.874C62.4276 109.923 63.0716 107.849 63.1887 106.651C63.4228 104.927 63.3643 103.203 62.9838 101.479C62.0763 97.6511 60.4956 94.8461 58.2709 93.0345C60.2321 90.6969 61.8421 88.973 63.1301 87.8626C63.7741 87.3075 64.3303 86.8984 64.8279 86.6354C65.2963 86.3724 65.7061 86.2848 66.0281 86.3432L66.4379 86.5478C69.775 89.1483 72.3803 92.3624 74.2244 96.2194L75.0733 98.2063C75.6003 99.5504 76.0393 100.982 76.4199 102.472C76.859 104.372 77.0639 105.833 77.0053 106.914Z" fill="#DECF07"/>
<path d="M68.8967 103.203L68.8675 104.079C68.604 107.352 67.9893 109.865 67.0233 111.618C66.7598 112.231 65.8524 113.371 64.2717 115.066C63.774 115.562 63.2471 116.059 62.6617 116.585L62.0177 117.14C61.4322 115.971 61.1395 115.124 61.1395 114.569C61.1395 114.51 61.1395 114.452 61.1395 114.423C61.1102 114.218 61.1102 114.014 61.1102 113.809C61.1102 113.458 61.1395 113.137 61.2273 112.845C62.3982 109.894 63.0422 107.819 63.1593 106.621C63.2471 105.949 63.3057 105.248 63.3057 104.576C63.3057 103.524 63.1886 102.501 62.9544 101.449C62.0469 97.6216 60.4662 94.8165 58.2415 93.0049C59.8515 91.0765 61.2273 89.5863 62.3982 88.5052C63.5984 89.7324 64.3595 90.609 64.7107 91.1349C65.5889 92.2452 66.2622 93.2387 66.7013 94.1445C67.9307 96.5113 68.6625 99.5209 68.8967 103.203Z" fill="#B6BC07"/>
<path d="M77.0054 106.621C77.0054 106.709 77.0054 106.826 77.0054 106.914L76.9761 107.732C76.9761 107.761 76.9761 107.79 76.9761 107.819C76.9761 108.17 76.859 108.93 76.5956 110.099C76.4785 110.595 76.3028 111.092 76.0979 111.589C75.7174 112.524 75.1905 113.459 74.5465 114.452C74.2245 114.978 73.8439 115.533 73.4048 116.059C72.2632 117.579 70.3605 119.39 67.6674 121.523C67.082 121.962 66.555 122.195 66.0867 122.225C65.5305 122.166 65.2085 122.079 65.15 121.932C67.082 118.981 68.3114 116.848 68.8383 115.533C69.7165 113.371 70.1263 110.858 70.1263 108.024C70.1263 107.44 70.097 106.826 70.0678 106.212C70.0385 105.716 69.9799 105.19 69.9214 104.664C69.5116 102.735 69.0432 100.894 68.487 99.1705C67.9309 97.4466 67.2869 95.8395 66.555 94.3201C65.8232 92.8007 65.0036 91.3982 64.1254 90.1125L62.7203 88.2425C62.8667 88.1256 63.0131 87.9795 63.1301 87.8626C63.7741 87.3075 64.3303 86.8984 64.828 86.6354C65.2963 86.3724 65.7061 86.2848 66.0281 86.3432L66.438 86.5478C69.775 89.1483 72.3803 92.3624 74.2245 96.2194L75.0734 98.2063C75.6003 99.5504 76.0394 100.982 76.4199 102.472C76.8005 104.196 77.0054 105.57 77.0054 106.621Z" fill="#548C09"/>
<path d="M102.092 70.682C102.092 70.7989 102.092 70.945 102.092 71.0618L102.092 71.7631C101.975 75.4155 100.804 78.9803 98.5792 82.4574L97.3205 84.0352C96.413 85.0579 95.3885 86.0221 94.2469 86.9279C91.3196 89.0025 89.0656 90.3174 87.5434 90.8141C86.4896 91.2524 85.7285 91.3109 85.2602 91.0187C84.9674 90.5219 84.6747 90.0544 84.4113 89.6161C85.1723 87.8338 85.9042 85.7592 86.636 83.3924C91.9343 83.0418 95.5641 80.4413 97.5547 75.5616C98.5207 73.2533 99.0183 70.8865 99.0183 68.4613C99.0183 67.6432 98.9598 66.7958 98.8427 65.9777C98.4621 63.7862 98.1694 62.4713 97.9645 61.9746C97.7303 61.2149 97.4668 60.426 97.1448 59.6371C97.5254 59.4617 97.9059 59.3449 98.2865 59.228C99.2232 60.1046 100.072 61.624 100.804 63.8447C101.653 66.2991 102.092 68.6074 102.092 70.682Z" fill="#548C09"/>
<path d="M71.0044 51.4259L70.9458 52.3317C70.4189 55.2828 67.8722 57.4743 63.335 58.9353C61.725 59.4028 60.0272 59.5781 58.2415 59.4904C56.9243 59.5489 54.5825 58.9937 51.2161 57.7665L48.4937 56.51C46.7081 55.6042 45.0396 54.5231 43.4589 53.2667C41.8781 52.0103 40.3852 50.6077 39.0094 49.0007L36.9896 46.4878C35.7016 44.7346 34.5014 42.8062 33.3891 40.7024L32.7158 35.063C35.526 32.8716 37.78 31.6152 39.4192 31.323L50.1623 33.7774C50.5428 33.9527 50.8648 34.1865 51.099 34.4786C52.9725 37.5467 54.2897 39.4752 55.0508 40.2641C55.8997 41.2575 56.895 42.1926 58.0073 43.0984C59.8515 44.5593 63.7741 46.3709 69.7164 48.5332C70.5946 49.2344 71.0044 50.2279 71.0044 51.4259Z" fill="#DECF07"/>
<path d="M70.9459 52.244L70.9459 52.3317C70.419 55.2828 67.8723 57.4743 63.335 58.9353C61.725 59.4028 60.0272 59.5781 58.2416 59.4904C56.9243 59.5489 54.5825 58.9937 51.2162 57.7665L48.4938 56.51C46.7082 55.6042 45.0397 54.5231 43.4589 53.2667C41.8782 52.0103 40.3853 50.6077 39.0095 49.0007L36.9897 46.4878C35.7017 44.7346 34.5015 42.8062 33.3892 40.7024L32.7159 35.063C35.5261 32.8716 37.78 31.6152 39.4193 31.323L39.4779 31.323C41.7319 36.5824 44.5713 42.1341 48.0255 47.978C49.6647 49.9941 50.8942 51.2506 51.7431 51.7473C52.8262 52.5362 53.9971 53.179 55.2265 53.6466C58.7978 54.8445 61.9592 55.2828 64.6816 54.9322C66.0574 54.7569 67.3161 54.4063 68.4578 53.8511L70.097 52.8576C70.3897 52.6823 70.6532 52.4778 70.9459 52.244Z" fill="#548C09"/>
<path d="M45.5079 59.0815C45.4201 59.023 45.3323 58.9645 45.2445 58.9059C45.303 58.9352 45.3616 58.9644 45.4494 59.023C45.4494 59.023 45.4787 59.0523 45.5079 59.0815Z" fill="#548C09"/>
<path d="M70.9459 50.7836C70.6239 51.0466 70.2141 51.1927 69.7165 51.2511C68.9261 51.3972 67.7845 51.2219 66.3501 50.7544C66.2623 50.7544 65.2963 50.3745 63.4521 49.6148L58.1245 47.4234C56.8951 46.839 55.3729 45.6118 53.5287 43.7125C49.9575 39.8556 47.4107 36.583 45.9178 33.8656C45.7422 33.4857 45.5958 33.0767 45.4495 32.6968L50.1624 33.7779C50.5429 33.9533 50.8649 34.187 51.0991 34.4792C52.9725 37.5472 54.2898 39.4757 55.0509 40.2646C55.8998 41.2581 56.8951 42.1931 58.0074 43.0989C59.8516 44.5599 63.7741 46.3715 69.7165 48.5337C70.419 49.1181 70.8288 49.8486 70.9459 50.7836Z" fill="#B6BC07"/>
<path d="M118.25 75.3863L118.221 76.2045C118.25 76.4967 118.133 77.2856 117.841 78.5712C117.724 79.068 117.548 79.5647 117.343 80.0614C116.962 80.9964 116.436 81.9315 115.792 82.9249C115.47 83.4509 115.089 84.006 114.65 84.532C113.508 86.0514 111.606 87.863 108.912 89.996C108.327 90.4343 107.8 90.668 107.332 90.6973C106.776 90.6388 106.454 90.5512 106.395 90.4051C105.956 89.996 105.019 88.6227 103.614 86.2851C102.736 84.6196 102.326 83.5093 102.414 82.8957C102.355 82.2821 102.385 81.7561 102.502 81.3471C103.673 78.3959 104.317 76.3213 104.434 75.1233C104.668 73.3994 104.609 71.6755 104.229 69.9515C103.321 66.1238 101.741 63.3187 99.516 61.5071C101.477 59.1696 103.087 57.4456 104.375 56.3353C105.019 55.7801 105.575 55.3711 106.073 55.1081C106.541 54.8451 106.951 54.7574 107.273 54.8159L107.683 55.0204C111.02 57.6209 113.625 60.8351 115.47 64.692L116.318 66.6789C116.845 68.023 117.284 69.4548 117.665 70.945C118.104 72.8442 118.309 74.3052 118.25 75.3863Z" fill="#DECF07"/>
<path d="M110.142 71.6756L110.113 72.5522C109.849 75.8248 109.235 78.3377 108.269 80.0908C108.005 80.7044 107.098 81.844 105.517 83.5387C105.019 84.0354 104.492 84.5322 103.907 85.0581L103.263 85.6133C102.677 84.4445 102.385 83.5971 102.385 83.042C102.385 82.9835 102.385 82.9251 102.385 82.8959C102.355 82.6913 102.355 82.4868 102.355 82.2823C102.355 81.9316 102.385 81.6102 102.473 81.318C103.643 78.3669 104.287 76.2923 104.405 75.0943C104.492 74.4223 104.551 73.721 104.551 73.049C104.551 71.9971 104.434 70.9744 104.2 69.9225C103.292 66.0947 101.711 63.2897 99.4867 61.4781C101.097 59.5496 102.473 58.0594 103.643 56.9783C104.844 58.2055 105.605 59.0821 105.956 59.608C106.834 60.7184 107.507 61.7118 107.947 62.6176C109.176 64.9844 109.908 67.994 110.142 71.6756Z" fill="#B6BC07"/>
<path d="M118.28 75.0941C118.28 75.1818 118.28 75.2987 118.28 75.3863L118.251 76.2045C118.251 76.2337 118.251 76.2629 118.251 76.2921C118.251 76.6427 118.133 77.4025 117.87 78.5712C117.753 79.068 117.577 79.5647 117.372 80.0614C116.992 80.9964 116.465 81.9315 115.821 82.9249C115.499 83.4509 115.118 84.006 114.679 84.532C113.538 86.0514 111.635 87.863 108.942 89.996C108.356 90.4343 107.829 90.668 107.361 90.6973C106.805 90.6388 106.483 90.5512 106.424 90.4051C108.356 87.4539 109.586 85.3209 110.113 84.006C110.991 81.8438 111.401 79.3309 111.401 76.4967C111.401 75.9123 111.371 75.2987 111.342 74.6851C111.313 74.1883 111.254 73.6624 111.196 73.1364C110.786 71.2079 110.318 69.3671 109.761 67.6432C109.205 65.9192 108.561 64.3122 107.829 62.7928C107.098 61.2734 106.278 59.8708 105.4 58.5852L103.995 56.7151C104.141 56.5983 104.287 56.4522 104.405 56.3353C105.049 55.7801 105.605 55.3711 106.102 55.1081C106.571 54.8451 106.981 54.7574 107.303 54.8159L107.712 55.0204C111.049 57.6209 113.655 60.8351 115.499 64.692L116.348 66.6789C116.875 68.023 117.314 69.4548 117.694 70.945C118.075 72.6689 118.28 74.0714 118.28 75.0941Z" fill="#548C09"/>
<path d="M86.8994 55.4293L86.7531 55.7215C86.6067 56.0137 86.314 56.4812 85.9041 57.124C85.8456 57.2116 85.67 57.4746 85.348 57.9129C85.3187 57.9421 85.2601 58.0006 85.2309 58.0006L85.1723 58.0298C85.1138 58.0298 85.0845 58.0298 85.026 58.0298L84.9381 58.0006C84.8796 57.9713 84.8211 57.9421 84.7625 57.9129L84.6747 57.8545L83.8843 57.0948C83.8258 57.0071 83.8258 56.8902 83.9429 56.6565C84.0014 56.5688 84.06 56.4519 84.1478 56.3058C84.1478 56.3058 84.2649 56.1305 84.5283 55.7215C84.704 55.4585 84.9089 55.1371 85.1723 54.6988C85.2894 54.5235 85.348 54.4358 85.3772 54.4358C85.4065 54.4066 85.4651 54.4358 85.5236 54.465C85.67 54.5235 85.7871 54.5819 85.9627 54.6696L86.8994 55.4293Z" fill="#258215"/>
<path d="M83.1233 44.3258L82.8013 46.1374C82.772 46.1374 82.6549 46.1374 82.4207 46.1374C81.9524 46.1374 81.5133 46.1666 81.1035 46.1958C80.9571 46.1958 80.84 46.1666 80.7229 46.0789C80.6351 46.0205 80.6058 45.9328 80.5766 45.816L80.518 44.4426C80.518 44.355 80.5766 44.2965 80.6937 44.2673L82.3037 43.9167C82.4207 43.8875 82.5378 43.8875 82.6257 43.8583C82.7427 43.8583 82.8306 43.8875 82.8891 43.9459C82.9184 43.9751 82.9477 44.0044 83.0062 44.0628L83.0647 44.1504C83.0647 44.2089 83.094 44.2673 83.1233 44.3258Z" fill="#258215"/>
<path d="M85.4066 78.2789L85.3481 78.3081C85.1724 78.425 84.9968 78.5127 84.8797 78.6003C84.7333 78.688 84.0893 79.0971 83.0063 79.8275C82.9477 79.8568 82.8892 79.886 82.8306 79.9152L82.7428 79.9444C82.655 79.9736 82.5964 79.9736 82.5379 79.9736C82.3915 79.9736 82.2744 79.9444 82.1574 79.8568C82.011 79.7691 81.8354 79.5646 81.6305 79.1847C81.5134 78.951 81.5134 78.7756 81.5719 78.688L81.6305 78.5711C81.689 78.4834 81.7475 78.3958 81.7768 78.3958C81.9232 78.2497 82.1281 78.0452 82.3915 77.8114C82.6843 77.5192 83.0063 77.3147 83.299 77.1394C83.5624 77.0225 83.9137 76.9933 84.3235 77.0517L85.4066 78.2789Z" fill="#258215"/>
<path d="M85.2896 73.1941L85.1432 73.2817C84.7041 73.4863 84.2357 73.8953 83.7381 74.4505C83.6796 74.509 83.5332 74.7135 83.2697 75.0641C83.0941 75.3563 82.9185 75.6485 82.7428 75.9991C82.6843 76.0576 82.5965 76.0576 82.4501 75.9991L81.5427 75.5316C81.4256 75.4732 81.367 75.4148 81.3377 75.3855C81.2499 75.3271 81.2499 75.181 81.2792 74.9472C81.4256 74.4797 81.6597 74.0707 81.9525 73.6908C82.0988 73.4863 82.2452 73.311 82.4208 73.1356L82.6843 72.8727C82.8599 72.6974 83.0648 72.5513 83.299 72.4052L85.2896 73.1941Z" fill="#258215"/>
<path d="M56.8657 60.9812L56.6023 61.3318C55.8705 62.2376 55.3143 62.7635 54.8459 62.9096C54.5825 63.0265 54.3483 63.0557 54.0848 63.085C53.6457 63.0557 53.1774 63.0265 52.7383 62.9096C52.5334 62.8804 52.4163 62.8512 52.3285 62.7928C52.2406 62.7635 52.2114 62.7051 52.2407 62.5882C52.2407 62.5006 52.6797 61.8577 53.5579 60.7182C53.7043 60.5429 54.0556 60.4552 54.5532 60.4552L56.8657 60.9812Z" fill="#258215"/>
<path d="M30.4619 77.1979L30.4619 77.2856C30.4619 77.344 30.4326 77.3732 30.4326 77.4317C30.3741 77.5485 30.3155 77.6362 30.2863 77.6654C30.1399 77.8407 29.9935 77.9868 29.7886 78.1329C29.7008 78.2206 29.5837 78.2498 29.4666 78.279C29.3788 78.3082 29.2617 78.2498 29.1446 78.1621C29.0276 78.0745 28.8519 77.8992 28.6177 77.5778L28.4128 77.2856C28.2665 77.1102 28.1786 76.9057 28.0616 76.7012C27.9737 76.4966 27.8859 76.3213 27.8274 76.1168L27.7396 75.8246C27.7103 75.6201 27.681 75.4155 27.6517 75.211L29.0568 73.9253C29.0861 74.1006 29.1446 74.276 29.2032 74.4513C29.2325 74.5974 29.3495 74.8311 29.4959 75.2402C29.6423 75.5908 29.935 76.146 30.3741 76.9057C30.4326 76.9934 30.4619 77.081 30.4619 77.1979Z" fill="#258215"/>
<path d="M62.2227 99.901L62.1934 100.047C62.1641 100.135 62.1056 100.252 62.047 100.398C62.047 100.456 61.9299 100.661 61.6957 101.099C61.4323 101.567 61.2567 101.859 61.1688 101.976C61.1396 102.005 61.1103 102.034 61.0518 102.063C60.9639 102.092 60.8176 102.063 60.6419 102.005C60.5541 101.976 60.4663 101.917 60.3492 101.859C60.0565 101.683 59.8808 101.567 59.793 101.537C59.6174 101.42 59.5881 101.274 59.6467 101.099C59.6759 101.041 59.7052 100.953 59.7345 100.865C60.2321 99.8134 60.5248 99.1997 60.6127 99.0244L62.2227 99.901Z" fill="#258215"/>
<path d="M74.5171 102.034C74.5171 102.122 74.4585 102.18 74.3415 102.268C73.8731 102.618 73.5218 102.881 73.3169 103.086C73.2291 103.144 73.1413 103.174 73.112 103.144C73.0535 103.144 72.9949 103.086 72.9071 103.027C72.7607 102.852 72.6144 102.677 72.468 102.501C72.468 102.531 72.2631 102.209 71.7947 101.596C71.7655 101.537 71.7362 101.479 71.7655 101.42C71.7655 101.391 71.7655 101.333 71.7947 101.274L73.4925 100.807C73.8438 101.157 74.1365 101.479 74.3707 101.771C74.4878 101.888 74.5171 101.976 74.5171 102.034Z" fill="#258215"/>
<path d="M55.812 44.2963L55.7242 44.3839C55.4315 44.7054 55.0509 45.4066 54.524 46.4877C54.524 46.517 54.4947 46.5462 54.4362 46.5754C54.4069 46.5754 54.3777 46.6046 54.3484 46.5754C54.2898 46.5754 54.2313 46.5462 54.1435 46.517C54.0264 46.4585 53.9093 46.3709 53.7922 46.254C53.5873 46.0787 53.4409 45.9326 53.3531 45.8157C53.2653 45.6988 53.2068 45.5527 53.2068 45.4358C53.2068 45.1729 53.3238 44.793 53.558 44.2963C53.7044 44.0333 53.9093 43.7703 54.1728 43.5366L54.2606 43.4489L55.812 44.2963Z" fill="#258215"/>
<path d="M108.093 83.1295L108.093 83.1587C108.093 83.3632 108.063 83.5093 108.005 83.6554C107.917 83.9184 107.859 84.0645 107.8 84.1522C107.8 84.1522 107.771 84.2106 107.654 84.2398L107.566 84.269C107.478 84.269 107.42 84.269 107.302 84.2106C107.098 84.1522 106.863 84.0061 106.571 83.8015C106.454 83.7431 106.278 83.5678 105.985 83.3048C105.78 83.1003 105.634 82.925 105.546 82.7496C105.488 82.662 105.458 82.5743 105.458 82.5159L105.458 82.399C105.458 82.3698 105.458 82.3406 105.488 82.2821L106.922 81.1426C107.302 81.6101 107.566 81.9315 107.683 82.1068C107.742 82.1652 107.8 82.2529 107.888 82.399C108.005 82.6912 108.093 82.9249 108.093 83.1295Z" fill="#258215"/>
<path d="M88.363 28.3431L88.3045 28.5477C88.1874 29.132 88.0703 29.7456 87.9825 30.4761C87.9825 30.5054 87.9532 30.5346 87.9239 30.5638C87.8947 30.593 87.8361 30.6222 87.7776 30.6514C87.719 30.6807 87.6605 30.6807 87.5727 30.6807L87.4263 30.6807C87.3385 30.6807 87.2214 30.6807 87.1043 30.6514C86.9872 30.6222 86.8409 30.6222 86.6945 30.593C86.636 30.593 86.5774 30.5638 86.5481 30.5346L86.4896 30.4761C86.4603 30.4469 86.431 30.3885 86.4018 30.33L86.3725 30.2424C86.3432 30.1839 86.3432 30.0963 86.3432 30.0086C86.314 29.8041 86.3432 29.5703 86.4018 29.2781C86.4603 29.0152 86.5481 28.7522 86.6652 28.4892C86.7238 28.3723 86.7823 28.2262 86.8701 28.1094L86.9872 27.934L88.363 28.3431Z" fill="#258215"/>
<path d="M77.825 25.1576L77.825 25.3037C77.7957 25.5959 77.7371 25.9465 77.6493 26.414L77.5322 26.8816C77.503 26.9692 77.4737 27.0277 77.4151 27.0861L77.3566 27.1153C77.3273 27.1445 77.298 27.1445 77.2395 27.1445C77.2102 27.1445 77.1517 27.1445 77.0639 27.1445C76.9468 27.1445 76.7126 27.0861 76.3906 27.0277C76.332 27.0277 76.2735 26.9984 76.2442 26.94C76.215 26.9108 76.215 26.8523 76.215 26.7647C76.215 26.6478 76.215 26.5601 76.2442 26.5017C76.2442 26.4141 76.3028 26.0634 76.3906 25.4206C76.3906 25.3329 76.4199 25.2161 76.4199 25.0992L77.825 25.07L77.825 25.1576Z" fill="#258215"/>
<path d="M50.4551 28.4011C50.4551 28.4595 50.4551 28.4887 50.4258 28.5179C50.3966 28.5472 50.3966 28.6056 50.338 28.6348C50.3087 28.664 50.2502 28.7225 50.2209 28.7517L50.1624 28.8101C50.0453 28.8686 49.8989 28.927 49.6647 28.9855C49.5769 29.0147 49.5184 28.9855 49.4598 28.9562C49.3427 28.8978 49.1964 28.664 49.0207 28.255C48.9622 28.1381 48.9329 28.0212 48.9037 27.9043C48.8744 27.8167 48.8744 27.6706 48.8744 27.4953C48.8744 27.3784 48.9036 27.2323 48.9329 27.1154L50.4258 26.7356C50.3673 26.9109 50.3673 27.1154 50.3673 27.3492C50.3673 27.466 50.3673 27.6121 50.3966 27.729C50.3966 27.8167 50.4258 28.0212 50.4844 28.3426C50.4551 28.3718 50.4551 28.3718 50.4551 28.4011Z" fill="#258215"/>
<path d="M93.6615 101.245L93.5444 101.245C93.3395 101.216 93.1053 101.157 92.8419 101.07C92.6955 101.011 92.5491 100.924 92.432 100.865C91.993 100.515 91.7588 100.339 91.7295 100.339C91.6124 100.252 91.4661 100.222 91.2904 100.222C91.1148 100.222 90.9684 100.31 90.8221 100.427C90.6464 100.573 90.4122 100.807 90.1195 101.187C90.0902 101.216 90.061 101.216 90.0317 101.157C89.9146 100.398 89.8561 99.9595 89.8268 99.7841C89.8268 99.7257 89.8268 99.6673 89.8561 99.6088C89.9731 99.3751 90.2366 99.0829 90.6757 98.7323C91.0855 98.4108 91.3782 98.2355 91.6124 98.2063C91.671 98.2063 91.7295 98.2355 91.788 98.2647C92.0515 98.4985 92.2564 98.6738 92.3442 98.7615C92.4613 98.8491 92.637 98.966 92.8711 99.0829L93.6615 101.245Z" fill="#258215"/>
<path d="M90.3536 92.0406L90.2365 92.1574C90.0024 92.4204 89.7389 92.5957 89.4462 92.7418C89.0949 92.8879 88.8022 92.9756 88.6266 92.9756C88.5387 92.9756 88.4802 92.9756 88.4509 92.9464C88.4216 92.9464 88.3924 92.9171 88.3924 92.9171C88.3924 92.9171 88.3338 92.8879 88.3046 92.8295C88.246 92.7418 88.1582 92.5957 88.0996 92.4204C88.0704 92.362 88.0996 92.3328 88.0996 92.3035C88.3338 92.1574 88.568 92.0113 88.8022 91.8068C88.9193 91.7192 89.0364 91.6023 89.1535 91.4854L89.3291 91.3101C89.4462 91.1932 89.5633 91.0763 89.6804 90.9302L90.3536 92.0406Z" fill="#258215"/>
<path d="M88.5387 79.5644L88.1289 80.178C88.0411 80.2949 87.8947 80.3241 87.6898 80.2657C87.5142 80.2365 87.2214 80.1488 86.8994 80.0319C86.7531 79.9735 86.6652 79.9151 86.636 79.8859C86.6067 79.7982 86.6067 79.7105 86.636 79.5937C86.6945 79.3599 86.8409 78.98 86.9872 78.3957C87.0165 78.2788 87.0751 78.1619 87.1043 78.1035C87.1629 78.045 87.2214 78.0158 87.28 78.045C87.4263 78.0742 87.6312 78.1327 87.924 78.2788L88.5387 79.5644Z" fill="#D7D7D7"/>
<path d="M83.1819 58.5557C83.0941 58.5557 83.0062 58.5557 82.8599 58.5557L81.3963 58.5557C81.367 58.5557 81.3377 58.5557 81.3377 58.5557L81.3084 58.5557C81.2792 58.5557 81.2792 58.5265 81.2499 58.5265C81.2206 58.4972 81.2206 58.4388 81.2206 58.4096C81.2206 58.3219 81.2499 58.1466 81.3084 57.9128L81.4841 57.4161C81.5133 57.3577 81.5426 57.3285 81.5719 57.3285C81.6304 57.2992 81.7768 57.27 81.9524 57.27C82.0988 57.27 82.4793 57.2992 83.1233 57.3577L83.1819 58.5557Z" fill="#D7D7D7"/>
<path d="M72.7023 56.2181L72.7023 56.2765C72.673 56.4811 72.6145 56.9778 72.4974 57.7667C72.4974 57.7959 72.4974 57.8251 72.4681 57.8836C72.4388 57.942 72.4388 58.0005 72.3803 58.0297C72.3217 58.0589 72.2632 58.0881 72.2046 58.1173C72.0583 58.1758 71.8534 58.1758 71.6192 58.1758L71.4435 58.1758C71.3265 58.1758 71.1801 58.1466 71.0337 58.1173C71.0337 58.1173 71.0045 58.0881 70.9459 58.0589C70.8874 58.0297 70.8581 57.9712 70.8581 57.9128C70.8581 57.8544 70.8288 57.7959 70.8288 57.7375C70.8288 57.6498 70.7996 57.533 70.7996 57.3284C70.7996 57.27 70.7996 57.1531 70.8288 56.9778C70.8288 56.8901 70.8874 56.5687 70.9752 56.0428C71.0045 55.8675 71.063 55.6629 71.1216 55.4584L72.7023 56.2181Z" fill="#D7D7D7"/>
<path d="M75.3953 81.4049L75.0733 81.5217C74.3415 81.7263 73.8731 81.8724 73.6682 81.9016C73.3169 81.96 73.0827 81.9893 72.9364 81.9893L72.8485 81.9893C72.79 81.9893 72.7315 81.96 72.7022 81.96C72.6729 81.9308 72.6144 81.9016 72.5851 81.8724L72.5558 81.8139L72.5265 81.7263L72.4973 81.5802C72.4973 81.4633 72.5265 81.1419 72.6144 80.5575C72.6436 80.4699 72.6729 80.3822 72.7607 80.3238C72.8193 80.2653 72.9071 80.2361 73.0242 80.2069C73.6389 80.0608 73.9902 79.9731 74.1073 79.9439C74.2244 79.9147 74.5171 79.827 74.9854 79.6809C75.0147 79.6809 75.0733 79.6517 75.1611 79.6517L75.3953 81.4049Z" fill="#D7D7D7"/>
<path d="M60.7004 83.3922C60.7004 83.4799 60.6712 83.7429 60.6419 84.1811L60.5541 84.9701C60.5541 85.0577 60.5248 85.1162 60.5248 85.1746C60.4955 85.2623 60.4663 85.3207 60.4077 85.3791C60.3492 85.4376 60.2614 85.4668 60.1735 85.496C59.8808 85.5545 59.5295 85.5837 59.1783 85.5545C59.1197 85.5545 59.0612 85.5252 58.9734 85.496C58.9148 85.4668 58.8855 85.4376 58.8563 85.3791C58.7392 85.1454 58.7099 84.6779 58.7977 83.9182C58.7977 83.8597 58.827 83.8013 58.8855 83.7136L60.7004 83.3922Z" fill="#D7D7D7"/>
<path d="M46.8252 68.6652L45.7128 69.5125C45.625 69.571 45.5079 69.6294 45.3908 69.6294L45.2737 69.6294C45.1859 69.6294 45.0981 69.6002 45.0396 69.5417C44.8639 69.4541 44.7176 69.3372 44.5419 69.1619C44.4834 69.0742 44.3956 68.9866 44.2785 68.8405C44.2492 68.782 44.2492 68.7528 44.2492 68.7236C44.2492 68.6067 44.337 68.4606 44.5419 68.2269C44.659 68.0808 45.0396 67.7886 45.6543 67.2918L45.8885 67.1165L46.8252 68.6652Z" fill="#D7D7D7"/>
<path d="M101.331 54.3185L100.16 55.0198C100.101 55.0782 100.014 55.1074 99.8966 55.1074C99.8088 55.1074 99.7502 55.1074 99.7502 55.0782C99.6917 55.049 99.6331 55.049 99.6038 54.9905C99.4575 54.8444 99.3404 54.6984 99.2526 54.5523C99.1648 54.4354 99.1355 54.3477 99.1355 54.3185C99.1062 54.2308 99.0769 54.1724 99.0769 54.1432C99.0769 54.114 99.0769 54.0555 99.0769 53.9679C99.1062 53.8802 99.1355 53.8218 99.2233 53.7341C99.2526 53.7049 99.3111 53.6465 99.3404 53.6172L99.4282 53.5588C99.6331 53.4127 99.7795 53.325 99.8088 53.2958C100.101 53.1205 100.423 52.9744 100.804 52.8575L101.331 54.3185Z" fill="#D7D7D7"/>
<path d="M95.7399 59.286C95.6813 59.3152 95.5057 59.4321 95.213 59.6658C95.0373 59.7827 94.8031 59.9873 94.5104 60.2502C94.4226 60.3087 94.3641 60.3379 94.3348 60.3379C94.3055 60.3379 94.247 60.3379 94.2177 60.3379C94.1884 60.3379 94.1299 60.3087 93.9835 60.2502C93.8664 60.1918 93.7493 60.1041 93.5737 59.958C93.5152 59.8996 93.4859 59.8119 93.4859 59.7535C93.4859 59.6951 93.5737 59.549 93.7493 59.2568C93.8664 59.0815 94.0128 58.9061 94.1591 58.76C94.2177 58.6724 94.3055 58.6139 94.3641 58.5555C94.5397 58.4094 94.6568 58.3218 94.6861 58.2925L95.7399 59.286Z" fill="#D7D7D7"/>
<path d="M50.8356 93.648C50.8356 93.7064 50.8063 93.7356 50.8063 93.7356C50.6307 93.8233 50.5136 93.8817 50.455 93.9109C50.4258 93.9109 50.3965 93.9402 50.3379 93.9986C50.2501 94.0863 50.1623 94.1447 50.1038 94.2324L49.5183 94.7583L48.7572 93.9986C48.7279 93.9694 48.6987 93.9109 48.6987 93.8233C48.7279 93.7064 48.7572 93.5895 48.845 93.4727L49.489 92.7714L49.6354 92.5668C49.6354 92.5376 49.6647 92.5376 49.6939 92.5376C49.7525 92.5376 49.811 92.5668 49.9281 92.6545C50.0159 92.7129 50.2208 92.859 50.5721 93.0928C50.6307 93.1512 50.6892 93.2389 50.7185 93.3266C50.7185 93.3558 50.777 93.4142 50.8356 93.5895C50.8356 93.6187 50.8356 93.648 50.8356 93.648Z" fill="#EBE0DB"/>
<defs>
<radialGradient id="paint0_radial_20002_18096" cx="0" cy="0" r="1" gradientUnits="userSpaceOnUse" gradientTransform="translate(70 67) rotate(180) scale(70 67)">
<stop stop-color="#E7EDEF"/>
<stop offset="0.935" stop-color="#DBE7E9"/>
<stop offset="1" stop-color="#CDD8DB"/>
</radialGradient>
</defs>
</svg>
