<svg width="200" height="200" viewBox="0 0 200 200" fill="none" xmlns="http://www.w3.org/2000/svg">
<path d="M99.1656 111.455C69.0141 111.455 43.4619 102.862 38.8625 91.7427L46.5282 136.727C50.1055 150.374 65.4368 160.483 99.1656 160.483C132.894 160.483 148.737 149.363 151.803 136.727L158.958 92.7536C152.825 103.873 128.295 111.455 99.1656 111.455Z" fill="#EEC16C"/>
<g style="mix-blend-mode:overlay" opacity="0.2">
<path d="M51.6386 118.532C61.8594 118.026 66.4588 127.63 88.9447 129.146C111.431 130.157 92.522 143.299 85.8784 143.299C79.2349 143.299 64.4146 144.815 59.3042 137.739C54.1938 131.168 42.9508 119.037 51.6386 118.532Z" fill="#F2E191"/>
</g>
<g style="mix-blend-mode:overlay" opacity="0.34">
<path d="M99.1656 111.455C69.0141 111.455 43.4619 102.862 38.8625 91.7427L40.9067 102.862C49.0834 109.433 65.9478 120.048 97.1215 121.058C141.071 122.069 127.273 176.657 55.2159 149.363C63.3926 155.934 77.7018 159.978 99.6767 159.978C133.406 159.978 149.248 148.858 152.314 136.222L159.469 92.2481C152.825 103.873 128.295 111.455 99.1656 111.455Z" fill="#8B6113"/>
</g>
<g style="mix-blend-mode:overlay" opacity="0.34">
<path d="M99.1656 111.455C69.0141 111.455 43.4619 102.862 38.8625 91.7427L39.8846 97.3026C52.1497 106.906 75.1466 117.015 113.475 113.982C164.068 110.444 147.715 149.869 107.342 159.472C135.961 157.956 149.248 147.342 152.314 136.222L159.469 92.2481C152.825 103.873 128.295 111.455 99.1656 111.455Z" fill="#654304"/>
</g>
<path d="M46.5281 136.728C47.0391 139.255 48.5722 141.277 49.5943 143.804C51.1275 145.826 52.6606 147.848 54.7048 149.364C58.7931 152.397 63.3925 154.418 68.5029 155.935C73.6134 157.451 78.2127 158.462 83.3232 158.967C88.4336 159.473 93.544 159.978 98.6545 159.978C103.765 159.978 108.875 159.978 113.986 158.967C119.096 158.462 124.207 157.451 128.806 155.935C133.405 154.418 138.516 152.397 142.604 149.364C144.648 147.848 146.693 145.826 148.226 143.804C149.759 141.782 150.781 139.255 151.803 137.233C151.292 138.244 151.292 139.76 150.781 140.771C150.27 141.782 149.759 143.299 148.737 144.309C147.204 146.331 145.67 148.353 143.626 149.869C139.538 153.407 134.939 155.429 129.828 157.451C124.718 158.967 119.607 159.978 114.497 160.989C109.386 161.495 104.276 162 99.1655 162C94.0551 162 88.9447 162 83.8342 160.989C78.7238 160.484 73.6134 159.473 68.5029 157.956C63.3925 156.44 58.7931 153.913 54.7048 150.375C52.6606 148.858 51.1275 146.837 49.5943 144.309C49.0833 143.299 48.5722 142.288 48.0612 140.771C47.0391 139.255 46.5281 138.244 46.5281 136.728Z" fill="#D68920"/>
<path d="M95.5883 138.749C96.1527 138.749 96.6103 137.391 96.6103 135.716C96.6103 134.041 96.1527 132.684 95.5883 132.684C95.0238 132.684 94.5662 134.041 94.5662 135.716C94.5662 137.391 95.0238 138.749 95.5883 138.749Z" fill="#BF7500"/>
<path d="M111.963 128.33C112.912 127.298 113.513 126.308 113.304 126.12C113.096 125.933 112.156 126.617 111.207 127.65C110.257 128.682 109.656 129.671 109.865 129.859C110.074 130.047 111.013 129.362 111.963 128.33Z" fill="#BF7500"/>
<path d="M111.431 140.772C112.277 140.772 112.964 140.319 112.964 139.761C112.964 139.202 112.277 138.75 111.431 138.75C110.584 138.75 109.897 139.202 109.897 139.761C109.897 140.319 110.584 140.772 111.431 140.772Z" fill="#BF7500"/>
<path d="M100.699 121.059C101.545 121.059 102.232 120.606 102.232 120.048C102.232 119.49 101.545 119.037 100.699 119.037C99.8519 119.037 99.1655 119.49 99.1655 120.048C99.1655 120.606 99.8519 121.059 100.699 121.059Z" fill="#BF7500"/>
<path d="M146.182 120.048C147.028 120.048 147.715 119.596 147.715 119.037C147.715 118.479 147.028 118.026 146.182 118.026C145.335 118.026 144.648 118.479 144.648 119.037C144.648 119.596 145.335 120.048 146.182 120.048Z" fill="#A86300"/>
<path d="M121.14 133.189C121.705 133.189 122.163 132.511 122.163 131.673C122.163 130.836 121.705 130.157 121.14 130.157C120.576 130.157 120.118 130.836 120.118 131.673C120.118 132.511 120.576 133.189 121.14 133.189Z" fill="#A86300"/>
<path d="M99.1656 113.477C133.035 113.477 160.491 102.162 160.491 88.2049C160.491 74.2474 133.035 62.9326 99.1656 62.9326C65.2967 62.9326 37.8405 74.2474 37.8405 88.2049C37.8405 102.162 65.2967 113.477 99.1656 113.477Z" fill="#DFBC15"/>
<g style="mix-blend-mode:overlay">
<path d="M150.781 101.852C156.913 97.8083 160.491 93.2593 160.491 88.2049C160.491 74.0524 132.894 62.9326 99.1656 62.9326C90.4778 62.9326 82.3011 63.4381 74.6355 64.9544C75.6576 64.9544 77.1907 65.4598 78.2128 65.4598C80.768 65.4598 82.8122 65.4598 84.3453 65.4598C85.8784 64.9544 88.4337 63.9435 91.4999 64.9544C94.5662 65.9653 94.5662 66.9762 98.1435 65.9653C101.21 64.9544 101.21 63.9435 104.276 64.449C106.831 64.9544 147.204 74.5578 148.737 77.0851C150.27 79.6123 150.27 79.1069 152.314 80.1177C154.869 80.6232 156.913 81.1286 156.402 83.6559C155.891 86.1831 154.869 87.194 155.38 89.2158C155.891 91.743 157.936 92.2484 156.402 94.2702C155.38 95.7865 152.825 99.3246 150.781 101.852Z" fill="#9E6900"/>
</g>
<path d="M42.9509 80.6233C43.973 79.1069 47.5503 78.096 48.5724 77.5906C50.1055 76.5797 51.6386 76.5797 53.1717 74.5579C54.7049 72.0307 54.7049 71.5252 58.2822 71.5252C61.8595 71.0198 63.9037 69.5035 64.4147 68.4926C64.4147 67.9871 64.9257 67.4817 65.9478 67.4817C49.0834 71.0198 37.8405 79.1069 37.8405 88.2049C37.8405 91.2376 39.3736 94.7757 41.9288 97.3029V93.2594C41.9288 93.2594 39.3736 90.7322 40.3957 87.6995C41.9288 84.6668 40.3957 84.6668 41.4178 83.1505C42.9509 82.1396 42.4398 82.645 42.9509 80.6233Z" fill="#9E6900"/>
<g style="mix-blend-mode:overlay">
<path d="M68.503 66.4708C66.4588 70.5143 71.0582 73.0416 71.0582 74.0525C70.5472 76.5797 68.503 78.6015 66.9699 80.1178C65.4368 81.6341 58.7932 84.1614 63.9036 84.1614C69.5251 83.6559 67.4809 82.1396 72.0803 82.645C73.6134 82.645 74.1245 83.1505 72.5914 84.6668C71.0582 86.6886 69.0141 87.6995 67.4809 89.7212C65.9478 92.2485 64.4147 92.2485 61.3484 93.7648C55.7269 96.7975 57.2601 103.874 57.2601 103.874L59.3042 107.412C67.992 110.444 78.7239 112.466 90.4779 113.477C92.011 111.455 93.5441 109.939 94.0552 108.928C96.0993 105.895 96.6104 81.6341 95.5883 77.5906C94.5662 73.547 92.522 71.5252 90.4779 70.0089C88.4337 68.4926 86.3895 66.4708 81.7901 67.4817C77.1908 67.9871 74.1245 69.5034 72.0803 68.998C70.5472 68.4926 70.0361 66.9762 69.5251 65.9653C69.5251 65.9653 69.0141 65.9653 68.503 66.4708Z" fill="#EEE094"/>
</g>
<path d="M165.601 80.1182C165.09 77.591 163.046 75.5692 161.002 74.5583C161.002 74.5583 161.002 74.5583 161.002 74.0529C161.002 67.4821 155.891 61.9222 150.27 61.9222C147.715 61.9222 145.159 62.9331 143.115 64.9549C142.604 64.9549 142.604 64.9549 142.093 64.4494C141.582 58.3841 136.983 54.3405 131.361 54.3405C128.295 54.3405 125.229 55.8568 123.185 58.3841H122.674C122.674 58.3841 122.163 58.3841 122.163 57.8786C120.629 53.3296 116.541 50.2969 111.942 50.2969C107.853 50.2969 104.787 52.3187 102.743 55.8568H102.232C101.721 55.8568 101.721 55.8568 101.721 55.8568C99.6766 52.3187 96.0993 49.7915 92.522 49.7915C87.9226 49.7915 84.3453 52.8242 82.3012 56.8677C81.2791 58.3841 81.2791 58.3841 80.768 58.3841C80.768 58.3841 80.257 58.3841 79.7459 58.3841C77.7018 55.8568 74.6355 53.8351 71.0582 53.8351C65.9478 53.8351 61.8594 57.8786 60.3263 62.9331C60.3263 63.944 59.8153 64.4494 58.7932 63.944C56.749 61.9222 54.1938 60.9113 51.6386 60.9113C45.5061 60.9113 40.9067 66.4712 40.9067 73.042C40.9067 73.5474 40.9067 73.5474 40.9067 74.0529C37.8404 73.5474 34.7741 76.0746 34.2631 79.6128C33.241 84.1618 35.2852 89.7217 38.8625 92.2489C38.3514 90.7325 37.8404 89.2162 37.8404 87.6999C37.8404 73.5474 65.4367 62.4276 99.1656 62.4276C132.894 62.4276 160.491 74.0529 160.491 87.6999C160.491 89.7217 159.98 91.7434 158.958 93.2598H159.469C164.068 91.238 167.134 85.1726 165.601 80.1182Z" fill="#CC6E19"/>
<path d="M161.002 74.5582C161.002 68.4928 156.913 63.4384 151.803 62.4275C153.847 63.4384 155.891 64.9547 156.913 66.9765C158.447 70.0092 158.958 74.5582 156.402 78.6017C156.913 79.1072 156.913 79.1072 157.424 79.6126C158.958 79.1072 161.002 74.5582 161.002 74.5582Z" fill="#E8BE98"/>
<path d="M156.403 79.107C156.403 78.6015 156.403 78.6015 156.403 78.6015V78.0961V77.5906V77.0852V76.5797V76.0743V75.5688C156.403 75.0634 156.403 75.0634 156.403 74.558V74.0525C156.403 74.0525 156.403 74.0525 156.403 73.5471V73.0416C155.891 71.0198 155.891 68.9981 155.891 67.4817C155.891 66.9763 155.891 66.9763 155.891 66.4708C155.891 65.9654 155.891 65.9654 155.891 65.4599C155.891 65.4599 155.891 65.46 155.891 64.9545C154.358 63.9436 152.825 63.4382 150.781 63.4382C148.226 63.4382 145.671 64.4491 143.626 66.4708C143.115 66.4708 143.115 66.4708 142.604 65.9654C142.093 59.9001 137.494 55.8565 131.872 55.8565C128.806 55.8565 125.74 57.3728 123.696 59.9001H123.185C123.185 59.9001 122.674 59.9001 122.674 59.3946C121.652 56.8674 120.118 54.8456 118.074 53.8347C115.519 56.3619 112.964 59.3946 112.453 60.4055C112.453 60.9109 111.431 61.4164 110.92 62.4273L110.409 62.9327C109.898 63.4382 109.387 63.4382 108.875 63.9436C130.339 64.4491 148.737 70.5144 156.403 79.107Z" fill="#B76936"/>
<path d="M156.402 82.6453C156.402 82.1399 156.402 82.1399 156.402 82.1399C156.402 82.1399 156.402 82.1399 156.402 81.6344V81.129V80.6235V80.1181C148.737 71.5255 129.828 65.4602 107.342 63.9438L106.831 64.4493C106.32 64.9547 105.809 64.9547 105.298 65.4602C105.298 65.4602 104.787 65.4602 104.787 65.9656L104.276 66.4711C101.721 67.9874 98.6546 72.5364 98.1435 74.0527C98.1435 74.0527 98.1435 74.0527 98.1435 74.5582C98.1435 74.5582 98.1435 74.5582 98.1435 75.0636C98.1435 75.0636 98.1435 75.0636 98.1435 75.5691C97.6325 76.0745 97.1214 76.58 97.1214 76.58C96.6104 77.0854 96.0993 77.5909 95.0772 78.0963C94.5662 78.0963 94.5662 78.6018 94.0552 78.6018C93.5441 79.1072 93.5441 79.1072 93.0331 79.6126C90.4779 81.6344 87.4116 85.1725 86.3895 87.1943C85.3674 89.2161 82.3012 90.7324 80.257 92.2488C78.2128 93.7651 78.2128 95.2814 76.6797 96.7978C75.1466 98.8195 71.5693 99.8304 71.5693 99.8304C66.4588 103.874 69.5251 103.369 70.5472 105.39C71.5693 107.412 74.6355 106.401 78.7239 108.928C82.8122 111.456 89.4558 112.972 93.0331 111.961C97.1214 110.95 100.188 112.467 103.765 112.972C107.853 113.477 112.964 112.972 115.519 112.467C117.563 111.961 125.229 110.95 128.806 109.939C130.85 108.928 134.428 107.412 138.005 105.39C138.005 105.39 138.516 105.39 138.516 104.885C138.516 104.885 138.516 104.885 139.027 104.885L139.538 104.379C139.538 104.379 140.049 104.379 140.049 103.874C140.049 103.874 140.049 103.874 140.56 103.874L141.071 103.369L141.582 102.863L142.093 102.358L142.604 101.852L143.115 101.347C145.671 98.8195 147.204 97.3032 149.248 94.2705C151.803 89.2161 154.869 87.1943 156.402 82.6453Z" fill="#B76936"/>
<path d="M65.9478 97.8085C65.9478 97.8085 69.5251 96.7976 71.0582 94.7758C72.5914 92.7541 72.5914 91.7432 74.6355 90.2268C76.6797 88.7105 79.746 87.1942 80.768 85.1724C81.7901 83.1506 84.8564 80.1179 87.4116 77.5907C89.9668 75.5689 92.522 74.0526 93.5441 72.0308C94.0552 70.009 97.1214 65.9655 99.6766 64.4491C102.232 62.9328 106.32 59.9001 106.831 58.3838C107.342 56.8675 111.431 51.813 115.008 49.7912C118.585 47.7695 120.629 45.2422 123.185 43.2205C125.74 41.1987 127.784 38.6714 128.295 38.166C128.806 37.6606 135.961 38.166 138.516 41.7041C141.071 45.2422 145.159 51.813 146.693 53.3293C148.737 55.3511 150.27 58.3838 149.248 62.9328C148.226 67.9873 151.803 77.5907 150.781 82.1397C149.248 86.1833 146.693 88.205 144.137 91.7432C141.582 94.7758 139.538 96.7976 136.472 99.8303C132.894 102.863 126.251 106.401 123.185 107.917C120.118 108.928 112.453 109.939 109.898 110.445C107.853 110.95 102.232 111.456 98.1435 110.95C94.0552 110.445 90.9889 108.928 87.4116 109.939C83.3233 110.95 76.6797 109.434 73.1024 106.907C69.0141 104.379 66.4588 105.39 64.9257 103.368C63.3926 101.347 60.3263 101.852 65.9478 97.8085Z" fill="#E5E788"/>
<path d="M138.516 42.2097C135.961 38.6716 128.806 37.6607 128.295 38.6716C127.784 39.177 126.762 40.1879 125.229 41.7043C127.784 40.1879 132.383 43.2206 133.916 43.726C136.472 44.7369 135.45 44.2315 136.472 48.275C137.494 52.3186 140.049 51.3077 141.071 52.824C142.093 54.3404 142.604 55.8567 142.604 57.8785C142.604 59.9003 145.159 60.9112 145.67 62.4275C146.182 63.4384 147.715 63.9438 148.737 64.9547C148.737 64.4493 148.737 63.9438 148.737 63.4384C149.759 58.3839 148.226 55.8567 146.182 53.8349C145.159 51.8132 141.071 45.2424 138.516 42.2097Z" fill="#F3F0C9"/>
<path d="M91.4999 78.0961C91.4999 78.0961 93.033 77.0852 93.033 78.6015C93.033 80.1178 96.0993 78.0961 96.0993 79.107C96.0993 80.1178 100.188 79.107 100.699 79.6124C101.21 80.6233 104.787 78.6015 105.298 79.6124C106.32 81.1287 107.853 78.6015 108.875 79.107C109.897 79.6124 110.408 78.0961 111.431 78.0961C112.453 78.6015 112.964 77.0852 113.475 77.0852C113.986 77.0852 113.986 76.5797 114.497 76.5797C115.008 76.5797 115.008 75.5688 115.519 75.5688C116.541 75.5688 115.008 74.5579 115.519 74.5579C116.03 74.5579 115.519 73.5471 115.519 73.5471C116.03 73.5471 115.519 72.5362 116.03 72.5362C116.541 72.5362 115.008 71.5253 115.519 71.0198C116.03 70.5144 113.986 70.5144 114.497 68.9981C115.519 67.4817 113.986 68.4926 113.986 67.4817C114.497 66.4708 112.453 66.9763 112.453 65.4599C112.453 63.4382 109.897 64.9545 110.408 62.9327C110.92 60.9109 108.364 61.4164 108.875 60.4055C109.386 59.3946 120.629 50.2966 121.14 49.7911C121.651 49.2857 124.207 50.2966 124.207 51.8129C124.207 52.8238 128.295 52.8238 128.295 53.8347C128.295 54.8456 131.361 55.351 130.85 56.8674C130.339 58.3837 133.405 58.8892 132.894 60.4055C131.872 61.4164 135.961 61.4164 135.45 63.4382C134.939 65.4599 137.494 65.9654 136.983 67.4817C135.961 68.4926 139.538 71.0198 136.983 73.0416C134.939 74.5579 138.005 77.0852 135.961 78.6015C133.916 80.1178 135.961 82.1396 133.916 82.6451C132.383 83.1505 134.939 87.6995 132.894 88.205C130.85 88.7104 131.361 92.754 129.828 92.2485C128.295 91.7431 127.273 95.7866 124.207 95.7866C121.14 95.7866 119.607 97.8084 118.074 97.303C116.541 96.7975 113.475 98.8193 110.92 97.8084C108.875 96.7975 106.32 100.336 103.765 98.3139C101.21 96.2921 97.6324 99.3247 96.0993 96.7975C94.5662 94.7757 92.0109 97.303 89.9668 93.7649C87.9226 90.7322 86.3895 92.754 85.8784 90.2267C88.4336 85.6777 91.4999 78.0961 91.4999 78.0961Z" fill="#DDDA32"/>
<path d="M144.137 91.7431C146.693 88.7104 149.759 86.6886 150.781 82.1396C151.803 79.6124 150.781 75.0634 149.759 70.5144C149.248 71.5253 148.737 73.0416 148.226 73.5471C147.715 75.0634 145.67 76.0743 143.626 79.107C141.582 82.1396 145.159 81.6342 142.093 84.1614C139.027 86.6886 140.049 87.6995 138.516 91.7431C137.494 95.7867 129.828 102.357 129.828 102.357L131.361 103.368C132.894 102.357 134.428 101.347 135.45 100.336C139.538 96.7975 141.582 95.2812 144.137 91.7431Z" fill="#C6D148"/>
<path d="M127.784 103.874C124.207 105.896 117.052 105.896 115.519 106.907C113.986 107.917 107.853 107.412 103.765 107.917C99.6766 108.423 97.1214 106.907 92.011 106.907C87.4116 106.907 85.8785 104.885 83.8343 103.368C81.7901 101.852 75.1466 100.336 73.6134 98.3139C72.0803 96.2922 82.3012 87.6996 84.8564 85.1724C86.3895 83.656 88.9447 78.0961 90.4779 75.0635C89.4558 76.0744 87.9227 77.0853 86.3895 78.0961C84.8564 80.1179 81.2791 83.1506 80.768 85.1724C79.746 87.1942 76.6797 88.7105 74.6355 90.2268C72.5914 91.7432 72.5914 93.2595 71.0582 94.7758C69.5251 96.7976 65.9478 97.8085 65.9478 97.8085C60.8374 101.852 63.9036 101.347 64.9257 103.368C65.9478 105.39 69.0141 104.379 73.1024 106.907C77.1907 109.434 83.8343 110.95 87.4116 109.939C91.5 108.928 94.5662 110.445 98.1435 110.95C102.232 111.456 107.342 110.95 109.898 110.445C111.942 109.939 119.607 108.928 123.185 107.917C126.251 106.907 132.894 102.863 136.472 99.8303C138.516 97.8085 140.049 96.2922 141.582 94.7758C136.983 98.3139 130.85 102.358 127.784 103.874Z" fill="#A6B031"/>
<path d="M113.475 74.0528C115.519 71.5255 108.875 63.9439 104.787 60.4058C103.254 61.9221 100.699 63.4384 99.1656 64.4493C96.6104 65.9657 93.5441 70.5147 93.0331 72.031C93.0331 72.5364 92.522 73.0419 92.011 73.0419C102.743 76.58 111.431 76.58 113.475 74.0528Z" fill="#FFFDE1"/>
<path d="M122.163 68.4926C122.163 68.4926 122.674 66.9762 123.696 66.9762C124.207 66.9762 126.762 65.9653 126.762 65.9653C126.762 65.9653 127.273 66.4708 126.762 66.9762C125.74 66.9762 124.207 67.9871 122.163 68.4926Z" fill="#3F2300"/>
<path d="M109.898 62.9328C109.898 62.9328 109.386 61.4165 109.898 60.9111C110.409 60.4056 111.942 58.3838 112.964 58.8893C113.475 58.8893 113.475 60.4056 113.475 60.4056C113.475 60.4056 110.92 62.9328 109.898 62.9328Z" fill="#6F5A40"/>
<path d="M92.5221 84.1616C92.5221 84.1616 90.989 82.6452 91.5 81.6343C92.0111 80.6235 93.0332 81.6343 93.0332 81.6343C93.0332 81.6343 93.0332 83.6561 92.5221 84.1616Z" fill="#482D0C"/>
<path d="M105.809 80.6235C105.809 80.6235 104.787 81.6344 104.787 82.6453C104.787 83.6562 105.298 84.1617 105.809 84.1617C106.32 84.1617 106.831 83.6562 106.32 83.1508C106.32 82.1399 106.32 81.129 105.809 80.6235Z" fill="#553C1D"/>
<path d="M107.853 60.9109C108.875 59.9 109.387 58.8892 110.409 58.3837C110.92 57.8783 111.431 57.3728 111.942 57.3728C112.453 56.8674 112.964 56.3619 113.475 56.3619C114.497 55.8565 115.519 54.8456 116.541 54.3401C117.563 53.8347 118.074 52.8238 119.096 51.8129C120.118 50.802 120.629 50.2966 121.652 49.2857C122.674 48.2748 123.185 47.7694 124.207 46.7585C125.74 44.7367 127.273 43.2204 129.317 42.2095C127.784 44.2313 126.251 45.7476 124.207 47.2639C123.185 48.2748 122.163 48.7803 121.652 49.7911C120.629 50.802 119.607 51.3075 118.585 51.8129C117.563 52.3184 116.541 53.3293 116.03 53.8347C115.008 54.8456 114.497 55.351 113.475 56.3619C112.964 56.8674 112.453 57.3728 111.942 57.3728C111.431 57.8783 110.92 58.3837 110.409 58.3837C109.898 59.3946 108.875 60.4055 107.853 60.9109Z" fill="#F2F2DE"/>
<path d="M108.875 64.4492C109.898 63.4383 110.409 62.4274 111.431 61.4165C112.453 60.4056 113.475 59.9002 114.497 58.8893C115.519 58.3838 116.541 57.3729 117.563 56.8675C118.585 55.8566 119.607 55.3512 120.629 54.3403C121.652 53.3294 122.674 52.3185 123.696 51.813C124.718 50.8022 125.74 50.2967 126.762 49.2858C128.806 47.7695 130.85 46.2532 132.895 44.7368C131.361 46.7586 129.317 48.2749 127.273 50.2967C126.251 51.3076 125.229 51.813 124.207 52.8239C123.185 53.8348 122.163 54.3403 121.141 55.3512C120.118 56.3621 119.096 56.8675 118.074 57.8784C117.052 58.8893 116.03 59.9002 115.519 60.4056C114.497 61.4165 113.475 61.9219 112.453 62.9328C110.92 62.9328 109.898 63.4383 108.875 64.4492Z" fill="#F2F2DE"/>
<path d="M110.409 66.4707C111.431 65.4598 112.453 64.4489 113.475 63.9434C114.497 62.9325 115.519 62.4271 116.541 61.4162C117.563 60.4053 119.096 59.8999 120.118 58.889C121.14 57.8781 122.163 57.3726 123.185 56.3618C124.207 55.3509 125.229 54.34 126.251 53.8345C127.273 52.8236 128.295 52.3182 129.317 51.3073C131.361 49.791 133.917 48.2746 135.961 46.7583C133.917 48.7801 131.872 50.2964 129.828 51.8127C128.806 52.8236 127.784 53.3291 126.762 54.34C125.74 55.3509 124.718 55.8563 123.185 56.8672C122.163 57.3726 121.14 58.3835 120.118 59.3944C119.096 60.4053 118.074 61.4162 117.052 61.9216C116.03 62.9325 115.008 63.438 113.986 64.4489C112.964 65.4598 111.942 65.9652 110.409 66.4707C110.409 66.9761 110.409 66.9761 110.409 66.4707Z" fill="#F2F2DE"/>
<path d="M111.942 68.998C112.964 67.9872 113.986 67.4817 115.008 66.4708C115.519 65.9654 116.03 65.9654 116.541 65.4599C117.052 64.9545 117.563 64.9545 118.074 64.449C119.096 63.9436 120.118 63.4381 121.14 62.4273C122.163 61.9218 123.185 60.9109 124.207 60.4055C125.229 59.3946 126.251 58.8891 127.273 58.3837C128.295 57.8783 129.317 56.8674 130.339 56.3619C132.383 54.8456 134.428 53.8347 136.983 52.3184C134.939 53.8347 133.405 55.351 131.361 56.8674C130.339 57.3728 129.317 58.3837 128.295 58.8891C127.273 59.3946 126.251 60.4055 125.229 60.9109C124.207 61.4164 123.185 62.4273 122.163 62.9327C120.629 63.4381 119.607 64.449 118.585 64.9545C118.074 65.4599 117.563 65.4599 117.052 65.9654C116.541 66.4708 116.03 66.4708 115.519 66.9763C114.497 67.9871 113.475 68.4926 111.942 68.998Z" fill="#F2F2DE"/>
<path d="M113.475 70.0091C114.497 69.5036 115.519 68.4927 116.541 67.9873C117.563 67.4818 119.096 66.4709 120.118 65.9655C121.14 65.46 122.674 64.9546 123.696 64.4492C124.718 63.9437 126.251 62.9328 127.273 62.4274C128.295 61.9219 129.317 60.911 130.85 60.4056C131.872 59.9002 133.406 58.8893 134.428 58.3838C136.983 57.3729 139.538 55.8566 142.093 54.8457C140.049 56.362 137.494 57.8784 134.939 58.8893C133.917 59.3947 132.383 60.4056 131.361 60.911C130.339 61.4165 128.806 61.9219 127.784 62.9328C126.762 63.4383 125.229 63.9437 124.207 64.9546C123.185 65.46 122.163 66.4709 120.629 66.9764C119.607 67.4818 118.074 68.4927 117.052 68.9982C116.03 68.9982 114.497 70.0091 113.475 70.0091Z" fill="#F2F2DE"/>
<path d="M113.986 72.0309C115.008 71.5255 116.541 71.02 117.563 70.5146C118.585 70.0091 120.118 69.5037 121.651 68.9983C123.185 68.4928 124.207 67.9874 125.74 67.9874C127.273 67.4819 128.295 66.9765 129.317 66.471C130.339 65.9656 131.872 65.4601 132.894 64.9547C133.917 64.4492 135.45 63.9438 136.472 63.4384C139.027 62.4275 141.582 61.4166 144.137 60.9111C141.582 62.4275 139.027 63.4384 136.472 64.4492C134.939 64.9547 133.917 65.4601 132.383 65.9656C130.85 66.471 129.828 66.9765 128.295 67.4819C126.762 67.9874 125.74 68.4928 124.207 68.9983C123.185 69.5037 121.651 70.0091 120.629 70.5146C119.607 71.02 118.074 71.5255 116.541 72.0309C116.541 71.02 115.519 71.5255 113.986 72.0309Z" fill="#F2F2DE"/>
<path d="M113.986 73.0414C115.008 72.5359 116.541 72.0305 118.074 71.5251C118.585 71.5251 119.607 71.0196 120.118 71.0196C120.629 71.0196 121.651 70.5142 122.163 70.5142C123.696 70.0087 124.718 70.0087 126.251 70.0087C127.784 69.5033 128.806 69.5033 130.339 68.9978C131.872 68.4924 132.894 67.9869 134.428 67.9869C135.961 67.4815 136.983 67.4815 138.516 66.976C141.071 66.4706 143.626 65.9652 146.693 65.4597C144.137 66.4706 141.582 66.9761 139.027 67.9869C136.472 67.9869 135.45 68.4924 133.917 68.4924C132.383 68.9978 131.361 68.9978 129.828 69.5033C128.295 69.5033 127.273 70.0087 125.74 70.5142C124.207 71.0196 123.185 71.5251 121.651 71.5251C121.14 71.5251 120.118 72.0305 119.607 72.0305C119.096 72.0305 118.074 72.5359 117.563 72.5359C117.052 72.5359 115.519 73.0414 113.986 73.0414Z" fill="#F2F2DE"/>
<path d="M111.942 75.5691C112.964 76.0745 113.986 77.0854 115.008 78.0963C116.03 79.1072 117.052 79.6126 118.074 80.6235C119.096 81.6344 119.607 82.6453 120.629 83.6562C121.651 84.6671 122.674 85.1725 123.696 86.1834C124.718 87.1943 125.74 87.6998 126.762 88.7107C127.784 89.7215 128.806 90.227 129.828 91.2379C131.872 93.2597 133.405 94.776 135.45 96.7978C133.405 95.2814 131.361 93.7651 129.317 91.7433C128.295 90.7324 127.273 89.7216 126.251 89.2161C125.229 88.2052 124.207 87.1943 123.696 86.6889C122.674 85.678 121.651 84.6671 120.629 83.6562C119.607 82.6453 118.585 82.1399 117.563 81.129C116.541 80.1181 115.519 79.6127 114.497 78.6018C113.475 77.5909 112.964 76.58 111.942 75.5691Z" fill="#F2F2DE"/>
<path d="M113.475 75.5691C114.497 76.0745 116.03 76.58 117.052 77.0854C117.563 77.5909 118.074 77.5909 118.585 78.0963C119.096 78.6018 119.607 78.6018 120.118 79.1072C121.14 79.6127 122.163 80.6235 123.185 81.129C124.207 81.6344 125.229 82.6453 126.251 83.1508C127.273 83.6562 128.295 84.1617 129.828 85.1725C130.85 85.678 131.872 86.6889 132.894 87.1943C134.939 88.7107 136.983 90.227 139.027 91.7433C136.472 90.7324 134.428 89.2161 132.383 88.2052C131.361 87.6998 130.339 86.6889 129.317 86.1834C127.784 85.1725 126.762 84.6671 125.74 83.6562C124.718 83.1508 123.696 82.1399 122.674 81.6344C121.652 81.129 120.629 80.6235 119.096 79.6126C118.585 79.1072 118.074 79.1072 117.563 78.6018C117.052 78.0963 116.541 78.0963 116.03 77.5909C115.008 77.0854 113.986 76.0745 113.475 75.5691C112.964 75.5691 112.964 75.5691 113.475 75.5691Z" fill="#F2F2DE"/>
<path d="M114.497 75.0635C116.03 75.5689 117.052 75.5689 118.585 76.0744C119.096 76.0744 119.607 76.5798 120.629 76.5798C121.141 76.5798 121.652 77.0853 122.674 77.0853C123.696 77.5907 125.229 78.0961 126.251 78.6016C127.273 79.107 128.806 79.6125 129.828 80.1179C131.361 80.6234 132.383 81.1288 133.406 81.1288C134.428 81.6343 135.961 82.1397 136.983 82.6452C139.538 83.656 141.582 84.6669 144.137 85.6778C141.071 85.6778 138.516 84.6669 135.961 83.656C134.939 83.1506 133.406 82.6451 132.383 82.1397C131.361 81.6343 129.828 81.1288 128.806 80.6234C127.784 80.1179 126.251 79.6125 125.229 79.107C124.207 78.6016 122.674 78.0961 121.652 78.0961C121.141 78.0961 120.629 77.5907 119.607 77.5907C119.096 77.5907 118.585 77.0853 117.563 77.0853C116.541 76.0744 115.519 75.5689 114.497 75.0635Z" fill="#F2F2DE"/>
<path d="M113.986 74.0522C115.519 74.0522 116.541 74.5577 118.074 74.5577C118.585 74.5577 119.607 74.5577 120.118 75.0631C120.629 75.0631 121.651 75.5686 122.163 75.5686C123.185 76.074 124.718 76.074 125.74 76.5795C127.273 77.0849 128.295 77.0849 129.828 77.0849C131.361 77.0849 132.383 77.5904 133.917 77.5904C135.45 77.5904 136.472 78.0958 138.005 78.0958C140.56 78.6013 143.115 79.1067 145.671 80.1176C143.115 80.1176 140.56 79.6121 138.005 79.1067C135.961 79.1067 134.428 78.6013 133.405 78.6013C131.872 78.0958 130.85 78.0958 129.828 77.5904C128.806 77.0849 127.273 77.0849 125.74 76.5795C124.207 76.5795 123.185 76.074 121.651 76.074C121.14 76.074 120.118 76.074 119.607 75.5686C119.096 75.5686 118.074 75.0631 117.563 75.0631C116.541 75.0631 115.519 74.5577 113.986 74.0522Z" fill="#F2F2DE"/>
<path d="M114.497 73.547C115.519 73.547 117.052 73.0416 118.074 73.0416C118.585 73.0416 119.096 73.0416 120.118 73.0416C120.629 73.0416 121.141 73.0416 122.163 73.0416C123.185 73.0416 124.718 73.0416 125.74 73.0416C126.762 73.0416 128.295 73.0416 129.317 73.0416C130.339 73.0416 131.872 72.5361 132.894 72.5361C133.917 72.5361 135.45 72.5361 136.472 72.5361C139.027 72.5361 141.582 72.5361 144.137 72.5361C141.582 73.0416 139.027 73.0416 136.472 73.0416C135.45 73.0416 133.917 73.0416 132.894 73.0416C131.872 73.0416 130.339 73.0416 129.317 73.0416C128.295 73.0416 126.762 73.0416 125.74 73.0416C124.718 73.547 123.185 73.547 122.163 73.547C121.652 73.547 121.141 73.547 120.118 73.547C119.607 73.547 119.096 73.547 118.074 73.547C117.052 73.547 115.519 73.547 114.497 73.547Z" fill="#F2F2DE"/>
<path d="M110.409 76.0745C111.431 77.0854 111.942 78.0962 112.964 79.1071C113.986 80.118 114.497 81.1289 115.008 82.1398C115.519 83.1507 116.541 84.1616 117.052 85.1725C117.563 86.1834 118.585 87.1942 119.607 88.2051C120.629 89.216 121.14 90.2269 122.163 91.2378C123.185 92.2487 123.696 93.2596 124.718 94.2705C126.251 96.2923 127.784 98.314 128.806 100.841C126.762 98.8195 125.229 96.7977 123.696 94.7759C123.185 93.765 122.163 92.7541 121.652 91.7433C121.14 90.7324 120.118 89.7215 119.607 88.7106C119.096 87.6997 118.074 86.6888 117.563 85.6779C116.03 84.667 115.519 83.6561 114.497 82.6452C113.475 81.6344 112.964 80.6235 112.453 79.6126C111.431 78.6017 110.92 77.5908 110.409 76.0745Z" fill="#F2F2DE"/>
<path d="M108.364 76.0745C108.875 77.5908 109.386 78.6017 110.409 79.6126C110.92 80.6235 111.431 82.1398 111.942 83.1507C112.453 84.1616 112.964 85.6779 113.475 86.6888C113.986 87.6997 114.497 89.216 115.008 90.2269C115.519 91.2378 116.03 92.7541 116.541 93.765C117.052 94.7759 117.563 96.2923 118.074 97.3031C119.096 99.8304 120.118 101.852 120.629 104.379C119.096 102.358 118.074 99.8304 117.052 97.3031C116.541 96.2923 116.03 94.7759 115.519 93.765C115.008 92.7541 114.497 91.2378 113.986 90.2269C113.475 89.216 112.964 87.6997 112.453 86.6888C111.942 85.6779 111.431 84.1616 110.409 83.1507C109.898 82.1398 109.386 80.6235 108.875 79.6126C108.875 78.6017 108.364 77.5908 108.364 76.0745Z" fill="#F2F2DE"/>
<path d="M104.787 76.5798C105.298 77.5907 105.809 78.6016 106.32 80.1179C106.831 81.1288 107.342 82.6452 107.342 84.1615C107.853 85.6778 107.853 86.6887 108.364 88.2051C108.875 89.7214 108.875 90.7323 109.387 91.7432C109.898 92.7541 110.409 94.2704 110.92 95.2813C111.431 96.2922 111.942 97.8085 111.942 99.3249C112.453 101.852 113.475 104.379 113.475 106.907C112.453 104.379 111.431 101.852 110.92 99.3249C110.409 97.8085 110.409 96.7976 109.898 95.2813C109.386 93.765 109.386 92.7541 108.875 91.2377C108.364 89.7214 108.364 88.7105 107.853 87.1942C107.342 86.1833 106.831 84.667 106.32 83.6561C105.809 82.6452 105.298 81.1288 105.298 79.6125C105.298 79.1071 104.787 77.5907 104.787 76.5798Z" fill="#F2F2DE"/>
<path d="M100.699 76.0745C101.21 77.5908 101.21 78.6017 101.721 80.118C102.232 81.6344 102.232 82.6452 102.232 84.1616C102.232 85.6779 102.232 86.6888 102.743 88.2051C102.743 89.7215 103.254 90.7324 103.254 92.2487C103.765 93.765 103.765 94.7759 104.276 96.2923C104.787 97.8086 104.787 98.8195 104.787 100.336C105.298 102.863 105.298 105.39 105.298 108.423C104.276 105.896 103.765 103.368 103.254 100.841C103.254 99.3249 102.743 98.314 102.743 96.7977C102.743 95.2814 102.232 94.2705 102.232 92.7541C102.232 91.2378 102.232 90.2269 101.721 88.7106C101.721 87.1943 101.21 86.1834 100.699 84.667C100.188 83.1507 100.188 82.1398 100.188 80.6235C100.699 78.6017 100.699 77.5908 100.699 76.0745Z" fill="#F2F2DE"/>
<path d="M96.6105 75.5691C96.6105 77.0854 97.1215 78.0963 97.1215 79.6126C97.1215 81.129 97.1215 82.1399 97.1215 83.6562C97.1215 85.1725 96.6105 86.1834 96.6105 87.6998C96.6105 89.2161 96.6105 90.227 96.6105 91.7433C96.6105 93.2597 96.6105 94.2706 96.6105 95.7869C96.6105 97.3032 96.6105 98.3141 96.6105 99.8304C96.6105 102.358 96.6105 104.885 96.0994 107.918C95.5884 105.39 95.5884 102.863 95.5884 99.8304C95.5884 98.3141 95.5884 97.3032 95.5884 95.7869C95.5884 94.2706 95.5884 93.2597 96.0994 91.7433C96.0994 90.227 96.0994 89.2161 96.0994 87.6998C96.0994 86.1834 96.0994 85.1725 96.0994 83.6562C96.0994 82.1399 96.0994 81.129 96.0994 79.6126C96.0994 78.0963 96.6105 76.58 96.6105 75.5691Z" fill="#F2F2DE"/>
<path d="M94.5663 74.5576C94.5663 76.074 94.5663 77.0848 94.0553 78.6012C94.0553 80.1175 93.5442 81.1284 93.5442 82.1393C93.0332 83.1502 92.5221 84.6665 92.5221 85.6774C92.0111 86.6883 92.0111 88.2046 92.0111 89.2155C92.0111 90.7319 91.5 91.7427 91.5 93.2591C91.5 94.27 90.989 95.7863 90.989 96.7972C90.478 99.3244 89.9669 101.852 88.9448 104.379C88.9448 101.852 89.4559 99.3244 89.9669 96.7972C89.9669 95.7863 90.478 94.27 90.989 93.2591C91.5 92.2482 91.5 90.7319 92.0111 89.721C92.5221 88.7101 92.5221 87.1937 93.0332 86.1828C93.0332 85.172 93.5442 83.6556 93.5442 82.1393C93.5442 80.623 94.0553 79.6121 94.5663 78.6012C93.5442 77.0848 94.0553 76.074 94.5663 74.5576Z" fill="#F2F2DE"/>
<path d="M93.0331 73.5466C92.5221 75.063 92.5221 76.0739 92.011 77.0847C91.5 78.0956 90.9889 79.612 90.4779 80.6229C89.9668 82.1392 89.4558 83.6555 88.9448 84.6664C88.4337 85.6773 87.9227 87.1936 87.4116 88.2045C86.9006 89.2154 86.3895 90.7318 85.8785 91.7426C85.3675 92.7535 84.8564 94.2699 84.3454 95.2808C83.3233 97.808 82.3012 100.335 80.7681 102.357C81.2791 99.8298 82.3012 97.3025 83.3233 94.7753C83.8343 93.7644 84.3454 92.2481 84.8564 91.2372C85.3675 90.2263 85.8785 88.71 86.3895 87.6991C86.9006 86.6882 87.4116 85.1719 87.9227 84.161C88.9448 83.6555 89.4558 82.1392 89.9668 81.1283C89.9668 79.612 90.4779 78.6011 91.5 77.0847C92.011 76.0739 92.5221 75.063 93.0331 73.5466Z" fill="#F2F2DE"/>
<path d="M90.9889 75.5691C90.4779 76.58 89.9669 77.5909 89.4558 78.6018C88.9448 79.1072 88.9448 79.6127 88.4337 80.1181C87.9227 80.6235 87.9227 81.129 87.4116 81.6344C86.9006 82.6453 85.8785 83.1508 85.3675 84.1617C84.8564 84.6671 84.3454 85.678 83.8343 86.6889C83.3233 87.6998 82.8123 88.7107 82.3012 89.7215C81.7902 90.7324 81.2791 91.7433 80.257 92.2488C78.7239 94.2706 77.7018 95.7869 76.1687 97.3032C77.1908 95.2814 78.2129 93.2597 79.235 91.7433C79.746 90.7324 80.257 89.7215 81.2791 88.7107C81.7902 87.6998 82.8123 86.6889 83.3233 86.1834C83.8343 85.1725 84.8564 84.6671 85.3675 83.6562C85.8785 82.6453 86.3896 81.6344 86.9006 80.6235C87.4116 80.1181 87.4117 79.6127 87.9227 79.1072C88.4337 78.6018 88.4337 78.0963 88.9448 77.5909C89.4558 77.0854 89.9669 76.0745 90.9889 75.5691Z" fill="#F2F2DE"/>
<path d="M149.248 74.5579C148.737 75.0633 148.226 75.5688 147.715 76.5796C147.204 77.0851 147.204 77.0851 146.693 77.5905V78.096C146.693 78.096 146.693 78.096 146.693 78.6014C146.693 78.6014 146.693 78.6014 146.693 79.1069C146.693 79.6123 146.182 79.6123 145.671 80.1178C145.16 80.6232 145.16 80.6232 145.16 81.1286V81.6341V82.1395C145.16 82.645 145.16 83.1504 145.16 83.1504C145.16 82.645 145.16 82.645 144.649 82.1395V81.6341V81.1286C144.649 81.1286 144.649 81.1286 144.649 80.6232C144.649 80.6232 144.649 80.1178 145.16 80.1178L145.671 79.6123C146.182 79.1069 146.182 79.1069 146.693 78.6014C146.693 78.6014 146.693 78.6014 146.693 78.096V77.5905C146.693 77.0851 147.204 77.0851 147.204 76.5796C148.226 76.0742 148.737 75.0633 149.248 74.5579Z" fill="#FBFBF4"/>
<path d="M126.251 95.7868C126.762 95.2814 126.762 95.2814 127.273 94.7759H127.784C128.295 94.7759 128.295 94.7759 128.806 94.7759C129.317 94.7759 129.317 94.7759 129.828 95.2814C129.828 95.2814 129.828 95.2814 130.339 95.2814C130.339 95.2814 130.339 95.2814 130.85 95.2814C131.361 95.2814 131.872 95.7868 132.383 95.2814C132.895 95.2814 133.406 95.2814 133.406 94.7759C133.406 94.7759 133.917 94.7759 133.917 94.2705C133.917 94.2705 133.917 93.765 134.428 93.765L134.939 93.2596L135.45 92.7542C135.961 92.7542 135.961 92.7542 136.472 92.7542C136.983 92.7542 136.983 92.7541 136.983 93.2596H136.472H135.961C135.45 93.2596 135.45 93.765 134.939 94.2705C134.939 94.2705 134.939 94.7759 134.428 94.7759H133.917C133.406 94.7759 132.895 94.7759 132.383 94.7759C131.872 94.7759 131.361 94.7759 130.85 94.2705C130.85 94.2705 130.339 94.2705 130.339 93.765H129.828C128.295 95.2814 127.273 95.7868 126.251 95.7868Z" fill="#FBFBF4"/>
<path d="M95.5884 77.0853C96.0994 77.0853 96.6105 76.5798 96.6105 76.5798C97.1215 76.5798 97.6325 76.5798 97.6325 76.5798C97.6325 76.5798 98.1436 76.5798 98.1436 77.0853C98.1436 77.0853 98.6546 77.0853 98.6546 77.5907C99.1657 77.5907 99.1657 77.5907 99.6767 77.5907C100.188 77.5907 100.188 77.0853 100.699 77.0853C101.21 77.0853 101.21 76.5798 101.721 76.5798H102.232H102.743C103.254 76.5798 103.765 77.0853 103.765 77.0853C103.254 77.0853 103.254 77.0853 102.743 77.0853C102.232 77.0853 102.232 77.0853 101.721 77.5907C101.21 77.5907 101.21 78.0962 100.699 78.0962C100.188 78.0962 99.6767 78.6016 99.6767 78.6016C99.1657 78.6016 98.6546 78.6016 98.6546 78.6016H98.1436H97.6325C97.1215 77.0853 96.0994 77.0853 95.5884 77.0853Z" fill="#FBFBF4"/>
<path d="M45.506 90.2273C42.9508 90.2273 40.3956 91.2382 38.3514 92.7545C40.9067 98.3144 47.0392 102.863 56.238 106.402C56.749 105.391 56.749 103.874 56.749 102.358C57.26 95.7872 52.1496 90.2273 45.506 90.2273Z" fill="#C76300"/>
<g style="mix-blend-mode:overlay">
<path d="M47.5503 90.2273C49.5945 91.2382 52.1497 93.7654 53.1718 97.809C54.1939 100.842 54.1939 103.369 53.6828 105.391C54.7049 105.896 55.727 106.402 56.7491 106.907C57.2601 105.896 57.2601 104.38 57.2601 102.863C57.2601 96.7981 53.1718 91.7436 47.5503 90.2273Z" fill="#E8BE98"/>
</g>
<path d="M65.4367 97.3027C60.8374 97.3027 56.749 100.841 54.7048 105.895C60.8374 108.423 68.503 110.444 77.1907 111.961C77.1907 111.961 77.1907 111.961 77.1907 111.455C77.1907 103.874 72.0803 97.3027 65.4367 97.3027Z" fill="#CE7321"/>
<g style="mix-blend-mode:overlay">
<path d="M69.014 97.8083C72.0803 99.8301 75.1466 104.885 75.1466 111.455C75.6576 111.455 76.6797 111.961 77.1907 111.961C77.1907 111.961 77.1907 111.961 77.1907 111.455C77.1907 105.39 73.6134 99.8301 69.014 97.8083Z" fill="#E8BE98"/>
</g>
<path d="M75.6576 111.961C82.8122 112.972 90.4778 113.983 98.6545 113.983C98.1435 106.906 93.0331 101.346 86.9005 101.346C81.7901 100.841 77.1907 105.39 75.6576 111.961Z" fill="#CC6E19"/>
<g style="mix-blend-mode:overlay">
<path d="M98.6546 112.466C97.6325 105.895 93.0331 101.346 87.4116 101.346C90.9889 101.851 95.5883 105.895 97.6325 113.982C98.1435 113.982 98.1435 113.982 98.6546 113.982V112.466Z" fill="#E8BE98"/>
</g>
<path d="M97.6326 113.477C98.1436 113.477 98.6547 113.477 99.1657 113.477C106.831 113.477 113.986 112.971 120.63 111.96C119.096 105.895 114.497 101.346 109.387 101.346C103.254 101.346 98.6547 106.906 97.6326 113.477Z" fill="#CE7321"/>
<path d="M98.6546 113.477C99.1656 110.949 101.721 103.873 105.809 102.357C101.721 103.873 98.6546 107.917 98.1436 112.971V113.477C98.1436 113.477 98.1436 113.477 98.6546 113.477Z" fill="#A34000"/>
<path d="M158.446 94.2705C156.402 92.2487 153.847 91.2378 150.781 91.2378C144.137 91.2378 139.027 96.7977 139.027 103.874C139.027 104.885 139.027 106.401 139.538 107.412C148.737 103.874 155.38 99.3249 158.446 94.2705Z" fill="#C76604"/>
<path d="M143.115 94.2705C140.56 96.7977 139.027 99.8304 139.027 103.369C139.027 104.379 139.027 105.896 139.538 106.907C140.049 106.907 140.56 106.401 141.071 106.401C140.049 101.852 141.582 97.3032 143.115 94.2705Z" fill="#A34000"/>
<path d="M130.85 97.8083C124.207 97.8083 119.096 104.379 119.096 112.466C127.784 111.455 134.939 109.434 141.582 106.906C139.538 101.346 135.45 97.8083 130.85 97.8083Z" fill="#CE7321"/>
<path d="M119.607 111.961L120.118 110.445C120.118 110.445 120.118 104.885 125.229 98.8198C122.163 100.842 120.118 104.38 119.607 108.423C119.607 109.94 119.607 111.456 119.607 111.961Z" fill="#A34000"/>
<path d="M86.9006 51.8127C84.8564 53.3291 82.8122 55.3509 81.7902 57.8781C80.7681 60.4053 80.7681 62.4271 80.7681 63.9434C81.7902 63.9434 82.3012 63.9434 83.3233 63.438C82.8122 57.8781 85.3675 54.34 86.9006 51.8127Z" fill="#A34000"/>
<path d="M65.9477 55.3511C63.3925 56.8674 59.3042 60.911 60.8373 68.4926C61.8594 67.9872 62.8815 67.9872 63.9036 67.4818C61.8594 62.4273 63.9036 58.3837 65.9477 55.3511Z" fill="#A34000"/>
<path d="M42.9509 78.096C42.9509 77.5905 43.462 77.0851 43.973 77.0851C42.9509 75.5688 41.4178 71.0198 43.973 64.449C41.9288 66.4708 40.9067 69.5034 40.9067 73.0415C40.9067 73.547 40.9067 73.547 40.9067 74.0524C40.9067 75.5688 42.4399 77.5905 42.9509 78.096Z" fill="#A34000"/>
<path d="M62.3705 108.424C63.9036 108.929 65.4367 108.929 66.9699 109.434C68.503 109.94 70.0361 109.94 71.5693 110.445C73.1024 110.951 74.6355 111.456 76.1687 111.456C77.7018 111.962 79.2349 111.962 80.768 111.962C82.3012 111.962 83.8343 111.962 85.8785 112.467L90.9889 112.973C94.0552 112.973 97.6325 113.478 100.699 113.478C97.6325 113.983 94.0552 113.983 90.9889 113.983C89.4558 113.983 87.9226 113.983 85.8785 113.478C84.3453 113.478 82.8122 112.973 81.2791 112.467C79.746 111.962 78.2128 111.962 76.6797 111.456C75.1466 111.456 73.6134 110.951 71.5693 110.951C70.0361 110.445 68.503 110.445 66.9699 109.94C65.4367 109.94 63.9036 109.434 62.3705 108.424Z" fill="#A34000"/>
<path d="M37.8405 84.6671C38.3515 83.6562 38.8625 82.1398 39.3736 81.129C39.8846 80.1181 40.9067 79.1072 41.4178 78.0963C42.4398 77.0854 42.9509 76.0745 43.973 75.5691C45.5061 75.0636 46.5282 74.0527 47.5503 73.5473C49.5944 72.0309 51.6386 71.0201 54.1938 70.5146C56.238 69.5037 58.7932 68.4928 60.8374 67.4819C62.8816 66.471 65.4368 65.9656 67.992 64.9547C70.5472 64.4493 72.5914 63.9438 75.1466 63.4384C80.257 62.9329 84.8564 62.4275 89.9669 62.4275C84.8564 63.4384 80.257 63.9438 75.6576 64.9547C73.1024 65.4602 70.5472 65.9656 68.503 66.471C65.9478 66.9765 63.3926 67.4819 61.3484 68.4928C58.7932 68.9983 56.7491 69.5037 54.1938 71.0201C52.1497 72.0309 50.1055 73.0418 48.0613 74.5582C46.5282 76.0745 44.484 77.5908 42.9509 79.1072C40.9067 80.6235 39.3736 82.6453 37.8405 84.6671Z" fill="#A34000"/>
<g style="mix-blend-mode:overlay">
<path d="M121.651 111.456C123.185 110.95 125.229 110.445 126.762 109.939C127.784 109.939 128.295 109.434 129.317 109.434C130.339 109.434 130.85 108.929 131.872 108.929C133.405 108.423 135.45 108.423 136.983 107.918C138.516 107.412 140.049 106.907 141.582 105.896C143.115 104.885 144.648 104.38 146.182 103.369C147.715 102.358 149.248 101.852 150.781 100.841C153.847 98.8197 156.402 96.7979 158.958 94.7761C157.425 97.8088 154.869 100.336 151.803 102.358C150.27 103.369 148.737 104.38 147.204 104.885C145.671 105.896 144.137 106.401 142.093 106.907C140.56 107.412 138.516 107.918 136.983 108.423C135.45 108.929 133.917 109.939 131.872 110.445C130.85 110.95 130.339 110.95 129.317 110.95C128.295 110.95 127.784 111.456 126.762 111.456C125.229 111.456 123.696 111.456 121.651 111.456Z" fill="#E8BE98"/>
</g>
<path d="M84.5038 79.2503C83.9928 78.7448 82.9707 79.2503 82.4596 78.2394C81.9486 76.723 80.9265 76.723 79.9044 75.7121C79.3934 75.2067 79.3934 74.1958 78.3713 73.1849C77.8603 72.174 76.8382 73.1849 75.8161 72.6795C75.305 71.6686 75.305 71.6686 74.794 71.6686C74.283 71.6686 74.283 71.6686 72.7498 71.6686C71.2167 71.1631 71.2167 71.1631 70.1946 71.6686C69.6836 71.6686 68.1504 71.6686 68.1504 71.6686C68.1504 71.1631 66.1063 71.6686 66.1063 71.6686H64.5731C64.5731 71.6686 62.0179 71.6686 61.5069 72.174C60.9958 72.6795 60.4848 73.1849 59.9738 72.6795H59.4627C60.4848 72.174 63.04 71.6686 63.5511 70.6577C64.0621 70.1522 64.5731 70.1522 65.0842 69.6468C65.0842 69.6468 65.0842 69.6468 65.5952 69.6468L66.1063 69.1414C68.1504 66.6141 68.6615 66.1087 69.1725 65.0978C69.1725 65.0978 69.1725 65.0978 69.1725 64.5924C69.1725 64.5924 69.1725 64.5924 69.1725 64.0869C69.1725 64.0869 69.1725 64.0869 69.1725 63.5815V63.076C69.1725 63.076 69.1725 63.076 69.1725 62.5706C69.1725 62.5706 69.1725 62.5706 69.1725 62.0651C69.1725 62.0651 69.1725 62.0651 69.1725 61.5597C69.1725 61.0542 69.1725 60.5488 69.1725 60.5488L70.1946 57.5161C70.1946 57.5161 70.1946 56.5052 69.6836 55.4943C69.6836 54.9889 69.6836 54.9889 69.6836 54.4835C69.6836 52.9671 69.6836 52.9671 69.1725 52.4617C70.1946 51.4508 69.6836 50.4399 69.6836 49.429C69.6836 49.429 69.6836 49.429 69.6836 48.9236C69.6836 47.9127 68.6615 47.4072 68.6615 47.4072H68.1504C68.1504 47.4072 68.1504 47.4072 67.6394 47.4072C67.1284 47.4072 66.6173 47.9127 66.1063 47.9127C66.1063 47.9127 66.1063 47.9127 65.5952 47.9127L65.0842 48.4181C62.0179 50.4399 61.5069 50.9453 60.4848 50.9453C58.9517 51.4508 58.9517 52.9671 58.9517 53.978C58.9517 54.4835 58.4406 55.4943 57.9296 55.4943C56.9075 55.4943 56.9075 57.5161 56.9075 57.5161C56.9075 57.5161 56.9075 58.527 56.9075 59.0325C55.8854 58.527 55.3744 58.527 54.3523 57.5161C53.8412 56.5052 53.8412 57.0107 52.8192 56.5052C51.286 55.9998 51.286 55.9998 50.2639 55.9998C49.7529 55.9998 48.7308 55.9998 48.2198 55.4943C47.1977 54.9889 46.6866 55.4943 45.6645 55.4943C45.1535 55.4943 43.6204 53.4726 43.1093 54.4835C42.5983 54.9889 43.1093 56.5052 43.1093 57.5161C43.1093 58.0216 43.1093 58.0216 43.6204 58.527C44.1314 59.5379 44.1314 61.0542 43.6204 61.5597C42.5983 62.0651 44.6425 63.5815 45.6645 64.5924C46.1756 65.0978 46.6866 66.1087 47.1977 67.1196C47.1977 68.1305 48.2198 69.1414 49.2418 69.6468C49.2418 69.6468 49.7529 69.6468 50.2639 70.1522C50.2639 70.1522 50.2639 70.1522 50.775 70.1522H51.286C51.7971 70.1522 52.3081 70.6577 52.8192 71.1631C52.8192 72.174 54.8633 72.174 55.8854 72.174C56.3965 72.174 56.9075 73.1849 57.4185 73.6904L53.3302 79.7557C53.3302 79.7557 53.3302 80.7666 53.8412 80.7666C54.3523 80.7666 54.8633 80.7666 54.8633 80.2611L57.4185 73.6904C57.9296 74.1958 58.4406 74.7012 58.4406 75.2067C58.4406 75.7121 57.9296 76.723 58.4406 77.2285C58.4406 77.7339 59.9738 78.2394 59.9738 78.7448C59.9738 80.2611 60.9958 81.272 61.5069 81.272C62.0179 81.272 62.529 82.7884 62.529 82.7884C62.529 82.7884 64.0621 83.2938 65.0842 83.7993C65.0842 83.7993 65.0842 83.7993 65.5952 83.7993C65.5952 83.7993 65.5952 83.7993 66.1063 83.7993C67.1284 84.3047 67.1284 84.3047 67.6394 84.8102C67.6394 84.8102 67.6394 84.8102 68.1504 84.8102C68.1504 84.8102 68.1504 84.8102 68.6615 84.8102C68.6615 84.8102 68.6615 84.8102 69.1725 84.8102C69.6836 84.8102 70.1946 84.8101 70.1946 85.3156C70.1946 85.3156 70.1946 85.3156 70.7057 85.3156C71.2167 85.3156 71.2167 85.3156 71.7277 85.3156C72.7498 85.3156 72.7498 84.3047 73.7719 84.8102C74.794 85.3156 74.283 85.3156 74.794 84.8102C75.8161 84.3047 76.3271 84.8101 77.8603 84.3047C78.8824 83.7993 78.8823 83.7993 79.9044 83.2938C80.4155 82.7884 80.9265 83.2938 81.9486 82.7884C82.4597 82.7884 82.4597 81.272 82.9707 81.7775C83.9928 82.7884 85.5259 81.7775 85.5259 81.7775C84.5038 80.7666 85.0149 79.7557 84.5038 79.2503ZM57.4185 72.174C57.4185 72.6795 57.4185 72.6795 57.4185 72.174L56.9075 73.6904C56.9075 73.1849 56.9075 72.6795 57.4185 72.174Z" fill="#45A00D"/>
<path d="M57.26 73.0417C57.26 73.0417 55.2159 78.6016 54.7048 80.118C54.7048 80.6234 54.1938 81.1289 53.6827 81.1289C54.1938 81.1289 54.7048 81.1289 54.7048 80.6234L57.26 73.0417Z" fill="#754D00"/>
<path d="M54.7048 78.6015L55.7269 76.5797L56.749 74.5579C57.26 74.0525 57.26 73.547 57.7711 72.5361C57.7711 73.0416 57.26 73.547 57.26 74.5579L55.7269 77.0851L54.7048 78.6015Z" fill="#CFBB90"/>
<g style="mix-blend-mode:overlay">
<path d="M61.8594 76.0744C61.8594 76.0744 63.9035 74.0526 64.9256 74.0526C65.4367 74.0526 66.4588 73.5472 67.4808 73.5472C67.9919 73.5472 68.5029 73.0417 68.5029 73.0417C68.5029 73.0417 67.9919 73.0417 67.4808 73.5472C66.4588 73.5472 65.4367 74.0526 64.9256 74.0526C63.9035 74.5581 61.8594 76.0744 61.8594 76.0744Z" fill="#D8E1A7"/>
</g>
<g style="mix-blend-mode:overlay">
<path d="M56.749 74.558C56.749 74.558 55.2159 73.0417 54.7049 72.5362C54.1938 72.5362 52.1497 72.0308 51.6386 71.5253C51.6386 70.5144 49.5944 70.5144 48.5724 70.009C47.5503 69.5036 47.0392 68.4927 47.0392 67.4818C47.0392 66.4709 46.0171 65.46 45.5061 64.4491C43.973 63.4382 42.4398 61.9219 42.9509 61.4164C43.973 60.911 43.4619 59.3947 42.9509 58.3838C42.9509 57.8783 42.4398 54.8457 42.9509 54.3402C43.4619 53.8348 44.484 55.3511 45.5061 55.3511C46.0171 55.3511 47.0392 54.3402 48.0613 55.3511C48.5724 56.362 49.0834 56.362 50.1055 55.8565C50.6165 55.8565 51.1276 55.8565 52.1497 56.362C53.1717 56.8674 53.1717 56.362 54.1938 57.3729C55.2159 58.3838 55.727 58.8892 56.238 59.3947C56.749 59.9001 57.2601 59.3947 57.7711 61.4164C57.7711 63.4382 58.7932 63.4382 58.7932 64.9546C58.7932 66.4709 58.2822 67.4818 58.2822 67.9872C58.7932 68.4927 57.7711 70.5144 57.7711 71.0199C57.2601 72.0308 56.238 73.5471 56.749 74.558Z" fill="#6E8A00"/>
</g>
<g style="mix-blend-mode:overlay" opacity="0.8">
<path d="M56.238 59.3951C55.727 58.8897 55.216 58.3842 54.1939 57.3733C53.6828 56.8679 53.1718 57.3733 52.1497 56.8679C51.1276 56.3624 50.6166 55.857 50.1055 55.857C49.5945 55.857 48.5724 55.857 48.0614 55.3516C47.0393 54.8461 46.5282 55.3516 45.5061 55.3516C44.9951 55.3516 43.462 53.3298 42.9509 54.3407C43.973 54.8461 44.9951 55.857 45.5061 55.857C46.5282 55.857 47.5503 55.3516 48.0614 56.3624C48.5724 57.8788 49.0834 58.3842 50.6166 58.3842C51.6387 58.3842 52.1497 58.3842 52.1497 58.8897C52.1497 59.3951 51.1276 60.406 52.1497 61.4169C53.1718 62.4278 52.6607 63.9441 52.6607 64.4496C52.6607 64.955 52.6607 65.9659 53.6828 66.9768C54.1939 68.4931 54.1939 70.5149 54.7049 71.0203C55.216 72.0312 55.727 73.0421 56.238 73.5476C56.238 74.053 56.7491 74.053 56.7491 74.053C56.238 73.5476 57.2601 72.0312 57.7712 71.0203C57.7712 70.5149 58.7933 68.4931 58.2822 67.4822C57.7712 66.9768 58.2822 65.9659 58.7933 64.4496C58.7933 63.4387 57.7712 63.4387 57.7712 61.4169C57.2601 59.3951 56.7491 59.9006 56.238 59.3951Z" fill="#2C4200"/>
</g>
<g style="mix-blend-mode:overlay">
<path d="M50.1055 69.5036C50.1055 68.9982 49.0834 68.9982 48.5724 68.4928C47.5503 68.4928 47.5503 66.471 47.0393 65.9655C47.0393 64.9546 49.0834 65.9655 47.5503 64.9546C46.0172 63.9438 46.0172 63.9438 46.0172 62.9329C45.5061 61.922 45.5061 61.922 44.9951 61.4165C44.4841 60.9111 44.4841 59.9002 43.973 59.3948C43.973 58.8893 43.462 58.3839 42.9509 57.8784C42.9509 58.3839 42.9509 58.3839 43.462 58.8893C43.973 59.9002 43.973 61.4165 43.462 61.922C42.4399 61.922 43.973 63.4383 44.9951 64.4492C46.0172 65.4601 46.5282 66.471 46.5282 67.4819C46.5282 68.4928 47.5503 69.5037 48.5724 70.0091C49.0834 70.0091 49.5945 70.5145 50.1055 70.5145C50.1055 70.0091 50.6166 70.0091 50.1055 69.5036Z" fill="#C5D27C"/>
</g>
<g style="mix-blend-mode:overlay">
<path d="M43.4619 54.8457C43.973 55.8566 44.484 56.362 44.995 56.8675C45.5061 57.3729 45.5061 57.3729 46.0171 57.8784C46.5282 58.3838 46.5282 58.3838 47.0392 58.8893C47.5503 59.3947 48.5723 59.9002 49.0834 60.911C49.5944 61.9219 49.5944 62.4274 50.1055 63.4383C50.6165 64.4492 51.1276 64.9546 51.6386 65.9655C52.1496 66.4709 52.1496 66.4709 52.6607 66.9764C53.1717 67.4818 53.1717 67.4818 53.6828 67.9873C54.7049 69.5036 55.2159 71.5254 55.7269 73.0417C55.2159 71.0199 54.1938 69.5036 53.1717 67.9873C53.1717 67.4818 52.6607 66.9764 52.6607 66.9764C52.1496 66.4709 51.6386 65.9655 51.6386 65.9655C51.1276 64.9546 50.6165 64.4492 50.1055 63.4383C49.5944 62.4274 49.0834 61.9219 48.5723 60.911C48.0613 60.4056 47.5503 59.3947 47.0392 58.8893C46.5282 58.8893 46.0171 58.3838 46.0171 58.3838C46.0171 58.3838 45.5061 58.3838 45.5061 57.8784L44.995 57.3729C43.973 56.362 43.4619 55.8566 43.4619 54.8457Z" fill="#D8E1A7"/>
</g>
<g style="mix-blend-mode:overlay">
<path d="M53.1716 66.9764C53.1716 66.4709 53.1716 65.9655 53.1716 64.9546C53.1716 64.4492 53.1716 64.4491 53.1716 63.9437V63.4383C53.1716 63.4383 53.1716 63.4383 53.1716 62.9328C54.1937 63.4383 54.1937 62.9328 54.7048 61.9219C54.7048 62.9328 54.1937 63.4383 54.1937 63.9437V64.4491C54.1937 64.4491 54.1937 64.4492 54.1937 64.9546C54.1937 65.46 54.1937 65.46 54.1937 65.9655C53.1716 65.9655 53.1716 66.4709 53.1716 66.9764Z" fill="#D8E1A7"/>
</g>
<g style="mix-blend-mode:overlay">
<path d="M49.5945 62.9327C49.5945 61.9218 50.1055 60.9109 50.6166 60.4055C50.6166 59.9 51.1276 59.3946 51.1276 58.8891C51.1276 59.3946 51.1276 59.9 50.6166 60.4055C50.6166 61.4164 50.1055 61.9218 49.5945 62.9327Z" fill="#D8E1A7"/>
</g>
<g style="mix-blend-mode:overlay">
<path d="M47.5502 59.3941C47.5502 58.8886 47.5502 58.8886 47.0392 58.3832C47.0392 57.8777 47.0392 57.8777 47.0392 57.3723C47.0392 56.8668 47.5502 56.3614 47.0392 55.856C47.0392 55.856 47.5502 56.3614 47.5502 56.8668C47.5502 57.3723 47.5502 57.3723 47.5502 57.8777C47.5502 57.8777 47.5502 58.3832 47.5502 58.8886C47.5502 58.8886 47.5502 58.8886 47.5502 59.3941Z" fill="#D8E1A7"/>
</g>
<g style="mix-blend-mode:overlay">
<path d="M48.5724 60.911C48.5724 61.4165 48.0613 61.4165 47.5503 61.4165H47.0392H46.5282C45.5061 61.4165 44.9951 60.911 44.484 59.9001C44.9951 60.4056 45.5061 60.911 46.5282 61.4165C47.0392 61.4165 47.5503 61.4165 47.5503 61.4165C48.0613 61.4165 48.5724 60.911 48.5724 60.911Z" fill="#D8E1A7"/>
</g>
<g style="mix-blend-mode:overlay">
<path d="M51.6386 65.4598C51.1276 65.4598 50.6165 65.4598 50.1055 65.4598H49.5944H49.0834C48.5724 65.4598 48.5724 65.4598 48.0613 64.9544C47.5503 64.9544 47.0392 64.449 46.5282 63.9435L46.0171 63.4381L45.5061 62.9326H46.0171C46.0171 62.9326 46.0171 62.9326 46.5282 63.4381L47.0392 63.9435C47.5503 64.449 48.0613 64.9544 48.5724 64.9544C48.5724 64.9544 49.0834 64.9544 49.5944 65.4598H50.1055H50.6165C50.1055 65.9653 51.1276 65.4598 51.6386 65.4598Z" fill="#D8E1A7"/>
</g>
<g style="mix-blend-mode:overlay">
<path d="M48.5723 67.4817C49.0833 67.4817 49.5944 67.9871 49.5944 68.4926C50.1054 68.4926 50.6164 68.998 51.1275 68.998C51.6385 68.998 52.1496 68.998 52.6606 68.998C53.1717 68.998 53.6827 69.5035 54.1937 69.5035C53.6827 69.5035 53.1717 69.5035 52.6606 69.5035C52.1496 69.5035 52.1496 69.5035 51.6385 69.5035C51.1275 69.5035 51.1275 69.5035 50.6164 69.5035C50.1054 69.5035 50.1054 69.5035 49.5944 68.998L49.0833 68.4926C49.0833 67.9871 49.0833 67.4817 48.5723 67.4817Z" fill="#D8E1A7"/>
</g>
<g style="mix-blend-mode:overlay">
<path d="M55.2159 69.5038C55.2159 69.5038 53.6827 65.9657 53.6827 64.9548C53.6827 63.9439 54.7048 64.4494 54.7048 64.4494L55.2159 62.4276C55.2159 62.4276 55.7269 59.9004 56.238 60.4058C56.749 60.9113 56.238 57.8786 56.238 57.8786C56.238 57.8786 56.238 55.8568 57.26 55.8568C58.2821 55.8568 58.2821 54.8459 58.2821 54.3405C58.2821 53.835 58.2821 51.8133 59.8153 51.8133C61.3484 51.3078 61.3484 51.3078 62.8815 50.8024C63.9036 49.7915 64.4146 48.7806 65.4367 49.286C66.4588 49.286 68.503 48.2751 68.503 48.2751C68.503 48.2751 69.5251 48.2751 69.5251 49.286C69.5251 50.2969 69.5251 51.3078 70.0361 51.8133C70.5472 52.3187 70.5472 52.8242 70.5472 53.835C70.5472 55.3514 70.5472 56.8677 71.0582 56.8677C71.0582 57.3732 70.0361 59.9004 70.0361 59.9004C70.0361 59.9004 69.5251 64.4494 69.014 65.4603C67.9919 65.9657 67.4809 66.9766 66.9699 67.4821C66.4588 68.4929 64.4146 70.0093 63.3926 71.0202C62.3705 71.5256 60.3263 72.5365 59.3042 72.5365C58.7932 73.0419 57.7711 74.0528 56.238 72.0311C56.238 71.5256 55.2159 69.5038 55.2159 69.5038Z" fill="#88B000"/>
</g>
<g style="mix-blend-mode:overlay" opacity="0.8">
<path d="M70.0361 51.8126C69.525 51.3072 69.525 50.2963 69.525 49.2854C69.525 48.2745 68.5029 47.769 68.5029 47.769C68.5029 47.769 66.4588 49.2854 65.4367 49.2854C64.4146 48.7799 63.9035 49.7908 62.8815 50.2963C63.3925 50.8017 63.9035 51.3072 63.9035 51.8126C63.9035 52.318 63.3925 53.8344 63.3925 54.3398C63.3925 54.3398 63.3925 54.8453 63.3925 55.8562C62.8815 56.8671 63.3925 56.8671 62.8815 57.8779C62.3704 58.8888 61.8594 59.3943 61.8594 59.8997C62.3704 60.4052 62.8815 61.4161 62.3704 61.9215C61.8594 62.4269 63.9035 61.4161 64.4146 60.9106C64.9256 60.4052 67.4808 59.8997 67.4808 58.8888C67.4808 57.8779 67.9919 57.8779 69.014 57.3725C69.525 57.3725 70.0361 56.3616 70.5471 54.8453C70.5471 54.3398 70.5471 54.3398 70.5471 53.8344C70.5471 52.8235 70.5471 52.8235 70.0361 51.8126Z" fill="#2C5400"/>
</g>
<g style="mix-blend-mode:overlay" opacity="0.8">
<path d="M66.4588 48.7799V49.2854C66.4588 49.7908 64.9257 50.2963 64.4147 50.8017C64.4147 51.3072 64.4147 51.8126 64.9257 52.318C64.9257 52.8235 66.9699 51.8126 66.9699 51.8126C67.992 51.8126 68.503 50.8017 69.0141 50.2963C69.0141 50.2963 69.5251 49.7908 69.5251 49.2854C69.5251 49.2854 69.5251 49.2854 69.5251 48.7799C69.5251 48.2745 68.503 47.769 68.503 47.769C68.503 47.769 67.4809 48.2745 66.4588 48.7799Z" fill="#C5D27C"/>
</g>
<g style="mix-blend-mode:overlay" opacity="0.8">
<path d="M55.216 69.5042C55.216 69.5042 55.727 71.0206 56.2381 71.526C56.2381 71.526 56.2381 71.526 56.2381 72.0315C56.7491 71.0206 57.2602 68.9988 57.2602 68.4933C57.2602 67.4825 57.7712 67.4825 58.2822 65.9661C58.7933 64.9552 59.3043 64.4498 58.7933 63.4389C58.2822 62.428 58.7933 61.4171 59.3043 60.9117C59.3043 60.4062 58.7933 58.8899 58.7933 58.8899C58.7933 58.8899 57.7712 59.9008 57.7712 60.9117C57.7712 61.9226 57.7712 62.9335 57.2602 63.4389C56.7491 63.9443 56.7491 64.4498 56.2381 65.4607C55.727 65.9661 55.727 67.4825 55.216 66.977C54.7049 66.4716 56.2381 64.4498 54.1939 65.4607C53.6829 66.4716 55.216 69.5042 55.216 69.5042Z" fill="#2C5400"/>
</g>
<g style="mix-blend-mode:overlay" opacity="0.8">
<path d="M59.3042 72.5364C60.3263 72.0309 62.3705 71.5255 63.3926 71.02C64.4147 70.0091 66.4589 68.4928 66.9699 67.4819C67.4809 66.471 67.992 65.9656 68.503 64.9547C69.5251 64.4492 69.5251 61.922 70.0362 60.9111C68.503 60.9111 67.4809 62.4275 66.9699 62.4275C66.4589 62.4275 65.9478 63.9438 64.9257 64.4492C63.9036 64.9547 63.9036 65.4601 63.3926 65.9656C63.3926 66.471 62.3705 66.471 60.8374 67.4819C59.3042 67.9874 59.8153 66.9765 59.3042 67.9874C58.7932 68.9983 57.7711 72.0309 57.7711 73.0418C58.2822 73.5473 58.7932 73.0418 59.3042 72.5364Z" fill="#2C5400"/>
</g>
<g style="mix-blend-mode:overlay" opacity="0.8">
<path d="M57.7711 72.031C58.2822 70.5147 58.7932 68.4929 59.8153 66.4711C60.3263 65.4602 60.3263 64.4493 61.3484 63.9439C61.8595 62.933 62.3705 62.4276 62.8815 61.4167C62.8815 60.9112 63.3926 60.4058 63.3926 59.9003C63.3926 59.3949 63.3926 58.8894 63.9036 58.384C63.9036 57.3731 64.4147 56.3622 64.4147 55.3513C64.4147 55.3513 64.4147 55.3513 64.4147 54.8459V54.3404L64.9257 53.835C65.4368 53.835 65.9478 53.3295 65.9478 52.8241C66.4589 52.3187 66.4589 51.8132 66.9699 51.8132C67.4809 51.3078 67.4809 50.8023 67.4809 50.2969C67.4809 50.8023 66.9699 51.3078 66.9699 51.8132C66.9699 52.3187 66.4589 52.8241 65.9478 53.3295C65.9478 53.3295 65.4368 53.835 65.4368 54.3404L64.9257 54.8459C64.9257 54.8459 64.9257 54.8459 64.9257 55.3513C64.9257 55.3513 64.9257 55.3513 64.9257 55.8568C64.4147 56.8677 64.4147 57.3731 63.9036 58.384C63.9036 58.8894 63.9036 59.3949 63.3926 59.9003C63.3926 60.4058 62.8815 60.9112 62.8815 61.4167C62.3705 62.4276 61.8595 62.933 61.3484 63.9439C60.8374 64.9548 60.3263 65.9657 59.8153 66.4711L57.7711 72.031Z" fill="#D8E1A7"/>
</g>
<g style="mix-blend-mode:overlay">
<path d="M58.7931 68.998C58.2821 68.998 57.7711 68.4925 57.7711 67.9871C57.7711 67.4816 57.26 67.4816 57.26 66.9762C57.26 66.4707 57.26 66.4707 57.26 65.9653C57.26 66.4707 57.7711 66.9762 57.7711 67.4816C57.7711 67.9871 58.2821 68.4925 58.7931 68.998Z" fill="#D8E1A7"/>
</g>
<g style="mix-blend-mode:overlay">
<path d="M61.8595 59.3947C61.3485 58.8893 61.3485 58.3838 60.8375 57.8784C60.8375 57.3729 60.8375 56.8675 60.8375 56.362C60.8375 55.8566 60.8375 55.3511 60.3264 54.8457C60.3264 55.3511 60.8375 55.8566 60.8375 56.362C60.8375 56.8675 60.8375 57.3729 61.3485 57.8784C61.3485 58.3838 61.8595 58.8893 61.8595 59.3947Z" fill="#D8E1A7"/>
</g>
<g style="mix-blend-mode:overlay">
<path d="M63.3927 54.8454C63.3927 54.34 62.8816 54.34 62.8816 53.8345C62.8816 53.3291 62.8816 53.3291 62.8816 52.8236C62.8816 52.3182 62.8816 52.3182 62.3706 51.8127C62.8816 51.8127 62.8816 52.3182 62.8816 52.8236C62.8816 53.3291 62.8816 53.3291 62.8816 53.8345C62.8816 54.34 62.8817 54.34 63.3927 54.8454Z" fill="#D8E1A7"/>
</g>
<g style="mix-blend-mode:overlay">
<path d="M60.8374 64.449C60.3263 63.9436 59.8153 63.4381 59.8153 62.4273C59.8153 61.9218 59.8153 61.9218 59.8153 61.4164C59.8153 60.9109 59.8153 60.9109 59.8153 60.4055C59.3042 60.4055 59.3042 60.4055 58.7932 59.9C58.7932 59.9 58.2822 59.3946 58.2822 58.8891C58.2822 58.8891 58.2822 58.3837 57.7711 57.3728C57.7711 57.8782 58.2822 58.3837 58.2822 58.8891C58.2822 59.3946 58.7932 59.3946 58.7932 59.3946C58.7932 59.3946 59.3042 59.9 59.3042 60.4055C59.3042 60.9109 59.3042 60.9109 59.3042 61.4164C59.3042 61.9218 59.3042 61.9218 59.3042 62.4273C60.3263 63.4381 60.3263 63.9436 60.8374 64.449Z" fill="#D8E1A7"/>
</g>
<g style="mix-blend-mode:overlay">
<path d="M61.8594 63.4387C62.3704 63.4387 62.8815 62.9333 63.3925 62.4278C63.9035 62.4278 63.9035 61.9224 64.4146 61.9224C64.9256 61.9224 64.9256 61.4169 65.4367 61.4169L65.9477 60.9115C66.4588 60.9115 66.4588 60.4061 66.9698 60.4061C66.9698 60.4061 66.9698 59.9006 67.4808 59.9006L67.9919 59.3952C67.9919 58.8897 67.9919 58.3843 67.9919 58.3843C67.9919 58.8897 67.4808 58.8897 67.4808 59.3952V59.9006C67.4808 59.9006 67.4808 60.4061 66.9698 60.4061C66.9698 60.9115 66.4588 60.9115 66.4588 61.4169H65.4367C64.9256 61.4169 64.9256 61.9224 64.4146 61.9224C64.4146 62.4278 63.9035 62.4278 63.3925 62.4278C62.8815 62.4278 62.8815 62.9333 62.3704 62.9333C62.3704 63.4387 61.8594 63.4387 61.8594 63.4387Z" fill="#D8E1A7"/>
</g>
<g style="mix-blend-mode:overlay">
<path d="M70.0362 51.8127C70.0362 52.3182 69.5252 53.3291 70.0362 54.34C70.0362 54.8454 70.5473 55.8563 70.0362 56.3617C69.5252 56.3617 70.0362 58.3835 69.5252 59.3944C69.0141 60.9108 69.5252 61.4162 69.0141 61.4162C68.5031 61.4162 67.481 62.4271 66.97 63.438C66.4589 64.4489 66.97 63.9434 67.481 64.9543C67.481 65.9652 66.97 65.9652 65.9479 66.4706C65.4368 67.4815 64.9258 68.4924 64.9258 70.0088C65.9479 68.9979 66.97 68.4924 66.97 67.4815C67.481 66.4706 67.992 65.9652 68.5031 64.9543C69.0141 63.9434 69.5252 59.8999 69.5252 59.8999L70.5473 56.8672C70.5473 56.3617 70.0362 54.8454 70.0362 53.8345C70.5473 52.8236 70.5473 52.8236 70.0362 51.8127Z" fill="#C5D27C"/>
</g>
<g style="mix-blend-mode:overlay">
<path d="M57.2601 73.0421C57.2601 73.0421 58.7932 73.0421 59.3043 73.0421C59.8153 73.0421 60.8374 73.0421 61.3484 72.5367C62.3705 72.0313 64.4147 72.0313 64.4147 72.0313H65.9478C65.9478 72.0313 67.481 71.5258 67.992 71.5258C67.992 72.0313 69.0141 72.0313 70.0362 71.5258C71.0583 71.0204 71.0583 71.0204 72.5914 71.5258C74.1245 72.0313 74.1245 71.5258 74.6356 71.5258C75.1466 71.5258 75.1466 72.0313 76.1687 72.5367C76.6797 73.5476 77.1908 72.0313 78.2129 73.0421C79.2349 74.053 78.7239 75.0639 79.746 76.0748C80.7681 77.0857 81.2791 77.0857 82.3012 78.0966C82.8122 79.1075 83.3233 78.602 83.8343 79.1075C84.3454 79.6129 84.3454 81.1293 84.8564 81.6347C84.8564 81.6347 83.3233 82.6456 82.8123 82.1402C82.3012 81.6347 82.3012 82.6456 81.7902 83.151C81.2791 83.151 80.7681 83.151 79.746 83.6565C79.2349 83.6565 79.2349 83.6565 77.7018 84.6674C76.6797 85.1728 76.1687 84.6674 75.1466 85.1728C74.1245 85.6783 74.6356 85.6783 73.6135 85.1728C73.1024 84.6674 72.5914 85.6783 71.5693 85.6783C70.5472 85.6783 70.0362 85.6783 69.5251 85.1728C69.0141 84.6674 67.992 85.1728 66.9699 84.6674C65.9478 84.6674 65.9478 84.1619 65.4368 83.6565C64.4147 83.6565 61.8595 82.6456 61.8595 82.6456C61.8595 82.6456 61.8595 81.1293 60.8374 81.6347C60.8374 81.6347 59.3043 80.1184 59.8153 79.6129C60.3263 78.602 58.2822 78.0966 58.2822 77.5912C58.2822 77.0857 58.7932 76.0748 58.2822 75.5694C58.2822 75.0639 57.2601 74.5585 57.2601 74.053C57.2601 73.5476 56.749 74.053 57.2601 73.0421Z" fill="#88B000"/>
</g>
<g style="mix-blend-mode:overlay">
<path d="M69.5251 85.1724C70.0362 85.6778 70.5472 85.6778 70.5472 85.6778C70.0362 85.6778 70.0362 85.1724 69.5251 85.1724Z" fill="#C5D27C"/>
</g>
<g style="mix-blend-mode:overlay">
<path d="M59.8153 79.6125C59.3042 80.1179 60.8374 81.6342 61.3484 81.6342C61.8595 81.6342 62.3705 82.6451 62.3705 82.6451C62.3705 82.6451 64.4147 83.656 65.4368 84.1615C66.4588 84.6669 66.4588 84.6669 66.9699 85.1724C67.4809 85.1724 67.992 85.1724 68.503 85.1724H67.992C65.9478 84.6669 66.4588 83.656 65.9478 83.1506C65.4368 83.1506 64.4147 83.1506 63.3926 82.1397C62.3705 81.1288 63.3926 80.6233 62.3705 80.1179C61.8595 80.1179 61.8595 79.6125 61.3484 78.6016C61.3484 77.5907 60.8374 77.5907 59.8153 76.5798C58.7932 75.5689 58.7932 75.0635 58.2822 74.558C57.7711 74.0526 57.2601 73.5471 56.749 73.5471C56.749 74.0526 57.2601 73.5471 57.2601 74.0526C57.7711 74.558 58.2822 75.0635 58.2822 75.5689C58.2822 76.0743 57.7711 77.0852 58.2822 77.5907C58.2822 78.0961 60.3263 78.6016 59.8153 79.6125Z" fill="#C5D27C"/>
</g>
<g style="mix-blend-mode:overlay" opacity="0.8">
<path d="M85.3674 81.6347C84.3453 81.1293 84.8563 79.6129 83.8343 79.1075C83.3232 78.602 82.8122 79.1075 82.3011 78.0966C81.279 77.0857 80.768 76.5803 79.7459 76.0748C78.7238 75.0639 79.2349 74.053 78.2128 73.0421C77.1907 72.0313 76.6796 73.5476 75.6576 72.5367C74.6355 72.0313 75.1465 71.5258 74.6355 71.5258C74.1244 71.5258 74.1244 72.0313 72.5913 71.5258C71.0582 71.0204 71.0582 71.0204 70.0361 71.5258C69.014 72.0313 67.9919 72.0313 67.9919 71.5258C67.9919 71.0204 65.9477 72.0313 65.9477 72.0313H64.4146C64.4146 72.0313 61.8594 72.0313 61.3484 72.5367C60.8373 73.0421 59.8152 73.0421 59.3042 73.0421C58.7931 73.0421 57.26 73.0421 57.26 73.0421V73.5476C57.7711 73.5476 58.2821 73.5476 58.7931 73.5476C59.8152 73.5476 60.8373 73.0421 60.8373 73.0421C61.3484 73.0421 63.3925 73.5476 64.4146 73.5476C64.9257 73.5476 65.4367 73.0421 65.9477 73.5476C66.9698 73.5476 69.014 73.0421 69.525 73.0421C70.5471 73.0421 71.5692 71.5258 72.0803 73.0421C72.5913 74.053 73.1023 74.5585 74.6355 74.5585C76.1686 74.5585 77.7017 75.5694 77.7017 76.5803C77.7017 77.5912 77.7017 78.602 78.7238 79.1075C79.2349 79.6129 80.257 79.6129 78.7238 81.1293C77.7017 82.1402 77.7017 82.1402 76.6796 83.151C75.6576 83.6565 74.6355 83.151 73.6134 83.6565C72.5913 83.6565 71.5692 83.151 70.5471 83.6565C69.014 84.1619 68.503 83.6565 68.503 83.6565C67.4809 83.6565 67.4809 85.1728 64.4146 83.6565C64.9257 83.6565 64.9257 83.6565 64.9257 84.1619C65.9477 84.6674 65.9477 84.6674 66.4588 85.1728C67.4809 85.1728 68.503 85.1728 69.014 85.6783C69.525 86.1837 70.0361 86.1837 71.0582 86.1837C72.0803 86.1837 72.0803 85.1728 73.1023 85.6783C74.1244 86.1837 73.6134 86.1837 74.1244 85.6783C75.1465 85.1728 75.6576 85.6783 77.1907 85.1728C79.2349 83.6565 79.2349 83.6565 79.7459 83.151C80.257 82.6456 80.768 83.151 81.7901 82.6456C82.3011 82.6456 82.3011 81.1293 82.8122 81.6347C83.8343 82.6456 85.3674 81.6347 85.3674 81.6347Z" fill="#2C5400"/>
</g>
<g style="mix-blend-mode:overlay">
<path d="M57.7711 73.5471C59.8153 74.0526 61.8595 75.0635 63.9036 75.5689H64.4147H64.9257C65.4368 75.5689 65.9478 75.5689 66.4589 75.5689C66.9699 75.5689 67.4809 76.0743 67.992 76.0743C68.503 76.0743 69.0141 76.5798 69.5251 76.5798L71.0582 77.0852C71.5693 78.0961 72.0803 78.6016 72.5914 78.6016C73.1024 78.6016 73.6135 78.6016 74.1245 78.6016L74.6355 79.107L75.1466 79.6125L75.6576 80.1179H76.1687C76.6797 80.1179 77.1908 80.1179 77.7018 80.1179C78.7239 80.1179 79.746 80.1179 80.7681 80.1179C81.2791 80.1179 81.2791 80.1179 81.7901 79.6125C82.3012 79.6125 82.3012 79.6125 82.8122 79.6125C82.8122 79.6125 82.3012 79.6125 81.7901 79.6125C81.2791 79.6125 81.2791 79.6125 80.7681 80.1179C79.746 80.1179 78.7239 80.1179 77.7018 80.1179C77.1908 80.1179 76.6797 80.1179 76.1687 80.1179C75.6576 80.1179 75.6576 80.1179 75.1466 80.1179L74.6355 79.6125C74.6355 79.6125 74.1245 79.107 73.6135 79.107C73.6135 78.6016 73.1024 78.6016 72.5914 78.6016C71.5693 78.6016 71.0582 78.6016 70.5472 78.0961C70.5472 78.0961 70.0362 78.0961 69.5251 77.5907C69.0141 77.5907 68.503 77.0852 67.992 77.0852C67.4809 77.0852 66.9699 76.5798 66.4589 76.5798C65.9478 76.5798 65.4368 76.5798 64.9257 76.5798C64.4147 76.5798 64.4147 76.5798 63.9036 76.5798C63.3926 76.5798 63.3926 76.5798 63.3926 76.0743C61.3484 75.0635 59.8153 74.558 57.7711 73.5471Z" fill="#D8E1A7"/>
</g>
<g style="mix-blend-mode:overlay">
<path d="M65.9478 76.0744C66.4588 75.569 66.9698 75.0635 67.4809 75.0635C67.9919 75.0635 67.9919 75.0635 68.503 75.0635C69.014 75.0635 69.014 75.0635 69.5251 74.5581C70.0361 74.5581 70.0361 74.5581 70.5471 74.0526C70.0361 74.0526 70.5471 73.5472 70.5471 73.5472C71.0582 73.5472 71.5692 73.0417 72.5913 73.0417C72.0803 73.0417 71.5692 73.5472 70.5471 73.5472C70.0361 73.5472 70.0361 74.0526 70.0361 74.0526C70.0361 74.0526 69.5251 74.5581 69.014 74.5581C68.503 74.5581 67.9919 75.0635 66.9698 75.0635C66.9698 75.569 66.4588 75.569 65.9478 76.0744Z" fill="#D8E1A7"/>
</g>
<g style="mix-blend-mode:overlay">
<path d="M70.5472 78.0961C70.5472 77.5907 71.0583 77.0853 71.5693 76.5798L72.0804 76.0744C72.5914 76.0744 72.5914 76.0744 73.1025 76.0744C73.6135 76.0744 74.1245 75.5689 74.6356 75.5689C75.1466 75.5689 75.6577 75.0635 76.1687 75.0635C75.1466 75.0635 74.6356 75.5689 74.1245 75.5689C73.6135 75.5689 73.1025 76.0744 72.5914 76.0744C72.0804 76.0744 72.0804 76.0744 71.5693 76.0744C71.5693 76.0744 71.0583 76.0744 71.0583 76.5798C71.0583 77.0853 70.5472 77.5907 70.5472 78.0961Z" fill="#D8E1A7"/>
</g>
<g style="mix-blend-mode:overlay">
<path d="M75.1466 80.118C75.1466 79.6126 75.6576 79.6126 75.6576 79.1072C75.6576 78.6017 75.6576 78.6017 76.1687 78.6017C76.1687 78.6017 76.1687 78.6017 76.6797 78.6017C76.6797 78.6017 76.6797 78.6017 77.1908 78.6017C77.7018 78.6017 77.7018 78.6017 78.2129 78.0963H78.7239C78.7239 78.0963 79.2349 78.0963 79.2349 77.5908H78.7239C77.1908 78.6017 77.1908 78.6017 76.6797 78.6017H76.1687C76.1687 78.6017 75.6576 78.6017 75.6576 79.1072C75.6576 79.1072 75.1466 79.6126 75.1466 80.118Z" fill="#D8E1A7"/>
</g>
<g style="mix-blend-mode:overlay">
<path d="M62.8816 75.5691C62.8816 76.0745 63.3926 76.58 63.3926 77.0854C63.3926 77.0854 63.3926 77.5909 63.9037 77.5909C63.9037 77.5909 63.9037 77.5909 64.4147 77.5909C64.4147 77.5909 64.4147 77.5909 64.9258 77.5909L65.4368 78.0963V78.6018C65.4368 79.1072 65.9479 79.6127 65.9479 80.1181C65.4368 80.1181 65.4368 79.6127 64.9258 79.1072C64.9258 78.6018 64.9258 78.0963 64.4147 78.0963C64.4147 78.0963 64.4147 78.0963 63.9037 78.0963C63.9037 78.0963 63.9037 78.0963 63.3926 78.0963L62.8816 77.5909C63.3926 76.58 62.8816 76.0745 62.8816 75.5691Z" fill="#D8E1A7"/>
</g>
<g style="mix-blend-mode:overlay">
<path d="M68.5031 77.0854C68.5031 77.5909 68.5031 78.0963 69.0141 78.6018C69.0141 79.1072 69.5251 79.6127 69.5251 79.6127C70.0362 79.6127 70.0362 80.1181 70.0362 80.1181C70.5472 80.6236 70.5472 81.129 70.5472 81.6345C70.5472 82.1399 71.5693 82.6453 72.0804 82.6453C71.5693 82.6453 71.0583 82.1399 70.5472 81.6345C70.5472 81.129 70.0362 80.6236 70.0362 80.1181C70.0362 79.6127 69.5251 79.6127 69.5251 79.6127L69.0141 79.1072C68.5031 78.0963 68.5031 77.5909 68.5031 77.0854Z" fill="#D8E1A7"/>
</g>
<g style="mix-blend-mode:overlay">
<path d="M58.7932 74.0527C59.3043 75.0636 59.3043 75.5691 59.8153 76.0745C59.8153 76.58 60.3263 76.58 60.3263 77.0854C60.3263 77.5908 60.8374 77.5908 60.8374 78.0963C61.3484 78.6017 61.3484 79.1072 61.3484 79.6126C61.8595 80.1181 61.8595 80.6235 62.8816 81.129C62.3705 80.6235 61.8595 80.1181 61.3484 79.6126C61.3484 79.1072 60.8374 79.1072 60.8374 78.6017C60.8374 78.0963 60.8374 78.0963 60.3263 77.5908C60.3263 77.0854 59.8153 77.0854 59.8153 76.58C59.8153 76.0745 59.3043 76.0745 59.3043 75.5691C59.3043 75.5691 59.3043 75.0636 58.7932 74.0527Z" fill="#D8E1A7"/>
</g>
<g style="mix-blend-mode:overlay">
<path d="M76.6797 80.6235C76.6797 81.129 76.6797 81.129 76.6797 81.6344V82.1399C76.6797 82.1399 76.6797 82.1399 77.1907 82.1399C77.7018 82.1399 78.2128 82.1399 78.7239 82.6453C78.2128 82.6453 77.7018 82.6453 77.1907 82.1399H76.6797V81.6344C76.6797 81.6344 76.6797 81.129 76.6797 80.6235Z" fill="#D8E1A7"/>
</g>
<g style="mix-blend-mode:overlay">
<path d="M57.26 72.0308L54.7048 80.6233C54.7048 81.1288 54.1937 81.1288 53.6827 81.1288C53.1716 81.1288 53.1716 80.1179 53.1716 80.1179L57.26 72.0308Z" fill="#926300"/>
</g>
</svg>
