<svg width="151" height="142" viewBox="0 0 151 142" fill="none" xmlns="http://www.w3.org/2000/svg">
<path d="M99.0037 81.0488C109.371 84.148 132.628 81.7062 136.924 77.9495C141.22 74.2868 133.842 58.8847 129.545 54.5646C125.249 50.2445 96.4819 48.3662 96.4819 48.3662C89.1034 49.0236 90.3176 70.5302 90.3176 70.5302C90.411 77.2921 99.0037 81.0488 99.0037 81.0488Z" fill="#F21616"/>
<path d="M111.799 82.9272C122.354 82.9272 134.122 81.0489 137.298 78.3254C138.325 77.3862 138.792 75.9775 138.792 74.287C138.792 67.9947 133.468 57.8518 130.012 54.2831C127.584 51.9352 119.365 50.5264 111.613 49.4934C103.861 48.4603 96.6687 47.9907 96.6687 47.9907C93.4931 48.2725 91.9987 51.7473 91.0647 55.5979C90.2242 59.5423 90.0374 64.1442 90.0374 67.2434C90.0374 69.3095 90.1308 70.6243 90.1308 70.6243C90.2242 77.7619 99.0037 81.4246 99.0037 81.5185L99.1905 81.0489L99.0971 81.5185C102.273 82.4577 106.849 82.9272 111.799 82.9272ZM94.9875 77.9497C92.9327 76.2592 90.878 73.7235 90.878 70.5304C90.878 70.5304 90.7845 69.2156 90.7845 67.1495C90.7845 64.1442 90.9714 59.5423 91.812 55.7857C92.6525 51.9352 94.1469 49.0238 96.4819 48.836C96.9489 48.836 103.861 49.3055 111.332 50.3386C118.991 51.2778 127.304 52.9682 129.172 54.9405C132.441 58.1336 137.671 68.4643 137.671 74.287C137.671 75.8836 137.298 77.0106 136.55 77.668C133.935 80.0159 122.073 82.082 111.613 81.9881C106.756 81.9881 102.273 81.6124 99.0037 80.5793C98.9103 80.4854 96.9489 79.5463 94.9875 77.9497Z" fill="#FFDE89"/>
<path d="M130.199 58.8847C131.413 55.222 127.117 54.5646 127.117 54.5646L96.482 48.3662C87.3288 55.1281 105.635 64.9892 105.635 64.9892C113.668 65.6466 130.199 58.8847 130.199 58.8847Z" fill="#F9384A"/>
<path d="M102.086 67.5254C95.9216 67.5254 92.9328 56.4434 92.9328 56.4434L91.0648 65.6471C90.411 78.6074 101.432 80.3918 101.432 80.3918C106.382 80.3918 102.086 67.5254 102.086 67.5254Z" fill="#9F0000"/>
<path d="M112.64 50.6206H111.052V51.6537H112.64V50.6206Z" fill="#F7FCC9"/>
<path d="M117.03 54.377H114.975V56.6309H117.03V54.377Z" fill="#F7FCC9"/>
<path d="M98.6301 50.4326H97.7896V50.8083H98.6301V50.4326Z" fill="#F7FCC9"/>
<path d="M107.783 57.3823H105.915V59.4485H107.783V57.3823Z" fill="#F7FCC9"/>
<path d="M107.41 54.377H104.981V55.5979H107.41V54.377Z" fill="#F7FCC9"/>
<path d="M103.954 51.2778H102.74V52.4987H103.954V51.2778Z" fill="#F7FCC9"/>
<path d="M107.97 50.2446H106.943V51.6534H107.97V50.2446Z" fill="#F7FCC9"/>
<path d="M121.793 50.4326H120.205V53.0622H121.793V50.4326Z" fill="#F7FCC9"/>
<path d="M126.37 53.5317H123.941V56.8188H126.37V53.5317Z" fill="#F7FCC9"/>
<path d="M118.431 51.6533H116.563V52.029H118.431V51.6533Z" fill="#F7FCC9"/>
<path d="M97.3225 47.9907H95.7347V49.0238H97.3225V47.9907Z" fill="#F7FCC9"/>
<path d="M101.899 48.1787H99.4707V50.057H101.899V48.1787Z" fill="#F7FCC9"/>
<path d="M96.9489 54.7524H94.3337V55.1281H96.9489V54.7524Z" fill="#F7FCC9"/>
<path d="M95.2677 49.8691H93.6799V50.7144H95.2677V49.8691Z" fill="#F7FCC9"/>
<path d="M101.899 54.5649H99.8444V56.6311H101.899V54.5649Z" fill="#F7FCC9"/>
<path d="M97.1358 53.9072H94.8942V56.1612H97.1358V53.9072Z" fill="#F7FCC9"/>
<path d="M102.086 59.73H100.872V60.763H102.086V59.73Z" fill="#F7FCC9"/>
<path d="M107.316 61.3267H105.915V64.4259H107.316V61.3267Z" fill="#F7FCC9"/>
<path d="M113.107 58.6973H111.706V59.9182H113.107V58.6973Z" fill="#F7FCC9"/>
<path d="M116.096 57.1943H115.722V58.7909H116.096V57.1943Z" fill="#F7FCC9"/>
<path d="M120.859 60.6694H118.244V62.5477H120.859V60.6694Z" fill="#F7FCC9"/>
<path d="M122.634 57.8521H121.233V58.8851H122.634V57.8521Z" fill="#F7FCC9"/>
<path d="M129.265 60.1997H127.864V61.2328H129.265V60.1997Z" fill="#F7FCC9"/>
<path d="M129.452 65.0835H128.051V66.1166H129.452V65.0835Z" fill="#F7FCC9"/>
<path d="M133.281 62.6416H131.88V63.6747H133.281V62.6416Z" fill="#F7FCC9"/>
<path d="M137.298 71.3755H135.897V72.4086H137.298V71.3755Z" fill="#F7FCC9"/>
<path d="M133.001 67.9946H131.6V69.0277H133.001V67.9946Z" fill="#F7FCC9"/>
<path d="M133.001 76.6348H131.6V77.6678H133.001V76.6348Z" fill="#F7FCC9"/>
<path d="M133.281 74.0054H131.88V74.9445H133.281V74.0054Z" fill="#F7FCC9"/>
<path d="M113.014 71.939H111.613V72.8781H113.014V71.939Z" fill="#F7FCC9"/>
<path d="M120.299 70.1548H118.898V71.0939H120.299V70.1548Z" fill="#F7FCC9"/>
<path d="M120.486 74.8506H119.085V75.7897H120.486V74.8506Z" fill="#F7FCC9"/>
<path d="M127.958 68.0889H126.557V69.028H127.958V68.0889Z" fill="#F7FCC9"/>
<path d="M115.909 66.6797H114.508V67.6188H115.909V66.6797Z" fill="#F7FCC9"/>
<path d="M101.619 66.6797H100.218V67.6188H101.619V66.6797Z" fill="#F7FCC9"/>
<path d="M100.498 70.1548H99.0971V71.0939H100.498V70.1548Z" fill="#F7FCC9"/>
<path d="M98.9103 64.9893H97.5093V65.9284H98.9103V64.9893Z" fill="#F7FCC9"/>
<path d="M97.6962 74.6626H96.2952V75.6018H97.6962V74.6626Z" fill="#F7FCC9"/>
<path d="M95.8281 71.0938H94.4271V72.0329H95.8281V71.0938Z" fill="#F7FCC9"/>
<path d="M92.2789 68.4644H90.8779V69.4035H92.2789V68.4644Z" fill="#F7FCC9"/>
<path d="M92.5591 63.1113H91.1581V64.0505H92.5591V63.1113Z" fill="#F7FCC9"/>
<path d="M101.619 61.9839H100.218V62.923H101.619V61.9839Z" fill="#F7FCC9"/>
<path d="M127.304 56.4434H125.716V58.0399H127.304V56.4434Z" fill="#F7FCC9"/>
<path d="M120.019 53.9072H118.431V55.9734H120.019V53.9072Z" fill="#F7FCC9"/>
<path d="M108.811 53.3438H108.437V53.5316H108.811V53.3438Z" fill="#F7FCC9"/>
<path d="M112.453 50.6206H111.052V52.4989H112.453V50.6206Z" fill="#F7FCC9"/>
<path d="M112.827 53.5317H111.426V54.5648H112.827V53.5317Z" fill="#F7FCC9"/>
<path d="M105.915 51.8413H104.514V52.8744H105.915V51.8413Z" fill="#F7FCC9"/>
<path d="M98.4433 51.4658H97.2291V53.532H98.4433V51.4658Z" fill="#F7FCC9"/>
<path d="M104.795 48.1787H102.927V49.5874H104.795V48.1787Z" fill="#F7FCC9"/>
<path d="M113.014 62.3599H111.426V64.426H113.014V62.3599Z" fill="#F7FCC9"/>
<path d="M114.321 61.1387H113.294V62.3596H114.321V61.1387Z" fill="#F7FCC9"/>
<path d="M128.985 54.377H127.958V55.5979H128.985V54.377Z" fill="#F7FCC9"/>
<path d="M130.012 56.6309H128.985V57.8518H130.012V56.6309Z" fill="#F7FCC9"/>
<path d="M122.634 52.8745H121.233V54.0954H122.634V52.8745Z" fill="#F7FCC9"/>
<path d="M111.052 54.5649H109.651V55.7858H111.052V54.5649Z" fill="#F7FCC9"/>
<path d="M103.3 56.6309H101.899V57.6639H103.3V56.6309Z" fill="#F7FCC9"/>
<path d="M102.646 52.311H101.245V53.7198H102.646V52.311Z" fill="#F7FCC9"/>
<path d="M97.7895 49.8691H95.3611V50.9022H97.7895V49.8691Z" fill="#F7FCC9"/>
<path d="M110.212 49.5874H108.624V50.6205H110.212V49.5874Z" fill="#F7FCC9"/>
<path d="M116.002 56.6309H114.975V58.0396H116.002V56.6309Z" fill="#F7FCC9"/>
<path d="M119.645 58.2275H118.991V59.0728H119.645V58.2275Z" fill="#F7FCC9"/>
<path d="M111.519 54.5649H110.492V56.4432H111.519V54.5649Z" fill="#F7FCC9"/>
<path d="M108.624 55.5977H107.41V57.0064H108.624V55.5977Z" fill="#F7FCC9"/>
<path d="M109.838 58.6973H108.437V59.5425H109.838V58.6973Z" fill="#F7FCC9"/>
<path d="M115.349 49.8691H113.294V51.7474H115.349V49.8691Z" fill="#F7FCC9"/>
<path d="M125.342 58.6973H124.502V59.7303H125.342V58.6973Z" fill="#F7FCC9"/>
<path d="M122.54 60.2935H121.887V61.5144H122.54V60.2935Z" fill="#F7FCC9"/>
<path d="M101.059 59.2607H100.218V61.3269H101.059V59.2607Z" fill="#F7FCC9"/>
<path d="M103.113 64.6138H102.273V66.6799H103.113V64.6138Z" fill="#F7FCC9"/>
<path d="M118.244 65.8345H116.376V67.9006H118.244V65.8345Z" fill="#F7FCC9"/>
<path d="M122.727 64.9893H120.859V67.0554H122.727V64.9893Z" fill="#F7FCC9"/>
<path d="M93.0261 54.5649H91.1581V56.6311H93.0261V54.5649Z" fill="#F7FCC9"/>
<path d="M95.0809 59.4482H93.213V61.5144H95.0809V59.4482Z" fill="#F7FCC9"/>
<path d="M92.4658 58.6973H90.5978V60.7634H92.4658V58.6973Z" fill="#F7FCC9"/>
<path d="M92.8394 62.5479H90.9714V64.614H92.8394V62.5479Z" fill="#F7FCC9"/>
<path d="M92.1856 72.7842H90.3176V74.8503H92.1856V72.7842Z" fill="#F7FCC9"/>
<path d="M93.0261 69.3096H91.1581V71.3757H93.0261V69.3096Z" fill="#F7FCC9"/>
<path d="M91.6251 66.8677H89.7571V68.9338H91.6251V66.8677Z" fill="#F7FCC9"/>
<path d="M96.015 67.5249H94.147V69.591H96.015V67.5249Z" fill="#F7FCC9"/>
<path d="M96.7622 63.9565H94.8942V66.0227H96.7622V63.9565Z" fill="#F7FCC9"/>
<path d="M103.767 71.7515H101.899V73.8176H103.767V71.7515Z" fill="#F7FCC9"/>
<path d="M132.628 61.1387H130.76V63.2048H132.628V61.1387Z" fill="#F7FCC9"/>
<path d="M138.138 73.8174H136.27V75.8835H138.138V73.8174Z" fill="#F7FCC9"/>
<path d="M132.628 72.4087H130.76V74.4748H132.628V72.4087Z" fill="#F7FCC9"/>
<path d="M135.897 69.3096H134.029V71.3757H135.897V69.3096Z" fill="#F7FCC9"/>
<path d="M133.842 65.459H131.974V67.5251H133.842V65.459Z" fill="#F7FCC9"/>
<path d="M136.457 64.9893H134.589V67.0554H136.457V64.9893Z" fill="#F7FCC9"/>
<path d="M131.974 56.4434H130.106V58.5095H131.974V56.4434Z" fill="#F7FCC9"/>
<path d="M127.677 63.2051H125.809V65.2712H127.677V63.2051Z" fill="#F7FCC9"/>
<path d="M107.69 68.0889H105.822V70.155H107.69V68.0889Z" fill="#F7FCC9"/>
<path d="M108.157 77.1045H106.289V79.1706H108.157V77.1045Z" fill="#F7FCC9"/>
<path d="M103.861 78.3252H101.993V80.3913H103.861V78.3252Z" fill="#F7FCC9"/>
<path d="M98.7235 76.2593H96.8555V78.3254H98.7235V76.2593Z" fill="#F7FCC9"/>
<path d="M117.31 78.1377H115.442V80.2038H117.31V78.1377Z" fill="#F7FCC9"/>
<path d="M128.144 75.5078H126.276V77.5739H128.144V75.5078Z" fill="#F7FCC9"/>
<path d="M108.997 87.1534C113.854 87.1534 116.936 82.2698 116.936 82.2698C116.283 69.9669 108.344 63.205 108.344 63.205C94.8941 55.2222 68.5554 71.8452 68.5554 71.8452C63.6986 74.9444 69.2092 86.5899 69.2092 86.5899C72.9452 93.3518 108.997 87.1534 108.997 87.1534Z" fill="#FFAB0B"/>
<path d="M82.2852 90.2524C93.6799 90.2524 108.25 87.8106 108.997 87.7167C114.228 87.6228 117.31 82.6453 117.31 82.5514L117.403 82.4575V82.2696C116.75 69.7789 108.717 62.9231 108.624 62.8292C105.915 61.2326 102.74 60.5752 99.3773 60.5752C85.4608 60.5752 68.3686 71.3755 68.3686 71.3755C66.6874 72.4085 66.127 74.3808 66.127 76.4469C66.127 81.0487 68.8356 86.6837 68.8356 86.6837C70.4234 89.595 75.8406 90.1585 82.2852 90.2524ZM68.3686 83.021C67.7148 81.0487 67.061 78.6069 67.061 76.4469C67.061 74.5686 67.528 72.972 68.8356 72.1268C68.8356 72.1268 73.0386 69.4032 79.0162 66.7736C84.9938 64.0501 92.6525 61.4204 99.3773 61.4204C102.646 61.4204 105.635 62.0778 108.157 63.4866C108.25 63.5805 108.717 63.9561 109.371 64.7075C111.613 67.1493 116.096 73.0659 116.563 82.0818C116.376 82.3636 115.629 83.3966 114.601 84.3358C113.294 85.5567 111.426 86.6837 109.091 86.6837C109.091 86.6837 94.0535 89.2194 82.472 89.2194C76.1208 89.3133 70.797 88.2802 69.7696 86.308C69.6762 86.4019 69.0224 84.9932 68.3686 83.021Z" fill="#FFDE89"/>
<path d="M110.212 67.5249C110.212 67.5249 105.915 58.3212 94.8941 61.9839L68.6488 71.7511C68.6488 71.7511 67.995 74.1929 73.5056 75.4138L110.212 67.5249Z" fill="#FDDC19"/>
<path d="M67.995 74.2871C65.0996 77.3863 69.2092 86.59 69.2092 86.59L73.599 88.6562L71.6376 78.5133L73.5056 75.4141L67.995 74.2871Z" fill="#E75F02"/>
<path d="M94.3337 65.1772H91.9053V67.1495H94.3337V65.1772Z" fill="#F7FCC9"/>
<path d="M95.9216 61.9839H94.8942V63.5804H95.9216V61.9839Z" fill="#F7FCC9"/>
<path d="M101.059 63.7686H100.031V65.3651H101.059V63.7686Z" fill="#F7FCC9"/>
<path d="M104.141 66.2104H102.74V67.7131H104.141V66.2104Z" fill="#F7FCC9"/>
<path d="M86.3948 68.9341H85.5542V69.9671H86.3948V68.9341Z" fill="#F7FCC9"/>
<path d="M85.1806 63.5806H84.34V64.6136H85.1806V63.5806Z" fill="#F7FCC9"/>
<path d="M77.1482 69.3096H76.3076V70.3426H77.1482V69.3096Z" fill="#F7FCC9"/>
<path d="M84.7135 66.6797H82.6588V68.558H84.7135V66.6797Z" fill="#F7FCC9"/>
<path d="M104.328 61.7021H102.46V63.2987H104.328V61.7021Z" fill="#F7FCC9"/>
<path d="M92.0921 61.7021H90.8779V63.5805H92.0921V61.7021Z" fill="#F7FCC9"/>
<path d="M101.245 60.6694H98.6301V62.3599H101.245V60.6694Z" fill="#F7FCC9"/>
<path d="M77.1482 69.0278H76.3076V70.3426H77.1482V69.0278Z" fill="#F7FCC9"/>
<path d="M80.4172 66.4922H79.3898V67.9009H80.4172V66.4922Z" fill="#F7FCC9"/>
<path d="M87.2354 65.3652H85.4608V66.6801H87.2354V65.3652Z" fill="#F7FCC9"/>
<path d="M90.878 64.4258H90.0374V65.271H90.878V64.4258Z" fill="#F7FCC9"/>
<path d="M97.4159 64.4258H96.2017V65.8345H97.4159V64.4258Z" fill="#F7FCC9"/>
<path d="M108.063 62.9233H107.223V63.7686H108.063V62.9233Z" fill="#F7FCC9"/>
<path d="M107.596 65.1772H106.849V66.0225H107.596V65.1772Z" fill="#F7FCC9"/>
<path d="M109.465 64.9893H108.437V66.8676H109.465V64.9893Z" fill="#F7FCC9"/>
<path d="M90.4109 70.9062H89.3835V72.7846H90.4109V70.9062Z" fill="#F7FCC9"/>
<path d="M98.6301 67.1494H97.416V68.2764H98.6301V67.1494Z" fill="#F7FCC9"/>
<path d="M97.6028 69.3096H97.416V70.3426H97.6028V69.3096Z" fill="#F7FCC9"/>
<path d="M78.6426 71.7515H78.4558V72.7845H78.6426V71.7515Z" fill="#F7FCC9"/>
<path d="M81.8182 69.4976H80.2304V70.7185H81.8182V69.4976Z" fill="#F7FCC9"/>
<path d="M72.2914 71.7515H71.0772V72.6906H72.2914V71.7515Z" fill="#F7FCC9"/>
<path d="M73.7858 73.4419H71.9178V74.8506H73.7858V73.4419Z" fill="#F7FCC9"/>
<path d="M75.5604 70.5303H73.7858V71.939H75.5604V70.5303Z" fill="#F7FCC9"/>
<path d="M79.4832 72.7842H78.4558V73.4416H79.4832V72.7842Z" fill="#F7FCC9"/>
<path d="M84.807 71.5635H83.9664V72.4087H84.807V71.5635Z" fill="#F7FCC9"/>
<path d="M88.4495 69.9668H87.6089V70.812H88.4495V69.9668Z" fill="#F7FCC9"/>
<path d="M93.1195 68.7461H91.9053V69.4035H93.1195V68.7461Z" fill="#F7FCC9"/>
<path d="M95.9215 69.3096H94.7073V70.5305H95.9215V69.3096Z" fill="#F7FCC9"/>
<path d="M98.3499 68.2764H96.7621V69.3094H98.3499V68.2764Z" fill="#F7FCC9"/>
<path d="M107.316 69.4976H104.701V72.4089H107.316V69.4976Z" fill="#F7FCC9"/>
<path d="M112.64 70.7183H110.025V73.6296H112.64V70.7183Z" fill="#F7FCC9"/>
<path d="M110.866 77.2925H110.679V78.1377H110.866V77.2925Z" fill="#F7FCC9"/>
<path d="M109.838 82.082H108.624V83.6786H109.838V82.082Z" fill="#F7FCC9"/>
<path d="M114.975 81.9883H113.014V82.4579H114.975V81.9883Z" fill="#F7FCC9"/>
<path d="M114.321 77.5742H112.734V79.1708H114.321V77.5742Z" fill="#F7FCC9"/>
<path d="M110.212 67.5249H108.717V68.7458H110.212V67.5249Z" fill="#F7FCC9"/>
<path d="M107.877 74.6626H107.223V75.5078H107.877V74.6626Z" fill="#F7FCC9"/>
<path d="M111.893 75.8838H111.239V76.729H111.893V75.8838Z" fill="#F7FCC9"/>
<path d="M68.2752 79.3584H67.6214V80.7671H68.2752V79.3584Z" fill="#F7FCC9"/>
<path d="M70.7036 75.7896H68.929V77.2922H70.7036V75.7896Z" fill="#F7FCC9"/>
<path d="M74.1594 79.8281H73.132V80.8612H74.1594V79.8281Z" fill="#F7FCC9"/>
<path d="M73.9726 82.8335H71.9178V85.2753H73.9726V82.8335Z" fill="#F7FCC9"/>
<path d="M76.7746 85.7446H75.5604V86.6838H76.7746V85.7446Z" fill="#F7FCC9"/>
<path d="M80.8842 78.1377H79.67V79.0768H80.8842V78.1377Z" fill="#F7FCC9"/>
<path d="M78.3624 81.0488H76.868V83.115H78.3624V81.0488Z" fill="#F7FCC9"/>
<path d="M78.0822 75.5078H77.4284V76.5409H78.0822V75.5078Z" fill="#F7FCC9"/>
<path d="M82.0984 82.27H81.9116V83.9605H82.0984V82.27Z" fill="#F7FCC9"/>
<path d="M86.5816 82.8335H84.5268V84.8996H86.5816V82.8335Z" fill="#F7FCC9"/>
<path d="M88.8232 76.541H88.4496V77.5741H88.8232V76.541Z" fill="#F7FCC9"/>
<path d="M96.2951 79.5464H95.9215V80.5795H96.2951V79.5464Z" fill="#F7FCC9"/>
<path d="M101.245 74.4751H100.031V75.8838H101.245V74.4751Z" fill="#F7FCC9"/>
<path d="M102.646 71H101.432V72.4087H102.646V71Z" fill="#F7FCC9"/>
<path d="M105.168 79.5464H103.954V80.3916H105.168V79.5464Z" fill="#F7FCC9"/>
<path d="M93.1196 82.27H92.0922V83.3031H93.1196V82.27Z" fill="#F7FCC9"/>
<path d="M101.245 85.9326H100.218V86.9657H101.245V85.9326Z" fill="#F7FCC9"/>
<path d="M105.729 82.4575H105.542V82.8332H105.729V82.4575Z" fill="#F7FCC9"/>
<path d="M84.34 74.4751H82.939V75.5082H84.34V74.4751Z" fill="#F7FCC9"/>
<path d="M90.0373 74.6626H89.3835V75.6957H90.0373V74.6626Z" fill="#F7FCC9"/>
<path d="M83.3126 86.9658H82.472V87.9989H83.3126V86.9658Z" fill="#F7FCC9"/>
<path d="M92.0921 82.082H91.4384V83.3029H92.0921V82.082Z" fill="#F7FCC9"/>
<path d="M97.9763 75.5078H96.3885V75.6956H97.9763V75.5078Z" fill="#F7FCC9"/>
<path d="M96.7621 72.2207H95.3611V73.6294H96.7621V72.2207Z" fill="#F7FCC9"/>
<path d="M102.646 79.8281H101.245V81.7064H102.646V79.8281Z" fill="#F7FCC9"/>
<path d="M106.102 85.3691H104.701V87.2474H106.102V85.3691Z" fill="#F7FCC9"/>
<path d="M36.9863 9.39177C44.2715 3.94468 59.3088 13.618 64.4458 17.2807C64.6326 17.1867 64.726 16.9989 64.9128 16.905C65.66 16.5293 66.5006 16.1537 67.2478 15.6841L68.8356 10.8005C43.1507 -5.54077 34.0909 3.28727 34.0909 3.28727C19.4271 14.651 32.6899 30.3349 32.6899 30.3349L123.568 114.671C128.611 112.417 128.144 109.13 128.144 109.13C128.144 109.13 63.6986 48.6484 46.5131 32.3071C29.4209 15.9658 36.9863 9.39177 36.9863 9.39177Z" fill="#F0BF84"/>
<path d="M37.0797 10.0488C37.1731 9.95485 37.2665 9.86094 37.2665 9.86094C38.6675 8.82787 40.4421 8.35829 42.4035 8.35829C49.8755 8.35829 60.056 14.8385 64.1656 17.7498L64.4458 17.9377L64.726 17.7498C64.8194 17.6559 65.0062 17.562 65.193 17.4681C65.9402 17.0924 66.6874 16.7168 67.528 16.2472L67.7148 16.1533L69.4894 10.7062L69.1158 10.4244C56.6936 2.53554 48.1009 0.375488 42.4969 0.375488C36.4259 0.375488 33.9041 2.81729 33.8107 2.9112C28.4869 6.94956 26.7123 11.7392 26.8057 16.1533C26.8057 24.0422 32.4097 30.6162 32.4097 30.7101L123.568 115.328L123.848 115.234C128.238 113.262 128.798 110.444 128.705 109.505C128.705 109.317 128.705 109.223 128.705 109.223V109.036L128.611 108.942C128.611 108.942 124.595 105.185 118.244 99.1744C99.2839 81.3305 59.7758 44.234 46.8867 31.931C37.8269 23.2908 35.7721 17.4681 35.7721 14.0871C35.7721 12.5845 36.1457 11.4575 36.5193 10.8001C36.7061 10.4244 36.8929 10.1427 37.0797 10.0488ZM46.2329 32.5885C62.9514 48.4601 124.502 106.312 127.771 109.411C127.771 110.069 127.584 112.323 123.755 114.107L33.0635 30.0527C33.0635 30.0527 31.7559 28.4562 30.3549 25.9205C28.9539 23.3847 27.6463 19.9099 27.6463 16.1533C27.6463 12.021 29.2341 7.60697 34.3711 3.66253C34.3711 3.66253 34.5579 3.47469 34.8381 3.28686C35.7721 2.62946 38.1071 1.40856 42.4969 1.40856C47.8207 1.40856 56.1332 3.38078 68.2752 11.0818L66.8742 15.4959C66.2204 15.8715 65.4732 16.2472 64.726 16.6228C64.6326 16.7168 64.5392 16.7168 64.4458 16.8107C60.1494 13.8054 50.2491 7.41914 42.4035 7.41914C40.2553 7.41914 38.2939 7.88872 36.6127 9.10962C36.5193 9.20353 34.7447 10.7062 34.7447 14.0871C34.8381 17.9377 37.0797 23.9482 46.2329 32.5885Z" fill="#FFBC97"/>
<path d="M65.0062 16.9985C65.8468 16.5289 66.6874 16.1532 67.528 15.5897L67.995 13.5236C64.3524 12.7723 59.2155 13.6175 59.2155 13.6175L63.2316 16.9985L64.726 17.1863C64.726 17.0924 64.8194 16.9985 65.0062 16.9985Z" fill="#6B0000"/>
<path d="M62.2042 7.23133L55.1992 4.22604C55.1992 4.22604 46.2329 3.3808 43.7111 7.70091L47.447 8.73398C47.447 8.64006 56.4134 5.25911 62.2042 7.23133Z" fill="#6B0000"/>
<path d="M30.4483 6.76198C30.4483 6.76198 27.6463 12.9604 36.3325 20.7554L35.6787 16.5292C35.6787 16.5292 28.9539 7.98288 34.0909 3.28711L30.4483 6.76198Z" fill="#6B0000"/>
<path d="M47.7273 33.058L43.3375 29.2074C43.3375 29.2074 32.5965 30.1466 28.1134 20.6611C28.1134 20.6611 27.9266 22.1638 30.0747 25.9204C30.1681 25.8265 32.5965 34.3728 47.7273 33.058Z" fill="#6B0000"/>
<path d="M61.7372 46.9579L43.2441 40.6655L49.5953 46.8639L65.9402 50.5266L61.7372 46.9579Z" fill="#6B0000"/>
<path d="M80.137 63.5809L61.6439 57.2886L68.0884 63.487L84.34 67.2436L80.137 63.5809Z" fill="#6B0000"/>
<path d="M95.6413 78.4194L77.2416 72.0332L83.5928 78.3255L99.8443 81.9882L95.6413 78.4194Z" fill="#6B0000"/>
<path d="M115.442 96.7328L96.949 90.4404L103.394 96.6388L119.645 100.395L115.442 96.7328Z" fill="#6B0000"/>
<path d="M125.436 112.792C126.183 112.229 126.93 111.571 127.584 110.914L115.068 106.594L121.513 112.792L124.782 113.543C124.969 113.262 125.156 112.98 125.436 112.792Z" fill="#6B0000"/>
<path d="M107.498 99.5205L107.284 100.435L121.647 103.843L121.861 102.929L107.498 99.5205Z" fill="#B76316"/>
<path d="M111.663 103.166L111.481 104.087L124.217 106.62L124.398 105.699L111.663 103.166Z" fill="#B76316"/>
<path d="M89.8996 83.1426L89.6852 84.0566L104.048 87.4636L104.263 86.5495L89.8996 83.1426Z" fill="#B76316"/>
<path d="M94.1469 86.6841L93.9601 87.6232L106.663 90.1589L106.849 89.2198L94.1469 86.6841Z" fill="#B76316"/>
<path d="M72.1594 66.4479L71.9443 67.3618L86.3045 70.7792L86.5196 69.8653L72.1594 66.4479Z" fill="#B76316"/>
<path d="M76.3525 70.0195L76.1719 70.9409L88.9091 73.4643L89.0897 72.5429L76.3525 70.0195Z" fill="#B76316"/>
<path d="M54.5897 49.9802L54.3743 50.894L68.733 54.3173L68.9485 53.4035L54.5897 49.9802Z" fill="#B76316"/>
<path d="M58.7829 53.547L58.6014 54.4683L71.336 57.0047L71.5175 56.0835L58.7829 53.547Z" fill="#B76316"/>
<path d="M38.1512 34.3003L37.9368 35.2144L52.2999 38.6213L52.5144 37.7072L38.1512 34.3003Z" fill="#B76316"/>
<path d="M42.3457 37.8595L42.1642 38.7808L54.8988 41.3172L55.0803 40.396L42.3457 37.8595Z" fill="#B76316"/>
<path d="M37.3599 23.2908C37.7335 23.2908 37.9203 23.2908 37.9203 23.2908L37.8269 22.3517C37.8269 22.3517 37.6401 22.3517 37.3599 22.3517C35.6787 22.3517 30.1681 21.7882 28.4869 12.8662L27.5529 13.054C29.2341 22.2577 35.2117 23.3847 37.2665 23.3847C37.2665 23.2908 37.2665 23.2908 37.3599 23.2908Z" fill="#B76316"/>
<path d="M36.9863 26.7657C38.2939 26.7657 39.4147 26.484 39.6949 26.484L39.6015 25.5448C39.0411 25.5448 38.1071 25.8266 36.8929 25.8266C34.4645 25.8266 30.9153 24.7935 27.9265 17.562L27.0859 17.9377C30.1681 25.2631 34.1843 26.7657 36.9863 26.7657Z" fill="#B76316"/>
<path d="M40.0685 7.2316C41.0959 5.72896 43.7111 2.81758 49.0349 2.53583V1.59668C41.5629 1.87843 38.8543 7.51335 38.8543 7.60726L39.6949 7.98292C39.6015 7.98292 39.7883 7.70118 40.0685 7.2316Z" fill="#B76316"/>
<path d="M42.2167 0.845238L41.8431 0C35.8655 2.34788 34.5579 5.63492 34.5579 7.79497C34.5579 9.2037 35.0249 10.0489 35.0249 10.1429L35.8655 9.67328C35.8655 9.67328 35.7721 9.48545 35.6787 9.2037C35.5853 8.92196 35.4919 8.45238 35.4919 7.79497C35.4919 6.01058 36.4259 3.19312 42.2167 0.845238Z" fill="#B76316"/>
<path d="M66.127 9.8612L66.594 9.01596C65.9402 8.6403 65.0062 8.54639 63.8854 8.54639C59.7759 8.54639 53.1445 10.1429 53.1445 10.1429L53.3313 11.0821C53.4247 11.0821 59.9627 9.48554 63.792 9.48554C64.8194 9.48554 65.66 9.67337 66.127 9.8612Z" fill="#B76316"/>
<path d="M68.1818 11.2697C68.3686 11.2697 68.6488 11.2697 68.8356 11.2697L68.929 10.3306C68.7422 10.3306 68.462 10.3306 68.2752 10.3306C64.4458 10.3306 56.6002 11.8332 56.6002 11.8332L56.787 12.7724C56.6936 12.6785 64.5392 11.2697 68.1818 11.2697Z" fill="#B76316"/>
<path d="M37.1731 4.31996C37.1731 4.31996 53.7049 5.35303 65.9402 16.435C66.5006 16.1533 67.061 15.8716 67.6214 15.4959V15.402C67.6214 15.402 43.8979 -2.44194 34.0909 3.19298C34.0909 3.19298 20.1744 15.2141 35.2117 30.3345C50.2491 45.4549 124.408 114.295 124.408 114.295L125.436 112.792L32.7833 24.9813C32.7833 24.9813 24.0038 8.45224 37.1731 4.31996Z" fill="#F9E6B6"/>
<path d="M33.6239 95.7937C33.6239 95.6058 33.7173 95.418 33.8107 95.2302C34.0909 94.4789 34.5579 93.6336 34.8381 92.7884L33.0635 87.9048C2.89541 90.9101 1.12081 103.495 1.12081 103.495C-3.45578 121.526 16.6252 125.659 16.6252 125.659L139.913 135.708C142.528 130.824 140.193 128.476 140.193 128.476C140.193 128.476 52.3039 120.869 28.7671 118.615C5.2304 116.455 7.1918 106.594 7.1918 106.594C9.62019 97.8598 27.2727 96.0754 33.6239 95.7937Z" fill="#F0BF84"/>
<path d="M19.0535 98.5172C24.5641 96.9207 30.5417 96.4511 33.7173 96.2633H34.0909L34.1843 95.8876C34.1843 95.6998 34.2777 95.5119 34.3711 95.3241C34.6513 94.5728 35.1183 93.7276 35.3985 92.8823L35.4919 92.6945L33.5305 87.3413H33.1569C2.80198 90.3466 0.747182 103.119 0.747182 103.307C0.280183 105.091 0.0933838 106.876 0.0933838 108.472C0.186784 122.653 16.6251 126.034 16.7185 126.034L140.38 136.177L140.567 135.896C141.501 134.111 141.874 132.608 141.874 131.388C141.874 129.228 140.753 128.194 140.753 128.101L140.66 128.007H140.473C140.473 128.007 118.524 126.034 93.5865 123.874C68.6488 121.62 40.8157 119.179 29.0473 118.052C8.68616 116.267 7.65876 108.942 7.56536 107.157C7.56536 106.876 7.56536 106.688 7.56536 106.688C8.68616 102.65 13.5429 100.02 19.0535 98.5172ZM28.6737 119.085C51.5566 121.245 135.523 128.664 140.006 129.04C140.193 129.321 140.753 130.167 140.753 131.482C140.753 132.421 140.473 133.642 139.726 135.238L16.7185 125.283C16.7185 125.283 12.7957 124.438 8.77956 121.996C4.76337 119.46 0.933982 115.328 0.933982 108.66C0.933982 107.157 1.12078 105.467 1.58778 103.683C1.58778 103.589 1.68118 102.931 2.33498 101.804C4.10957 98.3294 10.5542 90.8162 32.8767 88.4683L34.4645 92.7884C34.1843 93.5397 33.8107 94.291 33.5305 95.0424C33.5305 95.1363 33.4371 95.2302 33.4371 95.418C30.1681 95.6059 24.3773 96.1694 18.9601 97.672C13.3561 99.2686 8.21916 101.898 6.91157 106.594C6.91157 106.688 6.81817 106.876 6.81817 107.251C6.63137 109.505 8.40596 117.3 28.6737 119.085Z" fill="#FFBC97"/>
<path d="M33.8107 95.1364C34.1843 94.2911 34.6513 93.352 34.9315 92.5067L33.9975 90.6284C30.7285 92.3189 27.1793 96.1694 27.1793 96.1694L32.4097 96.2633L33.7173 95.512C33.7173 95.4181 33.8107 95.3242 33.8107 95.1364Z" fill="#6B0000"/>
<path d="M25.685 89.2197L18.3064 91.1919C18.3064 91.1919 10.741 96.0755 11.3948 101.053L14.944 99.5504C14.944 99.4565 19.8942 91.1919 25.685 89.2197Z" fill="#6B0000"/>
<path d="M0.46698 108.566C0.46698 108.566 2.14818 115.234 13.7297 115.891L10.6476 112.98C10.6476 112.98 0.0933809 110.35 1.21418 103.495L0.46698 108.566Z" fill="#6B0000"/>
<path d="M30.0747 118.521L24.2839 118.146C24.2839 118.146 16.345 125.565 7.09839 120.775C7.09839 120.775 7.84559 122.09 11.8618 123.687C11.8618 123.78 18.9602 128.946 30.0747 118.521Z" fill="#6B0000"/>
<path d="M49.6886 120.775L31.1955 127.255L40.0685 128.194L55.1992 121.057L49.6886 120.775Z" fill="#6B0000"/>
<path d="M74.3462 122.56L55.9465 129.04L64.8194 129.885L79.8568 122.747L74.3462 122.56Z" fill="#6B0000"/>
<path d="M95.6413 124.532L77.2416 131.012L86.1146 131.951L101.152 124.72L95.6413 124.532Z" fill="#6B0000"/>
<path d="M122.54 126.692L104.047 133.172L112.92 134.111L128.051 126.974L122.54 126.692Z" fill="#6B0000"/>
<path d="M140.753 130.261L128.238 134.675L137.111 135.614L140.193 134.111C140.1 133.83 140.1 133.454 140.193 133.078C140.38 132.139 140.66 131.2 140.753 130.261Z" fill="#6B0000"/>
<path d="M131.396 127.648L117.997 133.865L118.388 134.718L131.787 128.501L131.396 127.648Z" fill="#B76316"/>
<path d="M135.095 128.192L123.517 134.099L123.939 134.937L135.517 129.03L135.095 128.192Z" fill="#B76316"/>
<path d="M107.467 125.585L94.0678 131.801L94.4591 132.654L107.859 126.438L107.467 125.585Z" fill="#B76316"/>
<path d="M111.168 126.12L99.5904 132.026L100.013 132.863L111.591 126.958L111.168 126.12Z" fill="#B76316"/>
<path d="M83.2854 123.42L69.8844 129.634L70.2756 130.487L83.6765 124.273L83.2854 123.42Z" fill="#B76316"/>
<path d="M86.8925 123.999L75.3147 129.905L75.7372 130.742L87.3151 124.837L86.8925 123.999Z" fill="#B76316"/>
<path d="M59.3089 121.339L45.9527 127.537L46.3263 128.383L59.6825 122.184L59.3089 121.339Z" fill="#B76316"/>
<path d="M63.0448 121.902L51.3699 127.819L51.8369 128.664L63.4184 122.748L63.0448 121.902Z" fill="#B76316"/>
<path d="M36.7642 119.201L23.3647 125.417L23.7559 126.269L37.1554 120.053L36.7642 119.201Z" fill="#B76316"/>
<path d="M40.4667 119.747L28.8876 125.652L29.31 126.489L40.8892 120.585L40.4667 119.747Z" fill="#B76316"/>
<path d="M16.4383 116.831L15.7845 116.173C15.7845 116.173 15.3175 116.643 14.3835 117.113C13.4495 117.582 12.142 118.146 10.5542 118.146C8.40596 118.146 5.69737 117.3 2.52178 114.483L1.86798 115.234C5.13697 118.146 8.12576 119.085 10.4608 119.085C14.1967 119.085 16.3449 116.925 16.4383 116.831Z" fill="#B76316"/>
<path d="M19.8007 118.239L19.1469 117.582C18.3063 118.333 16.7186 120.963 12.7024 121.057C10.8344 121.057 8.31257 120.399 5.04358 118.615L4.66998 119.366C8.03237 121.245 10.6476 121.902 12.7958 121.902C12.7958 121.902 12.7958 121.902 12.8892 121.902C17.2789 121.902 19.2403 118.709 19.8007 118.239Z" fill="#B76316"/>
<path d="M12.4222 93.7274L11.8618 92.9761C7.93898 96.2631 7.28518 100.208 7.37858 102.368C7.37858 103.401 7.47198 103.964 7.56538 104.058L8.49938 103.87C8.49938 103.87 8.40598 103.307 8.40598 102.368C8.21918 100.395 8.77958 96.8266 12.4222 93.7274Z" fill="#B76316"/>
<path d="M5.23036 96.1694C3.64257 98.893 2.98877 101.147 2.98877 102.931C2.98877 106.97 5.97756 108.378 6.07096 108.378L6.44456 107.533C6.44456 107.533 6.35116 107.439 6.07096 107.345C5.32376 106.876 3.92277 105.561 3.92277 102.931C3.92277 101.335 4.48317 99.3626 5.97756 96.639L5.23036 96.1694Z" fill="#B76316"/>
<path d="M30.3549 88.8439L30.1681 87.9048C28.4869 88.2804 26.1519 90.5344 24.0971 92.7884C22.0423 95.0424 20.3611 97.1085 20.3611 97.2024L21.1083 97.7659C21.1083 97.672 22.7895 95.6058 24.8443 93.4458C26.8057 91.2857 29.2341 89.0318 30.3549 88.8439Z" fill="#B76316"/>
<path d="M33.3437 88.2806L32.7833 87.5293C29.9813 89.5015 23.9103 96.3573 23.9103 96.3573L24.6575 97.0148C24.6575 97.0148 26.1519 95.3243 28.0199 93.3521C29.8879 91.3798 32.1295 89.2198 33.3437 88.2806Z" fill="#B76316"/>
<path d="M34.2777 94.1972C34.5579 93.6337 34.8381 92.9763 35.0249 92.4128V92.3188C35.0249 92.3188 5.41716 92.9762 1.21417 103.495C1.21417 103.495 -2.42842 121.62 18.6799 124.156C39.7883 126.692 140.38 134.956 140.38 134.956L140.286 133.172L13.4495 121.433C13.4495 121.433 -3.64262 113.825 4.20296 102.462C4.20296 102.462 17.9327 92.9763 34.2777 94.1972Z" fill="#F9E6B6"/>
<path d="M45.3923 87.9986C50.2491 87.9986 53.3312 83.115 53.3312 83.115C52.6774 70.8121 44.7385 64.0502 44.7385 64.0502C31.2889 56.0674 4.95017 72.6904 4.95017 72.6904C0.0933857 75.6957 5.60397 87.3412 5.60397 87.3412C9.24656 94.197 45.3923 87.9986 45.3923 87.9986Z" fill="#E17A03"/>
<path d="M18.68 91.0039C30.0747 91.0039 44.6451 88.5621 45.3923 88.4682C50.6227 88.3743 53.7049 83.3968 53.7049 83.3028L53.7983 83.2089V83.0211C53.1445 70.5304 45.1121 63.6745 45.0187 63.5806C42.3101 61.9841 39.1345 61.3267 35.7721 61.3267C21.8556 61.3267 4.7634 72.2208 4.67 72.2208C2.9888 73.2539 2.42841 75.2261 2.42841 77.2923C2.42841 81.8941 5.137 87.529 5.137 87.529C6.81819 90.3465 12.2354 91.0039 18.68 91.0039ZM4.67 83.8663C4.0162 81.8941 3.3624 79.4523 3.3624 77.2923C3.3624 75.414 3.8294 73.8174 5.137 72.9722C5.137 72.9722 9.33999 70.2486 15.3176 67.619C21.2952 64.8954 28.9539 62.2658 35.6787 62.2658C38.9477 62.2658 41.9365 62.8293 44.4583 64.3319C44.5517 64.4259 45.0187 64.8015 45.6725 65.5529C47.9141 67.9946 52.3973 73.9113 52.8643 82.9272C52.6775 83.2089 51.9303 84.242 50.9029 85.1812C49.5019 86.4021 47.6339 87.529 45.3923 87.529C45.3923 87.529 30.3549 90.0648 18.7734 90.0648C12.3288 90.1587 6.91159 89.2195 5.9776 87.1534C5.9776 87.1534 5.3238 85.8386 4.67 83.8663Z" fill="#FFDE89"/>
<path d="M46.6065 68.2764C46.6065 68.2764 42.3101 59.0727 31.2889 62.7354L4.95019 72.5965C4.95019 72.5965 4.2964 75.0383 9.80698 76.2592L46.6065 68.2764Z" fill="#F3C511"/>
<path d="M4.2964 75.0386C0.0934083 78.1378 5.60399 87.3415 5.60399 87.3415L9.24658 86.6841L8.03239 79.2648L9.90038 76.1656L4.2964 75.0386Z" fill="#BC5004"/>
<path d="M30.6351 66.0225H28.2067V67.9947H30.6351V66.0225Z" fill="#F7FCC9"/>
<path d="M32.3163 62.7354H31.2889V64.3319H32.3163V62.7354Z" fill="#F7FCC9"/>
<path d="M37.3599 64.6138H36.3325V66.2103H37.3599V64.6138Z" fill="#F7FCC9"/>
<path d="M40.4421 67.0557H39.0411V68.5583H40.4421V67.0557Z" fill="#F7FCC9"/>
<path d="M22.6961 69.7793H21.8555V70.8124H22.6961V69.7793Z" fill="#F7FCC9"/>
<path d="M21.482 64.4258H20.6414V65.4588H21.482V64.4258Z" fill="#F7FCC9"/>
<path d="M13.4495 70.1548H12.6089V71.1879H13.4495V70.1548Z" fill="#F7FCC9"/>
<path d="M21.1083 67.5249H19.0535V69.4032H21.1083V67.5249Z" fill="#F7FCC9"/>
<path d="M40.7223 62.5479H38.8543V64.1444H40.7223V62.5479Z" fill="#F7FCC9"/>
<path d="M28.3935 62.5479H27.1793V64.4262H28.3935V62.5479Z" fill="#F7FCC9"/>
<path d="M37.5467 61.5146H34.9315V63.2051H37.5467V61.5146Z" fill="#F7FCC9"/>
<path d="M13.4495 69.873H12.6089V71.1879H13.4495V69.873Z" fill="#F7FCC9"/>
<path d="M16.8119 67.2432H15.7845V68.6519H16.8119V67.2432Z" fill="#F7FCC9"/>
<path d="M23.5367 66.1162H21.7621V67.431H23.5367V66.1162Z" fill="#F7FCC9"/>
<path d="M27.1793 65.1772H26.3387V66.0225H27.1793V65.1772Z" fill="#F7FCC9"/>
<path d="M33.7173 65.1772H32.5031V66.586H33.7173V65.1772Z" fill="#F7FCC9"/>
<path d="M44.3649 63.7686H43.5243V64.6138H44.3649V63.7686Z" fill="#F7FCC9"/>
<path d="M43.9913 66.0225H43.2441V66.8677H43.9913V66.0225Z" fill="#F7FCC9"/>
<path d="M45.7659 65.8345H44.7385V67.7128H45.7659V65.8345Z" fill="#F7FCC9"/>
<path d="M26.8057 71.6572H25.7783V73.5355H26.8057V71.6572Z" fill="#F7FCC9"/>
<path d="M34.9315 67.9946H33.7173V69.1216H34.9315V67.9946Z" fill="#F7FCC9"/>
<path d="M33.9041 70.1548H33.7173V71.1879H33.9041V70.1548Z" fill="#F7FCC9"/>
<path d="M14.9439 72.5967H14.7571V73.6297H14.9439V72.5967Z" fill="#F7FCC9"/>
<path d="M18.2129 70.3428H16.6251V71.5637H18.2129V70.3428Z" fill="#F7FCC9"/>
<path d="M8.5928 72.5967H7.3786V73.5358H8.5928V72.5967Z" fill="#F7FCC9"/>
<path d="M10.0872 74.2871H8.21918V75.6958H10.0872V74.2871Z" fill="#F7FCC9"/>
<path d="M11.9551 71.3755H10.1805V72.7842H11.9551V71.3755Z" fill="#F7FCC9"/>
<path d="M15.7845 73.6294H14.7571V74.2868H15.7845V73.6294Z" fill="#F7FCC9"/>
<path d="M21.1084 72.4087H20.2678V73.2539H21.1084V72.4087Z" fill="#F7FCC9"/>
<path d="M24.7509 70.7183H23.9103V71.5635H24.7509V70.7183Z" fill="#F7FCC9"/>
<path d="M29.4209 69.4976H28.2067V70.155H29.4209V69.4976Z" fill="#F7FCC9"/>
<path d="M32.3163 70.1548H31.1021V71.3757H32.3163V70.1548Z" fill="#F7FCC9"/>
<path d="M34.7447 69.1216H33.1569V70.1546H34.7447V69.1216Z" fill="#F7FCC9"/>
<path d="M43.7111 70.3428H41.0959V73.2541H43.7111V70.3428Z" fill="#F7FCC9"/>
<path d="M49.0349 71.5635H46.4197V74.4749H49.0349V71.5635Z" fill="#F7FCC9"/>
<path d="M47.1669 78.1377H46.9801V78.9829H47.1669V78.1377Z" fill="#F7FCC9"/>
<path d="M46.1395 82.8335H44.9253V84.4301H46.1395V82.8335Z" fill="#F7FCC9"/>
<path d="M51.2765 82.7393H49.3151V83.2088H51.2765V82.7393Z" fill="#F7FCC9"/>
<path d="M50.6226 78.3252H49.0349V79.9218H50.6226V78.3252Z" fill="#F7FCC9"/>
<path d="M46.5131 68.2764H45.0187V69.4973H46.5131V68.2764Z" fill="#F7FCC9"/>
<path d="M44.1781 75.5078H43.5243V76.3531H44.1781V75.5078Z" fill="#F7FCC9"/>
<path d="M48.2876 76.729H47.6339V77.5742H48.2876V76.729Z" fill="#F7FCC9"/>
<path d="M4.57659 80.2036H3.92279V81.6123H4.57659V80.2036Z" fill="#F7FCC9"/>
<path d="M7.005 76.6348H5.23041V78.1374H7.005V76.6348Z" fill="#F7FCC9"/>
<path d="M10.4607 80.5796H9.43335V81.6127H10.4607V80.5796Z" fill="#F7FCC9"/>
<path d="M10.274 83.6787H8.21918V86.1205H10.274V83.6787Z" fill="#F7FCC9"/>
<path d="M13.076 86.5898H11.8618V87.529H13.076V86.5898Z" fill="#F7FCC9"/>
<path d="M17.1856 78.9829H15.9714V79.9221H17.1856V78.9829Z" fill="#F7FCC9"/>
<path d="M14.7572 81.8003H13.2628V83.8664H14.7572V81.8003Z" fill="#F7FCC9"/>
<path d="M14.3835 76.2593H13.7297V77.2924H14.3835V76.2593Z" fill="#F7FCC9"/>
<path d="M18.3998 83.1152H18.213V84.8057H18.3998V83.1152Z" fill="#F7FCC9"/>
<path d="M22.8829 83.6787H20.8281V85.7449H22.8829V83.6787Z" fill="#F7FCC9"/>
<path d="M25.1245 77.2925H24.7509V78.3255H25.1245V77.2925Z" fill="#F7FCC9"/>
<path d="M32.6899 80.3916H32.3163V81.4247H32.6899V80.3916Z" fill="#F7FCC9"/>
<path d="M37.5467 75.3203H36.3325V76.729H37.5467V75.3203Z" fill="#F7FCC9"/>
<path d="M39.0411 71.7515H37.8269V73.1602H39.0411V71.7515Z" fill="#F7FCC9"/>
<path d="M41.4695 80.3916H40.2553V81.2368H41.4695V80.3916Z" fill="#F7FCC9"/>
<path d="M29.421 83.1152H28.3936V84.1483H29.421V83.1152Z" fill="#F7FCC9"/>
<path d="M37.6401 86.7778H36.6127V87.8109H37.6401V86.7778Z" fill="#F7FCC9"/>
<path d="M42.0299 83.3027H41.8431V83.6784H42.0299V83.3027Z" fill="#F7FCC9"/>
<path d="M20.6414 75.3203H19.2404V76.3534H20.6414V75.3203Z" fill="#F7FCC9"/>
<path d="M26.4321 75.5078H25.7783V76.5409H26.4321V75.5078Z" fill="#F7FCC9"/>
<path d="M19.7074 87.811H18.8668V88.8441H19.7074V87.811Z" fill="#F7FCC9"/>
<path d="M28.4869 82.8335H27.8331V84.0544H28.4869V82.8335Z" fill="#F7FCC9"/>
<path d="M34.2777 76.2593H32.6899V76.4471H34.2777V76.2593Z" fill="#F7FCC9"/>
<path d="M33.0635 73.0659H31.6625V74.4746H33.0635V73.0659Z" fill="#F7FCC9"/>
<path d="M39.0411 80.5796H37.6401V82.4579H39.0411V80.5796Z" fill="#F7FCC9"/>
<path d="M42.4969 86.1206H41.0959V87.9989H42.4969V86.1206Z" fill="#F7FCC9"/>
<path d="M75.7472 89.0319C86.1145 85.9327 83.6861 73.0663 83.6861 73.0663C83.0323 61.3269 44.5517 55.2224 44.5517 55.2224C42.1233 54.565 37.1731 57.6642 37.1731 57.6642L34.0909 79.1708C35.9589 92.1311 75.7472 89.0319 75.7472 89.0319Z" fill="#F21616"/>
<path d="M45.9527 87.9988C52.3039 89.5015 59.9626 89.7832 65.9402 89.7832C71.6376 89.7832 75.7472 89.5015 75.7472 89.5015H75.8406H75.934C83.3126 87.3414 84.5268 80.3917 84.4334 76.2594C84.4334 74.475 84.2466 73.1602 84.1532 72.9723C83.6862 66.5861 73.7858 62.3599 64.0722 59.2607C54.3586 56.2554 44.6451 54.7528 44.6451 54.6589C44.4583 54.5649 44.1781 54.5649 43.8045 54.5649C41.0025 54.5649 36.9863 57.1946 36.8929 57.1946L36.7061 57.2885L33.6239 79.1708V79.2647C34.3711 83.9605 39.6015 86.4962 45.9527 87.9988ZM37.6401 57.9459C38.0137 57.7581 38.7609 57.2885 39.7883 56.8189C41.0959 56.1615 42.6837 55.598 43.8979 55.598C44.0847 55.598 44.3649 55.598 44.5517 55.6919C44.6451 55.6919 54.1718 57.1946 63.8854 60.1999C73.599 63.1112 83.2192 67.807 83.406 73.0663C83.406 73.0663 83.6862 74.3811 83.6862 76.1655C83.6862 80.1099 82.5654 86.4962 75.8406 88.4684C75.3736 88.4684 71.4508 88.7501 66.127 88.7501C60.1494 88.7501 52.584 88.3745 46.3263 86.9657C40.0685 85.557 35.3985 83.0213 34.7447 79.0768L37.6401 57.9459Z" fill="#FFDE89"/>
<path d="M81.2578 69.9669C76.401 61.3267 44.5517 55.2222 44.5517 55.2222L37.1731 57.664C37.8269 65.6468 63.5118 71.1878 63.5118 71.1878C77.6152 72.4087 81.2578 69.9669 81.2578 69.9669Z" fill="#F9384A"/>
<path d="M66.5941 87.8109C80.0436 86.59 56.2267 81.049 56.2267 81.049C45.8593 77.3863 37.2665 63.2051 37.2665 63.2051L34.8381 80.4855C42.6837 91.4736 66.5941 87.8109 66.5941 87.8109Z" fill="#9F0000"/>
<path d="M47.1669 55.5977H45.5791V56.8186H47.1669V55.5977Z" fill="#F7FCC9"/>
<path d="M56.4135 59.918H54.5455V62.1719H56.4135V59.918Z" fill="#F7FCC9"/>
<path d="M75.934 66.0225H74.3462V67.9008H75.934V66.0225Z" fill="#F7FCC9"/>
<path d="M76.5878 71.3755H75.3736V73.8173H76.5878V71.3755Z" fill="#F7FCC9"/>
<path d="M68.462 70.5303H66.594V71.939H68.462V70.5303Z" fill="#F7FCC9"/>
<path d="M69.0224 74.4751H68.1818V75.3203H69.0224V74.4751Z" fill="#F7FCC9"/>
<path d="M62.4844 65.647H60.6165V66.4922H62.4844V65.647Z" fill="#F7FCC9"/>
<path d="M66.4072 64.2383H64.3524V65.647H66.4072V64.2383Z" fill="#F7FCC9"/>
<path d="M62.9514 61.9839H61.0834V64.2379H62.9514V61.9839Z" fill="#F7FCC9"/>
<path d="M53.1445 62.1719H51.2765V64.238H53.1445V62.1719Z" fill="#F7FCC9"/>
<path d="M51.2764 56.6309H49.4084V58.697H51.2764V56.6309Z" fill="#F7FCC9"/>
<path d="M42.6837 55.4102H41.0959V56.4432H42.6837V55.4102Z" fill="#F7FCC9"/>
<path d="M45.2055 59.0728H43.1507V61.1389H45.2055V59.0728Z" fill="#F7FCC9"/>
<path d="M59.8692 57.1943H57.6276V59.4483H59.8692V57.1943Z" fill="#F7FCC9"/>
<path d="M70.2366 67.9009H68.6488V69.4974H70.2366V67.9009Z" fill="#F7FCC9"/>
<path d="M70.6102 64.6138H69.0224V64.8016H70.6102V64.6138Z" fill="#F7FCC9"/>
<path d="M68.8356 61.7021H66.9677V63.1109H68.8356V61.7021Z" fill="#F7FCC9"/>
<path d="M78.5492 67.5249H76.9614V69.4032H78.5492V67.5249Z" fill="#F7FCC9"/>
<path d="M79.67 67.5249H78.6426V68.1823H79.67V67.5249Z" fill="#F7FCC9"/>
<path d="M63.8854 59.2607H62.2976V60.2938H63.8854V59.2607Z" fill="#F7FCC9"/>
<path d="M48.5679 60.6694H47.1669V61.7025H48.5679V60.6694Z" fill="#F7FCC9"/>
<path d="M40.0685 58.0396H39.0411V59.4483H40.0685V58.0396Z" fill="#F7FCC9"/>
<path d="M42.6837 61.9839H40.6289V63.2048H42.6837V61.9839Z" fill="#F7FCC9"/>
<path d="M48.0075 57.8521H47.3537V59.073H48.0075V57.8521Z" fill="#F7FCC9"/>
<path d="M53.5181 57.8521H52.6775V58.5095H53.5181V57.8521Z" fill="#F7FCC9"/>
<path d="M56.9738 65.1772H55.386V67.0556H56.9738V65.1772Z" fill="#F7FCC9"/>
<path d="M65.3798 67.5249H64.3524V69.4032H65.3798V67.5249Z" fill="#F7FCC9"/>
<path d="M74.3462 63.9565H72.4782V66.0227H74.3462V63.9565Z" fill="#F7FCC9"/>
<path d="M71.0772 61.7021H70.2366V62.0778H71.0772V61.7021Z" fill="#F7FCC9"/>
<path d="M59.4956 62.3599H58.655V62.7355H59.4956V62.3599Z" fill="#F7FCC9"/>
<path d="M58.5616 68.9341H57.1606V71.3759H58.5616V68.9341Z" fill="#F7FCC9"/>
<path d="M64.3524 68.7461H62.1108V70.6244H64.3524V68.7461Z" fill="#F7FCC9"/>
<path d="M73.9726 68.4644H73.3188V69.8731H73.9726V68.4644Z" fill="#F7FCC9"/>
<path d="M46.0461 62.9233H45.3923V63.9564H46.0461V62.9233Z" fill="#F7FCC9"/>
<path d="M50.0622 64.8018H49.0349V65.4592H50.0622V64.8018Z" fill="#F7FCC9"/>
<path d="M54.0785 65.459H52.8643V67.0555H54.0785V65.459Z" fill="#F7FCC9"/>
<path d="M53.0511 59.918H51.4633V61.3267H53.0511V59.918Z" fill="#F7FCC9"/>
<path d="M47.8207 54.9404H45.7659V56.1613H47.8207V54.9404Z" fill="#F7FCC9"/>
<path d="M58.0012 59.0728H56.787V61.5146H58.0012V59.0728Z" fill="#F7FCC9"/>
<path d="M61.6438 62.3599H60.056V64.426H61.6438V62.3599Z" fill="#F7FCC9"/>
<path d="M60.056 66.4922H57.8145V67.9009H60.056V66.4922Z" fill="#F7FCC9"/>
<path d="M62.9514 62.3599H60.056V64.2382H62.9514V62.3599Z" fill="#F7FCC9"/>
<path d="M63.325 63.9565H62.2976V65.5531H63.325V63.9565Z" fill="#F7FCC9"/>
<path d="M61.6439 66.4922H60.6165V68.0887H61.6439V66.4922Z" fill="#F7FCC9"/>
<path d="M68.6488 67.5249H66.7808V69.591H68.6488V67.5249Z" fill="#F7FCC9"/>
<path d="M71.5442 66.6797H70.8904V68.7458H71.5442V66.6797Z" fill="#F7FCC9"/>
<path d="M76.5878 69.4976H74.3462V71.3759H76.5878V69.4976Z" fill="#F7FCC9"/>
<path d="M66.0336 61.9839H65.3798V62.3595H66.0336V61.9839Z" fill="#F7FCC9"/>
<path d="M70.8904 64.8018H69.0224V66.6801H70.8904V64.8018Z" fill="#F7FCC9"/>
<path d="M77.0548 66.9614H75.1868V68.8397H77.0548V66.9614Z" fill="#F7FCC9"/>
<path d="M80.7908 69.7793H79.203V71.188H80.7908V69.7793Z" fill="#F7FCC9"/>
<path d="M46.1395 56.1611H45.7659V56.8185H46.1395V56.1611Z" fill="#F7FCC9"/>
<path d="M51.2764 57.1943H49.0349V58.6031H51.2764V57.1943Z" fill="#F7FCC9"/>
<path d="M50.4359 61.7021H48.1943V63.1109H50.4359V61.7021Z" fill="#F7FCC9"/>
<path d="M53.1445 62.1719H51.2765V64.238H53.1445V62.1719Z" fill="#F7FCC9"/>
<path d="M54.1719 65.647H52.1171V67.0557H54.1719V65.647Z" fill="#F7FCC9"/>
<path d="M58.655 60.4814H56.787V62.3598H58.655V60.4814Z" fill="#F7FCC9"/>
<path d="M67.6214 63.2051H66.4072V64.0503H67.6214V63.2051Z" fill="#F7FCC9"/>
<path d="M73.6924 77.9497H72.1046V79.5463H73.6924V77.9497Z" fill="#F7FCC9"/>
<path d="M81.4446 75.3203H80.0436V76.1656H81.4446V75.3203Z" fill="#F7FCC9"/>
<path d="M76.4944 84.3359H74.9066V85.7447H76.4944V84.3359Z" fill="#F7FCC9"/>
<path d="M79.0162 81.6123H77.4284V83.021H79.0162V81.6123Z" fill="#F7FCC9"/>
<path d="M79.0162 74.4751H76.1208V76.5412H79.0162V74.4751Z" fill="#F7FCC9"/>
<path d="M83.6862 71.3755H82.2852V72.972H83.6862V71.3755Z" fill="#F7FCC9"/>
<path d="M71.8244 72.4087H70.4234V74.0053H71.8244V72.4087Z" fill="#F7FCC9"/>
<path d="M79.2964 77.9497H77.4284V79.5463H79.2964V77.9497Z" fill="#F7FCC9"/>
<path d="M82.7522 77.7617H82.0984V78.607H82.7522V77.7617Z" fill="#F7FCC9"/>
<path d="M72.5716 81.0488H71.9178V81.8941H72.5716V81.0488Z" fill="#F7FCC9"/>
<path d="M64.5392 71.188H63.5118V71.8454H64.5392V71.188Z" fill="#F7FCC9"/>
<path d="M72.9452 86.4023H70.8904V87.4354H72.9452V86.4023Z" fill="#F7FCC9"/>
<path d="M74.9066 82.6455H73.5056V84.2421H74.9066V82.6455Z" fill="#F7FCC9"/>
<path d="M81.6314 80.8613H80.4172V82.2701H81.6314V80.8613Z" fill="#F7FCC9"/>
<path d="M76.5878 84.9932H75.7472V85.7445H76.5878V84.9932Z" fill="#F7FCC9"/>
<path d="M54.3587 71H53.5181V71.7513H54.3587V71Z" fill="#F7FCC9"/>
<path d="M37.1731 60.2935H36.7995V60.4813H37.1731V60.2935Z" fill="#F7FCC9"/>
<path d="M40.5355 63.7686H38.6675V66.2104H40.5355V63.7686Z" fill="#F7FCC9"/>
<path d="M36.7995 65.8345H35.3985V67.9006H36.7995V65.8345Z" fill="#F7FCC9"/>
<path d="M37.9203 62.3599H36.3325V63.0173H37.9203V62.3599Z" fill="#F7FCC9"/>
<path d="M39.2279 71.7515H38.0137V74.0054H39.2279V71.7515Z" fill="#F7FCC9"/>
<path d="M35.3051 77.5742H33.7173V79.1708H35.3051V77.5742Z" fill="#F7FCC9"/>
<path d="M36.9863 81.2368H35.1183V83.6786H36.9863V81.2368Z" fill="#F7FCC9"/>
<path d="M46.9801 80.3916H45.1121V82.8334H46.9801V80.3916Z" fill="#F7FCC9"/>
<path d="M51.8369 72.2207H49.5953V74.2868H51.8369V72.2207Z" fill="#F7FCC9"/>
<path d="M56.6002 75.5078H54.3586V77.7618H56.6002V75.5078Z" fill="#F7FCC9"/>
<path d="M45.4857 67.7129H45.1121V67.9007H45.4857V67.7129Z" fill="#F7FCC9"/>
<path d="M49.4084 64.2383H48.0074V66.4923H49.4084V64.2383Z" fill="#F7FCC9"/>
<path d="M41.8431 68.0889H40.4421V70.3428H41.8431V68.0889Z" fill="#F7FCC9"/>
<path d="M62.6712 78.7949H62.2976V79.1706H62.6712V78.7949Z" fill="#F7FCC9"/>
<path d="M67.8082 77.2925H66.7808V79.1708H67.8082V77.2925Z" fill="#F7FCC9"/>
<path d="M60.056 73.2539H58.655V74.0991H60.056V73.2539Z" fill="#F7FCC9"/>
<path d="M59.2155 84.0542H56.9739V85.0873H59.2155V84.0542Z" fill="#F7FCC9"/>
<path d="M62.6712 81.8003H60.4296V82.8334H62.6712V81.8003Z" fill="#F7FCC9"/>
<path d="M66.7808 84.8994H66.127V86.9655H66.7808V84.8994Z" fill="#F7FCC9"/>
<path d="M69.0224 82.6455H67.4346V84.7116H69.0224V82.6455Z" fill="#F7FCC9"/>
<path d="M69.6762 82.082H69.0224V82.7394H69.6762V82.082Z" fill="#F7FCC9"/>
<path d="M39.0411 69.4976H37.6401V70.155H39.0411V69.4976Z" fill="#F7FCC9"/>
<path d="M36.6127 73.2539H34.5579V74.8505H36.6127V73.2539Z" fill="#F7FCC9"/>
<path d="M35.4919 70.1548H35.1183V71.3757H35.4919V70.1548Z" fill="#F7FCC9"/>
<path d="M40.6289 76.9165H39.4147V77.9496H40.6289V76.9165Z" fill="#F7FCC9"/>
<path d="M37.5467 77.9497H36.3325V78.9828H37.5467V77.9497Z" fill="#F7FCC9"/>
<path d="M40.8157 80.5796H39.6015V81.6127H40.8157V80.5796Z" fill="#F7FCC9"/>
<path d="M44.0847 64.8018H42.8705V66.6801H44.0847V64.8018Z" fill="#F7FCC9"/>
<path d="M50.8095 69.9668H49.5953V71.8451H50.8095V69.9668Z" fill="#F7FCC9"/>
<path d="M98.5367 110.163C108.904 107.064 106.476 94.1972 106.476 94.1972C105.822 82.4578 67.3412 76.3533 67.3412 76.3533C64.9128 75.6958 59.9626 78.7951 59.9626 78.7951L56.8804 100.302C58.7484 113.262 98.5367 110.163 98.5367 110.163Z" fill="#E17A03"/>
<path d="M68.6488 109.129C75 110.632 82.6588 110.914 88.6363 110.914C94.3337 110.914 98.4433 110.632 98.4433 110.632H98.5367H98.6301C106.009 108.472 107.223 101.522 107.129 97.3901C107.129 95.6057 106.943 94.2909 106.849 94.103C106.382 87.7168 96.3885 83.4906 86.6749 80.3914C76.9614 77.3861 67.2478 75.8835 67.2478 75.8835C67.061 75.7896 66.7808 75.7896 66.4072 75.7896C63.6052 75.7896 59.589 78.4192 59.4956 78.4192L59.3088 78.5131L56.2266 100.301V100.395C57.1606 105.091 62.391 107.627 68.6488 109.129ZM60.3362 79.0766C60.7098 78.8888 61.457 78.4192 62.4844 77.9496C63.792 77.2922 65.3798 76.7287 66.594 76.7287C66.7808 76.7287 67.061 76.7287 67.2478 76.8226C67.3412 76.8226 76.868 78.3253 86.5815 81.3306C96.2951 84.2419 105.915 88.9377 106.102 94.197C106.102 94.197 106.382 95.5118 106.382 97.2962C106.382 101.241 105.261 107.627 98.5367 109.599C98.0697 109.599 94.1469 109.881 88.8231 109.881C82.8455 109.881 75.2802 109.505 69.0224 108.096C62.7646 106.688 58.0946 104.152 57.4408 100.208L60.3362 79.0766Z" fill="#FFDE89"/>
<path d="M104.047 91.0979C99.0972 82.4577 67.2478 76.2593 67.2478 76.2593L59.8693 78.7011C60.5231 86.6839 86.208 92.2249 86.208 92.2249C100.311 93.5397 104.047 91.0979 104.047 91.0979Z" fill="#F3C511"/>
<path d="M89.2902 108.942C102.74 107.721 78.9228 102.18 78.9228 102.18C68.5554 98.5172 59.9626 84.3359 59.9626 84.3359L57.5342 101.616C65.4732 112.604 89.2902 108.942 89.2902 108.942Z" fill="#BC5004"/>
<path d="M69.863 76.729H68.2752V77.9499H69.863V76.729Z" fill="#F7FCC9"/>
<path d="M79.203 81.0488H77.335V83.3028H79.203V81.0488Z" fill="#F7FCC9"/>
<path d="M98.6302 87.1533H97.0424V89.0316H98.6302V87.1533Z" fill="#F7FCC9"/>
<path d="M99.2839 92.5068H98.0697V94.9486H99.2839V92.5068Z" fill="#F7FCC9"/>
<path d="M91.1582 91.6611H89.2902V93.0699H91.1582V91.6611Z" fill="#F7FCC9"/>
<path d="M91.812 95.606H90.9714V96.4512H91.812V95.606Z" fill="#F7FCC9"/>
<path d="M85.274 86.7778H83.406V87.6231H85.274V86.7778Z" fill="#F7FCC9"/>
<path d="M89.1034 85.3691H87.0486V86.7779H89.1034V85.3691Z" fill="#F7FCC9"/>
<path d="M85.6475 83.1152H83.7795V85.3692H85.6475V83.1152Z" fill="#F7FCC9"/>
<path d="M75.934 83.3027H74.066V85.3689H75.934V83.3027Z" fill="#F7FCC9"/>
<path d="M74.066 77.7617H72.198V79.8279H74.066V77.7617Z" fill="#F7FCC9"/>
<path d="M65.3798 76.541H63.7921V77.5741H65.3798V76.541Z" fill="#F7FCC9"/>
<path d="M67.9016 80.2036H65.8468V82.2697H67.9016V80.2036Z" fill="#F7FCC9"/>
<path d="M82.5654 78.3252H80.3238V80.5792H82.5654V78.3252Z" fill="#F7FCC9"/>
<path d="M92.9328 89.0317H91.345V90.6283H92.9328V89.0317Z" fill="#F7FCC9"/>
<path d="M93.3997 85.7446H91.812V85.9325H93.3997V85.7446Z" fill="#F7FCC9"/>
<path d="M91.6251 82.8335H89.7571V84.2422H91.6251V82.8335Z" fill="#F7FCC9"/>
<path d="M101.339 88.6562H99.7509V90.5346H101.339V88.6562Z" fill="#F7FCC9"/>
<path d="M102.366 88.6562H101.339V89.3137H102.366V88.6562Z" fill="#F7FCC9"/>
<path d="M86.675 80.3916H85.0872V81.4247H86.675V80.3916Z" fill="#F7FCC9"/>
<path d="M71.3574 81.8003H69.9564V82.8334H71.3574V81.8003Z" fill="#F7FCC9"/>
<path d="M62.7646 79.1704H61.7372V80.5791H62.7646V79.1704Z" fill="#F7FCC9"/>
<path d="M65.4732 83.1152H63.4185V84.3361H65.4732V83.1152Z" fill="#F7FCC9"/>
<path d="M70.797 78.9829H70.1432V80.2038H70.797V78.9829Z" fill="#F7FCC9"/>
<path d="M76.3076 78.9829H75.467V79.6403H76.3076V78.9829Z" fill="#F7FCC9"/>
<path d="M79.67 86.4023H78.0822V88.2807H79.67V86.4023Z" fill="#F7FCC9"/>
<path d="M88.076 88.6562H87.0486V90.5346H88.076V88.6562Z" fill="#F7FCC9"/>
<path d="M97.1358 85.0874H95.2678V87.1535H97.1358V85.0874Z" fill="#F7FCC9"/>
<path d="M93.8667 82.8335H93.0261V83.2092H93.8667V82.8335Z" fill="#F7FCC9"/>
<path d="M82.1918 83.4907H81.3512V83.8664H82.1918V83.4907Z" fill="#F7FCC9"/>
<path d="M81.3512 90.0649H79.9502V92.5067H81.3512V90.0649Z" fill="#F7FCC9"/>
<path d="M87.0486 89.877H84.807V91.7553H87.0486V89.877Z" fill="#F7FCC9"/>
<path d="M96.6687 89.5952H96.015V91.0039H96.6687V89.5952Z" fill="#F7FCC9"/>
<path d="M68.7422 84.0542H68.0884V85.0873H68.7422V84.0542Z" fill="#F7FCC9"/>
<path d="M72.8518 85.9326H71.8244V86.59H72.8518V85.9326Z" fill="#F7FCC9"/>
<path d="M76.868 86.5898H75.6538V88.1864H76.868V86.5898Z" fill="#F7FCC9"/>
<path d="M75.8406 81.0488H74.2528V82.4576H75.8406V81.0488Z" fill="#F7FCC9"/>
<path d="M70.6102 76.0713H68.5554V77.2922H70.6102V76.0713Z" fill="#F7FCC9"/>
<path d="M80.7908 80.2036H79.5766V82.6454H80.7908V80.2036Z" fill="#F7FCC9"/>
<path d="M84.34 83.4907H82.7522V85.5569H84.34V83.4907Z" fill="#F7FCC9"/>
<path d="M82.7522 87.623H80.5106V89.0318H82.7522V87.623Z" fill="#F7FCC9"/>
<path d="M85.6476 83.4907H82.7522V85.369H85.6476V83.4907Z" fill="#F7FCC9"/>
<path d="M86.1146 85.0874H85.0872V86.684H86.1146V85.0874Z" fill="#F7FCC9"/>
<path d="M84.4334 87.623H83.406V89.2196H84.4334V87.623Z" fill="#F7FCC9"/>
<path d="M91.4384 88.6562H89.5704V90.7224H91.4384V88.6562Z" fill="#F7FCC9"/>
<path d="M94.2404 87.811H93.5865V89.8772H94.2404V87.811Z" fill="#F7FCC9"/>
<path d="M99.284 90.6284H97.0424V92.5067H99.284V90.6284Z" fill="#F7FCC9"/>
<path d="M88.7298 83.1152H88.076V83.4909H88.7298V83.1152Z" fill="#F7FCC9"/>
<path d="M93.6799 85.9326H91.812V87.8109H93.6799V85.9326Z" fill="#F7FCC9"/>
<path d="M99.7509 88.0928H97.8829V89.9711H99.7509V88.0928Z" fill="#F7FCC9"/>
<path d="M103.58 90.9102H101.993V92.3189H103.58V90.9102Z" fill="#F7FCC9"/>
<path d="M68.929 77.2925H68.5554V77.9499H68.929V77.2925Z" fill="#F7FCC9"/>
<path d="M74.066 78.3252H71.8244V79.7339H74.066V78.3252Z" fill="#F7FCC9"/>
<path d="M73.2254 82.8335H70.9838V84.2422H73.2254V82.8335Z" fill="#F7FCC9"/>
<path d="M75.934 83.3027H74.066V85.3689H75.934V83.3027Z" fill="#F7FCC9"/>
<path d="M76.868 86.7778H74.8132V88.1866H76.868V86.7778Z" fill="#F7FCC9"/>
<path d="M81.4446 81.6123H79.5766V83.4906H81.4446V81.6123Z" fill="#F7FCC9"/>
<path d="M90.3176 84.3359H89.1034V85.1812H90.3176V84.3359Z" fill="#F7FCC9"/>
<path d="M96.3885 99.0806H94.8007V100.677H96.3885V99.0806Z" fill="#F7FCC9"/>
<path d="M104.234 96.4512H102.833V97.2964H104.234V96.4512Z" fill="#F7FCC9"/>
<path d="M99.284 105.467H97.6962V106.876H99.284V105.467Z" fill="#F7FCC9"/>
<path d="M101.712 102.743H100.125V104.152H101.712V102.743Z" fill="#F7FCC9"/>
<path d="M101.806 95.606H98.9103V97.6721H101.806V95.606Z" fill="#F7FCC9"/>
<path d="M106.476 92.5068H105.075V94.1034H106.476V92.5068Z" fill="#F7FCC9"/>
<path d="M94.6139 93.5396H93.213V95.1361H94.6139V93.5396Z" fill="#F7FCC9"/>
<path d="M101.993 99.0806H100.125V100.677H101.993V99.0806Z" fill="#F7FCC9"/>
<path d="M105.448 98.8931H104.794V99.7383H105.448V98.8931Z" fill="#F7FCC9"/>
<path d="M95.2677 102.18H94.614V103.025H95.2677V102.18Z" fill="#F7FCC9"/>
<path d="M87.3288 92.3188H86.3014V92.9763H87.3288V92.3188Z" fill="#F7FCC9"/>
<path d="M95.6413 107.533H93.5865V108.566H95.6413V107.533Z" fill="#F7FCC9"/>
<path d="M97.6962 103.776H96.2952V105.373H97.6962V103.776Z" fill="#F7FCC9"/>
<path d="M104.421 101.992H103.207V103.401H104.421V101.992Z" fill="#F7FCC9"/>
<path d="M99.3773 106.125H98.5367V106.876H99.3773V106.125Z" fill="#F7FCC9"/>
<path d="M77.1482 92.1309H76.3076V92.8822H77.1482V92.1309Z" fill="#F7FCC9"/>
<path d="M59.8693 81.4248H59.4957V81.6126H59.8693V81.4248Z" fill="#F7FCC9"/>
<path d="M63.2316 84.8994H61.3636V87.3412H63.2316V84.8994Z" fill="#F7FCC9"/>
<path d="M59.4957 86.9658H58.0947V89.032H59.4957V86.9658Z" fill="#F7FCC9"/>
<path d="M60.7099 83.4907H59.1221V84.1481H60.7099V83.4907Z" fill="#F7FCC9"/>
<path d="M62.0174 92.8823H60.8032V95.1363H62.0174V92.8823Z" fill="#F7FCC9"/>
<path d="M58.0946 98.7051H56.5068V100.302H58.0946V98.7051Z" fill="#F7FCC9"/>
<path d="M59.7758 102.368H57.9078V104.809H59.7758V102.368Z" fill="#F7FCC9"/>
<path d="M69.7696 101.522H67.9016V103.964H69.7696V101.522Z" fill="#F7FCC9"/>
<path d="M74.6264 93.3521H72.3848V95.4182H74.6264V93.3521Z" fill="#F7FCC9"/>
<path d="M79.2964 96.6387H77.0548V98.8926H79.2964V96.6387Z" fill="#F7FCC9"/>
<path d="M68.2752 88.8438H67.9016V89.0316H68.2752V88.8438Z" fill="#F7FCC9"/>
<path d="M72.198 85.3691H70.797V87.6231H72.198V85.3691Z" fill="#F7FCC9"/>
<path d="M64.6326 89.2197H63.2316V91.4737H64.6326V89.2197Z" fill="#F7FCC9"/>
<path d="M85.4608 99.9258H85.0872V100.301H85.4608V99.9258Z" fill="#F7FCC9"/>
<path d="M90.5978 98.4233H89.5704V100.302H90.5978V98.4233Z" fill="#F7FCC9"/>
<path d="M82.7522 94.3848H81.3512V95.23H82.7522V94.3848Z" fill="#F7FCC9"/>
<path d="M82.005 105.185H79.7634V106.218H82.005V105.185Z" fill="#F7FCC9"/>
<path d="M85.4608 102.931H83.2192V103.964H85.4608V102.931Z" fill="#F7FCC9"/>
<path d="M89.5704 106.03H88.9166V108.096H89.5704V106.03Z" fill="#F7FCC9"/>
<path d="M91.7185 103.776H90.1307V105.843H91.7185V103.776Z" fill="#F7FCC9"/>
<path d="M92.4657 103.213H91.812V103.87H92.4657V103.213Z" fill="#F7FCC9"/>
<path d="M61.7372 90.6284H60.3362V91.2858H61.7372V90.6284Z" fill="#F7FCC9"/>
<path d="M59.3088 94.3848H57.254V95.9813H59.3088V94.3848Z" fill="#F7FCC9"/>
<path d="M58.2814 91.2856H57.9078V92.5065H58.2814V91.2856Z" fill="#F7FCC9"/>
<path d="M63.4184 98.0479H62.2042V99.0809H63.4184V98.0479Z" fill="#F7FCC9"/>
<path d="M60.3363 99.0806H59.1221V100.114H60.3363V99.0806Z" fill="#F7FCC9"/>
<path d="M63.6052 101.71H62.3911V102.744H63.6052V101.71Z" fill="#F7FCC9"/>
<path d="M66.8742 85.9326H65.66V87.8109H66.8742V85.9326Z" fill="#F7FCC9"/>
<path d="M73.599 91.0977H72.3848V92.976H73.599V91.0977Z" fill="#F7FCC9"/>
<path d="M42.5903 133.172C52.9576 136.271 76.2142 133.829 80.5106 130.073C84.8069 126.41 77.4284 111.008 73.132 106.688C68.929 102.368 40.1619 100.489 40.1619 100.489C32.7833 101.147 33.9975 122.653 33.9975 122.653C33.9975 129.415 42.5903 133.172 42.5903 133.172Z" fill="#E17A03"/>
<path d="M55.386 134.956C65.9402 134.956 77.7086 133.078 80.8842 130.354C81.9116 129.415 82.3786 128.006 82.3786 126.222C82.3786 119.93 77.0548 109.787 73.599 106.218C71.1706 103.87 62.9514 102.461 55.1992 101.428C47.4471 100.395 40.2553 99.9258 40.2553 99.9258C37.0797 100.208 35.5853 103.682 34.6513 107.533C33.8107 111.477 33.6239 116.079 33.6239 119.178C33.6239 121.245 33.7173 122.559 33.7173 122.559C33.8107 129.697 42.5903 133.36 42.5903 133.454L42.7771 132.984L42.6837 133.454C45.8593 134.581 50.4359 134.956 55.386 134.956ZM38.5741 130.073C36.5193 128.382 34.4645 125.846 34.4645 122.653C34.4645 122.653 34.3711 121.338 34.3711 119.272C34.3711 116.267 34.5579 111.665 35.3985 107.909C36.2391 104.058 37.7335 101.147 40.0685 100.959C40.6289 100.959 47.5405 101.428 54.919 102.461C62.5778 103.401 70.8904 105.091 72.7584 107.063C76.0274 110.35 81.2578 120.587 81.2578 126.41C81.2578 128.006 80.8842 129.133 80.137 129.791C77.5218 132.139 65.66 134.205 55.1992 134.111C50.3425 134.111 45.8593 133.735 42.5903 132.702C42.4969 132.608 40.5355 131.669 38.5741 130.073Z" fill="#FFDE89"/>
<path d="M73.7858 111.008C75 107.345 70.7036 106.688 70.7036 106.688L40.1619 100.489C31.0087 107.251 49.3151 117.112 49.3151 117.112C57.254 117.77 73.7858 111.008 73.7858 111.008Z" fill="#F3C511"/>
<path d="M45.6725 119.554C39.5081 119.554 36.5193 108.472 36.5193 108.472L34.6513 117.676C33.9975 130.636 45.0187 132.421 45.0187 132.421C49.9689 132.514 45.6725 119.554 45.6725 119.554Z" fill="#BC5004"/>
<path d="M56.2267 102.743H54.6389V103.776H56.2267V102.743Z" fill="#F7FCC9"/>
<path d="M60.6164 106.5H58.5616V108.754H60.6164V106.5Z" fill="#F7FCC9"/>
<path d="M42.2167 102.556H41.3761V102.931H42.2167V102.556Z" fill="#F7FCC9"/>
<path d="M51.3699 109.505H49.5019V111.572H51.3699V109.505Z" fill="#F7FCC9"/>
<path d="M50.9029 106.5H48.4745V107.721H50.9029V106.5Z" fill="#F7FCC9"/>
<path d="M47.447 103.401H46.2328V104.622H47.447V103.401Z" fill="#F7FCC9"/>
<path d="M51.5566 102.368H50.5292V103.776H51.5566V102.368Z" fill="#F7FCC9"/>
<path d="M65.3798 102.556H63.7921V105.185H65.3798V102.556Z" fill="#F7FCC9"/>
<path d="M69.9564 105.655H67.528V108.942H69.9564V105.655Z" fill="#F7FCC9"/>
<path d="M62.0174 103.776H60.1494V104.152H62.0174V103.776Z" fill="#F7FCC9"/>
<path d="M40.9091 100.114H39.3213V101.147H40.9091V100.114Z" fill="#F7FCC9"/>
<path d="M45.3923 100.302H42.9639V102.18H45.3923V100.302Z" fill="#F7FCC9"/>
<path d="M40.5355 106.875H37.9203V107.251H40.5355V106.875Z" fill="#F7FCC9"/>
<path d="M38.8543 101.992H37.2665V102.837H38.8543V101.992Z" fill="#F7FCC9"/>
<path d="M45.4857 106.688H43.4309V108.754H45.4857V106.688Z" fill="#F7FCC9"/>
<path d="M40.7223 106.03H38.4807V108.284H40.7223V106.03Z" fill="#F7FCC9"/>
<path d="M45.6725 111.759H44.4583V112.792H45.6725V111.759Z" fill="#F7FCC9"/>
<path d="M50.9029 113.45H49.5019V116.549H50.9029V113.45Z" fill="#F7FCC9"/>
<path d="M56.6937 110.726H55.2927V111.947H56.6937V110.726Z" fill="#F7FCC9"/>
<path d="M59.6824 109.317H59.3088V110.914H59.6824V109.317Z" fill="#F7FCC9"/>
<path d="M64.3524 112.792H61.7372V114.671H64.3524V112.792Z" fill="#F7FCC9"/>
<path d="M66.2205 109.975H64.8195V111.008H66.2205V109.975Z" fill="#F7FCC9"/>
<path d="M72.8518 112.323H71.4508V113.356H72.8518V112.323Z" fill="#F7FCC9"/>
<path d="M73.0386 117.207H71.6376V118.24H73.0386V117.207Z" fill="#F7FCC9"/>
<path d="M76.868 114.765H75.467V115.798H76.868V114.765Z" fill="#F7FCC9"/>
<path d="M80.7908 123.499H79.3898V124.532H80.7908V123.499Z" fill="#F7FCC9"/>
<path d="M76.5878 120.118H75.1868V121.151H76.5878V120.118Z" fill="#F7FCC9"/>
<path d="M76.5878 128.758H75.1868V129.791H76.5878V128.758Z" fill="#F7FCC9"/>
<path d="M76.868 126.128H75.467V127.068H76.868V126.128Z" fill="#F7FCC9"/>
<path d="M56.5068 124.062H55.1058V125.001H56.5068V124.062Z" fill="#F7FCC9"/>
<path d="M63.8854 122.184H62.4844V123.123H63.8854V122.184Z" fill="#F7FCC9"/>
<path d="M64.0722 126.974H62.6712V127.913H64.0722V126.974Z" fill="#F7FCC9"/>
<path d="M71.5442 120.211H70.1432V121.151H71.5442V120.211Z" fill="#F7FCC9"/>
<path d="M59.4957 118.803H58.0947V119.742H59.4957V118.803Z" fill="#F7FCC9"/>
<path d="M45.2055 118.803H43.8045V119.742H45.2055V118.803Z" fill="#F7FCC9"/>
<path d="M44.0847 122.184H42.6837V123.123H44.0847V122.184Z" fill="#F7FCC9"/>
<path d="M42.4969 117.112H41.0959V118.051H42.4969V117.112Z" fill="#F7FCC9"/>
<path d="M41.2827 126.692H39.8817V127.631H41.2827V126.692Z" fill="#F7FCC9"/>
<path d="M39.4147 123.217H38.0137V124.156H39.4147V123.217Z" fill="#F7FCC9"/>
<path d="M35.8655 120.587H34.4645V121.527H35.8655V120.587Z" fill="#F7FCC9"/>
<path d="M36.1457 115.234H34.7447V116.173H36.1457V115.234Z" fill="#F7FCC9"/>
<path d="M45.2055 114.013H43.8045V114.952H45.2055V114.013Z" fill="#F7FCC9"/>
<path d="M70.8904 108.472H69.3026V110.069H70.8904V108.472Z" fill="#F7FCC9"/>
<path d="M63.6052 106.03H62.0175V108.096H63.6052V106.03Z" fill="#F7FCC9"/>
<path d="M52.3973 105.467H52.0237V105.655H52.3973V105.467Z" fill="#F7FCC9"/>
<path d="M56.0399 102.743H54.6389V104.621H56.0399V102.743Z" fill="#F7FCC9"/>
<path d="M56.4134 105.655H55.0125V106.688H56.4134V105.655Z" fill="#F7FCC9"/>
<path d="M49.5019 103.964H48.1009V104.997H49.5019V103.964Z" fill="#F7FCC9"/>
<path d="M41.9365 103.589H40.7223V105.655H41.9365V103.589Z" fill="#F7FCC9"/>
<path d="M48.3811 100.302H46.5131V101.71H48.3811V100.302Z" fill="#F7FCC9"/>
<path d="M56.6002 114.483H55.0125V116.549H56.6002V114.483Z" fill="#F7FCC9"/>
<path d="M57.9078 113.262H56.8804V114.483H57.9078V113.262Z" fill="#F7FCC9"/>
<path d="M72.5716 106.5H71.5442V107.721H72.5716V106.5Z" fill="#F7FCC9"/>
<path d="M73.599 108.754H72.5716V109.975H73.599V108.754Z" fill="#F7FCC9"/>
<path d="M66.2205 104.998H64.8195V106.218H66.2205V104.998Z" fill="#F7FCC9"/>
<path d="M54.6389 106.688H53.2379V107.909H54.6389V106.688Z" fill="#F7FCC9"/>
<path d="M46.8867 108.754H45.4857V109.787H46.8867V108.754Z" fill="#F7FCC9"/>
<path d="M46.2329 104.434H44.8319V105.843H46.2329V104.434Z" fill="#F7FCC9"/>
<path d="M41.3761 101.992H38.9477V103.025H41.3761V101.992Z" fill="#F7FCC9"/>
<path d="M53.7982 101.71H52.2104V102.744H53.7982V101.71Z" fill="#F7FCC9"/>
<path d="M59.589 108.754H58.5616V110.163H59.589V108.754Z" fill="#F7FCC9"/>
<path d="M63.2316 110.351H62.5778V111.196H63.2316V110.351Z" fill="#F7FCC9"/>
<path d="M55.0124 106.688H53.985V108.566H55.0124V106.688Z" fill="#F7FCC9"/>
<path d="M52.2105 107.721H50.9963V109.129H52.2105V107.721Z" fill="#F7FCC9"/>
<path d="M53.4247 110.726H52.0237V111.571H53.4247V110.726Z" fill="#F7FCC9"/>
<path d="M58.9352 101.992H56.8804V103.87H58.9352V101.992Z" fill="#F7FCC9"/>
<path d="M68.929 110.726H68.0884V111.759H68.929V110.726Z" fill="#F7FCC9"/>
<path d="M66.127 112.417H65.4732V113.637H66.127V112.417Z" fill="#F7FCC9"/>
<path d="M44.6451 111.384H43.8045V113.45H44.6451V111.384Z" fill="#F7FCC9"/>
<path d="M46.6999 116.737H45.8593V118.803H46.6999V116.737Z" fill="#F7FCC9"/>
<path d="M61.8306 117.958H59.9626V120.024H61.8306V117.958Z" fill="#F7FCC9"/>
<path d="M66.3138 117.112H64.4458V119.178H66.3138V117.112Z" fill="#F7FCC9"/>
<path d="M36.6127 106.688H34.7447V108.754H36.6127V106.688Z" fill="#F7FCC9"/>
<path d="M38.6675 111.571H36.7995V113.637H38.6675V111.571Z" fill="#F7FCC9"/>
<path d="M35.9589 110.726H34.0909V112.792H35.9589V110.726Z" fill="#F7FCC9"/>
<path d="M36.4259 114.67H34.5579V116.737H36.4259V114.67Z" fill="#F7FCC9"/>
<path d="M35.7721 124.907H33.9041V126.973H35.7721V124.907Z" fill="#F7FCC9"/>
<path d="M36.6127 121.433H34.7447V123.499H36.6127V121.433Z" fill="#F7FCC9"/>
<path d="M35.2117 118.991H33.3437V121.057H35.2117V118.991Z" fill="#F7FCC9"/>
<path d="M39.6015 119.554H37.7335V121.62H39.6015V119.554Z" fill="#F7FCC9"/>
<path d="M40.3487 116.08H38.4807V118.146H40.3487V116.08Z" fill="#F7FCC9"/>
<path d="M47.3537 123.875H45.4857V125.941H47.3537V123.875Z" fill="#F7FCC9"/>
<path d="M76.2142 113.262H74.3462V115.328H76.2142V113.262Z" fill="#F7FCC9"/>
<path d="M81.7248 125.94H79.8568V128.007H81.7248V125.94Z" fill="#F7FCC9"/>
<path d="M76.2142 124.532H74.3462V126.598H76.2142V124.532Z" fill="#F7FCC9"/>
<path d="M79.4832 121.433H77.6152V123.499H79.4832V121.433Z" fill="#F7FCC9"/>
<path d="M77.4284 117.582H75.5604V119.648H77.4284V117.582Z" fill="#F7FCC9"/>
<path d="M80.0436 117.112H78.1756V119.178H80.0436V117.112Z" fill="#F7FCC9"/>
<path d="M75.5604 108.472H73.6924V110.538H75.5604V108.472Z" fill="#F7FCC9"/>
<path d="M71.264 115.328H69.396V117.394H71.264V115.328Z" fill="#F7FCC9"/>
<path d="M51.2764 120.211H49.4084V122.278H51.2764V120.211Z" fill="#F7FCC9"/>
<path d="M51.7435 129.228H49.8755V131.294H51.7435V129.228Z" fill="#F7FCC9"/>
<path d="M47.4471 130.448H45.5791V132.514H47.4471V130.448Z" fill="#F7FCC9"/>
<path d="M42.3101 128.382H40.4421V130.448H42.3101V128.382Z" fill="#F7FCC9"/>
<path d="M60.8966 130.261H59.0286V132.327H60.8966V130.261Z" fill="#F7FCC9"/>
<path d="M71.731 127.631H69.863V129.697H71.731V127.631Z" fill="#F7FCC9"/>
<path d="M52.4906 111.008C62.858 107.909 60.4296 95.0424 60.4296 95.0424C59.7758 83.303 21.2951 77.1985 21.2951 77.1985C18.8667 76.5411 13.9165 79.6403 13.9165 79.6403L10.8344 101.147C12.7023 114.013 52.4906 111.008 52.4906 111.008Z" fill="#FFAB0B"/>
<path d="M22.6961 109.975C29.0473 111.477 36.7061 111.759 42.6837 111.759C48.3811 111.759 52.4907 111.477 52.4907 111.477H52.5841C59.9626 109.317 61.1768 102.368 61.0834 98.2353C61.0834 96.4509 60.8966 95.1361 60.8032 94.9483C60.4296 88.562 50.4359 84.2419 40.8157 81.2366C31.1021 78.2313 21.3885 76.7287 21.3885 76.7287C21.2017 76.6348 20.9215 76.6348 20.5479 76.6348C17.746 76.6348 13.7298 79.2644 13.6364 79.2644L13.4496 79.3583L10.3674 101.147V101.241C11.1146 105.936 16.345 108.472 22.6961 109.975ZM14.3836 79.8279C14.7572 79.6401 15.5044 79.1705 16.5318 78.7009C17.8394 78.0435 19.4271 77.48 20.6413 77.48C20.8281 77.48 21.1083 77.48 21.2951 77.5739C21.3885 77.5739 30.9153 79.0766 40.6289 82.0819C50.3425 84.9932 59.9626 89.689 60.1494 94.9483C60.1494 94.9483 60.4296 96.2631 60.4296 98.0475C60.4296 101.992 59.3088 108.378 52.5841 110.35C52.1171 110.35 48.1943 110.632 42.8705 110.632C36.8929 110.632 29.3275 110.256 23.0697 108.848C16.812 107.439 12.142 104.903 11.4882 100.959L14.3836 79.8279Z" fill="#FFDE89"/>
<path d="M58.0012 91.8492C53.1445 83.209 21.2951 77.1045 21.2951 77.1045L13.9166 79.5463C14.5704 87.5291 40.2553 93.0701 40.2553 93.0701C54.3587 94.3849 58.0012 91.8492 58.0012 91.8492Z" fill="#FDDC19"/>
<path d="M43.3375 109.787C56.787 108.566 32.9701 103.025 32.9701 103.025C22.6027 99.3624 14.01 85.1812 14.01 85.1812L11.4882 102.368C19.4271 113.45 43.3375 109.787 43.3375 109.787Z" fill="#E75F02"/>
<path d="M23.9103 77.5742H22.3225V78.7951H23.9103V77.5742Z" fill="#F7FCC9"/>
<path d="M33.1569 81.8003H31.2889V84.0543H33.1569V81.8003Z" fill="#F7FCC9"/>
<path d="M52.6775 87.9985H51.0897V89.8768H52.6775V87.9985Z" fill="#F7FCC9"/>
<path d="M53.3313 93.3521H52.1171V95.7938H53.3313V93.3521Z" fill="#F7FCC9"/>
<path d="M45.2055 92.5068H43.3375V93.9156H45.2055V92.5068Z" fill="#F7FCC9"/>
<path d="M45.7659 96.4512H44.9253V97.2964H45.7659V96.4512Z" fill="#F7FCC9"/>
<path d="M39.2279 87.623H37.3599V88.4683H39.2279V87.623Z" fill="#F7FCC9"/>
<path d="M43.1507 86.1206H41.0959V87.5293H43.1507V86.1206Z" fill="#F7FCC9"/>
<path d="M39.6949 83.8662H37.8269V86.1202H39.6949V83.8662Z" fill="#F7FCC9"/>
<path d="M29.8879 84.0542H28.0199V86.1203H29.8879V84.0542Z" fill="#F7FCC9"/>
<path d="M28.0199 78.5132H26.1519V80.5793H28.0199V78.5132Z" fill="#F7FCC9"/>
<path d="M19.4272 77.2925H17.8394V78.3255H19.4272V77.2925Z" fill="#F7FCC9"/>
<path d="M21.949 81.0488H19.8942V83.115H21.949V81.0488Z" fill="#F7FCC9"/>
<path d="M36.6127 79.1704H34.3711V81.4244H36.6127V79.1704Z" fill="#F7FCC9"/>
<path d="M46.9801 89.877H45.3923V91.4735H46.9801V89.877Z" fill="#F7FCC9"/>
<path d="M47.3537 86.5898H45.7659V86.7777H47.3537V86.5898Z" fill="#F7FCC9"/>
<path d="M45.5791 83.6787H43.7111V85.0874H45.5791V83.6787Z" fill="#F7FCC9"/>
<path d="M55.2926 89.4072H53.7048V91.2855H55.2926V89.4072Z" fill="#F7FCC9"/>
<path d="M56.4134 89.4072H55.386V90.0646H56.4134V89.4072Z" fill="#F7FCC9"/>
<path d="M40.6289 81.2368H39.0411V82.2699H40.6289V81.2368Z" fill="#F7FCC9"/>
<path d="M25.3113 82.6455H23.9103V83.6786H25.3113V82.6455Z" fill="#F7FCC9"/>
<path d="M16.8119 80.0156H15.7845V81.4244H16.8119V80.0156Z" fill="#F7FCC9"/>
<path d="M19.4272 83.8662H17.3724V85.0871H19.4272V83.8662Z" fill="#F7FCC9"/>
<path d="M24.7509 79.8281H24.0971V81.049H24.7509V79.8281Z" fill="#F7FCC9"/>
<path d="M30.2615 79.8281H29.4209V80.4855H30.2615V79.8281Z" fill="#F7FCC9"/>
<path d="M33.7173 87.1533H32.1295V89.0316H33.7173V87.1533Z" fill="#F7FCC9"/>
<path d="M42.1233 89.4072H41.0959V91.2855H42.1233V89.4072Z" fill="#F7FCC9"/>
<path d="M51.0897 85.9326H49.2217V87.9988H51.0897V85.9326Z" fill="#F7FCC9"/>
<path d="M47.8207 83.6787H46.9801V84.0544H47.8207V83.6787Z" fill="#F7FCC9"/>
<path d="M36.2391 84.3359H35.3985V84.7116H36.2391V84.3359Z" fill="#F7FCC9"/>
<path d="M35.3051 90.9102H33.9041V93.352H35.3051V90.9102Z" fill="#F7FCC9"/>
<path d="M41.0959 90.6284H38.8543V92.5067H41.0959V90.6284Z" fill="#F7FCC9"/>
<path d="M50.7161 90.4404H50.0623V91.8492H50.7161V90.4404Z" fill="#F7FCC9"/>
<path d="M22.7895 84.8994H22.1357V85.9325H22.7895V84.8994Z" fill="#F7FCC9"/>
<path d="M26.8057 86.7778H25.7783V87.4352H26.8057V86.7778Z" fill="#F7FCC9"/>
<path d="M30.8219 87.3413H29.6077V88.9379H30.8219V87.3413Z" fill="#F7FCC9"/>
<path d="M29.7945 81.8003H28.2067V83.209H29.7945V81.8003Z" fill="#F7FCC9"/>
<path d="M24.5641 76.9165H22.5093V78.1374H24.5641V76.9165Z" fill="#F7FCC9"/>
<path d="M34.7447 81.0488H33.5305V83.4906H34.7447V81.0488Z" fill="#F7FCC9"/>
<path d="M38.3873 84.3359H36.7995V86.4021H38.3873V84.3359Z" fill="#F7FCC9"/>
<path d="M36.7995 88.3745H34.5579V89.7832H36.7995V88.3745Z" fill="#F7FCC9"/>
<path d="M39.6949 84.3359H36.7995V86.2142H39.6949V84.3359Z" fill="#F7FCC9"/>
<path d="M40.0685 85.9326H39.0411V87.5292H40.0685V85.9326Z" fill="#F7FCC9"/>
<path d="M38.3873 88.3745H37.3599V89.9711H38.3873V88.3745Z" fill="#F7FCC9"/>
<path d="M45.3923 89.4072H43.5243V91.4734H45.3923V89.4072Z" fill="#F7FCC9"/>
<path d="M48.2876 88.6562H47.6339V90.7224H48.2876V88.6562Z" fill="#F7FCC9"/>
<path d="M53.3313 91.4736H51.0897V93.3519H53.3313V91.4736Z" fill="#F7FCC9"/>
<path d="M42.7771 83.8662H42.1233V84.2419H42.7771V83.8662Z" fill="#F7FCC9"/>
<path d="M47.6339 86.7778H45.7659V88.6561H47.6339V86.7778Z" fill="#F7FCC9"/>
<path d="M53.7982 88.938H51.9302V90.8163H53.7982V88.938Z" fill="#F7FCC9"/>
<path d="M57.5343 91.6611H55.9465V93.0699H57.5343V91.6611Z" fill="#F7FCC9"/>
<path d="M22.8829 78.1377H22.5093V78.7951H22.8829V78.1377Z" fill="#F7FCC9"/>
<path d="M28.0199 79.1704H25.7783V80.5791H28.0199V79.1704Z" fill="#F7FCC9"/>
<path d="M27.1793 83.6787H24.9377V85.0874H27.1793V83.6787Z" fill="#F7FCC9"/>
<path d="M29.8879 84.0542H28.0199V86.1203H29.8879V84.0542Z" fill="#F7FCC9"/>
<path d="M30.9153 87.623H28.8605V89.0318H30.9153V87.623Z" fill="#F7FCC9"/>
<path d="M35.3985 82.4575H33.5305V84.3358H35.3985V82.4575Z" fill="#F7FCC9"/>
<path d="M44.3649 85.0874H43.1507V85.9326H44.3649V85.0874Z" fill="#F7FCC9"/>
<path d="M50.4359 99.9258H48.8481V101.522H50.4359V99.9258Z" fill="#F7FCC9"/>
<path d="M58.188 97.2021H56.787V98.0474H58.188V97.2021Z" fill="#F7FCC9"/>
<path d="M53.2378 106.218H51.65V107.627H53.2378V106.218Z" fill="#F7FCC9"/>
<path d="M55.7597 103.589H54.1719V104.998H55.7597V103.589Z" fill="#F7FCC9"/>
<path d="M55.7597 96.4512H52.8643V98.5173H55.7597V96.4512Z" fill="#F7FCC9"/>
<path d="M60.4296 93.3521H59.0286V94.9486H60.4296V93.3521Z" fill="#F7FCC9"/>
<path d="M48.5679 94.3848H47.1669V95.9813H48.5679V94.3848Z" fill="#F7FCC9"/>
<path d="M56.0399 99.9258H54.1719V101.522H56.0399V99.9258Z" fill="#F7FCC9"/>
<path d="M59.4957 99.7383H58.8419V100.584H59.4957V99.7383Z" fill="#F7FCC9"/>
<path d="M49.3151 102.931H48.6613V103.776H49.3151V102.931Z" fill="#F7FCC9"/>
<path d="M41.2827 93.1641H40.2553V93.8215H41.2827V93.1641Z" fill="#F7FCC9"/>
<path d="M49.6886 108.284H47.6339V109.317H49.6886V108.284Z" fill="#F7FCC9"/>
<path d="M51.6501 104.622H50.2491V106.218H51.6501V104.622Z" fill="#F7FCC9"/>
<path d="M58.3748 102.743H57.1606V104.152H58.3748V102.743Z" fill="#F7FCC9"/>
<path d="M53.3313 106.97H52.4907V107.721H53.3313V106.97Z" fill="#F7FCC9"/>
<path d="M31.1021 92.8823H30.2615V93.6336H31.1021V92.8823Z" fill="#F7FCC9"/>
<path d="M13.9166 82.27H13.543V82.4579H13.9166V82.27Z" fill="#F7FCC9"/>
<path d="M17.1856 85.7446H15.3176V88.1864H17.1856V85.7446Z" fill="#F7FCC9"/>
<path d="M13.543 87.811H12.142V89.8772H13.543V87.811Z" fill="#F7FCC9"/>
<path d="M14.6638 84.3359H13.076V84.9933H14.6638V84.3359Z" fill="#F7FCC9"/>
<path d="M15.9713 93.7275H14.7571V95.9815H15.9713V93.7275Z" fill="#F7FCC9"/>
<path d="M12.0485 99.4565H10.4608V101.053H12.0485V99.4565Z" fill="#F7FCC9"/>
<path d="M13.7298 103.213H11.8618V105.655H13.7298V103.213Z" fill="#F7FCC9"/>
<path d="M23.7235 102.368H21.8555V104.809H23.7235V102.368Z" fill="#F7FCC9"/>
<path d="M28.5803 94.1973H26.3387V96.2634H28.5803V94.1973Z" fill="#F7FCC9"/>
<path d="M33.3437 97.3901H31.1021V99.6441H33.3437V97.3901Z" fill="#F7FCC9"/>
<path d="M22.2291 89.5952H21.8555V89.783H22.2291V89.5952Z" fill="#F7FCC9"/>
<path d="M26.1519 86.1206H24.7509V88.3746H26.1519V86.1206Z" fill="#F7FCC9"/>
<path d="M18.5865 90.0649H17.1855V92.3189H18.5865V90.0649Z" fill="#F7FCC9"/>
<path d="M39.4147 100.677H39.0411V101.053H39.4147V100.677Z" fill="#F7FCC9"/>
<path d="M44.5517 99.2686H43.5243V101.147H44.5517V99.2686Z" fill="#F7FCC9"/>
<path d="M36.7995 95.1362H35.3985V95.9815H36.7995V95.1362Z" fill="#F7FCC9"/>
<path d="M35.9589 106.03H33.7173V107.063H35.9589V106.03Z" fill="#F7FCC9"/>
<path d="M39.4147 103.776H37.1731V104.809H39.4147V103.776Z" fill="#F7FCC9"/>
<path d="M43.5243 106.875H42.8705V108.942H43.5243V106.875Z" fill="#F7FCC9"/>
<path d="M45.7659 104.622H44.1781V106.688H45.7659V104.622Z" fill="#F7FCC9"/>
<path d="M46.4197 103.964H45.7659V104.622H46.4197V103.964Z" fill="#F7FCC9"/>
<path d="M15.7845 91.4736H14.3835V92.131H15.7845V91.4736Z" fill="#F7FCC9"/>
<path d="M13.3562 95.1362H11.3014V96.7328H13.3562V95.1362Z" fill="#F7FCC9"/>
<path d="M12.2354 92.1309H11.8618V93.3518H12.2354V92.1309Z" fill="#F7FCC9"/>
<path d="M17.3723 98.8931H16.1581V99.9261H17.3723V98.8931Z" fill="#F7FCC9"/>
<path d="M14.2902 99.9258H13.076V100.959H14.2902V99.9258Z" fill="#F7FCC9"/>
<path d="M17.5592 102.556H16.345V103.589H17.5592V102.556Z" fill="#F7FCC9"/>
<path d="M20.8281 86.7778H19.614V88.6561H20.8281V86.7778Z" fill="#F7FCC9"/>
<path d="M27.5529 91.8491H26.3387V93.7274H27.5529V91.8491Z" fill="#F7FCC9"/>
<path d="M136.55 121.62C136.55 121.62 145.89 119.93 147.291 113.262C147.291 113.262 153.082 92.5064 145.89 90.2524C145.89 90.2524 116.843 85.7445 111.613 89.0315C106.382 92.3186 95.8281 105.748 99.2839 110.256C102.833 114.858 125.529 122.371 136.55 121.62Z" fill="#FFAB0B"/>
<path d="M147.758 113.356C147.758 113.356 150 105.467 150 98.7051C150 94.5728 149.159 90.8162 146.077 89.7831C146.077 89.7831 130.386 87.3413 119.925 87.3413C116.096 87.3413 113.107 87.6231 111.519 88.5622C106.943 91.5675 98.3499 101.804 98.3499 107.909C98.3499 108.848 98.5367 109.787 99.0971 110.538C100.965 112.886 106.943 115.704 114.041 118.052C121.139 120.4 129.265 122.184 135.056 122.184C135.616 122.184 136.177 122.184 136.644 122.09V121.62L136.737 122.09C136.644 122.09 146.171 120.4 147.758 113.356ZM136.457 121.151C135.99 121.151 135.523 121.151 134.963 121.151C129.359 121.151 121.233 119.366 114.228 117.112C107.223 114.859 101.152 111.947 99.6575 109.975C99.2839 109.411 99.0971 108.754 99.0971 107.909C99.0037 102.556 107.503 92.0371 111.893 89.4074C113.014 88.6561 116.002 88.2805 119.645 88.2805C119.738 88.2805 119.738 88.2805 119.832 88.2805C124.969 88.2805 131.507 88.844 136.644 89.5014C141.594 90.0649 145.33 90.6283 145.704 90.7223C148.039 91.3797 148.973 94.6667 148.973 98.7051C148.973 105.185 146.731 113.074 146.731 113.074C146.077 116.173 143.462 118.239 141.034 119.46C138.792 120.681 136.644 121.151 136.457 121.151Z" fill="#FFDE89"/>
<path d="M145.984 90.3464L114.135 89.5951C114.135 89.5951 109.745 89.2194 110.212 93.1638C110.212 93.1638 125.249 103.401 133.281 104.528C133.281 104.528 153.643 98.9866 145.984 90.3464Z" fill="#FDDC19"/>
<path d="M147.758 108.378L147.852 98.9868C147.852 98.9868 142.435 109.13 136.364 107.815C136.364 107.815 129.359 119.46 134.215 120.587C134.215 120.493 145.61 121.151 147.758 108.378Z" fill="#E75F02"/>
<path d="M129.418 89.0183L129.197 90.0273L130.839 90.39L131.06 89.3809L129.418 89.0183Z" fill="#F7FCC9"/>
<path d="M124.372 91.6052L123.891 93.8066L125.898 94.2498L126.379 92.0484L124.372 91.6052Z" fill="#F7FCC9"/>
<path d="M143.478 91.8885L143.398 92.2554L144.219 92.4366L144.299 92.0697L143.478 91.8885Z" fill="#F7FCC9"/>
<path d="M132.832 96.6161L132.392 98.6343L134.217 99.0364L134.657 97.0182L132.832 96.6161Z" fill="#F7FCC9"/>
<path d="M133.888 93.7226L133.627 94.915L136.09 95.4589L136.351 94.2665L133.888 93.7226Z" fill="#F7FCC9"/>
<path d="M137.96 91.5178L137.701 92.7104L138.887 92.9714L139.146 91.7787L137.96 91.5178Z" fill="#F7FCC9"/>
<path d="M134.149 89.5832L133.847 90.959L134.851 91.1812L135.152 89.8054L134.149 89.5832Z" fill="#F7FCC9"/>
<path d="M120.31 86.8306L119.749 89.3989L121.391 89.7615L121.952 87.1932L120.31 86.8306Z" fill="#F7FCC9"/>
<path d="M115.182 88.7575L114.483 91.9683L116.946 92.5109L117.646 89.3001L115.182 88.7575Z" fill="#F7FCC9"/>
<path d="M123.478 88.7772L123.398 89.144L125.222 89.5477L125.302 89.1808L123.478 88.7772Z" fill="#F7FCC9"/>
<path d="M145.243 89.7122L145.023 90.7212L146.665 91.0841L146.885 90.0751L145.243 89.7122Z" fill="#F7FCC9"/>
<path d="M140.705 88.8703L140.305 90.7051L142.768 91.2482L143.169 89.4135L140.705 88.8703Z" fill="#F7FCC9"/>
<path d="M144.2 96.4935L144.12 96.8604L146.765 97.4456L146.845 97.0788L144.2 96.4935Z" fill="#F7FCC9"/>
<path d="M146.902 91.9373L146.72 92.7627L148.362 93.1273L148.543 92.302L146.902 91.9373Z" fill="#F7FCC9"/>
<path d="M139.325 95.1885L138.884 97.2065L140.891 97.6499L141.332 95.6319L139.325 95.1885Z" fill="#F7FCC9"/>
<path d="M144.157 95.5632L143.676 97.7646L145.957 98.2685L146.438 96.0671L144.157 95.5632Z" fill="#F7FCC9"/>
<path d="M138.033 100.102L137.813 101.111L138.999 101.373L139.219 100.364L138.033 100.102Z" fill="#F7FCC9"/>
<path d="M132.437 100.579L131.776 103.606L133.235 103.928L133.896 100.901L132.437 100.579Z" fill="#F7FCC9"/>
<path d="M127.291 96.7444L127.03 97.937L128.49 98.2592L128.75 97.0666L127.291 96.7444Z" fill="#F7FCC9"/>
<path d="M124.502 94.6665L124.222 96.2631L124.595 96.357L124.969 94.6665H124.502Z" fill="#F7FCC9"/>
<path d="M119.13 96.9231L118.73 98.7578L121.375 99.3409L121.775 97.5062L119.13 96.9231Z" fill="#F7FCC9"/>
<path d="M117.915 93.8092L117.696 94.8184L119.156 95.1396L119.375 94.1304L117.915 93.8092Z" fill="#F7FCC9"/>
<path d="M110.809 94.6466L110.589 95.6558L112.049 95.977L112.269 94.9678L110.809 94.6466Z" fill="#F7FCC9"/>
<path d="M109.584 99.3851L109.363 100.394L110.823 100.717L111.043 99.7081L109.584 99.3851Z" fill="#F7FCC9"/>
<path d="M106.287 96.1646L106.068 97.1738L107.528 97.4948L107.747 96.4856L106.287 96.1646Z" fill="#F7FCC9"/>
<path d="M100.446 103.77L100.226 104.779L101.685 105.102L101.906 104.093L100.446 103.77Z" fill="#F7FCC9"/>
<path d="M105.44 101.442L105.22 102.452L106.68 102.773L106.9 101.764L105.44 101.442Z" fill="#F7FCC9"/>
<path d="M103.646 109.81L103.426 110.819L104.886 111.14L105.106 110.131L103.646 109.81Z" fill="#F7FCC9"/>
<path d="M103.85 107.199L103.65 108.117L105.11 108.438L105.31 107.521L103.85 107.199Z" fill="#F7FCC9"/>
<path d="M124.587 109.699L124.386 110.616L125.846 110.939L126.046 110.022L124.587 109.699Z" fill="#F7FCC9"/>
<path d="M117.608 106.257L117.407 107.174L118.867 107.496L119.067 106.579L117.608 106.257Z" fill="#F7FCC9"/>
<path d="M116.433 110.834L116.233 111.751L117.693 112.072L117.893 111.155L116.433 110.834Z" fill="#F7FCC9"/>
<path d="M110.4 102.602L110.2 103.519L111.66 103.84L111.86 102.923L110.4 102.602Z" fill="#F7FCC9"/>
<path d="M122.775 103.84L122.575 104.757L124.034 105.08L124.235 104.163L122.775 103.84Z" fill="#F7FCC9"/>
<path d="M136.959 107.007L136.758 107.924L138.218 108.247L138.418 107.33L136.959 107.007Z" fill="#F7FCC9"/>
<path d="M137.388 110.634L137.188 111.552L138.647 111.875L138.848 110.957L137.388 110.634Z" fill="#F7FCC9"/>
<path d="M140.061 105.991L139.861 106.908L141.321 107.229L141.521 106.312L140.061 105.991Z" fill="#F7FCC9"/>
<path d="M139.221 115.586L139.02 116.503L140.48 116.826L140.68 115.909L139.221 115.586Z" fill="#F7FCC9"/>
<path d="M141.79 112.629L141.59 113.546L143.049 113.869L143.25 112.952L141.79 112.629Z" fill="#F7FCC9"/>
<path d="M145.944 110.836L145.744 111.753L147.204 112.075L147.404 111.157L145.944 110.836Z" fill="#F7FCC9"/>
<path d="M146.798 105.557L146.598 106.475L148.058 106.796L148.257 105.878L146.798 105.557Z" fill="#F7FCC9"/>
<path d="M137.981 102.371L137.78 103.288L139.239 103.611L139.44 102.694L137.981 102.371Z" fill="#F7FCC9"/>
<path d="M113.511 91.3619L113.171 92.9214L114.813 93.2833L115.153 91.7238L113.511 91.3619Z" fill="#F7FCC9"/>
<path d="M121.387 90.5489L120.946 92.5669L122.588 92.9297L123.029 90.9117L121.387 90.5489Z" fill="#F7FCC9"/>
<path d="M132.721 92.4126L132.628 92.6004L133.095 92.6943V92.5065L132.721 92.4126Z" fill="#F7FCC9"/>
<path d="M129.571 88.999L129.17 90.8335L130.63 91.156L131.031 89.3214L129.571 88.999Z" fill="#F7FCC9"/>
<path d="M128.596 91.7045L128.375 92.7134L129.835 93.0363L130.056 92.0274L128.596 91.7045Z" fill="#F7FCC9"/>
<path d="M135.828 91.6923L135.607 92.7012L137.066 93.0241L137.287 92.0152L135.828 91.6923Z" fill="#F7FCC9"/>
<path d="M143.469 92.919L143.028 94.937L144.214 95.1989L144.655 93.1809L143.469 92.919Z" fill="#F7FCC9"/>
<path d="M137.839 88.3906L137.539 89.7666L139.364 90.1686L139.663 88.7925L137.839 88.3906Z" fill="#F7FCC9"/>
<path d="M126.531 100.281L126.09 102.299L127.732 102.662L128.173 100.644L126.531 100.281Z" fill="#F7FCC9"/>
<path d="M125.502 98.7973L125.242 99.9897L126.245 100.211L126.506 99.0188L125.502 98.7973Z" fill="#F7FCC9"/>
<path d="M112.372 89.0351L112.112 90.2275L113.115 90.4491L113.376 89.2567L112.372 89.0351Z" fill="#F7FCC9"/>
<path d="M110.868 91.0065L110.609 92.1992L111.612 92.42L111.872 91.2273L110.868 91.0065Z" fill="#F7FCC9"/>
<path d="M118.978 89.0239L118.718 90.2163L120.177 90.5386L120.438 89.3462L118.978 89.0239Z" fill="#F7FCC9"/>
<path d="M130.207 93.1066L129.947 94.2993L131.407 94.6207L131.667 93.428L130.207 93.1066Z" fill="#F7FCC9"/>
<path d="M137.447 96.8363L137.227 97.8452L138.686 98.1681L138.907 97.1592L137.447 96.8363Z" fill="#F7FCC9"/>
<path d="M138.994 92.7614L138.693 94.1372L140.152 94.4604L140.454 93.0847L138.994 92.7614Z" fill="#F7FCC9"/>
<path d="M144.469 91.4228L144.248 92.4316L146.711 92.9766L146.932 91.9677L144.469 91.4228Z" fill="#F7FCC9"/>
<path d="M132.084 88.4983L131.864 89.5073L133.506 89.8703L133.726 88.8613L132.084 88.4983Z" fill="#F7FCC9"/>
<path d="M124.895 94.1158L124.595 95.4917L125.598 95.7133L125.899 94.3374L124.895 94.1158Z" fill="#F7FCC9"/>
<path d="M120.899 94.8496L120.719 95.6753L121.358 95.8157L121.537 94.99L120.899 94.8496Z" fill="#F7FCC9"/>
<path d="M129.795 93.0253L129.394 94.8599L130.397 95.0816L130.798 93.247L129.795 93.0253Z" fill="#F7FCC9"/>
<path d="M132.376 94.6895L132.075 96.0654L133.261 96.3274L133.562 94.9515L132.376 94.6895Z" fill="#F7FCC9"/>
<path d="M130.512 97.3703L130.332 98.1958L131.791 98.5186L131.972 97.693L130.512 97.3703Z" fill="#F7FCC9"/>
<path d="M126.904 87.5354L126.504 89.3701L128.511 89.8131L128.911 87.9784L126.904 87.5354Z" fill="#F7FCC9"/>
<path d="M115.108 93.9949L114.888 95.0039L115.709 95.1852L115.929 94.1762L115.108 93.9949Z" fill="#F7FCC9"/>
<path d="M117.535 96.2543L117.275 97.4468L117.913 97.5879L118.174 96.3955L117.535 96.2543Z" fill="#F7FCC9"/>
<path d="M139.121 99.9171L138.68 101.935L139.501 102.116L139.942 100.098L139.121 99.9171Z" fill="#F7FCC9"/>
<path d="M135.976 104.687L135.536 106.705L136.357 106.886L136.797 104.868L135.976 104.687Z" fill="#F7FCC9"/>
<path d="M120.644 102.613L120.204 104.631L122.029 105.033L122.468 103.015L120.644 102.613Z" fill="#F7FCC9"/>
<path d="M116.351 100.825L115.91 102.843L117.734 103.246L118.175 101.228L116.351 100.825Z" fill="#F7FCC9"/>
<path d="M148.195 97.109L147.754 99.127L149.579 99.5297L150.019 97.5117L148.195 97.109Z" fill="#F7FCC9"/>
<path d="M145.076 101.455L144.636 103.473L146.461 103.875L146.901 101.857L145.076 101.455Z" fill="#F7FCC9"/>
<path d="M147.926 101.264L147.485 103.282L149.31 103.685L149.751 101.667L147.926 101.264Z" fill="#F7FCC9"/>
<path d="M146.641 104.946L146.2 106.964L148.024 107.367L148.465 105.349L146.641 104.946Z" fill="#F7FCC9"/>
<path d="M145.132 115.125L144.691 117.143L146.516 117.545L146.957 115.527L145.132 115.125Z" fill="#F7FCC9"/>
<path d="M144.994 111.551L144.553 113.569L146.377 113.972L146.818 111.954L144.994 111.551Z" fill="#F7FCC9"/>
<path d="M146.958 109.448L146.517 111.466L148.342 111.869L148.783 109.851L146.958 109.448Z" fill="#F7FCC9"/>
<path d="M142.454 109.066L142.015 111.084L143.839 111.487L144.279 109.468L142.454 109.066Z" fill="#F7FCC9"/>
<path d="M142.402 105.516L141.961 107.534L143.785 107.937L144.226 105.919L142.402 105.516Z" fill="#F7FCC9"/>
<path d="M133.835 111.618L133.394 113.636L135.219 114.039L135.66 112.021L133.835 111.618Z" fill="#F7FCC9"/>
<path d="M107.312 94.7711L106.871 96.7891L108.695 97.1921L109.136 95.1741L107.312 94.7711Z" fill="#F7FCC9"/>
<path d="M99.1607 106.014L98.7208 108.032L100.545 108.434L100.985 106.416L99.1607 106.014Z" fill="#F7FCC9"/>
<path d="M104.964 105.835L104.523 107.853L106.348 108.256L106.789 106.238L104.964 105.835Z" fill="#F7FCC9"/>
<path d="M102.332 102.122L101.891 104.14L103.715 104.543L104.156 102.525L102.332 102.122Z" fill="#F7FCC9"/>
<path d="M105.184 98.7252L104.743 100.743L106.567 101.146L107.008 99.1284L105.184 98.7252Z" fill="#F7FCC9"/>
<path d="M102.672 97.7139L102.231 99.7319L104.056 100.135L104.497 98.117L102.672 97.7139Z" fill="#F7FCC9"/>
<path d="M108.979 90.3392L108.539 92.3574L110.363 92.7596L110.803 90.7414L108.979 90.3392Z" fill="#F7FCC9"/>
<path d="M111.767 97.9193L111.327 99.9375L113.152 100.34L113.592 98.3214L111.767 97.9193Z" fill="#F7FCC9"/>
<path d="M130.634 107.129L130.193 109.147L132.017 109.551L132.458 107.533L130.634 107.129Z" fill="#F7FCC9"/>
<path d="M128.303 115.854L127.862 117.872L129.686 118.275L130.127 116.257L128.303 115.854Z" fill="#F7FCC9"/>
<path d="M132.333 118.006L131.893 120.024L133.717 120.427L134.157 118.408L132.333 118.006Z" fill="#F7FCC9"/>
<path d="M137.891 117.14L137.451 119.158L139.275 119.56L139.716 117.542L137.891 117.14Z" fill="#F7FCC9"/>
<path d="M118.924 114.808L118.483 116.826L120.308 117.229L120.748 115.211L118.924 114.808Z" fill="#F7FCC9"/>
<path d="M108.73 109.799L108.29 111.817L110.114 112.219L110.554 110.201L108.73 109.799Z" fill="#F7FCC9"/>
<path d="M116.376 138.995C121.233 138.995 124.315 134.111 124.315 134.111C123.661 121.808 115.722 115.046 115.722 115.046C102.273 107.063 75.934 123.686 75.934 123.686C71.0772 126.786 76.5878 138.431 76.5878 138.431C80.2304 145.099 116.376 138.995 116.376 138.995Z" fill="#F21616"/>
<path d="M89.6638 142C101.059 142 115.536 139.558 116.376 139.464C121.606 139.37 124.689 134.299 124.689 134.299L124.782 134.205V134.017C124.128 121.526 116.096 114.671 116.002 114.577C113.294 112.98 110.118 112.323 106.756 112.323C92.8394 112.323 75.7472 123.217 75.7472 123.217C74.066 124.25 73.5056 126.222 73.5056 128.288C73.5056 132.89 76.2142 138.525 76.2142 138.525C77.802 141.343 83.2192 142 89.6638 142ZM75.6538 134.862C75 132.89 74.3462 130.448 74.3462 128.288C74.3462 126.41 74.8132 124.813 76.1208 123.968C76.1208 123.968 80.3238 121.245 86.3014 118.615C92.279 115.892 99.9377 113.262 106.663 113.262C109.932 113.262 112.92 113.825 115.349 115.328C115.442 115.422 115.909 115.798 116.563 116.549C118.804 118.991 123.288 124.907 123.755 133.923C123.568 134.205 122.821 135.238 121.793 136.177C120.486 137.398 118.618 138.525 116.283 138.525C116.283 138.525 101.245 141.061 89.6638 141.061C83.3126 141.155 77.9888 140.122 76.9614 138.149C76.9614 138.149 76.3076 136.835 75.6538 134.862Z" fill="#FFDE89"/>
<path d="M117.59 119.272C117.59 119.272 113.294 110.069 102.273 113.731L75.934 123.593C75.934 123.593 75.2802 126.034 80.7908 127.255L117.59 119.272Z" fill="#F9384A"/>
<path d="M75.3736 126.034C71.0772 129.133 76.5878 138.337 76.5878 138.337L80.2304 137.68L79.0162 130.26L80.8842 127.161L75.3736 126.034Z" fill="#9F0000"/>
<path d="M101.619 117.019H99.1906V118.991H101.619V117.019Z" fill="#F7FCC9"/>
<path d="M103.3 113.731H102.273V115.328H103.3V113.731Z" fill="#F7FCC9"/>
<path d="M108.437 115.61H107.41V117.206H108.437V115.61Z" fill="#F7FCC9"/>
<path d="M111.519 118.052H110.118V119.554H111.519V118.052Z" fill="#F7FCC9"/>
<path d="M93.7733 120.681H92.9327V121.714H93.7733V120.681Z" fill="#F7FCC9"/>
<path d="M92.5592 115.422H91.7186V116.455H92.5592V115.422Z" fill="#F7FCC9"/>
<path d="M84.4334 121.151H83.5928V122.184H84.4334V121.151Z" fill="#F7FCC9"/>
<path d="M92.0921 118.427H90.0374V120.306H92.0921V118.427Z" fill="#F7FCC9"/>
<path d="M111.706 113.543H109.838V115.14H111.706V113.543Z" fill="#F7FCC9"/>
<path d="M99.3773 113.543H98.1631V115.422H99.3773V113.543Z" fill="#F7FCC9"/>
<path d="M108.53 112.511H105.915V114.201H108.53V112.511Z" fill="#F7FCC9"/>
<path d="M84.4334 120.869H83.5928V122.184H84.4334V120.869Z" fill="#F7FCC9"/>
<path d="M87.7958 118.239H86.7684V119.648H87.7958V118.239Z" fill="#F7FCC9"/>
<path d="M94.614 117.112H92.8394V118.427H94.614V117.112Z" fill="#F7FCC9"/>
<path d="M98.2565 116.173H97.416V117.019H98.2565V116.173Z" fill="#F7FCC9"/>
<path d="M104.701 116.173H103.487V117.582H104.701V116.173Z" fill="#F7FCC9"/>
<path d="M115.349 114.765H114.508V115.61H115.349V114.765Z" fill="#F7FCC9"/>
<path d="M114.975 117.019H114.228V117.864H114.975V117.019Z" fill="#F7FCC9"/>
<path d="M116.75 116.831H115.722V118.709H116.75V116.831Z" fill="#F7FCC9"/>
<path d="M97.7895 122.653H96.7621V124.532H97.7895V122.653Z" fill="#F7FCC9"/>
<path d="M105.915 118.991H104.701V120.118H105.915V118.991Z" fill="#F7FCC9"/>
<path d="M104.888 121.151H104.701V122.184H104.888V121.151Z" fill="#F7FCC9"/>
<path d="M85.9278 123.593H85.741V124.626H85.9278V123.593Z" fill="#F7FCC9"/>
<path d="M89.1967 121.339H87.6089V122.56H89.1967V121.339Z" fill="#F7FCC9"/>
<path d="M79.67 123.593H78.4558V124.532H79.67V123.593Z" fill="#F7FCC9"/>
<path d="M81.071 125.283H79.203V126.692H81.071V125.283Z" fill="#F7FCC9"/>
<path d="M82.939 122.372H81.1644V123.78H82.939V122.372Z" fill="#F7FCC9"/>
<path d="M86.7684 124.625H85.741V125.283H86.7684V124.625Z" fill="#F7FCC9"/>
<path d="M92.0921 123.405H91.2515V124.25H92.0921V123.405Z" fill="#F7FCC9"/>
<path d="M95.7348 121.714H94.8942V122.56H95.7348V121.714Z" fill="#F7FCC9"/>
<path d="M100.405 120.493H99.1906V121.151H100.405V120.493Z" fill="#F7FCC9"/>
<path d="M103.3 121.151H102.086V122.372H103.3V121.151Z" fill="#F7FCC9"/>
<path d="M105.729 120.118H104.141V121.151H105.729V120.118Z" fill="#F7FCC9"/>
<path d="M114.695 121.339H112.08V124.25H114.695V121.339Z" fill="#F7FCC9"/>
<path d="M120.019 122.56H117.404V125.471H120.019V122.56Z" fill="#F7FCC9"/>
<path d="M118.151 129.134H117.964V129.979H118.151V129.134Z" fill="#F7FCC9"/>
<path d="M117.217 133.83H116.003V135.426H117.217V133.83Z" fill="#F7FCC9"/>
<path d="M122.26 133.735H120.299V134.205H122.26V133.735Z" fill="#F7FCC9"/>
<path d="M121.606 129.321H120.019V130.918H121.606V129.321Z" fill="#F7FCC9"/>
<path d="M117.59 119.272H116.096V120.493H117.59V119.272Z" fill="#F7FCC9"/>
<path d="M115.162 126.504H114.508V127.349H115.162V126.504Z" fill="#F7FCC9"/>
<path d="M119.271 127.725H118.618V128.57H119.271V127.725Z" fill="#F7FCC9"/>
<path d="M75.5604 131.2H74.9066V132.608H75.5604V131.2Z" fill="#F7FCC9"/>
<path d="M78.0822 127.631H76.3076V129.134H78.0822V127.631Z" fill="#F7FCC9"/>
<path d="M81.4446 131.575H80.4172V132.608H81.4446V131.575Z" fill="#F7FCC9"/>
<path d="M81.2578 134.675H79.203V137.117H81.2578V134.675Z" fill="#F7FCC9"/>
<path d="M84.1532 137.586H82.939V138.525H84.1532V137.586Z" fill="#F7FCC9"/>
<path d="M88.1693 129.979H86.9551V130.918H88.1693V129.979Z" fill="#F7FCC9"/>
<path d="M85.741 132.796H84.2466V134.863H85.741V132.796Z" fill="#F7FCC9"/>
<path d="M85.3674 127.255H84.7136V128.288H85.3674V127.255Z" fill="#F7FCC9"/>
<path d="M89.3836 134.017H89.1968V135.708H89.3836V134.017Z" fill="#F7FCC9"/>
<path d="M93.9601 134.675H91.9053V136.741H93.9601V134.675Z" fill="#F7FCC9"/>
<path d="M96.1083 128.289H95.7347V129.322H96.1083V128.289Z" fill="#F7FCC9"/>
<path d="M103.674 131.388H103.3V132.421H103.674V131.388Z" fill="#F7FCC9"/>
<path d="M108.624 126.222H107.41V127.631H108.624V126.222Z" fill="#F7FCC9"/>
<path d="M110.025 122.748H108.811V124.156H110.025V122.748Z" fill="#F7FCC9"/>
<path d="M112.453 131.388H111.239V132.233H112.453V131.388Z" fill="#F7FCC9"/>
<path d="M100.498 134.017H99.4707V135.05H100.498V134.017Z" fill="#F7FCC9"/>
<path d="M108.624 137.774H107.596V138.807H108.624V137.774Z" fill="#F7FCC9"/>
<path d="M113.107 134.299H112.92V134.674H113.107V134.299Z" fill="#F7FCC9"/>
<path d="M91.6251 126.222H90.2241V127.255H91.6251V126.222Z" fill="#F7FCC9"/>
<path d="M97.4159 126.504H96.7621V127.537H97.4159V126.504Z" fill="#F7FCC9"/>
<path d="M90.6912 138.807H89.8506V139.84H90.6912V138.807Z" fill="#F7FCC9"/>
<path d="M99.4708 133.83H98.817V135.05H99.4708V133.83Z" fill="#F7FCC9"/>
<path d="M105.261 127.255H103.674V127.443H105.261V127.255Z" fill="#F7FCC9"/>
<path d="M104.047 123.968H102.646V125.377H104.047V123.968Z" fill="#F7FCC9"/>
<path d="M110.025 131.575H108.624V133.454H110.025V131.575Z" fill="#F7FCC9"/>
<path d="M113.481 137.116H112.08V138.995H113.481V137.116Z" fill="#F7FCC9"/>
</svg>
