<svg width="150" height="140" viewBox="0 0 150 140" fill="none" xmlns="http://www.w3.org/2000/svg">
<path d="M39.7242 60.6025L15.7456 85.8025C17.4126 85.8347 19.336 86.0922 21.5159 86.5428C22.5417 86.8002 23.4072 87.2186 24.1125 87.8623C25.0742 88.6669 27.4784 92.1749 31.2932 98.4508C31.8061 99.2554 32.5755 99.8025 33.6013 100.092C35.8453 99.6094 37.2237 99.191 37.7367 98.8692C38.6984 98.4508 39.6601 97.9037 40.6859 97.2922C42.5773 96.1336 44.7892 94.3313 47.3217 91.9497C47.7064 91.5313 47.9308 91.0163 48.0269 90.4692C48.059 89.7612 48.059 89.3106 47.9949 89.1175C47.8346 88.3772 47.6102 87.637 47.2896 86.8646C45.5906 83.3887 44.4686 80.9749 43.9236 79.6232C43.026 77.4991 42.3529 75.6002 41.8399 73.8623C41.1988 71.6416 40.6859 69.5175 40.3653 67.5221L39.9486 64.6255C39.8524 64.1106 39.7883 62.7589 39.7242 60.6025Z" fill="#B68F75"/>
<path d="M32.3511 64.3037L15.938 83.3888C19.913 81.9727 23.6958 82.4876 27.2861 84.9014C29.3057 86.4462 30.8124 87.9911 31.8062 89.5681C32.2229 89.9865 33.5693 92.4646 35.8133 97.0669C35.8774 95.2646 35.5248 93.3014 34.6913 91.2416C34.2745 90.2118 33.7616 89.1497 33.1526 88.0232C31.3894 85.2232 30.2033 83.4853 29.5942 82.8416C29.9148 82.7451 30.6842 83.3566 31.9344 84.6761C33.0564 86.0922 34.4028 88.0876 35.8774 90.6945C36.2941 91.2095 36.6468 91.4669 36.9353 91.4026C39.8525 90.6623 41.263 89.8577 41.2309 89.0853C41.295 88.2807 41.0706 87.2508 40.5898 86.06C40.3974 85.3198 39.2754 83.0347 37.2238 79.2692C38.3778 79.6554 40.4936 81.1359 43.6031 83.7428C43.8916 83.8393 43.9878 83.5497 43.8916 82.8416L43.5069 80.3957C43.1864 78.7865 42.7055 77.2738 42.0644 75.7934C41.4232 74.3129 40.6539 72.929 39.7242 71.5773C37.8649 68.906 35.3965 66.46 32.3511 64.3037Z" fill="#F5E1C7" fill-opacity="0.2549"/>
<path d="M44.8853 45.4438L43.3146 45.5082C37.2237 45.991 30.8444 48.6622 24.1445 53.5542C17.0279 58.6071 11.3538 63.9496 7.1864 69.5496C2.69843 75.5036 0.32622 80.7174 0.0056506 85.191C-0.0584633 87.1542 0.422391 88.699 1.48027 89.8576C1.99318 90.437 2.66638 90.9197 3.43574 91.3059C4.14099 91.7565 5.16682 91.9818 6.44909 91.9818C7.12229 91.9496 7.73137 91.8209 8.37251 91.5634L16.1944 87.1864C16.8035 86.768 17.2843 86.3496 17.669 85.9634C20.7144 82.6484 22.5096 80.814 23.1187 80.4599C25.6512 79.6232 28.4722 78.4967 31.5497 77.1128C33.0563 76.437 34.3707 75.6324 35.5247 74.7312C36.1017 74.3128 36.7749 73.6691 37.6084 72.8002L40.3653 69.5496L48.3154 61.3105C51.5852 57.6094 52.8675 54.1979 52.1943 51.0117C51.2967 47.5036 48.8283 45.637 44.8853 45.4438Z" fill="#A96E46"/>
<path d="M44.8854 45.4438L43.3146 45.5082C37.2238 45.991 30.8445 48.6622 24.1446 53.5542C17.028 58.6071 11.3539 63.9496 7.18649 69.5496C2.69852 75.5036 0.326307 80.7174 0.0057373 85.191C0.0057373 85.4806 0.0057373 85.7703 0.0057373 86.0278C2.57029 83.7427 5.10279 81.3611 7.63528 78.8186C7.82763 78.722 8.08408 78.6898 8.43671 78.6898C9.01373 78.6898 9.7831 78.8186 10.7769 79.0438C11.2257 79.0117 11.8668 78.7864 12.6682 78.368C14.6237 77.0806 16.8997 74.8599 19.4643 71.7703C19.849 71.7703 20.2016 71.8025 20.5542 71.8025C22.5418 71.8025 23.792 71.545 24.3369 71.0301C25.0101 70.6438 26.8374 68.7128 29.8187 65.2369C32.5115 64.4002 34.2746 63.6599 35.1401 63.0163C36.198 62.3726 37.5444 60.5703 39.1793 57.5772C41.0707 56.8691 42.2247 56.2255 42.6414 55.7105C43.0582 55.4852 43.6993 54.037 44.5969 51.3657C47.5141 50.1749 49.5657 49.0484 50.7198 47.9864C49.4375 46.4094 47.482 45.5726 44.8854 45.4438Z" fill="#643617" fill-opacity="0.2549"/>
<path d="M86.5273 17.0575H86.367C85.822 17.1218 85.3732 17.3471 85.0206 17.7977L84.8603 18.023L84.7641 18.2804L84.7321 18.5379V18.8276L84.7962 19.1172L84.8923 19.4391C84.9885 19.6643 85.1168 19.8575 85.277 20.1149L85.5976 20.3402C85.5976 20.3724 85.5655 20.4368 85.5655 20.4689C83.9627 33.4391 82.1355 43.8023 80.0197 51.623V51.6551C78.3527 58.3816 75.4997 66.0092 71.4605 74.5379C71.2682 74.9563 71.4284 75.439 71.8452 75.6322C71.9734 75.6965 72.0696 75.6965 72.1978 75.6965C72.4863 75.6965 72.7748 75.5356 72.9351 75.2459C77.0384 66.6207 79.9235 58.8965 81.5905 52.0735C83.6742 44.2528 85.5335 33.9218 87.1363 21.0161C87.2004 21.0161 87.2646 21.0161 87.3287 21.0161C87.9698 20.9517 88.4827 20.7586 88.8033 20.4046C88.9315 20.2758 89.0277 20.1471 89.0918 19.9862L89.1559 19.6965L89.188 19.4069L89.1559 19.1172L89.0918 18.8598L88.9956 18.6023L88.8354 18.3448L88.643 18.0873L88.3866 17.8621L88.098 17.6368C87.8416 17.4758 87.5851 17.3793 87.3607 17.2827C87.2325 17.2506 87.1363 17.2184 87.0081 17.1862C86.944 17.0896 86.7837 17.0896 86.5273 17.0575ZM75.2112 11.4253H75.147C74.8265 11.4253 74.538 11.4896 74.3136 11.554C74.0892 11.6506 73.8968 11.7471 73.7365 11.908C73.6724 11.9724 73.6083 12.0689 73.5442 12.1655L73.4801 12.3264L73.448 12.6161L73.4801 12.9057L73.5763 13.1954L73.7686 13.485L74.0251 13.7747L74.3456 14.0643L74.7624 14.354C74.9868 14.5149 75.2432 14.6437 75.5317 14.7724C68.4151 32.0873 64.5362 52.9747 63.863 77.4023C63.863 77.8528 64.2156 78.2391 64.6644 78.2391C64.6644 78.2391 64.6644 78.2391 64.6965 78.2391C65.1453 78.2391 65.4979 77.885 65.4979 77.4345C66.1711 53.1034 70.05 32.3448 77.1346 15.1586H77.1987C77.3269 15.1264 77.4231 15.1264 77.5513 15.0942C77.8719 14.9977 78.1283 14.8689 78.3527 14.6758C78.4169 14.6115 78.481 14.5471 78.5451 14.4827C78.6092 14.4184 78.6413 14.3218 78.6733 14.2575L78.7054 14.1287C78.7374 14.0322 78.7374 13.9356 78.7695 13.8391C78.7695 13.646 78.7695 13.485 78.7054 13.3241C78.5451 12.8092 78.0642 12.3586 77.3269 11.9724C76.6858 11.6506 75.9805 11.4575 75.2112 11.4253ZM81.7828 11.6506H81.7187H81.6867C81.4943 11.6506 81.2058 11.7149 80.8852 11.8758C80.757 11.9402 80.6288 12.0046 80.5006 12.1011L80.3403 12.2299C80.0518 12.5195 79.9556 12.8735 80.0197 13.2919C80.0838 13.5816 80.212 13.8391 80.4044 14.1287C80.6929 14.4827 80.8852 14.708 80.9814 14.7724L81.0135 14.9011C81.0135 14.9333 81.0135 14.9655 80.9814 14.9977C79.3144 30.285 74.8906 51.1724 67.7098 77.6276C67.5816 78.0459 67.8381 78.4965 68.2869 78.6253C68.351 78.6574 68.4151 78.6574 68.5113 78.6574C68.8639 78.6574 69.1845 78.4322 69.2806 78.046C76.4293 51.8161 80.8211 31.0253 82.5522 15.6735C82.5843 15.6735 82.6163 15.6735 82.6484 15.6735C82.9369 15.6735 83.2895 15.6414 83.7383 15.577C84.1871 15.5126 84.5077 15.3839 84.7321 15.2552C85.0206 15.0621 85.2129 14.8689 85.3091 14.6437C85.3732 14.5149 85.3732 14.3862 85.3732 14.2575L85.3412 14.0643C85.277 13.7747 85.1488 13.485 84.9565 13.2598C84.9244 13.1954 84.7641 13.0023 84.4756 12.7448C84.3474 12.6483 84.2192 12.5517 84.0589 12.4552C83.1933 11.908 82.424 11.6506 81.7828 11.6506ZM93.0348 25.3609H93.0028H92.9386C92.8104 25.3609 92.6501 25.3931 92.4257 25.4253C92.3937 25.4253 92.2975 25.4575 92.1052 25.5218L91.8808 25.6184C91.7525 25.6827 91.6564 25.7793 91.5602 25.8758L91.464 26.0046C91.3999 26.1011 91.3679 26.2299 91.3679 26.3264C91.3679 26.4552 91.3679 26.5839 91.3999 26.7126L91.4961 26.9057C91.6884 27.2598 92.041 27.5816 92.554 27.8391C92.554 27.8712 92.554 27.9034 92.5219 27.9356C91.3679 38.0735 89.765 46.2161 87.7134 52.331V52.3954C86.399 57.3839 82.8407 65.9126 77.0063 77.9816C76.814 78.4 76.9743 78.8827 77.391 79.0758C77.5193 79.1402 77.6154 79.1724 77.7437 79.1724C78.0322 79.1724 78.3207 79.0115 78.481 78.7218C84.3153 66.5885 87.9057 57.9954 89.2521 52.9103C91.3358 46.6988 92.9707 38.4919 94.1247 28.2253C94.1568 28.2253 94.1568 28.2253 94.1889 28.2253H94.2209C94.3171 28.2253 94.3812 28.2253 94.4774 28.2253L94.6056 28.1931C94.6697 28.1931 94.7659 28.1609 94.83 28.1287C95.0865 28.0322 95.2788 27.9356 95.375 27.8069C95.6635 27.5494 95.7276 27.1954 95.5673 26.7448C95.5032 26.6483 95.4711 26.5517 95.375 26.4552L95.2467 26.3264C95.0865 26.1333 94.8621 25.9724 94.6056 25.8437C94.0606 25.5218 93.5477 25.3609 93.0348 25.3609ZM64.8888 11.0391H64.8247C64.5683 11.0391 64.3118 11.0712 64.0874 11.1034C63.8951 11.1356 63.7027 11.1678 63.5424 11.2C63.2219 11.2643 62.9334 11.3609 62.709 11.4896C62.6128 11.554 62.5166 11.6184 62.4525 11.6827C62.3884 11.7471 62.2602 11.8758 62.1319 12.1011C62.0358 12.2942 62.0037 12.4552 62.0678 12.6161C62.1961 13.0023 62.6128 13.2919 63.2539 13.5494L63.5104 13.646C63.6707 13.7103 63.863 13.7425 64.0554 13.7747L64.7606 14.0322C63.9592 17.0896 63.2219 19.9862 62.5807 22.7862C62.3563 21.1126 62.164 19.5678 61.9396 18.1195C62.709 17.4437 63.0295 16.7356 62.8692 16.0276L62.8051 15.8345C62.741 15.7057 62.6769 15.577 62.5807 15.4804C62.4846 15.3839 62.3563 15.2873 62.2281 15.1908L62.0037 15.0621C61.8434 14.9977 61.6511 14.9333 61.4267 14.9011C61.1382 14.8368 60.9138 14.8046 60.7214 14.8046C60.6894 14.8046 60.6894 14.8046 60.6573 14.8046H60.5291C59.8238 14.8689 59.2789 15.0621 58.8942 15.4161C58.798 15.4804 58.7339 15.577 58.6698 15.6735L58.5736 15.8345C58.5095 15.931 58.4454 16.0598 58.4133 16.1885L58.3492 16.4781V16.7678V17.0575L58.4774 17.2827L58.6698 17.508L58.9262 17.7011L59.2789 17.8942L59.6956 18.0552L60.1765 18.1839L60.2726 18.2161C60.2726 18.2804 60.2726 18.3126 60.2726 18.377C60.6894 21.0804 61.1061 24.2023 61.4587 27.6781C60.0162 34.6299 59.1186 40.7126 58.766 45.862C57.9325 55.0988 57.9966 64.754 58.9262 74.7954C58.5416 73.0253 58.221 71.4804 57.9325 70.0965C57.5157 67.4574 57.0349 64.6253 56.4579 61.6C55.945 57.8345 55.4962 53.5218 55.1435 48.6942C54.5986 40.5839 55.0153 31.6689 56.3617 21.9172L56.522 21.885L56.8105 21.7885L57.0669 21.6598L57.2913 21.4988C57.7081 21.1126 57.8684 20.6299 57.8043 20.0184L57.7401 19.7609L57.6119 19.5356L57.4516 19.3425L57.2593 19.1494L57.0028 18.9885L56.7143 18.8276L56.3937 18.6988C56.2655 18.6666 56.0732 18.6345 55.8167 18.6023C55.6564 18.5701 55.5282 18.5701 55.3679 18.5701H55.2397C54.823 18.5701 54.4383 18.6666 54.0856 18.7954C53.7971 18.8919 53.5727 19.0207 53.3483 19.1816C53.156 19.3425 52.9957 19.5034 52.8675 19.7287L52.7713 20.0506L52.7393 20.3402L52.8034 20.6299L52.9316 20.8873L53.1239 21.1126L53.4125 21.3057L53.7651 21.4666L54.2139 21.5954L54.7268 21.6919L54.7909 21.7241C53.5086 30.9287 53.0598 39.3931 53.4445 47.1816C51.7455 39.6827 48.9886 30.3816 45.1738 19.3425C45.3662 19.1816 45.5264 19.0207 45.6547 18.8276C45.7508 18.6988 45.847 18.6023 45.9111 18.4735C45.9752 18.4092 46.0714 18.2161 46.1996 17.9264C46.2317 17.8299 46.2638 17.7333 46.2638 17.6368C46.2638 17.5402 46.2958 17.4437 46.2638 17.3471L46.2317 17.2184C46.1676 16.9287 46.0394 16.6391 45.815 16.4138C45.7508 16.3494 45.6547 16.285 45.5585 16.2207C45.5265 16.1885 45.3662 16.1241 45.0777 15.9954C44.8212 15.8988 44.5968 15.8666 44.3724 15.8666C44.3403 15.8666 44.3403 15.8666 44.3083 15.8666H44.148C43.5069 15.8988 42.8657 16.1563 42.2566 16.6069C41.5834 17.0896 41.1347 17.6689 40.8461 18.377C40.75 18.6345 40.7179 18.8598 40.7179 19.085C40.7179 19.2138 40.75 19.3103 40.782 19.4069L40.8461 19.5356C40.8782 19.6322 40.9423 19.6965 41.0064 19.7931C41.0705 19.8575 41.1347 19.954 41.2308 20.0184C41.2629 20.0506 41.4232 20.1471 41.7117 20.2758C41.9361 20.3402 42.1605 20.3724 42.449 20.3724C42.481 20.3724 42.5131 20.3724 42.5452 20.3724C42.8337 20.3724 43.1542 20.308 43.5069 20.2115L43.6671 20.1471C47.7704 32.0552 50.6235 41.8712 52.2584 49.5954C53.2522 54.0368 54.1177 58.1241 54.823 61.9218C54.9191 62.6942 55.0474 63.4345 55.1435 64.1425C55.3359 65.462 55.7206 67.554 56.2976 70.4505C56.4579 71.5126 56.6181 72.5425 56.7464 73.508C54.5665 68.2942 52.0661 63.3701 49.213 58.8C45.9432 53.7793 42.481 50.0781 38.8266 47.6965C38.8907 47.4712 38.9227 47.3425 38.9227 47.2781C39.0189 46.731 38.8907 46.1839 38.5701 45.6689C38.2495 45.1862 37.8648 44.9287 37.416 44.9287L37.1275 44.9609C36.5505 45.0574 36.0376 45.508 35.5247 46.2482C35.3644 46.5057 35.2041 46.7954 35.0438 47.085L34.8836 47.5678L34.7874 48.0184L34.7233 48.4368V48.823L34.7874 49.177L34.8836 49.531L35.0438 49.8528L35.2682 50.1425L35.5247 50.4C35.5567 50.4322 35.6529 50.4965 35.8132 50.5609C36.0376 50.6574 36.2299 50.6896 36.4223 50.6896C36.4543 50.6896 36.5185 50.6896 36.5505 50.6896C36.7749 50.6896 37.0314 50.5931 37.2558 50.4643C37.4802 50.3034 37.6404 50.1747 37.6725 50.1425C37.7687 50.046 37.8328 49.9494 37.929 49.8207C37.9931 49.6919 38.0892 49.5632 38.1534 49.4345L38.2175 49.2414C41.5834 51.4942 44.7891 54.9701 47.8666 59.6689C51.6814 65.8161 54.8871 72.5425 57.4516 79.8804C57.5157 80.5563 57.5478 81.2 57.5799 81.8115C57.6119 82.2299 57.9645 82.5839 58.3813 82.5839H58.4133C58.6698 82.5839 58.8942 82.423 59.0545 82.2299H59.0865C59.2148 82.1977 59.3109 82.1333 59.375 82.0368C59.4071 82.0368 59.4071 82.0368 59.4392 82.0368C59.5033 82.0368 59.5674 82.0368 59.6315 82.0046C60.0803 81.908 60.3367 81.4574 60.2406 81.0391C60.0482 80.2023 59.888 79.3977 59.6956 78.6253C59.7918 78.6574 59.888 78.6896 59.9841 78.6896C60.0162 78.6896 60.0482 78.6896 60.0803 78.6896C60.5291 78.6253 60.8497 78.2391 60.7855 77.7885C59.5674 66.7172 59.4071 56.1287 60.3047 46.0551V46.023C60.5611 42.2896 61.1061 38.1057 61.9396 33.4069C62.0037 34.308 62.0999 35.2092 62.164 36.1425C62.5487 40.5517 62.7731 45.9908 62.8372 52.5241C62.9013 56.5149 62.741 60.6988 62.4204 65.0758C61.9396 70.4827 61.3946 74.9241 60.7214 78.4322C60.6253 78.8827 60.9138 79.3011 61.3626 79.3655C61.4267 79.3655 61.4587 79.3655 61.5229 79.3655C61.9075 79.3655 62.2281 79.108 62.3243 78.6896C62.9975 75.1172 63.5745 70.6115 64.0554 65.1724C64.3759 60.731 64.5042 56.5149 64.4721 52.4597C64.408 45.9264 64.1836 40.423 63.7989 35.9816C63.5745 33.0529 63.318 30.3172 63.0616 27.7747C63.9271 23.6552 64.985 19.246 66.2352 14.4827C66.2673 14.354 66.2673 14.2575 66.2352 14.1287C66.7802 14.0644 67.229 13.9034 67.5175 13.6138L67.6457 13.485L67.806 13.1954L67.9022 12.9379V12.6804L67.8381 12.423L67.7098 12.1977L67.5175 11.9724L67.261 11.7471L66.9405 11.554L66.5558 11.3609C66.3314 11.2643 66.107 11.2 65.8505 11.1356C65.53 11.0712 65.3376 11.0391 65.2735 11.0391C65.1453 11.0391 65.0171 11.0391 64.8888 11.0391ZM97.7792 27.0345H97.5869C97.4587 27.0345 97.3625 27.0666 97.2343 27.0666C97.1702 27.0666 97.0099 27.0988 96.7855 27.1954C96.5931 27.2919 96.4328 27.3885 96.3046 27.5172C96.2405 27.5816 96.1764 27.646 96.1443 27.7103C96.0482 27.8712 96.0161 28 96.0482 28.0322C96.0161 28.1609 96.0482 28.3218 96.1443 28.4827C96.1764 28.5793 96.2405 28.6437 96.2726 28.7402C96.3046 28.7724 96.4008 28.9011 96.5931 29.062L96.7214 29.1586C96.8175 29.223 96.8816 29.2552 96.9778 29.3195C96.8496 29.4483 96.7855 29.6414 96.7855 29.8345C96.7855 36.1103 96.0161 42.2253 94.4133 48.2115L87.1043 73.2184C85.5014 74.8919 84.0909 76.5977 82.9048 78.2712C82.6484 78.6253 82.7125 79.1402 83.0972 79.3977C83.2254 79.4942 83.4177 79.5586 83.578 79.5586C83.8345 79.5586 84.0909 79.4299 84.2192 79.2368C84.7962 78.4322 85.4053 77.6597 86.0464 76.8551L83.4177 85.8023C82.3599 89.5678 81.4943 93.0115 80.8532 96.0689C79.7632 100.897 78.5771 109.393 77.359 121.591C77.3269 122.041 77.6475 122.428 78.0963 122.492C78.1283 122.492 78.1604 122.492 78.1925 122.492C78.6092 122.492 78.9618 122.17 78.9939 121.752C80.212 109.586 81.3982 101.154 82.456 96.3908C83.0972 93.3655 83.9306 89.9862 84.9885 86.2528L88.5468 74.0551C91.2396 71.2551 94.5094 68.4551 98.3242 65.6551C104.159 61.6322 109.159 59.1862 113.359 58.3172C113.423 58.285 113.519 58.285 113.583 58.2207C113.744 58.5425 113.904 58.8 114.064 59.0253C114.128 59.154 114.321 59.3793 114.609 59.7333C114.93 60.0873 115.314 60.2804 115.731 60.3126C115.923 60.3126 116.084 60.2482 116.244 60.0873C116.276 60.0873 116.34 59.9908 116.436 59.8299C116.5 59.6689 116.533 59.5402 116.565 59.3793C116.629 59.0574 116.629 58.7034 116.565 58.3172C116.533 58.1241 116.468 57.931 116.404 57.7057L116.276 57.3839C115.988 56.6758 115.635 56.0965 115.218 55.646C114.673 55.0666 114.128 54.777 113.615 54.7126H113.519C113.359 54.7448 113.231 54.8092 113.134 54.9701C113.07 55.0666 113.038 55.1954 113.006 55.2919L112.974 55.485C112.974 55.6138 112.974 55.7747 113.006 55.9678L113.07 56.2574C113.102 56.3862 113.135 56.5471 113.167 56.708C113.135 56.708 113.07 56.708 113.038 56.7402C108.647 57.6735 103.453 60.1839 97.4266 64.3356H97.3946C94.4453 66.4919 91.7846 68.6804 89.4765 70.8368L95.952 48.662V48.6299C97.5869 42.5149 98.4204 36.2712 98.3883 29.8666C98.5165 29.8666 98.6127 29.8988 98.6768 29.8988C98.7089 29.8988 98.7089 29.8988 98.7409 29.8988C99.2218 29.8988 99.6065 29.7701 99.895 29.4804C100.023 29.3517 100.119 29.1908 100.151 29.062C100.184 28.9977 100.184 28.9333 100.184 28.8368C100.151 28.6437 100.151 28.5471 100.119 28.4827C99.9912 28.0965 99.7027 27.7425 99.2218 27.4207C99.1256 27.3563 98.9974 27.2919 98.9012 27.2276C98.8371 27.1954 98.6768 27.131 98.4204 27.0345C98.196 27.0666 98.0036 27.0345 97.7792 27.0345Z" fill="#DFC8B0"/>
<path d="M84.8604 6.01839H84.7001C84.1551 6.08276 83.7063 6.30804 83.3537 6.75862L83.1934 6.98391L83.0972 7.24138L83.0652 7.49885V7.78851L83.1293 8.07816L83.2255 8.4C83.3216 8.62529 83.4499 8.81839 83.6101 9.07586L83.9307 9.30115C83.9307 9.33333 83.8987 9.3977 83.8987 9.42988C82.2958 22.4 80.4686 32.7632 78.3528 40.5839C76.6858 47.3103 73.8328 54.9379 69.7936 63.4667C69.6013 63.885 69.7615 64.3678 70.1783 64.5609C70.3065 64.6253 70.4027 64.6253 70.5309 64.6253C70.8194 64.6253 71.1079 64.4644 71.2682 64.1747C75.3715 55.5494 78.2566 47.8253 79.9236 41.0023C82.0073 33.1816 83.8666 22.8506 85.4694 9.94483C85.5336 9.94483 85.5977 9.94483 85.6618 9.94483C86.3029 9.88046 86.8158 9.68736 87.1364 9.33333C87.2646 9.2046 87.3608 9.07586 87.4249 8.91494L87.489 8.62529L87.5211 8.33563L87.489 8.04598L87.4249 7.78851L87.3287 7.53103L87.1685 7.27356L86.9761 7.01609L86.7197 6.7908L86.4311 6.56552C86.1747 6.4046 85.9182 6.30804 85.6938 6.21149C85.5656 6.17931 85.4694 6.14713 85.3412 6.11494C85.3092 6.05057 85.1489 6.01839 84.8604 6.01839ZM73.5763 0.386207H73.5122C73.1916 0.386207 72.9031 0.450575 72.6787 0.514942C72.4543 0.611494 72.262 0.708046 72.1017 0.868965C72.0376 0.933333 71.9735 1.02988 71.9094 1.12644L71.8452 1.28736L71.8132 1.57701L71.8452 1.86667L71.9414 2.15632L72.1338 2.44598L72.3902 2.73563L72.7108 3.02529L73.1275 3.31494C73.3519 3.44368 73.6084 3.6046 73.8969 3.73333C66.7803 21.0483 62.9014 41.9356 62.2282 66.3632C62.2282 66.8138 62.5808 67.2 63.0296 67.2C63.0296 67.2 63.0296 67.2 63.0616 67.2C63.5104 67.2 63.8631 66.846 63.8631 66.3954C64.5363 42.0644 68.4152 21.3057 75.4997 4.11954H75.5639C75.6921 4.08736 75.7882 4.08736 75.9165 4.05517C76.237 3.95862 76.4935 3.82988 76.7179 3.63678C76.782 3.57241 76.8461 3.50805 76.9102 3.44368C76.9744 3.37931 77.0064 3.28276 77.0385 3.21839L77.0705 3.08965C77.1026 2.9931 77.1026 2.89655 77.1346 2.8C77.1346 2.6069 77.1346 2.44598 77.0705 2.28506C76.9102 1.77011 76.4294 1.31954 75.6921 0.933333C75.0189 0.57931 74.3457 0.418391 73.5763 0.386207ZM80.148 0.57931H80.0839H80.0518C79.8595 0.57931 79.571 0.643678 79.2504 0.804598C79.1222 0.868965 78.9939 0.933333 78.8657 1.02988L78.7054 1.15862C78.4169 1.44828 78.3207 1.8023 78.3849 2.22069C78.449 2.51034 78.5772 2.76782 78.7695 3.05747C79.0581 3.41149 79.2504 3.63678 79.3466 3.70115L79.3786 3.82988C79.3786 3.86207 79.3786 3.89425 79.3466 3.92644C77.6796 19.2138 73.2558 40.1011 66.075 66.5563C65.9468 66.9747 66.2032 67.4253 66.652 67.554C66.7161 67.5862 66.7803 67.5862 66.8764 67.5862C67.2291 67.5862 67.5496 67.3609 67.6458 66.9747C74.7945 40.7448 79.1863 19.954 80.9174 4.6023C80.9494 4.6023 80.9815 4.6023 81.0135 4.6023C81.302 4.6023 81.6547 4.57011 82.1035 4.50575C82.5523 4.44138 82.8728 4.31264 83.0972 4.18391C83.3857 3.9908 83.5781 3.7977 83.6743 3.57241C83.7384 3.44368 83.7384 3.31494 83.7384 3.18621L83.7063 2.9931C83.6422 2.70345 83.514 2.41379 83.3216 2.18851C83.2896 2.12414 83.1293 1.93103 82.8408 1.67356C82.7125 1.57701 82.5843 1.48046 82.424 1.38391C81.5585 0.868965 80.7571 0.611494 80.148 0.57931ZM91.4 14.3218H91.3679H91.3038C91.1756 14.3218 91.0153 14.354 90.7909 14.3862C90.7588 14.3862 90.6627 14.4184 90.4703 14.4828L90.2459 14.5793C90.1177 14.6437 90.0215 14.7402 89.9254 14.8368L89.8292 14.9655C89.7651 15.0621 89.733 15.1908 89.733 15.2874C89.733 15.4161 89.733 15.5448 89.7651 15.6736L89.8612 15.8667C90.0536 16.2207 90.4062 16.5425 90.9191 16.8C90.9191 16.8322 90.9191 16.8644 90.8871 16.8965C89.733 27.0345 88.1302 35.177 86.0785 41.292V41.3563C84.7642 46.3448 81.2059 54.8736 75.3715 66.9425C75.1792 67.3609 75.3395 67.8437 75.7562 68.0368C75.8844 68.1011 75.9806 68.1333 76.1088 68.1333C76.3973 68.1333 76.6858 67.9724 76.8461 67.6827C82.6805 55.5494 86.2709 46.9563 87.6173 41.8713C89.701 35.6598 91.3359 27.4529 92.4899 17.1862C92.522 17.1862 92.522 17.1862 92.554 17.1862H92.5861C92.6822 17.1862 92.7464 17.1862 92.8425 17.1862L92.9708 17.154C93.0349 17.154 93.1311 17.1218 93.1952 17.0897C93.4516 16.9931 93.644 16.8965 93.7401 16.7678C94.0286 16.5103 94.0928 16.1563 93.9325 15.7057C93.8684 15.6092 93.8363 15.5126 93.7401 15.4161L93.6119 15.2874C93.4516 15.0943 93.2272 14.9333 92.9708 14.8046C92.4258 14.4506 91.9129 14.3218 91.4 14.3218ZM63.2219 0H63.1578C62.9014 0 62.6449 0.0321839 62.4205 0.0643678C62.2282 0.0965517 62.0358 0.128736 61.8755 0.16092C61.555 0.225287 61.2665 0.321839 61.0421 0.450575C60.9459 0.514942 60.8497 0.57931 60.7856 0.643678C60.7215 0.708046 60.5933 0.836782 60.465 1.06207C60.3689 1.25517 60.3368 1.41609 60.4009 1.57701C60.5292 1.96322 60.9459 2.25287 61.587 2.51034L61.8435 2.6069C62.0038 2.67126 62.1961 2.70345 62.3885 2.73563L63.0937 2.9931C62.2923 6.05057 61.555 8.94713 60.9138 11.7471C60.6894 10.0736 60.4971 8.52873 60.2727 7.08046C61.0421 6.4046 61.3626 5.69655 61.2023 4.9885L61.1382 4.7954C61.0741 4.66667 61.01 4.53793 60.9138 4.44138C60.8177 4.34483 60.6894 4.24828 60.5612 4.15172L60.3368 4.02299C60.1765 3.95862 59.9842 3.89425 59.7598 3.86207C59.4713 3.7977 59.2469 3.76552 59.0545 3.76552C59.0225 3.76552 59.0225 3.76552 58.9904 3.76552H58.8622C58.1569 3.82988 57.612 4.02299 57.2273 4.37701C57.1311 4.44138 57.067 4.53793 57.0029 4.63448L56.9067 4.7954C56.8426 4.89195 56.7785 5.02069 56.7464 5.14942L56.6823 5.43908V5.72873L56.7464 5.98621L56.8747 6.21149L57.067 6.43678L57.3235 6.62988L57.6761 6.82299L58.0928 6.98391L58.5737 7.11264L58.6699 7.14483C58.6699 7.20919 58.6699 7.24138 58.6699 7.30575C59.0866 10.0092 59.5033 13.131 59.856 16.6069C58.4134 23.5586 57.5158 29.6414 57.1632 34.7908C56.3297 44.0276 56.3938 53.6828 57.3235 63.7241C56.9388 61.954 56.6182 60.4092 56.3297 59.0253C55.913 56.3862 55.4321 53.554 54.8551 50.5287C54.3422 46.7632 53.8934 42.4506 53.5407 37.623C52.9958 29.5126 53.4125 20.5977 54.7589 10.846L54.9192 10.8138L55.2077 10.7172L55.4642 10.5885L55.6886 10.4276C56.1053 10.0414 56.2656 9.55862 56.2015 8.94712L56.1374 8.68965L56.0091 8.46437L55.8488 8.27126L55.6565 8.07816L55.4 7.91724L55.1115 7.75632L54.791 7.62759C54.6627 7.5954 54.4704 7.56322 54.2139 7.53103C54.0537 7.49885 53.9254 7.49885 53.7651 7.49885H53.6369C53.2202 7.49885 52.8355 7.5954 52.4829 7.72414C52.1944 7.82069 51.97 7.94942 51.7456 8.11034C51.5532 8.27126 51.3929 8.43218 51.2647 8.65747L51.1685 8.97931L51.1365 9.26896L51.2006 9.55862L51.3288 9.81609L51.5212 10.0414L51.8097 10.2345L52.1623 10.3954L52.6111 10.5241L53.124 10.6207L53.1881 10.6529C51.9058 19.8575 51.457 28.3218 51.8417 36.1103C50.1427 28.6115 47.3858 19.3103 43.571 8.27126C43.7634 8.11034 43.9237 7.94942 44.0519 7.75632C44.1481 7.62759 44.2442 7.53103 44.3083 7.4023C44.3725 7.33793 44.4686 7.14483 44.5969 6.85517C44.6289 6.75862 44.661 6.66207 44.661 6.56552C44.661 6.46896 44.693 6.37241 44.661 6.27586L44.6289 6.14713C44.5648 5.85747 44.4366 5.56782 44.2122 5.34253C44.1481 5.27816 44.0519 5.21379 43.9557 5.14942C43.9237 5.11724 43.7634 5.05287 43.4749 4.92414C43.2184 4.82759 42.994 4.7954 42.7696 4.7954C42.7376 4.7954 42.7376 4.7954 42.7055 4.7954H42.5452C41.9041 4.82759 41.2629 5.08506 40.6539 5.53563C39.9807 6.01839 39.5319 6.5977 39.2434 7.30575C39.1472 7.56322 39.1151 7.7885 39.1151 8.01379C39.1151 8.14253 39.1472 8.23908 39.1792 8.33563L39.2434 8.46437C39.2754 8.56092 39.3395 8.62529 39.4036 8.72184C39.4678 8.78621 39.5319 8.88276 39.628 8.94712C39.6601 8.97931 39.8204 9.07586 40.1089 9.2046C40.3333 9.26896 40.5577 9.30115 40.8462 9.30115C40.8783 9.30115 40.9103 9.30115 40.9424 9.30115C41.2309 9.30115 41.5515 9.23678 41.9041 9.14023L42.0644 9.07586C46.1677 20.9839 49.0207 30.8 50.6556 38.5241C51.6494 42.9655 52.5149 47.0529 53.2202 50.8506C53.3163 51.623 53.4446 52.3632 53.5407 53.0713C53.7331 54.3908 54.1178 56.4827 54.6948 59.3793C54.8551 60.4414 55.0154 61.4713 55.1436 62.4368C52.9637 57.223 50.4633 52.2988 47.6102 47.7287C44.3404 42.708 40.8783 39.0069 37.2238 36.6253C37.2879 36.4 37.3199 36.2713 37.3199 36.2069C37.4161 35.6598 37.2879 35.1126 36.9673 34.5977C36.6467 34.1149 36.2621 33.8575 35.8133 33.8575L35.5248 33.8897C34.9477 33.9862 34.4348 34.4368 33.9219 35.177C33.7616 35.4345 33.6013 35.7241 33.4411 36.0138L33.2808 36.4965L33.1846 36.9471L33.1205 37.3655V37.7517L33.1846 38.1057L33.2808 38.4598L33.4411 38.7816L33.6655 39.0713L33.9219 39.3287C33.954 39.3609 34.0501 39.4253 34.2104 39.4896C34.4348 39.5862 34.6272 39.6184 34.8195 39.6184C34.8516 39.6184 34.9157 39.6184 34.9477 39.6184C35.1721 39.6184 35.4286 39.5218 35.653 39.3931C35.8774 39.2322 36.0377 39.1034 36.0697 39.0713C36.1659 38.9747 36.23 38.8782 36.3262 38.7494C36.3903 38.6207 36.4865 38.4919 36.5506 38.3632L36.6147 38.1701C39.9807 40.423 43.1864 43.8988 46.2638 48.5977C50.0786 54.7448 53.2843 61.4713 55.8488 68.8092C55.913 69.485 55.945 70.1287 55.9771 70.7402C56.0091 71.1586 56.3618 71.5126 56.7785 71.5126H56.8105C57.067 71.5126 57.2914 71.3517 57.4517 71.1586H57.4837C57.612 71.1264 57.7081 71.0621 57.7723 70.9655C57.8043 70.9655 57.8043 70.9655 57.8364 70.9655C57.9005 70.9655 57.9646 70.9655 58.0287 70.9333C58.4775 70.8368 58.734 70.3862 58.6378 69.9678C58.4455 69.131 58.2852 68.3264 58.0928 67.554C58.189 67.5862 58.2852 67.6184 58.3813 67.6184C58.4134 67.6184 58.4455 67.6184 58.4775 67.6184C58.9263 67.554 59.2469 67.1678 59.1828 66.7172C57.9646 55.646 57.8043 45.0575 58.7019 34.9839V34.9517C58.9584 31.2184 59.5033 27.0345 60.3368 22.3356C60.4009 23.2368 60.4971 24.1379 60.5612 25.0713C60.9459 29.4805 61.1703 34.9195 61.2344 41.4529C61.2985 45.4437 61.1382 49.6276 60.8177 54.0046C60.3368 59.4115 59.7918 63.8529 59.1186 67.3609C59.0225 67.8115 59.311 68.2299 59.7598 68.2942C59.8239 68.2942 59.856 68.2942 59.9201 68.2942C60.3048 68.2942 60.6253 68.0368 60.7215 67.6184C61.3947 64.046 61.9717 59.5402 62.4526 54.1011C62.7731 49.6598 62.9014 45.4437 62.8693 41.3885C62.8052 34.8552 62.5808 29.3517 62.1961 24.9103C61.9717 21.9816 61.7153 19.246 61.4588 16.7034C62.3243 12.5839 63.3822 8.17471 64.6324 3.41149C64.6645 3.28276 64.6645 3.18621 64.6324 3.05747C65.1774 2.9931 65.6262 2.83218 65.9147 2.54253L66.0429 2.41379L66.2032 2.12414L66.2994 1.86667V1.6092L66.2353 1.35172L66.1071 1.12644L65.9147 0.901149L65.6583 0.675862L65.3377 0.482759L64.953 0.321839C64.7286 0.225287 64.5042 0.16092 64.2478 0.0965517C63.9272 0.0321839 63.7348 0 63.6707 0C63.5104 0 63.3822 0 63.2219 0ZM96.1123 15.9954H95.92C95.7918 15.9954 95.6956 16.0276 95.5674 16.0276C95.5033 16.0276 95.343 16.0598 95.1186 16.1563C94.9262 16.2529 94.766 16.3494 94.6377 16.4782C94.5736 16.5425 94.5095 16.6069 94.4774 16.6713C94.3813 16.8322 94.3492 16.9609 94.3813 16.9931C94.3492 17.1218 94.3813 17.2828 94.4774 17.4437C94.5095 17.5402 94.5736 17.6046 94.6057 17.7011C94.6377 17.7333 94.7339 17.8621 94.9262 18.023L95.0545 18.1195C95.1506 18.1839 95.2147 18.2161 95.3109 18.2805C95.1827 18.4092 95.1186 18.6023 95.1186 18.7954C95.1186 25.0713 94.3492 31.1862 92.7464 37.1724L85.4374 62.1793C83.8345 63.8529 82.424 65.5586 81.2379 67.2322C80.9815 67.5862 81.0456 68.1011 81.4303 68.3586C81.5585 68.4552 81.7508 68.5195 81.9111 68.5195C82.1676 68.5195 82.424 68.3908 82.5523 68.1977C83.1293 67.3931 83.7384 66.6207 84.3795 65.8161L81.7508 74.7632C80.693 78.5287 79.8274 81.9724 79.1863 85.0299C78.0963 89.8575 76.9102 98.354 75.6921 110.552C75.66 111.002 75.9806 111.388 76.4294 111.453C76.4614 111.453 76.4935 111.453 76.5256 111.453C76.9423 111.453 77.2949 111.131 77.327 110.713C78.5451 98.5471 79.7313 90.1149 80.7891 85.3517C81.4303 82.3264 82.2637 78.9471 83.3216 75.2138L86.8799 63.0161C89.5727 60.2161 92.8425 57.4161 96.6573 54.6161C102.492 50.5931 107.493 48.1471 111.692 47.2782C111.756 47.246 111.852 47.246 111.916 47.1816C112.077 47.5034 112.237 47.7609 112.397 47.9862C112.461 48.1149 112.654 48.3402 112.942 48.6942C113.263 49.0483 113.647 49.2414 114.064 49.2736C114.257 49.2736 114.417 49.2092 114.577 49.0483C114.609 49.0483 114.673 48.9517 114.769 48.7908C114.834 48.6299 114.866 48.5011 114.898 48.3402C114.962 48.0184 114.962 47.6644 114.898 47.2782C114.866 47.085 114.802 46.8919 114.737 46.6667L114.609 46.3448C114.321 45.6368 113.968 45.0896 113.551 44.6069C113.006 44.0276 112.461 43.7379 111.948 43.6736H111.852C111.692 43.7057 111.564 43.7701 111.468 43.931C111.403 44.0276 111.371 44.1563 111.339 44.2529L111.307 44.446C111.307 44.5747 111.307 44.7356 111.339 44.9287L111.403 45.2184C111.436 45.3471 111.468 45.508 111.5 45.669C111.468 45.669 111.403 45.669 111.371 45.7011C106.98 46.6345 101.786 49.1448 95.7597 53.2965H95.7277C92.7784 55.4529 90.1177 57.6414 87.8096 59.7977L94.2851 37.623V37.5908C95.92 31.4759 96.7535 25.2322 96.7214 18.8276C96.8497 18.8276 96.9458 18.8598 97.0099 18.8598C97.042 18.8598 97.042 18.8598 97.074 18.8598C97.5549 18.8598 97.9396 18.731 98.2281 18.4414C98.3563 18.3126 98.4525 18.1517 98.4846 18.023C98.5166 17.9586 98.5166 17.8943 98.5166 17.7977C98.4846 17.6046 98.4846 17.508 98.4525 17.4437C98.3243 17.0575 98.0358 16.7034 97.5549 16.3816C97.4587 16.3172 97.3305 16.2529 97.2343 16.1885C97.1702 16.1563 97.0099 16.092 96.7535 15.9954C96.5611 16.0276 96.3367 15.9954 96.1123 15.9954Z" fill="#FAEFE3"/>
<path d="M120.732 64.8823L119.418 64.9145C115.891 65.1076 112.269 66.1375 108.55 67.9398C106.178 69.4203 104.062 71.126 102.235 73.0892L99.6707 76.2111C94.9262 82.8088 92.522 91.5628 92.522 102.473L117.334 130.344C119.738 130.634 121.598 130.763 122.976 130.731C130.67 130.731 136.728 128.285 141.152 123.393C142.627 121.751 143.941 119.852 145.031 117.696C145.993 115.701 147.083 113.062 148.301 109.811L149.455 105.402L150 101.025L149.968 96.68L149.359 92.3674L148.173 88.0869C147.179 85.2547 145.833 82.4226 144.07 79.5904L141.152 75.3743C138.331 72.2524 135.446 69.8065 132.433 68.0685C128.65 66.2019 126.342 65.3007 125.541 65.3329C123.938 65.0754 122.335 64.8823 120.732 64.8823Z" fill="#A96E46"/>
<path d="M115.859 85.8989H115.347C113.968 85.9633 112.493 86.1886 110.955 86.6713L109.192 87.315C108.006 87.83 106.819 88.5702 105.601 89.4392C101.979 92.1426 98.2602 96.4874 94.4454 102.506L113.391 126.29C118.264 123.104 121.726 119.724 123.778 116.12C124.387 115.09 124.771 114.317 124.964 113.77C126.502 108.331 127.753 104.92 128.682 103.6C128.907 102.538 129.003 101.54 129.035 100.543C129.131 96.584 127.817 93.1403 125.092 90.1472C122.559 87.315 119.482 85.8989 115.859 85.8989Z" fill="#E8C3A9"/>
<path d="M144.39 87.2505C144.166 87.2827 144.102 87.6045 144.23 88.1838C144.743 90.662 145.031 92.1746 145.127 92.7218C145.352 94.1057 145.544 95.2965 145.608 96.3263C145.672 97.0988 145.736 97.8712 145.736 98.708C145.736 98.9011 145.769 99.5447 145.736 100.607L145.704 101.669C145.608 103.149 145.384 104.887 145.031 106.915C144.679 108.942 144.166 111.227 143.525 113.802L142.787 117.536C143.589 116.377 144.294 115.218 144.935 114.06L145.833 112.29L146.602 110.519L147.243 108.749L147.756 106.947L148.141 105.145L148.397 103.31L148.557 101.476C148.654 98.8045 148.365 96.262 147.628 93.7838C147.083 91.9493 146.506 90.5011 145.961 89.439C145.224 88.0229 144.711 87.3149 144.39 87.2505Z" fill="#E8C3A9" fill-opacity="0.2235"/>
<path d="M132.561 72.2529H132.433C132.112 72.3173 132.144 72.607 132.529 73.1219C134.613 75.1495 135.799 76.3081 136.119 76.6621L139.838 81.0713C140.479 81.715 140.928 82.069 141.12 82.1334C141.216 82.1978 141.281 82.2299 141.345 82.2299L142.37 82.5196C141.858 81.2644 141.313 80.138 140.736 79.1081C140.447 78.5932 140.159 78.1104 139.838 77.6598C139.069 76.5656 138.588 75.9541 138.427 75.8253C137.594 74.9886 137.049 74.4736 136.857 74.3771C136.472 74.0874 136.087 73.8299 135.703 73.5725C134.164 72.7035 133.138 72.2529 132.561 72.2529Z" fill="#E8C3A9" fill-opacity="0.2235"/>
<path d="M120.443 66.8779H119.899C118.841 66.9101 117.783 67.0388 116.757 67.2641C116.404 67.2963 115.378 67.6182 113.744 68.1653L111.916 68.9055C110.73 69.4205 109.64 69.9998 108.647 70.6434C106.659 71.8986 105.024 73.4113 103.774 75.1492C102.299 77.209 101.915 78.271 102.652 78.271C102.876 78.3032 103.261 78.1745 103.774 77.8526L107.236 75.3423C108.102 74.7952 109.031 74.2159 110.057 73.6687C111.403 72.9285 113.038 72.2526 114.93 71.7055C117.045 71.1584 119.033 70.8365 120.892 70.7722C121.918 70.6434 123.97 70.7722 127.047 71.094C127.464 71.094 127.881 71.0618 128.297 70.9653L129.355 69.2917C128.971 69.0343 128.586 68.7768 128.169 68.5515C125.925 67.4572 123.361 66.9101 120.443 66.8779Z" fill="#E8C3A9" fill-opacity="0.2235"/>
<path d="M122.046 83.5173H121.886C120.7 83.5494 120.219 83.8391 120.508 84.3862C123.008 87.5724 124.387 89.4069 124.611 89.954C125.573 91.7242 125.925 92.9793 125.701 93.7196C125.188 94.5563 123.489 96.1334 120.636 98.4828C119.161 99.8023 113.615 104.115 103.966 111.453L113.519 129.894C118.969 127.706 123.585 124.391 127.432 119.885C131.696 114.671 134.324 109.747 135.382 105.145L135.767 102.828C135.927 101.315 135.927 99.8023 135.735 98.3219C135.254 95.1678 134.292 92.4966 132.85 90.3081C131.151 88.0874 129.355 86.446 127.464 85.3839C124.867 84 123.072 83.3885 122.046 83.5173Z" fill="#653716" fill-opacity="0.2235"/>
<path d="M80.8532 25.5864H80.5647C78.8978 25.7152 77.4873 26.0692 76.3973 26.6485C74.4418 27.5175 72.7749 28.7404 71.3964 30.2853C69.3448 32.3772 67.8702 35.6278 66.9726 40.0692C66.4917 43.6094 67.0367 46.0232 68.6075 47.2462C69.2807 47.7611 70.05 48.0508 70.9476 48.0508C71.9094 48.1795 73.4481 47.6002 75.5959 46.3772C75.7882 46.4738 75.8844 46.6991 75.8844 47.0853C74.9227 55.5496 73.7687 62.0508 72.3902 66.5244C69.9859 74.2807 66.7482 82.1014 62.6449 90.0186L66.0429 111.582C66.4276 111.292 66.9405 110.52 67.5176 109.232C69.1525 105.177 70.2424 102.152 70.8194 100.157C72.5825 94.6209 74.6983 87.1221 77.2308 77.6278C78.4169 72.8324 79.2183 68.4876 79.603 64.5933C79.8595 62.1795 80.1159 57.706 80.3403 51.1726C80.4365 49.8531 80.5327 48.8232 80.6929 48.083C80.8212 47.5037 81.0135 46.8278 81.3341 46.0876C82.8087 43.4807 83.8986 41.2922 84.6039 39.5542C84.8924 39.0071 85.3412 37.4301 85.9823 34.7588C86.4632 31.7979 86.3029 29.6738 85.5015 28.3864C85.4374 28.0324 84.9245 27.3887 83.9628 26.4554C83.0972 25.9083 82.0714 25.5864 80.8532 25.5864Z" fill="#FAEFE3"/>
<path d="M80.8532 25.5864H80.5647C78.8977 25.7152 77.4872 26.0692 76.3973 26.6485C74.4418 27.5175 72.7748 28.7404 71.3964 30.2853C69.3447 32.3772 67.8701 35.6278 66.9725 40.0692C66.4917 43.6094 67.0366 46.0232 68.6074 47.2462C69.2806 47.7611 70.05 48.0508 70.9476 48.0508C71.0437 48.0508 71.1079 48.0508 71.204 48.0508C72.1657 48.0508 73.6404 47.5037 75.5638 46.3772C75.6599 46.4094 75.7561 46.506 75.7882 46.6347C76.6217 45.8623 77.936 44.7359 79.7632 43.2232C80.4685 42.5473 81.1417 41.8715 81.7828 41.1956C83.1933 39.7795 84.4756 38.0416 85.6297 35.9496C85.7258 35.5956 85.822 35.2094 85.9182 34.791C86.399 31.8301 86.2387 29.706 85.4373 28.4186C85.3732 28.0646 84.8603 27.4209 83.8986 26.4876C83.0972 25.9083 82.0713 25.5864 80.8532 25.5864Z" fill="#C89A6C"/>
<path d="M85.1809 32.1841L69.9859 37.5266C68.8639 39.4898 67.806 41.4209 66.8443 43.3841C67.0046 45.1864 67.5816 46.4737 68.6074 47.2783C69.2806 47.7933 70.05 48.0829 70.9476 48.0829C71.0438 48.0829 71.1079 48.0829 71.2041 48.0829C72.1658 48.0829 73.6404 47.5358 75.5638 46.4094C75.7561 46.5059 75.8523 46.7312 75.8523 47.1174C74.8906 55.5818 73.7365 62.0829 72.3581 66.5565C69.9538 74.3128 66.7161 82.1335 62.6128 90.0507L66.0108 111.614C66.3955 111.324 66.9084 110.552 67.4854 109.265C69.1203 105.209 70.2103 102.184 70.7873 100.189C71.4926 97.9358 72.294 95.3289 73.1275 92.4002L73.0313 90.0829C72.9992 89.4714 72.9992 88.7312 73.0633 87.8622L75.3073 74.4094C76.3011 63.3381 77.0384 56.4186 77.4872 53.6829C77.936 50.9795 78.6092 48.3082 79.5709 45.6691C80.0838 44.2209 81.6546 40.8094 84.3153 35.4668C84.8282 34.1473 85.1168 33.0209 85.1809 32.1841Z" fill="#C89A6C" fill-opacity="0.2706"/>
<path d="M95.5674 20.8227H95.375C92.2655 20.7905 89.7651 22.6893 87.8737 26.5192C87.2326 27.7422 87.0723 29.9951 87.4249 33.31C87.6493 34.5652 87.9058 35.6916 88.2904 36.7537C89.2522 39.4571 89.9574 41.0342 90.3741 41.5491C90.4703 41.71 90.4703 41.9675 90.3741 42.3215C82.3599 53.8434 77.0064 64.3675 74.3457 73.9261C70.6271 88.3767 69.2807 101.508 70.2745 113.287L78.4169 112.579C77.8399 108.459 77.5193 104.469 77.359 100.574L77.2949 94.7813C77.359 90.9836 77.6475 87.2502 78.1284 83.6456L79.026 78.3031C79.7312 74.7951 80.6288 71.3836 81.7508 68.0686C83.7384 62.5652 85.3412 58.864 86.5594 56.9974C88.8995 52.7169 91.977 48.1468 95.7918 43.2227C99.9592 44.6066 103.389 44.7353 106.05 43.5767C108.294 42.5146 109.769 40.4227 110.474 37.2365C111.019 33.9215 110.057 30.8319 107.557 27.9997C103.197 23.333 99.1898 20.9514 95.5674 20.8227Z" fill="#FAEFE3"/>
<path d="M105.249 46.7632L104.672 46.7954C102.203 47.1816 100.825 48.2115 100.504 49.7885C100.344 50.4965 100.344 51.2689 100.472 52.1379C100.632 53.2643 101.273 55.1632 102.395 57.8023C102.524 58.0919 102.46 58.639 102.267 59.3793C94.3492 67.554 88.6751 76.2758 85.213 85.5126C81.8149 95.2322 80.3082 105.048 80.725 114.993L89.8933 101.476C90.1497 98.3218 90.5344 95.3287 90.9832 92.5287L91.7526 88.4735C92.2975 85.8666 92.9387 83.4207 93.708 81.1678C95.1827 76.662 97.042 72.8965 99.2859 69.839C100.889 67.7471 102.524 66.5563 104.191 66.2666C105.313 66.0413 108.262 65.977 113.006 66.0735C113.936 66.0092 114.769 65.8161 115.571 65.4942C117.558 64.5931 118.777 63.3701 119.193 61.8253C119.899 58.2207 118.777 54.8092 115.827 51.5264C111.948 48.3724 108.422 46.7954 105.249 46.7632Z" fill="#FAEFE3"/>
<path d="M95.5673 20.8228H95.375C95.3429 20.8228 95.3108 20.8228 95.2788 20.8228C92.2013 20.8228 89.7329 22.7216 87.8736 26.5193C87.2325 27.7423 87.0722 29.9952 87.4248 33.3101C87.6492 34.5653 87.9057 35.6917 88.2904 36.7538C89.2521 39.4572 89.9573 41.0343 90.3741 41.5492C90.4061 41.5814 90.4061 41.6136 90.4382 41.6779C91.7525 42.2572 93.5157 42.8365 95.6314 43.448C95.6955 43.3837 95.7596 43.2871 95.7917 43.2228C98.0677 43.9952 100.119 44.3814 101.979 44.3814C103.485 44.3814 104.864 44.1239 106.082 43.609C108.326 42.5469 109.801 40.4549 110.506 37.2687C111.051 33.9538 110.089 30.8641 107.589 28.0319C103.197 23.3331 99.1897 20.9515 95.5673 20.8228Z" fill="#C89A6C"/>
<path d="M105.248 46.7632L104.671 46.7954C102.203 47.1816 100.825 48.2115 100.504 49.7885C100.344 50.4965 100.344 51.2689 100.472 52.1379C100.632 53.2643 101.273 55.1632 102.395 57.8023C102.395 57.8344 102.395 57.8344 102.427 57.8666L107.428 61.954L111.243 66.0413C111.82 66.0413 112.397 66.0413 113.038 66.0735C113.968 66.0092 114.801 65.8161 115.603 65.4942C117.59 64.5931 118.809 63.3701 119.225 61.8253C119.931 58.2207 118.809 54.8092 115.859 51.5264C111.948 48.3724 108.422 46.7954 105.248 46.7632Z" fill="#C89A6C"/>
<path d="M74.2496 112.965L71.1721 113.223C72.23 114.703 73.0314 115.443 73.6405 115.443C73.7687 115.443 73.897 115.411 74.0252 115.315C74.1214 115.25 74.2175 115.025 74.3137 114.607C74.2496 114.06 74.2496 113.512 74.2496 112.965Z" fill="#C89A6C" fill-opacity="0.2706"/>
<path d="M90.2458 23.0435C89.3803 23.9446 88.6109 25.1032 87.9057 26.5193C87.2646 27.7423 87.1043 29.9952 87.4569 33.3101C87.6813 34.5653 87.9377 35.6917 88.3224 36.7538C89.2841 39.4572 89.9894 41.0343 90.4061 41.5492C90.5023 41.7101 90.5023 41.9676 90.4061 42.3216C82.3919 53.8435 77.0384 64.3676 74.3777 73.9262C70.8193 87.7653 69.4409 100.349 70.1782 111.71C70.5308 112.289 70.8514 112.772 71.172 113.223L74.2494 112.965C74.1853 103.471 74.3777 96.9055 74.7944 93.3009C75.7561 84.5147 76.9422 77.4664 78.3527 72.1883C80.0517 67.2963 81.8149 63.4664 83.5459 60.6664C84.9565 58.3492 85.854 57.0297 86.2387 56.7078C86.6234 56.2572 87.0722 55.7423 87.6172 55.1308C87.6172 55.0986 87.6492 55.0986 87.6492 55.0664H87.6813C88.9956 53.586 90.8229 51.6871 93.163 49.3055L95.0544 46.7952C95.7276 45.7653 96.3687 44.671 96.9457 43.5446C98.1639 41.1952 99.2218 38.6527 100.055 35.917L90.2458 23.0435Z" fill="#C89A6C" fill-opacity="0.2706"/>
<path d="M105.248 46.7632L104.671 46.7954C102.203 47.1816 100.825 48.2115 100.504 49.7885C100.344 50.4965 100.344 51.2689 100.472 52.1379C100.632 53.2643 101.273 55.1632 102.395 57.8023C102.524 58.0919 102.46 58.639 102.267 59.3793C94.3491 67.554 88.6751 76.2758 85.2129 85.5126C82.6804 92.7862 81.1737 100.092 80.7891 107.494C81.0455 107.816 81.334 107.945 81.5905 107.945C81.8149 107.945 82.0072 107.848 82.2316 107.655C82.5843 107.237 82.8087 106.851 82.9369 106.464C86.4631 94.331 88.7392 86.9287 89.7971 84.2896C91.6884 79.5264 93.4195 76.0184 95.0223 73.6689C97.6189 70.0643 99.895 67.5862 101.818 66.2344C102.684 65.4942 106.306 63.7885 112.59 61.085C114.096 60.1195 115.122 59.1862 115.731 58.2207L109.416 47.6321C107.973 47.0528 106.595 46.7632 105.248 46.7632Z" fill="#C89A6C" fill-opacity="0.2706"/>
<path d="M106.05 41.936L103.87 44.2211C104.639 44.0924 105.377 43.8671 106.082 43.5774C106.338 43.4487 106.563 43.3199 106.787 43.1912L106.05 41.936Z" fill="#C89A6C" fill-opacity="0.2706"/>
<path d="M76.0447 70.5791L63.4463 86.7032C62.9334 89.3745 62.6449 90.9515 62.6128 91.5308C62.4846 92.6251 62.3884 93.7193 62.3243 94.8458C62.1961 97.0665 62.1961 99.3515 62.3564 101.701C62.6769 105.595 63.0616 108.202 63.4784 109.522C64.0233 111.71 64.5683 112.643 65.1133 112.322C66.652 109.232 67.9343 106.496 68.9601 104.147C69.8577 102.184 70.7232 99.8021 71.5247 97.0343C74.6021 80.5561 76.1408 71.7377 76.0447 70.5791Z" fill="#C89A6C" fill-opacity="0.2706"/>
<path d="M72.7749 60.1197L70.4347 60.2162C64.1836 60.6668 57.8684 62.984 51.457 67.1036C42.994 62.5335 36.9673 62.5657 33.3128 67.2001C32.9922 67.876 33.0884 68.6484 33.6013 69.4852C37.5443 73.0254 39.4677 75.2461 39.4357 76.1151C40.0447 77.3381 40.0768 79.7197 39.5959 83.1955C39.051 86.5749 34.563 97.0346 26.132 114.51C25.6832 117.117 25.6191 118.791 25.8756 119.563C26.3885 123.071 28.376 125.614 31.8382 127.191C34.1783 128.414 37.929 128.961 43.0902 128.832C46.8088 128.607 50.2388 127.642 53.4125 125.968C54.0857 125.71 55.4962 124.777 57.6119 123.168C58.3813 122.492 59.1507 121.623 59.92 120.593C63.3822 115.412 66.0109 109.715 67.8702 103.504C68.5434 101.412 69.0242 99.5771 69.3768 98.0323L71.6529 83.7105C71.9414 82.2944 72.3261 81.2323 72.7428 80.5243C73.0313 79.7519 73.993 78.8829 75.6279 77.853C80.9494 75.6001 83.8666 74.2162 84.3795 73.7657C85.6618 72.8967 86.6555 71.7381 87.3608 70.2898C88.5789 67.7794 87.5531 65.3335 84.2833 63.0162C81.7829 60.8277 77.936 59.8944 72.7749 60.1197Z" fill="#F1D5B0"/>
<path d="M74.2495 60.0874C73.7686 60.0874 73.2878 60.0874 72.7749 60.1196L70.4347 60.2161C64.1836 60.6667 57.8684 62.984 51.457 67.1035C47.2576 64.8506 43.6672 63.692 40.6538 63.692C37.6084 63.692 35.1721 64.8506 33.3449 67.2C33.0243 67.8759 33.1205 68.6483 33.6334 69.4851C33.8257 69.6782 34.0501 69.8391 34.2425 70.0322C35.1721 70.4506 36.1659 70.8368 37.1917 71.1908C38.8586 71.6736 40.2371 72.0276 41.3911 72.1886L53.2522 74.023C58.0928 75.1173 60.9459 75.7288 61.8114 75.8575C64.9209 76.2115 67.3573 76.4046 69.1204 76.4046C69.3127 76.4046 69.473 76.4046 69.6654 76.4046L71.9734 76.3403C73.5122 76.2759 74.9868 76.115 76.4294 75.8897C77.8719 75.6644 79.2824 75.3748 80.6609 75.0207C81.879 74.6989 83.0651 74.3127 84.2512 73.8621C84.3154 73.8299 84.3795 73.7656 84.4115 73.7334C85.6938 72.8644 86.6876 71.7058 87.3928 70.2575C88.611 67.7472 87.5852 65.3012 84.3154 62.984C82.0073 61.0529 78.6733 60.0874 74.2495 60.0874Z" fill="#CD965B" fill-opacity="0.4118"/>
<path d="M74.2496 60.0874C73.7687 60.0874 73.2879 60.0874 72.775 60.1196L70.4348 60.2161C64.1837 60.6667 57.8685 62.984 51.4571 67.1035C47.2577 64.8506 43.6673 63.692 40.6539 63.692C37.865 63.692 35.5889 64.6575 33.8258 66.5886C33.7937 67.0713 33.7937 67.5541 33.8258 68.0046C33.8899 68.7127 34.0181 69.3886 34.1784 70C37.7047 73.2184 39.4358 75.246 39.4037 76.0828C39.6602 76.5977 39.8204 77.3058 39.8525 78.1748C40.4616 78.8828 41.1668 79.6874 41.9041 80.5242C42.6735 81.6184 43.1864 82.8736 43.507 84.2253C44.052 86.7035 43.6993 91.2736 42.4491 97.8713C43.0903 96.9702 43.6032 95.4897 44.052 93.4621C44.7572 89.5035 45.1419 86.092 45.2381 83.1954C45.5266 83.1954 45.6869 83.8713 45.783 85.2552C45.8792 88.1196 45.8471 90.8874 45.6869 93.5908C47.5141 91.2736 48.8284 87.5403 49.6619 82.423C49.8543 82.7127 49.9504 83.5817 49.9184 85.0299C49.9504 85.7702 49.8222 88.5058 49.4696 93.1403C51.9059 88.184 54.5346 84.7081 57.3556 82.8092V89.6C57.58 89.5679 57.8685 89.1817 58.2852 88.4414C59.0546 86.8966 59.7278 85.4161 60.2728 84C60.3048 84 60.3369 83.9679 60.3689 83.9679C60.5933 83.9679 60.6574 84.4828 60.5933 85.5127C60.8818 87.0253 59.5675 91.8529 56.6824 100.06L65.0813 83.5173C64.1196 92.0782 63.8311 96.8092 64.2158 97.6782C65.0492 95.0069 66.4597 91.7885 68.4152 87.9587C69.5052 86.0276 70.563 84.5472 71.653 83.5173C71.9415 82.1977 72.2941 81.1679 72.7108 80.492C72.9994 79.7196 73.9611 78.8506 75.596 77.8207C80.9174 75.5679 83.8346 74.184 84.3475 73.7334C85.6298 72.8644 86.6236 71.7058 87.3288 70.2575C88.547 67.7472 87.5211 65.3012 84.2513 62.984C82.0074 61.0529 78.6734 60.0874 74.2496 60.0874Z" fill="#CD965B" fill-opacity="0.4118"/>
<path d="M88.5149 96.8091C88.3867 96.8091 88.2905 96.8091 88.1623 96.8091H87.9058C81.9753 97.1631 79.7954 100.317 81.3341 106.303C81.27 106.239 80.9495 106.207 80.3404 106.207C79.1222 106.207 76.8141 106.336 73.4161 106.561L68.6717 107.398C66.1712 107.044 62.3885 106.464 57.3556 105.66C55.336 105.434 53.7652 105.306 52.5791 105.306C52.3867 105.306 52.1623 105.306 52.0021 105.306L50.6236 105.338C46.9691 105.531 43.8275 106.464 41.1348 108.17C38.8267 110.069 37.5444 111.292 37.2559 111.839C36.5186 112.772 35.8133 113.738 35.2363 114.8C33.377 118.05 32.255 121.719 31.9024 125.775C31.7421 126.483 31.7741 128.092 32.0626 130.602C32.1268 130.956 32.1909 131.31 32.287 131.632C32.2229 131.729 32.1268 131.793 32.0626 131.89L34.0502 135.623C34.9798 136.17 35.9736 136.621 36.9674 136.975C41.0386 138.487 46.7768 139.485 54.214 140C63.5105 139.292 71.0759 138.777 76.8782 138.519L80.1801 137.908L93.5478 134.593C93.644 134.593 93.7081 134.593 93.8043 134.593C94.5095 134.593 95.1827 134.69 95.7918 134.915C98.9013 136.363 100.921 137.168 101.851 137.296C102.844 137.522 103.87 137.65 104.896 137.65C105.409 137.65 105.922 137.618 106.435 137.554C111.724 136.299 115.186 134.561 116.757 132.372C118.2 130.087 118.488 127.931 117.655 125.936C117.238 125.195 116.789 124.616 116.34 124.198C111.82 120.464 109.16 118.018 108.358 116.827C107.653 116.152 106.082 112.45 103.678 105.66C103.55 105.306 103.069 104.565 102.235 103.407C97.8114 98.9976 93.2273 96.8091 88.5149 96.8091Z" fill="#F5E1C7"/>
<path d="M88.1622 96.8091C87.4249 96.8091 86.5273 96.9378 85.4374 97.1953L84.0269 97.6781C83.1934 98.0643 82.4882 98.5792 82.0073 99.2229C81.815 99.4803 81.6226 99.7378 81.4944 100.027C81.6547 100.381 81.847 100.768 82.0394 101.122C82.4881 101.959 83.2575 102.956 84.3154 104.05C89.1239 107.816 92.7464 110.97 95.1827 113.513C96.7214 115.122 97.8755 116.602 98.6448 117.954C99.6066 119.499 100.312 121.108 100.825 122.685C100.953 122.975 101.402 126.129 102.139 132.115L102.844 134.722C103.165 135.719 103.646 136.685 104.255 137.65C104.447 137.65 104.607 137.65 104.8 137.65C105.313 137.65 105.826 137.618 106.339 137.554L109.224 136.782C111.019 136.234 112.525 135.559 113.776 134.85C115.026 134.11 115.988 133.306 116.693 132.404C118.071 130.602 118.392 128.446 117.59 125.968C117.11 125.163 116.629 124.519 116.116 124.069C111.211 120.046 108.518 117.503 108.07 116.441C107.268 115.411 105.794 111.839 103.614 105.66C103.389 105.145 102.908 104.404 102.171 103.407C100.729 101.637 98.4525 99.9631 95.2789 98.3861C93.0669 97.5171 91.7205 97.0666 91.2397 97.0666H91.2076C90.31 96.9056 89.4124 96.8091 88.5149 96.8091H88.3546C88.3225 96.8091 88.2584 96.8091 88.1622 96.8091Z" fill="#CD965B" fill-opacity="0.4118"/>
<path d="M88.1622 96.8091C87.4249 96.8091 86.5273 96.9378 85.4374 97.1953L84.0269 97.6781C83.1934 98.0643 82.4881 98.5792 82.0073 99.2229C81.4944 99.8666 81.1738 100.607 80.9815 101.508C80.8212 102.377 80.8212 103.407 80.9815 104.501L81.3661 106.271C81.2059 106.207 80.8532 106.207 80.2762 106.207C80.4685 106.818 80.6929 107.494 80.9494 108.234C80.9815 108.46 80.9815 108.653 81.0135 108.846C81.0456 109.618 80.8212 110.391 80.3083 111.195C79.4427 112.354 76.1729 113.995 70.5309 116.184C70.6271 116.248 70.9476 116.313 71.3964 116.313C72.6466 116.313 75.1791 116.055 78.9939 115.508C79.2504 115.701 79.058 115.926 78.449 116.216L73.1916 118.469C74.6021 118.276 75.9165 118.179 77.1346 118.179C79.603 118.179 81.7188 118.598 83.5139 119.402C83.7063 119.692 83.4178 120.046 82.6805 120.496L76.8461 123.103C76.6538 123.296 78.0963 123.393 81.2379 123.393C81.5264 123.49 81.5905 123.586 81.4302 123.715L75.5638 126.193C82.969 126.901 86.6235 127.416 86.4952 127.673C86.4311 127.834 86.0144 127.995 85.213 128.188L77.1987 129.798C76.8141 129.894 76.6858 129.991 76.8141 130.152L90.3421 131.021L64.6965 133.981C65.6903 134.207 69.1845 134.336 75.1791 134.336C79.026 134.336 83.8986 134.303 89.7971 134.207C90.3421 134.271 91.1756 134.529 92.2975 134.947L93.5157 134.657C93.6119 134.657 93.7081 134.657 93.7722 134.657C94.4454 134.657 95.1186 134.754 95.7597 134.979C98.6128 136.299 100.504 137.071 101.434 137.296C102.556 137.586 103.71 137.715 104.864 137.715C105.377 137.715 105.89 137.683 106.403 137.618L109.288 136.846C111.083 136.299 112.59 135.623 113.84 134.915C115.09 134.175 116.052 133.37 116.757 132.469C118.135 130.667 118.456 128.51 117.655 126.032C117.174 125.227 116.693 124.584 116.18 124.133C111.275 120.11 108.582 117.568 108.134 116.506C107.332 115.476 105.858 111.903 103.678 105.724C103.453 105.209 102.973 104.469 102.235 103.471C100.793 101.701 98.5166 100.027 95.343 98.4505C93.131 97.5815 91.7846 97.1309 91.3038 97.1309H91.2717C90.3741 96.97 89.4765 96.8735 88.5789 96.8735H88.4187C88.3225 96.8091 88.2584 96.8091 88.1622 96.8091Z" fill="#CD965B" fill-opacity="0.4118"/>
<path d="M84.8603 66.5244L83.546 67.0394C83.0972 67.2325 81.847 67.683 79.7953 68.3589C78.9939 68.6164 78.2245 68.8095 77.4552 69.0026C76.6858 69.1957 75.9485 69.3566 75.2432 69.4532C72.5825 69.8715 70.7873 70.0968 69.8897 70.1934C67.9343 70.3865 66.4917 70.5152 65.4979 70.483C64.6324 70.5152 63.1898 70.5152 61.2023 70.483C59.3751 70.4509 57.2914 70.3865 54.9512 70.2899H54.278C53.7651 70.2899 53.2843 70.2899 52.8675 70.3221C52.5149 70.3865 52.2264 70.4509 52.002 70.5152C51.5852 70.7405 51.3929 70.8692 51.4891 70.9336C51.457 71.1589 51.7135 71.4164 52.2584 71.7382C53.701 72.4463 55.8488 73.0577 58.7339 73.5405C61.2664 73.9267 62.9013 74.152 63.5745 74.2164C64.953 74.3773 66.1391 74.4738 67.1649 74.5382C69.6333 74.6669 71.9093 74.6348 73.961 74.4095C74.2815 74.3773 74.5701 74.3451 74.8586 74.2807L77.5193 73.7658L79.8274 73.1865L81.8149 72.5428L83.4498 71.8348L84.7321 71.0623L85.6938 70.2256L86.3029 69.3244L86.5914 68.3589L86.5273 67.329L84.8603 66.5244Z" fill="#F5E1C7" fill-opacity="0.4118"/>
<path d="M85.0207 100.8H84.9566C84.636 100.8 84.8283 101.154 85.5656 101.83C90.0536 105.756 92.9067 108.299 94.0607 109.522C95.7918 111.324 97.1702 113.126 98.2281 114.929C99.4783 117.085 100.376 119.048 100.921 120.786L101.819 123.876C102.524 127.159 102.973 129.154 103.165 129.83C103.453 130.988 103.71 131.825 103.902 132.308C104.319 133.563 105.024 134.69 105.954 135.752L107.3 134.303C106.595 132.952 105.986 131.568 105.537 130.087L101.979 118.308C101.017 115.83 100.184 114.124 99.5425 113.126C98.6769 111.678 97.8114 110.455 96.9458 109.457C95.1186 107.462 93.5799 105.982 92.3296 105.016C88.8675 102.152 86.4312 100.736 85.0207 100.8Z" fill="#F5E1C7" fill-opacity="0.4118"/>
<path d="M79.9235 26.4233L78.8656 26.7774C77.4872 27.2923 76.237 27.9682 75.0829 28.8693C74.5059 29.3199 73.9609 29.8027 73.448 30.3498C73.1274 30.6072 72.4542 31.4762 71.3643 32.9245C70.5629 34.0509 69.9217 35.3705 69.4088 36.8831C69.1524 37.6233 68.928 38.4279 68.7677 39.2647C68.5754 40.1015 68.4471 41.0027 68.351 41.936C68.383 41.936 68.4151 41.9682 68.4151 41.936C69.4088 40.2624 70.2423 38.9751 70.9476 38.1061C71.781 37.0762 72.4863 36.336 73.0633 35.8532C73.8327 35.1774 74.6982 34.5659 75.6279 33.9544C76.4934 33.4072 78.1604 32.4739 80.6608 31.1544C81.0776 30.9291 81.5264 30.5751 81.9431 30.1567C82.4881 29.513 82.5842 28.9015 82.2637 28.3544C82.1354 28.1613 81.9751 28.0004 81.7828 27.8394L81.4302 27.582L79.9235 26.4233Z" fill="#E3DBD2" fill-opacity="0.2588"/>
<path d="M91.0152 26.0688H90.919C90.6946 26.101 90.5343 26.262 90.3741 26.5516L89.797 28.2252L89.4765 29.8665L89.4124 31.4757L89.6047 33.0206L90.0214 34.5332L90.6946 36.0137L91.6243 37.462L92.8104 38.8459L94.2209 40.1976C94.83 40.616 95.4391 40.97 96.0161 41.2918C98.3562 42.547 100.44 43.0941 102.299 42.9332C103.646 42.8045 104.896 42.2895 105.986 41.3884C106.338 41.0987 106.691 40.7447 107.044 40.3585L108.967 37.1723C106.37 37.816 103.582 37.2367 100.6 35.4344C99.5103 34.7907 98.2601 33.793 96.8175 32.4091C95.952 31.5401 94.2529 29.5125 91.6563 26.3263C91.464 26.1654 91.2717 26.0688 91.0152 26.0688Z" fill="#E3DBD2" fill-opacity="0.2588"/>
<path d="M104.928 50.3359H104.8C103.485 50.3359 102.94 50.7221 103.229 51.4946L103.325 51.6877L105.249 54.5198C106.403 57.0946 107.428 59.1221 108.326 60.6026C109.897 63.3382 111.596 64.7221 113.423 64.69C113.936 64.6578 114.385 64.5934 114.737 64.4647L118.552 63.0164L118.103 61.89C117.783 61.1497 117.43 60.4095 117.013 59.7015C116.212 58.2854 115.218 56.9015 114.064 55.6141C113.487 54.9704 112.846 54.3267 112.205 53.7152L111.307 53.0072C108.871 51.2371 106.787 50.3359 104.928 50.3359Z" fill="#E3DBD2" fill-opacity="0.2588"/>
<path d="M83.6742 77.2729L83.3216 77.6592C82.4561 78.6569 81.9752 79.2362 81.9111 79.4293C81.5264 81.0063 81.302 82.0684 81.2058 82.6155C81.1738 82.7764 81.1417 82.9051 81.1417 83.0339C81.1417 83.0661 81.1738 83.0339 81.2379 82.9695C81.7187 82.3258 82.5202 81.2638 83.6422 79.8798C83.8345 79.6224 84.091 79.2362 84.3795 78.7212L83.6742 77.2729Z" fill="#E3DBD2"/>
</svg>
