<svg width="140" height="134" viewBox="0 0 140 134" fill="none" xmlns="http://www.w3.org/2000/svg">
<path d="M140 134H0C0 134 1.87515 130.885 4.55886 129.009C6.74367 127.477 9.78865 127.322 10.2703 125.945C10.3736 125.653 10.3736 125.309 10.3219 124.93C10.0811 123.157 8.464 120.593 8.65323 119.182C9.92627 110.112 26.6306 87.2909 26.6306 87.2909C26.5962 86.9467 26.2866 84.1414 25.9941 80.2003C25.3748 71.75 24.8415 58.1021 27.2327 52.6292C30.1745 45.8828 44.6424 33.4569 49.5625 29.3608C50.4915 28.6035 51.0764 28.1216 51.1797 28.0356C51.1969 28.0184 50.698 27.5537 50.698 27.5537L46.81 23.9395L34.9742 12.9077L49.2873 0.0859375L51.3345 7.10777L60.3146 5.31789L62.0177 9.24186L63.1187 17.6577L63.0155 19.7058L62.9295 21.3408L62.9123 21.6161C63.0671 21.6678 63.6348 21.8399 64.5466 22.1324C70.4645 24.0256 90.6783 30.772 96.6306 35.7803C102.549 40.7713 111.133 54.4535 113.335 61.8712C113.954 63.9537 114.66 67.6883 114.797 70.7518C114.866 72.0425 114.814 73.23 114.625 74.1078C113.817 77.7392 108.535 84.2963 109.172 87.9621C109.791 91.5763 113.696 93.9513 117.756 97.4967C119.322 98.8735 120.904 100.405 122.349 102.264C123.158 103.297 123.898 104.415 124.586 105.672C125.343 107.048 124.947 111.971 124.947 111.971C125.136 115.103 126.151 118.08 127.803 120.61C129.472 123.157 131.777 125.257 134.581 126.685L140 134Z" fill="url(#paint0_radial_20002_12227)"/>
<path d="M96.7338 50.564L97.68 52.6808L99.2627 80.0626C99.2627 80.0626 65.5788 93.2801 39.9459 87.3081L96.7338 50.564Z" fill="#C68181"/>
<path d="M36.7977 60.8731C37.8471 69.6848 38.8965 78.4793 39.9459 87.291C59.8329 88.7367 79.823 85.9314 98.5746 79.0645C97.9553 69.5643 97.3359 60.0642 96.7338 50.5469C77.621 58.3432 57.1664 61.8541 36.7977 60.8731Z" fill="#FFE3DC"/>
<path d="M50.0614 27.3988L37.073 21.3236L41.3566 14.1641L51.6958 22.4423L50.0614 27.3988Z" fill="#C68181"/>
<path d="M61.6393 24.5079C61.6393 24.5079 67.7636 28.4835 68.6754 29.7571C69.5872 31.0307 70.4645 28.6384 70.4645 28.6384L63.6176 23.94L61.6221 23.0967V24.5079H61.6393Z" fill="#DB9595"/>
<path d="M64.5637 22.1153L60.0565 27.5366C60.0565 27.5366 55.9277 29.206 54.2418 29.292C53.0204 29.3436 50.7151 29.3609 49.5797 29.3609C50.5087 28.6036 51.0936 28.1217 51.1968 28.0357C51.214 28.0184 50.7151 27.5538 50.7151 27.5538L62.9466 21.3408L62.9294 21.6162C63.0843 21.6334 63.652 21.8227 64.5637 22.1153Z" fill="#DB9595"/>
<path d="M62.8951 0L63.3252 17.5374L63.2735 19.3445L63.2047 21.4269L62.9639 21.599L60.6759 23.148L56.96 25.6607L51.4205 7.27999C51.4205 7.26278 51.4033 7.22836 51.4033 7.21115C51.3861 7.15952 51.3689 7.09068 51.3689 7.09068L62.8951 0Z" fill="#DB9595"/>
<path d="M140 134H0C0 134 0.240845 133.604 0.670927 133.002C1.44507 131.918 2.82133 130.214 4.55886 129.009C6.74367 127.477 9.78865 127.323 10.2703 125.946C10.3736 125.653 10.3736 125.309 10.3219 124.93C24.9447 128.045 88.7687 125.688 95.7533 125.085C101.688 124.569 116.81 108.374 122.332 102.247C123.141 103.28 123.881 104.398 124.569 105.655C125.326 107.032 124.93 111.954 124.93 111.954C124.947 112.264 124.982 112.573 125.016 112.883C125.326 115.671 126.289 118.304 127.786 120.593C129.196 122.745 131.089 124.603 133.342 125.98C133.738 126.221 134.151 126.462 134.564 126.669L139.329 133.122L140 134Z" fill="#E39292"/>
<path d="M55.0331 104.398L28.0068 95.1736L26.665 87.3084C26.6306 86.9642 26.3209 84.1589 26.0284 80.2178C28.6949 84.3138 33.3742 91.3701 34.0452 91.3701C34.9913 91.3529 54.4138 103.985 55.0331 104.398Z" fill="#C68181"/>
<path d="M117.756 97.4798L67.4539 103.435L98.953 91.0259C98.953 91.0259 109.722 77.4125 114.814 70.7349C114.883 72.0256 114.832 73.2132 114.642 74.0909C113.834 77.7223 108.552 84.2794 109.189 87.9452C109.791 91.5594 113.679 93.9345 117.756 97.4798Z" fill="#E49494"/>
<path d="M49.2356 0.154785L34.9913 12.8905L51.2312 27.8979L36.9009 12.8905L49.2356 0.154785Z" fill="#F9CEC2"/>
<path d="M63.3252 17.5371L63.2736 19.3442L63.0327 19.6884L60.6587 23.1477L58.2158 26.7274L51.1969 28.0182C51.2141 28.001 46.8273 23.9221 46.8273 23.9221C49.5626 22.3388 53.7946 19.086 52.9172 14.6457C51.8334 9.19006 51.4721 7.57228 51.3861 7.19365C51.3861 7.17644 51.3861 7.19365 51.4033 7.21086C51.4033 7.22807 51.4205 7.24528 51.4205 7.2797C51.8678 8.63932 54.844 17.4166 57.6825 18.7762C59.2996 19.5507 61.45 18.6558 63.1359 17.6404C63.2048 17.6059 63.2564 17.5715 63.3252 17.5371Z" fill="url(#paint1_linear_20002_12227)"/>
<path d="M72.0128 28.8623C72.0128 28.8623 86.4291 33.1133 84.5196 35.6604C82.61 38.1903 78.378 35.6432 72.0128 28.8623Z" fill="#DB9595"/>
<path d="M55.6869 27.1582C55.6869 27.1582 58.663 51.356 55.6869 51.1323C54.087 51.0118 52.0226 50.788 50.4227 50.5815C49.1496 50.4266 48.3067 49.2047 48.5991 47.9483L53.5536 27.3475L55.6869 27.1582Z" fill="#DB9595"/>
<path d="M58.8695 24.0942C58.8695 24.0942 75.4018 37.5528 73.0621 39.6696C71.8751 40.7539 70.43 41.3907 69.2774 41.7521C68.1936 42.0963 67.0066 41.6144 66.4561 40.6162L57.8029 24.8343L58.8695 24.0942Z" fill="#DB9595"/>
<path d="M66.2842 32.3384C66.1121 32.4761 65.9057 32.5278 65.6993 32.5278C65.6477 32.5278 65.6133 32.5278 65.5788 32.5105C65.338 32.4933 65.1144 32.3557 64.9423 32.1491C62.6543 29.1717 60.4695 26.9172 59.4717 25.9534C59.1792 25.6608 58.99 25.4887 58.9384 25.4371C58.7664 25.265 58.6631 25.0757 58.6287 24.8691C58.5943 24.6454 58.6459 24.4045 58.7836 24.1979C58.8008 24.1463 58.8352 24.1119 58.8696 24.0775C59.2308 23.6816 59.833 23.6644 60.2114 24.0258C60.2114 24.0258 60.2286 24.043 60.263 24.0603C60.6415 24.4217 63.4284 27.0376 66.4562 30.9788C66.7831 31.4263 66.6971 32.0287 66.2842 32.3384Z" fill="#724455"/>
<path d="M70.2752 29.1541C70.0859 29.3434 69.8451 29.4467 69.6043 29.4467C69.3462 29.4467 69.1226 29.3434 68.9333 29.1713C66.1636 26.4349 63.6347 24.9548 62.0692 24.1975C61.9144 24.1287 61.794 24.0599 61.6564 24.0082C60.8478 23.6468 60.3833 23.5263 60.3661 23.5263C59.85 23.3886 59.5576 22.8723 59.6952 22.356C59.8328 21.8397 60.3489 21.5471 60.865 21.6848C60.9166 21.702 61.3123 21.8053 61.9488 22.0634C63.5487 22.7174 66.7313 24.318 70.2752 27.8117C70.6364 28.1731 70.6536 28.7755 70.2752 29.1541Z" fill="#724455"/>
<path d="M26.6478 87.3081L27.9896 95.1732L52.8139 103.451L27.9724 99.5447C26.0629 99.2521 24.7898 97.4278 25.1339 95.5347L26.6478 87.3081Z" fill="url(#paint2_linear_20002_12227)"/>
<path d="M133.359 125.997C126.289 127.099 114.986 128.803 113.903 128.596C112.578 128.321 121.954 116.669 125.033 112.9C125.343 115.688 126.306 118.322 127.803 120.611C129.214 122.762 131.106 124.621 133.359 125.997Z" fill="#D78B8B"/>
<path d="M140 134H0C0 134 0.240845 133.604 0.670927 133.002C2.85574 131.9 6.10715 130.953 10.1843 131.762C18.1322 133.346 57.2696 132.399 57.2696 132.399C57.2696 132.399 120.096 129.594 139.346 133.122L140 134Z" fill="#AF6D6D"/>
<path d="M66.2842 32.3382C66.1122 32.4759 65.9057 32.5276 65.6993 32.5276C65.6477 32.5276 65.6133 32.5276 65.5789 32.5104C66.0778 30.8237 64.323 28.9134 62.7231 27.3472C61.4673 26.1253 60.0566 25.9532 59.4889 25.9532C59.3169 25.9532 59.2309 25.9532 59.2309 25.9532L58.9556 25.4369C58.9384 25.4197 58.646 24.8689 58.646 24.8689L58.3191 24.2494L58.8008 24.1977L60.2803 24.0601C60.6587 24.4215 63.4457 27.0375 66.4734 30.9786C66.7831 31.4261 66.6971 32.0285 66.2842 32.3382Z" fill="#5B3142"/>
<path d="M70.2752 29.1546C70.086 29.344 69.8451 29.4472 69.6043 29.4472C69.9139 27.6573 67.8495 26.0051 66.0088 24.6627C64.5809 23.6301 62.7746 23.9915 62.0521 24.1981C61.8456 24.2497 61.7252 24.3013 61.7252 24.3013L61.6564 24.0087L61.1919 22.2533L61.9488 22.064C63.5487 22.718 66.7313 24.3185 70.2752 27.8122C70.6365 28.1737 70.6537 28.776 70.2752 29.1546Z" fill="#5B3142"/>
<path d="M63.8929 20.0673C63.8757 20.0501 63.8412 20.0501 63.824 20.0329C63.3768 19.8264 62.8435 19.9985 62.6026 20.4287C61.1919 22.9415 58.5426 24.783 54.7407 25.9189C53.4161 26.3147 51.9538 26.6245 50.3539 26.8482C50.1647 26.8654 50.0098 26.8998 49.8894 26.9171C49.683 26.9515 49.5626 26.9859 49.4421 27.072C49.3733 27.1064 49.3217 27.158 49.2701 27.1924C48.9604 27.5022 48.8744 27.9669 49.0981 28.3627C49.2701 28.6725 49.597 28.8446 49.9238 28.8446C50.027 28.8446 50.1131 28.8274 50.2163 28.793C50.3023 28.7758 50.4399 28.7586 50.6292 28.7241C52.8312 28.4144 54.7751 27.9497 56.4955 27.3301C60.1597 26.0221 62.7746 24.0085 64.2713 21.3409C64.5122 20.9106 64.3401 20.3255 63.8929 20.0673Z" fill="#724455"/>
<path d="M64.7015 18.7081C64.4262 19.1727 64.1338 19.6202 63.8241 20.0333C61.4156 23.286 57.9062 25.0759 54.7752 26.0741C52.9 26.6765 51.1453 26.9863 49.8723 27.1411C49.6486 27.1756 49.425 27.1928 49.2357 27.21C48.4272 27.296 47.9111 27.3132 47.8079 27.3132C47.2746 27.3132 46.8445 26.9002 46.8445 26.3667C46.8273 25.8332 47.2574 25.4029 47.7735 25.4029C47.7907 25.4029 48.41 25.3857 49.3906 25.2652C50.5776 25.1275 52.2807 24.835 54.1387 24.2498C57.3385 23.2344 60.9512 21.3412 63.0327 17.7615C63.2908 17.314 63.8757 17.1419 64.3402 17.4173C64.8047 17.6582 64.9595 18.2434 64.7015 18.7081Z" fill="#724455"/>
<path d="M64.7014 17.7612C64.6842 17.8817 64.6498 18.0022 64.581 18.1226C64.2885 18.6218 63.9961 19.0864 63.6692 19.5339C61.1748 22.976 57.6137 24.8175 54.4483 25.8157C52.5387 26.4181 50.784 26.7106 49.5109 26.8483C49.2873 26.8827 49.0637 26.8999 48.8744 26.9172C48.0659 26.986 47.5326 26.986 47.4466 26.986C47.2745 26.986 47.1369 26.9344 47.0165 26.8655C47.1885 27.1237 47.481 27.313 47.8078 27.313C47.9283 27.313 48.4443 27.2958 49.2529 27.2269C49.4421 27.2097 49.6486 27.1753 49.8894 27.1581C51.1625 27.0032 52.9 26.6934 54.7923 26.0911C57.9061 25.1101 61.4156 23.303 63.8413 20.0502C64.1509 19.6372 64.4434 19.1897 64.7186 18.725C64.8735 18.398 64.8562 18.0366 64.7014 17.7612Z" fill="#5B3142"/>
<path d="M41.7178 86.3785C41.7006 86.3785 41.0641 86.3441 41.0641 86.3441C40.9437 86.3441 40.8577 86.2409 40.8405 86.1377L40.7717 85.5011C40.7545 85.3635 40.8577 85.2431 40.9781 85.2431C41.1157 85.2259 41.2361 85.3291 41.2361 85.4495L41.2878 85.8796L41.7178 85.914C41.8555 85.914 41.9415 86.0344 41.9415 86.1721C41.9415 86.2753 41.8383 86.3785 41.7178 86.3785Z" fill="#C4877C"/>
<path d="M40.8576 84.3823C40.7372 84.3823 40.634 84.2962 40.6168 84.1757L40.4619 82.8505C40.4447 82.7129 40.548 82.5924 40.6684 82.5924C40.806 82.5752 40.9264 82.6612 40.9264 82.7989L41.0813 84.1241C41.0985 84.2618 40.9952 84.3823 40.8748 84.3823C40.8748 84.365 40.8576 84.3823 40.8576 84.3823ZM40.5308 81.7147C40.4103 81.7147 40.3071 81.6286 40.2899 81.5081L40.1351 80.1829C40.1179 80.0452 40.2211 79.9248 40.3415 79.9248C40.4791 79.9076 40.5996 80.0108 40.5996 80.1313L40.7544 81.4565C40.7716 81.5942 40.6684 81.7147 40.548 81.7147C40.548 81.7147 40.548 81.7147 40.5308 81.7147ZM40.2211 79.047C40.1007 79.047 39.9975 78.961 39.9803 78.8405L39.8254 77.5153C39.8082 77.3776 39.9114 77.2572 40.0319 77.2572C40.1695 77.24 40.2899 77.326 40.2899 77.4637L40.4447 78.7889C40.4619 78.9266 40.3587 79.047 40.2383 79.047H40.2211ZM39.8942 76.3966C39.7738 76.3966 39.6706 76.3106 39.6534 76.1901L39.4986 74.8649C39.4814 74.7272 39.5846 74.6068 39.705 74.6068C39.8426 74.5896 39.9631 74.6928 39.9631 74.8133L40.1179 76.1385C40.1351 76.2762 40.0319 76.3966 39.9114 76.3966C39.9286 76.3966 39.9114 76.3966 39.8942 76.3966ZM39.5846 73.729C39.4642 73.729 39.3609 73.643 39.3437 73.5225L39.1889 72.1973C39.1717 72.0596 39.2749 71.9392 39.3953 71.9392C39.533 71.9219 39.6534 72.0252 39.6534 72.1457L39.8082 73.4709C39.8254 73.6086 39.7222 73.729 39.6018 73.729C39.6018 73.729 39.6018 73.729 39.5846 73.729ZM39.2749 71.0614C39.1545 71.0614 39.0513 70.9754 39.0341 70.8549L38.8792 69.5297C38.862 69.392 38.9653 69.2715 39.0857 69.2715C39.2233 69.2543 39.3437 69.3576 39.3437 69.4781L39.4986 70.8033C39.5158 70.941 39.4125 71.0614 39.2921 71.0614H39.2749ZM38.9481 68.411C38.8276 68.411 38.7244 68.325 38.7072 68.2045L38.5524 66.8793C38.5352 66.7416 38.6384 66.6212 38.7588 66.6212C38.8965 66.6039 39.0169 66.7072 39.0169 66.8277L39.1717 68.1529C39.1889 68.2906 39.0857 68.411 38.9653 68.411C38.9653 68.411 38.9653 68.411 38.9481 68.411ZM38.6384 65.7434C38.518 65.7434 38.4148 65.6574 38.3976 65.5369L38.2427 64.2117C38.2255 64.074 38.3287 63.9535 38.4492 63.9535C38.5868 63.9363 38.7072 64.0396 38.7072 64.1601L38.862 65.4853C38.8792 65.6229 38.776 65.7434 38.6556 65.7434H38.6384Z" fill="#C4877C"/>
<path d="M38.3288 63.0757C38.2084 63.0757 38.1052 62.9897 38.088 62.8693L38.0192 62.2327C38.0192 62.1639 38.0364 62.0951 38.088 62.0435C38.1396 61.9919 38.2084 61.9575 38.2772 61.9747L38.9137 61.9919C39.0514 61.9919 39.1546 62.1123 39.1374 62.2327C39.1202 62.3532 39.0342 62.4736 38.8965 62.4564L38.5353 62.4392L38.5697 62.8004C38.5869 62.9381 38.4837 63.0585 38.3632 63.0585C38.346 63.0757 38.3288 63.0757 38.3288 63.0757Z" fill="#C4877C"/>
<path d="M43.4726 62.5427H42.6984C42.5608 62.5427 42.4576 62.4395 42.4576 62.3018C42.4576 62.1641 42.5608 62.0608 42.6984 62.0608H43.4726H43.9715C44.1091 62.0608 44.2123 62.1641 44.2123 62.3018C44.2123 62.4395 44.1091 62.5427 43.9715 62.5427H43.4726ZM45.2445 62.5427C45.1069 62.5427 45.0037 62.4395 45.0037 62.3018C45.0037 62.1641 45.1069 62.0608 45.2445 62.0608C45.6746 62.0608 46.0875 62.0436 46.5175 62.0436C46.6552 62.0608 46.7584 62.1469 46.7584 62.2846C46.7584 62.4222 46.6552 62.5255 46.5175 62.5255C46.1047 62.5255 45.6746 62.5255 45.2445 62.5427ZM41.4254 62.5255C40.9953 62.5255 40.5652 62.5083 40.1523 62.5083C40.0147 62.5083 39.9115 62.3878 39.9115 62.2674C39.9115 62.1297 40.0147 62.0264 40.1523 62.0264C40.5824 62.0436 41.0125 62.0436 41.4254 62.0436C41.563 62.0436 41.6662 62.1469 41.6662 62.2846C41.6662 62.4222 41.563 62.5255 41.4254 62.5255ZM47.7906 62.4911C47.6702 62.4911 47.5497 62.3878 47.5497 62.2674C47.5497 62.1297 47.653 62.0264 47.7734 62.0264C48.2035 62.0092 48.6163 61.992 49.0464 61.9748C49.1668 61.9576 49.2873 62.078 49.2873 62.1985C49.2873 62.3362 49.184 62.4395 49.0636 62.4395C48.6507 62.4567 48.2379 62.4739 47.7906 62.4911C47.8078 62.4911 47.8078 62.4911 47.7906 62.4911ZM50.3367 62.3878C50.2162 62.3878 50.0958 62.2846 50.0958 62.1641C50.0958 62.0264 50.199 61.9232 50.3195 61.9059C50.7495 61.8887 51.1624 61.8715 51.5925 61.8371C51.7301 61.8199 51.8333 61.9232 51.8505 62.0608C51.8505 62.1985 51.7645 62.3018 51.6269 62.319C51.1968 62.3362 50.784 62.3706 50.3367 62.3878C50.3539 62.3878 50.3539 62.3878 50.3367 62.3878ZM52.8827 62.2329C52.7623 62.2329 52.6591 62.1297 52.6419 62.0092C52.6247 61.8715 52.7279 61.7683 52.8655 61.751C53.2956 61.7166 53.7085 61.6994 54.1386 61.665C54.259 61.6478 54.3794 61.751 54.3966 61.8887C54.4138 62.0264 54.3106 62.1297 54.173 62.1469C53.7429 62.1813 53.33 62.2157 52.8827 62.2329ZM55.4288 62.0436C55.3084 62.0436 55.2052 61.9576 55.188 61.8199C55.1708 61.6822 55.274 61.5789 55.4116 61.5617C55.8417 61.5273 56.2546 61.4929 56.6847 61.4413C56.8223 61.4413 56.9255 61.5273 56.9427 61.665C56.9599 61.8027 56.8567 61.9059 56.7191 61.9231C56.289 61.9576 55.8761 61.992 55.446 62.0436H55.4288ZM57.9577 61.8027C57.8373 61.8027 57.7341 61.7166 57.7169 61.5962C57.6997 61.4585 57.8029 61.3552 57.9233 61.338C58.3534 61.2864 58.7663 61.2519 59.1791 61.2003C59.2996 61.1831 59.42 61.2864 59.4372 61.4068C59.4544 61.5445 59.3512 61.6478 59.2307 61.665C58.8007 61.7166 58.3878 61.751 57.9577 61.8027C57.9749 61.8027 57.9749 61.8027 57.9577 61.8027ZM60.4866 61.5273C60.3662 61.5273 60.2629 61.4413 60.2457 61.3208C60.2285 61.1831 60.3317 61.0626 60.4522 61.0626C60.865 61.011 61.2951 60.9594 61.708 60.9077C61.8456 60.8905 61.9661 60.9766 61.9833 61.1143C62.0005 61.2519 61.9144 61.3724 61.7768 61.3896C61.3467 61.4413 60.9339 61.4929 60.5038 61.5445C60.521 61.5273 60.5038 61.5273 60.4866 61.5273ZM63.0155 61.2003C62.895 61.2003 62.7918 61.1143 62.7746 60.9938C62.7574 60.8561 62.8434 60.7356 62.9811 60.7184C63.3939 60.6668 63.824 60.598 64.2369 60.5291C64.3573 60.5119 64.4949 60.5979 64.5121 60.7356C64.5293 60.8733 64.4433 60.9938 64.3057 61.011C63.8928 61.0798 63.4627 61.1315 63.0499 61.2003C63.0327 61.2003 63.0327 61.2003 63.0155 61.2003ZM65.5443 60.8217C65.4239 60.8217 65.3207 60.7356 65.3035 60.6152C65.2863 60.4775 65.3723 60.357 65.5099 60.3398C65.9228 60.271 66.3529 60.2021 66.7658 60.1333C66.8862 60.1161 67.0238 60.2021 67.041 60.3226C67.0582 60.4603 66.9722 60.5807 66.8518 60.598C66.4389 60.6668 66.0088 60.7356 65.5959 60.8045C65.5615 60.8217 65.5443 60.8217 65.5443 60.8217ZM68.056 60.4086C67.9356 60.4086 67.8496 60.3226 67.8152 60.2193C67.798 60.0816 67.884 59.9612 68.0044 59.944C68.4173 59.8751 68.8474 59.7891 69.2602 59.7202C69.3807 59.703 69.5183 59.7891 69.5355 59.9095C69.5527 60.0472 69.4667 60.1677 69.3463 60.1849C68.9334 60.271 68.5033 60.3398 68.0904 60.4086C68.0732 60.4086 68.056 60.4086 68.056 60.4086ZM70.5505 59.944C70.4473 59.944 70.344 59.8579 70.3096 59.7546C70.2924 59.617 70.3612 59.4965 70.4989 59.4793C70.9117 59.3932 71.3246 59.3072 71.7375 59.2383C71.8579 59.2039 71.9956 59.29 72.0128 59.4276C72.0472 59.5481 71.9611 59.6858 71.8235 59.703C71.4106 59.7891 70.9978 59.8751 70.5677 59.9612C70.5849 59.944 70.5677 59.944 70.5505 59.944ZM73.0449 59.4276C72.9417 59.4276 72.8385 59.3588 72.8041 59.2383C72.7697 59.1179 72.8557 58.9802 72.9933 58.963C73.4062 58.8769 73.8191 58.7909 74.232 58.6876C74.3696 58.6532 74.49 58.7392 74.5244 58.8769C74.5588 58.9974 74.4728 59.1351 74.3352 59.1695C73.9223 59.2555 73.5094 59.3588 73.0966 59.4449C73.0794 59.4276 73.0622 59.4276 73.0449 59.4276ZM75.5394 58.8769C75.4362 58.8769 75.333 58.8081 75.2986 58.6876C75.2642 58.5671 75.3502 58.4294 75.4706 58.395C75.8835 58.2918 76.2964 58.2057 76.7092 58.1024C76.8469 58.068 76.9673 58.1541 77.0017 58.2746C77.0361 58.395 76.9501 58.5327 76.8297 58.5671C76.4168 58.6704 76.0039 58.7737 75.591 58.8597C75.5738 58.8769 75.5566 58.8769 75.5394 58.8769ZM77.9995 58.2746C77.8963 58.2746 77.793 58.2057 77.7758 58.1024C77.7414 57.982 77.8274 57.8443 77.9479 57.8099C78.3608 57.7066 78.7736 57.6033 79.1865 57.5001C79.3241 57.4657 79.4446 57.5517 79.479 57.6722C79.5134 57.7927 79.4274 57.9303 79.3069 57.9648C78.8941 58.068 78.4812 58.1713 78.0683 58.2746C78.0511 58.2746 78.0339 58.2746 77.9995 58.2746ZM80.4767 57.6378C80.3735 57.6378 80.2703 57.5689 80.2531 57.4657C80.2187 57.3452 80.2875 57.2075 80.4251 57.1731C80.838 57.0698 81.2337 56.9494 81.6466 56.8289C81.767 56.7945 81.9046 56.8633 81.939 57.001C81.9734 57.1215 81.9046 57.2591 81.767 57.2936C81.3541 57.414 80.9412 57.5173 80.5456 57.6378C80.5112 57.6378 80.4939 57.6378 80.4767 57.6378ZM82.9196 56.9493C82.8164 56.9493 82.7132 56.8805 82.696 56.7772C82.6616 56.6568 82.7304 56.5191 82.8508 56.4847C83.2637 56.3642 83.6594 56.2437 84.0722 56.1233C84.1927 56.0888 84.3303 56.1577 84.3647 56.2781C84.3991 56.3986 84.3303 56.5363 84.2099 56.5707C83.797 56.6912 83.4013 56.8117 82.9884 56.9321C82.9712 56.9493 82.9368 56.9493 82.9196 56.9493ZM85.3625 56.2265C85.2593 56.2265 85.1732 56.1577 85.1388 56.0544C85.1044 55.9339 85.1732 55.7963 85.2937 55.7618C85.6893 55.6414 86.1022 55.5037 86.4979 55.3832C86.6183 55.3488 86.7559 55.4176 86.7903 55.5381C86.8247 55.6586 86.7559 55.7963 86.6355 55.8307C86.2226 55.9684 85.827 56.0888 85.4141 56.2093C85.3969 56.2093 85.3797 56.2265 85.3625 56.2265ZM87.7881 55.4521C87.6849 55.4521 87.5989 55.3832 87.5645 55.2799C87.5301 55.1595 87.5989 55.0218 87.7193 54.9702C88.115 54.8325 88.5279 54.712 88.9235 54.5743C89.044 54.5227 89.1816 54.5915 89.2332 54.7292C89.2676 54.8497 89.216 54.9874 89.0784 55.039C88.6827 55.1767 88.2698 55.3144 87.8741 55.4348C87.8397 55.4348 87.8053 55.4521 87.7881 55.4521ZM90.1966 54.6259C90.0934 54.6259 90.0073 54.5571 89.9729 54.4711C89.9213 54.3506 89.9901 54.2129 90.1278 54.1613C90.5234 54.0236 90.9191 53.8859 91.332 53.731C91.4524 53.6794 91.59 53.7482 91.6417 53.8687C91.6933 53.9892 91.6245 54.1268 91.504 54.1785C91.1084 54.3162 90.6955 54.4711 90.2998 54.6087C90.2482 54.6259 90.2138 54.6259 90.1966 54.6259ZM92.5878 53.7654C92.4846 53.7654 92.3986 53.7138 92.3642 53.6105C92.3126 53.4901 92.3814 53.3524 92.5018 53.3008C92.8975 53.1631 93.2932 53.0082 93.6888 52.8533C93.8093 52.8017 93.9469 52.8705 93.9985 52.991C94.0501 53.1114 93.9813 53.2491 93.8609 53.3008C93.4652 53.4556 93.0695 53.5933 92.6739 53.7482C92.6394 53.7654 92.6222 53.7654 92.5878 53.7654Z" fill="#C4877C"/>
<path d="M95.6157 53.2656C95.4952 53.2656 95.392 53.1624 95.3748 53.042L95.3576 52.7323L95.0652 52.8528C94.9447 52.9044 94.8071 52.8356 94.7555 52.7151C94.7039 52.5947 94.7727 52.4571 94.8931 52.4055L95.478 52.1818C95.5468 52.1474 95.6329 52.1646 95.7017 52.199C95.7705 52.2334 95.8049 52.3023 95.8049 52.3883L95.8393 53.0248C95.8565 53.1452 95.7533 53.2656 95.6157 53.2656Z" fill="#C4877C"/>
<path d="M97.1123 76.5175C96.9919 76.5175 96.8887 76.4142 96.8715 76.2937L96.7855 75.0029C96.7855 74.8652 96.8715 74.762 97.0091 74.7448C97.1295 74.7276 97.25 74.8308 97.2672 74.9685L97.3532 76.2593C97.3704 76.3798 97.2671 76.5002 97.1123 76.5175C97.1295 76.5175 97.1295 76.5175 97.1123 76.5175ZM96.9575 73.9359C96.8371 73.9359 96.7339 73.8326 96.7166 73.7122L96.6306 72.4214C96.6306 72.2837 96.7166 72.1804 96.8543 72.1632C96.9747 72.146 97.0951 72.2493 97.1123 72.387L97.1983 73.6777C97.1983 73.7982 97.0951 73.9187 96.9575 73.9359ZM96.7855 71.3371C96.665 71.3371 96.5618 71.2339 96.5446 71.1134L96.4586 69.8226C96.4586 69.6849 96.5446 69.5817 96.6822 69.5645C96.8027 69.5472 96.9231 69.6505 96.9403 69.7882L97.0263 71.079C97.0263 71.2167 96.9231 71.3371 96.7855 71.3371ZM96.6134 68.7556C96.493 68.7556 96.3898 68.6523 96.3726 68.5318L96.2866 67.2411C96.2866 67.1034 96.3726 67.0001 96.5102 66.9829C96.6306 66.9657 96.7511 67.069 96.7683 67.2066L96.8543 68.4974C96.8715 68.6351 96.7683 68.7556 96.6134 68.7556ZM96.4414 66.174C96.321 66.174 96.2178 66.0708 96.2006 65.9503L96.1145 64.6595C96.1145 64.5218 96.2005 64.4186 96.3382 64.4013C96.4586 64.3841 96.579 64.4874 96.5962 64.6251L96.6822 65.9159C96.6994 66.0535 96.5962 66.174 96.4414 66.174C96.4586 66.174 96.4586 66.174 96.4414 66.174ZM96.2866 63.5925C96.1661 63.5925 96.0629 63.4892 96.0457 63.3687L95.9597 62.0779C95.9597 61.9403 96.0457 61.837 96.1833 61.8198C96.3038 61.8026 96.4242 61.9058 96.4414 62.0435L96.5274 63.3343C96.5274 63.472 96.4242 63.5925 96.2866 63.5925ZM96.1145 61.0109C95.9941 61.0109 95.8909 60.9076 95.8737 60.7872L95.7877 59.4964C95.7877 59.3587 95.8737 59.2554 96.0113 59.2382C96.1317 59.221 96.2522 59.3243 96.2694 59.462L96.3554 60.7527C96.3554 60.8904 96.2694 61.0109 96.1145 61.0109ZM95.9425 58.4293C95.8221 58.4293 95.7189 58.3261 95.7017 58.2056L95.6156 56.9148C95.6156 56.7771 95.7017 56.6739 95.8393 56.6567C95.9597 56.6395 96.0801 56.7427 96.0973 56.8804L96.1833 58.1712C96.2005 58.3089 96.0973 58.4293 95.9425 58.4293C95.9597 58.4293 95.9597 58.4293 95.9425 58.4293ZM95.7705 55.8478C95.65 55.8478 95.5468 55.7445 95.5296 55.6241L95.4436 54.3333C95.4436 54.1956 95.5296 54.0923 95.6672 54.0751C95.7877 54.0579 95.9081 54.1612 95.9253 54.2989L96.0113 55.5896C96.0285 55.7273 95.9253 55.8478 95.7705 55.8478C95.7877 55.8478 95.7877 55.8478 95.7705 55.8478Z" fill="#C4877C"/>
<path d="M96.6478 78.6512C96.5446 78.6512 96.4586 78.5824 96.4242 78.4964C96.3726 78.376 96.4414 78.2384 96.5618 78.1867L96.9919 78.0319L96.9575 77.5846C96.9575 77.447 97.0435 77.3438 97.1811 77.3266C97.3016 77.3094 97.422 77.4126 97.4392 77.5502L97.4736 78.1867C97.4736 78.29 97.422 78.3932 97.3188 78.4276L96.7167 78.634C96.6995 78.6512 96.665 78.6512 96.6478 78.6512Z" fill="#C4877C"/>
<path d="M49.5109 86.6373C49.0809 86.6373 48.6508 86.6373 48.2035 86.6201C48.0659 86.6201 47.9626 86.5168 47.9626 86.3791C47.9626 86.2415 48.0659 86.1382 48.2035 86.1382C48.6336 86.1382 49.0637 86.1554 49.5109 86.1554C49.6486 86.1554 49.7518 86.2587 49.7518 86.3964C49.7518 86.5168 49.6314 86.6373 49.5109 86.6373ZM50.8012 86.6373C50.6636 86.6373 50.5603 86.534 50.5603 86.3964C50.5603 86.2587 50.6636 86.1554 50.8012 86.1554C51.2313 86.1554 51.6613 86.1554 52.0914 86.1382C52.229 86.1382 52.3323 86.2415 52.3323 86.3791C52.3323 86.5168 52.229 86.6201 52.0914 86.6201C51.6785 86.6201 51.2485 86.6373 50.8012 86.6373ZM53.3989 86.6029C53.2612 86.6029 53.158 86.4996 53.158 86.3619C53.158 86.2242 53.2612 86.121 53.3989 86.121C53.829 86.1038 54.259 86.1038 54.6891 86.0866C54.8095 86.1038 54.93 86.1898 54.93 86.3103C54.93 86.448 54.8267 86.5512 54.7063 86.5512C54.2762 86.5685 53.8462 86.5857 53.3989 86.6029ZM46.9132 86.6029C46.466 86.5857 46.0359 86.5857 45.6058 86.5685C45.4682 86.5685 45.365 86.448 45.3822 86.3275C45.3822 86.1898 45.5026 86.121 45.623 86.1038C46.0531 86.121 46.4832 86.1382 46.9132 86.1382C47.0509 86.1382 47.1541 86.2587 47.1541 86.3791C47.1541 86.4996 47.0337 86.6029 46.9132 86.6029ZM55.9966 86.5168C55.8761 86.5168 55.7557 86.4136 55.7557 86.2931C55.7557 86.1554 55.8589 86.0521 55.9794 86.0521C56.4094 86.0349 56.8395 86.0177 57.2696 86.0005C57.4072 85.9833 57.5104 86.0866 57.5276 86.2242C57.5276 86.3619 57.4416 86.4652 57.304 86.4824C56.8739 86.4652 56.4438 86.4996 55.9966 86.5168ZM44.3156 86.5168C43.8683 86.4996 43.4382 86.4824 43.0081 86.448C42.8705 86.448 42.7673 86.3275 42.7845 86.1898C42.7845 86.0521 42.8877 85.9489 43.0425 85.9661C43.4726 85.9833 43.9027 86.0005 44.3328 86.0177C44.4704 86.0177 44.5736 86.1382 44.5564 86.2587C44.5564 86.4136 44.436 86.5168 44.3156 86.5168ZM58.5943 86.3791C58.4738 86.3791 58.3706 86.2759 58.3534 86.1554C58.3534 86.0177 58.4394 85.9145 58.577 85.8973C59.0071 85.88 59.4372 85.8456 59.8673 85.8112C60.0049 85.8112 60.1081 85.8972 60.1253 86.0349C60.1425 86.1726 60.0393 86.2759 59.9017 86.2931C59.4716 86.3275 59.0415 86.3447 58.5943 86.3791ZM61.1747 86.1898C61.0543 86.1898 60.9511 86.0866 60.9339 85.9661C60.9167 85.8284 61.0199 85.7251 61.1575 85.7079C61.5876 85.6735 62.0177 85.6391 62.4478 85.6047C62.5682 85.6047 62.6886 85.6907 62.7058 85.8284C62.723 85.9661 62.6198 86.0694 62.4822 86.0866C62.0521 86.121 61.622 86.1554 61.1919 86.1898C61.1919 86.1898 61.1919 86.1898 61.1747 86.1898ZM63.7552 85.9661C63.6348 85.9661 63.5316 85.88 63.5144 85.7424C63.4972 85.6047 63.6004 85.5014 63.7208 85.4842C64.1509 85.4498 64.581 85.3981 65.0111 85.3465C65.1315 85.3293 65.2519 85.4326 65.2691 85.553C65.2863 85.6907 65.1831 85.794 65.0627 85.8112C64.6326 85.8628 64.2025 85.8972 63.7724 85.9489C63.7724 85.9661 63.7724 85.9661 63.7552 85.9661ZM66.3529 85.6907C66.2325 85.6907 66.1293 85.6047 66.1121 85.4842C66.0949 85.3465 66.1981 85.2433 66.3185 85.226C66.7486 85.1744 67.1787 85.1228 67.6088 85.0712C67.7292 85.0539 67.8668 85.14 67.884 85.2777C67.9012 85.4154 67.8152 85.5358 67.6776 85.553C67.2475 85.6047 66.8174 85.6563 66.3873 85.7079C66.3701 85.6907 66.3529 85.6907 66.3529 85.6907ZM68.9162 85.3637C68.7958 85.3637 68.6926 85.2777 68.6754 85.1572C68.6582 85.0195 68.7442 84.8991 68.8818 84.8818C69.3119 84.8302 69.742 84.7614 70.172 84.7097C70.3097 84.6925 70.4301 84.7786 70.4473 84.9163C70.4645 85.0539 70.3785 85.1744 70.2408 85.1916C69.8108 85.2605 69.3807 85.3121 68.9506 85.3809C68.9506 85.3637 68.9334 85.3637 68.9162 85.3637ZM71.4967 84.9851C71.3763 84.9851 71.273 84.899 71.2558 84.7786C71.2386 84.6409 71.3247 84.5204 71.4623 84.5032C71.8924 84.4344 72.3224 84.3655 72.7353 84.2967C72.8729 84.2795 72.9934 84.3655 73.0106 84.486C73.0278 84.6237 72.9418 84.7442 72.8213 84.7614C72.3913 84.8302 71.9612 84.8991 71.5311 84.9679C71.5139 84.9851 71.4967 84.9851 71.4967 84.9851ZM74.06 84.5721C73.9395 84.5721 73.8535 84.486 73.8191 84.3827C73.8019 84.2451 73.8879 84.1246 74.0084 84.1074C74.4384 84.0385 74.8513 83.9525 75.2814 83.8836C75.4018 83.8664 75.5395 83.9525 75.5567 84.073C75.5739 84.2106 75.4878 84.3311 75.3674 84.3483C74.9373 84.4344 74.5073 84.5032 74.0944 84.5721C74.0772 84.5721 74.06 84.5721 74.06 84.5721ZM76.606 84.1074C76.4856 84.1074 76.3996 84.0213 76.3652 83.9181C76.348 83.7804 76.4168 83.6599 76.5544 83.6427C76.9845 83.5566 77.3974 83.4706 77.8275 83.3845C77.9479 83.3501 78.0855 83.4362 78.1027 83.5739C78.1371 83.6943 78.0511 83.832 77.9135 83.8492C77.4834 83.9353 77.0705 84.0213 76.6405 84.1074C76.6405 84.1074 76.6232 84.1074 76.606 84.1074ZM79.1521 83.5911C79.0489 83.5911 78.9457 83.5222 78.9113 83.4017C78.8769 83.2813 78.9629 83.1436 79.1005 83.1264C79.5306 83.0403 79.9435 82.9371 80.3736 82.851C80.494 82.8166 80.6316 82.9026 80.666 83.0403C80.7004 83.1608 80.6144 83.2985 80.4768 83.3329C80.0467 83.419 79.6338 83.5222 79.2037 83.6083C79.1865 83.5911 79.1693 83.5911 79.1521 83.5911ZM81.681 83.0231C81.5778 83.0231 81.4746 82.9543 81.4402 82.8338C81.4058 82.7133 81.4918 82.5756 81.6122 82.5412C82.0251 82.438 82.4552 82.3347 82.868 82.2486C82.9885 82.2142 83.1261 82.3003 83.1605 82.4208C83.1949 82.5412 83.1089 82.6789 82.9885 82.7133C82.5756 82.8166 82.1455 82.9199 81.7154 83.0059C81.7154 83.0231 81.6982 83.0231 81.681 83.0231ZM84.2099 82.4035C84.1067 82.4035 84.0034 82.3347 83.9862 82.2314C83.9518 82.111 84.0379 81.9733 84.1583 81.9389C84.5712 81.8356 85.0012 81.7323 85.4141 81.6119C85.5345 81.5774 85.6722 81.6635 85.7066 81.784C85.741 81.9044 85.6722 82.0421 85.5345 82.0765C85.1217 82.1798 84.6916 82.3003 84.2787 82.4035C84.2443 82.4035 84.2271 82.4035 84.2099 82.4035ZM86.7216 81.7495C86.6183 81.7495 86.5151 81.6807 86.4979 81.5774C86.4635 81.457 86.5323 81.3193 86.6699 81.2849C87.0828 81.1644 87.4957 81.0611 87.9258 80.9407C88.0462 80.9062 88.1838 80.9751 88.2182 81.1128C88.2526 81.2332 88.1838 81.3709 88.0462 81.4053C87.6333 81.5258 87.2032 81.6463 86.7904 81.7495C86.7732 81.7495 86.7388 81.7495 86.7216 81.7495ZM89.216 81.0439C89.1128 81.0439 89.0096 80.9751 88.9924 80.8718C88.958 80.7513 89.0268 80.6137 89.1472 80.5792C89.5601 80.4588 89.973 80.3383 90.3859 80.2006C90.5063 80.1662 90.6439 80.235 90.6783 80.3555C90.7127 80.476 90.6439 80.6137 90.5235 80.6481C90.1106 80.7686 89.6977 80.889 89.2848 81.0267C89.2676 81.0439 89.2504 81.0439 89.216 81.0439ZM91.7105 80.2867C91.6073 80.2867 91.5213 80.2178 91.4869 80.1146C91.4524 79.9941 91.5213 79.8564 91.6417 79.822C92.0546 79.6843 92.4674 79.5638 92.8803 79.4261C93.0007 79.3917 93.1384 79.4606 93.1728 79.581C93.2072 79.7015 93.1384 79.8392 93.0179 79.8736C92.6051 80.0113 92.1922 80.1318 91.7793 80.2695C91.7621 80.2867 91.7277 80.2867 91.7105 80.2867ZM94.1878 79.495C94.0845 79.495 93.9985 79.4261 93.9641 79.3401C93.9297 79.2196 93.9985 79.0819 94.1189 79.0303C94.5318 78.8926 94.9447 78.7549 95.3404 78.6173C95.4608 78.5828 95.5984 78.6345 95.65 78.7722C95.6844 78.8926 95.6328 79.0303 95.4952 79.0819C95.0823 79.2196 94.6695 79.3573 94.2566 79.495C94.2394 79.495 94.205 79.495 94.1878 79.495Z" fill="#C4877C"/>
<path d="M51.9538 74.7965C53.2096 77.3436 55.3256 80.3382 57.0288 81.629C56.8395 82.1969 55.9622 82.9198 55.2912 82.9542C54.0354 83.0058 52.7108 80.734 50.3195 74.9169C49.9926 74.9169 49.6486 74.9169 49.4593 74.8825C49.3389 74.8137 49.2185 74.7104 49.0809 74.5899C48.0143 77.9115 47.481 80.3038 47.3089 82.9026C46.2939 82.6616 45.5198 82.0765 44.7284 80.9578C45.0209 80.2177 45.1585 79.8735 47.1885 72.8345C47.8078 70.7348 48.0487 69.8227 48.2379 67.9639C46.9821 68.4114 45.8295 68.9794 45.1757 69.5817C44.6252 69.2375 43.7823 68.05 43.6274 67.396C45.1757 66.3118 48.6336 65.5029 51.1969 65.434C54.6547 65.348 56.8911 66.7076 57.2352 69.1515C57.6653 71.8191 55.3428 74.2629 51.9538 74.7965ZM49.5109 73.3508C53.8634 73.3336 56.7535 71.4232 56.4094 69.0482C56.203 67.637 55.0504 66.9141 52.9 67.0002C52.4183 67.0174 51.9366 67.069 51.3861 67.1551C51.4893 67.2927 51.5925 67.4132 51.713 67.5509C51.4033 68.0672 50.3195 70.9069 49.5109 73.3508Z" fill="#5B3142"/>
<path d="M62.5338 65.141C63.1015 65.1238 64.7702 65.7089 65.0799 66.1908C62.9123 68.738 61.6564 78.7716 62.1037 81.9211C62.1381 82.1793 62.1725 82.2997 62.2413 82.3686C60.9683 82.403 61.1231 81.6457 60.5554 81.4736C60.1425 81.3532 59.7469 80.114 59.6781 79.6149C59.2308 76.5171 61.1403 67.0169 62.5338 65.141Z" fill="#5B3142"/>
<path d="M74.2147 62.8694C76.1587 62.4908 77.4489 63.1104 77.6554 64.5905C77.8102 65.7091 77.3285 67.2409 76.4856 68.2391C75.7458 68.2735 75.0405 67.7744 74.7996 67.0515C75.6942 66.0533 76.1587 64.9519 76.0555 64.2118C75.9695 63.6095 75.4878 63.3513 74.748 63.5062C73.475 63.7644 72.0299 65.1584 71.1009 67.0171C69.5182 70.201 68.9333 73.2473 69.3634 76.2247C69.6559 78.3243 70.5676 79.5635 71.6859 79.6323C72.8729 79.1676 74.662 77.481 76.5716 75.0027C76.7264 75.106 76.8468 75.2781 76.8984 75.3986C75.591 77.9113 73.8707 80.1314 72.5288 81.0436C69.0021 81.5427 66.8173 79.7356 66.2668 75.9493C65.4583 69.9601 69.2086 63.8504 74.2147 62.8694Z" fill="#5B3142"/>
<path d="M87.9602 67.981C87.9946 68.1875 87.9946 68.4801 87.943 68.6694C87.5817 68.7038 87.1344 68.7899 86.5323 68.962C85.3453 69.289 84.0895 69.9086 82.9885 70.3388C82.1283 73.6948 81.6638 76.6378 81.7326 77.4811C83.9518 76.4829 86.2055 75.5191 88.6827 74.6414C89.0612 75.02 89.3709 75.5364 89.4741 76.1903C89.4913 76.3625 89.5257 76.569 89.5085 76.7755C88.7343 76.982 87.9774 77.1713 86.5667 77.55C84.6916 78.0491 83.4701 78.4965 81.1305 79.4603C80.4596 79.3398 79.7026 78.8235 78.9801 77.9974C79.3242 76.8616 79.8747 74.6586 80.7004 70.8723C80.0639 70.8207 79.565 70.5281 79.2898 70.0807C79.4102 69.8913 80.1327 69.5127 81.0617 69.048C81.5778 66.6558 81.767 65.5888 81.8702 63.8505C80.8897 64.0398 80.2015 63.6268 80.0811 62.8351C80.0467 62.6286 80.0811 62.2155 80.1327 61.9746C80.7004 61.9229 81.1477 61.8369 81.9907 61.6304C85.5173 60.7526 88.1838 59.4447 89.1128 59.1521C89.7493 58.9455 90.3859 59.5135 90.8159 60.6838C89.9558 60.8731 89.4569 60.9936 89.0268 61.1313C87.5129 61.5959 86.2743 62.1467 85.1389 62.6286C84.8808 63.2309 84.5712 64.298 83.6078 67.9122C84.64 67.4647 85.6206 67.0861 86.2571 66.9139C87.2205 66.6902 87.8398 67.0516 87.9602 67.981Z" fill="#5B3142"/>
<g style="mix-blend-mode:overlay" opacity="0.2">
<path d="M59.9705 99.631C78.3362 99.631 93.2244 84.7366 93.2244 66.3634C93.2244 47.9901 78.3362 33.0957 59.9705 33.0957C41.6049 33.0957 26.7167 47.9901 26.7167 66.3634C26.7167 84.7366 41.6049 99.631 59.9705 99.631Z" fill="url(#paint3_radial_20002_12227)"/>
</g>
<defs>
<radialGradient id="paint0_radial_20002_12227" cx="0" cy="0" r="1" gradientUnits="userSpaceOnUse" gradientTransform="translate(61.0872 59.4761) scale(77.2652 77.2972)">
<stop stop-color="#F9D2B8"/>
<stop offset="0.236" stop-color="#F0C0AE"/>
<stop offset="0.7198" stop-color="#E1A19C"/>
<stop offset="0.9892" stop-color="#DB9595"/>
</radialGradient>
<linearGradient id="paint1_linear_20002_12227" x1="46.8335" y1="17.6052" x2="63.3207" y2="17.6052" gradientUnits="userSpaceOnUse">
<stop stop-color="#E5A8A4"/>
<stop offset="0.1126" stop-color="#DD9E9B"/>
<stop offset="0.3521" stop-color="#D08E8C"/>
<stop offset="0.6221" stop-color="#C88484"/>
<stop offset="0.9838" stop-color="#C68181"/>
</linearGradient>
<linearGradient id="paint2_linear_20002_12227" x1="25.0776" y1="95.3735" x2="52.8149" y2="95.3735" gradientUnits="userSpaceOnUse">
<stop stop-color="#F9CEC2"/>
<stop offset="0.1942" stop-color="#F2C0B7"/>
<stop offset="0.7049" stop-color="#E1A19E"/>
<stop offset="0.9892" stop-color="#DB9595"/>
</linearGradient>
<radialGradient id="paint3_radial_20002_12227" cx="0" cy="0" r="1" gradientUnits="userSpaceOnUse" gradientTransform="translate(59.9736 66.3645) scale(33.248 33.2617)">
<stop stop-color="white"/>
<stop offset="1"/>
</radialGradient>
</defs>
</svg>
