<svg width="132" height="96" viewBox="0 0 132 96" fill="none" xmlns="http://www.w3.org/2000/svg">
<path d="M2.5623 35.1385C2.5623 35.1385 -14.6091 80.1157 47.4988 93.554C109.537 106.992 138.895 61.638 129.894 40.6921C120.962 19.7804 5.85118 29.5163 2.5623 35.1385Z" fill="#90340A"/>
<path d="M129.928 40.7264C120.927 19.8147 5.85113 29.5163 2.56225 35.1728C2.56225 35.1728 -2.80382 49.2282 3.32389 63.9692C4.224 64.6205 6.61277 68.2543 7.7206 68.8028C15.1985 72.5052 19.9414 73.328 27.5924 68.2886C25.7229 82.2069 46.9102 92.1828 58.1616 85.7036C62.8353 82.9268 66.055 80.4243 68.0975 74.1165C69.967 79.6701 71.9057 82.2755 77.5141 85.9778C86.8615 92.457 99.9824 87.1434 105.591 78.813C101.817 87.2805 94.9625 91.9085 86.6191 94.2739C121.481 86.5606 136.749 56.5987 129.928 40.7264Z" fill="#742604"/>
<path d="M3.11614 38.978C3.11614 38.978 -3.04618 56.8043 9.13999 64.929C9.13999 64.929 14.3676 68.0829 21.43 66.506C28.4578 64.929 32.5776 61.0552 31.8506 57.3871C31.1236 53.719 6.99356 35.7212 3.11614 38.978Z" fill="#FFCB13"/>
<path d="M68.0284 65.7863C68.0284 65.7863 71.4904 82.5842 88.281 83.647C88.281 83.647 104.656 81.5215 102.752 61.7411C100.952 43.2634 65.2588 58.313 68.0284 65.7863Z" fill="#FFCB13"/>
<path d="M102.994 59.1354C102.994 59.1354 103.029 70.3454 116.738 69.5569C123.489 69.1798 135.225 53.4104 128.786 42.2689C122.312 31.1275 103.306 53.9589 102.994 59.1354Z" fill="#ADD116"/>
<path d="M31.4005 57.4212C31.4005 57.4212 27.35 78.4015 43.1367 83.1666C58.9233 87.9317 69.2746 67.3285 68.7899 64.4146C68.3052 61.535 33.9278 53.2732 31.4005 57.4212Z" fill="#ADD116"/>
<path d="M19.4221 75.0766C19.4221 75.0766 14.333 72.5398 14.0561 74.8366C13.8137 77.0992 18.9028 81.6586 23.2303 82.1386C27.5924 82.6528 25.7922 76.825 19.4221 75.0766Z" fill="#AD4F0D"/>
<path d="M66.8167 85.6694C66.8167 85.6694 58.1617 87.1778 57.8848 89.2004C57.6424 91.223 59.408 93.4856 68.5823 93.2456C77.7565 92.9714 76.9949 84.641 66.8167 85.6694Z" fill="#AD4F0D"/>
<path d="M4.39713 44.8064C4.39713 44.8064 3.63549 54.1309 6.959 55.9136C14.333 51.1142 14.333 51.1142 14.333 51.1142C14.333 51.1142 11.5288 40.2812 4.39713 44.8064Z" fill="#FDF098"/>
<path d="M16.3756 52.3826L8.72461 57.6962C8.72461 57.6962 9.7632 62.9755 16.3756 63.2498C21.7417 55.1936 21.7417 55.1936 21.7417 55.1936C21.7417 55.1936 17.8989 51.3541 16.3756 52.3826Z" fill="#FDF098"/>
<path d="M23.5073 56.1531L19.6991 62.9751C19.6991 62.9751 26.5884 63.7292 28.354 60.1983C30.1197 56.6673 26.0691 53.3763 23.5073 56.1531Z" fill="#FDF098"/>
<path d="M72.6674 65.7517C72.6674 65.7517 73.1867 73.8078 78.5181 75.3505C84.3689 65.5117 84.3689 65.5117 84.3689 65.5117L72.6674 65.7517Z" fill="#FDF098"/>
<path d="M85.6497 65.752L81.8416 76.105C81.8416 76.105 84.4034 81.1443 93.0584 77.6134C90.0118 64.9978 90.0118 64.9978 90.0118 64.9978C90.0118 64.9978 86.9307 62.7009 85.6497 65.752Z" fill="#FDF098"/>
<path d="M91.0159 65.2376L95.3434 74.8021C95.3434 74.8021 99.6709 71.7853 99.9132 66.4717C95.0664 62.1865 95.0664 62.1865 95.0664 62.1865C95.0664 62.1865 90.739 62.4608 91.0159 65.2376Z" fill="#FDF098"/>
<path d="M36.4897 62.975C36.4897 62.975 39.0515 66.506 36.2473 68.7686C40.5748 68.2543 39.5708 72.0596 38.8092 73.2937C44.9369 69.2485 46.1832 69.0085 43.1367 74.8021C46.1832 71.7853 46.4602 71.5111 46.1832 77.3389C48.2258 72.2995 49.5067 67.7401 52.3109 77.3389C52.8302 72.5395 54.1111 69.7627 57.1577 74.3221C56.6384 72.2995 58.1616 66.0946 61.866 66.3003C56.3614 61.7066 48.9874 49.6052 36.4897 62.975Z" fill="#E2EA9C"/>
<path d="M103.721 56.3929C103.721 56.3929 107.599 58.4155 106.145 61.6722C109.78 59.3068 110.576 63.1121 110.472 64.5862C114.107 58.2441 115.111 57.4556 115.042 64.0034C116.392 59.9239 116.496 59.6154 118.919 64.8947C118.435 59.4782 117.5 54.8502 124.389 62.1522C122.658 57.6613 122.52 54.6103 127.332 57.2842C125.947 55.7073 124.493 49.4681 127.886 48.0282C120.858 46.417 108.776 38.9094 103.721 56.3929Z" fill="#E2EA9C"/>
<path d="M53.7995 75.4875C53.9525 75.4875 54.0765 75.2113 54.0765 74.8705C54.0765 74.5297 53.9525 74.2534 53.7995 74.2534C53.6466 74.2534 53.5226 74.5297 53.5226 74.8705C53.5226 75.2113 53.6466 75.4875 53.7995 75.4875Z" fill="#60982E"/>
<path d="M49.7837 74.4248C49.9366 74.4248 50.0606 74.2406 50.0606 74.0134C50.0606 73.7862 49.9366 73.6021 49.7837 73.6021C49.6307 73.6021 49.5067 73.7862 49.5067 74.0134C49.5067 74.2406 49.6307 74.4248 49.7837 74.4248Z" fill="#60982E"/>
<path d="M40.2656 74.5939C40.4385 74.4446 40.4973 74.231 40.3968 74.1169C40.2963 74.0027 40.0746 74.0311 39.9017 74.1804C39.7287 74.3297 39.67 74.5432 39.7705 74.6574C39.871 74.7716 40.0926 74.7431 40.2656 74.5939Z" fill="#60982E"/>
<path d="M48.6758 78.2987C49.0391 78.2987 49.3336 77.8689 49.3336 77.3388C49.3336 76.8087 49.0391 76.3789 48.6758 76.3789C48.3126 76.3789 48.0181 76.8087 48.0181 77.3388C48.0181 77.8689 48.3126 78.2987 48.6758 78.2987Z" fill="#60982E"/>
<path d="M34.4296 66.9366C34.9512 66.817 35.3076 66.436 35.2257 66.0855C35.1438 65.735 34.6545 65.5478 34.1329 65.6673C33.6113 65.7869 33.2549 66.1679 33.3368 66.5184C33.4187 66.8689 33.908 67.0561 34.4296 66.9366Z" fill="#60982E"/>
<path d="M42.2297 77.5879C42.5149 77.1392 42.4968 76.6202 42.1893 76.4286C41.8818 76.237 41.4014 76.4454 41.1163 76.8941C40.8311 77.3428 40.8492 77.8619 41.1567 78.0535C41.4642 78.245 41.9446 78.0366 42.2297 77.5879Z" fill="#60982E"/>
<path d="M57.7808 75.5909C58.0578 76.0365 58.0231 76.5508 57.7116 76.7564C57.4 76.9278 56.9153 76.7222 56.6384 76.2765C56.3614 75.8308 56.396 75.3166 56.7076 75.1109C57.0192 74.9395 57.5038 75.1452 57.7808 75.5909Z" fill="#60982E"/>
<path d="M60.1878 72.3031C60.3961 72.1687 60.4043 71.8155 60.206 71.514C60.0078 71.2126 59.6782 71.0771 59.4699 71.2114C59.2616 71.3457 59.2535 71.699 59.4517 72.0004C59.65 72.3019 59.9795 72.4374 60.1878 72.3031Z" fill="#60982E"/>
<path d="M44.5907 75.8989C44.8392 75.8989 45.0407 75.6073 45.0407 75.2475C45.0407 74.8878 44.8392 74.5962 44.5907 74.5962C44.3421 74.5962 44.1406 74.8878 44.1406 75.2475C44.1406 75.6073 44.3421 75.8989 44.5907 75.8989Z" fill="#60982E"/>
<path d="M37.3898 70.8596C37.1128 71.0653 36.732 71.0653 36.5935 70.8596C36.455 70.6539 36.5589 70.3111 36.8705 70.1054C37.1474 69.8997 37.5282 69.8997 37.6667 70.1054C37.8052 70.3454 37.7013 70.6539 37.3898 70.8596Z" fill="#60982E"/>
<path d="M126.018 56.7291C126.115 56.6381 126.023 56.3858 125.813 56.1655C125.603 55.9453 125.354 55.8405 125.257 55.9315C125.16 56.0224 125.251 56.2747 125.461 56.495C125.671 56.7153 125.92 56.8201 126.018 56.7291Z" fill="#60982E"/>
<path d="M122.769 58.4303C122.867 58.3398 122.84 58.1543 122.709 58.016C122.579 57.8778 122.394 57.8392 122.296 57.9298C122.198 58.0203 122.225 58.2058 122.356 58.344C122.486 58.4823 122.671 58.5209 122.769 58.4303Z" fill="#60982E"/>
<path d="M116.684 64.2875C116.703 64.0991 116.61 63.9359 116.477 63.923C116.344 63.9101 116.22 64.0524 116.202 64.2408C116.183 64.4293 116.276 64.5925 116.409 64.6054C116.543 64.6183 116.666 64.476 116.684 64.2875Z" fill="#60982E"/>
<path d="M124.425 61.6089C124.662 61.3887 124.589 60.9303 124.262 60.585C123.935 60.2397 123.478 60.1381 123.241 60.3583C123.004 60.5784 123.076 61.0368 123.403 61.3821C123.73 61.7275 124.187 61.829 124.425 61.6089Z" fill="#60982E"/>
<path d="M108.157 62.8514C108.422 62.458 108.419 61.994 108.149 61.815C107.879 61.6361 107.444 61.8099 107.178 62.2032C106.913 62.5966 106.916 63.0606 107.186 63.2396C107.456 63.4186 107.891 63.2448 108.157 62.8514Z" fill="#60982E"/>
<path d="M119.82 65.0661C119.923 65.5117 119.716 65.9574 119.404 65.9917C119.093 66.0602 118.746 65.7174 118.677 65.2718C118.573 64.8261 118.781 64.3804 119.093 64.3462C119.404 64.2776 119.75 64.6204 119.82 65.0661Z" fill="#60982E"/>
<path d="M128.648 54.3705C129.098 54.5077 129.409 54.8505 129.305 55.159C129.202 55.4675 128.786 55.639 128.336 55.5018C127.886 55.3647 127.574 55.0219 127.678 54.7134C127.782 54.4048 128.198 54.2334 128.648 54.3705Z" fill="#60982E"/>
<path d="M128.203 50.7655C128.257 50.5446 128.044 50.3045 127.728 50.2293C127.412 50.1541 127.112 50.2722 127.059 50.4931C127.005 50.714 127.218 50.954 127.534 51.0293C127.85 51.1045 128.15 50.9864 128.203 50.7655Z" fill="#60982E"/>
<path d="M120.291 62.5816C120.458 62.426 120.413 62.1098 120.191 61.8753C119.968 61.6408 119.652 61.5768 119.485 61.7324C119.318 61.888 119.363 62.2043 119.585 62.4388C119.808 62.6733 120.124 62.7373 120.291 62.5816Z" fill="#60982E"/>
<path d="M112.548 63.639C112.611 63.3233 112.48 63.0316 112.254 62.9876C112.029 62.9435 111.796 63.1638 111.733 63.4796C111.67 63.7953 111.801 64.087 112.026 64.131C112.251 64.175 112.485 63.9548 112.548 63.639Z" fill="#60982E"/>
<path d="M69.2401 41.0691C69.4478 50.2908 67.8899 59.3068 67.8899 68.3571C78.7605 68.1514 88.9733 66.5744 97.9053 63.969C95.0664 53.9589 90.6351 44.1201 82.4648 38.5322C78.6566 39.9035 74.1561 40.8291 69.2401 41.0691Z" fill="#F4767E"/>
<path d="M5.92041 20.2258C17.4488 17.7918 29.7734 17.6547 40.4017 22.0427C42.2366 19.3345 45.5947 16.9691 49.9222 15.255C47.6026 10.7299 44.3138 6.75322 40.471 2.70801C25.169 6.10187 12.7751 12.3754 5.92041 20.2258Z" fill="#F4767E"/>
<path d="M100.606 5.03935C92.2275 2.3654 82.6032 0.651327 72.2865 0.171387C70.971 4.11375 70.4517 8.2618 70.3824 12.4441C74.5368 12.7184 78.4142 13.4726 81.7724 14.6039C87.5885 10.4558 93.8893 7.06195 100.606 5.03935Z" fill="#F4767E"/>
<path d="M93.82 23.6198C94.2008 24.5797 94.4085 25.5739 94.4085 26.568C94.4085 28.4878 93.6815 30.339 92.366 32.0188C104.76 34.2471 116.323 40.2806 125.116 48.8853C129.34 44.3601 131.729 39.2522 131.694 33.87C131.659 27.0137 127.747 20.6374 121.031 15.3237C111.545 15.7008 102.267 19.129 93.82 23.6198Z" fill="#F4767E"/>
<path d="M54.1458 39.6295C48.8836 38.2582 44.5907 36.0642 41.8904 33.356C28.8041 34.8986 16.6179 40.9321 6.88977 49.6054C13.1906 56.1188 23.438 61.4667 35.9704 64.7577C40.2286 55.3646 45.9063 45.9715 54.1458 39.6295Z" fill="#F4767E"/>
<path d="M66.7128 41.1378C62.1776 41.1378 57.9193 40.5893 54.1458 39.6294C45.9409 45.9715 40.2286 55.3303 36.005 64.7577C45.0062 67.1231 55.219 68.4258 66.0204 68.3915C66.6435 68.3915 67.3013 68.3572 67.9245 68.3572C67.9245 59.3412 69.4477 50.3252 69.2746 41.0692C68.4091 41.1035 67.5436 41.1378 66.7128 41.1378Z" fill="#D50033"/>
<path d="M92.4006 32.0532C90.358 34.6929 86.8961 36.9212 82.4647 38.5324C90.6004 44.086 95.0663 53.9591 97.9051 63.9692C109.676 60.5411 119.231 55.2617 125.151 48.9197C116.358 40.315 104.794 34.2815 92.4006 32.0532Z" fill="#D50033"/>
<path d="M100.606 5.03906C93.8893 7.06167 87.5885 10.4555 81.7723 14.5693C87.8308 16.5919 92.2968 19.8144 93.82 23.6196C102.267 19.1287 111.545 15.7006 121.066 15.3578C115.804 11.1754 108.81 7.64445 100.606 5.03906Z" fill="#D50033"/>
<path d="M65.7088 0C56.7769 0.0342814 48.2604 0.994161 40.4709 2.70823C44.3137 6.75344 47.6026 10.6958 49.9222 15.2552C54.5612 13.4383 60.3081 12.3413 66.5743 12.307C67.8552 12.307 69.1361 12.3413 70.3825 12.4442C70.4517 8.2961 71.0056 4.11377 72.2865 0.171407C70.1055 0.0685628 67.9244 0 65.7088 0Z" fill="#D50033"/>
<path d="M41.8904 33.3555C39.9517 31.4015 38.8438 29.1732 38.8438 26.842C38.8438 25.1623 39.3977 23.551 40.4017 22.0426C29.7734 17.6546 17.4488 17.7917 5.9204 20.2257C2.11222 24.5795 -0.0342074 29.3789 0.0004124 34.4868C0.0350322 39.9375 2.52766 45.0798 6.88975 49.6392C16.6179 40.966 28.8041 34.8982 41.8904 33.3555Z" fill="#D50033"/>
<path d="M131.106 29.2764C131.521 30.7847 131.729 32.3274 131.729 33.9044C131.729 35.7898 131.452 37.641 130.898 39.4579C130.967 39.5265 131.002 39.5951 131.071 39.6636C132.179 36.4755 132.421 32.9788 131.106 29.2764Z" fill="#A18183"/>
<path d="M130.898 39.4575C130.69 40.1089 130.482 40.7259 130.205 41.3773V41.4116C130.24 41.4458 130.24 41.5144 130.275 41.5487V41.583C130.552 40.9659 130.829 40.3146 131.071 39.6632C131.002 39.5946 130.967 39.5261 130.898 39.4575Z" fill="#8E7D7E"/>
<path d="M130.205 41.3433C129.929 41.9946 129.617 42.6117 129.305 43.2287C129.305 43.263 129.34 43.2973 129.34 43.3316C129.686 42.7488 129.998 42.166 130.275 41.5489C130.275 41.5489 130.275 41.549 130.275 41.5147C130.24 41.4804 130.24 41.4118 130.205 41.3775C130.205 41.3775 130.205 41.3775 130.205 41.3433Z" fill="#791102"/>
<path d="M129.271 43.2632C128.821 44.1202 128.301 44.943 127.713 45.7657C128.301 45.0115 128.821 44.1888 129.305 43.366C129.305 43.3317 129.305 43.2975 129.271 43.2632Z" fill="#997517"/>
<path d="M131.002 28.9336C131.625 34.3158 129.513 41.0007 123.316 47.2056C123.905 47.7541 124.528 48.3026 125.082 48.8854C126.016 47.9255 126.917 46.8971 127.713 45.8001C128.301 44.9773 128.821 44.1545 129.271 43.2975C129.617 42.6804 129.929 42.0291 130.171 41.412C130.448 40.795 130.656 40.1436 130.863 39.4923C131.417 37.6754 131.729 35.8242 131.694 33.9387C131.694 32.3617 131.486 30.8191 131.071 29.3107C131.071 29.1393 131.036 29.0364 131.002 28.9336Z" fill="#C2393C"/>
<path d="M116.738 55.7417C115.215 56.7016 113.623 57.6272 111.926 58.4842C112.342 58.3128 112.757 58.1071 113.173 57.9357C113.657 57.6615 114.973 56.9073 116.738 55.7417Z" fill="#B37D49"/>
<path d="M67.9244 67.7744C67.9244 67.9801 67.9244 68.1515 67.9244 68.3572C67.8552 68.3572 67.7513 68.3572 67.6821 68.3572C67.6821 68.3915 67.6475 68.4258 67.6475 68.46C68.0283 68.46 68.4437 68.4258 68.8592 68.4258C68.8592 68.3915 68.8245 68.3572 68.8245 68.3572C68.5476 68.3572 68.236 68.3572 67.959 68.3915C67.9244 68.1515 67.9244 67.9801 67.9244 67.7744Z" fill="#791102"/>
<path d="M73.0482 68.1514C71.6287 68.2199 70.2093 68.2885 68.7899 68.3228C68.7899 68.3571 68.8245 68.3913 68.8245 68.3913C70.1747 68.3571 71.5941 68.2885 73.0482 68.1514Z" fill="#C1690B"/>
<path d="M58.6117 68.186C58.5771 68.2203 58.5424 68.2889 58.5078 68.3232C60.3773 68.426 62.3506 68.4946 64.4624 68.4946C65.501 68.4946 66.5396 68.4946 67.6128 68.4603C67.6128 68.426 67.6474 68.3917 67.6474 68.3574C67.0935 68.3574 66.5396 68.3917 66.0203 68.3917C65.8472 68.3917 65.6395 68.3917 65.4664 68.3917C63.1469 68.3917 60.862 68.3232 58.6117 68.186Z" fill="#997517"/>
<path d="M74.9176 68.0142C74.2945 68.0484 73.6713 68.117 73.0828 68.1513V68.1856C73.6713 68.117 74.2945 68.0827 74.9176 68.0142Z" fill="#C17949"/>
<path d="M44.1406 66.54C46.841 67.1228 51.8608 67.9799 58.5078 68.3227C58.5425 68.2884 58.5771 68.2198 58.6117 68.1855C53.5918 67.9113 48.7451 67.3628 44.1406 66.54Z" fill="#B37D49"/>
<path d="M97.0743 61.1582C89.0771 63.4551 79.4528 65.1006 67.9591 65.8548C67.9244 66.5061 67.9244 67.1232 67.9244 67.7745C67.9244 67.9802 67.9244 68.1516 67.9244 68.3573C68.2014 68.3573 68.513 68.3573 68.7899 68.323C70.2093 68.2887 71.6634 68.2202 73.0482 68.1516C73.6713 68.1173 74.2945 68.0831 74.883 68.0145C81.8416 67.3974 89.5964 66.0605 97.8013 63.6265C97.5936 62.8037 97.3513 61.981 97.0743 61.1582Z" fill="#C2393C"/>
<path d="M67.959 65.855C63.5969 66.1292 58.9925 66.3006 54.0765 66.3006C50.1645 66.3006 46.1139 66.1978 41.8557 66.0264C41.8557 66.0264 42.652 66.2664 44.1752 66.5749C48.7797 67.3976 53.6264 67.9461 58.6117 68.2204C60.862 68.3575 63.1469 68.3918 65.4664 68.3918C65.6395 68.3918 65.8472 68.3918 66.0203 68.3918C66.5742 68.3918 67.1282 68.3918 67.6475 68.3575C67.7167 68.3575 67.8206 68.3575 67.8898 68.3575C67.8898 68.1518 67.8898 67.9804 67.8898 67.7747C67.9244 67.1234 67.9244 66.5063 67.959 65.855Z" fill="#AD030C"/>
<path d="M123.316 47.1709C117.95 52.5531 109.468 57.5924 97.0743 61.1577C97.3513 61.9805 97.5936 62.8032 97.836 63.626C102.406 62.2547 107.114 60.5749 111.926 58.4495C113.623 57.5924 115.215 56.6669 116.738 55.707C119.127 54.13 122.278 51.7646 125.082 48.8164C124.493 48.2679 123.905 47.7194 123.316 47.1709Z" fill="#AD030C"/>
<path d="M32.7854 19.6777C33.547 19.8491 34.3087 20.0205 35.0357 20.2262C34.2741 20.0205 33.547 19.8491 32.7854 19.6777Z" fill="#8E7D7E"/>
<path d="M30.6044 14.4668C30.9852 16.0437 31.7468 17.7235 33.1662 19.3348C33.0278 19.4376 32.8893 19.5747 32.7508 19.6776C33.5124 19.849 34.2741 20.0204 35.0011 20.2261C35.2088 19.8147 35.4511 19.4033 35.7281 18.9919C33.4432 18.1006 31.6083 16.5237 30.6044 14.4668Z" fill="#C2393C"/>
<path d="M98.4591 21.3232C97.8013 21.6318 97.1435 21.9403 96.5204 22.2488C97.3513 24.2714 97.8013 26.4312 97.8013 28.6252C97.8013 28.728 97.8013 28.8309 97.8013 28.8994C97.7667 30.3393 97.559 31.7448 97.1782 33.0818C97.8359 33.2532 98.4591 33.4246 99.1169 33.6303C100.259 29.1394 99.7054 24.58 98.4591 21.3232Z" fill="#C2393C"/>
<path d="M88.7656 44.4287C83.6419 48.1311 76.6833 50.5994 68.9284 51.1136C68.8938 51.6278 68.8592 52.142 68.8246 52.6905C76.164 52.2106 83.6072 50.1537 89.8042 45.8C89.458 45.32 89.1118 44.8744 88.7656 44.4287Z" fill="#C2393C"/>
<path d="M34.4125 34.7612C33.097 35.104 31.7814 35.4811 30.5005 35.8925C32.6469 40.4519 37.0782 45.1828 44.9023 49.0909C44.9369 49.0909 44.9369 49.0909 44.9716 49.1251C45.5255 48.371 46.114 47.6168 46.7372 46.8969C40.8864 43.9487 36.5243 39.6978 34.4125 34.7612Z" fill="#C2393C"/>
<path d="M46.7025 46.897C46.114 47.6169 45.5254 48.3711 44.9369 49.1253C50.4761 51.3193 57.677 52.8277 65.1895 52.8277C66.4012 52.8277 67.5782 52.7934 68.7899 52.7248C68.8245 52.2106 68.8592 51.6964 68.8938 51.1479C67.8552 51.2164 66.8166 51.2507 65.778 51.2507C65.5357 51.2507 65.2587 51.2507 65.0164 51.2507C58.2309 51.1136 51.8955 49.5024 46.7025 46.897Z" fill="#AD030C"/>
<path d="M97.2129 33.1162C95.9665 37.47 92.9892 41.378 88.7656 44.4291C89.1118 44.8747 89.458 45.3204 89.8042 45.8003C92.4007 43.9834 94.7895 41.7208 96.8667 39.0126C97.9399 37.2985 98.7015 35.4816 99.1516 33.6647C98.4938 33.459 97.836 33.2876 97.2129 33.1162Z" fill="#AD030C"/>
<path d="M103.098 13.3354C101.99 16.3522 99.2208 18.9576 95.5165 20.1575C95.8973 20.8431 96.2435 21.5287 96.5205 22.2486C97.1782 21.9401 97.8014 21.6316 98.4592 21.323C98.4245 21.2545 98.3899 21.1859 98.3899 21.1173C101.298 18.9919 103.479 16.1465 103.098 13.3354Z" fill="#AD030C"/>
<path d="M32.7854 19.6777C29.2196 22.8659 27.4193 29.208 30.5005 35.8928C31.7814 35.4815 33.097 35.1044 34.4125 34.7616C33.5124 32.6704 33.0277 30.4421 33.0277 28.1795C33.0277 28.0767 33.0277 27.9738 33.0277 27.871C33.0624 25.197 33.7894 22.6259 35.0357 20.2262C34.274 20.0205 33.547 19.8491 32.7854 19.6777Z" fill="#AD030C"/>
<path d="M103.41 8.81068C102.267 3.66846 96.2781 0.617415 90.0119 1.98867C85.8575 2.87999 82.6725 5.48538 81.2877 8.63927C76.7179 6.78807 71.421 5.69107 65.8126 5.58822C61.1043 5.51966 56.6384 6.13672 52.5879 7.37086C51.2031 2.50289 45.387 -0.342464 39.2939 0.994511C33.0277 2.36577 28.8733 7.61083 29.9811 12.753C30.6043 15.6327 32.82 17.8953 35.728 19.0265C34.0317 21.7348 33.0623 24.7515 32.9931 27.9054C32.7854 40.521 47.1179 50.9768 65.0164 51.2511C82.9148 51.5596 97.559 41.5494 97.7667 28.9339C97.8359 25.8485 97.0051 22.9003 95.4472 20.1921C100.986 18.3752 104.483 13.5415 103.41 8.81068Z" fill="#90340A"/>
<path d="M103.41 8.81049C102.925 6.61648 101.54 4.79956 99.6362 3.56543C100.259 4.42247 100.744 5.38235 100.986 6.44507C101.99 10.9702 98.6668 15.5982 93.4392 17.278C94.8932 19.8491 95.6895 22.6945 95.6549 25.6427C95.4472 37.6754 81.4608 47.1714 64.4278 46.8971C47.3603 46.6229 33.7201 36.647 33.9278 24.6485C33.9278 23.9286 33.997 23.2087 34.1009 22.4888C33.4777 24.2371 33.0969 26.054 33.0623 27.9052C32.8546 40.5208 47.1872 50.9766 65.0856 51.2509C82.984 51.5594 97.6282 41.5492 97.8359 28.9337C97.9052 25.8484 97.0743 22.9002 95.5164 20.1919C100.986 18.375 104.483 13.5413 103.41 8.81049Z" fill="#742604"/>
<path d="M30.9851 10.1475C30.7082 8.98191 30.7774 7.81635 31.0544 6.68506C29.9812 8.53626 29.5657 10.6274 30.0158 12.7186C30.6043 15.3925 32.543 17.518 35.1395 18.7178C35.5203 17.8265 35.9358 16.9695 36.4551 16.1467C33.6855 15.0497 31.5737 12.9243 30.9851 10.1475Z" fill="#742604"/>
<path d="M22.6071 11.6899C21.3608 11.6899 19.4567 12.2384 16.8948 13.5411C16.8948 13.5411 12.3596 15.7009 8.34375 19.7461C12.3943 19.0262 16.5486 18.5805 20.6338 18.5462C21.2569 17.7235 21.9147 16.9693 22.5032 16.3179C24.9959 13.6783 24.9959 11.6899 22.6071 11.6899Z" fill="#F8A398"/>
<path d="M20.2183 40.2808C16.6871 42.1662 13.329 44.3945 10.1786 46.8628C15.3369 51.7993 22.2263 56.1188 28.354 57.6614C32.4045 58.6899 35.6588 59.3412 38.3937 59.7526C39.4323 57.73 40.5401 55.7417 41.7518 53.8219C41.3018 53.6848 40.8171 53.5477 40.2978 53.3763C33.0623 51.2508 25.0305 45.8001 20.2183 40.2808Z" fill="#F8A398"/>
<path d="M41.7519 53.8218C40.5402 55.7415 39.4324 57.7299 38.3938 59.7525C41.6481 60.2324 44.1061 60.3695 46.2179 60.3695C48.0181 60.3695 49.5414 60.2667 51.03 60.1981C53.1765 58.2784 50.0953 56.3586 41.7519 53.8218Z" fill="#E44665"/>
<path d="M20.5993 18.5459C16.5141 18.5802 12.3597 19.0258 8.30923 19.7457C4.9511 23.1396 1.86994 27.8362 2.11228 33.6983C2.35462 37.6064 5.60888 42.4743 10.1787 46.8624C13.3291 44.3941 16.6872 42.1658 20.2184 40.2803C18.799 38.6348 17.6566 37.0236 16.8949 35.4466C14.0907 29.7559 17.2758 22.9339 20.5993 18.5459Z" fill="#E44665"/>
<path d="M114.557 16.0781C112.48 16.4552 110.438 16.9352 108.43 17.5522C108.187 18.135 108.153 18.9235 108.326 19.8834C108.326 19.8834 110.784 27.8024 106.629 36.4413C110.507 38.1554 114.177 40.2465 117.604 42.6462C122.381 38.601 124.978 34.5558 124.389 27.9395C123.662 20.329 117.95 17.038 114.557 16.0781Z" fill="#F8A398"/>
<path d="M106.595 36.4067C105.418 38.875 103.652 41.3775 101.159 43.8115C97.559 47.2397 99.3592 49.5365 103.306 49.5365C106.041 49.5365 109.745 48.4395 113.38 45.8341C114.903 44.7371 116.288 43.6744 117.569 42.646C114.142 40.212 110.472 38.1208 106.595 36.4067Z" fill="#E44665"/>
<path d="M111.961 15.6665C110.368 15.6665 108.914 16.1464 108.395 17.5177C110.438 16.9349 112.48 16.4207 114.523 16.0436C114.107 15.9065 113.726 15.8379 113.38 15.7693C112.93 15.7351 112.446 15.6665 111.961 15.6665Z" fill="#E44665"/>
<path d="M51.03 8.22715C51.03 8.22715 49.7491 -0.343209 37.5283 2.43359C32.4392 3.94197 30.9159 11.2782 41.6135 15.8033C37.8053 21.3569 37.286 29.6873 44.937 34.7267C52.5879 39.7661 64.8087 41.0345 77.5488 34.7267C90.2889 28.4189 87.727 19.8485 85.6845 15.8033C83.6073 11.7581 75.9563 2.43359 51.03 8.22715Z" fill="#A2440C"/>
<path d="M41.9249 29.0024C43.1295 29.0024 44.106 28.2349 44.106 27.2883C44.106 26.3416 43.1295 25.5742 41.9249 25.5742C40.7204 25.5742 39.7439 26.3416 39.7439 27.2883C39.7439 28.2349 40.7204 29.0024 41.9249 29.0024Z" fill="#742604"/>
<path d="M56.8808 42.7489C58.0853 42.7489 59.0618 41.9815 59.0618 41.0349C59.0618 40.0882 58.0853 39.3208 56.8808 39.3208C55.6762 39.3208 54.6997 40.0882 54.6997 41.0349C54.6997 41.9815 55.6762 42.7489 56.8808 42.7489Z" fill="#742604"/>
<path d="M81.5646 38.5666C81.5646 39.4922 80.5953 40.2807 79.3836 40.2807C78.1719 40.2807 77.2025 39.5265 77.2025 38.5666C77.2025 37.641 78.1719 36.8525 79.3836 36.8525C80.5606 36.8525 81.5646 37.6067 81.5646 38.5666Z" fill="#742604"/>
<path d="M88.4193 27.5961C89.6239 27.5961 90.6004 26.8287 90.6004 25.882C90.6004 24.9354 89.6239 24.168 88.4193 24.168C87.2148 24.168 86.2383 24.9354 86.2383 25.882C86.2383 26.8287 87.2148 27.5961 88.4193 27.5961Z" fill="#742604"/>
<path d="M75.61 14.2953C76.8146 14.2953 77.791 13.5279 77.791 12.5813C77.791 11.6346 76.8146 10.8672 75.61 10.8672C74.4054 10.8672 73.429 11.6346 73.429 12.5813C73.429 13.5279 74.4054 14.2953 75.61 14.2953Z" fill="#742604"/>
<path d="M59.0618 27.425C59.0618 28.3506 58.0924 29.1391 56.8808 29.1391C55.6691 29.1391 54.6997 28.3849 54.6997 27.425C54.6997 26.4994 55.6691 25.7109 56.8808 25.7109C58.0924 25.7109 59.0618 26.4994 59.0618 27.425Z" fill="#742604"/>
<path d="M67.1974 20.809C68.402 20.809 69.3784 20.0416 69.3784 19.0949C69.3784 18.1483 68.402 17.3809 67.1974 17.3809C65.9928 17.3809 65.0164 18.1483 65.0164 19.0949C65.0164 20.0416 65.9928 20.809 67.1974 20.809Z" fill="#742604"/>
<path d="M74.3638 30.0653C75.5683 30.0653 76.5448 29.2979 76.5448 28.3513C76.5448 27.4046 75.5683 26.6372 74.3638 26.6372C73.1592 26.6372 72.1827 27.4046 72.1827 28.3513C72.1827 29.2979 73.1592 30.0653 74.3638 30.0653Z" fill="#742604"/>
<path d="M53.1417 14.6039C54.3463 14.6039 55.3228 13.8365 55.3228 12.8899C55.3228 11.9432 54.3463 11.1758 53.1417 11.1758C51.9372 11.1758 50.9607 11.9432 50.9607 12.8899C50.9607 13.8365 51.9372 14.6039 53.1417 14.6039Z" fill="#742604"/>
<path d="M53.7996 19.4375C53.8342 19.6775 53.8342 19.9517 53.7996 20.226C53.5919 21.9058 51.8955 23.0713 49.853 23.0713C49.6452 23.0713 49.4029 23.0713 49.1952 23.037C47.3949 22.7971 45.9755 21.7344 45.5601 20.3631C44.9716 20.5688 44.3484 21.083 45.1447 22.2829C45.9409 23.4484 47.6719 24.2369 49.6106 24.2369C50.7531 24.2369 51.9994 23.9626 53.1418 23.3113C55.8422 21.8029 55.2883 19.9517 53.7996 19.4375Z" fill="#8A350A"/>
<path d="M87.6924 18.3403C87.727 18.4775 87.727 18.6146 87.727 18.7517C87.727 18.7517 87.727 18.7517 87.727 18.786V18.8203C87.727 18.8546 87.727 18.8546 87.727 18.8888V18.9231V18.9574V18.9917C87.727 19.026 87.727 19.026 87.727 19.0602C87.6924 19.2659 87.6231 19.5059 87.5539 19.7116C87.4501 19.9516 87.3462 20.1572 87.1731 20.3629C87.2423 20.8086 87.277 21.2543 87.3116 21.6999C89.2157 20.3972 88.8348 18.9231 87.6924 18.3403Z" fill="#802C08"/>
<path d="M79.4182 19.0605C78.8297 19.232 77.8257 19.6776 78.7604 21.0489C79.5567 22.2144 81.2877 23.0029 83.2264 23.0029C84.3689 23.0029 85.6152 22.7287 86.7922 22.0773C87 21.9745 87.1731 21.8373 87.3462 21.7345C87.3115 21.2888 87.2769 20.8089 87.2077 20.3975C86.5153 21.3231 85.3036 21.9059 83.8842 21.9402C83.8496 21.9402 83.8149 21.9402 83.7803 21.9402C83.6072 21.9402 83.3995 21.9402 83.2264 21.9059C83.1918 21.9059 83.1572 21.9059 83.1225 21.9059C83.0879 21.9059 83.0533 21.9059 83.0187 21.9059C83.0187 21.9059 83.0187 21.9059 82.9841 21.9059C82.9494 21.9059 82.9148 21.9059 82.9148 21.9059C82.9148 21.9059 82.9148 21.9059 82.8802 21.9059C82.8456 21.9059 82.811 21.9059 82.811 21.9059C82.811 21.9059 82.811 21.9059 82.7763 21.9059C82.7417 21.9059 82.7071 21.9059 82.6725 21.8716C81.8762 21.7002 81.1838 21.3574 80.6299 20.9117C80.5953 20.8775 80.5953 20.8775 80.5607 20.8432C80.5261 20.8089 80.4568 20.7746 80.4222 20.7061C80.3876 20.6718 80.3876 20.6718 80.353 20.6375L80.3183 20.6032L80.2837 20.5689L80.2491 20.5346C80.2491 20.5346 80.2491 20.5346 80.2145 20.5004L80.1799 20.4661C80.1799 20.4318 80.1452 20.4318 80.1452 20.4318C79.7644 19.9861 79.5221 19.5405 79.4182 19.0605Z" fill="#8A350A"/>
<path d="M53.7996 20.1915C53.5572 22.0427 51.5147 23.3111 49.1951 23.0026C46.8756 22.7284 45.2139 20.98 45.4562 19.1288C45.6985 17.2776 47.7411 16.0092 50.0606 16.3177C52.3455 16.6263 54.0419 18.3746 53.7996 20.1915Z" fill="#ED2000"/>
<path d="M53.3841 18.3403C53.4187 18.546 53.4187 18.786 53.3841 18.9917C53.1418 20.8429 51.0992 22.1113 48.7797 21.8028C47.291 21.6313 46.0793 20.8429 45.4562 19.8144C45.6293 21.3914 47.1872 22.7626 49.1951 23.0369C51.5146 23.3111 53.5572 22.077 53.7995 20.2258C53.8688 19.5402 53.7303 18.8888 53.3841 18.3403Z" fill="#E10014"/>
<path d="M48.9182 16.7637C48.572 16.7637 46.7718 16.8322 45.9755 18.4777C45.8371 19.1291 46.2525 19.6776 47.2911 19.6776C47.845 19.6776 48.5374 19.5405 49.4375 19.1634C52.034 18.0664 51.3416 16.9694 48.9875 16.7637C48.9875 16.7637 48.9528 16.7637 48.9182 16.7637Z" fill="#F25402"/>
<path d="M47.8104 17.6889C47.845 17.8603 47.6719 18.0317 47.395 18.1003C47.118 18.1688 46.8757 18.1003 46.8411 17.9289C46.8064 17.7575 46.9795 17.586 47.2565 17.5175C47.5335 17.4489 47.7758 17.5175 47.8104 17.6889Z" fill="white"/>
<path d="M87.6924 19.0607C87.4501 20.9119 85.4075 22.1803 83.088 21.8718C80.7684 21.5975 79.1067 19.8491 79.349 17.998C79.5914 16.1468 81.6339 14.8783 83.9535 15.1869C86.273 15.4954 87.9347 17.2095 87.6924 19.0607Z" fill="#ED2000"/>
<path d="M87.2769 17.1748C87.3116 17.3805 87.3116 17.6205 87.2769 17.8262C87.0346 19.6773 84.992 20.9458 82.6725 20.6372C81.1839 20.4658 79.9722 19.6773 79.349 18.6489C79.5221 20.2259 81.08 21.5971 83.1226 21.8714C85.4421 22.1456 87.4847 20.9115 87.727 19.0603C87.7962 18.4089 87.6231 17.7576 87.2769 17.1748Z" fill="#E10014"/>
<path d="M82.8456 15.6323C82.4994 15.6323 80.6992 15.7009 79.9029 17.3464C79.7644 17.9977 80.1799 18.5462 81.2185 18.5462C81.7724 18.5462 82.4648 18.4091 83.3649 18.032C85.9614 16.935 85.2344 15.838 82.9148 15.6323C82.8802 15.6323 82.8802 15.6323 82.8456 15.6323Z" fill="#F25402"/>
<path d="M81.3203 16.9621C81.5987 16.894 81.7909 16.7048 81.7497 16.5393C81.7085 16.3739 81.4493 16.295 81.1709 16.3631C80.8925 16.4311 80.7002 16.6204 80.7414 16.7859C80.7827 16.9513 81.0418 17.0302 81.3203 16.9621Z" fill="white"/>
</svg>
