<svg width="114" height="140" viewBox="0 0 114 140" fill="none" xmlns="http://www.w3.org/2000/svg">
<path d="M102.2 46.2305C98.9917 63.7782 102.542 107.481 103.875 117.3C104.017 118.321 104.288 122.12 102.873 126.406C101.905 129.315 99.8999 132.022 97.0453 133.102C95.5472 133.66 93.9194 133.755 92.327 133.838C85.1196 134.206 77.9005 134.574 70.6932 134.942C67.2724 135.12 63.8398 135.287 60.4189 135.287C48.6702 135.251 36.8035 133.078 25.2552 135.239C22.1175 135.833 18.7321 136.699 15.8657 135.287C13.4947 134.111 12.0438 131.547 11.5248 128.935C11.0058 126.323 11.2653 123.628 11.5012 120.98C12.8223 105.938 12.9875 90.8357 13.1408 75.7338C13.2116 69.2514 13.2706 62.7571 13.3413 56.2747C13.3767 53.1285 13.4003 49.9704 13.0347 46.8479C12.3151 40.876 10.1093 34.9635 10.9232 29.0035C12.1735 19.9328 20.6666 14.3409 22.6012 13.0349C23.9695 12.1207 27.4375 9.97176 40.413 7.75159C49.8498 6.13693 56.4673 4.99716 65.7743 5.4127C76.6973 5.89947 85.2376 6.2794 92.9403 12.2988C97.5643 15.9199 100.195 20.2415 101.634 23.1265C101.834 23.9101 102.153 25.2161 102.448 26.8308C104.158 36.4238 102.589 44.0935 102.2 46.2305Z" fill="#F9C89F"/>
<path d="M98.3547 45.1619C97.529 49.7447 97.2105 54.4106 97.0453 59.0528C96.8566 64.4192 96.892 69.8093 97.0218 75.1757C97.2813 85.6592 97.8946 96.1545 98.8029 106.602C99.145 110.532 99.5225 114.45 100.042 118.356C99.9943 118 99.9471 117.644 99.9 117.288C100.112 118.938 100.03 120.636 99.8292 122.286C99.8764 121.93 99.9236 121.574 99.9707 121.217C99.7466 122.927 99.3573 124.637 98.7086 126.228C98.8383 125.907 98.9799 125.587 99.1096 125.266C98.685 126.275 98.1424 127.225 97.4818 128.104C97.6941 127.831 97.8947 127.557 98.107 127.296C97.588 127.949 97.0218 128.531 96.373 129.053C96.6443 128.84 96.9156 128.638 97.1751 128.424C96.6207 128.852 96.0309 129.196 95.3939 129.481C95.7124 129.35 96.0309 129.208 96.3494 129.077C95.4883 129.433 94.5918 129.635 93.6717 129.766C94.0256 129.718 94.3795 129.671 94.7333 129.623C92.3623 129.908 89.956 129.932 87.5732 130.051C85.1314 130.181 82.6779 130.3 80.2361 130.431C75.3526 130.68 70.4573 130.977 65.5738 131.155C60.761 131.333 55.9719 131.19 51.1709 130.905C46.4172 130.621 41.6752 130.253 36.9097 130.253C34.3028 130.253 31.6841 130.359 29.089 130.644C26.2461 130.965 23.4741 131.594 20.6431 131.998C20.9969 131.95 21.3508 131.903 21.7047 131.855C20.5251 132.01 19.3573 132.081 18.1659 131.938C18.5198 131.986 18.8737 132.033 19.2275 132.081C18.5788 131.986 17.9536 131.832 17.3402 131.582C17.6587 131.713 17.9772 131.855 18.2957 131.986C17.7413 131.748 17.234 131.452 16.7622 131.084C17.0335 131.297 17.3048 131.499 17.5643 131.713C17.0571 131.309 16.6206 130.858 16.2196 130.347C16.4319 130.621 16.6324 130.894 16.8448 131.155C16.3375 130.478 15.9247 129.742 15.5944 128.958C15.7242 129.279 15.8657 129.6 15.9955 129.92C15.6062 128.935 15.3585 127.925 15.2169 126.869C15.2641 127.225 15.3113 127.581 15.3585 127.937C14.9928 124.934 15.4293 121.906 15.677 118.914C15.9247 115.922 16.1134 112.93 16.2786 109.927C16.6088 103.848 16.7976 97.7573 16.9273 91.6667C17.1751 79.438 17.2576 67.2093 17.3638 54.9805C17.3874 51.3119 17.2458 47.6908 16.656 44.0696C16.137 40.8403 15.3231 37.6703 14.8748 34.4291C14.922 34.7853 14.9692 35.1415 15.0164 35.4977C14.7333 33.3369 14.6389 31.1523 14.922 28.9915C14.8748 29.3477 14.8277 29.7039 14.7805 30.06C14.9928 28.5997 15.3821 27.1869 15.9483 25.8215C15.8185 26.1421 15.677 26.4626 15.5472 26.7832C16.255 25.0973 17.1986 23.5183 18.3193 22.0698C18.1069 22.3429 17.9064 22.6159 17.6941 22.8771C19.2157 20.9063 21.0205 19.1729 22.9787 17.6413C22.7073 17.855 22.436 18.0569 22.1765 18.2706C23.8044 17.0002 25.503 15.8486 27.4021 15.0413C27.0836 15.1719 26.7651 15.3143 26.4467 15.4449C32.1205 13.0467 38.4195 12.1444 44.4355 11.1233C46.7593 10.7315 49.0949 10.3516 51.4305 10.031C51.0766 10.0785 50.7227 10.126 50.3688 10.1735C54.9574 9.55613 59.5697 9.24745 64.2055 9.36617C68.6289 9.4849 73.0878 9.68673 77.4759 10.2685C77.122 10.221 76.7681 10.1735 76.4142 10.126C79.6345 10.5653 82.8076 11.2895 85.8156 12.5599C85.4971 12.4293 85.1786 12.2868 84.8601 12.1562C87.0424 13.0942 89.0713 14.3052 90.9468 15.7655C90.6755 15.5518 90.4042 15.3499 90.1447 15.1362C92.1264 16.7034 93.9076 18.508 95.4529 20.5145C95.2406 20.2414 95.04 19.9684 94.8277 19.7072C96.1253 21.4168 97.2459 23.2333 98.2131 25.1567C98.0834 24.8361 97.9418 24.5156 97.8121 24.195C98.3193 26.154 98.7086 28.1486 98.9799 30.155C98.9327 29.7988 98.8855 29.4427 98.8383 29.0865C99.4281 33.6218 99.4163 38.2283 98.8147 42.7637C98.8619 42.4075 98.9091 42.0513 98.9563 41.6951C98.7676 42.8586 98.567 44.0103 98.3547 45.1619C98.1542 46.2423 98.1896 47.2752 98.7558 48.2488C99.2394 49.0799 100.183 49.8753 101.139 50.089C103.097 50.5402 105.645 49.4954 106.046 47.2871C106.836 42.9655 107.331 38.6083 107.19 34.2036C107.084 30.6774 106.635 27.1275 105.857 23.6845C105.739 23.174 105.633 22.6753 105.491 22.1648C105.279 21.4049 104.854 20.6688 104.477 19.9684C103.922 18.9473 103.321 17.9619 102.672 17.0002C99.2158 11.9663 94.5564 7.68027 88.9415 5.23452C86.2992 4.08289 83.6098 3.22806 80.7787 2.71754C77.8298 2.18328 74.8336 1.87459 71.8374 1.68463C65.6681 1.28096 59.5107 1.10288 53.3414 1.75587C50.0385 2.11204 46.7357 2.61069 43.4564 3.15683C40.2125 3.69109 36.9568 4.23723 33.7365 4.92584C29.9501 5.74504 26.1871 6.74234 22.6602 8.38075C21.0559 9.12872 19.5932 10.1616 18.2013 11.242C14.4266 14.1508 10.935 17.6651 8.9179 22.0579C7.51418 25.0973 6.75924 28.2554 6.74744 31.6272C6.73565 35.3196 7.52598 38.9763 8.25732 42.5737C8.58761 44.1765 8.8943 45.7793 9.11843 47.4058C9.07124 47.0497 9.02406 46.6935 8.97688 46.3373C9.43692 49.8397 9.37794 53.3777 9.34255 56.9039C9.30716 60.4894 9.27177 64.0868 9.23639 67.6723C9.16561 74.7246 9.10663 81.7887 8.98867 88.841C8.87071 95.9646 8.67018 103.076 8.28092 110.188C8.09218 113.702 7.84447 117.205 7.53777 120.707C7.23108 124.221 6.91259 127.89 8.02141 131.309C9.31896 135.275 12.2443 138.801 16.4555 139.703C20.6077 140.593 24.6773 139.252 28.7705 138.682C28.4166 138.73 28.0627 138.777 27.7088 138.824C33.9017 137.993 40.1653 138.243 46.3818 138.623C52.6926 139.003 58.9681 139.406 65.2907 139.181C71.7667 138.943 78.2426 138.551 84.7186 138.219C87.8799 138.053 91.0884 138.017 94.2379 137.697C96.255 137.495 98.0952 137.115 99.9118 136.165C101.174 135.512 102.354 134.55 103.297 133.482C107.39 128.828 108.511 122.108 107.709 116.1C107.756 116.457 107.803 116.813 107.85 117.169C106.871 109.808 106.376 102.376 105.892 94.9673C105.22 84.5076 104.76 74.0241 104.901 63.5406C104.972 58.566 105.149 53.5796 105.798 48.6406C105.751 48.9968 105.704 49.3529 105.656 49.7091C105.763 48.9018 105.892 48.0826 106.034 47.2871C106.234 46.2067 106.199 45.1738 105.633 44.2002C105.149 43.3692 104.205 42.5737 103.25 42.36C101.304 41.9088 98.7558 42.9536 98.3547 45.1619Z" fill="#E3955D"/>
<path d="M106.329 91.1442C108.181 92.3077 108.546 94.6466 108.688 95.5846C109.407 100.203 106.081 101.568 105.739 106.044C105.338 111.482 110.068 112.171 109.348 117.406C108.841 121.134 105.916 124.601 102.955 126.441C101.54 127.32 101.469 126.976 100.053 127.866C97.0099 129.766 96.0898 134.242 93.0347 136.117C89.3543 138.361 84.7775 135.785 81.2033 133.304C77.6174 130.822 72.958 128.329 69.372 130.715C67.6498 131.855 66.6472 133.885 65.1609 135.369C61.6221 138.919 55.1815 138.421 52.1028 134.348C50.5811 132.354 49.3543 129.409 46.9479 129.35C45.7212 129.326 44.8483 129.861 43.3502 130.822C38.1482 134.17 35.5531 135.856 33.5359 136.129C29.7848 136.64 25.2552 133.66 23.4504 130.086C20.6194 124.459 25.3614 119.009 22.5185 116.635C20.3127 114.794 16.9037 117.596 11.7135 115.352C10.6754 114.901 8.45779 113.951 7.28999 111.874C5.49701 108.716 7.8326 106.021 8.24546 101.746C9.07118 93.2813 1.12071 91.441 2.09978 84.1157C2.9137 78.0013 8.75268 77.0159 8.63473 71.1627C8.54036 66.4018 4.83643 66.2356 3.30296 61.2491C0.613488 52.4753 11.6899 44.6157 10.2036 35.5688C9.76714 32.9094 8.26905 30.5586 7.67925 27.9348C7.08946 25.3109 7.90338 21.9154 10.3687 21.2742C12.1617 20.8112 14.167 22.0103 15.8656 21.2624C18.3664 20.1582 17.9299 16.3946 18.2602 13.5452C19.0269 6.93221 26.0809 3.02614 32.3917 3.2161C38.7026 3.40606 44.6005 6.42169 50.6636 8.35691C51.8197 8.72496 53.0346 9.05739 54.226 8.86743C55.7241 8.62998 56.9863 7.60894 58.2248 6.69476C60.6194 4.93762 63.3679 3.45355 66.2933 3.52478C69.2187 3.59602 72.2856 5.66184 72.7574 8.72496C73.0523 10.6008 72.8164 13.2721 74.574 13.6877C75.907 13.9964 76.8978 12.5004 77.6881 11.3251C81.3449 5.83993 89.1892 4.11841 94.6861 7.59707C99.1921 10.4465 101.634 15.8604 103.274 21.1437C104.17 24.0524 104.913 27.1749 104.229 30.1312C103.604 32.8381 101.858 35.0583 100.749 37.5753C99.6404 40.0922 99.3101 43.4403 101.197 45.3993C103.108 47.382 106.258 46.9665 108.641 48.2368C111.719 49.8634 112.923 54.1137 112.168 57.6518C111.849 59.1239 110.174 61.6409 106.753 66.6868C105.043 69.1919 104.394 70.0229 104.536 71.3171C104.783 73.6322 107.202 73.7034 108.7 76.8853C108.853 77.2058 110.41 80.6489 108.9 83.9138C108.31 85.1961 107.402 86.0865 106.801 86.692C104.606 88.8647 102.46 89.3871 102.601 90.0282C102.719 90.61 104.665 90.0994 106.329 91.1442Z" fill="#F5E7C5"/>
<g opacity="0.9">
<path d="M105.904 39.0831L75.0694 8.25013C74.3853 7.56152 74.4206 6.43363 75.152 5.79251C84.3882 -2.25708 98.331 -1.92465 107.095 6.8373C115.86 15.5992 116.284 29.6445 108.346 38.9882C107.721 39.7243 106.588 39.7718 105.904 39.0831Z" fill="#F0B61B"/>
<path d="M104.996 38.1689L75.9894 9.17613C75.4704 8.65374 75.494 7.79892 76.0484 7.31214C84.6005 -0.357526 97.694 -0.120075 105.892 8.07199C114.09 16.2759 114.409 29.4426 106.848 38.1095C106.352 38.6557 105.515 38.6913 104.996 38.1689Z" fill="#F2F2F2"/>
<g opacity="0.8">
<path d="M104.335 37.5159L76.6383 9.82908C76.3198 9.50852 76.3198 8.97426 76.6619 8.6537C80.6017 4.97321 85.6268 3.13296 90.6519 3.14483C95.7949 3.15671 100.938 5.12755 104.866 9.04549C104.878 9.05736 104.878 9.05736 104.89 9.06924C108.818 12.9991 110.811 18.1517 110.87 23.3282C110.929 28.3859 109.136 33.4792 105.491 37.4803C105.184 37.8246 104.665 37.8364 104.335 37.5159Z" fill="#F1CB15"/>
</g>
<path d="M110.868 22.6138L90.3547 22.812L90.3686 24.2605L110.882 24.0623L110.868 22.6138Z" fill="white"/>
<path d="M89.9281 3.14358L89.877 23.7781L91.3161 23.7816L91.3672 3.14715L89.9281 3.14358Z" fill="white"/>
<path d="M90.9351 24.112L89.9088 23.091L90.0857 22.9129L104.359 8.54712L105.385 9.56816L90.9351 24.112Z" fill="white"/>
<path d="M76.5696 8.73565L75.5554 9.76318L104.417 38.6236L105.431 37.5961L76.5696 8.73565Z" fill="white"/>
</g>
<path d="M87.8327 51.6917C88.3753 51.573 89.2954 51.3356 90.3452 50.825C97.7059 47.2395 101.563 35.0583 97.4818 27.911C96.4909 26.1776 95.2406 25.1566 93.7661 24.0049C87.2075 18.8522 79.9412 14.685 72.0615 12.6548C58.6024 9.17612 44.7775 13.1178 33.2175 23.0314C26.8831 28.469 21.4688 35.4263 17.5761 43.3216C16.6796 45.15 15.8303 47.3226 16.4791 49.1629C17.2694 51.4068 19.9825 51.9054 22.0114 50.9081C24.0521 49.9227 25.5855 47.8925 27.1308 46.0523C27.1308 46.0523 31.6251 39.463 40.6372 34.6546C47.9624 30.7485 54.9102 31.9239 56.7504 32.2682C59.9117 32.85 64.7598 34.4765 71.5425 40.5909C78.278 46.6696 79.5991 50.5995 84.9073 51.5255C86.1223 51.7511 87.1485 51.7392 87.8327 51.6917Z" fill="#F2A67A"/>
<path d="M46.7004 20.3126C46.6296 20.4313 46.5588 20.5381 46.4998 20.6569C45.0843 23.2332 44.4827 24.5748 44.1288 25.7265C43.7042 27.1037 43.5744 28.1722 43.5155 29.0508C43.4093 30.7248 43.5862 31.6983 42.5836 32.7669C41.6989 33.7167 41.286 33.2418 38.3017 35.0345C36.1784 36.3168 35.9307 36.8273 35.2937 36.6848C34.5388 36.5186 34.0315 35.6163 33.6894 34.4647C33.0643 32.3395 33.0171 29.4069 33.0053 28.9677C33.0053 28.564 33.0053 28.1959 33.0289 27.8516C33.1704 25.2278 33.9136 24.0524 34.1259 23.72C34.7629 22.7464 35.7301 22.0578 36.6856 21.4048C40.071 19.0541 44.7894 15.433 49.1657 15.8247C48.9652 17.2376 47.5379 18.9354 46.7004 20.3126Z" fill="#D75327"/>
<path d="M32.5097 39.6055C32.4271 39.7124 32.4861 39.6055 31.4009 40.5197C30.5515 41.232 30.1269 41.5882 29.6904 42.0275C28.617 43.1198 28.735 43.3928 28.3339 43.5116C27.6733 43.7015 26.8594 43.096 26.1281 42.2887C25.5265 41.612 24.9839 40.8046 24.6536 40.2229C24.571 40.0685 23.7689 38.632 23.5684 36.8986C23.5094 36.3762 23.4976 35.8182 23.5919 35.2601C23.6037 35.2127 23.6155 35.1295 23.6391 35.0227C23.875 33.8354 24.4884 33.1587 25.5147 31.9002C26.4702 30.7367 27.5554 29.7038 28.4991 28.5165C28.5934 28.4097 28.8293 28.0891 29.2422 27.9467C29.4899 27.8517 29.7258 27.8517 29.8674 27.8635C29.9853 28.3978 30.1623 29.1695 30.3628 30.1075C30.3864 30.2262 30.41 30.3449 30.4336 30.4755C30.7639 32.0783 30.7993 32.4345 30.9408 33.135C31.1767 34.2866 31.4952 35.2245 31.7901 35.9962C32.4861 37.8246 33.0759 38.7982 32.5097 39.6055Z" fill="#D75327"/>
<path d="M26.0928 46.539C25.2081 47.5719 24.2408 48.5929 23.0494 49.2103C22.9079 49.2815 22.7545 49.3528 22.613 49.4121C21.2093 49.9939 19.4163 49.8751 18.3901 48.7473C17.6941 47.9755 17.4582 46.8595 17.5643 45.8266C17.6705 44.7937 18.0716 43.8083 18.508 42.8585C18.6378 42.5854 18.7675 42.3242 18.8973 42.063C19.1214 41.6237 19.3573 41.1844 19.6168 40.757C19.9707 40.1634 20.4779 39.1186 21.0677 38.7387C21.3862 38.5369 21.5632 38.6675 21.6929 38.9405C21.8463 39.273 21.9052 39.7953 22.0114 40.104C22.2591 40.852 22.554 41.5762 22.9315 42.2648C23.4033 43.1197 24.0285 43.9151 24.7952 44.4969C25.1137 44.7343 25.4558 44.9362 25.8097 45.0905C26.0338 45.1855 26.2933 45.2805 26.4113 45.4823C26.4231 45.4942 26.4349 45.5179 26.4349 45.5298C26.6 45.8741 26.3405 46.254 26.0928 46.539Z" fill="#D75327"/>
<path d="M67.2607 13.7825C66.2462 15.1835 64.9959 16.4539 63.7455 17.7361C62.6838 18.8402 61.634 19.9444 60.7257 21.1673C59.3102 23.1025 58.0244 25.1446 56.9038 27.2579C56.5735 27.8871 56.2433 28.5282 55.9484 29.1812C55.6535 29.7986 55.335 30.4753 54.7216 30.7722C54.4031 30.9265 54.0492 30.9621 53.6953 30.9977C50.711 31.2827 47.7266 31.5557 44.7304 31.8407C44.6125 30.7128 44.754 29.6086 45.0607 28.5164C45.45 27.1273 46.0752 25.7857 46.7003 24.4916C47.5025 22.8294 48.3164 21.1791 49.1303 19.517C49.4252 18.9115 49.7201 18.3178 50.015 17.7123C50.6284 16.4657 51.3126 15.4803 52.1855 14.7442C53.0584 14.02 54.12 13.5451 55.5119 13.3195C58.9209 12.7615 64.0994 12.2272 67.2607 13.7825Z" fill="#D75327"/>
<path d="M86.7948 21.3217C86.3937 21.7135 85.9219 21.9985 85.4382 22.2953C85.0254 22.5565 84.6007 22.8058 84.1643 23.0314C83.6806 23.2688 83.197 23.4944 82.7252 23.7437C82.4421 23.8862 82.159 24.0405 81.8759 24.1949C81.6635 24.3136 81.4394 24.4323 81.2271 24.5511C80.2598 25.0853 79.3161 25.6552 78.4079 26.2726C76.5087 27.5548 74.7275 29.0508 73.1705 30.7604C72.8873 31.0691 72.5099 31.6627 72.0852 32.3513C70.9882 34.1085 69.5255 36.4711 68.2987 36.1862C67.4376 35.9843 66.258 34.7615 65.4795 34.2984C63.4388 33.0756 60.8201 32.6838 58.9328 31.3184C57.6706 30.4042 57.9537 30.5467 58.8266 29.0389C59.1097 28.564 59.3928 28.0891 59.6877 27.6261C59.8646 27.3411 60.0534 27.0562 60.2303 26.7831C61.0442 25.584 61.8817 24.3967 62.7193 23.2213C63.545 22.046 64.3943 20.8943 65.338 19.8258C65.8334 19.2678 66.3524 18.7335 66.895 18.2349C66.9186 18.2111 66.954 18.1874 66.9894 18.1636C67.7325 17.5344 68.5346 16.9526 69.3958 16.4896C70.7405 15.8485 72.1088 15.2311 73.5243 15.1836C74.1023 15.1718 74.6803 15.243 75.2701 15.4567C78.8207 16.6914 84.5535 18.0805 86.7948 21.3217Z" fill="#D75327"/>
<path d="M89.8145 47.5838C88.2692 48.5455 86.665 48.7711 86.665 48.7711C86.665 48.7711 86.4408 48.8067 86.0634 48.8186C85.5443 48.8423 84.754 48.8304 83.8457 48.6523C83.539 48.593 83.2205 48.5217 82.902 48.4149C78.7735 47.1327 75.4942 42.9416 72.5688 40.0566C71.7549 39.2612 71.0471 38.8337 70.9292 38.1926C70.8702 37.8602 70.9646 37.4803 71.2831 36.946C71.519 36.5542 71.7667 36.1743 72.0262 35.8062C72.2385 35.4976 72.4626 35.2007 72.675 34.8921C72.5924 35.0108 72.5216 35.1176 72.4391 35.2364C72.8637 34.6309 73.312 34.0491 73.7838 33.4792C74.3618 32.7906 74.9752 32.1376 75.624 31.5321C75.9071 31.2591 76.2138 30.9979 76.5086 30.7367C78.2662 29.2882 80.2244 28.0653 82.2651 27.0087C82.8077 26.7237 83.3503 26.4507 83.9047 26.1895C84.1052 26.0945 84.3058 26.0114 84.5063 25.9164C84.6832 25.8333 84.872 25.7502 85.0489 25.6552C87.3019 24.5273 88.8 22.8177 91.3008 24.5036C92.7399 25.4771 94.1672 26.51 95.1462 27.8991C96.5617 29.9175 96.9746 32.3038 96.7623 34.714C96.2668 40.2822 92.4096 45.9691 89.8145 47.5838Z" fill="#D75327"/>
<g opacity="0.5">
<path d="M21.6811 38.9405C20.643 40.0684 19.7229 41.1132 18.8854 42.0749C19.1096 41.6356 19.3455 41.1963 19.605 40.7689C19.9589 40.1753 20.4661 39.1305 21.0559 38.7506C21.3626 38.5369 21.5513 38.6675 21.6811 38.9405Z" fill="#F07522"/>
</g>
<g opacity="0.5">
<path d="M29.8675 27.8755C29.9854 28.4098 30.1624 29.1815 30.3629 30.1194C27.8975 32.3396 25.6091 34.726 23.5802 36.8868C23.5213 36.3644 23.5095 35.8064 23.6038 35.2484C23.6156 35.2009 23.6274 35.1178 23.651 35.0109C23.8869 33.8237 24.5003 33.1469 25.5266 31.8884C26.482 30.7249 27.5673 29.692 28.5109 28.5048C28.6053 28.3979 28.8412 28.0773 29.2541 27.9349C29.5018 27.8636 29.7259 27.8636 29.8675 27.8755Z" fill="#F07522"/>
</g>
<g opacity="0.5">
<path d="M49.1656 15.8128C48.9651 17.2375 47.526 18.9353 46.6885 20.3125C42.5363 21.7847 38.396 23.8742 34.6684 26.5931C34.114 26.9967 33.5714 27.4123 33.0288 27.8516C33.1704 25.2277 33.9135 24.0523 34.1258 23.7199C34.7628 22.7464 35.7301 22.0577 36.6855 21.4048C40.0828 19.0421 44.8012 15.421 49.1656 15.8128Z" fill="#F07522"/>
</g>
<g opacity="0.5">
<path d="M67.2606 13.7825C66.2462 15.1835 64.9958 16.4539 63.7454 17.7361C62.5776 17.6411 61.3744 17.6174 60.1359 17.653C56.7504 17.7598 52.9757 18.3772 49.142 19.517C49.4369 18.9115 49.7318 18.3178 50.0267 17.7123C50.6401 16.4657 51.3243 15.4803 52.1972 14.7442C53.0701 14.02 54.1317 13.5451 55.5236 13.3195C58.9209 12.7615 64.0993 12.2272 67.2606 13.7825Z" fill="#F07522"/>
</g>
<g opacity="0.5">
<path d="M85.4381 22.2952C85.0252 22.5564 84.6006 22.8057 84.1641 23.0313C83.6805 23.2687 83.1969 23.4943 82.725 23.7436C82.4419 23.8861 82.1588 24.0405 81.8757 24.1948C77.5938 21.5116 72.6749 19.1608 66.9893 18.1517C67.7324 17.5224 68.5345 16.9407 69.3956 16.4776C70.7404 15.8365 72.1087 15.2192 73.5242 15.1717C74.1022 15.1598 74.6802 15.231 75.27 15.4447C78.797 16.6913 84.5298 18.0804 86.771 21.3216C86.3936 21.7134 85.9217 21.9984 85.4381 22.2952Z" fill="#F07522"/>
</g>
<g opacity="0.5">
<path d="M96.7622 34.7139C93.4593 32.8974 89.4487 29.3237 84.5062 25.9044C84.6832 25.8213 84.8719 25.7382 85.0488 25.6432C87.3019 24.5154 88.7999 22.8057 91.3007 24.4916C92.7398 25.4652 94.1671 26.4981 95.1462 27.8872C96.5617 29.9174 96.9745 32.3037 96.7622 34.7139Z" fill="#F07522"/>
</g>
<g opacity="0.3">
<path d="M26.4349 45.5297C26.6 45.874 26.3405 46.254 26.0928 46.5508C25.2081 47.5837 24.2408 48.6047 23.0494 49.2221C23.3207 47.7143 23.9223 46.1115 24.7834 44.4968C25.1019 44.7343 25.444 44.9361 25.7979 45.0905C26.022 45.1854 26.2815 45.2804 26.3995 45.4823C26.4113 45.4941 26.4231 45.506 26.4349 45.5297Z" fill="#D75327"/>
</g>
<g opacity="0.3">
<path d="M31.7902 36.0081C32.4744 37.8246 33.076 38.81 32.5098 39.6054C32.4272 39.7123 32.4862 39.6054 31.401 40.5196C30.5517 41.232 30.127 41.5882 29.6906 42.0274C28.6171 43.1197 28.7351 43.3928 28.334 43.5115C27.6735 43.7015 26.8595 43.096 26.1282 42.2886C27.6145 40.116 29.5372 37.967 31.7902 36.0081Z" fill="#D75327"/>
</g>
<g opacity="0.3">
<path d="M43.5036 29.0508C43.3974 30.7248 43.5743 31.6984 42.5717 32.7669C41.687 33.7167 41.2741 33.2418 38.2898 35.0345C36.1665 36.3168 35.9188 36.8273 35.2818 36.6848C34.5269 36.5186 34.0196 35.6163 33.6775 34.4647C36.6029 32.2445 39.9412 30.3449 43.5036 29.0508Z" fill="#D75327"/>
</g>
<g opacity="0.3">
<path d="M48.3046 27.7091C51.1592 27.151 54.061 27.0204 56.9156 27.2698C56.5853 27.899 56.255 28.5401 55.9601 29.1931C55.6652 29.8105 55.3467 30.4872 54.7334 30.784C54.4149 30.9384 54.061 30.974 53.7071 31.0096C50.7227 31.2946 47.7384 31.5676 44.7422 31.8526C44.6242 30.7247 44.7658 29.6205 45.0725 28.5283C46.1341 28.1958 47.2193 27.9228 48.3046 27.7091Z" fill="#D75327"/>
</g>
<g opacity="0.3">
<path d="M72.097 32.3393C71 34.0964 69.5373 36.4591 68.3105 36.1741C67.4494 35.9723 66.2698 34.7494 65.4913 34.2864C63.4506 33.0635 60.8319 32.6717 58.9445 31.3064C57.6824 30.3922 57.9655 30.5347 58.8384 29.0268C59.1215 28.5519 59.4046 28.077 59.6995 27.614C64.1701 28.3739 68.4285 30.0241 72.097 32.3393Z" fill="#D75327"/>
</g>
<g opacity="0.3">
<path d="M86.0633 48.8186C85.2848 48.8305 84.176 48.7592 82.902 48.4149C78.7734 47.1327 75.4942 42.9417 72.5688 40.0566C71.7548 39.2612 71.0471 38.8338 70.9291 38.1927C70.9999 37.5634 71.283 36.946 71.283 36.946C71.3892 36.7086 71.6015 36.3999 72.0261 35.8063C72.2385 35.4976 72.4626 35.2008 72.6749 34.8921C72.5924 35.0108 72.5216 35.1177 72.439 35.2364C72.8637 34.6309 73.3119 34.0491 73.7837 33.4792C76.0486 35.367 77.8062 37.1122 79.0919 38.5013C80.6844 40.211 82.1235 41.7663 83.6216 44.1289C84.7894 45.9692 85.5679 47.6313 86.0633 48.8186Z" fill="#D75327"/>
</g>
<path d="M87.8327 76.3988C88.3753 76.28 89.2954 76.0426 90.3452 75.5321C97.7059 71.9466 101.563 59.7653 97.4818 52.618C96.4909 50.8846 95.2406 49.8636 93.7661 48.712C87.2075 43.5593 79.9412 39.392 72.0615 37.3618C58.6024 33.8831 44.7775 37.8248 33.2175 47.7384C26.8831 53.176 21.4688 60.1334 17.5761 68.0286C16.6796 69.857 15.8303 72.0297 16.4791 73.8699C17.2694 76.1138 19.9825 76.6125 22.0114 75.6152C24.0521 74.6297 25.5855 72.5995 27.1308 70.7593C27.1308 70.7593 31.6251 64.17 40.6372 59.3616C47.9624 55.4556 54.9102 56.631 56.7504 56.9753C59.9117 57.557 64.7598 59.1836 71.5425 65.2979C78.278 71.3767 79.5991 75.3065 84.9073 76.2325C86.1223 76.4581 87.1485 76.4462 87.8327 76.3988Z" fill="#F2A67A"/>
<path d="M46.7004 45.0196C46.6296 45.1383 46.5588 45.2452 46.4998 45.3639C45.0843 47.9403 44.4827 49.2818 44.1288 50.4335C43.7042 51.8107 43.5744 52.8792 43.5155 53.7578C43.4093 55.4318 43.5862 56.4054 42.5836 57.4739C41.6989 58.4237 41.286 57.9488 38.3017 59.7416C36.1784 61.0238 35.9307 61.5343 35.2937 61.3918C34.5388 61.2256 34.0315 60.3233 33.6894 59.1717C33.0643 57.0465 33.0171 54.114 33.0053 53.6747C33.0053 53.271 33.0053 52.903 33.0289 52.5587C33.1704 49.9348 33.9136 48.7595 34.1259 48.427C34.7629 47.4535 35.7301 46.7649 36.6856 46.1119C40.071 43.7611 44.7894 40.14 49.1657 40.5318C48.9652 41.9446 47.5379 43.6424 46.7004 45.0196Z" fill="#D75327"/>
<path d="M32.5097 64.3125C32.4271 64.4194 32.4861 64.3125 31.4009 65.2267C30.5515 65.9391 30.1269 66.2952 29.6904 66.7345C28.617 67.8268 28.735 68.0999 28.3339 68.2186C27.6733 68.4086 26.8594 67.8031 26.1281 66.9957C25.5265 66.319 24.9839 65.5117 24.6536 64.9299C24.571 64.7756 23.7689 63.339 23.5684 61.6056C23.5094 61.0832 23.4976 60.5252 23.5919 59.9672C23.6037 59.9197 23.6155 59.8366 23.6391 59.7297C23.875 58.5425 24.4884 57.8657 25.5147 56.6072C26.4702 55.4437 27.5554 54.4108 28.4991 53.2236C28.5934 53.1167 28.8293 52.7962 29.2422 52.6537C29.4899 52.5587 29.7258 52.5587 29.8674 52.5706C29.9853 53.1048 30.1623 53.8766 30.3628 54.8145C30.3864 54.9332 30.41 55.0519 30.4336 55.1825C30.7639 56.7853 30.7993 57.1415 30.9408 57.842C31.1767 58.9936 31.4952 59.9316 31.7901 60.7033C32.4861 62.5316 33.0759 63.5052 32.5097 64.3125Z" fill="#D75327"/>
<path d="M26.0928 71.246C25.2081 72.2789 24.2408 73.2999 23.0494 73.9173C22.9079 73.9885 22.7545 74.0598 22.613 74.1191C21.2093 74.7009 19.4163 74.5822 18.3901 73.4543C17.6941 72.6826 17.4582 71.5665 17.5643 70.5336C17.6705 69.5007 18.0716 68.5153 18.508 67.5655C18.6378 67.2924 18.7675 67.0312 18.8973 66.77C19.1214 66.3308 19.3573 65.8915 19.6168 65.4641C19.9707 64.8704 20.4779 63.8256 21.0677 63.4457C21.3862 63.2439 21.5632 63.3745 21.6929 63.6475C21.8463 63.98 21.9052 64.5024 22.0114 64.8111C22.2591 65.559 22.554 66.2833 22.9315 66.9719C23.4033 67.8267 24.0285 68.6222 24.7952 69.2039C25.1137 69.4414 25.4558 69.6432 25.8097 69.7975C26.0338 69.8925 26.2933 69.9875 26.4113 70.1893C26.4231 70.2012 26.4349 70.2249 26.4349 70.2368C26.6 70.5811 26.3405 70.961 26.0928 71.246Z" fill="#D75327"/>
<path d="M67.2607 38.4895C66.2462 39.8904 64.9959 41.1608 63.7455 42.443C62.6838 43.5472 61.634 44.6513 60.7257 45.8742C59.3102 47.8094 58.0244 49.8515 56.9038 51.9648C56.5735 52.594 56.2433 53.2352 55.9484 53.8882C55.6535 54.5055 55.335 55.1823 54.7216 55.4791C54.4031 55.6334 54.0492 55.669 53.6953 55.7047C50.711 55.9896 47.7266 56.2627 44.7304 56.5476C44.6125 55.4197 44.754 54.3156 45.0607 53.2233C45.45 51.8342 46.0752 50.4926 46.7003 49.1985C47.5025 47.5363 48.3164 45.8861 49.1303 44.2239C49.4252 43.6184 49.7201 43.0248 50.015 42.4193C50.6284 41.1727 51.3126 40.1872 52.1855 39.4511C53.0584 38.7269 54.12 38.252 55.5119 38.0264C58.9209 37.4684 64.0994 36.9223 67.2607 38.4895Z" fill="#D75327"/>
<path d="M86.7948 46.0288C86.3937 46.4206 85.9219 46.7055 85.4382 47.0023C85.0254 47.2635 84.6007 47.5128 84.1643 47.7384C83.6806 47.9759 83.197 48.2014 82.7252 48.4508C82.4421 48.5932 82.159 48.7476 81.8759 48.9019C81.6635 49.0206 81.4394 49.1394 81.2271 49.2581C80.2598 49.7924 79.3161 50.3622 78.4079 50.9796C76.5087 52.2619 74.7275 53.7578 73.1705 55.4674C72.8873 55.7761 72.5099 56.3698 72.0852 57.0584C70.9882 58.8155 69.5255 61.1781 68.2987 60.8932C67.4376 60.6914 66.258 59.4685 65.4795 59.0055C63.4388 57.7826 60.8201 57.3908 58.9328 56.0255C57.6706 55.1113 57.9537 55.2537 58.8266 53.7459C59.1097 53.271 59.3928 52.7961 59.6877 52.3331C59.8646 52.0481 60.0534 51.7632 60.2303 51.4901C61.0442 50.291 61.8817 49.1038 62.7193 47.9284C63.545 46.753 64.3943 45.6014 65.338 44.5328C65.8334 43.9748 66.3524 43.4406 66.895 42.9419C66.9186 42.9182 66.954 42.8944 66.9894 42.8707C67.7325 42.2414 68.5346 41.6597 69.3958 41.1966C70.7405 40.5555 72.1088 39.9381 73.5243 39.8907C74.1023 39.8788 74.6803 39.95 75.2701 40.1637C78.8207 41.3985 84.5535 42.7876 86.7948 46.0288Z" fill="#D75327"/>
<path d="M89.8145 72.2906C88.2692 73.2523 86.665 73.4779 86.665 73.4779C86.665 73.4779 86.4408 73.5135 86.0634 73.5253C85.5443 73.5491 84.754 73.5372 83.8457 73.3591C83.539 73.2998 83.2205 73.2285 82.902 73.1217C78.7735 71.8394 75.4942 67.6484 72.5688 64.7634C71.7549 63.9679 71.0471 63.5405 70.9292 62.8994C70.8702 62.567 70.9646 62.1871 71.2831 61.6528C71.519 61.261 71.7667 60.8811 72.0262 60.513C72.2385 60.2043 72.4626 59.9075 72.675 59.5988C72.5924 59.7176 72.5216 59.8244 72.4391 59.9431C72.8637 59.3376 73.312 58.7559 73.7838 58.186C74.3618 57.4974 74.9752 56.8444 75.624 56.2389C75.9071 55.9658 76.2138 55.7046 76.5086 55.4434C78.2662 53.995 80.2244 52.7721 82.2651 51.7155C82.8077 51.4305 83.3503 51.1575 83.9047 50.8963C84.1052 50.8013 84.3058 50.7182 84.5063 50.6232C84.6832 50.5401 84.872 50.457 85.0489 50.362C87.3019 49.2341 88.8 47.5245 91.3008 49.2104C92.7399 50.1839 94.1672 51.2168 95.1462 52.6059C96.5617 54.6242 96.9746 57.0106 96.7623 59.4208C96.2668 64.989 92.4096 70.6759 89.8145 72.2906Z" fill="#D75327"/>
<g opacity="0.5">
<path d="M21.6811 63.6476C20.643 64.7755 19.7229 65.8202 18.8854 66.7819C19.1096 66.3426 19.3455 65.9034 19.605 65.4759C19.9589 64.8823 20.4661 63.8375 21.0559 63.4576C21.3626 63.2439 21.5513 63.3745 21.6811 63.6476Z" fill="#F07522"/>
</g>
<g opacity="0.5">
<path d="M29.8675 52.5825C29.9854 53.1168 30.1624 53.8885 30.3629 54.8265C27.8975 57.0466 25.6091 59.433 23.5802 61.5938C23.5213 61.0714 23.5095 60.5134 23.6038 59.9554C23.6156 59.9079 23.6274 59.8248 23.651 59.718C23.8869 58.5307 24.5003 57.854 25.5266 56.5955C26.482 55.432 27.5673 54.399 28.5109 53.2118C28.6053 53.1049 28.8412 52.7844 29.2541 52.6419C29.5018 52.5707 29.7259 52.5707 29.8675 52.5825Z" fill="#F07522"/>
</g>
<g opacity="0.5">
<path d="M49.1656 40.5198C48.9651 41.9445 47.526 43.6423 46.6885 45.0195C42.5363 46.4917 38.396 48.5813 34.6684 51.3001C34.114 51.7038 33.5714 52.1193 33.0288 52.5586C33.1704 49.9347 33.9135 48.7594 34.1258 48.4269C34.7628 47.4534 35.7301 46.7648 36.6855 46.1118C40.0828 43.7491 44.8012 40.128 49.1656 40.5198Z" fill="#F07522"/>
</g>
<g opacity="0.5">
<path d="M67.2606 38.4895C66.2462 39.8904 64.9958 41.1608 63.7454 42.443C62.5776 42.348 61.3744 42.3243 60.1359 42.3599C56.7504 42.4668 52.9757 43.0841 49.142 44.2239C49.4369 43.6184 49.7318 43.0248 50.0267 42.4193C50.6401 41.1727 51.3243 40.1872 52.1972 39.4511C53.0701 38.7269 54.1317 38.252 55.5236 38.0264C58.9209 37.4684 64.0993 36.9223 67.2606 38.4895Z" fill="#F07522"/>
</g>
<g opacity="0.5">
<path d="M85.4381 47.0022C85.0252 47.2634 84.6006 47.5127 84.1641 47.7383C83.6805 47.9758 83.1969 48.2014 82.725 48.4507C82.4419 48.5931 82.1588 48.7475 81.8757 48.9018C77.5938 46.2186 72.6749 43.8679 66.9893 42.8587C67.7324 42.2295 68.5345 41.6477 69.3956 41.1847C70.7404 40.5436 72.1087 39.9262 73.5242 39.8787C74.1022 39.8668 74.6802 39.9381 75.27 40.1518C78.797 41.3984 84.5298 42.7875 86.771 46.0287C86.3936 46.4205 85.9217 46.7054 85.4381 47.0022Z" fill="#F07522"/>
</g>
<g opacity="0.5">
<path d="M96.7622 59.4209C93.4593 57.6044 89.4487 54.0308 84.5062 50.6115C84.6832 50.5284 84.8719 50.4453 85.0488 50.3503C87.3019 49.2224 88.7999 47.5127 91.3007 49.1986C92.7398 50.1722 94.1671 51.2051 95.1462 52.5942C96.5617 54.6244 96.9745 57.0108 96.7622 59.4209Z" fill="#F07522"/>
</g>
<g opacity="0.3">
<path d="M26.4349 70.2368C26.6 70.5811 26.3405 70.961 26.0928 71.2578C25.2081 72.2907 24.2408 73.3118 23.0494 73.9291C23.3207 72.4213 23.9223 70.8185 24.7834 69.2039C25.1019 69.4413 25.444 69.6431 25.7979 69.7975C26.022 69.8925 26.2815 69.9874 26.3995 70.1893C26.4113 70.2012 26.4231 70.213 26.4349 70.2368Z" fill="#D75327"/>
</g>
<g opacity="0.3">
<path d="M31.7902 60.7151C32.4744 62.5316 33.076 63.517 32.5098 64.3125C32.4272 64.4193 32.4862 64.3125 31.401 65.2267C30.5517 65.939 30.127 66.2952 29.6906 66.7345C28.6171 67.8267 28.7351 68.0998 28.334 68.2185C27.6735 68.4085 26.8595 67.803 26.1282 66.9957C27.6145 64.823 29.5372 62.6741 31.7902 60.7151Z" fill="#D75327"/>
</g>
<g opacity="0.3">
<path d="M43.5036 53.7458C43.3974 55.4199 43.5743 56.3934 42.5717 57.462C41.687 58.4118 41.2741 57.9369 38.2898 59.7296C36.1665 61.0119 35.9188 61.5224 35.2818 61.3799C34.5269 61.2137 34.0196 60.3114 33.6775 59.1597C36.6029 56.9514 39.9412 55.0518 43.5036 53.7458Z" fill="#D75327"/>
</g>
<g opacity="0.3">
<path d="M48.3046 52.4161C51.1592 51.8581 54.061 51.7275 56.9156 51.9768C56.5853 52.606 56.255 53.2472 55.9601 53.9002C55.6652 54.5175 55.3467 55.1943 54.7334 55.4911C54.4149 55.6454 54.061 55.681 53.7071 55.7167C50.7227 56.0016 47.7384 56.2747 44.7422 56.5596C44.6242 55.4317 44.7658 54.3276 45.0725 53.2353C46.1341 52.9029 47.2193 52.6298 48.3046 52.4161Z" fill="#D75327"/>
</g>
<g opacity="0.3">
<path d="M72.097 57.0463C71 58.8035 69.5373 61.1661 68.3105 60.8812C67.4494 60.6793 66.2698 59.4564 65.4913 58.9934C63.4506 57.7705 60.8319 57.3787 58.9445 56.0134C57.6824 55.0992 57.9655 55.2417 58.8384 53.7339C59.1215 53.259 59.4046 52.7841 59.6995 52.321C64.1701 53.0809 68.4285 54.7312 72.097 57.0463Z" fill="#D75327"/>
</g>
<g opacity="0.3">
<path d="M86.0633 73.5256C85.2848 73.5375 84.176 73.4663 82.902 73.122C78.7734 71.8397 75.4942 67.6487 72.5688 64.7637C71.7548 63.9682 71.0471 63.5408 70.9291 62.8997C70.9999 62.2704 71.283 61.6531 71.283 61.6531C71.3892 61.4156 71.6015 61.1069 72.0261 60.5133C72.2385 60.2046 72.4626 59.9078 72.6749 59.5991C72.5924 59.7178 72.5216 59.8247 72.439 59.9434C72.8637 59.3379 73.3119 58.7562 73.7837 58.1863C76.0486 60.074 77.8062 61.8193 79.0919 63.2084C80.6844 64.918 82.1235 66.4733 83.6216 68.836C84.7894 70.6762 85.5679 72.3265 86.0633 73.5256Z" fill="#D75327"/>
</g>
<path d="M87.8327 99.7044C88.3753 99.5857 89.2954 99.3482 90.3452 98.8377C97.7059 95.2522 101.563 83.071 97.4818 75.9237C96.4909 74.1903 95.2406 73.1693 93.7661 72.0176C87.2075 66.8649 79.9412 62.6977 72.0615 60.6675C58.6024 57.1888 44.7775 61.1305 33.2175 71.0441C26.8831 76.4817 21.4688 83.439 17.5761 91.3343C16.6796 93.1626 15.8303 95.3353 16.4791 97.1756C17.2694 99.4195 19.9825 99.9181 22.0114 98.9208C24.0521 97.9354 25.5855 95.9052 27.1308 94.065C27.1308 94.065 31.6251 87.4757 40.6372 82.6673C47.9624 78.7612 54.9102 79.9366 56.7504 80.2809C59.9117 80.8627 64.7598 82.4892 71.5425 88.6036C78.278 94.6823 79.5991 98.6122 84.9073 99.5382C86.1223 99.7638 87.1485 99.7519 87.8327 99.7044Z" fill="#F2A67A"/>
<path d="M46.7004 68.3372C46.6296 68.456 46.5588 68.5628 46.4998 68.6815C45.0843 71.2579 44.4827 72.5995 44.1288 73.7511C43.7042 75.1283 43.5744 76.1969 43.5155 77.0754C43.4093 78.7495 43.5862 79.723 42.5836 80.7915C41.6989 81.7413 41.286 81.2664 38.3017 83.0592C36.1784 84.3414 35.9307 84.8519 35.2937 84.7095C34.5388 84.5433 34.0315 83.6409 33.6894 82.4893C33.0643 80.3641 33.0171 77.4316 33.0053 76.9923C33.0053 76.5887 33.0053 76.2206 33.0289 75.8763C33.1704 73.2525 33.9136 72.0771 34.1259 71.7447C34.7629 70.7711 35.7301 70.0825 36.6856 69.4295C40.071 67.0787 44.7894 63.4576 49.1657 63.8494C48.9652 65.2622 47.5379 66.9481 46.7004 68.3372Z" fill="#D75327"/>
<path d="M32.5097 87.6182C32.4271 87.7251 32.4861 87.6182 31.4009 88.5324C30.5515 89.2447 30.1269 89.6009 29.6904 90.0402C28.617 91.1325 28.735 91.4055 28.3339 91.5243C27.6733 91.7142 26.8594 91.1087 26.1281 90.3014C25.5265 89.6247 24.9839 88.8173 24.6536 88.2356C24.571 88.0812 23.7689 86.6447 23.5684 84.9113C23.5094 84.3889 23.4976 83.8309 23.5919 83.2728C23.6037 83.2254 23.6155 83.1422 23.6391 83.0354C23.875 81.8481 24.4884 81.1714 25.5147 79.9129C26.4702 78.7494 27.5554 77.7165 28.4991 76.5292C28.5934 76.4224 28.8293 76.1018 29.2422 75.9594C29.4899 75.8644 29.7258 75.8644 29.8674 75.8762C29.9853 76.4105 30.1623 77.1822 30.3628 78.1202C30.3864 78.2389 30.41 78.3576 30.4336 78.4882C30.7639 80.091 30.7993 80.4472 30.9408 81.1477C31.1767 82.2993 31.4952 83.2372 31.7901 84.0089C32.4861 85.8373 33.0759 86.8227 32.5097 87.6182Z" fill="#D75327"/>
<path d="M26.0928 94.5636C25.2081 95.5965 24.2408 96.6176 23.0494 97.2349C22.9079 97.3062 22.7545 97.3774 22.613 97.4368C21.2093 98.0185 19.4163 97.8998 18.3901 96.7719C17.6941 96.0002 17.4582 94.8842 17.5643 93.8513C17.6705 92.8183 18.0716 91.8329 18.508 90.8831C18.6378 90.6101 18.7675 90.3489 18.8973 90.0877C19.1214 89.6484 19.3573 89.2091 19.6168 88.7817C19.9707 88.1881 20.4779 87.1433 21.0677 86.7633C21.3862 86.5615 21.5632 86.6921 21.6929 86.9652C21.8463 87.2976 21.9052 87.82 22.0114 88.1287C22.2591 88.8767 22.554 89.6009 22.9315 90.2895C23.4033 91.1443 24.0285 91.9398 24.7952 92.5215C25.1137 92.759 25.4558 92.9608 25.8097 93.1152C26.0338 93.2101 26.2933 93.3051 26.4113 93.507C26.4231 93.5188 26.4349 93.5426 26.4349 93.5544C26.6 93.8869 26.3405 94.2668 26.0928 94.5636Z" fill="#D75327"/>
<path d="M67.2607 61.8073C66.2462 63.2083 64.9959 64.4787 63.7455 65.7609C62.6838 66.865 61.634 67.9692 60.7257 69.1921C59.3102 71.1273 58.0244 73.1694 56.9038 75.2827C56.5735 75.9119 56.2433 76.553 55.9484 77.206C55.6535 77.8234 55.335 78.5001 54.7216 78.797C54.4031 78.9513 54.0492 78.9869 53.6953 79.0225C50.711 79.3075 47.7266 79.5805 44.7304 79.8655C44.6125 78.7376 44.754 77.6334 45.0607 76.5412C45.45 75.1521 46.0752 73.8105 46.7003 72.5164C47.5025 70.8542 48.3164 69.2039 49.1303 67.5418C49.4252 66.9363 49.7201 66.3426 50.015 65.7371C50.6284 64.4905 51.3126 63.5051 52.1855 62.769C53.0584 62.0448 54.12 61.5699 55.5119 61.3443C58.9209 60.7863 64.0994 60.2401 67.2607 61.8073Z" fill="#D75327"/>
<path d="M86.7948 69.3344C86.3937 69.7262 85.9219 70.0112 85.4382 70.308C85.0254 70.5692 84.6007 70.8185 84.1643 71.0441C83.6806 71.2815 83.197 71.5071 82.7252 71.7564C82.4421 71.8989 82.159 72.0532 81.8759 72.2076C81.6635 72.3263 81.4394 72.445 81.2271 72.5638C80.2598 73.098 79.3161 73.6679 78.4079 74.2853C76.5087 75.5675 74.7275 77.0635 73.1705 78.7731C72.8873 79.0818 72.5099 79.6754 72.0852 80.364C70.9882 82.1212 69.5255 84.4838 68.2987 84.1989C67.4376 83.997 66.258 82.7742 65.4795 82.3111C63.4388 81.0883 60.8201 80.6965 58.9328 79.3311C57.6706 78.4169 57.9537 78.5594 58.8266 77.0516C59.1097 76.5767 59.3928 76.1018 59.6877 75.6388C59.8646 75.3538 60.0534 75.0689 60.2303 74.7958C61.0442 73.5967 61.8817 72.4094 62.7193 71.234C63.545 70.0587 64.3943 68.907 65.338 67.8385C65.8334 67.2805 66.3524 66.7462 66.895 66.2476C66.9186 66.2238 66.954 66.2001 66.9894 66.1763C67.7325 65.5471 68.5346 64.9653 69.3958 64.5023C70.7405 63.8612 72.1088 63.2438 73.5243 63.1963C74.1023 63.1844 74.6803 63.2557 75.2701 63.4694C78.8207 64.7041 84.5535 66.0932 86.7948 69.3344Z" fill="#D75327"/>
<path d="M89.8145 95.5965C88.2692 96.5582 86.665 96.7838 86.665 96.7838C86.665 96.7838 86.4408 96.8194 86.0634 96.8312C85.5443 96.855 84.754 96.8431 83.8457 96.665C83.539 96.6057 83.2205 96.5344 82.902 96.4276C78.7735 95.1454 75.4942 90.9543 72.5688 88.0693C71.7549 87.2738 71.0471 86.8464 70.9292 86.2053C70.8702 85.8729 70.9646 85.493 71.2831 84.9587C71.519 84.5669 71.7667 84.187 72.0262 83.8189C72.2385 83.5102 72.4626 83.2134 72.675 82.9047C72.5924 83.0235 72.5216 83.1303 72.4391 83.2491C72.8637 82.6436 73.312 82.0618 73.7838 81.4919C74.3618 80.8033 74.9752 80.1503 75.624 79.5448C75.9071 79.2717 76.2138 79.0106 76.5086 78.7494C78.2662 77.3009 80.2244 76.078 82.2651 75.0214C82.8077 74.7364 83.3503 74.4634 83.9047 74.2022C84.1052 74.1072 84.3058 74.0241 84.5063 73.9291C84.6832 73.846 84.872 73.7629 85.0489 73.6679C87.3019 72.54 88.8 70.8304 91.3008 72.5163C92.7399 73.4898 94.1672 74.5227 95.1462 75.9118C96.5617 77.9302 96.9746 80.3165 96.7623 82.7267C96.2668 88.2949 92.4096 93.9818 89.8145 95.5965Z" fill="#D75327"/>
<g opacity="0.5">
<path d="M21.6811 86.9532C20.643 88.0811 19.7229 89.1259 18.8854 90.0875C19.1096 89.6482 19.3455 89.209 19.605 88.7816C19.9589 88.1879 20.4661 87.1431 21.0559 86.7632C21.3626 86.5495 21.5513 86.692 21.6811 86.9532Z" fill="#F07522"/>
</g>
<g opacity="0.5">
<path d="M29.8675 75.8882C29.9854 76.4225 30.1624 77.1942 30.3629 78.1321C27.8975 80.3523 25.6091 82.7387 23.5802 84.8995C23.5213 84.3771 23.5095 83.8191 23.6038 83.2611C23.6156 83.2136 23.6274 83.1305 23.651 83.0236C23.8869 81.8364 24.5003 81.1596 25.5266 79.9011C26.482 78.7376 27.5673 77.7047 28.5109 76.5175C28.6053 76.4106 28.8412 76.09 29.2541 75.9476C29.5018 75.8763 29.7259 75.8763 29.8675 75.8882Z" fill="#F07522"/>
</g>
<g opacity="0.5">
<path d="M49.1656 63.8375C48.9651 65.2622 47.526 66.9599 46.6885 68.3372C42.5363 69.8094 38.396 71.8989 34.6684 74.6177C34.114 75.0214 33.5714 75.4369 33.0288 75.8762C33.1704 73.2524 33.9135 72.077 34.1258 71.7446C34.7628 70.771 35.7301 70.0824 36.6855 69.4294C40.0828 67.0549 44.8012 63.4338 49.1656 63.8375Z" fill="#F07522"/>
</g>
<g opacity="0.5">
<path d="M67.2606 61.8073C66.2462 63.2083 64.9958 64.4787 63.7454 65.7609C62.5776 65.6659 61.3744 65.6422 60.1359 65.6778C56.7504 65.7846 52.9757 66.402 49.142 67.5418C49.4369 66.9363 49.7318 66.3426 50.0267 65.7371C50.6401 64.4905 51.3243 63.5051 52.1972 62.769C53.0701 62.0448 54.1317 61.5699 55.5236 61.3443C58.9209 60.7863 64.0993 60.2401 67.2606 61.8073Z" fill="#F07522"/>
</g>
<g opacity="0.5">
<path d="M85.4381 70.3081C85.0252 70.5693 84.6006 70.8187 84.1641 71.0442C83.6805 71.2817 83.1969 71.5073 82.725 71.7566C82.4419 71.8991 82.1588 72.0534 81.8757 72.2077C77.5938 69.5245 72.6749 67.1738 66.9893 66.1646C67.7324 65.5354 68.5345 64.9536 69.3956 64.4906C70.7404 63.8495 72.1087 63.2321 73.5242 63.1846C74.1022 63.1727 74.6802 63.244 75.27 63.4577C78.797 64.7043 84.5298 66.0934 86.771 69.3346C86.3936 69.7382 85.9217 70.0113 85.4381 70.3081Z" fill="#F07522"/>
</g>
<g opacity="0.5">
<path d="M96.7622 82.7266C93.4593 80.9101 89.4487 77.3364 84.5062 73.9171C84.6832 73.834 84.8719 73.7509 85.0488 73.6559C87.3019 72.528 88.7999 70.8184 91.3007 72.5043C92.7398 73.4779 94.1671 74.5108 95.1462 75.8998C96.5617 77.9301 96.9745 80.3164 96.7622 82.7266Z" fill="#F07522"/>
</g>
<g opacity="0.3">
<path d="M26.4349 93.5424C26.6 93.8867 26.3405 94.2667 26.0928 94.5635C25.2081 95.5964 24.2408 96.6174 23.0494 97.2348C23.3207 95.727 23.9223 94.1242 24.7834 92.5095C25.1019 92.747 25.444 92.9488 25.7979 93.1031C26.022 93.1981 26.2815 93.2931 26.3995 93.4949C26.4113 93.5068 26.4231 93.5187 26.4349 93.5424Z" fill="#D75327"/>
</g>
<g opacity="0.3">
<path d="M31.7902 84.0208C32.4744 85.8373 33.076 86.8227 32.5098 87.6181C32.4272 87.725 32.4862 87.6181 31.401 88.5323C30.5517 89.2447 30.127 89.6009 29.6906 90.0401C28.6171 91.1324 28.7351 91.4055 28.334 91.5242C27.6735 91.7142 26.8595 91.1087 26.1282 90.3013C27.6145 88.1287 29.5372 85.9797 31.7902 84.0208Z" fill="#D75327"/>
</g>
<g opacity="0.3">
<path d="M43.5036 77.0635C43.3974 78.7375 43.5743 79.7111 42.5717 80.7796C41.687 81.7294 41.2741 81.2545 38.2898 83.0472C36.1665 84.3295 35.9188 84.84 35.2818 84.6975C34.5269 84.5313 34.0196 83.629 33.6775 82.4774C36.6029 80.2572 39.9412 78.3576 43.5036 77.0635Z" fill="#D75327"/>
</g>
<g opacity="0.3">
<path d="M48.3046 75.722C51.1592 75.164 54.061 75.0334 56.9156 75.2827C56.5853 75.912 56.255 76.5531 55.9601 77.2061C55.6652 77.8234 55.3467 78.5002 54.7334 78.797C54.4149 78.9513 54.061 78.9869 53.7071 79.0226C50.7227 79.3075 47.7384 79.5806 44.7422 79.8655C44.6242 78.7376 44.7658 77.6335 45.0725 76.5412C46.1341 76.2088 47.2193 75.9357 48.3046 75.722Z" fill="#D75327"/>
</g>
<g opacity="0.3">
<path d="M72.097 80.3522C71 82.1094 69.5373 84.472 68.3105 84.1871C67.4494 83.9852 66.2698 82.7624 65.4913 82.2993C63.4506 81.0765 60.8319 80.6847 58.9445 79.3193C57.6824 78.4051 57.9655 78.5476 58.8384 77.0398C59.1215 76.5649 59.4046 76.09 59.6995 75.627C64.1701 76.3868 68.4285 78.0371 72.097 80.3522Z" fill="#D75327"/>
</g>
<g opacity="0.3">
<path d="M86.0633 96.8313C85.2848 96.8431 84.176 96.7719 82.902 96.4276C78.7734 95.1454 75.4942 90.9544 72.5688 88.0693C71.7548 87.2739 71.0471 86.8465 70.9291 86.2053C70.9999 85.5761 71.283 84.9587 71.283 84.9587C71.3892 84.7213 71.6015 84.4126 72.0261 83.819C72.2385 83.5103 72.4626 83.2135 72.6749 82.9048C72.5924 83.0235 72.5216 83.1304 72.439 83.2491C72.8637 82.6436 73.3119 82.0618 73.7837 81.4919C76.0486 83.3797 77.8062 85.1249 79.0919 86.514C80.6844 88.2237 82.1235 89.779 83.6216 92.1416C84.7894 93.9819 85.5679 95.644 86.0633 96.8313Z" fill="#D75327"/>
</g>
<g opacity="0.9">
<path d="M3.53888 105.32L30.9762 86.9058C31.5896 86.4903 32.4153 86.6921 32.781 87.3332C37.3106 95.4184 34.9397 105.783 27.1426 111.019C19.3454 116.255 8.92963 114.486 3.24398 107.16C2.78394 106.579 2.92549 105.736 3.53888 105.32Z" fill="#F0B61B"/>
<path d="M4.35274 104.774L30.1623 87.4401C30.6223 87.1314 31.2475 87.2739 31.5306 87.7606C35.8833 95.2878 33.7128 105.023 26.4229 109.927C19.133 114.83 9.36601 113.109 4.12862 106.163C3.78653 105.724 3.8927 105.083 4.35274 104.774Z" fill="#F2F2F2"/>
<g opacity="0.8">
<path d="M4.93086 104.382L29.5726 87.8317C29.8557 87.6418 30.2567 87.7249 30.4337 88.0217C32.5452 91.5122 33.1349 95.537 32.3564 99.2769C31.5543 103.112 29.3249 106.662 25.8333 109.012C25.8215 109.012 25.8215 109.024 25.8097 109.024C22.3181 111.375 18.2131 112.099 14.3794 111.363C10.6401 110.651 7.1603 108.561 4.76572 105.249C4.57699 104.976 4.64776 104.584 4.93086 104.382Z" fill="#F1CB15"/>
</g>
<path d="M16.6619 95.8887L13.6853 111.236L15.0978 111.513L18.0744 96.1662L16.6619 95.8887Z" fill="white"/>
<path d="M17.2946 95.466L17.0083 96.8855L32.2212 99.9947L32.5076 98.5752L17.2946 95.466Z" fill="white"/>
<path d="M25.2433 109.428L16.7149 96.4751L17.9181 95.6677L18.0242 95.8339L26.4465 108.621L25.2433 109.428Z" fill="white"/>
<path d="M29.685 86.8816L4.00737 104.126L4.80607 105.331L30.4837 88.0864L29.685 86.8816Z" fill="white"/>
</g>
<g opacity="0.9">
<path d="M4.1051 105.997L31.5071 87.5113C32.1204 87.0957 32.2502 86.2528 31.802 85.671C26.1045 78.3694 15.6887 76.6123 7.89159 81.8718C0.106273 87.1195 -2.24112 97.4961 2.30032 105.569C2.66599 106.211 3.49171 106.412 4.1051 105.997Z" fill="#F0B61B"/>
<path d="M4.919 105.451L30.6931 88.0694C31.1532 87.7607 31.2593 87.1196 30.9173 86.6803C25.6681 79.7586 15.901 78.049 8.61113 82.9642C1.32124 87.8795 -0.825617 97.6149 3.55068 105.13C3.83378 105.617 4.45896 105.76 4.919 105.451Z" fill="#F2F2F2"/>
<g opacity="0.8">
<path d="M5.50878 105.059L30.1151 88.4612C30.3982 88.2712 30.469 87.8676 30.2685 87.5826C27.8739 84.2821 24.3941 82.1925 20.6666 81.492C16.8329 80.7678 12.7279 81.492 9.2363 83.8428C9.2245 83.8428 9.2245 83.8546 9.2127 83.8546C5.72111 86.2054 3.49167 89.7553 2.70135 93.5901C1.92281 97.3419 2.52441 101.379 4.64768 104.869C4.82462 105.166 5.21388 105.249 5.50878 105.059Z" fill="#F1CB15"/>
</g>
<path d="M17.7766 97.3893L17.5997 97.3536L2.54807 94.3024L2.84296 92.8777L18.0597 95.9645L17.7766 97.3893Z" fill="white"/>
<path d="M19.9455 81.3443L16.9929 96.6826L18.4057 96.9581L21.3583 81.6198L19.9455 81.3443Z" fill="white"/>
<path d="M17.2694 97.1282L17.1632 96.962L8.63477 84.2464L9.83795 83.4272L18.4608 96.309L17.2694 97.1282Z" fill="white"/>
<path d="M30.2261 87.5112L4.58237 104.808L5.38352 106.011L31.0272 88.7144L30.2261 87.5112Z" fill="white"/>
</g>
<path d="M87.8327 124.34C88.3753 124.221 89.2954 123.984 90.3452 123.473C97.7059 119.888 101.563 107.706 97.4818 100.559C96.4909 98.8258 95.2406 97.8048 93.7661 96.6531C87.2075 91.5004 79.9412 87.3332 72.0615 85.303C58.6024 81.8243 44.7775 85.766 33.2175 95.6796C26.8831 101.117 21.4688 108.075 17.5761 115.97C16.6796 117.798 15.8303 119.971 16.4791 121.811C17.2694 124.055 19.9825 124.554 22.0114 123.556C24.0521 122.571 25.5855 120.541 27.1308 118.7C27.1308 118.7 31.6251 112.111 40.6372 107.303C47.9624 103.397 54.9102 104.572 56.7504 104.916C59.9117 105.498 64.7598 107.125 71.5425 113.239C78.278 119.318 79.5991 123.248 84.9073 124.174C86.1223 124.387 87.1485 124.376 87.8327 124.34Z" fill="#F2A67A"/>
<path d="M46.7004 92.9608C46.6296 93.0795 46.5588 93.1863 46.4998 93.3051C45.0843 95.8814 44.4827 97.223 44.1288 98.3746C43.7042 99.7519 43.5744 100.82 43.5155 101.699C43.4093 103.373 43.5862 104.347 42.5836 105.415C41.6989 106.365 41.286 105.89 38.3017 107.683C36.1784 108.965 35.9307 109.475 35.2937 109.333C34.5388 109.167 34.0315 108.264 33.6894 107.113C33.0643 104.988 33.0171 102.055 33.0053 101.616C33.0053 101.212 33.0053 100.844 33.0289 100.5C33.1704 97.876 33.9136 96.7006 34.1259 96.3682C34.7629 95.3946 35.7301 94.706 36.6856 94.053C40.071 91.7023 44.7894 88.0811 49.1657 88.4729C48.9652 89.8858 47.5379 91.5835 46.7004 92.9608Z" fill="#D75327"/>
<path d="M32.5097 112.242C32.4271 112.349 32.4861 112.242 31.4009 113.156C30.5515 113.869 30.1269 114.225 29.6904 114.664C28.617 115.756 28.735 116.029 28.3339 116.148C27.6733 116.338 26.8594 115.733 26.1281 114.925C25.5265 114.248 24.9839 113.441 24.6536 112.859C24.571 112.705 23.7689 111.268 23.5684 109.535C23.5094 109.013 23.4976 108.455 23.5919 107.897C23.6037 107.849 23.6155 107.766 23.6391 107.659C23.875 106.472 24.4884 105.795 25.5147 104.537C26.4702 103.373 27.5554 102.34 28.4991 101.153C28.5934 101.046 28.8293 100.726 29.2422 100.583C29.4899 100.488 29.7258 100.488 29.8674 100.5C29.9853 101.034 30.1623 101.806 30.3628 102.744C30.3864 102.863 30.41 102.981 30.4336 103.112C30.7639 104.715 30.7993 105.071 30.9408 105.771C31.1767 106.923 31.4952 107.861 31.7901 108.633C32.4861 110.473 33.0759 111.447 32.5097 112.242Z" fill="#D75327"/>
<path d="M26.0928 119.187C25.2081 120.22 24.2408 121.241 23.0494 121.858C22.9079 121.93 22.7545 122.001 22.613 122.06C21.2093 122.642 19.4163 122.523 18.3901 121.395C17.6941 120.624 17.4582 119.508 17.5643 118.475C17.6705 117.442 18.0716 116.456 18.508 115.507C18.6378 115.234 18.7675 114.972 18.8973 114.711C19.1214 114.272 19.3573 113.833 19.6168 113.405C19.9707 112.812 20.4779 111.767 21.0677 111.387C21.3862 111.185 21.5632 111.316 21.6929 111.589C21.8463 111.921 21.9052 112.444 22.0114 112.752C22.2591 113.5 22.554 114.224 22.9315 114.913C23.4033 115.768 24.0285 116.563 24.7952 117.145C25.1137 117.383 25.4558 117.584 25.8097 117.739C26.0338 117.834 26.2933 117.929 26.4113 118.13C26.4231 118.142 26.4349 118.166 26.4349 118.178C26.6 118.51 26.3405 118.902 26.0928 119.187Z" fill="#D75327"/>
<path d="M67.2607 86.4306C66.2462 87.8316 64.9959 89.1019 63.7455 90.3842C62.6838 91.4883 61.634 92.5925 60.7257 93.8153C59.3102 95.7506 58.0244 97.7927 56.9038 99.906C56.5735 100.535 56.2433 101.176 55.9484 101.829C55.6535 102.447 55.335 103.123 54.7216 103.42C54.4031 103.575 54.0492 103.61 53.6953 103.646C50.711 103.931 47.7266 104.204 44.7304 104.489C44.6125 103.361 44.754 102.257 45.0607 101.164C45.45 99.7754 46.0752 98.4338 46.7003 97.1397C47.5025 95.4775 48.3164 93.8272 49.1303 92.1651C49.4252 91.5596 49.7201 90.9659 50.015 90.3604C50.6284 89.1138 51.3126 88.1284 52.1855 87.3923C53.0584 86.6681 54.12 86.1932 55.5119 85.9676C58.9209 85.4096 64.0994 84.8634 67.2607 86.4306Z" fill="#D75327"/>
<path d="M86.7948 93.9699C86.3937 94.3617 85.9219 94.6467 85.4382 94.9435C85.0254 95.2047 84.6007 95.454 84.1643 95.6796C83.6806 95.917 83.197 96.1426 82.7252 96.3919C82.4421 96.5344 82.159 96.6887 81.8759 96.8431C81.6635 96.9618 81.4394 97.0805 81.2271 97.1993C80.2598 97.7335 79.3161 98.3034 78.4079 98.9208C76.5087 100.203 74.7275 101.699 73.1705 103.409C72.8873 103.717 72.5099 104.311 72.0852 105C70.9882 106.757 69.5255 109.119 68.2987 108.834C67.4376 108.633 66.258 107.41 65.4795 106.947C63.4388 105.724 60.8201 105.332 58.9328 103.967C57.6706 103.052 57.9537 103.195 58.8266 101.687C59.1097 101.212 59.3928 100.737 59.6877 100.274C59.8646 99.9893 60.0534 99.7044 60.2303 99.4313C61.0442 98.2322 61.8817 97.0449 62.7193 95.8695C63.545 94.6942 64.3943 93.5425 65.338 92.474C65.8334 91.916 66.3524 91.3817 66.895 90.8831C66.9186 90.8593 66.954 90.8356 66.9894 90.8118C67.7325 90.1826 68.5346 89.6008 69.3958 89.1378C70.7405 88.4967 72.1088 87.8793 73.5243 87.8318C74.1023 87.8199 74.6803 87.8912 75.2701 88.1049C78.8207 89.3396 84.5535 90.7287 86.7948 93.9699Z" fill="#D75327"/>
<path d="M89.8145 120.232C88.2692 121.194 86.665 121.419 86.665 121.419C86.665 121.419 86.4408 121.455 86.0634 121.467C85.5443 121.49 84.754 121.479 83.8457 121.301C83.539 121.241 83.2205 121.17 82.902 121.063C78.7735 119.781 75.4942 115.59 72.5688 112.705C71.7549 111.909 71.0471 111.482 70.9292 110.841C70.8702 110.508 70.9646 110.128 71.2831 109.594C71.519 109.202 71.7667 108.822 72.0262 108.454C72.2385 108.146 72.4626 107.849 72.675 107.54C72.5924 107.659 72.5216 107.766 72.4391 107.885C72.8637 107.279 73.312 106.697 73.7838 106.127C74.3618 105.439 74.9752 104.786 75.624 104.18C75.9071 103.907 76.2138 103.646 76.5086 103.385C78.2662 101.936 80.2244 100.714 82.2651 99.6569C82.8077 99.3719 83.3503 99.0989 83.9047 98.8377C84.1052 98.7427 84.3058 98.6596 84.5063 98.5646C84.6832 98.4815 84.872 98.3984 85.0489 98.3034C87.3019 97.1755 88.8 95.4659 91.3008 97.1518C92.7399 98.1253 94.1672 99.1582 95.1462 100.547C96.5617 102.566 96.9746 104.952 96.7623 107.362C96.2668 112.919 92.4096 118.617 89.8145 120.232Z" fill="#D75327"/>
<g opacity="0.5">
<path d="M21.6811 111.577C20.643 112.705 19.7229 113.75 18.8854 114.711C19.1096 114.272 19.3455 113.833 19.605 113.405C19.9589 112.812 20.4661 111.767 21.0559 111.387C21.3626 111.173 21.5513 111.316 21.6811 111.577Z" fill="#F07522"/>
</g>
<g opacity="0.5">
<path d="M29.8675 100.512C29.9854 101.046 30.1624 101.818 30.3629 102.756C27.8975 104.976 25.6091 107.362 23.5802 109.523C23.5213 109.001 23.5095 108.443 23.6038 107.885C23.6156 107.837 23.6274 107.754 23.651 107.647C23.8869 106.46 24.5003 105.783 25.5266 104.525C26.482 103.361 27.5673 102.328 28.5109 101.141C28.6053 101.034 28.8412 100.714 29.2541 100.571C29.5018 100.512 29.7259 100.512 29.8675 100.512Z" fill="#F07522"/>
</g>
<g opacity="0.5">
<path d="M49.1656 88.461C48.9651 89.8857 47.526 91.5835 46.6885 92.9607C42.5363 94.4329 38.396 96.5224 34.6684 99.2413C34.114 99.6449 33.5714 100.06 33.0288 100.5C33.1704 97.8759 33.9135 96.7005 34.1258 96.3681C34.7628 95.3945 35.7301 94.7059 36.6855 94.053C40.0828 91.6903 44.8012 88.0692 49.1656 88.461Z" fill="#F07522"/>
</g>
<g opacity="0.5">
<path d="M67.2606 86.4306C66.2462 87.8316 64.9958 89.1019 63.7454 90.3842C62.5776 90.2892 61.3744 90.2655 60.1359 90.3011C56.7504 90.4079 52.9757 91.0253 49.142 92.1651C49.4369 91.5596 49.7318 90.9659 50.0267 90.3604C50.6401 89.1138 51.3243 88.1284 52.1972 87.3923C53.0701 86.6681 54.1317 86.1932 55.5236 85.9676C58.9209 85.4096 64.0993 84.8634 67.2606 86.4306Z" fill="#F07522"/>
</g>
<g opacity="0.5">
<path d="M85.4381 94.9434C85.0252 95.2046 84.6006 95.4539 84.1641 95.6795C83.6805 95.9169 83.1969 96.1425 82.725 96.3918C82.4419 96.5343 82.1588 96.6887 81.8757 96.843C77.5938 94.1598 72.6749 91.809 66.9893 90.7999C67.7324 90.1706 68.5345 89.5889 69.3956 89.1258C70.7404 88.4847 72.1087 87.8673 73.5242 87.8199C74.1022 87.808 74.6802 87.8792 75.27 88.0929C78.797 89.3395 84.5298 90.7286 86.771 93.9698C86.3936 94.3616 85.9217 94.6466 85.4381 94.9434Z" fill="#F07522"/>
</g>
<g opacity="0.5">
<path d="M96.7622 107.362C93.4593 105.546 89.4487 101.972 84.5062 98.5526C84.6832 98.4695 84.8719 98.3864 85.0488 98.2914C87.3019 97.1635 88.7999 95.4539 91.3007 97.1398C92.7398 98.1133 94.1671 99.1463 95.1462 100.535C96.5617 102.566 96.9745 104.952 96.7622 107.362Z" fill="#F07522"/>
</g>
<g opacity="0.3">
<path d="M26.4349 118.166C26.6 118.511 26.3405 118.89 26.0928 119.187C25.2081 120.22 24.2408 121.241 23.0494 121.859C23.3207 120.351 23.9223 118.748 24.7834 117.133C25.1019 117.371 25.444 117.573 25.7979 117.727C26.022 117.822 26.2815 117.917 26.3995 118.119C26.4113 118.142 26.4231 118.154 26.4349 118.166Z" fill="#D75327"/>
</g>
<g opacity="0.3">
<path d="M31.7902 108.644C32.4744 110.461 33.076 111.446 32.5098 112.242C32.4272 112.349 32.4862 112.242 31.401 113.156C30.5517 113.868 30.127 114.224 29.6906 114.664C28.6171 115.756 28.7351 116.029 28.334 116.148C27.6735 116.338 26.8595 115.732 26.1282 114.925C27.6145 112.752 29.5372 110.615 31.7902 108.644Z" fill="#D75327"/>
</g>
<g opacity="0.3">
<path d="M43.5036 101.687C43.3974 103.361 43.5743 104.335 42.5717 105.403C41.687 106.353 41.2741 105.878 38.2898 107.671C36.1665 108.953 35.9188 109.464 35.2818 109.321C34.5269 109.155 34.0196 108.253 33.6775 107.101C36.6029 104.881 39.9412 102.993 43.5036 101.687Z" fill="#D75327"/>
</g>
<g opacity="0.3">
<path d="M48.3046 100.346C51.1592 99.7875 54.061 99.6569 56.9156 99.9062C56.5853 100.535 56.255 101.177 55.9601 101.83C55.6652 102.447 55.3467 103.124 54.7334 103.421C54.4149 103.575 54.061 103.61 53.7071 103.646C50.7227 103.931 47.7384 104.204 44.7422 104.489C44.6242 103.361 44.7658 102.257 45.0725 101.165C46.1341 100.832 47.2193 100.559 48.3046 100.346Z" fill="#D75327"/>
</g>
<g opacity="0.3">
<path d="M72.097 104.987C71 106.745 69.5373 109.107 68.3105 108.822C67.4494 108.62 66.2698 107.398 65.4913 106.935C63.4506 105.712 60.8319 105.32 58.9445 103.955C57.6824 103.04 57.9655 103.183 58.8384 101.675C59.1215 101.2 59.4046 100.725 59.6995 100.262C64.1701 101.022 68.4285 102.66 72.097 104.987Z" fill="#D75327"/>
</g>
<g opacity="0.3">
<path d="M86.0633 121.467C85.2848 121.479 84.176 121.407 82.902 121.063C78.7734 119.781 75.4942 115.59 72.5688 112.705C71.7548 111.909 71.0471 111.482 70.9291 110.841C70.9999 110.212 71.283 109.594 71.283 109.594C71.3892 109.357 71.6015 109.048 72.0261 108.454C72.2385 108.146 72.4626 107.849 72.6749 107.54C72.5924 107.659 72.5216 107.766 72.439 107.885C72.8637 107.279 73.3119 106.697 73.7837 106.127C76.0486 108.015 77.8062 109.76 79.0919 111.15C80.6844 112.859 82.1235 114.414 83.6216 116.777C84.7894 118.617 85.5679 120.268 86.0633 121.467Z" fill="#D75327"/>
</g>
<g opacity="0.9">
<path d="M13.0228 115.412L48.2809 107.006C49.0712 106.816 49.8615 107.374 49.9913 108.217C51.7017 118.819 45.4263 128.994 35.3997 131.38C25.3732 133.767 15.2287 127.51 12.0438 117.264C11.7843 116.456 12.2443 115.602 13.0228 115.412Z" fill="#F0B61B"/>
<path d="M14.0727 115.162L47.231 107.255C47.8208 107.113 48.4224 107.528 48.5286 108.169C50.2626 118.095 44.4236 127.676 35.0458 129.908C25.6681 132.14 16.1841 126.216 13.3177 116.552C13.129 115.946 13.4829 115.305 14.0727 115.162Z" fill="#F2F2F2"/>
<g opacity="0.8">
<path d="M14.8158 114.984L46.4761 107.433C46.8418 107.35 47.2193 107.6 47.3019 107.991C48.2101 112.634 47.3372 117.216 45.1432 120.921C42.902 124.72 39.2806 127.605 34.7864 128.685C34.7746 128.685 34.7628 128.685 34.7628 128.697C30.2685 129.766 25.7507 128.828 22.0468 126.453C18.4254 124.126 15.5944 120.422 14.3322 115.851C14.226 115.471 14.4502 115.068 14.8158 114.984Z" fill="#F1CB15"/>
</g>
<path d="M22.6719 126.821L21.4215 126.097L30.1741 110.817L31.4245 111.541L31.3183 111.719L22.6719 126.821Z" fill="white"/>
<path d="M30.9136 110.642L30.1221 111.851L44.7505 121.548L45.542 120.339L30.9136 110.642Z" fill="white"/>
<path d="M31.42 111.028L30.0187 111.357L34.0834 128.859L35.4847 128.53L31.42 111.028Z" fill="white"/>
<path d="M46.9786 106.573L13.9891 114.434L14.3206 115.844L47.3102 107.982L46.9786 106.573Z" fill="white"/>
</g>
<g opacity="0.7">
<path d="M57.1279 28.8727C57.0689 28.7896 57.0807 28.659 57.1633 28.5997L58.8973 27.2937C58.9799 27.2343 59.1096 27.2462 59.1686 27.3293C59.2276 27.4124 59.2158 27.543 59.1332 27.6024L57.3992 28.9084C57.3166 28.9796 57.1869 28.9677 57.1279 28.8727Z" fill="#5A4539"/>
<path d="M48.4343 20.1228L47.2429 18.5319C47.1486 18.4013 47.1721 18.2113 47.3019 18.1164C47.4317 18.0214 47.6204 18.0451 47.7148 18.1757L48.9062 19.7666C49.0005 19.8972 48.9769 20.0872 48.8472 20.1822C48.7174 20.2772 48.5405 20.2534 48.4343 20.1228Z" fill="#5A4539"/>
<path d="M73.0405 28.4811L72.9462 28.4217C72.8872 28.3742 72.8754 28.2793 72.9344 28.1962L73.8427 26.8664C73.9016 26.7833 73.996 26.7477 74.0668 26.7952L74.1612 26.8546C74.2201 26.902 74.2319 26.997 74.173 27.0801L73.2647 28.4099C73.1939 28.4811 73.0995 28.5167 73.0405 28.4811Z" fill="#5A4539"/>
<path d="M54.7805 43.4046L55.099 41.9087C55.1343 41.7424 55.2405 41.6237 55.3231 41.6356L55.4882 41.6593C55.5826 41.6712 55.6298 41.8137 55.5944 41.9799L55.2759 43.4758C55.2405 43.642 55.1343 43.7608 55.0518 43.7489L54.8866 43.7251C54.7923 43.7133 54.7451 43.5708 54.7805 43.4046Z" fill="#5A4539"/>
<path d="M41.4156 26.6762L41.3213 26.6525C41.2505 26.6406 41.2269 26.5456 41.2623 26.4388L41.7459 24.9547C41.7813 24.8597 41.8521 24.7885 41.9229 24.8122L42.0172 24.836C42.088 24.8478 42.1116 24.9428 42.0762 25.0497L41.5926 26.5337C41.5572 26.6287 41.4864 26.7 41.4156 26.6762Z" fill="#5A4539"/>
<path d="M66.1164 17.7128L66.199 17.5466C66.2579 17.4278 66.4113 17.3685 66.5528 17.4278L68.1335 18.0689C68.275 18.1283 68.3458 18.2708 68.2868 18.3895L68.2043 18.5557C68.1453 18.6744 67.992 18.7338 67.8504 18.6744L66.2697 18.0333C66.1282 17.9858 66.0574 17.8434 66.1164 17.7128Z" fill="#5A4539"/>
<path d="M43.8457 42.004L43.8693 41.8021C43.8811 41.6597 44.0108 41.5409 44.1524 41.5528L46.1577 41.6834C46.2992 41.6953 46.3936 41.814 46.37 41.9684L46.3464 42.1702C46.3346 42.3127 46.2049 42.4314 46.0633 42.4195L44.058 42.2889C43.9282 42.277 43.8339 42.1464 43.8457 42.004Z" fill="#5A4539"/>
<path d="M67.6616 50.2197L66.3287 48.4388C66.2579 48.3438 66.2815 48.2132 66.3759 48.142C66.4702 48.0708 66.6 48.0945 66.6708 48.1895L68.0037 49.9704C68.0745 50.0654 68.0509 50.196 67.9565 50.2672C67.8622 50.3384 67.7206 50.3147 67.6616 50.2197Z" fill="#5A4539"/>
<path d="M59.9471 34.073C59.9706 33.9661 60.0768 33.8949 60.183 33.9186L61.9878 34.2748C62.0939 34.2986 62.1647 34.4054 62.1411 34.5123C62.1175 34.6191 62.0113 34.6904 61.9052 34.6666L60.1004 34.3104C59.9942 34.2867 59.9235 34.1798 59.9471 34.073Z" fill="#5A4539"/>
<path d="M53.0244 50.7833C53.3317 50.5509 53.4475 50.184 53.2832 49.9638C53.1188 49.7437 52.7365 49.7536 52.4291 49.986C52.1218 50.2183 52.006 50.5852 52.1703 50.8054C52.3347 51.0256 52.7171 51.0157 53.0244 50.7833Z" fill="#5A4539"/>
<path d="M56.0258 16.9208C56.2758 16.7318 56.3452 16.4 56.1809 16.1798C56.0165 15.9597 55.6806 15.9344 55.4306 16.1235C55.1806 16.3126 55.1111 16.6443 55.2755 16.8645C55.4399 17.0847 55.7758 17.1099 56.0258 16.9208Z" fill="#5A4539"/>
<path d="M44.5792 33.207C44.8032 33.0376 44.8642 32.7388 44.7155 32.5396C44.5667 32.3404 44.2646 32.3162 44.0407 32.4856C43.8167 32.6549 43.7557 32.9537 43.9044 33.1529C44.0531 33.3521 44.3552 33.3763 44.5792 33.207Z" fill="#5A4539"/>
<path d="M68.937 29.0103C69.0932 28.8921 69.1342 28.6816 69.0286 28.54C68.9229 28.3985 68.7106 28.3796 68.5543 28.4977C68.3981 28.6159 68.3571 28.8264 68.4627 28.968C68.5684 29.1095 68.7807 29.1285 68.937 29.0103Z" fill="#5A4539"/>
<path d="M77.7111 31.6321C77.9716 31.4352 78.0621 31.1141 77.9134 30.9148C77.7647 30.7156 77.433 30.7138 77.1726 30.9107C76.9122 31.1077 76.8216 31.4288 76.9703 31.628C77.119 31.8272 77.4507 31.8291 77.7111 31.6321Z" fill="#5A4539"/>
<path d="M70.9563 40.7103C71.1595 40.5567 71.2163 40.2877 71.0832 40.1095C70.9502 39.9312 70.6776 39.9113 70.4745 40.0649C70.2714 40.2185 70.2146 40.4875 70.3476 40.6658C70.4807 40.844 70.7532 40.864 70.9563 40.7103Z" fill="#5A4539"/>
<path d="M61.7884 40.0742C61.8873 39.9994 61.9136 39.8664 61.8471 39.7773C61.7806 39.6882 61.6464 39.6766 61.5475 39.7515C61.4485 39.8263 61.4222 39.9592 61.4887 40.0483C61.5553 40.1374 61.6894 40.149 61.7884 40.0742Z" fill="#5A4539"/>
<path d="M60.8297 46.4848C60.9912 46.3627 61.0333 46.1447 60.9237 45.9979C60.8141 45.8511 60.5944 45.8311 60.4329 45.9532C60.2715 46.0753 60.2294 46.2933 60.339 46.4401C60.4486 46.5869 60.6683 46.6069 60.8297 46.4848Z" fill="#5A4539"/>
<path d="M51.6371 36.8664C51.8871 36.6773 51.9566 36.3456 51.7922 36.1254C51.6278 35.9052 51.2919 35.88 51.0419 36.069C50.7919 36.2581 50.7225 36.5899 50.8868 36.81C51.0512 37.0302 51.3871 37.0554 51.6371 36.8664Z" fill="#5A4539"/>
</g>
<g opacity="0.7">
<path d="M56.3494 93.9463C56.2432 93.9582 56.1371 93.887 56.1253 93.7801L55.7714 91.6312C55.7596 91.5243 55.8304 91.4175 55.9366 91.4056C56.0427 91.3937 56.1489 91.4649 56.1607 91.5718L56.5146 93.7207C56.5263 93.8157 56.4556 93.9226 56.3494 93.9463Z" fill="#5A4539"/>
<path d="M44.6242 97.6506L42.6661 97.9712C42.5009 97.9949 42.3594 97.8881 42.324 97.7219C42.3004 97.5556 42.4065 97.4132 42.5717 97.3776L44.5298 97.057C44.695 97.0333 44.8365 97.1401 44.8719 97.3063C44.8837 97.4725 44.7775 97.6269 44.6242 97.6506Z" fill="#5A4539"/>
<path d="M63.3444 79.5567L63.2501 79.616C63.1793 79.6516 63.0849 79.616 63.0495 79.521L62.3064 78.0963C62.2592 78.0132 62.2828 77.9064 62.3418 77.8708L62.4362 77.8114C62.5069 77.7758 62.6013 77.8114 62.6367 77.9064L63.3798 79.3311C63.427 79.4142 63.4152 79.521 63.3444 79.5567Z" fill="#5A4539"/>
<path d="M68.0627 102.756L66.8949 101.782C66.7651 101.675 66.7061 101.533 66.7651 101.45L66.8595 101.319C66.9185 101.248 67.06 101.272 67.1898 101.379L68.3576 102.352C68.4873 102.459 68.5463 102.602 68.4873 102.685L68.3929 102.815C68.334 102.886 68.1924 102.863 68.0627 102.756Z" fill="#5A4539"/>
<path d="M47.1485 106.947L47.0777 107.018C47.0305 107.065 46.9362 107.054 46.8654 106.982L45.7684 105.866C45.6976 105.795 45.674 105.688 45.7212 105.641L45.792 105.57C45.8391 105.522 45.9335 105.534 46.0043 105.605L47.1013 106.721C47.1721 106.792 47.1957 106.899 47.1485 106.947Z" fill="#5A4539"/>
<path d="M50.6637 80.7679L50.5458 80.6135C50.4632 80.5067 50.4868 80.3405 50.6047 80.2455L51.9023 79.1413C52.0203 79.0464 52.1854 79.0464 52.268 79.1532L52.3859 79.3076C52.4685 79.4144 52.4449 79.5806 52.327 79.6756L51.0294 80.7798C50.9114 80.8747 50.7463 80.8747 50.6637 80.7679Z" fill="#5A4539"/>
<path d="M61.7756 111.862L61.5986 111.743C61.4807 111.66 61.4335 111.494 61.5043 111.375L62.5541 109.642C62.6249 109.523 62.7782 109.499 62.908 109.582L63.0849 109.701C63.2029 109.784 63.2501 109.95 63.1793 110.069L62.1294 111.803C62.0587 111.909 61.8935 111.945 61.7756 111.862Z" fill="#5A4539"/>
<path d="M80.0238 94.4093L77.8416 94.7773C77.7236 94.8011 77.6175 94.7179 77.5939 94.5992C77.5703 94.4805 77.6528 94.3736 77.7708 94.3499L79.9531 93.9818C80.071 93.9581 80.1772 94.0412 80.2008 94.1599C80.2126 94.2787 80.13 94.3855 80.0238 94.4093Z" fill="#5A4539"/>
<path d="M62.2355 93.8275C62.153 93.7563 62.1412 93.6376 62.2002 93.5545L63.3562 92.1179C63.4269 92.0348 63.5449 92.0229 63.6275 92.0823C63.71 92.1535 63.7218 92.2722 63.6629 92.3553L62.5069 93.7919C62.4361 93.8869 62.3181 93.8988 62.2355 93.8275Z" fill="#5A4539"/>
<path d="M73.3792 108.505C73.6492 108.46 73.8172 108.115 73.7545 107.733C73.6917 107.351 73.422 107.078 73.1521 107.123C72.8821 107.168 72.7142 107.514 72.7769 107.896C72.8396 108.277 73.1093 108.55 73.3792 108.505Z" fill="#5A4539"/>
<path d="M44.9067 90.0443C45.1766 89.9994 45.3541 89.7112 45.303 89.4007C45.252 89.0902 44.9918 88.8749 44.7218 88.9198C44.4519 88.9648 44.2744 89.2529 44.3255 89.5635C44.3765 89.874 44.6367 90.0893 44.9067 90.0443Z" fill="#5A4539"/>
<path d="M54.0047 107.723C54.2489 107.682 54.4098 107.424 54.3641 107.145C54.3184 106.867 54.0833 106.675 53.8391 106.715C53.5949 106.756 53.4339 107.015 53.4796 107.293C53.5254 107.571 53.7604 107.763 54.0047 107.723Z" fill="#5A4539"/>
<path d="M61.6693 83.8746C61.8428 83.8457 61.9577 83.665 61.9258 83.4709C61.8939 83.2768 61.7273 83.1429 61.5538 83.1718C61.3802 83.2007 61.2654 83.3814 61.2973 83.5755C61.3292 83.7696 61.4957 83.9035 61.6693 83.8746Z" fill="#5A4539"/>
<path d="M67.9492 77.5047C68.1934 77.464 68.3483 77.1689 68.2952 76.8454C68.242 76.5219 68.0009 76.2927 67.7567 76.3334C67.5124 76.374 67.3575 76.6692 67.4107 76.9927C67.4639 77.3161 67.705 77.5454 67.9492 77.5047Z" fill="#5A4539"/>
<path d="M72.8585 87.5858C73.077 87.5494 73.2206 87.3154 73.1791 87.0631C73.1376 86.8108 72.9269 86.6358 72.7083 86.6722C72.4898 86.7085 72.3462 86.9426 72.3877 87.1949C72.4292 87.4472 72.6399 87.6222 72.8585 87.5858Z" fill="#5A4539"/>
<path d="M68.2164 95.2144C68.3257 95.1962 68.3979 95.0818 68.3777 94.9589C68.3575 94.836 68.2525 94.7511 68.1433 94.7693C68.034 94.7875 67.9618 94.9019 67.982 95.0248C68.0022 95.1477 68.1071 95.2326 68.2164 95.2144Z" fill="#5A4539"/>
<path d="M73.3151 99.1864C73.495 99.1564 73.6142 98.9696 73.5812 98.769C73.5483 98.5685 73.3757 98.4302 73.1957 98.4602C73.0157 98.4901 72.8966 98.677 72.9295 98.8775C72.9625 99.0781 73.1351 99.2164 73.3151 99.1864Z" fill="#5A4539"/>
<path d="M60.4559 103.186C60.7258 103.141 60.9033 102.853 60.8523 102.542C60.8012 102.232 60.541 102.016 60.2711 102.061C60.0011 102.106 59.8237 102.394 59.8747 102.705C59.9257 103.015 60.1859 103.231 60.4559 103.186Z" fill="#5A4539"/>
</g>
<g opacity="0.7">
<path d="M55.2523 63.6353C55.1462 63.6472 55.04 63.5759 55.0282 63.4691L54.6743 61.3201C54.6625 61.2133 54.7333 61.1064 54.8395 61.0946C54.9456 61.0827 55.0518 61.1539 55.0636 61.2608L55.4175 63.4097C55.4293 63.5047 55.3585 63.6115 55.2523 63.6353Z" fill="#5A4539"/>
<path d="M43.5271 67.3398L41.569 67.6604C41.4038 67.6841 41.2623 67.5773 41.2269 67.4111C41.2033 67.2449 41.3095 67.1024 41.4746 67.0668L43.4327 66.7462C43.5979 66.7225 43.7394 66.8293 43.7748 66.9955C43.7984 67.1617 43.6805 67.3161 43.5271 67.3398Z" fill="#5A4539"/>
<path d="M62.259 49.2461L62.1646 49.3055C62.0939 49.3411 61.9995 49.3055 61.9641 49.2105L61.221 47.7858C61.1738 47.7027 61.1974 47.5958 61.2564 47.5602L61.3507 47.5009C61.4215 47.4652 61.5159 47.5009 61.5513 47.5958L62.2944 49.0205C62.3416 49.1036 62.318 49.2105 62.259 49.2461Z" fill="#5A4539"/>
<path d="M66.9656 72.4448L65.7978 71.4713C65.668 71.3644 65.6091 71.222 65.668 71.1389L65.7624 71.0082C65.8214 70.937 65.9629 70.9608 66.0927 71.0676L67.2605 72.0412C67.3902 72.148 67.4492 72.2905 67.3902 72.3736L67.2959 72.5042C67.2487 72.5754 67.0953 72.5517 66.9656 72.4448Z" fill="#5A4539"/>
<path d="M46.0632 76.6359L45.9924 76.7072C45.9452 76.7547 45.8509 76.7428 45.7801 76.6715L44.6831 75.5555C44.6123 75.4843 44.5887 75.3774 44.6359 75.33L44.7066 75.2587C44.7538 75.2112 44.8482 75.2231 44.919 75.2943L46.016 76.4104C46.0868 76.4816 46.0986 76.5884 46.0632 76.6359Z" fill="#5A4539"/>
<path d="M49.5784 50.4569L49.4604 50.3025C49.3779 50.1957 49.4015 50.0294 49.5194 49.9345L50.817 48.8303C50.9349 48.7353 51.1001 48.7353 51.1827 48.8422L51.3006 48.9965C51.3832 49.1034 51.3596 49.2696 51.2416 49.3646L49.9441 50.4687C49.8143 50.5637 49.661 50.5637 49.5784 50.4569Z" fill="#5A4539"/>
<path d="M60.6784 81.5514L60.5014 81.4327C60.3835 81.3496 60.3363 81.1833 60.4071 81.0646L61.4569 79.3312C61.5277 79.2125 61.681 79.1887 61.8108 79.2719L61.9877 79.3906C62.1057 79.4737 62.1529 79.6399 62.0821 79.7586L61.0323 81.492C60.9615 81.5989 60.8081 81.6345 60.6784 81.5514Z" fill="#5A4539"/>
<path d="M78.9266 64.0985L76.7444 64.4665C76.6264 64.4903 76.5203 64.4072 76.4967 64.2884C76.4731 64.1697 76.5556 64.0629 76.6736 64.0391L78.8559 63.6711C78.9738 63.6473 79.08 63.7304 79.1036 63.8491C79.1154 63.9679 79.0446 64.0747 78.9266 64.0985Z" fill="#5A4539"/>
<path d="M61.1383 63.5167C61.0558 63.4455 61.044 63.3268 61.103 63.2437L62.259 61.8071C62.3297 61.724 62.4477 61.7121 62.5303 61.7715C62.6128 61.8427 62.6246 61.9614 62.5657 62.0445L61.4096 63.4811C61.3507 63.5642 61.2209 63.588 61.1383 63.5167Z" fill="#5A4539"/>
<path d="M72.2822 78.1949C72.5522 78.1499 72.7202 77.8041 72.6574 77.4224C72.5947 77.0407 72.325 76.7677 72.0551 76.8127C71.7851 76.8576 71.6171 77.2035 71.6799 77.5851C71.7426 77.9668 72.0123 78.2398 72.2822 78.1949Z" fill="#5A4539"/>
<path d="M43.8093 59.734C44.0792 59.6891 44.2567 59.4009 44.2056 59.0904C44.1546 58.7799 43.8944 58.5646 43.6245 58.6095C43.3545 58.6545 43.177 58.9426 43.2281 59.2532C43.2791 59.5637 43.5393 59.779 43.8093 59.734Z" fill="#5A4539"/>
<path d="M52.9071 77.4122C53.1514 77.3716 53.3123 77.1131 53.2666 76.8349C53.2209 76.5568 52.9858 76.3642 52.7416 76.4049C52.4973 76.4456 52.3364 76.704 52.3821 76.9822C52.4278 77.2604 52.6629 77.4529 52.9071 77.4122Z" fill="#5A4539"/>
<path d="M60.579 53.5531C60.7526 53.5242 60.8674 53.3435 60.8356 53.1494C60.8037 52.9554 60.6372 52.8214 60.4636 52.8503C60.2901 52.8792 60.1752 53.0599 60.2071 53.254C60.239 53.4481 60.4055 53.582 60.579 53.5531Z" fill="#5A4539"/>
<path d="M66.8502 47.1973C67.0945 47.1567 67.2494 46.8615 67.1962 46.538C67.1431 46.2146 66.902 45.9853 66.6577 46.026C66.4135 46.0666 66.2586 46.3618 66.3117 46.6853C66.3649 47.0087 66.606 47.238 66.8502 47.1973Z" fill="#5A4539"/>
<path d="M71.7587 57.2789C71.9772 57.2425 72.1208 57.0085 72.0793 56.7562C72.0378 56.5039 71.8271 56.3289 71.6085 56.3653C71.39 56.4017 71.2464 56.6357 71.2879 56.888C71.3294 57.1403 71.5401 57.3153 71.7587 57.2789Z" fill="#5A4539"/>
<path d="M67.1199 64.9041C67.2291 64.8859 67.3013 64.7715 67.2811 64.6486C67.2609 64.5257 67.156 64.4408 67.0467 64.459C66.9374 64.4772 66.8652 64.5916 66.8854 64.7145C66.9056 64.8374 67.0106 64.9223 67.1199 64.9041Z" fill="#5A4539"/>
<path d="M72.2178 68.8756C72.3978 68.8456 72.5169 68.6588 72.484 68.4582C72.451 68.2577 72.2784 68.1194 72.0984 68.1494C71.9185 68.1793 71.7993 68.3662 71.8323 68.5667C71.8652 68.7673 72.0378 68.9056 72.2178 68.8756Z" fill="#5A4539"/>
<path d="M59.356 72.8778C59.6259 72.8329 59.8034 72.5447 59.7523 72.2342C59.7013 71.9237 59.4411 71.7084 59.1712 71.7533C58.9012 71.7983 58.7237 72.0864 58.7748 72.397C58.8258 72.7075 59.086 72.9228 59.356 72.8778Z" fill="#5A4539"/>
</g>
</svg>
