<svg width="132" height="132" viewBox="0 0 132 132" fill="none" xmlns="http://www.w3.org/2000/svg">
<path d="M66.0666 59.0351C97.4783 59.0351 122.942 46.0869 122.942 30.1145C122.942 14.142 97.4783 1.19385 66.0666 1.19385C34.6549 1.19385 9.19067 14.142 9.19067 30.1145C9.19067 46.0869 34.6549 59.0351 66.0666 59.0351Z" fill="#984400"/>
<path d="M0.133179 42.585V96.7116C0.133179 116.213 29.5701 132 66.0666 132C102.43 132 132 116.213 132 96.7116V42.585H0.133179Z" fill="#B75B00"/>
<path d="M131.867 42.5851C131.867 62.0866 102.43 78.4042 65.9334 78.4042C29.5701 78.4042 0 62.0866 0 42.5851C0 23.0836 29.4369 7.29663 65.9334 7.29663C102.43 7.29663 131.867 23.0836 131.867 42.5851Z" fill="#EFBE67"/>
<path d="M66.0667 70.3116C98.214 70.3116 124.274 54.5718 124.274 35.1558C124.274 15.7398 98.214 0 66.0667 0C33.9193 0 7.85876 15.7398 7.85876 35.1558C7.85876 54.5718 33.9193 70.3116 66.0667 70.3116Z" fill="#B75B00"/>
<path d="M131.867 68.8523C131.6 82.9146 120.412 90.8744 110.955 95.6503C97.2351 102.549 81.2512 105.069 65.9334 105.069C50.6155 105.069 34.6316 102.416 20.9122 95.6503C11.8547 91.1397 1.06555 81.8533 0.266357 71.5056V73.4955C0.532755 77.3427 1.99795 81.19 4.39553 84.5066C10.9223 93.6603 22.5106 98.8342 33.1665 102.018C48.0847 106.529 64.335 107.457 79.9193 105.733C93.2391 104.273 106.959 100.692 118.147 93.2624C125.473 88.3538 130.801 80.9247 132 74.4242C131.734 75.2201 131.867 68.8523 131.867 68.8523Z" fill="#873D00"/>
<path d="M66.0667 61.2905C98.214 61.2905 124.274 47.5701 124.274 30.6452C124.274 13.7203 98.214 0 66.0667 0C33.9193 0 7.85876 13.7203 7.85876 30.6452C7.85876 47.5701 33.9193 61.2905 66.0667 61.2905Z" fill="#EFBE67"/>
<path d="M66.0666 59.0351C97.4783 59.0351 122.942 46.0869 122.942 30.1145C122.942 14.142 97.4783 1.19385 66.0666 1.19385C34.6549 1.19385 9.19067 14.142 9.19067 30.1145C9.19067 46.0869 34.6549 59.0351 66.0666 59.0351Z" fill="#B75B00"/>
<path d="M116.682 43.2484C107.225 33.9619 88.0444 27.4614 66.0666 27.4614C43.9556 27.4614 24.775 33.8293 15.451 43.2484C24.9082 52.5348 44.0888 59.0353 66.0666 59.0353C88.0444 59.0353 107.225 52.6675 116.682 43.2484Z" fill="#984400"/>
<g style="mix-blend-mode:overlay" opacity="0.2">
<path d="M115.35 71.771C111.887 73.6283 106.559 74.557 103.629 77.0776C106.159 83.1801 117.881 67.1278 119.879 73.6283C120.811 76.4143 115.617 78.4042 114.151 80.3942C110.955 84.6394 117.481 80.6595 118.68 82.7821C119.879 84.9047 115.75 87.2927 116.949 89.9459C117.481 91.0072 119.213 90.7419 119.213 92.3339C119.346 93.7932 117.481 95.1198 116.416 96.0484C113.485 98.4364 110.155 100.692 106.825 102.814C103.762 104.804 98.1675 107.457 97.2351 110.907C106.159 112.366 112.153 100.692 120.678 102.018C122.01 110.641 108.024 111.039 105.094 117.54C108.157 118.071 113.485 114.356 116.283 113.295C119.879 111.703 122.01 109.713 124.008 106.662C124.807 105.6 126.672 103.61 126.406 102.416C126.006 100.559 123.875 100.824 123.475 99.0997C123.076 96.9771 130.535 91.0072 123.608 91.8032C122.676 88.8846 129.07 87.16 129.07 83.8434C121.344 83.5781 126.938 79.5982 126.805 75.2203C126.139 75.353 124.94 74.955 124.141 75.0876C123.475 69.7811 130.668 67.1278 130.135 61.8213C130.002 60.0967 124.008 66.0665 123.875 66.1992C121.877 68.3218 118.547 70.0464 115.35 71.771Z" fill="#D6D6D6"/>
</g>
<g style="mix-blend-mode:overlay" opacity="0.2">
<path d="M3.46315 64.4746C5.72753 67.9239 8.79109 71.1078 13.3199 73.2304C15.9838 74.4244 29.1705 77.0776 28.3713 79.4656C24.2421 79.5982 21.0454 78.4043 16.9162 78.5369C16.117 81.1902 21.9778 84.2414 24.3753 85.7007C20.2462 86.762 17.8486 87.956 22.3774 90.8746C25.4409 92.8646 30.1029 94.4565 33.8325 95.6505C36.0968 96.3138 45.2876 98.1711 43.1564 101.222C41.4248 103.743 30.6357 100.294 27.8385 99.7631C24.3753 99.0997 17.5822 98.5691 18.9142 102.814C19.9798 106.264 28.6377 107.723 32.5005 109.182C34.4985 109.978 41.9576 113.56 38.0948 115.285C34.2321 116.877 27.4389 113.162 23.443 113.825C23.5762 114.223 23.1766 114.754 23.3098 115.152C20.3794 115.285 18.2482 113.693 16.117 112.499C14.1191 111.305 11.1887 110.641 9.32389 109.315C7.32591 107.988 3.46314 103.61 3.32994 101.62C6.65991 101.355 8.65787 102.814 11.5882 103.212C13.1866 98.5691 3.72955 96.0485 4.12915 91.9359C14.1191 92.8646 2.79715 82.5168 3.99594 79.7309C5.32793 79.5982 6.92631 79.5982 7.9919 80.1289C10.5227 77.6083 6.79312 75.2203 4.79514 73.2304C2.39756 71.3731 3.46315 66.7299 3.46315 64.4746Z" fill="#D6D6D6"/>
</g>
<g style="mix-blend-mode:overlay" opacity="0.2">
<path d="M109.756 77.7407C106.293 78.9347 102.696 79.996 99.0999 81.19C96.5691 81.9859 91.9072 82.6492 90.0424 84.3739C92.8396 86.2312 96.1695 85.9658 99.4995 85.9658C101.364 85.9658 108.157 84.9045 108.557 87.4251C109.09 90.4764 101.497 92.3337 99.4995 92.997C94.7043 94.7216 98.1675 96.3136 101.098 98.0382C102.696 98.9668 103.495 99.0995 102.163 100.691C101.764 101.089 100.698 101.222 100.299 101.62C99.7659 102.283 100.032 102.947 99.4995 103.477C97.1019 105.998 91.3744 105.998 88.0444 107.723C79.5197 112.233 102.297 111.835 97.5015 116.611C95.3703 118.734 89.11 117.938 86.3128 118.203C85.5136 118.336 82.1836 118.734 81.784 119.662C80.9848 121.652 84.3148 121.785 85.5136 121.918C92.1735 122.448 98.8335 121.122 105.094 119.662C110.555 118.336 115.617 115.948 120.278 112.764C123.608 110.509 129.736 105.467 129.203 101.355C129.07 100.691 128.404 100.293 128.404 99.4975C128.404 98.4362 128.936 98.1709 129.07 97.2422C129.336 95.6503 129.07 94.8543 129.07 93.5277C129.07 92.7317 129.602 91.9357 129.602 91.1397C129.602 90.6091 129.07 90.2111 129.07 89.6804C128.936 88.3538 129.203 86.3638 129.203 84.7719C129.203 81.4553 128.27 78.802 128.537 75.4854C128.67 74.1588 130.801 69.5156 129.602 68.3216C128.27 66.995 125.34 70.3116 124.541 71.1075C120.412 74.4241 114.951 76.0161 109.756 77.7407Z" fill="#D6D6D6"/>
</g>
<g style="mix-blend-mode:overlay" opacity="0.2">
<mask id="mask0_20002_21063" style="mask-type:luminance" maskUnits="userSpaceOnUse" x="15" y="27" width="102" height="33">
<path d="M116.682 43.2484C107.225 33.9619 88.0444 27.4614 66.0666 27.4614C43.9556 27.4614 24.775 33.8293 15.451 43.2484C24.9082 52.5348 44.0888 59.0353 66.0666 59.0353C88.0444 59.0353 107.225 52.6675 116.682 43.2484Z" fill="white"/>
</mask>
<g mask="url(#mask0_20002_21063)">
<path d="M119.553 -18.5776L-5.37463 28.5793L-4.57214 30.6883L120.356 -16.4687L119.553 -18.5776Z" fill="#231C1E"/>
<path d="M123.003 -9.70942L-1.92517 37.4475L-1.12268 39.5564L123.805 -7.60052L123.003 -9.70942Z" fill="#231C1E"/>
<path d="M126.329 -0.805858L1.40137 46.3511L2.20387 48.46L127.132 1.30307L126.329 -0.805858Z" fill="#231C1E"/>
<path d="M129.778 8.06522L4.85034 55.2222L5.65284 57.3311L130.581 10.1741L129.778 8.06522Z" fill="#231C1E"/>
<path d="M133.104 16.9754L8.17615 64.1323L8.97864 66.2412L133.907 19.0843L133.104 16.9754Z" fill="#231C1E"/>
<path d="M136.553 25.8487L11.6246 73.0056L12.4271 75.1145L137.355 27.9576L136.553 25.8487Z" fill="#231C1E"/>
<path d="M139.927 34.8733L14.9994 82.0303L15.8019 84.1392L140.73 36.9822L139.927 34.8733Z" fill="#231C1E"/>
<path d="M143.376 43.7413L18.4485 90.8982L19.251 93.0071L144.179 45.8502L143.376 43.7413Z" fill="#231C1E"/>
<path d="M146.702 52.6502L21.7745 99.8071L22.577 101.916L147.505 54.7591L146.702 52.6502Z" fill="#231C1E"/>
</g>
</g>
<g style="mix-blend-mode:overlay" opacity="0.2">
<path d="M55.1443 4.51044C53.1463 4.37778 51.2815 6.10241 49.5499 6.63306C46.4864 7.82703 43.556 8.88835 40.4924 10.3476C37.8284 11.6743 35.2977 13.3989 32.9001 15.1235C31.1685 16.3175 28.7709 17.5115 27.5721 19.2361C29.5701 19.1034 31.7013 17.5114 33.6993 16.7155C36.4965 15.7868 39.6932 14.4602 42.7568 14.4602C44.6216 14.4602 45.0212 14.7255 43.6892 15.9195C42.0908 17.2461 39.6932 17.5115 38.3612 18.9708C40.0928 20.1647 44.4884 19.1034 46.6196 19.2361C46.886 20.9607 40.3592 22.6853 39.1604 23.216C35.1645 24.9406 30.6357 26.3999 26.9061 28.7878C24.775 30.1145 23.7094 32.3697 27.1725 31.0431C32.2341 29.1858 37.1624 26.6652 42.3572 25.4713C52.6135 22.9507 62.6034 21.3587 73.2593 21.226C77.5217 21.226 81.5176 22.1547 85.6468 23.216C86.9788 23.4813 92.4399 25.3386 92.9727 24.1446C90.9747 22.5527 88.444 21.624 85.9132 21.0934C82.5832 20.2974 79.2533 19.2361 76.0565 18.1748C73.7921 17.5115 66.1998 14.9909 71.9273 13.0009C76.8557 11.4089 82.1836 13.1336 86.8456 14.9909C89.2432 16.0522 91.9072 16.7155 94.4379 17.5115C95.7699 17.9094 99.3663 19.2361 100.698 18.3074C101.631 17.6441 101.364 16.3175 101.098 15.5215C100.032 13.1336 96.8355 12.6029 94.5711 12.0722C90.0424 10.8783 85.78 8.88834 81.118 7.9597C74.3249 6.63306 67.7982 5.04109 61.1382 3.44913C57.0091 2.38783 53.6791 3.05115 49.8163 4.90844L55.1443 4.51044Z" fill="#D6D6D6"/>
</g>
<g style="mix-blend-mode:overlay" opacity="0.2">
<path d="M62.6034 2.78609C65.8002 2.91876 68.9969 2.52077 72.1937 2.52077C77.9212 2.38811 83.9152 1.99013 89.2432 3.71475C93.5055 5.04138 97.5015 7.29665 101.631 8.88861C106.559 10.7459 110.289 13.9298 113.352 18.175C114.151 19.2364 114.551 20.563 115.217 21.6243C112.02 21.359 108.424 17.7771 104.961 18.573C105.493 20.165 107.891 20.4303 106.293 22.2876C105.893 22.8183 104.827 22.8183 104.561 23.6142C104.295 24.8082 105.493 25.3389 106.293 25.8695C108.69 27.7268 110.955 29.4514 113.086 31.7067C114.018 32.6353 117.215 34.36 116.282 36.0846C115.617 37.2786 113.352 36.8806 112.287 36.6152C110.155 35.9519 108.157 35.0233 106.026 34.4926C101.364 33.166 96.8355 32.37 92.1735 30.7781C88.0443 29.3188 83.782 27.8595 79.2533 27.4615C69.6629 26.6655 60.2058 25.4715 50.4823 26.9308C45.6871 27.5941 41.558 27.9921 37.0292 29.7167C32.7669 31.176 28.5045 33.166 24.5085 35.0233C22.777 35.8193 14.119 40.9931 15.0514 36.2173C15.451 34.36 17.5822 33.2987 18.6478 31.7067C19.0474 30.9107 19.5802 29.7168 19.0474 28.9208C17.5822 26.6655 13.0534 31.4414 10.5227 30.9107C10.2563 27.3288 12.787 25.0735 15.0514 22.5529C16.2502 21.2263 17.3158 20.0323 18.6478 18.8384C19.447 18.0424 21.445 16.8484 21.1786 15.5218C20.6458 15.5218 20.5126 15.2564 20.113 15.1238C21.3118 13.1338 25.8405 11.2766 27.9717 10.3479C31.0353 9.02128 34.0989 8.35796 37.2956 7.8273C42.0908 7.03132 46.3531 4.77604 51.0151 3.44941C54.7447 2.12278 58.8738 2.52077 62.6034 2.78609Z" fill="#D6D6D6"/>
</g>
<g style="mix-blend-mode:overlay" opacity="0.2">
<mask id="mask1_20002_21063" style="mask-type:luminance" maskUnits="userSpaceOnUse" x="9" y="1" width="114" height="59">
<path d="M66.0666 59.0351C97.4783 59.0351 122.942 46.0869 122.942 30.1145C122.942 14.142 97.4783 1.19385 66.0666 1.19385C34.6549 1.19385 9.19067 14.142 9.19067 30.1145C9.19067 46.0869 34.6549 59.0351 66.0666 59.0351Z" fill="white"/>
</mask>
<g mask="url(#mask1_20002_21063)">
<path opacity="0.5" d="M51.2815 48.8201C49.4167 50.0141 42.4903 54.1266 39.0272 53.198C39.2936 52.402 39.2936 51.3407 39.9596 50.5447C37.2956 50.2794 28.3713 52.9327 28.6377 48.2895C25.9737 46.8302 22.3773 47.8915 19.5801 46.6975C17.7153 45.9015 13.1866 43.1156 16.117 40.993C9.32385 37.4111 10.6558 28.788 16.9162 24.8081C23.5761 20.6955 32.9 19.5015 40.4924 20.2975C40.4924 20.5628 40.6256 20.9608 40.6256 21.2262C44.0887 21.4915 47.2855 20.9608 50.6155 20.8282C52.8798 20.6955 60.4722 20.0322 57.4086 24.1447C64.7345 24.9407 71.9273 23.0834 79.2532 23.7468C77.3884 27.8593 71.1281 25.8694 69.2633 29.3186C67.2653 32.9005 74.458 34.8905 73.6588 38.605C80.7184 41.6563 91.9071 37.6764 98.9666 35.8191C102.43 34.8905 105.36 33.9618 109.09 34.3598C110.688 34.4925 119.746 36.6151 115.883 38.8704C116.682 39.6664 117.082 40.0643 118.547 39.9317C119.346 44.0442 105.76 45.1056 102.829 46.0342C96.9686 47.8915 91.2411 50.6774 85.3804 52.8C78.8536 55.188 71.1281 55.586 64.6013 56.7799C61.1382 57.3106 58.6074 57.7086 55.9434 55.188C54.6114 53.994 54.345 52.004 52.7467 51.2081C51.2815 50.5447 48.2179 51.0754 46.4863 51.0754L51.2815 48.8201Z" fill="#AC7900"/>
</g>
</g>
<mask id="mask2_20002_21063" style="mask-type:luminance" maskUnits="userSpaceOnUse" x="9" y="1" width="114" height="59">
<path d="M66.0666 59.0351C97.4783 59.0351 122.942 46.0869 122.942 30.1145C122.942 14.142 97.4783 1.19385 66.0666 1.19385C34.6549 1.19385 9.19067 14.142 9.19067 30.1145C9.19067 46.0869 34.6549 59.0351 66.0666 59.0351Z" fill="white"/>
</mask>
<g mask="url(#mask2_20002_21063)">
<path d="M59.9395 26.0019C58.0747 23.216 56.0767 21.624 53.1464 20.0321C52.0808 19.5014 50.882 19.2361 49.6832 18.8381C48.4844 18.3075 47.1524 17.5115 45.8204 17.5115C45.0212 17.5115 43.9556 18.0421 43.1565 18.4401C42.6237 18.7054 42.3573 18.9708 41.6913 18.9708C40.7589 18.8381 41.1585 18.7054 40.4925 18.1748C39.5601 17.5115 39.0273 17.7768 38.0949 18.5728C37.5621 18.9708 37.6953 19.3688 36.8961 19.3688C36.2301 19.3688 35.6973 18.8381 35.0313 18.5728C33.9657 18.3075 32.767 18.8381 31.8346 19.1034C30.2362 19.5014 26.3734 20.1647 25.7074 22.022C25.8406 22.022 25.9738 22.022 25.9738 22.022C25.9738 22.42 23.8426 23.216 23.3098 23.614C20.7791 25.3386 16.5167 27.7265 15.8507 31.0431C15.5843 32.3698 15.7175 33.8291 15.7175 35.2884C15.7175 37.411 15.7175 39.4009 16.9163 41.2582C17.7155 42.4522 19.0475 43.5135 19.9799 44.4421C20.5127 44.8401 21.0455 45.3708 21.7114 45.7688C22.777 46.2994 23.7094 46.2994 24.9082 46.5647C26.2402 46.8301 27.1726 47.7587 28.3714 48.2894C30.3694 49.218 32.5006 49.3507 34.4985 49.8813C39.5601 51.0753 45.8204 53.1979 50.882 50.6773C53.1463 49.4833 54.6115 47.2281 56.3431 45.3708C58.3411 43.1155 59.9395 40.4622 60.8719 37.6763C62.3371 33.6964 62.2039 29.4512 59.9395 26.0019Z" fill="#E1B973"/>
<g style="mix-blend-mode:overlay" opacity="0.2">
<path d="M30.6358 28.1246C29.7034 29.3186 28.2382 29.7166 26.9062 30.6452C25.441 31.8392 24.2422 33.2985 23.4431 35.0231C22.3775 37.2784 21.7114 40.993 24.2422 42.3196C24.6418 41.6563 24.3754 40.4623 24.3754 39.799C24.3754 38.605 24.3754 37.6764 24.6418 36.4824C25.0414 34.6251 25.8406 32.7678 27.439 31.8392C28.771 30.9105 30.103 31.1759 31.0354 29.7166C31.435 29.1859 31.7014 28.6553 32.101 27.9919C32.3674 27.4613 32.5005 26.5327 32.9001 26.2673L30.6358 28.1246Z" fill="white"/>
</g>
<g style="mix-blend-mode:overlay" opacity="0.2">
<path d="M36.4964 29.0532C36.4964 32.7677 34.232 35.6863 34.232 39.4009C34.232 41.5235 34.0989 43.5135 34.6317 45.5034C35.0313 46.8301 35.1645 48.422 36.7628 48.422C35.8305 48.9527 33.5661 47.8914 32.7669 47.4934C32.2341 47.2281 31.4349 46.9627 30.9021 46.5647C30.3693 46.1667 30.1029 45.3708 29.5701 44.9728C28.7709 46.1667 27.8385 44.0441 27.8385 43.3808C27.7053 41.6562 27.9717 39.6662 28.5045 38.0743C29.3037 35.819 29.5701 33.2984 31.8345 32.1044C32.1009 32.6351 31.7013 34.227 32.2341 34.625C32.9 35.023 33.4328 33.5637 33.566 33.0331C34.0988 31.5738 34.6316 30.1145 35.564 28.7878L36.4964 29.0532Z" fill="white"/>
</g>
<g style="mix-blend-mode:overlay" opacity="0.2">
<path d="M51.1483 33.6965C51.4147 34.2272 51.6811 34.6252 51.8143 35.2885C52.7467 38.0744 53.2795 40.4623 53.0131 43.3809C52.7467 43.1156 52.4803 42.7176 52.0807 42.585C51.6812 43.6463 52.0807 48.5548 49.6831 48.0242C49.5499 46.6975 49.8164 45.5036 49.8164 44.1769C49.8164 43.6463 49.9495 42.8503 49.5499 42.4523C48.8839 41.789 48.884 42.4523 48.3512 42.8503C46.886 43.9116 46.6196 42.7176 46.6196 41.2583C46.6196 39.6664 46.7528 37.8091 45.1544 36.8804C44.4884 36.6151 44.0888 36.4824 43.6892 35.9518C43.2896 35.1558 43.2896 34.0945 43.0232 33.2985C42.7568 32.1046 41.9576 31.0433 41.6912 29.8493C41.558 29.3186 40.6256 27.4613 41.0252 27.0633C41.558 26.5327 41.9576 27.196 42.224 27.7267C42.6236 28.39 44.222 30.2473 44.0888 28.2573C44.0888 27.8593 43.4228 27.196 43.9556 26.798C44.6216 26.4 46.7528 28.9206 47.1524 29.4513C48.6176 30.6453 50.216 31.9719 51.1483 33.6965Z" fill="white"/>
</g>
<g style="mix-blend-mode:overlay" opacity="0.2">
<path d="M50.4824 25.604C52.0808 26.002 53.546 27.9919 54.6116 29.1859C55.8104 30.6452 56.6096 32.2372 57.1424 34.0945C57.4088 35.0231 58.3412 38.0744 58.6076 35.4211C58.7408 33.9618 57.0092 32.3698 57.4088 31.1759C57.9416 29.3186 59.4067 32.5025 60.2059 32.5025C61.5379 32.3698 59.8064 29.5839 59.4068 29.0532C58.874 28.3899 58.208 27.9919 57.8084 27.3286C57.542 26.9306 57.4087 26.9306 57.5419 26.4C57.6751 26.002 58.0747 25.8693 58.2079 25.604C58.3411 24.6754 56.21 23.2161 55.544 22.8181C54.0788 22.0221 52.214 21.0935 50.6156 20.8281C50.216 22.0221 52.4804 22.5528 53.1464 23.2161C54.878 25.0734 51.548 24.1447 50.7488 24.41C50.7488 24.6754 50.6156 24.9407 50.6156 25.0733V25.604H50.4824Z" fill="white"/>
</g>
<g style="mix-blend-mode:overlay" opacity="0.2">
<path d="M32.767 19.8994C32.101 19.8994 31.7014 19.6341 31.0354 19.8994C30.5026 20.0321 29.8366 20.1647 29.3038 20.4301C28.2382 20.8281 27.3058 21.4914 26.3734 22.022C24.5086 23.0833 22.6439 24.012 21.1787 25.7366C20.5127 26.5326 19.7135 27.7265 19.4471 28.6552C19.3139 29.3185 19.5803 29.5838 19.4471 30.1145C19.3139 30.6451 18.7811 31.1758 18.5147 31.7064C17.3159 33.6964 16.3835 36.217 16.5167 38.6049C16.6499 39.9316 17.3159 41.3909 18.1151 42.5848C18.6479 43.3808 20.2463 45.1055 21.3119 44.8401C21.5783 43.6462 20.3795 42.4522 19.9799 41.3909C19.4471 40.3296 19.3139 39.0029 19.3139 37.809C19.4471 35.1557 20.3795 32.3698 21.9779 30.1145C23.5763 27.8592 25.1747 26.5326 27.439 25.0733C27.8386 24.808 28.3714 24.5426 28.771 24.1446C29.1706 23.614 29.0374 22.9507 29.437 22.5527C30.103 21.7567 31.435 21.8894 32.2342 21.0934C32.6338 20.6954 32.767 20.2974 33.1666 20.0321H32.767V19.8994Z" fill="white"/>
</g>
<g style="mix-blend-mode:overlay" opacity="0.2">
<path d="M44.6216 18.8384C45.4208 20.4303 44.222 20.4303 43.9556 21.757C44.6216 21.8896 45.0211 21.4916 45.5539 21.359C45.9535 22.4203 44.888 22.5529 44.7548 23.3489C46.6196 23.3489 47.4187 21.4917 45.8203 20.2977L44.6216 18.8384Z" fill="white"/>
</g>
<g style="mix-blend-mode:overlay" opacity="0.2">
<path d="M42.4904 22.4198C40.892 22.1545 39.8264 22.8178 38.3612 22.1545C37.2956 21.7565 35.8305 20.9605 34.7649 21.3585C33.5661 21.7565 32.6337 22.8178 31.5681 23.3484C30.1029 24.0117 29.1705 24.8077 27.9717 25.869C25.5742 27.9916 22.5106 29.4509 20.779 32.2369C19.1806 34.6248 18.3814 38.2067 19.3138 40.9926C19.5802 41.9213 20.3794 43.2479 21.3118 43.6459C21.7114 40.5947 20.2462 37.6761 21.7114 34.8901C23.0434 32.3695 25.0414 29.7163 27.4389 27.9916C29.8365 26.267 31.9677 24.4097 34.7649 23.7464C36.3633 23.3484 37.1625 24.4097 38.7608 24.4097C40.0928 24.4097 41.2916 23.6138 42.3572 22.9504C43.0232 22.5525 43.6892 22.2871 44.4884 22.6851L42.4904 22.4198Z" fill="#D6D6D6"/>
</g>
<g style="mix-blend-mode:overlay" opacity="0.2">
<path d="M48.6176 25.6039C49.8164 26.6652 51.1484 27.5938 52.0808 28.7878C54.8779 31.9717 56.3431 35.9516 54.6115 40.0642C54.0787 39.2682 54.3451 37.2783 54.0787 36.217C53.6791 34.8903 53.2795 33.431 52.6136 32.2371C51.1484 29.9818 48.7508 28.2572 46.6196 26.6652C45.0212 25.4712 42.7568 24.8079 40.7589 24.9406C39.2937 25.0732 39.2936 24.1446 38.2281 23.7466C37.1625 23.3486 35.2977 24.4099 34.6317 23.0833C36.0969 22.42 37.8285 23.216 39.2937 23.216C41.1585 23.216 41.8245 22.5526 43.4228 23.4813C45.2876 24.1446 47.2856 24.2773 48.6176 25.6039Z" fill="#D6D6D6"/>
</g>
<g style="mix-blend-mode:overlay" opacity="0.2">
<path d="M35.0313 21.6242C36.7628 23.7468 41.2916 20.6955 43.1564 20.0322C44.6216 19.5016 45.554 18.7056 47.2856 18.9709C48.6175 19.1036 50.3491 19.3689 51.4147 20.4302C49.9495 19.8995 40.892 18.8382 41.9576 22.5528C43.6892 23.4815 46.3531 22.1548 48.2179 22.4202C49.5499 22.5528 52.8799 23.4815 53.6791 24.6754C52.8799 24.8081 52.2139 24.1448 51.5479 23.8795C50.7487 23.6141 50.0827 23.6141 49.1503 23.6141C47.4188 23.6141 45.6872 23.2161 43.9556 23.2161C42.224 23.2161 40.4924 23.3488 38.7608 23.2161C37.1625 23.0835 35.8304 22.2875 34.2321 22.1548L35.0313 21.6242Z" fill="#D6D6D6"/>
</g>
<g style="mix-blend-mode:overlay" opacity="0.2">
<path d="M35.8305 19.8995C35.6973 20.8281 37.6953 21.2261 37.5621 22.4201C36.8961 22.8181 35.6973 22.1547 34.8981 22.0221C33.8325 21.8894 32.9001 22.2874 31.9677 22.4201C30.3693 22.6854 27.5722 22.5528 26.6398 24.2774C27.8386 24.2774 29.1705 23.614 30.3693 23.7467C30.2361 24.5427 27.9718 25.7367 27.1726 26.4C26.2402 27.3286 24.5086 28.3899 24.109 29.5839C26.6398 29.4512 29.3038 26.6653 31.3017 25.206C32.3673 24.41 33.2997 23.4814 34.6317 23.2161C35.6973 23.0834 38.0949 23.2161 37.6953 24.808C37.2957 26.2673 35.1645 26.4 34.2321 27.196C33.1665 28.1246 33.0333 29.5839 31.7013 30.3799C29.4369 31.7065 26.107 34.7578 26.9062 37.9417C27.9717 38.207 28.9042 36.3497 29.437 35.6864C30.3694 34.6251 31.4349 33.5638 32.5005 32.6352C33.2997 31.8392 34.0989 31.0432 34.8981 30.1146C35.6973 29.1859 36.0969 28.1246 36.8961 27.0633C37.2957 26.4 38.7609 24.5427 39.4269 25.4713C39.8265 26.1347 39.4269 28.1246 39.2937 28.7879C38.8941 31.9718 38.0949 35.9517 39.2937 39.003C40.0929 38.605 39.6932 37.1457 39.8264 36.3497C39.9596 35.0231 39.9597 33.8291 39.9597 32.6352C39.9597 30.9105 39.9597 29.1859 40.0929 27.4613C40.2261 25.7367 40.0928 24.012 42.4904 24.41C43.9556 24.6754 44.6216 26.2673 45.9536 26.798C45.8204 26.002 45.0212 25.604 44.7548 24.9407C45.9536 24.6754 46.7528 26.002 47.8184 26.002C47.6852 24.6754 44.6216 24.1447 43.6892 24.1447C41.9576 24.012 40.4924 24.41 39.56 22.8181C39.1604 22.1548 39.0273 21.4914 38.4945 20.9608C37.9617 20.6955 35.9637 19.3688 35.8305 19.8995Z" fill="#D6D6D6"/>
</g>
<g style="mix-blend-mode:overlay" opacity="0.2">
<path d="M40.3591 24.1447C41.0251 24.9407 41.8243 25.7366 42.2239 26.6653C42.6235 27.5939 42.7567 29.0532 43.8223 29.5839C44.0887 28.2572 43.2895 27.7266 42.7567 26.5326C41.9576 24.808 42.8899 24.6753 44.4883 24.5427C47.4187 24.41 49.5499 25.604 52.2138 26.5326C52.0806 24.41 48.4843 24.6753 47.0191 24.41C46.0867 24.2773 45.2875 24.012 44.3551 24.012C43.4227 24.012 42.2239 24.2773 41.5579 23.7467C41.4247 22.6854 42.8899 22.1547 43.6891 21.7567C44.2219 21.4914 46.4863 20.4301 45.1543 20.0321C44.3551 19.7668 42.8899 21.0934 42.2239 21.4914C41.0251 22.1547 40.3591 22.5527 39.0272 22.6854C37.9616 22.818 36.7628 22.818 35.6972 23.0834C34.7648 23.3487 33.9656 24.1447 33.1664 24.808C31.8344 25.8693 27.4389 28.1246 27.5721 30.1145C28.7708 30.5125 30.3692 27.9919 31.1684 27.1959C32.234 26.2673 33.4328 25.4713 34.7648 24.6753C35.6972 24.1447 36.4964 23.216 37.562 23.0834C38.894 22.9507 40.226 24.012 40.0928 25.3386C40.892 25.4713 41.1583 23.8793 41.8243 24.6753L40.3591 24.1447Z" fill="#D6D6D6"/>
</g>
<g style="mix-blend-mode:overlay" opacity="0.2">
<path d="M43.9557 26.2673C43.9557 27.992 44.8881 28.7879 45.8205 30.2472C46.3532 31.0432 48.0848 34.2271 47.2856 35.1558C45.9537 36.7477 44.2221 32.9005 43.8225 32.2372C43.2897 31.4412 42.4905 30.9105 41.9577 30.1146C41.4249 29.4512 41.4249 28.5226 40.8921 27.8593C39.8265 29.3186 41.1585 33.0331 41.4249 34.6251C41.8245 37.2784 41.8245 40.197 41.8245 42.9829C41.8245 43.7789 41.4249 49.7487 43.1565 49.2181C44.4885 48.8201 43.6893 41.3909 43.9557 40.3296C45.5541 40.3296 45.8205 44.0442 45.9537 45.1055C45.9537 45.7688 45.6873 46.9628 46.0869 47.4935C46.8861 48.5548 47.0192 46.9628 47.6852 46.9628C47.8184 48.1568 47.4188 49.3507 47.552 50.5447C49.0172 50.1467 49.2836 48.0241 49.55 46.8302C49.6832 45.9015 49.8164 42.4522 51.1484 42.9829C52.0808 43.5136 51.548 47.0955 52.6136 46.6975C53.546 46.2995 53.1464 43.1156 53.1464 42.3196C53.1464 39.1357 52.88 36.6151 51.548 33.6965C50.4824 31.4412 48.6176 28.7879 46.7529 27.0633C46.3533 26.798 45.9536 26.5327 45.6872 26.2673H43.9557Z" fill="white"/>
</g>
<g style="mix-blend-mode:overlay" opacity="0.2">
<path d="M34.2321 29.8494C33.2998 31.0433 31.7014 33.1659 32.101 34.8906C33.1666 33.4313 33.5662 30.38 35.431 29.584C35.6974 31.574 34.8981 33.4313 34.3654 35.2885C33.9658 36.6152 32.3674 41.6564 34.8981 42.0544C36.0969 40.0644 35.8306 36.7478 36.097 34.6252C36.2302 33.8292 36.2302 32.37 36.6297 31.7066C37.2957 30.778 37.2957 31.574 37.8285 32.2373C38.4945 31.176 38.2281 29.8493 38.3613 28.6554C38.4945 27.5941 39.4269 25.6041 37.5621 26.2675C36.2301 26.6654 35.1645 28.7881 34.2321 29.8494Z" fill="white"/>
</g>
<g style="mix-blend-mode:overlay" opacity="0.2">
<path d="M30.6357 27.5939C29.8365 28.1246 29.1705 28.7879 28.5045 29.5839C27.9717 30.2472 27.3057 31.8392 26.3733 31.7065C25.441 29.8492 28.3714 27.8593 29.4369 26.798C30.5025 25.7367 33.6993 24.2773 33.6993 22.6854C32.7669 22.5527 31.8345 23.4814 31.1685 24.1447C30.2361 24.9407 29.3037 25.604 28.2381 26.2673C26.6397 27.3286 25.1746 28.7879 23.8426 30.1145C22.111 31.8392 21.0454 33.5638 20.5126 35.8191C20.3794 36.6151 20.113 39.003 21.3118 37.9417C22.111 37.2784 22.111 35.8191 23.1766 35.2884C23.3098 36.615 22.9102 37.6764 23.0434 39.003C23.1766 40.197 24.3754 42.0542 24.6418 39.9316C24.775 38.4723 24.775 37.2784 25.441 35.9517C26.107 34.7578 27.1726 33.8291 28.105 32.9005C29.7033 31.1759 31.5681 29.7165 33.1665 27.9919C33.6993 27.3286 34.0989 26.5326 34.7649 26.002C35.4309 25.4713 36.0969 25.4713 36.7629 25.0733C34.7649 23.614 32.1009 26.5326 30.6357 27.5939Z" fill="white"/>
</g>
<g style="mix-blend-mode:overlay" opacity="0.2">
<path d="M35.0313 19.7669C33.9657 19.2363 33.2997 19.2363 32.2341 19.6343C31.3017 20.0323 27.9718 21.2262 28.105 22.2876C29.4369 22.5529 31.1685 21.7569 32.6337 21.7569C33.4329 21.7569 36.0969 23.0835 36.6297 22.2876C37.1625 21.3589 35.6973 20.0323 35.0313 19.7669Z" fill="white"/>
</g>
<g style="mix-blend-mode:overlay" opacity="0.2">
<path d="M38.2281 21.0931C38.4945 21.8891 39.2937 21.4911 39.5601 22.5524C40.226 22.5524 39.9597 21.8891 40.3593 21.4911C40.7588 21.2258 41.4249 21.2258 41.8244 20.9605C42.4904 20.5625 44.0888 19.5012 44.222 18.8378C42.6236 18.4398 41.9576 20.8278 40.4925 20.5625C40.2261 20.5625 40.7588 18.9705 39.5601 19.1032C38.8941 19.1032 38.0949 20.4298 38.2281 21.0931Z" fill="white"/>
</g>
<g style="mix-blend-mode:overlay" opacity="0.2">
<path d="M50.3492 20.6955C50.4824 20.6955 50.6156 20.6955 50.6156 20.6955C49.2837 20.1648 47.1525 20.1648 45.5541 20.4301C44.7549 20.5628 41.6913 21.6241 41.5581 22.6854C43.9557 22.9507 46.3533 22.1548 48.7509 22.1548C50.4825 22.1548 53.4128 22.8181 53.9456 24.808C52.88 25.4714 50.882 24.6754 49.8164 24.2774C48.4845 23.8794 47.1525 23.6141 45.8205 23.3487C45.1545 23.2161 42.0909 22.6854 42.2241 23.7467C42.3573 24.6754 45.2877 25.0734 45.9537 25.206C48.3513 25.7367 51.0153 26.6653 52.7468 28.6553C53.546 29.4512 53.6792 30.5126 54.212 31.4412C54.878 32.5025 56.21 33.2985 57.4088 33.5638C57.6752 32.6352 56.7428 31.1759 56.3432 30.3799C55.9436 29.4512 55.544 28.5226 55.544 27.4613C56.4764 27.196 58.6076 29.4513 59.2736 28.5226C60.0728 27.4613 57.1424 25.604 56.6096 25.0734C55.544 24.2774 54.7448 23.0834 53.546 22.5528C52.88 22.1548 52.214 21.8894 51.548 21.4915C51.0152 21.2261 50.6157 20.6955 50.0829 20.4301V20.6955H50.3492Z" fill="white"/>
</g>
<g style="mix-blend-mode:overlay" opacity="0.2">
<path d="M43.4228 27.1959C43.8224 27.7265 44.6216 29.7165 43.1564 29.3185C42.0908 29.0532 41.2916 23.216 40.226 26.1346C39.8264 27.1959 40.3592 27.9919 40.3592 29.0532C40.4924 30.1145 40.3592 31.1758 40.3592 32.2371C40.3592 34.227 40.3592 37.4109 41.558 39.0029C43.2896 38.0743 41.0252 33.829 42.4904 32.3697C44.0888 30.7778 44.7548 35.819 46.6196 35.421C47.2856 33.829 45.8204 32.3697 45.6872 30.7778C45.554 28.9205 46.8859 28.6552 48.3511 29.4512C49.5499 30.1145 50.4823 31.3084 51.1483 32.5024C51.4147 32.9004 52.6135 35.6863 53.1463 35.6863C54.4783 35.819 53.1463 32.7677 52.8799 32.3697C52.2139 31.0431 51.2815 29.8491 50.2159 28.7878C49.2835 27.8592 48.0847 27.1959 47.1524 26.2672C46.22 25.3386 44.7548 24.2773 43.2896 24.5426C41.558 25.0733 42.7568 26.2672 43.4228 27.1959Z" fill="white"/>
</g>
<g style="mix-blend-mode:overlay" opacity="0.2">
<path d="M34.8981 28.9206C33.9658 30.2472 32.3674 31.8392 32.6338 33.5638C33.8326 33.4311 34.099 30.3799 35.431 30.2472C35.5642 31.5739 35.0314 32.3698 34.765 33.6965C34.4986 34.7578 34.6318 36.0844 34.6318 37.2784C34.6318 37.809 34.4986 40.4623 35.1646 40.5949C35.8306 40.5949 36.3633 37.9417 36.3633 37.5437C36.6297 35.2884 36.6297 32.6352 37.5621 30.5125C38.0949 29.4512 40.4925 26.6653 38.6277 25.7367C37.0293 24.6753 35.5641 27.9919 34.8981 28.9206Z" fill="white"/>
</g>
</g>
<mask id="mask3_20002_21063" style="mask-type:luminance" maskUnits="userSpaceOnUse" x="9" y="1" width="114" height="59">
<path d="M66.0666 59.0351C97.4783 59.0351 122.942 46.0869 122.942 30.1145C122.942 14.142 97.4783 1.19385 66.0666 1.19385C34.6549 1.19385 9.19067 14.142 9.19067 30.1145C9.19067 46.0869 34.6549 59.0351 66.0666 59.0351Z" fill="white"/>
</mask>
<g mask="url(#mask3_20002_21063)">
<g style="mix-blend-mode:overlay" opacity="0.2">
<path d="M57.9415 43.7789C55.2775 47.7588 49.5499 48.2895 45.5539 49.3508C42.6236 50.1468 41.6912 50.8101 38.6276 49.4835C35.9637 48.2895 34.3653 48.2895 31.4349 47.4935C30.1029 47.0955 25.5741 45.5036 24.6418 44.8403C22.2442 43.1156 23.7093 40.8603 26.2401 40.4624C26.6397 41.9217 26.5065 44.1769 27.9717 44.9729C30.3693 46.2995 30.6357 43.7789 32.5005 43.6463C34.7649 43.5136 35.0312 46.0342 37.0292 44.8403C38.7608 43.7789 37.6952 40.7277 38.0948 39.1357C39.8264 33.0332 41.1584 42.187 42.7568 43.5136C47.8184 47.4935 47.5519 39.0031 47.8183 36.4825C48.8839 37.0131 49.6831 37.9418 50.0827 39.1357C53.0131 38.8704 50.4823 31.0432 50.6155 28.6553C51.2815 28.5226 51.5479 28.5226 52.0807 28.6553C52.6135 29.9819 54.6115 36.4825 56.6095 34.2272C58.2078 32.3699 54.0787 28.6553 54.4783 26.4C55.5439 26.5327 56.7426 27.196 57.675 27.992C57.2754 27.594 55.8103 24.5427 55.1443 23.7468C58.341 23.6141 61.671 29.0533 61.9374 31.9719C62.6034 35.9518 60.2058 40.595 57.9415 43.7789Z" fill="#D6D6D6"/>
</g>
</g>
<mask id="mask4_20002_21063" style="mask-type:luminance" maskUnits="userSpaceOnUse" x="9" y="1" width="114" height="59">
<path d="M66.0666 59.0351C97.4783 59.0351 122.942 46.0869 122.942 30.1145C122.942 14.142 97.4783 1.19385 66.0666 1.19385C34.6549 1.19385 9.19067 14.142 9.19067 30.1145C9.19067 46.0869 34.6549 59.0351 66.0666 59.0351Z" fill="white"/>
</mask>
<g mask="url(#mask4_20002_21063)">
<path d="M68.997 25.8696C70.7286 23.2163 72.7266 21.6244 75.5238 20.1651C76.5893 19.6344 77.7881 19.5018 78.8537 18.9711C80.0525 18.4405 81.2513 17.6445 82.5833 17.7771C83.3825 17.7771 84.4481 18.3078 85.1141 18.7058C85.6469 18.9711 85.9133 19.2364 86.5793 19.2364C87.5117 19.1038 87.1121 18.9711 87.7781 18.4404C88.7105 17.7771 89.2432 18.0425 90.1756 18.8384C90.7084 19.2364 90.5753 19.6344 91.3744 19.6344C92.0404 19.6344 92.44 19.1038 93.106 18.9711C94.1716 18.7058 95.2372 19.2364 96.1696 19.5018C97.768 19.8998 101.364 20.5631 102.03 22.2877C101.897 22.2877 101.764 22.2877 101.764 22.2877C101.764 22.6857 103.762 23.349 104.295 23.747C106.692 25.3389 110.821 27.7269 111.354 30.9108C111.621 32.2374 111.487 33.5641 111.487 34.8907C111.487 36.8807 111.487 38.8706 110.289 40.5952C109.489 41.6565 108.291 42.7178 107.225 43.6465C106.692 44.0445 106.159 44.5751 105.493 44.8405C104.561 45.3711 103.496 45.3711 102.43 45.5038C101.231 45.7691 100.299 46.5651 99.1 47.0957C97.2352 47.8917 95.104 48.157 93.106 48.555C88.1777 49.749 82.1837 51.7389 77.3886 49.351C75.1242 48.2897 73.7922 46.0344 72.1938 44.3098C70.329 42.1872 68.7306 39.6666 67.7982 36.8807C66.7327 33.1661 66.8658 29.1862 68.997 25.8696Z" fill="#E1B973"/>
<g style="mix-blend-mode:overlay" opacity="0.2">
<path d="M97.2352 27.8595C98.1676 29.0535 99.6328 29.4515 100.698 30.2474C102.164 31.3087 103.229 32.9007 104.028 34.4927C104.961 36.6153 105.76 40.1972 103.229 41.5238C102.83 40.9932 103.096 39.7992 103.096 39.1359C103.096 38.0746 103.096 37.0133 102.83 35.9519C102.43 34.2273 101.631 32.37 100.166 31.4414C98.8336 30.6454 97.5016 30.7781 96.7024 29.3188C96.436 28.7881 96.0364 28.2575 95.77 27.7268C95.5036 27.1962 95.3704 26.2675 95.104 26.0022L97.2352 27.8595Z" fill="white"/>
</g>
<g style="mix-blend-mode:overlay" opacity="0.2">
<path d="M91.6409 28.7882C91.6409 32.3701 93.7721 35.156 93.7721 38.7379C93.7721 40.7279 93.9053 42.7178 93.3725 44.5751C93.1061 45.9018 92.8397 47.3611 91.3745 47.3611C92.3069 47.8917 94.4381 46.8304 95.2373 46.4324C95.7701 46.1671 96.5692 45.9018 97.102 45.6364C97.6348 45.2384 97.9012 44.4425 98.434 44.0445C99.2332 45.2384 100.032 43.1158 100.166 42.5852C100.299 40.8605 100.032 39.1359 99.4996 37.544C98.7004 35.4214 98.434 32.9008 96.3028 31.8394C96.0364 32.3701 96.4361 33.8294 95.9033 34.2274C95.2373 34.6254 94.8377 33.1661 94.5713 32.7681C94.0385 31.3088 93.6389 29.9822 92.7065 28.6555L91.6409 28.7882Z" fill="white"/>
</g>
<g style="mix-blend-mode:overlay" opacity="0.2">
<path d="M77.3886 33.1655C77.1222 33.5635 76.8558 34.0942 76.7226 34.6248C75.7902 37.2781 75.2574 39.666 75.5238 42.452C75.7902 42.3193 76.0566 41.9213 76.4562 41.7887C76.8558 42.85 76.4562 47.4932 78.7206 47.0952C78.8538 45.7686 78.5874 44.5746 78.5874 43.3806C78.5874 42.9826 78.4541 42.054 78.8537 41.656C79.5197 40.9927 79.5198 41.656 80.0526 42.054C81.5178 43.1153 81.7841 41.9213 81.7841 40.462C81.7841 38.8701 81.6509 37.1454 83.2493 36.3494C83.7821 36.0841 84.3149 36.0841 84.7145 35.4208C85.1141 34.7575 85.1141 33.6962 85.3805 32.9002C85.6469 31.8389 86.3129 30.7776 86.5793 29.5836C86.7125 29.053 87.6449 27.3284 87.2453 26.9304C86.7125 26.3997 86.4461 27.063 86.0465 27.5937C85.6469 28.257 84.0485 29.9816 84.1817 27.9917C84.1817 27.5937 84.8477 26.9303 84.3149 26.665C83.6489 26.267 81.6509 28.7876 81.2513 29.1856C79.9194 30.3796 78.4542 31.5736 77.3886 33.1655Z" fill="white"/>
</g>
<g style="mix-blend-mode:overlay" opacity="0.2">
<path d="M78.0546 25.471C76.5894 25.869 74.991 27.859 74.0586 28.9203C72.8598 30.3796 72.1938 31.8389 71.661 33.5635C71.3946 34.4922 70.5954 37.4107 70.329 34.7575C70.1958 33.4308 71.9274 31.8389 71.5278 30.6449C70.995 28.9203 69.5299 31.9715 68.7307 31.8389C67.3987 31.7062 69.1302 29.053 69.5298 28.5223C70.0626 27.9916 70.7286 27.461 70.995 26.7977C71.2614 26.3997 71.3946 26.3997 71.2614 25.869C71.1282 25.471 70.7286 25.3384 70.7286 25.073C70.5954 24.1444 72.5934 22.8178 73.2594 22.4198C74.5914 21.6238 76.4562 20.6952 77.9214 20.5625C78.321 21.7565 76.1898 22.2871 75.5238 22.9504C73.7922 24.6751 77.1222 23.8791 77.7882 24.0117C77.7882 24.2771 77.9214 24.5424 77.9214 24.5424V25.471H78.0546Z" fill="white"/>
</g>
<g style="mix-blend-mode:overlay" opacity="0.2">
<path d="M95.104 20.0321C95.77 20.0321 96.1696 19.8994 96.8356 20.0321C97.3684 20.1648 97.9012 20.2974 98.5672 20.5628C99.6328 20.9608 100.565 21.6241 101.364 22.1547C103.229 23.216 104.961 24.012 106.426 25.7366C107.092 26.4 107.891 27.5939 108.024 28.5226C108.158 29.0532 107.891 29.4512 108.024 29.9819C108.158 30.5125 108.69 31.0432 108.957 31.4412C110.155 33.2984 110.955 35.819 110.821 38.0743C110.688 39.401 110.022 40.7276 109.356 41.9216C108.823 42.7175 107.358 44.3095 106.293 44.1768C106.026 42.9829 107.225 41.9216 107.625 40.8603C108.157 39.799 108.291 38.605 108.291 37.411C108.157 34.8904 107.225 32.2371 105.76 29.9819C104.295 27.8592 102.696 26.5326 100.565 25.206C100.166 24.9407 99.6328 24.6753 99.3664 24.2773C98.9668 23.8794 99.1 23.0834 98.7004 22.818C98.0344 22.0221 96.8356 22.1547 96.0364 21.4914C95.77 21.0934 95.5036 20.6954 95.104 20.4301V20.0321Z" fill="white"/>
</g>
<g style="mix-blend-mode:overlay" opacity="0.2">
<path d="M83.6489 18.9709C82.8498 20.5629 84.0485 20.5629 84.1817 21.7569C83.5157 21.8895 83.2494 21.4915 82.5834 21.3589C82.317 22.2875 83.2494 22.5528 83.3826 23.3488C81.651 23.3488 80.8518 21.4915 82.4502 20.4302L83.6489 18.9709Z" fill="white"/>
</g>
<g style="mix-blend-mode:overlay" opacity="0.2">
<path d="M85.7802 22.4203C87.2453 22.1549 88.3109 22.6856 89.7761 22.1549C90.8417 21.757 92.1737 20.961 93.2393 21.359C94.3049 21.7569 95.2373 22.6856 96.3028 23.2163C97.6348 23.8796 98.5672 24.6756 99.766 25.6042C102.03 27.5941 104.961 29.0534 106.692 31.7067C108.158 34.0946 108.957 37.5439 108.024 40.1972C107.758 41.1258 107.092 42.3198 106.16 42.7178C105.893 39.7992 107.225 37.0132 105.76 34.2273C104.428 31.8394 102.563 29.3188 100.299 27.5941C98.0344 26.0022 95.9033 24.1449 93.3725 23.4816C91.7741 23.0836 90.9749 24.1449 89.5097 24.1449C88.1777 24.1449 87.1122 23.3489 86.0466 22.8183C85.3806 22.4203 84.7146 22.1549 84.0486 22.5529L85.7802 22.4203Z" fill="#D6D6D6"/>
</g>
<g style="mix-blend-mode:overlay" opacity="0.2">
<path d="M79.7861 25.4715C78.7205 26.4002 77.3886 27.3288 76.4562 28.5228C73.7922 31.574 72.4602 35.4213 73.9254 39.2685C74.4582 38.4725 74.1918 36.4826 74.4582 35.5539C74.8578 34.2273 75.1242 32.9007 75.9234 31.7067C77.2554 29.4514 79.6529 27.8595 81.7841 26.2675C83.3825 25.0735 85.5137 24.4102 87.3785 24.5429C88.8437 24.6755 88.7105 23.7469 89.9093 23.3489C90.9748 22.9509 92.7064 23.8795 93.3724 22.6856C91.9072 22.0223 90.3088 22.8183 88.8436 22.8183C87.1121 22.8183 86.4461 22.2876 84.8477 23.0836C83.1161 24.0122 81.2513 24.2775 79.7861 25.4715Z" fill="#D6D6D6"/>
</g>
<g style="mix-blend-mode:overlay" opacity="0.2">
<path d="M92.8396 21.624C91.2412 23.7466 86.8457 20.6953 84.9809 20.1647C83.5157 19.634 82.7165 18.9707 80.9849 19.1033C79.6529 19.236 78.0545 19.5013 77.1222 20.43C78.5873 19.8993 87.2452 18.9707 86.1797 22.5526C84.5813 23.4812 82.0505 22.1546 80.1857 22.4199C78.8537 22.5526 75.657 23.3486 74.991 24.5426C75.657 24.6752 76.323 24.1446 76.9889 23.8792C77.7881 23.6139 78.321 23.6139 79.2533 23.6139C80.9849 23.6139 82.5833 23.2159 84.3149 23.2159C85.9133 23.2159 87.6449 23.3486 89.3765 23.2159C90.9748 23.0833 92.1736 22.2873 93.772 22.1546L92.8396 21.624Z" fill="#D6D6D6"/>
</g>
<g style="mix-blend-mode:overlay" opacity="0.2">
<path d="M92.1737 20.0322C92.3069 20.9608 90.4421 21.2262 90.4421 22.4201C91.1081 22.8181 92.1737 22.1548 92.9729 22.1548C93.9053 22.0222 94.8377 22.4201 95.7701 22.5528C97.2353 22.8181 100.032 22.6855 100.965 24.2774C99.766 24.2774 98.4341 23.6141 97.3685 23.7468C97.5017 24.5427 99.766 25.7367 100.432 26.4C101.364 27.196 102.963 28.2573 103.362 29.4513C100.965 29.3186 98.4341 26.6654 96.4361 25.3387C95.3705 24.6754 94.4381 23.6141 93.2393 23.4814C92.1737 23.3488 89.9093 23.4815 90.3089 24.9408C90.7085 26.2674 92.7065 26.5327 93.6389 27.196C94.7045 28.1247 94.8377 29.4513 96.0365 30.2473C98.1677 31.5739 101.364 34.4925 100.698 37.4111C99.6329 37.6764 98.8336 35.8191 98.3009 35.1558C97.5017 34.0945 96.3029 33.1659 95.3705 32.2372C94.5713 31.4413 93.7721 30.6453 93.1061 29.8493C92.3069 28.9206 91.9073 27.8593 91.2413 26.9307C90.8417 26.2674 89.5097 24.4101 88.8437 25.3387C88.4441 26.002 88.8437 27.8593 88.9769 28.5227C89.3765 31.5739 90.0425 35.4211 88.9769 38.3397C88.1777 37.9417 88.5774 36.4825 88.4442 35.8191C88.311 34.6252 88.3109 33.4312 88.3109 32.2372C88.3109 30.5126 88.3109 28.9206 88.1777 27.196C88.0445 25.4714 88.1778 23.8794 85.9134 24.2774C84.4482 24.5428 83.9154 26.1347 82.5834 26.6654C82.7166 25.8694 83.5158 25.4714 83.7822 24.8081C82.5834 24.5428 81.9174 25.8694 80.8518 25.7367C80.985 24.4101 83.9154 24.0121 84.8478 23.8794C86.4462 23.7468 87.9113 24.1448 88.8437 22.5528C89.2433 21.8895 89.3766 21.2262 89.9093 20.6955C90.1757 20.6955 92.0405 19.5015 92.1737 20.0322Z" fill="#D6D6D6"/>
</g>
<g style="mix-blend-mode:overlay" opacity="0.2">
<path d="M81.9173 29.4515C81.3845 31.4414 82.5833 30.7781 83.5157 29.7168C83.7821 29.3188 84.8477 27.7268 85.5136 27.8595C86.8456 28.2575 84.3149 34.2273 84.1817 35.156C83.7821 37.6766 84.3149 40.1972 86.0465 42.0545C87.2453 41.2585 86.8456 38.8706 86.8456 37.5439C86.8456 35.6866 86.9789 33.962 87.2453 32.2374C87.5117 30.7781 87.9113 29.5841 87.9113 27.8595C87.9113 25.8695 87.7781 24.1449 85.3805 25.0736C83.5157 25.6042 82.4501 27.7268 81.9173 29.4515Z" fill="white"/>
</g>
<g style="mix-blend-mode:overlay" opacity="0.2">
<path d="M79.7861 27.8593C77.6549 29.7165 75.9233 30.9105 74.9909 33.5638C74.1917 35.8191 73.7921 38.3397 73.7921 40.9929C73.7921 42.4522 73.9253 43.6462 74.5913 44.9728C74.9909 45.7688 76.3229 47.7588 77.3885 47.7588C77.6549 45.3708 77.1221 42.9829 77.9213 40.7276C79.7861 40.1969 79.2533 42.9829 79.2533 43.9115C79.2533 45.3708 79.786 46.8301 80.8516 48.0241C82.3168 49.7487 82.3168 47.3608 82.5832 46.1668C82.7164 45.6362 82.45 44.7075 83.116 44.4422C83.9152 44.0442 84.448 45.1055 84.5812 45.6361C84.8476 46.2995 85.3804 48.9527 86.3128 47.3608C86.5792 46.9628 86.1796 45.5035 86.7124 45.3708C86.9788 45.2382 87.778 46.0341 87.9112 46.2995C88.7104 47.4934 88.1776 49.4834 90.3088 48.4221C91.5075 47.7588 92.7064 46.4321 93.3724 45.2381C94.0383 43.9115 94.1715 42.1869 94.0383 40.7276C94.0383 39.799 93.1059 37.1457 93.9051 36.615C96.0363 35.4211 95.9031 43.5135 96.3027 44.3095C97.1019 44.5748 97.7679 42.5849 97.9011 41.9216C99.3663 42.8502 100.432 41.7889 100.299 40.3296C100.165 39.003 99.6327 37.809 99.0999 36.615C98.0343 34.3597 96.1695 32.5025 94.4379 30.6452C93.6387 29.7165 92.7063 28.9206 91.9072 27.9919C91.108 27.0633 90.5751 25.604 89.5096 24.808C86.8456 23.0834 88.5772 30.1145 88.7104 31.0432C88.8436 33.1658 89.5096 36.8804 88.1776 38.605C87.6448 37.5437 88.0444 36.217 87.9112 35.0231C87.778 33.8291 87.5116 32.6351 87.3784 31.4412C87.2452 30.2472 87.112 28.9206 87.112 27.5939C87.2452 25.604 87.9112 23.8794 85.114 24.5427C83.2492 25.0733 81.3844 26.5326 79.7861 27.8593Z" fill="white"/>
</g>
<g style="mix-blend-mode:overlay" opacity="0.2">
<path d="M84.7145 23.4814C82.9829 24.41 80.8517 24.808 79.1201 25.8693C77.5217 27.0633 76.1897 28.7879 75.1241 30.5126C74.0585 32.2372 73.7921 33.8291 73.6589 35.6864C73.5257 36.6151 73.3926 40.993 71.9274 40.7276C71.7942 39.9316 71.9273 38.8703 71.661 38.207C71.2614 37.1457 70.5954 37.411 70.329 38.3397C69.1302 38.207 69.1302 36.0844 68.997 35.0231C68.8638 33.5638 68.0646 32.5025 68.1978 31.0432C68.1978 28.6553 69.5298 26.4 71.3946 24.6754C75.3905 21.2261 81.1181 19.5015 86.0464 21.3588C87.9112 22.1548 85.9132 22.6854 84.8476 22.5528C83.6488 22.4201 82.5833 22.2874 81.3845 22.1548C79.7861 22.0221 75.9233 22.1548 74.9909 23.6141C76.5893 23.7467 78.3209 23.6141 79.9193 23.4814C80.7185 23.4814 84.448 22.8181 84.8476 23.7467V23.4814H84.7145Z" fill="white"/>
</g>
<g style="mix-blend-mode:overlay" opacity="0.2">
<path d="M86.0465 20.4302C86.8457 20.8282 88.7105 22.0222 89.6428 21.4915C89.9092 21.3589 89.7761 20.9609 90.0425 20.8282C90.1757 20.6955 90.7084 20.5629 90.9748 20.2976C91.5076 19.6343 91.108 19.3689 90.3088 19.1036C90.0424 18.9709 89.6429 19.1036 89.3765 18.9709C89.2433 18.8383 88.7105 18.5729 88.5773 18.5729C87.7781 18.4403 87.3785 18.8383 87.5117 19.7669C87.5117 19.7669 83.9153 18.3076 83.7821 18.3076C81.5177 19.1036 85.5137 20.1649 86.0465 20.4302Z" fill="white"/>
</g>
<g style="mix-blend-mode:overlay" opacity="0.2">
<path d="M93.3724 21.3588C94.438 21.2261 95.2372 21.6241 96.3028 21.7568C97.3684 21.8894 101.764 22.4201 101.631 24.012C100.299 24.1447 99.2332 23.4814 98.0344 23.4814C95.9032 23.614 98.7004 24.6754 99.3664 24.9407C101.098 25.7367 102.43 27.3286 103.895 28.7879C105.627 30.6452 107.092 32.5025 107.758 35.0231C108.157 36.4824 108.823 42.1869 106.426 42.4522C106.159 39.6663 106.825 36.615 105.76 33.9618C104.694 31.3085 102.83 29.3186 100.698 27.594C99.6328 26.798 98.5672 26.1347 97.3684 25.604C96.3028 25.0733 95.5036 24.2774 94.5712 23.7467C93.772 23.3487 91.3744 23.216 90.7084 24.012C89.7761 25.0733 91.774 25.604 92.44 26.1346C93.5056 27.0633 94.438 28.3899 95.3704 29.4512C96.436 30.6452 97.6348 31.8392 98.7004 33.0331C99.6328 33.9618 100.166 35.8191 100.299 37.013C100.565 38.605 99.6327 39.6663 100.432 41.1256C102.297 41.3909 101.098 43.2482 102.696 43.6462C103.762 44.0442 105.76 43.7789 106.692 43.2482C108.823 42.0542 110.155 39.401 110.155 37.013C110.155 34.3598 109.489 31.7065 107.491 29.5839C106.692 28.7879 105.893 28.1246 105.227 27.196C104.828 26.6653 104.961 26.002 104.561 25.604C104.162 24.9407 103.762 24.808 103.229 24.41C101.897 23.3487 101.098 21.4914 99.3664 20.8281C97.102 19.7668 91.5076 18.3075 90.7084 22.1547C91.774 22.1547 92.5732 21.3588 93.3724 21.3588Z" fill="white"/>
</g>
</g>
<mask id="mask5_20002_21063" style="mask-type:luminance" maskUnits="userSpaceOnUse" x="9" y="1" width="114" height="59">
<path d="M66.0666 59.0351C97.4783 59.0351 122.942 46.0869 122.942 30.1145C122.942 14.142 97.4783 1.19385 66.0666 1.19385C34.6549 1.19385 9.19067 14.142 9.19067 30.1145C9.19067 46.0869 34.6549 59.0351 66.0666 59.0351Z" fill="white"/>
</mask>
<g mask="url(#mask5_20002_21063)">
<g style="mix-blend-mode:overlay" opacity="0.2">
<path d="M69.9294 33.5637C72.0606 33.6964 72.8598 33.9617 74.325 34.7577C75.5238 35.421 76.0566 36.615 77.6549 37.013C81.9173 38.0743 81.1181 34.625 83.7821 32.2371C85.5137 35.023 83.6489 39.2682 86.0465 42.0542C90.3089 47.0954 87.9113 37.8089 88.4441 35.9516C88.7104 35.6863 89.1101 35.6863 89.3765 35.9516C90.7084 39.2682 90.9748 41.7888 91.2412 45.3707C91.9072 45.6361 92.7064 45.5034 93.3724 45.3707C93.772 43.5135 95.5036 42.7175 97.3684 43.2481C97.3684 44.7074 97.9012 46.0341 99.1 46.4321C100.432 44.7074 100.832 41.2582 99.7659 39.2682C103.096 39.2682 100.832 42.1868 101.897 43.6461C104.028 46.2994 104.428 42.7175 106.959 43.1155C106.825 46.83 97.6348 48.422 94.7044 49.3506C92.8396 49.8813 89.7761 50.9426 88.0445 50.9426C85.2473 50.9426 84.8477 49.616 82.8497 48.2893C79.2533 45.9014 74.991 44.8401 71.1282 42.5848C65.5339 39.2682 67.665 32.9004 67.9314 27.5939C70.8618 26.7979 69.7962 31.7064 69.9294 33.5637Z" fill="#D6D6D6"/>
</g>
</g>
<mask id="mask6_20002_21063" style="mask-type:luminance" maskUnits="userSpaceOnUse" x="9" y="1" width="114" height="59">
<path d="M66.0666 59.0351C97.4783 59.0351 122.942 46.0869 122.942 30.1145C122.942 14.142 97.4783 1.19385 66.0666 1.19385C34.6549 1.19385 9.19067 14.142 9.19067 30.1145C9.19067 46.0869 34.6549 59.0351 66.0666 59.0351Z" fill="white"/>
</mask>
<g mask="url(#mask6_20002_21063)">
<path d="M87.2452 46.1668C85.9132 43.2482 84.0484 41.5236 81.5176 39.6663C80.5853 39.003 79.3865 38.605 78.4541 38.0743C77.3885 37.411 76.3229 36.4824 74.9909 36.3497C74.1917 36.3497 73.1261 36.6151 72.3269 36.8804C71.7941 37.013 71.3945 37.2784 70.8617 37.1457C70.0625 37.013 70.329 36.7477 69.7962 36.2171C68.997 35.4211 68.4642 35.6864 67.3986 36.2171C66.8658 36.4824 66.999 36.8804 66.1998 36.7477C65.5338 36.615 65.1342 36.0844 64.6014 35.8191C63.669 35.4211 62.337 35.8191 61.4047 35.9517C59.8063 36.0844 56.0767 36.217 55.2775 37.9417C55.4107 37.9417 55.4107 37.9417 55.5439 38.0743C55.4107 38.4723 53.4127 38.8703 52.7467 39.1356C50.0828 40.4623 45.6872 42.1869 44.7548 45.2382C44.3552 46.4321 44.3552 47.8914 44.0888 49.2181C43.8224 51.208 43.556 53.198 44.4884 55.0552C45.0212 56.2492 46.22 57.4432 47.0192 58.5045C47.4188 59.0351 47.9516 59.5658 48.4844 59.9638C49.4168 60.6271 50.3492 60.7598 51.4147 61.0251C52.6135 61.4231 53.4127 62.4844 54.4783 63.1477C56.2099 64.209 58.2079 64.7397 60.2058 65.403C64.8678 67.1276 70.5954 70.0462 75.6569 68.3216C78.0545 67.5256 79.6529 65.5357 81.5176 64.0764C83.6488 62.2191 85.5136 59.8311 86.8456 57.3105C88.444 53.7286 88.9768 49.7487 87.2452 46.1668Z" fill="#E1B973"/>
<g style="mix-blend-mode:overlay" opacity="0.2">
<path d="M59.0071 44.3099C57.9415 45.3712 56.4763 45.5038 55.1443 46.2998C53.5459 47.2285 52.2139 48.5551 51.2815 50.0144C49.9495 52.0043 48.7507 55.4536 51.0151 57.0456C51.5479 56.5149 51.4147 55.3209 51.5479 54.6576C51.6811 53.5963 51.8143 52.535 52.2139 51.6064C52.8799 50.0144 53.9455 48.2898 55.5439 47.4938C56.8759 46.8305 58.2079 47.2285 59.2735 45.9018C59.6731 45.3712 60.0726 44.9732 60.4722 44.4425C60.8718 44.0446 61.0051 43.1159 61.4047 42.8506L59.0071 44.3099Z" fill="white"/>
</g>
<g style="mix-blend-mode:overlay" opacity="0.2">
<path d="M64.4682 46.0341C63.9354 49.4834 61.5379 52.1366 61.0051 55.5859C60.7387 57.5758 60.3391 59.5658 60.6055 61.4231C60.7387 62.7497 60.7387 64.3417 62.2038 64.4743C61.2714 64.8723 59.2735 63.5457 58.4743 63.015C57.9415 62.7497 57.2755 62.3517 56.7427 61.9537C56.3431 61.4231 56.2099 60.6271 55.6771 60.2291C54.7447 61.2904 54.2119 59.0351 54.2119 58.5045C54.2119 56.7798 54.7447 55.0552 55.5439 53.5959C56.6095 51.606 57.1423 49.218 59.4067 48.4221C59.5399 48.9527 59.0071 50.412 59.5399 50.81C60.0727 51.208 60.7387 50.014 61.0051 49.4834C61.8043 48.1567 62.3371 46.8301 63.4027 45.7688L64.4682 46.0341Z" fill="white"/>
</g>
<g style="mix-blend-mode:overlay" opacity="0.2">
<path d="M77.9212 52.2691C78.1876 52.7998 78.3208 53.3304 78.454 53.8611C78.9868 56.647 79.2532 59.035 78.5872 61.8209C78.3208 61.5556 78.1876 61.1576 77.788 61.0249C77.2552 61.9536 76.9888 66.7295 74.8576 65.9335C74.9908 64.6068 75.2572 63.5455 75.5236 62.2189C75.5236 61.8209 75.79 60.8923 75.5236 60.4943C74.9908 59.6983 74.8576 60.3616 74.3248 60.6269C72.7265 61.4229 72.5933 60.2289 72.8596 58.9023C73.126 57.3104 73.3925 55.5857 71.9273 54.6571C71.3945 54.2591 70.8617 54.2591 70.5953 53.4631C70.1957 52.6671 70.4621 51.6058 70.3289 50.8099C70.1957 49.6159 69.6629 48.5546 69.5297 47.3606C69.5297 46.83 68.8637 44.9727 69.2633 44.7073C69.7961 44.3093 70.0625 44.9727 70.3289 45.5033C70.7285 46.1666 71.9273 48.1566 72.0605 46.1666C72.0605 45.7687 71.5277 44.9727 72.1937 44.84C72.8596 44.5747 74.5912 47.2279 74.8576 47.7586C75.79 49.2179 77.122 50.5445 77.9212 52.2691Z" fill="white"/>
</g>
<g style="mix-blend-mode:overlay" opacity="0.2">
<path d="M78.3209 44.5747C79.7861 45.238 80.9849 47.3606 81.7841 48.5546C82.7165 50.1466 83.2493 51.6059 83.5157 53.4632C83.6489 54.3918 84.0485 57.4431 84.7145 54.7898C84.9809 53.4632 83.5157 51.7385 84.0485 50.5445C84.8477 48.9526 85.7801 52.1365 86.5793 52.1365C87.9113 52.1365 86.5792 49.2179 86.3128 48.6873C85.9133 48.024 85.3805 47.4933 84.9809 46.83C84.8477 46.432 84.7145 46.2993 84.8477 45.9013C84.9809 45.5033 85.5136 45.5033 85.5136 45.238C85.78 44.3094 83.9153 42.7174 83.3825 42.3194C82.0505 41.3908 80.4521 40.1968 78.9869 39.7988C78.4541 40.8601 80.5853 41.6561 81.1181 42.4521C82.5833 44.442 79.3865 43.1154 78.7205 43.2481C78.7205 43.5134 78.4541 43.6461 78.4541 43.7787L78.3209 44.5747Z" fill="white"/>
</g>
<g style="mix-blend-mode:overlay" opacity="0.2">
<path d="M62.2039 36.8806C61.5379 36.7479 61.2716 36.6152 60.6056 36.6152C60.0728 36.6152 59.5399 36.7479 58.874 36.8806C57.8084 37.0132 56.876 37.6765 55.8104 38.0745C53.8124 38.8705 51.9476 39.4012 50.3492 40.8605C49.6832 41.5238 48.7509 42.4524 48.3513 43.3811C48.0849 43.9117 48.3513 44.3097 48.2181 44.8404C48.0849 45.371 47.4189 45.769 47.1525 46.167C45.6873 47.8916 44.4885 50.2796 44.3553 52.5348C44.2221 53.8615 44.7549 55.3208 45.2877 56.5147C45.6873 57.3107 46.8861 59.168 47.9517 59.168C48.4845 57.974 47.4189 56.7801 47.0193 55.7188C46.7529 54.6575 46.6197 53.3308 46.8861 52.1369C47.4189 49.6163 48.6177 47.0956 50.3492 45.1057C52.0808 43.2484 53.9456 42.1871 56.0768 40.9931C56.4764 40.7278 57.0092 40.5951 57.4088 40.3298C57.8084 39.9318 57.8084 39.2685 58.208 38.8705C59.0072 38.2072 60.206 38.4725 61.0051 37.8092C61.4047 37.5439 61.6712 37.1459 62.0708 36.8806H62.2039Z" fill="white"/>
</g>
<g style="mix-blend-mode:overlay" opacity="0.2">
<path d="M73.5258 37.4109C74.1917 39.0028 72.993 38.8702 72.5934 40.0642C73.2594 40.3295 73.5258 39.9315 74.1917 39.9315C74.3249 40.9928 73.3926 40.9928 73.1262 41.7888C74.8578 42.0541 75.9233 40.3295 74.4582 39.0028L73.5258 37.4109Z" fill="white"/>
</g>
<g style="mix-blend-mode:overlay" opacity="0.2">
<path d="M71.128 40.4622C69.6629 40.0642 68.5973 40.4622 67.1321 39.6662C66.1997 39.1355 64.8677 38.2069 63.8021 38.4722C62.6033 38.7376 61.6709 39.5335 60.4721 39.9315C59.007 40.4622 57.9414 40.9928 56.7426 41.9215C54.2118 43.6461 51.015 44.7074 49.017 46.9627C47.1523 49.0853 45.9535 52.4019 46.4863 55.1878C46.6195 56.1164 47.1523 57.4431 47.9515 57.9737C48.6175 55.0551 47.685 52.2692 49.5498 49.6159C51.1482 47.3607 53.2794 45.1054 55.8102 43.7788C58.2078 42.4521 60.6053 40.9928 63.2693 40.7275C64.8677 40.5948 65.5337 41.6561 66.9989 41.9215C68.3309 42.1868 69.5297 41.5235 70.5953 41.1255C71.2612 40.8602 71.9272 40.7275 72.5932 41.1255L71.128 40.4622Z" fill="#D6D6D6"/>
</g>
<g style="mix-blend-mode:overlay" opacity="0.2">
<path d="M76.5894 44.3096C77.5218 45.5036 78.7205 46.5649 79.5197 47.7589C81.7841 51.0755 82.5833 55.188 80.4521 58.7699C80.0526 57.974 80.5853 55.984 80.4521 55.0554C80.319 53.7287 80.0525 52.2694 79.5197 51.0755C78.4542 48.6875 76.323 46.8302 74.4582 44.9729C72.993 43.6463 70.995 42.7177 69.1303 42.585C67.6651 42.4523 67.7982 41.6564 66.8659 41.1257C65.9335 40.5951 63.9355 41.2584 63.5359 39.9317C65.0011 39.5337 66.5995 40.4624 67.9315 40.7277C69.6631 40.993 70.3291 40.4624 71.9274 41.5237C73.5258 42.4524 75.3906 42.8503 76.5894 44.3096Z" fill="#D6D6D6"/>
</g>
<g style="mix-blend-mode:overlay" opacity="0.2">
<path d="M64.2019 38.8702C65.5339 41.1254 70.329 38.7375 72.1938 38.4722C73.659 38.2068 74.5914 37.5435 76.323 37.9415C77.655 38.2068 79.1202 38.7375 80.0526 39.7988C78.7206 39.1355 70.1958 37.0129 70.7286 40.5948C72.1938 41.6561 74.8578 40.7274 76.7226 41.2581C78.0546 41.6561 80.9849 42.85 81.5177 44.044C80.7185 44.1767 80.1857 43.3807 79.5197 43.1154C78.7205 42.7174 78.1878 42.5847 77.3886 42.4521C75.657 42.1867 74.1918 41.6561 72.4602 41.3907C70.8618 41.1254 69.1302 40.9928 67.5318 40.7274C65.9335 40.4621 64.8679 39.4008 63.4027 39.1355L64.2019 38.8702Z" fill="#D6D6D6"/>
</g>
<g style="mix-blend-mode:overlay" opacity="0.2">
<path d="M65.1343 37.2785C64.8679 38.2072 66.7327 38.7378 66.4663 39.7991C65.6671 40.1971 64.7347 39.2685 63.9355 39.1358C63.0031 38.8705 62.0707 39.1358 61.1383 39.1358C59.5399 39.1358 56.876 38.7378 55.8104 40.1971C57.0092 40.3298 58.3412 39.9318 59.4068 40.1971C59.2736 40.9931 56.7428 41.7891 56.0768 42.3197C55.0112 42.9831 53.2796 43.779 52.7468 44.973C55.1444 45.2383 58.0748 42.8504 60.0728 41.7891C61.1383 41.2584 62.2039 40.3298 63.4027 40.3298C64.4683 40.3298 66.7327 40.7278 66.0667 42.1871C65.5339 43.5137 63.5359 43.3811 62.4703 44.0444C61.2715 44.8404 61.0051 46.167 59.6731 46.6976C57.4088 47.7589 53.8124 50.1469 54.0788 53.1981C55.1444 53.5961 56.21 51.8715 56.7428 51.3409C57.6752 50.4122 58.874 49.6162 60.0728 48.8203C61.0051 48.1569 61.8043 47.4936 62.7367 46.6976C63.5359 45.9017 64.2019 44.8404 65.0011 44.0444C65.5339 43.5137 67.1323 41.7891 67.5319 42.8504C67.9315 43.5137 67.1323 45.371 66.9991 46.0343C66.1999 49.0856 65.0011 52.6675 65.6671 55.8514C66.4663 55.5861 66.3331 54.1268 66.4663 53.3308C66.7327 52.1368 66.9991 50.9429 67.1323 49.7489C67.3987 48.0243 67.6651 46.4323 67.9315 44.8404C68.3311 43.1157 68.4643 41.5238 70.5955 42.1871C72.0606 42.5851 72.327 44.3097 73.5258 44.973C73.5258 44.177 72.8598 43.6464 72.5934 42.9831C73.7922 42.8504 74.325 44.3097 75.3906 44.3097C75.5238 42.9831 72.5934 42.1871 71.661 41.9217C70.0626 41.5238 68.5975 41.7891 67.9315 40.0645C67.6651 39.4012 67.5319 38.7378 67.1323 38.0745C66.9991 38.2072 65.2675 36.7479 65.1343 37.2785Z" fill="#D6D6D6"/>
</g>
<g style="mix-blend-mode:overlay" opacity="0.2">
<path d="M73.9253 47.8917C74.1917 49.8817 72.9929 49.0857 72.3269 47.8917C72.0605 47.4937 71.2613 45.6365 70.5953 45.7691C69.1301 46.0345 70.8617 52.137 70.9949 53.0656C71.1281 55.5862 70.0625 57.9741 68.1977 59.5661C66.9989 58.6375 67.7981 56.2495 67.9313 55.0556C68.1977 53.3309 68.3309 51.4737 68.3309 49.749C68.3309 48.2897 68.0645 46.9631 68.1977 45.3711C68.4641 43.3812 68.7305 41.6566 71.1281 42.9832C72.8597 43.9118 73.6589 46.1671 73.9253 47.8917Z" fill="white"/>
</g>
<g style="mix-blend-mode:overlay" opacity="0.2">
<path d="M76.1897 46.6978C78.0545 48.8204 79.5197 50.2797 80.1857 53.0656C80.7185 55.4536 80.7185 57.9742 80.3189 60.6274C80.1857 62.0867 79.7861 63.2807 78.9869 64.4747C78.4541 65.2706 76.8557 66.9953 75.7901 66.8626C75.9233 64.4747 76.7225 62.2194 76.1897 59.8314C74.4581 59.0355 74.5913 61.9541 74.4581 62.8827C74.1917 64.342 73.5257 65.8013 72.3269 66.73C70.5954 68.1893 70.8617 65.934 70.8617 64.6073C70.8617 64.0767 71.1282 63.148 70.5954 62.8827C69.7962 62.3521 69.1302 63.2807 68.8638 63.944C68.5974 64.6073 67.5318 67.1279 66.8658 65.4033C66.7326 65.0053 67.2654 63.6787 66.7326 63.2807C66.4662 63.148 65.5338 63.8114 65.4006 64.0767C64.4682 65.138 64.7346 67.2606 62.7367 65.8013C61.5379 64.8727 60.6055 63.546 60.0727 62.2194C59.6731 60.8928 59.6731 59.1681 59.9395 57.7088C60.0727 56.7802 61.4047 54.2596 60.6055 53.5963C58.7407 52.0043 57.8083 60.0968 57.1423 60.8928C56.3431 61.0254 55.9435 59.0355 55.9435 58.3722C54.4783 59.0355 53.4127 57.9742 53.8123 56.5149C54.0787 55.1882 54.8779 53.9943 55.5439 52.933C56.8759 50.8103 58.8739 49.351 60.8718 47.6264C61.8042 46.8304 62.7366 46.1671 63.669 45.2385C64.6014 44.4425 65.2674 42.9832 66.4662 42.4526C69.2634 41.1259 66.5994 47.7591 66.4662 48.6877C66.0666 50.8103 64.8678 54.3923 66.0666 56.2495C66.7326 55.3209 66.5994 53.8616 66.8658 52.8003C67.1322 51.6063 67.5318 50.4124 67.7982 49.2184C68.0646 48.0244 68.4642 46.8305 68.4642 45.5038C68.5974 43.5139 68.1978 41.7892 70.8617 42.7179C73.2593 43.3812 74.8577 45.1058 76.1897 46.6978Z" fill="white"/>
</g>
<g style="mix-blend-mode:overlay" opacity="0.2">
<path d="M71.9273 41.656C73.5257 42.85 75.5237 43.3806 77.1221 44.8399C78.5872 46.1666 79.6528 48.1565 80.452 50.0138C81.2512 51.8711 81.2512 53.4631 81.2512 55.3203C81.2512 56.249 80.7184 60.6269 82.3168 60.4942C82.45 59.6982 82.5832 58.6369 82.8496 57.9736C83.3824 56.9123 84.0484 57.3103 84.1816 58.3716C85.5136 58.3716 85.78 56.249 85.9132 55.3203C86.3128 53.861 87.112 52.9324 87.2452 51.4731C87.5116 49.0852 86.5792 46.6972 84.9808 44.7073C81.5176 40.7274 76.0565 38.2068 70.8617 39.4007C68.8637 39.9314 70.8617 40.7274 71.9273 40.7274C73.1261 40.86 74.1917 40.86 75.3905 40.86C76.9889 40.9927 80.8516 41.656 81.5176 43.248C79.9192 43.248 78.1877 42.7173 76.5893 42.452C75.7901 42.3193 72.1937 41.1254 71.6609 42.054L71.9273 41.656Z" fill="white"/>
</g>
<g style="mix-blend-mode:overlay" opacity="0.2">
<path d="M71.1282 38.4723C70.1958 38.7376 68.1978 39.6663 67.3986 39.003C67.1322 38.8703 67.2654 38.4723 67.1322 38.207C66.999 38.0743 66.4662 37.809 66.333 37.5437C65.9334 36.7477 66.333 36.615 67.1322 36.4824C67.3986 36.4824 67.7982 36.4824 68.0646 36.4824C68.331 36.4824 68.7306 36.217 68.8638 36.217C69.663 36.217 70.0626 36.7477 69.7962 37.5437C69.7962 37.5437 73.5258 36.4824 73.7922 36.615C75.7902 37.809 71.661 38.3397 71.1282 38.4723Z" fill="white"/>
</g>
<g style="mix-blend-mode:overlay" opacity="0.2">
<path d="M63.669 38.3398C62.6035 38.0744 61.8043 38.3398 60.7387 38.3398C59.6731 38.3398 55.2775 38.2071 55.1443 39.7991C56.4763 40.0644 57.6751 39.5338 58.7407 39.7991C60.8719 40.1971 57.8083 40.8604 57.2755 40.993C55.4107 41.5237 53.8123 42.983 52.3472 44.177C50.3492 45.7689 48.6176 47.3609 47.6852 49.7488C47.1524 51.0755 45.6872 56.78 48.0848 57.3106C48.7508 54.6574 48.4844 51.4735 49.9496 49.0855C51.4148 46.6976 53.4128 44.8403 55.8103 43.5137C56.8759 42.8503 58.0747 42.4523 59.2735 42.0544C60.3391 41.6564 61.2715 40.993 62.3371 40.595C63.1363 40.3297 65.5339 40.4624 66.0667 41.391C66.8658 42.585 64.7347 42.7177 64.0687 43.2483C62.8699 44.0443 61.8043 45.2383 60.7387 46.1669C59.5399 47.2282 58.2079 48.1569 56.8759 49.2182C55.8103 50.0141 55.1444 51.7388 54.7448 52.9327C54.212 54.392 55.0112 55.586 54.0788 57.0453C52.214 57.0453 53.1463 59.0353 51.548 59.3006C50.3492 59.5659 48.4844 59.0353 47.6852 58.3719C45.6872 56.9127 44.7548 53.9941 45.1544 51.7388C45.554 49.0855 46.6196 46.5649 48.7508 44.8403C49.55 44.177 50.6156 43.5136 51.2816 42.7177C51.6812 42.187 51.8144 41.6564 52.0808 41.1257C52.4804 40.5951 53.0131 40.4624 53.6791 40.0644C55.2775 39.1358 56.2099 37.5438 57.9415 37.0131C60.3391 36.3498 66.0666 35.5539 66.333 39.5338C65.1342 39.4011 64.6014 38.6051 63.669 38.3398Z" fill="white"/>
</g>
</g>
<g style="mix-blend-mode:overlay" opacity="0.2">
<path d="M3.996 61.158C2.93041 61.158 3.4632 74.159 3.33001 76.6796C2.93041 82.3841 3.46321 88.354 3.46321 94.1911C3.46321 99.0997 3.72959 104.804 7.85876 107.723C11.1887 110.111 17.4491 113.693 21.445 113.693C22.777 108.917 12.1211 107.988 13.7195 102.682C17.1827 102.151 19.5803 103.61 19.3139 107.59C25.1746 109.049 23.1766 101.886 27.0394 101.62C28.2382 104.406 27.439 107.457 27.7054 110.509C28.2382 115.152 30.7689 114.223 31.7013 109.978C32.2341 107.192 31.4349 103.876 31.7013 100.957C31.9677 97.773 32.9001 94.5891 33.4329 91.4052C33.6993 89.1499 35.8305 73.761 31.8345 76.4142C27.9718 79.0675 31.8346 91.2726 26.107 91.9359C25.8406 89.1499 27.1726 82.3841 25.3078 80.2615C22.2442 76.6796 20.2462 84.6394 19.7134 86.8947C13.4531 85.7007 17.0495 76.1489 15.8507 71.771C13.5863 63.1479 10.6559 78.1389 8.12517 78.4042C7.59237 72.3017 10.9223 67.2605 7.99196 62.2193L3.996 61.158Z" fill="#D6D6D6"/>
</g>
<g style="mix-blend-mode:overlay" opacity="0.2">
<path d="M78.3208 100.294C82.8496 101.753 81.118 92.8644 84.8476 92.5991C86.9788 96.579 83.9152 103.477 84.3148 108.253C84.7144 113.427 84.5812 119.132 84.9808 124.438C91.2411 126.561 86.7124 110.111 93.7719 111.703C94.5711 113.825 94.0383 118.468 94.9707 120.06C97.5015 124.173 99.4995 117.274 99.8991 115.417C100.432 112.897 100.165 107.192 102.963 105.6C106.825 103.345 106.293 108.651 106.293 111.039C106.293 113.162 105.36 118.336 106.959 119.928C109.356 122.316 111.221 119.264 111.887 117.274C113.352 113.162 113.219 101.885 119.08 101.089C120.278 103.212 119.479 112.366 123.608 111.039C126.539 109.978 127.338 102.283 127.604 99.8955C128.803 91.5377 129.869 81.19 129.203 72.5669C118.946 71.2402 129.736 89.2825 116.948 87.5578C116.549 85.1699 116.283 77.6081 113.352 78.5367C108.957 79.8634 112.42 87.5578 110.155 89.8131C106.559 93.395 104.295 86.4965 102.43 85.3026C98.1675 82.5166 97.3683 88.6191 96.5691 91.6704C95.6367 95.1196 93.3723 99.3649 91.7739 93.793C90.7083 90.2111 92.1735 86.3639 90.7084 83.1799C86.9788 75.3528 88.0444 87.5578 84.7144 87.1598C82.3168 86.8945 83.782 81.588 80.452 87.0272C78.1877 90.3438 77.9212 96.0483 78.3208 100.294Z" fill="#D6D6D6"/>
</g>
<g style="mix-blend-mode:overlay" opacity="0.2">
<path d="M101.897 74.0262C101.631 79.7307 76.4561 80.5267 71.3946 81.3227C66.1998 82.1187 62.0706 82.2513 56.8759 81.8533C54.8779 81.7207 44.3552 80.792 43.4228 82.5166C41.1585 87.0272 70.1958 89.1498 73.1261 90.2111C81.1181 93.1297 69.7962 95.9156 66.333 95.783C63.003 95.783 54.6115 94.3237 52.0808 96.7116C47.9516 100.824 55.8103 101.355 58.4743 101.355C62.0706 101.355 67.3986 100.692 70.4622 102.283C75.6569 105.202 70.329 107.723 66.999 107.988C62.7366 108.253 58.6075 107.192 54.4783 106.927C49.1504 106.529 43.9556 106.529 38.894 105.733C37.5621 105.6 33.8325 104.539 32.6337 105.202C30.3693 106.396 31.7013 108.917 33.1665 110.376C37.8285 114.886 58.8739 112.366 59.5399 119.397C55.2775 122.581 47.9516 121.254 43.2896 119.795C41.1584 119.132 29.4369 117.54 34.2321 122.581C37.1625 125.632 45.8204 125.5 49.5499 126.03C55.0111 126.826 60.6055 126.561 66.333 126.561C78.5873 126.561 89.3764 126.428 100.831 121.652C106.692 119.264 111.621 116.744 116.416 112.631C119.879 109.713 125.606 106.529 126.539 101.885C126.805 100.824 126.938 100.294 126.938 99.0996C122.543 98.7016 116.949 103.477 112.819 105.069C108.157 106.927 102.03 107.059 97.9011 109.049C97.2351 104.273 105.893 100.161 109.623 98.8342C114.817 96.977 120.412 94.0584 124.408 90.0785C127.072 87.4252 131.467 78.8021 124.274 79.996C117.748 81.0574 112.02 85.7006 105.227 85.9659C103.762 79.3327 112.02 77.6081 116.283 74.8222C119.479 72.8322 128.537 67.791 127.604 63.1478C123.475 62.0865 116.149 67.1277 112.42 68.8523C108.157 70.8423 102.829 73.4955 98.3007 74.2915L101.897 74.0262Z" fill="#D6D6D6"/>
</g>
<g style="mix-blend-mode:overlay" opacity="0.2">
<path d="M127.205 44.8406C126.272 52.5351 116.949 60.0969 110.821 63.8114C103.229 68.322 94.8375 70.1793 86.8456 72.3019C88.1776 69.7813 92.0404 68.5873 94.4379 67.526C90.442 65.2707 83.3825 68.5873 79.3865 70.0466C74.1917 72.0366 68.7306 73.4959 63.003 72.9652C55.8103 72.4346 37.0293 71.2406 33.1665 63.5461C36.7629 61.1582 42.7568 63.9441 46.4864 64.6074C50.6155 65.2707 58.0747 66.4647 61.8042 64.0768C60.7386 60.8928 53.5459 61.2908 50.7488 61.2908C54.8779 62.7501 59.8062 61.4235 64.2018 61.8215C68.331 62.2195 72.8597 63.2808 76.9889 63.0155C84.0484 62.6175 92.0404 60.2295 98.9667 58.5049C108.291 56.2496 125.473 45.9019 126.006 34.6255C128.537 37.8094 123.608 45.9019 123.209 49.6165L127.205 44.8406Z" fill="#D6D6D6"/>
</g>
<g style="mix-blend-mode:overlay" opacity="0.2">
<path d="M7.85875 29.7166C8.92434 32.5025 8.65796 35.6864 9.45715 38.7377C10.1231 41.5236 11.8547 44.0442 13.7195 46.4322C15.9839 49.4834 18.6478 52.402 21.5782 54.79C23.5762 56.5146 27.439 57.5759 28.6378 59.8311C25.8406 60.6271 18.1151 53.994 17.4491 58.2392C16.9163 61.1578 22.9102 64.4744 24.109 67.1276C21.1786 67.9236 13.3199 63.2804 11.3219 61.0251C8.79115 58.1065 6.92636 54.1266 5.19477 50.8101C2.79719 46.2995 1.06559 42.7176 1.59839 37.5437C1.86479 34.6251 4.52877 28.7879 7.72554 27.9919V29.7166H7.85875Z" fill="#D6D6D6"/>
</g>
</svg>
