<svg width="150" height="104" viewBox="0 0 150 104" fill="none" xmlns="http://www.w3.org/2000/svg">
<path d="M72.1722 2.47363H71.9541C71.3307 2.50505 70.7386 2.56787 70.1153 2.72494C64.599 4.70395 61.2643 5.8034 60.1735 6.0547C46.9592 8.2222 39.6665 9.79284 38.3264 10.7981C33.2464 12.9655 28.6339 16.1697 24.4888 20.3476C22.6189 22.2638 20.7801 24.4941 18.9414 27.0699C17.7571 28.5149 14.6405 35.0802 9.59169 46.7972L0.0550215 60.0535C-0.0384753 60.9959 -0.00730968 61.8126 0.179684 62.5665C0.117353 63.0691 0.647168 63.9801 1.83146 65.3309C2.39244 65.8021 3.07808 66.2104 3.88839 66.4931L6.91145 67.2471C6.94262 67.4984 10.776 66.2733 18.4427 63.5403C27.0756 62.1267 32.4361 61.1215 34.5242 60.5247C37.8901 59.7394 40.508 58.9226 42.3467 58.1373C51.5094 54.7447 59.0827 49.97 65.0976 43.813C67.0922 41.7712 68.931 39.5409 70.5828 37.1849L72.9514 33.5096L78.4677 18.9968C78.9352 18.3686 79.3403 17.6775 79.652 16.955C79.9636 16.2325 80.2129 15.4786 80.3688 14.6618C80.7739 10.4211 80.3999 7.56252 79.2468 6.08612C77.8755 3.98145 75.5069 2.75635 72.1722 2.47363Z" fill="#E1849C"/>
<g style="mix-blend-mode:overlay" opacity="0.4">
<path d="M74.6343 2.91309L62.2304 9.94958C59.3632 11.4574 56.4959 14.2846 53.6598 18.3996C49.5148 27.8863 46.9904 33.0381 46.0554 33.8548L20.9983 52.5141C15.8248 56.0009 11.9291 57.7286 9.34237 57.7286C8.68789 57.7286 8.09575 57.603 7.5971 57.3831L3.98189 61.4667C3.91956 61.4982 3.85722 61.4982 3.79489 61.4982C3.57673 61.4982 3.29624 61.3725 3.01575 61.0898C2.29894 60.0846 1.64447 59.2364 1.11465 58.5768L0.0550215 60.0217C-0.0384753 60.9641 -0.00730968 61.7809 0.179684 62.5348C0.117353 63.0374 0.647168 63.9484 1.83146 65.2991C2.39244 65.7703 3.07808 66.1787 3.88839 66.4614L6.91145 67.2153C6.91145 67.2467 6.94262 67.2467 7.00495 67.2467C7.62826 67.2467 11.4616 65.9902 18.4427 63.5086C27.0756 62.095 32.4361 61.0898 34.5242 60.4929C37.8901 59.7076 40.508 58.8909 42.3467 58.1056C51.5094 54.713 59.0827 49.9382 65.0976 43.7813C67.0922 41.7394 68.931 39.5091 70.5828 37.1532L72.9514 33.4778L78.4677 18.9651C78.9352 18.3368 79.3403 17.6457 79.652 16.9232C79.9636 16.2007 80.2129 15.4468 80.3688 14.6301C80.7739 10.3894 80.3999 7.53078 79.2468 6.05438C78.2183 4.57797 76.6912 3.47852 74.6343 2.91309Z" fill="#940027" fill-opacity="0.1765"/>
</g>
<g style="mix-blend-mode:overlay" opacity="0.4">
<path d="M79.4962 6.52539C73.5435 10.2321 69.1803 13.1535 66.4066 15.2896C64.0692 17.9283 62.5732 19.8445 61.8876 21.101C60.08 26.6297 58.771 29.6139 57.9919 30.0537C56.5894 31.3416 54.252 33.3206 50.9796 35.9279C46.8034 40.7026 44.2167 43.4041 43.2817 44.0324L30.722 52.9223C28.6962 53.9903 25.9848 54.9955 22.5878 55.9065C19.2219 58.3253 15.1392 60.5242 10.402 62.5032C10.0592 62.6288 9.71638 62.7231 9.3424 62.7231C8.62559 62.7231 7.81528 62.4404 6.94265 61.9063C6.47516 63.6341 6.00768 64.4822 5.57136 64.4822C5.5402 64.4822 5.50903 64.4822 5.50903 64.4822C5.4467 64.4822 5.38437 64.5136 5.32204 64.5136C5.10388 64.5136 4.85455 64.4194 4.57406 64.2623C3.04695 62.4718 1.89382 61.2781 1.05235 60.6812C0.709529 60.3985 0.366707 60.2415 0.117382 60.2415C0.0862167 60.2415 0.0550511 60.2415 0.0238855 60.2415C-0.0384457 61.0896 0.0238855 61.8435 0.179714 62.5346C0.117382 63.0372 0.647197 63.9482 1.83149 65.2989C2.39247 65.7701 3.07811 66.1785 3.88842 66.4612L6.91148 67.2151C6.91148 67.2465 6.94265 67.2465 7.00498 67.2465C7.62829 67.2465 11.4617 65.99 18.4428 63.5084C27.0756 62.0948 32.4361 61.0896 34.5242 60.4928C37.8901 59.7074 40.508 58.8907 42.3468 58.1054C51.5094 54.7128 59.0827 49.938 65.0976 43.7811C67.0922 41.7393 68.931 39.5089 70.5828 37.153L72.9514 33.4777L78.4677 18.9649C78.9352 18.3366 79.3403 17.6456 79.652 16.9231C79.9636 16.2006 80.213 15.4467 80.3688 14.6299C80.7116 10.829 80.4311 8.09604 79.4962 6.52539Z" fill="#940027" fill-opacity="0.1765"/>
</g>
<path d="M73.9175 15.0386H73.824C73.5435 15.0386 73.263 15.07 72.9825 15.1014C72.0475 15.2899 71.1437 15.5412 70.2711 15.8553C69.4296 16.1694 68.6193 16.5778 67.8714 17.049C66.3754 17.9914 65.0353 19.2165 63.9133 20.7557C62.6355 22.6091 61.7317 24.3368 61.2019 25.9703L57.3062 41.2055C56.6829 43.1531 56.0908 44.6609 55.5298 45.6976C54.5948 47.3625 53.4417 48.9645 52.0392 50.4723C51.3536 51.2262 50.5744 51.9802 49.7641 52.7026L48.4864 53.7707C47.6137 54.4618 46.6788 55.1529 45.6815 55.8125C45.6503 55.9068 45.6815 55.9696 45.8373 55.9696C46.0866 55.9382 46.4294 55.8439 46.8346 55.6555C47.6137 55.09 49.2343 54.2733 51.6341 53.111C52.943 52.5142 54.5636 51.8545 56.4647 51.1634C57.3062 50.6922 58.9268 49.3415 61.3266 47.174L77.408 20.0961C77.595 19.8133 77.7197 19.5306 77.8132 19.2479C78.0002 18.6825 78.0002 18.117 77.8443 17.583C77.8443 17.4574 77.6573 17.049 77.1899 16.3579C76.6289 15.5412 75.5381 15.1328 73.9175 15.0386Z" fill="#940027" fill-opacity="0.1765"/>
<path d="M101.374 0.0232672L100.813 0.0546801C99.1304 0.180332 95.9827 0.745764 91.339 1.8138C86.6954 2.03369 84.2021 2.285 83.8905 2.59913C82.2699 3.07032 81.2102 3.88706 80.6492 5.04933C80.0883 6.21161 80.1194 7.68802 80.6492 9.54138L86.446 24.1798C88.9705 27.9493 91.0586 30.1168 92.6792 30.6823L107.888 53.0797C109.01 54.3048 110.319 55.4985 111.815 56.6293C113.872 58.2942 116.708 60.0219 120.354 61.7811C124.562 63.4773 129.081 65.0166 133.88 66.4302L140.705 69.7599C142.17 70.2625 143.573 70.5138 144.975 70.4196C146.72 70.3882 148.216 69.4144 149.401 67.4982C150.086 66.0532 150.18 63.8857 149.712 60.9957C145.972 49.4358 143.167 39.6664 141.329 31.6875C140.113 28.1064 138.898 25.3107 137.62 23.3002C132.446 16.0753 126.899 10.6408 121.009 6.93411C113.342 2.03369 106.828 -0.259449 101.374 0.0232672Z" fill="#E1849C"/>
<g style="mix-blend-mode:overlay" opacity="0.4">
<path d="M85.1683 2.22217C84.4203 2.31641 84.0151 2.44206 83.8905 2.5363C82.2699 3.00749 81.2102 3.82423 80.6492 4.9865C80.0883 6.14878 80.1194 7.62519 80.6492 9.47855L86.446 24.117C88.9705 27.8865 91.0586 30.054 92.6792 30.6194L107.888 53.0168C109.01 54.2419 110.319 55.4356 111.815 56.5665C113.872 58.2314 116.708 59.9591 120.354 61.7182C124.562 63.4145 129.081 64.9537 133.88 66.3673L140.705 69.6971C141.983 70.1369 143.23 70.3882 144.476 70.3882C144.632 70.3882 144.819 70.3882 144.975 70.3882C146.72 70.3568 148.216 69.383 149.401 67.4668C149.588 67.0584 149.743 66.6186 149.837 66.116C149.369 65.3621 148.871 64.5454 148.279 63.6658C148.154 63.5087 147.936 63.4145 147.686 63.4145C146.814 63.4145 145.224 64.2312 142.918 65.8333L139.334 64.7338C139.334 64.7338 139.334 64.7338 139.303 64.7338C139.178 64.7338 138.555 64.2627 137.402 63.2889C133.724 60.2732 128.52 54.2419 121.726 45.1636C117.549 36.9648 114.402 31.7817 112.282 29.6142L108.137 25.4677L87.7238 7.68801C86.6954 6.58856 85.9474 5.20639 85.5422 3.54151C85.3553 3.25879 85.2306 2.81901 85.1683 2.22217Z" fill="#940027" fill-opacity="0.1765"/>
</g>
<g style="mix-blend-mode:overlay" opacity="0.4">
<path d="M82.488 3.1333C81.6154 3.60449 80.9921 4.23275 80.6493 5.01808C80.1194 6.18035 80.1194 7.65676 80.6493 9.51012L86.4461 24.1485C88.9705 27.9181 91.0586 30.0856 92.6792 30.651L107.888 53.0484C109.01 54.2735 110.319 55.4672 111.815 56.5981C113.872 58.2629 116.708 59.9907 120.354 61.7498C124.562 63.4461 129.081 64.9853 133.88 66.3989L140.705 69.7287C141.983 70.1684 143.23 70.4197 144.476 70.4197C144.632 70.4197 144.819 70.4197 144.975 70.4197C145.567 70.4197 146.097 70.2941 146.627 70.0742C146.44 69.603 146.159 69.0376 145.785 68.3465C145.224 67.8125 144.695 67.4983 144.196 67.4041C142.98 67.7182 141.921 67.8753 141.017 67.8753C139.957 67.8753 139.116 67.6554 138.493 67.2156C137.215 66.6816 135.438 65.3309 133.194 63.132C132.789 62.9435 132.259 62.8492 131.636 62.8492C131.512 62.8492 131.387 62.8492 131.231 62.8492L130.265 60.8388C128.862 60.6503 127.709 59.6137 126.805 57.7603C124.873 56.975 123.782 56.4724 123.471 56.1583C122.442 52.8913 118.515 47.6768 111.721 40.4832C108.075 33.6352 105.862 29.74 105.052 28.7662C104.179 27.4469 99.2551 23.5831 90.3106 17.112C89.4691 16.3895 88.6588 15.5728 87.8797 14.6304C85.3864 10.798 83.797 7.49969 83.049 4.79818C82.862 4.26417 82.675 3.69873 82.488 3.1333Z" fill="#940027" fill-opacity="0.1765"/>
</g>
<path d="M74.9148 17.3945L73.824 17.4259C70.6451 17.8971 68.2454 18.7767 66.6248 20.096L65.6275 20.8185L63.3212 24.5567C63.4771 26.3158 63.2277 28.5147 62.5421 31.1534C58.8957 43.1217 57.0881 49.4671 57.1193 50.1268C56.683 54.7131 56.8076 58.2313 57.4309 60.6815C57.7426 62.2836 58.4594 64.2626 59.519 66.65L60.8903 69.1316C60.9838 69.6656 63.4459 73.0268 68.3077 79.278C72.7021 84.681 78.5612 91.2777 85.8851 99.0995L91.5884 103.968H91.8066C92.7104 104.094 93.9882 103.466 95.6088 102.084C96.3568 100.607 96.7619 99.6335 96.8866 99.2252C97.354 96.5551 98.1332 92.7855 99.2863 87.9479C101.561 78.5555 103.587 70.608 105.332 64.0427L106.112 60.2417C106.579 57.6659 106.828 54.7445 106.797 51.5089C106.61 47.708 106.392 45.4148 106.143 44.6923C105.021 37.4674 101.998 31.5618 97.1047 26.9441C95.8581 25.4991 91.8689 23.7085 85.106 21.5724C82.5192 19.7505 80.8675 18.6825 80.1506 18.3683C78.5924 17.7401 76.8471 17.4259 74.9148 17.3945Z" fill="#F29CB3"/>
<g style="mix-blend-mode:overlay" opacity="0.4">
<path d="M74.9148 17.3945L73.824 17.4259C70.6451 17.8971 68.2454 18.7767 66.6248 20.096L65.6275 20.8185L63.3212 24.5567C63.4771 26.3158 63.2277 28.5147 62.5421 31.1534C58.8957 43.1217 57.0881 49.4671 57.1193 50.1268C56.683 54.7131 56.8076 58.2313 57.4309 60.6815C57.7426 62.2836 58.4594 64.2626 59.519 66.65L60.8903 69.1316C60.9838 69.6656 63.4459 73.0268 68.3077 79.278C72.7021 84.681 78.5612 91.2777 85.8851 99.0995L91.5884 103.968H91.8066C91.9001 103.968 91.9624 104 92.0559 104C92.9597 104 94.144 103.372 95.6399 102.115C96.3879 100.639 96.7931 99.6649 96.9177 99.2566C97.1359 98.0315 97.3852 96.6179 97.7592 94.953C97.2294 93.9792 96.3879 93.3509 95.266 93.0054C94.8296 92.9112 94.3622 92.8483 93.8323 92.8483C92.3364 92.8483 90.4353 93.2253 88.129 93.9478C87.6304 93.9478 87.1317 93.4766 86.5708 92.5656C85.3553 90.5552 84.358 87.2882 83.5165 82.7334C83.236 81.414 83.0179 76.6079 82.8309 68.3149C82.4881 65.5819 81.9583 63.1945 81.2414 61.1213C80.3065 58.2941 78.9352 55.5298 77.1276 52.7655C76.1614 51.3833 73.5747 48.5875 69.3362 44.3782C68.6505 43.5615 68.1831 42.7447 67.9337 41.928C67.5909 40.7971 67.6532 39.7605 68.1519 38.7867C69.2115 36.8391 70.3958 35.3313 71.6424 34.2633C70.427 34.546 69.2115 34.9858 68.0272 35.5512L63.2589 38.1899C64.225 34.5146 65.4093 31.4989 66.8429 29.143C67.1234 28.389 68.3389 26.8184 70.4581 24.4938C71.3619 23.6457 72.2969 22.9232 73.3254 22.3264C76.0991 20.7871 79.0598 19.8762 82.2387 19.5934C81.2726 18.9652 80.587 18.5568 80.213 18.3683C78.5924 17.7401 76.8471 17.4259 74.9148 17.3945Z" fill="#851849" fill-opacity="0.1765"/>
</g>
<g style="mix-blend-mode:overlay" opacity="0.4">
<path d="M59.3944 46.9541L59.0515 46.9855C58.5529 47.1112 58.0542 47.4881 57.5556 48.085C57.2439 49.2158 57.1193 49.8755 57.1193 50.064C56.683 54.6503 56.8076 58.1685 57.4309 60.6187C57.7426 62.2208 58.4594 64.1998 59.519 66.5872L60.8903 69.0688C60.9838 69.6028 63.4459 72.964 68.3077 79.2152C72.7021 84.6182 78.5612 91.2149 85.8851 99.0367L91.5884 103.906H91.8066C91.9001 103.906 91.9624 103.937 92.0559 103.937C92.9597 103.937 94.144 103.309 95.6399 102.052C96.1074 101.079 96.4814 100.356 96.6684 99.8534C96.1074 98.7226 95.6088 97.9372 95.2036 97.466C95.0166 97.2462 94.7673 97.0577 94.3933 96.8692C93.3337 96.3666 91.4949 96.0839 88.9082 96.0525C87.8174 95.6127 86.7266 94.9844 85.6981 94.1677C83.8905 92.9426 81.6154 90.5238 78.904 86.9427C78.3119 86.126 77.7509 85.2464 77.1899 84.3355L65.7833 63.2888C65.2535 62.2522 64.2874 58.7339 62.8537 52.7655L61.6694 49.4985C61.1708 47.8965 60.4228 47.0798 59.3944 46.9541Z" fill="#851849" fill-opacity="0.1765"/>
</g>
<g style="mix-blend-mode:overlay" opacity="0.4">
<path d="M98.9747 33.5724L98.6007 33.6038C97.6034 33.7609 96.8554 34.4834 96.2944 35.8342C96.4503 36.5567 96.8242 37.4676 97.4164 38.5671C99.0058 40.1377 99.785 40.9859 99.8161 41.1744C100.19 42.7136 100.72 44.3785 101.374 46.169C101.468 46.7658 101.343 47.2056 101.032 47.5198C100.72 47.7711 100.439 47.8967 100.128 47.8967C99.9096 47.8967 99.6915 47.8339 99.4733 47.6768C98.1955 46.5145 96.6996 45.3209 94.9855 44.1272C92.835 42.5565 91.5884 41.7712 91.3079 41.7712C91.2768 41.7712 91.2456 41.7712 91.2456 41.8026C91.2144 41.8026 91.1521 41.8026 91.1209 41.8026C90.7469 41.8026 90.4353 41.9597 90.2171 42.3052C88.8147 44.9125 88.129 46.4831 88.0667 47.08C88.2537 48.6192 88.877 50.504 89.9678 52.7343C90.186 53.1741 90.56 53.551 91.0274 53.928C92.6792 54.6191 93.6453 55.1531 93.8947 55.4672C94.1128 55.7185 94.2998 56.0641 94.4557 56.5038C94.7673 57.4148 94.9855 58.263 95.1101 58.9855L95.6088 59.8964C95.9204 60.3048 97.4164 60.7132 100.128 61.153C100.315 61.2472 100.471 61.4357 100.564 61.7812C100.595 63.3519 100.221 64.3257 99.4733 64.6712C99.0682 64.9539 98.663 65.0796 98.289 65.0796C97.1047 64.5141 96.3879 64.2 96.1386 64.2C96.1074 64.2 96.1074 64.2 96.0763 64.2C95.8269 64.2314 95.6088 64.4513 95.453 64.8597C95.079 66.1476 94.8608 67.9696 94.7361 70.2941C94.6426 72.3674 94.7673 74.2521 95.1101 75.9484C95.1725 76.1369 95.266 76.3254 95.3595 76.4825C96.8554 78.65 97.6345 79.9065 97.6969 80.2206L100.845 81.2258C102.465 74.6605 103.961 68.8805 105.27 63.9173L106.049 60.1163C106.517 57.5405 106.766 54.6191 106.735 51.3835C106.548 47.5826 106.33 45.2894 106.08 44.5669C105.675 41.8968 104.99 39.3838 104.055 37.0593C103.743 36.7765 103.431 36.4938 103.12 36.2111C101.967 35.2059 100.72 34.2949 99.4422 33.541L98.9747 33.5724Z" fill="#851849" fill-opacity="0.1765"/>
</g>
<path d="M95.5153 100.042L95.2348 100.293C95.1413 100.388 94.8608 100.607 94.4557 100.89C94.2998 100.984 94.144 101.079 94.0193 101.141C93.8947 101.204 93.7388 101.236 93.6453 101.267C93.583 101.267 93.4272 101.299 93.1779 101.299C92.8662 101.299 92.4299 101.236 91.9001 101.11L91.4638 100.984L90.9963 100.827C90.8716 100.796 90.3106 100.607 89.3445 100.262C89.251 100.23 89.1887 100.262 89.1575 100.293C89.1263 100.325 89.064 100.388 89.0328 100.482C88.9705 100.702 88.9705 100.827 89.0017 100.859C89.0328 101.016 89.1263 101.141 89.2822 101.267C90.3418 102.115 91.1209 102.681 91.6196 102.932C91.8066 103.026 91.9624 103.089 92.0871 103.12C92.4299 103.183 92.648 103.215 92.8039 103.215C92.835 103.215 92.9285 103.215 93.0844 103.183C93.209 103.152 93.3025 103.089 93.4272 103.026C93.6765 102.838 93.8635 102.649 94.0193 102.461C94.2063 102.241 94.3933 101.958 94.6115 101.644L94.7673 101.393L95.5153 100.042Z" fill="#851849" fill-opacity="0.1765"/>
<path d="M62.5109 47.614L60.828 47.7082C56.4024 48.2422 52.2886 50.8809 48.4864 55.6242L46.1178 84.0843L46.3048 85.0267L46.6476 85.9063C46.9281 86.4403 47.2709 86.9429 47.7384 87.3827C48.2059 87.8225 48.7669 88.1994 49.4214 88.545C52.0081 89.5816 54.2209 90.0214 56.0285 89.8329C58.5217 89.6444 61.3578 88.7334 64.5678 87.1C65.3781 86.7859 66.8741 85.4979 69.0557 83.2362C72.1411 79.4981 74.2603 76.2625 75.4758 73.4982C76.8782 70.6082 77.7509 67.9381 78.0937 65.5193C78.0937 63.9173 78.0314 62.912 77.9067 62.5665C77.6885 61.2157 77.2522 59.8336 76.6289 58.42C76.3173 57.6975 75.9433 56.975 75.5381 56.2525C73.7617 53.7709 72.7021 52.4201 72.3904 52.2002C70.7698 50.5039 69.8348 49.6244 69.5543 49.5616C68.9622 49.1218 68.4012 48.8076 67.8402 48.5878C65.8456 47.8967 64.0692 47.5825 62.5109 47.614Z" fill="#BD4187"/>
<path d="M78.0937 64.9536C75.3511 69.2886 73.45 71.9587 72.3592 73.0267C70.9568 74.5974 68.4324 76.5764 64.8172 79.0266C63.5394 79.7805 62.2616 80.4402 61.015 81.0056C60.3605 81.3826 58.5529 82.0736 55.5922 83.0474C54.9688 83.3302 53.2859 83.6129 50.481 83.9898C49.9512 84.0212 49.4525 84.0527 48.9227 84.0527C48.1747 84.0527 47.4268 84.0212 46.6476 83.927L46.149 84.2725L46.3048 85.0579L46.6476 85.9374C46.9281 86.4715 47.2709 86.9741 47.7384 87.4138C48.2059 87.8536 48.7669 88.2306 49.4214 88.5761C51.603 89.4557 53.5041 89.8955 55.1558 89.8955C55.4675 89.8955 55.7792 89.864 56.0596 89.8326C58.5529 89.6442 61.389 88.7332 64.599 87.0997C65.4093 86.7856 66.9053 85.4977 69.0869 83.2359C72.1723 79.4978 74.2915 76.2623 75.507 73.4979C76.9094 70.6079 77.7821 67.9378 78.1249 65.519C78.0937 65.2992 78.0937 65.1107 78.0937 64.9536Z" fill="#C9578A"/>
<path d="M63.1342 53.4565L58.9892 54.179C58.4905 54.2733 57.9607 54.4932 57.3686 54.8387C56.9634 55.0272 56.1843 55.624 55 56.6607L54.813 76.011C55.0623 76.3251 55.561 76.4508 56.3713 76.3251C56.9322 76.2623 58.0542 75.8854 59.7372 75.1943L61.4824 75.0372C62.1992 74.7859 62.7914 74.4404 63.29 74.0948C63.6952 73.7807 64.3808 72.7755 65.347 71.0164C65.3781 70.8593 65.347 70.7022 65.2846 70.5452L64.3497 68.6918C64.3185 68.5662 64.2873 68.4405 64.3497 68.3463C64.3808 68.2834 64.5055 68.3149 64.7236 68.4091L66.5624 69.3515C66.6871 69.4143 66.8117 69.4143 66.9052 69.3829C66.9676 68.8489 67.0611 68.5347 67.1546 68.4405C68.1519 67.8437 68.7128 67.3096 68.7752 66.7756C68.9933 66.0531 69.0245 64.9223 68.8687 63.4144C68.744 62.3778 68.5259 61.4354 68.183 60.6815C68.0272 60.3046 67.809 59.9276 67.5909 59.6135L67.2481 59.1423L67.5909 58.0742C67.5286 57.98 67.4662 57.9172 67.3727 57.9172H66.3754C66.2508 57.8858 66.1573 57.7915 66.1261 57.6659C66.6871 56.4722 66.9364 55.7811 66.9364 55.6554C66.9676 55.2157 66.9364 54.9644 66.8429 54.8701C66.5624 54.2105 65.3158 53.7393 63.1342 53.4565Z" fill="#B2367C"/>
<path d="M58.6775 57.4775L58.5529 57.509C58.397 57.6346 58.2724 57.9801 58.1789 58.577C58.1165 59.1738 58.0542 59.9906 58.0854 61.0586L57.2439 69.1317C58.3035 69.2888 59.1762 69.2574 59.8618 68.9747C60.3605 68.7862 60.8279 68.5349 61.2643 68.1893C61.5448 67.938 61.7006 67.8124 61.7006 67.8438C61.9187 67.5925 62.0434 67.404 62.1057 67.2784C62.4797 66.6501 62.8225 65.9276 63.1965 65.0795L63.29 64.7653C63.3212 64.4826 63.3524 64.2313 63.3835 63.98C63.4458 63.5716 63.5082 63.2889 63.5393 63.1319C63.5393 63.1004 63.5393 63.0376 63.5393 63.0062C63.5082 62.8177 63.4459 62.6607 63.3524 62.5036C63.2589 62.378 63.0095 62.0952 62.5732 61.6869C62.5109 61.624 62.4797 61.5298 62.4485 61.4356C62.4174 61.3099 62.4174 61.1843 62.4485 61.1214C62.6667 60.6502 62.7914 60.3675 62.8225 60.2733C62.8849 60.0848 62.8537 59.8963 62.7602 59.7393C62.6667 59.645 62.542 59.5508 62.3862 59.4566L62.3239 59.4251C61.7317 59.1738 61.1396 58.8597 60.5475 58.5456C59.9241 58.2314 59.3632 57.8859 58.8645 57.509L58.6775 57.4775Z" fill="#C74E91"/>
<g style="mix-blend-mode:overlay" opacity="0.4">
<path d="M75.4758 70.9224L72.8267 74.472L71.4243 76.1055C70.4581 77.1421 69.3985 78.1473 68.3077 79.0583C66.0949 80.9117 63.6329 82.5137 60.8903 83.8645C58.023 85.1838 55.2181 85.8121 52.4132 85.8121C50.3563 85.8121 48.2994 85.4665 46.3048 84.744L46.2736 84.7755L46.336 85.0268L46.6788 85.9063C46.9593 86.4403 47.3021 86.9429 47.7696 87.3827C48.2371 87.8225 48.798 88.1995 49.4525 88.545C51.6341 89.4246 53.5352 89.8643 55.187 89.8643C55.4986 89.8643 55.8103 89.8329 56.0908 89.8015C58.584 89.613 61.4201 88.7021 64.6302 87.0686C65.4405 86.7545 66.9364 85.4665 69.118 83.2048C70.3023 81.7598 71.3619 80.3776 72.2969 79.0583C74.0733 76.0741 75.1641 74.0322 75.5381 72.9328C76.0056 71.582 76.0056 70.9224 75.4758 70.9224Z" fill="#64001A" fill-opacity="0.1765"/>
</g>
<path d="M45.214 52.1685L44.1544 52.1999C39.8847 52.5454 35.6461 54.6501 31.5011 58.5453C29.8182 60.1159 28.3534 61.8122 27.1379 63.6656C25.6732 66.1158 24.9252 67.498 24.9252 67.7807C24.5824 68.6288 24.333 69.5084 24.146 70.4194C23.3046 75.2884 24.0837 80.1574 26.4523 85.0892C26.8886 85.9059 27.3873 86.6598 27.9482 87.3195C28.5092 87.9792 29.1014 88.576 29.7559 89.11L30.7843 89.8325C32.1244 90.5864 33.9009 91.0262 36.0825 91.1519C38.638 91.1519 41.256 90.2409 43.8739 88.4504C45.1828 87.5394 46.5229 86.4085 47.8631 85.0578L49.8888 82.8589C51.2289 81.2882 52.6002 79.4663 53.9715 77.4558C56.1531 73.2779 57.5244 69.7597 58.1165 66.9325C58.8645 63.3515 58.023 60.1473 55.561 57.2888C55 56.6291 54.3455 56.0637 53.5975 55.5296L52.4444 54.7757C52.1639 54.6501 50.7615 53.8962 48.2059 52.4826C46.9593 52.2627 45.962 52.1685 45.214 52.1685Z" fill="#BD4187"/>
<path d="M53.7222 55.6553C53.878 55.9694 54.0339 56.2521 54.1585 56.5348C54.5325 57.383 54.813 58.1997 54.9065 58.9536L54.9688 60.0217C54.439 63.9169 53.8469 66.9639 53.1301 69.1314C52.7561 70.2623 51.9458 71.8015 50.6368 73.7805L49.2032 75.7595L46.4606 79.0893C45.588 80.0317 44.6842 80.8798 43.8116 81.6023C41.1625 83.8012 38.5446 85.0892 35.9578 85.4033C35.5215 85.4975 35.0852 85.5289 34.5865 85.5289C32.8724 85.5289 30.7843 85.0263 28.3534 83.9897C27.7924 83.8327 26.764 83.173 25.2057 82.0735C25.5485 83.0787 25.9848 84.084 26.4523 85.0892C26.8886 85.9059 27.3873 86.6598 27.9483 87.3195C28.5092 87.9792 29.1014 88.576 29.7559 89.11L30.7843 89.8325C32.1245 90.5864 33.9009 91.0262 36.0825 91.1519C38.6381 91.1519 41.256 90.2409 43.8739 88.4504C45.1828 87.5394 46.523 86.4085 47.8631 85.0578L49.8888 82.8589C51.229 81.2882 52.6002 79.4663 53.9715 77.4558C56.1531 73.2779 57.5244 69.7597 58.1166 66.9325C58.8645 63.3514 58.0231 60.1473 55.561 57.2887C54.9688 56.6919 54.3767 56.1579 53.7222 55.6553Z" fill="#D678A2"/>
<path d="M44.5595 59.8647L44.1855 60.1475C43.2194 60.87 42.6273 61.5925 42.4091 62.2207L42.6896 59.8647C42.5649 60.3359 42.3779 60.7129 42.1598 61.027C42.0351 61.3097 41.6611 61.5925 41.1313 61.8752C40.9443 61.9694 40.695 62.0322 40.3833 62.0636C39.1367 62.0951 38.2952 62.1579 37.8589 62.2207C37.2356 62.315 36.8305 62.4092 36.6746 62.5348C36.55 62.6291 36.4253 62.7233 36.363 62.849C36.0513 63.4772 35.802 63.8856 35.615 64.0741C35.3968 64.3568 34.8359 64.6709 33.9009 65.0479L33.3399 66.2416C32.2491 66.7442 31.6881 67.1211 31.6258 67.3724C31.5946 67.4667 31.5946 67.5609 31.6258 67.6551C31.6881 67.8436 31.9063 68.1578 32.2491 68.5975C32.3114 68.7232 32.3426 68.8802 32.3738 69.1001C32.4049 69.2572 32.1556 69.7284 31.5946 70.5451C31.5635 70.5765 31.5946 70.6708 31.657 70.7336C31.9686 70.8907 32.1245 71.0163 32.1556 71.142L31.6258 72.1158C31.5323 72.3043 31.5011 72.4927 31.47 72.6498C31.4076 72.9639 31.4388 73.2152 31.5946 73.4351C31.6881 73.5608 31.8128 73.6236 31.9375 73.6236C32.5608 73.5294 32.9036 73.5294 32.9971 73.5922C33.0283 73.7178 33.0594 73.8121 33.0283 73.9377C32.8101 74.566 32.7166 74.9115 32.7478 74.9744C32.7166 75.0686 32.9659 75.0372 33.4646 74.8173C33.5269 74.8173 33.5581 74.8173 33.6204 74.8801C33.6204 75.5084 33.6204 75.8225 33.6516 75.8853C33.6827 76.0738 33.7451 76.2309 33.8074 76.3879C33.9321 76.6706 34.1502 76.8905 34.493 77.0476C34.68 77.1418 34.867 77.1104 35.054 76.8905C35.1475 76.7963 35.3657 76.2309 35.6773 75.1942C35.7397 75.0686 35.8332 74.9744 35.989 74.9115C36.1137 74.8173 36.55 75.2257 37.2979 76.1052C37.4226 76.1995 37.5784 76.1995 37.7654 76.1052C37.8589 76.0424 37.9213 75.9482 37.9524 75.8539C38.0459 75.1314 38.1706 74.6916 38.3264 74.5346L39.8847 74.1576C40.1028 73.8435 40.4457 73.5608 40.8508 73.2781C41.1001 73.0896 41.7858 72.7126 42.9389 72.21C43.0012 72.1786 43.0012 72.1158 42.9701 72.053L42.3468 71.6446C42.3156 71.5818 42.3468 71.4875 42.4714 71.3933L45.2763 70.231C45.2763 70.1682 45.2763 70.1368 45.214 70.1054C44.7777 69.9483 44.5907 69.8226 44.5907 69.7284C45.6192 68.8802 46.1178 68.3776 46.0555 68.1892C46.0555 68.1263 46.0243 68.0949 45.9931 68.0321C45.3698 67.9379 45.1205 67.8122 45.1517 67.6551C46.0243 66.6813 46.4606 66.1473 46.4918 66.0845L47.7384 62.9432C47.7073 62.7861 47.6449 62.7233 47.5203 62.7547C46.6788 63.1317 46.0555 63.383 45.6503 63.5086C45.2763 63.6343 45.0582 63.6343 44.9958 63.5401C44.9335 63.4772 44.9335 63.383 44.9647 63.2259L45.9308 61.5925L43.9362 62.5034C43.7492 62.5663 43.6246 62.5663 43.6246 62.5348C43.5622 62.472 43.5622 62.4092 43.6246 62.3149C44.1232 61.7495 44.4037 61.3726 44.4349 61.1841L44.6219 59.9904C44.6219 59.9276 44.6219 59.8962 44.5595 59.8647Z" fill="#D75EA2"/>
<path d="M43.3441 55.1528L42.2533 55.2156C39.3237 55.4983 36.3318 56.9433 33.2776 59.5192C32.3426 60.2731 31.3453 61.3411 30.2857 62.7547C29.5065 64.4196 28.5404 66.1473 27.3873 67.9378C27.2626 68.5661 27.2938 69.1629 27.4808 69.697C27.4808 69.7598 27.3873 69.9797 27.1691 70.3566L27.5431 70.7964C26.764 71.3618 26.39 72.5241 26.4523 74.2518L26.5458 74.5974L27.3561 76.1052C27.6366 76.2937 27.7924 76.3879 27.7924 76.4507C27.6054 76.6706 27.5431 77.0476 27.6678 77.613C27.6678 77.9271 28.0418 78.8695 28.7586 80.4402C29.1014 81.037 29.3819 81.414 29.6624 81.5396C29.8805 81.6653 30.2545 81.6653 30.8155 81.5396L31.4076 82.1365C32.9348 82.3249 34.1502 82.4192 35.0228 82.3878C35.615 82.4506 36.4565 81.9166 37.5161 80.7543C37.9524 80.9114 38.9185 80.5344 40.3833 79.6863C41.3183 79.1208 42.5026 78.2727 43.9362 77.1418C44.2167 76.9219 44.279 76.545 44.1232 76.0109C43.8427 75.4455 43.3752 74.5974 42.6896 73.4979L44.5595 74.2204C44.7777 74.2832 44.9647 74.3147 45.1205 74.3147C45.4322 74.3775 45.9308 74.0319 46.6476 73.3409L47.2086 72.744L48.9227 69.9797L50.2317 65.9588C50.2628 65.7703 50.2628 65.5819 50.2005 65.3306C49.7953 64.7965 49.6083 64.451 49.6395 64.3568C49.733 64.1369 50.0447 63.7599 50.6368 63.2573C50.7303 63.1317 50.7615 63.006 50.7615 62.8489C50.481 60.5872 49.9512 58.7967 49.1097 57.4773C48.8915 57.0061 48.611 56.7862 48.2059 56.7548C47.9877 56.7548 47.8007 56.7548 47.5826 56.8177L45.4322 57.2889C45.3698 57.2574 45.3075 57.226 45.2763 57.1318L46.8034 55.7182C45.4322 55.3098 44.279 55.1214 43.3441 55.1528Z" fill="#850D50" fill-opacity="0.1961"/>
<g style="mix-blend-mode:overlay" opacity="0.4">
<path d="M54.2209 70.0112H54.0962C53.0989 72.1473 52.0081 74.0635 50.8238 75.7912C49.6707 77.5189 48.4241 79.0582 47.0839 80.4089C44.4349 83.079 41.4741 84.9638 38.2017 86.0946C35.8643 86.8171 34.306 87.1627 33.5581 87.1627C33.5269 87.1627 33.4646 87.1627 33.4334 87.1627L31.9375 87.0684C31.1272 86.9428 30.2857 86.7229 29.4442 86.4088C28.4157 86.0004 27.3561 85.4036 26.2653 84.6811C26.3277 84.8381 26.39 84.9638 26.4835 85.1208C26.9198 85.9376 27.4184 86.6915 27.9794 87.3512C28.5404 88.0108 29.1326 88.6077 29.787 89.1417L30.8155 89.8642C32.1556 90.6181 33.9321 91.0579 36.1136 91.1835C38.6692 91.1835 41.2871 90.2726 43.905 88.482C45.214 87.5711 46.5541 86.4402 47.8942 85.0894L49.92 82.8905C50.0758 82.702 50.2628 82.4822 50.4498 82.2937C50.8861 81.5712 51.2913 80.8487 51.6964 80.1262L53.1301 77.142L54.6572 73.1839C55.1558 71.0479 55.0312 70.0112 54.2209 70.0112Z" fill="#940027" fill-opacity="0.1765"/>
</g>
<g style="mix-blend-mode:overlay" opacity="0.4">
<path d="M104.086 0.0859375C102.465 0.839847 100.876 1.71941 99.2551 2.6618C96.6995 4.54657 95.8581 6.68265 96.6995 9.03862C97.7903 11.9286 99.3486 13.6249 101.437 14.1275C103.774 13.6563 105.239 13.4364 105.8 13.4364C105.862 13.4364 105.925 13.4364 105.956 13.4364L109.945 15.1641C111.441 14.85 113.373 13.939 115.711 12.494C115.835 12.4626 115.991 12.4312 116.116 12.4312C116.614 12.4312 117.206 12.7139 117.83 13.2479C118.297 13.782 118.36 14.2846 118.048 14.7244C116.053 16.7662 115.087 17.9599 115.15 18.3368L115.991 24.9021C117.767 27.0068 119.482 30.0224 121.227 33.949C121.881 34.9228 122.567 35.7082 123.315 36.2736C123.44 36.3364 123.533 36.3678 123.658 36.3678C123.845 36.3678 124.032 36.305 124.188 36.148C126.868 32.9438 128.956 30.6821 130.452 29.3942C131.356 28.6403 131.979 28.2319 132.291 28.2319C132.353 28.2319 132.415 28.2633 132.446 28.2947C132.633 28.8916 131.231 31.4674 128.239 36.0537C127.927 36.7762 127.834 37.5301 127.927 38.3783C128.021 38.5353 128.114 38.5982 128.208 38.5982C128.27 38.5982 128.333 38.5667 128.395 38.5353L131.792 35.9281C131.948 35.8338 132.072 35.8024 132.197 35.8024C132.322 35.8024 132.446 35.8652 132.54 35.9595C132.696 36.148 132.665 36.9961 132.478 38.5353C133.101 38.2526 133.568 38.127 133.88 38.127C134.285 38.127 134.441 38.3469 134.379 38.7552C134.441 39.0379 133.818 40.8599 132.54 44.1897C132.478 44.7551 132.727 45.6032 133.319 46.7969C133.849 47.7707 134.472 48.6189 135.22 49.31C137.464 49.9068 138.742 50.378 138.991 50.755C141.453 56.0009 143.074 58.7652 143.822 59.0794C144.102 59.0794 144.383 58.8281 144.663 58.2941C144.819 58.2941 145.256 56.9119 145.941 54.179C146.159 53.268 146.346 52.2628 146.564 51.1005C144.321 43.7185 142.575 37.2474 141.266 31.6559C140.051 28.0748 138.835 25.2791 137.558 23.2687C132.384 16.0437 126.837 10.6093 120.946 6.90254C114.589 2.81886 108.948 0.557131 104.086 0.0859375Z" fill="#F1D2DA" fill-opacity="0.4824"/>
</g>
<g style="mix-blend-mode:overlay" opacity="0.4">
<path d="M63.664 4.95508C61.9188 5.55192 60.7656 5.89747 60.2047 6.02312C46.9904 8.19061 39.6977 9.76125 38.3576 10.7665C33.2776 12.934 28.6651 16.1381 24.52 20.316C22.6501 22.2322 20.8113 24.4625 18.9726 27.0384C17.7883 28.4833 14.6717 35.0486 9.62289 46.7657L2.17432 57.1319C2.26781 57.1633 2.39248 57.1633 2.51714 57.1633C2.61063 57.1633 2.7353 57.1633 2.85996 57.1319C3.20278 57.0377 3.57677 56.8178 3.98192 56.4722C9.06191 51.4462 13.2381 47.6138 16.5105 44.9437C17.165 44.1898 17.8506 42.7762 18.4739 40.703C19.3777 39.9805 20.749 39.415 22.6189 39.0067C23.3669 37.8758 23.3669 36.0539 22.6189 33.5094L26.016 30.9964C26.951 28.1692 27.7301 26.4101 28.3846 25.7504C29.2261 25.3421 29.974 25.1536 30.5973 25.1536C31.3765 25.1536 31.9998 25.4677 32.4361 26.1274C32.6231 26.7556 32.2179 29.143 31.2518 33.2895C31.1895 33.7607 31.2206 34.2005 31.3765 34.5774C31.3453 34.7031 31.6881 34.7659 32.4049 34.7659C33.1529 34.7659 34.2749 34.7031 35.802 34.5774C36.2695 34.6717 36.3318 34.9544 36.0201 35.3942C38.4822 33.6036 40.6327 31.8131 42.4091 30.0854L44.8088 27.5095C45.2763 27.0698 46.149 25.8447 47.4268 23.7714C47.4579 23.8342 47.4579 23.8971 47.5203 23.8971C47.5514 23.8971 47.6138 23.8656 47.7073 23.7714C48.2371 23.0175 49.4837 19.2794 51.416 12.5256C51.8211 11.6146 52.2263 10.9864 52.5691 10.6408C57.5556 8.19061 61.2643 6.30583 63.664 4.95508Z" fill="#F1D2DA" fill-opacity="0.4824"/>
</g>
</svg>
