<svg width="140" height="94" viewBox="0 0 140 94" fill="none" xmlns="http://www.w3.org/2000/svg">
<path d="M132.494 28.6748L131.236 29.2146C129.17 30.1442 126.774 30.9839 124.108 31.7636C123.03 32.0335 122.88 32.0035 123.629 31.7336C122.821 32.0635 119.975 32.7832 115.154 33.9228C113.177 34.3426 111.17 34.7624 109.074 35.1223C103.953 36.1119 96.3157 36.9816 86.163 37.7013C83.6772 38.451 80.9519 38.9908 78.0169 39.3207C76.1301 39.5306 74.2433 39.6205 72.3565 39.6205C68.2835 39.6505 64.0307 39.1107 59.6581 38.0611C47.439 37.5214 38.1847 36.7117 31.8954 35.6021C25.696 34.5525 22.0722 33.8328 20.994 33.5029C18.688 32.9631 16.4418 32.3634 14.3154 31.7336C15.0941 32.0635 14.7646 32.0035 13.2672 31.6137C11.5601 31.1338 9.88293 30.5341 8.20579 29.8443C-2.75554 44.0588 -0.56925 58.2433 14.7347 72.3378C28.5412 83.3135 47.0496 89.0113 70.2601 89.4611C81.1915 89.4911 91.6137 88.0517 101.527 85.2028C113.177 81.7242 122.641 76.5662 129.889 69.6988C142.437 55.7243 143.306 42.0496 132.494 28.6748Z" fill="#613216"/>
<path d="M8.20578 29.8442C-2.75554 44.0587 -0.56925 58.2432 14.7347 72.3377C28.5412 83.3134 47.0496 89.0112 70.2601 89.461C70.3499 89.461 70.4398 89.461 70.5296 89.461C73.4047 89.461 76.2498 89.3711 79.0651 89.1612C78.9752 87.8717 78.8554 86.3123 78.6458 84.513C76.16 72.0678 74.9321 64.4508 74.9321 61.6918C74.393 51.6458 74.7824 44.2686 76.1001 39.5305C74.8423 39.6204 73.5844 39.6804 72.3265 39.6804C72.2666 39.6804 72.1768 39.6804 72.1169 39.6804C68.1037 39.6804 63.9409 39.1706 59.6282 38.121C47.409 37.5812 38.1548 36.7716 31.8655 35.662C25.666 34.6124 22.0422 33.8927 20.964 33.5628C18.658 33.023 16.4418 32.4232 14.3154 31.7935C14.6448 31.9434 14.7646 32.0034 14.6748 32.0034C14.555 32.0034 14.0758 31.8835 13.2672 31.6735C11.59 31.1038 9.88293 30.504 8.20578 29.8442Z" fill="#E9C6B3" fill-opacity="0.2235"/>
<path d="M69.3918 7.23312C50.4341 7.38307 34.5911 9.54223 21.8628 13.6806C7.87658 18.2388 0.59898 24.3864 0 32.1534C0 32.2734 0 32.3633 0 32.4833C0.029949 35.3922 1.10812 38.1211 3.26445 40.6401C3.35429 40.7601 3.44414 40.85 3.56394 40.94L6.37915 43.579C6.46899 43.6689 6.55884 43.7589 6.67864 43.8189C9.1644 45.7381 12.2791 47.4775 16.0527 49.0368C27.2237 53.685 41.9585 56.474 60.3472 57.4336H60.4071C63.432 57.5535 66.3969 57.5835 69.3019 57.5835C84.7556 57.5835 98.4723 56.0841 110.422 53.0553C125.337 49.2768 134.471 43.9089 137.855 37.0115C138.005 36.7117 138.095 36.4118 138.155 36.1119L138.754 33.203C138.814 32.8432 138.843 32.4833 138.814 32.1234C138.215 24.3565 130.937 18.2088 116.951 13.6506C104.252 9.51223 88.4094 7.35307 69.4218 7.20312H69.3918V7.23312Z" fill="#F1D5BB"/>
<path d="M134.74 30.5041L134.141 33.413C131.296 39.2307 123 43.9089 109.254 47.4175C95.3875 50.9262 79.0953 52.3356 60.3173 51.6759C42.4078 50.7462 28.0622 48.0473 17.3105 43.579C13.8664 42.1396 11.0212 40.5502 8.80502 38.8409L5.98981 36.2019C4.43246 34.4026 3.65381 32.5133 3.65381 30.5341C4.13299 24.4765 10.5121 19.4684 22.8511 15.45C35.1901 11.4315 50.6438 9.36234 69.2121 9.2124C87.7805 9.36234 103.234 11.4615 115.573 15.45C127.882 19.4084 134.291 24.4465 134.74 30.5041Z" fill="#281509"/>
<path d="M70.4104 22.3174C53.0999 22.4973 38.6945 24.9564 27.224 29.7245C19.6469 32.8733 14.4658 36.5318 11.7104 40.7002C13.3576 41.6898 15.2444 42.6195 17.3408 43.4891C28.0925 47.9574 42.4081 50.6564 60.3476 51.586C63.3425 51.7059 66.2475 51.7359 69.1226 51.7359C84.2469 51.7359 97.664 50.2665 109.314 47.3276C117.73 45.1985 124.079 42.6195 128.422 39.6207C125.517 35.8721 120.605 32.5734 113.657 29.6945C102.096 24.9863 87.721 22.4973 70.4104 22.3174Z" fill="#1D0E06"/>
<path d="M94.3996 17.0692C91.6143 13.8305 87.8108 11.2215 83.0189 9.30222C78.6763 7.62287 73.8546 6.75321 68.6135 6.60327C53.7289 7.02311 48.0385 10.3818 51.5426 16.6794C53.3994 19.0784 57.1131 21.3276 62.6237 23.3668C69.3023 25.9757 75.7713 27.835 82.0007 28.9746C91.8239 30.6839 97.5142 29.3045 99.0716 24.7762L94.3996 17.0692Z" fill="#B47148"/>
<path d="M54.9863 26.3659C53.7285 17.3694 50.8234 10.2622 46.2412 5.07418C40.5509 -0.53364 35.9388 -1.49328 32.3748 2.19529C30.518 4.62434 29.3799 8.28293 28.9007 13.171C28.8708 20.4882 29.4099 25.1964 30.518 27.2655C34.2616 36.0821 39.6225 39.3508 46.6605 37.1617L54.9863 26.3659Z" fill="#B47148"/>
<path d="M52.5005 27.2654C49.5356 26.6357 47.2894 24.5665 45.7321 21.0878C44.7438 19.1386 43.9351 16.9194 43.2762 14.4604C42.5575 11.7315 42.0783 8.73263 41.8686 5.43392C41.8387 5.224 41.7189 5.04406 41.5392 4.95409C40.8204 4.44429 40.521 4.86413 40.6108 6.15363C40.4611 6.93332 40.8504 10.442 41.7189 16.7095C40.5808 10.1421 39.3829 6.12364 38.0951 4.65421C35.9987 3.30473 34.2616 4.02446 32.884 6.81337C32.0753 8.64266 31.7159 11.5215 31.7459 15.54C31.7159 17.7591 32.1652 21.2677 33.1236 26.0659C31.4764 22.3773 30.6078 17.969 30.488 12.871C30.2784 12.3912 30.0388 12.4212 29.6794 13.021C29.0205 18.9886 30.0388 24.8064 32.7342 30.5042C36.3281 37.0116 40.2813 41.3899 44.6239 43.699L52.5005 27.2654Z" fill="#5B2300" fill-opacity="0.2235"/>
<path d="M70.8891 9.03247H70.7992C68.8226 9.2124 68.1038 9.45231 68.6729 9.78218L79.4545 12.841C80.3829 13.1409 82.12 13.8906 84.6656 15.0901C83.4078 14.5503 82.1499 14.0405 80.8321 13.5907C80.2032 13.2908 78.1967 12.751 74.7525 11.9413C72.0571 11.3715 69.0322 10.9817 65.7379 10.8318C65.4084 10.8318 65.079 10.8318 64.7496 10.8318C61.6648 10.8318 58.5202 11.1916 55.3456 11.9413C54.507 12.1512 53.8481 12.4212 53.3989 12.781C52.74 13.4408 52.5004 13.9506 52.6502 14.3704C52.7101 14.4604 53.0395 14.5503 53.6684 14.6403C56.274 14.8202 58.011 15.0001 58.9095 15.1801C60.2572 15.45 61.3653 15.7498 62.2039 16.1097C70.919 21.5676 78.4961 25.7959 84.9052 28.7948C85.5341 29.0647 86.1331 29.3346 86.7021 29.6045C87.5407 29.6644 88.3793 29.6944 89.1879 29.6944C89.7869 29.6944 90.3859 29.6644 90.9849 29.6344C95.4173 29.3046 98.1426 27.6852 99.131 24.7763L94.9381 17.879C94.2792 17.4592 93.6503 17.0393 92.9914 16.6495L90.1762 15.0001C88.3194 13.9805 86.4925 13.0809 84.6656 12.3012L82.0002 11.2516C80.2332 10.6218 78.4961 10.112 76.789 9.75218C74.6926 9.33234 72.7459 9.09245 70.8891 9.03247Z" fill="#5B2300" fill-opacity="0.2235"/>
<path d="M42.3182 37.6415C38.4548 32.6334 34.6513 29.0049 30.8777 26.7257C24.3189 22.7073 18.928 20.5182 14.7052 20.2183C10.4525 19.9184 7.63725 21.0579 6.2596 23.607C4.58245 26.5158 4.76216 30.1444 6.79869 34.4927C9.16466 39.2309 12.1296 42.0498 15.6935 42.9194C23.8396 46.0682 29.7097 48.1374 33.2736 49.127C36.2086 49.9967 41.4197 50.7164 48.907 51.2262L42.3182 37.6415Z" fill="#DDA07B"/>
<path d="M103.863 30.1743C96.4957 25.4361 87.4511 22.4673 76.6994 21.2977C65.0492 20.608 57.532 22.4373 54.1179 26.7556C53.2194 28.5249 54.1478 30.6841 56.8732 33.2331C61.1559 37.1615 65.1391 39.9205 68.8228 41.4799C73.3152 43.4891 78.6461 44.8685 84.8156 45.6782C87.6308 46.1281 91.4642 45.7382 96.316 44.4187L103.863 30.1743Z" fill="#DDA07B"/>
<path d="M123.39 35.3925C125.936 36.3821 127.732 36.802 128.781 36.622C130.757 36.5921 132.285 36.0223 133.363 34.9127C135.489 32.6336 135.519 29.5448 133.453 25.6463C128.062 18.5391 119.736 13.9509 108.505 11.9117C103.324 10.952 99.4607 10.6222 96.9749 10.922C95.0582 11.132 93.9501 12.2415 93.6805 14.1908C93.381 15.7502 94.4891 18.4191 97.0048 22.1677C101.587 28.4352 104.732 31.8839 106.409 32.4836L123.39 35.3925Z" fill="#DDA07B"/>
<path d="M93.6502 12.6011H93.6202H93.5004C92.4223 12.9909 92.8415 14.9402 94.7583 18.3888C94.7583 18.4188 94.7882 18.4188 94.7882 18.4488C95.2075 19.2285 95.7166 20.0682 96.2857 20.9978C96.675 21.5976 97.0344 22.1674 97.3938 22.6772L97.4237 22.7071C99.011 25.1062 99.9395 26.3357 100.209 26.3657C100.269 26.4257 100.329 26.4857 100.389 26.5456C102.096 28.135 103.593 29.3046 104.821 30.0543C106.558 31.1339 108.235 32.1535 109.883 33.0531L123.389 35.3322C125.726 36.2019 127.283 36.6217 128.091 36.6217C128.181 36.6217 128.241 36.6217 128.301 36.6217C132.314 36.5318 134.531 34.7625 134.92 31.3738C134.95 31.3138 134.98 31.2238 134.98 31.1039C133.542 30.714 130.727 29.6644 126.504 27.9251C117.04 23.5168 108.056 18.9286 99.5202 14.0705C99.3704 14.0405 99.2506 14.0105 99.1608 14.0105C98.9212 14.0105 98.8613 14.1605 99.041 14.4903C99.2506 14.9102 99.6699 15.36 100.329 15.8998L110.002 22.3773C107.397 21.1777 104.911 19.8882 102.545 18.4788C100.688 17.4892 97.9329 15.5699 94.2192 12.751C94.1593 12.721 94.1294 12.721 94.0994 12.691C93.9197 12.661 93.77 12.6011 93.6502 12.6011Z" fill="#994D1E" fill-opacity="0.2235"/>
<path d="M73.615 29.0649C73.4952 29.0649 73.4053 29.0649 73.2855 29.0649H72.9561C71.6084 29.0949 70.8896 29.1249 70.8297 29.2149C70.3505 29.3648 70.2008 29.6047 70.3505 29.9346C70.8297 30.0845 71.3089 30.2045 71.818 30.2645C75.2921 30.6843 77.5982 31.0142 78.7362 31.2541C80.0839 31.524 81.7611 32.0038 83.7377 32.6935C78.4068 31.494 73.9444 30.8942 70.2906 30.8942C69.9313 30.8942 69.5719 30.8942 69.2125 30.9242C67.1161 30.9542 65.1993 31.1641 63.4024 31.554C63.1628 31.7939 63.4623 32.3637 64.2409 33.2933C68.4338 37.7016 72.1175 41.0303 75.322 43.2494L78.3469 44.5689C78.5266 44.5989 78.7063 44.6589 78.9159 44.6889C81.9408 45.2886 84.0672 45.6485 85.325 45.7684C85.9539 45.8284 86.6128 45.8884 87.2717 45.8884C87.5412 45.8884 87.8108 45.8884 88.1103 45.8584C88.8291 45.8284 89.6077 45.7684 90.4163 45.6485L99.8802 32.7535C89.0686 30.2945 80.2936 29.0649 73.615 29.0649Z" fill="#994D1E" fill-opacity="0.2235"/>
<path d="M19.7967 24.5964H19.647C19.2577 24.6564 19.078 24.9863 19.1079 25.586C24.5586 28.4049 27.9429 30.3542 29.2906 31.4638C31.4169 32.9632 33.0941 34.4326 34.322 35.8721C33.4535 35.0324 32.4951 34.1927 31.4169 33.413C28.5119 31.4338 26.6551 30.2642 25.8165 29.9344C23.0013 28.4349 19.7368 27.0255 16.0231 25.706C14.7952 26.3058 14.1963 26.8755 14.1963 27.4453C17.0414 29.3646 18.9282 30.7141 19.8566 31.4938L12.4293 28.375L11.9202 28.285C10.9318 28.375 10.3628 29.5145 10.2131 31.6737C10.5126 33.8029 11.3212 35.8121 12.6988 37.6714L14.7653 40.1904L18.2094 43.789C20.1861 43.8489 21.5038 44.0889 22.1627 44.5387C22.6718 45.0185 23.2109 45.4983 23.75 45.9781C28.8713 47.8374 32.0758 48.887 33.3337 49.1569C37.4666 50.1765 42.6777 50.8962 48.967 51.2561L48.0386 49.3368L44.2351 43.699C43.8757 42.9793 43.4265 42.2596 42.8874 41.4799C41.36 39.5006 40.3118 38.2711 39.7727 37.8213C38.0956 36.112 36.059 34.2527 33.6332 32.3034C30.9976 30.2942 29.4403 29.1846 28.9611 28.9447C25.9363 26.9355 22.9114 25.5261 19.7967 24.5964Z" fill="#994D1E" fill-opacity="0.2235"/>
<path d="M115.962 25.3163H115.813C112.399 25.4063 108.924 26.3659 105.331 28.2552C102.036 29.9945 100.03 31.164 99.4006 31.7338C94.6687 35.3624 92.0931 37.4616 91.6439 38.0014C86.5525 42.6496 83.0485 46.9679 81.1617 50.9563L87.1515 51.4361L90.1464 51.3462C99.76 49.6668 105.69 48.4373 107.996 47.7176C114.645 46.0982 120.215 44.179 124.648 41.9598C125.576 40.6703 126.205 38.6911 126.564 35.9921C126.684 34.5527 126.325 33.0233 125.546 31.344C125.127 30.2044 123.989 28.8249 122.102 27.2056C121.174 26.6058 120.305 26.186 119.466 25.9161C117.909 25.4363 116.741 25.2563 115.962 25.3163Z" fill="#D68553"/>
<path d="M51.2728 26.5156L49.5358 26.6056C48.5475 26.6956 47.649 26.8755 46.8104 27.1454C45.9719 27.4153 45.2231 27.7751 44.5643 28.195L43.6059 28.9147C41.7491 30.594 40.7308 32.8132 40.611 35.6021C40.5811 40.2203 42.8572 45.2583 47.4394 50.7162C48.248 51.256 49.985 51.7658 52.7104 52.2456C56.1844 52.2456 59.2093 52.2756 61.7849 52.3656C67.8646 52.0357 75.1122 51.7358 83.5578 51.4959L80.2934 45.9181L77.3584 41.6597L74.2437 37.9112L70.9493 34.7024L67.4453 32.0035L63.7615 29.8443L59.8981 28.195L55.8251 27.0854L51.2728 26.5156Z" fill="#D68553"/>
<path d="M116.921 27.8052C112.668 29.0947 108.685 30.6241 104.911 32.4534C103.653 33.1131 102.365 33.8928 101.078 34.7325C99.2507 35.932 97.2142 37.4914 94.9081 39.5006C91.5538 42.4095 87.8701 46.278 83.8569 51.1661L87.1513 51.436L90.1462 51.346C105.48 48.737 116.382 45.8881 122.851 42.8593C124.647 39.6506 125.246 37.2215 124.647 35.5722C123.719 32.9332 122.102 31.6137 119.736 31.5537C118.598 31.5837 117.46 31.7936 116.322 32.1835C114.135 33.1131 112.249 33.9528 110.661 34.7325C106.678 36.7417 102.096 39.6506 97.0045 43.5191C103.204 36.5318 109.853 31.3138 116.921 27.8052Z" fill="#994D1E" fill-opacity="0.2235"/>
<path d="M52.7702 29.8748H52.321C51.0332 29.9347 49.9251 30.0847 49.0266 30.2946C48.817 30.3546 48.817 30.5045 49.0266 30.6844C53.3992 31.4641 57.0529 32.5137 59.8981 33.8032C63.432 35.2726 66.1873 36.832 68.134 38.4814C64.8396 36.4122 61.4554 35.0627 57.9814 34.373C53.5489 33.6533 50.4342 33.6833 48.6972 34.4929C48.1281 34.6729 47.2297 35.3326 46.0018 36.4722C45.4028 37.4918 45.0134 38.6013 44.8337 39.8309C44.2348 42.2299 44.684 45.2288 46.1215 48.8574C46.3012 49.6071 46.7505 50.2068 47.4094 50.6866C47.7687 51.0165 48.9368 51.4364 50.9733 51.8862C51.5423 52.0061 52.0814 52.1261 52.6804 52.2161C56.1544 52.2161 59.1793 52.246 61.7549 52.336C67.4452 52.0061 74.1538 51.7362 81.8806 51.5263L81.1319 49.6671C79.0355 44.779 76.0406 40.8205 72.2071 37.7317C70.5899 36.5921 69.0325 35.5725 67.4752 34.6729L65.1991 33.4134C63.7016 32.6337 62.2341 32.0039 60.8265 31.4941C58.0113 30.4745 55.3159 29.9347 52.7702 29.8748Z" fill="#994D1E" fill-opacity="0.2235"/>
<path d="M72.8057 21.5977H72.7159C70.5296 21.6276 68.7626 21.7476 67.4449 21.8975C64.8393 22.2574 63.0723 22.6173 62.084 22.9771C62.1738 23.0071 62.6231 23.0371 63.4616 23.0371C65.8276 22.8572 67.8641 22.7372 69.6012 22.7372C70.29 22.7072 71.5479 22.7372 73.4047 22.7972C74.6626 22.8572 75.8006 22.9171 76.8488 23.0071C78.9752 23.247 80.7123 23.4869 82.0899 23.7568C80.1133 23.4869 77.9569 23.307 75.591 23.247C74.1534 23.217 73.0752 23.277 72.3265 23.4869C71.6976 23.7568 71.3682 24.1467 71.3981 24.6565C71.3682 25.4062 71.6077 25.946 72.1768 26.2159C72.5961 26.3958 73.1052 26.5457 73.7042 26.6357C80.263 27.5953 84.0965 28.2251 85.2645 28.465C86.163 28.6149 89.3675 29.5146 94.8781 31.104C95.7466 31.3139 96.3157 31.4039 96.5852 31.3739C97.4238 31.4338 98.8014 30.924 100.778 29.7845L100.239 28.525C96.7649 26.9056 94.7284 25.976 94.1294 25.796C90.8949 24.5965 89.0081 23.9367 88.4391 23.8468C87.2112 23.4869 86.0432 23.217 84.9051 22.9771C84.7553 22.8572 82.629 22.5573 78.5559 22.1075C75.8306 21.7476 73.9138 21.5977 72.8057 21.5977Z" fill="#FBD8C2" fill-opacity="0.4275"/>
<path d="M134.022 27.5954C131.057 22.4074 127.044 18.6889 121.953 16.4397C118.359 14.7304 115.334 13.6508 112.878 13.171C106.888 12.1514 102.995 11.7916 101.198 12.0315C108.296 13.8607 113.028 15.4501 115.334 16.8296C115.873 17.0995 116.262 17.3994 116.532 17.6693C119.048 20.788 121.054 22.8572 122.581 23.9068C123.45 24.5366 124.348 25.0764 125.337 25.5862C128.481 26.9057 130.218 27.7154 130.548 27.9553C131.536 28.495 132.614 29.1848 133.782 30.0245L134.022 27.5954Z" fill="#FBD8C2" fill-opacity="0.4275"/>
<path d="M59.6887 33.9528C56.9334 32.7233 54.9867 32.0035 53.8486 31.7936C52.1415 31.3738 50.4943 31.3138 48.937 31.6137C45.5827 32.2135 43.5462 34.0128 42.8274 37.0416C43.7259 36.052 44.8939 35.2123 46.3614 34.4926C47.7989 33.7429 49.3263 33.293 50.9136 33.1131C52.1116 32.9332 53.7288 32.9932 55.7055 33.2331C55.8252 33.1431 57.6522 33.6529 61.1562 34.7925L59.6887 33.9528Z" fill="#FBD8C2" fill-opacity="0.4275"/>
<path d="M53.9978 22.6175C53.3689 17.8193 51.8115 13.531 49.3557 9.78245C47.8283 7.17347 45.642 5.01431 42.7969 3.33496C44.6537 4.80439 46.4506 7.02352 48.1877 9.96237C50.0146 13.0512 51.7217 16.9197 53.309 21.5978L53.9978 22.6175Z" fill="#FBD8C2" fill-opacity="0.4275"/>
<path d="M121.084 76.8062C121.802 72.1581 120.634 68.3795 117.64 65.5006C115.304 63.1915 111.59 62.2019 106.499 62.5618C102.366 62.7717 97.1844 64.9009 91.0448 69.0093C86.4626 71.7682 82.1799 75.6067 78.1668 80.5548C74.9922 84.1534 73.7942 87.3621 74.5729 90.211C75.3216 92.76 78.017 94.0195 82.6591 93.9896C86.6723 94.1395 93.0215 92.6701 101.767 89.6112C110.182 86.2526 115.843 82.9838 118.688 79.7751L121.084 76.8062Z" fill="#D28A5D"/>
<path d="M116.232 64.4211C117.22 69.0094 115.633 72.8479 111.5 75.9966C109.883 77.2861 108.116 78.5157 106.169 79.6852L103.144 81.3945C101.048 82.5041 98.7719 83.5537 96.346 84.5133C91.4943 86.4626 85.9836 88.1719 79.8142 89.6113C80.2634 89.7613 80.8923 89.8213 81.671 89.8213C83.8573 89.8213 87.3014 89.2515 91.9735 88.1419C96.7953 86.8824 99.3708 86.1927 99.7003 86.0427L103.294 84.6633C104.193 84.2734 105.48 83.6737 107.188 82.804C107.307 82.744 107.397 82.714 107.427 82.714C107.457 82.714 107.457 82.744 107.397 82.804C103.654 84.8732 99.4008 86.6125 94.6389 88.052C92.2729 88.7717 89.7572 89.3714 87.1517 89.9112C84.5161 90.451 81.7908 90.9009 78.8857 91.2907L75.2919 91.7105C75.831 92.3703 76.5797 92.8801 77.5081 93.2399C78.5563 93.7198 80.4431 93.9896 83.1385 93.9896C85.8339 93.9896 89.4578 93.3299 94.0699 92.0404C99.9698 90.3611 104.223 88.8017 106.888 87.3922C110.632 85.5629 112.728 84.4534 113.147 84.0935C114.345 83.3738 115.394 82.6541 116.292 81.9343C117.19 81.2146 117.969 80.4949 118.598 79.8052L120.994 76.8663C121.623 72.7279 120.784 69.2793 118.478 66.5503C117.909 65.6807 117.131 64.9909 116.232 64.4211Z" fill="#A05F38" fill-opacity="0.3569"/>
<path d="M112.638 63.4612C106.978 62.8314 100.719 64.4807 93.8003 68.3792C88.2597 71.588 83.3781 76.4461 79.1253 82.9836C83.9171 77.5557 89.9668 73.1174 97.3043 69.6687C93.9201 71.408 91.3145 73.4473 89.4876 75.7264C87.541 78.1554 87.1816 79.7448 88.4394 80.4945C90.2064 81.4242 92.9018 81.4242 96.5257 80.4945C97.9932 80.0447 99.4906 79.4449 101.048 78.6352C101.617 78.3354 102.485 77.8555 103.594 77.1958L106.858 75.1266C105.54 76.3561 103.114 77.9455 99.6104 79.8648C99.4607 80.1047 95.4475 81.724 87.5709 84.7229C93.4709 83.7333 98.4723 82.1439 102.515 79.9547C108.805 76.0263 112.459 73.2374 113.447 71.558C115.633 68.0194 115.783 65.5303 113.836 64.1809L112.638 63.4612Z" fill="#F4BD9B" fill-opacity="0.3569"/>
<path d="M119.856 68.3496C119.646 70.7787 118.867 73.1178 117.55 75.3069C116.561 76.9563 115.244 78.5756 113.656 80.075L110.991 82.3242L107.008 85.0831C105.63 85.9228 103.384 86.8524 100.269 87.842C97.7534 88.7117 93.1412 89.9112 86.4626 91.4406C84.9053 91.7705 83.5575 91.9804 82.3596 92.0704C80.4428 92.1603 78.7358 92.1903 77.2084 92.1903C76.7591 92.1903 76.3099 92.1903 75.8607 92.1903C76.3099 92.6102 76.9089 92.94 77.5677 93.2099C78.6159 93.6897 80.5027 93.9596 83.1982 93.9596C85.8936 93.9596 89.5174 93.2999 94.1295 92.0104C100.029 90.331 104.282 88.7717 106.948 87.3622C110.691 85.5329 112.788 84.4233 113.207 84.0635C114.405 83.3438 115.453 82.6241 116.352 81.9043C117.25 81.1846 118.029 80.4649 118.658 79.7752L121.054 76.8363C121.593 73.5676 121.173 70.7487 119.856 68.3496Z" fill="#71320A" fill-opacity="0.3569"/>
</svg>
