<svg width="132" height="116" viewBox="0 0 132 116" fill="none" xmlns="http://www.w3.org/2000/svg">
<path d="M131.924 61.0619C131.924 91.4046 102.406 116 65.9449 116C29.5179 116 0 91.4046 0 61.0619C0 30.7192 29.5179 6.12354 65.9791 6.12354C102.406 6.12354 131.924 30.7192 131.924 61.0619Z" fill="#C1710C"/>
<path d="M129.838 47.2754C130.282 52.475 131.001 57.8457 129.974 62.9085C123.989 92.4644 92.6239 109.671 63.0718 109.671C60.1987 109.671 52.4002 108.44 48.9798 107.961C33.8618 105.806 21.138 99.785 10.4664 90.6856C22.1983 105.874 42.6521 115.931 65.9449 115.931C102.372 115.931 131.924 91.3356 131.924 60.9929C131.924 56.3064 131.206 51.6882 129.838 47.2754Z" fill="#AF5D0E"/>
<path d="M131.001 49.5677C131.001 76.9342 101.825 99.1353 65.8423 99.1353C29.8599 99.1353 0.684084 76.9342 0.684084 49.5677C0.684084 22.2011 29.8599 0 65.8423 0C101.825 0 131.001 22.2011 131.001 49.5677Z" fill="#FAEDA6"/>
<path d="M66.0818 86.7516C32.5278 86.7516 4.89115 67.4582 1.33395 42.6572C0.923509 44.915 0.684082 47.2069 0.684082 49.5673C0.684082 76.9338 29.8599 99.135 65.8423 99.135C101.825 99.135 131.001 76.9338 131.001 49.5673C131.001 47.72 130.864 45.907 130.59 44.094C126.178 68.1765 98.9858 86.7516 66.0818 86.7516Z" fill="#FAE16A"/>
<path d="M65.9107 0.820801C61.259 0.820801 55.9574 1.2313 49.9376 2.18913C49.9376 2.18913 18.128 6.32832 12.7922 29.1452C7.66165 51.1068 21.8562 62.9429 43.473 62.9429C44.3281 62.9429 45.1832 62.9087 46.0725 62.8745C69.1259 61.9166 90.5033 47.1045 95.5996 34.4817C100.08 23.364 99.8751 0.820801 65.9107 0.820801Z" fill="#FCF4DC"/>
<path d="M39.608 97.5617C39.608 97.5617 47.9537 100.709 54.5551 100.709C55.8206 101.496 56.2995 104.643 51.4083 104.643C46.5514 104.643 39.3002 102.898 36.1534 100.23C33.0067 97.5617 34.1012 95.3724 39.608 97.5617Z" fill="#CB770B"/>
<path d="M26.0633 32.7714C26.8 32.7714 27.3972 32.1742 27.3972 31.4375C27.3972 30.7007 26.8 30.1035 26.0633 30.1035C25.3266 30.1035 24.7293 30.7007 24.7293 31.4375C24.7293 32.1742 25.3266 32.7714 26.0633 32.7714Z" fill="#A8560E"/>
<path d="M31.5017 29.1451C32.314 29.1451 32.9725 28.4867 32.9725 27.6744C32.9725 26.8621 32.314 26.2036 31.5017 26.2036C30.6894 26.2036 30.0309 26.8621 30.0309 27.6744C30.0309 28.4867 30.6894 29.1451 31.5017 29.1451Z" fill="#A8560E"/>
<path d="M41.2156 29.59C41.2156 30.1373 40.7709 30.5477 40.2579 30.5477C39.7106 30.5477 39.3002 30.1031 39.3002 29.59C39.3002 29.0428 39.7448 28.6323 40.2579 28.6323C40.7709 28.6323 41.2156 29.077 41.2156 29.59Z" fill="#A8560E"/>
<path d="M45.2174 33.7287C45.6897 33.7287 46.0725 33.3459 46.0725 32.8736C46.0725 32.4014 45.6897 32.0186 45.2174 32.0186C44.7452 32.0186 44.3623 32.4014 44.3623 32.8736C44.3623 33.3459 44.7452 33.7287 45.2174 33.7287Z" fill="#A8560E"/>
<path d="M51.0663 24.0136C52.1997 24.0136 53.1185 23.0948 53.1185 21.9614C53.1185 20.828 52.1997 19.9092 51.0663 19.9092C49.9329 19.9092 49.014 20.828 49.014 21.9614C49.014 23.0948 49.9329 24.0136 51.0663 24.0136Z" fill="#A8560E"/>
<path d="M63.7901 32.3947C63.7901 33.2498 63.0718 33.968 62.2167 33.968C61.3274 33.968 60.6433 33.2498 60.6433 32.3947C60.6433 31.5396 61.3616 30.8213 62.2167 30.8213C63.106 30.8213 63.7901 31.5396 63.7901 32.3947Z" fill="#A8560E"/>
<path d="M56.2653 36.8764C56.7942 36.8764 57.223 36.4476 57.223 35.9186C57.223 35.3897 56.7942 34.9609 56.2653 34.9609C55.7363 34.9609 55.3076 35.3897 55.3076 35.9186C55.3076 36.4476 55.7363 36.8764 56.2653 36.8764Z" fill="#A8560E"/>
<path d="M54.5893 29.3503C54.8537 29.3503 55.0681 29.1359 55.0681 28.8714C55.0681 28.607 54.8537 28.3926 54.5893 28.3926C54.3248 28.3926 54.1104 28.607 54.1104 28.8714C54.1104 29.1359 54.3248 29.3503 54.5893 29.3503Z" fill="#A8560E"/>
<path d="M63.0718 22.8163C64.5453 22.8163 65.7397 21.6218 65.7397 20.1484C65.7397 18.6749 64.5453 17.4805 63.0718 17.4805C61.5984 17.4805 60.4039 18.6749 60.4039 20.1484C60.4039 21.6218 61.5984 22.8163 63.0718 22.8163Z" fill="#A8560E"/>
<path d="M37.8294 54.151C38.6417 54.151 39.3002 53.4925 39.3002 52.6802C39.3002 51.868 38.6417 51.2095 37.8294 51.2095C37.0171 51.2095 36.3586 51.868 36.3586 52.6802C36.3586 53.4925 37.0171 54.151 37.8294 54.151Z" fill="#A8560E"/>
<path d="M50.4506 56.7855C50.4506 57.4696 49.9033 57.9826 49.2193 57.9826C48.5352 57.9826 48.0221 57.4354 48.0221 56.7855C48.0221 56.1014 48.5694 55.5884 49.2193 55.5884C49.9033 55.5884 50.4506 56.1356 50.4506 56.7855Z" fill="#A8560E"/>
<path d="M17.444 58.9746C18.3885 58.9746 19.1541 58.2089 19.1541 57.2644C19.1541 56.3199 18.3885 55.5542 17.444 55.5542C16.4994 55.5542 15.7338 56.3199 15.7338 57.2644C15.7338 58.2089 16.4994 58.9746 17.444 58.9746Z" fill="#A8560E"/>
<path d="M22.5403 45.9759C22.5403 46.9678 21.7194 47.7887 20.7275 47.7887C19.7356 47.7887 18.9147 46.9678 18.9147 45.9759C18.9147 44.984 19.7356 44.1631 20.7275 44.1631C21.7194 44.1631 22.5403 44.984 22.5403 45.9759Z" fill="#A8560E"/>
<path d="M28.5944 53.3991C28.8589 53.3991 29.0732 53.1847 29.0732 52.9203C29.0732 52.6558 28.8589 52.4414 28.5944 52.4414C28.3299 52.4414 28.1155 52.6558 28.1155 52.9203C28.1155 53.1847 28.3299 53.3991 28.5944 53.3991Z" fill="#A8560E"/>
<path d="M33.4513 66.5007C33.4513 67.4242 32.6988 68.2109 31.7411 68.2109C30.8176 68.2109 30.0309 67.4584 30.0309 66.5007C30.0309 65.5772 30.7834 64.7905 31.7411 64.7905C32.6988 64.7905 33.4513 65.5772 33.4513 66.5007Z" fill="#A8560E"/>
<path d="M44.8754 68.6555C45.5365 68.6555 46.0725 68.1195 46.0725 67.4584C46.0725 66.7972 45.5365 66.2612 44.8754 66.2612C44.2142 66.2612 43.6783 66.7972 43.6783 67.4584C43.6783 68.1195 44.2142 68.6555 44.8754 68.6555Z" fill="#A8560E"/>
<path d="M56.6415 60.4455C57.1138 60.4455 57.4966 60.0627 57.4966 59.5904C57.4966 59.1182 57.1138 58.7354 56.6415 58.7354C56.1692 58.7354 55.7864 59.1182 55.7864 59.5904C55.7864 60.0627 56.1692 60.4455 56.6415 60.4455Z" fill="#A8560E"/>
<path d="M56.7441 55.3145C57.1408 55.3145 57.4624 54.9929 57.4624 54.5962C57.4624 54.1995 57.1408 53.8779 56.7441 53.8779C56.3474 53.8779 56.0258 54.1995 56.0258 54.5962C56.0258 54.9929 56.3474 55.3145 56.7441 55.3145Z" fill="#A8560E"/>
<path d="M52.5028 50.0123C53.1073 50.0123 53.5973 49.5223 53.5973 48.9178C53.5973 48.3133 53.1073 47.8232 52.5028 47.8232C51.8983 47.8232 51.4083 48.3133 51.4083 48.9178C51.4083 49.5223 51.8983 50.0123 52.5028 50.0123Z" fill="#A8560E"/>
<path d="M57.2572 41.9731C57.2572 43.4438 56.06 44.641 54.5893 44.641C53.1185 44.641 51.9214 43.4438 51.9214 41.9731C51.9214 40.5023 53.1185 39.3052 54.5893 39.3052C56.06 39.3052 57.2572 40.5023 57.2572 41.9731Z" fill="#A8560E"/>
<path d="M44.978 46.3518C45.847 46.3518 46.5514 45.6474 46.5514 44.7784C46.5514 43.9095 45.847 43.2051 44.978 43.2051C44.1091 43.2051 43.4046 43.9095 43.4046 44.7784C43.4046 45.6474 44.1091 46.3518 44.978 46.3518Z" fill="#A8560E"/>
<path d="M62.3535 50.4573C63.0147 50.4573 63.5507 49.9213 63.5507 49.2601C63.5507 48.599 63.0147 48.063 62.3535 48.063C61.6924 48.063 61.1564 48.599 61.1564 49.2601C61.1564 49.9213 61.6924 50.4573 62.3535 50.4573Z" fill="#A8560E"/>
<path d="M72.4094 46.1121C73.2784 46.1121 73.9828 45.4077 73.9828 44.5387C73.9828 43.6698 73.2784 42.9653 72.4094 42.9653C71.5405 42.9653 70.8361 43.6698 70.8361 44.5387C70.8361 45.4077 71.5405 46.1121 72.4094 46.1121Z" fill="#A8560E"/>
<path d="M84.0729 50.7307C84.9419 50.7307 85.6463 50.0263 85.6463 49.1574C85.6463 48.2884 84.9419 47.584 84.0729 47.584C83.204 47.584 82.4996 48.2884 82.4996 49.1574C82.4996 50.0263 83.204 50.7307 84.0729 50.7307Z" fill="#A8560E"/>
<path d="M85.4069 37.4921C85.4069 39.3049 83.9361 40.7756 82.1233 40.7756C80.3105 40.7756 78.8398 39.3049 78.8398 37.4921C78.8398 35.6793 80.3105 34.2085 82.1233 34.2085C83.9361 34.2085 85.4069 35.6793 85.4069 37.4921Z" fill="#A8560E"/>
<path d="M71.3149 36.1578C71.7116 36.1578 72.0332 35.8362 72.0332 35.4395C72.0332 35.0428 71.7116 34.7212 71.3149 34.7212C70.9182 34.7212 70.5966 35.0428 70.5966 35.4395C70.5966 35.8362 70.9182 36.1578 71.3149 36.1578Z" fill="#A8560E"/>
<path d="M71.3149 30.787C71.8439 30.787 72.2727 30.3582 72.2727 29.8293C72.2727 29.3004 71.8439 28.8716 71.3149 28.8716C70.786 28.8716 70.3572 29.3004 70.3572 29.8293C70.3572 30.3582 70.786 30.787 71.3149 30.787Z" fill="#A8560E"/>
<path d="M71.9306 24.0139C72.4029 24.0139 72.7857 23.6311 72.7857 23.1588C72.7857 22.6865 72.4029 22.3037 71.9306 22.3037C71.4583 22.3037 71.0755 22.6865 71.0755 23.1588C71.0755 23.6311 71.4583 24.0139 71.9306 24.0139Z" fill="#A8560E"/>
<path d="M70.5966 17.4793C72.0701 17.4793 73.2645 16.2849 73.2645 14.8115C73.2645 13.338 72.0701 12.1436 70.5966 12.1436C69.1232 12.1436 67.9287 13.338 67.9287 14.8115C67.9287 16.2849 69.1232 17.4793 70.5966 17.4793Z" fill="#A8560E"/>
<path d="M56.7441 11.5283C56.7441 12.2808 56.1284 12.8622 55.4101 12.8622C54.6577 12.8622 54.0762 12.2466 54.0762 11.5283C54.0762 10.7758 54.6577 10.1943 55.4101 10.1943C56.1626 10.1943 56.7441 10.7758 56.7441 11.5283Z" fill="#A8560E"/>
<path d="M54.9313 25.7244C55.4036 25.7244 55.7864 25.3415 55.7864 24.8693C55.7864 24.397 55.4036 24.0142 54.9313 24.0142C54.459 24.0142 54.0762 24.397 54.0762 24.8693C54.0762 25.3415 54.459 25.7244 54.9313 25.7244Z" fill="#A8560E"/>
<path d="M46.5514 26.9557C47.3637 26.9557 48.0222 26.2972 48.0222 25.4849C48.0222 24.6726 47.3637 24.0142 46.5514 24.0142C45.7391 24.0142 45.0806 24.6726 45.0806 25.4849C45.0806 26.2972 45.7391 26.9557 46.5514 26.9557Z" fill="#A8560E"/>
<path d="M41.6944 17.2064C41.6944 17.8905 41.1472 18.4377 40.4973 18.4377C39.8132 18.4377 39.3002 17.8905 39.3002 17.2064C39.3002 16.5223 39.8474 16.0093 40.4973 16.0093C41.1472 16.0093 41.6944 16.5565 41.6944 17.2064Z" fill="#A8560E"/>
<path d="M77.5058 26.6821C78.2425 26.6821 78.8398 26.0848 78.8398 25.3481C78.8398 24.6114 78.2425 24.0142 77.5058 24.0142C76.7691 24.0142 76.1719 24.6114 76.1719 25.3481C76.1719 26.0848 76.7691 26.6821 77.5058 26.6821Z" fill="#A8560E"/>
<path d="M76.0693 31.7792C76.4093 31.7792 76.6849 31.5035 76.6849 31.1635C76.6849 30.8235 76.4093 30.5479 76.0693 30.5479C75.7293 30.5479 75.4536 30.8235 75.4536 31.1635C75.4536 31.5035 75.7293 31.7792 76.0693 31.7792Z" fill="#A8560E"/>
<path d="M65.124 28.1531C65.5963 28.1531 65.9791 27.7702 65.9791 27.298C65.9791 26.8257 65.5963 26.4429 65.124 26.4429C64.6518 26.4429 64.2689 26.8257 64.2689 27.298C64.2689 27.7702 64.6518 28.1531 65.124 28.1531Z" fill="#A8560E"/>
<path d="M89.2719 30.9241C89.2719 31.916 88.451 32.7369 87.4591 32.7369C86.4672 32.7369 85.6463 31.916 85.6463 30.9241C85.6463 29.9322 86.4672 29.1113 87.4591 29.1113C88.451 29.1113 89.2719 29.9322 89.2719 30.9241Z" fill="#A8560E"/>
<path d="M100.217 26.9218C100.217 27.9821 99.362 28.8714 98.2675 28.8714C97.2072 28.8714 96.3179 28.0163 96.3179 26.9218C96.3179 25.8615 97.173 24.9722 98.2675 24.9722C99.3278 25.0064 100.217 25.8615 100.217 26.9218Z" fill="#A8560E"/>
<path d="M95.5996 34.2082C95.5996 34.7555 95.155 35.1659 94.6419 35.1659C94.0947 35.1659 93.6842 34.7213 93.6842 34.2082C93.6842 33.6609 94.1289 33.2505 94.6419 33.2505C95.155 33.2505 95.5996 33.6951 95.5996 34.2082Z" fill="#A8560E"/>
<path d="M92.1792 34.9265C92.4437 34.9265 92.6581 34.7121 92.6581 34.4476C92.6581 34.1831 92.4437 33.9688 92.1792 33.9688C91.9148 33.9688 91.7004 34.1831 91.7004 34.4476C91.7004 34.7121 91.9148 34.9265 92.1792 34.9265Z" fill="#A8560E"/>
<path d="M91.5978 37.8689C92.07 37.8689 92.4529 37.486 92.4529 37.0138C92.4529 36.5415 92.07 36.1587 91.5978 36.1587C91.1255 36.1587 90.7427 36.5415 90.7427 37.0138C90.7427 37.486 91.1255 37.8689 91.5978 37.8689Z" fill="#A8560E"/>
<path d="M81.6445 46.3514C82.9101 46.3514 83.9361 45.3254 83.9361 44.0597C83.9361 42.7941 82.9101 41.7681 81.6445 41.7681C80.3788 41.7681 79.3528 42.7941 79.3528 44.0597C79.3528 45.3254 80.3788 46.3514 81.6445 46.3514Z" fill="#A8560E"/>
<path d="M69.2627 53.1591C69.9994 53.1591 70.5966 52.5619 70.5966 51.8252C70.5966 51.0884 69.9994 50.4912 69.2627 50.4912C68.526 50.4912 67.9287 51.0884 67.9287 51.8252C67.9287 52.5619 68.526 53.1591 69.2627 53.1591Z" fill="#A8560E"/>
<path d="M63.7901 43.6836C64.7346 43.6836 65.5003 42.9179 65.5003 41.9734C65.5003 41.0289 64.7346 40.2632 63.7901 40.2632C62.8456 40.2632 62.0799 41.0289 62.0799 41.9734C62.0799 42.9179 62.8456 43.6836 63.7901 43.6836Z" fill="#A8560E"/>
<path d="M68.2708 39.0655C68.8753 39.0655 69.3653 38.5755 69.3653 37.971C69.3653 37.3665 68.8753 36.8765 68.2708 36.8765C67.6663 36.8765 67.1763 37.3665 67.1763 37.971C67.1763 38.5755 67.6663 39.0655 68.2708 39.0655Z" fill="#A8560E"/>
<path d="M52.8791 34.345C52.8791 34.9607 52.4002 35.4395 51.7846 35.4395C51.1689 35.4395 50.69 34.9607 50.69 34.345C50.69 33.7293 51.1689 33.2505 51.7846 33.2505C52.4002 33.2505 52.8791 33.7293 52.8791 34.345Z" fill="#A8560E"/>
<path d="M51.1689 38.3469C51.1689 39.6809 50.0744 40.7754 48.7404 40.7754C47.4065 40.7754 46.312 39.6809 46.312 38.3469C46.312 37.013 47.4065 35.9185 48.7404 35.9185C50.0744 35.9185 51.1689 37.013 51.1689 38.3469Z" fill="#A8560E"/>
<path d="M37.2137 27.4002C38.0827 27.4002 38.7871 26.6957 38.7871 25.8268C38.7871 24.9578 38.0827 24.2534 37.2137 24.2534C36.3448 24.2534 35.6404 24.9578 35.6404 25.8268C35.6404 26.6957 36.3448 27.4002 37.2137 27.4002Z" fill="#A8560E"/>
<path d="M25.687 36.3973C25.687 37.0814 25.1398 37.6287 24.4557 37.6287C23.7716 37.6287 23.2586 37.0814 23.2586 36.3973C23.2586 35.7133 23.8058 35.2002 24.4557 35.2002C25.1398 35.2002 25.687 35.7133 25.687 36.3973Z" fill="#A8560E"/>
<path d="M17.6834 37.5945C18.3445 37.5945 18.8805 37.0585 18.8805 36.3973C18.8805 35.7362 18.3445 35.2002 17.6834 35.2002C17.0222 35.2002 16.4862 35.7362 16.4862 36.3973C16.4862 37.0585 17.0222 37.5945 17.6834 37.5945Z" fill="#A8560E"/>
<path d="M19.1199 28.1534C19.9322 28.1534 20.5907 27.495 20.5907 26.6827C20.5907 25.8704 19.9322 25.2119 19.1199 25.2119C18.3077 25.2119 17.6492 25.8704 17.6492 26.6827C17.6492 27.495 18.3077 28.1534 19.1199 28.1534Z" fill="#A8560E"/>
<path d="M26.6448 25.0054C27.986 25.0054 29.0732 23.9181 29.0732 22.5769C29.0732 21.2357 27.986 20.1484 26.6448 20.1484C25.3036 20.1484 24.2163 21.2357 24.2163 22.5769C24.2163 23.9181 25.3036 25.0054 26.6448 25.0054Z" fill="#A8560E"/>
<path d="M30.3046 14.7779C30.7013 14.7779 31.0229 14.4563 31.0229 14.0596C31.0229 13.6629 30.7013 13.3413 30.3046 13.3413C29.9079 13.3413 29.5863 13.6629 29.5863 14.0596C29.5863 14.4563 29.9079 14.7779 30.3046 14.7779Z" fill="#A8560E"/>
<path d="M34.3064 19.9089C34.7787 19.9089 35.1615 19.5261 35.1615 19.0538C35.1615 18.5816 34.7787 18.1987 34.3064 18.1987C33.8342 18.1987 33.4513 18.5816 33.4513 19.0538C33.4513 19.5261 33.8342 19.9089 34.3064 19.9089Z" fill="#A8560E"/>
<path d="M50.4506 12.2458C50.4506 13.9218 49.0825 15.2899 47.4065 15.2899C45.7305 15.2899 44.3623 13.9218 44.3623 12.2458C44.3623 10.5698 45.7305 9.20166 47.4065 9.20166C49.0825 9.20166 50.4506 10.5698 50.4506 12.2458Z" fill="#A8560E"/>
<path d="M24.5925 56.067C25.197 56.067 25.687 55.5769 25.687 54.9725C25.687 54.368 25.197 53.8779 24.5925 53.8779C23.988 53.8779 23.498 54.368 23.498 54.9725C23.498 55.5769 23.988 56.067 24.5925 56.067Z" fill="#A8560E"/>
<path d="M32.733 59.7275C33.6776 59.7275 34.4432 58.9618 34.4432 58.0173C34.4432 57.0728 33.6776 56.3071 32.733 56.3071C31.7885 56.3071 31.0229 57.0728 31.0229 58.0173C31.0229 58.9618 31.7885 59.7275 32.733 59.7275Z" fill="#A8560E"/>
<path d="M7.25119 39.784C7.25119 40.4681 6.70393 40.9812 6.01986 40.9812C5.33578 40.9812 4.82272 40.4339 4.82272 39.784C4.82272 39.1 5.36998 38.5869 6.01986 38.5869C6.70393 38.5869 7.25119 39.1342 7.25119 39.784Z" fill="#A8560E"/>
<path d="M36.1192 71.5977C36.5159 71.5977 36.8375 71.2761 36.8375 70.8794C36.8375 70.4827 36.5159 70.1611 36.1192 70.1611C35.7225 70.1611 35.4009 70.4827 35.4009 70.8794C35.4009 71.2761 35.7225 71.5977 36.1192 71.5977Z" fill="#A8560E"/>
<path d="M60.0277 9.95467C60.6322 9.95467 61.1222 9.46463 61.1222 8.86015C61.1222 8.25566 60.6322 7.76562 60.0277 7.76562C59.4232 7.76562 58.9332 8.25566 58.9332 8.86015C58.9332 9.46463 59.4232 9.95467 60.0277 9.95467Z" fill="#A8560E"/>
<path d="M71.9306 6.29369C72.4029 6.29369 72.7857 5.91085 72.7857 5.43859C72.7857 4.96634 72.4029 4.5835 71.9306 4.5835C71.4583 4.5835 71.0755 4.96634 71.0755 5.43859C71.0755 5.91085 71.4583 6.29369 71.9306 6.29369Z" fill="#A8560E"/>
<path d="M79.6949 10.1936C80.1671 10.1936 80.55 9.81075 80.55 9.33849C80.55 8.86624 80.1671 8.4834 79.6949 8.4834C79.2226 8.4834 78.8398 8.86624 78.8398 9.33849C78.8398 9.81075 79.2226 10.1936 79.6949 10.1936Z" fill="#A8560E"/>
<path d="M89.0325 11.8701C90.3737 11.8701 91.461 10.7829 91.461 9.44165C91.461 8.10045 90.3737 7.01318 89.0325 7.01318C87.6913 7.01318 86.604 8.10045 86.604 9.44165C86.604 10.7829 87.6913 11.8701 89.0325 11.8701Z" fill="#A8560E"/>
<path d="M76.8901 20.5931C77.4191 20.5931 77.8478 20.1644 77.8478 19.6354C77.8478 19.1065 77.4191 18.6777 76.8901 18.6777C76.3612 18.6777 75.9324 19.1065 75.9324 19.6354C75.9324 20.1644 76.3612 20.5931 76.8901 20.5931Z" fill="#A8560E"/>
<path d="M82.6022 30.3427C82.9422 30.3427 83.2179 30.067 83.2179 29.727C83.2179 29.387 82.9422 29.1113 82.6022 29.1113C82.2622 29.1113 81.9865 29.387 81.9865 29.727C81.9865 30.067 82.2622 30.3427 82.6022 30.3427Z" fill="#A8560E"/>
<path d="M95.1208 29.0084C95.1208 29.4873 94.7445 29.8635 94.2657 29.8635C93.7868 29.8635 93.4106 29.4873 93.4106 29.0084C93.4106 28.5296 93.7868 28.1533 94.2657 28.1533C94.7103 28.1533 95.1208 28.5296 95.1208 29.0084Z" fill="#A8560E"/>
<path d="M102.133 22.0981C103.077 22.0981 103.843 21.3324 103.843 20.3879C103.843 19.4434 103.077 18.6777 102.133 18.6777C101.188 18.6777 100.422 19.4434 100.422 20.3879C100.422 21.3324 101.188 22.0981 102.133 22.0981Z" fill="#A8560E"/>
<path d="M104.322 31.0266C104.983 31.0266 105.519 30.4906 105.519 29.8295C105.519 29.1683 104.983 28.6323 104.322 28.6323C103.66 28.6323 103.124 29.1683 103.124 29.8295C103.124 30.4906 103.66 31.0266 104.322 31.0266Z" fill="#A8560E"/>
<path d="M99.4646 36.534C99.4646 37.1496 98.9858 37.6285 98.3701 37.6285C97.7545 37.6285 97.2756 37.1496 97.2756 36.534C97.2756 35.9183 97.7545 35.4395 98.3701 35.4395C98.9858 35.4395 99.4646 35.9183 99.4646 36.534Z" fill="#A8560E"/>
<path d="M91.7004 43.2046C92.0971 43.2046 92.4187 42.883 92.4187 42.4863C92.4187 42.0897 92.0971 41.7681 91.7004 41.7681C91.3037 41.7681 90.9821 42.0897 90.9821 42.4863C90.9821 42.883 91.3037 43.2046 91.7004 43.2046Z" fill="#A8560E"/>
<path d="M89.5114 46.8311C89.9081 46.8311 90.2296 46.5095 90.2296 46.1128C90.2296 45.7161 89.9081 45.3945 89.5114 45.3945C89.1147 45.3945 88.7931 45.7161 88.7931 46.1128C88.7931 46.5095 89.1147 46.8311 89.5114 46.8311Z" fill="#A8560E"/>
<path d="M89.8876 54.3567C90.3599 54.3567 90.7427 53.9738 90.7427 53.5016C90.7427 53.0293 90.3599 52.6465 89.8876 52.6465C89.4153 52.6465 89.0325 53.0293 89.0325 53.5016C89.0325 53.9738 89.4153 54.3567 89.8876 54.3567Z" fill="#A8560E"/>
<path d="M73.2645 62.3955C74.2091 62.3955 74.9747 61.6298 74.9747 60.6853C74.9747 59.7408 74.2091 58.9751 73.2645 58.9751C72.32 58.9751 71.5544 59.7408 71.5544 60.6853C71.5544 61.6298 72.32 62.3955 73.2645 62.3955Z" fill="#A8560E"/>
<path d="M75.3168 54.3567C75.789 54.3567 76.1719 53.9738 76.1719 53.5016C76.1719 53.0293 75.789 52.6465 75.3168 52.6465C74.8445 52.6465 74.4617 53.0293 74.4617 53.5016C74.4617 53.9738 74.8445 54.3567 75.3168 54.3567Z" fill="#A8560E"/>
<path d="M65.6029 57.7778C66.3396 57.7778 66.9368 57.1805 66.9368 56.4438C66.9368 55.7071 66.3396 55.1099 65.6029 55.1099C64.8662 55.1099 64.2689 55.7071 64.2689 56.4438C64.2689 57.1805 64.8662 57.7778 65.6029 57.7778Z" fill="#A8560E"/>
<path d="M63.9269 61.6428C64.3992 61.6428 64.782 61.26 64.782 60.7877C64.782 60.3155 64.3992 59.9326 63.9269 59.9326C63.4546 59.9326 63.0718 60.3155 63.0718 60.7877C63.0718 61.26 63.4546 61.6428 63.9269 61.6428Z" fill="#A8560E"/>
<path d="M59.6514 60.2057C60.4637 60.2057 61.1222 59.5472 61.1222 58.7349C61.1222 57.9226 60.4637 57.2642 59.6514 57.2642C58.8391 57.2642 58.1807 57.9226 58.1807 58.7349C58.1807 59.5472 58.8391 60.2057 59.6514 60.2057Z" fill="#A8560E"/>
<path d="M44.4991 56.5798C45.9159 56.5798 47.0644 55.4313 47.0644 54.0145C47.0644 52.5977 45.9159 51.4492 44.4991 51.4492C43.0824 51.4492 41.9338 52.5977 41.9338 54.0145C41.9338 55.4313 43.0824 56.5798 44.4991 56.5798Z" fill="#A8560E"/>
<path d="M53.5974 72.076C54.6741 72.076 55.547 71.2031 55.547 70.1264C55.547 69.0496 54.6741 68.1768 53.5974 68.1768C52.5206 68.1768 51.6477 69.0496 51.6477 70.1264C51.6477 71.2031 52.5206 72.076 53.5974 72.076Z" fill="#A8560E"/>
<path d="M52.6397 62.6349C52.6397 63.1821 52.195 63.5926 51.682 63.5926C51.1347 63.5926 50.7242 63.1479 50.7242 62.6349C50.7242 62.0876 51.1689 61.6771 51.682 61.6771C52.195 61.6429 52.6397 62.0876 52.6397 62.6349Z" fill="#A8560E"/>
<path d="M70.5966 75.5997C70.5966 76.489 69.8784 77.1731 69.0233 77.1731C68.134 77.1731 67.4499 76.4548 67.4499 75.5997C67.4499 74.7446 68.1682 74.0264 69.0233 74.0264C69.8784 74.0264 70.5966 74.7446 70.5966 75.5997Z" fill="#A8560E"/>
<path d="M83.081 76.9338C83.5533 76.9338 83.9361 76.551 83.9361 76.0787C83.9361 75.6065 83.5533 75.2236 83.081 75.2236C82.6088 75.2236 82.2259 75.6065 82.2259 76.0787C82.2259 76.551 82.6088 76.9338 83.081 76.9338Z" fill="#A8560E"/>
<path d="M52.6397 80.8339C52.6397 81.518 52.0924 82.0652 51.4425 82.0652C50.7584 82.0652 50.2454 81.518 50.2454 80.8339C50.2454 80.1498 50.7927 79.6368 51.4425 79.6368C52.0924 79.6026 52.6397 80.1498 52.6397 80.8339Z" fill="#A8560E"/>
<path d="M60.4039 91.0277C61.4806 91.0277 62.3535 90.1548 62.3535 89.078C62.3535 88.0013 61.4806 87.1284 60.4039 87.1284C59.3272 87.1284 58.4543 88.0013 58.4543 89.078C58.4543 90.1548 59.3272 91.0277 60.4039 91.0277Z" fill="#A8560E"/>
<path d="M74.4617 88.3593C74.4617 89.0434 73.9144 89.5564 73.2303 89.5564C72.5805 89.5564 72.0332 89.0092 72.0332 88.3593C72.0332 87.6752 72.5805 87.1622 73.2303 87.1622C73.9486 87.128 74.4617 87.6752 74.4617 88.3593Z" fill="#A8560E"/>
<path d="M23.3954 82.5096C24.6611 82.5096 25.6871 81.4836 25.6871 80.2179C25.6871 78.9523 24.6611 77.9263 23.3954 77.9263C22.1298 77.9263 21.1038 78.9523 21.1038 80.2179C21.1038 81.4836 22.1298 82.5096 23.3954 82.5096Z" fill="#A8560E"/>
<path d="M35.8798 78.6444C36.4087 78.6444 36.8375 78.2156 36.8375 77.6867C36.8375 77.1578 36.4087 76.729 35.8798 76.729C35.3509 76.729 34.9221 77.1578 34.9221 77.6867C34.9221 78.2156 35.3509 78.6444 35.8798 78.6444Z" fill="#A8560E"/>
<path d="M97.2756 68.0744C97.2756 68.9294 96.5573 69.6477 95.7022 69.6477C94.8471 69.6477 94.1289 68.9294 94.1289 68.0744C94.1289 67.2193 94.8471 66.501 95.7022 66.501C96.5915 66.501 97.2756 67.2193 97.2756 68.0744Z" fill="#A8560E"/>
<path d="M105.792 65.5087C106.321 65.5087 106.75 65.0799 106.75 64.551C106.75 64.022 106.321 63.5933 105.792 63.5933C105.263 63.5933 104.835 64.022 104.835 64.551C104.835 65.0799 105.263 65.5087 105.792 65.5087Z" fill="#A8560E"/>
<path d="M97.0362 46.1127C97.0362 46.7968 96.4889 47.3098 95.8049 47.3098C95.1208 47.3098 94.6077 46.7626 94.6077 46.1127C94.6077 45.4286 95.155 44.9156 95.8049 44.9156C96.4889 44.8814 97.0362 45.4286 97.0362 46.1127Z" fill="#A8560E"/>
<path d="M104.698 43.444C105.699 43.444 106.511 42.6323 106.511 41.6312C106.511 40.63 105.699 39.8184 104.698 39.8184C103.697 39.8184 102.885 40.63 102.885 41.6312C102.885 42.6323 103.697 43.444 104.698 43.444Z" fill="#A8560E"/>
<path d="M115.506 37.8337C116.167 37.8337 116.703 37.2977 116.703 36.6366C116.703 35.9754 116.167 35.4395 115.506 35.4395C114.845 35.4395 114.309 35.9754 114.309 36.6366C114.309 37.2977 114.845 37.8337 115.506 37.8337Z" fill="#A8560E"/>
<path d="M119.132 43.8206C119.132 44.6757 118.414 45.394 117.558 45.394C116.703 45.394 115.985 44.6757 115.985 43.8206C115.985 42.9655 116.703 42.2473 117.558 42.2473C118.448 42.2131 119.132 42.9313 119.132 43.8206Z" fill="#A8560E"/>
<path d="M125.938 52.6802C125.938 53.4669 125.289 54.1168 124.468 54.1168C123.681 54.1168 122.997 53.4669 122.997 52.6802C122.997 51.8593 123.647 51.2095 124.468 51.2095C125.289 51.2095 125.938 51.8593 125.938 52.6802Z" fill="#A8560E"/>
<path d="M116.703 58.2564C116.703 59.4536 115.711 60.4455 114.514 60.4455C113.317 60.4455 112.325 59.4536 112.325 58.2564C112.325 57.0593 113.317 56.0674 114.514 56.0674C115.746 56.0674 116.703 57.0593 116.703 58.2564Z" fill="#A8560E"/>
<path d="M104.698 56.3061C105.435 56.3061 106.032 55.7088 106.032 54.9721C106.032 54.2354 105.435 53.6382 104.698 53.6382C103.961 53.6382 103.364 54.2354 103.364 54.9721C103.364 55.7088 103.961 56.3061 104.698 56.3061Z" fill="#A8560E"/>
<path d="M109.418 67.458C109.815 67.458 110.136 67.1365 110.136 66.7398C110.136 66.3431 109.815 66.0215 109.418 66.0215C109.021 66.0215 108.7 66.3431 108.7 66.7398C108.7 67.1365 109.021 67.458 109.418 67.458Z" fill="#A8560E"/>
<path d="M102.269 73.0675C104.215 73.0675 105.792 71.4902 105.792 69.5445C105.792 67.5988 104.215 66.0215 102.269 66.0215C100.324 66.0215 98.7464 67.5988 98.7464 69.5445C98.7464 71.4902 100.324 73.0675 102.269 73.0675Z" fill="#A8560E"/>
<path d="M90.8453 74.505C91.4498 74.505 91.9398 74.0149 91.9398 73.4104C91.9398 72.806 91.4498 72.3159 90.8453 72.3159C90.2408 72.3159 89.7508 72.806 89.7508 73.4104C89.7508 74.0149 90.2408 74.505 90.8453 74.505Z" fill="#A8560E"/>
<path d="M87.2197 68.4498C88.2209 68.4498 89.0325 67.6382 89.0325 66.637C89.0325 65.6358 88.2209 64.8242 87.2197 64.8242C86.2185 64.8242 85.4069 65.6358 85.4069 66.637C85.4069 67.6382 86.2185 68.4498 87.2197 68.4498Z" fill="#A8560E"/>
<path d="M80.3105 76.0791C80.3105 76.8315 79.7291 77.413 78.9766 77.413C78.2241 77.413 77.6426 76.7973 77.6426 76.0791C77.6426 75.3608 78.2241 74.7451 78.9766 74.7451C79.6949 74.7451 80.3105 75.3608 80.3105 76.0791Z" fill="#A8560E"/>
<path d="M85.9884 84.2201C86.7251 84.2201 87.3223 83.6229 87.3223 82.8862C87.3223 82.1495 86.7251 81.5522 85.9884 81.5522C85.2516 81.5522 84.6544 82.1495 84.6544 82.8862C84.6544 83.6229 85.2516 84.2201 85.9884 84.2201Z" fill="#A8560E"/>
<path d="M103.364 84.2204C103.364 85.1439 102.611 85.9306 101.654 85.9306C100.73 85.9306 99.9435 85.1782 99.9435 84.2204C99.9435 83.2969 100.696 82.5103 101.654 82.5103C102.611 82.5103 103.364 83.2969 103.364 84.2204Z" fill="#A8560E"/>
<path d="M110.41 25.4507C110.807 25.4507 111.128 25.1291 111.128 24.7324C111.128 24.3357 110.807 24.0142 110.41 24.0142C110.013 24.0142 109.692 24.3357 109.692 24.7324C109.692 25.1291 110.013 25.4507 110.41 25.4507Z" fill="#A8560E"/>
<path d="M18.4016 66.5007C19.0628 66.5007 19.5988 65.9647 19.5988 65.3036C19.5988 64.6424 19.0628 64.1064 18.4016 64.1064C17.7405 64.1064 17.2045 64.6424 17.2045 65.3036C17.2045 65.9647 17.7405 66.5007 18.4016 66.5007Z" fill="#A8560E"/>
<path d="M9.67967 55.3486C10.6242 55.3486 11.3899 54.5829 11.3899 53.6384C11.3899 52.6939 10.6242 51.9282 9.67967 51.9282C8.73516 51.9282 7.96948 52.6939 7.96948 53.6384C7.96948 54.5829 8.73516 55.3486 9.67967 55.3486Z" fill="#A8560E"/>
<path d="M12.9291 46.112C14.3458 46.112 15.4943 44.9635 15.4943 43.5467C15.4943 42.13 14.3458 40.9814 12.9291 40.9814C11.5123 40.9814 10.3638 42.13 10.3638 43.5467C10.3638 44.9635 11.5123 46.112 12.9291 46.112Z" fill="#A8560E"/>
<path d="M13.7841 29.5896C14.4453 29.5896 14.9813 29.0536 14.9813 28.3924C14.9813 27.7313 14.4453 27.1953 13.7841 27.1953C13.123 27.1953 12.587 27.7313 12.587 28.3924C12.587 29.0536 13.123 29.5896 13.7841 29.5896Z" fill="#A8560E"/>
<path d="M23.0192 17.446C23.6803 17.446 24.2163 16.91 24.2163 16.2489C24.2163 15.5877 23.6803 15.0518 23.0192 15.0518C22.358 15.0518 21.822 15.5877 21.822 16.2489C21.822 16.91 22.358 17.446 23.0192 17.446Z" fill="#A8560E"/>
<path d="M30.6466 42.4868C30.6466 42.4868 29.1416 47.7549 35.7088 47.9259C42.2759 48.097 44.7044 43.992 44.7044 41.1527C44.7044 38.3477 43.9519 35.8847 40.5657 36.4662C37.2137 37.0477 30.6466 42.4868 30.6466 42.4868Z" fill="#D1AC73"/>
<path d="M81.3366 19.225C81.3366 19.225 78.7029 23.7405 82.8416 26.5456C86.9803 29.3507 92.9659 28.5981 95.0524 24.8694C97.1046 21.1065 95.2234 13.6149 90.9137 15.2911C86.604 16.9673 81.3366 19.225 81.3366 19.225Z" fill="#D1AC73"/>
<path d="M62.5587 70.4687C62.5587 70.4687 59.925 71.7686 59.925 74.4026C59.925 77.0367 63.3112 77.584 64.9872 75.5315C66.6632 73.479 68.3734 70.845 71.1781 71.016C73.9828 71.2213 77.6084 73.9237 81.5077 70.2634C85.3727 66.6032 83.9361 62.9429 89.7508 63.8665C95.5654 64.7901 100.457 64.4138 101.585 59.5563C102.714 54.6645 105.142 53.3646 107.981 53.1593C110.82 53.0225 112.873 51.3121 112.873 49.0544C112.873 46.7966 107.434 47.1729 105.724 47.3782C104.048 47.5492 100.457 49.8069 99.3278 53.1935C98.1991 56.5802 98.4043 54.8697 96.1469 57.8801C93.8894 60.8904 90.127 59.9326 87.6985 58.8037C85.2701 57.6748 81.6787 60.8562 81.5077 62.7376C81.3366 64.6191 81.8839 69.3056 76.6165 68.7583C71.3491 68.1767 68.9207 67.2531 67.4157 67.6294C65.9449 68.0399 62.5587 70.4687 62.5587 70.4687Z" fill="#DFB368"/>
<path d="M64.5768 73.7186C65.124 72.3161 65.9449 70.982 67.0736 69.9557C69.1943 68.0743 73.0251 70.1952 75.5904 70.161C77.5742 70.1268 79.2844 69.7163 80.8578 68.4506C82.9784 66.7059 82.9784 63.6614 85.0648 61.9168C87.1513 60.2064 91.3241 62.5325 93.7868 62.6352C95.5654 62.7036 97.1046 61.6089 98.3017 60.4458C99.9093 58.9407 100.457 56.2382 100.901 54.2199C101.756 50.3886 105.382 50.2176 108.494 51.0044C111.47 51.757 112.428 47.0704 109.452 46.3179C105.245 45.2574 99.2594 45.8389 97.2072 50.3886C96.0101 53.0911 96.2153 58.4276 92.145 57.6408C89.0667 57.0592 86.3304 55.7593 83.2862 57.4013C80.6184 58.8723 79.5238 61.0616 78.3951 63.7982C77.027 67.2191 71.6912 64.2087 69.2627 64.3456C64.9872 64.5508 61.7721 67.6296 60.2671 71.5293C59.2068 74.437 63.4822 76.5921 64.5768 73.7186Z" fill="#C80012"/>
<path d="M94.1631 18.917C94.5051 22.6799 91.7346 25.9981 88.0064 26.3402C84.244 26.6823 80.9262 23.9114 80.5842 20.1827C80.2421 16.4198 83.0126 13.1016 86.7408 12.7253C90.5033 12.3833 93.821 15.1541 94.1631 18.917Z" fill="#621A82"/>
<path d="M36.3586 46.4889C40.1367 46.4889 43.1994 43.4258 43.1994 39.6473C43.1994 35.8688 40.1367 32.8057 36.3586 32.8057C32.5806 32.8057 29.5179 35.8688 29.5179 39.6473C29.5179 43.4258 32.5806 46.4889 36.3586 46.4889Z" fill="#621A82"/>
<path d="M32.049 42.1096C32.9179 42.1096 33.6223 41.4052 33.6223 40.5363C33.6223 39.6673 32.9179 38.9629 32.049 38.9629C31.18 38.9629 30.4756 39.6673 30.4756 40.5363C30.4756 41.4052 31.18 42.1096 32.049 42.1096Z" fill="white"/>
<path d="M85.0991 18.6776C85.1675 19.5327 84.5518 20.3194 83.6625 20.3878C82.8074 20.4562 82.0207 19.8405 81.9523 18.9512C81.8839 18.0961 82.4996 17.3094 83.3889 17.241C84.244 17.1726 84.9964 17.7883 85.0991 18.6776Z" fill="white"/>
<path d="M130.385 42.6235C130.795 44.8813 131.035 47.2074 131.035 49.5678C131.035 50.1835 131.035 50.7651 131.001 51.3808C131.172 49.5336 131.137 46.4549 130.385 42.6235Z" fill="#B3B780"/>
<path d="M131.924 60.3433C131.924 60.4117 131.924 60.4459 131.924 60.5143C131.924 60.5485 131.924 60.6169 131.924 60.6511C131.924 60.788 131.924 60.9248 131.924 61.0616C131.924 69.6821 129.53 77.8237 125.289 85.0758C127.888 80.6629 130.009 75.5659 131.24 69.7163C131.924 67.3902 132.129 64.1404 131.924 60.3433Z" fill="#989E68"/>
<path d="M130.488 55.8623C127.101 76.0451 107.776 92.4309 82.4312 97.4937C79.2502 98.2463 76.1377 98.691 73.1961 98.7936C73.0935 98.7936 73.0251 98.7936 72.9225 98.8278C74.9063 99.5462 77.8821 99.8883 81.3367 99.8883C90.6401 99.8883 103.432 97.4253 109.863 93.2177C111.162 92.3624 112.188 91.8835 112.941 91.6783C121.424 84.1867 127.649 74.5058 129.974 62.9434C130.453 60.6172 130.556 58.2569 130.488 55.8623Z" fill="#B3650D"/>
<path d="M130.932 52.0991C130.83 53.3648 130.693 54.6305 130.487 55.8962C130.556 58.2908 130.453 60.6512 129.974 62.9431C127.649 74.5055 121.423 84.1522 112.941 91.678C113.146 91.6096 113.351 91.6096 113.522 91.6096C116.567 91.6096 110.102 100.606 87.1513 110.493C77.8136 114.529 65.5345 115.076 59.3436 115.076C56.9151 115.076 55.4102 114.974 55.4102 114.974C55.4102 114.974 59.2068 115.932 65.7739 115.932C73.1619 115.932 84.0729 114.7 96.8994 109.535C102.098 107.345 116.498 100.059 125.289 85.0758C129.53 77.8237 131.924 69.6821 131.924 61.0617C131.924 60.9248 131.924 60.788 131.924 60.6512C131.924 60.617 131.924 60.5485 131.924 60.5143C131.924 60.4459 131.924 60.4117 131.924 60.3433C131.787 57.7777 131.445 55.0068 130.932 52.0991Z" fill="#A7590F"/>
<path d="M103.877 9.47559C118.55 17.8908 130.18 38.1421 125.425 57.7091C127.956 53.4673 129.735 48.8834 130.624 44.0943C130.898 45.9073 131.035 47.7203 131.035 49.5676C131.035 47.2072 130.83 44.8811 130.385 42.6233C128.469 33.2503 122.073 19.5328 103.877 9.47559Z" fill="#DCB765"/>
<path d="M73.1961 98.7936C73.0935 98.7936 72.9909 98.7936 72.8883 98.7936H72.9225C73.0251 98.8278 73.0935 98.8278 73.1961 98.7936ZM130.624 44.0947C129.735 48.8839 127.956 53.4678 125.425 57.7096C124.775 60.412 123.784 63.1145 122.45 65.7827C113.557 83.6052 97.2414 94.0045 82.4312 97.4937C109.35 92.123 129.461 73.9585 130.932 52.0994C130.932 52.031 130.898 51.9626 130.898 51.8942C130.932 51.7232 130.966 51.5521 130.966 51.3469C131.001 50.7311 131.001 50.1496 131.001 49.5338C131.001 47.7208 130.864 45.9078 130.624 44.0947Z" fill="#DCB040"/>
</svg>
