<svg width="140" height="110" viewBox="0 0 140 110" fill="none" xmlns="http://www.w3.org/2000/svg">
<path d="M124.637 30.248C121.92 26.2636 119.372 22.258 116.039 18.7398C112.791 15.3064 108.949 12.4665 104.788 10.22C100.669 7.99461 95.6167 5.72689 90.8401 5.79047C91.9016 3.43796 94.067 -1.03391 89.2692 0.216517C84.8535 1.38217 80.6713 3.71348 76.6377 5.79047C74.3874 6.95612 72.1159 8.10058 69.8656 9.26624C68.5919 9.92324 67.3181 10.6014 65.9806 11.1313C65.5773 11.3008 65.1739 11.4704 64.7706 11.6399L64.1125 11.8731C63.4544 11.9366 62.9024 11.8307 62.4566 11.5552C62.3929 10.3047 61.9683 9.13908 60.8856 8.24894C57.7861 5.6845 53.7526 3.62871 49.8039 2.86573C45.919 2.12395 41.9066 2.12395 37.958 1.74247C37.8518 1.76366 37.7457 1.80605 37.6395 1.84843C37.6183 1.86963 37.6183 1.89082 37.5971 1.91202C37.5971 1.91202 37.5971 1.91202 37.6183 1.91202C37.3423 2.6326 37.0876 3.35319 36.9178 4.13736C36.3021 6.89254 36.0686 9.64772 35.9412 12.4665C35.6652 18.2736 34.2216 24.0171 30.7825 28.7857C27.5769 33.2151 22.9701 36.5426 19.446 40.6965C17.7902 42.6252 16.5164 44.9141 15.4549 47.203C14.9242 48.3475 13.8415 50.5092 14.1812 51.7808C14.2449 51.9928 14.4359 52.014 14.6058 51.908C16.4952 50.6364 18.5756 50.6788 20.6137 51.3358C23.2249 51.8868 25.4115 53.4763 27.6193 55.0447C28.8719 55.956 30.0819 56.8885 31.2708 57.8846C29.9545 58.9231 28.8719 60.5127 27.9165 61.8479C27.1311 62.9499 25.8361 64.4335 25.4539 65.8535C24.0528 67.6338 29.3814 69.0537 30.6551 69.3292C33.0328 69.8379 35.4105 70.4313 37.8518 70.1134C40.1021 69.8167 42.31 69.5624 44.5391 69.3716C44.8787 69.3716 45.2184 69.3928 45.5793 69.414C48.8486 69.6684 52.0755 70.1346 55.3448 70.3677C60.4398 70.728 66.0443 71.1307 70.46 68.1212C72.5617 66.7012 73.9841 64.3487 75.3852 62.2929C77.126 59.7497 79.0791 57.2276 81.7328 55.6381C82.773 54.7692 83.8769 54.0274 85.1295 53.4128C85.5753 53.2008 86.4245 52.6286 87.1462 52.4379C87.8044 52.1199 88.4625 51.802 89.1418 51.4841C88.1653 53.9002 85.6602 56.507 85.0233 59.2198C84.8959 59.6861 84.7473 60.4067 84.7898 60.9365L84.7686 60.9577C84.9809 61.975 85.4479 62.9076 86.4245 63.1619C87.2949 63.395 88.1016 63.6705 88.9083 63.9884C91.9865 64.6031 95.1921 64.7938 98.2704 65.7051C100.181 66.2774 102.007 66.786 103.939 66.129C105.552 65.578 107.038 63.5646 108.015 62.2929C108.8 61.2968 109.395 60.1736 109.925 58.9867C110.329 57.8634 110.69 56.7614 111.178 55.6593C111.199 55.6169 111.241 55.5745 111.263 55.5533C111.942 53.7095 112.579 51.8444 113.513 50.1701C116.209 45.2744 120.158 42.0105 124.531 38.6831C125.72 37.793 126.675 36.8605 126.972 35.3769C127.333 33.7026 125.529 31.562 124.637 30.248Z" fill="#EA4834"/>
<path d="M30.4853 56.5067C28.235 54.4086 25.6025 52.5223 22.8215 51.1871C20.8684 50.2546 18.0661 49.2797 15.9432 50.3394C15.3912 50.6149 14.5633 51.5262 15.1365 50.191C15.3488 49.6612 15.4549 49.0254 15.646 48.4743C16.1343 46.9272 16.9834 45.4436 17.8114 44.0448C21.1231 38.4921 26.664 34.6348 30.8249 29.7815C34.1579 25.8818 35.7289 20.6682 36.4082 15.6876C36.7904 12.8053 36.6842 9.88055 37.0239 6.99821C37.1937 5.47226 37.4697 3.96751 37.7881 2.46275C37.8306 2.2932 37.8731 2.12365 37.9155 1.9541C41.2273 2.46275 44.5603 2.75946 47.8721 3.28931C52.0755 3.96751 55.7269 5.87494 59.2297 8.22744C59.7605 8.58774 60.2063 8.99042 60.6945 9.3931C61.756 10.2832 61.6074 11.4065 61.5437 12.6145C61.3951 15.0518 60.3549 17.2984 58.8051 19.1422C56.5336 21.8762 53.9861 24.4406 52.1179 27.4713C51.5447 28.4039 50.9928 29.3364 50.5045 30.2689C50.2922 30.5656 50.1436 30.7776 50.1011 30.8623C49.3156 32.1552 48.6788 33.5327 48.0631 34.9103C46.5134 38.3225 45.1122 41.8195 43.9659 45.4012C42.8195 48.9194 41.9279 52.5223 41.0575 56.1041C40.4418 58.6261 39.3803 61.1694 38.7222 63.7126C38.3826 63.0556 37.9155 62.441 37.5122 62.0595C35.8138 60.5124 33.7546 59.2831 31.9501 57.8631C31.759 57.6936 31.5467 57.5452 31.3557 57.3969C31.0797 57.1002 30.8037 56.8035 30.4853 56.5067Z" fill="#ED4D47"/>
<path d="M28.8082 61.8688C29.721 60.5971 30.74 59.4739 31.5255 58.1387C31.7803 58.3506 32.035 58.5837 32.311 58.7957C33.2451 59.601 34.1792 60.3852 35.0496 61.233C35.6652 61.7628 36.2809 62.2926 36.9178 62.8013C37.7669 63.5007 39.4653 65.726 37.0664 65.7472C35.7077 65.7684 34.3066 65.3869 32.9691 65.1538C31.0585 64.8147 28.1288 64.1577 26.3243 65.175C26.3031 65.175 26.3031 65.1962 26.2819 65.1962C27.0674 64.0305 28.0439 62.9285 28.8082 61.8688Z" fill="#ED4D47"/>
<path d="M88.8658 51.0814C86.849 52.0563 84.8959 53.0948 82.9853 54.2393C82.8579 54.3029 82.7305 54.3452 82.6032 54.4088C77.0411 57.1216 75.1729 63.183 70.7784 67.1039C66.0868 71.3002 57.404 69.7319 51.757 69.202C49.9313 69.0325 48.1056 68.7994 46.2798 68.6298C46.2586 68.5662 46.1949 68.5238 46.0888 68.5238C45.6854 68.5027 45.2821 68.5027 44.8787 68.5238C44.4117 68.5027 43.9446 68.4603 43.4776 68.4391C43.0742 68.4179 42.6496 68.4391 42.2463 68.4603C41.015 68.8418 39.6988 69.1597 38.4675 69.202C35.92 69.4776 33.6272 69.1385 31.0584 68.6298C30.0394 68.4391 29.0417 68.1636 28.0439 67.8456C27.6405 67.7821 27.3221 67.6973 27.0886 67.5701C26.2819 67.2946 25.4751 66.3621 26.4941 65.7051C27.131 65.3024 27.9165 65.2812 28.6808 65.4296C29.4875 65.4296 30.3366 65.5567 31.0372 65.6203C33.1814 65.8746 35.2406 66.5104 37.406 66.5104C38.701 66.5104 39.1468 65.9382 39.1256 65.1752C41.1636 58.8807 42.5223 52.5014 44.2843 46.1221C45.2184 42.7735 46.5346 39.552 47.8933 36.3518C48.1056 35.8431 48.3391 35.3557 48.5726 34.8682C49.2944 33.0032 50.3134 31.2865 51.4598 29.6334C52.5849 27.62 53.9648 25.7549 55.3872 24.1018C57.68 21.4738 60.2275 18.9941 61.5649 15.7091C61.9895 14.6494 62.3504 13.4626 62.4353 12.3393C62.8175 12.6148 63.3482 12.6784 64.0275 12.4453C66.851 11.4915 69.4622 10.0504 72.1159 8.71516C75.364 7.06205 78.5908 5.34536 81.8814 3.81941C83.3674 3.14121 84.811 2.42063 86.3183 1.80601C87.8892 1.1702 92.5385 -0.567687 91.5619 2.8445C90.9463 5.00626 89.5451 7.06205 88.7809 9.18143C87.7406 12.0002 87.5071 14.9037 88.2501 17.8285C89.715 23.572 94.8312 28.2134 98.3553 32.7276C100.86 35.9491 104.788 41.735 104.639 46.4824C103.429 46.0585 101.264 46.546 100.415 46.7155C96.381 47.6056 92.5597 49.2799 88.8658 51.0814Z" fill="#ED4D47"/>
<path d="M86.9764 56.6973C87.2524 56.1039 87.5708 55.5105 87.9105 54.9382C88.144 54.5568 88.3988 54.1965 88.6535 53.8362C89.0357 53.2216 89.8848 52.0135 89.7362 51.2505C91.1586 50.5935 92.6022 49.9789 94.0458 49.4067C96.2748 48.5377 98.5676 47.8595 100.924 47.3721C101.561 47.2449 102.198 47.139 102.835 47.0754C104.108 46.927 104.469 47.4569 104.406 48.1351C104.215 48.8768 103.875 49.5762 103.408 50.212C103.132 50.9114 102.601 51.5684 102.07 52.0771C101.221 52.9036 100.287 53.4759 99.247 53.8362C96.5296 55.4257 93.3664 56.443 90.5642 57.6934C89.0994 58.3504 87.125 59.0286 85.7027 60.1095C85.8513 58.9015 86.3608 57.7994 86.9764 56.6973Z" fill="#ED4D47"/>
<path d="M125.699 36.8604C124.828 38.0896 123.066 38.9798 121.835 39.8487C115.954 44.0451 112.345 50.0005 109.904 56.6342C109.883 56.6342 109.862 56.6342 109.84 56.6342C109.734 56.9309 109.628 57.2064 109.522 57.4819C109.543 57.4819 109.564 57.4819 109.586 57.4819C108.843 59.5165 107.972 61.3392 106.486 62.9711C105.892 63.6281 105.319 64.2215 104.703 64.6666C104.342 65.0692 103.939 65.4083 103.429 65.5567C101.646 66.1289 99.714 65.2812 97.9944 64.8573C95.7229 64.2851 93.4301 63.9248 91.0949 63.6705C90.0759 63.5645 88.9932 63.4585 88.0803 62.9923C87.5071 62.9075 86.9552 62.7591 86.4457 62.526C86.2334 62.42 85.9786 62.2717 85.7876 62.0597C85.1719 61.5511 85.4054 60.7669 86.1909 60.3854C86.2334 60.3642 86.2971 60.3642 86.3395 60.3642C86.9764 59.898 87.7619 59.6437 88.5474 59.4529C92.029 57.7998 95.6167 56.401 99.0771 54.7267C100.945 53.8154 102.729 52.353 104.024 50.5939C104.427 49.7674 104.788 48.8984 105.043 48.0083C105.127 47.3937 105.276 46.8003 105.191 46.1856C105.191 46.1009 105.212 46.0585 105.255 46.0161C105.297 44.4478 105 42.837 104.554 41.3959C102.622 35.2921 97.6547 30.3751 93.7698 25.4794C91.9228 23.1693 90.2669 20.732 89.2479 17.9556C87.7831 14.0348 89.0144 10.0927 90.5854 6.42622C90.5854 6.44741 90.6066 6.4686 90.6278 6.4898C90.6915 6.61696 90.8614 6.40502 90.8401 6.32025C90.8189 6.17189 96.2111 7.4859 96.6994 7.65545C99.0559 8.46081 101.37 9.49931 103.599 10.6014C107.187 12.4028 110.477 14.7765 113.428 17.4681C116.719 20.4565 119.436 23.9958 121.877 27.6835C122.981 29.3578 124.106 31.0321 125.168 32.7488C125.911 33.9781 126.696 35.4616 125.699 36.8604Z" fill="#ED4D47"/>
<g opacity="0.6">
<path d="M41.6519 46.8001C40.9088 44.0025 39.5502 41.3957 37.7457 39.1279C35.3468 36.1396 32.311 33.5964 28.8718 31.9009C27.8953 32.9182 26.8763 33.8931 25.836 34.868C27.6193 35.6522 29.254 36.7119 30.7612 37.9835C32.8205 39.7426 34.4127 41.7983 36.0686 43.9177C37.3635 45.5708 38.5949 47.4147 39.2317 49.4281C39.7625 51.1872 39.8686 53.3277 38.3401 54.6417C37.0663 55.7438 35.4105 55.7014 33.8819 55.1292C29.8908 53.6668 26.8551 50.4666 23.2461 48.3048C21.3567 47.1816 19.2337 46.0795 17.0471 45.3589C16.4952 46.355 15.9857 47.3723 15.646 48.4532C15.4762 49.0042 15.37 49.64 15.1365 50.1699C14.5845 51.5051 15.3912 50.5937 15.9432 50.3182C18.0661 49.2585 20.8684 50.2123 22.8215 51.166C25.6025 52.5012 28.2137 54.3874 30.4853 56.4856C30.7825 56.7611 31.0797 57.0578 31.3344 57.3757C31.5255 57.5241 31.7378 57.6936 31.9289 57.842C33.7333 59.262 35.7926 60.4912 37.4909 62.0384C37.8943 62.3986 38.3613 63.0345 38.701 63.6915C39.3379 61.1482 40.4206 58.5838 41.0362 56.0829C41.4183 54.5358 41.8005 53.0098 42.1826 51.4627C42.1826 49.9155 42.0765 48.3472 41.6519 46.8001Z" fill="#FFA4A3" fill-opacity="0.6"/>
<path d="M98.0368 44.639C95.9776 45.4443 93.9184 46.4404 91.7105 46.8007C90.0759 47.0762 87.5708 45.8894 89.3965 44.1939C91.4982 42.2441 94.6402 41.2056 97.2726 40.1671C98.8011 39.5737 100.33 38.9802 101.858 38.3868C101.943 38.3656 102.028 38.3232 102.092 38.302C101.646 37.4967 101.158 36.6913 100.669 35.9495C99.162 35.3137 97.0603 35.7164 95.5955 35.9919C93.5787 36.3734 91.5619 36.9033 89.6513 37.6874C85.4903 39.3829 82.9853 43.1554 80.9685 46.9703C78.8031 51.0183 76.8925 55.4902 73.3684 58.5844C69.7807 61.7211 65.2588 62.5689 60.6308 62.7808C57.9347 62.908 55.2386 62.8232 52.5425 62.7596C50.3134 62.696 47.7447 63.0139 45.6005 62.251C42.1614 61.0217 42.034 57.5036 42.1189 54.3669C41.206 57.991 40.2719 61.5939 39.1043 65.1757C39.1043 65.9387 38.6798 66.5109 37.3848 66.5109C35.2194 66.5109 33.1601 65.8751 31.016 65.6208C30.3154 65.536 29.4662 65.43 28.6595 65.43C27.8953 65.3029 27.1098 65.3028 26.4729 65.7055C25.4539 66.3625 26.2606 67.2951 27.0673 67.5706C27.3009 67.6977 27.6193 67.7825 28.0226 67.8461C29.0204 68.164 30.0182 68.4395 31.0372 68.6303C33.6272 69.1177 35.9199 69.4568 38.4462 69.2025C39.6775 69.1601 41.015 68.8634 42.225 68.4607C42.6284 68.4395 43.053 68.4183 43.4563 68.4395C43.9234 68.4607 44.3904 68.4819 44.8575 68.5243C45.2608 68.5243 45.6642 68.5243 46.0675 68.5243C46.1737 68.5243 46.2374 68.5667 46.2586 68.6303C48.0843 68.7998 49.91 69.0329 51.7358 69.2025C57.3828 69.7323 66.0655 71.3007 70.7572 67.1043C75.1517 63.1835 76.9986 57.1221 82.5819 54.4093C82.7093 54.3457 82.8367 54.3033 82.964 54.2397C84.8747 53.0953 86.849 52.0568 88.8446 51.0819C92.5597 49.2804 96.3597 47.6061 100.415 46.7371C101.264 46.5464 103.429 46.0801 104.639 46.504C104.66 45.5503 104.533 44.5754 104.299 43.5793C102.155 43.5581 100.075 43.8336 98.0368 44.639Z" fill="#FFA4A3" fill-opacity="0.6"/>
<path d="M100.606 60.0677C99.353 59.4107 98.2704 58.2662 99.7564 57.1429C101.306 55.9773 103.408 55.3415 105.34 55.5958C106.911 55.7865 108.333 56.3376 109.755 56.931C109.798 56.8462 109.819 56.7403 109.862 56.6555C109.883 56.6555 109.904 56.6555 109.925 56.6555C110.116 56.1468 110.307 55.617 110.52 55.1084C107.951 54.2182 105.531 53.0526 103.684 51.0815C102.431 52.6287 100.818 53.9215 99.1195 54.7269C95.6591 56.4224 92.0714 57.8 88.5898 59.4531C87.7831 59.6438 87.0188 59.8981 86.3819 60.3644C86.3395 60.3644 86.297 60.3644 86.2333 60.3856C85.4479 60.7671 85.2143 61.5512 85.83 62.0599C86.021 62.2506 86.2758 62.4202 86.4881 62.5262C86.9976 62.7805 87.5496 62.9288 88.1228 62.9924C89.0356 63.4587 90.1183 63.5646 91.1373 63.6706C93.4513 63.9249 95.7653 64.3064 98.0368 64.8575C99.7564 65.2813 101.688 66.1291 103.472 65.5569C103.981 65.3873 104.406 65.0694 104.745 64.6667C105.361 64.2217 105.934 63.6282 106.529 62.9712C106.698 62.7805 106.868 62.5897 107.017 62.3778C104.83 61.7208 102.58 61.1274 100.606 60.0677Z" fill="#FFA4A3" fill-opacity="0.6"/>
</g>
<path d="M45.643 14.2044C48.0631 14.7554 51.4598 15.582 52.309 18.2948C52.8609 20.075 52.309 21.8341 51.7358 23.5296C51.1626 25.2251 50.5045 27.069 51.3536 28.7221C51.5872 28.3194 51.8419 27.9167 52.0967 27.4928C53.9861 24.4621 56.5124 21.8977 58.7839 19.1637C60.3336 17.3198 61.3739 15.0521 61.5225 12.636C61.6074 11.4068 61.7348 10.2835 60.6733 9.41458C60.185 9.0119 59.7392 8.60922 59.2085 8.24893C55.7056 5.89643 52.0542 3.98899 47.8508 3.31079C44.539 2.78095 41.206 2.48424 37.8943 1.97559C37.8518 2.14514 37.8094 2.31469 37.7669 2.48424C37.4485 3.98899 37.1937 5.49374 37.0026 7.01969C36.7479 9.09668 36.7479 11.1949 36.6205 13.293C39.6563 13.2083 42.7133 13.5262 45.643 14.2044Z" fill="#FFF5DA"/>
<path d="M39.0619 2.97169C41.9915 3.39557 44.9636 3.71347 47.7871 4.66719C50.5045 5.57852 52.7972 7.06208 55.0051 8.88474C56.0878 9.77488 57.404 10.8134 58.0621 12.085C58.699 13.293 58.6565 14.713 59.3359 15.9211C59.6543 16.4721 59.994 16.7264 60.3549 16.79C61.013 15.4972 61.4376 14.0984 61.5225 12.636C61.6074 11.4068 61.7348 10.2835 60.6733 9.41458C60.185 9.0119 59.7392 8.60922 59.2085 8.24893C55.7057 5.89643 52.0542 3.98899 47.8508 3.31079C44.539 2.78095 41.206 2.48424 37.8943 1.97559C37.8518 2.14514 37.8094 2.31469 37.7669 2.48424C37.7457 2.5902 37.7244 2.69617 37.7032 2.78095C38.1703 2.84453 38.6161 2.90811 39.0619 2.97169Z" fill="#FFF5DA"/>
<path d="M60.7794 20.8166C62.7325 20.6046 64.6432 21.1345 66.5963 21.1981C68.5706 21.2617 70.3751 20.8378 72.1159 19.8841C77.5081 16.8746 81.7115 9.68988 88.5049 10.0502C88.5898 9.77465 88.6747 9.47794 88.7809 9.20242C89.5664 7.08305 90.9463 5.02726 91.5619 2.8655C92.5385 -0.546691 87.8893 1.19119 86.3183 1.82701C84.811 2.44162 83.3462 3.16221 81.8814 3.84041C78.5696 5.36636 75.364 7.08305 72.1159 8.73616C69.4622 10.0714 66.8723 11.5337 64.0275 12.4663C63.3482 12.6994 62.8175 12.6146 62.4353 12.3603C62.3504 13.5047 62.0107 14.6704 61.5649 15.7301C60.3549 18.6972 58.147 21.0073 56.0453 23.381C57.3191 22.0458 58.8051 21.0285 60.7794 20.8166Z" fill="#FFF5DA"/>
<path d="M62.2018 15.921C62.8812 15.3488 63.518 14.6706 64.3035 14.2255C65.4711 13.5685 66.8935 13.293 68.1673 12.8691C69.7382 12.3393 71.3304 11.8094 72.8589 11.1312C75.3215 10.0504 77.5081 8.63039 79.7584 7.18922C82.9853 5.11223 87.4222 2.1875 91.4982 3.12002C91.5195 3.03525 91.5619 2.95047 91.5832 2.8445C92.5597 -0.567687 87.9105 1.1702 86.3395 1.80601C84.8322 2.42063 83.3674 3.14121 81.9026 3.81941C78.5908 5.34536 75.3852 7.06205 72.1371 8.71516C69.4835 10.0504 66.8935 11.5127 64.0488 12.4453C63.3694 12.6784 62.8387 12.5936 62.4566 12.3393C62.3717 13.4838 62.032 14.6494 61.5862 15.7091C61.4588 16.027 61.3102 16.3237 61.1616 16.6204C61.5013 16.4933 61.8622 16.2177 62.2018 15.921Z" fill="#FFF5DA"/>
<path opacity="0.3" d="M52.585 27.8318C53.4554 26.7297 54.2833 25.5005 55.175 24.3984C54.2621 25.4581 53.3917 26.6026 52.585 27.8318Z" fill="#FFA4A3" fill-opacity="0.6"/>
<path d="M125.147 32.7488C124.085 31.0533 122.981 29.3578 121.856 27.6835C119.415 23.9958 116.697 20.4565 113.407 17.4681C110.435 14.7765 107.165 12.4028 103.578 10.6014C101.349 9.47811 99.0346 8.43962 96.6781 7.65545C96.1899 7.4859 90.7976 6.17189 90.8189 6.32025C90.8401 6.40502 90.649 6.59577 90.6066 6.4898C90.5853 6.4686 90.5853 6.44741 90.5641 6.42622C90.0546 7.63426 89.5876 8.86349 89.2267 10.1139C89.2903 10.1563 89.354 10.2199 89.3328 10.3047C89.3328 11.0464 89.2691 11.7882 89.2054 12.5512C88.9295 15.3488 88.6535 18.104 90.7764 20.3081C92.8356 22.4275 95.6167 22.9785 98.4402 23.2116C100.903 23.4236 103.556 23.4448 105.892 24.3773C108.163 25.2886 110.329 26.751 112.197 28.3193C115.487 31.0745 117.865 34.6351 119.054 38.7678C119.309 39.6792 119.521 40.5905 119.691 41.523C120.37 40.9296 121.071 40.3574 121.835 39.8275C123.066 38.9374 124.828 38.0684 125.699 36.8392C126.696 35.4616 125.911 33.9781 125.147 32.7488Z" fill="#FFF5DA"/>
<path d="M98.9073 10.6648C103.026 12.7206 107.25 14.5644 110.881 17.4679C114.171 20.096 117.249 22.9783 120.476 25.6699C118.396 22.724 116.103 19.9264 113.407 17.4891C110.435 14.7975 107.165 12.4238 103.578 10.6224C101.349 9.49911 99.0347 8.46062 96.6782 7.67645C96.1899 7.5069 90.7977 6.19289 90.8189 6.34124C90.8402 6.42602 90.6491 6.61676 90.6066 6.51079C90.5854 6.4896 90.5854 6.46841 90.5642 6.44721C90.3519 6.93467 90.1608 7.42212 89.9698 7.90958C93.0905 7.97316 96.1687 9.30836 98.9073 10.6648Z" fill="#FFF5DA"/>
<path opacity="0.3" d="M44.1357 20.774C43.9022 20.6257 43.6474 20.4773 43.3502 20.3713C43.3502 20.3713 43.3502 20.3501 43.329 20.3501C43.1379 20.117 42.6921 20.011 42.4161 19.9687C41.6306 19.8415 40.8239 20.5409 40.7178 21.3039C40.5267 22.8086 42.0764 23.6987 43.3714 23.8259C44.2418 23.9107 45.1335 23.1689 45.0273 22.2364C45.0061 21.7065 44.6027 21.0707 44.1357 20.774Z" fill="#FFA4A3" fill-opacity="0.6"/>
<path opacity="0.3" d="M45.9614 28.8494C45.8553 28.6375 45.7279 28.4043 45.5368 28.2984C45.2821 28.15 44.9637 28.0864 44.6664 28.0652C43.9022 28.0441 43.3078 28.4467 43.2229 29.2309C43.1592 29.8879 43.7324 30.5025 44.2206 30.8628C44.7726 31.2655 45.643 31.9649 46.2799 31.3503C47.129 30.5449 46.7045 29.5276 45.9614 28.8494Z" fill="#FFA4A3" fill-opacity="0.6"/>
<path opacity="0.3" d="M74.4511 45.7406C73.7293 45.1471 72.5617 46.3128 72.1584 46.8215C72.0947 46.9062 72.031 46.991 71.9673 47.0758C72.307 46.5247 71.9885 47.0122 71.8611 47.1394C71.6489 47.3725 71.4578 47.6692 71.288 47.9447C71.203 48.0719 71.1393 48.2202 71.0757 48.3686C70.5874 48.9832 70.2053 49.725 70.3539 50.4244C70.4176 50.6999 70.6086 50.7635 70.8634 50.6787C72.031 50.382 72.9651 49.4283 73.7718 48.5593C74.4087 47.9235 75.4064 46.5035 74.4511 45.7406Z" fill="#FFA4A3" fill-opacity="0.6"/>
<path opacity="0.3" d="M91.3284 32.4101L91.3072 32.3889C91.3284 32.3253 91.3072 32.2406 91.2435 32.2194C91.1586 32.177 91.0524 32.1558 90.9675 32.1558C90.8189 32.1346 90.6491 32.1558 90.5004 32.1982C90.3518 32.2405 90.2245 32.3253 90.0971 32.3889H90.0759C89.906 32.4313 89.7786 32.5585 89.6513 32.6432C89.3328 32.8764 88.887 33.7453 89.4814 33.9361C89.63 33.9784 89.7787 33.9572 89.906 33.8937C89.9697 33.9149 90.0546 33.9149 90.1396 33.9149C90.4792 33.8937 90.7977 33.6817 91.01 33.4274C91.2647 33.1943 91.4982 32.7492 91.3284 32.4101Z" fill="#FFA4A3" fill-opacity="0.6"/>
<path opacity="0.3" d="M58.9962 46.1854C58.5291 46.0371 58.0196 45.9311 57.5101 45.9099C57.0856 45.7827 56.5548 45.8463 56.0241 46.0371C55.2811 46.2278 54.623 46.5881 54.1559 47.2239C53.9224 47.5206 53.6464 48.0717 53.9861 48.3896C54.071 48.4532 54.1559 48.5167 54.2408 48.5591C54.347 48.7287 54.4956 48.8558 54.7079 48.9406C55.8543 49.4069 56.9157 49.1949 58.0833 48.9194C59.5269 48.6015 61.0342 46.8212 58.9962 46.1854Z" fill="#FFA4A3" fill-opacity="0.6"/>
<path opacity="0.6" d="M32.6294 42.6678C32.1836 42.4771 31.6953 42.3711 31.207 42.3287C30.7824 42.1591 30.2729 42.2651 29.7847 42.4771C29.0841 42.689 28.426 43.1553 27.9802 43.897C27.7679 44.2573 27.4919 44.9143 27.8316 45.317C27.8952 45.4018 27.9802 45.4654 28.0863 45.5289C28.1925 45.7197 28.3411 45.8892 28.5321 45.9952C29.636 46.5674 30.6551 46.2919 31.7802 45.974C33.1601 45.5925 34.5825 43.452 32.6294 42.6678Z" fill="#FFA4A3" fill-opacity="0.6"/>
<path opacity="0.6" d="M75.0456 21.2407C74.7908 21.1347 74.5149 21.0712 74.2389 21.05C74.0053 20.9652 73.7081 21.0076 73.4109 21.1347C73.0076 21.2619 72.6467 21.5162 72.3707 21.9401C72.2433 22.152 72.0947 22.5335 72.2858 22.7455C72.3282 22.7878 72.3707 22.8302 72.4344 22.8726C72.4981 22.9786 72.583 23.0846 72.6891 23.1481C73.326 23.466 73.8992 23.3177 74.5573 23.1269C75.3428 22.915 76.1495 21.707 75.0456 21.2407Z" fill="#FFA4A3" fill-opacity="0.6"/>
<path opacity="0.3" d="M69.2924 32.1552C69.2287 32.0069 69.1225 31.9221 69.0164 31.8797C68.9952 31.7949 68.9103 31.7526 68.8041 31.7949C68.5494 31.8797 68.2946 31.9009 68.0399 32.0281C67.679 32.2188 67.2968 32.6851 67.4667 33.109C67.5728 33.3845 67.9125 33.4481 68.1672 33.4269C68.613 33.3845 68.9527 33.1302 69.2075 32.7487C69.3136 32.5791 69.3773 32.3248 69.2924 32.1552Z" fill="#FFA4A3" fill-opacity="0.6"/>
<path opacity="0.3" d="M109.31 31.3074C108.906 31.0743 108.503 30.9259 108.057 30.9047C107.951 30.8623 107.824 30.82 107.675 30.7988C107.017 30.6716 106.422 31.2226 106.189 31.7737C105.679 32.9605 106.741 33.5327 107.739 33.8083C108.779 34.105 110.095 34.0626 110.307 32.7062C110.392 32.134 109.713 31.5617 109.31 31.3074Z" fill="#FFA4A3" fill-opacity="0.6"/>
<path opacity="0.3" d="M111.539 47.9025C111.56 47.8177 111.581 47.7329 111.539 47.6693C111.305 47.2455 110.838 46.7368 110.286 46.3977C110.244 46.3765 110.201 46.3553 110.159 46.3341C109.564 45.995 108.885 45.8891 108.375 46.3765C107.802 46.9276 107.739 47.521 108.036 48.2204C108.142 48.4747 108.291 48.8986 108.503 49.0893C108.843 49.4072 109.225 49.598 109.649 49.7463C110.392 49.9795 111.199 50.0219 111.602 49.1953C111.836 48.7502 111.751 48.3052 111.539 47.9025Z" fill="#FFA4A3" fill-opacity="0.6"/>
<path opacity="0.3" d="M99.3318 24.3136C99.3531 24.1017 99.1408 23.9745 98.9497 24.0593C98.886 24.0805 98.8223 24.1229 98.7799 24.1652C98.5676 24.2288 98.3765 24.4408 98.2916 24.6739C98.2279 24.8222 98.2491 25.0342 98.419 25.0978C98.5888 25.1613 98.7586 25.119 98.9072 25.0342C98.9497 25.0554 98.9922 25.0978 99.0346 25.1401C99.162 25.2673 99.4168 25.013 99.4804 24.8646C99.5441 24.6315 99.4804 24.4408 99.3318 24.3136Z" fill="#FFA4A3" fill-opacity="0.6"/>
<path opacity="0.3" d="M103.005 18.74C101.985 18.0406 100.691 17.4048 99.438 17.4896C98.419 17.5531 97.7396 18.634 98.0156 19.5665C98.143 19.9692 98.5039 20.2659 98.9709 20.5203C99.6715 21.1561 100.669 21.5164 101.54 21.7071C102.665 21.9614 104.321 22.8304 104.936 21.3044C105.403 20.1176 103.811 19.291 103.005 18.74Z" fill="#FFA4A3" fill-opacity="0.6"/>
<path opacity="0.3" d="M77.9964 11.2793C77.8903 11.0674 77.7204 10.9826 77.5506 10.9614C77.5294 10.919 77.4657 10.919 77.3808 10.9402C76.9349 11.0462 76.4467 11.1097 76.0858 11.3853C75.8098 11.5972 75.5975 11.9151 75.4914 12.233C75.1941 12.996 75.9159 13.3987 76.574 13.2715C76.9986 13.1867 77.4232 12.9536 77.6992 12.6145C77.9327 12.2754 78.2087 11.7032 77.9964 11.2793Z" fill="#FFA4A3" fill-opacity="0.6"/>
<path opacity="0.3" d="M66.5963 18.422C66.5751 18.21 66.384 18.1677 66.2142 18.1041C65.8957 18.0193 65.5348 18.0617 65.2164 18.0193C64.8979 17.9769 64.622 18.2312 64.4521 18.4856C64.3247 18.6975 64.2398 19.079 64.5583 19.185C64.6644 19.2273 64.7706 19.2273 64.8767 19.2485C64.9829 19.2909 65.1102 19.3545 65.2164 19.3757C65.7259 19.5029 66.2566 19.3969 66.5114 18.8882C66.575 18.7611 66.6175 18.6127 66.5963 18.422Z" fill="#FFA4A3" fill-opacity="0.6"/>
<path opacity="0.3" d="M54.5593 16.6204C54.5593 16.5145 54.4743 16.3873 54.3894 16.2813C54.347 16.1754 54.3045 16.0906 54.2408 15.9846C54.1559 15.7939 54.0498 15.5819 53.9436 15.3912C53.6252 14.8614 52.8185 13.6957 52.0542 13.9712C50.1648 14.6494 52.224 17.5742 53.519 17.7013C53.8162 17.7225 54.1134 17.553 54.2833 17.2986C54.4743 17.0867 54.5593 16.9172 54.5593 16.6204Z" fill="#FFA4A3" fill-opacity="0.6"/>
<path opacity="0.6" d="M60.6733 9.39304C60.185 8.99036 59.7392 8.58768 59.2085 8.22739C55.7057 5.87488 52.0542 3.96745 47.8508 3.28925C45.834 2.97134 43.7748 2.71702 41.758 2.48389C43.5837 3.07731 45.5793 3.37402 47.3201 3.88267C49.995 4.66684 53.3068 6.36234 53.5403 9.5202C53.7101 11.8091 52.5425 13.9921 51.3324 15.8571C49.719 18.4004 47.8721 20.7953 45.9614 23.1266C41.8217 28.2555 37.7245 33.2996 34.816 39.255C33.9881 40.9717 33.33 42.7096 32.6082 44.4687C32.2261 45.4224 31.9501 46.4397 31.5255 47.3722C30.5277 49.4704 29.0417 50.1698 26.7701 49.8731C25.5176 49.7035 24.2863 49.3432 23.0338 49.1525C21.8874 48.9829 20.6773 49.0889 19.5522 49.3008C18.703 49.4492 17.8326 49.6611 17.0047 49.979C18.9365 49.5763 21.2081 50.3817 22.8427 51.1659C25.6238 52.5011 28.235 54.3873 30.5065 56.4855C30.8037 56.761 31.1009 57.0577 31.3557 57.3756C31.5467 57.524 31.759 57.6935 31.9501 57.8419C33.7546 59.2619 35.8138 60.4911 37.5122 62.0382C37.9155 62.3985 38.3826 63.0344 38.7222 63.6914C39.3591 61.1481 40.4418 58.5837 41.0575 56.0828C41.9279 52.5011 42.8195 48.8981 43.9659 45.38C45.1335 41.7982 46.5134 38.3225 48.0631 34.8891C48.6788 33.5115 49.3156 32.1339 50.1011 30.8411C50.1436 30.7775 50.2922 30.5444 50.5045 30.2477C50.9928 29.3151 51.5235 28.3826 52.1179 27.4501C54.0073 24.4194 56.5336 21.8549 58.8051 19.121C60.3549 17.2771 61.3951 15.0094 61.5437 12.5933C61.6074 11.4064 61.7348 10.2832 60.6733 9.39304Z" fill="#FFA4A3" fill-opacity="0.6"/>
<path opacity="0.6" d="M42.7133 62.865C43.053 59.8343 43.6474 56.8036 44.3268 53.8152C45.7067 47.8386 47.7871 42.0315 50.6318 36.5847C52.1179 33.7448 53.7526 31.0108 55.6844 28.4675C57.5951 25.9455 59.6331 23.5294 61.289 20.8378C62.1806 19.3966 62.9236 17.9131 63.4968 16.3023C63.9426 15.0519 64.3884 13.7379 65.1315 12.6146C65.3225 12.3179 65.5348 12.0424 65.7471 11.7881C65.1739 12.0212 64.6007 12.2332 64.0275 12.4451C63.3482 12.6782 62.8175 12.5934 62.4353 12.3391C62.3504 13.4836 62.0107 14.6492 61.5649 15.7089C60.2275 18.994 57.68 21.4736 55.3872 24.1016C53.9648 25.7547 52.5637 27.6198 51.4598 29.6332C50.3134 31.2863 49.2944 33.003 48.5726 34.8681C48.3391 35.3555 48.1056 35.843 47.8933 36.3516C46.5346 39.5519 45.1972 42.7733 44.2843 46.1219C42.5223 52.5012 41.1636 58.8805 39.1256 65.1751C39.1256 65.938 38.701 66.5103 37.406 66.5103C35.2406 66.5103 33.1814 65.8745 31.0372 65.6201C30.3366 65.5354 29.4875 65.4294 28.6808 65.4294C27.9165 65.3022 27.131 65.3022 26.4941 65.7049C25.4751 66.3619 26.2819 67.2944 27.0886 67.57C27.3221 67.6971 27.6405 67.7819 28.0439 67.8455C29.0417 68.1634 30.0394 68.4389 31.0584 68.6296C33.6484 69.1171 35.9412 69.4562 38.4675 69.2019C39.6988 69.1595 41.0362 68.8628 42.2463 68.4601C42.5647 68.4389 42.8619 68.4389 43.1804 68.4389C42.6496 66.6586 42.501 64.7936 42.7133 62.865Z" fill="#FFA4A3" fill-opacity="0.6"/>
<path opacity="0.6" d="M98.3765 32.7276C94.8525 28.1922 89.7362 23.5508 88.2714 17.8285C87.5284 14.9037 87.7619 12.0002 88.8021 9.18143C89.5876 7.06205 90.9675 5.00626 91.5832 2.8445C92.5597 -0.567687 87.9105 1.1702 86.3395 1.80601C84.8323 2.42063 83.3674 3.14121 81.9026 3.81941C78.888 5.2182 75.9584 6.76534 73.0075 8.2701C73.05 8.2489 73.1137 8.2489 73.1561 8.22771C75.0031 7.76145 76.7864 7.10444 78.5272 6.36266C79.44 5.98117 81.6691 4.60358 82.5395 5.74804C83.1339 6.53221 82.9428 7.74025 82.8367 8.65158C82.6669 10.0928 82.4333 11.5339 82.1786 12.9751C81.5629 16.5145 81.3082 19.9902 81.9451 23.5508C82.5183 26.7934 83.516 30.142 85.1295 33.0244C85.9362 34.4867 86.8915 35.8431 88.0591 37.03C88.9083 37.8989 89.9485 38.5135 90.8826 39.2765C92.3899 40.5057 93.3664 42.0741 92.6022 44.0451C91.1161 47.8176 86.934 49.6614 84.0892 52.2471C83.0915 53.1372 82.1574 54.1333 81.287 55.193C81.7115 54.9175 82.1574 54.6631 82.6244 54.43C82.7518 54.3664 82.8792 54.3241 83.0065 54.2605C84.9172 53.116 86.8915 52.0775 88.8871 51.1026C92.6022 49.3011 96.4022 47.6268 100.457 46.7579C101.306 46.5672 103.472 46.1009 104.682 46.5248C104.809 41.735 100.882 35.9491 98.3765 32.7276Z" fill="#FFA4A3" fill-opacity="0.6"/>
<path opacity="0.6" d="M125.147 32.7487C124.085 31.0532 122.981 29.3577 121.856 27.6834C119.712 24.462 117.355 21.3253 114.574 18.5913C116.591 21.9399 118.842 25.2038 120.221 28.8915C120.922 30.7777 121.686 33.2362 120.476 35.08C119.542 36.4788 118.077 37.0934 116.57 37.6657C114.447 38.471 112.834 39.5519 112.388 41.9256C111.836 44.9775 110.732 47.9022 109.331 50.6574C107.908 53.4762 106.337 56.3373 104.554 58.9442C103.365 60.7032 101.837 62.2928 99.8625 63.1617C98.5039 63.7551 97.0178 64.1154 95.5105 64.285C96.3385 64.4333 97.1664 64.6029 97.9731 64.8148C99.6927 65.2387 101.625 66.0864 103.408 65.5142C103.917 65.3447 104.342 65.0268 104.682 64.6241C105.297 64.179 105.87 63.5856 106.465 62.9286C107.951 61.2967 108.821 59.474 109.564 57.4394C109.543 57.4394 109.522 57.4394 109.501 57.4394C109.607 57.1639 109.734 56.8672 109.819 56.5917C109.84 56.5917 109.862 56.5917 109.883 56.5917C112.324 49.958 115.954 44.0026 121.814 39.8062C123.045 38.9161 124.807 38.0471 125.677 36.8179C126.696 35.4615 125.911 33.978 125.147 32.7487Z" fill="#FFA4A3" fill-opacity="0.6"/>
<path opacity="0.6" d="M93.7486 25.5004C95.7017 27.9588 97.9307 30.4385 99.9051 33.0453C99.714 31.583 100.117 30.2054 100.224 28.743C100.351 26.8992 100.287 25.0341 99.99 23.1903C99.714 21.4736 99.3106 19.7781 98.8648 18.1038C98.5464 16.9381 98.1006 15.7936 97.8034 14.6068C97.3576 12.7206 97.0816 10.2833 98.695 8.8421C98.8011 8.73613 98.9073 8.65136 99.0347 8.56658C98.2492 8.24868 97.4637 7.95197 96.657 7.67645C96.1687 7.5069 90.7765 6.19289 90.7977 6.34124C90.8189 6.42602 90.6279 6.61676 90.5854 6.51079C90.5642 6.4896 90.5642 6.46841 90.5429 6.44721C88.9932 10.1137 87.7407 14.0346 89.2055 17.9766C90.267 20.7318 91.9229 23.1903 93.7486 25.5004Z" fill="#FFA4A3" fill-opacity="0.6"/>
<path opacity="0.9" d="M28.8082 61.8688C29.721 60.5971 30.74 59.4739 31.5255 58.1387C31.7803 58.3506 32.035 58.5837 32.311 58.7957C33.2451 59.601 34.1792 60.3852 35.0496 61.233C35.6652 61.7628 36.2809 62.2926 36.9178 62.8013C37.7669 63.5007 39.4653 65.726 37.0664 65.7472C35.7077 65.7684 34.3066 65.3869 32.9691 65.1538C31.0585 64.8147 28.1288 64.1577 26.3243 65.175C26.3031 65.175 26.3031 65.1962 26.2819 65.1962C27.0674 64.0305 28.0439 62.9285 28.8082 61.8688Z" fill="#FFA4A3" fill-opacity="0.6"/>
<path opacity="0.9" d="M86.9764 56.6973C87.2523 56.1039 87.5708 55.5105 87.9105 54.9382C88.144 54.5568 88.3987 54.1965 88.6535 53.8362C89.0356 53.2216 89.8848 52.0135 89.7362 51.2505C91.1585 50.5935 92.6021 49.9789 94.0457 49.4067C96.2748 48.5377 98.5676 47.8595 100.924 47.3721C101.561 47.2449 102.198 47.139 102.835 47.0754C104.108 46.927 104.469 47.4569 104.406 48.1351C104.215 48.8768 103.875 49.5762 103.408 50.212C103.132 50.9114 102.601 51.5684 102.07 52.0771C101.221 52.9036 100.287 53.4759 99.2469 53.8362C96.5295 55.4257 93.3664 56.443 90.5641 57.6934C89.0993 58.3504 87.125 59.0286 85.7026 60.1095C85.8512 58.9015 86.3607 57.7994 86.9764 56.6973Z" fill="#FFA4A3" fill-opacity="0.6"/>
<path opacity="0.3" d="M88.5686 14.3525C88.6323 13.526 88.7172 12.6994 88.8021 11.894C88.6535 12.6994 88.5686 13.526 88.5686 14.3525Z" fill="#FFA4A3" fill-opacity="0.6"/>
<path opacity="0.6" d="M86.6155 29.1038C86.382 29.019 86.1272 28.9554 85.8725 28.9342C85.6602 28.8495 85.3842 28.8919 85.1294 29.019C84.7473 29.1462 84.4076 29.3793 84.1741 29.7608C84.068 29.9515 83.9194 30.2906 84.0892 30.5026C84.1316 30.545 84.1741 30.5874 84.2166 30.6085C84.259 30.7145 84.3439 30.7993 84.4501 30.8629C85.0233 31.1596 85.5752 31.0112 86.1484 30.8417C86.8915 30.6297 87.6345 29.5065 86.6155 29.1038Z" fill="#FFA4A3" fill-opacity="0.6"/>
<path opacity="0.6" d="M63.7728 39.7639C63.5392 39.6792 63.2845 39.6156 63.0297 39.5944C62.8174 39.5096 62.5415 39.552 62.2867 39.6792C61.9046 39.8063 61.5649 40.0395 61.3314 40.421C61.2252 40.6117 61.0766 40.9508 61.2465 41.1627C61.2889 41.2051 61.3314 41.2475 61.3739 41.2687C61.4375 41.3747 61.5012 41.4594 61.6074 41.523C62.1806 41.8197 62.7325 41.6714 63.3057 41.5018C64.0487 41.2899 64.813 40.1666 63.7728 39.7639Z" fill="#FFA4A3" fill-opacity="0.6"/>
<path opacity="0.6" d="M63.7728 65.6204C63.5392 65.5356 63.2845 65.472 63.0297 65.4508C62.8174 65.3661 62.5415 65.4085 62.2867 65.5356C61.9046 65.6628 61.5649 65.8959 61.3314 66.2774C61.2252 66.4681 61.0766 66.8072 61.2465 67.0192C61.2889 67.0616 61.3314 67.104 61.3739 67.1252C61.4375 67.2311 61.5012 67.3159 61.6074 67.3795C62.1806 67.6762 62.7325 67.5278 63.3057 67.3583C64.0487 67.1463 64.813 66.0231 63.7728 65.6204Z" fill="#FFA4A3" fill-opacity="0.6"/>
<path opacity="0.6" d="M49.6129 54.2178C49.4218 54.1331 49.2307 54.0907 49.0185 54.0907C48.8486 54.0271 48.6363 54.0695 48.424 54.1543C48.1268 54.239 47.8721 54.4298 47.681 54.7477C47.5961 54.896 47.4687 55.1716 47.6173 55.3411C47.6386 55.3835 47.681 55.4047 47.7235 55.4259C47.7659 55.5107 47.8296 55.5742 47.9145 55.6166C48.3816 55.8498 48.7849 55.7438 49.252 55.6166C49.8252 55.4259 50.4196 54.5569 49.6129 54.2178Z" fill="#FFA4A3" fill-opacity="0.6"/>
<path opacity="0.3" d="M112.982 40.3365C112.961 40.2729 112.94 40.1882 112.897 40.1246C112.919 40.061 112.919 39.9974 112.897 39.9338C112.876 39.7431 112.791 39.6371 112.643 39.5735C112.473 39.2768 112.26 39.0437 111.963 38.9801C111.666 38.9377 111.454 39.1709 111.305 39.404C111.093 39.7219 111.093 40.1034 111.326 40.4213C111.411 40.5273 111.517 40.6544 111.645 40.7392C111.751 40.8028 111.857 40.8664 111.984 40.8876C112.112 40.9088 112.218 40.8876 112.345 40.824C112.345 40.8452 112.367 40.8452 112.367 40.8664C112.6 41.2055 113.088 40.612 112.982 40.3365Z" fill="#FFA4A3" fill-opacity="0.6"/>
<path d="M1.57101 67.0189C3.56656 71.4272 5.37105 75.7931 8.04594 79.8411C10.6571 83.7832 13.9689 87.2377 17.6628 90.1625C21.3355 93.066 25.921 96.1603 30.6339 96.9233C29.1903 99.0638 26.2819 103.091 31.2071 102.667C35.7502 102.285 40.272 100.696 44.624 99.3605C47.0441 98.6188 49.4643 97.8558 51.8844 97.0928C53.2643 96.6689 54.623 96.2239 56.0241 95.9272C56.4487 95.8212 56.8733 95.7364 57.2979 95.6305L57.9772 95.5033C58.6353 95.5669 59.1661 95.7576 59.5482 96.1179C59.3784 97.3683 59.6119 98.5976 60.5247 99.6573C63.1359 102.709 66.7449 105.422 70.5237 106.863C74.2176 108.262 78.1875 108.94 82.0088 110C82.1149 110 82.2423 109.979 82.3484 109.957C82.3697 109.936 82.3909 109.915 82.3909 109.894C82.3909 109.894 82.3909 109.894 82.3697 109.894C82.773 109.237 83.1339 108.559 83.4311 107.817C84.5138 105.21 85.2144 102.518 85.83 99.7844C87.1038 94.1045 89.5239 88.7001 93.7273 84.5885C97.6335 80.7737 102.75 78.294 106.953 74.797C108.906 73.1651 110.562 71.1517 112.006 69.0747C112.728 68.0362 114.171 66.0864 114.044 64.7724C114.023 64.5605 113.831 64.4969 113.64 64.5816C111.56 65.5142 109.522 65.1115 107.611 64.0942C105.149 63.0981 103.238 61.1695 101.349 59.2196C100.266 58.1176 99.247 56.9731 98.2492 55.8074C99.7352 55.0233 101.051 53.6245 102.24 52.48C103.217 51.5263 104.745 50.2971 105.361 48.9619C107.038 47.4571 102.049 45.1258 100.839 44.6384C98.5889 43.727 96.3385 42.7309 93.8972 42.625C91.6256 42.519 89.4178 42.3918 87.1675 42.2011C86.8278 42.1375 86.4882 42.0739 86.1485 41.9891C82.9853 41.1838 79.8646 40.1665 76.7015 39.3823C71.755 38.1531 66.2991 36.7967 61.4164 39.0008C59.1024 40.0393 57.2979 42.1163 55.5571 43.8966C53.3917 46.1007 51.0352 48.2413 48.1481 49.3646C46.9805 50.0428 45.7704 50.5938 44.4117 50.9753C43.9234 51.1236 42.9893 51.5263 42.2463 51.5899C41.5458 51.8018 40.824 51.9926 40.1234 52.1833C41.5033 49.958 44.4117 47.8386 45.5156 45.2742C45.7279 44.8291 45.9827 44.1509 46.0251 43.6211L46.0464 43.5999C46.0039 42.5614 45.7067 41.5441 44.7938 41.1414C43.9659 40.7599 43.2441 40.3572 42.5011 39.891C39.5714 38.7465 36.4507 38.0259 33.5848 36.6059C31.8015 35.7158 30.1032 34.8892 28.0864 35.2072C26.4093 35.4615 24.5836 37.1994 23.4159 38.2802C22.4819 39.128 21.6751 40.1453 20.9533 41.205C20.3802 42.2435 19.807 43.282 19.1489 44.2569C19.1276 44.2993 19.0852 44.3204 19.0427 44.3416C18.0662 46.0583 17.0896 47.775 15.9008 49.2586C12.4829 53.6245 8.04594 56.1677 3.14197 58.6686C1.82576 59.3468 0.721834 60.0886 0.169873 61.5086C-0.488235 63.1617 0.934127 65.5778 1.57101 67.0189Z" fill="#EA4834"/>
<path d="M98.8648 57.3336C100.712 59.7921 102.983 62.1022 105.488 63.9037C107.25 65.1541 109.84 66.5953 112.112 65.9171C112.706 65.7476 113.662 64.9846 112.876 66.2138C112.558 66.7013 112.345 67.3159 112.091 67.8245C111.326 69.2657 110.244 70.5797 109.182 71.809C104.958 76.7047 98.8436 79.5447 93.9184 83.6351C89.9697 86.8989 87.5284 91.7523 85.9999 96.5632C85.1082 99.3396 84.7261 102.222 83.8982 105.02C83.4523 106.482 82.9428 107.944 82.3696 109.364C82.306 109.534 82.2423 109.682 82.1574 109.831C78.973 108.771 75.7461 107.902 72.5829 106.8C68.5494 105.401 65.3013 102.9 62.2443 99.9966C61.7772 99.5515 61.4163 99.0853 60.9918 98.5978C60.1001 97.5381 60.4398 96.4573 60.7158 95.2704C61.289 92.8967 62.6901 90.8621 64.537 89.2938C67.2544 87.0049 70.184 84.8855 72.5617 82.2363C73.3047 81.4097 73.9841 80.5832 74.621 79.7566C74.8757 79.5023 75.0668 79.3115 75.1305 79.248C76.1282 78.1035 76.9774 76.8531 77.8266 75.6026C79.9495 72.5084 81.9238 69.3081 83.6859 65.9807C85.4267 62.7168 86.9127 59.3259 88.3988 55.9349C89.439 53.5612 90.9251 51.251 92.0077 48.835C92.22 49.5344 92.5809 50.2337 92.9206 50.6576C94.3217 52.4803 96.1475 54.0274 97.676 55.7441C97.8458 55.9349 98.0156 56.1256 98.1855 56.3163C98.3765 56.6554 98.6101 56.9945 98.8648 57.3336Z" fill="#ED4D47"/>
<path d="M101.434 52.3529C100.33 53.4338 99.1196 54.3875 98.1006 55.5744C97.8883 55.3201 97.6548 55.0657 97.4425 54.7902C96.657 53.8365 95.8715 52.904 95.171 51.9079C94.6615 51.2933 94.1307 50.6574 93.6212 50.0428C92.8994 49.1951 91.6044 46.7154 93.9821 47.1181C95.3196 47.33 96.6358 47.9446 97.9095 48.4109C99.7353 49.0679 102.516 50.2124 104.448 49.5342C104.469 49.5342 104.469 49.5342 104.491 49.513C103.535 50.5091 102.368 51.4416 101.434 52.3529Z" fill="#ED4D47"/>
<path d="M40.4206 52.65C42.5647 52.0354 44.6877 51.3572 46.7681 50.5518C46.8955 50.5094 47.0441 50.4882 47.1715 50.4459C53.1157 48.7292 56.0029 43.0704 60.9917 39.9762C66.3415 36.6487 74.621 39.7006 80.0981 41.1842C81.8601 41.6717 83.6222 42.2015 85.3842 42.689C85.4054 42.7525 85.4479 42.8161 85.554 42.8373C85.9574 42.9221 86.3395 42.9857 86.7429 43.0493C87.1887 43.1552 87.6557 43.2612 88.1016 43.3672C88.5049 43.4519 88.9083 43.5155 89.3116 43.5579C90.5854 43.3884 91.9441 43.3036 93.1541 43.4943C95.7016 43.6639 97.9095 44.3845 100.372 45.317C101.349 45.6773 102.283 46.1223 103.196 46.6098C103.578 46.737 103.875 46.8853 104.087 47.0337C104.83 47.4575 105.467 48.5172 104.363 48.9835C103.663 49.2802 102.877 49.153 102.155 48.8987C101.37 48.7504 100.542 48.496 99.8626 48.3053C97.8033 47.6907 95.8715 46.7158 93.7486 46.3343C92.4748 46.1223 91.9441 46.6098 91.8167 47.3516C88.7172 53.201 86.2758 59.2624 83.4523 65.2391C81.9663 68.3757 80.0981 71.3217 78.2087 74.2464C77.9115 74.7127 77.5931 75.1366 77.2746 75.5816C76.2344 77.2983 74.9394 78.8031 73.517 80.2442C72.0734 82.0245 70.3751 83.6352 68.698 85.0128C66.0019 87.217 63.051 89.2092 61.1616 92.2187C60.5459 93.1936 60.0152 94.2957 59.718 95.3978C59.3783 95.0587 58.8688 94.9103 58.1683 95.0163C55.2174 95.4613 52.4151 96.4362 49.5704 97.3052C46.0888 98.3649 42.6284 99.5093 39.1044 100.463C37.5334 100.887 35.9624 101.332 34.3702 101.671C32.7143 102.031 27.8316 102.943 29.4026 99.7637C30.3791 97.7503 32.0987 95.9488 33.2451 93.999C34.7524 91.3921 35.4741 88.5734 35.2406 85.5851C34.7736 79.672 30.549 74.2252 27.8528 69.1599C25.9422 65.557 23.0762 59.1777 24.0528 54.5362C25.1567 55.1509 27.3858 55.0661 28.2562 55.0237C32.4171 54.7906 36.4507 53.7945 40.4206 52.65Z" fill="#ED4D47"/>
<path d="M43.2441 47.4363C42.8832 47.9873 42.4586 48.496 42.034 49.0046C41.758 49.3225 41.4184 49.6404 41.0999 49.9583C40.6117 50.5094 39.5714 51.5479 39.5714 52.332C38.0641 52.7347 36.5356 53.095 35.0071 53.4129C32.6719 53.9004 30.273 54.1547 27.8953 54.2395C27.2584 54.2607 26.6003 54.2607 25.9634 54.2183C24.6897 54.1335 24.4137 53.5825 24.6048 52.9043C24.9232 52.2049 25.369 51.5902 25.9634 51.0392C26.3668 50.3822 26.9825 49.8524 27.5981 49.4285C28.5747 48.7503 29.5937 48.3476 30.6764 48.1781C33.6272 47.076 36.9178 46.6309 39.8899 45.8679C41.4396 45.4653 43.4988 45.1474 45.091 44.3208C44.7301 45.4653 44.0296 46.4826 43.2441 47.4363Z" fill="#ED4D47"/>
<path d="M1.67713 60.3433C2.75983 59.2836 4.628 58.7114 6.00791 58.0544C12.5253 54.9177 17.1108 49.6828 20.6561 43.5579C20.6773 43.5579 20.6986 43.5579 20.7198 43.5791C20.8684 43.3035 21.017 43.0492 21.1868 42.7949C21.1656 42.7949 21.1444 42.7949 21.1232 42.7737C22.2059 40.9086 23.3735 39.2343 25.1143 37.8991C25.8148 37.3481 26.4729 36.8606 27.1735 36.5427C27.5981 36.2036 28.0651 35.9493 28.5959 35.8857C30.4428 35.6314 32.2049 36.7971 33.8183 37.5177C35.9624 38.4714 38.1491 39.2131 40.3994 39.8702C41.3759 40.1669 42.4374 40.4424 43.2653 41.057C43.8173 41.2266 44.3268 41.4809 44.7938 41.7988C44.9849 41.9259 45.1972 42.1379 45.367 42.371C45.8765 42.9856 45.5156 43.7062 44.6664 43.9605C44.6028 43.9817 44.5603 43.9605 44.5178 43.9605C43.796 44.2996 42.9893 44.4268 42.1826 44.4904C38.4675 45.5289 34.7099 46.2707 30.9948 47.3303C28.9992 47.9026 26.9824 49.047 25.4115 50.5518C24.8595 51.2936 24.3712 52.0777 23.9679 52.9255C23.7768 53.4977 23.5221 54.0699 23.5008 54.6846C23.5008 54.7693 23.4584 54.8117 23.4159 54.8329C23.1187 56.3589 23.1187 57.9908 23.3098 59.5167C24.159 65.8537 28.1925 71.5548 31.1858 77.0439C32.6082 79.6296 33.8183 82.3212 34.349 85.2459C35.1133 89.3575 33.2239 93.024 31.0372 96.3726C31.0372 96.3514 31.016 96.3302 31.016 96.309C30.9736 96.1819 30.7613 96.3514 30.7613 96.4362C30.7613 96.5846 25.6662 94.3592 25.2204 94.1049C23.0338 92.918 20.9321 91.4981 18.9365 90.0145C15.7097 87.6196 12.8862 84.7161 10.4236 81.5582C7.70625 78.0612 5.62578 74.098 3.86375 70.05C3.05704 68.2062 2.25032 66.3623 1.5073 64.4973C0.976566 63.1197 0.445834 61.5513 1.67713 60.3433Z" fill="#ED4D47"/>
<g opacity="0.6">
<path d="M86.1697 64.9631C86.4245 67.8454 87.3161 70.6642 88.696 73.1863C90.5429 76.5561 93.0904 79.5656 96.1899 81.8333C97.3363 81.0067 98.5039 80.2014 99.6928 79.4172C98.0793 78.3363 96.6357 77.0223 95.3832 75.4964C93.6636 73.4194 92.4536 71.1093 91.1798 68.7356C90.2033 66.8705 89.2904 64.8571 89.0144 62.7589C88.7809 60.9363 89.0569 58.8169 90.7977 57.7784C92.2625 56.9095 93.8547 57.2274 95.2771 58.0539C98.9497 60.1945 101.412 63.861 104.575 66.6162C106.231 68.0574 108.142 69.4986 110.159 70.6006C110.881 69.7105 111.539 68.7992 112.069 67.8031C112.345 67.2944 112.558 66.6798 112.855 66.1923C113.64 64.9631 112.664 65.7261 112.091 65.8956C109.819 66.5738 107.208 65.1538 105.467 63.8822C102.962 62.0807 100.712 59.7706 98.8436 57.3122C98.5888 56.9731 98.3765 56.634 98.1642 56.2949C97.9944 56.1041 97.8246 55.9134 97.6547 55.7226C96.1262 54.0059 94.3005 52.4376 92.8994 50.6361C92.5597 50.2123 92.1988 49.5129 91.9865 48.8135C90.9038 51.2084 89.4178 53.5397 88.3775 55.9134C87.7407 57.3545 87.1038 58.8169 86.4457 60.2581C86.1909 61.8052 86.0423 63.3736 86.1697 64.9631Z" fill="#FFA4A3" fill-opacity="0.6"/>
<path d="M30.273 57.4396C32.4384 56.9946 34.6462 56.3588 36.8753 56.4012C38.5312 56.4224 40.8027 58.0119 38.701 59.3683C36.2809 60.9366 33.0116 61.4029 30.2518 61.9751C28.6383 62.3142 27.0249 62.6109 25.4115 62.9288C25.3266 62.95 25.2416 62.95 25.1567 62.9712C25.4539 63.8613 25.7936 64.7091 26.1545 65.5357C27.5344 66.4046 29.6786 66.3834 31.1646 66.3622C33.2239 66.341 35.3043 66.1503 37.3211 65.7264C41.7156 64.7727 44.815 61.4877 47.4899 58.0755C50.3134 54.4513 52.9671 50.3821 56.9794 47.9449C61.0342 45.4652 65.641 45.4016 70.2477 45.995C72.9226 46.3341 75.5551 46.864 78.2087 47.415C80.3953 47.8601 82.9853 47.9872 84.9596 49.1105C88.144 50.912 87.6558 54.3878 87.0401 57.482C88.5686 54.0699 90.1183 50.6789 91.8804 47.3514C92.0078 46.6097 92.5385 46.1222 93.8122 46.3341C95.9352 46.6944 97.867 47.6905 99.9263 48.3052C100.606 48.5171 101.412 48.7714 102.219 48.8986C102.941 49.1529 103.726 49.2801 104.427 48.9834C105.531 48.5171 104.894 47.4574 104.151 47.0335C103.939 46.8852 103.641 46.7368 103.259 46.6097C102.346 46.1222 101.391 45.6983 100.436 45.3168C97.9732 44.3843 95.7653 43.6637 93.2178 43.4942C92.0078 43.3246 90.6491 43.3882 89.3753 43.5578C88.972 43.5154 88.5686 43.4518 88.1653 43.367C87.6982 43.2611 87.2524 43.1551 86.8066 43.0491C86.4032 42.9855 86.0211 42.922 85.6177 42.8372C85.5116 42.816 85.4691 42.7736 85.4479 42.6888C83.6859 42.2014 81.9238 41.6715 80.1618 41.1841C74.6847 39.7005 66.4052 36.6698 61.0555 39.976C56.0666 43.0915 53.1794 48.729 47.2352 50.4457C47.1078 50.4881 46.9804 50.5093 46.8318 50.5517C44.7514 51.3571 42.6284 52.0352 40.4843 52.6499C36.5144 53.7943 32.4808 54.7904 28.3411 54.96C27.4707 55.0024 25.2629 55.0871 24.1377 54.4725C23.9467 55.4051 23.9042 56.38 23.9679 57.4185C26.0271 57.7787 28.1288 57.8847 30.273 57.4396Z" fill="#FFA4A3" fill-opacity="0.6"/>
<path d="M30.4004 41.7775C31.5255 42.6464 32.3959 43.9604 30.7401 44.8082C29.0205 45.6983 26.8339 45.9527 24.9869 45.3804C23.4796 44.9142 22.1634 44.13 20.8684 43.3034C20.826 43.3882 20.7623 43.473 20.7198 43.5578C20.6986 43.5578 20.6774 43.5578 20.6561 43.5366C20.3802 44.024 20.083 44.4903 19.807 44.9566C22.1847 46.2918 24.3713 47.8389 25.8573 50.1066C27.3434 48.8138 29.1691 47.8177 30.9948 47.2879C34.6887 46.2282 38.4675 45.4864 42.1826 44.4479C43.0106 44.4055 43.7961 44.2784 44.5179 43.9181C44.5603 43.9393 44.6028 43.9393 44.6665 43.9181C45.5156 43.6637 45.8765 42.9431 45.367 42.3285C45.2184 42.0954 44.9849 41.9047 44.7938 41.7563C44.348 41.4172 43.8173 41.1841 43.2653 41.0145C42.4374 40.3999 41.3972 40.1032 40.3994 39.8277C38.1491 39.1707 35.9625 38.4077 33.8183 37.4752C32.1837 36.7546 30.4428 35.5889 28.5959 35.8433C28.0652 35.9068 27.5981 36.1824 27.1735 36.5003C26.4942 36.8394 25.8361 37.3268 25.1143 37.8567C24.902 38.0262 24.7109 38.1746 24.5199 38.3441C26.5154 39.425 28.6171 40.3999 30.4004 41.7775Z" fill="#FFA4A3" fill-opacity="0.6"/>
</g>
<path d="M76.6378 96.3935C74.345 95.4186 71.1394 94.041 70.7785 91.2222C70.5237 89.3783 71.3941 87.7252 72.2433 86.1569C73.0925 84.5886 74.069 82.8719 73.517 81.1128C73.2198 81.4731 72.9014 81.8334 72.583 82.1937C70.2053 84.8429 67.2756 86.9623 64.5583 89.2512C62.7113 90.7983 61.3102 92.8541 60.737 95.2278C60.461 96.4147 60.1214 97.4955 61.013 98.5552C61.4164 99.0427 61.7985 99.5089 62.2655 99.954C65.3225 102.879 68.5706 105.38 72.6042 106.757C75.7674 107.859 79.0154 108.707 82.1786 109.788C82.2423 109.64 82.3272 109.47 82.3909 109.322C82.9641 107.902 83.4736 106.439 83.9194 104.977C84.5138 102.964 84.8959 100.908 85.3842 98.8731C82.3697 98.4069 79.3976 97.5591 76.6378 96.3935Z" fill="#FFF5DA"/>
<path d="M81.1808 108.601C78.3785 107.69 75.4914 106.863 72.8802 105.443C70.3539 104.066 68.3583 102.222 66.5114 100.039C65.5985 98.9793 64.4946 97.7289 64.0488 96.3725C63.6242 95.0585 63.9214 93.6809 63.4544 92.3881C63.2421 91.7947 62.9448 91.4768 62.584 91.3496C61.7135 92.5153 61.0554 93.8081 60.7158 95.2493C60.4398 96.4361 60.1001 97.517 60.9918 98.5767C61.3951 99.0641 61.7772 99.5304 62.2443 99.9755C65.3013 102.9 68.5494 105.401 72.5829 106.779C75.7461 107.881 78.9942 108.728 82.1574 109.809C82.221 109.661 82.306 109.491 82.3696 109.343C82.4121 109.237 82.4333 109.152 82.4758 109.046C82.0512 108.898 81.6054 108.75 81.1808 108.601Z" fill="#FFF5DA"/>
<path d="M62.8599 87.3014C60.9068 87.1742 59.1024 86.3264 57.1917 85.9238C55.2598 85.5211 53.3917 85.6271 51.5447 86.2841C45.7279 88.3399 40.3357 94.6768 33.6909 93.1508C33.5635 93.4263 33.4149 93.6807 33.2663 93.935C32.1412 95.8848 30.4216 97.6863 29.4238 99.6997C27.8741 102.879 32.7568 101.967 34.3915 101.607C35.9837 101.268 37.5334 100.802 39.1256 100.399C42.6497 99.4666 46.11 98.3221 49.5916 97.2412C52.4364 96.3723 55.2386 95.3974 58.1895 94.9523C58.8901 94.8463 59.3996 94.9947 59.7392 95.3338C60.0152 94.2317 60.5672 93.1296 61.1828 92.1547C62.8812 89.4419 65.4499 87.5345 67.9337 85.5635C66.4689 86.6656 64.8343 87.4285 62.8599 87.3014Z" fill="#FFF5DA"/>
<path d="M60.6097 91.8792C59.8454 92.3454 59.0811 92.8753 58.2532 93.172C56.9794 93.617 55.5359 93.6382 54.2196 93.829C52.5638 94.0833 50.9291 94.3376 49.3157 94.7403C46.7045 95.3761 44.3056 96.4146 41.843 97.4531C38.2977 98.9367 33.4362 101.077 29.5937 99.4453C29.5512 99.5301 29.5087 99.6149 29.4663 99.6996C27.9165 102.879 32.7993 101.967 34.4339 101.607C36.0261 101.268 37.5759 100.802 39.1681 100.399C42.6921 99.4665 46.1525 98.3221 49.6341 97.2412C52.4788 96.3722 55.2811 95.3973 58.232 94.9523C58.9325 94.8463 59.442 94.9946 59.7817 95.3337C60.0577 94.2317 60.6097 93.1296 61.2253 92.1547C61.3951 91.8792 61.5862 91.6036 61.7985 91.3281C61.3951 91.4341 61.013 91.6248 60.6097 91.8792Z" fill="#FFF5DA"/>
<path opacity="0.3" d="M72.1372 81.791C71.0969 82.7447 70.0779 83.7832 68.974 84.7369C70.0779 83.8468 71.1394 82.8719 72.1372 81.791Z" fill="#FFA4A3" fill-opacity="0.6"/>
<path d="M1.5073 64.476C2.25032 66.3411 3.05704 68.1849 3.86375 70.0288C5.64701 74.0768 7.70625 78.04 10.4236 81.537C12.8862 84.6949 15.7097 87.5984 18.9365 89.9933C20.9321 91.4768 23.0338 92.8968 25.2204 94.0837C25.6662 94.3168 30.7613 96.5633 30.7613 96.415C30.7613 96.3302 30.9736 96.1607 31.016 96.2878C31.016 96.309 31.0372 96.3302 31.0372 96.3514C31.7378 95.2493 32.4171 94.1261 32.9903 92.9604C32.9266 92.918 32.8842 92.8332 32.9054 92.7485C33.0328 92.0067 33.2239 91.2861 33.4149 90.5655C34.1792 87.8527 34.9222 85.1823 33.2026 82.6391C31.5467 80.1806 28.8931 79.1845 26.1545 78.4639C23.7556 77.8281 21.1444 77.3618 19.0215 76.0266C16.941 74.7338 15.0728 72.9323 13.5018 71.0673C10.742 67.7823 9.00124 63.8614 8.55542 59.6015C8.44928 58.669 8.40682 57.7152 8.38559 56.7827C7.62133 57.249 6.81462 57.6729 5.98668 58.0755C4.628 58.7325 2.7386 59.2836 1.6559 60.3645C0.445835 61.5513 0.976567 63.1196 1.5073 64.476Z" fill="#FFF5DA"/>
<path d="M23.5645 90.7348C19.8494 88.0008 16.0281 85.4576 12.9499 81.9818C10.1689 78.824 7.64257 75.4542 4.90399 72.2539C6.45373 75.5177 8.23699 78.6756 10.4448 81.5156C12.9074 84.6734 15.7309 87.577 18.9578 89.9719C20.9533 91.4554 23.055 92.8754 25.2417 94.0622C25.6875 94.2954 30.7825 96.5419 30.7825 96.3936C30.7825 96.3088 30.9948 96.1392 31.0372 96.2664C31.0372 96.2876 31.0585 96.3088 31.0585 96.33C31.3345 95.8849 31.6317 95.4398 31.8864 94.9948C28.8294 94.3802 26.0271 92.5575 23.5645 90.7348Z" fill="#FFF5DA"/>
<path opacity="0.3" d="M79.249 90.1839C79.44 90.3535 79.6948 90.5654 79.9495 90.7138V90.7349C80.0981 91.0105 80.5227 91.18 80.7987 91.2648C81.5417 91.5191 82.4546 90.9681 82.6881 90.2475C83.1339 88.8063 81.754 87.6619 80.5015 87.3016C79.6523 87.0684 78.6546 87.6407 78.5909 88.5732C78.5696 89.1242 78.8456 89.8236 79.249 90.1839Z" fill="#FFA4A3" fill-opacity="0.6"/>
<path opacity="0.3" d="M78.8457 81.9185C78.9093 82.1516 79.0155 82.3848 79.1641 82.5331C79.3764 82.7239 79.6948 82.851 79.9708 82.9146C80.7138 83.0842 81.3719 82.7875 81.6055 82.0245C81.7965 81.3887 81.3295 80.6893 80.9049 80.2442C80.4379 79.7568 79.6948 78.9302 78.9518 79.4177C77.9965 80.0535 78.23 81.1344 78.8457 81.9185Z" fill="#FFA4A3" fill-opacity="0.6"/>
<path opacity="0.3" d="M53.6889 60.3859C54.3046 61.0853 55.642 60.1316 56.1303 59.7289C56.2152 59.6653 56.2789 59.5805 56.3638 59.4958C55.9392 59.9832 56.3213 59.5593 56.4699 59.4534C56.7247 59.2626 56.9582 59.0083 57.1705 58.7752C57.2767 58.6692 57.3616 58.542 57.4465 58.3937C58.0409 57.8638 58.5292 57.2068 58.508 56.4862C58.4867 56.2107 58.3169 56.1259 58.0409 56.1471C56.8308 56.2531 55.7694 57.0161 54.8141 57.7367C54.1135 58.2453 52.8822 59.4746 53.6889 60.3859Z" fill="#FFA4A3" fill-opacity="0.6"/>
<path opacity="0.3" d="M34.7736 70.6225C34.7736 70.6437 34.7736 70.6437 34.7948 70.6437C34.7736 70.7073 34.7736 70.7921 34.8161 70.8345C34.901 70.8981 34.9859 70.9192 35.0708 70.9404C35.2194 71.004 35.368 71.004 35.5379 70.9828C35.6865 70.9616 35.8351 70.898 35.9625 70.8557H35.9837C36.1535 70.8345 36.3021 70.7497 36.4295 70.6649C36.7692 70.4742 37.3636 69.7112 36.8329 69.4145C36.7055 69.3509 36.5569 69.3297 36.4083 69.3721C36.3446 69.3509 36.2809 69.3297 36.1748 69.3085C35.8351 69.2661 35.4954 69.4145 35.2194 69.6264C34.9647 69.8596 34.6675 70.2622 34.7736 70.6225Z" fill="#FFA4A3" fill-opacity="0.6"/>
<path opacity="0.3" d="M68.9952 62.611C69.4198 62.8441 69.9081 63.0137 70.3964 63.1408C70.7997 63.3527 71.3305 63.3739 71.8824 63.268C72.6467 63.2044 73.3685 62.9501 73.9417 62.4202C74.2176 62.1659 74.5785 61.6784 74.3026 61.297C74.2389 61.2122 74.154 61.1486 74.0903 61.085C74.0054 60.9155 73.878 60.7459 73.6869 60.6188C72.6467 59.9618 71.564 60.0041 70.3752 60.0677C68.8679 60.1313 67.1058 61.6149 68.9952 62.611Z" fill="#FFA4A3" fill-opacity="0.6"/>
<path opacity="0.6" d="M94.3642 70.6008C94.7676 70.8552 95.2346 71.0459 95.7229 71.1731C96.105 71.4062 96.6357 71.4062 97.1665 71.2578C97.9095 71.1519 98.6101 70.834 99.1833 70.177C99.4592 69.859 99.8414 69.2656 99.5866 68.8206C99.5229 68.7146 99.4592 68.651 99.3743 68.5662C99.3106 68.3543 99.1833 68.1635 99.0134 68.0364C98.0156 67.2734 96.9754 67.3794 95.8078 67.5065C94.343 67.6337 92.5597 69.4988 94.3642 70.6008Z" fill="#FFA4A3" fill-opacity="0.6"/>
<path opacity="0.6" d="M48.8911 84.4194C49.1246 84.5678 49.3794 84.6737 49.6553 84.7373C49.8676 84.8645 50.1648 84.8645 50.4833 84.8009C50.9079 84.7373 51.3112 84.5466 51.6509 84.1863C51.8207 83.9956 52.033 83.6565 51.8844 83.4021C51.842 83.3385 51.8207 83.2962 51.757 83.2538C51.7146 83.1266 51.6509 83.0206 51.5447 82.9571C50.9716 82.5332 50.3771 82.5756 49.719 82.6392C48.8911 82.7239 47.8721 83.7836 48.8911 84.4194Z" fill="#FFA4A3" fill-opacity="0.6"/>
<path opacity="0.3" d="M56.4275 74.6703C56.4699 74.8187 56.5549 74.9247 56.6398 74.9882C56.661 75.073 56.7247 75.1366 56.8521 75.1154C57.128 75.073 57.3828 75.1154 57.6375 75.0094C58.0197 74.8823 58.4867 74.5008 58.4018 74.0557C58.3381 73.759 58.0197 73.653 57.7649 73.6319C57.3191 73.5895 56.937 73.8014 56.6185 74.1193C56.4912 74.2465 56.385 74.4796 56.4275 74.6703Z" fill="#FFA4A3" fill-opacity="0.6"/>
<path opacity="0.3" d="M16.8774 68.6304C17.217 68.9271 17.6204 69.139 18.045 69.245C18.1511 69.3086 18.2573 69.3722 18.4059 69.4145C19.0215 69.6477 19.7009 69.2026 20.0405 68.7152C20.7411 67.6343 19.7858 66.8925 18.8729 66.4474C17.8964 65.96 16.6014 65.7904 16.1556 67.0832C15.9433 67.6131 16.5165 68.3125 16.8774 68.6304Z" fill="#FFA4A3" fill-opacity="0.6"/>
<path opacity="0.3" d="M17.5142 51.8869C17.4717 51.9717 17.4505 52.0565 17.4717 52.1201C17.6203 52.5651 18.0025 53.1586 18.4695 53.5824C18.512 53.6248 18.5332 53.646 18.5757 53.6672C19.1064 54.1123 19.7645 54.3242 20.3377 53.9215C20.9958 53.4765 21.1656 52.9042 20.9746 52.1625C20.9109 51.8869 20.826 51.4631 20.6561 51.2299C20.3802 50.8485 20.0405 50.5941 19.6371 50.3822C18.9366 50.0219 18.1511 49.8312 17.6203 50.5941C17.3868 50.9968 17.4081 51.4419 17.5142 51.8869Z" fill="#FFA4A3" fill-opacity="0.6"/>
<path opacity="0.3" d="M25.4752 77.2347C25.4115 77.4466 25.6025 77.595 25.8148 77.5526C25.8785 77.5314 25.9422 77.5102 26.0059 77.489C26.2394 77.4678 26.4517 77.2771 26.5791 77.0651C26.664 76.9168 26.6852 76.726 26.5154 76.6413C26.3456 76.5565 26.1757 76.5565 26.0271 76.6201C25.9847 76.5777 25.9422 76.5353 25.921 76.5141C25.8148 76.3657 25.5176 76.5777 25.4327 76.7048C25.3478 76.8744 25.369 77.0651 25.4752 77.2347Z" fill="#FFA4A3" fill-opacity="0.6"/>
<path opacity="0.3" d="M20.9109 82.088C21.8025 82.9357 22.9489 83.8047 24.2227 83.9319C25.2205 84.0378 26.0909 83.0841 25.9847 82.1304C25.9423 81.7277 25.6238 81.3462 25.2205 81.0283C24.626 80.2865 23.7132 79.7355 22.9065 79.4176C21.845 78.9725 20.3589 77.8492 19.4885 79.2268C18.788 80.3077 20.2103 81.3886 20.9109 82.088Z" fill="#FFA4A3" fill-opacity="0.6"/>
<path opacity="0.3" d="M44.2631 93.7449C44.3268 93.9781 44.4754 94.084 44.6664 94.1476C44.6877 94.19 44.7514 94.2112 44.8363 94.2112C45.3033 94.19 45.7916 94.2112 46.195 93.9781C46.4922 93.8085 46.7681 93.5542 46.938 93.2575C47.3626 92.5581 46.7257 92.0282 46.0463 92.0494C45.6005 92.0494 45.1547 92.219 44.8363 92.4945C44.4754 92.77 44.1357 93.2787 44.2631 93.7449Z" fill="#FFA4A3" fill-opacity="0.6"/>
<path opacity="0.3" d="M56.7247 88.637C56.7247 88.8489 56.8946 88.9337 57.0644 88.9973C57.3616 89.1456 57.7225 89.1456 58.0409 89.2516C58.3594 89.3364 58.6778 89.1456 58.8689 88.9125C59.0175 88.7218 59.1873 88.3615 58.8901 88.2131C58.784 88.1707 58.6991 88.1284 58.5929 88.1072C58.4868 88.0436 58.3806 87.98 58.2745 87.9164C57.8074 87.7045 57.2555 87.7257 56.9158 88.1707C56.8096 88.3191 56.7247 88.4675 56.7247 88.637Z" fill="#FFA4A3" fill-opacity="0.6"/>
<path opacity="0.3" d="M68.2735 92.4938C68.2522 92.5998 68.3159 92.7481 68.3796 92.8753C68.4008 92.9812 68.4221 93.0872 68.4857 93.1932C68.5494 93.4051 68.6131 93.6171 68.6768 93.829C68.8891 94.4012 69.5047 95.694 70.2902 95.5669C72.2858 95.2278 70.736 91.9851 69.4835 91.6248C69.1863 91.5401 68.8679 91.6884 68.6768 91.9004C68.4221 92.0487 68.3159 92.2183 68.2735 92.4938Z" fill="#FFA4A3" fill-opacity="0.6"/>
<path opacity="0.6" d="M60.9918 98.5551C61.3951 99.0426 61.7773 99.5089 62.2443 99.9539C65.3013 102.879 68.5494 105.38 72.583 106.757C74.5148 107.435 76.4892 108.008 78.4423 108.601C76.7439 107.711 74.8333 107.075 73.1986 106.27C70.7148 105.04 67.7215 102.794 68.0399 99.6572C68.2734 97.3683 69.8019 95.4397 71.3092 93.7866C73.3472 91.5612 75.5763 89.5266 77.8479 87.5556C82.8155 83.2321 87.7195 78.951 91.6044 73.5889C92.7296 72.0418 93.6637 70.4311 94.6827 68.8204C95.2346 67.9514 95.6592 66.9977 96.2536 66.1499C97.5911 64.2425 99.1833 63.8186 101.37 64.4968C102.58 64.8783 103.726 65.4294 104.915 65.832C106.019 66.1923 107.208 66.2983 108.376 66.2983C109.246 66.2983 110.138 66.2347 111.008 66.0652C109.034 66.1287 106.932 64.9419 105.467 63.8822C102.962 62.0807 100.712 59.7706 98.8436 57.3122C98.5889 56.9731 98.3766 56.634 98.1643 56.2949C97.9944 56.1041 97.8246 55.9134 97.6548 55.7226C96.1263 54.0059 94.3005 52.4376 92.8994 50.6361C92.5597 50.2123 92.1988 49.5129 91.9866 48.8135C90.9039 51.2084 89.4178 53.5397 88.3776 55.9134C86.8915 59.3044 85.4055 62.6954 83.6647 65.9592C81.9026 69.2866 79.9283 72.4869 77.8054 75.5811C76.9562 76.8316 76.0858 78.082 75.1093 79.2265C75.0456 79.29 74.8757 79.4808 74.5998 79.7351C73.9629 80.5829 73.2623 81.3882 72.5405 82.2148C70.1628 84.864 67.2332 86.9834 64.5159 89.2723C62.6689 90.8194 61.2678 92.8752 60.6946 95.2489C60.4398 96.4358 60.1002 97.5166 60.9918 98.5551Z" fill="#FFA4A3" fill-opacity="0.6"/>
<path opacity="0.6" d="M87.9106 48.9834C87.0614 51.9081 85.9575 54.8116 84.7474 57.6092C82.3485 63.2679 79.3127 68.6299 75.5551 73.5045C73.602 76.0477 71.5216 78.4426 69.1863 80.6256C66.8723 82.7873 64.4522 84.8219 62.3505 87.1744C61.2254 88.4461 60.2488 89.7813 59.3996 91.2648C58.7415 92.4093 58.0834 93.6385 57.1493 94.6134C56.9158 94.8678 56.6611 95.1009 56.4063 95.3128C57.0007 95.1857 57.6164 95.0585 58.2108 94.9737C58.9114 94.8678 59.4209 95.0161 59.7605 95.3552C60.0365 94.2531 60.5885 93.1511 61.2041 92.1762C63.0723 89.1667 66.0232 87.1744 68.7405 84.9703C70.4389 83.5927 72.116 81.982 73.5596 80.2017C74.9607 78.7605 76.2769 77.2558 77.3172 75.5391C77.6356 75.094 77.954 74.649 78.2512 74.2039C80.1407 71.3003 82.0088 68.3544 83.4949 65.1966C86.3396 59.2199 88.7597 53.1585 91.8592 47.3091C91.9866 46.5673 92.5173 46.0798 93.7911 46.2918C95.914 46.652 97.8459 47.6481 99.9051 48.2628C100.584 48.4747 101.391 48.729 102.198 48.8562C102.92 49.1105 103.705 49.2377 104.406 48.941C105.51 48.4747 104.873 47.415 104.13 46.9911C103.917 46.8428 103.62 46.6944 103.238 46.5673C102.325 46.0798 101.37 45.6559 100.415 45.2745C97.952 44.3419 95.7442 43.6213 93.1967 43.4518C91.9866 43.2822 90.6279 43.3458 89.3542 43.5154C89.0357 43.473 88.7385 43.4306 88.4413 43.3882C88.6324 45.2533 88.4413 47.1183 87.9106 48.9834Z" fill="#FFA4A3" fill-opacity="0.6"/>
<path opacity="0.6" d="M27.8741 69.0961C30.5703 74.1614 34.7949 79.6082 35.2619 85.5213C35.4955 88.5308 34.7737 91.3495 33.2664 93.9352C32.1412 95.885 30.4216 97.6865 29.4239 99.6999C27.8741 102.879 32.7569 101.968 34.3915 101.607C35.9837 101.268 37.5335 100.802 39.1257 100.399C42.3313 99.5515 45.4944 98.513 48.6576 97.5381C48.6151 97.5381 48.5515 97.5381 48.509 97.5381C46.6196 97.6653 44.7514 98.0256 42.9045 98.4494C41.9492 98.6826 39.5078 99.6575 38.8497 98.3859C38.4039 97.4957 38.8072 96.3513 39.062 95.4823C39.4653 94.0835 39.9536 92.7059 40.4631 91.3495C41.6944 87.9585 42.5223 84.5887 42.5011 80.9646C42.4799 77.6796 42.0765 74.2038 41.0151 71.0883C40.4631 69.52 39.7625 68.0153 38.8072 66.6377C38.1067 65.6416 37.1938 64.8574 36.4083 63.9461C35.1346 62.4837 34.4552 60.7458 35.5379 58.9655C37.6396 55.4898 42.0978 54.4089 45.3458 52.3531C46.471 51.6325 47.5749 50.8271 48.6152 49.937C48.1481 50.1278 47.6811 50.3185 47.1716 50.4669C47.0442 50.5092 46.9168 50.5304 46.7682 50.5728C44.6877 51.3782 42.5648 52.0564 40.4206 52.671C36.4508 53.8155 32.4172 54.8116 28.2775 54.9811C27.4071 55.0235 25.1992 55.1083 24.0741 54.4937C23.0975 59.1139 25.9635 65.4932 27.8741 69.0961Z" fill="#FFA4A3" fill-opacity="0.6"/>
<path opacity="0.6" d="M1.5073 64.4758C2.25032 66.3408 3.05704 68.1847 3.86375 70.0285C5.43472 73.5891 7.21798 77.0648 9.46828 80.2227C8.06715 76.5562 6.41126 72.9745 5.68947 69.096C5.32857 67.125 4.9889 64.5606 6.51741 62.971C7.68502 61.7418 9.21353 61.4027 10.827 61.0848C13.056 60.6609 14.8393 59.8767 15.6885 57.5878C16.7712 54.6843 18.3421 51.9927 20.1891 49.4918C22.0785 46.9698 24.1165 44.4265 26.3243 42.1588C27.8104 40.6328 29.5724 39.34 31.6741 38.8102C33.1177 38.4499 34.625 38.3651 36.1535 38.4499C35.368 38.1532 34.5825 37.8353 33.8183 37.4962C32.1836 36.7756 30.4428 35.6099 28.5959 35.8643C28.0651 35.9278 27.5981 36.2034 27.1735 36.5213C26.4942 36.8604 25.8361 37.3478 25.1143 37.8777C23.3735 39.2341 22.2059 40.8872 21.1232 42.7522C21.1444 42.7522 21.1656 42.7522 21.1868 42.7734C21.017 43.0277 20.8684 43.3032 20.7198 43.5576C20.6986 43.5576 20.6773 43.5576 20.6561 43.5364C17.0896 49.6614 12.5041 54.8962 6.00791 58.0329C4.64923 58.6899 2.75983 59.2409 1.67713 60.3218C0.445834 61.551 0.976566 63.1194 1.5073 64.4758Z" fill="#FFA4A3" fill-opacity="0.6"/>
<path opacity="0.6" d="M31.1859 77.0231C29.6786 74.2679 27.9166 71.4491 26.4093 68.5244C26.3456 70.008 25.7087 71.3008 25.369 72.7208C24.9232 74.5222 24.6685 76.3661 24.6473 78.2311C24.626 79.969 24.7322 81.7069 24.8808 83.4448C24.9869 84.6528 25.2417 85.8397 25.3266 87.0689C25.454 89.0187 25.2841 91.4348 23.4372 92.6005C23.3098 92.6853 23.1824 92.7488 23.0551 92.8124C23.7768 93.2575 24.4986 93.7026 25.2417 94.1052C25.6875 94.3384 30.7825 96.5849 30.7825 96.4365C30.7825 96.3518 30.9948 96.1822 31.0373 96.3094C31.0373 96.3306 31.0585 96.3518 31.0585 96.373C33.2239 93.0244 35.1345 89.379 34.3703 85.2463C33.8183 82.3003 32.587 79.6087 31.1859 77.0231Z" fill="#FFA4A3" fill-opacity="0.6"/>
<path opacity="0.9" d="M101.434 52.3534C100.33 53.4343 99.1196 54.388 98.1006 55.5749C97.8883 55.3206 97.6548 55.0662 97.4425 54.7907C96.657 53.837 95.8715 52.9045 95.171 51.9084C94.6615 51.2937 94.1307 50.6579 93.6212 50.0433C92.8994 49.1956 91.6044 46.7159 93.9821 47.1186C95.3196 47.3305 96.6358 47.9451 97.9095 48.4114C99.7353 49.0684 102.516 50.2129 104.448 49.5347C104.469 49.5347 104.469 49.5347 104.491 49.5135C103.535 50.5096 102.368 51.4421 101.434 52.3534Z" fill="#FFA4A3" fill-opacity="0.6"/>
<path opacity="0.9" d="M43.2441 47.4363C42.8832 47.9873 42.4586 48.496 42.034 49.0046C41.758 49.3225 41.4184 49.6404 41.0999 49.9583C40.6117 50.5094 39.5714 51.5479 39.5714 52.332C38.0641 52.7347 36.5356 53.095 35.0071 53.4129C32.6719 53.9004 30.273 54.1547 27.8953 54.2395C27.2584 54.2607 26.6003 54.2607 25.9634 54.2183C24.6897 54.1335 24.4137 53.5825 24.6048 52.9043C24.9232 52.2049 25.369 51.5902 25.9634 51.0392C26.3668 50.3822 26.9825 49.8524 27.5981 49.4285C28.5747 48.7503 29.5937 48.3476 30.6764 48.1781C33.6272 47.076 36.9178 46.6309 39.8899 45.8679C41.4396 45.4653 43.4988 45.1474 45.091 44.3208C44.7301 45.4653 44.0296 46.4826 43.2441 47.4363Z" fill="#FFA4A3" fill-opacity="0.6"/>
<path opacity="0.3" d="M34.3703 88.8701C34.1792 89.6755 33.9457 90.4597 33.7334 91.265C34.0094 90.4808 34.2217 89.6967 34.3703 88.8701Z" fill="#FFA4A3" fill-opacity="0.6"/>
<path opacity="0.6" d="M38.8496 74.6916C39.0619 74.8187 39.2954 74.9247 39.5502 74.9883C39.7413 75.1154 40.0172 75.1154 40.3145 75.0307C40.6966 74.9883 41.0787 74.7975 41.3759 74.4584C41.5245 74.2889 41.7156 73.971 41.5882 73.7378C41.567 73.6955 41.5245 73.6531 41.4821 73.6107C41.4396 73.5047 41.3759 73.3988 41.291 73.3352C40.7603 72.9325 40.2295 72.9961 39.6139 73.0597C38.8284 73.1232 37.8943 74.1193 38.8496 74.6916Z" fill="#FFA4A3" fill-opacity="0.6"/>
<path opacity="0.6" d="M63.1784 68.1213C63.3907 68.2484 63.6242 68.3544 63.879 68.418C64.07 68.5451 64.346 68.5451 64.622 68.4604C65.0041 68.418 65.3863 68.2272 65.6835 67.8881C65.8321 67.7186 66.0231 67.4007 65.8958 67.1675C65.8745 67.1251 65.8321 67.0828 65.7896 67.0404C65.7471 66.9344 65.6835 66.8284 65.5985 66.7649C65.0678 66.3622 64.5371 66.4258 63.9214 66.4893C63.1572 66.5529 62.2231 67.5278 63.1784 68.1213Z" fill="#FFA4A3" fill-opacity="0.6"/>
<path opacity="0.6" d="M67.6366 42.6462C67.8489 42.7733 68.1036 42.8793 68.3371 42.9429C68.5282 43.07 68.8042 43.07 69.1014 42.9853C69.4835 42.9429 69.8656 42.7521 70.1628 42.413C70.3114 42.2435 70.5025 41.9256 70.3751 41.6924C70.3539 41.6501 70.3114 41.6077 70.269 41.5653C70.2265 41.4593 70.1628 41.3533 70.0779 41.2898C69.5472 40.8871 69.0165 40.9507 68.4008 41.0142C67.6153 41.0778 66.6812 42.0527 67.6366 42.6462Z" fill="#FFA4A3" fill-opacity="0.6"/>
<path opacity="0.6" d="M79.6311 56.2948C79.8009 56.4008 79.992 56.4856 80.183 56.528C80.3317 56.6339 80.5652 56.6339 80.7775 56.5704C81.0747 56.528 81.3719 56.4008 81.6054 56.1253C81.7116 55.9981 81.8814 55.7438 81.7752 55.5531C81.754 55.5107 81.7116 55.4895 81.6903 55.4471C81.6691 55.3623 81.6054 55.2775 81.5417 55.2352C81.1384 54.9173 80.6925 54.9596 80.2255 55.0232C79.6311 55.0656 78.8881 55.8498 79.6311 56.2948Z" fill="#FFA4A3" fill-opacity="0.6"/>
<path opacity="0.3" d="M14.7969 59.0929C14.8181 59.1565 14.8181 59.2413 14.8393 59.3261C14.8181 59.3897 14.7969 59.4532 14.7969 59.5168C14.7969 59.7076 14.8605 59.8347 14.9879 59.9195C15.0941 60.2374 15.2639 60.5129 15.5611 60.6189C15.8371 60.7249 16.1131 60.5129 16.2829 60.3222C16.5377 60.0467 16.6013 59.6652 16.4315 59.3261C16.3678 59.1989 16.2829 59.0717 16.1555 58.9446C16.0706 58.8598 15.9645 58.775 15.8371 58.7326C15.7309 58.6903 15.6036 58.6903 15.4762 58.7326C15.4762 58.7115 15.455 58.6903 15.455 58.6903C15.3276 58.3088 14.7544 58.7962 14.7969 59.0929Z" fill="#FFA4A3" fill-opacity="0.6"/>
<path d="M137.799 66.2348C135.294 62.5682 132.98 58.9229 129.923 55.6803C126.951 52.5224 123.406 49.9368 119.606 47.881C115.827 45.8464 111.199 43.7694 106.826 43.8118C107.781 41.65 109.777 37.5597 105.382 38.7041C101.327 39.7638 97.5061 41.9044 93.791 43.8118C91.7318 44.8715 89.6513 45.9312 87.5921 46.9909C86.4245 47.5843 85.2569 48.2201 84.0256 48.6864C83.6647 48.8347 83.2825 49.0043 82.9216 49.1526L82.3272 49.3646C81.7328 49.4281 81.2233 49.3222 80.7987 49.0678C80.7562 47.9234 80.3529 46.8425 79.3763 46.0371C76.5316 43.6846 72.8377 41.7984 69.2075 41.099C65.641 40.4208 61.9683 40.4208 58.3593 40.0605C58.2532 40.0817 58.1471 40.1241 58.0621 40.1665C58.0409 40.1877 58.0409 40.2089 58.0197 40.2301C58.0197 40.2301 58.0197 40.2301 58.0409 40.2301C57.7862 40.8871 57.5526 41.5653 57.404 42.2647C56.8521 44.7867 56.6185 47.33 56.5124 49.8944C56.2789 55.214 54.9414 60.4913 51.7783 64.8572C48.8486 68.9052 44.624 71.9571 41.3759 75.7719C39.8686 77.5522 38.701 79.6292 37.7245 81.7274C37.2362 82.7871 36.2597 84.7581 36.5569 85.9237C36.5993 86.1145 36.7904 86.1357 36.9602 86.0297C38.701 84.864 40.6117 84.9064 42.4798 85.521C44.8787 86.0297 46.8955 87.4709 48.8911 88.9332C50.0375 89.7598 51.1414 90.6287 52.2453 91.5401C51.0352 92.4938 50.0375 93.935 49.1671 95.1642C48.4453 96.1815 47.2564 97.5379 46.8955 98.8307C45.6218 100.463 50.4833 101.777 51.6509 102.031C53.8163 102.497 56.0241 103.027 58.232 102.752C60.2912 102.497 62.308 102.243 64.3672 102.073C64.6857 102.073 65.0041 102.095 65.3226 102.116C68.3159 102.349 71.288 102.773 74.2813 102.985C78.9518 103.324 84.0892 103.684 88.144 100.929C90.0759 99.6361 91.3709 97.4531 92.6659 95.5881C94.2793 93.2568 96.0626 90.9466 98.4827 89.4843C99.438 88.6789 100.436 88.0007 101.603 87.4285C102.007 87.2377 102.792 86.7079 103.45 86.5383C104.045 86.2416 104.66 85.9449 105.276 85.6694C104.363 87.8947 102.092 90.2684 101.497 92.7481C101.37 93.172 101.243 93.829 101.285 94.3164L101.264 94.3376C101.455 95.2702 101.901 96.1391 102.771 96.3722C103.578 96.5842 104.3 96.8385 105.043 97.1352C107.866 97.7074 110.796 97.877 113.619 98.7035C115.381 99.2334 117.037 99.6996 118.82 99.1062C120.306 98.5976 121.665 96.7537 122.557 95.5881C123.279 94.6555 123.83 93.6382 124.319 92.5574C124.68 91.5401 125.019 90.5016 125.465 89.5267C125.486 89.4843 125.508 89.4631 125.55 89.4419C126.166 87.7464 126.76 86.0297 127.609 84.5037C130.072 80.0107 133.702 77.0224 137.714 73.9705C138.797 73.1439 139.689 72.2962 139.965 70.9398C140.262 69.3926 138.606 67.4428 137.799 66.2348Z" fill="#EA4834"/>
<path d="M51.4811 90.3107C49.4219 88.3821 47.023 86.6654 44.4755 85.4362C42.6922 84.5672 40.1022 83.6983 38.1704 84.6732C37.6608 84.9275 36.9178 85.7541 37.4273 84.5248C37.6396 84.0374 37.7245 83.4652 37.8944 82.9565C38.3402 81.5365 39.1257 80.1801 39.8899 78.9085C42.9257 73.822 47.9995 70.2827 51.8208 65.832C54.8778 62.2502 56.3214 57.4817 56.937 52.925C57.2979 50.2758 57.1918 47.6054 57.489 44.9562C57.6588 43.5574 57.8924 42.1798 58.1896 40.8022C58.232 40.6538 58.2533 40.5055 58.2957 40.3359C61.3315 40.8022 64.3885 41.0777 67.4243 41.5652C71.288 42.1798 74.621 43.9389 77.8267 46.0794C78.3149 46.3973 78.7183 46.7788 79.1853 47.1391C80.1619 47.9445 80.0345 48.983 79.9496 50.1062C79.8222 52.3316 78.8669 54.3874 77.4445 56.1041C75.3641 58.6049 73.0288 60.9786 71.3093 63.7338C70.7785 64.6028 70.2903 65.4505 69.8444 66.2982C69.6534 66.5738 69.5048 66.7645 69.4835 66.8281C68.7617 68.0149 68.1886 69.2866 67.6154 70.537C66.193 73.6737 64.9193 76.8739 63.8578 80.1378C62.8176 83.3592 61.9896 86.6654 61.2041 89.9504C60.6309 92.2606 59.6544 94.5919 59.06 96.9232C58.7628 96.3086 58.3382 95.7575 57.956 95.4184C56.4063 93.9985 54.5169 92.8752 52.861 91.5612C52.67 91.4128 52.5001 91.2645 52.3091 91.1161C52.0331 90.8406 51.7783 90.5651 51.4811 90.3107Z" fill="#ED4D47"/>
<path d="M49.9526 95.2073C50.7805 94.0417 51.7146 93.0032 52.4576 91.7739C52.6911 91.9647 52.9247 92.1766 53.1794 92.3673C54.0286 93.1091 54.899 93.8297 55.6845 94.6139C56.2576 95.1013 56.8096 95.5676 57.3828 96.0551C58.1683 96.7121 59.718 98.7467 57.5314 98.7679C56.3001 98.789 55.0051 98.4288 53.7738 98.2168C52.033 97.9201 49.3369 97.3055 47.681 98.238L47.6598 98.2592C48.3391 97.1995 49.252 96.1822 49.9526 95.2073Z" fill="#ED4D47"/>
<path d="M105 85.3306C103.153 86.2207 101.349 87.1744 99.6079 88.2129C99.5018 88.2553 99.3744 88.3189 99.2682 88.3613C94.152 90.8409 92.4536 96.3937 88.4413 99.9966C84.1317 103.854 76.192 102.392 71.012 101.925C69.3349 101.777 67.6578 101.544 66.0019 101.395C65.9807 101.332 65.917 101.289 65.8321 101.289C65.4712 101.289 65.0891 101.289 64.7282 101.289C64.3036 101.268 63.879 101.247 63.4544 101.226C63.0723 101.205 62.7114 101.226 62.3293 101.247C61.2041 101.607 59.994 101.883 58.8689 101.925C56.5337 102.18 54.432 101.862 52.0755 101.417C51.1414 101.226 50.2286 100.993 49.3157 100.696C48.9336 100.632 48.6576 100.548 48.4453 100.442C47.7023 100.187 46.9593 99.3184 47.8933 98.725C48.4665 98.3647 49.2096 98.3435 49.8889 98.4707C50.6319 98.4707 51.3962 98.5766 52.0543 98.6614C54.0074 98.8946 55.918 99.488 57.8923 99.4668C59.0812 99.4668 59.4845 98.9369 59.4845 98.2375C61.3527 92.4729 62.6052 86.6234 64.2187 80.7739C65.0678 77.7008 66.2779 74.7549 67.5304 71.8302C67.7215 71.3639 67.9338 70.9188 68.1673 70.4738C68.8254 68.7571 69.7807 67.1887 70.821 65.6628C71.84 63.8189 73.1137 62.1022 74.43 60.5975C76.5317 58.1814 78.8669 55.9137 80.0982 52.9042C80.5015 51.9293 80.82 50.8484 80.8837 49.8099C81.2446 50.0642 81.7328 50.1278 82.3485 49.9159C84.9385 49.0469 87.3161 47.7117 89.7575 46.4825C92.7296 44.9777 95.6805 43.3882 98.7163 41.9894C100.075 41.3536 101.412 40.6966 102.792 40.1456C104.236 39.5521 108.482 37.9626 107.59 41.0993C107.017 43.0703 105.743 44.9565 105.043 46.9064C104.087 49.492 103.875 52.1624 104.554 54.8328C105.913 60.0888 110.583 64.3488 113.81 68.5028C116.103 71.4699 119.712 76.7471 119.563 81.113C118.46 80.7315 116.464 81.1766 115.7 81.325C111.878 82.1303 108.397 83.6775 105 85.3306Z" fill="#ED4D47"/>
<path d="M103.281 90.4804C103.535 89.9293 103.811 89.3995 104.13 88.8696C104.342 88.5305 104.576 88.1914 104.809 87.8523C105.149 87.2801 105.934 86.178 105.807 85.4786C107.123 84.8852 108.439 84.313 109.755 83.7831C111.793 82.9778 113.895 82.3632 116.061 81.9181C116.634 81.7909 117.228 81.7062 117.801 81.6426C118.969 81.5154 119.287 81.9817 119.245 82.6175C119.054 83.2957 118.757 83.9315 118.332 84.5249C118.077 85.1819 117.589 85.7542 117.122 86.2416C116.337 87.0046 115.487 87.5344 114.532 87.8523C112.027 89.3147 109.14 90.226 106.571 91.3917C105.234 92.0063 103.429 92.5997 102.113 93.617C102.24 92.4938 102.707 91.4765 103.281 90.4804Z" fill="#ED4D47"/>
<path d="M138.776 72.2754C137.969 73.4199 136.356 74.204 135.231 75.0094C129.838 78.8667 126.527 84.3134 124.276 90.396C124.255 90.396 124.234 90.396 124.213 90.396C124.128 90.6504 124.022 90.9259 123.915 91.1802C123.937 91.1802 123.958 91.1802 123.979 91.1802C123.3 93.0453 122.493 94.7196 121.134 96.2031C120.582 96.8177 120.073 97.3476 119.5 97.7503C119.181 98.1106 118.799 98.4285 118.332 98.5768C116.697 99.1067 114.935 98.3225 113.343 97.9198C111.263 97.4112 109.161 97.0721 107.017 96.8177C106.083 96.7118 105.085 96.627 104.257 96.1819C103.726 96.0972 103.238 95.97 102.771 95.7369C102.58 95.6309 102.346 95.5037 102.177 95.313C101.625 94.8467 101.837 94.1261 102.559 93.7658C102.601 93.7447 102.644 93.7447 102.686 93.7447C103.281 93.3208 103.981 93.0876 104.724 92.8969C107.909 91.371 111.199 90.0993 114.383 88.5522C116.103 87.7256 117.738 86.3692 118.905 84.7797C119.287 84.0167 119.606 83.2326 119.839 82.406C119.924 81.855 120.052 81.3039 119.988 80.7529C119.988 80.6893 120.009 80.6257 120.052 80.6045C120.073 79.1634 119.818 77.701 119.394 76.3658C117.61 70.7707 113.067 66.2564 109.501 61.7845C107.824 59.6651 106.295 57.4398 105.34 54.8754C104.002 51.2724 105.128 47.6695 106.571 44.2997C106.571 44.3209 106.592 44.3421 106.592 44.3633C106.635 44.4693 106.805 44.2997 106.805 44.2149C106.783 44.0878 111.73 45.2958 112.176 45.4442C114.341 46.1859 116.464 47.1397 118.502 48.157C121.793 49.8101 124.807 51.9718 127.524 54.4515C130.539 57.1855 133.023 60.4281 135.273 63.7979C136.292 65.3239 137.311 66.871 138.288 68.4394C138.946 69.6474 139.668 71.0038 138.776 72.2754Z" fill="#ED4D47"/>
<g opacity="0.6">
<path d="M61.7349 81.4092C61.0555 78.8448 59.803 76.4499 58.1471 74.3729C55.9605 71.6177 53.1582 69.3076 50.0163 67.7393C49.1247 68.6718 48.1906 69.5619 47.2353 70.4732C48.8487 71.1938 50.3772 72.1687 51.7359 73.3344C53.6253 74.9451 55.0901 76.8314 56.5974 78.7812C57.765 80.3071 58.9114 81.9814 59.4846 83.8253C59.9728 85.436 60.0577 87.407 58.6566 88.6151C57.489 89.6324 55.9817 89.59 54.5806 89.0601C50.9292 87.7037 48.1269 84.779 44.8363 82.808C43.1168 81.7695 41.1637 80.7522 39.1681 80.0952C38.6586 81.0065 38.1916 81.9391 37.8944 82.914C37.7245 83.4226 37.6396 83.9948 37.4273 84.4823C36.9178 85.7115 37.6608 84.885 38.1704 84.6307C40.1022 83.6557 42.6922 84.5459 44.4755 85.3936C47.023 86.6229 49.4219 88.3396 51.4811 90.2682C51.7571 90.5225 52.0118 90.798 52.2666 91.0735C52.4577 91.2219 52.6275 91.3703 52.8186 91.5186C54.4744 92.8326 56.3638 93.9559 57.9136 95.3759C58.2745 95.715 58.7203 96.2872 59.0175 96.8806C59.6119 94.5493 60.5885 92.218 61.1617 89.9079C61.5013 88.5091 61.8622 87.0891 62.2231 85.6903C62.2019 84.2704 62.117 82.8292 61.7349 81.4092Z" fill="#FFA4A3" fill-opacity="0.6"/>
<path d="M113.407 79.4173C111.518 80.1591 109.628 81.0704 107.611 81.4095C106.104 81.6639 103.811 80.583 105.488 79.0146C107.42 77.2132 110.307 76.2806 112.706 75.3269C114.108 74.7759 115.509 74.2461 116.91 73.695C116.973 73.6738 117.058 73.6314 117.122 73.6102C116.697 72.8685 116.273 72.1479 115.827 71.4697C114.447 70.8974 112.515 71.2577 111.178 71.5121C109.331 71.8512 107.484 72.3598 105.722 73.0592C101.901 74.6063 99.6291 78.0609 97.761 81.5791C95.7866 85.288 94.0246 89.3996 90.7978 92.2183C87.5285 95.1007 83.3675 95.8848 79.1217 96.0756C76.6591 96.1816 74.1752 96.118 71.7126 96.0544C69.6746 95.9908 67.3182 96.2875 65.3651 95.5881C62.2019 94.4649 62.0958 91.2434 62.1594 88.3611C61.3103 91.6885 60.4611 94.9947 59.3996 98.2585C59.3996 98.9579 58.9963 99.4878 57.8074 99.4878C55.8331 99.4878 53.9225 98.8944 51.9694 98.6824C51.3325 98.6188 50.547 98.4917 49.804 98.4917C49.1034 98.3645 48.3816 98.3857 47.8084 98.746C46.8744 99.3394 47.6174 100.208 48.3604 100.463C48.5727 100.569 48.8699 100.653 49.2308 100.717C50.1437 101.014 51.0565 101.247 51.9906 101.438C54.3683 101.904 56.47 102.201 58.784 101.946C59.9091 101.925 61.1192 101.628 62.2444 101.268C62.6265 101.247 62.9874 101.226 63.3695 101.247C63.7941 101.268 64.2187 101.289 64.6433 101.31C65.0042 101.31 65.3863 101.31 65.7472 101.31C65.8533 101.31 65.8958 101.353 65.917 101.416C67.5941 101.565 69.25 101.777 70.9271 101.946C76.1071 102.434 84.0681 103.875 88.3564 100.018C92.3687 96.4147 94.0883 90.8619 99.1833 88.3823C99.2895 88.3187 99.4168 88.2763 99.523 88.2339C101.285 87.1742 103.09 86.2417 104.915 85.3516C108.312 83.6985 111.815 82.1513 115.509 81.3671C116.273 81.1976 118.268 80.7737 119.372 81.1552C119.394 80.2863 119.287 79.3961 119.054 78.4848C117.186 78.4424 115.275 78.6755 113.407 79.4173Z" fill="#FFA4A3" fill-opacity="0.6"/>
<path d="M115.742 93.5746C114.596 92.9812 113.598 91.9215 114.957 90.883C116.379 89.8021 118.29 89.2299 120.073 89.4631C121.517 89.6538 122.833 90.1412 124.128 90.6711C124.149 90.5863 124.191 90.5015 124.234 90.4168C124.255 90.4168 124.276 90.4168 124.298 90.4168C124.467 89.9505 124.658 89.4631 124.85 88.9968C122.493 88.1702 120.285 87.1105 118.566 85.3091C117.419 86.7079 115.933 87.8947 114.383 88.6577C111.22 90.2048 107.909 91.4765 104.724 93.0024C104.002 93.172 103.281 93.4263 102.686 93.8502C102.644 93.8502 102.601 93.8502 102.559 93.8713C101.837 94.2316 101.625 94.9522 102.177 95.4185C102.346 95.6092 102.58 95.7364 102.771 95.8424C103.238 96.0755 103.748 96.2027 104.257 96.2874C105.106 96.7113 106.083 96.8173 107.017 96.9232C109.14 97.1564 111.263 97.4955 113.343 98.0253C114.935 98.428 116.697 99.191 118.332 98.6823C118.799 98.534 119.181 98.2373 119.5 97.8558C120.073 97.4531 120.582 96.902 121.134 96.3086C121.304 96.1391 121.453 95.9483 121.58 95.7788C119.627 95.0794 117.568 94.5284 115.742 93.5746Z" fill="#FFA4A3" fill-opacity="0.6"/>
</g>
<path d="M65.3862 51.5268C67.6153 52.0355 70.7148 52.7772 71.5003 55.2569C72.0098 56.8888 71.5003 58.4995 70.9908 60.0467C70.46 61.615 69.8656 63.2893 70.6299 64.7941C70.8422 64.4126 71.0757 64.0523 71.3092 63.6708C73.0288 60.8944 75.364 58.5419 77.4445 56.0411C78.8668 54.3456 79.8009 52.2898 79.9495 50.0433C80.0132 48.92 80.1406 47.9027 79.1853 47.0761C78.7395 46.6946 78.3149 46.3344 77.8266 46.0164C74.621 43.8547 71.2668 42.1168 67.4243 41.5022C64.3885 41.0147 61.3315 40.7392 58.2957 40.2729C58.2532 40.4213 58.2107 40.5697 58.1895 40.7392C57.9135 42.1168 57.6588 43.4944 57.4889 44.8932C57.2554 46.8006 57.2554 48.7292 57.1281 50.6367C59.8879 50.6155 62.7114 50.9122 65.3862 51.5268Z" fill="#FFF5DA"/>
<path d="M59.3571 41.2258C62.032 41.6073 64.7706 41.904 67.3606 42.7729C69.8444 43.6207 71.9461 44.9771 73.9629 46.6514C74.9607 47.4779 76.1495 48.4105 76.7652 49.5761C77.3383 50.6782 77.3171 51.9922 77.9328 53.0943C78.23 53.6029 78.5484 53.836 78.8669 53.8996C79.4613 52.7128 79.8434 51.4412 79.9283 50.0848C79.992 48.9615 80.1194 47.9442 79.1641 47.1176C78.7182 46.7362 78.2937 46.3759 77.8054 46.058C74.5998 43.8962 71.2455 42.1583 67.403 41.5437C64.3673 41.0562 61.3102 40.7807 58.2744 40.3145C58.232 40.4628 58.1895 40.6112 58.1683 40.7807C58.1471 40.8655 58.1258 40.9715 58.1046 41.0562C58.5292 41.0986 58.9326 41.1622 59.3571 41.2258Z" fill="#FFF5DA"/>
<path d="M79.249 57.5876C81.0322 57.3969 82.7943 57.8843 84.5775 57.9267C86.382 57.9903 88.0591 57.6088 89.6301 56.7187C94.5765 53.9635 98.419 47.3722 104.66 47.7113C104.745 47.457 104.83 47.1815 104.915 46.9272C105.637 44.9774 106.89 43.0911 107.463 41.1201C108.354 38.0046 104.108 39.5941 102.665 40.1664C101.285 40.7386 99.9475 41.3744 98.5889 42.0102C95.5531 43.409 92.6022 44.9985 89.6301 46.5033C87.1887 47.7325 84.8111 49.0677 82.2211 49.9367C81.6054 50.1486 81.1172 50.085 80.7563 49.8307C80.6714 50.8692 80.3529 51.9501 79.9708 52.925C78.8669 55.6378 76.8288 57.7572 74.9182 59.9401C76.0858 58.7109 77.4445 57.7784 79.249 57.5876Z" fill="#FFF5DA"/>
<path d="M80.5652 53.0948C81.1808 52.565 81.7753 51.9504 82.497 51.5477C83.5797 50.9543 84.8747 50.6999 86.0423 50.3185C87.4859 49.831 88.9295 49.3435 90.3307 48.7289C92.581 47.7328 94.5977 46.44 96.657 45.1048C99.6079 43.1974 103.684 40.5058 107.399 41.3747C107.42 41.2899 107.463 41.2052 107.484 41.1416C108.376 38.0261 104.13 39.6156 102.686 40.1879C101.306 40.7601 99.9688 41.3959 98.6101 42.0317C95.5743 43.4305 92.6234 45.02 89.6513 46.5248C87.2099 47.754 84.8323 49.0892 82.2423 49.9582C81.6266 50.1701 81.1384 50.1065 80.7775 49.8522C80.6926 50.8907 80.3741 51.9716 79.992 52.9465C79.8858 53.222 79.7372 53.4975 79.6099 53.773C79.9283 53.6035 80.2467 53.3704 80.5652 53.0948Z" fill="#FFF5DA"/>
<path opacity="0.3" d="M71.7338 64.0094C72.5192 62.9921 73.2835 61.8689 74.1114 60.8516C73.2835 61.8265 72.4768 62.8862 71.7338 64.0094Z" fill="#FFA4A3" fill-opacity="0.6"/>
<path d="M138.266 68.5238C137.29 66.9555 136.271 65.4083 135.252 63.8824C133.002 60.5126 130.518 57.27 127.503 54.536C124.786 52.0775 121.771 49.8945 118.481 48.2414C116.443 47.2241 114.32 46.2704 112.154 45.5286C111.709 45.3803 106.762 44.1722 106.783 44.2994C106.805 44.3842 106.635 44.5537 106.571 44.4478C106.55 44.4266 106.55 44.4054 106.55 44.3842C106.083 45.4862 105.637 46.6095 105.319 47.754C105.382 47.7964 105.425 47.8388 105.425 47.9235C105.425 48.6017 105.382 49.3011 105.297 49.9793C105.043 52.5438 104.788 55.0658 106.741 57.1004C108.63 59.0502 111.178 59.5377 113.768 59.7708C116.039 59.9616 118.459 59.9828 120.604 60.8305C122.684 61.6571 124.658 63.0135 126.378 64.4546C129.393 66.9767 131.579 70.2405 132.662 74.0342C132.895 74.8607 133.086 75.7085 133.256 76.5562C133.872 76.0052 134.53 75.4966 135.209 75.0091C136.335 74.2037 137.948 73.3984 138.755 72.2751C139.668 71.0035 138.946 69.6471 138.266 68.5238Z" fill="#FFF5DA"/>
<path d="M114.192 48.2838C117.971 50.1701 121.835 51.8656 125.168 54.5148C128.182 56.9309 131.006 59.5801 133.957 62.0385C132.046 59.3469 129.944 56.7613 127.482 54.536C124.765 52.0775 121.75 49.8945 118.459 48.2414C116.421 47.2241 114.299 46.2704 112.133 45.5286C111.687 45.3803 106.741 44.1722 106.762 44.2994C106.783 44.3842 106.613 44.5537 106.55 44.4478C106.529 44.4266 106.529 44.4054 106.529 44.3842C106.338 44.8292 106.168 45.2743 105.977 45.7406C108.864 45.8253 111.687 47.0334 114.192 48.2838Z" fill="#FFF5DA"/>
<path opacity="0.3" d="M64.0063 57.5456C63.794 57.4184 63.5605 57.27 63.2845 57.1853C63.2845 57.1853 63.2845 57.1641 63.2633 57.1641C63.0722 56.9521 62.6689 56.8674 62.4141 56.825C61.6923 56.6978 60.9493 57.3548 60.8644 58.0542C60.6946 59.4318 62.0957 60.2372 63.3058 60.3643C64.1125 60.4491 64.9192 59.7709 64.8343 58.902C64.7918 58.3933 64.4097 57.8211 64.0063 57.5456Z" fill="#FFA4A3" fill-opacity="0.6"/>
<path opacity="0.3" d="M65.6622 64.9632C65.5561 64.7512 65.4499 64.5605 65.2801 64.4545C65.0466 64.3062 64.7493 64.2638 64.4946 64.2426C63.794 64.2214 63.2421 64.5817 63.1571 65.3023C63.0935 65.8957 63.6242 66.4679 64.07 66.7858C64.5795 67.1461 65.365 67.7819 65.9594 67.2309C66.7449 66.4891 66.3628 65.5778 65.6622 64.9632Z" fill="#FFA4A3" fill-opacity="0.6"/>
<path opacity="0.3" d="M91.7955 80.4349C91.1374 79.905 90.0547 80.9647 89.6938 81.431C89.6301 81.5158 89.5876 81.6005 89.5239 81.6641C89.8424 81.1555 89.5452 81.6005 89.439 81.7277C89.2479 81.9396 89.0781 82.194 88.9083 82.4483C88.8234 82.5755 88.7597 82.7026 88.7172 82.8298C88.2714 83.402 87.9105 84.0802 88.0591 84.716C88.1228 84.9703 88.2926 85.0127 88.5262 84.9492C89.6088 84.6736 90.4368 83.8047 91.1798 83.0205C91.7318 82.4483 92.6659 81.1343 91.7955 80.4349Z" fill="#FFA4A3" fill-opacity="0.6"/>
<path opacity="0.3" d="M107.25 68.206L107.229 68.1848C107.25 68.1212 107.229 68.0576 107.165 68.0152C107.081 67.9728 106.996 67.9516 106.911 67.9516C106.783 67.9305 106.635 67.9517 106.486 67.9728C106.359 68.0152 106.231 68.0788 106.125 68.1636C106.125 68.1636 106.125 68.1636 106.104 68.1636C105.955 68.206 105.849 68.3119 105.722 68.3967C105.446 68.6087 105.021 69.414 105.552 69.5836C105.679 69.6259 105.828 69.6048 105.955 69.5412C106.019 69.5624 106.083 69.5624 106.168 69.5624C106.486 69.5412 106.762 69.3504 106.974 69.1173C107.187 68.9478 107.42 68.5239 107.25 68.206Z" fill="#FFA4A3" fill-opacity="0.6"/>
<path opacity="0.3" d="M77.6144 80.8371C77.1898 80.7099 76.7227 80.604 76.2557 80.5828C75.8523 80.4556 75.364 80.5192 74.897 80.7099C74.2177 80.8795 73.602 81.2186 73.1774 81.7908C72.9651 82.0663 72.7104 82.575 73.0288 82.8717C73.0925 82.9353 73.1774 82.9988 73.2623 83.0412C73.3685 83.1896 73.4959 83.3167 73.6869 83.4015C74.7484 83.8466 75.7037 83.6347 76.7652 83.3803C78.1239 83.0624 79.4825 81.4305 77.6144 80.8371Z" fill="#FFA4A3" fill-opacity="0.6"/>
<path opacity="0.6" d="M53.4554 77.616C53.052 77.4465 52.6062 77.3405 52.1392 77.3193C51.7571 77.1709 51.29 77.2557 50.823 77.4676C50.1649 77.6796 49.5917 78.0823 49.1671 78.7817C48.9548 79.1208 48.7213 79.7142 49.0185 80.0745C49.0822 80.1592 49.1671 80.2228 49.252 80.2652C49.3369 80.4348 49.4855 80.6043 49.6766 80.6891C50.6956 81.2189 51.6297 80.9646 52.6487 80.6679C53.9224 80.3076 55.2387 78.3366 53.4554 77.616Z" fill="#FFA4A3" fill-opacity="0.6"/>
<path opacity="0.6" d="M92.3262 57.9905C92.0927 57.9057 91.8379 57.8422 91.5832 57.821C91.3709 57.7362 91.0949 57.7786 90.8401 57.9057C90.458 58.0117 90.1396 58.266 89.8848 58.6475C89.7787 58.8383 89.6301 59.1774 89.7999 59.3893C89.8424 59.4317 89.8848 59.4741 89.9273 59.4953C89.991 59.6012 90.0547 59.686 90.1608 59.7496C90.734 60.0463 91.2647 59.9191 91.8592 59.7284C92.6022 59.5165 93.3452 58.3932 92.3262 57.9905Z" fill="#FFA4A3" fill-opacity="0.6"/>
<path opacity="0.3" d="M87.0614 67.9732C86.9977 67.846 86.9128 67.7613 86.8279 67.7189C86.8066 67.6341 86.7217 67.6129 86.6156 67.6341C86.382 67.6977 86.1485 67.7189 85.915 67.846C85.5753 68.0156 85.2357 68.4395 85.3843 68.8421C85.4904 69.0965 85.7876 69.1601 86.0424 69.1389C86.467 69.0965 86.7642 68.8633 86.9977 68.5242C87.0826 68.3759 87.1251 68.1428 87.0614 67.9732Z" fill="#FFA4A3" fill-opacity="0.6"/>
<path opacity="0.3" d="M123.724 67.1886C123.363 66.9767 122.981 66.8495 122.578 66.8071C122.472 66.7647 122.366 66.7223 122.217 66.7012C121.623 66.5952 121.071 67.0826 120.858 67.5913C120.391 68.6722 121.368 69.202 122.281 69.4563C123.236 69.7319 124.425 69.6895 124.637 68.4602C124.722 67.9728 124.106 67.4217 123.724 67.1886Z" fill="#FFA4A3" fill-opacity="0.6"/>
<path opacity="0.3" d="M125.784 82.406C125.805 82.3212 125.805 82.2577 125.784 82.1941C125.571 81.8126 125.147 81.3463 124.637 81.0284C124.595 81.0072 124.574 80.986 124.531 80.9648C123.979 80.6469 123.363 80.5622 122.896 81.0072C122.366 81.5159 122.302 82.0457 122.599 82.7027C122.705 82.9359 122.833 83.3174 123.024 83.5081C123.321 83.8048 123.682 83.9744 124.085 84.1015C124.765 84.3135 125.508 84.3558 125.869 83.5929C126.06 83.1902 125.975 82.7875 125.784 82.406Z" fill="#FFA4A3" fill-opacity="0.6"/>
<path opacity="0.3" d="M114.596 60.7882C114.617 60.5975 114.426 60.4915 114.256 60.5551C114.192 60.5763 114.15 60.5975 114.086 60.6399C113.874 60.7035 113.725 60.8942 113.64 61.1061C113.577 61.2545 113.598 61.424 113.768 61.4876C113.938 61.5512 114.086 61.5088 114.214 61.424C114.256 61.4452 114.298 61.4876 114.32 61.5088C114.447 61.6148 114.681 61.3817 114.723 61.2545C114.787 61.0849 114.723 60.9154 114.596 60.7882Z" fill="#FFA4A3" fill-opacity="0.6"/>
<path opacity="0.3" d="M117.95 55.6809C117.016 55.0451 115.827 54.4517 114.681 54.5364C113.747 54.6 113.131 55.5961 113.386 56.4439C113.492 56.8042 113.831 57.1009 114.256 57.3128C114.893 57.885 115.806 58.2453 116.613 58.4149C117.632 58.648 119.16 59.4322 119.733 58.0546C120.158 56.9525 118.714 56.1895 117.95 55.6809Z" fill="#FFA4A3" fill-opacity="0.6"/>
<path opacity="0.3" d="M95.0436 48.8348C94.9587 48.644 94.8101 48.5592 94.619 48.538C94.5978 48.4957 94.5341 48.4957 94.4492 48.5169C94.0458 48.6228 93.6 48.6652 93.2603 48.9407C93.0056 49.1315 92.8145 49.4282 92.7084 49.7037C92.4324 50.4031 93.0905 50.7846 93.7061 50.6574C94.1095 50.5938 94.4916 50.3607 94.7251 50.064C94.9799 49.7461 95.2346 49.2374 95.0436 48.8348Z" fill="#FFA4A3" fill-opacity="0.6"/>
<path opacity="0.3" d="M84.5775 55.4052C84.5563 55.2144 84.3652 55.172 84.2166 55.1296C83.9194 55.0449 83.6009 55.0873 83.3037 55.0661C83.0065 55.0237 82.7518 55.2568 82.6032 55.4899C82.497 55.6807 82.4121 56.041 82.6881 56.1257C82.7942 56.1469 82.8791 56.1681 82.9853 56.1893C83.0914 56.2317 83.1976 56.2741 83.3037 56.2953C83.7708 56.4225 84.259 56.3165 84.4926 55.8502C84.5563 55.7019 84.5987 55.5535 84.5775 55.4052Z" fill="#FFA4A3" fill-opacity="0.6"/>
<path opacity="0.3" d="M73.5595 53.7309C73.5595 53.6249 73.4746 53.5189 73.4109 53.413C73.3685 53.3282 73.326 53.2434 73.2623 53.1586C73.1774 52.9679 73.0925 52.7983 72.9863 52.6288C72.7104 52.1413 71.9461 51.0817 71.2455 51.3148C69.5047 51.9294 71.4154 54.621 72.583 54.7482C72.859 54.7694 73.1349 54.5998 73.2836 54.3667C73.4746 54.1759 73.5595 54.0064 73.5595 53.7309Z" fill="#FFA4A3" fill-opacity="0.6"/>
<path opacity="0.6" d="M79.164 47.1185C78.7182 46.737 78.2936 46.3767 77.8054 46.0588C74.5997 43.897 71.2455 42.1591 67.403 41.5445C65.5348 41.2478 63.6667 41.0359 61.7985 40.8027C63.4756 41.3326 65.3013 41.6081 66.8935 42.0956C69.3349 42.8161 72.3919 44.3845 72.583 47.2668C72.7316 49.365 71.6701 51.3572 70.5662 53.0739C69.0801 55.4052 67.3818 57.5882 65.641 59.7499C61.8409 64.4337 58.0834 69.0752 55.4085 74.5431C54.6442 76.1115 54.0286 77.7222 53.3917 79.3329C53.0308 80.2019 52.7973 81.1344 52.3939 82.0033C51.481 83.932 50.1224 84.5678 48.0419 84.2923C46.8955 84.1439 45.7704 83.8048 44.624 83.6352C43.5837 83.4657 42.4798 83.5717 41.4396 83.7624C40.6541 83.9108 39.8686 84.1015 39.1044 84.377C40.8876 84.0167 42.9469 84.7373 44.4542 85.4791C47.0017 86.7083 49.4006 88.425 51.4598 90.3537C51.7358 90.608 51.9906 90.8835 52.2453 91.159C52.4364 91.3074 52.6062 91.4557 52.7973 91.6041C54.4531 92.9181 56.3426 94.0414 57.8923 95.4613C58.2532 95.8004 58.699 96.3727 58.9962 96.9661C59.5906 94.6348 60.5672 92.3035 61.1404 89.9934C61.9471 86.7083 62.7538 83.4021 63.794 80.1807C64.8555 76.8956 66.1293 73.7166 67.5516 70.5799C68.1248 69.3295 68.698 68.0579 69.4198 66.871C69.4623 66.8074 69.5896 66.5955 69.7807 66.3412C70.2265 65.4934 70.7148 64.6457 71.2455 63.7767C72.9651 61.0003 75.3003 58.6478 77.3808 56.147C78.8031 54.4515 79.7372 52.3957 79.8858 50.1492C80.0132 48.9623 80.1406 47.9238 79.164 47.1185Z" fill="#FFA4A3" fill-opacity="0.6"/>
<path opacity="0.6" d="M62.6901 96.1178C62.9874 93.3414 63.5393 90.5439 64.1762 87.8311C65.4499 82.3419 67.3394 77.0223 69.9506 72.0417C71.3092 69.4349 72.8165 66.934 74.5785 64.6027C76.3193 62.2926 78.2088 60.0673 79.716 57.6088C80.544 56.2736 81.2021 54.9172 81.7328 53.4548C82.1574 52.3104 82.5395 51.1023 83.2189 50.085C83.3887 49.8095 83.5798 49.5764 83.7921 49.3433C83.2826 49.5552 82.7518 49.7671 82.1999 49.9367C81.5842 50.1486 81.0959 50.085 80.735 49.8307C80.6501 50.8692 80.3317 51.9501 79.9496 52.925C78.7395 55.9345 76.383 58.2022 74.2813 60.6183C72.9651 62.1231 71.6914 63.8398 70.6724 65.6836C69.6321 67.2096 68.6768 68.7779 68.0187 70.4946C67.8064 70.9397 67.5941 71.3847 67.3818 71.851C66.1293 74.7757 64.9192 77.7217 64.07 80.7947C62.4566 86.6442 61.2041 92.4937 59.3359 98.2584C59.3359 98.9578 58.9326 99.4876 57.7437 99.4876C55.7694 99.4876 53.8588 98.8942 51.9057 98.6822C51.2688 98.6187 50.4833 98.4915 49.7403 98.4915C49.0397 98.3643 48.3179 98.3855 47.7447 98.7458C46.8106 99.3392 47.5537 100.208 48.2967 100.463C48.509 100.568 48.8062 100.653 49.1671 100.717C50.08 101.014 50.9928 101.247 51.9269 101.437C54.3046 101.904 56.4063 102.2 58.7203 101.946C59.8454 101.925 61.0555 101.628 62.1806 101.268C62.4566 101.247 62.7538 101.247 63.0298 101.247C62.6265 99.6148 62.4991 97.8981 62.6901 96.1178Z" fill="#FFA4A3" fill-opacity="0.6"/>
<path opacity="0.6" d="M113.704 68.5026C110.477 64.3486 105.786 60.1099 104.448 54.8326C103.769 52.1622 103.981 49.4918 104.936 46.9062C105.658 44.9564 106.911 43.0701 107.484 41.0991C108.376 37.9836 104.13 39.5732 102.686 40.1454C101.306 40.7176 99.9687 41.3534 98.6101 41.9892C95.8502 43.2609 93.1541 44.6808 90.458 46.0796C90.5005 46.0584 90.5429 46.0584 90.5854 46.0372C92.2625 45.6134 93.9184 45.0199 95.5106 44.3205C96.3385 43.9603 98.3978 42.7098 99.1832 43.7483C99.7352 44.4689 99.5441 45.5922 99.4592 46.4187C99.3106 47.7539 99.0771 49.0679 98.8436 50.382C98.2704 53.6246 98.0581 56.8036 98.6313 60.0675C99.162 63.0346 100.075 66.1077 101.54 68.7569C102.283 70.0921 103.153 71.3425 104.236 72.4234C105.021 73.2288 105.977 73.7798 106.826 74.4792C108.206 75.6025 109.097 77.0437 108.397 78.8451C107.038 82.2997 103.196 83.9952 100.584 86.3689C99.6715 87.1954 98.8223 88.1068 98.0156 89.0605C98.3978 88.8062 98.8011 88.573 99.2469 88.3611C99.3531 88.2975 99.4805 88.2551 99.5866 88.2127C101.349 87.1531 103.153 86.2205 104.979 85.3304C108.376 83.6773 111.878 82.1301 115.572 81.346C116.337 81.1764 118.332 80.7526 119.436 81.134C119.606 76.7681 116.018 71.4697 113.704 68.5026Z" fill="#FFA4A3" fill-opacity="0.6"/>
<path opacity="0.6" d="M138.266 68.5238C137.29 66.9554 136.271 65.4083 135.252 63.8824C133.278 60.9152 131.112 58.0541 128.586 55.5532C130.454 58.6263 132.513 61.6146 133.766 65.0056C134.403 66.7435 135.103 68.99 133.999 70.6855C133.15 71.9784 131.813 72.5294 130.412 73.0592C128.48 73.801 126.972 74.7971 126.569 76.9801C126.038 79.7776 125.041 82.4481 123.767 84.9913C122.472 87.5769 121.028 90.1838 119.394 92.5787C118.29 94.1894 116.91 95.6517 115.084 96.4571C113.832 97.0081 112.494 97.326 111.093 97.4956C111.857 97.644 112.6 97.7923 113.364 97.9831C114.957 98.3857 116.719 99.1487 118.353 98.6401C118.82 98.4917 119.203 98.195 119.521 97.8135C120.094 97.4108 120.604 96.8598 121.156 96.2664C122.514 94.7828 123.321 93.0873 124 91.2435C123.979 91.2435 123.958 91.2435 123.937 91.2435C124.043 90.9891 124.149 90.7136 124.234 90.4593C124.255 90.4593 124.276 90.4593 124.298 90.4593C126.548 84.3767 129.86 78.9087 135.252 75.0726C136.377 74.2673 137.99 73.4619 138.797 72.3386C139.668 71.0034 138.946 69.647 138.266 68.5238Z" fill="#FFA4A3" fill-opacity="0.6"/>
<path opacity="0.6" d="M109.48 61.8692C111.284 64.1157 113.322 66.3835 115.127 68.7783C114.935 67.4431 115.318 66.1715 115.402 64.8363C115.509 63.1408 115.466 61.4241 115.19 59.7498C114.935 58.1815 114.575 56.6343 114.15 55.0872C113.853 54.0063 113.449 52.9678 113.173 51.887C112.749 50.1491 112.515 47.9237 114.001 46.5885C114.108 46.5037 114.192 46.419 114.299 46.3342C113.577 46.0375 112.855 45.762 112.133 45.5076C111.687 45.3593 106.741 44.1512 106.762 44.2784C106.783 44.3632 106.614 44.5327 106.55 44.4268C106.529 44.4056 106.529 44.3844 106.529 44.3632C105.106 47.733 103.96 51.3359 105.297 54.9388C106.274 57.5245 107.802 59.7498 109.48 61.8692Z" fill="#FFA4A3" fill-opacity="0.6"/>
<path opacity="0.9" d="M49.9526 95.2068C50.7805 94.0412 51.7146 93.0027 52.4576 91.7734C52.6911 91.9642 52.9247 92.1761 53.1794 92.3669C54.0286 93.1086 54.899 93.8292 55.6845 94.6134C56.2576 95.1009 56.8096 95.5671 57.3828 96.0546C58.1683 96.7116 59.718 98.7462 57.5314 98.7674C56.3001 98.7886 55.0051 98.4283 53.7738 98.2163C52.033 97.9196 49.3369 97.305 47.681 98.2375L47.6598 98.2587C48.3391 97.199 49.252 96.1817 49.9526 95.2068Z" fill="#FFA4A3" fill-opacity="0.6"/>
<path opacity="0.9" d="M103.281 90.4804C103.535 89.9293 103.811 89.3995 104.13 88.8696C104.342 88.5305 104.576 88.1914 104.809 87.8523C105.149 87.2801 105.934 86.178 105.807 85.4786C107.123 84.8852 108.439 84.313 109.755 83.7831C111.793 82.9778 113.895 82.3632 116.061 81.9181C116.634 81.7909 117.228 81.7062 117.801 81.6426C118.969 81.5154 119.287 81.9817 119.245 82.6175C119.054 83.2957 118.757 83.9315 118.332 84.5249C118.077 85.1819 117.589 85.7542 117.122 86.2416C116.337 87.0046 115.487 87.5344 114.532 87.8523C112.027 89.3147 109.14 90.226 106.571 91.3917C105.234 92.0063 103.429 92.5997 102.113 93.617C102.24 92.4938 102.707 91.4765 103.281 90.4804Z" fill="#FFA4A3" fill-opacity="0.6"/>
<path opacity="0.3" d="M104.724 51.6745C104.767 50.9115 104.873 50.1697 104.936 49.4067C104.809 50.1485 104.724 50.9115 104.724 51.6745Z" fill="#FFA4A3" fill-opacity="0.6"/>
<path opacity="0.6" d="M102.941 65.1754C102.729 65.0906 102.495 65.027 102.262 65.027C102.07 64.9423 101.816 64.9846 101.582 65.0906C101.243 65.1966 100.924 65.4085 100.712 65.7688C100.606 65.9384 100.478 66.2563 100.648 66.447C100.691 66.4894 100.733 66.5106 100.776 66.553C100.818 66.6378 100.903 66.7225 100.988 66.7861C101.519 67.0616 102.007 66.9345 102.559 66.7649C103.196 66.5954 103.875 65.5569 102.941 65.1754Z" fill="#FFA4A3" fill-opacity="0.6"/>
<path opacity="0.6" d="M82.0088 74.9454C81.7965 74.8606 81.5629 74.797 81.3294 74.797C81.1384 74.7123 80.8836 74.7547 80.6501 74.8606C80.3104 74.9666 79.992 75.1785 79.7797 75.5388C79.6735 75.7084 79.5462 76.0263 79.716 76.217C79.7585 76.2594 79.8009 76.2806 79.8434 76.323C79.8858 76.4078 79.9708 76.4926 80.0557 76.5561C80.5864 76.8317 81.0747 76.7045 81.6266 76.5349C82.2635 76.3654 82.9428 75.3269 82.0088 74.9454Z" fill="#FFA4A3" fill-opacity="0.6"/>
<path opacity="0.6" d="M82.0088 98.6399C81.7965 98.5551 81.5629 98.4916 81.3294 98.4704C81.1384 98.3856 80.8836 98.428 80.6501 98.5551C80.3104 98.6611 79.992 98.8731 79.7797 99.2334C79.6735 99.4029 79.5462 99.7208 79.716 99.9115C79.7585 99.9539 79.8009 99.9751 79.8434 100.018C79.8858 100.102 79.9708 100.187 80.0557 100.251C80.5864 100.526 81.0747 100.399 81.6266 100.229C82.2635 100.06 82.9428 99.0214 82.0088 98.6399Z" fill="#FFA4A3" fill-opacity="0.6"/>
<path opacity="0.6" d="M69.0165 88.2125C68.8466 88.1489 68.6556 88.1065 68.4857 88.0853C68.3371 88.0217 68.1248 88.0641 67.955 88.1489C67.679 88.2337 67.4455 88.4032 67.2757 88.6787C67.1908 88.8271 67.0846 89.0602 67.212 89.2086C67.2332 89.251 67.2757 89.2721 67.2969 89.2933C67.3394 89.3569 67.3818 89.4205 67.4667 89.4629C67.8913 89.6748 68.2735 89.5689 68.698 89.4629C69.2075 89.3145 69.7383 88.5092 69.0165 88.2125Z" fill="#FFA4A3" fill-opacity="0.6"/>
<path opacity="0.3" d="M127.1 75.4969C127.079 75.4333 127.057 75.3697 127.036 75.3062C127.057 75.2426 127.057 75.179 127.036 75.1366C127.015 74.9671 126.93 74.8611 126.803 74.7975C126.654 74.5432 126.463 74.3101 126.187 74.2677C125.911 74.2253 125.72 74.4372 125.571 74.6492C125.38 74.9459 125.38 75.3062 125.593 75.5817C125.677 75.6876 125.784 75.7936 125.89 75.8784C125.996 75.942 126.102 76.0056 126.208 76.0056C126.314 76.0267 126.42 76.0055 126.527 75.942C126.527 75.9632 126.548 75.9632 126.548 75.9844C126.76 76.2811 127.206 75.7512 127.1 75.4969Z" fill="#FFA4A3" fill-opacity="0.6"/>
</svg>
