<svg width="140" height="106" viewBox="0 0 140 106" fill="none" xmlns="http://www.w3.org/2000/svg">
<path d="M70 0C45.9901 0 24.7757 6.45587 12.1772 16.2363C14.1685 15.5018 16.2746 14.922 18.419 14.4581C30.826 6.84245 49.3599 1.97155 70 1.97155C92.3249 1.97155 112.123 7.61561 124.453 16.3523C126.138 16.6229 127.784 17.0481 129.393 17.512C117.062 7.03574 95.082 0 70 0Z" fill="#D8E9FE"/>
<path d="M129.431 17.5889C127.823 17.0864 126.176 16.6998 124.491 16.4292C132.533 22.1119 137.396 29.0703 137.741 36.6473C137.741 36.9179 137.779 37.2272 137.779 37.4978C137.779 37.6524 137.779 37.7684 137.779 37.923C137.779 37.6524 137.779 37.4204 137.779 37.1498C137.779 36.8792 137.779 36.57 137.741 36.2994H138.124C138.124 36.2994 137.97 41.5182 136.362 49.1338C138.736 45.4226 140 41.4022 140 37.2658C139.962 30.0368 136.094 23.2716 129.431 17.5889Z" fill="#D0DBEC"/>
<path d="M-0.00012207 37.266C-0.00012207 41.1318 1.11038 44.843 3.13992 48.3222C2.91016 45.9254 2.79528 43.6446 2.7187 41.557C2.7187 41.5184 2.7187 41.4797 2.6804 41.4411C2.41235 40.1267 2.25918 38.8123 2.25918 37.498C2.25918 28.7226 8.3478 20.7204 18.4189 14.5352C16.2745 14.9991 14.1684 15.5403 12.1771 16.3134C4.51848 22.2281 -0.00012207 29.4571 -0.00012207 37.266Z" fill="#D0DBEC"/>
<path d="M9.99435 36.6478C12.6749 32.2408 17.6913 28.259 24.3543 24.9731C25.235 24.1227 26.2307 23.4268 27.2646 22.7696C29.3707 21.4166 31.5534 20.1409 33.8127 19.1358C35.0381 18.5946 36.2635 18.1307 37.5655 17.7441C41.2416 16.6617 45.2241 16.3911 48.9003 17.4735C48.9768 17.5121 49.0534 17.5121 49.13 17.5508C51.3893 17.2029 53.6869 16.8936 56.0611 16.623C55.6016 16.5844 55.1803 16.507 54.7208 16.4684C54.7591 16.2751 54.7974 16.0431 54.8357 15.8499C54.5294 15.8885 54.2613 15.9272 53.955 15.9658C54.1081 15.5793 54.2996 15.1927 54.4528 14.8448C53.9167 14.8448 53.3806 14.8448 52.8445 14.8448C53.304 14.5741 53.7252 14.2262 54.0698 13.8396C53.4954 13.8783 52.921 13.801 52.3849 13.685C52.7296 13.4531 53.0742 13.1825 53.4189 12.9505C52.921 12.9505 52.4615 12.9119 51.9637 12.9119C52.3466 12.7186 52.7296 12.5253 53.0742 12.3706C52.4232 11.9841 51.6574 11.7908 50.8915 11.7908C51.351 11.6361 51.7722 11.4815 52.2318 11.3655C52.1935 11.2109 52.1552 11.0176 52.1169 10.863C52.3466 10.863 52.5764 10.8243 52.8062 10.8243C53.4571 10.7857 54.1081 10.7857 54.7591 10.8243C54.0315 9.89654 52.9976 9.2007 51.8488 8.85278C52.4615 8.77546 53.1125 8.77546 53.7252 8.89143C55.1038 9.12338 56.3674 9.85788 57.2865 10.9403C57.6694 11.4042 58.2438 11.9454 58.7416 11.5975C58.4736 10.5151 57.5162 9.74191 56.5589 9.12338C55.6016 8.54351 54.5676 8.04096 53.8401 7.15183C55.6399 6.45599 57.5545 5.72148 59.4692 6.0694C60.6946 6.30135 61.8817 6.95854 63.1453 6.88122C63.4517 6.84256 63.758 6.80391 63.9878 6.9972C64.2941 7.2678 64.1409 7.80901 63.8346 8.11828C63.5283 8.42754 63.1453 8.62083 62.9156 8.96875C62.7241 9.31667 62.7241 9.78056 62.839 10.1671C63.0687 11.2109 63.7197 12.1387 64.6005 12.7186C64.5239 11.5202 64.6005 10.3218 64.8685 9.2007C64.9834 8.77546 65.1366 8.31156 65.5195 8.11828C65.5578 8.07962 65.5961 8.07962 65.6344 8.07962C65.9024 8.0023 66.1705 8.0023 66.4385 8.07962C66.9747 8.19559 67.4725 8.50485 67.8554 8.89143C68.2 9.23935 68.4681 9.62593 68.6213 10.0898C69.1574 10.0512 69.7701 10.0512 70.153 10.4377C70.7274 11.0176 70.3062 12.0614 69.6935 12.5639C69.0425 13.0665 68.2383 13.3371 67.6639 13.9556C67.1661 14.5355 67.0129 15.27 66.9746 16.0431C67.5873 16.0431 68.2 16.0045 68.8127 16.0045C68.583 15.6566 68.4298 15.3473 68.5447 14.9607C68.583 14.9607 68.6213 14.9607 68.6595 14.9607C69.2722 14.9607 69.8849 15.038 70.4593 15.2313C70.3062 14.8448 70.1913 14.4195 70.2296 13.9556C70.8423 14.2649 71.4549 14.5355 72.0676 14.8448C72.1442 14.1876 72.3357 13.5304 72.5655 12.9119C73.025 13.4531 73.4845 13.9943 73.944 14.5355C74.1738 14.0716 74.4418 13.6077 74.6716 13.1438C74.9013 13.569 75.0545 13.9943 75.1311 14.4582C75.4374 14.1489 75.7821 13.8396 76.0884 13.5304C76.2799 13.7623 76.3948 14.0716 76.4714 14.3809C76.7777 14.0716 77.1607 13.8783 77.5819 13.8396C77.5436 14.2262 77.5436 14.6128 77.5053 14.9994C77.8499 14.9221 78.2711 14.8061 78.5775 15.038C78.8838 15.2313 78.8455 15.8499 78.4626 15.8885C78.5392 15.9272 78.6541 15.9658 78.7307 16.0045C79.2668 15.5406 79.8412 15.1154 80.3773 14.6901C84.0151 11.9841 87.4998 10.8243 88.2274 10.6697C91.7121 9.9352 95.2733 9.2007 98.8346 9.35533C101.592 9.43264 104.425 10.1285 106.723 11.6361C107.872 12.3706 112.084 16.623 112.467 22.6537C112.505 23.0016 112.505 23.3495 112.505 23.6974C120.738 27.2153 126.865 31.6996 129.967 36.8024H137.664C136.821 17.6281 106.838 2.20361 69.9615 2.20361C32.549 2.20361 2.22083 18.092 2.22083 37.6529C2.22083 39.0059 2.374 40.3203 2.64205 41.596C2.60376 39.8178 2.56546 38.2328 2.56546 36.8024H9.99435V36.6478Z" fill="#D2E3EF"/>
<path d="M56.3674 21.1457C57.363 21.0684 58.3586 21.6869 59.0862 22.3828C59.8521 23.1173 60.5413 24.0064 61.4604 24.5863C62.4177 25.1661 63.5282 25.2821 64.6387 25.4367C65.2514 25.514 65.8641 25.6687 66.4385 25.8233C66.7449 25.9006 67.0895 26.0166 67.3958 26.0939C67.5107 26.1326 67.6256 26.1712 67.7788 26.2099C68.0468 23.7358 65.7492 20.6818 64.4855 18.7103C64.1792 18.2464 63.8729 17.7825 63.4516 17.4345C62.7624 16.932 61.8433 16.8547 61.0009 17.048C60.8094 17.0866 60.6562 17.1639 60.5031 17.2026C59.5457 17.5892 58.7416 18.285 57.9757 18.9809C57.9374 18.6716 57.8608 18.3623 57.8225 18.0531C57.5545 18.2077 57.2864 18.3237 57.0184 18.401C57.2098 18.0917 57.3247 17.7051 57.2481 17.3572C56.7503 17.5119 56.2142 17.5892 55.6781 17.6278C55.7164 17.2413 55.8696 16.8933 56.0227 16.5454C53.6486 16.7774 51.351 17.0866 49.0917 17.4732C51.1978 18.1304 53.1508 19.2128 55.0654 20.2952C55.5249 20.6045 55.9462 20.8751 56.3674 21.1457Z" fill="#DFB13B"/>
<path d="M70.3828 31.5834C70.2296 31.8153 70.0382 32.0473 69.885 32.2405C69.7701 31.0421 69.5786 29.8051 69.3489 28.6067C69.234 27.9882 68.8894 27.1764 68.2767 27.2537C68.1618 27.2537 68.0852 27.2923 67.9703 27.331C67.8555 27.4083 67.7406 27.4856 67.6257 27.5629C67.3959 27.7176 67.1662 27.8722 66.9364 28.0655C66.2854 28.568 65.6344 29.0706 65.0601 29.6505C64.7537 29.9984 64.4857 30.3463 64.2559 30.7329C64.141 30.9262 64.0261 31.1581 63.9113 31.3514C64.7537 32.4725 65.4813 33.6709 66.5535 34.56C67.6257 35.4492 69.0043 35.9517 70.2679 36.6089H71.3401C70.8423 34.9853 70.4977 33.2843 70.3828 31.5834Z" fill="#DFB13B"/>
<path d="M20.1803 36.1067C19.7591 35.2949 19.7591 34.3284 19.9123 33.4007C20.1803 32.009 20.793 30.6946 21.444 29.4189C21.4823 29.3802 21.4823 29.3416 21.5206 29.3029C22.2099 27.9499 22.8992 26.5582 23.8948 25.3985C24.048 25.2438 24.2011 25.0892 24.316 24.9346C17.653 28.2205 12.6749 32.2023 9.95605 36.6093H20.4867C20.4101 36.4546 20.2952 36.3 20.1803 36.1067Z" fill="#DFB13B"/>
<path d="M112.544 23.543C112.544 28.1433 110.782 33.3621 109.097 36.648H130.005C126.942 31.5452 120.777 27.0222 112.544 23.543Z" fill="#DFB13B"/>
<path d="M70.268 28.6461C70.3063 28.7235 70.3446 28.8008 70.4212 28.8781C70.5361 27.5637 70.7659 26.2493 71.2254 24.9736C70.8807 25.0896 70.4978 25.1669 70.1532 25.2442C70 25.2829 69.8851 25.2829 69.7319 25.3216C69.7702 25.7468 69.8085 26.1334 69.8851 26.5586C69.9234 26.8679 69.9617 27.1771 70 27.4864C70.0383 27.9116 70.0766 28.2982 70.268 28.6461Z" fill="#DFB13B"/>
<path d="M67.9703 22.3831C68.0469 22.8857 68.2383 23.4655 68.7361 23.5042C68.9659 21.7646 69.1956 19.9863 69.4254 18.2467C69.502 17.7828 69.5403 17.3189 69.3871 16.855C69.2722 16.5458 69.0425 16.2365 68.851 15.9272C68.2383 15.9272 67.6256 15.9272 67.0129 15.9659C67.0129 16.5458 67.0895 17.1643 67.1661 17.7442C67.4342 19.2518 67.7022 20.7981 67.9703 22.3831Z" fill="#DFB13B"/>
<path d="M137.702 36.6479H130.005C131.461 39.0447 132.265 41.5962 132.265 44.1862C132.265 49.8303 128.665 55.0491 122.423 59.4561C122.423 59.4948 122.462 59.5334 122.462 59.5334C131.729 53.6188 137.396 46.0805 137.702 37.8463C137.702 37.7304 137.702 37.5757 137.702 37.4211C137.741 37.1892 137.741 36.9186 137.702 36.6479Z" fill="#D2E3EF"/>
<path d="M7.73497 44.1862C7.73497 41.5575 8.50083 39.0447 9.99426 36.6479H2.64197C2.64197 38.0783 2.64197 39.7019 2.71855 41.4415C2.71855 41.4802 2.71856 41.5188 2.75685 41.5575C2.75685 41.4029 2.75685 41.2482 2.75685 41.0936C4.05882 47.2016 8.30936 52.8456 14.7426 57.6005C14.7809 57.4846 14.7809 57.4073 14.8192 57.2913C10.3006 53.3482 7.73497 48.9025 7.73497 44.1862Z" fill="#D2E3EF"/>
<path d="M89.989 70.7443C89.989 70.8216 89.989 70.899 89.9507 71.0149C90.8314 70.8603 91.7122 70.7443 92.5929 70.5897C92.8227 70.551 93.0907 70.5124 93.3205 70.4351C92.21 70.5124 91.0995 70.5897 89.989 70.5897C90.0273 70.6283 89.989 70.7057 89.989 70.7443Z" fill="#DFB13B"/>
<path d="M9.03699 49.9072C10.2241 52.4973 12.177 54.9714 14.8193 57.2522C14.9724 56.6337 15.1256 56.0152 15.3171 55.3966C15.4702 54.7781 15.6617 54.1209 16.0829 53.657C16.4276 53.2705 16.9254 53.0385 17.3083 52.6906C17.5381 52.4973 17.7295 52.2267 17.921 51.9948C15.9298 51.4535 13.9385 50.8737 11.9473 50.2165C10.9517 49.9845 9.99432 49.9072 9.03699 49.9072Z" fill="#DC5047"/>
<path d="M21.0227 46.544C21.061 46.5053 21.0993 46.428 21.1759 46.3893C22.3247 45.2296 23.5501 44.9977 24.9669 44.4564C26.4987 43.8766 27.6475 43.258 29.3324 43.8379C29.6387 43.9539 29.9451 44.1085 30.1365 44.3405C30.2514 44.4951 30.328 44.6884 30.3663 44.843C30.4046 44.9203 30.4046 45.0363 30.4429 45.1136C30.4812 45.2296 30.4812 45.3069 30.5194 45.4229C30.5577 45.5002 30.5577 45.5775 30.596 45.6162C30.7109 45.8868 30.9024 46.1187 31.0938 46.312C31.8597 45.8095 32.5873 45.3069 33.2383 44.843C35.689 43.0648 38.2164 41.3252 40.7437 39.6629C35.9188 39.7788 31.0556 39.5082 26.2306 38.9284C26.0774 38.8897 25.886 38.8897 25.7328 38.851C24.2011 38.6578 22.631 38.3485 21.3674 37.4207C21.061 37.1888 20.7547 36.9182 20.4866 36.6089H9.99428C8.53914 39.0057 7.73499 41.5571 7.73499 44.1472C7.73499 46.1187 8.1945 48.0516 9.03695 49.8685C9.99428 49.8685 10.9516 49.9459 11.9089 50.2165C13.9002 50.835 15.8914 51.4149 17.8827 51.9947C18.2273 51.4922 18.4571 50.9123 18.6868 50.3711C19.2612 49.0181 19.9888 47.6264 21.0227 46.544Z" fill="#DFB13B"/>
<path d="M89.7974 50.2939C86.734 52.1495 83.862 54.353 80.8751 56.3246C83.862 54.353 86.8489 52.1109 89.7974 50.2939Z" fill="#DFB13B"/>
<path d="M70.2296 36.6479C70.6891 36.8799 71.1487 37.1505 71.5699 37.4984C71.4933 37.2278 71.3784 36.9186 71.3018 36.6479H70.2296Z" fill="#DFB13B"/>
<path d="M118.556 53.812C118.862 54.1599 119.168 54.5851 119.436 54.9717C119.934 55.7062 120.394 56.4793 120.892 57.2138C121.428 58.0257 122.079 58.7602 122.423 59.456C126.712 56.4407 129.737 53.0001 131.231 49.3276C128.627 50.1781 126.023 50.9513 123.381 51.8017C121.734 52.3043 120.126 53.1161 118.556 53.812Z" fill="#DC5047"/>
<path d="M130.044 36.6479H109.136C108.676 37.5757 108.178 38.3489 107.757 38.8901C107.987 38.8128 108.216 38.7355 108.446 38.6582C108.906 38.4262 109.442 38.117 109.901 38.3102C110.169 38.4262 110.323 38.7355 110.476 39.0061C110.552 39.1607 110.629 39.2767 110.667 39.4313C112.122 39.238 113.616 39.1994 115.071 39.1994C116.603 39.1607 118.173 39.1607 119.704 39.1221C121.543 39.0834 123.61 39.1607 124.951 40.4751C125.027 40.5524 125.065 40.5911 125.104 40.6684C126.138 41.8668 126.291 43.645 126.253 45.2687C126.214 46.9696 125.985 48.6706 125.64 50.3329C122.194 50.8354 118.709 51.2606 115.262 51.6086C115.837 51.9951 116.488 52.2271 117.062 52.6137C117.637 52.9616 118.134 53.4255 118.556 53.8894C120.164 53.1549 121.734 52.3817 123.419 51.8405C126.061 51.0287 128.665 50.2169 131.269 49.3664C131.958 47.7041 132.303 45.9645 132.303 44.2249C132.265 41.5575 131.499 39.0447 130.044 36.6479Z" fill="#DFB13B"/>
<path d="M80.8368 56.3242C80.8368 55.3578 80.8368 54.3527 80.6836 53.3862C80.5304 52.4198 80.1858 51.4533 79.6114 50.6802C77.735 50.8348 75.8204 51.1827 73.944 51.5693C72.8718 53.077 72.2591 54.8552 71.8379 56.6722C72.5655 56.7495 73.3313 56.8268 74.0589 56.9428C76.3565 57.252 78.6541 57.5226 80.9134 57.8319C80.9134 57.7932 80.9134 57.7932 80.9134 57.7932C80.8751 57.3293 80.8751 56.8268 80.8368 56.3242Z" fill="#DFB13B"/>
<path d="M91.8652 49.0958C92.9374 48.516 93.8565 47.7815 94.7755 47.0083C94.7755 47.0083 94.7755 47.0083 94.7372 47.0083C93.8565 47.7815 92.9374 48.516 91.8652 49.0958Z" fill="#DFB13B"/>
<path d="M70.4211 28.8781C70.536 29.0327 70.6892 29.226 70.8041 29.4193C71.1487 30.1151 70.8807 30.8883 70.4211 31.5841C70.536 33.2851 70.8424 34.986 71.3402 36.6483C71.4168 36.9189 71.4934 37.2282 71.6082 37.4988C71.7614 37.6148 71.9529 37.7694 72.106 37.924C72.9485 38.7359 73.4846 39.7796 74.2122 40.6301C75.7822 42.447 78.0798 43.4521 79.9562 44.8825C80.9518 45.6556 81.8325 46.5447 82.6367 47.4725C83.2111 47.086 83.8238 46.6607 84.4365 46.3128C81.5262 44.9598 78.9222 42.9882 76.8927 40.4755C73.3697 35.9525 71.0338 30.4631 71.2636 24.9736C70.7658 26.2493 70.536 27.5637 70.4211 28.8781Z" fill="#CC692E"/>
<path d="M82.5601 13.9942C82.1389 14.1489 81.6794 14.0715 81.2198 13.9556C80.9518 14.1489 80.6837 14.3422 80.3774 14.5354C79.8413 14.922 79.2669 15.3859 78.7308 15.8498C79.1137 16.0431 79.4966 16.2364 79.8796 16.4297C79.4966 16.4297 79.1137 16.507 78.7308 16.6616C79.3435 17.1255 79.9945 17.5894 80.6071 18.092C80.2242 17.8987 79.803 17.7827 79.3818 17.7054C78.9988 17.6667 78.6159 17.7054 78.233 17.7827C78.501 17.976 78.7691 18.1693 79.0371 18.3626C78.1947 18.4012 77.3139 18.4786 76.4715 18.5172C77.2756 18.8265 78.0415 19.2904 78.7308 19.8316C78.7308 19.8316 78.7308 19.8316 78.6925 19.8316C77.4671 20.1022 76.28 20.3728 75.0546 20.6434C74.8632 20.6821 74.6717 20.7207 74.5185 20.8367C74.2888 21.03 74.2505 21.3392 74.1739 21.6098C73.9058 22.6923 73.2931 23.6974 72.4124 24.3546C72.0295 24.6252 71.5699 24.8184 71.1104 24.9731C70.8807 30.4625 73.2548 35.9519 76.7395 40.4749C78.7691 42.9877 81.373 44.9592 84.2833 46.3122C84.4748 46.1963 84.7045 46.0803 84.9343 45.9643C89.338 43.6449 94.8139 44.1087 99.1028 41.5573C99.524 41.2867 99.9452 41.0161 100.328 40.7455C98.3752 41.596 96.2691 42.0212 94.1629 42.3305C93.2056 42.4851 92.2483 42.6011 91.291 42.6011C89.5295 42.6011 87.768 42.2145 86.0448 41.7893C84.1684 41.364 82.2538 40.9001 80.7603 39.7404C79.3435 38.658 78.3861 37.073 77.6586 35.4107C76.4715 32.7433 75.6673 29.8053 76.1651 26.906C76.3183 26.0168 76.5864 25.1277 77.1225 24.4319C77.7734 23.5814 78.7308 23.0015 79.6498 22.4603C80.9518 21.6872 82.2538 20.9527 83.7089 20.4888C85.6236 19.9089 87.6914 19.9476 89.7209 19.9476C90.8697 19.9862 92.0185 19.9862 93.129 20.2568C94.2395 20.5661 95.3117 21.1073 96.3074 21.6485C98.4518 22.8082 100.558 24.0453 102.358 25.7076C104.157 27.4085 105.996 30.1532 106.34 32.666C106.685 35.2174 104.655 37.9235 102.664 39.3538C102.779 39.3152 102.932 39.2765 103.047 39.2378C104.54 38.8513 106.149 39.1992 107.604 38.8126C108.025 38.2714 108.485 37.4982 108.982 36.5705C110.667 33.2845 112.429 28.0657 112.429 23.4654C112.429 23.1175 112.429 22.7696 112.391 22.4217C112.084 17.6667 109.404 14.0329 107.719 12.3319C106.187 12.1387 104.617 11.6361 103.315 11.0562C96.4222 8.07957 89.2231 11.7134 82.5601 13.9942Z" fill="#F8D8C9"/>
<path d="M98.873 9.20048C95.3117 9.04585 91.7505 9.78035 88.2658 10.5149C87.5765 10.6695 84.5514 11.6746 81.2198 13.9554C81.6794 14.0714 82.1389 14.1487 82.5601 13.9941C89.2231 11.6746 96.4222 8.04075 103.468 11.1334C104.77 11.7132 106.34 12.2158 107.872 12.4091C107.412 11.9452 107.029 11.6359 106.8 11.4813C104.464 10.0123 101.63 9.2778 98.873 9.20048Z" fill="white"/>
<path d="M94.7755 47.008C95.6563 46.2735 96.537 45.539 97.5709 44.8818C96.537 45.539 95.6563 46.3122 94.7755 47.008C94.7755 47.0467 94.7755 47.0467 94.7755 47.008Z" fill="#F8D8C9"/>
<path d="M106.455 32.7436C106.11 30.2308 104.272 27.4474 102.473 25.7851C100.711 24.1228 98.5666 22.9244 96.4222 21.7261C95.3883 21.1848 94.3544 20.605 93.2439 20.3344C92.1334 20.0638 90.9846 20.0251 89.8358 20.0251C87.8063 19.9864 85.7767 19.9478 83.8238 20.5663C82.3686 20.9916 81.0666 21.7647 79.7647 22.5379C78.8456 23.0791 77.8883 23.6203 77.2373 24.5094C76.7012 25.2439 76.4332 26.133 76.28 26.9835C75.7822 29.8442 76.548 32.8209 77.7734 35.4883C78.501 37.1119 79.4583 38.7355 80.8752 39.8179C82.4069 40.9777 84.3216 41.4416 86.1596 41.8668C87.8828 42.2534 89.6443 42.6786 91.4058 42.6786C92.3631 42.6786 93.3205 42.5627 94.2778 42.408C96.3839 42.0988 98.5283 41.6735 100.443 40.8231C101.209 40.3205 101.936 39.818 102.779 39.5087C104.732 38.001 106.8 35.295 106.455 32.7436Z" fill="#FACF0E"/>
<path d="M21.5206 29.3027C21.4823 29.3414 21.4823 29.3801 21.444 29.4187C20.8313 30.6944 20.1803 32.0088 19.9123 33.4005C19.7591 34.2896 19.7591 35.2561 20.1803 36.1065C20.2569 36.2998 20.3718 36.4545 20.525 36.6091C20.7547 36.9183 21.0611 37.1889 21.4057 37.4209C22.6694 38.3487 24.2394 38.6579 25.7712 38.8512C23.4353 36.0679 21.7121 32.7819 21.5206 29.3027Z" fill="#CB7334"/>
<path d="M23.8948 25.3985C22.8992 26.5583 22.1716 27.9113 21.5206 29.303C21.7121 32.7822 23.4353 36.0681 25.7712 38.8515C25.9243 38.8901 26.1158 38.8901 26.269 38.9288C31.0939 39.5087 35.9189 39.7793 40.7821 39.6633C42.0458 38.8128 43.3478 38.001 44.6497 37.1892C45.2624 36.8026 45.8751 36.416 46.4495 35.9521C46.909 35.5655 47.3303 35.1017 47.7898 34.7151C48.9386 33.71 50.3171 33.0528 51.5808 32.241C53.5721 30.9653 55.3335 29.2643 56.6738 27.3314C56.1377 27.486 55.6016 27.5247 55.0272 27.486C55.2187 26.9448 55.6016 26.5196 56.0611 26.2103C55.1038 26.4036 54.1847 26.6742 53.2657 26.9835C53.4189 26.249 54.0316 25.6305 54.7591 25.4372C53.3423 25.5531 51.8871 25.7078 50.4703 25.3985C51.6574 24.7413 52.9594 24.2388 54.2996 23.8909C53.955 23.7362 53.5721 23.5816 53.2274 23.4656C52.8445 23.311 52.4233 23.195 52.0403 23.079C53.1891 22.9244 54.3379 22.7311 55.4867 22.4992C55.1038 22.1513 54.606 21.958 54.1082 21.958C55.0655 21.8806 56.0228 21.9966 56.9419 22.2286C56.8653 22.0739 56.7887 21.958 56.7121 21.8033C49.4747 18.7494 41.4331 17.6283 33.7745 19.0973C31.4769 20.1024 29.3324 21.3781 27.2263 22.7311C26.1924 23.3883 25.1968 24.0841 24.316 24.9346C24.1629 25.0892 24.048 25.2439 23.8948 25.3985Z" fill="#EA9459"/>
<path d="M56.712 21.8029C56.5589 21.571 56.4057 21.339 56.2142 21.1458C56.2525 21.1458 56.2908 21.1458 56.3674 21.1458C55.9462 20.8751 55.525 20.6045 55.0654 20.3726C53.1508 19.2515 51.1978 18.2077 49.0917 17.5506C49.0151 17.5119 48.9385 17.5119 48.8619 17.4732C45.1858 16.3908 41.2033 16.6614 37.5272 17.7439C36.2635 18.1304 34.9998 18.5943 33.7744 19.1355C41.4714 17.6279 49.4746 18.749 56.712 21.8029Z" fill="#FFFEFC"/>
<path d="M89.989 70.7438C89.989 70.7052 89.989 70.6279 90.0273 70.5892C88.4573 70.6279 86.849 70.6279 85.279 70.5506C84.9726 69.932 84.628 69.2748 84.3216 68.6177C83.1345 66.2209 82.0623 63.7854 81.4496 61.234C81.1816 60.1129 80.9901 58.9918 80.9135 57.8321C78.616 57.5228 76.3184 57.2522 74.0591 56.943C73.3315 56.8657 72.6039 56.7497 71.8381 56.6724C71.5317 58.0254 71.3019 59.4171 71.0722 60.7701C70.4212 64.7132 69.5788 68.6563 68.5831 72.5221C69.0809 72.5221 69.5788 72.5221 70.0766 72.5221C77.0076 72.5221 83.709 71.9809 90.0273 70.9758C90.0273 70.9758 90.0273 70.9758 90.0273 70.9371C89.989 70.8985 89.989 70.8212 89.989 70.7438Z" fill="#DC5047"/>
<path d="M123.419 40.4751C119.475 40.4751 114.994 39.5859 110.897 40.0112C111.931 42.5626 112.391 45.346 113.195 48.0134C113.233 48.1293 113.271 48.2453 113.31 48.3613C113.654 49.4824 114.114 50.6421 115.033 51.3766C115.109 51.4153 115.148 51.4539 115.224 51.5312C118.709 51.1447 122.155 50.7194 125.602 50.2555C125.946 48.5932 126.176 46.8923 126.214 45.1913C126.253 43.5677 126.1 41.8281 125.066 40.591C124.529 40.4751 123.955 40.4364 123.419 40.4751Z" fill="#BD3408"/>
<path d="M110.897 40.0109C114.956 39.5856 119.475 40.4748 123.419 40.4748C123.955 40.4361 124.529 40.4748 125.104 40.5908C125.065 40.5134 124.989 40.4748 124.951 40.3975C123.649 39.0831 121.581 39.0444 119.704 39.0444C118.173 39.0831 116.603 39.0831 115.071 39.1218C113.616 39.1604 112.122 39.1604 110.667 39.3537C110.744 39.547 110.82 39.7016 110.897 39.8949C110.859 39.9722 110.897 39.9722 110.897 40.0109Z" fill="#F1AB77"/>
<path d="M82.6367 47.4718C81.8325 46.5054 80.9518 45.6549 79.9561 44.8817C78.0415 43.4127 75.7439 42.4463 74.2122 40.6294C73.4846 39.7402 72.9102 38.6965 72.106 37.9233C71.9529 37.7687 71.7997 37.6141 71.6082 37.4981C71.187 37.1888 70.7275 36.9182 70.268 36.6476C69.0043 35.9904 67.664 35.4879 66.5535 34.5987C65.4813 33.7096 64.7537 32.5112 63.9113 31.3901C63.6815 31.8154 63.4901 32.2406 63.2986 32.6658C64.9452 34.6761 66.745 36.2997 69.0809 37.2275C70.9955 38.0006 71.7231 40.4747 73.4463 41.8278C75.7439 43.5674 78.1946 44.8817 79.9178 47.0079C80.3391 47.5105 80.7603 47.9744 81.1815 48.4383C81.6793 48.129 82.1388 47.8197 82.6367 47.4718Z" fill="#FFC694"/>
<path d="M57.1334 27.2158C56.9802 27.2545 56.8271 27.3318 56.6739 27.3704C55.2953 29.3033 53.5722 31.0043 51.5809 32.28C50.3172 33.0918 48.9387 33.749 47.7899 34.7541C47.3304 35.1407 46.9091 35.6046 46.4496 35.9912C45.8752 36.4551 45.2625 36.8416 44.6498 37.2282C43.3479 38.04 42.0842 38.8519 40.7822 39.7023C38.2549 41.3646 35.7275 43.1042 33.2767 44.8825C32.6258 45.3464 31.8982 45.8489 31.1323 46.3515C31.6301 46.8154 32.3577 47.1246 33.047 47.2406C33.0853 47.2406 33.1236 47.2406 33.1619 47.2406C33.8894 46.6221 34.5787 45.9649 35.268 45.3077C36.2253 44.5346 37.3741 44.3413 38.2932 43.5681C39.2505 42.9882 39.6334 41.8285 40.3993 41.4419C43.6159 39.509 46.6794 38.1947 49.5131 35.4886C51.9255 32.8985 55.7166 31.8548 57.7078 28.6848C57.1717 28.8395 56.6356 28.9941 56.0995 29.1487C56.4441 28.4915 56.7888 27.873 57.1334 27.2158Z" fill="#FFC694"/>
<path d="M62.8391 30.269C62.6477 30.617 62.4562 30.9262 62.2264 31.2742C62.4945 31.6607 62.7625 32.0087 63.0306 32.3566C62.9923 31.6607 62.9157 30.9649 62.8391 30.269Z" fill="#FFC694"/>
<path d="M78.5392 49.7526C79.4966 49.4433 80.339 48.9794 81.1815 48.4382C80.7603 47.9743 80.339 47.5104 79.9178 47.0079C78.1946 44.8817 75.7438 43.5673 73.4462 41.8277C71.723 40.4747 70.9955 38.0006 69.0808 37.2274C66.7449 36.2996 64.9069 34.676 63.2985 32.6658C63.2602 32.7817 63.1837 32.8977 63.1454 33.0137C63.1071 32.8204 63.1071 32.5884 63.0688 32.3952C62.8007 32.0472 62.5327 31.6993 62.2646 31.3127C61.9966 31.738 61.7668 32.1632 61.4988 32.6271C60.9627 31.8539 60.618 30.9648 60.5031 30.037C60.0819 30.4236 59.6224 30.7715 59.1246 31.0808C59.1629 30.5782 59.1629 30.1143 59.2012 29.6118C58.5119 29.9211 57.8609 30.2303 57.1716 30.5782C57.3631 29.9597 57.5546 29.3412 57.7843 28.7227H57.746C55.7931 31.8926 51.9637 32.8977 49.5513 35.5265C46.7176 38.1938 43.6541 39.5469 40.4375 41.4798C39.6716 41.8663 39.2887 43.0261 38.3314 43.606C37.374 44.3791 36.2252 44.5724 35.3062 45.3456C34.6169 46.0027 33.8894 46.6599 33.2001 47.2785C33.4298 47.3171 33.6979 47.3171 33.9276 47.3558C34.3106 47.3558 34.6935 47.3558 35.0764 47.3558C35.2296 47.3558 35.3445 47.3558 35.4977 47.3558C35.7657 47.3558 36.0338 47.3558 36.3018 47.3944C38.1016 47.5104 39.8248 48.2836 41.6246 48.2836C41.7778 48.2836 41.9692 48.2836 42.1224 48.2836C42.199 48.2836 42.3139 48.2836 42.3904 48.2836C42.6585 48.2449 42.9265 48.2062 43.1946 48.1676C44.1519 47.9743 45.071 47.665 46.0283 47.3558C51.3511 45.5775 56.6738 43.7219 62.2263 42.9488C62.3795 42.9101 62.5327 42.9101 62.7241 42.8715C63.1454 42.8328 63.6049 42.7555 64.0261 42.7168C64.2559 42.6782 64.5239 42.6782 64.7537 42.6782C64.792 42.6782 64.8303 42.6782 64.8686 42.6782C65.0217 42.6782 65.1749 42.7168 65.3281 42.7941C65.711 42.9488 66.0174 43.2967 66.2854 43.6446C68.3532 46.0801 70.6125 48.3222 73.0633 50.3324C73.4462 50.6417 73.8675 50.9896 74.2504 51.2989C74.1355 51.4149 74.0589 51.5695 73.9823 51.6855C75.8587 51.2989 77.7734 50.951 79.6497 50.7963C79.3051 50.3324 78.9605 50.0232 78.5392 49.7526Z" fill="#BD3408"/>
<path d="M102.779 39.3925C101.936 39.7017 101.171 40.2043 100.443 40.7068C100.022 40.9775 99.6388 41.2867 99.2176 41.5187C94.9671 44.1087 89.4528 43.6448 85.0491 45.9257C84.8194 46.0416 84.6279 46.1576 84.3981 46.2736C83.7854 46.6215 83.211 47.0467 82.5983 47.4333C82.1005 47.7426 81.641 48.0905 81.1432 48.3998C80.3008 48.941 79.4583 49.4049 78.501 49.7141C78.9222 49.9847 79.2668 50.294 79.5349 50.6806C80.1093 51.4537 80.4539 52.4202 80.6071 53.3866C80.7603 54.3531 80.7603 55.3195 80.7603 56.3246C83.7471 54.3531 86.6191 52.1496 89.6826 50.294C90.3719 49.8688 91.0611 49.4435 91.7887 49.0956C92.8609 48.5157 93.7417 47.7812 94.6607 47.0081C95.5414 46.2736 96.4605 45.5004 97.4561 44.8432C101.783 42.3305 106.378 41.5573 110.744 39.895C110.667 39.7017 110.591 39.5471 110.514 39.3538C110.438 39.1992 110.399 39.0832 110.323 38.9286C110.169 38.658 110.016 38.3874 109.748 38.2327C109.289 38.0008 108.753 38.3487 108.293 38.5807C108.063 38.6966 107.834 38.774 107.604 38.8126C106.149 39.1992 104.54 38.8513 103.047 39.2378C103.047 39.3152 102.932 39.3538 102.779 39.3925Z" fill="#D23E0F"/>
<path d="M110.284 49.8687C111.203 49.1342 112.161 48.5543 113.156 48.0131C112.352 45.3457 111.931 42.5623 110.859 40.0109C110.859 39.9723 110.82 39.9723 110.82 39.9336C106.455 41.5959 101.821 42.369 97.5326 44.8818C96.4987 45.539 95.6179 46.3122 94.7372 47.008C93.8182 47.7812 92.8991 48.5156 91.8269 49.0955C91.1376 49.4821 90.4483 49.8687 89.7208 50.2939C86.7722 52.1108 83.7853 54.3143 80.7985 56.3246C80.7985 56.8271 80.7985 57.291 80.8368 57.7936C80.8368 57.8322 80.8368 57.8322 80.8368 57.8322C80.9133 58.9919 81.1048 60.113 81.3729 61.2341C91.444 58.8373 101.783 56.8658 110.284 49.8687Z" fill="#FBD5D0"/>
<path d="M117.024 52.5366C116.449 52.1887 115.76 51.9568 115.224 51.5315C115.147 51.4929 115.109 51.4542 115.033 51.3769C114.114 50.6424 113.654 49.4827 113.309 48.3616C113.271 48.2456 113.233 48.1296 113.195 48.0137C112.199 48.5549 111.242 49.1347 110.323 49.8692C101.783 56.8663 91.444 58.8379 81.4495 61.2347C82.0622 63.7861 83.1727 66.2215 84.3215 68.6183C95.1201 66.956 105.612 63.3609 115.454 58.1034C116.871 57.3302 118.134 56.1318 119.475 54.9721C118.785 54.0443 118.058 53.1552 117.024 52.5366Z" fill="#D23E0F"/>
<path d="M120.892 57.2138C120.394 56.4793 119.934 55.7062 119.436 54.9717C118.096 56.1314 116.833 57.3298 115.416 58.103C105.574 63.3604 95.1203 66.9556 84.2833 68.6179C84.5897 69.2751 84.9343 69.8936 85.2407 70.5508C86.8107 70.6281 88.419 70.6281 89.989 70.5895C91.0995 70.5508 92.21 70.5122 93.3205 70.4348C104.808 68.2313 114.841 64.4429 122.462 59.572C122.462 59.5333 122.423 59.4947 122.423 59.4947C122.079 58.7602 121.428 58.0257 120.892 57.2138Z" fill="#9B2803"/>
<path d="M66.2087 43.5675C65.9407 43.2583 65.6343 42.9103 65.2514 42.717C65.0982 42.6397 64.945 42.6397 64.7919 42.6011C64.7919 42.717 64.8302 42.833 64.8685 42.949C67.166 45.8097 68.6595 49.4822 72.642 50.2167C72.7569 50.2167 72.8334 50.2167 72.9483 50.2167C70.5359 48.2451 68.2766 46.003 66.2087 43.5675Z" fill="#FFFEFC"/>
<path d="M72.6804 53.3093C71.7231 54.2757 71.1487 56.17 69.6552 55.7834C69.2723 55.5901 69.4638 53.3093 68.6979 54.0438C67.5491 55.2035 69.4638 57.6776 68.5064 58.4508C66.2089 60.3837 67.1662 63.0511 65.8642 64.984C65.6728 63.8242 66.4386 62.3166 65.2898 61.5434C64.4857 65.6798 61.9583 68.9657 59.3544 72.097C62.3795 72.329 65.443 72.4836 68.583 72.5223C69.5787 68.6565 70.4211 64.7134 71.0721 60.7703C71.3019 59.4172 71.5316 58.0255 71.838 56.6725C72.1443 55.3195 72.5655 54.0051 73.2165 52.7681C73.025 52.9614 72.8336 53.1546 72.6804 53.3093Z" fill="#9B2803"/>
<path d="M65.8642 65.0225C67.2045 63.0896 66.2472 60.4222 68.5065 58.4893C69.4638 57.7161 67.5491 55.242 68.6979 54.0823C69.4638 53.3091 69.2723 55.6286 69.6553 55.8219C71.187 56.2085 71.7614 54.2756 72.6804 53.3478C72.8336 53.1545 72.9868 52.9999 73.1782 52.8453C73.408 52.42 73.6378 52.0334 73.9058 51.6469C73.9824 51.5309 74.0973 51.3763 74.1738 51.2603C73.7526 50.951 73.3697 50.6418 72.9868 50.2938C72.8719 50.2938 72.7953 50.2938 72.6804 50.2938C68.6979 49.5207 67.1662 45.8868 64.9069 43.0261C64.8303 42.9102 64.8303 42.7942 64.8303 42.6782C64.792 42.6782 64.7537 42.6782 64.7154 42.6782C64.7154 44.4565 64.6005 46.2348 64.1793 48.013C62.4561 55.1261 61.1542 61.8139 58.4736 68.5404C57.9758 69.7001 57.4397 70.8598 56.827 71.9809C57.6695 72.0582 58.5119 72.1356 59.3544 72.2129C61.9966 69.0429 64.4857 65.7957 65.2898 61.6593C66.4386 62.3164 65.6728 63.8628 65.8642 65.0225Z" fill="#BD3408"/>
<path d="M29.3323 43.7998C27.6474 43.2199 26.4986 43.8385 24.9669 44.4183C23.5118 44.9982 22.3247 45.1915 21.1759 46.3512C21.1376 46.3899 21.0993 46.4672 21.0227 46.5058C23.933 44.9982 27.2262 44.1864 30.3662 44.8049C30.328 44.6116 30.2514 44.457 30.1365 44.3023C29.945 44.0704 29.6387 43.9158 29.3323 43.7998Z" fill="#FFFEFC"/>
<path d="M22.7459 55.242C26.9582 53.6184 29.1026 49.3273 30.4429 45.1136C30.4046 45.0363 30.4046 44.9203 30.3663 44.843C27.2262 44.2245 23.933 45.0363 21.0227 46.544C19.9888 47.6264 19.2995 49.0181 18.6868 50.4097C18.3039 51.2602 17.9593 52.1494 17.27 52.7292C16.8871 53.0771 16.3892 53.3091 16.0446 53.6957C15.6234 54.1596 15.4319 54.8167 15.2787 55.4353C15.1256 56.0538 14.9724 56.6723 14.7809 57.2909C14.7426 57.4068 14.7426 57.4841 14.7043 57.6001C15.0873 57.8707 15.4319 58.1413 15.8148 58.4119C18.0359 57.1362 20.3717 56.0925 22.7459 55.242Z" fill="#BD3408"/>
<path d="M33.0468 47.2012C32.3576 47.0852 31.63 46.7759 31.1322 46.3121C30.9024 46.1188 30.7493 45.8868 30.6344 45.6162C30.4046 46.3507 30.5578 47.2398 31.2854 47.5491C32.2427 47.8197 33.1234 47.6651 33.8893 47.2785C33.6595 47.2785 33.3915 47.2398 33.1617 47.2012C33.1234 47.2012 33.0851 47.2012 33.0468 47.2012Z" fill="#FFFEFC"/>
<path d="M35.0382 47.2791C34.6553 47.2791 34.2723 47.2791 33.8894 47.2791C33.1236 47.6657 32.2428 47.8203 31.2855 47.5497C30.5196 47.2404 30.3664 46.3513 30.6345 45.6168C30.5962 45.5395 30.5579 45.4622 30.5579 45.4235C30.5196 45.3075 30.4813 45.2302 30.4813 45.1143C29.1028 49.328 26.9966 53.619 22.7844 55.2426C20.4102 56.0931 18.0743 57.1369 15.8916 58.3739C19.606 60.964 23.9715 63.2835 28.873 65.255C30.0218 63.0515 31.094 60.8094 32.0896 58.4899C33.5448 54.856 33.966 50.9516 35.0382 47.2791Z" fill="#FBD5D0"/>
<path d="M36.2636 47.317C35.9956 47.2783 35.7275 47.2783 35.4595 47.2783C35.4595 47.317 35.4595 47.3556 35.4595 47.3556C36.7997 48.7087 38.8676 49.4818 40.7822 49.2885C41.3566 49.1339 41.7013 48.67 42.1225 48.2061C41.9693 48.2061 41.7779 48.2061 41.6247 48.2061C39.7866 48.2061 38.0634 47.433 36.2636 47.317Z" fill="#FFFEFC"/>
<path d="M42.3521 48.168C42.2755 48.168 42.1606 48.168 42.084 48.168C41.7011 48.6319 41.3564 49.1345 40.7437 49.2504C38.8291 49.4437 36.7613 48.6706 35.421 47.3175C35.421 47.2789 35.421 47.2789 35.421 47.2402C35.2678 47.2402 35.1529 47.2402 34.9998 47.2402C33.9276 50.9127 33.5063 54.7785 32.0129 58.451C31.0173 60.7705 29.9451 63.0127 28.7963 65.2162C30.596 65.9507 32.4341 66.6078 34.3488 67.2264C38.2547 61.4663 41.0118 55.0491 42.3521 48.168Z" fill="#EA724C"/>
<path d="M43.1947 48.0518C43.8457 48.3611 44.6498 48.4384 45.1477 48.3224C46.105 47.9359 47.2538 47.1627 48.3643 47.1627C52.9212 46.5828 57.2866 45.6164 61.2691 43.7221C61.652 43.5675 61.9584 43.2196 62.1498 42.833C56.6356 43.6062 51.2746 45.4617 45.9518 47.24C45.0711 47.5879 44.1137 47.8972 43.1947 48.0518Z" fill="#FFFEFC"/>
<path d="M61.8817 47.936C62.4944 46.3124 62.571 44.4955 62.6858 42.7559C62.5327 42.7945 62.3795 42.7945 62.188 42.8332C61.9966 43.2198 61.6902 43.529 61.3073 43.7223C57.3248 45.6552 52.9594 46.583 48.4025 47.1629C47.2537 47.1629 46.1049 47.936 45.1858 48.3226C44.688 48.4386 43.8456 48.3613 43.2329 48.052C42.9648 48.0907 42.6968 48.1293 42.4287 48.168C41.0885 55.0104 38.2931 61.4276 34.4637 67.265C39.9397 69.0432 45.99 70.4349 52.3467 71.3241C55.6399 63.6698 59.048 56.0155 61.8817 47.936Z" fill="#FBD5D0"/>
<path d="M58.4352 68.4632C61.0775 61.7367 62.4177 55.0489 64.1409 47.9359C64.6004 46.1576 64.7153 44.3793 64.677 42.6011C64.4473 42.6011 64.1792 42.6011 63.9495 42.6397C63.5282 42.6784 63.0687 42.717 62.6475 42.7944C62.5326 44.534 62.456 46.3509 61.8433 47.9745C59.0479 56.054 55.6015 63.6696 52.27 71.3626C53.7635 71.5558 55.2569 71.7491 56.7886 71.9038C57.4013 70.7827 57.9374 69.6616 58.4352 68.4632Z" fill="#EA724C"/>
<path d="M63.1838 7.88645C63.4135 8.00242 63.605 8.04107 63.8347 8.04107C64.1411 7.73181 64.2943 7.1906 63.9879 6.92C63.7582 6.72671 63.4135 6.76537 63.1455 6.80402C61.8818 6.88134 60.733 6.22415 59.4693 5.99221C57.5547 5.64429 55.64 6.34013 53.8402 7.07463C53.9934 7.11329 54.1466 7.15194 54.2614 7.15194C57.2866 6.92 60.3501 6.53342 63.1838 7.88645Z" fill="#9AE063"/>
<path d="M56.3675 10.7472C55.2187 10.4766 54.4911 9.58746 53.7252 8.77565C53.1126 8.65967 52.4616 8.65967 51.8489 8.73699C52.9977 9.08491 54.0316 9.78075 54.7592 10.7085C54.1082 10.6699 53.4572 10.7085 52.8062 10.7085C53.9933 11.1338 55.1804 11.3271 56.3675 10.7472Z" fill="#9AE063"/>
<path d="M67.8937 8.77556C67.5108 8.38899 67.013 8.07972 66.4769 7.96375C66.2088 7.88643 65.9408 7.88643 65.6727 7.96375C65.6727 8.27301 65.6727 8.54362 65.6727 8.81422C66.4386 8.62093 67.1662 8.62093 67.8937 8.77556Z" fill="#9AE063"/>
<path d="M71.7232 16.1206C71.7232 15.5407 71.1488 15.3474 71.1488 14.9608C71.9147 15.5407 72.872 15.3474 73.4464 15.9273C73.4464 15.5407 73.255 15.3474 73.255 14.9608C73.4464 15.3474 73.8294 15.734 74.2123 15.734C74.7867 15.734 74.4038 14.9608 74.9782 14.7675C74.9782 14.9608 74.9782 15.1541 74.9782 15.3474C75.5526 15.1541 76.127 14.7675 76.7014 14.7675C76.8928 14.7675 76.3184 15.1541 76.5099 15.3474C76.8928 15.5407 77.2758 15.3474 77.6587 15.3474C77.4672 15.5407 77.0843 15.734 77.2758 15.9273C77.6587 16.1206 78.0416 15.9273 78.4245 15.9273C78.0416 16.3139 77.4672 16.3139 77.0843 16.7004C77.8501 17.1257 78.6926 17.4349 79.4968 17.7055C79.918 17.7442 80.3392 17.8602 80.7221 18.0921C80.1094 17.6282 79.4585 17.1643 78.8458 16.6618C79.1904 16.5071 79.6116 16.4298 79.9946 16.4298C79.6116 16.2365 79.2287 16.0432 78.8458 15.85C78.7692 15.8113 78.6543 15.7726 78.5777 15.734C78.9607 15.734 78.999 15.1155 78.6926 14.8835C78.3863 14.6902 77.965 14.7675 77.6204 14.8449C77.6587 14.4583 77.6587 14.0717 77.697 13.6851C77.2758 13.7238 76.8545 13.9171 76.5865 14.2263C76.5099 13.9171 76.395 13.6465 76.2035 13.3759C75.8972 13.6851 75.5526 13.9944 75.2462 14.3036C75.1696 13.8397 75.0165 13.4145 74.7867 12.9893C74.5569 13.4532 74.2889 13.9171 74.0591 14.381C73.5996 13.8397 73.1401 13.2985 72.6806 12.7573C72.4508 13.3759 72.2976 14.033 72.1828 14.6902C71.5701 14.381 70.9574 14.1104 70.3447 13.8011C70.3447 14.2263 70.4213 14.6516 70.5744 15.0768C70 14.8835 69.3873 14.8062 68.7747 14.8062C69.8469 15.1541 70.7276 15.9273 71.7232 16.1206Z" fill="#9AE063"/>
<path d="M55.0273 23.3879C55.0273 23.1946 54.8358 23.1946 54.6443 23.1946C55.7931 22.6147 58.0524 24.9342 58.0524 23.0013C58.2439 23.3879 58.6268 23.7744 58.8183 24.161C58.6268 23.7744 59.2012 23.5812 59.0098 23.1946C60.4649 25.4754 63.7581 26.5192 66.4387 25.8233C65.8643 25.6687 65.2516 25.5141 64.6389 25.4367C63.5667 25.2821 62.4562 25.1661 61.4605 24.5863C60.5415 24.0451 59.8522 23.1559 59.0864 22.3828C58.3205 21.6869 57.3632 21.0684 56.3675 21.1457C56.3292 21.1457 56.2909 21.1457 56.2144 21.1457C56.4058 21.339 56.559 21.5709 56.7122 21.8029C56.7888 21.9189 56.8654 22.0735 56.9419 22.2281C56.0229 21.9962 55.0656 21.8802 54.1082 21.9575C54.606 21.9962 55.1039 22.1895 55.4868 22.4987C54.338 22.7307 53.1892 22.924 52.0404 23.0786C52.4616 23.1946 52.8446 23.3106 53.2275 23.4652C53.8019 23.3879 54.4146 23.3106 55.0273 23.3879Z" fill="#9AE063"/>
<path d="M61.3839 29.6899C61.3073 29.6899 61.1924 29.7282 61.1158 29.7282C61.1924 29.7282 61.3073 29.7282 61.3839 29.6899Z" fill="#809C36"/>
<path d="M66.9748 28.0658C65.1367 26.5195 62.303 26.2489 59.9671 26.0942C61.6903 26.4808 63.5667 26.2875 65.2899 27.4473C63.3752 26.8674 60.5415 26.2875 59.3927 28.4137C60.9244 28.4137 62.4179 27.6406 63.9496 28.2204C62.9157 28.4137 62.3413 29.5348 61.3839 29.7281C62.6093 29.5735 63.873 29.4961 65.0984 29.6894C65.6728 29.0322 66.2855 28.5297 66.9748 28.0658Z" fill="#6A8607"/>
<path d="M68.2767 27.2536C68.9277 27.2149 69.234 27.9881 69.3489 28.6066C69.5787 29.805 69.7701 31.0034 69.885 32.2405C70.0382 32.0472 70.2296 31.8152 70.3828 31.5833C70.8423 30.8874 71.1104 30.1143 70.7657 29.4184C70.6509 29.2252 70.536 29.0705 70.3828 28.8772C70.3445 28.7999 70.2679 28.7226 70.2296 28.6453C70.0382 28.2974 69.9999 27.9108 69.9616 27.4855C69.9233 27.1763 69.885 26.867 69.8467 26.5578C67.0513 23.2332 67.0896 18.5169 65.8259 14.1872C65.8259 15.1537 65.8259 16.1201 65.8259 17.0479C65.443 15.5016 64.4857 14.3805 63.1837 13.4141C63.5666 14.5738 64.7154 15.1537 64.524 16.468C62.4178 14.7284 59.7756 12.8342 56.9419 13.6074C58.0907 14.5738 60.1585 13.9939 60.5415 15.7335C59.3927 15.5402 58.2439 14.9604 56.9419 15.5402C58.2822 16.0815 59.7373 16.3521 61.0393 17.0866C61.8817 16.8546 62.8008 16.9319 63.49 17.4731C63.9113 17.7824 64.2176 18.285 64.524 18.7489C65.7876 20.7204 68.0852 23.7744 67.8172 26.2485C67.7023 26.2098 67.5874 26.1712 67.4342 26.1325C67.664 26.5191 67.8555 26.9443 68.0086 27.3696C68.0852 27.2923 68.2001 27.2536 68.2767 27.2536Z" fill="#6A8607"/>
<path d="M64.2559 30.7336C64.4857 30.347 64.792 29.9991 65.0601 29.6512C63.8347 29.4579 62.571 29.5739 61.3456 29.6899C62.3029 29.4966 62.8773 28.3755 63.9113 28.1822C62.3795 27.6023 60.8861 28.3755 59.3544 28.3755C60.5032 26.2493 63.3369 26.8292 65.2515 27.409C63.5283 26.2493 61.652 26.4426 59.9288 26.056C62.2264 26.2106 65.0983 26.4426 66.9364 28.0276C67.1662 27.8729 67.3959 27.7183 67.6257 27.525C67.7406 27.4477 67.8555 27.3704 67.9703 27.2931C67.8172 26.8678 67.5874 26.4426 67.3959 26.056C67.0896 25.9787 66.745 25.8627 66.4386 25.7854C63.7581 26.4813 60.4649 25.4761 59.0097 23.1567C59.2012 23.5432 58.6268 23.7365 58.8183 24.1231C58.6268 23.7365 58.2439 23.35 58.0524 22.9634C58.0524 24.8963 55.7548 22.5768 54.6443 23.1567C54.8358 23.1567 55.0272 23.1567 55.0272 23.35C54.4145 23.2726 53.8019 23.3113 53.2275 23.4273C53.5721 23.5432 53.955 23.6979 54.2997 23.8525C52.9594 24.1618 51.6574 24.703 50.4703 25.3602C51.8872 25.6694 53.3423 25.5148 54.7592 25.3988C54.0316 25.5921 53.4572 26.2106 53.2657 26.9451C54.1848 26.6359 55.1038 26.3653 56.0611 26.172C55.6016 26.4813 55.2187 26.9065 55.0272 27.4477C55.5633 27.4864 56.1377 27.409 56.6738 27.2931C56.827 27.2544 56.9802 27.2158 57.1334 27.1384C56.7887 27.7956 56.4441 28.4141 56.0994 29.0713C56.6355 28.9167 57.1717 28.7621 57.7078 28.6074H57.746C57.5546 29.226 57.3631 29.8445 57.1334 30.463C57.8226 30.1537 58.4736 29.8445 59.1629 29.4966C59.1246 29.9991 59.1246 30.463 59.0863 30.9656C59.5841 30.6563 60.0436 30.3084 60.4649 29.9218C60.5797 30.8496 60.9244 31.7387 61.4605 32.5119C61.7285 32.0866 61.9583 31.6614 62.2264 31.1975C62.4178 30.8496 62.6093 30.5403 62.839 30.1924C62.9156 30.8882 62.9922 31.5841 63.0305 32.2799C63.0688 32.4732 63.0688 32.7052 63.1071 32.8985C63.1454 32.7825 63.222 32.6665 63.2603 32.5505C63.4517 32.1253 63.6432 31.6614 63.873 31.2748C64.0261 31.1589 64.141 30.9269 64.2559 30.7336Z" fill="#809C36"/>
<path d="M57.2484 17.3962C57.2867 17.7441 57.2101 18.1307 57.0186 18.44C57.3249 18.3627 57.593 18.2467 57.8228 18.0921C57.8611 18.4013 57.9376 18.7106 57.9759 19.0198C58.7418 18.324 59.546 17.6282 60.5033 17.2416C60.6565 17.1643 60.8479 17.1256 61.0011 17.087C59.7374 16.3525 58.2823 16.0818 56.9037 15.5406C58.244 14.9608 59.3545 15.5406 60.5033 15.7339C60.1204 13.9943 58.0525 14.5742 56.9037 13.6077C59.7374 12.8346 62.4179 14.7675 64.4858 16.4684C64.6772 15.1154 63.5284 14.5355 63.1455 13.4145C64.4858 14.3809 65.4431 15.5406 65.7877 17.0483C65.7877 16.0818 65.7877 15.1154 65.7877 14.1876C67.0514 18.5173 67.0131 23.2336 69.8085 26.5581C69.7702 26.1329 69.7319 25.7463 69.6554 25.3211C69.8085 25.2824 69.9234 25.2824 70.0766 25.2438C69.9234 23.4269 69.732 21.5713 69.5788 19.7543C69.7702 20.5275 69.9617 21.1074 70.1532 21.8805C70.7276 20.7208 70.7276 19.4064 70.919 18.0534C71.1105 19.0198 70.5361 20.1796 71.1105 21.1074C71.4934 19.5611 72.0678 18.2467 73.4081 17.2802C73.0252 18.2467 72.0678 19.0198 72.0678 20.1409C73.0252 19.1745 74.3654 18.4013 75.6674 18.5946C75.093 18.9812 74.7101 19.7543 74.1357 20.1409C75.6291 19.7157 77.1608 19.6384 78.7309 19.8317C78.7309 19.8317 78.7309 19.8317 78.7691 19.8317C78.0799 19.2905 77.314 18.8652 76.5098 18.5173C77.3523 18.4786 78.233 18.4013 79.0755 18.3627C78.8074 18.1694 78.5394 17.9761 78.2713 17.7828C78.6543 17.7055 79.0372 17.6668 79.4201 17.7055C78.616 17.3962 77.8118 17.1256 77.0077 16.7004C77.3906 16.3138 77.965 16.3138 78.3479 15.9272C77.965 15.9272 77.5821 16.1205 77.1991 15.9272C77.0077 15.7339 77.3906 15.5406 77.5821 15.3473C77.1991 15.3473 76.8162 15.5406 76.4333 15.3473C76.2418 15.1541 76.8162 14.7675 76.6247 14.7675C76.0503 14.7675 75.4759 15.1541 74.9015 15.3473C74.9015 15.1541 74.9015 14.9608 74.9015 14.7675C74.3271 14.9608 74.7101 15.7339 74.1357 15.7339C73.7527 15.7339 73.3698 15.3473 73.1783 14.9608C73.1783 15.3473 73.3698 15.5406 73.3698 15.9272C72.7954 15.3473 71.8381 15.5406 71.0722 14.9608C71.0722 15.3473 71.6466 15.5406 71.6466 16.1205C70.6127 15.9659 69.7319 15.1541 68.5832 14.8448C68.5449 14.8448 68.5066 14.8448 68.4683 14.8448C68.3917 15.2314 68.5449 15.5406 68.7363 15.8886C68.9278 16.1978 69.1576 16.5071 69.2724 16.8163C69.4256 17.2416 69.349 17.7441 69.3107 18.208C69.081 19.9476 68.8512 21.7259 68.6214 23.4655C68.1236 23.4269 67.9322 22.847 67.8556 22.3444C67.5875 20.7981 67.3195 19.2131 67.0897 17.6668C67.0131 17.087 66.8983 16.4684 66.9365 15.8886C66.9365 15.1154 67.128 14.3809 67.6258 13.801C68.1619 13.1825 69.0044 12.9119 69.6554 12.4093C70.3063 11.9068 70.6893 10.863 70.1149 10.2832C69.7319 9.89658 69.1193 9.89658 68.5832 9.93524C68.43 9.47134 68.1619 9.08477 67.8173 8.73684C67.0897 8.58221 66.3621 8.54355 65.5963 8.7755C65.5963 8.5049 65.5963 8.23429 65.5963 7.92503C65.558 7.92503 65.5197 7.96369 65.4814 7.96369C65.0985 8.15698 64.9453 8.62087 64.8304 9.04611C64.5624 10.2058 64.4475 11.4042 64.5624 12.564C63.6816 11.9841 63.0306 11.0563 62.8009 10.0126C62.7243 9.62598 62.686 9.16208 62.8775 8.81416C63.0689 8.46624 63.4902 8.23429 63.7965 7.96369C63.5667 7.96369 63.3753 7.88637 63.1455 7.80905C60.3118 6.45603 57.2484 6.84261 54.2232 7.0359C54.1083 7.0359 53.9551 6.99724 53.802 6.95858C54.4913 7.84771 55.5635 8.35027 56.5208 8.93013C57.4781 9.51 58.4354 10.2832 58.7035 11.4042C58.2057 11.7522 57.6313 11.1723 57.2484 10.7471C56.3293 9.66463 55.0657 8.96879 53.6871 8.69819C54.453 9.54866 55.1805 10.4378 56.3293 10.6697C55.1805 11.2496 53.9551 11.0563 52.7681 10.6311C52.5383 10.6311 52.3085 10.6697 52.0788 10.6697C52.1171 10.8244 52.1554 11.0177 52.1937 11.1723C51.7341 11.3269 51.3129 11.4816 50.8534 11.5975C51.6193 11.5975 52.3851 11.7908 53.0361 12.1774C52.6532 12.3707 52.2702 12.564 51.9256 12.7186C52.4234 12.7186 52.8829 12.7573 53.3807 12.7573C53.0361 12.9892 52.6915 13.2598 52.3468 13.4918C52.8829 13.6077 53.4573 13.6851 54.0317 13.6464C53.6871 14.033 53.2659 14.3809 52.8063 14.6515C53.3425 14.6515 53.8786 14.6515 54.4147 14.6515C54.2615 15.0381 54.07 15.4247 53.9169 15.7726C54.2232 15.7339 54.4913 15.6953 54.7976 15.6566C54.7593 15.8499 54.721 16.0818 54.6827 16.2751C55.1422 16.3138 55.5635 16.3911 56.023 16.4298C55.8315 16.7777 55.7166 17.1256 55.6783 17.5122C56.2144 17.6282 56.7506 17.5508 57.2484 17.3962Z" fill="#809C36"/>
<path d="M71.2253 24.9727C71.6848 24.8181 72.106 24.6248 72.5273 24.3542C73.4463 23.7357 74.059 22.6919 74.2888 21.6095C74.3653 21.3389 74.4036 21.0296 74.6334 20.8363C74.7866 20.7203 74.978 20.6817 75.1695 20.643C76.3949 20.3724 77.582 20.1018 78.8074 19.8312C77.2756 19.6379 75.7056 19.7152 74.2122 20.1405C74.7866 19.7539 75.1695 18.9807 75.7439 18.5942C74.4036 18.4009 73.1017 19.174 72.1443 20.1405C72.1443 18.9807 73.1017 18.2076 73.4846 17.2798C72.1443 18.2462 71.5699 19.5993 71.187 21.1069C70.6126 20.1405 71.187 18.9807 70.9955 18.0529C70.8041 19.406 70.8041 20.7203 70.2297 21.8801C70.0382 21.1069 69.8467 20.5271 69.6553 19.7539C69.8084 21.5708 69.9999 23.4264 70.1531 25.2433C70.4977 25.166 70.8807 25.0887 71.2253 24.9727Z" fill="#6A8607"/>
<path d="M79.9179 95.9104C58.4354 96.8768 36.4168 94.1708 17.2319 83.0759C14.5897 81.5296 13.4409 78.2824 10.9518 76.1562C10.9135 76.0789 10.837 76.0402 10.7604 75.9629C19.1466 92.0059 36.1488 106 70.4595 106C93.3971 106 108.523 97.418 118.556 86.3232C114.995 87.8695 111.357 89.2999 107.604 90.5369C98.5284 93.7842 89.4146 95.5238 79.9179 95.9104Z" fill="#CBD2DC"/>
<path d="M138.085 36.2998H137.702C137.702 36.5704 137.741 36.8797 137.741 37.1503C137.741 37.4209 137.741 37.6528 137.741 37.9234C137.396 46.1189 131.729 53.6572 122.5 59.6105C114.88 64.4814 104.847 68.2699 93.3587 70.4734C93.129 70.5121 92.8609 70.5507 92.6312 70.628C91.7504 70.7827 90.8697 70.9373 89.989 71.0919C83.6706 72.097 76.9693 72.6382 70.0382 72.6382C69.5404 72.6382 69.0426 72.6382 68.5447 72.6382C64.524 72.5996 60.618 72.3676 56.827 71.9811C55.2953 71.8264 53.8018 71.6331 52.3084 71.4398C45.9134 70.5507 39.9014 69.159 34.4255 67.3808C32.5108 66.7622 30.6345 66.0664 28.873 65.3706C23.9714 63.399 19.606 61.0795 15.8916 58.4894C15.5086 58.2188 15.1257 57.9482 14.7811 57.6776C8.3478 52.9227 4.09726 47.2786 2.79529 41.1707C2.79529 41.3253 2.79529 41.48 2.79529 41.6346C2.87187 43.7221 2.98675 45.9643 3.21651 48.3997C4.02067 56.7498 5.97363 66.7622 10.8369 76.0788C10.9135 76.1561 10.9517 76.1948 11.0283 76.2721C13.4791 78.3983 14.6279 81.6455 17.3084 83.1919C36.4933 94.3253 58.5119 96.9927 79.9944 96.0263C89.4911 95.6397 98.6049 93.9001 107.719 90.6528C111.471 89.3771 115.109 87.9854 118.671 86.4391C129.393 74.5325 134.256 59.6878 136.439 49.2502C137.932 41.5186 138.085 36.2998 138.085 36.2998Z" fill="url(#paint0_linear_20006_28524)"/>
<path d="M36.838 52.4207C36.6848 52.4594 36.5316 52.3434 36.3401 52.2274C36.1487 52.0728 35.9189 51.8408 35.6892 51.5316C35.4594 51.1836 35.3062 50.8357 35.2679 50.5265C35.2296 50.2172 35.3062 50.0239 35.4594 49.9853C35.6126 49.9466 35.7658 50.0239 35.9572 50.2172C36.1487 50.3718 36.3402 50.6038 36.5699 50.913C36.7997 51.2223 36.9911 51.5702 37.0294 51.8795C37.106 52.1501 36.9911 52.382 36.838 52.4207Z" fill="#B05333"/>
<path d="M39.0206 50.41C38.944 50.6806 38.5611 50.8353 38.1781 50.758C37.7952 50.6806 37.4889 50.41 37.5272 50.1008C37.5655 49.7915 37.9484 49.5982 38.3696 49.7142C38.8291 49.7915 39.0972 50.1394 39.0206 50.41Z" fill="#B05333"/>
<path d="M38.408 53.6961C38.1782 53.5414 38.2165 53.0389 38.5228 52.575C38.8675 52.1111 39.327 51.9565 39.5568 52.1497C39.7865 52.343 39.6716 52.8069 39.3653 53.2322C39.0972 53.6574 38.676 53.8507 38.408 53.6961Z" fill="#B05333"/>
<path d="M40.5906 51.4154C40.4374 51.3767 40.3225 51.2994 40.2843 51.1448C40.246 50.9902 40.246 50.7582 40.3608 50.5649C40.4757 50.3716 40.6672 50.2557 40.8204 50.2557C40.9735 50.217 41.1267 50.2943 41.2033 50.4103C41.2799 50.5263 41.3182 50.6809 41.3182 50.7969C41.3182 50.9128 41.3182 51.0288 41.2416 51.1448C41.165 51.2221 41.0884 51.2994 40.9735 51.3767C40.8969 51.4154 40.7438 51.4541 40.5906 51.4154Z" fill="#B05333"/>
<path d="M37.1444 55.7063C37.0678 55.5903 37.0678 55.4357 37.1444 55.2424C37.2209 55.0878 37.3741 54.9332 37.6039 54.8558C37.8336 54.7785 38.0634 54.7785 38.2166 54.8558C38.3697 54.9332 38.4846 55.0491 38.5229 55.2038C38.5612 55.3584 38.4846 55.513 38.408 55.629C38.3314 55.745 38.1783 55.8609 38.0251 55.8996C37.8719 55.9769 37.7187 55.9769 37.5656 55.9383C37.3358 55.8996 37.2209 55.8223 37.1444 55.7063Z" fill="#B05333"/>
<path d="M35.6508 54.4304C35.536 54.3144 35.4977 54.1984 35.536 54.0438C35.536 53.8892 35.6509 53.7732 35.804 53.6959C35.9572 53.6186 36.1104 53.6186 36.2252 53.6572C36.3401 53.6959 36.455 53.8119 36.4933 53.9665C36.5316 54.1211 36.5316 54.2371 36.4933 54.3531C36.455 54.469 36.4167 54.5464 36.3401 54.585C36.2635 54.6237 36.1487 54.6237 36.0338 54.585C35.8806 54.585 35.7657 54.5077 35.6508 54.4304Z" fill="#B05333"/>
<path d="M36.3785 57.8322C36.3019 57.7162 36.3019 57.5616 36.3785 57.4069C36.4551 57.2523 36.57 57.1363 36.7614 57.0977C36.9529 57.059 37.1443 57.0977 37.2592 57.175C37.3741 57.2523 37.4507 57.4069 37.4507 57.5616C37.4507 57.7162 37.4124 57.8322 37.3358 57.9482C37.2592 58.0641 37.1826 58.1414 37.0678 58.1414C36.9529 58.1801 36.838 58.1414 36.7231 58.1028C36.5699 58.0641 36.4551 57.9482 36.3785 57.8322Z" fill="#B05333"/>
<path d="M34.7701 57.0979C34.6552 57.0206 34.5786 56.866 34.5786 56.7113C34.5786 56.5567 34.6935 56.3634 34.885 56.2861C35.0764 56.1701 35.2679 56.2088 35.4211 56.2861C35.5742 56.3634 35.6125 56.518 35.6125 56.634C35.6125 56.7886 35.5742 56.9046 35.5359 57.0206C35.4977 57.1366 35.4594 57.2139 35.3828 57.2525C35.3062 57.2912 35.2296 57.2912 35.1147 57.2525C35.0381 57.2139 34.885 57.1752 34.7701 57.0979Z" fill="#B05333"/>
<path d="M35.8041 60.4996C35.6892 60.4223 35.5743 60.3063 35.5743 60.1517C35.5743 59.997 35.6126 59.8424 35.7658 59.7264C35.919 59.6105 36.1104 59.5718 36.2636 59.6491C36.4168 59.6878 36.4934 59.8424 36.4934 59.997C36.5317 60.1517 36.4934 60.2676 36.4934 60.3836C36.4934 60.4996 36.4551 60.5769 36.4168 60.6156C36.3785 60.6542 36.3019 60.6542 36.187 60.6156C36.0722 60.5769 35.919 60.5382 35.8041 60.4996Z" fill="#B05333"/>
<path d="M38.2165 57.4454C37.9484 57.3295 37.8335 56.9429 38.025 56.6336C38.2165 56.3244 38.5611 56.2471 38.7909 56.4403C39.0206 56.6336 39.0589 56.9429 38.9058 57.2135C38.8292 57.4454 38.5228 57.5614 38.2165 57.4454Z" fill="#B05333"/>
<path d="M33.2384 60.4223C33.1236 60.345 33.047 60.1903 33.0853 59.997C33.1236 59.8038 33.2002 59.5718 33.3916 59.4172C33.5065 59.3399 33.5831 59.2625 33.698 59.2239C33.8129 59.1466 33.966 59.1079 34.1192 59.1079C34.2724 59.1079 34.349 59.1852 34.4255 59.2625C34.4638 59.3399 34.5021 59.4172 34.4638 59.4945C34.4638 59.5718 34.4255 59.6105 34.3872 59.6878C34.349 59.7264 34.349 59.8038 34.349 59.8424C34.349 59.8811 34.349 59.9584 34.3107 59.997C34.2724 60.0744 34.1958 60.1517 34.1192 60.229C33.966 60.3836 33.8128 60.4609 33.6597 60.4996C33.5448 60.4996 33.3533 60.4996 33.2384 60.4223Z" fill="#B05333"/>
<path d="M32.5875 63.3215C32.4343 63.2829 32.3194 63.2056 32.2811 63.0509C32.2429 62.8963 32.2811 62.703 32.4343 62.587C32.5875 62.4324 32.779 62.3937 32.8938 62.4324C33.047 62.4711 33.1236 62.587 33.1619 62.7417C33.2002 62.8963 33.2002 63.0123 33.2002 63.1282C33.2002 63.2442 33.2002 63.3215 33.1619 63.3215C33.1236 63.3602 33.047 63.3602 32.9704 63.3602C32.8938 63.3602 32.7407 63.3602 32.5875 63.3215Z" fill="#B05333"/>
<path d="M33.5448 65.023C33.2768 64.907 33.2002 64.4818 33.3916 64.1725C33.5831 63.8246 33.9277 63.67 34.1958 63.8246C34.4638 63.9792 34.5021 64.3658 34.349 64.6751C34.1958 65.023 33.8129 65.1776 33.5448 65.023Z" fill="#B05333"/>
<path d="M34.9997 62.1232C34.8466 62.1619 34.7317 62.1619 34.5785 62.0846C34.4636 62.0072 34.387 61.8526 34.3488 61.6593C34.3488 61.466 34.4253 61.3114 34.5402 61.2341C34.6551 61.1568 34.8083 61.1181 34.9614 61.1568C35.1146 61.1954 35.2295 61.2727 35.3061 61.3501C35.3827 61.4274 35.4593 61.5047 35.4593 61.582C35.4593 61.6593 35.421 61.7366 35.3444 61.8526C35.2295 61.9686 35.1146 62.0846 34.9997 62.1232Z" fill="#B05333"/>
<path d="M40.1028 54.9278C40.2095 54.6954 40.0783 54.405 39.8096 54.2793C39.541 54.1537 39.2367 54.2402 39.13 54.4727C39.0233 54.7051 39.1545 54.9954 39.4232 55.1211C39.6918 55.2468 39.9961 55.1603 40.1028 54.9278Z" fill="#B05333"/>
<path d="M34.502 53.6577C34.3488 53.6964 34.1956 53.6577 34.0807 53.5417C33.9659 53.4258 33.8893 53.2325 33.8893 53.0005C33.8893 52.7686 34.0042 52.5753 34.1573 52.4593C34.3105 52.3434 34.4637 52.3433 34.5786 52.382C34.7317 52.4593 34.8083 52.5753 34.8849 52.6913C34.9615 52.8072 34.9998 52.9232 34.9615 53.0392C34.9615 53.1552 34.9232 53.2711 34.8083 53.3871C34.77 53.5417 34.6551 53.6191 34.502 53.6577Z" fill="#B05333"/>
<path d="M33.4299 57.948C33.1618 57.7934 33.1236 57.4068 33.2767 57.0589C33.3533 56.8656 33.4299 56.7883 33.5448 56.7496C33.5831 56.711 33.6597 56.711 33.698 56.6723C33.7745 56.6337 33.8128 56.595 33.8894 56.5563C33.966 56.5177 34.0426 56.5177 34.1192 56.5563C34.1958 56.595 34.2723 56.6723 34.3106 56.7883C34.3872 57.0202 34.3489 57.2908 34.2723 57.4841C34.0426 57.9094 33.6597 58.1027 33.4299 57.948Z" fill="#B05333"/>
<path d="M31.6683 62.0073C31.5151 61.9687 31.4003 61.8914 31.3237 61.7367C31.2471 61.5821 31.2471 61.4275 31.3237 61.2342C31.4003 61.0409 31.5534 60.9249 31.7066 60.8863C31.8598 60.8476 32.013 60.8863 32.1278 60.9636C32.2427 61.0409 32.3193 61.1955 32.3576 61.3115C32.3959 61.4275 32.3959 61.5434 32.3576 61.6594C32.3193 61.7754 32.2044 61.8527 32.0895 61.8914C31.9747 62.0073 31.8215 62.046 31.6683 62.0073Z" fill="#B05333"/>
<path d="M30.6726 64.1722C30.5195 64.1336 30.4046 64.0563 30.3663 63.9403C30.2897 63.8243 30.2897 63.7084 30.3663 63.5924C30.4429 63.4764 30.5577 63.4378 30.6726 63.4764C30.7875 63.4764 30.9024 63.5924 31.0173 63.7084C31.0939 63.8243 31.1704 63.9403 31.2087 64.0176C31.247 64.0949 31.2853 64.1723 31.247 64.2109C31.2087 64.2496 31.1704 64.2496 31.0556 64.2496C30.9407 64.2496 30.8258 64.2109 30.6726 64.1722Z" fill="#B05333"/>
<path d="M35.4211 63.7471C35.2679 63.7471 35.153 63.6698 35.0764 63.5152C34.9999 63.3992 34.9999 63.2059 35.1147 63.0513C35.1913 62.8967 35.3828 62.8193 35.4977 62.8193C35.6508 62.8193 35.7657 62.8967 35.8423 63.0513C35.9189 63.1673 35.9572 63.3219 35.9955 63.3992C36.0338 63.5152 36.0338 63.5925 36.0338 63.6312C35.9955 63.6698 35.9189 63.7085 35.8423 63.7085C35.7274 63.7471 35.5743 63.7471 35.4211 63.7471Z" fill="#B05333"/>
<path d="M32.128 65.6418C31.9748 65.6418 31.8599 65.6031 31.7451 65.4871C31.6685 65.4098 31.6302 65.2552 31.6685 65.1392C31.7068 65.0232 31.8216 64.9459 31.9365 64.9073C32.0514 64.8686 32.2046 64.9073 32.3194 64.9846C32.4343 65.0619 32.5492 65.1392 32.6258 65.2165C32.7024 65.2938 32.7407 65.3711 32.7024 65.4485C32.7024 65.5258 32.6258 65.5644 32.5109 65.6031C32.4343 65.6418 32.2812 65.6804 32.128 65.6418Z" fill="#B05333"/>
<path d="M91.827 62.9736C91.7122 63.2442 91.3292 63.3602 90.9846 63.2829C90.64 63.2055 90.3336 62.8963 90.3719 62.6257C90.4102 62.3164 90.7931 62.1231 91.2526 62.2391C91.6739 62.3551 91.9419 62.703 91.827 62.9736Z" fill="#AC411F"/>
<path d="M97.3412 62.3547C97.4178 62.6253 97.1881 62.9732 96.8051 63.1665C96.6137 63.2438 96.5371 63.2825 96.4222 63.2438C96.3839 63.2438 96.3073 63.2438 96.2307 63.2438C96.1542 63.2438 96.0776 63.2438 96.001 63.2438C95.9244 63.2438 95.8478 63.2052 95.8095 63.1278C95.7712 63.0505 95.7329 62.9345 95.7712 62.8186C95.8478 62.548 96.0776 62.316 96.3073 62.2C96.8051 61.9681 97.2647 62.0841 97.3412 62.3547Z" fill="#AC411F"/>
<path d="M99.5623 59.9201C99.6389 60.1907 99.4857 60.5386 99.1793 60.6933C98.873 60.8479 98.5283 60.8479 98.3369 60.6159C98.2603 60.5 98.222 60.3453 98.2986 60.1907C98.3369 60.0361 98.49 59.8814 98.6815 59.7655C98.873 59.6495 99.0644 59.6495 99.2559 59.6882C99.4091 59.6882 99.524 59.8041 99.5623 59.9201Z" fill="#AC411F"/>
<path d="M87.2874 64.6249C87.5541 64.4953 87.6737 64.1874 87.5544 63.9373C87.4352 63.6873 87.1222 63.5897 86.8555 63.7193C86.5887 63.849 86.4691 64.1568 86.5884 64.4069C86.7077 64.657 87.0206 64.7546 87.2874 64.6249Z" fill="#AC411F"/>
<path d="M86.9282 67.295C87.0381 67.0174 86.8406 66.6769 86.4871 66.5343C86.1336 66.3917 85.758 66.5011 85.6481 66.7787C85.5383 67.0562 85.7358 67.3968 86.0893 67.5394C86.4428 67.682 86.8184 67.5726 86.9282 67.295Z" fill="#AC411F"/>
<path d="M91.1761 64.7905C91.2143 65.0997 90.908 65.3703 90.4868 65.4863C90.0655 65.6023 89.6443 65.525 89.5294 65.2544C89.4146 64.9837 89.6826 64.5972 90.1804 64.4425C90.7165 64.3266 91.1761 64.5199 91.1761 64.7905Z" fill="#AC411F"/>
<path d="M94.3544 64.2498C94.3544 64.4044 94.3161 64.559 94.1629 64.675C94.048 64.791 93.8948 64.907 93.7034 64.9843C93.5119 65.0616 93.3204 65.0616 93.1673 65.0616C93.0141 65.0229 92.8609 64.9843 92.7843 64.8297C92.7077 64.7137 92.7077 64.5204 92.8226 64.3658C92.9375 64.2111 93.129 64.0565 93.3587 63.9405C93.6268 63.8632 93.8565 63.8632 94.048 63.9019C94.2395 63.9792 94.3544 64.0951 94.3544 64.2498Z" fill="#AC411F"/>
<path d="M95.3116 60.2684C95.3882 60.423 95.3882 60.539 95.3499 60.6936C95.3116 60.8096 95.2733 60.9255 95.1968 61.0029C95.1202 61.0802 95.0053 61.1188 94.8521 61.1188C94.7372 61.1188 94.5841 61.1188 94.4692 61.0415C94.3543 60.9642 94.2777 60.8482 94.2777 60.6549C94.2777 60.5003 94.3543 60.307 94.5075 60.191C94.6606 60.0364 94.8521 59.9977 95.0053 60.0364C95.1202 60.0364 95.235 60.1524 95.3116 60.2684Z" fill="#AC411F"/>
<path d="M87.1936 61.5438C86.8872 61.5825 86.6192 61.4279 86.6192 61.1959C86.5809 60.9253 86.8106 60.732 87.117 60.6934C87.4233 60.6934 87.6531 60.848 87.6914 61.0799C87.6914 61.2732 87.4999 61.4665 87.1936 61.5438Z" fill="#AC411F"/>
<path d="M84.5896 62.7415C84.2833 62.7802 84.0152 62.5482 83.9003 62.2003C83.7855 61.8524 83.862 61.5045 84.1301 61.3498C84.3981 61.1952 84.7811 61.4271 84.8959 61.8524C85.0491 62.3163 84.8959 62.7028 84.5896 62.7415Z" fill="#AC411F"/>
<path d="M89.8043 62.7804C90.136 62.4823 90.2453 62.0596 90.0484 61.8364C89.8516 61.6131 89.4231 61.6738 89.0913 61.9719C88.7596 62.2701 88.6503 62.6927 88.8472 62.9159C89.044 63.1392 89.4725 63.0785 89.8043 62.7804Z" fill="#AC411F"/>
<path d="M93.2439 59.9581C93.2439 60.1127 93.1291 60.2287 92.9759 60.3447C92.8227 60.4607 92.5929 60.538 92.3632 60.5766C92.1334 60.6153 91.9037 60.6539 91.7122 60.6153C91.5207 60.5766 91.3676 60.538 91.291 60.3833C91.2144 60.2674 91.2527 60.0741 91.4059 59.9194C91.559 59.7648 91.8271 59.6102 92.1334 59.5329C92.4398 59.4555 92.7461 59.4942 92.9376 59.5715C93.129 59.6875 93.2439 59.8421 93.2439 59.9581Z" fill="#AC411F"/>
<path d="M103.43 61.5435C103.468 61.8527 103.2 62.1233 102.817 62.2393C102.434 62.3553 102.051 62.2393 101.936 61.9687C101.821 61.6981 102.09 61.3115 102.511 61.1955C102.97 61.0409 103.353 61.2342 103.43 61.5435Z" fill="#AC411F"/>
<path d="M105.268 57.8325C105.344 58.1031 105.038 58.451 104.579 58.6829C104.119 58.8762 103.66 58.8762 103.506 58.6056C103.353 58.335 103.621 57.9098 104.157 57.6778C104.655 57.4459 105.191 57.5232 105.268 57.8325Z" fill="#AC411F"/>
<path d="M107.719 56.0922C107.757 56.4015 107.566 56.6721 107.259 56.7881C106.953 56.904 106.608 56.7881 106.493 56.5175C106.378 56.2468 106.532 55.8989 106.953 55.7443C107.297 55.6283 107.68 55.8216 107.719 56.0922Z" fill="#AC411F"/>
<path d="M110.974 54.585C110.859 54.5076 110.782 54.353 110.782 54.1984C110.782 54.0437 110.859 53.8504 111.012 53.6958C111.165 53.5412 111.357 53.4639 111.51 53.4639C111.663 53.4639 111.816 53.5412 111.893 53.6572C111.969 53.7731 111.969 53.9278 111.969 54.0824C111.931 54.237 111.893 54.353 111.778 54.469C111.663 54.5849 111.548 54.6236 111.395 54.6623C111.242 54.6623 111.088 54.6623 110.974 54.585Z" fill="#AC411F"/>
<path d="M113.08 56.0539C112.888 55.8219 113.08 55.3967 113.501 55.1261C113.922 54.8941 114.382 54.9714 114.496 55.2807C114.611 55.5513 114.382 55.8992 113.999 56.0925C113.654 56.2858 113.271 56.2858 113.08 56.0539Z" fill="#AC411F"/>
<path d="M115.866 57.1429C115.994 57.0688 115.98 56.7983 115.833 56.5388C115.686 56.2793 115.463 56.129 115.334 56.2032C115.206 56.2773 115.22 56.5478 115.367 56.8073C115.514 57.0668 115.737 57.217 115.866 57.1429Z" fill="#AC411F"/>
<path d="M114.382 53.1164C114.267 53.1937 114.075 53.1937 113.922 53.155C113.731 53.0777 113.539 53.0004 113.348 52.8458C113.156 52.6911 113.003 52.5365 112.888 52.3819C112.773 52.2272 112.735 52.0726 112.773 51.918C112.812 51.7633 113.003 51.686 113.233 51.686C113.463 51.686 113.769 51.7633 114.037 51.9566C114.305 52.1499 114.458 52.4205 114.535 52.6138C114.496 52.8458 114.496 53.0391 114.382 53.1164Z" fill="#AC411F"/>
<path d="M116.986 54.778C116.871 54.8553 116.718 54.894 116.603 54.894C116.488 54.894 116.411 54.894 116.335 54.8553C116.258 54.8166 116.258 54.7393 116.22 54.6234C116.181 54.5074 116.181 54.3914 116.181 54.2368C116.22 54.0821 116.296 53.9662 116.449 53.8889C116.603 53.8115 116.794 53.8502 116.947 53.9662C117.1 54.0821 117.215 54.2754 117.177 54.4301C117.215 54.5847 117.139 54.7393 116.986 54.778Z" fill="#AC411F"/>
<path d="M109.672 59.0698C109.557 58.7992 109.863 58.374 110.361 58.142C110.629 58.026 110.859 57.9487 111.088 57.9487L111.395 58.6446C111.165 58.6446 111.012 58.5673 110.974 58.4126C110.897 58.258 110.974 58.1034 111.088 57.9487L111.395 58.6446C111.28 58.7992 111.05 58.9925 110.82 59.1085C110.323 59.3404 109.825 59.3404 109.672 59.0698Z" fill="#AC411F"/>
<path d="M109.289 57.6393C109.136 57.6393 109.021 57.5233 108.944 57.33C108.906 57.1368 108.906 56.8662 109.059 56.6342C109.136 56.5182 109.212 56.4023 109.327 56.3249C109.442 56.2476 109.557 56.1703 109.672 56.1703C109.787 56.1317 109.901 56.1703 109.978 56.209C110.055 56.2476 110.093 56.3249 110.093 56.4023C110.093 56.5569 110.055 56.6729 110.093 56.7888C110.093 56.8275 110.093 56.9048 110.093 56.9435C110.055 57.0208 110.055 57.0594 110.016 57.1368C109.94 57.2527 109.825 57.3687 109.71 57.446C109.557 57.6007 109.442 57.678 109.289 57.6393Z" fill="#AC411F"/>
<path d="M113.118 58.4895C113.003 58.3735 112.965 58.2575 112.965 58.1029C112.965 57.9869 113.042 57.8323 113.156 57.755C113.271 57.6777 113.424 57.6777 113.539 57.7163C113.654 57.755 113.769 57.8709 113.807 58.0256C113.922 58.2962 113.884 58.5668 113.731 58.6828C113.578 58.7987 113.31 58.7214 113.118 58.4895Z" fill="#AC411F"/>
<path d="M106.149 60.3835C106.072 60.2676 106.034 60.1129 106.11 59.9583C106.149 59.8037 106.302 59.649 106.493 59.5331C106.685 59.4171 106.915 59.4171 107.068 59.4557C107.221 59.4944 107.336 59.6104 107.412 59.765C107.451 59.9196 107.412 60.0743 107.336 60.1902C107.259 60.3062 107.144 60.4222 106.991 60.4995C106.838 60.5768 106.685 60.6155 106.532 60.5768C106.379 60.5768 106.264 60.4995 106.149 60.3835Z" fill="#AC411F"/>
<path d="M108.714 54.1984C108.484 54.0438 108.408 53.6959 108.638 53.4639C108.829 53.232 109.174 53.2707 109.365 53.5026C109.557 53.7345 109.595 54.0438 109.403 54.1984C109.25 54.3531 108.944 54.3531 108.714 54.1984Z" fill="#AC411F"/>
<path d="M110.629 51.8017C110.552 51.6857 110.514 51.5311 110.514 51.3764C110.514 51.2218 110.591 51.0285 110.82 50.7966C111.088 50.5646 111.433 50.526 111.701 50.6419C111.816 50.6806 111.893 50.7966 111.931 50.8739C111.969 50.9512 111.931 51.0285 111.893 51.1058C111.816 51.2218 111.701 51.2991 111.663 51.4151C111.625 51.4924 111.586 51.5697 111.51 51.647C111.433 51.7244 111.242 51.8403 111.05 51.9177C110.897 51.9563 110.744 51.9177 110.629 51.8017Z" fill="#AC411F"/>
<path d="M104.196 56.0927C104.043 55.8608 104.272 55.3582 104.808 55.1263C105.345 54.8557 105.881 54.9717 105.957 55.2809C106.034 55.5515 105.727 55.8995 105.268 56.1314C104.808 56.3247 104.349 56.3247 104.196 56.0927Z" fill="#AC411F"/>
<path d="M101.247 56.7499C101.171 56.634 101.171 56.4407 101.286 56.2474C101.4 56.0541 101.592 55.8608 101.86 55.7062C102.128 55.5515 102.396 55.5129 102.626 55.5515C102.856 55.5902 103.009 55.6675 103.047 55.8221C103.124 56.0928 102.817 56.4407 102.358 56.7113C101.898 56.9432 101.439 56.9819 101.247 56.7499Z" fill="#AC411F"/>
<path d="M101.553 59.572C101.285 59.4174 101.247 59.0694 101.4 58.7988C101.439 58.7215 101.515 58.6829 101.553 58.6442C101.592 58.6056 101.63 58.6442 101.668 58.6442C101.707 58.6442 101.783 58.6442 101.821 58.6056C101.86 58.6056 101.936 58.5669 101.975 58.5669C102.051 58.5669 102.128 58.5669 102.204 58.6056C102.281 58.6442 102.358 58.7215 102.358 58.8375C102.396 58.9148 102.358 59.0694 102.319 59.1854C102.319 59.2627 102.281 59.3401 102.243 59.4174C102.166 59.6493 101.821 59.7653 101.553 59.572Z" fill="#AC411F"/>
<path d="M97.2647 58.2963C97.1498 58.0257 97.3413 57.6391 97.7242 57.4072C98.1071 57.1753 98.5666 57.1753 98.7198 57.4459C98.873 57.6778 98.6815 58.103 98.2603 58.3736C97.8774 58.6056 97.4179 58.5669 97.2647 58.2963Z" fill="#AC411F"/>
<path d="M99.3325 63.1281C99.2176 63.0121 99.1793 62.8575 99.2559 62.7028C99.2942 62.5096 99.4474 62.3549 99.6771 62.2003C99.9069 62.0843 100.137 62.0457 100.29 62.0843C100.481 62.123 100.596 62.239 100.634 62.3936C100.673 62.5482 100.634 62.7028 100.558 62.8188C100.481 62.9348 100.366 63.0508 100.213 63.1281C100.06 63.2054 99.9069 63.2441 99.7537 63.2441C99.5623 63.2827 99.4091 63.2441 99.3325 63.1281Z" fill="#AC411F"/>
<path d="M81.9475 49.6367C82.0241 49.7527 81.9858 49.946 81.9475 50.062C81.9092 50.2166 81.7943 50.3712 81.6794 50.4872C81.5645 50.6032 81.4114 50.6805 81.2582 50.7578C81.105 50.7965 80.9519 50.7965 80.837 50.7192C80.7221 50.6418 80.6455 50.4872 80.6455 50.2939C80.6455 50.1006 80.7604 49.8687 80.9518 49.6754C81.1433 49.4821 81.3731 49.4048 81.5645 49.4048C81.7177 49.4434 81.8709 49.5208 81.9475 49.6367Z" fill="#AC411F"/>
<path d="M83.2493 51.454C83.2493 51.6086 83.1727 51.7246 83.0579 51.8405C82.9813 51.9565 82.8664 52.0338 82.7132 52.1111C82.5983 52.1885 82.4452 52.2271 82.292 52.2658C82.1388 52.3044 81.9857 52.3044 81.8708 52.2271C81.7559 52.1498 81.6793 51.9952 81.7176 51.8019C81.7559 51.6086 81.9091 51.338 82.1771 51.1833C82.4452 51.0287 82.7515 51.0287 82.943 51.0674C83.1727 51.1447 83.2876 51.2993 83.2493 51.454Z" fill="#AC411F"/>
<path d="M83.4407 53.2314C83.5556 53.502 83.2876 53.8885 82.8663 54.1592C82.4451 54.4298 81.9473 54.4684 81.7941 54.2365C81.6027 54.0045 81.8324 53.5406 82.3302 53.2314C82.7897 52.9221 83.3258 52.9608 83.4407 53.2314Z" fill="#AC411F"/>
<path d="M86.6191 50.1393C86.6574 50.294 86.6191 50.4486 86.5425 50.6032C86.466 50.7579 86.3511 50.8738 86.1979 51.0285C86.0447 51.1444 85.8916 51.2604 85.7384 51.2991C85.5852 51.3377 85.432 51.3764 85.2789 51.2991C85.164 51.2218 85.0874 51.0671 85.1257 50.8738C85.164 50.6806 85.2789 50.41 85.5086 50.2167C85.7384 50.0234 86.0064 49.9461 86.1979 49.9461C86.4277 49.9074 86.5808 50.0234 86.6191 50.1393Z" fill="#AC411F"/>
<path d="M86.4277 48.0132C86.4659 48.1678 86.3894 48.3225 86.3511 48.4384C86.2745 48.5544 86.1979 48.6704 86.083 48.7477C85.9681 48.825 85.815 48.8637 85.7001 48.8637C85.5469 48.8637 85.3937 48.8637 85.2789 48.7477C85.164 48.6704 85.0874 48.5158 85.1257 48.3225C85.164 48.1292 85.2789 47.9359 85.5086 47.8199C85.7384 47.704 85.9681 47.6653 86.1213 47.7039C86.2745 47.7426 86.3894 47.8586 86.4277 48.0132Z" fill="#AC411F"/>
<path d="M84.1683 49.6752C84.2449 49.9458 83.9386 50.3324 83.4407 50.487C82.9812 50.6417 82.4834 50.5644 82.4068 50.2551C82.2919 49.9845 82.6366 49.5979 83.1344 49.4433C83.6322 49.2887 84.0917 49.4046 84.1683 49.6752Z" fill="#AC411F"/>
<path d="M84.896 47.2785C85.0109 47.5491 84.9343 47.8584 84.7045 48.013C84.4748 48.1677 84.1684 48.0903 83.977 47.8584C83.7855 47.6265 83.8621 47.2785 84.1301 47.0852C84.4365 46.892 84.7811 47.0079 84.896 47.2785Z" fill="#AC411F"/>
<path d="M88.4956 45.9638C88.4956 46.2731 88.151 46.505 87.6914 46.621C87.2319 46.6983 86.8107 46.621 86.6958 46.3504C86.6575 46.1958 86.6958 46.0411 86.849 45.8865C87.0022 45.7319 87.2319 45.6159 87.5 45.5386C87.768 45.4999 88.0361 45.4999 88.2275 45.5772C88.3807 45.6932 88.4956 45.8478 88.4956 45.9638Z" fill="#AC411F"/>
<path d="M89.2997 48.1288C89.2997 48.4381 89.1082 48.67 88.8784 48.7087C88.6487 48.7474 88.4189 48.5154 88.3423 48.2448C88.2657 47.9355 88.4572 47.6649 88.7636 47.6263C89.0699 47.5876 89.2997 47.8196 89.2997 48.1288Z" fill="#AC411F"/>
<path d="M89.2997 49.9077C89.338 50.0624 89.2614 50.217 89.1466 50.333C89.0317 50.449 88.9168 50.5649 88.7636 50.6422C88.6104 50.7196 88.419 50.7582 88.2658 50.7969C88.1126 50.7969 87.9595 50.7582 87.8446 50.6809C87.7297 50.5649 87.6914 50.4103 87.768 50.217C87.8446 50.0237 87.9978 49.8304 88.2658 49.7145C88.4956 49.5985 88.7636 49.5598 88.9551 49.5985C89.1848 49.6371 89.2997 49.7531 89.2997 49.9077Z" fill="#AC411F"/>
<path d="M91.3861 47.0986C91.5916 46.9885 91.6457 46.6852 91.5069 46.4212C91.3681 46.1572 91.089 46.0324 90.8835 46.1425C90.6781 46.2526 90.624 46.5558 90.7627 46.8198C90.9015 47.0839 91.1806 47.2087 91.3861 47.0986Z" fill="#AC411F"/>
<path d="M90.0204 46.3905C90.295 46.3758 90.5048 46.1218 90.489 45.8233C90.4732 45.5248 90.2379 45.2949 89.9633 45.3096C89.6888 45.3244 89.479 45.5784 89.4948 45.8769C89.5105 46.1754 89.7459 46.4053 90.0204 46.3905Z" fill="#AC411F"/>
<path d="M91.7888 47.8969C91.8271 48.0515 91.7888 48.1675 91.7505 48.2835C91.7122 48.3995 91.6356 48.4768 91.559 48.5154C91.4825 48.5541 91.3676 48.5541 91.2527 48.5541C91.1378 48.5154 90.9846 48.4768 90.9081 48.3608C90.7932 48.2448 90.7549 48.1288 90.7549 47.9742C90.7932 47.8196 90.8698 47.665 91.0612 47.5876C91.2144 47.5103 91.4059 47.4717 91.559 47.549C91.6739 47.6263 91.7505 47.7423 91.7888 47.8969Z" fill="#AC411F"/>
<path d="M93.9331 45.848C94.0097 46.1186 93.9714 46.4278 93.78 46.5051C93.6268 46.5825 93.3587 46.5051 93.1673 46.2732C92.9758 46.0412 93.0141 45.6933 93.2822 45.5387C93.5502 45.3841 93.8565 45.5387 93.9331 45.848Z" fill="#AC411F"/>
<path d="M92.3249 45.1528C92.3632 45.462 92.2483 45.7326 92.0185 45.7713C91.8271 45.8486 91.559 45.7326 91.4058 45.462C91.3293 45.3461 91.3293 45.1914 91.3676 45.0368C91.4059 44.9208 91.5207 44.8049 91.6739 44.7275C91.8271 44.6889 91.9803 44.6889 92.0951 44.7662C92.21 44.8822 92.2866 44.9981 92.3249 45.1528Z" fill="#AC411F"/>
<path d="M95.1673 45.2445C95.4293 45.1603 95.569 44.8612 95.4792 44.5764C95.3895 44.2915 95.1044 44.1288 94.8423 44.2129C94.5803 44.297 94.4407 44.5962 94.5304 44.881C94.6202 45.1659 94.9053 45.3286 95.1673 45.2445Z" fill="#AC411F"/>
<path d="M97.677 44.2398C97.8598 44.1862 97.941 43.91 97.8584 43.623C97.7759 43.336 97.5607 43.1467 97.378 43.2003C97.1952 43.2539 97.1139 43.53 97.1965 43.8171C97.2791 44.1041 97.4942 44.2934 97.677 44.2398Z" fill="#AC411F"/>
<path d="M102.626 41.4028C102.511 41.2868 102.511 41.1322 102.549 40.9776C102.587 40.8229 102.741 40.6683 102.97 40.5523C103.162 40.475 103.392 40.475 103.545 40.5137C103.698 40.591 103.813 40.707 103.813 40.8616C103.813 41.0162 103.775 41.1709 103.698 41.2868C103.621 41.4028 103.506 41.4801 103.392 41.5574C103.277 41.5961 103.124 41.6348 103.009 41.5961C102.855 41.5574 102.741 41.5188 102.626 41.4028Z" fill="#AC411F"/>
<path d="M106.723 40.5523C106.646 40.4363 106.646 40.2817 106.685 40.127C106.761 40.0111 106.876 39.8951 107.068 39.8564C107.259 39.8564 107.412 39.8951 107.489 40.0111C107.565 40.127 107.604 40.2817 107.527 40.4363C107.489 40.5909 107.412 40.7069 107.336 40.7842C107.259 40.8615 107.221 40.9389 107.144 40.9389C107.106 40.9389 107.029 40.9002 106.953 40.8229C106.914 40.7842 106.8 40.6683 106.723 40.5523Z" fill="#AC411F"/>
<path d="M108.638 39.6241C108.599 39.4695 108.599 39.3148 108.676 39.1989C108.753 39.0829 108.906 38.9669 109.097 38.9283C109.289 38.8896 109.48 38.9669 109.595 39.0442C109.71 39.1602 109.787 39.2762 109.748 39.4308C109.748 39.5854 109.672 39.7014 109.595 39.8174C109.518 39.9334 109.404 39.972 109.289 40.0107C109.174 40.0107 109.059 40.0107 108.944 39.9334C108.791 39.856 108.676 39.7401 108.638 39.6241Z" fill="#AC411F"/>
<path d="M105.115 40.1273C105.038 40.0114 104.962 39.8954 104.962 39.7794C104.962 39.6634 105 39.5475 105.115 39.5088C105.23 39.4702 105.344 39.5088 105.421 39.5861C105.498 39.6634 105.574 39.7794 105.574 39.9341C105.613 40.0887 105.613 40.2047 105.574 40.3206C105.574 40.4366 105.574 40.4753 105.536 40.5139C105.498 40.5139 105.459 40.4753 105.383 40.4366C105.344 40.3206 105.23 40.2433 105.115 40.1273Z" fill="#AC411F"/>
<path d="M100.711 41.9051C100.558 41.6732 100.596 41.3252 100.826 41.132C101.056 40.9387 101.4 40.9 101.63 41.132C101.86 41.3252 101.822 41.7118 101.553 41.9438C101.285 42.1757 100.903 42.1371 100.711 41.9051Z" fill="#AC411F"/>
<path d="M98.6049 42.8333C98.5283 42.7173 98.49 42.5627 98.5283 42.4467C98.5666 42.3307 98.6432 42.2148 98.7964 42.1761C98.9496 42.1375 99.0644 42.1761 99.1793 42.2921C99.2559 42.3694 99.2942 42.524 99.2942 42.6787C99.2942 42.8333 99.2559 42.9493 99.2176 43.0653C99.1793 43.1812 99.141 43.2199 99.0644 43.2585C98.9878 43.2585 98.9496 43.2199 98.8347 43.1812C98.7581 43.0653 98.6815 42.9879 98.6049 42.8333Z" fill="#AC411F"/>
<path d="M106.57 46.4282C106.493 46.3509 106.761 46.003 107.297 45.5391L107.68 46.003C107.297 46.4282 106.723 47.0081 105.995 47.6266C105.268 48.2451 104.311 48.9023 103.162 49.2889C102.243 49.5981 101.324 49.7141 100.52 49.7528C99.7154 49.7914 98.9878 49.7528 98.3751 49.6755C97.188 49.5208 96.4605 49.2502 96.4988 49.0956C96.537 48.941 97.2646 48.941 98.4134 48.9023C98.9878 48.8636 99.6771 48.825 100.443 48.7477C101.209 48.6704 102.013 48.5544 102.817 48.2838C103.813 47.9359 104.693 47.3946 105.421 46.8921C106.149 46.3895 106.8 45.887 107.297 45.5777L107.68 46.0416C107.029 46.3895 106.646 46.5442 106.57 46.4282Z" fill="#E1A175"/>
<path d="M92.6695 52.0339C92.7461 52.1498 92.3249 52.5364 91.6739 53.1163C91.3676 53.3869 90.9463 53.7348 90.5634 54.1214C90.3719 54.3147 90.1422 54.508 89.9124 54.7399C89.6827 54.9719 89.4912 55.1652 89.2231 55.4358C88.7636 55.8997 88.1892 56.4022 87.5382 56.6728C86.9256 56.9434 86.3128 56.9434 85.8533 56.9434C85.3938 56.9048 85.0109 56.8274 84.7811 56.7501C84.5514 56.6728 84.3982 56.5955 84.3982 56.5182C84.3982 56.4409 84.5514 56.3635 84.7811 56.3249C85.0109 56.2862 85.3938 56.2476 85.7768 56.1703C86.198 56.0929 86.6575 56.0156 87.0787 55.7837C87.4999 55.5517 87.9212 55.1651 88.3807 54.7013C88.6104 54.4693 88.8402 54.2374 89.1083 54.0054C89.338 53.7735 89.6061 53.5802 89.8358 53.3869C90.2954 53.039 90.7549 52.7297 91.1761 52.4978C92.0568 52.0725 92.6312 51.9179 92.6695 52.0339Z" fill="#E1A175"/>
<path d="M99.9068 49.7913C99.9451 49.946 99.3707 50.1779 98.6048 50.6805C98.2219 50.9124 97.7624 51.2603 97.3029 51.6469C97.0731 51.8402 96.8433 52.0721 96.6136 52.3041C96.4987 52.4201 96.3838 52.536 96.2689 52.6907C96.1541 52.8453 96.0392 52.9613 95.9243 53.1159C95.8477 53.1932 95.7711 53.3092 95.6563 53.3865C95.5414 53.4638 95.3882 53.5411 95.2733 53.5798C95.0053 53.6571 94.8521 53.6958 94.6606 53.7344C94.316 53.8118 93.9714 53.8504 93.665 53.8891C93.014 53.9664 92.4396 54.0437 91.9418 54.0824C90.9462 54.121 90.3335 54.0824 90.3335 53.9277C90.3335 53.7731 90.9079 53.5798 91.8269 53.3092C92.2864 53.1932 92.8609 53.0386 93.4735 52.9226C93.7799 52.8453 94.1245 52.768 94.4692 52.6907C94.6606 52.652 94.8138 52.6134 94.8904 52.5747C94.9287 52.536 94.967 52.536 95.0053 52.536C95.0436 52.4974 95.0819 52.4587 95.1201 52.4201C95.1967 52.3041 95.3499 52.1108 95.4648 51.9948C95.5797 51.8402 95.7328 51.7242 95.8477 51.5696C96.1158 51.299 96.3838 51.067 96.6519 50.8738C97.2263 50.4872 97.7624 50.1779 98.2602 50.0233C99.2175 49.598 99.8685 49.6367 99.9068 49.7913Z" fill="#E1A175"/>
<path d="M82.7515 59.378C82.7898 59.4167 82.7898 59.4553 82.7132 59.5327C82.675 59.61 82.5218 59.6486 82.3686 59.61L82.0623 59.5327L82.3303 59.1847C82.4835 58.9528 82.8664 58.7208 83.2493 58.5276C83.6706 58.3343 84.1301 58.141 84.6279 57.909C85.3172 57.5998 85.8916 57.2905 86.2745 57.0199C86.6574 56.7493 86.9255 56.5173 87.0787 56.5947C87.1935 56.672 87.1553 57.0586 86.8106 57.5225C86.6574 57.7544 86.3894 58.025 86.083 58.257C85.7767 58.4889 85.4321 58.7208 85.0491 58.8755C84.513 59.1074 83.9769 59.2621 83.5174 59.378C83.0962 59.4553 82.7515 59.5327 82.5218 59.5713L82.4835 59.1461C82.4835 59.1847 82.5218 59.2234 82.5601 59.2621C82.675 59.3394 82.7132 59.3394 82.7515 59.378Z" fill="#E1A175"/>
<path d="M93.6268 53.5028C93.7034 53.5414 93.7034 53.6961 93.6268 53.928C93.5502 54.16 93.4353 54.4692 93.1673 54.8558C92.9375 55.2037 92.5546 55.5903 92.0951 55.9382C91.6356 56.2861 91.176 56.5568 90.908 56.9047C90.8314 57.0206 90.7165 57.1366 90.5633 57.2913C90.4102 57.4459 90.2187 57.5619 90.0272 57.6392C89.6826 57.7938 89.4145 57.7938 89.1465 57.8711C88.6104 57.9484 88.1126 57.9871 87.6914 57.9871C86.8489 57.9484 86.3511 57.7938 86.3894 57.6392C86.3894 57.4845 86.8872 57.4072 87.6531 57.2139C88.036 57.1366 88.4572 57.0206 88.955 56.9047C89.1848 56.8274 89.4911 56.75 89.6443 56.6727C89.7209 56.6341 89.7975 56.5954 89.8358 56.5567C89.8741 56.4794 89.9506 56.4021 90.0655 56.2475C90.2953 55.9382 90.5633 55.7063 90.8314 55.5516C91.0994 55.3584 91.3292 55.2424 91.559 55.1264C91.9802 54.8945 92.3248 54.6239 92.5929 54.3532C93.1673 53.8507 93.4736 53.4255 93.6268 53.5028Z" fill="#E1A175"/>
<path d="M104.196 50.9127C104.311 51.0286 103.928 51.6471 103.2 52.5749C103.009 52.8069 102.779 53.0775 102.511 53.3094C102.243 53.58 101.898 53.812 101.515 54.0053C100.749 54.3919 99.8303 54.5465 98.9496 54.6625C98.0305 54.7398 97.2264 54.8171 96.4605 54.8944C95.6946 54.9717 95.0436 55.0877 94.4692 55.165C93.3204 55.3197 92.5929 55.4356 92.5546 55.281C92.5163 55.1264 93.1673 54.7784 94.2778 54.4305C94.8522 54.2372 95.5415 54.0826 96.3073 53.928C96.6903 53.8506 97.1115 53.812 97.5327 53.7347C97.9539 53.696 98.3752 53.6574 98.8347 53.6187C99.7154 53.5414 100.481 53.3868 101.132 53.1548C101.439 53.0388 101.745 52.8842 101.975 52.6909C102.243 52.4976 102.473 52.3043 102.664 52.111C103.506 51.2992 104.081 50.8353 104.196 50.9127Z" fill="#E1A175"/>
<path d="M107.566 49.6368C107.642 49.7914 107.144 50.1007 106.264 50.5646C105.842 50.7965 105.306 51.0285 104.694 51.2218C104.387 51.3378 104.043 51.4151 103.698 51.4537C103.353 51.5311 102.97 51.5311 102.587 51.5697C101.86 51.6084 101.171 51.6084 100.558 51.6084C99.9452 51.6084 99.3708 51.5697 98.9112 51.5311C97.9539 51.4537 97.3795 51.3378 97.3795 51.1831C97.3795 51.0285 97.9539 50.8739 98.9112 50.7579C99.3708 50.6806 99.9452 50.6419 100.558 50.6033C101.171 50.5646 101.86 50.5259 102.587 50.4873C103.277 50.4486 103.928 50.3713 104.502 50.2553C105.076 50.1394 105.613 49.9461 106.072 49.8301C106.915 49.5982 107.489 49.4822 107.566 49.6368Z" fill="#E1A175"/>
<path d="M112.314 45.7711C112.276 45.7324 112.314 45.6165 112.429 45.5005L112.62 45.7711C112.467 46.0417 112.122 46.5056 111.51 46.9695C110.935 47.4334 110.093 47.9359 109.136 48.2452C108.523 48.4385 107.949 48.5545 107.374 48.6318C106.838 48.6704 106.34 48.6704 105.919 48.6318C105.077 48.5158 104.617 48.3225 104.655 48.1679C104.694 47.8586 106.608 47.9746 108.791 47.2401C109.672 46.9308 110.438 46.5829 111.05 46.2736C111.663 45.9644 112.122 45.6551 112.391 45.5391L112.582 45.8097C112.429 45.8484 112.352 45.8484 112.314 45.7711Z" fill="#E1A175"/>
<path d="M109.557 47.8974C109.748 48.1293 109.365 48.7865 108.638 49.3277C107.948 49.8689 107.221 50.0622 107.029 49.8303C106.876 49.5983 107.298 48.9798 107.987 48.4772C108.676 47.936 109.365 47.6654 109.557 47.8974Z" fill="#E1A175"/>
<path d="M110.667 43.9928C110.667 43.9928 110.629 44.0315 110.591 43.9928C110.552 43.9541 110.552 43.9155 110.552 43.8382C110.552 43.7995 110.591 43.7609 110.667 43.7222C110.744 43.6835 110.821 43.7222 110.897 43.7995C110.974 43.8768 110.974 43.9541 110.935 44.0315C110.935 44.0701 110.897 44.1088 110.859 44.1474C110.821 44.1861 110.744 44.2247 110.667 44.1861L110.821 44.1474C110.591 44.418 110.17 44.8433 109.557 45.3072C108.944 45.7711 108.14 46.2736 107.106 46.5056C106.417 46.6602 105.728 46.6602 105.153 46.5829C104.579 46.5056 104.081 46.3896 103.66 46.2736C103.238 46.1576 102.894 45.9644 102.702 45.8097C102.511 45.6551 102.396 45.5391 102.434 45.4618C102.511 45.3458 103.009 45.4618 103.775 45.5005C104.158 45.5391 104.694 45.5391 105.191 45.5778C105.728 45.5778 106.264 45.5778 106.838 45.4618C107.681 45.2685 108.408 44.8819 109.059 44.5727C109.71 44.2247 110.208 43.9541 110.552 43.8382L110.706 43.7609L110.667 43.9541C110.667 43.9541 110.629 43.9541 110.629 43.9155H110.667L110.706 43.9541H110.667C110.706 43.9541 110.706 43.9541 110.667 43.9928Z" fill="#E1A175"/>
<path d="M96.8434 47.5104C96.8817 47.4331 96.9966 47.4717 97.1498 47.4331C97.3029 47.4331 97.4944 47.3557 97.7625 47.2784C97.9156 47.2398 98.0688 47.1625 98.2603 47.1238C98.4517 47.0851 98.6432 47.0078 98.8347 46.9305C99.2176 46.8145 99.6771 46.6986 100.137 46.5439C100.596 46.3893 101.017 46.2733 101.4 46.1187C101.783 45.9641 102.128 45.8481 102.396 45.7321C102.97 45.5002 103.315 45.3069 103.43 45.4228C103.545 45.5388 103.315 45.9254 102.779 46.3893C102.511 46.6212 102.166 46.8532 101.783 47.0465C101.4 47.2398 100.941 47.4331 100.443 47.5877C99.9452 47.7423 99.4856 47.8196 99.0644 47.897C98.8347 47.9356 98.6432 47.9743 98.4517 47.9743C98.2603 47.9743 98.0688 48.0129 97.9156 48.0129C97.571 48.0129 97.2264 47.9356 97.0349 47.8196C96.8434 47.7037 96.8051 47.549 96.8434 47.5104Z" fill="#E1A175"/>
<path d="M107.719 42.3301C107.834 42.4074 107.604 42.91 107.106 43.5285C106.838 43.8378 106.532 44.2244 106.149 44.5723C105.766 44.9589 105.306 45.3454 104.655 45.6547C104.004 45.9253 103.315 45.964 102.779 45.9253C102.243 45.8867 101.745 45.8093 101.324 45.6934C100.902 45.5774 100.596 45.3841 100.443 45.2295C100.251 45.0748 100.175 44.9202 100.213 44.8815C100.29 44.7656 100.749 44.9202 101.477 44.9589C101.86 44.9975 102.281 44.9975 102.779 44.9589C103.277 44.9202 103.774 44.8815 104.234 44.6883C104.693 44.495 105.115 44.1857 105.498 43.8378C105.881 43.5285 106.264 43.2193 106.57 42.9873C107.183 42.5234 107.604 42.2141 107.719 42.3301Z" fill="#E1A175"/>
<path d="M96.3073 28.9937C94.1246 30.7719 91.2143 31.3518 88.4189 31.8544C87.5382 32.009 86.6191 32.1636 85.7384 32.0476C85.164 31.9703 84.5896 31.7384 83.9769 31.6997C83.0196 31.6224 82.1005 31.9317 81.2198 32.2796C81.0283 32.3569 80.8369 32.4342 80.6837 32.5502C80.2625 32.9754 80.5688 33.7099 81.0666 34.0579C82.1005 34.831 83.594 34.4831 84.8194 34.1352C84.5896 34.5217 84.8194 35.063 85.2023 35.2949C85.5852 35.5269 86.083 35.5269 86.5043 35.5269C87.3084 35.4882 88.1509 35.3336 88.7636 34.831C89.5677 34.1738 89.989 33.0141 90.9846 32.8208C91.9419 32.6275 92.8609 33.478 93.8183 33.246C94.2012 33.1687 94.5075 32.8981 94.8139 32.6275C95.2734 32.2409 95.7329 31.8543 96.1924 31.5064C96.3456 31.3905 96.4988 31.2358 96.6137 31.0425C96.8434 30.5786 96.5754 30.0761 96.3073 29.6122C96.4988 29.6122 96.6903 29.5735 96.8817 29.5735C96.9966 29.2643 96.8434 28.7617 96.5371 28.7617L96.3073 28.9937Z" fill="#E2A402"/>
<path d="M88.9933 37.1892C88.8019 37.1505 88.6487 37.0732 88.4572 37.1119C88.1509 37.1505 87.9211 37.3825 87.768 37.6144C87.6148 37.885 87.5765 38.1943 87.5382 38.4649C88.5721 38.9674 89.7592 39.0834 90.7548 39.6246C90.8697 39.6633 90.9463 39.7406 91.0612 39.7793C91.1378 39.8179 91.2526 39.8179 91.3292 39.7793C92.5163 39.7406 93.7034 39.7406 94.8905 39.7019C95.2351 38.4262 96.0776 36.1841 93.9715 36.8412C92.3249 37.4211 90.7165 37.6917 88.9933 37.1892Z" fill="#E2A402"/>
<path d="M81.6793 25.553C81.6027 25.5143 81.4879 25.437 81.4113 25.437C81.3347 25.437 81.2964 25.4757 81.2198 25.5143C80.8752 25.7463 80.5305 25.9782 80.1859 26.2102C80.071 26.2875 79.9561 26.3648 79.9178 26.4808C79.8412 26.6741 79.9944 26.8674 80.1093 26.9833C80.8752 27.7565 82.1388 27.7178 82.943 28.4137C83.1345 28.607 83.2876 28.8003 83.5174 28.9549C84.245 29.4574 85.3172 29.0322 86.0447 29.5348C85.8916 29.2255 85.7001 28.9162 85.6235 28.607C85.5469 28.259 85.5852 27.9111 85.4321 27.6019C85.164 27.0606 84.3599 26.9447 83.862 26.6741C83.1728 26.3261 82.4069 26.0169 81.6793 25.553Z" fill="#E2A402"/>
<path d="M99.1027 34.4439C98.3751 34.6758 97.6093 33.98 96.8817 34.1733C97.7625 35.0624 98.3369 36.2994 98.4134 37.5752C98.873 37.5365 99.3325 37.3432 99.7537 37.1113C100.826 36.57 101.898 36.0675 103.009 35.5263C102.97 34.7145 103.277 32.279 102.051 32.4723C100.903 32.6656 100.175 34.0959 99.1027 34.4439Z" fill="#E2A402"/>
<path d="M89.4529 26.2101C89.6826 26.7513 90.3336 26.9059 90.8697 26.9832C93.129 27.3311 95.3883 27.4858 97.6859 27.4471C98.9496 27.4471 99.8686 28.5682 100.596 29.612C101.017 28.9548 101.324 28.2589 101.554 27.5244C101.63 27.2152 101.707 26.8286 101.554 26.558C101.439 26.4033 101.285 26.2874 101.132 26.2101C99.6772 25.4756 97.8008 25.7848 96.4988 24.857C95.8478 24.3931 95.0054 24.1612 94.2012 24.2385C94.4693 24.1998 93.78 23.2334 93.3971 23.2334C92.8993 23.2334 92.7461 23.5813 92.478 23.9292C91.6356 24.8957 90.6017 25.7075 89.4529 26.2101Z" fill="#E2A402"/>
<path d="M12.9046 40.5522C12.1005 40.6682 11.2197 40.9001 10.9134 41.4413C10.6453 41.9052 10.99 42.4851 11.5261 42.833C12.0622 43.1809 12.7898 43.3355 13.479 43.4902C14.5895 43.7608 15.7766 43.9927 16.9254 43.9541C18.0359 43.9154 19.0698 43.6062 20.1803 43.4902C21.7504 43.2969 23.3587 43.4902 24.9287 43.2969C27.0731 43.0263 28.9112 42.0598 30.6344 41.0934C29.5622 40.3202 27.9922 39.9337 26.4221 39.895C24.4692 39.8177 22.5545 40.1656 20.6016 40.1656C17.9976 40.0883 15.4703 40.1269 12.9046 40.5522Z" fill="#ECCCDC"/>
<path d="M113.578 32.3956C112.505 32.7435 111.318 33.3234 111.05 34.4445C111.012 34.5604 111.012 34.7151 111.05 34.8311C111.127 34.9857 111.28 35.0243 111.395 35.1017C114.344 36.4933 117.713 36.9572 120.93 36.4547C123.649 36.0294 125.181 33.8259 122.462 32.4343C119.705 31.0426 116.411 31.4292 113.578 32.3956Z" fill="#ECCCDC"/>
<path d="M59.6224 20.2572C59.5458 20.2958 59.4692 20.3345 59.4309 20.4118C59.4309 20.4891 59.4309 20.5278 59.4692 20.6051C59.6607 20.837 59.9287 20.9917 60.2351 21.1076C60.8478 21.3396 61.4987 21.5715 61.9583 22.0354C62.3412 22.3833 62.6092 22.9246 63.1071 23.0792C63.49 23.1952 63.9112 23.0792 64.2941 22.9246C64.6771 22.8086 65.06 22.6153 65.2132 22.2674C65.2515 22.1127 65.2515 21.9968 65.2515 21.8421C65.2132 21.2236 65.1366 20.5278 64.6388 20.1412C64.0261 19.6386 63.1836 19.8706 62.4561 19.9092C61.4987 19.9092 60.5797 19.9479 59.6224 20.2572Z" fill="#ECCCDC"/>
<path d="M80.1094 55.7832C80.0711 56.0924 79.6881 56.2857 79.152 56.5177C78.884 56.6337 78.5776 56.711 78.1947 56.8269C77.8501 56.9429 77.4671 57.0589 77.0459 57.1749C76.2034 57.4068 75.3993 57.5614 74.7866 57.6001C74.1739 57.6388 73.7144 57.5228 73.5995 57.2522C73.4846 56.9816 73.7527 56.595 74.2505 56.1698C74.7483 55.7832 75.5525 55.3579 76.5098 55.0873C77.0076 54.9714 77.4671 54.894 77.9266 54.894C78.3862 54.894 78.7691 54.9327 79.1137 55.01C79.7647 55.1646 80.1476 55.5126 80.1094 55.7832Z" fill="#ECCCDC"/>
<path d="M126.636 37.5752C126.597 37.8845 126.329 38.0778 126.023 38.2324C125.678 38.387 125.257 38.4643 124.836 38.4257C124.376 38.387 123.993 38.2711 123.649 38.1164C123.342 37.9231 123.113 37.6912 123.113 37.3819C123.074 37.0727 123.266 36.8021 123.61 36.5701C123.955 36.3768 124.415 36.2222 124.951 36.2608C125.487 36.2995 125.946 36.4541 126.253 36.7247C126.559 36.9953 126.712 37.3046 126.636 37.5752Z" fill="#ECCCDC"/>
<path d="M17.4616 37.2668C17.3467 37.5374 17.0021 37.6921 16.6191 37.8467C16.4277 37.924 16.1979 38.0013 15.9298 38.04C15.6618 38.1173 15.3937 38.156 15.0491 38.2333C14.3981 38.3493 13.6705 38.3493 13.1344 38.1946C12.5983 38.04 12.292 37.7694 12.292 37.4601C12.292 37.1509 12.56 36.8803 12.9813 36.6483C13.4025 36.4164 13.9769 36.1844 14.7045 36.0684C15.0874 35.9911 15.4703 35.9911 15.815 36.0298C16.1979 36.0684 16.5042 36.1458 16.7723 36.3004C16.8872 36.3777 17.0021 36.455 17.1169 36.5323C17.1935 36.6097 17.2701 36.687 17.3467 36.7643C17.4616 36.9576 17.4999 37.1122 17.4616 37.2668Z" fill="#ECCCDC"/>
<path d="M49.8577 50.4101C49.8194 50.7193 49.0535 50.874 48.1345 50.9513C47.2154 51.0286 46.4113 50.9513 46.3347 50.6807C46.2964 50.526 46.4879 50.3714 46.7942 50.2168C47.1006 50.0622 47.5601 49.9462 48.0579 49.9075C48.5557 49.8689 49.0152 49.9462 49.3599 50.0621C49.6662 50.1395 49.8577 50.2941 49.8577 50.4101Z" fill="#FFFEFC"/>
<path d="M46.1814 56.1701C46.258 56.4794 45.7985 56.8273 45.2241 57.0206C44.6497 57.2525 44.0753 57.2912 43.9221 57.0206C43.769 56.75 44.1902 56.2861 44.8412 56.0155C45.4921 55.7835 46.1048 55.8995 46.1814 56.1701Z" fill="#FFFEFC"/>
<path d="M52.9976 52.1493C53.0359 52.4586 52.2318 52.7679 51.1596 52.8065C50.1257 52.8452 49.2832 52.6132 49.2832 52.304C49.2832 51.9947 50.0874 51.7628 51.1213 51.7241C52.1169 51.6854 52.9594 51.8401 52.9976 52.1493Z" fill="#FFFEFC"/>
<path d="M57.1716 51.145C57.1333 51.2996 56.8652 51.3383 56.4823 51.3383C56.0994 51.3383 55.6016 51.2996 55.0654 51.3383C54.5293 51.3383 54.0315 51.3769 53.6486 51.3769C53.2657 51.3769 52.9976 51.3769 52.9593 51.2223C52.921 51.1063 53.0742 50.8744 53.4571 50.6424C53.8401 50.4105 54.4145 50.2559 55.0654 50.2559C55.7164 50.2559 56.3291 50.4105 56.7121 50.6038C57.0567 50.7971 57.2482 51.029 57.1716 51.145Z" fill="#FFFEFC"/>
<path d="M54.8357 55.8221C54.7974 55.9767 54.5676 56.0154 54.2613 56.0541C53.955 56.0927 53.572 56.0541 53.1508 56.0154C52.7296 55.9767 52.3466 55.8994 52.0403 55.8221C51.7339 55.7448 51.5425 55.6288 51.5425 55.4742C51.5425 55.3196 51.6957 55.1649 52.002 55.049C52.3083 54.933 52.7679 54.8557 53.2657 54.933C53.7635 54.9716 54.1847 55.1263 54.4528 55.3196C54.7208 55.4742 54.874 55.6675 54.8357 55.8221Z" fill="#FFFEFC"/>
<path d="M49.781 55.6285C49.6661 55.8991 49.0151 55.8605 48.3258 55.7058C47.6365 55.5512 47.0621 55.2806 47.0621 54.9713C47.0621 54.8167 47.2153 54.7007 47.5217 54.6234C47.7897 54.5461 48.1726 54.5461 48.5939 54.6234C48.9768 54.7007 49.3214 54.894 49.5512 55.0873C49.7427 55.2806 49.8192 55.4739 49.781 55.6285Z" fill="#FFFEFC"/>
<path d="M43.118 67.6129C43.0414 67.7288 42.85 67.7675 42.6585 67.7675C42.467 67.7675 42.2373 67.7288 42.0075 67.6129C41.7777 67.5356 41.5863 67.4196 41.4331 67.3036C41.2799 67.1876 41.1651 67.033 41.2033 66.8784C41.2033 66.7237 41.3565 66.6078 41.548 66.5304C41.7777 66.4531 42.0841 66.4531 42.3904 66.5691C42.6968 66.6851 42.9265 66.8784 43.0414 67.0717C43.1946 67.3036 43.2329 67.4969 43.118 67.6129Z" fill="#FFFEFC"/>
<path d="M45.3772 62.5098C45.339 62.8191 44.8028 63.0124 44.1902 63.051C43.5775 63.0897 43.0031 62.9737 42.9265 62.7031C42.8499 62.4325 43.386 62.0459 44.1136 61.9686C44.8411 61.93 45.4155 62.2392 45.3772 62.5098Z" fill="#FFFEFC"/>
<path d="M50.2405 58.8371C50.2022 59.1464 49.3598 59.301 48.3641 59.4557C47.3685 59.5716 46.5261 59.6489 46.4112 59.3783C46.3729 59.2237 46.5261 59.0304 46.8324 58.8371C47.1387 58.6438 47.6366 58.4505 48.211 58.3732C48.7854 58.2959 49.2832 58.3346 49.6661 58.4506C50.049 58.5279 50.2788 58.6825 50.2405 58.8371Z" fill="#FFFEFC"/>
<path d="M24.4693 56.1316C24.4693 56.2863 24.2395 56.4022 23.8949 56.5569C23.5502 56.7115 23.0907 56.9048 22.5929 57.0981C22.0951 57.33 21.6739 57.562 21.3292 57.7166C20.9846 57.8712 20.7548 57.9872 20.64 57.8712C20.5251 57.7553 20.6017 57.4846 20.8697 57.1367C21.1378 56.7888 21.5973 56.3636 22.1717 56.093C22.7844 55.8224 23.3971 55.7064 23.8183 55.745C24.2012 55.861 24.4693 56.0156 24.4693 56.1316Z" fill="#FFFEFC"/>
<path d="M44.7637 54.2894C45.1018 54.166 45.2942 53.838 45.1935 53.5569C45.0928 53.2758 44.737 53.1481 44.3989 53.2715C44.0608 53.395 43.8684 53.723 43.9691 54.0041C44.0699 54.2852 44.4256 54.4129 44.7637 54.2894Z" fill="#FFFEFC"/>
<path d="M31.1592 50.7074C31.801 50.5719 32.2721 50.225 32.2115 49.9324C32.1509 49.6399 31.5816 49.5125 30.9399 49.6479C30.2982 49.7833 29.8271 50.1302 29.8876 50.4228C29.9482 50.7154 30.5175 50.8428 31.1592 50.7074Z" fill="#FFFEFC"/>
<path d="M91.7122 50.9512C91.7888 51.2218 91.2527 51.647 90.5251 51.9949C89.7975 52.3042 89.1083 52.4202 88.9934 52.1882C88.8402 51.9176 89.338 51.3764 90.1039 51.0285C90.8698 50.6419 91.5973 50.6806 91.7122 50.9512Z" fill="#FFFEFC"/>
<path d="M104.009 44.4056C104.673 44.0753 105.105 43.5902 104.974 43.3221C104.843 43.054 104.199 43.1044 103.535 43.4347C102.871 43.765 102.439 44.2501 102.569 44.5182C102.7 44.7863 103.345 44.7359 104.009 44.4056Z" fill="#FFFEFC"/>
<path d="M123.151 40.7841C123.113 40.9387 122.844 40.9774 122.462 41.016C122.079 41.016 121.581 41.016 121.006 41.016C120.432 41.016 119.934 41.0547 119.551 41.016C119.168 41.016 118.9 40.9387 118.862 40.8227C118.824 40.6681 119.015 40.4748 119.398 40.2815C119.781 40.0882 120.355 39.9336 121.006 39.9336C121.657 39.9336 122.232 40.0496 122.615 40.2429C122.998 40.4361 123.227 40.6294 123.151 40.7841Z" fill="#FFFEFC"/>
<path d="M53.687 61.9293C53.687 62.2386 53.2274 62.4705 52.653 62.5865C52.0786 62.7025 51.5425 62.7025 51.4277 62.3932C51.3894 62.2386 51.4277 62.0839 51.6191 61.8906C51.8106 61.736 52.0786 61.5814 52.4233 61.5041C52.7679 61.4267 53.0743 61.4654 53.304 61.5427C53.5721 61.62 53.687 61.7747 53.687 61.9293Z" fill="#FFFEFC"/>
<path d="M44.8795 44.9206C44.9178 45.0752 44.1902 45.3072 43.4243 45.6938C42.6202 46.0803 42.0458 46.5056 41.9309 46.3896C41.8926 46.3509 41.9692 46.1577 42.199 45.9257C42.4287 45.6938 42.7734 45.4232 43.1946 45.1912C43.6158 44.9593 44.037 44.8819 44.3817 44.8433C44.688 44.8046 44.8795 44.8433 44.8795 44.9206Z" fill="#C66421"/>
<path d="M49.513 43.1034C49.513 43.2581 48.6706 43.3354 47.6367 43.49C46.6028 43.6447 45.7603 43.7993 45.722 43.6833C45.6837 43.5287 46.4879 43.1421 47.5601 42.9488C48.6323 42.7942 49.513 42.9488 49.513 43.1034Z" fill="#C66421"/>
<path d="M51.6191 39.8946C51.6191 40.0492 50.815 40.2425 49.8193 40.5131C48.8237 40.7837 48.0196 40.977 47.943 40.8224C47.9047 40.7064 48.6322 40.2425 49.6662 39.9719C50.7384 39.7013 51.6191 39.7399 51.6191 39.8946Z" fill="#C66421"/>
<path d="M45.6453 42.137C45.6453 42.2917 45.0709 42.4463 44.3434 42.6783C43.6541 42.9102 43.0797 43.1421 43.0031 43.0262C42.9265 42.9102 43.4243 42.4076 44.1902 42.1757C44.9944 41.9051 45.6453 41.9824 45.6453 42.137Z" fill="#C66421"/>
<path d="M53.9551 37.0345C53.9551 37.1891 53.3041 37.3437 52.5382 37.653C51.7723 37.9236 51.1596 38.2329 51.0831 38.0782C51.0448 38.0009 51.1596 37.8463 51.3894 37.6916C51.6192 37.4984 51.9638 37.3051 52.385 37.1504C52.8063 36.9958 53.1892 36.9185 53.4955 36.9185C53.7636 36.8798 53.9551 36.9571 53.9551 37.0345Z" fill="#C66421"/>
<path d="M55.9463 41.9438C55.9463 42.0984 55.7165 42.253 55.4485 42.3303C55.1421 42.4076 54.8741 42.4076 54.8358 42.253C54.7975 42.0984 54.9889 41.9051 55.3336 41.7891C55.6399 41.7118 55.908 41.7891 55.9463 41.9438Z" fill="#C66421"/>
<path d="M52.385 41.4412C52.385 41.5958 51.9638 41.7118 51.4659 41.7891C50.9681 41.8664 50.5469 41.905 50.5086 41.7504C50.4703 41.5958 50.8533 41.3252 51.3894 41.2479C51.9638 41.1705 52.385 41.3252 52.385 41.4412Z" fill="#C66421"/>
<path d="M56.8843 38.7369C57.2785 38.6581 57.5747 38.4754 57.546 38.3288C57.5172 38.1822 57.1743 38.1272 56.7802 38.206C56.386 38.2848 56.0897 38.4675 56.1185 38.6141C56.1472 38.7607 56.4901 38.8157 56.8843 38.7369Z" fill="#C66421"/>
<path d="M54.4633 40.5895C54.7591 40.5776 54.9942 40.4469 54.9883 40.2976C54.9824 40.1482 54.7378 40.0368 54.4419 40.0487C54.1461 40.0607 53.911 40.1914 53.9169 40.3407C53.9228 40.49 54.1674 40.6014 54.4633 40.5895Z" fill="#C66421"/>
<path d="M50.7385 37.3822C50.8151 37.5368 50.5853 37.7688 50.3173 37.962C50.0492 38.1553 49.7429 38.31 49.628 38.194C49.5131 38.078 49.6663 37.7688 49.9726 37.5368C50.3173 37.3049 50.6619 37.2662 50.7385 37.3822Z" fill="#C66421"/>
<path d="M57.0951 35.1789C57.0951 35.3335 56.7888 35.4495 56.4441 35.4882C56.0995 35.5268 55.7932 35.5268 55.7549 35.3722C55.7166 35.2176 55.9846 35.0243 56.3676 34.947C56.7505 34.9083 57.0951 35.0629 57.0951 35.1789Z" fill="#C66421"/>
<path d="M59.4285 37.4535C59.6383 37.4271 59.7936 37.2854 59.7752 37.1371C59.7569 36.9888 59.5719 36.89 59.362 36.9165C59.1522 36.9429 58.9969 37.0846 59.0153 37.2329C59.0336 37.3812 59.2186 37.48 59.4285 37.4535Z" fill="#C66421"/>
<path d="M59.3154 41.8896C59.4372 41.8536 59.5023 41.7082 59.4608 41.5648C59.4193 41.4213 59.2869 41.3341 59.1651 41.37C59.0433 41.4059 58.9782 41.5514 59.0197 41.6948C59.0612 41.8383 59.1936 41.9255 59.3154 41.8896Z" fill="#C66421"/>
<path d="M52.2318 43.838C52.2318 43.9926 51.8872 44.1473 51.4277 44.3406C51.0065 44.4952 50.6235 44.6498 50.5087 44.5339C50.4321 44.4179 50.7001 44.0313 51.1979 43.838C51.7723 43.6061 52.2318 43.722 52.2318 43.838Z" fill="#C66421"/>
<path d="M59.1245 40.436C59.1245 40.5906 58.8565 40.7452 58.5501 40.8226C58.2055 40.9385 57.8992 40.9385 57.8226 40.8226C57.746 40.7066 57.9757 40.436 58.397 40.32C58.7416 40.204 59.0862 40.2813 59.1245 40.436Z" fill="#C66421"/>
<path d="M60.4265 35.1011C60.4265 35.2557 60.1201 35.4103 59.7372 35.5263C59.316 35.6036 58.9713 35.6036 58.933 35.4876C58.8947 35.333 59.2011 35.1011 59.6223 35.0237C60.0053 34.8691 60.3882 34.9464 60.4265 35.1011Z" fill="#C66421"/>
<path d="M64.5623 41.3641C64.524 41.5187 64.0261 41.4801 63.4135 41.5188C62.8008 41.5188 62.303 41.5961 62.2647 41.4414C62.2264 41.3641 62.3412 41.2481 62.5327 41.1708C62.7242 41.0549 63.0305 40.9775 63.3752 40.9775C63.7198 40.9775 64.0262 41.0162 64.2176 41.0935C64.4857 41.2095 64.6005 41.3255 64.5623 41.3641Z" fill="#C66421"/>
<path d="M65.2582 39.9705C65.3102 39.8305 64.9832 39.5772 64.5277 39.4047C64.0723 39.2322 63.6609 39.2058 63.6089 39.3458C63.5569 39.4857 63.884 39.739 64.3394 39.9115C64.7948 40.084 65.2062 40.1104 65.2582 39.9705Z" fill="#C66421"/>
<path d="M66.3237 37.7683C66.2471 37.9229 65.8259 37.8456 65.3281 37.6523C64.8302 37.459 64.4856 37.1884 64.5239 37.0725C64.5622 36.9178 65.0217 36.9565 65.5195 37.1498C66.0173 37.3044 66.362 37.6137 66.3237 37.7683Z" fill="#C66421"/>
<path d="M61.3456 39.0447C61.3456 39.1993 61.1158 39.2766 60.9244 39.3153C60.6946 39.3539 60.5031 39.3153 60.4266 39.1607C60.3883 39.006 60.5414 38.8127 60.8478 38.7741C61.1541 38.7354 61.3839 38.89 61.3456 39.0447Z" fill="#C66421"/>
<path d="M62.5327 36.8023C62.4561 36.9182 62.1881 36.9182 61.9583 36.7249C61.7286 36.5317 61.6903 36.2611 61.8052 36.1451C61.92 36.0678 62.1498 36.1451 62.303 36.2997C62.4944 36.4543 62.6093 36.6476 62.5327 36.8023Z" fill="#C66421"/>
<path d="M70.179 44.8276C70.2606 44.7029 70.0548 44.4206 69.7195 44.1971C69.3842 43.9737 69.0462 43.8936 68.9647 44.0183C68.8831 44.143 69.0889 44.4253 69.4242 44.6488C69.7595 44.8723 70.0974 44.9523 70.179 44.8276Z" fill="#C66421"/>
<path d="M70.2679 42.2917C70.153 42.369 69.9233 42.2531 69.6935 42.0598C69.4638 41.8665 69.3106 41.6732 69.3489 41.5186C69.3872 41.3639 69.7318 41.4026 70.0382 41.6345C70.3062 41.8665 70.3828 42.1757 70.2679 42.2917Z" fill="#C66421"/>
<path d="M69.3327 39.8112C69.4162 39.6878 69.314 39.4706 69.1044 39.326C68.8949 39.1815 68.6573 39.1644 68.5738 39.2878C68.4903 39.4112 68.5925 39.6284 68.802 39.7729C69.0116 39.9174 69.2492 39.9346 69.3327 39.8112Z" fill="#C66421"/>
<path d="M67.4119 42.0187C67.5333 41.9333 67.5044 41.6794 67.3473 41.4517C67.1901 41.2239 66.9642 41.1085 66.8428 41.194C66.7213 41.2794 66.7502 41.5333 66.9074 41.761C67.0645 41.9888 67.2904 42.1042 67.4119 42.0187Z" fill="#C66421"/>
<path d="M73.7143 45.9643C73.5612 46.0416 73.3314 45.771 73.0634 45.5004C72.7953 45.1911 72.5655 44.9205 72.6421 44.8046C72.6804 44.7273 72.7953 44.7273 72.9485 44.8046C73.1016 44.8432 73.2931 44.9979 73.4463 45.1525C73.5995 45.3458 73.7143 45.5391 73.7526 45.6937C73.7909 45.8097 73.7909 45.9256 73.7143 45.9643Z" fill="#C66421"/>
<path d="M73.6761 48.5158C73.5995 48.5544 73.5229 48.5158 73.4081 48.4771C73.2932 48.4384 73.14 48.3611 72.9868 48.2838C72.8337 48.2065 72.6805 48.1292 72.5656 48.0905C72.4507 48.0132 72.3741 47.9746 72.3741 47.8972C72.3741 47.8199 72.4507 47.7426 72.6039 47.7039C72.7571 47.6653 72.9868 47.704 73.2166 47.8199C73.4464 47.9359 73.5995 48.0905 73.6761 48.2452C73.7527 48.3611 73.7144 48.4771 73.6761 48.5158Z" fill="#C66421"/>
<path d="M76.2034 45.4999C76.1268 45.6159 75.7439 45.5773 75.3227 45.3067C74.9014 45.0361 74.6717 44.6881 74.7866 44.5722C74.9014 44.4562 75.2461 44.6108 75.629 44.8428C75.9736 45.1134 76.2417 45.384 76.2034 45.4999Z" fill="#C66421"/>
<path d="M76.7011 48.0132C76.548 48.0905 76.3565 47.8972 76.165 47.6653C75.9736 47.4333 75.8204 47.2014 75.897 47.0854C75.9736 46.9694 76.3182 47.0467 76.548 47.3173C76.816 47.6266 76.816 47.9745 76.7011 48.0132Z" fill="#C66421"/>
<path d="M71.9911 45.6551C71.9145 45.7711 71.6848 45.7711 71.4933 45.6551C71.3018 45.5391 71.1486 45.3845 71.1869 45.2299C71.2252 45.0752 71.4933 45.0366 71.723 45.1912C71.9911 45.2685 72.0677 45.5391 71.9911 45.6551Z" fill="#C66421"/>
<path d="M72.7949 43.3953C72.888 43.2791 72.7237 42.9889 72.4278 42.7471C72.1319 42.5053 71.8165 42.4035 71.7233 42.5196C71.6302 42.6358 71.7946 42.926 72.0905 43.1678C72.3864 43.4096 72.7018 43.5115 72.7949 43.3953Z" fill="#C66421"/>
<defs>
<linearGradient id="paint0_linear_20006_28524" x1="70.4403" y1="36.2998" x2="70.4403" y2="96.209" gradientUnits="userSpaceOnUse">
<stop stop-color="#E3E9EF"/>
<stop offset="1" stop-color="#D0D7E1"/>
</linearGradient>
</defs>
</svg>
