<svg width="150" height="142" viewBox="0 0 150 142" fill="none" xmlns="http://www.w3.org/2000/svg">
<path d="M110.938 134.61L110.61 135.621C109.034 137.642 104.439 139.272 96.8235 140.478C89.1753 141.685 80.1484 142.174 69.7429 141.945C59.8297 141.619 51.9189 140.674 45.9447 139.142C44.0409 138.653 42.4653 138.099 41.2507 137.512L39.708 136.599C38.8545 135.979 38.4278 135.327 38.4278 134.643C38.6904 132.556 42.2355 130.796 49.0631 129.394C55.8907 127.992 64.4252 127.275 74.6994 127.21C84.9736 127.275 93.5081 127.992 100.336 129.394C107.131 130.763 110.676 132.491 110.938 134.61Z" fill="#703C1A"/>
<path d="M22.0153 52.8787L17.8137 55.878C11.0189 60.703 6.29214 64.3543 3.69897 66.7668C1.69664 69.6031 0.482117 72.798 0.0553922 76.4167C-0.0430828 78.764 -0.0102578 80.4267 0.153867 81.4373C1.69664 87.7619 3.17377 92.6195 4.55242 96.01C7.37537 103.15 10.5594 109.018 14.1045 113.582C17.5511 118.277 21.9168 122.417 27.2017 126.003L32.3552 129.002C36.4255 130.698 41.2179 132.426 46.7982 134.219L49.0303 134.871H82.8729C84.6126 127.079 82.7416 107.909 77.2926 77.4274L22.0153 52.8787Z" fill="url(#paint0_linear_20002_15991)"/>
<path d="M135.557 62.3008L69.0864 67.028C67.5764 73.5156 66.5917 79.7424 66.0993 85.741C65.771 89.0664 65.6069 93.4675 65.6397 98.9445C65.8039 112.181 67.3138 123.624 70.1039 133.241C70.5635 134.317 70.8261 134.871 70.8917 134.936H95.8716C102.272 133.893 106.966 132.752 110.019 131.513C111.496 131.22 115.435 129.003 121.836 124.83C131.224 118.147 138.281 110.648 142.975 102.302C144.978 98.9119 146.521 95.228 147.637 91.2506C149.409 83.5568 150 78.7318 149.409 76.8083C149.212 75.3739 148.293 73.4504 146.619 71.0379C143.271 67.6474 139.562 64.7459 135.557 62.3008Z" fill="url(#paint1_linear_20002_15991)"/>
<path d="M142.975 69.6362L128.894 76.4173C126.793 77.6887 124.462 78.8298 121.902 79.9056C119.309 80.9814 116.486 81.9269 113.433 82.8071L108.641 84.046C102.437 85.5456 94.4273 86.7519 84.6126 87.6647C77.785 88.1537 69.4146 88.2189 59.5672 87.9255C51.2296 87.7625 40.3645 86.7192 26.9719 84.8284C24.51 84.7632 22.7375 84.9588 21.6871 85.4478C19.6191 87.7299 19.6191 89.9142 21.6214 92.0006L23.5253 93.5655C25.0352 94.6087 27.0704 95.6194 29.5979 96.63C32.1254 97.6406 35.1782 98.6187 38.6904 99.5641C43.1875 100.542 47.7501 101.325 52.3785 101.846C54.6762 102.107 57.0068 102.335 59.3702 102.498L62.8825 102.694C72.0735 103.085 80.9034 102.726 89.4051 101.683C97.2174 100.607 104.472 99.1403 111.135 97.3472C114.483 96.4344 117.667 95.4238 120.72 94.3479C122.427 93.9241 126.661 92.0658 133.456 88.8057C137.822 85.1218 140.087 82.9049 140.317 82.2203C141.433 80.7858 142.286 79.3514 142.844 77.9169C143.96 75.1132 144.026 72.3421 142.975 69.6362Z" fill="#EFC4A8" fill-opacity="0.2431"/>
<path d="M9.34487 66.1155H9.2464C8.9838 66.1155 8.7212 66.1807 8.39295 66.2459L7.96622 66.4741C7.70362 66.6371 7.47385 66.8653 7.24407 67.0935L6.94865 67.4521C6.7517 67.7129 6.58757 68.0063 6.45627 68.2998C6.32497 68.6258 6.19367 68.9518 6.12802 69.3104C6.06237 69.5386 5.99672 70.0602 5.93107 70.9079C5.89825 71.5925 5.93107 72.3097 6.02955 73.0595L6.2265 74.2006C6.39062 74.983 6.6204 75.7654 6.91582 76.5805L7.4082 77.8193C7.76927 78.6669 8.196 79.5472 8.65555 80.46C9.41052 81.7314 10.264 82.8073 11.2159 83.7201C12.135 84.6329 13.1526 85.3502 14.2358 85.8718C14.8266 86.2304 15.5488 86.426 16.4679 86.4586C17.5511 86.426 18.4046 86.1326 19.0282 85.611C19.455 85.3176 19.7176 84.9916 19.8489 84.6655C19.9802 84.2743 19.9802 83.9809 19.9145 83.8179C19.8817 83.6549 19.7176 83.4593 19.4221 83.1659C14.9251 79.8732 12.5617 78.0801 12.3648 77.7867L10.2968 67.9411C10.4609 67.4195 10.4937 66.9957 10.3953 66.7023C10.3296 66.5393 10.264 66.4415 10.1327 66.3437L9.93572 66.2459C9.7716 66.1155 9.57465 66.1155 9.34487 66.1155Z" fill="#EFC4A8" fill-opacity="0.2431"/>
<path d="M133.981 17.8H133.949C133.817 17.8327 133.686 17.8653 133.588 17.9631C132.898 18.7781 130.338 20.832 126.005 24.0595C125.677 24.3203 125.086 24.8745 124.232 25.6895C123.346 26.5046 122.197 27.8412 120.819 29.6995C120.458 30.0907 119.703 31.2643 118.488 33.1878C117.602 34.7201 116.912 36.2197 116.387 37.6542L122.361 37.1978C122.919 36.9695 123.609 36.4805 124.364 35.6655C125.02 35.0461 126.268 33.7094 128.139 31.6882C129.517 30.1885 130.666 28.6888 131.552 27.1566C132.373 25.9177 133.194 23.9943 133.981 21.3862C134.211 20.5059 134.375 19.5931 134.408 18.6151C134.342 18.1261 134.211 17.8327 133.981 17.8Z" fill="#588C0E"/>
<path d="M150 26.9285L149.048 27.3523C146.652 28.4281 144.485 29.2431 142.549 29.83C141.761 30.0256 140.94 30.2212 140.12 30.3516C137.231 30.645 135.59 30.8406 135.163 30.971C134.178 31.1666 133.259 31.3948 132.34 31.7208C131.093 32.1121 129.649 32.7315 128.073 33.5791C126.268 34.6223 125.184 35.307 124.856 35.6004C123.477 36.5784 122.164 37.7195 120.95 38.9583L124.987 39.5451C128.729 39.0887 132.636 37.9803 136.673 36.1546C139.036 35.0788 140.678 34.1007 141.63 33.2531L141.597 33.1879L137.559 34.4919C137.165 34.5897 137.034 34.5897 137.165 34.4919C140.514 32.9597 142.746 31.8512 143.862 31.1992C145.963 29.9604 147.407 29.0801 148.26 28.4933C149.278 27.7761 149.803 27.4175 149.77 27.3849C149.902 27.1567 150 27.0263 150 26.9285Z" fill="#99B234"/>
<path d="M10.3952 70.8748L10.3296 72.6352L10.9861 75.7975C12.2334 78.0796 13.1854 79.3511 13.8419 79.6119C14.7281 80.3291 15.7785 80.9811 16.9931 81.5353C19.4878 82.5786 21.5886 83.3936 23.3283 84.013C30.8452 86.5885 41.4477 88.2186 55.1685 88.9684C65.1145 89.2292 74.1086 89.2292 82.1835 88.9684C92.4249 88.2186 99.0884 87.5666 102.174 87.0449C106.507 86.3929 110.446 85.3823 114.024 83.9804C119.013 81.9266 122.066 80.5573 123.248 79.8401C125.381 78.7316 127.613 77.4928 129.878 76.1235L10.3952 70.8748Z" fill="#1D0802"/>
<path d="M92.3921 29.3086L91.5715 29.3738C88.6829 29.7976 80.5423 31.8515 67.084 35.568C60.9786 37.7523 57.1709 39.6432 55.6609 41.2406C54.709 42.0557 54.0853 43.2945 53.7571 44.9572C53.1006 47.9891 52.2143 54.5093 51.0983 64.5179L87.9607 72.0813C89.9631 70.5817 94.099 67.1912 100.27 61.9424C102.535 59.9537 104.439 58.1606 106.047 56.5632C109.231 53.4335 111.168 50.8906 111.792 48.9671C111.66 48.3151 111.299 47.6957 110.676 47.1088C103.52 40.393 98.1037 34.8182 94.3616 30.3518C94.1318 30.1236 93.8692 29.928 93.6066 29.7976L92.3921 29.3086Z" fill="#D1B28C"/>
<path d="M26.0199 37.3936L8.81964 46.0003L11.0846 76.026C11.5769 77.2322 12.1678 78.145 12.8243 78.7971L47.7173 76.1238L53.7571 62.9529L56.777 41.7947L51.6563 37.4262L26.0199 37.3936Z" fill="#E4D6C5"/>
<path d="M50.9998 37.4589L44.6974 41.9904C45.6821 53.3682 46.6669 64.7461 47.6516 76.1239H47.7173L53.7571 62.953L56.777 41.7948L51.6563 37.4263L50.9998 37.4589Z" fill="#A4753B" fill-opacity="0.1451"/>
<path d="M26.02 37.3936L12.0365 44.4028L44.5989 42.6749L51.9845 37.7522L51.6563 37.4588L26.02 37.3936Z" fill="#F1ECE6"/>
<path d="M85.3676 48.8695L103.323 80.5904L88.7485 87.8279L51.1311 87.3389L39.511 68.7236L70.5963 48.0544L85.3676 48.8695Z" fill="#F1ECE6"/>
<path d="M102.995 80.0034C97.1518 80.9163 91.3417 81.8291 85.4989 82.7093C83.0698 84.372 80.6408 86.002 78.2117 87.6647L88.7157 87.7951L103.29 80.5576L102.995 80.0034Z" fill="#CFC0A3" fill-opacity="0.2706"/>
<path d="M70.5963 48.0544L68.397 49.5215L85.5317 82.0575L77.6209 87.6649H78.2445C80.6736 86.0022 83.1026 84.3722 85.5317 82.7095C91.3745 81.7967 97.1846 80.8838 103.027 80.0036L103.356 80.5578L85.4004 48.8369L70.5963 48.0544Z" fill="#CFC0A3" fill-opacity="0.2706"/>
<path d="M85.3675 81.9269L83.2996 83.6547L85.5317 82.0573L85.466 81.8943C85.4332 81.9269 85.4004 81.9269 85.3675 81.9269Z" fill="#A89571" fill-opacity="0.2706"/>
<path d="M87.337 81.731H87.1729C86.7462 81.7636 86.1225 81.894 85.3347 82.1222L81.9866 84.7629C81.4285 85.0889 80.5423 85.7083 79.3277 86.6211L77.9491 87.697C77.8178 87.86 77.7193 87.9578 77.7193 88.023C77.6208 88.1534 77.9491 88.2186 78.7041 88.186L79.0651 88.1534L82.0194 87.86C81.8881 87.8926 82.6102 87.86 84.2515 87.7296H87.2057C87.534 87.7622 88.2561 87.7948 89.3722 87.7948L99.3182 82.2852C96.8563 82.1548 95.3463 82.057 94.7883 81.9592C94.0005 81.9918 92.4906 81.894 90.2256 81.7636C89.3722 81.731 88.7485 81.7636 88.3874 81.7962L87.337 81.731Z" fill="#A89571" fill-opacity="0.2706"/>
<path d="M70.5635 47.9238L71.6139 48.9345C72.7299 50.4667 73.5177 51.3796 73.9444 51.673C74.4368 51.6078 75.2246 51.51 76.275 51.2818C77.6209 51.0861 78.5071 50.9557 78.901 50.9231C80.411 50.7275 81.8553 50.5971 83.2668 50.5645L84.8095 50.3363C85.1706 50.3037 85.7943 50.1407 86.6477 49.8799C87.1401 49.7169 87.6325 49.5213 88.1249 49.3257L70.5635 47.9238Z" fill="#A89571" fill-opacity="0.2706"/>
<path d="M88.3547 55.4873L88.7814 56.6609C89.9303 59.7255 90.8166 62.3988 91.4731 64.6482C92.3593 66.6043 93.3113 69.1472 94.2632 72.2443L97.7755 81.2096C99.3839 81.6987 101.091 81.5683 102.929 80.8184L88.3547 55.4873Z" fill="#A89571" fill-opacity="0.2706"/>
<path d="M88.1577 54.9978L117.175 34.0679L131.027 41.7291L144.026 68.7881L131.06 80.2311L110.676 85.4147L100.533 83.4913L88.1577 54.9978Z" fill="#F1ECE6"/>
<path d="M128.335 61.2251L99.8434 81.8942L100.533 83.4591L110.676 85.3826L131.06 80.199L143.96 68.8212C138.774 66.2783 133.555 63.768 128.335 61.2251Z" fill="#CFC0A3" fill-opacity="0.2706"/>
<path d="M49.1616 37.4262L59.206 2.31468L81.9866 0L108.969 12.4537L97.6113 49.8146L76.0781 50.6622L49.1616 37.4262Z" fill="#F1ECE6"/>
<path d="M108.181 12.1277C99.7449 13.3339 91.3089 14.5728 82.8729 15.779L73.288 49.3256L76.0453 50.6623L97.5785 49.8147L108.969 12.4863L108.181 12.1277Z" fill="#CFC0A3" fill-opacity="0.2706"/>
<path d="M33.5369 36.1875V36.2527C33.6354 36.4809 34.7186 37.0677 36.7537 38.0458C36.7866 38.111 36.7537 38.111 36.5896 38.0458C36.524 38.0458 36.2285 37.9154 35.6705 37.6872C34.8171 37.3285 34.1277 37.0025 33.6025 36.7417C33.4056 36.6765 33.3071 36.6765 33.2743 36.7417C33.2415 36.9047 33.9964 37.5568 35.5392 38.7304C35.6049 38.7956 35.6049 38.8934 35.5392 38.9586L33.2086 39.6432C33.0445 39.6758 32.8804 39.7084 32.7163 39.741L27.8253 39.089C27.6284 39.1216 27.7269 39.2194 28.0551 39.3824L30.3529 40.3931C28.7773 40.2627 27.3658 40.23 26.1513 40.2626C26.4139 40.3931 27.3986 40.6213 29.1055 40.8821C29.1712 40.8821 29.1712 40.9473 29.0727 41.0125C28.8429 41.1103 27.136 41.3059 24.0505 41.5341C23.9192 41.5667 23.8207 41.5993 23.8207 41.6645C24.0833 41.9579 25.1009 42.2513 26.9062 42.6099C28.5475 42.8707 29.9918 42.9685 31.2063 42.9359C31.272 43.0011 31.272 43.0664 31.1735 43.1642L30.0903 44.077L32.2567 43.2294C32.2895 43.3272 31.8956 43.7836 31.0422 44.5986C31.0094 44.6638 31.0094 44.6964 31.1078 44.6638C32.3224 44.3378 33.6682 43.7184 35.1453 42.8707C35.8018 42.4469 36.885 41.5341 38.4278 40.0996C38.7889 39.904 40.0691 39.4802 42.334 38.7956C42.0714 39.0564 41.6447 39.3498 41.021 39.741C39.8065 40.4257 38.7561 41.0125 37.837 41.4363C37.7713 41.5015 37.7713 41.5341 37.8041 41.5341C38.0011 41.5667 38.2965 41.5341 38.6576 41.5015C38.7232 41.5015 38.7561 41.5341 38.7232 41.5993L36.8522 42.3817C36.9179 42.4143 37.3446 42.3491 38.1652 42.2187C38.2637 42.2187 38.2965 42.2513 38.2309 42.3491C38.0339 42.5121 36.8194 43.2294 34.5545 44.4356C34.4888 44.5008 34.4888 44.5334 34.6201 44.5008C35.2766 44.3052 35.9331 44.1096 36.6224 43.8488C36.6881 43.8162 36.7209 43.8488 36.7209 43.8488L34.456 45.1202C35.3751 44.9246 36.2942 44.6964 37.2461 44.403C37.9354 44.2074 39.15 43.7836 40.8897 43.0664C40.9882 43.0664 41.0866 43.0664 41.1195 43.1642L41.3821 43.914L41.7431 43.425C41.776 43.3924 41.8416 43.3924 41.8744 43.425L42.2355 44.3704L42.2683 44.3378C42.4325 44.2074 42.5966 43.914 42.8264 43.3924C42.892 43.262 43.3187 42.0883 44.0737 39.8714C44.1394 39.6758 44.3035 39.4802 44.5004 39.2846C44.6646 39.089 44.8615 38.926 45.0913 38.763L45.4852 38.5348C45.7478 38.3718 46.076 38.2414 46.4371 38.111C47.1264 37.8502 47.9799 37.622 48.9975 37.4263L47.1264 36.6765C43.2859 37.1329 39.3141 37.0025 35.2438 36.3505C35.0468 36.3831 35.572 36.6439 36.8522 37.1003C37.2461 37.2307 37.837 37.3937 38.5919 37.5894C38.4278 37.5894 38.0011 37.4589 37.3446 37.2633L33.5369 36.1875Z" fill="#588C0E"/>
<path d="M119.538 58.0952L117.241 59.9861C117.175 60.0187 117.142 60.0187 117.076 59.9861C117.076 59.6601 117.076 59.4971 117.011 59.5297C115.632 60.8663 114.057 62.1704 112.186 63.4418C112.054 63.5396 111.956 63.5722 111.857 63.5722C111.759 63.2788 111.66 63.181 111.529 63.2788L110.315 65.3001C110.249 65.3327 110.15 65.1697 110.019 64.7785C109.986 64.7459 109.921 64.7785 109.888 64.8437C108.969 67.9408 108.148 70.2555 107.492 71.7551C104.439 76.3845 102.601 79.286 102.01 80.3944C101.091 82.1875 100.237 84.3718 99.4823 86.8821L101.55 83.4589C102.24 81.6985 103.027 80.1336 103.848 78.7644C104.275 78.0797 104.701 77.4603 105.128 76.8735C106.244 75.5042 106.966 74.7544 107.229 74.5914C107.918 74.135 108.608 73.7764 109.33 73.5156C113.531 72.1789 116.453 71.1357 118.094 70.3859C120.72 69.147 122.69 68.0386 124.035 67.0279C124.331 66.7997 124.528 66.5715 124.692 66.4085C124.758 66.3107 124.758 66.2455 124.725 66.1803L124.626 66.1151C124.068 66.2781 123.74 66.3433 123.674 66.3107L124.035 65.6587C123.97 65.5935 123.674 65.6261 123.215 65.7239C123.116 65.6913 123.083 65.6261 123.083 65.5283L125.578 62.692C125.808 62.3986 125.808 62.2682 125.611 62.2682C124.364 62.9854 122.755 63.8004 120.786 64.7785C120.523 64.6155 119.013 65.3001 116.223 66.8323L115.665 66.7671L113.827 67.8104L119.538 58.0952Z" fill="#588C0E"/>
<path d="M129.616 67.5498L127.942 68.104C127.777 68.1366 127.745 68.104 127.876 67.941C127.843 67.941 127.777 67.941 127.646 67.9736C126.005 68.5278 125.184 68.7561 125.25 68.7234C123.609 69.8319 122.624 70.4839 122.329 70.6143C121.803 70.9403 121.442 71.0707 121.245 71.0707L119.407 72.44C119.21 72.5052 119.112 72.2444 119.145 71.6902C119.112 71.6576 119.013 71.6902 118.849 71.788L116.683 73.581C116.551 73.6788 116.322 73.744 115.96 73.8092C113.958 75.5371 112.612 76.6455 111.923 77.1346C109.461 78.4386 107.853 79.3188 107.098 79.7752C106.737 79.9709 106.277 80.2969 105.653 80.7859C103.881 82.1877 102.174 84.1112 100.566 86.5237L102.699 84.0786L104.669 82.2855C106.474 80.7207 107.787 79.8405 108.542 79.6122C109.428 79.4166 109.986 79.384 110.183 79.4492C112.12 80.3621 113.433 80.9163 114.155 81.0141C116.059 81.4379 117.7 81.6335 119.013 81.6009C119.21 81.5683 119.243 81.4705 119.079 81.3727L117.339 80.6881C117.273 80.6229 117.273 80.5577 117.306 80.5577C117.7 80.4273 117.897 80.3621 117.897 80.2969C117.47 79.9709 117.241 79.8079 117.241 79.7427C117.175 79.6448 117.175 79.5796 117.273 79.547C119.407 79.5144 121.344 79.3514 123.051 79.1232C125.086 78.7646 126.235 78.5038 126.497 78.3734C127.187 78.1778 127.81 77.917 128.401 77.6562L127.974 77.1998C126.99 77.102 126.563 77.0367 126.629 77.0041L126.694 76.9389L128.992 76.1239C129.156 76.0261 129.123 75.9609 128.926 75.9283C127.187 75.9609 125.119 76.0913 122.722 76.3195C121.508 76.4499 120.589 76.6129 119.998 76.8085C119.932 76.8085 119.965 76.7433 120.096 76.5803C120.064 76.5151 120.031 76.4825 119.998 76.4825C119.013 76.6129 118.521 76.6455 118.488 76.5477C120.261 75.4393 121.344 74.7221 121.771 74.3961C122.558 73.8418 123.346 73.2224 124.167 72.5378C127.646 69.6037 129.452 67.941 129.616 67.5498Z" fill="#588C0E"/>
<defs>
<linearGradient id="paint0_linear_20002_15991" x1="41.751" y1="52.8787" x2="41.751" y2="134.871" gradientUnits="userSpaceOnUse">
<stop stop-color="#C9804F"/>
<stop offset="1" stop-color="#6A3512"/>
</linearGradient>
<linearGradient id="paint1_linear_20002_15991" x1="107.633" y1="62.3008" x2="107.633" y2="134.936" gradientUnits="userSpaceOnUse">
<stop stop-color="#C9804F"/>
<stop offset="1" stop-color="#6A3512"/>
</linearGradient>
</defs>
</svg>
