<svg width="140" height="110" viewBox="0 0 140 110" fill="none" xmlns="http://www.w3.org/2000/svg">
<path d="M0.75293 99.397V102.992C0.75293 102.992 37.0122 109.253 68.5686 109.945C100.125 110.636 138.336 104.671 139.249 103.472C139.29 100.365 139.249 99.6367 139.249 99.6367L0.75293 99.397Z" fill="#956532"/>
<path d="M0.802734 97.1216V100.717C0.802734 100.717 37.0808 106.978 68.6531 107.669C100.226 108.361 138.456 102.396 139.37 101.197C139.41 98.0895 139.37 97.3615 139.37 97.3615L0.802734 97.1216Z" fill="#623A1B"/>
<path d="M139.344 70.4796L5.5562 69.5583C4.38869 70.9807 2.788 72.0373 0.972373 72.5184C0.811424 72.91 0.6222 73.2896 0.406189 73.6539L0.814839 97.995C0.814839 97.995 43.2962 105.179 67.9301 105.173C93.5829 105.167 133.918 99.9337 139.344 98.4734C139.47 90.6797 139.344 70.4796 139.344 70.4796Z" fill="#916331"/>
<path d="M29.2936 81.4971L28.9369 102.182L34.4672 103.001L35.1804 83.3407L29.2936 81.4971Z" fill="#623A1B"/>
<path d="M0.395386 61.1519V72.9698C0.395386 72.9698 29.3462 89.8931 88.5295 85.2598C121.539 81.2923 136.505 74.7659 139.266 73.6788C139.566 68.3737 139.266 60.4431 139.266 60.4431L0.395386 61.1519Z" fill="#623A1B"/>
<path d="M0.327942 59.4933V64.0009C0.327942 64.0009 17.4324 78.4486 71.9596 77.5234C119.314 76.5985 133.115 68.5118 139.07 63.2891C139.792 56.5313 139.308 59.2562 139.308 59.2562L0.327942 59.4933Z" fill="#916331"/>
<path d="M0.0698853 55.0429L0.30772 60.2608C0.30772 60.2608 14.1845 74.749 61.7062 75.4399C109.227 76.131 132.486 67.7119 139.286 60.0239C139.998 52.6392 140 52.6711 140 52.6711C140 52.6711 103.583 73.3126 71.9387 73.0686C40.2945 72.8241 0.0698853 55.0429 0.0698853 55.0429Z" fill="#DABA80"/>
<path d="M1.79846 54.8578C1.79846 59.4049 8.97316 63.7658 21.7442 66.9811C34.5153 70.1964 51.8365 72.0027 69.8975 72.0027C87.9585 72.0027 105.28 70.1964 118.051 66.9811C130.822 63.7658 137.997 59.4049 137.997 54.8578C137.997 50.3107 130.822 45.9498 118.051 42.7345C105.28 39.5192 87.9585 37.7129 69.8975 37.7129C51.8365 37.7129 34.5153 39.5192 21.7442 42.7345C8.97316 45.9498 1.79846 50.3107 1.79846 54.8578Z" fill="#956532"/>
<path d="M118.64 68.6052L115.609 67.2299L126.535 43.3025L129.566 44.678L118.64 68.6052ZM11.3092 63.3907L8.27356 62.0248L18.1443 40.2234L21.1799 41.5893L11.3092 63.3907ZM23.7062 68.8239L20.6722 67.4547L33.3833 39.4632L36.4171 40.8324L23.7062 68.8239ZM38.9299 71.9762L35.9108 70.5761L51.5727 37.0141L54.5918 38.4142L38.9299 71.9762ZM54.61 73.267L51.567 71.919L68.3743 34.2168L71.4173 35.565L54.61 73.267ZM69.2347 73.666L66.1915 72.3178L82.9993 34.6154L86.0423 35.9636L69.2347 73.666ZM84.4379 73.3701L81.3949 72.0221L97.1171 36.7546L100.16 38.1026L84.4379 73.3701ZM101.072 71.7707L98.0362 70.406L112.747 37.8783L115.784 39.243L101.072 71.7707Z" fill="#A67C52"/>
<path d="M1.93127 53.1293C1.93127 53.1293 11.4058 38.8527 65.7875 38.4026C120.169 37.9518 135.091 49.5778 136.792 52.6541C137.462 53.455 137.745 54.7918 137.745 54.7918C137.745 54.7918 138.221 52.2235 137.269 51.4666C136.317 50.7099 131.294 43.9637 116.301 40.7776C101.658 37.4921 92.249 36.3007 76.9858 35.7895C61.7233 35.2786 48.2493 36.7763 43.39 37.2149C38.5659 37.6502 13.1806 40.5509 4.3137 49.0916C2.05796 51.776 2.07062 52.6425 1.93127 53.1293Z" fill="#DABA80"/>
<path d="M69.8975 74.0183C52.3329 74.0183 35.5738 72.1946 22.7072 68.8835C13.437 66.4973 2.00688 62.2664 0.198604 55.6569L0.152018 55.4867L0.162644 55.3105C0.177355 55.0748 0.17674 54.8723 0.160598 54.7088C0.108087 54.1716 0.0635448 53.7423 0.0175716 53.3931L0 53.2583L0.0167548 53.1235C0.879619 46.2001 12.2995 41.7397 21.7277 39.2168C34.7256 35.739 51.8321 33.8237 69.8973 33.8237C88.3855 33.8237 105.78 35.817 118.878 39.4364C125.309 41.2136 130.376 43.2947 133.937 45.6212C137.849 48.1771 139.833 50.9697 139.833 53.9211C139.833 56.8726 137.849 59.6653 133.937 62.2208C130.376 64.5478 125.309 66.6282 118.878 68.4054C105.781 72.0248 88.3857 74.0183 69.8975 74.0183ZM2.30948 55.2508C3.63044 59.5199 11.2383 63.7273 23.2426 66.8164C35.9393 70.084 52.5084 71.8838 69.8975 71.8838C110.45 71.8838 137.692 62.5958 137.692 53.9211C137.692 45.2462 110.45 35.9582 69.8975 35.9582C52.0148 35.9582 35.1049 37.8476 22.2831 41.2783C10.1492 44.5247 2.83174 48.8855 2.1591 53.2609C2.20221 53.6078 2.24369 54.013 2.29171 54.5012C2.31398 54.7291 2.3199 54.9756 2.30948 55.2508Z" fill="#643B1B"/>
<path d="M24.9517 21.927C24.9517 21.927 22.9328 26.7891 20.0784 28.7294C17.2246 30.6714 9.08469 36.0946 7.89266 37.4768C6.70062 38.8586 2.30539 49.1553 13.7417 53.0254C25.18 56.8969 44.4942 55.6841 47.8641 48.1664C49.0504 42.9526 46.3448 41.2609 44.9384 39.4204C43.5322 37.5793 35.678 33.3631 34.2144 30.6738C32.7508 27.9837 32.1873 25.4374 33.2388 23.3848C31.7255 23.6349 30.803 24.3566 30.803 24.3566V23.3848L29.8276 22.413H28.8535L25.9284 21.4414L24.9517 21.927Z" fill="#FFFDF3"/>
<path d="M28.2457 55.7418C28.2453 55.7418 28.2461 55.7418 28.2457 55.7418C22.9238 55.7418 17.7076 54.968 13.5582 53.5639C9.34992 52.1393 6.75397 49.7307 5.84227 46.4043C4.74321 42.3924 6.53003 38.1844 7.46032 37.1059C8.46908 35.9363 13.6747 32.3746 18.4749 29.1284C18.9679 28.795 19.4033 28.5006 19.7568 28.2599C22.4355 26.4389 24.4052 21.7563 24.425 21.7094L24.5065 21.5133L25.8843 20.8279L28.9459 21.8451H30.0634L31.3731 23.1497V23.3724C31.936 23.11 32.5323 22.9257 33.1454 22.8246L34.2608 22.6401L33.7465 23.6443C32.8747 25.3455 33.2008 27.6197 34.7152 30.4035C35.5015 31.8481 38.5774 33.9725 41.0493 35.6799C43.0343 37.0507 44.7488 38.2345 45.392 39.077C45.6164 39.3701 45.8816 39.6667 46.1629 39.9805C47.6367 41.6265 49.471 43.6744 48.4205 48.2933L48.385 48.3996C45.9576 53.8122 36.3899 55.7418 28.2457 55.7418ZM25.3937 22.3425C24.971 23.3029 23.0597 27.3905 20.3998 29.1991C20.0457 29.44 19.6095 29.7348 19.1154 30.069C15.9361 32.2196 9.31988 36.694 8.32543 37.8471C7.76211 38.5001 5.92012 42.3727 6.94277 46.1049C7.74822 49.0441 10.0973 51.1918 13.925 52.487C17.9596 53.8526 23.0452 54.6046 28.2457 54.6046C37.9902 54.6046 45.4648 52.008 47.3204 47.9847C48.2144 43.9771 46.6729 42.2562 45.3119 40.7366C45.0157 40.4056 44.7357 40.0928 44.4846 39.7648C43.9507 39.0656 42.2258 37.8746 40.4002 36.6134C37.6951 34.7449 34.629 32.6276 33.713 30.9451C32.2948 28.3391 31.8277 26.0804 32.3165 24.2118C31.586 24.477 31.1587 24.8006 31.1526 24.8053L30.2342 25.5113L30.2323 23.6202L29.5908 22.9813H28.7604L25.9711 22.0547L25.3937 22.3425Z" fill="#967557"/>
<path d="M25.9278 21.927C25.9278 21.927 24.9219 34.9871 18.1287 37.4766L25.9278 21.927Z" fill="white"/>
<path d="M18.3257 38.0101L17.9321 36.9425C24.3018 34.6085 25.3491 22.0099 25.3591 21.8828L26.496 21.97C26.4541 22.5183 25.3814 35.4245 18.3257 38.0101Z" fill="#967557"/>
<path d="M28.3652 22.8984C28.3652 22.8984 28.1946 28.6956 27.8791 31.6457C27.5618 34.5947 27.324 34.3219 26.9032 35.5326C26.4827 36.7432 26.4076 38.3199 26.4155 38.9336" fill="white"/>
<path d="M25.8453 38.9412C25.8353 38.1898 25.9337 36.5868 26.3641 35.3469C26.4828 35.0051 26.5882 34.7727 26.681 34.5678C26.917 34.047 27.0874 33.6707 27.3117 31.5846C27.6215 28.6906 27.7935 22.939 27.7953 22.8813L28.9355 22.9145C28.9285 23.1523 28.7606 28.7673 28.4465 31.7053C28.2142 33.8634 28.0195 34.3767 27.721 35.0359C27.6337 35.2273 27.544 35.4255 27.4425 35.7182C27.0624 36.812 26.9781 38.2947 26.9864 38.9257L25.8453 38.9412Z" fill="#967557"/>
<path d="M29.8269 23.8704C29.8269 23.8704 30.6321 28.7393 30.8023 31.1594C30.9734 33.5806 30.9734 33.5806 31.2905 36.5048C31.4394 37.8811 34.214 39.4204 34.214 39.4204" fill="white"/>
<path d="M33.9367 39.9171C33.4302 39.6362 30.8957 38.154 30.7233 36.5658C30.405 33.6309 30.4049 33.6309 30.2333 31.1992C30.0668 28.833 29.2716 24.0111 29.2638 23.9626L30.3892 23.7778C30.4223 23.9777 31.2006 28.701 31.3712 31.1194C31.5414 33.5296 31.5414 33.5296 31.8575 36.4434C31.9382 37.1907 33.4461 38.3436 34.4908 38.9235L33.9367 39.9171Z" fill="#967557"/>
<path d="M85.3169 17.3157C85.3169 17.3157 83.2978 22.178 80.4434 24.1183C77.5891 26.0603 69.4492 31.4835 68.2574 32.8655C67.0654 34.2478 62.6699 44.544 74.1064 48.4143C85.5443 52.2858 104.859 51.0727 108.228 43.5553C109.415 38.3417 106.709 36.6499 105.303 34.8089C103.896 32.9682 96.0425 28.7518 94.579 26.0627C93.1152 23.3726 92.5519 20.8263 93.6031 18.7737C92.0899 19.0238 91.1674 19.7455 91.1674 19.7455V18.7737L90.1919 17.8021H89.2177L86.2928 16.8303L85.3169 17.3157Z" fill="#FFFDF3"/>
<path d="M88.6108 51.1307C88.6102 51.1307 88.611 51.1307 88.6108 51.1307C83.2887 51.1307 78.0725 50.3573 73.9233 48.9529C69.7146 47.5287 67.1187 45.1201 66.2074 41.7936C65.1077 37.7814 66.8947 33.5738 67.8252 32.4952C68.8342 31.325 74.041 27.7629 78.8422 24.5157C79.3346 24.1831 79.7686 23.8894 80.1219 23.649C82.8002 21.8281 84.7705 17.1454 84.7903 17.0986L84.8716 16.9025L86.2492 16.217L89.3098 17.2343H90.4278L91.7374 18.5391V18.7617C92.3005 18.4995 92.8969 18.3152 93.5101 18.2138L94.6255 18.0293L94.1108 19.0334C93.2392 20.7347 93.5655 23.0088 95.0799 25.7927C95.8664 27.2372 98.9423 29.3617 101.414 31.069C103.399 32.4396 105.113 33.6237 105.756 34.4655C105.981 34.759 106.246 35.0558 106.527 35.3697C108.001 37.0155 109.836 39.0634 108.784 43.682L108.749 43.7882C106.322 49.2014 96.755 51.1307 88.6108 51.1307ZM85.7586 17.7317C85.3363 18.6923 83.4246 22.7799 80.7647 24.5882C80.4108 24.8292 79.9756 25.1235 79.4828 25.457C76.3027 27.6077 69.685 32.0832 68.6903 33.2367C68.127 33.8897 66.285 37.7622 67.3079 41.4944C68.1133 44.4336 70.4627 46.5809 74.2901 47.8766C78.3247 49.2421 83.4105 49.9939 88.6106 49.9939C98.355 49.9939 105.829 47.3977 107.686 43.3741C108.58 39.3667 107.038 37.6459 105.677 36.1266C105.381 35.7956 105.101 35.4827 104.85 35.1542C104.316 34.4551 102.591 33.2644 100.765 32.0029C98.0602 30.1351 94.9941 28.0169 94.0781 26.3345C92.6601 23.7287 92.193 21.47 92.682 19.6011C91.9515 19.8663 91.5239 20.19 91.5183 20.1947L90.5997 20.9007L90.5974 19.0094L89.9561 18.3706H89.1259L86.3366 17.4443L85.7586 17.7317Z" fill="#967557"/>
<path d="M86.2927 17.3159C86.2927 17.3159 85.2866 30.3762 78.4937 32.8655L86.2927 17.3159Z" fill="white"/>
<path d="M78.6906 33.3988L78.2969 32.3317C84.6725 29.9954 85.7147 17.3989 85.7239 17.272L86.8612 17.3591C86.8189 17.9075 85.7464 30.8134 78.6906 33.3988Z" fill="#967557"/>
<path d="M88.7303 18.2874C88.7303 18.2874 88.5595 24.0847 88.244 27.0346C87.9271 29.9836 87.6889 29.7108 87.2682 30.9216C86.8479 32.1317 86.7729 33.7084 86.7807 34.3222" fill="white"/>
<path d="M86.2102 34.3302C86.2004 33.5783 86.2989 31.9759 86.7294 30.7357C86.8479 30.3943 86.9533 30.1619 87.0457 29.957C87.2819 29.4361 87.4525 29.0599 87.6771 26.9737C87.9866 24.0799 88.1582 18.3284 88.1599 18.2705L89.3 18.3039C89.2935 18.5416 89.1255 24.1567 88.8107 27.0947C88.5787 29.2526 88.3836 29.7663 88.0851 30.425C87.9983 30.6165 87.9084 30.8151 87.8066 31.1076C87.427 32.2018 87.3422 33.6838 87.3505 34.3153L86.2102 34.3302Z" fill="#967557"/>
<path d="M90.1919 19.2593C90.1919 19.2593 90.9969 24.1283 91.1673 26.5483C91.3386 28.9693 91.3386 28.9693 91.6555 31.8937C91.8046 33.2698 94.5796 34.8091 94.5796 34.8091" fill="white"/>
<path d="M94.3017 35.3063C93.7954 35.0256 91.2605 33.5432 91.0885 31.955C90.7701 29.0203 90.7701 29.0203 90.5985 26.5884C90.432 24.2222 89.6369 19.4005 89.6292 19.352L90.7548 19.1672C90.7873 19.3669 91.566 24.0902 91.7362 26.5088C91.9066 28.919 91.9066 28.919 92.2223 31.8328C92.3032 32.5779 93.8113 33.7314 94.8566 34.3127L94.3017 35.3063Z" fill="#967557"/>
<path d="M57.1047 33.1827C57.1047 33.1827 55.0854 38.045 52.2314 39.9851C49.3776 41.9271 41.2377 47.3505 40.0456 48.7327C38.8534 50.1148 34.4582 60.4113 45.8946 64.2819C57.3328 68.1529 76.647 66.9403 80.0169 59.4227C81.2032 54.2089 78.4975 52.5171 77.091 50.6768C75.6848 48.8358 67.831 44.6195 66.3674 41.9304C64.9038 39.2402 64.3399 36.6939 65.3915 34.6411C63.8783 34.8913 62.9558 35.613 62.9558 35.613V34.6411L61.9803 33.6696H61.0063L58.0808 32.6978L57.1047 33.1827Z" fill="#FFFDF3"/>
<path d="M60.3988 66.9977C55.077 66.9977 49.8608 66.2243 45.7113 64.8201C41.503 63.3963 38.9069 60.9873 37.9956 57.6608C36.8961 53.6486 38.6832 49.4408 39.6134 48.3624C40.6224 47.1926 45.828 43.6309 50.628 40.3848C51.1212 40.0513 51.5562 39.757 51.9101 39.5162C54.5888 37.6952 56.5583 33.0126 56.5781 32.9658L56.6597 32.7696L58.0372 32.0842L61.0984 33.1014H62.2161L63.526 34.4059V34.6285C64.0889 34.3662 64.6851 34.182 65.2981 34.0808L66.4137 33.896L65.8992 34.9002C65.0276 36.6018 65.3533 38.876 66.8681 41.6598C67.6544 43.1044 70.7307 45.2289 73.2026 46.9358C75.1874 48.3066 76.9015 49.4905 77.5449 50.3325C77.7689 50.626 78.0347 50.9228 78.3159 51.2365C79.7897 52.8821 81.6239 54.9304 80.5728 59.549L80.5375 59.6551C78.1111 65.0682 68.543 66.9977 60.3988 66.9977ZM57.5466 33.5987C57.1241 34.5593 55.2128 38.6467 52.5529 40.4554C52.1984 40.6964 51.7626 40.9911 51.2685 41.3256C48.089 43.4757 41.4728 47.9506 40.4783 49.1034C39.9152 49.7565 38.0728 53.6292 39.0957 57.3612C39.9009 60.301 42.2503 62.4483 46.0779 63.7434C50.1125 65.1091 55.1983 65.8609 60.3986 65.8609C70.1431 65.8609 77.6177 63.2645 79.4732 59.241C80.3675 55.2339 78.8255 53.5127 77.4651 51.9932C77.1688 51.6622 76.8887 51.3497 76.6377 51.021C76.1036 50.3219 74.3787 49.1311 72.5529 47.8697C69.8482 46.0015 66.7823 43.8841 65.8659 42.2017C64.4479 39.5957 63.9806 37.337 64.4696 35.4681C63.7391 35.7335 63.3121 36.0572 63.3057 36.0617L62.3873 36.7678L62.3855 34.8764L61.7439 34.2374H60.9135L58.1243 33.311L57.5466 33.5987Z" fill="#967557"/>
<path d="M58.0806 33.1829C58.0806 33.1829 57.0751 46.2432 50.2819 48.7325L58.0806 33.1829Z" fill="white"/>
<path d="M50.4787 49.2662L50.0853 48.1991C56.4547 45.865 57.5021 33.2663 57.5123 33.1392L58.649 33.2265C58.6073 33.7745 57.5344 46.6806 50.4787 49.2662Z" fill="#967557"/>
<path d="M60.5182 34.1545C60.5182 34.1545 60.3474 39.9521 60.0319 42.902C59.7148 45.8512 59.4768 45.5782 59.0559 46.789C58.6356 47.9991 58.5606 49.5758 58.5685 50.1895" fill="white"/>
<path d="M57.9985 50.1973C57.9886 49.4455 58.0869 47.8429 58.5174 46.6028C58.6359 46.261 58.7416 46.029 58.8343 45.8237C59.0701 45.3029 59.2405 44.9271 59.4651 42.8409C59.7746 39.9469 59.9465 34.1953 59.9485 34.1375L61.0885 34.1709C61.0815 34.4086 60.9138 40.0237 60.5993 42.9615C60.3672 45.1193 60.1725 45.6326 59.8737 46.2918C59.7869 46.4834 59.697 46.682 59.5957 46.9745C59.2154 48.0683 59.1312 49.5508 59.1396 50.1818L57.9985 50.1973Z" fill="#967557"/>
<path d="M61.9801 35.1262C61.9801 35.1262 62.7851 39.9952 62.9553 42.4154C63.1264 44.8365 63.1264 44.8365 63.4437 47.7608C63.5926 49.137 66.3674 50.6762 66.3674 50.6762" fill="white"/>
<path d="M66.0897 51.1729C65.5836 50.892 63.0492 49.41 62.8767 47.8216C62.5582 44.8869 62.5582 44.8869 62.3866 42.455C62.2202 40.0888 61.4252 35.2669 61.4172 35.2184L62.5427 35.0334C62.5756 35.2333 63.354 39.9566 63.5246 42.375C63.6946 44.7855 63.6946 44.7855 64.0109 47.6992C64.0916 48.4466 65.5996 49.5992 66.6445 50.1791L66.0897 51.1729Z" fill="#967557"/>
<path d="M109.079 32.3282C109.079 32.3282 107.06 37.1903 104.205 39.1308C101.351 41.0726 93.2106 46.496 92.0194 47.8782C90.8273 49.26 86.4319 59.5567 97.8684 63.4266C109.306 67.2983 128.621 66.0854 131.99 58.568C133.177 53.3542 130.471 51.6626 129.065 49.822C127.659 47.9809 119.805 43.7645 118.341 41.0754C116.877 38.3853 116.314 35.839 117.365 33.7864C115.852 34.0365 114.929 34.7582 114.929 34.7582V33.7864L113.954 32.8146H112.98L110.055 31.843L109.079 32.3282Z" fill="#FFFDF3"/>
<path d="M112.373 66.1435C107.051 66.1435 101.835 65.3693 97.6853 63.9654C93.4766 62.5412 90.8809 60.1324 89.969 56.8066C88.8695 52.7949 90.6559 48.5867 91.5866 47.5076C92.596 46.3378 97.8028 42.7757 102.604 39.5287C103.096 39.1958 103.53 38.9021 103.884 38.662C106.562 36.841 108.532 32.1584 108.552 32.1115L108.633 31.9154L110.011 31.23L113.072 32.2472H114.189L115.499 33.552V33.7747C116.062 33.5124 116.658 33.3281 117.271 33.2269L118.387 33.0422L117.873 34.0464C117.001 35.7476 117.327 38.0218 118.841 40.8058C119.628 42.2502 122.704 44.3746 125.176 46.0817C127.161 47.4526 128.875 48.6366 129.518 49.4787C129.742 49.772 130.008 50.0688 130.289 50.3826C131.763 52.0284 133.597 54.0765 132.546 58.695L132.511 58.8013C130.084 64.2139 120.517 66.1435 112.373 66.1435ZM109.52 32.744C109.098 33.7046 107.187 37.792 104.527 39.6008C104.173 39.8415 103.737 40.1357 103.245 40.4691C100.064 42.6201 93.4466 47.0955 92.4515 48.2488C91.8886 48.9018 90.0464 52.775 91.0693 56.5068C91.8747 59.4462 94.224 61.5933 98.0515 62.8883C102.086 64.2541 107.172 65.0059 112.373 65.0059C122.117 65.0059 129.591 62.4097 131.447 58.3864C132.342 54.3788 130.799 52.6581 129.439 51.1383C129.143 50.8073 128.863 50.4949 128.612 50.1661C128.078 49.4671 126.353 48.2759 124.527 47.0151C121.822 45.1468 118.756 43.0289 117.84 41.3462C116.422 38.7404 115.955 36.4817 116.444 34.6131C115.713 34.8783 115.286 35.2019 115.281 35.2066L114.361 35.9126L114.359 34.0215L113.718 33.3828H112.888L110.099 32.4564L109.52 32.744Z" fill="#967557"/>
<path d="M110.054 32.3281C110.054 32.3281 109.049 45.3887 102.255 47.8777L110.054 32.3281Z" fill="white"/>
<path d="M102.452 48.4115L102.058 47.3444C108.434 45.0076 109.476 32.4115 109.486 32.2844L110.623 32.3718C110.581 32.9197 109.508 45.8261 102.452 48.4115Z" fill="#967557"/>
<path d="M112.492 33.2998C112.492 33.2998 112.321 39.0972 112.006 42.047C111.688 44.996 111.45 44.7231 111.03 45.9342C110.61 47.1443 110.534 48.7211 110.542 49.335" fill="white"/>
<path d="M109.972 49.3426C109.962 48.591 110.061 46.9886 110.491 45.7483C110.61 45.4066 110.715 45.1744 110.808 44.9694C111.044 44.4484 111.214 44.0724 111.439 41.9862C111.748 39.0924 111.92 33.3408 111.922 33.2832L113.062 33.3162C113.055 33.5539 112.887 39.169 112.572 42.1072C112.341 44.2651 112.146 44.7784 111.847 45.4373C111.76 45.6288 111.67 45.8274 111.568 46.1197C111.188 47.2141 111.104 48.6961 111.112 49.3272L109.972 49.3426Z" fill="#967557"/>
<path d="M113.954 34.272C113.954 34.272 114.759 39.141 114.929 41.561C115.101 43.9822 115.101 43.9822 115.417 46.9066C115.567 48.2827 118.341 49.822 118.341 49.822" fill="white"/>
<path d="M118.063 50.3185C117.557 50.0376 115.022 48.5556 114.85 46.9672C114.532 44.0322 114.532 44.0322 114.36 41.6006C114.193 39.2343 113.399 34.4124 113.391 34.3639L114.516 34.1792C114.549 34.379 115.328 39.1022 115.498 41.5208C115.668 43.9312 115.668 43.9312 115.984 46.8452C116.065 47.5899 117.573 48.7438 118.618 49.3251L118.063 50.3185ZM8.46635 39.59C7.95779 43.5356 7.91651 48.2419 12.0049 50.2869C12.4963 50.533 12.93 49.797 12.4368 49.5504C8.63369 47.6481 8.85498 43.2132 9.32166 39.5902C9.39215 39.0455 8.53582 39.0522 8.46635 39.59Z" fill="#967557"/>
<path d="M30.4045 25.3604C30.4718 28.2506 31.1938 31.1232 31.5085 33.9954C31.73 36.0127 32.232 38.1413 34.0761 39.2691C34.5478 39.5575 34.9773 38.8196 34.5084 38.5326C32.6337 37.3862 32.4462 34.9495 32.261 32.9729C32.0216 30.4229 31.3199 27.9259 31.2599 25.36C31.2472 24.8113 30.3917 24.8099 30.4045 25.3604ZM25.4488 22.3632C26.3706 27.8018 23.2166 34.4647 18.8015 37.6586C18.3596 37.9783 18.7856 38.7186 19.2331 38.3951C23.9885 34.955 27.2655 27.9896 26.2737 22.1366C26.182 21.595 25.3577 21.825 25.4488 22.3632ZM28.1245 23.1023C28.1241 28.4174 28.0268 33.6954 26.4486 38.8204C26.2866 39.3473 27.1123 39.5712 27.2739 39.0471C28.8737 33.8506 28.9796 28.4934 28.9802 23.1023C28.9802 22.5524 28.1245 22.5524 28.1245 23.1023ZM9.03665 40.443C8.751 43.6769 9.0299 47.0048 11.4432 49.4147C11.833 49.8043 12.4378 49.2012 12.0478 48.8119C9.79449 46.5614 9.62674 43.4405 9.89175 40.4432C9.94058 39.8949 9.08466 39.8993 9.03665 40.443ZM56.5894 34.7328C56.9049 36.9819 56.0845 39.415 55.2029 41.4517C54.3492 43.4232 53.0781 45.6234 51.083 46.6166C50.5894 46.8626 51.023 47.5982 51.5148 47.3531C53.7697 46.2302 55.133 43.7501 56.0908 41.5374C57.0242 39.3818 57.7467 36.8707 57.4147 34.5055C57.3383 33.963 56.514 34.195 56.5894 34.7328ZM58.9193 34.6177C58.8887 39.5072 58.0826 44.3204 57.3662 49.1442C57.2866 49.6823 58.1106 49.9133 58.1911 49.3713C58.9189 44.473 59.7436 39.5828 59.775 34.6177C59.7781 34.0675 58.9226 34.0679 58.9193 34.6177ZM62.8571 36.1946C63.9087 40.6124 62.5837 47.002 66.2466 50.4256C66.6485 50.8016 67.2548 50.1997 66.8514 49.8231C65.0278 48.118 64.7197 45.3372 64.4753 42.9905C64.2318 40.6524 64.2287 38.2645 63.6821 35.9677C63.5548 35.4328 62.7298 35.66 62.8571 36.1946ZM43.3144 55.156C44.8522 58.7676 47.6171 60.3026 51.4578 60.4843C54.2145 60.6149 56.8879 60.0621 59.6173 60.7357C61.6771 61.2445 63.277 61.1172 65.3274 60.6116C65.8623 60.4792 65.6351 59.6567 65.0993 59.7887C62.9791 60.3124 61.4595 60.3124 59.339 59.7887C57.1202 59.2408 54.8351 59.616 52.5879 59.647C50.8767 59.6706 49.1172 59.5419 47.5417 58.8263C45.8055 58.0376 44.7725 56.4146 44.0535 54.7258C43.8381 54.2207 43.1013 54.656 43.3144 55.156ZM78.689 32.283C83.2011 29.3994 84.6702 24.0528 85.5866 19.0939C85.6861 18.5564 84.8619 18.3269 84.7617 18.8672C83.8901 23.582 82.5642 28.7942 78.257 31.5469C77.7943 31.8424 78.2229 32.5808 78.689 32.283ZM87.2398 19.3486C87.9913 19.7936 87.7347 21.3176 87.6687 22.0218C87.5336 23.459 87.1811 24.8832 86.8403 26.2833C86.2784 28.5895 85.3553 30.9574 85.1745 33.3363C85.1328 33.885 85.9881 33.8811 86.03 33.3363C86.2437 30.5317 87.4165 27.7137 88.0232 24.9746C88.3656 23.4301 89.4876 19.6887 87.6715 18.6124C87.1961 18.3305 86.766 19.0681 87.2398 19.3486ZM91.0079 19.6861C91.0222 24.0075 91.3469 28.3398 92.8044 32.4417C92.9874 32.9564 93.8135 32.7348 93.6292 32.215C92.1963 28.1819 91.8776 23.9358 91.8637 19.6861C91.862 19.1361 91.0063 19.1359 91.0079 19.6861ZM79.3114 45.7191C82.0695 48.8557 87.2028 46.8971 90.7348 46.8392C91.2858 46.8301 91.2868 45.9772 90.7348 45.9864C87.4964 46.0391 82.4277 47.9721 79.9162 45.1164C79.5521 44.7021 78.9493 45.3075 79.3114 45.7191ZM93.0163 52.9509C93.4578 58.1433 98.4987 59.1538 102.872 59.4137C104.01 59.4812 105.152 59.5028 106.291 59.5614C108.132 59.6557 109.756 60.1918 111.444 60.8933C113.04 61.557 114.631 62.0179 116.358 62.1605C118.454 62.3332 120.575 62.067 122.673 62.0479C123.224 62.0428 123.224 61.1901 122.673 61.1948C119.167 61.2266 115.835 61.6651 112.474 60.3955C110.942 59.8175 109.506 59.1414 107.88 58.855C106.915 58.6854 105.909 58.6864 104.932 58.6495C100.724 58.4908 94.3372 58.4244 93.8714 52.9507C93.8254 52.4071 92.9697 52.4026 93.0163 52.9509ZM102.54 47.1081C104.758 46.5152 106.06 45.1136 106.87 43.0101C107.402 41.6278 107.679 40.1674 108.206 38.7784C108.736 37.3817 109.25 35.9873 109.128 34.4731C109.084 33.9286 108.228 33.9245 108.272 34.4731C108.462 36.824 107.08 39.1738 106.478 41.4046C105.844 43.7596 104.815 45.6167 102.313 46.2856C101.78 46.428 102.006 47.2509 102.54 47.1081ZM118.651 48.7022C116.498 48.396 115.642 44.8353 115.529 43.0282C115.354 40.2379 116.371 37.3599 115.342 34.645C115.149 34.1358 114.321 34.3564 114.517 34.8719C115.665 37.9038 114.245 41.2129 114.852 44.3296C115.214 46.1901 116.211 49.2095 118.424 49.5242C118.963 49.601 119.196 48.7796 118.651 48.7022ZM111.266 33.6204C110.982 36.1749 110.707 38.7293 110.554 41.2958C110.417 43.5924 109.078 45.6328 109.271 47.9762C109.315 48.5203 110.171 48.5245 110.126 47.9762C109.947 45.7876 111.154 43.8851 111.364 41.7507C111.631 39.0418 111.821 36.3285 112.122 33.6206C112.183 33.0743 111.327 33.08 111.266 33.6204ZM20.7112 50.5519C21.4931 51.4397 22.3938 52.3474 23.6624 52.2942C24.6877 52.251 25.6391 51.4202 26.4907 50.9419C28.2397 49.9597 29.933 50.1113 31.7893 50.626C33.1523 51.0036 34.3398 50.9146 35.6297 50.3341C36.1318 50.1082 35.6966 49.3733 35.198 49.5976C33.7289 50.2585 32.5252 49.9298 31.0543 49.5397C29.8326 49.2161 28.6324 49.2515 27.4241 49.6086C26.4705 49.8907 25.6268 50.4559 24.7852 50.9637C23.3126 51.852 22.3578 51.1311 21.3158 49.9487C20.9515 49.5348 20.3485 50.1404 20.7112 50.5519Z" fill="#FFFF99"/>
<path d="M21.3681 50.3339C23.1537 51.6972 24.348 51.0764 26.01 49.9141C28.4647 48.1976 31.6095 49.9929 34.2735 50.2496C34.8227 50.3024 34.8176 49.4493 34.2735 49.3967C31.8722 49.1652 29.6212 48.0522 27.1732 48.417C24.964 48.746 24.1759 51.4114 21.7998 49.597C21.3616 49.2633 20.9362 50.0046 21.3681 50.3339ZM43.5997 55.7243C45.4646 58.7522 48.5791 59.5873 51.9558 59.7429C54.0724 59.8409 56.1867 59.6056 58.3007 59.7136C60.4242 59.8219 62.3657 60.838 64.5007 60.9103C65.053 60.9294 65.0505 60.0764 64.5007 60.0574C62.5725 59.9918 60.7781 59.1978 58.8787 58.9194C57.1268 58.6624 55.3128 58.9229 53.5509 58.9198C50.021 58.9135 46.3581 58.5725 44.3383 55.2939C44.05 54.8263 43.3099 55.2542 43.5997 55.7243ZM79.739 45.4348C82.4092 48.613 87.048 46.1986 90.45 46.2705C91.0016 46.2821 91.0006 45.4295 90.45 45.4177C87.3185 45.3513 82.7643 47.7118 80.3439 44.8321C79.9891 44.4098 79.3874 45.016 79.739 45.4348ZM93.4439 52.8085C93.8219 57.4966 99.3352 58.41 103.112 58.8389C105.833 59.1479 108.469 59.3139 111.135 60.0244C114.646 60.9596 117.991 62.0393 121.675 61.6207C122.216 61.559 122.222 60.7058 121.675 60.7681C118.399 61.14 115.36 60.3312 112.239 59.4447C109.798 58.7518 107.396 58.365 104.877 58.1541C101.349 57.8586 94.6764 57.4801 94.2992 52.8081C94.2553 52.2643 93.3996 52.26 93.4439 52.8085Z" fill="#967557"/>
<path d="M36.923 0.829361C36.3889 3.04896 37.5388 4.95712 38.7856 6.70538C40.3857 8.94921 42.0699 11 43.0566 13.6121C43.7685 15.4964 43.8735 17.4312 43.1739 19.3274C42.5366 21.0546 41.3999 22.5776 40.466 24.1505C40.1809 24.6304 41.4204 24.5662 41.5593 24.5449C42.1089 24.4599 42.7846 24.2524 43.084 23.7478C43.9922 22.2183 45.0381 20.7514 45.7224 19.1017C46.4494 17.3493 46.45 15.4705 45.9435 13.6614C45.2355 11.1326 43.678 8.95818 42.11 6.89583C40.721 5.06915 38.9519 2.8744 39.541 0.426465C39.7263 -0.345109 37.1052 0.0720456 36.923 0.829361ZM57.3812 2.1348C56.2762 4.06699 57.0569 6.21978 57.8358 8.11898C58.7326 10.3058 59.5981 12.4319 59.7311 14.8224C59.9332 18.4588 57.2224 20.4487 54.8204 22.6856C54.3509 23.1229 55.2231 23.2801 55.4851 23.2714C56.1158 23.25 56.775 23.0351 57.2396 22.6025C59.6727 20.3364 62.1967 18.4059 62.3723 14.8309C62.4846 12.547 61.6872 10.3066 60.8177 8.23467C59.9682 6.21143 58.7906 3.84518 59.9992 1.73211C60.2759 1.24815 59.051 1.31577 58.9057 1.33797C58.364 1.42148 57.6709 1.62864 57.3812 2.1348ZM76.3101 0.669669C74.644 2.51835 74.8526 5.01985 75.173 7.31481C75.5541 10.0459 75.9913 12.7079 75.4697 15.4577C75.1489 17.1481 74.3694 18.6959 73.048 19.8215C71.7471 20.93 70.1607 21.6712 68.7012 22.543C68.4362 22.7015 67.8239 23.1765 68.4195 23.3816C68.9746 23.5726 69.7868 23.3773 70.2743 23.0862C73.4099 21.2125 76.7492 19.6661 77.8813 15.9038C78.6136 13.4717 78.4326 10.795 78.0685 8.32084C77.705 5.84887 76.857 2.66297 78.7287 0.586156C79.1449 0.124597 78.3725 -0.00983741 78.0646 0.000550718C77.4753 0.0205122 76.72 0.214832 76.3101 0.669669Z" fill="#FFCC00"/>
</svg>
