<svg width="146" height="126" viewBox="0 0 146 126" fill="none" xmlns="http://www.w3.org/2000/svg">
<path d="M67.5751 126C104.896 126 135.15 109.786 135.15 89.7867C135.15 69.7868 104.896 53.5737 67.5751 53.5737C30.2544 53.5737 0 69.7868 0 89.7867C0 109.786 30.2544 126 67.5751 126Z" fill="#9B724E"/>
<path d="M67.3728 123.135C104.135 123.135 133.936 107.563 133.936 88.3545C133.936 69.1456 104.135 53.5737 67.3728 53.5737C30.6108 53.5737 0.809326 69.1456 0.809326 88.3545C0.809326 107.563 30.6108 123.135 67.3728 123.135Z" fill="url(#paint0_radial_20002_10417)"/>
<path d="M68.1821 109.53C85.8927 109.53 100.25 102.019 100.25 92.7532C100.25 83.4877 85.8927 75.9766 68.1821 75.9766C50.4715 75.9766 36.1143 83.4877 36.1143 92.7532C36.1143 102.019 50.4715 109.53 68.1821 109.53Z" fill="url(#paint1_radial_20002_10417)"/>
<g style="mix-blend-mode:overlay" opacity="0.2">
<path d="M47.242 66.1568C46.3315 70.7602 39.7561 73.5222 35.8109 75.3635C29.2354 78.3301 13.8591 77.7163 14.7695 87.2299C11.7347 87.4345 11.6335 82.7289 11.6335 80.9898C11.6335 73.4199 18.0066 67.589 24.3797 63.804C29.1343 60.9397 46.0281 53.5744 47.3431 64.5201C47.3431 64.9293 47.3431 65.5431 47.242 66.1568Z" fill="#B28C69"/>
</g>
<path d="M67.6762 102.063C81.4201 102.063 92.5617 98.0329 92.5617 93.0612C92.5617 88.0895 81.4201 84.0591 67.6762 84.0591C53.9324 84.0591 42.7908 88.0895 42.7908 93.0612C42.7908 98.0329 53.9324 102.063 67.6762 102.063Z" fill="#9B724E"/>
<path d="M118.762 46.5163C121.696 44.5726 125.641 43.3451 129.182 43.4474C134.24 43.652 139.5 47.0277 140.613 51.938C141.827 57.1551 137.983 61.5538 133.835 64.4181C130.901 66.3618 127.563 67.7939 124.225 68.9192C122.404 69.5329 120.482 70.1467 118.661 70.6582C114.817 71.6812 110.669 72.7041 106.623 72.6018C106.623 72.6018 102.172 75.5684 100.553 80.3764C100.553 80.3764 118.56 77.3075 130.193 71.0674C131.104 70.6582 132.014 70.1467 132.925 69.6352C138.893 66.2595 145.266 60.6332 144.76 53.2678C144.558 49.176 141.523 46.414 138.185 43.8566C135.555 41.9129 133.734 42.0152 130.497 41.2991C127.057 40.5831 124.124 41.2991 120.684 41.606C120.684 41.606 118.054 40.4808 118.762 46.5163Z" fill="#BA8B5B"/>
<path d="M119.268 49.175C122.202 47.2314 126.147 46.1061 129.688 46.2084C134.746 46.413 140.006 49.6865 141.119 54.3922C142.333 59.507 138.489 63.8034 134.341 66.4631C131.407 68.4068 128.069 69.7366 124.731 70.8619C122.91 71.4757 121.089 71.9871 119.167 72.4986C115.323 73.5216 111.175 74.5445 107.129 74.3399C107.129 74.3399 102.678 77.2042 101.059 81.9099C101.059 81.9099 119.066 78.9433 130.699 72.9078C131.61 72.4986 132.52 71.9871 133.431 71.4757C139.399 68.0999 146.48 62.5759 145.974 55.4151C145.772 51.4256 143.445 46.7199 140.006 44.2648C137.376 42.4235 134.24 41.2982 131.104 40.6844C127.664 40.0707 124.933 40.3776 121.392 40.6844C121.392 40.7867 118.56 43.2419 119.268 49.175Z" fill="url(#paint2_linear_20002_10417)"/>
<path d="M76.8818 99.4027C81.2317 98.789 85.8851 97.6637 89.7292 95.4132C91.4489 94.3902 92.764 92.8558 93.9779 91.3213C96.4058 88.0478 98.6313 84.7744 101.363 81.7055C104.903 77.7159 108.646 73.931 111.378 69.3276C115.829 61.9623 118.358 53.4717 120.077 45.0834C120.583 42.6283 120.988 40.0709 121.291 37.5134C121.291 37.5134 117.144 56.5406 68.8902 57.3589H68.6878C19.7262 55.9268 16.3879 36.5928 16.3879 36.5928C16.5903 39.1502 16.8937 41.7076 17.2984 44.265C18.6135 52.7556 20.9402 61.3485 25.0877 68.9184C27.6167 73.5218 31.2585 77.5113 34.698 81.5009C37.3281 84.5698 39.4525 87.9455 41.7792 91.219C42.8919 92.7535 44.207 94.2879 45.8256 95.3109C49.5685 97.6637 54.2219 98.6867 58.5718 99.4027C61.5055 99.9142 73.9482 99.9142 76.8818 99.4027Z" fill="url(#paint3_linear_20002_10417)"/>
<g style="mix-blend-mode:overlay" opacity="0.4">
<path d="M114.109 64.0079C116.84 57.9725 118.661 51.6301 119.976 45.1854C120.482 42.7303 120.887 40.1729 121.19 37.6155C121.19 37.6155 117.043 56.6426 68.7891 57.461H68.5868C19.6252 56.0288 16.2869 36.6948 16.2869 36.6948C16.4892 39.2522 16.7927 41.8096 17.1973 44.3671C18.2089 50.8117 19.7263 57.1541 22.1542 63.1896C22.3565 63.1896 60.2916 91.0142 114.109 64.0079Z" fill="#E8D5CB"/>
</g>
<path d="M68.7891 58.6886C97.8411 58.6886 121.392 49.3912 121.392 37.9224C121.392 26.4536 97.8411 17.1562 68.7891 17.1562C39.737 17.1562 16.1857 26.4536 16.1857 37.9224C16.1857 49.3912 39.737 58.6886 68.7891 58.6886Z" fill="#FFF3CC"/>
<path d="M68.5867 56.0294C96.4096 56.0294 118.965 47.5106 118.965 37.0022C118.965 26.4938 96.4096 17.9751 68.5867 17.9751C40.7638 17.9751 18.2089 26.4938 18.2089 37.0022C18.2089 47.5106 40.7638 56.0294 68.5867 56.0294Z" fill="url(#paint4_linear_20002_10417)"/>
<path opacity="0.8" d="M68.5868 56.0288C94.0073 56.0288 114.615 49.0214 114.615 40.3774C114.615 31.7334 94.0073 24.7261 68.5868 24.7261C43.1663 24.7261 22.5588 31.7334 22.5588 40.3774C22.5588 49.0214 43.1663 56.0288 68.5868 56.0288Z" fill="url(#paint5_linear_20002_10417)"/>
<path opacity="0.8" d="M68.5866 56.0287C93.1133 56.0287 112.996 49.6168 112.996 41.7072C112.996 33.7977 93.1133 27.3857 68.5866 27.3857C44.06 27.3857 24.1772 33.7977 24.1772 41.7072C24.1772 49.6168 44.06 56.0287 68.5866 56.0287Z" fill="url(#paint6_linear_20002_10417)"/>
<path opacity="0.8" d="M70.4076 56.0292C92.5877 56.0292 110.568 50.121 110.568 42.833C110.568 35.5449 92.5877 29.6367 70.4076 29.6367C48.2275 29.6367 30.2469 35.5449 30.2469 42.833C30.2469 50.121 48.2275 56.0292 70.4076 56.0292Z" fill="url(#paint7_linear_20002_10417)"/>
<path opacity="0.8" d="M71.0145 56.0291C90.4011 56.0291 106.117 50.7164 106.117 44.1628C106.117 37.6091 90.4011 32.2964 71.0145 32.2964C51.6278 32.2964 35.9119 37.6091 35.9119 44.1628C35.9119 50.7164 51.6278 56.0291 71.0145 56.0291Z" fill="url(#paint8_linear_20002_10417)"/>
<g style="mix-blend-mode:overlay" opacity="0.4">
<path d="M52.1987 95.6178C52.1987 95.6178 51.3894 90.2984 48.557 87.6387L42.4873 79.2504C42.4873 79.2504 31.9667 68.9184 34.3945 54.0854C34.3945 54.0854 44.9152 57.5635 49.7709 57.5635C49.7709 57.5635 48.1523 66.6679 51.7941 75.4654C51.7941 75.3631 58.4707 95.8224 52.1987 95.6178Z" fill="#F2E0D7"/>
</g>
<g style="mix-blend-mode:overlay" opacity="0.2">
<path d="M46.1291 105.131L18.917 112.394C18.917 112.394 38.8456 122.726 55.8405 122.726L54.222 108.2L46.1291 105.131Z" fill="#E8D5CB"/>
</g>
<g style="mix-blend-mode:overlay" opacity="0.2">
<path d="M93.978 102.881L105.308 116.998C105.308 116.998 132.52 107.893 134.139 90.2983H100.048C100.048 90.2983 101.262 99.4027 93.978 102.881Z" fill="#E8D5CB"/>
</g>
<g style="mix-blend-mode:overlay" opacity="0.4">
<path d="M49.4674 64.5196L33.9899 59.814L34.2934 63.5989L49.6697 68.4069L49.4674 64.5196Z" fill="white"/>
</g>
<g style="mix-blend-mode:overlay" opacity="0.4">
<path d="M35.5073 67.895L50.5802 72.0892L52.2999 77.3063L53.3115 80.9889L41.4758 78.5338C41.4758 78.5338 36.0131 71.5777 35.5073 67.895Z" fill="white"/>
</g>
<path d="M32.4725 88.8663C32.4725 88.8663 33.7876 93.1627 27.9203 94.4926C27.9203 94.4926 20.839 95.7201 18.7147 89.2754C18.7147 89.2754 18.0065 86.4111 23.0646 86.002C23.0646 86.002 31.3597 87.3318 32.4725 88.8663Z" fill="url(#paint9_linear_20002_10417)"/>
<path d="M30.955 90.2983C30.955 90.2983 24.683 92.1396 19.9285 89.0707C19.9285 89.0707 18.3099 86.3087 21.9517 86.6156C23.6714 87.5363 25.6946 87.9455 27.6167 88.3546C28.426 88.5592 29.3364 88.6615 30.0445 89.0707C30.2469 89.0707 31.7643 89.9914 30.955 90.2983Z" fill="#A55B11"/>
<path d="M31.3597 89.5821C31.3597 89.5821 31.562 88.3546 27.0098 87.2293L22.3564 86.2064C22.3564 86.2064 22.9634 84.365 28.9319 86.3087C28.8307 86.3087 34.698 88.2523 31.3597 89.5821Z" fill="#A55B11"/>
<path d="M13.3532 94.6973C14.466 93.9812 15.5787 93.4698 16.995 93.3675C18.3101 93.1629 19.524 93.3675 20.7379 93.8789C23.1658 94.7996 26.4029 98.2777 25.8971 100.835C25.3913 103.393 23.4692 104.415 20.8391 104.006C18.7147 103.699 16.388 102.472 14.6683 101.347C12.5439 99.9144 10.4196 96.5386 13.3532 94.6973Z" fill="url(#paint10_linear_20002_10417)"/>
<g style="mix-blend-mode:overlay" opacity="0.2">
<path d="M22.7611 95.9251C24.4808 97.255 25.4924 98.8917 24.8855 99.5055C24.2785 100.119 22.4576 99.5055 20.7379 98.1756C19.0182 96.8458 18.0066 95.209 18.6135 94.5952C19.1193 93.9815 21.0414 94.493 22.7611 95.9251Z" fill="url(#paint11_linear_20002_10417)"/>
</g>
<path d="M32.0678 93.9811C32.0678 92.7535 32.2701 91.526 32.9782 90.4007C33.5852 89.3778 34.4956 88.4571 35.6084 87.8433C37.8339 86.5135 42.6896 86.002 44.6117 87.8433C46.5337 89.6847 46.3314 91.7306 44.4093 93.5719C42.8919 95.0041 40.4641 96.1293 38.542 96.7431C36.013 97.5615 31.9666 97.2546 32.0678 93.9811Z" fill="url(#paint12_linear_20002_10417)"/>
<g style="mix-blend-mode:overlay" opacity="0.2">
<path d="M38.4409 87.4347C40.6664 86.9232 42.5885 87.0255 42.7908 87.8439C42.9931 88.6623 41.4757 89.6852 39.2502 90.299C37.0246 90.8105 35.1026 90.7082 34.9003 89.8898C34.698 89.0715 36.3165 88.0485 38.4409 87.4347Z" fill="url(#paint13_linear_20002_10417)"/>
</g>
<path d="M1.82099 91.9353C3.03491 92.6514 4.75464 92.856 6.06972 92.856C8.19409 92.9583 10.4196 92.856 12.544 92.7537C12.544 92.7537 19.3217 92.4468 16.3881 88.4573C15.5788 87.332 14.0614 86.5136 12.7463 86.0021C11.3301 85.4907 9.71149 85.2861 8.09293 85.3884C7.18249 85.4907 6.17088 85.593 5.26044 85.7976C4.35 86.0021 3.84419 86.4113 3.03491 86.8205C2.22563 87.2297 1.41635 87.7412 0.910544 88.4573C0.303582 89.2756 0.303582 90.1963 0.910544 91.117C1.11286 91.5261 1.41635 91.7307 1.82099 91.9353Z" fill="url(#paint14_linear_20002_10417)"/>
<path d="M0.606934 99.1989C0.606934 99.1989 1.11274 103.598 7.0812 102.779C7.0812 102.779 14.1624 101.347 13.4543 94.6979C13.4543 94.6979 12.9485 91.7313 8.0928 93.2657C8.0928 93.2657 1.01157 97.4599 0.606934 99.1989Z" fill="url(#paint15_linear_20002_10417)"/>
<path d="M2.529 100.017C2.529 100.017 9.10442 99.5052 12.2404 95.0041C12.2404 95.0041 12.645 91.9352 9.40791 93.4697C8.09282 94.9018 6.47426 96.0271 4.85569 97.0501C4.14757 97.5615 3.43944 97.8684 2.93364 98.4822C2.73132 98.5845 1.71972 100.017 2.529 100.017Z" fill="#A55B11"/>
<path d="M1.92197 99.5056C1.92197 99.5056 1.21385 98.3803 5.05794 95.8229L9.0032 93.1632C9.0032 93.1632 7.68811 91.7311 2.93358 95.516C2.83242 95.6183 -1.7198 99.4033 1.92197 99.5056Z" fill="#A55B11"/>
<path d="M18.5124 105.234C17.9055 106.257 16.7927 106.871 15.8823 107.28C14.466 107.996 12.8475 108.507 11.33 108.916C11.33 108.916 6.47435 110.553 7.08131 105.95C7.28363 104.722 7.99176 103.495 8.69988 102.676C9.50916 101.756 10.5208 101.142 11.7347 100.835C12.4428 100.63 13.1509 100.528 13.8591 100.426C14.5672 100.324 15.073 100.63 15.7811 100.733C16.4892 100.937 17.1973 101.142 17.9055 101.756C18.6136 102.369 18.9171 103.188 18.8159 104.211C18.8159 104.62 18.7148 104.927 18.5124 105.234Z" fill="url(#paint16_linear_20002_10417)"/>
<path d="M56.6497 95.7203C55.5369 96.5387 53.8172 96.8456 52.5021 96.9479C50.3778 97.2548 48.1522 97.2547 46.0279 97.2547C46.0279 97.2547 39.2501 97.4593 41.8803 93.2652C42.5884 92.1399 44.0047 91.117 45.3198 90.5032C46.736 89.8894 48.3546 89.5825 49.872 89.5825C50.7824 89.5825 51.794 89.6848 52.7045 89.7871C53.6149 89.8894 54.2219 90.2986 55.0311 90.6055C55.8404 91.0147 56.7509 91.4239 57.2567 92.1399C57.9648 92.9583 57.9648 93.879 57.459 94.7996C57.2567 95.2088 56.9532 95.5157 56.6497 95.7203Z" fill="url(#paint17_linear_20002_10417)"/>
<path d="M24.2785 104.518C24.8855 103.392 25.5936 102.369 26.6052 101.653C27.6168 100.937 28.8308 100.426 30.0447 100.221C32.6748 99.9143 37.3282 101.142 38.3398 103.597C39.3514 105.95 38.2387 107.791 35.7097 108.814C33.6864 109.53 31.0563 109.632 28.9319 109.53C26.5041 109.326 22.8623 107.484 24.2785 104.518Z" fill="url(#paint18_linear_20002_10417)"/>
<g style="mix-blend-mode:overlay" opacity="0.2">
<path d="M32.9783 101.039C35.2038 101.346 36.9236 102.267 36.8224 103.085C36.7213 103.904 34.7992 104.313 32.5737 104.006C30.3482 103.699 28.6284 102.778 28.7296 101.96C28.8307 101.039 30.7528 100.733 32.9783 101.039Z" fill="url(#paint19_linear_20002_10417)"/>
</g>
<path d="M27.0098 99.7102C28.2238 100.426 29.9435 100.631 31.2586 100.631C33.3829 100.733 35.6085 100.631 37.7328 100.529C37.7328 100.529 44.5106 100.222 41.5769 96.2322C40.7676 95.1069 39.2502 94.2885 37.9351 93.777C36.5189 93.2656 34.9003 93.061 33.2818 93.1633C32.3713 93.2656 31.3597 93.3679 30.4493 93.5725C29.5388 93.777 29.033 94.1862 28.2238 94.5954C27.4145 95.0046 26.6052 95.5161 26.0994 96.2322C25.4924 97.0505 25.4924 97.9712 26.0994 98.8919C26.3017 99.1988 26.6052 99.5056 27.0098 99.7102Z" fill="url(#paint20_linear_20002_10417)"/>
<path d="M38.1375 103.392C38.1375 103.392 38.6433 107.791 44.6117 106.973C44.6117 106.973 51.6929 105.541 50.9848 98.8913C50.9848 98.8913 50.479 95.9247 45.6233 97.4591C45.6233 97.3568 38.5421 101.551 38.1375 103.392Z" fill="url(#paint21_linear_20002_10417)"/>
<path d="M40.0595 104.109C40.0595 104.109 46.6349 103.597 49.7709 99.0961C49.7709 99.0961 50.1756 96.0273 46.9384 97.4594C45.6233 98.8916 44.0048 100.017 42.3862 101.04C41.6781 101.449 40.97 101.858 40.4642 102.472C40.2618 102.779 39.2502 104.211 40.0595 104.109Z" fill="#A55B11"/>
<path d="M39.4525 103.7C39.4525 103.7 38.7444 102.575 42.5885 100.017L46.5337 97.3575C46.5337 97.3575 45.2186 95.9254 40.4641 99.7104C40.3629 99.7104 35.8107 103.495 39.4525 103.7Z" fill="#A55B11"/>
<path d="M68.0142 46.6317C68.0142 46.6317 61.9031 38.2141 69.542 28.9948C69.542 28.9948 80.2366 19.7756 70.0513 7.34961C70.0513 7.34961 81.7644 12.9613 75.144 30.5982C75.144 30.5982 65.7735 40.539 73.8199 50.3996L68.0142 46.6317Z" fill="url(#paint22_linear_20002_10417)"/>
<path d="M58.6286 39.2821C58.6286 39.2821 52.5174 30.8645 60.1564 21.6452C60.1564 21.6452 70.851 12.426 60.6657 0C60.6657 0 72.3788 5.61173 65.7584 23.2486C65.7584 23.2486 56.3879 33.1894 64.4343 43.05L58.6286 39.2821Z" fill="url(#paint23_linear_20002_10417)"/>
<defs>
<radialGradient id="paint0_radial_20002_10417" cx="0" cy="0" r="1" gradientUnits="userSpaceOnUse" gradientTransform="translate(67.4031 88.3753) scale(53.8882 50.6094)">
<stop offset="0.005618" stop-color="#CAA37C"/>
<stop offset="0.4157" stop-color="#E8D5CB"/>
<stop offset="0.882" stop-color="#CAA37C"/>
</radialGradient>
<radialGradient id="paint1_radial_20002_10417" cx="0" cy="0" r="1" gradientUnits="userSpaceOnUse" gradientTransform="translate(68.14 92.7843) scale(25.9181 24.3411)">
<stop offset="0.005618" stop-color="#CAA37C"/>
<stop offset="0.4157" stop-color="#E8D5CB"/>
<stop offset="0.882" stop-color="#CAA37C"/>
</radialGradient>
<linearGradient id="paint2_linear_20002_10417" x1="101.104" y1="61.176" x2="146.038" y2="61.176" gradientUnits="userSpaceOnUse">
<stop offset="0.2247" stop-color="#E8D5CB"/>
<stop offset="0.927" stop-color="#CAA37C"/>
</linearGradient>
<linearGradient id="paint3_linear_20002_10417" x1="16.4059" y1="68.2192" x2="121.254" y2="68.2192" gradientUnits="userSpaceOnUse">
<stop offset="0.2247" stop-color="#E8D5CB"/>
<stop offset="0.927" stop-color="#CAA37C"/>
</linearGradient>
<linearGradient id="paint4_linear_20002_10417" x1="18.1891" y1="37.0068" x2="118.936" y2="37.0068" gradientUnits="userSpaceOnUse">
<stop offset="0.005618" stop-color="#CAA37C"/>
<stop offset="0.8034" stop-color="#E8D5CB"/>
</linearGradient>
<linearGradient id="paint5_linear_20002_10417" x1="22.5542" y1="40.3629" x2="114.674" y2="40.3629" gradientUnits="userSpaceOnUse">
<stop offset="0.011236" stop-color="#FFD93B"/>
<stop offset="1" stop-color="#D17A33"/>
</linearGradient>
<linearGradient id="paint6_linear_20002_10417" x1="24.1761" y1="41.6965" x2="113.052" y2="41.6965" gradientUnits="userSpaceOnUse">
<stop offset="0.011236" stop-color="#E2B137"/>
<stop offset="1" stop-color="#AD692B"/>
</linearGradient>
<linearGradient id="paint7_linear_20002_10417" x1="30.2636" y1="42.8408" x2="110.616" y2="42.8408" gradientUnits="userSpaceOnUse">
<stop offset="0.011236" stop-color="#D89235"/>
<stop offset="0.9775" stop-color="#7F5429"/>
</linearGradient>
<linearGradient id="paint8_linear_20002_10417" x1="35.9455" y1="44.1734" x2="106.153" y2="44.1734" gradientUnits="userSpaceOnUse">
<stop offset="0.011236" stop-color="#E3984B"/>
<stop offset="0.9494" stop-color="#874A04"/>
</linearGradient>
<linearGradient id="paint9_linear_20002_10417" x1="19.5726" y1="91.9616" x2="32.2401" y2="88.0823" gradientUnits="userSpaceOnUse">
<stop stop-color="#75410D"/>
<stop offset="1"/>
</linearGradient>
<linearGradient id="paint10_linear_20002_10417" x1="23.5654" y1="95.101" x2="16.7047" y2="100.705" gradientUnits="userSpaceOnUse">
<stop offset="0.1685" stop-color="#C16921"/>
<stop offset="0.8315" stop-color="#2D1C14"/>
</linearGradient>
<linearGradient id="paint11_linear_20002_10417" x1="20.3713" y1="98.4361" x2="23.1467" y2="95.5416" gradientUnits="userSpaceOnUse">
<stop offset="0.3371" stop-color="#C16921"/>
<stop offset="0.7809" stop-color="#FFA969"/>
</linearGradient>
<linearGradient id="paint12_linear_20002_10417" x1="38.4993" y1="86.4254" x2="39.1736" y2="94.7929" gradientUnits="userSpaceOnUse">
<stop offset="0.1685" stop-color="#C16921"/>
<stop offset="0.8315" stop-color="#2D1C14"/>
</linearGradient>
<linearGradient id="paint13_linear_20002_10417" x1="39.196" y1="90.725" x2="38.4261" y2="86.9908" gradientUnits="userSpaceOnUse">
<stop offset="0.3371" stop-color="#C16921"/>
<stop offset="0.7809" stop-color="#FFA969"/>
</linearGradient>
<linearGradient id="paint14_linear_20002_10417" x1="8.1725" y1="84.8991" x2="9.03018" y2="92.8008" gradientUnits="userSpaceOnUse">
<stop stop-color="#C16921"/>
<stop offset="0.8315" stop-color="#2D1C14"/>
</linearGradient>
<linearGradient id="paint15_linear_20002_10417" x1="13.6749" y1="97.4071" x2="0.505843" y2="98.5312" gradientUnits="userSpaceOnUse">
<stop stop-color="#75410D"/>
<stop offset="1"/>
</linearGradient>
<linearGradient id="paint16_linear_20002_10417" x1="11.6183" y1="100.352" x2="13.6458" y2="107.974" gradientUnits="userSpaceOnUse">
<stop stop-color="#C16921"/>
<stop offset="0.8315" stop-color="#2D1C14"/>
</linearGradient>
<linearGradient id="paint17_linear_20002_10417" x1="49.7272" y1="89.1308" x2="49.4852" y2="97.0463" gradientUnits="userSpaceOnUse">
<stop stop-color="#C16921"/>
<stop offset="0.8315" stop-color="#2D1C14"/>
</linearGradient>
<linearGradient id="paint18_linear_20002_10417" x1="33.3383" y1="99.9656" x2="30.5026" y2="108.026" gradientUnits="userSpaceOnUse">
<stop offset="0.1685" stop-color="#C16921"/>
<stop offset="0.8315" stop-color="#2D1C14"/>
</linearGradient>
<linearGradient id="paint19_linear_20002_10417" x1="32.3368" y1="104.289" x2="33.1615" y2="100.522" gradientUnits="userSpaceOnUse">
<stop offset="0.3371" stop-color="#C16921"/>
<stop offset="0.7809" stop-color="#FFA969"/>
</linearGradient>
<linearGradient id="paint20_linear_20002_10417" x1="33.3559" y1="92.6159" x2="34.2137" y2="100.517" gradientUnits="userSpaceOnUse">
<stop stop-color="#C16921"/>
<stop offset="0.8315" stop-color="#2D1C14"/>
</linearGradient>
<linearGradient id="paint21_linear_20002_10417" x1="51.2034" y1="101.524" x2="38.034" y2="102.648" gradientUnits="userSpaceOnUse">
<stop stop-color="#75410D"/>
<stop offset="1"/>
</linearGradient>
<linearGradient id="paint22_linear_20002_10417" x1="72.5944" y1="-0.316652" x2="71.3319" y2="51.0104" gradientUnits="userSpaceOnUse">
<stop offset="0.011236" stop-color="#FFD93B"/>
<stop offset="1" stop-color="#D17A33"/>
</linearGradient>
<linearGradient id="paint23_linear_20002_10417" x1="62.9185" y1="-3.92685" x2="61.6561" y2="55.4134" gradientUnits="userSpaceOnUse">
<stop offset="0.3596" stop-color="#FFF3C0"/>
<stop offset="1" stop-color="#FFD93B"/>
</linearGradient>
</defs>
</svg>
