<svg width="110" height="140" viewBox="0 0 110 140" fill="none" xmlns="http://www.w3.org/2000/svg">
<path d="M98.1598 46.649C95.0718 63.3941 98.489 105.098 99.7719 114.468C99.9081 115.442 100.169 119.068 98.8069 123.158C97.876 125.934 95.946 128.517 93.1986 129.548C91.7568 130.08 90.1902 130.171 88.6575 130.25C81.721 130.601 74.7732 130.953 67.8367 131.304C64.5444 131.474 61.2407 131.632 57.9485 131.632C46.6412 131.598 35.2203 129.525 24.106 131.587C21.0862 132.153 17.828 132.981 15.0693 131.632C12.7874 130.511 11.391 128.063 10.8915 125.571C10.3919 123.078 10.6417 120.507 10.8688 117.98C12.1403 103.626 12.2992 89.2143 12.4468 74.803C12.5149 68.6171 12.5717 62.4198 12.6398 56.2338C12.6738 53.2315 12.6965 50.2178 12.3446 47.2381C11.6521 41.5393 9.52913 35.8972 10.3125 30.2097C11.5159 21.5539 19.6898 16.2177 21.5517 14.9714C22.8686 14.0991 26.2063 12.0484 38.6943 9.92976C47.7764 8.38893 54.1453 7.30129 63.1026 7.69783C73.6152 8.16234 81.8346 8.52489 89.2479 14.269C93.6982 17.7245 96.2298 21.8485 97.6148 24.6016C97.8078 25.3493 98.1144 26.5956 98.3982 28.1364C100.044 37.2907 98.5344 44.6097 98.1598 46.649Z" fill="#F2BB7C"/>
<path d="M90.7692 44.6212C88.9868 54.3533 89.1003 64.4253 89.3387 74.282C89.5885 84.2861 90.1788 94.3014 91.053 104.271C91.4049 108.361 91.825 112.44 92.3813 116.507C92.2904 115.828 92.1996 115.148 92.1088 114.479C92.3131 116.054 92.2337 117.674 92.0407 119.249C92.1315 118.569 92.2223 117.89 92.3131 117.221C92.0974 118.853 91.7228 120.484 91.0984 122.002C91.3595 121.391 91.6093 120.79 91.8704 120.178C91.4617 121.141 90.9395 122.048 90.3037 122.886C90.7011 122.365 91.0984 121.855 91.5071 121.334C91.0076 121.957 90.4627 122.512 89.8382 123.011C90.3605 122.614 90.8714 122.218 91.3936 121.81C90.86 122.218 90.2924 122.546 89.6793 122.818C90.2924 122.557 90.8941 122.308 91.5071 122.048C90.6784 122.388 89.8155 122.58 88.93 122.705C89.6112 122.614 90.2924 122.523 90.9622 122.433C88.6803 122.705 86.3643 122.727 84.0711 122.841C81.7211 122.965 79.3597 123.079 77.0097 123.203C72.3097 123.441 67.5983 123.724 62.8983 123.894C58.2664 124.064 53.6572 123.928 49.0366 123.656C44.4615 123.385 39.8977 123.033 35.3112 123.033C32.8022 123.033 30.2819 123.135 27.7843 123.407C25.9111 123.611 24.0379 123.86 22.1874 124.2C21.0067 124.416 19.8261 124.665 18.634 124.835C19.3152 124.744 19.9964 124.653 20.6662 124.563C19.5309 124.71 18.407 124.778 17.2604 124.642C17.9415 124.733 18.6227 124.823 19.2925 124.914C18.6681 124.823 18.0664 124.676 17.4761 124.438C18.0891 124.699 18.6908 124.948 19.3038 125.209C18.7703 124.982 18.2821 124.699 17.828 124.348C18.3502 124.744 18.8611 125.141 19.3833 125.548C18.8951 125.163 18.4751 124.733 18.0891 124.246C18.4864 124.767 18.8838 125.277 19.2925 125.798C18.8043 125.152 18.407 124.449 18.0891 123.702C18.3502 124.314 18.6 124.914 18.8611 125.526C18.4864 124.585 18.248 123.622 18.1118 122.614C18.2026 123.294 18.2934 123.974 18.3843 124.642C18.0323 121.776 18.4524 118.887 18.6908 116.032C18.9292 113.177 19.1108 110.321 19.2698 107.455C19.5877 101.654 19.7693 95.8423 19.8942 90.0302C20.1326 78.3607 20.2121 66.6912 20.3142 55.0217C20.3483 51.1697 20.1212 47.4082 19.4968 43.5902C18.9973 40.5085 18.214 37.4835 17.7826 34.3905C17.8734 35.0703 17.9642 35.7501 18.055 36.4185C17.7826 34.3565 17.6918 32.2719 17.9642 30.2099C17.8734 30.8897 17.7826 31.5695 17.6918 32.2379C17.8961 30.8444 18.2707 29.4961 18.8157 28.1932C18.5546 28.805 18.3048 29.4055 18.0437 30.0173C18.7249 28.4085 19.6331 26.9017 20.7116 25.5195C20.3142 26.0406 19.9169 26.5505 19.5082 27.0716C20.9727 25.1909 22.7097 23.5368 24.5942 22.0753C24.072 22.4718 23.5611 22.8683 23.0389 23.2762C24.6056 22.0639 26.2404 20.965 28.0681 20.1945C27.4551 20.4551 26.8534 20.7044 26.2403 20.965C31.701 18.6764 37.7634 17.8153 43.5532 16.841C45.7897 16.4671 48.0376 16.1046 50.2854 15.7987C49.6042 15.8893 48.9231 15.9799 48.2533 16.0706C52.6695 15.4814 57.1084 15.1869 61.57 15.3002C65.8273 15.4135 70.1186 15.6061 74.3418 16.1612C73.6606 16.0706 72.9795 15.9799 72.3097 15.8893C75.409 16.3085 78.4628 16.9996 81.3578 18.2119C80.7447 17.9513 80.143 17.702 79.53 17.4415C81.6302 18.3365 83.5829 19.4921 85.388 20.8857C84.8658 20.4891 84.3549 20.0926 83.8327 19.6847C85.7399 21.1802 87.4542 22.9023 88.9414 24.817C88.544 24.2959 88.1467 23.786 87.738 23.2649C88.9868 24.8963 90.0653 26.6298 90.9962 28.4652C90.7351 27.8534 90.4854 27.2529 90.2242 26.6411C90.7124 28.5105 91.0871 30.4138 91.3482 32.3285C91.2573 31.6488 91.1665 30.969 91.0757 30.3005C91.6433 34.6285 91.632 39.0243 91.053 43.3522C91.1438 42.6725 91.2346 41.9927 91.3255 41.3242C91.1665 42.4119 90.9735 43.5109 90.7692 44.6212C90.4513 45.6408 90.4059 46.6492 90.6329 47.6688C90.6784 48.6885 90.9849 49.6288 91.5412 50.5125C92.4721 52.0987 94.2885 53.6169 96.1163 54.0247C98.0803 54.4666 100.283 54.3759 102.02 53.2543C103.609 52.2233 105.187 50.6145 105.539 48.6885C106.368 44.236 106.924 39.7268 106.777 35.1949C106.663 31.4902 106.175 27.7514 105.357 24.1372C105.005 22.5624 104.426 21.1009 103.643 19.6847C103.11 18.7104 102.531 17.77 101.906 16.8523C98.2279 11.5274 93.3235 6.84828 87.3179 4.2538C84.4571 3.01888 81.6189 2.02187 78.5536 1.46672C75.3749 0.888915 72.1507 0.549027 68.9266 0.345094C62.9891 -0.0401123 57.063 -0.210056 51.1255 0.413072C47.6062 0.786948 44.0982 1.30811 40.6015 1.88592C37.4795 2.39575 34.3462 2.91691 31.2469 3.57403C27.2507 4.42375 23.3908 5.54538 19.6671 7.25615C18.1232 7.96991 16.7268 8.95559 15.3758 9.98658C13.4345 11.4708 11.5386 12.9663 9.89244 14.779C8.04195 16.841 6.25957 19.1409 5.07889 21.6787C4.31826 23.3102 3.58033 24.9983 3.17163 26.7657C2.71752 28.7031 2.46777 30.7537 2.45641 32.7477C2.44506 36.5998 3.28516 40.4405 4.04579 44.202C4.36367 45.7315 4.65884 47.261 4.87454 48.8131C4.78372 48.1333 4.6929 47.4536 4.60208 46.7851C5.04483 50.1273 4.98807 53.5036 4.95401 56.8685C4.91995 60.29 4.88589 63.7229 4.85184 67.1444C4.78372 73.8628 4.73831 80.5926 4.62478 87.3224C4.51125 94.1202 4.31826 100.907 3.94362 107.693C3.76197 111.047 3.52357 114.389 3.2284 117.731C3.08081 119.362 2.92187 120.983 2.93323 122.625C2.95593 124.699 3.17163 126.885 3.83009 128.868C5.47623 133.864 9.24534 138.396 14.6152 139.541C16.0116 139.835 17.5101 140.039 18.9519 139.994C20.3937 139.948 21.8355 139.71 23.2432 139.484C25.0029 139.201 26.7399 138.815 28.4995 138.566C27.8184 138.657 27.1372 138.747 26.4674 138.838C32.4276 138.045 38.4559 138.283 44.4387 138.645C50.5125 139.008 56.5521 139.393 62.6371 139.178C68.8698 138.951 75.1024 138.577 81.3351 138.26C84.3776 138.102 87.4655 138.068 90.4967 137.762C93.2327 137.49 95.4351 137.048 97.8873 135.779C99.3859 135.009 100.794 133.876 101.918 132.618C104.585 129.616 106.334 125.945 106.981 121.968C107.287 120.122 107.548 118.23 107.548 116.349C107.537 114.978 107.333 113.675 107.151 112.304C107.242 112.984 107.333 113.664 107.424 114.332C106.481 107.308 106.005 100.215 105.539 93.1458C104.892 83.1644 104.449 73.1604 104.585 63.1564C104.654 58.4093 104.824 53.6508 105.448 48.9377C105.357 49.6175 105.267 50.2973 105.176 50.9657C105.278 50.1953 105.403 49.4136 105.539 48.6545C105.857 47.6348 105.902 46.6265 105.675 45.6068C105.63 44.5872 105.323 43.6468 104.767 42.7631C103.836 41.177 102.02 39.6588 100.192 39.2509C98.2279 38.8091 96.0255 38.8997 94.2885 40.0213C92.6991 41.075 91.1211 42.6838 90.7692 44.6212Z" fill="#D8853A"/>
<path d="M101.146 95.8195C102.848 97.1224 103.019 99.4676 103.076 100.397C103.393 105.019 100.044 106.073 99.3518 110.446C98.5117 115.771 103.053 116.859 101.929 121.957C101.123 125.582 98.0009 128.755 94.9697 130.318C93.5165 131.066 93.4711 130.726 92.018 131.474C88.896 133.083 87.6358 137.422 84.5025 139.008C80.7447 140.9 76.4988 137.977 73.2065 135.224C69.9256 132.471 65.5889 129.627 61.8992 131.666C60.1282 132.641 58.9816 134.567 57.4263 135.892C53.6912 139.087 47.4586 138.045 44.7907 133.785C43.4738 131.689 42.5315 128.675 40.1815 128.426C38.9895 128.301 38.0926 128.743 36.56 129.57C31.2242 132.437 28.545 133.864 26.5696 133.966C22.8686 134.148 18.7022 130.828 17.249 127.146C14.9558 121.356 20.0191 116.394 17.442 113.811C15.4439 111.806 11.8905 114.275 7.02021 111.624C6.04388 111.092 3.96633 109.959 2.99 107.818C1.50279 104.555 3.98904 102.096 4.74967 97.9268C6.24823 89.6562 -1.33539 87.1524 0.208583 80.0261C1.50279 74.0667 7.26997 73.5908 7.64461 67.8127C7.93978 63.111 4.35232 62.6238 3.27382 57.5821C1.37791 48.7337 12.8101 41.936 12.1062 32.8949C11.9019 30.2438 10.6304 27.7966 10.2671 25.1568C9.9038 22.517 10.9823 19.2428 13.4345 18.8236C15.2169 18.5177 17.0674 19.8772 18.793 19.2768C21.3133 18.4044 21.1998 14.6543 21.756 11.8672C23.0502 5.40933 30.2365 2.16906 36.367 2.88283C42.4974 3.60792 47.9922 7.08611 53.7366 9.49931C54.8378 9.96383 55.9845 10.3944 57.1651 10.3037C58.641 10.2017 59.9579 9.29538 61.2408 8.50231C63.7157 6.98414 66.5084 5.74922 69.358 6.06644C72.1961 6.38367 75.0116 8.68358 75.2273 11.7426C75.3635 13.6233 74.9094 16.2291 76.5896 16.7842C77.8725 17.2034 78.951 15.8099 79.8138 14.7109C83.8213 9.61261 91.6093 8.58161 96.6726 12.479C100.828 15.6739 102.758 21.2141 103.916 26.5504C104.551 29.496 105.017 32.6343 104.109 35.4894C103.28 38.0952 101.395 40.1459 100.101 42.5364C98.8069 44.927 98.2166 48.1899 99.8968 50.2859C101.588 52.3932 104.688 52.2685 106.913 53.7187C109.774 55.5881 110.602 59.882 109.581 63.2922C109.149 64.7084 107.31 67.0537 103.564 71.7328C101.702 74.0667 100.987 74.8258 101.021 76.106C101.077 78.4173 103.427 78.6892 104.619 81.9521C104.744 82.2806 105.97 85.8042 104.233 88.8971C103.552 90.1207 102.599 90.9138 101.963 91.4576C99.647 93.4176 97.5127 93.7462 97.6035 94.3807C97.683 94.9811 99.6129 94.6526 101.146 95.8195Z" fill="#F5E7C5"/>
<path d="M17.8734 51.1811C16.3976 50.1388 16.1592 48.1561 16.0684 47.363C15.6142 43.4543 18.3843 42.4233 18.793 38.6732C19.2812 34.1187 15.4326 33.371 16.1705 28.9977C16.7041 25.8821 19.1904 23.061 21.6766 21.6222C22.8686 20.9311 22.914 21.2256 24.1061 20.5232C26.6604 19.039 27.5346 15.3002 30.1003 13.8274C33.1769 12.0713 36.8552 14.3939 39.7161 16.6032C42.5769 18.8124 46.3233 21.067 49.3432 19.1863C50.7963 18.2799 51.6705 16.6145 52.9306 15.4135C55.9391 12.5585 61.1954 13.1929 63.6135 16.7164C64.8056 18.4499 65.7138 20.965 67.6891 21.0897C68.6882 21.1577 69.4261 20.7385 70.6749 19.9794C75.0344 17.3396 77.2141 16.014 78.8829 15.8554C81.9709 15.5608 85.6037 18.212 86.9774 21.2823C89.1344 26.1087 85.0815 30.5272 87.3407 32.6232C89.089 34.2547 91.9726 32.0114 96.1618 34.0734C97.0019 34.4926 98.7842 35.365 99.6925 37.155C101.066 39.8741 99.0794 42.0494 98.6139 45.6296C97.683 52.7219 104.143 54.546 103.132 60.664C102.281 65.7736 97.4673 66.4081 97.3879 71.3251C97.3311 75.3245 100.351 75.6077 101.463 79.845C103.405 87.2885 94.0956 93.5085 95.0378 101.167C95.3217 103.411 96.4796 105.439 96.8883 107.67C97.297 109.902 96.525 112.723 94.4816 113.177C92.9943 113.505 91.3936 112.429 89.9745 112.995C87.897 113.834 88.1354 117.017 87.7835 119.408C86.9547 124.948 81.0627 127.984 75.8972 127.611C70.7317 127.237 65.9862 124.495 61.0705 122.66C60.1282 122.308 59.1519 121.991 58.1642 122.104C56.9268 122.252 55.871 123.067 54.8265 123.792C52.8057 125.186 50.5125 126.342 48.1171 126.183C45.7216 126.024 43.2695 124.178 42.9743 121.595C42.7926 120.008 43.0651 117.776 41.6347 117.369C40.5448 117.063 39.6934 118.286 39.0122 119.249C35.8561 123.736 29.3624 124.914 24.9689 121.798C21.3587 119.249 19.5196 114.604 18.3389 110.118C17.6918 107.636 17.1696 104.985 17.828 102.527C18.4184 100.272 19.9169 98.4595 20.9046 96.3862C21.8923 94.3129 22.2669 91.5031 20.7684 89.7924C19.2585 88.0589 16.6701 88.2968 14.7514 87.1526C12.2766 85.6797 11.4137 82.0656 12.1403 79.1199C12.4355 77.8963 13.9 75.8343 16.8517 71.7103C18.3275 69.6597 18.8838 68.9912 18.8044 67.8922C18.6681 65.9322 16.6928 65.7849 15.5575 63.0658C15.444 62.7939 14.2633 59.8482 15.6029 57.1518C16.1251 56.0868 16.8971 55.373 17.408 54.8859C19.2698 53.1298 21.0522 52.7672 20.95 52.2347C20.8251 51.7589 19.2131 52.1101 17.8734 51.1811Z" fill="#C5C532"/>
<path d="M83.458 59.6443C83.4807 59.6669 83.5033 59.6896 83.526 59.7123C83.5147 59.7009 83.492 59.6669 83.458 59.6443Z" fill="#425A29"/>
<path d="M101.35 65.7056C100.022 68.0169 98.1598 69.8749 95.9687 71.3364C95.5714 70.9059 95.1627 70.4867 94.754 70.0562C94.2204 69.501 93.6755 68.9459 93.1305 68.3907C92.9375 68.1868 92.7332 67.9942 92.5402 67.8016C92.4948 67.7563 92.4494 67.711 92.4039 67.6656C92.2677 67.5297 92.1315 67.3937 91.9953 67.2691C91.8704 67.1558 91.7568 67.0312 91.632 66.9179C91.4503 66.7479 91.28 66.578 91.0984 66.4081C90.9167 66.2381 90.7351 66.0682 90.5535 65.9096C89.123 64.6066 87.5563 63.451 86.1032 62.1708C85.2177 61.389 84.3549 60.5733 83.5375 59.7123C88.6235 55.1691 87.7948 45.8109 81.6416 38.7072C75.443 31.5356 66.1905 29.3716 60.9683 33.8695C60.8434 33.9828 60.7185 34.096 60.5936 34.2093C60.3666 33.9261 60.1395 33.6429 59.9125 33.3596C57.8009 30.5499 56.0866 27.4682 54.2702 24.4659C53.2371 22.7665 52.0791 21.1803 50.7963 19.6508C49.7972 18.4499 48.7528 17.2943 47.7764 16.0707C47.6856 15.946 47.6061 15.8327 47.5153 15.7081L47.504 15.6968C47.4245 15.5835 47.345 15.4589 47.2656 15.3342C46.766 14.5978 46.3006 13.8274 45.8238 13.0683C45.1426 12.0033 44.4274 10.961 43.5419 10.066C43.4965 9.83938 43.4283 9.62412 43.3489 9.42019C51.012 4.26522 62.6939 7.53947 69.4147 13.5555C72.4686 16.2973 75.2841 19.3789 78.5536 21.8148C79.4846 22.5172 80.4495 23.1517 81.4713 23.7295C85.7967 26.1427 90.9167 27.1397 94.7653 30.244C99.6924 34.2207 101.554 40.8032 102.712 47.0231C103.87 53.2997 104.517 60.1654 101.35 65.7056Z" fill="#425A29"/>
<path d="M83.458 59.6443C83.4807 59.6669 83.5033 59.6896 83.526 59.7123C83.5147 59.7009 83.492 59.6669 83.458 59.6443Z" fill="#F1DD72"/>
<path d="M97.944 63.3492C96.752 65.4225 95.0832 67.088 93.1191 68.3909C92.9261 68.1983 92.7218 67.9943 92.5288 67.8017C92.4834 67.7564 92.438 67.7111 92.3926 67.6658C92.2563 67.5298 92.1201 67.3939 91.9839 67.2692C91.859 67.1559 91.7455 67.0313 91.6206 66.918C91.4389 66.7481 91.2686 66.5781 91.087 66.4082C90.9054 66.2383 90.7237 66.0683 90.5421 65.9097C89.1116 64.6068 87.545 63.4512 86.0918 62.1709C85.2063 61.3892 84.3435 60.5735 83.5261 59.7124C88.6121 55.1692 87.7834 45.811 81.6302 38.7073C75.4316 31.5357 66.1791 29.3717 60.9569 33.8696C60.832 33.9829 60.7071 34.0962 60.5823 34.2095C60.3552 33.9262 60.1282 33.643 59.9011 33.3598C57.7895 30.55 56.0752 27.4684 54.2588 24.466C53.2257 22.7666 52.0677 21.1804 50.7849 19.6509C49.7858 18.45 48.7414 17.2944 47.765 16.0708C47.6742 15.9462 47.5948 15.8329 47.5039 15.7082L47.4926 15.6969C47.4131 15.5836 47.3336 15.459 47.2542 15.3344C46.7547 14.5979 46.2892 13.8275 45.8124 13.0685C52.6694 8.2647 63.2729 11.2104 69.3352 16.6373C72.0712 19.0845 74.5915 21.8489 77.5205 24.0355C78.3493 24.6586 79.2234 25.2364 80.1316 25.7463C84.0029 27.9102 88.5894 28.7939 92.0406 31.581C96.4568 35.1385 98.1143 41.0412 99.1474 46.6041C100.215 52.2462 100.782 58.3868 97.944 63.3492Z" fill="#F1DD72"/>
<path d="M50.2967 16.1273C51.1936 15.878 52.1131 15.6854 53.044 15.5608C52.7943 15.5948 52.5445 15.6288 52.2948 15.6628C53.9182 15.4475 55.5757 15.4362 57.1991 15.6515C56.9494 15.6175 56.6996 15.5835 56.4499 15.5495C58.2663 15.7987 60.0487 16.2859 61.7402 16.9883C61.5132 16.8977 61.2861 16.7957 61.0591 16.7051C62.4895 17.3056 63.8291 17.9853 65.0666 18.9257C64.8736 18.7784 64.6806 18.6311 64.4876 18.4838C65.6796 19.4015 66.656 20.5232 67.6663 21.6335C69.0287 23.1516 70.5159 24.4772 72.1734 25.6781C73.74 26.8111 75.4202 27.7741 77.1686 28.5785C78.5877 29.2356 80.0408 29.8134 81.4372 30.5046C83.5715 31.5582 85.5696 32.8611 87.4541 34.3113C87.2611 34.164 87.0681 34.0167 86.8751 33.8694C88.4191 35.0591 89.8041 36.3846 91.0075 37.9141C90.8599 37.7215 90.7123 37.5289 90.5648 37.3363C91.8363 38.9791 92.858 40.7918 93.6641 42.7065C93.5732 42.4799 93.4711 42.2533 93.3802 42.0268C94.2771 44.1567 95.015 46.366 95.5032 48.6319C95.6962 49.5383 95.8551 50.456 95.98 51.3737C95.946 51.1244 95.9119 50.8752 95.8778 50.6259C96.0481 51.9515 96.1503 53.277 96.2298 54.6139C96.2979 55.7016 96.3092 56.7892 96.173 57.8655C96.2071 57.6163 96.2411 57.367 96.2752 57.1178C96.1503 57.9902 95.9232 58.8285 95.5827 59.6329C95.6735 59.4064 95.7757 59.1798 95.8665 58.9532C95.4918 59.8256 95.015 60.63 94.436 61.3777C94.5836 61.1851 94.7312 60.9925 94.8788 60.7999C94.2203 61.6383 93.4597 62.386 92.6196 63.0432C92.8126 62.8959 93.0056 62.7486 93.1986 62.6013C93.017 62.7486 92.824 62.8845 92.631 63.0205C92.0179 63.451 91.5297 63.9722 91.3254 64.7086C91.1438 65.3884 91.2232 66.2948 91.6092 66.8952C91.9952 67.4957 92.5856 68.0282 93.3008 68.1981C94.016 68.3567 94.8674 68.3454 95.4918 67.9149C97.2175 66.7139 98.682 65.3091 99.8399 63.553C101.168 61.5476 101.838 59.2251 101.952 56.8345C101.997 55.8489 101.94 54.8519 101.872 53.8662C101.77 52.4613 101.634 51.0791 101.441 49.6856C101.18 47.8502 100.782 46.0261 100.226 44.2474C99.7264 42.6499 99.1134 41.0864 98.4436 39.5569C97.5126 37.4269 96.2979 35.5009 94.8561 33.6882C93.5051 31.9887 91.893 30.6178 90.1788 29.3036C88.4986 28.0234 86.7275 26.8451 84.8316 25.8821C83.4353 25.1683 81.9821 24.5678 80.5517 23.9334C78.9055 23.197 77.3161 22.3359 75.8062 21.3276C75.3521 21.0217 74.898 20.7045 74.4666 20.3646C74.6596 20.5118 74.8526 20.6591 75.0456 20.8064C73.6606 19.7414 72.4572 18.5065 71.2992 17.2149C70.8224 16.6824 70.3456 16.1386 69.8234 15.6401C69.0514 14.881 68.1886 14.2013 67.2917 13.5781C66.5538 13.0683 65.7591 12.6264 64.9417 12.2639C63.8405 11.7767 62.7393 11.2896 61.5813 10.9157C59.7649 10.3265 57.8576 9.98665 55.9503 9.86203C54.9059 9.79405 53.8501 9.82804 52.817 9.93C51.4547 10.0773 50.1037 10.2926 48.7868 10.6664C48.0943 10.859 47.4585 11.3462 47.0952 11.9693C46.7433 12.5811 46.5844 13.4762 46.8114 14.1559C47.0385 14.8357 47.4585 15.5042 48.117 15.8441C48.7868 16.1953 49.5474 16.3426 50.2967 16.1273Z" fill="#AABF37"/>
<path d="M90.474 76.0494C89.1458 78.3606 87.2839 80.2187 85.0929 81.6802C84.6955 81.2497 84.2868 80.8305 83.8781 80.3999C83.3445 79.8448 82.7996 79.2896 82.2547 78.7345C82.0617 78.5306 81.8573 78.3379 81.6643 78.1453C81.6189 78.1 81.5735 78.0547 81.5281 78.0094C81.3919 77.8734 81.2556 77.7375 81.1194 77.6129C80.9945 77.4996 80.881 77.3749 80.7561 77.2616C80.5745 77.0917 80.4042 76.9218 80.2225 76.7518C80.0409 76.5819 79.8593 76.4119 79.6776 76.2533C78.2472 74.9504 76.6805 73.7948 75.2273 72.5145C74.3418 71.7328 73.479 70.9171 72.6616 70.056C77.7477 65.5129 76.9189 56.1546 70.7657 49.0509C64.5672 41.8793 55.3147 39.7154 50.0924 44.2132C49.9676 44.3265 49.8427 44.4398 49.7178 44.5531C49.4907 44.2699 49.2637 43.9866 49.0366 43.7034C46.925 40.8936 45.2108 37.812 43.3943 34.8096C42.3612 33.1102 41.2033 31.5241 39.9204 29.9946C38.9214 28.7936 37.8769 27.638 36.9006 26.4144C36.8098 26.2898 36.7303 26.1765 36.6395 26.0519L36.6281 26.0405C36.5486 25.9272 36.4692 25.8026 36.3897 25.678C35.8902 24.9416 35.4247 24.1711 34.9479 23.4121C34.2668 22.3471 33.5515 21.3048 32.666 20.4097C32.6206 20.1831 32.5525 19.9679 32.473 19.7639C40.1361 14.609 51.818 17.8832 58.5389 23.8992C61.5927 26.641 64.4082 29.7227 67.6778 32.1585C68.6087 32.8609 69.5737 33.4954 70.5954 34.0732C74.9208 36.4864 80.0409 37.4834 83.8895 40.5877C88.8165 44.5644 90.6784 51.1469 91.8364 57.3669C93.0057 63.6321 93.6414 70.5092 90.474 76.0494Z" fill="#425A29"/>
<path d="M87.0795 73.693C85.8875 75.7663 84.2187 77.4317 82.2546 78.7346C82.0616 78.542 81.8573 78.3381 81.6643 78.1455C81.6189 78.1002 81.5735 78.0548 81.5281 78.0095C81.3918 77.8736 81.2556 77.7376 81.1194 77.613C80.9945 77.4997 80.881 77.3751 80.7561 77.2618C80.5744 77.0918 80.4041 76.9219 80.2225 76.7519C80.0409 76.582 79.8592 76.4121 79.6776 76.2534C78.2471 74.9505 76.6805 73.7949 75.2273 72.5147C74.3418 71.7329 73.479 70.9172 72.6616 70.0562C77.7476 65.513 76.9189 56.1547 70.7657 49.0511C64.5671 41.8794 55.3146 39.7155 50.0924 44.2133C49.9675 44.3266 49.8426 44.4399 49.7178 44.5532C49.4907 44.27 49.2636 43.9868 49.0366 43.7035C46.925 40.8938 45.2107 37.8121 43.3943 34.8098C42.3612 33.1103 41.2032 31.5242 39.9204 29.9947C38.9213 28.7938 37.8769 27.6381 36.9005 26.4145C36.8097 26.2899 36.7303 26.1766 36.6394 26.052L36.6281 26.0407C36.5486 25.9274 36.4691 25.8027 36.3897 25.6781C35.8901 24.9417 35.4247 24.1713 34.9479 23.4122C41.8049 18.6085 52.4084 21.5541 58.4707 26.981C61.2067 29.4282 63.727 32.1926 66.656 34.3793C67.4848 35.0024 68.3589 35.5802 69.2671 36.09C73.1384 38.254 77.7249 39.1377 81.1761 41.9248C85.5923 45.4823 87.2498 51.385 88.2829 56.9478C89.3387 62.5786 89.9177 68.7306 87.0795 73.693Z" fill="#F1DD72"/>
<path d="M39.4322 26.4713C40.3291 26.222 41.2486 26.0294 42.1795 25.9048C41.9298 25.9388 41.68 25.9728 41.4303 26.0068C43.0537 25.7915 44.7112 25.7802 46.3346 25.9954C46.0849 25.9615 45.8351 25.9275 45.5854 25.8935C47.4018 26.1427 49.1842 26.6299 50.8757 27.3323C50.6487 27.2417 50.4216 27.1397 50.1946 27.0491C51.625 27.6496 52.9646 28.3293 54.2021 29.2697C54.0091 29.1224 53.8161 28.9751 53.6231 28.8278C54.8151 29.7455 55.7915 30.8672 56.8018 31.9775C58.1642 33.4956 59.6514 34.8212 61.3089 36.0221C62.8755 37.1551 64.5557 38.1181 66.3041 38.9225C67.7232 39.5796 69.1763 40.1574 70.5727 40.8485C72.707 41.9022 74.7051 43.2051 76.5896 44.6553C76.3966 44.508 76.2036 44.3607 76.0106 44.2134C77.5546 45.403 78.9396 46.7286 80.143 48.2581C79.9954 48.0655 79.8479 47.8729 79.7003 47.6803C80.9718 49.3231 81.9935 51.1358 82.7996 53.0505C82.7087 52.8239 82.6066 52.5973 82.5157 52.3707C83.4126 54.5007 84.1505 56.71 84.6387 58.9759C84.8317 59.8823 84.9906 60.8 85.1155 61.7177C85.0815 61.4684 85.0474 61.2192 85.0133 60.9699C85.1836 62.2955 85.2858 63.621 85.3653 64.9579C85.4334 66.0456 85.4447 67.1332 85.3085 68.2095C85.3426 67.9603 85.3766 67.711 85.4107 67.4618C85.2858 68.3342 85.0587 69.1725 84.7182 69.9769C84.809 69.7504 84.9112 69.5238 85.002 69.2972C84.6273 70.1695 84.1505 70.9739 83.5715 71.7217C83.7191 71.5291 83.8667 71.3365 84.0143 71.1439C83.3558 71.9823 82.5952 72.73 81.7551 73.3871C81.9481 73.2399 82.1411 73.0926 82.3341 72.9453C82.1525 73.0926 81.9595 73.2285 81.7665 73.3645C81.1534 73.795 80.6652 74.3162 80.4609 75.0526C80.2793 75.7324 80.3587 76.6387 80.7447 77.2392C81.1307 77.8397 81.7211 78.3722 82.4363 78.5421C83.1515 78.7007 84.0029 78.6894 84.6273 78.2589C86.353 77.0579 87.8175 75.6531 88.9754 73.897C90.3037 71.8916 90.9735 69.5691 91.087 67.1785C91.1325 66.1929 91.0757 65.1959 91.0076 64.2102C90.9054 62.8053 90.7692 61.4231 90.5762 60.0296C90.3151 58.1942 89.9177 56.3701 89.3614 54.5914C88.8619 52.9939 88.2489 51.4304 87.5791 49.9009C86.6481 47.7709 85.4334 45.8449 83.9916 44.0322C82.6406 42.3327 81.0285 40.9618 79.3143 39.6476C77.6341 38.3674 75.8631 37.1891 73.9671 36.2261C72.5708 35.5123 71.1176 34.9118 69.6872 34.2774C68.041 33.541 66.4517 32.6799 64.9417 31.6716C64.4876 31.3657 64.0335 31.0484 63.6021 30.7086C63.7951 30.8558 63.9881 31.0031 64.1811 31.1504C62.7961 30.0854 61.5927 28.8505 60.4347 27.5589C59.9579 27.0264 59.4811 26.4826 58.9589 25.9841C58.1869 25.225 57.3241 24.5453 56.4272 23.9221C55.6893 23.4123 54.8946 22.9704 54.0772 22.6079C52.976 22.1207 51.8748 21.6335 50.7168 21.2597C48.9004 20.6705 46.9931 20.3306 45.0858 20.206C44.0414 20.138 42.9856 20.172 41.9525 20.274C40.5902 20.4213 39.2392 20.6365 37.9223 21.0104C37.2298 21.203 36.594 21.6902 36.2307 22.3133C35.8788 22.9251 35.7199 23.8202 35.9469 24.4999C36.174 25.1797 36.594 25.8482 37.2525 26.188C37.9109 26.5393 38.6829 26.6752 39.4322 26.4713Z" fill="#AABF37"/>
<path d="M84.5138 94.2335C83.1856 96.5447 81.3237 98.4027 79.1327 99.8643C78.7353 99.4337 78.3266 99.0145 77.9179 98.584C77.3843 98.0289 76.8394 97.4737 76.2945 96.9186C76.1015 96.7146 75.8971 96.522 75.7041 96.3294C75.6587 96.2841 75.6133 96.2388 75.5679 96.1935C75.4317 96.0575 75.2954 95.9216 75.1592 95.7969C75.0343 95.6836 74.9208 95.559 74.7959 95.4457C74.6143 95.2758 74.444 95.1058 74.2623 94.9359C74.0807 94.7659 73.8991 94.596 73.7174 94.4374C72.287 93.1345 70.7203 91.9789 69.2671 90.6986C68.3816 89.9169 67.5188 89.1012 66.7014 88.2401C71.7874 83.6969 70.9587 74.3387 64.8055 67.235C58.6069 60.0634 49.3545 57.8994 44.1322 62.3973C44.0074 62.5106 43.8825 62.6239 43.7576 62.7372C43.5305 62.4539 43.3035 62.1707 43.0764 61.8875C40.9648 59.0777 39.2506 55.9961 37.4341 52.9937C36.401 51.2943 35.2431 49.7081 33.9602 48.1786C32.9612 46.9777 31.9167 45.8221 30.9404 44.5985C30.8496 44.4739 30.7701 44.3606 30.6793 44.2359L30.6679 44.2246C30.5884 44.1113 30.509 43.9867 30.4295 43.8621C29.93 43.1256 29.4645 42.3552 28.9877 41.5962C28.3065 40.5312 27.5913 39.4888 26.7058 38.5938C26.6604 38.3672 26.5923 38.152 26.5128 37.948C34.1759 32.7931 45.8578 36.0673 52.5787 42.0833C55.6325 44.8251 58.448 47.9067 61.7176 50.3426C62.6485 51.045 63.6135 51.6795 64.6352 52.2573C68.9606 54.6705 74.0807 55.6675 77.9293 58.7718C82.8563 62.7485 84.7182 69.331 85.8762 75.551C87.0455 81.8162 87.6812 88.6933 84.5138 94.2335Z" fill="#425A29"/>
<path d="M81.1193 91.8768C79.9273 93.9501 78.2585 95.6156 76.2944 96.9185C76.1014 96.7259 75.8971 96.5219 75.7041 96.3293C75.6587 96.284 75.6133 96.2387 75.5679 96.1934C75.4316 96.0574 75.2954 95.9215 75.1592 95.7968C75.0343 95.6835 74.9208 95.5589 74.7959 95.4456C74.6142 95.2757 74.4439 95.1057 74.2623 94.9358C74.0807 94.7658 73.899 94.5959 73.7174 94.4373C72.2869 93.1344 70.7202 91.9788 69.2671 90.6985C68.3816 89.9168 67.5188 89.101 66.7014 88.24C71.7874 83.6968 70.9587 74.3386 64.8055 67.2349C58.6069 60.0633 49.3544 57.8993 44.1322 62.3972C44.0073 62.5105 43.8824 62.6238 43.7576 62.7371C43.5305 62.4538 43.3034 62.1706 43.0764 61.8873C40.9648 59.0776 39.2505 55.996 37.4341 52.9936C36.401 51.2942 35.243 49.708 33.9602 48.1785C32.9611 46.9776 31.9167 45.822 30.9403 44.5984C30.8495 44.4738 30.77 44.3605 30.6792 44.2358L30.6679 44.2245C30.5884 44.1112 30.5089 43.9866 30.4295 43.862C29.9299 43.1255 29.4645 42.3551 28.9877 41.596C35.8447 36.7923 46.4481 39.738 52.5105 45.1649C55.2465 47.6121 57.7668 50.3765 60.6958 52.5631C61.5245 53.1862 62.3987 53.764 63.3069 54.2739C67.1782 56.4378 71.7647 57.3215 75.2159 60.1086C79.6321 63.6661 81.2896 69.5688 82.3227 75.1316C83.3785 80.7625 83.9575 86.9144 81.1193 91.8768Z" fill="#F1DD72"/>
<path d="M33.472 44.6551C34.3689 44.4059 35.2884 44.2133 36.2193 44.0886C35.9696 44.1226 35.7198 44.1566 35.4701 44.1906C37.0935 43.9754 38.751 43.964 40.3744 44.1793C40.1247 44.1453 39.8749 44.1113 39.6252 44.0773C41.4416 44.3266 43.224 44.8137 44.9155 45.5162C44.6885 45.4255 44.4614 45.3236 44.2344 45.2329C45.6648 45.8334 47.0044 46.5132 48.2419 47.4535C48.0489 47.3063 47.8559 47.159 47.6629 47.0117C48.8549 47.9294 49.8312 49.051 50.8416 50.1613C52.204 51.6795 53.6912 53.005 55.3487 54.206C56.9153 55.3389 58.5955 56.302 60.3439 57.1064C61.763 57.7635 63.2161 58.3413 64.6125 59.0324C66.7468 60.086 68.7449 61.3889 70.6294 62.8391C70.4364 62.6918 70.2434 62.5446 70.0504 62.3973C71.5944 63.5869 72.9794 64.9124 74.1828 66.4419C74.0352 66.2493 73.8876 66.0567 73.7401 65.8641C75.0116 67.5069 76.0333 69.3197 76.8394 71.2344C76.7485 71.0078 76.6464 70.7812 76.5555 70.5546C77.4524 72.6845 78.1903 74.8938 78.6785 77.1597C78.8715 78.0661 79.0304 78.9838 79.1553 79.9015C79.1212 79.6523 79.0872 79.403 79.0531 79.1538C79.2234 80.4793 79.3256 81.8049 79.4051 83.1418C79.4732 84.2294 79.4845 85.317 79.3483 86.3934C79.3824 86.1441 79.4164 85.8949 79.4505 85.6456C79.3256 86.518 79.0985 87.3564 78.758 88.1608C78.8488 87.9342 78.951 87.7076 79.0418 87.481C78.6671 88.3534 78.1903 89.1578 77.6113 89.9055C77.7589 89.7129 77.9065 89.5203 78.0541 89.3277C77.3956 90.1661 76.635 90.9139 75.7949 91.571C75.9879 91.4237 76.1809 91.2764 76.3739 91.1291C76.1922 91.2764 75.9992 91.4124 75.8063 91.5483C75.1932 91.9789 74.705 92.5 74.5007 93.2364C74.319 93.9162 74.3985 94.8226 74.7845 95.423C75.1705 96.0235 75.7608 96.556 76.4761 96.726C77.1913 96.8846 78.0427 96.8732 78.6671 96.4427C80.3928 95.2418 81.8573 93.8369 83.0152 92.0808C84.3435 90.0755 85.0133 87.7529 85.1268 85.3624C85.1722 84.3767 85.1155 83.3797 85.0474 82.394C84.9452 80.9891 84.809 79.6069 84.616 78.2134C84.3549 76.378 83.9575 74.5539 83.4012 72.7752C82.9017 71.1777 82.2887 69.6142 81.6188 68.0847C80.6879 65.9548 79.4732 64.0287 78.0314 62.216C76.6804 60.5166 75.0683 59.1457 73.3541 57.8314C71.6739 56.5512 69.9028 55.3729 68.0069 54.4099C66.6106 53.6961 65.1574 53.0957 63.727 52.4612C62.0808 51.7248 60.4914 50.8637 58.9815 49.8554C58.5274 49.5495 58.0733 49.2323 57.6419 48.8924C57.8349 49.0397 58.0279 49.187 58.2209 49.3342C56.8359 48.2693 55.6325 47.0343 54.4745 45.7428C53.9977 45.2103 53.5209 44.6665 52.9987 44.168C52.2267 43.4089 51.3639 42.7291 50.467 42.106C49.7291 41.5961 48.9344 41.1543 48.117 40.7917C47.0158 40.3046 45.9146 39.8174 44.7566 39.4435C42.9401 38.8544 41.0329 38.5145 39.1256 38.3899C38.0812 38.3219 37.0254 38.3559 35.9923 38.4578C34.63 38.6051 33.279 38.8204 31.9621 39.1943C31.2696 39.3869 30.6338 39.874 30.2705 40.4972C29.9186 41.109 29.7596 42.004 29.9867 42.6838C30.2138 43.3636 30.6338 44.032 31.2923 44.3719C31.9621 44.7231 32.7227 44.8591 33.472 44.6551Z" fill="#AABF37"/>
<path d="M57.0288 102.935C57.0515 102.957 57.0741 102.98 57.0968 103.003C57.0855 102.98 57.0515 102.957 57.0288 102.935Z" fill="#425A29"/>
<path d="M75.2613 107.886C74.0806 110.276 72.3323 112.248 70.2321 113.834C69.812 113.426 69.3693 113.029 68.9379 112.633C68.3702 112.112 67.7912 111.59 67.2122 111.081C67.0079 110.899 66.7922 110.707 66.5879 110.525C66.5424 110.48 66.497 110.446 66.4516 110.401C66.304 110.276 66.1678 110.152 66.0202 110.027C65.8953 109.914 65.7705 109.812 65.6342 109.698C65.4412 109.54 65.2596 109.381 65.0666 109.223C64.8736 109.064 64.6919 108.905 64.4989 108.758C62.989 107.546 61.3542 106.481 59.8216 105.302C58.8794 104.577 57.9711 103.818 57.1083 103.014C61.8992 98.1762 60.4914 88.8859 53.9182 82.1674C47.2882 75.3923 37.9222 73.8062 32.9838 78.6213C32.8589 78.7346 32.7454 78.8592 32.6319 78.9838C32.3821 78.7232 32.1437 78.4513 31.894 78.1794C29.6121 75.5056 27.7162 72.5373 25.7067 69.6482C24.5715 68.0168 23.3113 66.4986 21.949 65.0597C20.8705 63.9268 19.7579 62.8278 18.7021 61.6722C18.6113 61.5589 18.5091 61.4456 18.4183 61.3323L18.4069 61.321C18.3161 61.2077 18.2253 61.0944 18.1458 60.9811C17.6009 60.2673 17.09 59.5309 16.5678 58.8058C15.8299 57.7861 15.0465 56.7891 14.1043 55.9507C14.0475 55.7355 13.968 55.5202 13.8772 55.3163C21.2111 49.6968 33.0633 52.246 40.1474 57.8315C43.3715 60.3806 46.3687 63.281 49.7858 65.5129C50.7622 66.1474 51.7612 66.7365 52.817 67.235C57.2786 69.3763 62.4555 70.0561 66.497 72.9112C71.6625 76.5706 73.9217 83.0285 75.4657 89.1691C77.0096 95.3438 78.0768 102.153 75.2613 107.886Z" fill="#425A29"/>
<path d="M57.0288 102.935C57.0515 102.957 57.0741 102.98 57.0968 103.003C57.0855 102.98 57.0515 102.957 57.0288 102.935Z" fill="#F1DD72"/>
<path d="M71.7192 105.745C70.6634 107.886 69.0968 109.653 67.2122 111.081C67.0079 110.899 66.7922 110.707 66.5878 110.526C66.5424 110.48 66.497 110.446 66.4516 110.401C66.304 110.276 66.1678 110.152 66.0202 110.027C65.8953 109.914 65.7704 109.812 65.6342 109.699C65.4412 109.54 65.2595 109.381 65.0665 109.223C64.8736 109.064 64.6919 108.905 64.4989 108.758C62.989 107.546 61.3542 106.481 59.8216 105.303C58.8793 104.578 57.9711 103.818 57.1083 103.014C61.8991 98.1763 60.4914 88.8861 53.9182 82.1676C47.2882 75.3925 37.9222 73.8064 32.9838 78.6214C32.8589 78.7347 32.7454 78.8594 32.6318 78.984C32.3821 78.7234 32.1437 78.4515 31.8939 78.1796C29.612 75.5058 27.7161 72.5375 25.7067 69.6484C24.5714 68.0169 23.3113 66.4988 21.9489 65.0599C20.8704 63.927 19.7579 62.828 18.7021 61.6724C18.6112 61.5591 18.5091 61.4458 18.4182 61.3325L18.4069 61.3212C18.3161 61.2079 18.2252 61.0946 18.1458 60.9813C17.6008 60.2675 17.09 59.5311 16.5677 58.806C23.1183 53.5944 33.8693 55.8716 40.2722 60.9246C43.1558 63.2019 45.8464 65.7963 48.9003 67.8017C49.7744 68.3682 50.6713 68.8893 51.6136 69.3538C55.6097 71.2685 60.2416 71.8803 63.8632 74.4408C68.4837 77.7151 70.5158 83.5045 71.8895 88.9994C73.2859 94.5055 74.2395 100.612 71.7192 105.745Z" fill="#F1DD72"/>
<path d="M21.0634 61.6044C22.3122 61.1739 23.5951 60.8566 24.9006 60.6754C24.6509 60.7093 24.4011 60.7433 24.1514 60.7773C25.8316 60.5507 27.5118 60.5621 29.192 60.7773C28.9422 60.7433 28.6924 60.7093 28.4427 60.6754C30.4181 60.9473 32.348 61.5024 34.1872 62.2728C33.9601 62.1822 33.733 62.0802 33.506 61.9896C34.6526 62.4768 35.7311 63.1112 36.7188 63.8703C36.5258 63.723 36.3328 63.5757 36.1398 63.4284C37.0026 64.0969 37.7746 64.8673 38.5579 65.6377C39.6138 66.68 40.7036 67.6317 41.8843 68.5268C44.3592 70.4075 47.1974 71.733 50.1037 72.8094C51.3525 73.2739 52.6126 73.7157 53.8387 74.2256C53.6116 74.1349 53.3846 74.033 53.1575 73.9423C55.8595 75.0866 58.4366 76.5934 60.7525 78.3722C60.5595 78.2249 60.3665 78.0776 60.1735 77.9303C61.5926 79.0293 62.8528 80.3095 63.954 81.7144C63.8064 81.5218 63.6588 81.3292 63.5112 81.1366C65.1006 83.1873 66.2472 85.4985 67.2576 87.8777C67.1668 87.6511 67.0646 87.4245 66.9738 87.1979C67.9161 89.4299 68.5972 91.7638 69.04 94.143C69.2103 95.0833 69.3465 96.035 69.4714 96.9867C69.4373 96.7375 69.4033 96.4882 69.3692 96.239C69.5736 97.7345 69.7325 99.2526 69.5395 100.771C69.5736 100.522 69.6076 100.272 69.6417 100.023C69.5282 100.907 69.2784 101.756 68.9378 102.584C69.0286 102.357 69.1308 102.13 69.2216 101.904C68.8356 102.799 68.3475 103.626 67.7571 104.396C67.9047 104.204 68.0523 104.011 68.1999 103.818C67.5414 104.657 66.7808 105.416 65.952 106.073C65.4185 106.492 65.1233 107.433 65.1233 108.078C65.1233 108.769 65.4298 109.608 65.952 110.084C66.497 110.582 67.2008 110.945 67.9615 110.911C68.2112 110.877 68.461 110.843 68.7108 110.809C69.1876 110.673 69.6076 110.435 69.9596 110.084C71.2765 109.041 72.4004 107.761 73.2859 106.345C74.4893 104.442 75.1477 102.244 75.2726 100C75.318 99.1167 75.2613 98.233 75.1705 97.3493C75.0342 96.0917 74.8526 94.8341 74.6596 93.5878C74.3644 91.7184 73.9217 89.8604 73.32 88.059C72.8659 86.6881 72.2982 85.3512 71.7192 84.037C71.0494 82.5301 70.3115 81.0573 69.4033 79.6751C68.2339 77.8963 66.8489 76.2196 65.2482 74.792C63.6815 73.3985 61.9332 72.2089 60.1395 71.1326C58.4593 70.1242 56.7109 69.2972 54.8945 68.5608C53.6003 68.0396 52.272 67.5977 50.9778 67.0879C50.6372 66.9633 50.308 66.8273 49.9788 66.68C50.2058 66.7707 50.4329 66.8726 50.6599 66.9633C48.5256 66.0682 46.4708 64.9353 44.643 63.5304C44.836 63.6777 45.029 63.825 45.222 63.9723C43.9959 63.0319 42.9287 61.9443 41.8275 60.868C40.4993 59.5764 39.0348 58.3981 37.3886 57.5484C36.5258 57.1065 35.6289 56.744 34.7207 56.4154C33.7558 56.0642 32.7794 55.747 31.769 55.5204C30.0548 55.1352 28.2724 54.8973 26.5127 54.9086C24.1627 54.9312 21.7673 55.3278 19.5535 56.1095C18.8496 56.3588 18.2479 56.7553 17.8619 57.4124C17.51 58.0242 17.3511 58.9193 17.5781 59.599C17.8052 60.2788 18.2252 60.9473 18.8837 61.2872C19.5308 61.661 20.3482 61.8536 21.0634 61.6044Z" fill="#AABF37"/>
<path d="M66.5198 127.474C65.1915 129.786 63.3297 131.644 61.1386 133.105C60.7413 132.675 60.3326 132.256 59.9239 131.825C59.3903 131.27 58.8454 130.715 58.3004 130.16C58.1075 129.956 57.9031 129.763 57.7101 129.57C57.6647 129.525 57.6193 129.48 57.5739 129.434C57.4376 129.298 57.3014 129.163 57.1652 129.038C57.0403 128.925 56.9268 128.8 56.8019 128.687C56.6202 128.517 56.45 128.347 56.2683 128.177C56.0867 128.007 55.905 127.837 55.7234 127.678C54.2929 126.375 52.7263 125.22 51.2731 123.94C50.3876 123.158 49.5248 122.342 48.7074 121.481C53.7934 116.938 52.9647 107.58 46.8115 100.476C40.6129 93.3044 31.3605 91.1404 26.1382 95.6383C26.0133 95.7515 25.8884 95.8648 25.7636 95.9781C25.5365 95.6949 25.3095 95.4117 25.0824 95.1284C22.9708 92.3187 21.2565 89.237 19.4401 86.2347C18.407 84.5352 17.249 82.9491 15.9662 81.4196C14.9671 80.2187 13.9227 79.0631 12.9464 77.8395C12.8555 77.7148 12.7761 77.6015 12.6852 77.4769L12.6739 77.4656C12.5944 77.3523 12.515 77.2277 12.4355 77.103C11.936 76.3666 11.4705 75.5962 10.9937 74.8371C10.3125 73.7721 9.59731 72.7298 8.71179 71.8348C8.66638 71.6082 8.59827 71.3929 8.5188 71.189C16.1819 66.034 27.8638 69.3083 34.5846 75.3243C37.6385 78.0661 40.454 81.1477 43.7236 83.5836C44.6545 84.286 45.6195 84.9205 46.6412 85.4983C50.9666 87.9115 56.0867 88.9085 59.9352 92.0128C64.8623 95.9895 66.7242 102.572 67.8821 108.792C69.0401 115.069 69.6872 121.934 66.5198 127.474Z" fill="#425A29"/>
<path d="M63.114 125.118C61.9219 127.191 60.2531 128.857 58.2891 130.16C58.0961 129.967 57.8917 129.763 57.6987 129.571C57.6533 129.525 57.6079 129.48 57.5625 129.435C57.4263 129.299 57.29 129.163 57.1538 129.038C57.0289 128.925 56.9154 128.8 56.7905 128.687C56.6089 128.517 56.4386 128.347 56.2569 128.177C56.0753 128.007 55.8936 127.837 55.712 127.678C54.2816 126.376 52.7149 125.22 51.2617 123.94C50.3762 123.158 49.5134 122.342 48.696 121.481C53.782 116.938 52.9533 107.58 46.8001 100.476C40.6015 93.3045 31.3491 91.1405 26.1268 95.6384C26.0019 95.7517 25.8771 95.865 25.7522 95.9783C25.5251 95.695 25.2981 95.4118 25.071 95.1286C22.9594 92.3188 21.2452 89.2372 19.4287 86.2348C18.3956 84.5354 17.2376 82.9492 15.9548 81.4198C14.9557 80.2188 13.9113 79.0632 12.935 77.8396C12.8441 77.715 12.7647 77.6017 12.6739 77.4771L12.6625 77.4657C12.583 77.3524 12.5036 77.2278 12.4241 77.1032C11.9246 76.3667 11.4591 75.5963 10.9823 74.8373C17.8393 70.0335 28.4428 72.9792 34.5051 78.4061C37.2411 80.8533 39.7614 83.6177 42.6904 85.8043C43.5192 86.4274 44.3933 87.0052 45.3016 87.5151C49.1728 89.679 53.7593 90.5627 57.2105 93.3498C61.6268 96.9073 63.2843 102.81 64.3174 108.373C65.3845 114.004 65.9521 120.156 63.114 125.118Z" fill="#F1DD72"/>
<path d="M15.4666 77.8961C16.3635 77.6468 17.283 77.4542 18.214 77.3296C17.9642 77.3636 17.7145 77.3976 17.4647 77.4316C19.0881 77.2163 20.7456 77.205 22.3691 77.4203C22.1193 77.3863 21.8695 77.3523 21.6198 77.3183C23.4362 77.5675 25.2186 78.0547 26.9101 78.7571C26.6831 78.6665 26.456 78.5645 26.229 78.4739C27.6594 79.0744 28.9991 79.7541 30.2365 80.6945C30.0435 80.5472 29.8505 80.3999 29.6575 80.2527C30.8495 81.1703 31.8259 82.292 32.8363 83.4023C34.1986 84.9204 35.6858 86.246 37.3433 87.4469C38.91 88.5799 40.5902 89.5429 42.3385 90.3473C43.7576 91.0044 45.2107 91.5822 46.6071 92.2734C48.7414 93.327 50.7395 94.6299 52.624 96.0801C52.4311 95.9328 52.2381 95.7855 52.0451 95.6382C53.589 96.8279 54.9741 98.1534 56.1774 99.6829C56.0299 99.4903 55.8823 99.2977 55.7347 99.1051C57.0062 100.748 58.0279 102.561 58.834 104.475C58.7432 104.249 58.641 104.022 58.5502 103.796C59.447 105.926 60.185 108.135 60.6731 110.401C60.8661 111.307 61.0251 112.225 61.1499 113.142C61.1159 112.893 61.0818 112.644 61.0478 112.395C61.2181 113.72 61.3202 115.046 61.3997 116.383C61.4678 117.47 61.4792 118.558 61.3429 119.634C61.377 119.385 61.411 119.136 61.4451 118.887C61.3202 119.759 61.0932 120.597 60.7526 121.402C60.8434 121.175 60.9456 120.949 61.0364 120.722C60.6618 121.594 60.185 122.399 59.606 123.147C59.7536 122.954 59.9011 122.761 60.0487 122.569C59.3903 123.407 58.6296 124.155 57.7895 124.812C57.9825 124.665 58.1755 124.517 58.3685 124.37C58.1869 124.517 57.9939 124.653 57.8009 124.789C57.1878 125.22 56.6997 125.741 56.4953 126.477C56.3137 127.157 56.3932 128.064 56.7791 128.664C57.1651 129.264 57.7555 129.797 58.4707 129.967C59.1859 130.126 60.0374 130.114 60.6618 129.684C62.3874 128.483 63.8519 127.078 65.0099 125.322C66.3381 123.316 67.0079 120.994 67.1215 118.603C67.1669 117.618 67.1101 116.621 67.042 115.635C66.9398 114.23 66.8036 112.848 66.6106 111.454C66.3495 109.619 65.9521 107.795 65.3959 106.016C64.8963 104.419 64.2833 102.855 63.6135 101.326C62.6826 99.1957 61.4678 97.2697 60.026 95.457C58.675 93.7575 57.063 92.3867 55.3487 91.0724C53.6685 89.7922 51.8975 88.6139 50.0016 87.6509C48.6052 86.9371 47.152 86.3366 45.7216 85.7022C44.0755 84.9658 42.4861 84.1047 40.9762 83.0964C40.5221 82.7905 40.0679 82.4732 39.6365 82.1334C39.8295 82.2806 40.0225 82.4279 40.2155 82.5752C38.8305 81.5102 37.6271 80.2753 36.4691 78.9837C35.9923 78.4512 35.5155 77.9074 34.9933 77.4089C34.2213 76.6498 33.3585 75.9701 32.4616 75.3469C31.7237 74.8371 30.929 74.3952 30.1116 74.0327C29.0104 73.5455 27.9092 73.0584 26.7512 72.6845C24.9348 72.0953 23.0275 71.7554 21.1203 71.6308C20.0758 71.5628 19.02 71.5968 17.9869 71.6988C16.6246 71.8461 15.2736 72.0614 13.9567 72.4352C13.2642 72.6278 12.6284 73.115 12.2651 73.7381C11.9132 74.3499 11.7543 75.245 11.9813 75.9247C12.2084 76.6045 12.6284 77.273 13.2869 77.6128C13.9567 77.9641 14.7173 78.1114 15.4666 77.8961Z" fill="#AABF37"/>
<path d="M33.1881 59.8368C33.1654 59.9048 33.1427 59.9615 33.0973 60.0295C32.9951 60.1654 32.8135 60.2674 32.6205 60.2674C32.4275 60.2674 32.2459 60.1654 32.1437 60.0295C32.0415 59.8935 32.0188 59.7462 32.0188 59.5876C32.0188 59.2817 32.1096 58.9758 32.2004 58.6812C32.2231 58.6019 32.2913 58.3074 32.4616 58.3413C32.4956 58.3527 32.5183 58.364 32.5524 58.3867C32.9611 58.6926 33.1995 59.1344 33.2108 59.5649C33.2108 59.6669 33.2108 59.7575 33.1881 59.8368Z" fill="#F5E7C5"/>
<path d="M43.3489 62.839C43.3262 62.907 43.3035 62.9637 43.2581 63.0317C43.1559 63.1676 42.9743 63.2696 42.7813 63.2696C42.5883 63.2696 42.4066 63.1676 42.3044 63.0317C42.2023 62.8957 42.1796 62.7484 42.1796 62.5898C42.1796 62.2839 42.2704 61.978 42.3612 61.6834C42.3839 61.6041 42.452 61.3095 42.6223 61.3435C42.6564 61.3549 42.6791 61.3662 42.7131 61.3889C43.1218 61.6948 43.3602 62.1366 43.3716 62.5671C43.3716 62.6691 43.3716 62.7597 43.3489 62.839Z" fill="#F5E7C5"/>
<path d="M25.1277 39.704C25.105 39.772 25.0823 39.8287 25.0369 39.8966C24.9347 40.0326 24.7531 40.1346 24.5601 40.1346C24.3671 40.1346 24.1854 40.0326 24.0833 39.8966C23.9811 39.7607 23.9584 39.6134 23.9584 39.4548C23.9584 39.1489 24.0492 38.843 24.14 38.5484C24.1627 38.4691 24.2308 38.1745 24.4011 38.2085C24.4352 38.2199 24.4579 38.2312 24.492 38.2538C24.9007 38.5597 25.1391 39.0016 25.1504 39.4321C25.1618 39.5341 25.1504 39.6247 25.1277 39.704Z" fill="#F5E7C5"/>
<path d="M47.0725 43.035C47.0157 42.9897 46.9703 42.9444 46.9363 42.8764C46.8455 42.7405 46.8228 42.5252 46.9022 42.3439C46.9817 42.1627 47.1406 42.038 47.3109 42.004C47.4699 41.9701 47.6288 42.004 47.765 42.0607C48.0488 42.174 48.2873 42.3779 48.5257 42.5818C48.5938 42.6385 48.8435 42.8084 48.73 42.9557C48.7073 42.9784 48.6846 43.001 48.6505 43.0124C48.2078 43.2616 47.7083 43.3183 47.2996 43.1597C47.2201 43.1257 47.1406 43.0917 47.0725 43.035Z" fill="#F5E7C5"/>
<path d="M56.4839 31.5353C56.4612 31.6033 56.4385 31.66 56.3931 31.7279C56.2909 31.8639 56.1093 31.9659 55.9163 31.9659C55.7233 31.9659 55.5416 31.8639 55.4395 31.7279C55.3373 31.592 55.3146 31.4447 55.3146 31.2861C55.3146 30.9802 55.4054 30.6743 55.4962 30.3797C55.5189 30.3004 55.587 30.0058 55.7573 30.0398C55.7914 30.0512 55.8141 30.0625 55.8482 30.0851C56.2568 30.391 56.4953 30.8329 56.5066 31.2634C56.518 31.3654 56.5066 31.4447 56.4839 31.5353Z" fill="#F5E7C5"/>
<path d="M54.588 25.5761C54.5653 25.6441 54.5426 25.7007 54.4972 25.7687C54.395 25.9047 54.2134 26.0066 54.0204 26.0066C53.8274 26.0066 53.6458 25.9047 53.5436 25.7687C53.4414 25.6328 53.4187 25.4855 53.4187 25.3269C53.4187 25.021 53.5095 24.7151 53.6003 24.4205C53.6231 24.3412 53.6912 24.0466 53.8615 24.0806C53.8955 24.0919 53.9182 24.1033 53.9523 24.1259C54.361 24.4318 54.5994 24.8737 54.6107 25.3042C54.6221 25.4062 54.6107 25.4968 54.588 25.5761Z" fill="#F5E7C5"/>
<path d="M60.8207 42.8765C60.8888 42.8765 60.9569 42.8878 61.0251 42.9105C61.184 42.9671 61.3316 43.1031 61.3883 43.2957C61.4451 43.4883 61.3997 43.6922 61.2975 43.8168C61.1953 43.9528 61.0591 44.0208 60.9115 44.0661C60.6164 44.1567 60.2985 44.1567 59.9919 44.1454C59.9125 44.1454 59.606 44.168 59.5946 43.9868C59.5946 43.9528 59.606 43.9188 59.6173 43.8961C59.799 43.4203 60.1395 43.0691 60.5596 42.9218C60.6504 42.8991 60.7412 42.8765 60.8207 42.8765Z" fill="#F5E7C5"/>
<path d="M43.0878 46.4792C43.1559 46.4792 43.224 46.4906 43.2921 46.5132C43.4511 46.5699 43.5987 46.7058 43.6554 46.8984C43.7122 47.091 43.6668 47.295 43.5646 47.4196C43.4624 47.5556 43.3262 47.6235 43.1786 47.6689C42.8834 47.7595 42.5656 47.7595 42.259 47.7482C42.1796 47.7482 41.873 47.7708 41.8617 47.5896C41.8617 47.5556 41.873 47.5216 41.8844 47.4989C42.066 47.0231 42.4066 46.6719 42.8267 46.5246C42.9175 46.5019 42.997 46.4906 43.0878 46.4792Z" fill="#F5E7C5"/>
<path d="M22.0852 52.5063C22.1533 52.5063 22.2215 52.5177 22.2896 52.5403C22.4485 52.597 22.5961 52.7329 22.6529 52.9255C22.7096 53.1181 22.6642 53.3221 22.562 53.4467C22.4599 53.5827 22.3236 53.6506 22.176 53.696C21.8809 53.7866 21.563 53.7866 21.2565 53.7753C21.177 53.7753 20.8705 53.7979 20.8591 53.6166C20.8591 53.5827 20.8705 53.5487 20.8818 53.526C21.0635 53.0502 21.4041 52.699 21.8241 52.5517C21.9036 52.529 21.9944 52.5063 22.0852 52.5063Z" fill="#F5E7C5"/>
<path d="M48.3781 58.9191C48.31 58.9191 48.2419 58.9078 48.1738 58.8851C48.0148 58.8285 47.8673 58.6812 47.8218 58.4886C47.7764 58.296 47.8218 58.092 47.9354 57.9674C48.0375 57.8428 48.1851 57.7748 48.3327 57.7295C48.6279 57.6502 48.9458 57.6615 49.2523 57.6842C49.3318 57.6842 49.6383 57.6728 49.6383 57.8541C49.6383 57.8881 49.6269 57.9221 49.6156 57.9448C49.4112 58.4093 49.0593 58.7605 48.6392 58.8851C48.5484 58.8964 48.4689 58.9191 48.3781 58.9191Z" fill="#F5E7C5"/>
<path d="M42.1001 25.5534C42.1682 25.5421 42.2363 25.5421 42.3044 25.5534C42.4633 25.5874 42.6336 25.712 42.7245 25.8933C42.8039 26.0746 42.7812 26.2785 42.7018 26.4258C42.6223 26.5731 42.486 26.6637 42.3498 26.7204C42.066 26.845 41.7595 26.8903 41.453 26.9243C41.3735 26.9356 41.067 26.9923 41.0443 26.8223C41.0329 26.7883 41.0443 26.7544 41.0556 26.7204C41.1691 26.2219 41.4643 25.8253 41.8616 25.6327C41.9298 25.5987 42.0092 25.5647 42.1001 25.5534Z" fill="#F5E7C5"/>
<path d="M26.7285 32.5097C26.6944 32.4531 26.6604 32.3851 26.649 32.3171C26.6149 32.1585 26.649 31.9546 26.7852 31.796C26.9215 31.6487 27.1145 31.5807 27.2734 31.592C27.4323 31.6034 27.5686 31.694 27.6935 31.7846C27.9205 31.9886 28.0908 32.2605 28.2497 32.5211C28.2951 32.589 28.4768 32.8383 28.3292 32.9403C28.3065 32.9629 28.2724 32.9629 28.2384 32.9742C27.7389 33.0762 27.2507 32.9629 26.9101 32.691C26.8306 32.6457 26.7739 32.589 26.7285 32.5097Z" fill="#1B1A18"/>
<path d="M56.7791 47.1249C56.8473 47.1135 56.9154 47.1135 56.9835 47.1362C57.1424 47.1702 57.3127 47.2948 57.3922 47.4761C57.4716 47.6574 57.4489 47.8613 57.3581 48.0086C57.2787 48.1559 57.1424 48.2352 57.0062 48.3032C56.7224 48.4278 56.4158 48.4618 56.098 48.4844C56.0185 48.4958 55.712 48.5524 55.6893 48.3711C55.6779 48.3371 55.6893 48.3032 55.7006 48.2692C55.8255 47.7707 56.132 47.3855 56.5294 47.1929C56.6088 47.1702 56.6883 47.1362 56.7791 47.1249Z" fill="#1B1A18"/>
<path d="M59.8443 56.9818C59.9124 56.9705 59.9805 56.9705 60.0487 56.9931C60.2076 57.0271 60.3779 57.1518 60.4574 57.333C60.5368 57.5143 60.5141 57.7182 60.4233 57.8655C60.3438 58.0128 60.2076 58.0921 60.0714 58.1601C59.7876 58.2847 59.481 58.3187 59.1632 58.3414C59.0837 58.3527 58.7772 58.4093 58.7545 58.2281C58.7431 58.1941 58.7545 58.1601 58.7658 58.1261C58.8907 57.6276 59.1972 57.2424 59.5946 57.0498C59.674 57.0158 59.7648 56.9931 59.8443 56.9818Z" fill="#1B1A18"/>
<path d="M38.5013 56.5739C38.5126 56.5059 38.524 56.4379 38.558 56.37C38.6262 56.2227 38.7851 56.0867 38.9894 56.0527C39.1824 56.0187 39.3754 56.0867 39.5003 56.2C39.6252 56.3133 39.6706 56.4606 39.7047 56.6079C39.7614 56.9138 39.716 57.2197 39.682 57.5256C39.6706 57.6049 39.6593 57.9108 39.4776 57.8995C39.4436 57.8995 39.4095 57.8881 39.3868 57.8655C38.9327 57.6275 38.6148 57.2537 38.524 56.8231C38.5013 56.7438 38.4899 56.6532 38.5013 56.5739Z" fill="#1B1A18"/>
<path d="M33.7785 27.2756C33.7558 27.3435 33.733 27.4002 33.6876 27.4682C33.5855 27.6041 33.4038 27.7061 33.2108 27.7061C33.0178 27.7061 32.8362 27.6041 32.734 27.4682C32.6318 27.3322 32.6091 27.1849 32.6091 27.0263C32.6091 26.7204 32.7 26.4145 32.7908 26.1199C32.8135 26.0406 32.8816 25.7461 33.0519 25.7801C33.0859 25.7914 33.1086 25.8027 33.1427 25.8254C33.5514 26.1313 33.7898 26.5731 33.8012 27.0037C33.8125 27.1056 33.8012 27.1963 33.7785 27.2756Z" fill="#1B1A18"/>
<path d="M28.9423 46.6491C29.0104 46.6718 29.0672 46.7058 29.1239 46.7511C29.2488 46.8531 29.351 47.0457 29.3396 47.2383C29.3283 47.4309 29.2147 47.6122 29.0785 47.7028C28.9423 47.7934 28.7833 47.8161 28.6358 47.8048C28.3292 47.7934 28.0341 47.6801 27.7389 47.5782C27.6594 47.5442 27.3643 47.4649 27.421 47.2949C27.4324 47.2609 27.4551 47.2383 27.4664 47.2156C27.7957 46.8304 28.2384 46.6038 28.6812 46.6152C28.772 46.6152 28.8515 46.6265 28.9423 46.6491Z" fill="#1B1A18"/>
<path d="M36.6735 42.0607C36.7416 42.0834 36.7984 42.1173 36.8551 42.1627C36.98 42.2646 37.0822 42.4572 37.0708 42.6498C37.0595 42.8424 36.9459 43.0237 36.8097 43.1144C36.6735 43.205 36.5145 43.2276 36.367 43.2163C36.0604 43.205 35.7653 43.0917 35.4701 42.9897C35.3906 42.9557 35.0955 42.8764 35.1522 42.7065C35.1636 42.6725 35.1863 42.6498 35.1976 42.6272C35.5269 42.242 35.9696 42.0154 36.4124 42.0267C36.5032 42.0154 36.594 42.0267 36.6735 42.0607Z" fill="#1B1A18"/>
<path d="M46.732 33.5634C46.7092 33.6314 46.6865 33.688 46.6411 33.756C46.539 33.892 46.3573 33.9939 46.1643 33.9939C45.9713 33.9939 45.7897 33.892 45.6875 33.756C45.5853 33.6201 45.5626 33.4728 45.5626 33.3142C45.5626 33.0083 45.6534 32.7024 45.7443 32.4078C45.767 32.3285 45.8351 32.0339 46.0054 32.0679C46.0394 32.0792 46.0621 32.0906 46.0962 32.1132C46.5049 32.4191 46.7433 32.861 46.7547 33.2915C46.766 33.3935 46.7547 33.4728 46.732 33.5634Z" fill="#1B1A18"/>
<path d="M26.6037 60.4033C26.581 60.4712 26.5582 60.5279 26.5128 60.5959C26.4107 60.7318 26.229 60.8338 26.036 60.8338C25.843 60.8338 25.6614 60.7318 25.5592 60.5959C25.457 60.4599 25.4343 60.3126 25.4343 60.154C25.4343 59.8481 25.5251 59.5422 25.616 59.2476C25.6387 59.1683 25.7068 58.8738 25.8771 58.9077C25.9111 58.9191 25.9338 58.9304 25.9679 58.9531C26.3766 59.259 26.615 59.7008 26.6264 60.1313C26.6264 60.2333 26.6264 60.3239 26.6037 60.4033Z" fill="#1B1A18"/>
<path d="M81.4486 89.9624C81.4826 90.019 81.494 90.087 81.5053 90.1663C81.5167 90.3363 81.4486 90.5289 81.301 90.6535C81.1534 90.7781 80.9491 90.8234 80.7901 90.7781C80.6312 90.7441 80.5063 90.6422 80.4041 90.5289C80.1998 90.3023 80.0749 90.0077 79.9614 89.7245C79.9273 89.6452 79.7797 89.3846 79.9387 89.294C79.9727 89.2826 80.0068 89.2713 80.0295 89.2713C80.5404 89.2486 81.0058 89.4186 81.301 89.7358C81.3578 89.8038 81.4145 89.8831 81.4486 89.9624Z" fill="#F5E7C5"/>
<path d="M91.1211 85.6343C91.1551 85.6909 91.1665 85.7589 91.1778 85.8382C91.1892 86.0082 91.1211 86.2008 90.9735 86.3254C90.8259 86.45 90.6215 86.4953 90.4626 86.45C90.3037 86.416 90.1788 86.3141 90.0766 86.2008C89.8723 85.9742 89.7474 85.6796 89.6339 85.3964C89.5998 85.317 89.4522 85.0565 89.6111 84.9658C89.6452 84.9545 89.6793 84.9432 89.702 84.9432C90.2128 84.9205 90.6783 85.0905 90.9735 85.4077C91.0302 85.487 91.087 85.555 91.1211 85.6343Z" fill="#F5E7C5"/>
<path d="M62.2058 79.9016C62.2398 79.9583 62.2512 80.0262 62.2625 80.1055C62.2739 80.2755 62.2058 80.4681 62.0582 80.5927C61.9106 80.7173 61.7063 80.7627 61.5473 80.7173C61.3884 80.6834 61.2635 80.5814 61.1613 80.4681C60.957 80.2415 60.8321 79.9469 60.7186 79.6637C60.6845 79.5844 60.5369 79.3238 60.6959 79.2332C60.7299 79.2218 60.764 79.2105 60.7867 79.2105C61.2976 79.1878 61.763 79.3578 62.0582 79.675C62.115 79.7543 62.1604 79.8223 62.2058 79.9016Z" fill="#F5E7C5"/>
<path d="M81.0286 68.1756C80.9605 68.1756 80.8924 68.1756 80.8242 68.1529C80.6653 68.0963 80.5064 67.9603 80.4496 67.7677C80.3928 67.5751 80.4382 67.3825 80.5291 67.2466C80.6199 67.1106 80.7675 67.0426 80.9151 66.9973C81.2102 66.9067 81.5168 66.9067 81.8346 66.8954C81.9141 66.8954 82.2206 66.8614 82.232 67.0426C82.232 67.0766 82.2206 67.1106 82.2093 67.1333C82.039 67.6091 81.6984 67.9717 81.2783 68.1189C81.1989 68.1529 81.1194 68.1756 81.0286 68.1756Z" fill="#F5E7C5"/>
<path d="M80.6766 53.3337C80.7107 53.3904 80.722 53.4584 80.7334 53.5377C80.7447 53.7076 80.6766 53.9002 80.529 54.0248C80.3814 54.1495 80.1771 54.1948 80.0181 54.1495C79.8592 54.1155 79.7343 54.0135 79.6321 53.9002C79.4278 53.6736 79.3029 53.3791 79.1894 53.0958C79.1553 53.0165 79.0078 52.7559 79.1667 52.6653C79.2007 52.654 79.2348 52.6426 79.2575 52.6426C79.7684 52.62 80.2338 52.7899 80.529 53.1071C80.5858 53.1865 80.6312 53.2544 80.6766 53.3337Z" fill="#F5E7C5"/>
<path d="M75.3521 50.0369C75.3862 50.0935 75.3975 50.1615 75.4089 50.2408C75.4203 50.4107 75.3521 50.6033 75.2046 50.728C75.057 50.8526 74.8526 50.8979 74.6937 50.8526C74.5347 50.8186 74.4099 50.7166 74.3077 50.6033C74.1033 50.3768 73.9785 50.0822 73.8649 49.7989C73.8309 49.7196 73.6833 49.4591 73.8422 49.3684C73.8763 49.3571 73.9103 49.3458 73.933 49.3458C74.4439 49.3231 74.9094 49.493 75.2046 49.8103C75.2613 49.8896 75.3181 49.9576 75.3521 50.0369Z" fill="#F5E7C5"/>
<path d="M91.3709 59.1232C91.4163 59.0778 91.4844 59.0439 91.5525 59.0099C91.7115 58.9532 91.9158 58.9532 92.0861 59.0665C92.2564 59.1685 92.3472 59.3611 92.3586 59.5197C92.3699 59.6783 92.3132 59.8256 92.2224 59.9615C92.0634 60.2221 91.8137 60.4261 91.5752 60.6187C91.5071 60.6753 91.2914 60.8906 91.1779 60.7546C91.1552 60.732 91.1438 60.698 91.1325 60.664C90.9622 60.1881 90.9849 59.6896 91.212 59.3158C91.246 59.2591 91.3028 59.1798 91.3709 59.1232Z" fill="#F5E7C5"/>
<path d="M80.2565 73.3871C80.3019 73.3418 80.37 73.3078 80.4382 73.2738C80.5971 73.2171 80.8014 73.2171 80.9717 73.3304C81.142 73.4324 81.2328 73.625 81.2442 73.7836C81.2556 73.9422 81.1988 74.0895 81.108 74.2255C80.949 74.4861 80.6993 74.69 80.4609 74.8826C80.3927 74.9392 80.177 75.1545 80.0635 75.0185C80.0408 74.9959 80.0295 74.9619 80.0181 74.9279C79.8478 74.4521 79.8705 73.9536 80.0976 73.5797C80.1316 73.5117 80.1884 73.4437 80.2565 73.3871Z" fill="#F5E7C5"/>
<path d="M68.2341 91.6051C68.2795 91.5598 68.3476 91.5258 68.4157 91.4918C68.5746 91.4352 68.779 91.4352 68.9493 91.5484C69.1196 91.6504 69.2104 91.843 69.2217 92.0016C69.2331 92.1602 69.1763 92.3075 69.0855 92.4435C68.9266 92.7041 68.6768 92.908 68.4384 93.1006C68.3703 93.1573 68.1546 93.3725 68.0411 93.2366C68.0184 93.2139 68.007 93.1799 67.9956 93.1459C67.8254 92.6701 67.8481 92.1716 68.0751 91.7977C68.1205 91.7297 68.1773 91.6617 68.2341 91.6051Z" fill="#F5E7C5"/>
<path d="M92.3812 79.3805C92.3245 79.4258 92.2677 79.4598 92.1996 79.4824C92.0407 79.5391 91.8363 79.5164 91.666 79.4031C91.5071 79.2898 91.4163 79.0972 91.4049 78.9386C91.4049 78.7687 91.4617 78.6327 91.5525 78.5081C91.7228 78.2588 91.9725 78.0662 92.2223 77.8736C92.2904 77.817 92.5175 77.6131 92.631 77.749C92.6537 77.7717 92.6651 77.8057 92.6764 77.8397C92.8354 78.3268 92.7786 78.814 92.5402 79.1879C92.5061 79.2559 92.4494 79.3238 92.3812 79.3805Z" fill="#F5E7C5"/>
<path d="M65.85 58.1374C65.8954 58.0807 65.9521 58.0354 66.0089 58.0014C66.1565 57.9221 66.3608 57.8995 66.5425 57.9901C66.7241 58.0694 66.8377 58.2393 66.8717 58.4093C66.9058 58.5679 66.8604 58.7265 66.8036 58.8625C66.6787 59.1457 66.463 59.3723 66.2473 59.5989C66.1906 59.6555 66.0089 59.9048 65.8613 59.7915C65.8386 59.7688 65.8159 59.7462 65.8046 59.7122C65.5661 59.259 65.5321 58.7605 65.7024 58.364C65.7478 58.2847 65.7932 58.2054 65.85 58.1374Z" fill="#F5E7C5"/>
<path d="M58.7205 73.4096C58.6523 73.387 58.5956 73.3643 58.5275 73.319C58.3912 73.217 58.2891 73.0357 58.2891 72.8431C58.2891 72.6505 58.4026 72.4693 58.5275 72.3673C58.6637 72.2767 58.8226 72.2427 58.9702 72.2427C59.2767 72.2427 59.5719 72.3446 59.8671 72.4466C59.9466 72.4693 60.2417 72.5372 60.1963 72.7185C60.185 72.7525 60.1736 72.7752 60.1509 72.7978C59.833 73.1944 59.4016 73.4323 58.9589 73.4436C58.8908 73.4436 58.8113 73.4323 58.7205 73.4096Z" fill="#1B1A18"/>
<path d="M91.0643 64.9805C91.1097 64.9239 91.1665 64.8899 91.2233 64.8446C91.3709 64.7653 91.5752 64.7539 91.7568 64.8446C91.9385 64.9352 92.052 65.1051 92.0747 65.2638C92.1088 65.4224 92.0634 65.581 91.9953 65.7169C91.859 65.9888 91.6433 66.2154 91.4276 66.442C91.3709 66.4987 91.1779 66.7366 91.0416 66.6233C91.0189 66.6006 90.9962 66.5667 90.9849 66.544C90.7578 66.0908 90.7351 65.5923 90.9168 65.1958C90.9622 65.1165 91.0076 65.0485 91.0643 64.9805Z" fill="#1B1A18"/>
<path d="M99.8173 70.4639C99.8627 70.4073 99.9194 70.3733 99.9762 70.328C100.124 70.2487 100.328 70.2373 100.51 70.328C100.691 70.4186 100.805 70.5885 100.839 70.7472C100.873 70.9058 100.828 71.0644 100.76 71.2003C100.623 71.4723 100.408 71.6988 100.192 71.9254C100.135 71.9821 99.9421 72.22 99.8059 72.1067C99.7832 72.084 99.7605 72.0501 99.7491 72.0274C99.5221 71.5742 99.4994 71.0757 99.681 70.6792C99.7151 70.5999 99.7605 70.5319 99.8173 70.4639Z" fill="#1B1A18"/>
<path d="M83.3559 84.0143C83.3105 83.9577 83.2878 83.901 83.2651 83.8217C83.2196 83.6631 83.2537 83.4592 83.3786 83.3006C83.5035 83.1533 83.6965 83.074 83.8667 83.0853C84.037 83.0966 84.1733 83.1759 84.2868 83.2666C84.5252 83.4592 84.6955 83.7197 84.8658 83.9803C84.9112 84.0483 85.1042 84.2862 84.9566 84.3995C84.9339 84.4222 84.8998 84.4335 84.8658 84.4335C84.3663 84.5468 83.8781 84.4675 83.5262 84.1956C83.4694 84.1503 83.4013 84.0936 83.3559 84.0143Z" fill="#1B1A18"/>
<path d="M60.6618 64.856C60.6959 64.9126 60.7072 64.9806 60.7186 65.0599C60.7299 65.2298 60.6618 65.4224 60.5142 65.5471C60.3667 65.6717 60.1623 65.717 60.0034 65.6717C59.8444 65.6377 59.7196 65.5357 59.6174 65.4224C59.413 65.1958 59.2881 64.9013 59.1746 64.618C59.1406 64.5387 58.993 64.2781 59.1519 64.1875C59.186 64.1762 59.22 64.1649 59.2427 64.1649C59.7536 64.1422 60.2191 64.3121 60.5142 64.6294C60.571 64.6973 60.6278 64.7766 60.6618 64.856Z" fill="#1B1A18"/>
<path d="M69.6304 82.7113C69.6985 82.6887 69.7666 82.666 69.8347 82.666C70.005 82.666 70.198 82.734 70.3229 82.8926C70.4478 83.0512 70.4705 83.2552 70.4251 83.4138C70.3797 83.5724 70.2775 83.6857 70.1526 83.7876C69.9142 83.9802 69.619 84.0822 69.3239 84.1955C69.2444 84.2295 68.9719 84.3541 68.8925 84.1955C68.8811 84.1615 68.8811 84.1275 68.8811 84.1049C68.8811 83.595 69.0741 83.1419 69.4147 82.8586C69.4714 82.7906 69.5509 82.7453 69.6304 82.7113Z" fill="#1B1A18"/>
<path d="M72.5027 74.1916C72.5708 74.1689 72.6389 74.1462 72.707 74.1462C72.8773 74.1462 73.0703 74.2142 73.1952 74.3728C73.3201 74.5314 73.3428 74.7354 73.2974 74.894C73.252 75.0526 73.1498 75.1659 73.0249 75.2679C72.7865 75.4605 72.4913 75.5624 72.1962 75.6757C72.1167 75.7097 71.8442 75.8344 71.7648 75.6757C71.7534 75.6417 71.7534 75.6078 71.7534 75.5851C71.7534 75.0753 71.9464 74.6221 72.287 74.3388C72.3438 74.2709 72.4232 74.2256 72.5027 74.1916Z" fill="#1B1A18"/>
<path d="M74.5915 61.2078C74.6256 61.2644 74.6369 61.3324 74.6483 61.4117C74.6596 61.5816 74.5915 61.7742 74.4439 61.8989C74.2963 62.0235 74.092 62.0688 73.9331 62.0235C73.7741 61.9895 73.6492 61.8875 73.5471 61.7742C73.3427 61.5476 73.2178 61.2531 73.1043 60.9698C73.0703 60.8905 72.9227 60.63 73.0816 60.5393C73.1157 60.528 73.1497 60.5167 73.1724 60.5167C73.6833 60.494 74.1488 60.6639 74.4439 60.9812C74.5007 61.0605 74.5575 61.1285 74.5915 61.2078Z" fill="#1B1A18"/>
<path d="M76.8281 94.6641C76.8621 94.7207 76.8735 94.7887 76.8849 94.868C76.8962 95.0379 76.8281 95.2305 76.6805 95.3552C76.5329 95.4798 76.3286 95.5251 76.1696 95.4798C76.0107 95.4458 75.8858 95.3438 75.7836 95.2305C75.5793 95.0039 75.4544 94.7094 75.3409 94.4261C75.3068 94.3468 75.1592 94.0863 75.3182 93.9956C75.3522 93.9843 75.3863 93.973 75.409 93.973C75.9199 93.9503 76.3853 94.1202 76.6805 94.4375C76.7373 94.5168 76.7827 94.5848 76.8281 94.6641Z" fill="#1B1A18"/>
<path d="M52.976 104.509C53.0442 104.521 53.1123 104.532 53.1804 104.566C53.328 104.634 53.4642 104.793 53.4983 104.996C53.5323 105.189 53.4642 105.382 53.3507 105.506C53.2371 105.631 53.0896 105.676 52.942 105.71C52.6355 105.767 52.3289 105.733 52.0224 105.688C51.9429 105.676 51.6364 105.665 51.6478 105.484C51.6478 105.45 51.6591 105.416 51.6818 105.393C51.9202 104.94 52.2949 104.623 52.7263 104.532C52.7944 104.509 52.8852 104.498 52.976 104.509Z" fill="#F5E7C5"/>
<path d="M54.1226 93.9957C54.1908 94.007 54.2589 94.0183 54.327 94.0523C54.4746 94.1203 54.6108 94.2789 54.6449 94.4828C54.6789 94.6754 54.6108 94.868 54.4973 94.9927C54.3838 95.1173 54.2362 95.1626 54.0886 95.1966C53.7821 95.2532 53.4755 95.2192 53.169 95.1739C53.0895 95.1626 52.783 95.1513 52.7944 94.97C52.7944 94.936 52.8057 94.902 52.8284 94.8794C53.0668 94.4262 53.4415 94.109 53.8729 94.0183C53.941 93.9957 54.0318 93.9843 54.1226 93.9957Z" fill="#F5E7C5"/>
<path d="M34.5505 116.009C34.6186 116.02 34.6867 116.032 34.7548 116.066C34.9024 116.134 35.0387 116.292 35.0727 116.496C35.1068 116.689 35.0387 116.881 34.9251 117.006C34.8116 117.131 34.664 117.176 34.5164 117.21C34.2099 117.267 33.9034 117.233 33.5969 117.187C33.5174 117.176 33.2109 117.165 33.2222 116.983C33.2222 116.949 33.2336 116.915 33.2563 116.893C33.4947 116.44 33.8693 116.122 34.3007 116.032C34.3802 116.009 34.471 115.998 34.5505 116.009Z" fill="#F5E7C5"/>
<path d="M33.9261 93.871C33.8921 93.9276 33.8467 93.9843 33.8013 94.0409C33.6764 94.1542 33.472 94.2109 33.279 94.1656C33.086 94.1202 32.9385 93.9843 32.8703 93.8257C32.8022 93.667 32.8136 93.5198 32.8476 93.3725C32.9158 93.0779 33.0747 92.806 33.2336 92.5341C33.279 92.4661 33.4039 92.1829 33.5629 92.2622C33.5969 92.2735 33.6196 92.3075 33.631 92.3302C33.9602 92.7267 34.0964 93.1912 34.017 93.6331C33.9943 93.701 33.9716 93.7917 33.9261 93.871Z" fill="#F5E7C5"/>
<path d="M20.9046 86.6768C20.9727 86.6881 21.0409 86.6995 21.109 86.7335C21.2566 86.8014 21.3928 86.9601 21.4268 87.164C21.4609 87.3566 21.3928 87.5492 21.2793 87.6738C21.1657 87.7984 21.0182 87.8438 20.8706 87.8777C20.564 87.9344 20.2575 87.9004 19.951 87.8551C19.8715 87.8438 19.565 87.8324 19.5764 87.6512C19.5764 87.6172 19.5877 87.5832 19.6104 87.5605C19.8488 87.1073 20.2235 86.7901 20.6549 86.6995C20.7343 86.6768 20.8138 86.6655 20.9046 86.6768Z" fill="#F5E7C5"/>
<path d="M15.3645 89.5997C15.4326 89.611 15.5007 89.6223 15.5688 89.6563C15.7164 89.7243 15.8526 89.8829 15.8867 90.0868C15.9207 90.2794 15.8526 90.472 15.7391 90.5967C15.6256 90.7213 15.478 90.7666 15.3304 90.8006C15.0239 90.8572 14.7174 90.8233 14.4108 90.7779C14.3314 90.7666 14.0248 90.7553 14.0362 90.574C14.0362 90.54 14.0475 90.506 14.0703 90.4834C14.3087 90.0302 14.6833 89.713 15.1147 89.6223C15.1942 89.5997 15.285 89.5883 15.3645 89.5997Z" fill="#F5E7C5"/>
<path d="M31.315 80.3889C31.3037 80.321 31.2923 80.253 31.3037 80.185C31.3264 80.0264 31.4399 79.8451 31.6215 79.7545C31.8032 79.6638 32.0075 79.6752 32.1551 79.7545C32.3027 79.8225 32.3935 79.9584 32.473 80.0944C32.6092 80.3663 32.666 80.6722 32.7114 80.9894C32.7227 81.0687 32.8022 81.3633 32.6319 81.4086C32.5979 81.4199 32.5638 81.4086 32.5297 81.4086C32.0302 81.318 31.6102 81.0347 31.4058 80.6495C31.3718 80.5589 31.3377 80.4796 31.315 80.3889Z" fill="#F5E7C5"/>
<path d="M38.0358 97.168C38.0245 97.1 38.0131 97.032 38.0245 96.9641C38.0472 96.8054 38.1607 96.6242 38.3424 96.5335C38.524 96.4429 38.7283 96.4542 38.8759 96.5335C39.0235 96.6015 39.1143 96.7375 39.1938 96.8734C39.33 97.1453 39.3868 97.4512 39.4322 97.7685C39.4436 97.8478 39.523 98.1423 39.3527 98.1877C39.3187 98.199 39.2846 98.1877 39.2506 98.1877C38.7511 98.097 38.331 97.8138 38.1267 97.4286C38.0926 97.3266 38.0585 97.2473 38.0358 97.168Z" fill="#F5E7C5"/>
<path d="M47.7197 116.711C47.7083 116.643 47.697 116.575 47.7083 116.508C47.731 116.349 47.8445 116.168 48.0262 116.077C48.2078 115.986 48.4122 115.998 48.5598 116.077C48.7074 116.145 48.7982 116.281 48.8776 116.417C49.0139 116.689 49.0706 116.995 49.1161 117.312C49.1274 117.391 49.2069 117.686 49.0366 117.731C49.0025 117.742 48.9685 117.731 48.9344 117.731C48.4349 117.64 48.0148 117.357 47.8105 116.972C47.7651 116.881 47.731 116.802 47.7197 116.711Z" fill="#F5E7C5"/>
<path d="M49.3545 89.7583C49.3659 89.8263 49.3659 89.8942 49.3545 89.9622C49.3205 90.1208 49.207 90.3021 49.0253 90.3814C48.8437 90.4607 48.6393 90.4494 48.4917 90.3701C48.3442 90.2908 48.2533 90.1662 48.1966 90.0189C48.0603 89.747 48.0263 89.4297 47.9809 89.1238C47.9695 89.0445 47.9014 88.7386 48.083 88.7046C48.1171 88.6933 48.1512 88.7046 48.1852 88.716C48.6847 88.8293 49.0821 89.1238 49.2864 89.509C49.3091 89.5884 49.3318 89.6677 49.3545 89.7583Z" fill="#F5E7C5"/>
<path d="M17.5782 101.87C17.5555 101.802 17.5442 101.734 17.5442 101.666C17.5442 101.496 17.635 101.315 17.8053 101.201C17.9642 101.088 18.1799 101.077 18.3275 101.122C18.4865 101.179 18.6 101.292 18.6795 101.417C18.8498 101.666 18.9519 101.972 19.0427 102.266C19.0655 102.346 19.179 102.629 19.02 102.697C18.986 102.708 18.9519 102.708 18.9179 102.708C18.407 102.685 17.9642 102.459 17.7031 102.108C17.6464 102.028 17.601 101.949 17.5782 101.87Z" fill="#F5E7C5"/>
<path d="M27.1826 115.726C27.1372 115.771 27.0804 115.816 27.0123 115.839C26.8647 115.907 26.649 115.896 26.4787 115.794C26.3085 115.692 26.2063 115.511 26.1949 115.341C26.1836 115.182 26.2403 115.023 26.3198 114.899C26.4787 114.638 26.7172 114.423 26.9442 114.219C27.0123 114.162 27.2167 113.947 27.3416 114.072C27.3643 114.094 27.3756 114.128 27.387 114.151C27.5686 114.627 27.5573 115.125 27.3416 115.499C27.2961 115.59 27.2507 115.658 27.1826 115.726Z" fill="#1B1A18"/>
<path d="M36.2307 83.6064C36.208 83.5384 36.1967 83.4704 36.1967 83.4024C36.208 83.2325 36.2988 83.0512 36.4578 82.9379C36.6281 82.8246 36.8324 82.8133 36.98 82.8699C37.1389 82.9266 37.2411 83.0399 37.3319 83.1645C37.5022 83.4138 37.593 83.7197 37.6725 84.0256C37.6952 84.1049 37.8087 84.3881 37.6384 84.4448C37.6044 84.4561 37.5703 84.4561 37.5363 84.4561C37.0254 84.4221 36.5826 84.1955 36.3329 83.833C36.2988 83.765 36.2534 83.697 36.2307 83.6064Z" fill="#1B1A18"/>
<path d="M45.3923 78.8366C45.3696 78.7686 45.3583 78.7006 45.3583 78.6326C45.3696 78.4627 45.4605 78.2814 45.6194 78.1681C45.7897 78.0548 45.994 78.0435 46.1416 78.1002C46.3006 78.1568 46.4027 78.2701 46.4935 78.3947C46.6638 78.644 46.7547 78.9499 46.8341 79.2558C46.8568 79.3351 46.9704 79.6183 46.8001 79.675C46.766 79.6863 46.732 79.6863 46.6979 79.6863C46.187 79.6523 45.7443 79.4257 45.4945 79.0632C45.4605 78.9952 45.4264 78.9159 45.3923 78.8366Z" fill="#1B1A18"/>
<path d="M48.7982 99.8642C48.7301 99.8756 48.6619 99.8642 48.5938 99.8416C48.4349 99.7963 48.276 99.6603 48.1965 99.479C48.1284 99.2978 48.1624 99.0938 48.2532 98.9466C48.3441 98.8106 48.4803 98.7313 48.6279 98.6746C48.9117 98.5613 49.2296 98.55 49.5361 98.5387C49.6156 98.5387 49.9221 98.4934 49.9448 98.6633C49.9448 98.6973 49.9448 98.7313 49.9335 98.7539C49.7859 99.2411 49.4566 99.615 49.0593 99.7849C48.9685 99.8303 48.889 99.8642 48.7982 99.8642Z" fill="#1B1A18"/>
<path d="M20.757 109.721C20.8252 109.733 20.8933 109.744 20.9614 109.778C21.109 109.846 21.2452 110.004 21.2793 110.208C21.3133 110.401 21.2452 110.594 21.1317 110.718C21.0182 110.843 20.8706 110.888 20.723 110.922C20.4165 110.979 20.1099 110.945 19.8034 110.899C19.7239 110.888 19.4174 110.877 19.4288 110.696C19.4288 110.662 19.4401 110.628 19.4628 110.605C19.7012 110.152 20.0759 109.834 20.5073 109.744C20.5868 109.721 20.6776 109.721 20.757 109.721Z" fill="#1B1A18"/>
<path d="M40.7264 111.024C40.7377 110.956 40.7604 110.888 40.7945 110.82C40.874 110.673 41.0443 110.548 41.2373 110.525C41.4303 110.503 41.6232 110.582 41.7368 110.695C41.8503 110.809 41.8957 110.967 41.9184 111.115C41.9638 111.42 41.9071 111.726 41.8503 112.032C41.8389 112.112 41.8049 112.417 41.6346 112.395C41.6005 112.395 41.5665 112.372 41.5438 112.361C41.101 112.1 40.8059 111.704 40.7377 111.273C40.7264 111.205 40.715 111.115 40.7264 111.024Z" fill="#1B1A18"/>
<path d="M34.8117 104.249C34.8231 104.181 34.8458 104.113 34.8798 104.045C34.9593 103.898 35.1296 103.773 35.3226 103.75C35.5156 103.728 35.7086 103.807 35.8221 103.92C35.9356 104.034 35.981 104.192 36.0037 104.34C36.0492 104.645 35.9924 104.951 35.9356 105.257C35.9243 105.337 35.8902 105.643 35.7199 105.62C35.6859 105.62 35.6518 105.597 35.6291 105.586C35.1864 105.325 34.8912 104.929 34.8231 104.498C34.8117 104.43 34.8004 104.34 34.8117 104.249Z" fill="#1B1A18"/>
<path d="M24.6396 95.8877C24.7077 95.899 24.7758 95.9104 24.844 95.9443C24.9915 96.0123 25.1278 96.1709 25.1618 96.3749C25.1959 96.5675 25.1278 96.7601 25.0142 96.8847C24.9007 97.0093 24.7531 97.0546 24.6056 97.0886C24.299 97.1453 23.9925 97.1113 23.686 97.066C23.6065 97.0546 23.3 97.0433 23.3113 96.862C23.3113 96.828 23.3227 96.7941 23.3454 96.7714C23.5838 96.3182 23.9584 96.001 24.3899 95.9103C24.4693 95.8877 24.5601 95.8877 24.6396 95.8877Z" fill="#1B1A18"/>
<path d="M54.7016 110.865C54.7697 110.877 54.8379 110.888 54.906 110.922C55.0536 110.99 55.1898 111.149 55.2238 111.353C55.2579 111.545 55.1898 111.738 55.0763 111.862C54.9627 111.987 54.8151 112.032 54.6676 112.066C54.361 112.123 54.0545 112.089 53.748 112.044C53.6685 112.032 53.362 112.021 53.3734 111.84C53.3734 111.806 53.3847 111.772 53.4074 111.749C53.6458 111.296 54.0205 110.979 54.4519 110.888C54.5313 110.877 54.6108 110.865 54.7016 110.865Z" fill="#1B1A18"/>
</svg>
