<svg width="132" height="112" viewBox="0 0 132 112" fill="none" xmlns="http://www.w3.org/2000/svg">
<path d="M129.929 63.7103C129.929 90.3773 101.054 111.965 65.4027 111.965C29.7873 111.965 0.911804 90.3773 0.911804 63.7103C0.911804 37.0432 29.7873 15.4556 65.4027 15.4556C101.054 15.4556 129.929 37.0432 129.929 63.7103Z" fill="#C1710C"/>
<path d="M65.4026 15.4556C33.6184 15.4556 7.19059 32.6692 1.90503 55.3503C6.62301 74.6099 20.4222 91.1181 40.4293 96.4092C56.4633 100.854 72.4974 99.9366 88.5314 99.9366C90.2341 110.871 48.5173 112.988 21.9121 99.3722C33.3701 107.203 48.6237 112 65.4026 112C101.018 112 129.929 90.3773 129.929 63.7455C129.929 37.0432 101.054 15.4556 65.4026 15.4556Z" fill="#A5580E"/>
<path d="M130.674 50.0238C132.27 48.8597 132.27 45.544 131.49 43.9214C131.242 43.4628 130.887 43.1101 130.674 42.6515C130.603 42.4751 130.213 42.4751 130.106 42.1929C130.071 42.0871 130.355 41.558 130.284 41.3111C130.071 40.6409 129.752 39.5474 129.255 38.9125C129.823 36.6549 129.007 34.2916 128.155 32.0693C127.623 30.6937 127.198 29.1769 126.524 27.8717C125.779 26.4608 124.573 25.332 123.792 23.9916C123.118 22.8981 122.586 21.8046 121.699 20.8875C120.493 19.5824 118.79 18.8064 117.513 17.5718C115.74 15.8433 113.93 14.256 111.731 12.9156C109.709 11.681 107.332 11.293 105.346 10.3053C103.466 9.35295 102.295 7.58925 100.309 6.7074C98.0383 5.75501 95.7326 5.367 93.3204 5.12008C91.6886 4.94371 91.2274 4.87316 89.9504 4.06186C89.0281 3.46221 88.1412 3.10947 87.1125 2.9331C84.7358 2.47454 82.359 1.94543 79.9823 1.59269C77.4282 1.23995 74.9451 1.62796 72.5683 1.02831C70.0497 0.42865 67.3183 -0.276828 64.6932 0.111185C61.6425 0.569746 58.5208 1.45159 55.5056 1.45159C50.1136 1.45159 45.0764 2.792 40.0746 4.59097C37.6979 5.43754 35.4276 6.24884 33.2637 7.20124C32.1995 7.6598 31.1707 8.33 30.142 8.82384C29.0778 9.31767 28.1555 9.45877 27.0203 9.84678C24.8919 10.6228 22.9054 11.8927 21.2381 13.5153C20.5287 14.2207 19.9611 14.9262 19.1807 15.4906C18.3293 16.0903 17.0877 16.5135 16.6266 17.5012C15.0303 17.5365 12.4407 19.8646 12.1924 21.6988C9.92208 22.3337 7.01326 23.9563 7.86462 26.6372C6.62305 27.131 5.38147 28.683 5.48789 30.0587C3.92706 29.9882 2.2598 31.8224 1.55033 33.057C0.486126 34.856 1.16012 36.1611 1.44391 37.8895C0.592546 38.4539 0.450652 39.4416 0.450652 40.394C0.415179 41.2758 1.1956 42.4046 1.08918 43.2159C0.982755 43.9214 0.166864 44.6974 0.02497 45.5792C-0.116924 46.7433 0.379705 47.4488 0.663494 48.507C1.01823 49.7768 0.769914 49.283 0.379705 50.4823C0.0604435 51.3642 0.095917 52.5987 0.202338 53.5511C0.344232 55.0679 1.86959 58.2426 3.6078 58.4542C3.00475 60.6412 2.4017 62.4402 3.67874 64.6271C4.88484 66.7436 6.76494 67.9782 9.10619 67.2021C9.03525 69.1775 10.2768 71.8936 12.086 72.7401C12.8309 73.0929 13.6468 73.234 14.4627 73.1634C13.5049 75.7031 15.7752 78.9131 18.6131 78.6662C18.1165 81.3822 22.5861 82.3346 24.2534 81.4528C24.4662 82.7579 25.9206 84.0278 27.0913 84.6627C28.6876 85.474 29.8582 85.0507 31.5255 85.2976C31.3481 86.8144 34.7181 87.6963 35.8178 87.2024C36.7401 88.9309 38.4428 90.1654 40.4293 89.2836C40.7131 93.199 46.0341 92.3877 48.1626 91.0473C48.7656 92.3524 51.0714 92.5993 52.313 92.6699C52.5613 92.6699 52.9515 92.5993 53.3417 92.5288C53.7674 92.423 54.1931 92.3524 54.4059 92.3877C55.1863 92.5641 55.3637 93.3048 56.0377 93.7634C58.0597 95.1743 62.281 95.1038 63.9128 93.0579C65.3672 93.8692 67.7794 94.363 68.9146 92.8463C70.5818 94.9627 74.5194 94.5041 75.7964 92.2819C76.1512 93.1637 78.2086 94.0808 79.1664 94.1867C80.337 94.2925 81.4722 93.4459 81.8624 92.4935C82.7138 95.0332 88.8152 94.5041 88.5314 91.5411C89.2764 92.6346 91.5112 92.035 92.5399 91.788C94.2427 91.3648 95.2005 90.6593 95.2359 88.825C95.9809 89.9185 99.209 89.2836 100.273 88.825C101.444 88.2959 102.685 86.7086 102.827 85.4387C106.41 87.3435 111.234 84.4511 110.986 80.2888C112.689 81.1001 115.988 79.2658 115.74 77.2199C118.4 79.3364 120.99 73.9042 120.741 71.8936C122.054 72.7754 123.686 71.7172 124.75 70.7648C126.311 69.3891 126.311 68.0487 126.417 66.1086C128.155 67.9429 129.361 65.1915 129.858 63.9922C130.213 63.1104 130.887 62.2285 130.709 61.2056C130.532 60.1826 129.645 59.971 129.397 59.0186C131.774 57.7487 131.029 55.7028 130.248 53.8333C131.632 52.8809 131.525 51.4347 130.674 50.0238Z" fill="#FBDB27"/>
<path d="M9.49643 24.3444C9.42548 24.9087 8.71601 25.5437 8.64507 26.2844C8.50317 27.2368 8.92885 27.8365 9.17717 28.683C9.46096 29.7413 9.28359 29.318 8.92886 30.3056C8.68054 31.0464 8.71601 32.0341 8.78696 32.8101C8.92886 34.0447 10.135 36.6549 11.5539 36.796C11.0573 38.595 10.5606 40.0412 11.5894 41.8402C12.5826 43.5686 14.108 44.5563 16.0236 43.9214C15.9526 45.5087 16.9813 47.7662 18.4712 48.4717C19.0743 48.7539 19.7483 48.8597 20.4223 48.8244C19.6419 50.9056 21.4865 53.5159 23.7923 53.3042C23.3666 55.5265 27.0558 56.3025 28.4038 55.597C28.5812 56.6552 29.7873 57.7135 30.7451 58.2073C32.0576 58.8775 33.0154 58.5248 34.3634 58.7364C34.2215 59.971 36.9529 60.7117 37.8753 60.2884C38.6557 61.6994 40.0037 62.7223 41.6355 61.9816C41.8838 65.1915 46.2115 64.5213 47.9852 63.4278C48.4818 64.5213 50.3619 64.6977 51.3907 64.733C51.6035 64.733 51.9228 64.6624 52.242 64.5919C52.5968 64.5213 52.9515 64.4155 53.0934 64.486C53.7319 64.6271 53.8738 65.2268 54.4414 65.6148C56.1087 66.7788 59.5496 66.7083 60.8621 65.0152C62.0682 65.6854 64.0193 66.0734 64.9416 64.8388C66.2896 66.5672 69.5177 66.1792 70.5464 64.3802C70.8302 65.121 72.5329 65.8617 73.3133 65.9323C74.2711 66.0028 75.1934 65.3326 75.5127 64.5566C76.2222 66.6377 81.1884 66.1792 80.9756 63.7806C81.5787 64.6624 83.4233 64.2038 84.2746 63.9922C85.6581 63.6395 86.474 63.0751 86.474 61.5936C87.077 62.4754 89.7376 61.9463 90.5889 61.5936C91.5467 61.1703 92.54 59.8652 92.6819 58.8422C95.6262 60.3943 99.5637 58.0309 99.3509 54.6094C100.734 55.2796 103.466 53.7628 103.218 52.1049C105.381 53.8333 107.51 49.3888 107.332 47.7662C108.397 48.4717 109.745 47.6251 110.596 46.8491C111.873 45.7203 111.873 44.6268 111.944 43.0395C113.363 44.5563 114.356 42.2988 114.746 41.3111C115.03 40.6056 115.562 39.8649 115.456 39.0183C115.314 38.207 114.605 37.9953 114.392 37.2193C116.343 36.1964 115.704 34.5032 115.101 32.9865C116.378 32.1752 116.307 31.0111 115.598 29.8471C116.91 28.8947 116.91 26.1786 116.272 24.8735C116.094 24.4854 115.775 24.2033 115.598 23.8505C115.527 23.7094 115.208 23.7094 115.137 23.4625C115.101 23.392 115.349 22.9334 115.279 22.757C115.101 22.1926 114.853 21.3108 114.463 20.817C114.924 18.9827 114.25 17.0427 113.576 15.2437C113.398 14.7499 113.221 14.2207 113.008 13.6916C112.618 13.4094 112.228 13.1625 111.838 12.9156C109.816 11.681 107.439 11.293 105.452 10.3053C103.572 9.35295 102.402 7.58925 100.415 6.7074C98.1448 5.75501 95.839 5.367 93.4268 5.12008C91.795 4.94371 91.3339 4.87316 90.0568 4.06186C89.1345 3.46221 88.2477 3.10947 87.2189 2.9331C84.8422 2.47454 82.4655 1.94543 80.0888 1.59269C77.5347 1.23995 75.0515 1.62796 72.6748 1.02831C70.1562 0.42865 67.4247 -0.276828 64.7997 0.111185C61.749 0.569746 58.6273 1.45159 55.612 1.45159C50.22 1.45159 45.1828 2.792 40.181 4.59097C37.8043 5.43754 35.534 6.24884 33.3701 7.20124C32.3059 7.6598 31.2772 8.33 30.2484 8.82384C29.1842 9.31767 28.2619 9.45877 27.1268 9.84678C24.9984 10.6228 23.0118 11.8927 21.3446 13.5153C20.6351 14.2207 20.0675 14.9262 19.2871 15.4906C18.4358 16.0903 17.1942 16.5135 16.733 17.5012C15.1367 17.5365 12.5472 19.8646 12.2988 21.6988C11.3411 21.981 10.2768 22.4043 9.42548 23.0392C9.35454 23.4978 9.56738 23.9563 9.49643 24.3444Z" fill="#FFEC8D"/>
<path d="M130.674 50.024C132.27 48.8599 132.27 45.5442 131.49 43.9216C131.242 43.463 130.887 43.1103 130.674 42.6517C130.603 42.4754 130.213 42.4754 130.106 42.1932C130.071 42.0873 130.355 41.5582 130.284 41.3113C130.071 40.6411 129.752 39.5476 129.255 38.9127C129.823 36.6552 129.007 34.2918 128.155 32.0696C127.588 30.6939 127.198 29.1771 126.488 27.872C125.743 26.4963 124.608 25.4028 123.792 24.0977C123.828 24.7679 123.792 25.4733 123.615 26.1435C124.111 26.7785 124.431 27.8367 124.644 28.5422C124.714 28.7891 124.431 29.3182 124.466 29.424C124.573 29.7062 124.963 29.7415 125.034 29.9179C125.247 30.3411 125.601 30.7291 125.85 31.1877C126.666 32.775 126.666 36.0908 125.034 37.2901C125.921 38.701 125.992 40.1473 124.431 41.1349C125.211 43.0045 125.956 45.0856 123.579 46.3202C123.828 47.2726 124.75 47.4843 124.892 48.5072C125.069 49.5301 124.395 50.412 124.04 51.3291C123.544 52.5284 122.338 55.2798 120.6 53.4455C120.493 55.3856 120.529 56.726 118.932 58.1017C117.868 59.0541 116.236 60.077 114.924 59.2305C115.172 61.2411 112.547 66.6733 109.922 64.5568C110.17 66.6027 106.871 68.4369 105.169 67.6256C105.417 71.8232 100.592 74.6804 97.0096 72.8109C96.8677 74.0808 95.6616 75.6681 94.4555 76.1972C93.4268 76.6558 90.1632 77.326 89.4183 76.1972C89.3828 78.0314 88.425 78.7369 86.7223 79.1602C85.6936 79.4071 83.4233 80.0068 82.7138 78.9133C82.9621 81.8763 76.8961 82.4054 76.0448 79.8657C75.6546 80.8181 74.5194 81.6647 73.3488 81.5588C72.391 81.453 70.2981 80.5359 69.9788 79.654C68.7018 81.8763 64.7642 82.3349 63.0969 80.2184C61.9618 81.7352 59.5496 81.2414 58.0952 80.4301C56.4634 82.476 52.2775 82.5465 50.22 81.1356C49.546 80.677 49.3687 79.9362 48.5883 79.7599C48.2335 79.6893 47.0629 80.0773 46.5308 80.0773C45.2537 80.0421 42.9834 79.7951 42.3804 78.4547C40.252 79.7951 34.9309 80.6064 34.6472 76.691C32.6606 77.6082 30.9579 76.3736 30.0356 74.6099C28.9359 75.1037 25.5659 74.2219 25.7433 72.7051C24.1115 72.4229 22.9054 72.8815 21.3091 72.0702C20.1385 71.4705 18.6841 70.2006 18.4712 68.8602C16.804 69.7068 12.3343 68.7897 12.8309 66.0736C9.99305 66.3205 7.72275 63.1106 8.68053 60.5709C7.90011 60.6414 7.08422 60.5003 6.3038 60.1476C4.49465 59.301 3.25308 56.5496 3.32403 54.6096C2.11793 54.9976 1.05372 54.8918 0.131409 54.3979C0.557091 56.0205 1.90509 58.4897 3.39497 58.6308C2.79192 60.8178 2.18887 62.6168 3.46592 64.8037C4.67202 66.9202 6.55212 68.1548 8.89337 67.3787C8.82242 69.3541 10.064 72.0702 11.8731 72.9167C12.6181 73.2695 13.434 73.4106 14.2499 73.34C13.2921 75.8797 15.5269 79.0897 18.4003 78.8428C17.9037 81.5588 22.3733 82.5112 24.0406 81.6294C24.2534 82.9345 25.7078 84.2044 26.8785 84.8393C28.4748 85.6506 29.6454 85.2273 31.3126 85.4742C31.1353 86.991 34.5053 87.8729 35.6049 87.379C36.5273 89.1075 38.23 90.342 40.2165 89.4602C40.5003 93.3756 45.8213 92.5643 47.9497 91.2239C48.5528 92.529 50.8231 92.7759 52.1001 92.8465C52.6322 92.8818 53.8029 92.4585 54.1576 92.5643C54.938 92.7407 55.1154 93.4814 55.7894 93.94C57.8468 95.3509 62.0327 95.2804 63.6645 93.2345C65.1189 94.0458 67.5311 94.5396 68.6663 93.0229C70.3335 95.1393 74.2711 94.6807 75.5481 92.4585C75.9029 93.3403 77.9603 94.2574 78.9181 94.3633C80.0888 94.4691 81.2239 93.6225 81.6141 92.6701C82.4655 95.2098 88.5315 94.6807 88.2831 91.7177C89.0281 92.8112 91.2629 92.2116 92.2917 91.9646C93.9944 91.5414 94.9876 90.8359 94.9876 89.0016C95.7326 90.0951 98.9607 89.4602 100.025 89.0016C101.196 88.4725 102.437 86.8852 102.579 85.6153C106.162 87.5201 110.986 84.6277 110.738 80.4301C112.441 81.2414 115.74 79.4071 115.491 77.3612C118.152 79.4777 120.741 74.0455 120.493 72.0349C121.806 72.9167 123.437 71.8585 124.502 70.9061C126.062 69.5304 126.062 68.19 126.169 66.25C127.907 68.0842 129.113 65.3328 129.61 64.1335C129.965 63.2517 130.639 62.3698 130.461 61.3116C130.319 60.2887 129.397 60.077 129.149 59.1246C131.525 57.8548 130.78 55.8089 130 53.9394C131.632 52.8812 131.525 51.4349 130.674 50.024Z" fill="#FFC909"/>
<path d="M46.2469 29.9885C50.2828 29.9885 53.5545 27.6827 53.5545 24.8385C53.5545 21.9942 50.2828 19.6885 46.2469 19.6885C42.2111 19.6885 38.9394 21.9942 38.9394 24.8385C38.9394 27.6827 42.2111 29.9885 46.2469 29.9885Z" fill="#E4B006"/>
<path d="M94.7748 34.8913C98.8106 34.8913 102.082 32.5856 102.082 29.7413C102.082 26.897 98.8106 24.5913 94.7748 24.5913C90.7389 24.5913 87.4672 26.897 87.4672 29.7413C87.4672 32.5856 90.7389 34.8913 94.7748 34.8913Z" fill="#E4B006"/>
<path d="M66.7862 49.1769C72.2522 49.1769 76.6833 46.8712 76.6833 44.0269C76.6833 41.1827 72.2522 38.877 66.7862 38.877C61.3201 38.877 56.889 41.1827 56.889 44.0269C56.889 46.8712 61.3201 49.1769 66.7862 49.1769Z" fill="#E4B006"/>
<path d="M67.1055 46.849C72.4148 46.849 76.7188 42.6323 76.7188 37.4308C76.7188 32.2293 72.4148 28.0127 67.1055 28.0127C61.7962 28.0127 57.4921 32.2293 57.4921 37.4308C57.4921 42.6323 61.7962 46.849 67.1055 46.849Z" fill="#C70008"/>
<path d="M72.7102 29.8115C73.3842 35.1732 71.6815 40.7464 67.1764 43.2509C65.7929 44.168 63.629 45.0851 61.3942 45.0146C62.9905 46.1786 64.9415 46.8488 67.1054 46.8488C72.4264 46.8488 76.7187 42.6512 76.7187 37.4307C76.7187 34.2913 75.1224 31.5047 72.7102 29.8115Z" fill="#A00509"/>
<path d="M65.5091 32.5986C65.5091 32.5986 65.5801 23.0746 64.9061 17.2544C64.2321 11.4343 65.048 9.56474 66.6088 10.0233C68.1697 10.4819 66.8217 26.8489 66.325 32.387C66.325 32.387 66.396 32.7397 65.5091 32.5986Z" fill="#682604"/>
<path d="M61.591 33.7584C62.1095 32.955 62.0353 31.9882 61.4252 31.5988C60.8152 31.2095 59.9003 31.5452 59.3818 32.3486C58.8633 33.152 58.9375 34.1188 59.5476 34.5081C60.1577 34.8974 61.0725 34.5618 61.591 33.7584Z" fill="white"/>
<path d="M45.8923 27.1664C48.9289 27.1664 51.3907 24.7817 51.3907 21.84C51.3907 18.8984 48.9289 16.5137 45.8923 16.5137C42.8556 16.5137 40.3939 18.8984 40.3939 21.84C40.3939 24.7817 42.8556 27.1664 45.8923 27.1664Z" fill="#C70008"/>
<path d="M43.7284 20.3585C43.7284 21.0287 43.1963 21.5578 42.5223 21.5578C41.8483 21.5578 41.3162 21.0287 41.3162 20.3585C41.3162 19.6883 41.8483 19.1592 42.5223 19.1592C43.1963 19.1592 43.7284 19.6883 43.7284 20.3585Z" fill="white"/>
<path d="M94.5619 33.0219C97.5986 33.0219 100.06 30.6372 100.06 27.6955C100.06 24.7538 97.5986 22.3691 94.5619 22.3691C91.5253 22.3691 89.0635 24.7538 89.0635 27.6955C89.0635 30.6372 91.5253 33.0219 94.5619 33.0219Z" fill="#C70008"/>
<path d="M92.1142 26.32C92.7804 26.32 93.3203 25.7831 93.3203 25.1207C93.3203 24.4583 92.7804 23.9214 92.1142 23.9214C91.4481 23.9214 90.9081 24.4583 90.9081 25.1207C90.9081 25.7831 91.4481 26.32 92.1142 26.32Z" fill="white"/>
<path d="M43.7284 45.3325C43.7284 45.3325 39.7553 45.5794 41.0679 52.2109C42.3804 58.8071 46.921 67.5551 61.004 67.5551C75.087 67.5551 80.6918 64.6626 84.1327 60.9589C87.5737 57.2551 85.729 52.7753 83.0685 54.3626C80.408 55.95 74.8387 59.6537 74.8387 59.6537C74.8387 59.6537 58.8756 63.3575 50.3974 57.8195C41.8837 52.2109 43.7284 45.3325 43.7284 45.3325Z" fill="#E4B006"/>
<path d="M41.4225 47.9777C45.1118 68.1191 69.5885 68.4013 83.5296 59.3712C87.1125 57.0431 83.7779 51.2935 80.1596 53.6215C69.7304 60.3588 50.7876 62.052 47.8787 46.1787C47.0983 42.0164 40.6421 43.8154 41.4225 47.9777Z" fill="#C70008"/>
<path d="M46.1406 45.5796C46.1406 45.5796 43.2318 45.0505 43.7639 50.0594C44.296 54.9977 53.3062 63.2871 64.2321 61.5234C64.4095 61.4881 64.5868 61.4528 64.7642 61.4176C75.9029 59.3364 47.9852 65.1566 46.1406 45.5796Z" fill="#EA001D"/>
<path d="M39.4361 8.96484C38.7975 8.96484 38.1235 9.00012 37.3431 9.10594C37.3431 9.10594 27.1977 10.6933 25.7078 12.5628C24.2179 14.397 19.1452 17.6422 17.0168 18.8063C14.8529 19.935 13.3275 23.1097 12.5116 26.9898C11.8376 30.1645 16.9813 39.124 20.7415 39.124C21.5929 39.124 22.3378 38.6655 22.9763 37.6425C26.3818 31.8929 30.3548 24.9086 31.6319 21.6634C32.8734 18.4182 39.7553 16.9367 43.5155 15.8433C46.9919 14.8203 47.1338 8.96484 39.4361 8.96484Z" fill="#FCF7E3"/>
<path d="M79.1664 3.56836C78.5279 3.56836 77.9603 3.63891 77.4991 3.81528C77.4991 3.81528 72.1781 3.81528 71.9298 5.93171C71.6815 7.8365 73.8099 10.7995 76.1866 10.7995C76.4349 10.7995 76.7187 10.7642 76.967 10.6937C77.5701 10.5173 78.315 10.4468 79.0955 10.4468C81.685 10.4468 84.8067 11.2228 86.0128 11.2228C87.6091 11.2228 92.6463 9.35328 89.7375 7.27212C87.2898 5.50842 82.2881 3.56836 79.1664 3.56836Z" fill="#FCF7E3"/>
<path d="M8.43217 77.3962C8.43217 77.3962 5.80713 77.1493 5.80713 79.4774C5.80713 81.8055 11.3055 89.9185 16.5556 92.4935C20.7415 92.7404 15.7752 86.4969 13.3985 82.3346C11.0217 78.1723 8.43217 77.3962 8.43217 77.3962Z" fill="#D19327"/>
<path d="M30.7096 94.8566C30.7096 94.8566 25.7433 93.0223 24.9274 95.1035C24.147 97.1846 27.5524 101.347 31.9866 100.042C36.4563 98.7367 33.8312 96.1617 30.7096 94.8566Z" fill="#D19327"/>
</svg>
