<svg width="150" height="102" viewBox="0 0 150 102" fill="none" xmlns="http://www.w3.org/2000/svg">
<path d="M66.1156 21.2718C89.8379 20.3251 110.803 22.8172 125.135 31.8352C129.869 34.8147 137.607 40.4614 134.307 49.1132C131.385 56.7756 122.862 60.6066 115.162 63.8309C88.1921 75.1258 26.8416 75.6469 12.9055 54.072C9.14753 48.2542 12.0279 41.9223 15.5216 38.2569C23.594 29.7857 36.6536 26.2285 50.4101 23.1551C55.644 22.5274 60.8813 21.9003 66.1156 21.2718Z" fill="#DEE0E6"/>
<path d="M72.1205 71.7505C58.7865 72.0757 46.3723 70.8339 36.2185 68.161C24.5934 65.1005 16.6725 60.4106 12.6741 54.2206C8.87278 48.3357 11.7253 41.84 15.3218 38.0661C23.5371 29.4455 37.1306 25.8394 50.3506 22.8858L50.3773 22.8815L66.1051 20.9971C67.378 20.9464 68.6499 20.9049 69.8869 20.8752C94.7287 20.2705 112.849 23.7786 125.281 31.6023C127.731 33.144 130.818 35.2844 132.956 38.1835C135.499 41.6311 136.041 45.3418 134.565 49.2117C131.717 56.6781 123.812 60.5067 115.269 64.0852C104.767 68.4828 88.6374 71.3485 72.1205 71.7505ZM50.457 23.4269C37.3242 26.3614 23.8266 29.9403 15.7215 38.4459C12.2623 42.0756 9.51008 48.3073 13.1369 53.9218C17.0037 59.9069 25.0335 64.6465 36.3589 67.6277C46.463 70.2889 58.8259 71.5226 72.1076 71.1998C88.5598 70.7991 104.614 67.9488 115.056 63.5772C123.485 60.0479 131.281 56.2774 134.051 49.0158C137.15 40.8873 130.363 35.4508 124.988 32.0685C112.651 24.3048 94.6313 20.8238 69.9021 21.4255C68.6709 21.456 67.4053 21.496 66.1385 21.5474L50.457 23.4269Z" fill="#B7BBC1"/>
<g style="mix-blend-mode:overlay" opacity="0.4">
<path d="M67.0568 26.3252C87.7214 25.5275 105.978 27.4785 118.445 34.6541C122.564 37.0231 129.293 41.5167 126.405 48.4307C123.845 54.5517 116.415 57.6253 109.702 60.2135C86.1908 69.2777 32.7503 69.8033 20.6505 52.6034C17.3881 47.9657 19.9078 42.9065 22.9568 39.9733C30.0031 33.1967 41.3863 30.3346 53.3735 27.8567C57.9337 27.3449 62.4969 26.8347 67.0568 26.3252Z" fill="#F2F3F9"/>
</g>
<path d="M72.1941 66.484C60.5932 66.7673 49.7983 65.7993 40.9719 63.6855C30.8889 61.2734 24.0275 57.5607 20.5757 52.6554C17.3176 48.024 19.7871 42.8936 22.8937 39.9066C30.0352 33.0373 41.8581 30.1424 53.355 27.7651L67.0463 26.2339C68.1609 26.19 69.2685 26.1554 70.3452 26.1287C91.953 25.6029 107.702 28.3644 118.491 34.5731C123.268 37.3221 129.294 41.7512 126.489 48.4648C124.016 54.3826 117.152 57.4395 109.735 60.299C100.597 63.8216 86.5625 66.134 72.1941 66.484ZM70.3489 26.3121C69.2737 26.3386 68.1665 26.3732 67.0607 26.4172L53.3838 27.9465C41.9215 30.3176 30.1271 33.2039 23.0213 40.0392C19.9678 42.9754 17.5342 48.0149 20.7262 52.5507C24.1025 57.3492 31.1178 61.1386 41.0149 63.5084C49.825 65.6164 60.6052 66.5824 72.1892 66.3C86.5384 65.9517 100.55 63.6434 109.669 60.1276C117.048 57.2839 123.874 54.2457 126.32 48.3946C129.07 41.8151 123.117 37.4461 118.4 34.7332C107.641 28.5415 91.9234 25.7876 70.3489 26.3121Z" fill="#D4DAEE"/>
<path d="M9.46667 57.1967C9.46667 57.1967 10.2764 55.3247 14.7776 52.6835C15.8334 50.8171 15.8407 48.9581 16.3522 48.6694C16.8636 48.3816 26.4266 45.2787 29.6594 43.929C33.2689 43.0515 42.7557 39.4134 45.6503 37.1395C48.5441 34.8649 48.3919 33.8081 53.8656 32.2359C58.2232 28.7487 59.8888 28.622 63.3264 27.1656C66.663 26.2404 71.2997 22.7902 72.6764 21.2665C75.3724 20.598 82.7501 16.7817 84.9308 14.9772C89.3214 14.2535 91.7215 13.8732 96.301 8.38492C107.463 5.79859 139.007 -8.07938 144.203 9.57039C139.231 9.13061 92.0291 27.1775 87.8187 30.222C83.6093 33.2651 78.286 38.0479 71.7476 39.557C65.5807 42.5656 62.9305 44.4704 55.317 49.3625C42.7885 56.1201 13.0756 66.8448 10.1601 59.2165C9.56073 57.2635 9.46667 57.1967 9.46667 57.1967Z" fill="#EBA54A"/>
<path d="M25.6694 61.3668C16.1962 63.5343 10.7327 62.9049 9.42947 59.4953L9.41339 59.4452C9.08446 58.3756 8.91915 57.9076 8.84267 57.7116L8.49878 57.4667L8.75048 56.8872C8.84211 56.6737 9.76738 54.7566 14.1944 52.12C14.641 51.275 14.8661 50.4345 15.0497 49.75C15.2773 48.8998 15.4419 48.285 15.9683 47.9893C16.2063 47.8553 17.0233 47.5688 20.1492 46.4997C23.2336 45.4453 27.4583 44.0018 29.3584 43.2078L29.4739 43.1701C32.9256 42.3309 42.3668 38.7255 45.1679 36.5251C45.8811 35.9655 46.4118 35.472 46.8817 35.0365C48.3214 33.7008 49.3673 32.7316 53.5 31.5282C56.9195 28.8091 58.7236 28.1195 61.0003 27.2506C61.6307 27.0089 62.2822 26.7602 63.0222 26.4479L63.1181 26.4133C66.2591 25.542 70.7799 22.1995 72.0965 20.7431L72.2562 20.5657L72.4886 20.5081C75.027 19.8785 82.2837 16.1531 84.4334 14.3747L84.5961 14.2404L84.8486 14.1997C85.8305 14.037 86.681 13.8973 87.4839 13.7135C90.173 13.0976 92.2801 11.9862 95.6997 7.88361L95.868 7.68204L96.1239 7.62277C98.0559 7.17495 100.616 6.38215 103.581 5.46332C107.708 4.18436 112.384 2.73544 117.204 1.63094C133.265 -2.04568 142.342 0.479881 144.954 9.34936L145.276 10.4488L144.135 10.3475C143.919 10.329 143.33 10.348 141.821 10.6932C131.09 13.1509 92.0602 28.1197 88.2777 30.8543C87.546 31.3826 86.7816 31.9644 85.9713 32.579C82.2074 35.4412 77.5279 38.9983 72.0116 40.2975C66.9303 42.781 64.2932 44.489 59.0634 47.8732C57.9571 48.5911 56.8491 49.3066 55.7397 50.0196L55.6884 50.0506C48.575 53.8875 35.9796 59.0054 25.6694 61.3668ZM10.8991 58.9603C11.8751 61.436 16.9942 61.7488 25.3201 59.843C35.4824 57.5164 47.8945 52.4752 54.918 48.6898C56.1316 47.9106 57.2188 47.2074 58.2135 46.563C63.5231 43.1258 66.1862 41.401 71.405 38.8543L71.4843 38.816L71.5712 38.7962C76.7994 37.5896 81.3601 34.1216 85.0251 31.3364C85.8426 30.7154 86.614 30.1286 87.3605 29.5886C91.3341 26.7174 130.25 11.7392 141.472 9.17098C142.133 9.01953 142.683 8.91369 143.14 8.85068C141.68 4.97679 138.653 2.68869 133.914 1.87177C129.786 1.15937 124.434 1.57933 117.553 3.15447C112.789 4.24532 108.143 5.68508 104.043 6.9558C101.176 7.84453 98.6835 8.61677 96.7309 9.08385C93.1394 13.3427 90.7398 14.571 87.8336 15.2357C87.0293 15.4194 86.1692 15.5648 85.2605 15.7138C82.8415 17.6138 75.9315 21.1603 73.0934 21.9643C71.476 23.6376 66.9247 26.958 63.5854 27.9049C62.8408 28.2198 62.1882 28.4688 61.5582 28.7095C59.3817 29.5406 57.6628 30.1975 54.354 32.8466L54.2323 32.9437L54.0812 32.987C50.1817 34.1071 49.34 34.8881 47.9446 36.1824C47.4517 36.6377 46.8952 37.1545 46.1331 37.7545C43.1496 40.0978 33.601 43.7606 29.9031 44.6734C27.9338 45.4898 23.9008 46.8688 20.6556 47.9789C18.9956 48.546 17.2823 49.1309 16.813 49.319C16.7387 49.483 16.6398 49.8515 16.5581 50.1538C16.3509 50.9294 16.0657 51.9911 15.4565 53.0676L15.3532 53.2506L15.1719 53.3565C11.9757 55.2326 10.7405 56.6866 10.3422 57.2573C10.4684 57.5953 10.6405 58.1206 10.8991 58.9603Z" fill="#ED9D3F"/>
<path d="M43.3308 55.0151C43.3308 55.0151 31.3542 57.0599 27.6011 57.9479C23.8475 58.8359 3.69437 63.8453 2.53591 64.9825C1.37633 66.1196 -0.31284 71.3156 1.33051 70.9596C2.97442 70.6026 3.41855 70.7932 3.41855 70.7932C3.41855 70.7932 1.77276 73.1295 3.23304 73.7486C4.69332 74.3666 17.434 76.3467 26.0079 74.8765C34.582 73.4066 53.7375 69.3033 56.2829 69.9473C60.8795 67.4137 63.9027 63.6937 70.3948 62.523C76.8865 61.3523 146.569 30.1852 148.955 25.6096C151.34 21.0326 142.114 11.7997 138.993 11.2802C135.871 10.7608 134.168 12.3112 131.896 11.8449C129.624 11.3786 106.075 23.2641 100.398 27.7928C94.7201 32.3215 79.2531 38.1729 76.1482 39.8037C73.0435 41.4333 62.8355 47.3428 60.4322 48.1944C58.0289 49.0464 44.9674 54.7574 43.3308 55.0151Z" fill="#F3A848"/>
<path d="M56.3719 70.6414L56.1221 70.5782C54.4288 70.1497 43.3179 72.2759 35.2053 73.8269C31.7673 74.4843 28.5195 75.1058 26.1181 75.5176C17.442 77.0054 4.46633 74.977 2.9795 74.3474C2.5034 74.1447 2.18045 73.791 2.04619 73.3222C1.87115 72.7089 2.06171 72.0089 2.3078 71.4442C2.02633 71.4835 1.74654 71.534 1.46911 71.5956C0.926246 71.7134 0.452203 71.5047 0.19994 71.036C-0.568814 69.6114 1.05602 65.5217 2.08003 64.518C3.54779 63.0764 27.2139 57.3691 27.4506 57.3145L27.6945 57.2571C31.6631 56.3482 43.1064 54.3925 43.2212 54.3729C43.2515 54.3686 43.2762 54.3626 43.3035 54.3574C44.5237 54.0782 49.8657 51.8459 54.1577 50.0531C56.9161 48.9003 59.2979 47.9041 60.2153 47.58C61.817 47.0124 67.3041 43.9548 71.3102 41.723C73.2208 40.658 74.8707 39.7378 75.8455 39.2263C76.7186 38.7687 78.5048 38.0019 80.7666 37.0296C86.8087 34.4365 95.9374 30.517 99.9908 27.2832C105.113 23.198 125.967 12.4325 130.983 11.2841C131.449 11.1771 131.77 11.153 132.026 11.2061C132.763 11.357 133.439 11.2661 134.29 11.072C134.453 11.0343 134.619 10.9941 134.787 10.9531C136.001 10.6594 137.342 10.3447 139.1 10.6366C141.531 11.0416 146.749 15.7329 148.959 20.1633C150.117 22.4843 150.31 24.4173 149.532 25.909C148.026 28.799 125.404 39.5316 112.054 45.6725C94.7025 53.6536 74.1133 62.516 70.5093 63.1631C70.2084 63.2174 69.9088 63.2785 69.6107 63.3465C65.8145 64.2151 63.3249 65.98 60.6897 67.8481C59.4045 68.7589 58.0755 69.7017 56.596 70.516L56.3719 70.6414ZM1.30529 70.2987C2.89217 69.9692 3.48907 70.1145 3.67458 70.1948L4.41248 70.5109L3.9504 71.1671C3.61698 71.6439 3.17847 72.5462 3.29908 72.9647C3.31516 73.0221 3.3449 73.0877 3.48702 73.1487C4.9127 73.7524 17.4473 75.6825 25.8976 74.2343C28.2874 73.8254 31.5296 73.205 34.9601 72.5488C45.8844 70.4586 53.885 68.985 56.166 69.2656C57.5037 68.5106 58.7395 67.6342 59.9369 66.7864C62.5597 64.9269 65.2723 63.004 69.3203 62.0777C69.6347 62.0053 69.9561 61.9404 70.2789 61.8815C70.3365 61.8711 70.4001 61.8584 70.4689 61.8428C74.1086 61.0091 92.52 53.2243 111.511 44.4898C137.596 32.4906 147.674 26.6577 148.377 25.3083C149.092 23.936 148.455 22.069 147.794 20.7444C145.667 16.481 140.738 12.2295 138.886 11.9213C137.679 11.7197 136.707 11.8452 135.618 12.0945C135.439 12.1354 135.265 12.1775 135.093 12.2194C134.92 12.2609 134.75 12.3022 134.58 12.3411C133.781 12.5236 132.836 12.7016 131.764 12.4815C131.764 12.4815 131.643 12.4686 131.274 12.5526C126.902 13.5537 106.106 24.0712 100.804 28.3005C96.6133 31.643 87.386 35.6046 81.2812 38.2255C79.0449 39.1861 77.2785 39.9443 76.4514 40.3784C75.4904 40.8824 73.8465 41.7989 71.9436 42.8595C67.6723 45.2398 62.3559 48.2021 60.6499 48.8068C59.7667 49.1191 57.4001 50.1075 54.6594 51.2533C50.0957 53.1605 44.9225 55.3218 43.5948 55.6255C43.5337 55.6391 43.4798 55.6489 43.4321 55.6577C43.3265 55.675 31.9186 57.6255 27.9851 58.526L27.7513 58.5809C21.0885 60.1568 4.15572 64.5178 2.98006 65.4572C2.11294 66.3083 1.13213 69.4603 1.30529 70.2987Z" fill="#ED9D3F"/>
<path d="M4.28619 71.144C4.28619 71.144 6.99338 67.4683 9.48085 67.7901C11.9678 68.1132 11.878 69.3925 14.9407 67.7747C18.0028 66.1583 21.7785 63.9629 24.3755 64.9259C29.6222 62.1386 36.4935 59.0186 42.8946 60.0911C52.8136 57.1974 75.4451 48.9346 79.8203 43.7109C88.6693 42.8489 91.2261 41.283 94.4491 37.5063C99.5971 37.557 102.024 30.6222 106.475 30.2486C110.927 29.8762 115.213 30.2071 119.05 24.6278C128.5 22.8771 139.5 19.5925 141.778 19.879C144.056 20.1653 145.634 20.8326 145.634 20.8326C145.634 20.8326 112.543 39.8206 79.8487 54.6305C47.1549 69.4396 40.6707 69.089 40.6707 69.089C40.6707 69.089 5.88429 74.554 4.28619 71.144ZM10.3523 57.5003C10.3523 57.5003 15.0194 57.9674 20.729 56.1103C26.4402 54.253 28.9494 54.4588 29.3897 54.5269C29.8305 54.5948 31.1404 50.5418 33.04 50.2351C34.9391 49.9294 35.9407 51.0135 36.7749 49.7347C37.6085 48.4565 36.2584 44.8745 48.4481 42.2568C52.6136 35.6193 56.8061 36.5378 57.4383 36.827C58.0702 37.117 57.6423 34.652 59.54 33.5883C61.4368 32.5251 62.3893 32.7837 62.3893 32.7837C62.3893 32.7837 82.7199 19.5619 85.5426 19.5415C88.3648 19.5219 118.194 0.236367 138.914 4.78601C142.187 5.14464 110.655 12.8644 96.0602 22.358C81.4649 31.8501 79.7784 32.0954 78.0801 33.216C76.3817 34.336 68.164 37.1084 63.4462 40.6699C58.7275 44.2294 26.0668 61.3052 18.1571 58.9902C9.3967 58.5122 10.3523 57.5003 10.3523 57.5003Z" fill="#F7B261"/>
<path d="M63.4925 62.7366C63.4925 62.7366 62.9964 87.0964 86.0794 97.8703C109.163 108.645 126.213 95.407 130.343 91.254C134.471 87.1017 144 76.1187 143.803 61.8247C127.777 62.9193 63.4925 62.7366 63.4925 62.7366Z" fill="url(#paint0_linear_20005_27347)"/>
<path d="M63.7261 63.5616C63.7261 63.5616 61.9982 55.3667 77.4651 49.8235C92.9313 44.281 114.344 45.7263 123.02 48.015C131.698 50.3055 143.309 58.5406 143.628 61.754C138.726 65.7698 115.669 80.5521 74.5732 69.3459C65.0132 65.1683 63.7261 63.5616 63.7261 63.5616Z" fill="#FBE4BF"/>
<path d="M103.481 74.1206C94.2615 74.1206 84.4766 72.7273 74.4005 69.9798L74.3096 69.9476C64.8727 65.8237 63.3558 64.1491 63.2133 63.9705L63.1157 63.8486L63.0841 63.6966C63.0082 63.3387 61.4198 54.8767 77.2427 49.2064C86.1946 45.998 96.3935 45.3247 103.373 45.3247C112.237 45.3247 119.42 46.3858 123.188 47.3809C131.684 49.6227 143.906 57.9125 144.282 61.6894L144.317 62.0388L144.045 62.2621C141.628 64.242 128.316 74.1206 103.481 74.1206ZM74.7914 68.7247C84.7401 71.4341 94.3928 72.8075 103.482 72.8075C126.95 72.8075 139.861 63.8896 142.901 61.496C141.877 58.5443 131.221 50.8586 122.854 48.6507C119.165 47.6773 112.112 46.6379 103.374 46.6379C96.4975 46.6379 86.4596 47.2977 77.6865 50.4416C69.9722 53.2073 66.7624 56.6135 65.4277 58.9845C64.2588 61.0622 64.2966 62.7234 64.3467 63.2536C64.8093 63.6594 66.9591 65.3 74.7914 68.7247Z" fill="white"/>
<g style="mix-blend-mode:overlay" opacity="0.34">
<path d="M103.649 76.5979C109.187 76.5979 113.676 81.087 113.676 86.6231C113.676 92.1611 109.187 96.6493 103.649 96.6493C98.1113 96.6493 93.6229 92.1611 93.6229 86.6231C93.6229 81.087 98.1111 76.5979 103.649 76.5979Z" fill="#DFAD77"/>
</g>
<path d="M65.4857 63.5617C65.4857 63.5617 63.9741 58.0671 68.8285 56.9904C73.6828 55.9125 70.5936 57.924 74.1765 55.8018C77.7601 53.6812 82.0701 53.0784 85.8033 53.2547C89.5383 53.4331 90.7351 51.3004 93.4774 50.8785C96.2192 50.4561 101.377 50.0042 106.5 51.3883C110.49 51.5311 108.511 51.3275 113.01 51.3883C117.51 51.4488 121.096 52.0384 124.174 53.9336C127.251 55.8308 128.556 56.0385 130.451 56.1413C132.347 56.244 137.77 58.7368 138.673 59.6001C139.35 60.4623 142.034 61.7016 142.034 61.7016C142.034 61.7016 127.77 72.2074 104.408 72.9486C85.0086 71.457 80.6897 70.576 72.3168 67.0052C63.9439 63.4361 65.4857 63.5617 65.4857 63.5617Z" fill="#F8F7CA"/>
<path d="M104.399 73.343L104.378 73.3404C85.2803 71.8724 80.764 71.0345 72.163 67.3686C64.8414 64.2469 64.9101 63.9115 64.9907 63.5218C64.9985 63.4775 65.0159 63.4311 65.0413 63.389C64.8824 62.6247 64.5626 60.4516 65.6098 58.7132C66.26 57.6315 67.3154 56.9223 68.7437 56.605C69.8085 56.3688 70.6053 56.2538 71.177 56.2538C71.6802 56.2538 71.9203 56.3439 72.0792 56.404C72.1093 56.4163 72.1557 56.4318 72.1651 56.4318C72.3382 56.4318 73.2858 55.8722 73.9773 55.4621C77.6503 53.2883 81.7669 52.8319 84.573 52.8319C84.9872 52.8319 85.4091 52.8412 85.8229 52.861C87.9166 52.9598 89.1949 52.2846 90.4256 51.6316C91.3132 51.1591 92.2314 50.6711 93.4185 50.488C94.6845 50.2932 96.6779 50.0608 98.9871 50.0608C101.7 50.0608 104.247 50.3747 106.56 50.9951C107.522 51.0305 108.195 51.046 108.677 51.046C109.091 51.046 109.342 51.0337 109.632 51.0211C110.194 50.9951 110.863 50.9643 113.017 50.9935C118.13 51.0619 121.527 51.841 124.381 53.5975C127.462 55.4965 128.703 55.651 130.473 55.7471C132.469 55.8561 137.945 58.3587 138.946 59.3155L138.983 59.3562C139.491 60.0032 141.477 61.0099 142.201 61.344L142.805 61.6226L142.268 62.0192C142.125 62.1245 127.636 72.6052 104.421 73.3425L104.399 73.343ZM65.8963 63.5676C66.3516 63.8681 67.8082 64.6558 72.4714 66.6436C80.9669 70.2651 85.4476 71.0949 104.416 72.5538C124.862 71.9001 138.426 63.6362 141.253 61.7604C140.396 61.3313 138.927 60.5327 138.383 59.8685C137.479 59.0398 132.162 56.6276 130.429 56.5349C128.528 56.4315 127.144 56.2278 123.967 54.2703C121.244 52.5918 117.965 51.8485 113.005 51.781C110.885 51.7526 110.219 51.7829 109.668 51.8083C109.368 51.8218 109.109 51.8336 108.676 51.8336C108.177 51.8336 107.481 51.8169 106.486 51.7816L106.398 51.7679C104.142 51.1589 101.647 50.8499 98.9864 50.8499C96.7273 50.8499 94.7768 51.078 93.5374 51.267C92.4814 51.4302 91.6624 51.8652 90.794 52.3265C89.473 53.0297 88.1042 53.7593 85.785 53.6486C85.3829 53.6299 84.9747 53.6189 84.5723 53.6189C81.8651 53.6189 77.8975 54.0573 74.3769 56.1407C72.8259 57.0584 72.4946 57.2205 72.1641 57.2205C72.0121 57.2205 71.9007 57.1783 71.8017 57.1412C71.6828 57.0962 71.5356 57.0416 71.1758 57.0416C70.6693 57.0416 69.9078 57.1538 68.9126 57.3744C67.7035 57.6427 66.8184 58.2291 66.2828 59.1189C65.19 60.936 65.8581 63.4306 65.8649 63.4558L65.8963 63.5676Z" fill="#F3E485"/>
<path d="M112.276 62.9918C112.276 62.9918 111.1 59.8201 119.168 58.2924C124.947 57.1995 124.866 57.1685 126.373 57.3541C127.544 56.184 140.415 45.6605 143.603 45.1368C146.791 44.613 146.512 45.2766 146.736 45.7639C146.961 46.2501 148.709 48.3717 142.506 50.6193C136.531 53.8819 136.335 53.5195 133.266 56.8831C130.198 60.2469 128.725 62.0519 128.725 62.0519C128.725 62.0519 128.475 62.1127 127.785 62.3649C127.092 62.6173 126.604 63.0831 125.747 62.992C124.891 62.9004 123.219 62.4507 121.205 62.3649C119.189 62.2789 117.717 63.1764 116.505 63.4614C115.295 63.7471 112.276 62.9918 112.276 62.9918Z" fill="#98744E"/>
<path d="M115.811 63.9201C114.381 63.9201 112.27 63.3971 112.181 63.3743L111.979 63.324L111.907 63.1291C111.895 63.0957 111.61 62.2991 112.175 61.301C113.049 59.7521 115.378 58.6096 119.096 57.9067L120.518 57.6377C124.744 56.8329 124.934 56.7862 126.237 56.9406C128.09 55.2207 140.329 45.2761 143.54 44.749C144.346 44.6161 144.972 44.5518 145.453 44.5518C146.657 44.5518 146.899 44.9983 147.043 45.4547C147.059 45.5029 147.073 45.5523 147.095 45.5989C147.108 45.6267 147.128 45.6619 147.15 45.7028C147.327 46.022 147.739 46.7695 147.39 47.7011C146.933 48.9187 145.388 49.9899 142.67 50.9794C141.423 51.6589 140.418 52.1872 139.61 52.6127C136.496 54.2483 135.935 54.5431 133.557 57.15C130.532 60.4648 129.044 62.284 129.03 62.3008L128.947 62.4044L128.818 62.4351C128.817 62.4351 128.571 62.4981 127.919 62.7361C127.734 62.8042 127.563 62.8902 127.382 62.9799C126.913 63.215 126.422 63.4631 125.706 63.3844C125.412 63.3522 125.034 63.2828 124.597 63.2017C123.72 63.0379 122.519 62.8165 121.189 62.7604C119.859 62.6985 118.778 63.0992 117.826 63.4476C117.395 63.6054 116.987 63.754 116.596 63.8464C116.383 63.896 116.125 63.9201 115.811 63.9201ZM112.613 62.668C113.202 62.8034 114.746 63.1318 115.811 63.1318C116.061 63.1318 116.264 63.1136 116.416 63.0779C116.761 62.9968 117.148 62.8552 117.557 62.7075C118.525 62.3537 119.74 61.9095 121.223 61.9721C122.608 62.0314 123.841 62.2597 124.741 62.4259C125.162 62.5046 125.526 62.5714 125.79 62.6004C126.275 62.6525 126.619 62.4805 127.028 62.2752C127.221 62.1785 127.422 62.0785 127.649 61.9957C128.089 61.8352 128.356 61.7492 128.498 61.707C128.845 61.2883 130.325 59.5228 132.975 56.6192C135.446 53.9098 136.1 53.5654 139.243 51.9155C140.054 51.4888 141.065 50.9578 142.318 50.273L142.372 50.2482C145.452 49.1326 146.399 48.096 146.652 47.4238C146.874 46.8327 146.615 46.364 146.46 46.0831C146.432 46.0321 146.405 45.9803 146.379 45.9278C146.345 45.8504 146.316 45.7709 146.292 45.6897C146.222 45.4721 146.181 45.3397 145.452 45.3397C145.021 45.3397 144.421 45.4016 143.666 45.5252C140.662 46.0194 127.808 56.4752 126.651 57.6313L126.516 57.7674L126.325 57.7446C125.905 57.6921 125.633 57.6611 125.327 57.6611C124.605 57.6611 123.612 57.8499 120.664 58.4107L119.242 58.6803C114.907 59.5011 113.379 60.7687 112.859 61.689C112.619 62.112 112.596 62.4644 112.613 62.668Z" fill="#8C6D4F"/>
<path d="M71.5969 59.5806C72.9786 63.2989 77.2577 62.6248 80.3251 61.7305C82.4411 61.1138 84.4841 60.2645 86.5548 59.5174C88.0199 58.9893 89.8933 58.1933 91.4833 58.5278C92.0282 58.6417 92.6885 58.4848 93.0969 58.0951C93.4444 57.7624 93.3494 57.3164 92.86 57.2132C89.4751 56.5005 85.7389 58.4352 82.6532 59.5782C80.0548 60.541 75.2574 62.6797 73.8801 58.9697C73.5594 58.1072 71.2964 58.7711 71.5969 59.5806Z" fill="#F8EFA7"/>
<path d="M91.9461 65.4558C96.6132 63.4781 102.433 65.5029 106.918 67.176C109.17 68.0173 111.456 68.8211 113.88 68.9256C116.45 69.0376 118.532 67.6276 120.915 66.9659C122.298 66.5824 121.944 65.2441 120.558 65.6297C119.38 65.9554 118.275 66.4565 117.148 66.9193C115.72 67.5064 114.373 67.5386 112.875 67.2478C110.376 66.7637 108.027 65.645 105.603 64.8956C100.876 63.4323 95.7317 62.3222 90.9937 64.3304C89.5372 64.9466 90.8501 65.9206 91.9461 65.4558ZM102.49 58.2536C104.604 58.1861 106.552 57.5158 108.585 57.0031C110.696 56.4706 113.024 57.7161 115.113 57.9977C115.662 58.0711 116.298 57.9272 116.727 57.5648C117.076 57.2712 117.003 56.87 116.525 56.8064C114.377 56.5162 112.368 55.6796 110.183 55.6127C107.884 55.5418 105.703 56.9444 103.393 57.0173C102.878 57.0347 102.209 57.1843 101.884 57.6286C101.568 58.0588 102.149 58.2643 102.49 58.2536Z" fill="#F3E485"/>
<defs>
<linearGradient id="paint0_linear_20005_27347" x1="103.649" y1="61.8247" x2="103.649" y2="102" gradientUnits="userSpaceOnUse">
<stop stop-color="#E09356"/>
<stop offset="1" stop-color="#7A502F"/>
</linearGradient>
</defs>
</svg>
