<svg width="150" height="132" viewBox="0 0 150 132" fill="none" xmlns="http://www.w3.org/2000/svg">
<path d="M148.418 2.77929C149.106 2.85348 149.696 3.32336 149.917 4.0158C150.212 4.95555 149.696 5.94476 148.762 6.21679L56.6151 35.0522C55.6814 35.349 54.6985 34.8049 54.4282 33.8899C54.1333 32.9501 54.6493 31.9857 55.5831 31.6889L147.706 2.85348C147.951 2.77929 148.172 2.75456 148.418 2.77929Z" fill="#353535"/>
<path d="M145.322 0.00927383C146.01 0.0834644 146.6 0.553338 146.821 1.24578C147.116 2.18553 146.6 3.15001 145.666 3.44677L53.5188 32.2822C52.5851 32.579 51.6267 32.0596 51.3319 31.1199C51.037 30.1801 51.553 29.2156 52.4868 28.9189L144.609 0.0834644C144.855 0.00927383 145.076 -0.0154564 145.322 0.00927383Z" fill="black"/>
<path d="M105.072 63.5166L130.087 86.5652C130.087 86.5652 123.526 96.7045 109.446 114.634C108.635 115.747 107.284 117.503 104.63 120.792C101.853 123.611 101.239 124.031 101.657 123.339C89.0263 132.786 68.7294 132.044 66.567 131.945C64.4047 132.044 44.1078 132.811 31.4775 123.364C31.8952 124.056 31.2563 123.611 28.5042 120.816C25.9241 117.602 24.548 115.846 23.7125 114.708C9.60791 96.754 3.04705 86.5899 3.04705 86.5899L28.0619 63.5413C28.0619 63.5413 52.2413 76.8215 66.5425 93.3412C80.8683 76.7967 105.072 63.5166 105.072 63.5166Z" fill="#6B6B6B"/>
<path d="M105.072 63.5166L129.104 85.6501C127.949 87.406 122.15 96.111 109.446 112.285C108.635 113.397 107.284 115.153 104.63 118.442C101.853 121.262 101.239 121.682 101.657 120.99C89.0263 130.437 68.7294 129.695 66.567 129.596C64.4046 129.695 44.1077 130.437 31.4775 121.014C31.8952 121.707 31.2563 121.262 28.5042 118.467C25.9241 115.252 24.548 113.496 23.7125 112.359C10.984 96.1605 5.18484 87.4307 4.02994 85.6749L28.0619 63.5413C28.0619 63.5413 52.2412 76.8215 66.5425 93.3412C80.8682 76.7967 105.072 63.5166 105.072 63.5166Z" fill="#BCBCBC"/>
<path d="M134.608 76.8461C134.608 58.2984 104.482 43.2625 67.3042 43.2625C30.126 43.2625 6.10352e-05 58.2984 6.10352e-05 76.8461C6.10352e-05 95.3937 30.126 110.43 67.3042 110.43C104.482 110.405 134.608 95.369 134.608 76.8461Z" fill="#3165D0"/>
<path d="M11.8187 98.9797C12.9 99.8453 14.1287 100.661 15.382 101.502C15.382 101.502 15.3819 101.502 15.4065 101.502C17.7656 104.643 20.5425 108.254 23.7371 112.335C23.8354 112.483 24.204 112.928 24.3269 113.102C23.4422 112.755 22.5576 112.409 21.6975 112.038C17.7165 106.919 14.4973 102.615 11.8187 98.9797Z" fill="#1F4188"/>
<path d="M119.57 101.354C117.088 104.693 114.164 108.551 110.748 112.953C109.937 113.274 109.052 113.596 108.192 113.893C108.487 113.497 109.224 112.582 109.445 112.285C112.124 108.872 114.336 105.954 116.424 103.209C117.506 102.59 118.612 101.997 119.57 101.354Z" fill="#1F4188"/>
<path d="M15.3579 101.478C26.9807 109.169 45.8033 114.387 67.3534 114.387C87.1588 114.387 104.679 109.96 116.4 103.258C114.311 106.003 112.125 108.897 109.446 112.285C109.225 112.581 108.488 113.496 108.193 113.892C96.6438 118.146 82.5638 120.643 67.3534 120.643C51.1601 120.643 36.2446 117.824 24.3023 113.051C24.1794 112.903 23.8354 112.458 23.7371 112.309C20.4936 108.229 17.7414 104.618 15.3579 101.478Z" fill="#3165D0"/>
<path d="M3.36646 86.293C3.41561 86.5897 3.44019 86.9113 3.51392 87.208C3.48934 87.1586 3.07157 86.565 3.07157 86.565L3.36646 86.293Z" fill="#3165D0"/>
<path d="M67.3043 45.7109C85.5617 45.7109 102.05 49.4205 113.82 55.2815C125.689 61.2168 132.176 69.0068 132.176 76.8215C132.176 84.6363 125.689 92.4263 113.82 98.3615C102.074 104.223 85.5863 107.957 67.3043 107.957C49.0469 107.957 32.5342 104.223 20.7885 98.3615C8.91997 92.4263 2.43282 84.6363 2.43282 76.8215C2.43282 69.0068 8.89539 61.2168 20.7885 55.2815C32.5342 49.4205 49.0469 45.7109 67.3043 45.7109Z" fill="white"/>
<path d="M67.3042 45.7109C71.629 45.7109 75.8555 45.9335 79.9591 46.3292C104.679 65.3962 105.76 97.3229 105.76 97.3229C104.384 99.3755 102.934 101.304 101.435 103.134C91.5082 106.152 79.8608 107.932 67.2797 107.932C49.0223 107.932 32.5095 104.198 20.7639 98.3368C8.89532 92.4016 2.40819 84.6115 2.40819 76.7968C2.40819 68.9821 8.87076 61.192 20.7639 55.2568C32.5587 49.4205 49.0468 45.7109 67.3042 45.7109Z" fill="#D4DBEA"/>
<path d="M67.3041 64.2832C83.2025 64.2832 97.5283 67.4981 107.751 72.6173C118.071 77.7612 123.723 84.5372 123.723 91.338C123.723 91.5606 123.674 91.7585 123.649 91.981C123.624 92.2531 123.6 92.5251 123.575 92.7971C123.551 92.5746 123.526 92.352 123.502 92.1294C120.823 94.3551 117.629 96.4819 113.82 98.3862C102.074 104.247 85.5861 107.981 67.3287 107.981C49.0713 107.981 32.5586 104.247 20.8129 98.3862C16.9796 96.4819 13.7852 94.3551 11.1313 92.1294C11.1068 92.352 11.0822 92.5746 11.0576 92.7971C11.033 92.5251 10.9839 92.2531 10.9839 91.981C10.9839 91.7585 10.9102 91.5606 10.9102 91.338C10.9102 84.5372 16.5373 77.7612 26.8823 72.6173C37.0799 67.5229 51.4303 64.2832 67.3041 64.2832Z" fill="#D99F77"/>
<path d="M67.3041 67.1765C83.2025 67.1765 97.5283 70.3914 107.75 75.5106C117.014 80.1351 122.469 86.0704 123.501 92.1293C120.823 94.355 117.629 96.4818 113.82 98.386C102.074 104.247 85.5861 107.981 67.3287 107.981C49.0713 107.981 32.5585 104.247 20.8129 98.386C16.9795 96.4818 13.7851 94.355 11.1313 92.1293C12.1633 86.0704 17.6184 80.1351 26.8823 75.5106C37.0799 70.3914 51.4302 67.1765 67.3041 67.1765Z" fill="#A46B45"/>
<path d="M81.9985 60.4004C82.0477 60.4004 82.7357 60.4499 83.6449 60.6724C84.5295 60.895 85.709 61.3401 86.569 62.2552C87.4782 63.2196 87.9205 64.7034 87.3799 66.484C86.8639 68.2151 85.5124 70.243 82.9814 72.815C82.662 73.1364 82.146 73.2106 81.7282 73.0128C75.5114 69.8473 71.7272 65.5443 71.678 65.4948C71.162 64.926 71.4078 64.011 72.1204 63.7637C74.4793 62.9476 79.1972 61.2907 81.5316 60.4746C81.7036 60.4251 81.8511 60.4004 81.9985 60.4004Z" fill="#3B4E1C"/>
<path d="M81.9246 61.4888C81.9246 61.4888 92.1228 62.0329 82.2195 72.0492C76.1988 68.9825 72.4881 64.7781 72.4881 64.7781L81.9246 61.4888Z" fill="#688834"/>
<path d="M81.9491 61.4888C81.9491 61.4888 85.8072 61.7114 86.4707 64.2093C86.1758 65.7179 85.0208 67.7706 82.244 70.5653C77.5503 68.1663 74.8718 65.619 73.6676 64.3824L81.9491 61.4888Z" fill="#AFCE7B"/>
<path d="M75.192 60.7964C75.2411 60.7964 75.9292 60.8458 76.8384 61.0684C77.723 61.291 78.9024 61.7361 79.7625 62.6512C80.6717 63.6156 81.114 65.0994 80.5734 66.88C80.0574 68.6111 78.7304 70.639 76.1749 73.2109C75.8555 73.5324 75.3394 73.6066 74.9217 73.4088C68.7048 70.2433 64.9207 65.9403 64.8715 65.8908C64.3555 65.322 64.6012 64.407 65.3138 64.1597C67.6728 63.3436 72.3907 61.6867 74.7497 60.8706C74.8971 60.7964 75.0446 60.7964 75.192 60.7964Z" fill="#3B4E1C"/>
<path d="M75.1426 61.8594C75.1426 61.8594 85.3408 62.4035 75.4375 72.4198C69.4168 69.3531 65.7062 65.1487 65.7062 65.1487L75.1426 61.8594Z" fill="#688834"/>
<path d="M75.1426 61.8594C75.1426 61.8594 79.0007 62.082 79.6642 64.5799C79.3693 66.0885 78.2143 68.1412 75.4375 70.9359C70.7192 68.5369 68.0652 65.9896 66.8611 64.753L75.1426 61.8594Z" fill="#AFCE7B"/>
<path d="M81.5808 69.1797C81.6299 69.1797 82.3425 69.2291 83.2271 69.4517C84.1118 69.6743 85.2912 70.1194 86.1513 71.0344C87.0605 71.9989 87.5028 73.4827 86.9622 75.2633C86.4461 76.9944 85.0947 79.0223 82.5637 81.5942C82.2442 81.9157 81.7282 81.9899 81.3105 81.7921C75.0936 78.6266 71.3095 74.3236 71.2603 74.2741C70.7443 73.7053 70.99 72.7903 71.7026 72.543C74.0616 71.7269 78.7795 70.07 81.1139 69.2539C81.2859 69.1797 81.4334 69.155 81.5808 69.1797Z" fill="#3B4E1C"/>
<path d="M81.5067 70.2429C81.5067 70.2429 91.705 70.787 81.8016 80.8034C75.781 77.7366 72.0703 73.5322 72.0703 73.5322L81.5067 70.2429Z" fill="#688834"/>
<path d="M81.5068 70.2429C81.5068 70.2429 85.3649 70.4655 86.0284 72.9634C85.7336 74.472 84.5786 76.5248 81.8017 79.3195C77.1081 76.9205 74.4295 74.3731 73.2254 73.1365L81.5068 70.2429Z" fill="#AFCE7B"/>
<path d="M61.5051 26.0007C66.6654 25.7287 69.5404 32.0102 70.3021 36.0659C70.597 37.5745 69.6632 39.1325 69.9335 40.641C70.1301 41.7291 71.9976 41.9517 72.2188 43.0398C72.4645 44.2022 71.9976 45.043 71.4324 45.8344C70.4987 47.1203 69.1963 48.2085 69.4912 50.1374C69.8844 52.6104 71.4816 54.762 71.9976 57.2103C72.2433 58.3973 70.081 58.9908 69.8598 60.1779C69.6632 61.2907 70.4495 62.3541 70.5478 63.467C70.6707 64.9013 69.3438 66.1131 69.2209 67.5475C68.9752 70.6388 69.8107 73.7548 69.7369 76.846C72.4153 77.6869 73.0051 80.0362 75.8555 80.7287C80.8929 81.9405 84.7262 81.9157 88.3384 82.806C88.9527 82.9544 89.567 83.1522 90.1567 83.3748C91.6311 83.8941 93.1054 84.6361 94.6289 85.7489C94.7026 85.7984 94.7518 85.8231 94.8255 85.8726C97.7251 88.0241 96.3981 90.9917 93.646 91.4616C92.614 91.6347 91.4099 91.4863 90.1076 90.7939C87.9452 92.8712 88.6578 91.7336 87.6995 94.083C91.5574 96.2592 91.2625 97.9904 88.5104 101.774C88.3629 101.997 88.0681 102.096 87.7978 102.194C87.4537 102.343 87.1343 102.491 87.0852 102.813C87.0114 103.134 87.0114 103.406 87.0114 103.703C86.9869 104.816 87.3309 105.657 87.4046 106.399C85.0948 106.77 82.7358 107.066 80.3031 107.314C78.8533 106.522 77.1333 105.879 74.9463 106.448C74.4057 106.596 74.2091 107.215 73.988 107.808C72.0222 107.907 70.0072 107.957 67.9677 107.957C65.7562 106.522 63.6675 104.321 62.3652 103.208C61.5789 105.014 60.6697 106.868 59.0725 107.66C57.8684 107.586 56.6644 107.487 55.4849 107.388C55.2883 107.19 55.0671 107.017 54.8214 107.042C54.5266 107.042 54.2317 107.141 53.9614 107.264C50.4721 106.918 47.1302 106.399 43.8621 105.78C43.0512 105.434 41.7734 104.94 41.5277 104.791C39.267 103.53 39.3407 99.1279 41.798 98.0151C43.4935 97.2485 45.4593 97.3721 47.3022 97.0506C47.4251 93.6378 46.8353 94.998 48.5554 92.7723C38.8247 85.1059 56.6889 86.9112 57.0821 80.7534C57.7455 70.1936 51.9219 68.0668 50.939 58.6199C50.4967 54.2921 51.4796 50.3847 52.659 46.5268C53.3716 44.2022 54.158 41.9023 54.7723 39.6024C55.4849 37.0304 51.4304 36.7089 52.659 33.8649C53.3225 32.3317 54.1088 30.7242 55.3866 29.6361C56.0992 29.0178 57.4015 29.7103 58.1879 29.1662C59.4411 28.3006 59.9816 26.0749 61.5051 26.0007Z" fill="#633A1E"/>
<path d="M61.5051 28.5977C64.3801 28.5977 66.3459 31.3922 67.5008 35.2748C68.0168 36.9565 67.9185 38.6629 67.3288 40.4682C66.8865 41.8036 66.3459 42.9164 65.1172 45.068C64.1343 46.7744 63.8149 47.3679 63.4463 48.2334C63.2743 48.6044 63.1269 48.9753 63.0286 49.3216C63.004 49.3958 62.9794 49.4699 62.9303 49.5936C62.66 50.385 62.5617 50.7559 62.5863 51.1763C62.66 53.0806 63.2743 54.3913 65.0435 56.9137C65.1172 57.0127 65.1172 57.0127 65.191 57.1116C66.4442 58.9169 66.9848 59.8072 67.4516 61.0437C67.7465 61.7856 67.8694 62.577 67.9922 63.6898C68.0905 64.679 67.8448 65.5693 67.0831 66.0145C66.7145 66.2123 66.2476 66.0886 66.051 65.7177C65.8544 65.3467 65.9773 64.9016 66.3459 64.679C66.3704 64.6543 66.4196 64.6048 66.4442 64.4565C66.4933 64.2833 66.4933 64.036 66.4933 63.8135C66.395 62.8243 66.2722 62.1813 66.051 61.5877C65.6333 60.4996 65.1418 59.6835 63.9623 57.9771C63.8886 57.8782 63.8886 57.8782 63.8149 57.7793C61.8982 55.0095 61.1611 53.4762 61.0874 51.2011C61.0628 50.5581 61.1856 50.0387 61.5051 49.0743C61.5542 48.9506 61.5788 48.8764 61.6034 48.8022C61.7508 48.4066 61.8982 48.0109 62.0948 47.5905C62.5126 46.6754 62.832 46.0572 63.8395 44.3013C66.1739 40.1714 66.8373 38.193 66.0756 35.6952C65.0927 32.4061 63.4709 30.0815 61.5297 30.0815C61.1119 30.0815 60.7679 29.7352 60.7679 29.3148C60.7433 28.9439 61.0874 28.5977 61.5051 28.5977Z" fill="#B5805B"/>
<path d="M57.6224 31.664C58.2614 31.9113 58.7283 32.3565 59.146 32.9748C59.2443 33.1479 59.3672 33.2963 59.5884 33.5931C59.5884 33.5931 59.5884 33.5931 59.5884 33.6178C60.1536 34.4092 60.3747 34.7802 60.5713 35.3243C61.2594 37.2039 61.4806 39.6029 61.0874 41.6061C60.5959 44.104 59.2198 45.8353 56.9589 46.3052C56.5412 46.3794 56.148 46.132 56.0743 45.7116C55.976 45.2912 56.2463 44.8955 56.6641 44.8213C59.6867 44.1782 60.5713 39.6771 59.1706 35.8436C59.0232 35.4727 58.8511 35.1759 58.3597 34.5081C58.3597 34.5081 58.0156 34.0135 57.8928 33.8156C57.6716 33.4447 57.4013 33.1973 57.1064 33.0984C56.7132 32.95 56.5166 32.5049 56.6641 32.1339C56.7869 31.7134 57.2293 31.5156 57.6224 31.664Z" fill="#FEE1CE"/>
<path d="M61.3085 32.109C64.331 33.4197 65.3384 36.6841 64.4538 40.2453C64.0607 41.8033 63.4463 42.8667 61.8246 45.1171C61.8 45.1666 60.8171 46.5267 60.4976 47.0461C58.2861 50.6567 57.2786 53.1297 57.4506 55.5533C57.5489 57.0123 57.8438 58.3972 58.3107 59.6832C58.8513 61.1423 59.4902 62.3046 60.8417 64.5551C61.0137 64.8271 61.112 64.9755 61.1857 65.1238C63.2743 68.5861 64.1589 70.5892 64.4047 73.2848C64.5275 74.5955 64.4047 76.0051 64.0361 77.3653C63.9132 77.8599 63.6921 78.1567 63.176 78.7255C62.9795 78.948 62.9057 79.047 62.8075 79.1459C62.5617 79.4921 62.0949 79.5663 61.7508 79.319C61.4068 79.0717 61.3331 78.6018 61.5788 78.2556C61.7017 78.0825 61.8 77.9588 62.0211 77.6868C62.3652 77.2911 62.488 77.118 62.5372 76.9449C62.8566 75.7578 62.9795 74.5461 62.8566 73.4085C62.6109 70.9849 61.8 69.1549 59.8342 65.8658C59.7605 65.7174 59.6622 65.569 59.4902 65.297C58.0895 62.9723 57.4261 61.7605 56.8363 60.1778C56.2957 58.7682 55.9763 57.2349 55.8534 55.6275C55.6568 52.7587 56.7626 50.0384 59.1461 46.1805C59.4902 45.6117 59.8096 45.1666 60.4731 44.2516C60.4976 44.2021 60.4976 44.2021 60.5468 44.1526C62.0457 42.0506 62.6109 41.0861 62.9303 39.8001C63.6675 36.882 62.8566 34.3842 60.6451 33.4197C60.2765 33.2466 60.0799 32.8262 60.2519 32.4305C60.4731 32.1338 60.9399 31.9606 61.3085 32.109Z" fill="#FEE1CE"/>
<path d="M55.6321 34.1616C55.8041 34.1122 56.0253 34.1122 56.2219 34.2111C57.2294 34.7305 57.9175 35.3735 58.1878 36.3133C58.2124 36.4122 58.2124 36.4122 58.3107 36.709C58.753 38.1682 58.9251 38.8854 58.8759 39.8005C58.8022 41.3338 58.0404 42.9167 56.8363 44.178C56.5414 44.4748 56.0745 44.4748 55.7796 44.2027C55.4847 43.9059 55.4601 43.436 55.755 43.1393C56.7134 42.15 57.3277 40.8887 57.3769 39.7757C57.4015 39.0833 57.2786 38.465 56.8854 37.1789C56.7871 36.8821 56.7871 36.8821 56.7625 36.7832C56.6151 36.3133 56.2219 35.9423 55.5584 35.6208C55.1898 35.423 55.0424 34.9778 55.2144 34.5821C55.2881 34.3595 55.4355 34.2358 55.6321 34.1616Z" fill="#FEE1CE"/>
<path d="M68.975 43.0647C69.1716 43.0647 69.3682 43.1389 69.5156 43.2873C69.8105 43.5841 69.8105 44.054 69.5156 44.3507C68.459 45.4142 67.9183 46.3293 67.3531 48.011C66.4193 50.781 66.96 52.6359 69.3191 56.7413C69.5157 57.1123 69.4174 57.5575 69.0487 57.7801C68.6801 57.9779 68.2132 57.879 68.0166 57.508C66.7634 55.3316 66.2227 54.2187 65.8295 52.8585C65.3135 51.0778 65.3135 49.3466 65.9278 47.5164C66.5668 45.6121 67.2057 44.5239 68.459 43.2873C68.5818 43.1142 68.7784 43.0647 68.975 43.0647Z" fill="#B5805B"/>
<path d="M56.4922 46.2795C56.8854 46.4031 57.1065 46.8235 56.9591 47.2192C56.8854 47.4665 56.7871 47.6396 56.5905 47.9117C56.5905 47.9117 56.4431 48.1342 56.4185 48.2084C56.3694 48.3568 56.1974 48.7525 56.1728 48.8019C55.7796 49.7417 55.6322 50.1868 55.5093 50.7062C54.3298 55.7017 54.8459 60.8208 57.0328 65.3217C57.4014 66.0636 57.7454 66.6324 58.63 67.8937C59.0723 68.5614 59.2689 68.8581 59.5146 69.2291C59.7358 69.5753 59.6375 70.0452 59.2689 70.2678C58.9249 70.4903 58.458 70.3914 58.2369 70.0452C58.0157 69.699 57.8191 69.4022 57.3768 68.7592C56.4676 67.4238 56.0991 66.8303 55.6813 65.9894C53.3224 61.1918 52.7818 55.6769 54.035 50.3599C54.1824 49.7417 54.3544 49.2471 54.7721 48.2331C54.7967 48.1837 54.9441 47.788 54.9933 47.6644C55.067 47.4418 55.1653 47.3181 55.3619 47.0461C55.3619 47.0461 55.5339 46.7988 55.5339 46.7493C55.6813 46.3784 56.0991 46.1558 56.4922 46.2795Z" fill="#FEE1CE"/>
<path d="M58.8266 52.6351C59.2444 52.561 59.613 52.8083 59.7112 53.2287C60.1536 55.4297 60.9644 57.0619 63.0777 60.4746C63.1023 60.5241 63.1023 60.5241 63.1514 60.5735C64.9206 63.4175 65.6332 64.7282 66.2475 66.5335C67.1076 69.0313 67.4762 72.2957 67.3533 75.4611C67.3042 76.9697 66.8864 78.4782 66.1984 79.7642C66.0018 80.1351 65.5349 80.2588 65.1663 80.0609C64.7978 79.8631 64.6749 79.3932 64.8715 79.0223C65.4612 77.9589 65.8052 76.6976 65.8544 75.4117C65.9772 72.4193 65.6087 69.3528 64.8223 67.0529C64.2572 65.3959 63.5691 64.1347 61.8491 61.3896C61.8245 61.3402 61.8245 61.3402 61.7753 61.2907C59.5638 57.7296 58.6792 55.9737 58.2123 53.5502C58.1386 53.105 58.4089 52.7093 58.8266 52.6351Z" fill="#B5805B"/>
<path d="M59.613 71.8504C60.0061 71.7021 60.4484 71.9246 60.5713 72.2956C60.817 72.9633 60.989 73.7299 61.1119 74.6449C61.161 75.0406 61.2102 75.4363 61.2348 75.8815C61.2593 76.0546 61.3085 76.8954 61.3331 76.9943C61.5051 79.1458 61.4068 80.8275 60.9399 82.1629C59.3181 86.6144 54.4527 89.8046 49.2679 90.2744C48.8502 90.3239 48.4816 90.0024 48.457 89.582C48.4079 89.1616 48.7273 88.7906 49.1205 88.7659C53.7647 88.3455 58.114 85.5015 59.5147 81.6436C59.9078 80.5555 59.9816 79.0469 59.8341 77.0932C59.8341 76.9943 59.7604 76.1535 59.7604 75.9804C59.7113 75.5352 59.6867 75.1643 59.6375 74.7933C59.5393 73.9772 59.3918 73.3095 59.1952 72.7655C59.0232 72.444 59.2198 71.9988 59.613 71.8504Z" fill="#FEE1CE"/>
<path d="M69.786 79.4179C70.2038 79.4674 70.5232 79.8136 70.4741 80.234C70.4741 80.1846 70.4741 80.1598 70.4495 80.1351C70.4741 80.1598 70.4986 80.2093 70.5723 80.3082C70.5969 80.333 70.6706 80.4072 70.6706 80.4319C71.1129 80.9512 71.3587 81.1985 71.629 81.4211C72.0713 81.7673 72.6119 82.0888 73.2753 82.4103C75.5114 83.5726 77.4772 83.9683 82.0231 84.4629C82.0477 84.4629 82.0723 84.4629 82.0969 84.4876C85.2176 84.8339 86.6428 85.0317 88.3629 85.5263C89.2966 85.7983 90.0829 86.0704 90.8447 86.4166C91.287 86.6144 91.5819 86.8123 92.2453 87.2574C92.2699 87.2821 92.491 87.4305 92.5893 87.48C92.6139 87.5047 92.9088 87.6778 92.8596 87.6284C93.0071 87.7273 93.1299 87.8015 93.2282 87.8757C93.6705 88.2466 93.8917 88.8154 93.3019 89.31C92.9825 89.5821 92.5156 89.5326 92.2453 89.2111C92.1962 89.1369 92.1962 89.0627 92.1716 88.9885C92.147 88.9638 92.147 88.9638 92.1225 88.9391C92.0979 88.9143 91.8522 88.7907 91.803 88.766C91.7293 88.7165 91.4836 88.5434 91.459 88.5187C90.8693 88.123 90.599 87.9499 90.2549 87.8015C89.5915 87.5047 88.8543 87.2327 87.9943 86.9854C86.3725 86.5402 85.021 86.3177 81.974 85.9962C81.9494 85.9962 81.9494 85.9962 81.9003 85.9962C77.1578 85.4768 75.0691 85.0564 72.6119 83.7952C71.8747 83.4242 71.2849 83.0533 70.7444 82.6576C70.3512 82.3608 70.0563 82.0393 69.5649 81.4705C69.5403 81.4458 69.4911 81.3716 69.4666 81.3469C69.1226 80.9265 68.926 80.605 68.9751 80.1351C68.9997 79.69 69.3683 79.3932 69.786 79.4179Z" fill="#B5805B"/>
<path d="M66.567 81.6933C66.7635 81.6438 66.9601 81.6438 67.1567 81.7674C67.5253 81.9653 67.6236 82.4352 67.427 82.8061C67.255 83.1029 67.083 83.3749 66.8864 83.7211C66.7635 83.919 66.3704 84.5372 66.3458 84.562C65.6578 85.6501 65.2646 86.3673 64.9697 87.2575C62.9302 93.4154 65.3383 100.167 70.8672 101.725C72.2924 102.12 73.5947 102.269 76.052 102.392C76.1503 102.392 76.224 102.392 76.396 102.392C76.7646 102.417 76.9366 102.442 77.2806 102.467C75.5114 102.17 74.1107 101.601 72.7101 100.661C68.9505 98.1388 66.6161 93.8852 67.0584 89.7306C67.2796 87.6532 67.7464 86.1694 68.7785 85.1308C68.9259 84.9824 69.1225 84.9082 69.3191 84.9082C69.5157 84.9082 69.6877 84.9824 69.8351 85.1308C70.13 85.4275 70.13 85.9221 69.8351 86.2189C69.0979 86.9361 68.7293 88.1478 68.5573 89.9037C68.1888 93.4648 70.2283 97.1744 73.5456 99.4248C76.0028 101.057 78.6075 101.379 83.9397 101.181C84.3575 101.156 84.7015 101.502 84.7261 101.898C84.7506 102.318 84.4066 102.689 84.0135 102.689C82.6128 102.739 81.3596 102.763 80.2539 102.739C81.1139 102.862 81.8511 103.035 82.6374 103.283C83.2026 103.456 83.6449 103.629 84.038 103.901C84.7261 104.321 85.1438 104.915 85.1438 105.657C85.1438 106.077 84.7998 106.423 84.382 106.423C83.9643 106.423 83.6203 106.077 83.6203 105.657C83.6203 105.36 83.0797 105.014 82.1705 104.742C80.6225 104.247 79.2955 104.124 76.3223 103.95C76.1503 103.95 76.0765 103.926 75.9782 103.926C73.3981 103.802 72.0221 103.629 70.4494 103.209C63.9868 101.403 61.2347 93.6874 63.52 86.8124C63.864 85.7737 64.2817 84.9576 65.068 83.7706C65.0926 83.7459 65.4858 83.1276 65.5841 82.9298C65.7806 82.6083 65.9527 82.3362 66.1001 82.0642C66.2229 81.8664 66.395 81.7427 66.567 81.6933Z" fill="#FEE1CE"/>
<path d="M63.3725 82.905C63.5691 82.905 63.7657 82.9792 63.9131 83.1276C64.208 83.4244 64.208 83.919 63.9131 84.2157C63.8394 84.2899 63.5691 84.5372 63.52 84.5867C63.3725 84.7351 63.2988 84.834 63.2251 84.9329C63.2005 84.9576 63.1759 85.0071 63.1759 85.0071C63.1268 85.106 62.9548 85.477 62.9056 85.6006C62.2668 86.9855 61.9965 87.6285 61.7507 88.4446C59.7604 95.2454 63.7411 100.637 72.0958 105.236C72.4644 105.434 72.5872 105.904 72.3906 106.275C72.1941 106.646 71.7272 106.77 71.3832 106.572C67.4761 104.42 64.4291 102.046 62.3896 99.3012C59.8832 95.9378 59.0969 92.1541 60.301 88.0242C60.5713 87.1339 60.8661 86.4414 61.5542 84.9824C61.6033 84.8587 61.7753 84.5125 61.8245 84.3888C61.8736 84.2652 61.9473 84.1663 62.021 84.0426C62.1439 83.8695 62.2913 83.7211 62.4879 83.5233C62.5371 83.4738 62.8074 83.2018 62.8565 83.1523C62.9794 82.9792 63.1759 82.905 63.3725 82.905Z" fill="#FEE1CE"/>
<path d="M77.5749 85.6501C77.7469 85.5759 77.9681 85.6006 78.1647 85.6995C79.0247 86.12 79.8357 86.2931 81.7525 86.5652C81.8262 86.5652 81.8262 86.5899 81.8999 86.5899C84.9225 87.0351 86.3232 87.4802 87.6502 88.8899C87.9451 89.1867 87.9205 89.6566 87.6257 89.9534C87.3308 90.2502 86.8393 90.2254 86.569 89.9287C85.5614 88.8652 84.3819 88.4942 81.7033 88.0985C81.6296 88.0985 81.6296 88.0985 81.5559 88.0738C79.4671 87.777 78.5578 87.5792 77.5012 87.0598C77.1325 86.8867 76.9605 86.4168 77.1571 86.0458C77.2554 85.8479 77.4029 85.6995 77.5749 85.6501Z" fill="#B5805B"/>
<path d="M71.1376 85.8972C71.5553 85.8972 71.8993 86.2434 71.8993 86.6639C71.8993 86.9853 71.8993 87.2079 71.8747 87.7767C71.8256 90.2003 71.9239 91.2389 72.4153 92.4755C73.8651 96.1355 77.7967 98.5838 82.2198 98.8806C82.5146 98.9053 82.7849 98.9053 83.3501 98.9053C83.3747 98.9053 83.989 98.9053 84.2347 98.9053C84.4313 98.9053 84.5787 98.93 84.8736 98.9795C84.8736 98.9795 84.8736 98.9795 84.8982 98.9795C85.3405 99.0537 85.5125 99.0537 85.6353 98.9795C86.0285 98.8311 86.4708 99.0042 86.6182 99.3999C86.7657 99.7956 86.5691 100.241 86.2005 100.389C85.7336 100.587 85.3896 100.562 84.7016 100.463C84.677 100.463 84.3084 100.414 84.1856 100.414C83.9644 100.414 83.7678 100.389 83.4238 100.414C83.3992 100.414 82.4655 100.414 82.0969 100.414C77.1333 100.068 72.661 97.2978 70.9901 93.0443C70.4004 91.5604 70.3267 90.3981 70.3758 87.752C70.3758 87.2079 70.3758 86.9606 70.3758 86.6639C70.3758 86.2434 70.7198 85.8972 71.1376 85.8972Z" fill="#B5805B"/>
<path d="M76.887 87.7026C77.3048 87.7026 77.6488 88.0489 77.6488 88.4693C77.6488 90.8683 78.9512 92.6984 81.3595 93.9103C82.0967 94.2813 82.8585 94.4544 83.4974 94.3802C83.9152 94.3307 84.2838 94.6523 84.3084 95.0727C84.333 95.4931 84.0381 95.8641 83.6203 95.8888C82.6619 95.9878 81.6544 95.7404 80.6714 95.2458C77.7717 93.7866 76.1252 91.4619 76.1252 88.4446C76.1498 88.0489 76.4693 87.7026 76.887 87.7026Z" fill="#B5805B"/>
<path d="M73.7168 88.0241C74.1346 87.9499 74.5277 88.222 74.6015 88.6424C74.6506 88.865 74.6752 89.0381 74.7243 89.4091C74.7489 89.6564 74.7489 89.7059 74.7735 89.8048C74.8472 90.3737 74.9455 90.7199 75.0929 90.992C76.1988 93.0694 77.6241 94.3555 79.5163 95.1716C81.0153 95.8146 82.4406 96.0867 85.5861 96.4577C86.7165 96.5813 86.9868 96.6308 87.5028 96.705C87.9206 96.7544 88.2155 97.1254 88.1418 97.5459C88.0926 97.9663 87.6994 98.2631 87.2817 98.1889C86.7656 98.1147 86.4953 98.09 85.3895 97.9663C82.0965 97.5706 80.5975 97.2985 78.9265 96.5813C76.7148 95.6415 75.0192 94.1081 73.7414 91.7092C73.4956 91.2393 73.3728 90.7446 73.2745 90.0027C73.2499 89.9038 73.1516 89.0876 73.127 88.9145C73.0533 88.494 73.3236 88.0983 73.7168 88.0241Z" fill="#B5805B"/>
<path d="M80.6467 88.9886C80.8433 88.9391 81.0399 88.9639 81.2119 89.0628C81.5805 89.2854 81.9492 89.4338 82.7109 89.78C82.7847 89.8295 82.8092 89.8295 82.883 89.8542C84.2837 90.4725 84.9472 90.8682 85.6353 91.4865C85.9301 91.7586 85.9547 92.2532 85.6844 92.55C85.3895 92.8468 84.9226 92.8715 84.6277 92.5994C84.1117 92.1048 83.5219 91.808 82.2932 91.2392C82.2195 91.2145 82.2195 91.1897 82.1212 91.165C81.3102 90.8188 80.9416 90.6209 80.4993 90.3736C80.1307 90.151 80.0078 89.7058 80.229 89.3348C80.3027 89.1617 80.4747 89.0381 80.6467 88.9886Z" fill="#B5805B"/>
<path d="M58.5563 89.953C58.9495 90.1014 59.1461 90.5466 58.9986 90.9423C58.4334 92.4262 58.5809 93.6875 59.3672 96.6553C59.785 98.1887 59.9324 98.9059 60.0307 99.7963C60.129 100.687 60.129 101.478 59.9816 102.269C59.7113 103.704 58.802 105.213 57.5488 105.583C57.1556 105.707 56.7378 105.46 56.6149 105.064C56.4921 104.668 56.7378 104.248 57.131 104.124C57.6962 103.951 58.3351 102.937 58.5071 101.997C58.63 101.379 58.6054 100.711 58.5317 99.9694C58.4334 99.178 58.3105 98.5102 57.9174 97.051C57.0573 93.7617 56.8853 92.3026 57.5733 90.4229C57.7208 90.0025 58.1631 89.8047 58.5563 89.953Z" fill="#FEE1CE"/>
<path d="M55.1651 91.8079C55.5583 91.6842 56.0006 91.9068 56.0989 92.3025C57.598 97.323 57.6471 100.637 55.3126 103.308C53.5432 105.361 50.7664 106.474 48.8987 105.015C48.5793 104.767 48.5056 104.297 48.7513 103.951C48.997 103.63 49.4885 103.555 49.808 103.803C50.8647 104.619 52.8552 103.803 54.1576 102.294C56.0252 100.142 55.9761 97.2736 54.6245 92.7229C54.5508 92.352 54.7719 91.9315 55.1651 91.8079Z" fill="#B5805B"/>
<path d="M53.3224 92.5498C53.7402 92.5004 54.1088 92.7971 54.1825 93.1928C54.2317 93.5144 54.2808 93.8111 54.3545 94.2316C54.3791 94.3058 54.502 94.9488 54.5266 95.0725C54.7231 96.1112 54.7477 96.9273 54.6248 97.9661C54.6248 98.0403 54.5511 98.5102 54.5266 98.6586C54.4037 99.6231 54.2071 100.291 53.8139 100.909C53.2733 101.75 52.4623 102.418 51.4302 102.888C49.1694 103.976 46.2942 104.001 43.8368 103.086C43.8123 103.086 43.5911 102.987 43.542 102.962C42.9522 102.715 42.5836 102.443 42.4361 101.898C42.3378 101.478 42.5836 101.082 42.9768 100.983C43.0013 100.983 43.0013 101.008 43.0259 100.983C43.0013 100.909 42.9522 100.86 42.9522 100.785C42.9522 100.365 43.2962 100.044 43.714 100.044C46.2451 100.044 47.6212 99.8704 48.6042 99.3758C49.7346 98.7822 50.1524 97.694 49.7592 95.666C49.6855 95.2456 49.9312 94.8746 50.349 94.7757C50.7667 94.7015 51.1599 94.9488 51.2336 95.3692C51.7497 98.0155 51.0862 99.7962 49.3169 100.711C48.0882 101.354 46.5891 101.527 44.0334 101.552C44.058 101.552 44.058 101.577 44.0826 101.577C44.1072 101.602 44.3038 101.676 44.3529 101.676C46.4417 102.467 48.8745 102.418 50.7422 101.527C51.5285 101.156 52.1429 100.662 52.5115 100.093C52.7572 99.722 52.9047 99.2274 53.003 98.4607C53.0275 98.3123 53.0767 97.8671 53.0767 97.793C53.175 96.9273 53.1504 96.2596 52.9784 95.3445C52.9538 95.2209 52.8309 94.6026 52.8309 94.5284C52.7326 94.0832 52.6835 93.7617 52.6343 93.4154C52.6098 92.995 52.9047 92.5993 53.3224 92.5498Z" fill="#B5805B"/>
<path d="M43.9849 61.6865C44.3535 61.6618 44.7958 61.6865 45.2627 61.9338C45.2627 61.9338 45.8524 62.0822 46.7862 62.379C47.7691 62.6757 49.0469 63.1456 50.4229 63.7886C53.175 65.0993 56.394 67.325 58.3107 71.1334C60.2519 74.9914 60.1045 79.7396 58.9496 83.7459C57.7947 87.7027 55.534 91.3875 52.3396 92.7229C50.6687 93.4154 48.5308 93.5143 46.1719 93.3412C43.7883 93.1928 41.1591 92.7229 38.7264 91.981C36.2691 91.2391 33.9839 90.2746 32.2392 88.9145C30.5683 87.6038 29.1185 85.6253 29.7083 83.2018C29.7083 83.1771 29.7083 83.1276 29.7329 83.1276C31.0843 77.4644 31.4284 75.2387 32.5341 72.3205C32.5341 72.3452 32.5341 72.2958 32.5833 72.1968C33.001 71.1087 33.7873 70.07 34.7456 68.9572C35.704 67.8196 36.8589 66.6326 38.0629 65.5444C39.2424 64.4563 40.4219 63.4918 41.5031 62.7746C42.0437 62.4284 42.5597 62.1317 43.1249 61.9338C43.2969 61.8349 43.5918 61.7112 43.9849 61.6865Z" fill="#4A2D19"/>
<path d="M44.4763 63.5165C45.2626 63.9122 53.4207 65.2971 56.738 71.9248C60.0553 78.5524 56.4677 89.1122 51.6515 91.1154C46.8352 93.1185 29.9785 89.5079 31.3546 83.6221C32.7552 77.7611 33.0746 75.659 34.1312 72.8398C35.2124 70.0205 42.9774 62.7498 44.4763 63.5165Z" fill="#D9A17A"/>
<path d="M55.1408 69.5261C55.7305 70.2433 56.2711 71.0347 56.738 71.9249C60.0553 78.5526 56.4677 89.1124 51.6515 91.1156C49.6365 91.9564 45.5575 91.7586 41.5522 90.8683C49.0222 89.8791 53.8138 81.3719 53.8138 81.3719C53.8138 81.3719 45.238 83.6965 39.144 80.6053C44.0585 81.8418 54.4036 80.1106 53.175 76.2527C53.8138 74.4227 54.6739 71.2078 55.1408 69.5261Z" fill="#84512F"/>
<path d="M33.2216 75.9062C36.1705 77.8106 40.6184 76.9944 40.6184 76.9944C38.1364 79.3687 34.4012 80.4074 31.9929 80.8773C32.4352 78.9483 32.9022 77.1428 33.2216 75.9062Z" fill="#84512F"/>
<path d="M39.1687 64.6789C39.5373 64.6542 39.9796 64.6789 40.4464 64.9262C40.4464 64.9262 41.0362 65.0746 41.9454 65.3714C42.9283 65.6681 44.206 66.138 45.5821 66.781C48.3342 68.0917 51.5532 70.3174 53.4699 74.1259C55.4111 77.9838 55.2637 82.732 54.1088 86.7383C52.9539 90.6951 50.7178 94.3799 47.4988 95.7153C45.8278 96.4078 43.69 96.5067 41.3311 96.3336C38.9475 96.1852 36.3183 95.7153 33.861 94.9734C31.4038 94.2315 29.1185 93.2671 27.3739 91.9069C25.7029 90.5962 24.2531 88.6178 24.8429 86.1942C24.8429 86.1695 24.8429 86.12 24.8675 86.12C26.1944 80.4568 26.563 78.2311 27.6687 75.3129C27.6687 75.3377 27.6687 75.2882 27.7179 75.1893C28.1356 74.1011 28.9219 73.0625 29.8803 71.9496C30.8386 70.812 32.0181 69.625 33.1975 68.5369C34.377 67.4487 35.5565 66.4842 36.6377 65.7671C37.1783 65.4208 37.6943 65.1241 38.2595 64.9262C38.4806 64.8273 38.8001 64.7037 39.1687 64.6789Z" fill="#4A2D19"/>
<path d="M39.6601 66.5087C40.4464 66.9044 48.6045 68.2892 51.9218 74.9169C55.2391 81.5446 51.6515 92.1044 46.8353 94.1076C42.0191 96.1107 25.1623 92.5001 26.5384 86.6143C27.939 80.7533 28.2585 78.6512 29.3151 75.832C30.4208 73.0127 38.1612 65.742 39.6601 66.5087Z" fill="#D9A17A"/>
<path d="M50.3491 72.5183C50.9389 73.2355 51.4795 74.0268 51.9464 74.9171C55.2636 81.5448 51.676 92.1046 46.8598 94.1078C44.8449 94.9486 40.7659 94.7508 36.7605 93.8605C44.2306 92.8713 49.0222 84.3641 49.0222 84.3641C49.0222 84.3641 40.4464 86.6887 34.3524 83.5974C39.2669 84.8339 49.612 83.1028 48.3833 79.2449C48.9976 77.4149 49.8823 74.2 50.3491 72.5183Z" fill="#84512F"/>
<path d="M28.43 78.8984C31.3789 80.8028 35.8268 79.9866 35.8268 79.9866C33.3448 82.3609 29.6095 83.3996 27.2013 83.8695C27.619 81.9404 28.086 80.135 28.43 78.8984Z" fill="#84512F"/>
<path d="M38.5788 65.2478C38.9474 65.2231 39.3897 65.2478 39.8566 65.4951C39.8566 65.4951 40.4463 65.6435 41.3555 65.9402C42.3384 66.237 43.6162 66.7069 44.9923 67.3499C47.7444 68.6606 50.9634 70.8863 52.88 74.6947C54.8213 78.5526 54.6738 83.3008 53.5189 87.3071C52.364 91.264 50.1033 94.9488 46.9089 96.2842C45.238 96.9766 43.1002 97.0756 40.7166 96.9025C38.3331 96.7541 35.7038 96.2842 33.2712 95.5423C30.8139 94.8004 28.5287 93.8359 26.784 92.4757C25.1131 91.165 23.6633 89.1866 24.253 86.7631C24.253 86.7383 24.253 86.6889 24.2776 86.6889C25.6045 81.0257 25.9731 78.7999 27.0789 75.8818C27.0789 75.9065 27.0789 75.857 27.128 75.7581C27.5458 74.67 28.3321 73.6313 29.2904 72.5185C30.2487 71.3809 31.4282 70.1938 32.6077 69.1057C33.7872 68.0176 34.9667 67.0531 36.0479 66.3359C36.5885 65.9897 37.1045 65.6929 37.6696 65.4951C37.8908 65.3962 38.2102 65.2725 38.5788 65.2478Z" fill="#4A2D19"/>
<path d="M39.0703 67.0531C39.8566 67.4488 48.0147 68.8337 51.332 75.4613C54.6493 82.089 51.0617 92.6488 46.2455 94.652C41.4292 96.6551 24.5725 93.0445 25.9485 87.1587C27.3492 81.2977 27.6686 79.1956 28.7252 76.3764C29.8064 73.5818 37.5714 66.3112 39.0703 67.0531Z" fill="#D9A17A"/>
<path d="M49.7348 73.0625C50.3245 73.7797 50.8651 74.571 51.332 75.4613C54.6493 82.089 51.0617 92.6488 46.2455 94.652C44.2305 95.4928 40.1515 95.295 36.1461 94.4047C43.6162 93.4155 48.4078 84.9083 48.4078 84.9083C48.4078 84.9083 39.832 87.2329 33.738 84.1416C38.6525 85.3781 48.9976 83.647 47.769 79.7891C48.4078 77.9838 49.2679 74.7689 49.7348 73.0625Z" fill="#84512F"/>
<path d="M27.8156 79.4429C30.7645 81.3472 35.2124 80.5311 35.2124 80.5311C32.7304 82.9053 28.9706 83.944 26.5869 84.4139C27.0292 82.5096 27.4961 80.6795 27.8156 79.4429Z" fill="#84512F"/>
<path d="M94.5552 73.8288C95.8084 73.804 97.0124 74.2986 98.1182 74.9169C99.2485 75.5352 100.354 76.3512 101.337 77.1426C103.278 78.7253 104.728 80.3081 104.753 80.3328C105.588 81.2231 104.876 82.6575 103.672 82.5338C103.672 82.5338 98.5605 81.9403 91.0904 84.1165C86.7411 85.3778 81.0648 84.0176 76.4944 82.5091C71.8993 80.9758 68.3117 79.1952 68.2626 79.1705C67.1076 78.6017 67.4025 76.8459 68.6803 76.6975C68.7049 76.6975 90.2795 74.0761 94.506 73.8535C94.5306 73.8288 94.5552 73.8288 94.5552 73.8288Z" fill="#633A1E"/>
<path d="M103.794 81.2233C103.794 81.2233 98.0936 75.0902 94.5797 75.1397C90.5007 75.3623 68.8277 77.9837 68.8277 77.9837C68.8277 77.9837 83.0061 85.0812 90.6973 82.8308C98.413 80.6298 103.794 81.2233 103.794 81.2233Z" fill="#A5795B"/>
<path d="M94.5797 75.1644C97.1598 75.1397 100.846 78.3546 102.664 80.1105C100.723 80.061 96.3489 80.1352 90.6972 81.7921C84.5295 83.5727 74.5285 79.517 70.6706 77.7859C73.6931 77.4149 90.8447 75.3623 94.5797 75.1644Z" fill="#FEE1CE"/>
<path d="M94.5797 75.1644C98.0936 75.1149 103.794 81.248 103.794 81.248C103.794 81.248 98.3885 80.6297 90.6973 82.8802C88.8298 83.4243 86.5937 83.3995 84.2593 83.078L82.5883 76.4503C88.5595 75.7332 92.5402 75.2633 94.5797 75.1644Z" fill="#A5795B"/>
<path d="M84.6033 76.1782L80.8926 81.3472C76.7396 80.3332 72.8077 78.7256 70.7189 77.7858C72.4637 77.5632 78.6318 76.846 84.6033 76.1782Z" fill="#A5795B"/>
<path d="M97.7496 65.7667C101.73 66.4097 104.36 66.5086 106.178 66.5333C107.087 66.5333 107.775 66.5333 108.39 66.5828C108.955 66.6075 109.618 66.657 110.232 67.1269C110.601 67.4236 110.699 67.6709 110.798 67.8688C110.896 68.0913 110.994 68.3139 111.068 68.5365C111.24 69.0311 111.412 69.5999 111.584 70.2676C111.928 71.6278 112.297 73.3094 112.641 74.9911C113.304 78.3297 113.869 81.5693 113.869 81.5693C114.017 82.3854 113.402 83.1273 112.567 83.152C109.299 83.1768 102.738 83.2262 99.4697 83.251C98.7079 83.251 98.0936 82.608 98.1182 81.8413C98.1182 81.8413 98.2165 79.2694 98.0445 76.1781C97.8725 73.0621 97.3319 69.501 96.3736 67.7699C95.8084 66.7806 96.6438 65.5936 97.7496 65.7667Z" fill="#633A1E"/>
<path d="M109.421 68.1905C110.331 68.883 112.542 81.7929 112.542 81.7929L99.4443 81.8919C99.4443 81.8919 99.9112 71.3562 97.5275 67.1023C105.637 68.4131 108.488 67.498 109.421 68.1905Z" fill="#A5795B"/>
<path d="M98.019 67.1519C105.686 68.339 108.537 67.4981 109.421 68.1906C110.257 68.8336 112.051 78.9489 112.346 80.7296L99.4689 80.8285C99.4689 80.4575 99.4689 80.2349 99.4689 79.6414C99.518 77.2919 99.4935 70.9853 98.019 67.1519Z" fill="#FEE1CE"/>
<path d="M90.2058 62.1562C90.4024 62.1562 90.6235 62.2057 90.7955 62.2799C94.7026 63.8874 98.1673 67.399 100.723 70.4409C103.303 73.5074 104.998 76.1783 105.023 76.2277C105.465 76.9449 105.293 77.8599 104.63 78.3793C101.214 80.9265 95.2186 82.2619 87.6503 81.0749C86.7902 80.9512 86.2005 80.1351 86.2988 79.2696C86.3971 78.4535 86.0776 77.3159 85.3159 76.0052C84.5541 74.7192 83.4484 73.3838 82.2689 72.172C79.9345 69.7731 77.5018 67.9926 77.5018 67.9926C76.3469 67.1517 76.7646 65.3464 78.1653 65.0991C78.1653 65.0991 85.6107 63.7637 89.6161 62.2552C89.8126 62.181 90.0092 62.1562 90.2058 62.1562Z" fill="#633A1E"/>
<path d="M103.672 77.0685C103.672 77.0685 97.1106 66.6076 90.2058 63.7637C85.9547 65.3711 78.4601 66.7066 78.4601 66.7066C78.4601 66.7066 88.584 74.0514 87.8959 79.4921C95.194 80.6297 100.772 79.2695 103.672 77.0685Z" fill="#A5795B"/>
<path d="M90.2057 63.7637C96.2997 66.2614 101.829 74.274 103.131 76.2524C100.108 78.2556 94.8253 79.4426 87.8959 78.3545C88.4611 73.9031 81.9985 68.3882 79.5658 66.4593C81.1139 66.212 86.4953 65.1733 90.2057 63.7637Z" fill="#FEE1CE"/>
<path d="M74.7738 66.113C74.823 66.113 75.5111 66.0635 76.4449 66.1624C77.3541 66.2861 78.5582 66.5581 79.5658 67.3495C80.5979 68.1904 81.2122 69.6001 80.9174 71.4303C80.6225 73.211 79.5412 75.3874 77.3541 78.2562C77.0592 78.6272 76.5677 78.7756 76.1254 78.6025C69.5641 76.253 65.2637 72.4937 65.2145 72.4443C64.6248 71.9249 64.7476 71.0098 65.4357 70.6636C67.6719 69.5507 72.1199 67.3001 74.3561 66.1872C74.479 66.1624 74.6264 66.113 74.7738 66.113Z" fill="#3B4E1C"/>
<path d="M74.8476 67.2013C74.8476 67.2013 85.0212 66.4346 76.4695 77.6381C70.1048 75.3628 65.9026 71.6777 65.9026 71.6777L74.8476 67.2013Z" fill="#688834"/>
<path d="M74.8477 67.2014C74.8477 67.2014 78.7058 66.9294 79.6642 69.3284C79.5659 70.8617 78.6812 73.0381 76.273 76.1791C71.309 74.3984 68.3356 72.1972 66.984 71.1338L74.8477 67.2014Z" fill="#AFCE7B"/>
<path d="M78.1161 68.8582C78.1652 68.8582 78.8532 68.9076 79.7624 69.1302C80.647 69.3528 81.8265 69.7979 82.6866 70.7129C83.5957 71.6774 84.038 73.1612 83.4975 74.9418C82.9814 76.6729 81.6299 78.7008 79.099 81.2727C78.7795 81.5942 78.2635 81.6684 77.8458 81.4706C71.6289 78.3051 67.8448 74.002 67.7956 73.9526C67.2796 73.3838 67.5253 72.4688 68.2379 72.2215C70.5969 71.4054 75.3148 69.7484 77.6492 68.9323C77.8458 68.8582 77.9686 68.8582 78.1161 68.8582Z" fill="#3B4E1C"/>
<path d="M78.0667 69.9463C78.0667 69.9463 88.2649 70.4904 78.3616 80.5067C72.3409 77.44 68.6302 73.2356 68.6302 73.2356L78.0667 69.9463Z" fill="#688834"/>
<path d="M78.0667 69.9463C78.0667 69.9463 81.9249 70.1689 82.5884 72.6668C82.2935 74.1754 81.1385 76.2282 78.3616 79.0228C73.668 76.6239 70.9894 74.0765 69.7853 72.8399L78.0667 69.9463Z" fill="#AFCE7B"/>
<path d="M32.5832 70.6389C32.9518 70.6142 33.3941 70.6389 33.861 70.8862C33.861 70.8862 34.4507 71.0346 35.3845 71.3313C36.3674 71.6281 37.6451 72.098 39.0212 72.741C41.7733 74.0517 44.9923 76.2774 46.909 80.0858C48.8502 83.9437 48.7028 88.6919 47.5479 92.6982C46.393 96.6551 44.1323 100.34 40.9378 101.675C39.2669 102.368 37.1291 102.467 34.7701 102.294C32.3866 102.145 29.7573 101.675 27.3247 100.933C24.8674 100.191 22.5822 99.227 20.8375 97.8669C19.1666 96.5562 17.7168 94.5777 18.3065 92.1542C18.3065 92.1294 18.3065 92.08 18.3311 92.08C19.658 86.4168 20.0266 84.1911 21.1324 81.2729C21.1324 81.2976 21.1324 81.2482 21.1815 81.1492C21.5993 80.0611 22.3856 79.0224 23.3439 77.8848C24.3022 76.7473 25.4817 75.5602 26.6612 74.4721C27.8407 73.384 29.0202 72.4195 30.1014 71.7023C30.642 71.3561 31.158 71.0593 31.7232 70.8615C31.8952 70.7873 32.2146 70.6636 32.5832 70.6389Z" fill="#4A2D19"/>
<path d="M33.0747 72.4439C33.861 72.8396 42.0191 74.2245 45.3364 80.8522C48.6537 87.4799 45.0661 98.0397 40.2498 100.043C35.4336 102.046 18.5769 98.4354 19.9529 92.5496C21.3536 86.6885 21.673 84.5865 22.7296 81.7672C23.8108 78.9727 31.5757 71.702 33.0747 72.4439Z" fill="#D9A17A"/>
<path d="M43.7392 78.4536C44.3289 79.1708 44.8695 79.9622 45.3364 80.8524C48.6537 87.4801 45.0661 98.0399 40.2498 100.043C38.2349 100.884 34.1559 100.686 30.1505 99.7958C37.6206 98.8066 42.4122 90.2994 42.4122 90.2994C42.4122 90.2994 33.8364 92.624 27.7424 89.5327C32.6569 90.7693 43.002 89.0381 41.7733 85.1802C42.4122 83.3749 43.2723 80.16 43.7392 78.4536Z" fill="#84512F"/>
<path d="M21.82 84.834C24.7689 86.7383 29.2168 85.9222 29.2168 85.9222C26.7348 88.2964 22.9996 89.3352 20.5913 89.8051C21.0336 87.9007 21.5006 86.0706 21.82 84.834Z" fill="#84512F"/>
<path d="M104.826 75.6839C105.736 75.6344 106.645 75.6344 107.529 75.7086C108.709 75.7828 109.839 75.9559 110.92 76.228C115.245 77.2666 118.931 79.8138 120.528 83.8201C122.027 87.6038 121.29 91.7091 119.152 95.3444C118.047 96.0616 116.892 96.754 115.663 97.4217C115.049 97.7432 114.484 98.0894 113.82 98.4109C108.316 101.156 101.755 103.406 94.4815 105.063C93.302 105.335 92.1225 105.583 90.8939 105.805C89.4932 105.286 88.1418 104.643 87.0114 103.753C85.8319 102.838 84.849 101.75 84.0873 100.464C83.7924 99.9689 83.5467 99.4743 83.3255 98.9303C83.3255 98.9303 83.3255 98.9055 83.301 98.9055C83.129 98.4604 82.9815 98.04 82.8832 97.5948C82.7358 97.0755 82.6375 96.5562 82.5884 96.0368C82.5884 95.9874 82.5638 95.9132 82.5638 95.8637C82.5146 95.3691 82.5884 94.8745 82.6129 94.3799C82.6375 93.4649 82.7604 92.5499 82.9815 91.6349C83.1044 91.1403 83.2027 90.6457 83.3747 90.1511C83.5713 89.6317 83.817 89.1371 84.0627 88.6178C84.2839 88.1479 84.505 87.678 84.7753 87.2082C84.8736 87.0598 84.9227 86.8867 85.021 86.7383C85.0948 86.6394 85.193 86.5404 85.2422 86.4415C85.5371 85.9717 85.9057 85.5512 86.2742 85.1061C86.8886 84.3147 87.6012 83.5728 88.3629 82.8309C90.5744 80.7288 93.2774 78.8988 96.4473 77.6376C99.224 76.4505 102.074 75.8323 104.826 75.6839Z" fill="#464646"/>
<path d="M104.925 77.3409C105.785 77.2914 106.62 77.2914 107.431 77.3656C112.862 77.7118 117.309 80.2096 119.005 84.4137C120.651 88.5436 119.201 93.3908 115.663 97.3723C115.049 97.6938 114.483 98.0401 113.82 98.3615C108.316 101.107 101.755 103.357 94.4814 105.014C91.8767 104.569 89.5915 103.629 87.8222 102.195C87.1833 101.675 86.5936 101.057 86.1022 100.414C85.7581 99.969 85.537 99.4744 85.2667 98.9798C85.1438 98.7325 84.9472 98.5099 84.849 98.2379C84.7998 98.1142 84.7998 97.9659 84.7507 97.8422C84.5787 97.3229 84.4558 96.8035 84.3575 96.2595C84.3084 95.9627 84.2592 95.6907 84.2346 95.3939C84.2838 95.295 84.3329 95.1961 84.3329 95.0724C84.3329 94.9982 84.2838 94.9735 84.2592 94.924C84.2346 94.1079 84.2838 93.2918 84.4558 92.4758C84.5541 91.9564 84.7015 91.4371 84.8735 90.9178C85.0701 90.3242 85.3404 89.7307 85.6353 89.1372C85.8564 88.692 86.053 88.2469 86.3233 87.8017C86.5445 87.4555 86.8148 87.1093 87.0605 86.7631C87.3799 86.3179 87.6994 85.8728 88.068 85.4276C88.7068 84.6857 89.4194 83.9933 90.2058 83.3256C92.1224 81.6439 94.4322 80.1601 97.0861 79.0967C99.6908 78.058 102.369 77.4645 104.925 77.3409Z" fill="white"/>
<path d="M115.786 89.6316C115.786 84.8586 110.773 81.0007 104.581 81.0007C98.3884 81.0007 93.3756 84.8586 93.3756 89.6316C93.3756 94.4045 98.3884 98.2624 104.581 98.2624C110.773 98.2624 115.786 94.4045 115.786 89.6316Z" fill="#FECC2F"/>
<path d="M21.9187 107.586C22.7787 107.957 23.6633 108.328 24.5479 108.674C24.9902 108.847 25.2114 109.366 25.0394 109.811C24.8674 110.257 24.3513 110.479 23.909 110.306C23.0244 109.96 22.1152 109.589 21.2306 109.193C20.7883 108.995 20.5917 108.501 20.7637 108.056C20.9603 107.61 21.4763 107.413 21.9187 107.586ZM110.748 108.822C110.945 108.896 111.117 109.07 111.215 109.292C111.387 109.737 111.191 110.232 110.748 110.43C110.699 110.454 110.036 110.702 109.741 110.801C108.93 111.097 107.996 111.444 106.915 111.79C106.473 111.938 105.981 111.691 105.834 111.246C105.686 110.801 105.932 110.306 106.374 110.158C107.431 109.811 108.34 109.49 109.127 109.193C109.397 109.094 110.036 108.847 110.06 108.822C110.306 108.723 110.552 108.748 110.748 108.822ZM28.2584 110.083C29.5116 110.529 30.7648 110.924 32.0425 111.32C32.5094 111.468 32.7551 111.963 32.6077 112.408C32.4603 112.853 31.9934 113.125 31.5265 112.977C30.2487 112.581 28.971 112.161 27.6932 111.716C27.2509 111.567 27.0052 111.073 27.1526 110.603C27.3246 110.158 27.8161 109.91 28.2584 110.083ZM102.59 111.32C103.057 111.196 103.524 111.444 103.647 111.913C103.77 112.383 103.524 112.853 103.057 112.977C101.804 113.348 100.502 113.694 99.1747 114.04C98.7078 114.164 98.2409 113.867 98.1181 113.422C97.9952 112.952 98.2901 112.482 98.757 112.359C100.059 112.037 101.362 111.691 102.59 111.32ZM35.8513 112.433C37.1291 112.779 38.4068 113.101 39.7092 113.397C40.176 113.496 40.4463 113.966 40.3481 114.436C40.2498 114.906 39.7829 115.203 39.316 115.079C38.0137 114.782 36.7113 114.436 35.409 114.09C34.9421 113.966 34.6718 113.496 34.7947 113.026C34.9175 112.581 35.3844 112.309 35.8513 112.433ZM94.8745 113.274C95.3414 113.175 95.8083 113.471 95.9065 113.941C96.0048 114.411 95.71 114.881 95.2431 114.98C93.9407 115.252 92.6384 115.524 91.3115 115.796C90.8446 115.895 90.3777 115.574 90.304 115.104C90.2057 114.634 90.5252 114.189 90.992 114.09C92.2944 113.842 93.5967 113.57 94.8745 113.274ZM43.5671 114.238C44.8694 114.485 46.1717 114.733 47.4741 114.931C47.941 115.005 48.2604 115.45 48.1867 115.92C48.113 116.39 47.6707 116.711 47.2038 116.637C45.8769 116.439 44.55 116.192 43.2476 115.945C42.7807 115.846 42.4613 115.4 42.5596 114.931C42.6579 114.461 43.1002 114.139 43.5671 114.238ZM87.0604 114.757C87.5273 114.683 87.9696 115.005 88.0433 115.475C88.1171 115.945 87.7976 116.39 87.3307 116.464C86.0038 116.662 84.6769 116.86 83.35 117.033C82.8831 117.107 82.4408 116.761 82.3917 116.291C82.3425 115.821 82.662 115.376 83.1288 115.326C84.4557 115.153 85.7581 114.98 87.0604 114.757ZM51.4057 115.499C52.708 115.672 54.035 115.821 55.3619 115.92C55.8288 115.969 56.1973 116.39 56.1482 116.86C56.099 117.329 55.6813 117.676 55.2144 117.651C53.8875 117.527 52.536 117.404 51.2091 117.23C50.7422 117.181 50.3982 116.736 50.4474 116.266C50.5211 115.771 50.9388 115.425 51.4057 115.499ZM79.1727 115.771C79.6395 115.722 80.0818 116.068 80.131 116.563C80.1801 117.033 79.8361 117.453 79.3447 117.503C78.0177 117.626 76.6663 117.75 75.3393 117.849C74.8725 117.873 74.4547 117.527 74.4056 117.033C74.381 116.563 74.725 116.142 75.2165 116.093C76.5434 116.019 77.8703 115.92 79.1727 115.771ZM59.3426 116.217C60.6695 116.291 61.9719 116.34 63.2988 116.39C63.7657 116.39 64.1588 116.81 64.1343 117.28C64.1097 117.75 63.7411 118.145 63.2497 118.121C61.8982 118.096 60.5713 118.022 59.2198 117.948C58.7529 117.923 58.3843 117.503 58.4089 117.033C58.458 116.538 58.8757 116.192 59.3426 116.217ZM71.2603 116.315C71.7272 116.291 72.1203 116.662 72.1449 117.156C72.1695 117.626 71.8009 118.047 71.3094 118.071C69.9825 118.121 68.631 118.145 67.2795 118.17C66.8127 118.17 66.3949 117.799 66.3949 117.305C66.3949 116.835 66.7881 116.439 67.255 116.414C68.6065 116.414 69.9334 116.365 71.2603 116.315Z" fill="#D4DBEA"/>
</svg>
