<svg width="150" height="80" viewBox="0 0 150 80" fill="none" xmlns="http://www.w3.org/2000/svg">
<path d="M88.1221 34.5589C87.046 33.9874 85.6303 34.2152 84.2699 35.0184C83.9875 35.1902 83.7032 35.42 83.4208 35.6478C75.2681 42.0693 63.8258 46.0772 51.2522 46.0772C28.7369 46.0772 10.0956 33.3081 6.7528 16.625V13.4662C6.7528 12.8648 6.51669 12.288 6.09641 11.8627C5.67613 11.4374 5.10611 11.1985 4.51174 11.1985C3.91738 11.1985 3.34735 11.4374 2.92707 11.8627C2.50679 12.288 2.27068 12.8648 2.27068 13.4662V22.3033C2.27068 22.519 2.33781 22.7088 2.38915 22.9066C0.890501 26.3751 8.09855e-08 30.0574 0 33.9275C0 53.184 20.1597 68.8282 45.0799 68.8282C65.9781 68.8282 83.5906 57.8253 88.6848 42.8685C88.7458 42.8067 88.7859 42.7269 88.7994 42.6407C89.4253 41.322 89.7669 39.9474 89.7669 38.7986C89.8774 36.8525 89.3127 35.2442 88.1221 34.5589Z" fill="#EDC03F"/>
<path d="M5.07839 25.2322C5.07839 25.2322 26.2925 74.6422 83.796 40.0132C83.796 40.0132 68.9674 55.5875 49.641 59.3737C32.1844 62.7902 6.26112 52.8183 5.07642 25.2322" fill="#EBAC00"/>
<path d="M89.6938 37.0521C89.3364 37.9053 87.9582 38.139 86.6235 37.5696C85.2867 36.9942 84.4949 35.8314 84.8504 34.9822C85.2117 34.1211 86.5859 33.8913 87.9207 34.4628C89.2555 35.0362 90.0532 36.195 89.6938 37.0501" fill="#79544E"/>
<path d="M90.5626 40.431C90.5863 48.7646 88.1379 55.5996 82.4948 58.6605C81.3614 59.2699 80.1254 58.9343 78.9959 59.4158C78.453 59.7295 77.9949 60.4547 77.4953 61.0242C77.2228 61.3179 76.9425 61.5836 76.6423 61.7175C70.5411 64.3328 63.4408 62.6086 56.611 57.222C47.0741 49.6696 43.4035 38.3031 48.401 31.8237C49.0501 30.9619 49.7765 30.1626 50.571 29.4361C51.4907 28.6195 52.5255 27.9461 53.6413 27.4381C55.679 26.4791 58.2617 25.8917 61.9145 25.4601C62.035 25.4501 62.1712 25.4301 62.2897 25.4202C66.4697 20.4052 70.7188 18.2874 75.8209 18.2654C83.9361 18.2534 90.533 28.1754 90.5626 40.431Z" fill="#F15723"/>
<path d="M63.658 27.0863C63.4438 27.1921 63.2068 27.2416 62.9687 27.2305C62.7307 27.2193 62.4992 27.1477 62.2956 27.0224C62.1337 26.9245 58.3446 24.5609 57.5054 20.501C57.0237 18.1593 57.6022 15.7897 59.2292 13.4541C59.4465 13.1422 59.7774 12.9305 60.1489 12.8655C60.5205 12.8005 60.9024 12.8875 61.2106 13.1074C61.5188 13.3273 61.728 13.6621 61.7923 14.0381C61.8565 14.4141 61.7705 14.8006 61.5532 15.1124C60.4001 16.7707 59.9736 18.3831 60.2895 19.9096C60.87 22.7147 63.7409 24.5409 63.7686 24.5609C63.9877 24.6944 64.1671 24.8853 64.288 25.1133C64.4089 25.3414 64.4667 25.5983 64.4554 25.8569C64.4441 26.1154 64.364 26.3661 64.2237 26.5825C64.0833 26.7989 63.8879 26.9729 63.658 27.0863Z" fill="#79544E"/>
<path d="M78.5754 24.5609C81.5845 25.6219 83.5235 27.9315 82.9094 29.7277C82.2914 31.5239 79.3533 32.1213 76.3442 31.0644C73.3331 30.0074 71.3941 27.6918 72.0101 25.8976C72.6282 24.1014 75.5662 23.504 78.5754 24.5609Z" fill="white"/>
<path d="M139.961 64.097C133.591 69.3876 126.814 71.7852 120.899 69.2977C119.72 68.7962 119.189 67.6154 118.111 67.032C117.524 66.8043 116.681 66.9042 115.929 66.8702C115.534 66.8422 115.151 66.7903 114.859 66.6404C109.001 63.5116 105.831 56.8503 105.638 48.0952C105.395 35.8436 111.779 25.7777 119.894 25.6019C120.964 25.565 122.035 25.6292 123.093 25.7937C124.297 26.0035 125.422 26.3552 126.568 26.9386C128.59 27.9296 130.671 29.5799 133.311 32.1733L133.581 32.443C140.063 32.5509 144.37 34.5409 147.612 38.5269C152.75 44.8844 149.324 56.3289 139.961 64.097Z" fill="#F15723"/>
<path d="M133.168 34.569C132.952 34.4676 132.764 34.313 132.622 34.1193C132.48 33.9256 132.388 33.699 132.355 33.4601C132.329 33.2743 131.743 28.8048 134.323 25.5801C135.812 23.722 137.992 22.679 140.806 22.4772C141.177 22.4593 141.541 22.5892 141.819 22.839C142.097 23.0889 142.267 23.4389 142.294 23.8142C142.32 24.1895 142.2 24.5604 141.96 24.8475C141.719 25.1345 141.377 25.315 141.007 25.3503C139.011 25.4922 137.506 26.1775 136.533 27.3923C134.752 29.618 135.167 33.0266 135.171 33.0585C135.207 33.3143 135.174 33.5752 135.076 33.8138C134.978 34.0524 134.818 34.2598 134.613 34.4143C134.409 34.5689 134.167 34.6648 133.913 34.692C133.659 34.7192 133.402 34.6767 133.17 34.569" fill="#79544E"/>
<path d="M144.532 44.6688C145.626 47.6998 145.077 50.6768 143.317 51.3301C141.55 51.9834 139.236 50.0574 138.142 47.0304C137.05 43.9995 137.595 41.0165 139.36 40.3652C141.126 39.7158 143.44 41.6419 144.534 44.6688" fill="white"/>
<path d="M76.4113 50.2329C80.0089 57.7313 85.1742 62.7822 91.5736 63.0279C92.8511 63.0699 93.8206 62.2207 95.0428 62.1488C95.6687 62.1888 96.3953 62.6363 97.0903 62.928C97.4596 63.0699 97.8308 63.1858 98.1566 63.1718C104.771 62.8121 110.404 58.1029 114.201 50.2329C119.491 39.208 117.854 27.364 110.56 23.7676C109.604 23.2799 108.604 22.8839 107.575 22.5848C106.393 22.2587 105.17 22.1132 103.946 22.1533C101.699 22.1972 99.126 22.8166 95.6529 24.0533L95.2975 24.1832C89.368 21.5379 84.6312 21.5219 80.0385 23.7676C72.7427 27.364 71.1177 39.208 76.4113 50.2329Z" fill="#E3483F"/>
<path d="M94.794 26.2872C95.032 26.2873 95.2662 26.2269 95.4752 26.1118C95.6843 25.9966 95.8614 25.8302 95.9905 25.6278C96.0912 25.468 98.4725 21.6579 97.4635 17.6399C96.879 15.3223 95.331 13.4462 92.857 12.0735C92.527 11.9017 92.1437 11.867 91.7889 11.9769C91.434 12.0868 91.1355 12.3325 90.9571 12.6618C90.7787 12.9911 90.7344 13.3779 90.8337 13.7398C90.933 14.1016 91.168 14.4099 91.4886 14.599C93.244 15.57 94.326 16.8327 94.7051 18.3452C95.4021 21.1224 93.6152 24.0414 93.5994 24.0694C93.461 24.2867 93.3831 24.5376 93.3737 24.7959C93.3644 25.0541 93.4239 25.3102 93.5461 25.5371C93.6684 25.764 93.8488 25.9534 94.0683 26.0854C94.2879 26.2174 94.5386 26.2871 94.794 26.2872Z" fill="#79544E"/>
<path d="M80.2952 30.6491C78.0501 32.9388 77.3136 35.8778 78.6464 37.2145C79.9773 38.5551 82.8778 37.7879 85.1228 35.5002C87.3678 33.2085 88.1083 30.2715 86.7715 28.9348C85.4387 27.5922 82.5402 28.3614 80.2952 30.6491Z" fill="white"/>
<path d="M90.7502 13.1826C90.7502 13.1826 98.123 14.5212 104.242 10.9508C110.363 7.37645 112.91 0.245664 112.91 0.245664C112.91 0.245664 105.535 -1.09298 99.4163 2.47941C93.2973 6.05179 90.7522 13.1826 90.7522 13.1826" fill="#6B7F28"/>
<path d="M108.981 33.9556C107.905 33.3822 106.489 33.6119 105.129 34.4151C104.846 34.587 104.56 34.8167 104.279 35.0425C96.1248 41.464 84.6845 45.4719 72.1089 45.4719C49.5936 45.4719 30.9523 32.7009 27.6095 16.0197V12.8629C27.6095 12.2615 27.3734 11.6847 26.9531 11.2594C26.5328 10.8341 25.9628 10.5952 25.3684 10.5952C24.7741 10.5952 24.204 10.8341 23.7838 11.2594C23.3635 11.6847 23.1274 12.2615 23.1274 12.8629V21.698C23.1274 21.9138 23.1945 22.1076 23.2458 22.3014C21.7492 25.7719 20.8567 29.4541 20.8567 33.3242C20.8567 52.5788 41.0203 68.2249 65.9386 68.2249C86.8347 68.2249 104.447 57.2221 109.544 42.2652C109.605 42.2026 109.645 42.1223 109.658 42.0354C110.284 40.7168 110.624 39.3441 110.624 38.1953C110.736 36.2493 110.169 34.6389 108.981 33.9556Z" fill="#FBCB43"/>
<path d="M25.9331 24.627C25.9331 24.627 47.1511 74.039 104.657 39.412C104.657 39.412 89.8261 54.9843 70.4977 58.7684C53.043 62.189 27.1198 52.2151 25.9331 24.627Z" fill="#F5B400"/>
<path d="M110.55 36.4471C110.195 37.3022 108.817 37.534 107.482 36.9666C106.145 36.3892 105.354 35.2283 105.709 34.3752C106.07 33.5161 107.443 33.2883 108.777 33.8617C110.114 34.4331 110.91 35.59 110.55 36.4471Z" fill="#79544E"/>
<path d="M146.542 60.6965C146.542 61.5037 146.423 62.3109 146.171 63.1061C145.902 64.0472 145.432 64.9782 144.812 65.8933C144.21 66.8223 143.41 67.7454 142.462 68.6425C141.473 69.5995 140.285 70.5306 138.928 71.4317C137.227 72.5513 135.447 73.5436 133.603 74.4007C131.37 75.4565 129.081 76.387 126.747 77.1879C123.887 78.1795 120.983 79.0349 118.044 79.7513C117.306 79.9272 116.55 80.0104 115.793 79.999H40.347C39.5118 79.999 38.7339 79.9171 38.0921 79.7513C35.1535 79.0353 32.2498 78.1799 29.3905 77.1879C27.0563 76.3875 24.7676 75.4571 22.535 74.4007C20.6923 73.5432 18.9138 72.5509 17.2137 71.4317C15.9525 70.611 14.7669 69.6768 13.6715 68.6405C12.7845 67.821 11.9964 66.8982 11.3238 65.8913C10.7272 65.041 10.268 64.1002 9.96337 63.1041C9.71746 62.3252 9.59354 61.5122 9.59611 60.6945C9.59611 59.9293 11.385 59.304 13.5609 59.304H142.577C144.753 59.304 146.54 59.9293 146.54 60.6945" fill="#9D6C4E"/>
<path d="M76.7095 63.1062H9.96729C10.2398 64.0472 10.7038 64.9783 11.3257 65.8934H144.812C145.432 64.9783 145.902 64.0472 146.171 63.1062H76.7075H76.7095ZM76.7095 68.6406H13.6715C14.6666 69.5996 15.8493 70.5287 17.2117 71.4318H138.924C140.283 70.5287 141.471 69.5996 142.458 68.6406H76.7075H76.7095ZM76.7095 74.3988H22.535C24.5924 75.3838 26.8848 76.3208 29.3905 77.19H126.747C129.081 76.3878 131.37 75.456 133.603 74.3988H76.7095Z" fill="#AD7C5E"/>
</svg>
