<svg width="140" height="80" viewBox="0 0 140 80" fill="none" xmlns="http://www.w3.org/2000/svg">
<path d="M40.981 71.5072L42.6077 75.8908C42.6077 75.8908 49.1148 80.0003 69.1782 80.0003C89.2416 80.0003 99.2733 74.5209 99.2733 74.5209L100.9 69.0415L40.981 71.5072Z" fill="url(#paint0_linear_20015_111948)"/>
<path d="M139.942 16.9862C130.182 58.0818 108.492 76.4379 69.9916 76.4379C31.4916 76.4379 7.63245 61.3695 0.0408931 16.9862C-1.31474 9.04104 31.2205 0 69.9916 0C108.492 0 141.569 9.31501 139.942 16.9862Z" fill="url(#paint1_linear_20015_111948)"/>
<g style="mix-blend-mode:overlay" opacity="0.2">
<path d="M137.502 12.8774C138.587 16.1651 136.689 20.5486 135.604 24.3842C122.861 64.6579 92.2241 80.2742 49.9283 73.9729C41.2522 72.6031 32.8473 69.8634 25.798 65.2059C25.5269 64.9319 25.2557 64.9319 24.9846 64.9319C36.372 73.425 51.555 76.7126 69.9917 76.7126C108.492 76.7126 130.182 58.6306 139.942 17.261C140.214 15.6172 139.4 14.2473 137.502 12.8774Z" fill="url(#paint2_linear_20015_111948)"/>
</g>
<path d="M139.942 16.9862C139.942 26.3012 108.492 34.7943 69.9916 34.7943C31.4916 34.7943 0.0408936 26.3012 0.0408936 16.9862C0.0408936 7.67118 31.2205 0 69.9916 0C108.492 0 139.942 7.67118 139.942 16.9862Z" fill="url(#paint3_linear_20015_111948)"/>
<g style="mix-blend-mode:overlay" opacity="0.2">
<path d="M139.942 16.9862C139.942 26.3012 108.492 34.7943 69.9916 34.7943C31.4916 34.7943 0.0408936 26.3012 0.0408936 16.9862C0.0408936 7.67118 31.2205 0 69.9916 0C108.492 0 139.942 7.67118 139.942 16.9862Z" fill="url(#paint4_linear_20015_111948)"/>
</g>
<path d="M69.9916 0C31.4916 0 0.0408936 7.67118 0.0408936 16.9862C0.0408936 26.3012 31.2205 34.7943 69.9916 34.7943C108.492 34.7943 139.942 26.3012 139.942 16.9862C139.942 7.67118 108.492 0 69.9916 0ZM69.9916 33.4244C32.8472 33.4244 1.39653 25.4793 1.39653 16.4382C1.39653 7.67118 32.8472 0.547944 69.9916 0.547944C107.136 0.547944 138.316 7.67118 138.316 16.4382C138.316 25.4793 107.136 33.4244 69.9916 33.4244Z" fill="url(#paint5_linear_20015_111948)"/>
<path opacity="0.7" d="M28.7803 31.2323C28.7803 31.2323 29.3225 31.2323 30.1359 31.5062C30.6782 31.5062 30.9493 31.7802 31.7627 31.7802C32.0338 31.7802 32.3049 31.7802 32.8472 32.0542C33.1183 32.0542 33.6606 32.0542 33.9317 32.3282C34.7451 32.3282 35.5585 32.6021 36.643 32.6021C37.1852 32.6021 37.7275 32.8761 37.9986 32.8761C38.5409 32.8761 39.0831 32.8761 39.6254 33.1501C40.7099 33.1501 41.7944 33.424 43.15 33.698C44.5056 33.698 45.5901 33.972 46.9458 33.972C48.3014 34.246 49.6571 34.2459 51.2838 34.2459C52.0972 34.2459 52.6395 34.2459 53.4528 34.5199C54.2662 34.5199 55.0796 34.5199 55.6219 34.5199C58.6043 34.7939 61.8578 34.7939 65.3824 34.7939C67.0092 34.7939 68.9071 34.7939 70.5339 34.7939C72.1606 34.7939 74.0585 34.7939 75.6852 34.7939C79.2099 34.7939 82.7346 34.5199 86.5303 34.2459C90.055 33.972 93.8508 33.698 97.3754 33.1501C100.9 32.6021 104.425 32.3282 107.678 31.7802C109.305 31.5062 110.932 31.2323 112.559 30.9583C114.185 30.6843 115.812 30.4104 117.168 29.8624C120.15 29.0405 123.132 28.4926 125.573 27.6707C128.284 26.8487 130.453 26.0268 132.622 24.9309C133.706 24.383 134.52 23.8351 135.333 23.2871C136.147 22.7392 136.96 22.1912 137.502 21.6433C138.044 21.0954 138.587 20.5474 139.129 19.9995C139.4 19.4515 139.671 18.9036 139.942 18.6296V18.3556V18.0817C139.942 17.8077 139.942 17.8077 139.942 17.5337C139.942 17.5337 139.942 17.8077 139.942 18.0817V18.3556V18.6296C139.671 19.4515 138.858 20.8214 137.773 21.9173C137.231 22.4652 136.418 23.0132 135.604 23.5611C134.791 24.109 133.978 24.657 132.893 25.2049C130.995 26.3008 128.555 27.1227 125.844 28.2186C123.132 29.0405 120.421 29.8624 117.439 30.6843C115.812 30.9583 114.456 31.5062 112.83 31.7802C111.203 32.0542 109.576 32.3282 107.949 32.6021C104.696 33.1501 101.171 33.698 97.6466 33.972C94.1219 34.246 90.5973 34.5199 86.8015 34.7939C83.2768 35.0679 79.481 35.0679 75.9564 35.3418C74.0585 35.3418 72.4317 35.3418 70.805 35.3418C69.1782 35.3418 67.2803 35.3418 65.6536 35.3418C64.8402 35.3418 64.0268 35.3418 63.2134 35.3418C62.4 35.3418 61.5866 35.3418 60.7733 35.3418C59.1465 35.3418 57.5197 35.0679 55.893 35.0679C55.0796 35.0679 54.2662 35.0679 53.7239 34.7939C52.9106 34.7939 52.0972 34.7939 51.555 34.5199C50.1993 34.5199 48.5726 34.2459 47.2169 34.2459C45.8613 33.972 44.5057 33.972 43.4212 33.698C42.0655 33.424 40.981 33.424 39.8965 33.1501C39.3542 33.1501 38.812 33.1501 38.2697 32.8761C37.7275 32.8761 37.1852 32.6021 36.9141 32.6021C36.1007 32.3282 35.0162 32.3282 34.2028 32.3282C33.9317 32.3282 33.3894 32.3282 33.1183 32.0542C32.8472 32.0542 32.576 32.0542 32.0338 31.7802C31.4915 31.7802 30.9493 31.5062 30.4071 31.5062C29.0514 31.2323 28.7803 31.2323 28.7803 31.2323Z" fill="url(#paint6_linear_20015_111948)"/>
<path d="M125.301 25.7526C123.675 24.6567 121.777 23.8348 119.879 23.5608C117.981 23.0129 116.354 21.917 114.456 21.0951C112.016 19.7252 109.305 19.9992 106.865 19.7252C106.051 19.4513 105.509 19.4513 104.696 19.1773C103.611 18.9033 102.527 18.9033 101.713 18.9033C100.629 18.9033 99.8155 18.9033 98.731 18.6294C97.9177 18.3554 96.8331 18.0814 96.0198 17.5335C95.2064 17.2595 94.1219 16.9855 93.3085 16.7116C92.224 16.7116 91.1395 16.7116 90.055 16.7116C88.9705 16.7116 87.886 16.7116 86.8015 16.9855C85.717 16.9855 84.6324 17.2595 83.5479 17.2595C81.3789 16.9855 79.481 16.4376 77.5831 16.7116C76.4986 16.9855 75.4141 16.9855 74.3296 16.9855C73.2451 16.9855 72.1606 16.4376 71.0761 16.4376C69.9916 16.1636 68.9071 16.4376 68.0937 16.4376C67.0092 16.4376 65.9247 16.4376 64.8402 16.1636C63.7557 15.8896 62.9423 15.8896 61.8577 15.8896C60.7732 15.8896 59.9599 16.1636 58.8754 16.1636C57.2486 16.4376 55.6218 16.9855 53.9951 16.9855C53.1817 16.9855 52.0972 16.9855 51.2838 16.7116C50.4704 16.7116 49.6571 16.7116 48.5725 16.7116C47.2169 16.9855 46.1324 17.2595 44.7768 17.5335C43.4212 17.8074 42.3366 17.8074 40.981 17.8074C39.8965 17.8074 38.812 17.8074 37.7275 17.8074C36.643 17.8074 35.8296 18.0814 34.7451 18.3554C33.6605 18.6294 32.8472 18.9033 31.7627 19.1773C30.6782 19.4513 29.5937 19.7252 28.5092 19.7252C26.3402 19.9992 24.4422 20.2732 22.5443 21.0951C20.1042 22.191 18.2063 23.8348 15.7662 24.6567C14.9528 24.9307 14.4105 25.2047 13.8683 25.7526C13.8683 25.7526 13.8683 25.7526 14.1394 25.7526C26.6113 30.1361 47.488 33.1498 70.2627 33.1498C93.0374 33.1498 113.643 30.1361 126.115 25.7526H126.386C125.844 26.0266 125.573 25.7526 125.301 25.7526Z" fill="url(#paint7_linear_20015_111948)"/>
<g opacity="0.6">
<path d="M125.301 25.7532C123.675 24.6573 121.777 23.8354 119.879 23.5615C117.981 23.0135 116.354 21.9176 114.456 21.0957C112.016 19.7259 109.305 19.9998 106.865 19.7259C106.051 19.4519 105.509 19.4519 104.696 19.1779C103.611 18.904 102.527 18.904 101.713 18.904C100.629 18.904 99.8155 18.904 98.731 18.63C97.9176 18.356 96.8331 18.082 96.0197 17.5341C95.7486 18.082 95.2064 18.356 94.6641 18.356C93.8507 18.356 93.3085 18.082 92.4951 17.8081C91.6817 17.5341 91.1395 17.5341 90.5972 17.5341C90.0549 17.5341 88.4282 18.082 88.4282 16.9862C88.4282 16.7122 88.4282 16.7122 88.4282 16.4382C87.8859 16.4382 87.6148 16.4382 87.0725 16.4382C85.988 16.4382 84.9035 16.7122 83.819 16.7122C83.0056 16.7122 82.1923 16.4382 81.3789 16.4382C80.8366 16.7122 80.2944 16.9862 79.481 17.2601C78.6676 17.8081 77.5831 17.8081 76.7697 17.2601C76.4986 16.9862 75.9563 16.7122 75.6852 16.4382C75.4141 16.4382 74.8718 16.4382 74.6007 16.4382C74.0585 16.4382 73.5162 16.4382 72.9739 16.1642C71.8894 16.9862 70.8049 17.8081 69.4493 17.8081C68.3648 17.8081 67.8225 17.5341 67.0092 16.7122C66.738 16.4382 66.4669 15.8903 65.9246 15.6163C65.6535 15.6163 65.3824 15.3423 65.1113 15.3423C64.0268 15.0684 63.2134 15.0684 62.1289 15.0684C61.8577 15.0684 61.5866 15.0684 61.3155 15.0684C60.5021 15.3423 59.6887 15.6163 58.8753 16.1642C58.062 16.7122 57.2486 17.8081 56.1641 18.356C55.0796 18.63 53.9951 18.082 52.9106 18.356C51.5549 18.356 50.4704 18.904 49.1148 19.4519C48.0303 19.7259 46.9458 19.9998 45.8612 19.7259C44.5056 19.4519 43.6922 18.356 42.6077 17.5341C42.3366 17.5341 42.0655 17.5341 41.7943 17.5341C40.7098 17.5341 39.6253 17.5341 38.5408 17.5341C37.4563 17.5341 36.6429 17.8081 35.5584 18.082C34.4739 18.356 33.6605 18.63 32.576 18.904C31.4915 19.1779 30.407 19.4519 29.3225 19.4519C29.3225 19.4519 29.3225 19.4519 29.0514 19.4519C28.7803 19.4519 28.5091 19.7259 28.238 19.9998C27.9669 20.2738 26.8824 20.5478 26.8824 21.0957C26.8824 21.3697 27.4246 21.6437 27.4246 22.1916C27.4246 22.7395 26.8823 23.2875 26.6112 23.5615C25.7978 23.8354 25.2556 23.5615 24.4422 23.2875C23.6288 23.0135 22.5443 23.0135 21.731 23.0135C20.6465 23.0135 19.5619 23.0135 18.4774 23.2875C17.9351 23.5615 17.1218 23.8354 16.5795 24.1094C15.7661 24.3834 15.2239 24.6573 14.6816 25.2053C14.6816 25.2053 14.6817 25.2053 14.9528 25.2053C26.3401 29.0409 44.2345 32.0546 64.569 32.6025C64.8401 31.7806 65.3824 31.2326 66.1958 30.6847C67.0091 30.1368 68.0937 29.5888 68.907 29.3148C69.7204 29.0409 70.8049 28.7669 71.6183 29.0409C72.9739 29.3148 74.0584 30.1368 75.4141 30.4107V30.6847C75.6852 30.6847 76.2275 30.9587 76.4986 31.2326C77.0409 31.7806 76.7697 32.3285 76.2275 32.6025C80.8366 32.6025 85.1747 32.3285 89.5127 32.0546C90.3261 31.7806 90.8683 31.2326 91.4106 30.6847C91.9528 30.4107 92.4951 29.8628 93.0373 29.8628C93.3084 29.8628 93.8507 29.5888 94.1219 30.1368C94.393 30.4107 94.393 31.2326 94.9352 31.5066L95.2063 31.7806C100.9 31.2326 106.051 30.4107 110.932 29.5888C110.661 29.0409 109.847 28.4929 109.576 28.219C109.034 27.945 108.763 27.671 108.22 27.1231C107.949 26.8491 107.678 26.8491 107.678 26.5751C109.034 26.0272 110.661 26.8491 112.016 26.8491C112.83 26.8491 113.643 26.5751 114.456 26.5751C114.999 26.3012 115.812 26.3012 116.354 26.5751C117.981 27.1231 119.608 27.671 121.506 27.671C123.675 27.1231 125.573 26.5751 127.199 26.0272H127.47C125.844 26.0272 125.573 25.7532 125.301 25.7532ZM49.9282 26.3012C49.3859 26.5751 48.8436 26.8491 48.3014 26.8491C47.7591 27.1231 46.1324 27.1231 46.1324 28.219C46.1324 29.0409 47.488 29.3148 48.0303 29.3148C48.3014 29.5888 48.8436 29.5888 49.1148 30.1368C49.3859 30.4107 49.3859 30.4107 49.3859 30.6847C49.3859 31.2326 48.0303 31.2326 47.7591 30.9587C46.4035 30.9587 45.319 30.4107 44.2345 30.1368C43.4211 30.1368 42.3366 30.4107 41.5232 30.1368C40.4387 29.8628 39.6253 28.7669 38.5408 28.4929C37.4563 28.219 36.3718 28.219 35.5584 27.397C35.5584 27.397 35.5584 27.397 35.5584 27.1231C36.3718 25.4793 37.9986 25.7532 39.0831 24.6573C39.0831 24.6573 39.0831 24.6573 39.3542 24.6573C39.8965 27.1231 42.6077 27.1231 44.5056 26.8491C45.5901 26.5751 46.6746 26.5751 48.0303 26.3012C48.3014 26.3012 49.1148 26.3012 49.9282 26.3012ZM72.1606 24.3834C71.6183 24.3834 71.0761 24.6573 70.5338 24.6573C69.9916 24.9313 69.4493 24.9313 68.907 25.2053C68.3648 25.2053 68.0937 24.9313 67.5514 24.6573C67.0091 24.1094 66.1958 23.8354 65.6535 23.5615C64.569 24.1094 63.2134 23.5615 61.8577 24.1094C60.5021 24.6573 59.4176 25.2053 58.062 25.2053C58.062 25.2053 58.062 25.2053 58.062 24.9313C58.8753 24.1094 59.6887 23.2875 60.7732 23.2875C61.5866 23.2875 62.1289 23.2875 62.9423 23.2875C63.7556 23.2875 64.2979 23.2875 65.1113 23.0135C65.1113 23.0135 65.1113 23.0135 65.1113 22.7395C66.1958 21.6437 67.5514 20.8218 68.6359 20.8218C69.9915 20.8218 71.0761 22.1916 72.4317 22.1916C72.4317 22.1916 72.4317 22.1916 72.4317 22.4656C72.7028 22.4656 72.974 22.7395 73.2451 23.0135C74.0585 23.8354 72.7028 24.1094 72.1606 24.3834ZM86.8014 23.0135C86.2592 24.6573 85.4458 26.3012 84.0902 27.1231C82.7345 27.945 81.1077 28.219 79.7521 27.945C78.1254 27.671 77.0409 26.8491 76.4986 25.2053C76.2275 24.1094 75.9564 22.4656 77.312 22.4656C77.8542 22.1916 78.1254 21.9176 78.6676 21.6437C79.481 21.3697 80.0232 21.3697 80.8366 21.3697C81.9211 21.6437 82.7345 22.1916 83.819 22.4656C84.9035 22.7395 85.9881 22.7395 86.8014 23.0135ZM102.256 25.4793C101.442 26.0272 100.358 26.3012 99.2733 26.3012C97.6465 26.3012 94.1219 26.0272 94.1219 23.2875C93.8507 23.2875 93.8507 23.2875 93.5796 23.0135V22.7395C93.8507 22.7395 93.8507 22.7395 94.1219 23.0135H94.393C95.2063 23.2875 95.7486 23.0135 96.562 23.0135C97.1042 23.0135 97.9176 22.7395 98.731 23.0135C99.5444 23.2875 100.629 23.8354 101.442 24.1094C101.713 24.3834 102.527 24.3834 102.798 24.9313C102.527 24.9313 102.256 25.4793 102.256 25.4793Z" fill="url(#paint8_radial_20015_111948)"/>
</g>
<g opacity="0.6">
<path d="M107.678 29.3154C106.865 29.0414 106.052 28.7675 105.238 28.4935C103.883 28.2195 102.798 27.6716 101.714 26.8497C101.171 26.5757 100.9 26.0277 100.358 25.7538C100.087 25.7538 99.5445 25.7538 99.2734 25.7538C97.9177 25.7538 95.2064 25.4798 94.3931 23.836C93.5797 23.562 93.0375 23.562 92.2241 23.562C91.4107 23.836 90.5973 24.11 89.7839 24.3839C88.6994 24.6579 87.3438 24.6579 86.2593 24.6579C85.717 25.4798 85.1748 26.3017 84.3614 26.8497C83.0057 27.6716 81.379 27.9455 80.0234 27.6716C78.6677 27.3976 77.5832 26.5757 77.041 25.2058C76.4987 25.2058 75.6853 24.9319 75.1431 24.6579C73.7874 24.3839 72.7029 24.3839 71.3473 24.6579C69.9916 24.9319 68.9071 25.2058 67.5515 25.2058C67.0093 25.2058 66.467 25.2058 65.9247 24.9319C65.3825 24.6579 64.8403 24.3839 64.298 24.11C63.2135 23.836 62.129 23.836 61.0445 24.3839C59.4177 25.4798 58.6043 27.9455 56.9776 28.7674C56.1642 29.0414 55.3508 29.0414 54.5374 28.7674C53.724 28.2195 52.9107 27.6716 52.0973 27.1236C51.8262 27.1236 51.8262 27.1236 51.555 27.1236C50.7417 27.1236 50.1994 27.1236 49.386 27.3976C48.8438 27.3976 48.0304 27.9455 48.5726 28.4935C49.1149 29.0414 49.9283 29.3154 50.1994 30.1373C50.4705 30.6852 50.7416 31.2332 51.0127 31.5072C51.2839 32.0551 51.8261 32.3291 52.3684 32.603C52.6395 32.603 52.6395 32.603 52.9107 32.877C54.8086 32.877 56.9776 33.151 58.8755 33.151C59.4177 32.877 59.9599 32.877 60.5022 32.603C61.3156 32.0551 61.0445 31.2332 60.7733 30.4113C60.5022 29.5894 60.2311 28.7675 60.5022 27.9455C60.7733 27.1236 61.3156 26.8497 62.129 27.1236C62.9424 27.3976 63.4846 27.9455 64.298 28.4935C65.3825 29.3154 66.467 28.7674 67.5515 28.7674C68.9071 28.4935 69.9917 29.0414 71.0762 29.5894C72.4318 30.1373 73.5163 30.6852 74.8719 30.6852C75.9564 30.6852 77.3121 30.9592 78.3966 31.5072C79.21 31.7811 80.0233 32.3291 80.8367 32.603C83.0057 32.877 85.1748 32.877 87.3438 32.603C89.5128 32.3291 91.6818 31.2332 93.3086 29.3154H93.5797C92.7663 31.5072 94.122 32.3291 96.0198 32.603C100.358 32.0551 104.154 31.5072 107.949 30.9592L108.221 30.6852C108.492 29.8633 107.949 29.5894 107.678 29.3154Z" fill="url(#paint9_radial_20015_111948)"/>
<path d="M121.235 24.3831C120.15 24.1091 119.066 24.1091 117.981 24.1091C117.168 24.1091 116.083 23.8352 115.541 23.0132C115.27 22.7393 114.999 22.1913 114.728 22.1913C114.185 22.1913 113.372 22.4653 112.83 22.4653C111.745 22.7393 110.661 22.7393 109.576 22.1913C109.034 21.9174 108.492 21.6434 107.949 21.3694C107.407 21.0955 106.594 20.8215 106.051 20.8215C104.696 20.8215 103.611 20.8215 102.256 20.5475C100.9 20.2735 99.8156 19.9996 98.4599 19.7256C97.6465 19.7256 96.562 19.7256 95.7486 19.4516C95.4775 19.4516 95.2064 19.1776 94.9353 19.1776C94.1219 19.1776 93.0374 18.6297 92.224 18.3557C90.8684 18.0818 89.5128 18.3557 88.1571 18.3557C85.4459 18.3557 83.0057 17.5338 80.2944 17.5338C78.9388 17.5338 77.5831 18.0818 76.2275 18.3557C74.8719 18.3557 73.7874 18.0818 72.7029 18.0818C71.3472 18.0818 69.9916 18.3557 68.6359 18.3557C67.2803 18.3557 65.9247 18.0818 64.8402 17.8078C62.6712 17.2599 60.231 16.9859 58.3332 17.8078C57.2486 18.3557 56.7064 19.1777 55.6219 19.4516C54.8085 19.7256 53.724 19.7256 52.9106 19.7256C51.555 19.4516 50.4705 19.7256 49.386 20.5475C48.5726 21.0954 48.3015 22.1913 47.4881 22.1913C46.6747 22.4653 45.5902 22.1913 44.7768 21.6434C43.9634 21.0954 43.4212 20.2735 42.6078 19.7256C41.5233 18.9037 40.1676 18.3557 38.812 18.3557C37.7275 18.3557 36.643 18.3557 35.5585 18.9037C34.7451 19.4516 33.9317 19.9996 32.8472 20.2735C32.0338 20.5475 31.4915 20.5475 30.6782 20.5475C29.8648 20.5475 29.0514 20.5475 28.238 21.0954C27.4247 21.6434 26.8824 23.0132 27.6958 23.5612C27.9669 23.8352 28.7803 24.1091 28.7803 24.931C28.7803 25.479 27.6958 25.479 27.4247 25.479C24.9845 25.479 22.2732 24.931 19.8331 24.931C18.7486 24.931 17.9352 24.931 16.8507 25.479C16.5796 25.479 15.4951 26.0269 15.2239 26.3009C18.2063 27.3968 21.731 28.2187 25.7979 29.0406C27.1536 28.7666 28.5092 27.6707 29.8648 27.1228C31.7627 26.3009 33.6606 26.8488 35.5585 26.3009C36.1007 26.0269 36.9141 25.753 37.4563 25.479C37.7275 25.205 38.2697 24.931 38.5409 24.6571C38.812 24.3831 38.812 24.3831 39.0831 24.1091C39.6254 23.8352 40.1676 24.3831 40.4388 24.6571C40.981 25.205 41.5233 25.7529 42.3366 26.0269C43.15 26.5749 43.9634 26.8488 44.7768 26.8488C45.5902 26.8488 46.4035 26.5749 47.2169 26.3009C48.5726 25.753 50.1993 25.205 51.555 25.205C52.0972 25.205 52.9106 25.479 53.4529 25.479C53.9951 25.479 54.8085 25.479 55.3507 25.205C56.7064 24.6571 57.7909 23.8352 58.8754 23.0132C59.6888 22.4653 60.7733 21.9174 61.5867 21.6434C62.6712 21.3694 64.0268 21.3694 65.1113 21.0954C65.6536 20.8215 66.1958 20.5475 67.0092 20.2735C67.5515 19.9996 68.0937 19.7256 68.6359 19.7256C69.7205 19.4516 70.805 20.2735 71.8895 20.5475C73.2451 20.8215 74.6008 21.0954 75.6853 21.0954C77.0409 21.0954 78.1254 20.5475 79.481 20.2735C80.0233 20.2735 80.5656 20.2735 81.1078 20.2735C81.6501 20.2735 82.1923 20.5475 83.0057 20.8215C84.3613 21.0955 85.717 21.3694 87.0726 21.0954C88.1571 20.8215 89.2416 20.2735 90.5973 19.7256C91.6818 19.4516 92.4952 19.1777 93.5797 19.7256C94.6642 20.2735 95.4775 21.0954 96.8332 21.0954C97.6466 21.0954 99.2733 20.5475 99.8156 21.3694C100.358 21.9174 100.9 22.1913 101.442 22.4653C101.985 22.4653 102.527 22.7393 103.069 23.0132C103.882 23.5612 104.696 24.3831 105.509 24.931C107.407 26.5749 110.118 26.0269 112.287 25.753C113.372 25.479 114.456 25.479 115.27 25.479C116.354 25.753 117.439 26.3009 118.523 26.5749C119.337 26.8488 120.421 26.8488 121.235 26.5749C121.777 26.3009 122.59 26.0269 123.132 25.479C123.132 24.931 121.777 24.6571 121.235 24.3831Z" fill="url(#paint10_radial_20015_111948)"/>
</g>
<path d="M101.442 19.4514C101.171 18.9034 99.5445 15.6158 98.7311 16.4377C98.46 16.4377 97.1043 16.4377 97.1043 16.4377C96.5621 16.1637 96.0198 16.7116 95.4776 17.2596C95.2064 16.7116 95.7487 16.1637 95.4776 15.6158C94.9353 15.0678 94.393 15.8897 93.8508 16.4377C92.7663 17.5336 91.9529 19.4514 93.5797 20.2733C94.9353 21.0952 96.8332 21.0952 98.4599 21.0952C98.7311 21.3691 101.985 20.8212 101.442 19.4514C101.442 19.7253 100.9 18.6294 101.442 19.4514Z" fill="#BC7311"/>
<path d="M100.087 16.9865C100.358 16.1646 99.5445 16.1646 99.2733 16.7125C98.7311 15.8906 97.3755 15.0687 96.291 15.3427C96.291 14.2468 94.6642 14.7947 94.393 15.3427C93.8508 15.6166 93.0374 16.4386 93.5797 17.2605C93.3086 17.2605 93.0374 17.2605 93.0374 17.5344C93.0374 18.3563 94.1219 18.0824 93.8508 17.5344C94.3931 17.8084 94.6642 16.7125 95.2064 16.7125C94.9353 16.9865 93.8508 18.3563 93.8508 18.6303C92.7663 18.0824 93.3085 20.0002 93.8508 19.1783C93.8508 19.1783 94.1219 18.9043 94.1219 18.6303L95.4776 18.3563C95.2065 18.3563 95.2064 18.9043 95.2064 18.6303C94.3931 20.8221 97.3754 18.3563 95.7487 18.3563C96.8332 18.0824 96.5621 18.0824 97.1043 18.6303C97.9177 19.4522 98.46 17.8084 98.7311 18.0824C98.1888 18.0824 98.46 18.9043 98.7311 18.9043C99.2734 19.1783 100.087 18.0824 99.2733 18.0824C99.5445 18.0824 99.0022 18.0824 99.0022 18.0824C99.2734 18.0824 98.7311 18.0824 98.7311 18.0824C99.0022 18.0824 99.0022 17.8084 99.0022 17.5344C100.087 19.7262 101.171 17.8084 100.087 16.9865Z" fill="#DB8C18"/>
<path d="M98.46 19.726C98.1888 19.178 97.6466 19.726 97.6466 20.2739C97.9177 20.8219 98.7311 20.2739 98.46 19.726Z" fill="#DB8C18"/>
<path d="M94.1219 16.4386C93.8507 16.4386 93.3085 16.1646 93.3085 16.7126C93.3085 17.8085 94.9352 16.7126 94.1219 16.4386Z" fill="#F7B722"/>
<path d="M100.358 16.9859C100.358 16.7119 100.087 16.7119 99.8155 16.9859C99.8155 16.4379 99.8155 15.89 99.2733 15.616C99.0022 15.342 98.1888 14.5201 98.1888 14.5201C97.3754 14.5201 96.2909 13.9722 95.4775 14.2461C94.6641 14.5201 93.5796 15.616 94.6641 16.4379C95.4775 17.2598 96.0198 16.1639 96.8332 16.1639C96.8332 16.4379 96.562 16.7119 96.562 16.9859C96.2909 16.7119 95.7486 16.7119 95.4775 16.7119C94.1219 17.5338 97.1043 18.6297 96.8332 17.2598C97.1043 17.5338 97.9176 17.2598 97.9176 16.9859C98.1888 17.2598 99.2733 17.8078 99.8155 17.2598C99.8155 18.3557 101.171 17.8078 100.358 16.9859Z" fill="#F7B722"/>
<path d="M97.6465 17.8083C97.1043 17.5343 96.8331 18.3562 97.3754 18.6302C97.9177 18.6302 98.1888 17.8083 97.6465 17.8083C97.9177 17.8083 97.6465 17.5343 97.6465 17.8083Z" fill="#F7B722"/>
<path d="M96.562 23.2875C96.2909 21.9176 95.7487 22.1916 94.9353 21.6437C94.393 21.3697 93.8508 21.3697 93.5797 21.9176C93.3085 21.6437 92.7663 21.6437 92.224 21.9176C91.9529 21.3697 90.8684 21.0957 90.3261 21.3697C89.5127 21.6437 88.9705 23.8354 88.6994 24.6573C88.4282 26.0272 89.2416 26.0272 89.7839 26.5751C90.5972 27.397 91.9529 27.671 93.0374 27.397C95.7486 27.397 97.3754 26.5751 96.562 23.2875C96.8332 24.3834 96.2909 23.0135 96.562 23.2875ZM94.393 23.2875C94.393 23.5614 94.6641 23.0135 94.393 23.2875V23.2875Z" fill="#BC7311"/>
<path d="M96.562 22.7392C96.0198 21.0954 93.8508 20.2735 92.4951 21.6433C92.7663 20.8214 91.6818 21.3693 91.4106 21.0954C91.1395 20.2735 90.3261 21.9173 90.3261 21.9173C89.5127 21.9173 90.5973 23.2871 90.5973 22.4652C90.8684 22.4652 91.1395 22.4652 91.4106 22.4652C91.6818 23.0132 90.8684 23.2871 91.4106 23.5611C91.9529 24.1091 92.4952 23.0132 92.7663 23.0132C92.224 24.1091 93.0374 25.2049 94.1219 24.383C94.9353 23.8351 94.6642 24.109 94.6642 23.2871C94.9353 23.2871 94.9353 23.2871 95.2064 23.2871C94.393 24.109 96.2909 24.383 96.2909 23.8351C96.5621 24.109 96.562 23.2871 96.562 22.7392Z" fill="#DB8C18"/>
<path d="M94.3931 24.9306C94.3931 24.3827 93.8508 24.6566 93.8508 24.9306C93.3086 25.4786 94.3931 26.0265 94.3931 24.9306C94.3931 25.2046 94.3931 25.2046 94.3931 24.9306Z" fill="#DB8C18"/>
<path d="M92.4952 24.1091C92.224 23.8351 91.6818 24.1091 91.9529 24.657C92.224 24.931 92.7663 24.383 92.4952 24.1091Z" fill="#DB8C18"/>
<path d="M95.4775 24.383C95.2064 24.109 94.9353 24.383 94.9353 24.657C95.2064 25.2049 95.7487 24.931 95.4775 24.383Z" fill="#DB8C18"/>
<path d="M90.8684 21.644C90.8684 21.096 90.3262 21.37 90.0551 21.644C90.0551 22.7399 91.4107 22.4659 90.8684 21.644Z" fill="#F7B722"/>
<path d="M95.4774 21.9173L94.6641 21.0953C94.3929 21.0953 93.8507 20.2734 93.5796 20.2734C93.3084 20.2734 93.0373 20.5474 92.7662 20.5474C92.4951 20.2734 91.9528 20.2734 91.6816 20.5474C90.8683 21.0953 91.4106 21.9173 92.2239 21.9173C90.8683 22.7392 94.1218 22.7392 92.495 21.9173C92.7662 21.9173 93.0373 21.6433 93.3084 21.6433C93.0373 21.6433 92.7662 24.109 93.8507 23.2871C94.3929 22.7392 93.8507 21.9173 93.5796 21.6433C94.1218 21.9173 94.3929 21.3693 94.9352 21.6433C93.3084 23.2871 96.8331 22.4652 95.4774 21.9173Z" fill="#F7B722"/>
<path d="M78.3966 18.3566C78.3966 17.5347 77.8543 16.1649 77.041 15.8909C76.7698 15.8909 75.9564 15.6169 76.7698 16.7128C75.9564 17.2608 77.3121 16.4389 75.9565 16.7128C74.872 16.7128 75.9565 17.2608 75.1431 16.7128C75.1431 16.1649 75.1431 14.795 74.3297 15.6169C74.0586 15.8909 73.7874 16.1649 73.5163 16.7128C73.2452 16.4389 72.974 16.4388 72.7029 16.4388C73.2452 16.1649 73.2452 14.795 72.4318 15.069C71.8896 14.795 70.5339 15.8909 70.5339 16.1649C70.2628 16.7128 69.1783 18.9046 69.7205 19.1786C71.6184 20.0005 73.2452 20.8224 75.4142 20.8224C76.2276 21.0964 79.7522 19.4525 78.3966 18.3566C78.6677 18.3566 78.3966 18.0827 78.3966 18.3566Z" fill="#BC7311"/>
<path d="M73.7874 18.0825C73.2452 17.5345 72.7029 18.6304 73.2452 18.9044C73.5163 19.4523 74.3297 18.6304 73.7874 18.0825Z" fill="#DB8C18"/>
<path d="M74.8718 18.082C74.6007 18.082 74.6007 18.63 74.8718 18.63C75.1429 18.63 75.1429 18.082 74.8718 18.082Z" fill="#DB8C18"/>
<path d="M77.8542 16.9872C77.312 15.6174 76.2275 14.7955 74.8718 14.5215C74.6007 14.5215 74.0585 14.7955 73.5162 14.7955C73.2451 14.7955 71.3472 15.3434 71.8895 16.1653C70.805 15.6174 71.6183 17.8091 72.7028 16.9872V17.2612C72.1606 16.7133 70.8049 17.5352 70.8049 18.3571C71.0761 19.453 72.7028 18.3571 72.7028 17.5352C73.2451 18.0831 74.0585 17.5352 74.3296 16.9872C74.6007 17.5352 75.143 17.8091 75.4141 17.5352C75.9563 17.2612 75.9564 17.5352 76.4986 17.5352C76.7697 18.3571 77.8542 17.5352 77.8542 16.9872Z" fill="#DB8C18"/>
<path d="M77.041 18.3568C77.041 17.8088 76.2276 18.0828 76.4988 18.6308C76.7699 18.9047 77.3121 18.6307 77.041 18.3568Z" fill="#DB8C18"/>
<path d="M74.6008 15.0684C74.3297 14.2465 73.7874 14.2465 73.2452 14.7945C71.8895 16.1643 75.143 16.7123 74.6008 15.0684Z" fill="#F7B722"/>
<path d="M72.9741 15.8907C72.9741 15.6167 72.703 15.0688 72.4318 15.3427C71.0762 15.8907 72.9741 16.9866 72.9741 15.8907Z" fill="#F7B722"/>
<path d="M75.9564 15.6162C75.9564 14.7943 74.6008 14.2463 74.6008 15.3422C74.6008 16.4381 76.2275 15.8901 75.9564 15.6162C76.2275 15.8901 75.9564 15.0682 75.9564 15.6162Z" fill="#F7B722"/>
<path d="M74.6007 15.8898C73.2451 15.6159 73.7874 17.5337 74.6007 16.7117C74.6007 16.7117 75.143 16.1638 74.6007 15.8898C74.8719 15.8898 74.3296 15.8898 74.6007 15.8898Z" fill="#F7B722"/>
<path d="M77.0409 15.8906C77.0409 15.3426 76.2275 15.6166 76.2275 15.8906C76.2275 16.7125 77.0409 16.4385 77.0409 15.8906Z" fill="#F7B722"/>
<path d="M85.9881 21.096C87.3437 20.822 88.9705 20.548 90.055 19.1782L90.3261 18.9042C90.055 18.0823 89.7839 16.1645 89.2416 16.1645C88.9705 16.1645 87.886 14.5207 87.886 16.1645C87.6149 15.8905 87.3437 15.8905 87.0726 16.4385C86.5303 15.6166 85.9881 15.0686 85.4459 16.1645C85.1747 14.2467 83.5479 15.0686 82.4634 15.3426C81.6501 14.7947 80.2944 16.9864 80.0233 18.6302C80.0233 20.822 84.0902 21.37 85.9881 21.096Z" fill="#BC7311"/>
<path d="M83.5479 17.2611C83.2768 16.7132 81.9212 16.9872 81.9212 17.8091C81.6501 17.5351 81.379 17.8091 81.379 18.0831C81.379 18.631 82.1923 18.631 82.1923 18.0831C82.4634 18.631 83.8191 18.0831 83.5479 17.2611Z" fill="#DB8C18"/>
<path d="M80.8366 17.8081C80.5655 17.8081 80.5655 18.356 80.8366 18.356C81.1078 18.356 81.1078 17.8081 80.8366 17.8081Z" fill="#DB8C18"/>
<path d="M85.988 18.0824C85.4458 17.2605 84.0902 17.2605 84.6324 18.6303C84.9035 19.4523 86.2592 18.9043 85.988 18.0824C85.988 18.3564 85.7169 18.0824 85.988 18.0824Z" fill="#DB8C18"/>
<path d="M84.6325 18.9038C84.0903 18.9038 83.548 19.9997 84.3614 19.9997C84.6325 20.2737 85.1748 19.1778 84.6325 18.9038C84.6325 19.1778 84.3614 18.9038 84.6325 18.9038Z" fill="#DB8C18"/>
<path d="M88.1572 18.6303C87.6149 18.0824 86.8015 19.1782 87.6149 19.7262C87.886 20.0001 88.6995 19.1782 88.1572 18.6303C88.1572 18.9043 87.8861 18.6303 88.1572 18.6303Z" fill="#DB8C18"/>
<path d="M88.4282 15.0688C88.1571 14.7949 87.6149 14.7949 87.3438 15.0688C87.3438 14.7949 87.6149 14.2469 87.0726 14.2469C86.2592 14.2469 86.2592 15.0688 85.9881 15.0688C87.0726 13.699 85.4459 13.425 84.6325 13.699C84.0902 13.699 83.548 13.699 83.2769 13.973C82.7346 14.2469 82.7346 14.5209 82.1923 14.7949C81.6501 15.0688 80.5656 16.7127 81.6501 16.9866C81.9212 16.9866 84.6325 16.9866 84.3613 16.7127C83.548 16.7127 83.8191 18.3565 84.6325 17.8085C84.9036 17.5346 85.4459 17.2606 85.717 17.2606C85.717 18.0825 86.2592 18.6305 87.0726 18.6305C86.8015 18.9044 87.0726 19.1784 87.3438 19.1784C87.6149 19.1784 87.6149 18.6305 87.3438 18.3565L87.886 18.0825C88.1571 17.8086 88.1571 17.2606 88.4282 16.9866C88.6994 16.9866 88.9705 17.8085 88.9705 17.8085C89.2416 17.8085 89.5128 17.2606 89.5128 16.9866C89.7839 16.1647 88.9705 15.3428 88.4282 15.0688C88.9705 15.3428 88.1571 14.7949 88.4282 15.0688Z" fill="#DB8C18"/>
<path d="M89.5127 17.5342C89.2416 17.5342 89.2416 18.0821 89.5127 18.0821C89.7839 18.0821 89.7839 17.5342 89.5127 17.5342Z" fill="#DB8C18"/>
<path d="M88.6994 17.8081C88.1572 17.8081 88.4283 18.63 88.6994 18.63C89.2417 18.3561 88.9705 17.8081 88.6994 17.8081Z" fill="#DB8C18"/>
<path d="M88.9705 15.0688C88.9705 14.5208 88.4283 14.5208 88.1571 14.7948C88.4283 13.6989 86.2593 12.603 85.4459 12.603C84.6325 12.603 82.4635 13.4249 84.0902 14.2468C84.9036 14.7948 85.1747 16.1646 86.5304 15.0688C86.8015 14.7948 87.886 15.6167 88.1571 14.7948C87.6149 16.4386 89.2416 16.1646 88.9705 15.0688C88.9705 15.3427 88.6994 15.0688 88.9705 15.0688Z" fill="#F7B722"/>
<path d="M83.5479 14.5203C83.2767 14.2464 83.0056 14.2464 82.7345 14.5203C82.7345 13.9724 81.9211 13.9724 81.65 14.2464C81.1077 15.0683 82.1922 15.3422 82.4634 14.7943C82.7345 16.4381 83.819 14.7943 83.5479 14.5203C83.5479 14.7943 83.2767 14.5203 83.5479 14.5203Z" fill="#F7B722"/>
<path d="M87.3436 16.1644C87.6148 15.6164 86.5303 15.6164 86.5303 16.1644C86.2591 17.2603 87.6148 16.9863 87.3436 16.1644Z" fill="#F7B722"/>
<path d="M85.7171 16.1641C85.1748 16.1641 85.4459 16.986 85.7171 16.986C86.2593 16.712 86.2593 16.1641 85.7171 16.1641Z" fill="#F7B722"/>
<path d="M81.6501 16.7126C81.6501 15.8907 80.8367 16.4386 80.8367 16.9866C80.5655 17.5345 81.6501 17.5345 81.6501 16.7126C81.6501 16.9866 81.3789 16.4386 81.6501 16.7126Z" fill="#F7B722"/>
<path d="M67.5515 16.9861C67.2804 16.7121 67.2804 15.8902 67.0092 15.6162C66.1959 14.7943 65.9247 15.3422 65.3825 15.8902C65.1113 15.0683 63.7557 13.9724 63.2134 15.3422C62.6712 14.5203 61.8578 15.8902 61.0445 15.8902C61.3156 14.7943 60.7733 14.5203 59.9599 14.7943C59.1465 14.2464 58.8754 16.4381 58.3332 16.9861C57.5198 18.6299 57.7909 20.5477 59.4177 21.0956C60.7733 21.6436 62.9423 21.6436 64.5691 21.3696C65.9247 20.8217 69.4494 19.1778 67.5515 16.9861Z" fill="#BC7311"/>
<path d="M59.4176 17.5342C59.1465 17.5342 58.8754 18.0821 59.1465 18.3561C59.6887 18.3561 59.6888 17.5342 59.4176 17.5342Z" fill="#DB8C18"/>
<path d="M59.1465 16.1641C58.8754 15.8901 58.3332 16.1641 58.3332 16.7121C58.6043 17.26 59.4177 16.7121 59.1465 16.1641Z" fill="#DB8C18"/>
<path d="M66.738 15.0681C66.4668 14.7941 66.4668 15.0681 66.1957 14.7941C65.9246 14.5202 65.1112 14.5201 64.8401 14.2462C64.0267 13.9722 63.2133 14.5202 62.6711 14.5202C62.6711 13.4243 59.9598 13.4243 59.9598 14.5202C59.4175 14.7941 58.6042 16.164 59.6887 16.164C58.8753 17.2599 60.2309 18.0818 60.502 16.7119C60.7732 16.7119 61.0443 16.9859 61.0443 16.7119C60.7732 16.9859 61.5866 18.9037 62.1288 18.3557C62.3999 17.8078 61.8577 17.8078 62.4 17.5338C62.4 18.0818 62.1288 18.6297 62.6711 18.9037C63.2133 19.1777 64.0267 18.9037 64.0267 18.0818C64.2978 18.0818 65.1112 18.0818 65.3823 18.0818C65.6535 18.0818 65.3823 17.2599 65.6535 16.9859C65.9246 16.9859 66.738 16.9859 66.4669 16.4379C66.4669 16.164 66.1957 15.89 65.9246 15.616C65.9246 15.616 66.1957 15.616 66.1957 15.3421C66.1957 16.164 67.2802 15.3421 66.738 15.0681Z" fill="#DB8C18"/>
<path d="M66.738 17.2598C66.4669 17.2598 66.4669 17.8077 66.738 17.8077C67.0091 17.5337 67.0091 17.2598 66.738 17.2598Z" fill="#DB8C18"/>
<path d="M67.0093 15.8896C66.7381 15.8896 66.7381 16.7116 67.0093 16.7116C67.2804 16.7116 67.2804 15.8896 67.0093 15.8896Z" fill="#DB8C18"/>
<path d="M64.5691 13.9717C64.298 13.9717 63.7558 13.9717 63.2135 13.9717C62.4001 13.6978 61.8579 14.2457 61.3156 14.2457C60.2311 14.2457 60.2311 14.2457 59.96 15.0676C59.4177 16.1635 61.3156 15.8895 61.8579 15.3416C62.129 15.6156 62.6713 15.6156 63.2135 15.6156C63.4846 15.6156 64.298 15.3416 64.5691 15.3416C64.8403 14.7936 65.1114 13.9717 64.5691 13.9717Z" fill="#F7B722"/>
<path d="M62.9424 15.8909C62.9424 15.6169 62.6713 15.3429 62.4001 15.6169C62.4001 15.0689 61.8578 15.3429 61.8578 15.3429C61.3156 15.6169 61.8579 16.4388 62.4001 15.8909C62.129 16.7128 63.2135 16.4388 62.9424 15.8909Z" fill="#F7B722"/>
<path d="M64.5691 16.1644C64.5691 15.6164 63.7557 15.6164 63.7557 16.1644C63.4846 16.9863 64.8402 16.9863 64.5691 16.1644Z" fill="#F7B722"/>
<path d="M65.3825 13.9727C64.8402 13.9727 64.5691 14.7946 65.1114 15.0685C65.9248 15.0685 65.9247 13.9727 65.3825 13.9727Z" fill="#F7B722"/>
<path d="M43.4212 19.7264C43.4212 18.9045 42.8789 18.3565 42.6078 17.8086C42.3366 16.9867 41.7944 18.0826 41.7944 18.0826C41.5233 17.8086 40.4387 17.8086 40.1676 17.8086C39.8965 18.0826 39.6254 17.8086 39.6254 17.5346C39.0831 16.9867 38.812 17.2606 38.2697 17.5346C37.9986 16.7127 36.3718 18.0826 36.1007 18.3565C32.8472 22.1921 45.0479 24.6579 43.4212 19.7264C43.6923 20.2743 43.4212 19.1784 43.4212 19.7264Z" fill="#BC7311"/>
<path d="M42.8789 18.0828C42.3366 17.5349 42.6078 17.8089 42.0655 16.987C41.7944 16.713 41.5233 16.713 40.981 16.713C40.4388 16.987 40.1676 16.713 39.6254 16.713C39.3542 16.1651 38.812 16.439 38.5409 16.713C37.9986 16.713 37.9986 16.165 37.4564 16.439C37.1852 16.713 36.1008 17.5349 36.643 18.0828C37.1853 18.9048 37.7275 17.2609 36.9141 18.9048C36.3719 17.5349 36.1007 20.5486 36.9141 19.1787C36.9141 20.5486 39.0831 20.0006 38.5409 18.6308C38.812 18.6308 39.0831 18.6308 39.0831 18.6308C38.812 19.1787 39.3542 19.7267 39.6254 19.4527C39.0831 20.0006 39.8965 20.2746 40.1676 20.0006C40.7099 19.7267 40.4388 18.9048 39.8965 19.1787C39.8965 19.1787 39.8965 18.9048 39.8965 18.6308C40.4388 18.6308 40.7099 19.1787 41.2522 19.1787C40.7099 19.4527 41.5233 20.2746 41.5233 19.7267C41.5233 19.4527 41.5233 19.1787 41.2522 19.1787C42.0655 18.9048 43.9634 18.9048 42.8789 18.0828C43.15 18.0828 42.8789 17.8089 42.8789 18.0828Z" fill="#DB8C18"/>
<path d="M41.5233 16.7128C41.2521 15.6169 39.8965 16.1648 39.0831 16.1648C38.2698 16.1648 37.4564 17.2607 38.5409 17.2607C38.2698 17.5347 38.2698 17.8086 38.5409 18.0826C39.0832 18.6306 39.6254 17.5347 38.812 17.2607C38.812 16.9867 41.7944 17.5347 41.5233 16.7128Z" fill="#F7B722"/>
<path d="M37.4563 16.9868C37.1852 16.9868 37.1852 17.5348 37.4563 17.5348C37.9986 17.5348 37.9986 16.9868 37.4563 16.9868Z" fill="#F7B722"/>
<path d="M42.6077 17.8092C42.6077 17.2612 42.0654 17.2612 41.7943 17.2612C40.9809 17.5352 42.8788 19.453 42.6077 17.8092Z" fill="#F7B722"/>
<path d="M39.8965 17.8081C39.6254 17.8081 39.6254 18.356 39.8965 18.356C40.4388 18.356 40.4388 17.8081 39.8965 17.8081Z" fill="#F7B722"/>
<path d="M117.439 26.575C118.523 26.849 119.879 26.849 120.692 26.3011C120.963 26.0271 121.506 25.7531 121.777 25.4791C121.777 25.2052 121.777 24.6572 121.506 24.1093C121.235 23.5614 119.608 22.4655 119.608 23.8353C119.066 23.5613 118.252 23.8353 117.71 23.8353C117.981 23.0134 116.354 23.5613 116.354 23.5613C115.541 24.3833 115.541 25.2052 116.083 26.0271C116.354 26.3011 116.896 26.575 117.439 26.575Z" fill="#BC7311"/>
<path d="M117.981 24.9313C117.439 24.6574 117.168 26.0272 117.981 25.7532C118.252 25.4793 118.252 24.9313 117.981 24.9313C118.252 24.9313 117.981 24.6574 117.981 24.9313Z" fill="#DB8C18"/>
<path d="M117.168 25.2046C116.897 25.2046 116.625 25.2046 116.625 25.4786C116.625 26.3005 117.71 25.4786 117.168 25.2046Z" fill="#DB8C18"/>
<path d="M121.235 23.5607C120.692 23.0128 120.421 22.1909 119.608 22.1909C118.794 22.1909 117.981 21.095 117.439 22.4649C116.897 22.4649 115.812 24.9306 116.083 24.9306L116.625 24.1087C116.625 25.4785 117.439 24.9306 117.981 24.1087C118.252 24.3827 118.252 25.2046 118.523 24.1087C118.794 24.3827 118.794 24.3827 119.066 24.3827C118.523 24.6566 118.252 26.0265 119.066 26.0265C119.608 26.0265 120.15 25.2046 119.608 24.6566C120.692 24.6566 119.879 24.1087 120.421 24.9306C120.963 25.7525 121.506 24.3827 120.692 24.3827C120.692 24.3827 122.048 24.1087 121.235 23.5607Z" fill="#DB8C18"/>
<path d="M120.963 22.7394C120.421 22.1915 119.337 21.6436 118.523 21.6436C118.252 21.6436 116.896 22.4655 116.896 22.4655C116.083 23.0134 116.625 24.1093 117.71 23.5614C117.71 24.3833 119.065 23.2874 118.252 23.0134C118.523 22.7394 119.337 23.2874 119.879 22.7394C120.15 23.8353 121.506 23.2874 120.963 22.7394C121.234 23.0134 120.692 22.7394 120.963 22.7394Z" fill="#F7B722"/>
<path d="M119.879 23.5609C119.608 23.0129 119.337 23.0129 119.065 23.5609C119.065 24.6567 120.421 24.3828 119.879 23.5609Z" fill="#F7B722"/>
<path d="M45.8613 30.9586C45.319 30.6846 44.5056 29.8627 43.9634 30.1367C42.8789 30.1367 42.3366 30.9586 42.3366 31.7805C43.9634 32.0545 45.5901 32.0545 47.2169 32.3285C46.9458 31.7805 46.1324 31.2326 45.8613 30.9586Z" fill="#C88516"/>
<path d="M45.5901 32.0551C45.8612 32.0551 47.2168 32.877 46.9457 32.0551C46.9457 30.6853 43.6922 28.4935 43.15 30.1373C42.8788 30.4113 42.3366 30.4113 42.3366 30.9593C42.3366 30.9593 42.0655 31.7812 42.6077 31.5072C42.6077 31.5072 43.15 32.0551 43.15 31.5072C43.15 31.2332 43.4211 30.6853 43.6922 30.9593C42.8788 30.9593 43.15 32.3291 43.9634 32.0551C43.9634 32.6031 44.5056 32.3291 44.7767 32.0551C44.5056 32.0551 44.5056 32.0551 44.5056 31.7812C44.7767 31.7812 44.7767 31.7812 44.7767 32.0551C45.0479 31.7812 45.319 32.0551 45.5901 32.0551C45.319 32.0551 45.0478 32.0551 45.0478 32.3291C45.319 32.3291 45.319 32.3291 45.5901 32.3291C45.8612 32.3291 45.8612 32.0551 45.5901 32.0551Z" fill="#F7B722"/>
<path d="M42.3366 31.2339C42.0655 31.2339 42.0655 31.5079 42.3366 31.5079C42.6077 31.5079 42.6077 31.2339 42.3366 31.2339Z" fill="#F7B722"/>
<path d="M22.8155 28.493C23.6289 28.493 28.5092 27.671 27.4246 25.7533C27.4246 25.4793 26.3402 23.5615 26.3402 24.3834C25.5268 24.9313 25.7979 23.8355 24.9845 24.1094C24.1711 24.3834 24.4422 24.1094 23.9 23.5615C23.3577 23.0135 21.731 23.5615 21.731 24.3834C21.4599 23.8355 21.1887 23.8355 20.6465 23.8355C20.1042 23.8355 20.3753 23.5615 19.8331 23.2875C19.0197 22.7396 18.2064 23.0135 17.6641 23.8355C17.1218 23.5615 16.8507 24.9313 16.5796 25.2053C15.7662 26.0272 16.0373 26.5752 17.1218 27.1231C17.3929 27.3971 17.9352 27.3971 18.2063 27.6711C19.0197 27.945 19.8331 28.219 20.6465 28.219C21.4599 28.219 22.2732 28.219 22.8155 28.493Z" fill="#C88516"/>
<path d="M20.1042 25.7544C20.1042 25.4805 19.8331 25.4805 19.562 25.4805C19.8331 25.4805 19.2909 25.4805 19.2909 25.4805C18.2063 25.7544 20.3754 27.6722 20.1042 25.7544Z" fill="#F7B722"/>
<path d="M25.2556 23.2868C24.9845 23.2868 24.9845 23.2868 24.7134 23.2868H24.4423C23.9 23.5608 24.4423 23.2868 23.9 23.2868C24.4423 22.1909 23.3578 22.1909 22.8155 21.917C22.2733 21.643 22.0021 20.8211 21.1887 21.643C20.3753 21.369 20.1042 21.917 19.2909 22.191C18.2063 22.191 18.4775 23.0129 17.9352 23.5608C17.1218 24.3827 17.393 23.8348 17.6641 25.2046C17.393 24.9307 17.1218 25.2046 17.1218 25.4786C17.393 25.7526 17.6641 25.4786 17.6641 25.2046C18.4775 26.3005 19.0197 24.6567 19.562 24.3827C19.8331 24.6567 19.562 25.4786 20.1042 25.2046C20.3754 25.2046 22.0021 24.6567 20.9176 24.1087C21.1888 24.1087 21.1887 24.3827 21.4599 24.6567C22.0021 24.9307 22.2733 23.8348 22.8155 23.8348C21.4599 26.0265 26.8824 24.1087 25.2556 23.2868Z" fill="#F7B722"/>
<path d="M22.2733 25.2053C22.0021 24.9313 21.731 25.2053 21.731 25.4793C21.731 26.8491 23.0866 25.7532 22.2733 25.2053Z" fill="#F7B722"/>
<path d="M24.1711 26.3012C23.9 26.0272 23.9 26.0272 23.6289 26.3012C23.0866 26.8491 24.4423 26.8491 24.1711 26.3012Z" fill="#F7B722"/>
<path d="M27.4245 24.3833C26.8823 22.7395 25.2555 22.1916 24.171 22.1916C22.5443 19.4519 20.9175 23.8354 22.8154 23.2875C23.3576 23.8354 23.8999 23.5614 24.4422 23.5614C24.7133 24.3833 24.4422 24.1094 24.171 24.6573C23.8999 25.2053 26.0689 24.9313 26.0689 24.6573C26.0689 24.9313 26.6112 25.2053 26.8823 25.4792C27.1534 26.8491 27.4245 24.6573 27.4245 24.3833C27.4245 24.6573 27.1534 24.1094 27.4245 24.3833Z" fill="#F7B722"/>
<path d="M25.5268 25.7529C25.2557 25.7529 25.2557 26.3009 25.5268 26.3009C25.798 26.3009 25.798 25.7529 25.5268 25.7529Z" fill="#F7B722"/>
<path d="M21.7309 22.4653C22.2732 21.3694 19.5619 21.6434 19.833 23.0132C19.5619 24.3831 22.2732 23.8351 21.7309 22.4653Z" fill="#FFE16B"/>
<path d="M27.1535 24.1103C27.1535 23.8363 26.3401 23.0144 26.0689 23.2884C26.0689 22.4665 25.2556 21.9185 24.4422 21.6446C23.8999 21.6446 23.6288 21.9185 23.3577 21.6446C23.0865 21.3706 22.8154 21.3706 22.5443 21.3706C22.2731 21.3706 21.4598 22.1925 21.4598 22.4665C21.4598 22.7405 23.0866 23.2884 23.0866 22.7405C23.0866 23.0144 23.3577 23.0144 23.6288 23.0144C23.6288 23.2884 23.8999 23.5624 24.171 23.8363C24.7133 24.3843 25.5267 24.3843 25.7978 23.5624C26.3401 23.8363 27.6957 24.9322 27.1535 24.1103C27.4246 24.3843 27.1535 23.8363 27.1535 24.1103Z" fill="#FFE16B"/>
<path d="M19.0197 23.0136C19.0197 22.1917 18.4774 23.0136 18.4774 23.2876C18.2062 23.8355 19.2908 24.1095 19.0197 23.0136C19.0197 23.2876 19.0197 22.7396 19.0197 23.0136Z" fill="#FFE16B"/>
<path d="M37.1852 23.5622C37.1852 22.7403 36.9141 21.9184 36.3718 21.0965C36.1007 20.8225 35.0162 20.2746 34.745 20.8225C34.2028 22.1924 34.4739 21.3704 33.3894 20.8225C32.8471 20.5485 32.3049 20.8225 31.7627 21.0965C31.4915 20.8225 31.4915 20.2746 31.2204 20.0006C32.3049 19.7266 31.4915 18.9047 30.6781 19.1787C29.8647 19.4526 29.0514 20.5485 28.5091 21.0965C27.4246 22.1924 28.238 23.8362 29.3225 24.6581C30.9493 26.0279 32.8472 26.3019 34.4739 25.754C35.5584 26.0279 37.4563 25.206 37.1852 23.5622C37.1852 24.3841 37.1852 23.0143 37.1852 23.5622Z" fill="#C88516"/>
<path d="M30.4071 20.2749C30.136 20.2749 30.136 20.8228 30.4071 20.8228C30.6782 20.8228 30.6782 20.2749 30.4071 20.2749Z" fill="#F7B722"/>
<path d="M36.3719 21.3704C36.3719 20.8225 35.8296 20.0006 35.5585 20.0006C35.0162 18.9047 34.7451 19.4527 33.9318 19.4527H33.6606C33.1184 18.6307 32.8472 20.2746 32.305 20.0006C34.2029 19.4527 32.0339 17.8088 31.7627 18.6307C31.7627 18.3568 30.4071 18.9047 30.4071 18.9047C29.8648 19.4526 30.6782 20.5485 31.2205 20.2746C31.2205 20.5485 31.2205 20.8225 31.2205 21.0965C30.9494 20.8225 30.4071 20.8225 30.4071 21.3704C30.4071 22.1924 31.2205 21.9184 31.2205 21.3704C31.4916 22.1924 33.1184 22.4663 33.6606 21.9184C33.6606 22.4663 34.2028 22.4663 34.7451 22.4663C35.0162 22.7403 35.2874 22.7403 35.5585 22.7403C35.5585 23.0143 35.5585 23.2882 35.8296 23.2882C36.643 24.1101 37.7275 21.9184 36.3719 21.3704Z" fill="#F7B722"/>
<path d="M31.2205 22.1918C30.4071 21.9178 29.5937 23.2877 30.4071 23.5616C30.9494 24.1096 31.7627 22.4658 31.2205 22.1918Z" fill="#F7B722"/>
<path d="M29.3226 20.8217C29.0515 20.5478 28.5092 21.0957 29.0515 21.3697C29.5937 22.1916 29.8648 20.8217 29.3226 20.8217Z" fill="#F7B722"/>
<path d="M29.5937 20.0005C29.3226 20.0005 29.3226 20.2745 29.5937 20.2745C29.8649 20.5484 29.8649 20.0005 29.5937 20.0005Z" fill="#F7B722"/>
<path d="M33.3895 22.7403C33.3895 22.4663 33.1184 22.4663 32.8472 22.4663C31.7627 23.2882 33.9317 23.8362 33.3895 22.7403Z" fill="#F7B722"/>
<path d="M32.0338 23.2876C31.7627 23.2876 31.7627 23.8355 32.0338 23.8355C32.3049 24.1095 32.3049 23.2876 32.0338 23.2876Z" fill="#F7B722"/>
<path d="M34.7451 21.9187C34.474 21.6447 33.3895 21.3708 33.1184 21.6447C32.8472 21.9187 33.1183 23.0146 33.3895 23.2886C33.6606 23.5625 34.2029 24.3844 34.474 23.8365C34.7451 23.5625 34.7451 21.9187 34.7451 21.9187C35.0162 22.1927 34.7451 21.6447 34.7451 21.9187Z" fill="#F7B722"/>
<path d="M33.6607 23.8359C33.3896 23.8359 33.3896 24.3839 33.6607 24.3839C34.2029 24.3839 34.2029 23.8359 33.6607 23.8359Z" fill="#F7B722"/>
<path d="M35.2873 19.7263C35.0162 19.4523 33.6605 17.8085 33.6605 19.4523C33.3894 19.1784 33.6605 18.3564 32.8472 18.3564C32.576 18.3564 31.4915 19.1784 31.4915 19.7263C31.7626 20.5482 33.6606 21.3701 33.9317 20.2742C34.2028 20.5482 35.8296 20.5482 35.2873 19.7263C35.2873 20.0003 35.0162 19.4523 35.2873 19.7263Z" fill="#FFE16B"/>
<path d="M35.5585 20.8223C35.0163 20.8223 35.0163 21.6442 35.5585 21.6442C36.1008 21.9181 36.1008 20.8223 35.5585 20.8223Z" fill="#FFE16B"/>
<path d="M34.2028 21.0967C34.2028 20.2748 33.6606 21.0967 33.6606 21.0967C33.3894 21.6447 34.2028 21.9187 34.2028 21.0967Z" fill="#FFE16B"/>
<path d="M32.0338 21.0962C31.7627 21.0962 31.7627 21.6441 32.0338 21.6441C32.3049 21.6441 32.3049 21.0962 32.0338 21.0962Z" fill="#FFE16B"/>
<path d="M50.4705 24.109C50.4705 23.835 50.4705 23.835 50.4705 23.5611C50.7417 22.4652 50.1994 20.5474 49.6572 19.4515C49.1149 18.6296 47.7593 17.8077 48.0304 19.4515C47.4882 18.6296 46.4036 20.5474 46.4036 21.0953C46.1325 20.2734 45.3191 20.8214 45.5903 21.6433C45.3191 21.3693 44.7769 19.9994 44.7769 21.9172C44.2347 21.6433 44.5057 21.3693 44.2346 21.0953C43.9635 21.0953 43.9635 21.3693 43.6924 21.0953C43.9635 20.8214 43.9635 20.2734 43.9635 19.9994C43.4213 19.1775 42.3367 21.0953 42.3367 21.3693C42.3367 21.6433 42.0656 23.0131 41.7945 24.109C41.7945 26.8487 48.0304 26.5747 50.4705 24.109Z" fill="#D69119"/>
<path d="M47.2171 18.9044C46.9459 18.9044 46.9459 18.9044 46.9459 19.1784C46.9459 18.0825 45.3192 18.6304 45.0481 19.1784C45.0481 17.8085 43.6924 18.6304 42.879 19.1784C42.3368 19.4523 41.2523 22.1921 43.1502 21.3701C43.1502 21.6441 42.879 21.6441 42.879 21.9181C42.879 21.6441 42.3368 21.3701 42.0657 21.6441C41.7946 22.1921 42.6079 23.2879 42.879 22.1921C43.1502 22.74 43.6924 22.74 44.2347 22.466C44.5058 22.74 45.048 23.2879 45.5903 23.014C46.1326 22.74 46.4037 22.1921 46.4037 21.6441C47.2171 21.3701 47.4882 20.5482 47.2171 19.7263C47.7593 20.2743 48.0305 18.9044 47.2171 18.9044ZM46.9459 19.4523V19.7263C46.9459 19.7263 46.6748 19.4523 46.9459 19.4523Z" fill="#F7B722"/>
<path d="M42.6078 24.1094C42.3367 23.8355 41.7945 24.1094 41.7945 24.6574C41.5233 25.7533 43.4212 24.9313 42.6078 24.1094Z" fill="#F7B722"/>
<path d="M41.7945 23.0129C41.5233 23.0129 41.5233 23.5609 41.7945 23.5609C42.3367 23.2869 41.7945 22.465 41.7945 23.0129C41.7945 22.739 41.5233 23.0129 41.7945 23.0129Z" fill="#F7B722"/>
<path d="M44.5057 23.2877C44.2346 22.7397 43.6923 23.2877 43.4212 23.5617C43.4212 24.9315 45.0479 24.1096 44.5057 23.2877Z" fill="#F7B722"/>
<path d="M49.1148 19.7255C49.1148 19.4515 48.8437 19.4515 48.5726 19.1775C48.5726 18.9036 48.8437 18.3556 48.8437 18.3556C48.5726 17.5337 47.7592 17.2597 48.0303 18.3556C46.9458 16.9858 45.8613 19.4515 47.4881 20.2734C47.4881 19.9994 49.6571 21.0953 49.1148 19.7255Z" fill="#F7B722"/>
<path d="M47.7593 21.6436C47.4882 21.6436 47.4882 22.1915 47.7593 22.1915C48.0304 22.1915 48.0304 21.6436 47.7593 21.6436Z" fill="#F7B722"/>
<path d="M46.9459 17.5342C46.4036 17.2602 45.8614 18.0821 45.5902 18.0821C44.7769 17.8081 43.6924 18.3561 43.1501 18.904C42.879 19.178 42.0656 19.9999 42.3367 20.2739C42.6079 20.8218 43.4213 19.7259 43.4213 19.452C44.2346 21.3698 47.7593 18.0821 46.9459 17.5342C47.217 17.8081 46.4036 17.2602 46.9459 17.5342Z" fill="#FFE16B"/>
<path d="M45.5901 20.8222C45.0479 20.2743 44.2345 21.3701 44.7768 21.6441C44.7768 21.9181 45.8613 21.0962 45.5901 20.8222Z" fill="#FFE16B"/>
<path d="M43.1501 20.5479C42.879 20.5479 42.879 21.0958 43.1501 21.0958C43.4212 21.0958 43.4212 20.5479 43.1501 20.5479Z" fill="#FFE16B"/>
<path d="M46.6747 19.1782C46.1324 19.1782 46.4036 20.0001 46.6747 20.0001C47.217 20.0001 47.217 19.1782 46.6747 19.1782Z" fill="#FFE16B"/>
<path d="M48.3015 17.8082C48.0304 17.5343 47.4882 16.9863 47.217 17.5343C46.9459 19.1781 48.8438 18.3562 48.3015 17.8082Z" fill="#FFE16B"/>
<path d="M58.8754 21.0974C58.6043 20.5494 57.5198 18.0837 56.7064 19.1796C56.1642 18.9056 55.6219 18.9056 55.3508 19.1796C55.0796 18.6316 53.9951 18.3577 53.4529 18.9056C52.9106 18.9056 52.3684 19.4535 52.0973 19.1796C51.8261 18.6316 51.0127 19.4535 51.0127 19.7275C50.7416 20.2755 48.8437 22.1933 50.1994 22.4672C49.386 22.7412 51.0127 24.385 51.2839 24.385C52.3684 24.933 53.4529 24.659 54.5374 24.659C55.893 24.385 59.6888 23.5631 58.8754 21.0974C58.8754 21.3713 58.6043 20.2755 58.8754 21.0974Z" fill="#C88516"/>
<path d="M51.5549 20.2743C51.2838 20.0004 51.0127 20.0004 50.7415 20.2743C50.1993 21.3702 52.0972 20.8223 51.5549 20.2743Z" fill="#F7B722"/>
<path d="M51.8261 22.1923C51.5549 21.9184 51.2838 21.6444 51.2838 22.1923C51.0127 23.0142 52.0972 23.0142 51.8261 22.1923Z" fill="#F7B722"/>
<path d="M56.1641 20.8232C55.8929 20.5492 55.3507 21.0972 55.6218 21.3711C55.8929 21.6451 56.4352 21.0972 56.1641 20.8232Z" fill="#F7B722"/>
<path d="M58.062 19.1786C57.2487 18.3566 56.7064 18.3567 55.6219 18.0827C55.0797 18.0827 54.2663 18.3566 53.9951 18.3566C55.0796 16.9868 50.4705 17.2608 51.0127 19.1786C50.4705 19.1786 50.7416 19.7265 51.0127 20.0005C51.2838 20.2744 51.2839 20.0005 51.555 20.0005C51.8261 20.8224 52.6395 20.5484 53.1817 20.2744C52.9106 20.5484 51.8261 21.3703 52.6395 21.9183C52.9106 22.1922 53.4529 21.9183 53.4529 21.6443C53.4529 21.9183 53.4529 21.3703 53.4529 21.3703C53.4529 21.3703 53.4529 21.3703 53.724 21.3703C52.6395 22.4662 55.3508 23.2881 54.8085 21.0964C55.3508 21.0964 56.7064 19.4525 56.9775 20.2744C55.6219 20.2744 57.7909 22.4662 57.5198 20.8224C58.062 20.5484 58.6043 19.4525 58.062 19.1786Z" fill="#F7B722"/>
<path d="M57.7909 21.3706C57.5197 21.3706 57.5197 21.6446 57.7909 21.6446C58.062 21.6446 58.062 21.3706 57.7909 21.3706Z" fill="#F7B722"/>
<path d="M56.7064 18.0827C56.1641 17.5347 53.4529 16.7128 53.4529 18.0827C52.9106 17.8087 52.3684 19.1785 53.1817 18.9046C53.9951 18.9046 53.1817 18.3566 53.9951 18.6306C52.9106 19.1786 55.3508 19.7265 54.5374 18.6306C54.8085 18.6306 55.0796 18.6306 55.0796 18.6306C55.0796 19.1786 55.6219 19.4525 56.1642 19.4525C56.7064 19.4525 57.2487 18.3566 56.7064 18.0827C56.9775 18.0827 56.7064 17.8087 56.7064 18.0827Z" fill="#FFE16B"/>
<path d="M52.0972 18.3574C51.826 18.0834 51.2838 17.8094 51.5549 18.3574C51.5549 19.1793 52.3683 18.9053 52.0972 18.3574Z" fill="#FFE16B"/>
<path d="M57.7909 18.6313C57.7909 18.3573 57.2487 18.0834 56.9775 18.6313C56.7064 19.4532 58.062 19.4532 57.7909 18.6313Z" fill="#FFE16B"/>
<path d="M60.231 25.7537C59.9599 25.2057 59.6887 24.6578 59.1465 25.2057C58.8753 25.4797 59.6888 26.8495 59.6888 27.1235C59.1465 27.1235 58.8754 26.3016 58.062 27.1235C57.7909 26.8495 57.2486 27.3975 56.9775 27.1235C57.2486 26.5756 57.5197 25.4797 56.7063 25.7537C56.1641 25.7537 55.893 26.8495 55.6219 27.1235C55.893 26.5756 56.4352 25.7537 55.893 25.2057C55.3507 24.6578 54.8084 26.0276 54.5373 26.3016C54.2662 26.0276 55.0796 25.4797 54.2662 25.2057C55.3507 24.6578 53.7239 24.3838 53.1817 24.6578C52.3683 25.2057 51.8261 26.0276 51.2838 26.8495C51.0127 27.3975 50.4704 28.2194 50.1993 29.0413C49.9282 30.1372 52.0972 31.507 52.9106 31.781C54.8085 32.6029 57.7909 32.6029 59.6888 31.2331C61.0444 30.6851 61.0444 30.9591 61.3155 29.5893C61.5866 28.4934 61.0444 26.5756 60.231 25.7537C61.0444 26.5756 59.9599 25.4797 60.231 25.7537Z" fill="#D69119"/>
<path d="M60.502 25.7537C60.2309 25.2058 59.1464 23.8359 58.6042 24.6578C58.333 23.8359 57.2485 24.3839 56.7063 24.3839C56.164 24.3839 55.8929 24.3839 55.3506 24.3839C55.0795 23.562 53.995 24.6578 53.7239 24.9318C52.9105 25.2058 53.4527 25.7537 53.1816 26.0277C52.9105 26.3017 51.826 26.3017 52.0971 27.1236C52.3683 28.4934 51.826 26.5756 52.0971 27.9455C52.0971 29.0414 53.4528 27.9455 52.9105 27.3975C53.4528 27.1236 53.7239 27.9455 54.5373 27.3975C54.5373 29.3153 56.4352 27.3975 56.7063 27.3975C56.4352 28.4934 57.7908 28.4934 58.3331 27.9455C58.3331 29.3153 60.502 28.7674 60.502 27.6715C60.502 27.3976 60.2309 27.1236 60.2309 26.8496C60.2309 26.8496 60.502 26.0277 60.502 25.7537C60.502 26.0277 60.2309 25.4798 60.502 25.7537ZM56.7063 26.8496C56.4352 26.5756 56.9774 26.5756 56.7063 26.8496V26.8496Z" fill="#F7B722"/>
<path d="M53.7239 28.2198C53.1816 27.9458 53.1816 29.0417 53.7239 29.0417C53.995 29.0417 53.995 28.4937 53.7239 28.2198Z" fill="#F7B722"/>
<path d="M56.7065 29.041C56.1642 27.3972 55.3508 31.2327 56.4353 29.8629C56.7064 29.5889 56.4353 29.5889 56.7065 29.3149C56.4353 29.5889 56.7065 28.767 56.7065 29.041Z" fill="#F7B722"/>
<path d="M54.5373 29.3154C54.2661 29.3154 54.2661 29.8634 54.5373 29.8634C54.8084 30.1373 54.8084 29.3154 54.5373 29.3154Z" fill="#F7B722"/>
<path d="M57.7909 28.7671C57.5198 28.7671 57.2487 29.0411 57.5198 29.315C58.062 29.589 58.3331 28.7671 57.7909 28.7671Z" fill="#F7B722"/>
<path d="M57.2486 30.1367C56.7063 30.1367 56.9774 30.9586 57.2486 30.9586C57.7908 30.6847 57.7908 30.1367 57.2486 30.1367Z" fill="#F7B722"/>
<path d="M58.8754 24.384C58.062 24.658 57.7909 23.5621 56.7064 24.1101C56.1641 22.4662 52.3683 25.4799 54.5374 25.2059C53.9951 26.5758 56.4353 26.0279 56.7064 25.4799C56.9775 25.4799 57.2486 25.4799 57.5198 25.4799C57.5198 26.0279 58.3331 26.3018 58.6043 26.0279C59.1465 25.7539 59.6888 24.1101 58.8754 24.384Z" fill="#FFE16B"/>
<path d="M57.2485 26.302C56.9774 26.0281 56.7063 26.0281 56.7063 26.576C56.7063 27.1239 57.7908 26.85 57.2485 26.302Z" fill="#FFE16B"/>
<path d="M53.9951 26.3018C53.724 25.7539 53.1817 26.3018 53.4529 26.5758C53.4529 27.1237 54.2662 26.8498 53.9951 26.3018Z" fill="#FFE16B"/>
<path d="M59.1465 27.1231C59.4176 26.5752 58.3331 26.5751 58.6043 27.3971C58.6043 27.671 59.4176 27.3971 59.1465 27.1231C59.4176 27.3971 59.1465 26.8491 59.1465 27.1231Z" fill="#FFE16B"/>
<path d="M68.9071 25.4802C68.9071 24.3843 68.3649 23.5624 67.8226 22.4665C67.5515 22.1925 67.0093 22.4665 67.0093 22.7404C66.467 22.1925 66.467 23.0144 66.7381 23.5624C66.1959 23.8363 66.467 24.1103 65.9247 23.5624C65.6536 23.2884 65.1114 23.0144 64.8402 23.5624C64.8402 23.0144 64.5691 23.2884 64.0268 23.0144C64.5691 22.4665 64.298 21.9185 63.4846 22.1925C62.9423 22.4665 62.6712 23.0144 62.4001 23.8363C61.8578 25.4801 62.4001 25.4801 63.2135 26.576C64.298 27.9459 69.4494 28.2199 68.9071 25.4802C69.1783 26.85 68.9071 25.2062 68.9071 25.4802Z" fill="#D69119"/>
<path d="M63.2134 23.8359C62.9423 23.8359 62.9423 24.3839 63.2134 24.3839C63.4845 24.3839 63.4845 23.8359 63.2134 23.8359Z" fill="#F7B722"/>
<path d="M66.467 25.4798C66.467 25.2058 65.9247 25.2058 65.9247 25.7537C66.1958 26.0277 66.7381 26.0277 66.467 25.4798Z" fill="#F7B722"/>
<path d="M65.3824 24.3837C65.3824 23.8358 64.8402 24.1098 64.8402 24.3837C64.569 24.9317 65.6535 24.9317 65.3824 24.3837Z" fill="#F7B722"/>
<path d="M68.636 23.5621C68.636 23.2881 67.0092 21.3703 66.7381 21.3703C66.467 21.0963 66.1958 21.3703 65.9247 21.6443C65.6536 21.0963 65.1113 21.3703 64.8402 21.6443C64.298 22.1922 63.2135 21.6443 63.7557 23.0141C63.4846 22.7402 63.2134 23.0141 63.2134 23.2881C63.2134 23.836 64.0269 23.836 63.7557 23.2881C64.0269 23.5621 64.0268 23.2881 64.298 23.2881C64.0268 23.5621 64.0268 23.5621 64.298 23.2881C63.7557 23.836 64.5691 24.384 64.8402 23.836C65.1113 23.5621 65.1113 23.5621 64.8402 23.2881C65.3825 23.0141 65.6536 24.11 65.9247 24.11C66.1958 24.11 66.1959 24.384 66.467 24.384C67.0093 24.384 67.0092 23.5621 67.5515 23.836C66.7381 24.658 68.9071 25.7538 68.636 23.5621C68.636 23.8361 68.636 23.2881 68.636 23.5621Z" fill="#F7B722"/>
<path d="M67.8226 25.2061C67.5515 25.2061 67.2803 26.028 67.8226 25.754C68.0937 26.028 68.0937 25.2061 67.8226 25.2061Z" fill="#F7B722"/>
<path d="M67.2804 22.4661C67.0092 22.1921 67.2804 21.9182 66.7381 21.6442C66.467 21.3702 65.6536 22.4661 65.6536 22.7401C65.9248 24.1099 68.0937 23.014 67.2804 22.4661C67.5515 22.4661 67.2804 22.1921 67.2804 22.4661Z" fill="#FFE16B"/>
<path d="M64.8401 21.9179C64.2979 22.1919 64.8401 22.7398 65.1113 22.4658C65.3824 22.7398 65.1112 21.6439 64.8401 21.9179Z" fill="#FFE16B"/>
<path d="M79.4811 25.7531C80.0234 24.3833 78.6678 20.5477 77.3121 21.6435C77.041 21.9175 76.4987 21.6435 76.2276 21.9175C75.6853 22.4655 76.4987 22.4655 75.6853 22.7394C74.872 23.0134 74.3297 22.1915 73.7875 23.2874C73.5163 22.7394 72.9741 22.1915 72.7029 23.0134C72.4318 22.4655 72.1607 23.0134 71.6184 22.7394C71.8896 21.9175 71.6185 21.0956 70.5339 21.9175C69.4494 22.7394 68.0938 26.0271 69.1783 27.3969C69.4494 27.9449 71.0762 28.4928 71.6184 28.7668C72.7029 29.0408 73.7874 29.3147 74.872 29.0408C75.9565 28.7668 80.8367 27.123 79.4811 25.7531C79.7522 25.7531 79.7522 24.9312 79.4811 25.7531Z" fill="#C88516"/>
<path d="M78.3965 23.562C79.7522 23.562 77.5832 20.8223 77.5832 20.8223C77.312 19.7264 75.4142 19.7264 74.6008 20.0004C74.3297 20.0004 74.0585 20.2743 74.0585 20.5483C73.7874 20.0003 73.2451 20.0003 72.7029 20.5483C72.1606 20.8223 71.0761 20.5483 71.0761 21.6442C70.805 21.6442 70.5339 21.9181 70.5339 22.1921C70.5339 23.288 70.805 22.4661 71.0761 23.014C70.2627 23.562 71.3472 24.9318 71.6184 23.288C71.6184 22.7401 72.1606 23.562 72.4318 23.8359C71.8895 23.8359 71.6184 24.9318 72.4318 25.2058C73.2451 25.4798 73.2451 24.3839 72.7029 24.1099C72.974 24.1099 73.2451 24.1099 73.5162 24.1099C73.5162 25.7537 75.4142 25.2058 75.9564 24.3839C75.6853 26.3017 78.9388 24.3839 76.4987 23.8359C76.7698 23.8359 77.0409 23.8359 77.312 23.562C77.5832 23.562 77.8543 23.562 78.3965 23.562C79.7522 23.562 77.312 24.6579 78.3965 23.562ZM76.4987 23.562C76.4987 23.288 76.4987 23.288 76.4987 23.562V23.562Z" fill="#F7B722"/>
<path d="M71.0762 24.9308C71.0762 24.1089 69.9917 24.6569 70.534 25.2048C70.8051 25.7528 71.0762 25.4788 71.0762 24.9308Z" fill="#F7B722"/>
<path d="M75.9564 25.205C76.2276 24.6571 75.1431 24.9311 75.1431 25.205C74.8719 26.0269 76.2276 26.0269 75.9564 25.205Z" fill="#F7B722"/>
<path d="M75.1431 20.5478C75.6854 20.5478 76.7699 21.3697 76.7699 20.2738C76.7699 19.4519 75.6854 19.4519 75.1431 19.7259C74.3298 19.9998 73.5164 19.4519 72.9741 20.2738C72.703 20.2738 71.6185 21.0957 72.1607 21.6437C72.4319 21.6437 72.703 21.6437 72.703 21.3697C72.9741 21.9176 73.5164 21.9176 73.7875 21.6437C73.7875 21.9176 73.7875 21.9176 74.0586 22.1916C74.872 22.7395 74.3297 21.9176 74.872 22.7396C75.4142 23.5615 76.7699 22.7395 76.4988 21.6437C76.4988 21.0957 75.4143 20.8218 75.1431 21.3697C75.1431 21.0957 74.872 20.8218 74.6009 20.8218C74.872 20.8218 75.1431 20.8217 75.1431 20.5478Z" fill="#FFE16B"/>
<path d="M73.5163 22.7395C73.7874 22.1915 72.7029 21.6436 72.7029 22.4655C72.7029 23.0135 73.5163 23.2874 73.5163 22.7395Z" fill="#FFE16B"/>
<path d="M75.1431 23.2873C74.872 23.0133 74.3297 23.2873 74.6009 23.8352C74.872 24.1092 75.4142 23.5613 75.1431 23.2873C75.4142 23.2873 75.1431 23.0133 75.1431 23.2873Z" fill="#FFE16B"/>
<path d="M77.5833 20.8224C76.4988 20.5485 76.4988 22.1923 77.3122 21.9183C77.5833 21.6443 78.1255 20.8224 77.5833 20.8224Z" fill="#FFE16B"/>
<path d="M92.4951 27.3981C92.4951 27.3981 92.4952 27.1242 92.224 27.1242C92.224 27.1242 91.9529 25.7543 91.6818 25.4804C91.1395 24.3845 90.5973 24.1105 89.7839 23.5626C89.2416 23.0146 89.2416 23.2886 88.6994 23.0146C88.4283 22.7406 87.886 23.2886 88.1571 23.5626C87.6149 23.2886 86.5304 24.9324 86.5304 25.2064C85.9881 24.6584 83.548 24.6584 83.0057 24.9324C83.0057 24.6584 82.7346 23.5625 82.4635 23.8365C81.6501 24.6584 80.5656 25.7543 80.2944 26.8502C79.4811 28.768 80.2944 29.5899 81.6501 30.4118C83.2768 31.5077 85.717 31.5077 87.6149 30.9598C88.9705 30.6858 93.0374 29.3159 92.4951 27.3981C92.4951 27.6721 92.4951 27.1242 92.4951 27.3981Z" fill="#D69119"/>
<path d="M84.3614 25.7535C84.0903 25.4796 83.2769 26.0275 83.2769 26.5754C83.2769 27.9453 85.4459 26.8494 84.3614 25.7535Z" fill="#F7B722"/>
<path d="M82.7346 26.3019C82.4635 25.48 81.379 26.028 81.9212 26.5759C81.9212 27.1238 82.7346 26.8499 82.7346 26.3019Z" fill="#F7B722"/>
<path d="M85.1748 28.4941C84.6325 28.4941 84.6325 29.59 85.1748 29.59C85.717 29.3161 85.717 28.4941 85.1748 28.4941Z" fill="#F7B722"/>
<path d="M89.5127 27.9453C88.9705 27.9453 88.9705 28.7672 89.5127 28.7672C90.055 28.7672 90.055 27.9453 89.5127 27.9453Z" fill="#F7B722"/>
<path d="M91.4107 25.2066C91.1395 24.6587 90.8684 24.6587 90.3261 24.6587C91.4106 24.1107 89.7839 22.7409 89.2416 22.4669C88.9705 22.1929 88.6994 22.1929 88.1571 22.4669C87.886 22.1929 87.6149 21.9189 87.3437 21.9189C87.0726 21.9189 86.8015 21.9189 86.5304 21.9189C85.9881 22.1929 85.717 21.9189 85.1747 21.9189C84.6325 21.9189 81.3789 23.8367 82.4635 24.3847C82.1923 24.6587 82.1923 24.6587 81.9212 24.9326C81.6501 25.2066 81.9212 25.7545 82.1923 25.4806C82.7346 26.5765 83.548 25.2066 84.3613 25.2066C84.9036 26.3025 85.717 26.3025 86.5304 25.7545C86.2592 26.3025 86.8015 27.1244 87.0726 26.5765C86.8015 27.1244 86.5304 27.6723 87.0726 27.9463C86.2592 27.6723 85.4459 29.0422 85.9881 29.8641C86.8015 30.686 88.4283 29.0422 87.3437 28.2203C88.1571 28.4943 89.5128 27.3984 88.6994 26.5765C88.4283 26.0285 87.3437 26.0285 87.0726 26.5765C87.3437 26.3025 86.8015 25.7545 86.5304 26.0285C86.8015 25.7545 87.3437 24.6587 87.6149 25.7545C87.6149 26.3025 88.4282 26.5765 88.9705 26.5765C89.2416 26.5765 89.5127 26.3025 89.7839 26.0285C90.055 26.3025 90.3261 26.3025 90.3261 26.0285C90.8684 26.3025 91.6818 26.0285 91.4107 25.2066Z" fill="#F7B722"/>
<path d="M90.5973 26.3013C90.055 26.3013 90.055 27.1232 90.5973 27.1232C91.1396 27.1232 91.1396 26.3013 90.5973 26.3013Z" fill="#F7B722"/>
<path d="M81.9212 24.9316C81.6501 24.9316 81.6501 25.4796 81.9212 25.4796C82.4635 25.4796 82.4635 24.9316 81.9212 24.9316Z" fill="#FFE16B"/>
<path d="M86.8015 24.3843C86.5303 24.1104 85.988 23.8364 85.7169 24.6583C85.4458 25.7542 87.6148 24.9323 86.8015 24.3843Z" fill="#FFE16B"/>
<path d="M89.7838 23.5621C89.7838 23.2881 89.5127 23.0141 89.2416 22.7402C89.7838 22.4662 87.3437 21.0963 86.8014 22.1922C86.5303 21.0963 83.2768 22.1922 83.2768 23.2881C82.4634 23.2881 83.0056 24.658 83.5479 24.11C83.819 23.836 83.5479 23.5621 83.819 23.5621C83.2768 25.2059 86.5303 23.836 84.6324 23.0141C85.1747 22.7402 86.5303 24.11 86.8014 22.7402C86.8014 23.836 88.4282 23.5621 88.9704 22.7402C88.157 24.658 89.5127 25.2059 89.7838 23.5621Z" fill="#FFE16B"/>
<path d="M107.136 19.7262C106.865 19.1782 105.509 17.8084 105.509 19.1782C105.238 18.9042 104.967 17.8084 104.154 18.6303C103.882 19.1782 103.069 18.0823 102.527 17.8084C102.527 17.2604 98.731 19.7262 99.8155 21.37C100.9 23.0138 103.069 22.4659 104.425 22.7398C106.051 23.0138 109.034 21.9179 107.136 19.7262C107.407 20.0001 107.136 19.1782 107.136 19.7262Z" fill="#C88516"/>
<path d="M106.594 19.1788C106.594 18.9049 106.323 18.3569 106.323 18.083C106.051 17.535 104.153 17.2611 104.153 18.3569C103.069 18.083 101.984 17.535 101.171 18.9049C100.9 19.4528 100.087 20.5487 100.629 20.8227C101.171 21.3706 101.171 19.7268 101.442 19.4528C101.442 20.2747 102.256 20.2747 102.798 19.7268C103.069 20.0008 103.069 20.2747 103.069 20.5487C101.713 20.2747 103.882 22.1925 103.34 20.8227C103.611 21.0966 104.153 20.5487 104.153 20.2747C104.153 19.4528 104.425 19.7268 104.967 19.7268C104.696 19.7268 104.425 20.0008 104.696 20.5487C104.967 21.0966 105.78 20.5487 105.78 20.0008C106.051 20.2747 106.594 19.7268 106.594 19.1788C106.594 19.4528 106.594 18.9049 106.594 19.1788ZM105.238 19.7268C104.967 19.7268 105.509 19.7268 105.238 19.7268V19.7268Z" fill="#F7B722"/>
<path d="M105.78 17.8086C105.509 17.5346 104.425 17.5346 104.154 17.8086C104.967 16.9867 102.798 17.2606 102.527 17.2606C101.171 18.0825 102.798 19.1784 103.611 18.6305C103.611 21.0962 106.323 18.0825 105.78 17.8086Z" fill="#FFE16B"/>
<path d="M101.713 18.082C101.442 18.082 100.087 19.1779 101.171 19.4519C101.984 19.4519 101.985 18.082 101.713 18.082C101.985 18.082 101.442 18.082 101.713 18.082Z" fill="#FFE16B"/>
<path d="M100.358 19.7261C100.087 19.7261 100.087 20.274 100.358 20.274C100.629 20.274 100.629 19.7261 100.358 19.7261Z" fill="#FFE16B"/>
<path d="M103.611 19.1792C103.611 18.9053 103.34 18.9053 103.069 18.9053C102.256 19.1792 103.611 20.2751 103.611 19.1792Z" fill="#FFE16B"/>
<path d="M113.914 19.7273C113.643 19.4533 112.287 19.7273 112.016 20.2752C110.932 19.7273 110.118 20.8231 109.847 21.919C108.763 20.8231 109.576 20.0012 107.949 20.5492C107.949 20.2752 108.492 19.7273 107.949 19.4533C106.865 19.1793 106.051 20.8231 105.78 21.6451C104.696 24.3848 105.509 25.4806 107.949 25.7546C110.118 26.0286 112.016 26.0286 114.185 24.9327C116.083 23.8368 115.541 20.8231 113.914 19.7273Z" fill="#D69119"/>
<path d="M114.185 20.001C113.643 18.9051 112.287 18.6312 111.474 19.4531C111.203 19.1791 110.661 18.9051 110.118 18.9051C109.576 17.8092 107.949 19.1791 107.407 19.4531C106.051 20.549 107.678 22.1928 108.492 21.0969C108.22 21.9188 109.034 22.4668 109.576 22.1928C110.389 21.9188 110.389 21.0969 111.203 20.5489C111.745 22.4667 114.727 21.0969 114.185 20.001C114.185 20.275 113.914 19.727 114.185 20.001Z" fill="#F7B722"/>
<path d="M107.136 21.6445C106.594 21.6445 106.594 22.7404 107.136 22.7404C107.949 22.7404 107.949 21.6445 107.136 21.6445Z" fill="#F7B722"/>
<path d="M106.594 23.0139C106.594 22.74 106.051 22.74 106.051 23.2879C106.051 23.5619 106.594 23.5619 106.594 23.0139C106.594 23.2879 106.322 23.0139 106.594 23.0139Z" fill="#F7B722"/>
<path d="M106.051 21.3704C105.78 21.3704 105.78 21.6443 105.78 21.6443C105.509 21.9183 106.051 21.9183 106.323 21.9183C106.323 21.9183 106.594 21.0964 106.051 21.3704Z" fill="#F7B722"/>
<path d="M113.101 21.9181C112.829 21.6442 112.287 21.6442 112.016 21.9181C111.745 21.9181 111.745 21.3702 111.474 21.6442C110.66 21.9181 111.474 21.3702 110.932 21.0962C109.576 20.2743 109.847 23.8359 111.474 23.014C111.745 24.3839 113.914 22.7401 113.101 21.9181C113.101 22.1921 112.829 21.9181 113.101 21.9181Z" fill="#F7B722"/>
<path d="M110.118 23.0147C109.847 23.0147 108.22 23.2887 109.034 24.1106C110.661 25.2065 110.932 22.4668 110.118 23.0147Z" fill="#F7B722"/>
<path d="M111.745 18.3565C111.745 18.3565 110.66 18.0825 110.389 18.0825C109.576 18.0825 108.763 18.6305 108.22 18.9044C107.136 19.4524 108.22 20.2743 109.034 20.2743C107.678 21.0962 110.66 21.0962 109.305 20.2743C109.847 20.2743 110.389 20.0003 110.66 19.4524C110.932 19.7264 111.203 19.7264 111.474 20.0003C110.66 20.2743 111.474 21.3702 112.016 20.8222V20.2743C114.456 20.2743 112.83 16.9867 111.745 18.3565Z" fill="#FFE16B"/>
<path d="M107.949 20.0001L107.678 19.7261C107.678 19.7261 106.865 19.7261 106.594 20.274C106.322 21.0959 108.22 20.822 107.949 20.0001C108.22 20.548 107.949 19.7261 107.949 20.0001Z" fill="#FFE16B"/>
<path d="M111.203 21.3706C110.932 21.3706 110.932 21.9185 111.203 21.9185C111.474 21.9185 111.474 21.3706 111.203 21.3706Z" fill="#FFE16B"/>
<path d="M108.763 21.0962C108.492 21.0962 108.492 21.6441 108.763 21.6441C109.305 21.6441 109.034 21.0962 108.763 21.0962Z" fill="#FFE16B"/>
<path d="M106.865 29.0403C106.865 27.3965 106.323 25.2047 104.967 24.6568C104.425 24.3828 104.154 24.6568 103.882 25.2047C103.882 25.4787 103.882 25.7527 103.882 26.0266C104.154 26.5746 103.882 26.3006 103.611 26.8486C103.069 26.0267 102.527 26.3006 102.256 26.8486C101.713 25.2047 100.629 27.6705 100.358 27.3965C100.087 27.1225 99.2733 26.5746 99.0021 26.8486C99.2733 26.0267 98.731 25.2047 97.9176 25.7527C98.1887 25.4787 99.0021 24.6568 97.9176 24.9308C98.4598 24.3828 97.3753 24.6568 97.1042 24.6568C96.2908 25.2047 95.2063 26.3006 94.6641 27.3965C93.3084 29.5883 94.1218 31.2321 96.0197 32.054C96.2908 32.054 96.2908 32.328 96.562 32.328C100.087 32.054 103.34 31.5061 106.323 30.9581C106.865 30.4102 107.136 29.8622 106.865 29.0403Z" fill="#D69119"/>
<path d="M99.0022 30.1359C99.2733 28.766 97.3754 29.5879 97.1042 30.1359C96.562 31.2318 98.731 31.2318 99.0022 30.1359Z" fill="#F7B722"/>
<path d="M99.5444 28.7664C99.2733 28.4924 98.731 28.4924 98.731 29.0404C98.731 29.8623 100.087 29.3143 99.5444 28.7664Z" fill="#F7B722"/>
<path d="M96.0198 27.9449C95.7486 27.6709 95.2064 27.9449 95.4775 28.4928C95.7486 28.7668 96.2909 28.2189 96.0198 27.9449Z" fill="#F7B722"/>
<path d="M96.2908 26.5751C96.2908 26.0272 95.7485 26.3012 95.4774 26.5751C95.4774 27.1231 96.2908 27.1231 96.2908 26.5751Z" fill="#F7B722"/>
<path d="M105.78 26.5752C105.509 26.3013 105.238 26.0273 104.967 26.0273C105.238 25.7533 105.78 24.6575 104.696 24.9314L103.882 24.3835C103.069 24.1095 102.256 24.1095 101.713 24.3835C102.256 23.5616 101.171 23.2876 100.9 23.2876C100.629 23.2876 100.358 23.5616 100.087 23.8355C99.8155 23.8355 99.5444 23.5616 99.2733 23.5616C98.1888 23.8355 97.1043 24.3835 96.2909 24.9314C95.7486 25.4794 96.562 26.0273 97.1042 25.7533C97.1042 26.0273 97.1043 26.3013 97.3754 26.3013C97.1043 26.5753 97.1043 27.1232 97.3754 27.6711C97.9176 28.2191 98.731 27.9451 99.2733 27.6711C99.8155 27.3972 100.358 27.9451 100.9 27.1232C101.171 27.6711 100.358 28.2191 100.9 28.493C100.358 28.493 99.2733 29.041 99.8155 29.8629C98.731 30.1369 99.2733 32.0547 100.629 30.9588C100.9 30.9588 101.171 30.4108 101.171 30.1369C101.171 29.5889 101.713 29.041 101.713 28.767C102.527 28.767 103.069 28.4931 103.882 28.2191C103.611 28.4931 103.882 30.1369 104.154 30.1369C105.509 30.9588 104.967 29.041 104.967 28.767C105.78 29.041 106.051 27.1232 104.967 27.3972C105.509 26.5752 105.238 27.3972 106.051 27.1232C105.78 27.9451 105.78 26.8492 105.78 26.5752ZM103.882 28.767L103.611 28.493C103.611 28.493 103.882 28.4931 103.882 28.2191C103.882 28.767 103.882 28.767 103.882 28.767Z" fill="#F7B722"/>
<path d="M105.238 24.931C104.967 24.657 104.425 24.1091 103.882 24.1091C103.34 23.5611 103.069 23.2872 102.527 23.0132C101.442 23.0132 100.358 23.5611 99.5443 23.5611C98.7309 23.5611 96.833 24.383 97.9175 25.4789C98.7309 26.3008 100.358 26.0269 100.629 24.931C100.9 25.205 101.171 25.4789 101.713 25.4789C101.984 25.4789 102.256 25.4789 102.527 25.4789C103.34 25.205 102.798 25.4789 103.34 26.0269C103.611 26.3008 105.78 25.7529 105.238 24.931C105.509 25.205 105.238 24.657 105.238 24.931Z" fill="#FFE16B"/>
<path d="M101.713 25.7535C101.442 25.4795 100.629 25.7535 100.629 26.3014C100.629 27.6713 102.527 26.0274 101.713 25.7535Z" fill="#FFE16B"/>
<path d="M99.5444 26.3012C98.1888 25.7533 97.6465 27.945 98.731 27.6711C99.0022 27.6711 100.087 26.5752 99.5444 26.3012C99.8156 26.5752 99.0022 26.0272 99.5444 26.3012Z" fill="#FFE16B"/>
<path d="M102.798 27.123C101.442 27.397 101.985 29.3148 102.798 28.4929C103.069 28.2189 103.611 27.123 102.798 27.123C103.069 27.123 102.527 27.123 102.798 27.123Z" fill="#FFE16B"/>
<path d="M104.425 26.5752C103.611 26.0272 103.882 27.3971 104.154 27.3971C104.154 27.6711 105.238 27.1231 104.425 26.5752Z" fill="#FFE16B"/>
<path d="M65.6536 29.5902C65.3824 29.0422 64.8402 28.4943 64.2979 29.0422C64.0268 29.3162 63.7557 29.3162 63.4845 29.5902C63.7557 29.0422 63.7557 27.6724 62.9423 27.6724C61.8578 27.6724 60.7733 28.7682 60.231 29.3162C59.4176 30.1381 58.8754 31.234 58.6042 32.6038C58.6042 32.8778 58.6042 32.8778 58.6042 33.1518C61.8578 33.4257 65.1113 33.4258 68.3648 33.4258C68.0937 32.6038 68.0937 31.508 67.8226 30.4121C67.2803 29.8641 65.6536 27.9463 65.6536 29.5902Z" fill="#E6941A"/>
<path d="M83.8191 33.1516C83.8191 32.3296 83.548 31.5077 83.2768 31.2338C83.0057 30.1379 82.1923 29.5899 81.6501 28.768C81.1078 27.9461 80.0233 27.1242 79.2099 27.6721C79.2099 27.6721 79.7522 30.6858 78.6677 30.9598C78.6677 29.042 77.8543 30.9598 77.5832 31.2338C77.312 30.6858 77.0409 30.9598 77.0409 30.4119C77.0409 29.042 76.4987 28.768 75.6853 29.5899C75.6853 29.5899 75.6853 27.9461 75.4141 27.6721C75.6853 27.6721 75.9564 27.3982 75.9564 27.1242C75.9564 26.8502 74.0585 27.1242 73.7874 27.1242C72.7029 27.6721 71.3472 28.768 70.805 30.1379C70.2627 31.2338 69.9916 32.3297 69.4493 33.4255C69.7205 33.4255 69.9916 33.4255 70.2627 33.4255C74.6008 33.4255 79.2099 33.4255 83.8191 33.1516Z" fill="#E6941A"/>
<path d="M59.9598 31.7812C59.6887 31.7812 59.6887 32.0552 59.9598 32.0552C60.2309 32.3292 59.9598 31.7812 59.9598 31.7812Z" fill="#F8B221"/>
<path d="M61.3155 31.2324C61.0443 31.2324 61.0443 32.0543 61.3155 32.0543C61.5866 31.7804 61.5866 31.2324 61.3155 31.2324Z" fill="#F8B221"/>
<path d="M63.2134 31.7812C62.6712 31.2333 62.4 33.1511 63.2134 32.6031C63.2134 32.3291 63.2134 31.7812 63.2134 31.7812Z" fill="#F8B221"/>
<path d="M67.5515 31.7805C68.636 31.2326 67.0092 28.7669 66.1958 28.7669C65.6536 28.7669 65.6536 28.4929 65.1113 28.2189C64.5691 27.9449 64.0268 28.4929 63.4845 28.7669C63.2134 27.9449 62.6712 27.123 61.5867 27.9449C61.3155 28.2189 59.9599 29.3148 60.5021 29.8627C60.231 29.8627 59.4177 30.1367 59.6888 30.6846C59.6888 30.9586 60.7733 30.9586 61.0444 30.9586C61.8578 30.9586 62.4 30.4107 62.9423 30.1367C62.9423 30.4107 62.6712 32.0545 63.2134 31.2326C63.7557 31.5066 64.2979 31.5066 64.569 30.9586C64.8402 30.6847 64.8402 30.9586 65.1113 30.9586C64.5691 31.5066 64.8402 31.7805 65.3824 32.3285C65.6536 32.6024 66.1958 31.2326 65.6536 30.9586C65.9247 30.6847 65.9247 31.2326 66.467 31.2326C65.3825 32.6024 67.0092 32.8764 67.2803 31.5066C67.2803 31.7805 67.5515 31.7805 67.5515 31.7805Z" fill="#F8B221"/>
<path d="M67.2802 32.0551C66.738 32.3291 67.2802 33.151 67.8225 32.8771C68.3647 32.6031 67.8225 31.7812 67.2802 32.0551Z" fill="#F8B221"/>
<path d="M71.3472 32.6031C71.3472 32.0551 70.5339 32.0551 70.5339 32.877C70.805 33.425 71.6183 33.151 71.3472 32.6031Z" fill="#F8B221"/>
<path d="M73.5162 32.0547C73.2451 32.0547 73.2451 32.6026 73.5162 32.6026C73.7873 32.6026 73.7873 32.0547 73.5162 32.0547Z" fill="#F8B221"/>
<path d="M76.4986 32.3295C76.7697 31.5076 75.414 31.5076 75.6852 32.6035C75.9563 33.1514 76.4986 32.8775 76.4986 32.3295Z" fill="#F8B221"/>
<path d="M70.5339 30.9595C70.2627 30.9595 70.2627 31.5074 70.5339 31.5074C70.805 31.5074 70.805 30.9595 70.5339 30.9595Z" fill="#F8B221"/>
<path d="M80.5655 30.9595C79.7521 30.9595 78.9387 32.0553 79.7521 32.8773C81.1077 33.6992 81.9211 30.9595 80.5655 30.9595Z" fill="#F8B221"/>
<path d="M82.4634 30.1368C82.4634 29.5888 82.4634 29.8628 82.4634 30.1368C82.7346 29.3149 81.9212 28.7669 81.379 28.7669C82.4635 27.671 78.9388 26.8491 78.3965 27.3971C77.8543 27.3971 77.5832 27.3971 77.0409 27.671C77.0409 27.1231 76.7698 27.1231 76.2275 27.1231C75.6853 27.3971 75.9564 27.3971 75.4141 27.3971C75.143 27.3971 75.6853 26.8491 74.8719 27.1231C74.6007 27.1231 74.0585 27.3971 73.7874 27.3971C73.2451 27.3971 72.4317 27.1231 72.1606 27.945C71.8895 28.7669 72.4317 28.219 71.6184 28.493C71.3472 28.7669 71.0761 29.3149 71.3472 29.8628C71.0761 29.5888 70.805 30.1368 71.0761 30.4107C71.6184 30.6847 71.6183 30.1368 71.3472 29.8628C71.6183 30.1368 71.6184 30.1368 71.8895 30.1368C71.8895 30.6847 70.5338 30.9587 71.3472 31.7806C71.3472 31.7806 72.1606 32.0546 72.4318 31.7806C71.8895 33.9724 73.7874 31.7806 72.7029 31.5066C73.2451 30.9587 73.2451 32.0546 73.7874 31.5066C73.5163 32.3285 74.3296 32.6025 74.6008 31.5066C74.6008 30.9587 74.8719 30.4107 75.143 29.8628C75.143 30.6847 75.143 32.0546 75.9564 30.9587C75.9564 31.5066 77.0409 32.0546 77.5831 32.0546C77.312 32.8765 78.9388 32.6025 78.1254 31.7806C77.5831 31.2327 78.9388 30.9587 79.2099 30.4107C79.2099 31.2327 81.1078 30.1368 81.379 30.1368C81.1078 31.7806 83.8191 30.4107 82.4634 30.1368ZM80.0233 30.1368C80.0233 29.8628 80.2944 29.8628 80.0233 30.1368V30.1368Z" fill="#F8B221"/>
<path d="M82.1922 31.5065C81.9211 31.7805 82.4634 32.3284 82.4634 31.7805C82.7345 31.5065 82.4634 31.2326 82.1922 31.5065Z" fill="#F8B221"/>
<path d="M64.5691 27.9459C64.298 27.3979 63.4846 27.9459 63.2135 28.2199C62.9423 28.2199 62.6712 27.9459 62.6712 27.9459C61.8578 27.6719 61.5867 29.0418 62.129 29.5897C62.6712 30.1376 64.0269 30.1376 64.0269 29.0418C64.298 29.0418 64.8402 28.4938 64.5691 27.9459C64.8402 28.2198 64.5691 27.6719 64.5691 27.9459Z" fill="#FFD34C"/>
<path d="M61.5867 29.3153C60.5022 28.7674 60.7733 30.6852 61.3155 30.4112C61.5867 30.1372 62.4001 29.3153 61.5867 29.3153Z" fill="#FFD34C"/>
<path d="M66.738 28.7671C66.4669 27.6712 64.2979 27.6712 63.4845 27.9452C62.9422 28.2191 61.8577 29.315 62.9422 29.589C63.4845 29.589 64.2979 29.0411 64.569 29.315C63.7556 30.1369 64.8401 30.6849 65.3824 30.1369C65.9246 29.589 65.3824 29.315 66.1958 29.315C66.4669 29.315 66.738 29.0411 66.738 28.7671Z" fill="#FFD34C"/>
<path d="M67.2803 29.8632C67.0092 29.5893 66.1958 29.3153 65.9247 29.8632C65.3824 31.2331 68.3648 30.6851 67.2803 29.8632Z" fill="#FFD34C"/>
<path d="M72.4318 28.768C72.1607 28.22 71.0762 28.768 71.6184 29.3159C71.8896 29.5899 72.9741 29.042 72.4318 28.768C72.7029 28.768 72.4318 28.494 72.4318 28.768Z" fill="#FFD34C"/>
<path d="M74.8718 29.0414C74.6006 28.4934 73.7873 29.0414 73.7873 29.0414C72.7028 29.5893 73.7873 30.9592 74.3295 29.8633C74.6007 29.5893 75.1429 29.3154 74.8718 29.0414C74.8718 29.3154 74.8718 28.7674 74.8718 29.0414Z" fill="#FFD34C"/>
<path d="M81.9212 29.0414C81.6501 28.2195 79.7522 25.2058 78.9388 26.8497C78.9388 24.3839 74.3297 26.3017 73.2452 26.5757C72.1607 26.8497 71.6184 27.9455 72.7029 28.4935C72.974 29.0414 73.5163 29.0414 74.0585 28.7675C74.6008 28.4935 75.1431 28.7675 75.6853 28.2195C75.6853 29.0414 76.2276 28.7675 75.9565 29.3154C75.9565 29.5894 76.2276 30.4113 76.4987 30.4113C76.7698 30.4113 77.3121 29.5894 77.3121 29.3154C77.3121 28.7675 77.8543 28.7675 78.1254 28.2195C78.6677 28.7675 78.9388 28.7675 79.4811 28.7675C79.2099 28.7675 78.9388 29.0414 78.9388 29.3154C78.6677 28.4935 77.5832 29.5894 77.8543 30.1373C77.8543 31.2332 79.21 30.6853 79.21 29.8633C79.4811 30.1373 79.7522 30.1373 80.0234 29.8633C80.2945 30.6853 81.1079 30.9592 81.379 29.8633C81.6501 29.8633 82.1924 29.5894 81.9212 29.0414Z" fill="#FFD34C"/>
<path d="M71.076 30.1376C70.8049 29.5897 69.9915 30.1376 70.2626 30.6856C70.5338 30.9595 71.3472 30.6856 71.076 30.1376Z" fill="#FFD34C"/>
<path d="M82.4634 29.8641C81.65 29.5901 81.9212 30.96 82.4634 30.686C82.7345 30.686 82.7345 30.138 82.4634 29.8641Z" fill="#FFD34C"/>
<path d="M79.7521 30.4123C79.2098 29.8644 78.6676 30.6863 79.2098 30.9603C79.481 30.9603 79.7521 30.6863 79.7521 30.4123Z" fill="#FFD34C"/>
<path d="M80.8367 32.329C80.8367 32.055 80.0233 32.055 80.0233 32.329C80.0233 33.1509 81.1078 32.877 80.8367 32.329Z" fill="#FFD34C"/>
<path d="M38.812 29.5887C38.5409 28.7668 37.7276 27.9448 37.1853 27.3969C36.6431 26.849 35.2874 26.575 36.3719 27.6709C36.1008 27.6709 35.8296 27.9448 36.1008 28.2188C35.5585 28.4928 35.2874 26.301 35.0163 27.3969C34.7452 27.1229 34.7452 27.3969 34.474 27.3969C34.2029 27.3969 34.2029 27.3969 33.9318 27.6709C34.2029 28.2188 33.9318 28.4928 33.3895 28.4928C33.3895 26.575 32.0339 27.9448 32.0339 27.9448C32.5761 27.3969 32.5761 27.1229 33.1184 26.849C33.6607 26.575 33.1184 26.027 32.8473 26.027C31.7627 25.7531 30.4071 26.027 29.5937 27.1229C29.3226 27.3969 28.2381 28.7668 27.6959 29.5887C31.2205 30.4106 35.0163 30.9585 39.0832 31.5065C39.3543 30.9585 39.0832 30.1366 38.812 29.5887Z" fill="#D69119"/>
<path d="M37.1854 27.6719C36.9142 27.3979 37.1854 27.3979 36.9142 26.85C36.9142 26.576 36.9142 27.124 36.9142 26.85C36.6431 26.0281 34.7452 26.576 34.203 26.302C33.3896 26.0281 32.5762 25.4801 32.0339 26.576C31.7628 25.7541 31.2206 26.302 30.6783 26.576C30.9494 26.576 30.6783 26.576 30.4072 26.85C30.1361 27.3979 30.1361 26.85 29.5938 27.3979C29.0516 27.9459 29.5938 28.4938 30.1361 28.2198C29.5938 29.5897 31.2206 29.5897 31.7628 28.7678C32.034 29.5897 33.1185 29.5897 33.1185 28.7678C33.3896 29.0417 33.6607 29.8637 34.203 29.8637C34.7452 29.5897 34.7452 28.2198 35.2875 28.4938C35.2875 28.7678 35.2875 28.7678 35.2875 29.0417C34.7452 28.7678 34.4741 29.5897 34.7452 30.1376C35.2875 30.9595 35.5586 29.8637 35.5586 29.3157C36.372 29.5897 37.7276 28.4938 37.1854 27.6719Z" fill="#F7B722"/>
<path d="M32.0339 29.8632C31.7628 29.5892 31.7628 29.5892 31.4916 29.8632C30.9494 30.6851 32.5761 30.6851 32.0339 29.8632Z" fill="#F7B722"/>
<path d="M29.0515 28.2188C28.7804 28.2188 28.7804 28.7667 29.0515 28.7667C29.5937 29.0407 29.5937 28.2188 29.0515 28.2188Z" fill="#F7B722"/>
<path d="M37.1853 29.041C36.643 29.041 36.643 29.8629 37.1853 29.8629C37.4564 29.8629 37.4564 29.041 37.1853 29.041Z" fill="#F7B722"/>
<path d="M37.7276 29.8628C37.4564 29.8628 37.4564 30.4107 37.7276 30.4107C37.9987 30.4107 37.9987 29.8628 37.7276 29.8628Z" fill="#F7B722"/>
<path d="M37.9987 28.4934C37.7276 28.2195 37.1853 28.2195 37.1853 28.7674C37.1853 29.5893 38.2698 29.0414 37.9987 28.4934Z" fill="#F7B722"/>
<path d="M36.372 26.5753C36.372 26.5753 36.6431 26.0274 36.1008 26.0274C35.2874 25.7534 35.0163 26.3013 34.2029 25.7534C33.6607 25.4794 31.2206 26.0274 30.9494 26.8493C30.6783 25.4794 29.5938 28.4931 30.6783 27.3972L30.9494 27.1233C31.2206 27.9452 32.5762 27.3972 32.8473 27.1233C33.1184 26.8493 33.6607 27.1233 33.9318 27.1233C32.5762 28.2191 36.1008 28.2191 34.7452 27.1233C34.7452 27.1233 37.4565 27.3972 36.372 26.5753Z" fill="#FFE16B"/>
<path d="M37.1853 26.8486C36.9142 26.0267 36.3719 26.8486 36.3719 27.1225C36.3719 28.2184 37.4565 27.3965 37.1853 26.8486Z" fill="#FFE16B"/>
<path d="M38.2697 27.945C38.2697 27.671 37.9986 27.123 37.7274 27.123C36.3718 27.671 38.5408 28.7669 38.2697 27.945C38.2697 28.2189 37.9985 27.945 38.2697 27.945Z" fill="#FFE16B"/>
<path d="M38.2698 28.7668C37.9986 28.4928 37.9986 29.5887 38.5409 29.3147L38.2698 28.7668Z" fill="#FFE16B"/>
<path d="M37.9986 30.6851C37.7275 30.6851 37.7275 31.233 37.9986 31.233C38.2698 31.233 38.2698 30.6851 37.9986 30.6851Z" fill="#FFE16B"/>
<path d="M36.1007 30.4106C35.8296 29.8626 35.2874 30.4106 35.2874 30.9585C35.5585 31.2325 36.3718 30.9585 36.1007 30.4106C36.1007 30.6845 35.8296 30.4106 36.1007 30.4106Z" fill="#FFE16B"/>
<path d="M36.643 27.6708C36.3719 27.1229 35.5585 27.6708 35.8297 28.2188C35.8297 29.0407 36.9142 28.2188 36.643 27.6708C36.643 27.9448 36.3719 27.6708 36.643 27.6708Z" fill="#FFE16B"/>
<path d="M32.5761 28.2186C32.5761 27.6706 32.0339 27.6706 31.7628 28.2186C31.7628 29.0405 32.8473 29.0405 32.5761 28.2186Z" fill="#FFE16B"/>
<g style="mix-blend-mode:overlay" opacity="0.1">
<path d="M60.2312 27.1225C60.2312 28.4924 58.3333 31.506 55.8931 31.506C53.453 31.506 49.9283 30.6841 51.284 27.1225C51.8262 25.7527 53.453 24.3828 55.8931 24.3828C58.3333 24.3828 60.2312 25.7527 60.2312 27.1225Z" fill="url(#paint11_radial_20015_111948)"/>
<path d="M67.8227 30.9585C67.8227 32.3283 65.9248 35.342 63.4846 35.342C61.0445 35.342 57.5198 34.5201 58.8755 30.9585C59.4177 29.5886 61.0445 28.2188 63.4846 28.2188C65.9248 28.2188 67.8227 29.3146 67.8227 30.9585Z" fill="url(#paint12_radial_20015_111948)"/>
<path d="M80.5657 28.7666C80.5657 30.1364 78.6678 33.1501 76.2277 33.1501C73.7875 33.1501 70.2629 32.3282 71.6185 28.7666C72.1608 27.3967 73.7875 26.0269 76.2277 26.0269C78.6678 26.0269 80.5657 27.1227 80.5657 28.7666Z" fill="url(#paint13_radial_20015_111948)"/>
<path d="M90.8685 25.206C90.8685 26.5759 88.9706 29.5896 86.5304 29.5896C84.0903 29.5896 80.5657 28.7676 81.9213 25.206C82.4635 23.8362 84.0903 22.4663 86.5304 22.4663C88.9706 22.4663 90.8685 23.8362 90.8685 25.206Z" fill="url(#paint14_radial_20015_111948)"/>
<path d="M104.696 26.5756C104.696 28.2195 102.798 30.9592 100.358 30.9592C97.9177 30.9592 94.3931 30.1373 95.7487 26.5756C96.2909 25.2058 97.9177 23.8359 100.358 23.8359C102.798 23.8359 104.696 25.2058 104.696 26.5756Z" fill="url(#paint15_radial_20015_111948)"/>
<path d="M78.1254 23.0131C78.1254 24.383 76.2275 27.3967 73.7874 27.3967C71.3473 27.3967 67.8226 26.5748 69.1783 23.0131C69.7205 21.6433 71.3473 20.2734 73.7874 20.2734C76.2275 20.2734 78.1254 21.6433 78.1254 23.0131Z" fill="url(#paint16_radial_20015_111948)"/>
<path d="M49.6571 22.4659C49.6571 24.1098 48.5726 25.2057 46.1325 25.2057C43.6923 25.2057 40.1676 24.3837 41.5233 20.8221C42.0655 19.4523 43.6923 18.0824 46.1325 18.0824C48.3015 17.8084 49.6571 20.8221 49.6571 22.4659Z" fill="url(#paint17_radial_20015_111948)"/>
<path d="M58.3332 22.1916C58.3332 23.5615 57.2487 24.9314 54.8085 24.9314C52.3684 24.9314 48.8437 24.1094 50.1994 20.5478C50.7416 19.178 52.3684 17.8081 54.8085 17.8081C57.2487 17.8081 58.3332 20.5478 58.3332 22.1916Z" fill="url(#paint18_radial_20015_111948)"/>
<path d="M26.8825 25.4787C26.8825 26.8486 24.9846 27.6705 22.8156 27.6705C20.3754 27.6705 16.5797 27.6705 18.2064 24.1088C18.7487 22.739 20.3754 21.3691 22.8156 21.3691C24.9846 21.3691 26.8825 23.8349 26.8825 25.4787Z" fill="url(#paint19_radial_20015_111948)"/>
<path opacity="0.7" d="M36.643 22.739C36.643 24.3828 34.7451 24.9307 32.5761 24.9307C30.136 24.9307 26.3402 24.9307 27.9669 21.3691C28.5092 19.9992 30.136 18.6294 32.5761 18.6294C34.7451 18.9034 36.643 21.3691 36.643 22.739Z" fill="url(#paint20_radial_20015_111948)"/>
<path opacity="0.7" d="M114.999 23.0134C114.999 24.6572 113.101 25.2051 110.932 25.2051C108.492 25.2051 104.696 25.2051 106.323 21.6435C106.865 20.2737 108.492 18.9038 110.932 18.9038C113.101 18.9038 114.999 21.3695 114.999 23.0134Z" fill="url(#paint21_radial_20015_111948)"/>
<path opacity="0.7" d="M89.5128 17.8078C89.5128 19.1777 87.6149 19.9996 85.4459 19.9996C83.0058 19.9996 79.21 19.9996 80.8367 16.4379C81.379 15.0681 83.0058 13.6982 85.4459 13.6982C87.6149 13.6982 89.5128 16.164 89.5128 17.8078Z" fill="url(#paint22_radial_20015_111948)"/>
<path opacity="0.7" d="M67.5516 18.0822C67.5516 19.4521 65.6537 20.274 63.4846 20.274C61.0445 20.274 57.2487 20.274 58.8755 16.7124C59.4178 15.3425 61.0445 13.9727 63.4846 13.9727C65.6537 13.9727 67.5516 16.7124 67.5516 18.0822Z" fill="url(#paint23_radial_20015_111948)"/>
<path opacity="0.7" d="M77.8544 18.0816C77.8544 19.1775 76.4988 19.9994 74.6009 19.9994C72.703 19.9994 69.7206 19.9994 70.8051 17.2597C71.3473 16.1638 72.4319 15.0679 74.3297 15.0679C76.2276 14.7939 77.8544 16.9857 77.8544 18.0816Z" fill="url(#paint24_radial_20015_111948)"/>
</g>
<defs>
<linearGradient id="paint0_linear_20015_111948" x1="34.0151" y1="74.4953" x2="112.991" y2="74.6161" gradientUnits="userSpaceOnUse">
<stop stop-color="#8E999F"/>
<stop offset="0.213" stop-color="#B6BCC2"/>
<stop offset="0.6749" stop-color="#919BA5"/>
<stop offset="1" stop-color="#8C9398"/>
</linearGradient>
<linearGradient id="paint1_linear_20015_111948" x1="-0.892898" y1="38.0746" x2="139.228" y2="38.0746" gradientUnits="userSpaceOnUse">
<stop offset="0.1264" stop-color="#EBEBEB"/>
<stop offset="0.3175" stop-color="#CAD5DA"/>
<stop offset="0.6749" stop-color="#AFBBC2"/>
<stop offset="1" stop-color="#AAB2B6"/>
</linearGradient>
<linearGradient id="paint2_linear_20015_111948" x1="-0.0710438" y1="44.557" x2="139.925" y2="44.557" gradientUnits="userSpaceOnUse">
<stop offset="0.1264" stop-color="#EEEEEE"/>
<stop offset="0.3175" stop-color="#E0DBD3"/>
<stop offset="0.6749" stop-color="#CCC8BC"/>
<stop offset="1" stop-color="#C2BEB8"/>
</linearGradient>
<linearGradient id="paint3_linear_20015_111948" x1="-0.0290572" y1="17.4358" x2="139.856" y2="17.4358" gradientUnits="userSpaceOnUse">
<stop offset="0.00532127" stop-color="#C1BDAE"/>
<stop offset="0.3175" stop-color="#E0DBD3"/>
<stop offset="0.5565" stop-color="#EFEEEB"/>
<stop offset="0.6613" stop-color="#EBEAE5"/>
<stop offset="0.7949" stop-color="#DFDDD6"/>
<stop offset="0.9419" stop-color="#CCC8BC"/>
</linearGradient>
<linearGradient id="paint4_linear_20015_111948" x1="69.986" y1="22.3278" x2="69.6682" y2="-0.633329" gradientUnits="userSpaceOnUse">
<stop offset="0.00532127" stop-color="#C1BDAE"/>
<stop offset="0.2522" stop-color="#E0DBD3"/>
<stop offset="0.5565" stop-color="#EFEEEB"/>
<stop offset="0.6848" stop-color="#EFEEEB"/>
</linearGradient>
<linearGradient id="paint5_linear_20015_111948" x1="-0.0290572" y1="17.4358" x2="139.856" y2="17.4358" gradientUnits="userSpaceOnUse">
<stop offset="0.3175" stop-color="#E0DBD3"/>
<stop offset="0.5565" stop-color="#EFEEEB"/>
<stop offset="0.6613" stop-color="#EBEAE5"/>
<stop offset="0.7949" stop-color="#DFDDD6"/>
</linearGradient>
<linearGradient id="paint6_linear_20015_111948" x1="28.6724" y1="26.0175" x2="139.893" y2="26.0175" gradientUnits="userSpaceOnUse">
<stop stop-color="#AEA99F"/>
<stop offset="0.213" stop-color="#CCC8C2"/>
<stop offset="0.6749" stop-color="#B3AFA2"/>
<stop offset="1" stop-color="#A8A49D"/>
</linearGradient>
<linearGradient id="paint7_linear_20015_111948" x1="13.6175" y1="24.5197" x2="125.997" y2="24.5197" gradientUnits="userSpaceOnUse">
<stop stop-color="white"/>
<stop offset="0.4969" stop-color="#F8F8F3"/>
<stop offset="1" stop-color="#DCDCDC"/>
</linearGradient>
<radialGradient id="paint8_radial_20015_111948" cx="0" cy="0" r="1" gradientUnits="userSpaceOnUse" gradientTransform="translate(69.8074 24.5224) scale(40.1183 45.7988)">
<stop stop-color="#E0DBD3"/>
<stop offset="0.6749" stop-color="#CCC8BC"/>
<stop offset="1" stop-color="#C2BEB8"/>
</radialGradient>
<radialGradient id="paint9_radial_20015_111948" cx="0" cy="0" r="1" gradientUnits="userSpaceOnUse" gradientTransform="translate(69.8083 24.5238) scale(40.1186 45.7991)">
<stop stop-color="#E0DBD3"/>
<stop offset="0.6749" stop-color="#CCC8BC"/>
<stop offset="1" stop-color="#C2BEB8"/>
</radialGradient>
<radialGradient id="paint10_radial_20015_111948" cx="0" cy="0" r="1" gradientUnits="userSpaceOnUse" gradientTransform="translate(69.8093 24.5233) scale(40.118 45.7985)">
<stop stop-color="#E0DBD3"/>
<stop offset="0.6749" stop-color="#CCC8BC"/>
<stop offset="1" stop-color="#C2BEB8"/>
</radialGradient>
<radialGradient id="paint11_radial_20015_111948" cx="0" cy="0" r="1" gradientUnits="userSpaceOnUse" gradientTransform="translate(55.7824 23.3208) scale(6.2769 7.16566)">
<stop offset="0.1572" stop-color="white"/>
<stop offset="0.5178" stop-color="#FFE16B"/>
<stop offset="0.9834"/>
</radialGradient>
<radialGradient id="paint12_radial_20015_111948" cx="0" cy="0" r="1" gradientUnits="userSpaceOnUse" gradientTransform="translate(63.3623 27.0959) scale(6.27743 7.16626)">
<stop offset="0.1572" stop-color="white"/>
<stop offset="0.5178" stop-color="#FFE16B"/>
<stop offset="0.9834"/>
</radialGradient>
<radialGradient id="paint13_radial_20015_111948" cx="0" cy="0" r="1" gradientUnits="userSpaceOnUse" gradientTransform="translate(75.9023 24.8935) scale(6.27743 7.16626)">
<stop offset="0.1572" stop-color="white"/>
<stop offset="0.5178" stop-color="#FFE16B"/>
<stop offset="0.9834"/>
</radialGradient>
<radialGradient id="paint14_radial_20015_111948" cx="0" cy="0" r="1" gradientUnits="userSpaceOnUse" gradientTransform="translate(86.2389 21.4353) scale(6.27743 7.16628)">
<stop offset="0.1572" stop-color="white"/>
<stop offset="0.5178" stop-color="#FFE16B"/>
<stop offset="0.9834"/>
</radialGradient>
<radialGradient id="paint15_radial_20015_111948" cx="0" cy="0" r="1" gradientUnits="userSpaceOnUse" gradientTransform="translate(100.155 22.851) scale(6.27585 7.16447)">
<stop offset="0.1572" stop-color="white"/>
<stop offset="0.5178" stop-color="#FFE16B"/>
<stop offset="0.9834"/>
</radialGradient>
<radialGradient id="paint16_radial_20015_111948" cx="0" cy="0" r="1" gradientUnits="userSpaceOnUse" gradientTransform="translate(73.695 19.2323) scale(6.27714 7.16596)">
<stop offset="0.1572" stop-color="white"/>
<stop offset="0.5178" stop-color="#FFE16B"/>
<stop offset="0.9834"/>
</radialGradient>
<radialGradient id="paint17_radial_20015_111948" cx="0" cy="0" r="1" gradientUnits="userSpaceOnUse" gradientTransform="translate(45.4007 16.8169) scale(6.14256 7.01231)">
<stop offset="0.1572" stop-color="white"/>
<stop offset="0.5178" stop-color="#FFE16B"/>
<stop offset="0.9834"/>
</radialGradient>
<radialGradient id="paint18_radial_20015_111948" cx="0" cy="0" r="1" gradientUnits="userSpaceOnUse" gradientTransform="translate(54.22 16.6086) scale(6.13836 7.00752)">
<stop offset="0.1572" stop-color="white"/>
<stop offset="0.5178" stop-color="#FFE16B"/>
<stop offset="0.9834"/>
</radialGradient>
<radialGradient id="paint19_radial_20015_111948" cx="0" cy="0" r="1" gradientUnits="userSpaceOnUse" gradientTransform="translate(22.3421 20.3062) scale(5.75875 6.57415)">
<stop offset="0.1572" stop-color="white"/>
<stop offset="0.5178" stop-color="#FFE16B"/>
<stop offset="0.9834"/>
</radialGradient>
<radialGradient id="paint20_radial_20015_111948" cx="0" cy="0" r="1" gradientUnits="userSpaceOnUse" gradientTransform="translate(32.1729 17.7883) scale(5.76114 6.57686)">
<stop offset="0.1572" stop-color="white"/>
<stop offset="0.5178" stop-color="#FFE16B"/>
<stop offset="0.9834"/>
</radialGradient>
<radialGradient id="paint21_radial_20015_111948" cx="0" cy="0" r="1" gradientUnits="userSpaceOnUse" gradientTransform="translate(110.404 17.8457) scale(5.7577 6.57295)">
<stop offset="0.1572" stop-color="white"/>
<stop offset="0.5178" stop-color="#FFE16B"/>
<stop offset="0.9834"/>
</radialGradient>
<radialGradient id="paint22_radial_20015_111948" cx="0" cy="0" r="1" gradientUnits="userSpaceOnUse" gradientTransform="translate(84.9536 12.7029) scale(5.7593 6.57477)">
<stop offset="0.1572" stop-color="white"/>
<stop offset="0.5178" stop-color="#FFE16B"/>
<stop offset="0.9834"/>
</radialGradient>
<radialGradient id="paint23_radial_20015_111948" cx="0" cy="0" r="1" gradientUnits="userSpaceOnUse" gradientTransform="translate(63.0879 13.0158) scale(5.76111 6.57686)">
<stop offset="0.1572" stop-color="white"/>
<stop offset="0.5178" stop-color="#FFE16B"/>
<stop offset="0.9834"/>
</radialGradient>
<radialGradient id="paint24_radial_20015_111948" cx="0" cy="0" r="1" gradientUnits="userSpaceOnUse" gradientTransform="translate(74.1357 14.0466) scale(4.62625 5.2813)">
<stop offset="0.1572" stop-color="white"/>
<stop offset="0.5178" stop-color="#FFE16B"/>
<stop offset="0.9834"/>
</radialGradient>
</defs>
</svg>
