<svg width="140" height="86" viewBox="0 0 140 86" fill="none" xmlns="http://www.w3.org/2000/svg">
<path d="M29.8064 78.3856L32.0645 82.4168C32.0645 82.4168 40.6451 86.0002 67.7419 86.0002C94.8387 86.0002 108.387 81.0731 108.387 81.0731L110.645 76.146L29.8064 78.3856Z" fill="url(#paint0_linear_20007_82741)"/>
<g style="mix-blend-mode:overlay" opacity="0.2">
<path d="M47.8709 77.9375H45.6128V84.6563C46.516 84.6563 46.9676 84.6562 47.8709 85.1042V77.9375Z" fill="url(#paint1_linear_20007_82741)"/>
</g>
<g style="mix-blend-mode:overlay" opacity="0.2">
<path d="M82.1935 77.0418V85.5522C99.3548 84.2085 107.935 81.0731 107.935 81.0731L110.193 76.146L82.1935 77.0418Z" fill="url(#paint2_linear_20007_82741)"/>
</g>
<path d="M137.29 16.5728H75.871H64.129H2.70964H0V59.5728C0 59.5728 -1.37283e-05 61.8123 3.16128 63.604C5.87095 65.3957 30.7097 79.729 30.7097 79.729C30.7097 79.729 46.5161 83.3124 70 83.3124C93.4839 83.3124 109.29 79.729 109.29 79.729C109.29 79.729 134.129 65.3957 136.839 63.604C139.548 61.8123 140 59.5728 140 59.5728V16.5728H137.29Z" fill="url(#paint3_linear_20007_82741)"/>
<path d="M0 59.5732C0 59.5732 -1.37283e-05 61.8128 3.16128 63.6045C5.87095 65.3961 30.7097 79.7295 30.7097 79.7295C30.7097 79.7295 46.5161 83.3128 70 83.3128C93.4839 83.3128 109.29 79.7295 109.29 79.7295C109.29 79.7295 134.129 65.3961 136.839 63.6045C138.645 62.7086 139.097 61.3649 139.548 60.4691C52.8387 83.7607 0 59.5732 0 59.5732Z" fill="url(#paint4_linear_20007_82741)"/>
<g style="mix-blend-mode:overlay" opacity="0.1">
<path d="M137.29 16.5728H97.5483L96.1935 68.979L82.1935 83.3124C98.9032 82.4165 109.29 80.177 109.29 80.177C109.29 80.177 134.129 65.8436 136.839 64.052C139.548 62.2603 140 60.0207 140 60.0207V17.0207L137.29 16.5728Z" fill="url(#paint5_linear_20007_82741)"/>
</g>
<g style="mix-blend-mode:overlay" opacity="0.2">
<path d="M22.5806 66.2915L22.129 16.5728H9.93542L11.7418 63.604L45.6128 82.4165C46.516 82.4165 47.8709 82.4165 48.7742 82.8644V82.4165L22.5806 66.2915Z" fill="url(#paint6_linear_20007_82741)"/>
</g>
<path d="M140 16.5729C140 25.5312 108.839 34.0417 70 34.0417C31.1613 34.0417 0 25.5312 0 16.5729C0 7.61457 31.1613 0 70 0C108.839 0 140 7.61457 140 16.5729Z" fill="url(#paint7_linear_20007_82741)"/>
<path d="M140 16.5729C140 25.5312 108.839 34.0417 70 34.0417C31.1613 34.0417 0 25.5312 0 16.5729C0 7.61457 31.1613 0 70 0C108.839 0 140 7.61457 140 16.5729Z" fill="url(#paint8_linear_20007_82741)"/>
<path d="M135.032 22.8441C124.645 16.5732 99.3549 12.542 70.0001 12.542C40.6452 12.542 15.3549 17.0211 4.96777 22.8441C15.3549 29.1149 40.6452 34.042 70.0001 34.042C99.3549 34.042 124.645 29.5628 135.032 22.8441Z" fill="url(#paint9_linear_20007_82741)"/>
<path d="M135.032 22.8441C124.645 16.5732 99.3549 12.542 70.0001 12.542C40.6452 12.542 15.3549 17.0211 4.96777 22.8441C15.3549 29.1149 40.6452 34.042 70.0001 34.042C99.3549 34.042 124.645 29.5628 135.032 22.8441Z" fill="url(#paint10_radial_20007_82741)"/>
<g style="mix-blend-mode:overlay" opacity="0.2">
<path d="M39.7419 27.771C50.5806 28.2189 61.4193 27.771 72.258 26.4272C83.0967 25.0835 94.3871 22.8439 104.774 18.8126C107.032 17.9168 109.29 17.021 111.548 16.1251C99.8064 14.3335 85.8064 12.9897 70 12.9897C44.7097 12.9897 22.5806 16.1251 10.3871 21.0522C18.9677 25.9793 29.8064 27.3231 39.7419 27.771Z" fill="url(#paint11_linear_20007_82741)"/>
</g>
<path d="M70 0C31.1613 0 0 7.61457 0 16.5729C0 25.5312 31.1613 34.0417 70 34.0417C108.839 34.0417 140 25.5312 140 16.5729C140 7.61457 108.839 0 70 0ZM70 33.1459C32.9677 33.1459 1.35485 25.0833 1.35485 16.5729C1.35485 8.06249 32.9677 0.89582 70 0.89582C107.032 0.89582 138.645 8.06249 138.645 16.5729C138.645 25.0833 107.032 33.1459 70 33.1459Z" fill="url(#paint12_linear_20007_82741)"/>
<path opacity="0.7" d="M28.9032 30.4579C28.9032 30.4579 29.3548 30.4579 30.2581 30.4579C30.7097 30.4579 31.1613 30.4579 31.6129 30.9058C32.0645 30.9058 32.0645 30.9058 32.5161 30.9058C32.9677 30.9058 33.4193 30.9058 33.4193 30.9058C34.3226 30.9058 35.2258 31.3537 36.129 31.3537C36.5806 31.3537 37.0323 31.3537 37.4839 31.3537C37.9355 31.3537 38.3871 31.3537 39.2903 31.3537C40.1935 31.3537 41.5484 31.8016 42.9032 31.8016C44.2581 31.8016 45.6129 32.2495 46.9677 32.2495C48.3226 32.2495 49.6774 32.2495 51.0323 32.6975C51.9355 32.6975 52.3871 32.6975 53.2903 32.6975C54.1936 32.6975 54.6452 32.6975 55.5484 32.6975C58.7097 32.6975 61.871 33.1454 65.4839 33.1454C67.2903 33.1454 69.0967 33.1454 70.4516 33.1454C72.258 33.1454 74.0645 33.1454 75.871 33.1454C79.4839 33.1454 83.0968 32.6975 86.7097 32.6975C90.3226 32.2495 93.9354 32.2495 97.5484 31.8016C101.161 31.3537 104.323 30.9058 107.935 30.4579C109.742 30.01 111.097 30.0099 112.903 29.562C114.71 29.1141 116.065 29.1141 117.419 28.6662C120.581 27.7704 123.29 27.3224 126 26.4266C128.71 25.5308 130.968 24.635 132.774 23.7391C133.677 23.2912 134.581 22.8433 135.484 22.3954C136.387 21.9474 136.839 21.4995 137.742 21.0516C138.194 20.6037 139.097 20.1558 139.097 19.2599C139.548 18.812 139.548 18.3641 140 17.9162C140 17.9162 140 17.9162 140 17.4683C140 17.4683 140 17.4683 140 17.0204C140 17.0204 140 17.0204 140 17.4683C140 17.4683 140 17.4683 140 17.9162C139.548 18.812 139.097 20.1558 137.742 21.0516C137.29 21.4995 136.387 21.9474 135.484 22.8433C134.581 23.2912 133.677 23.7391 132.774 24.6349C130.968 25.5308 128.258 26.4266 126 27.3224C123.29 28.2183 120.581 29.1141 117.419 29.562C116.065 30.0099 114.258 30.4579 112.903 30.4579C111.097 30.9058 109.742 30.9058 107.935 31.3537C104.774 31.8016 101.161 32.2495 97.5484 32.6975C93.9354 33.1454 90.3226 33.1454 86.7097 33.5933C83.0968 33.5933 79.4839 34.0412 75.871 34.0412C74.0645 34.0412 72.258 34.0412 70.4516 34.0412C68.6451 34.0412 66.8387 34.0412 65.4839 34.0412C64.5807 34.0412 63.6774 34.0412 62.7742 34.0412C61.8709 34.0412 60.9677 34.0412 60.5161 34.0412C58.7097 34.0412 57.3549 34.0412 55.5484 33.5933C54.6452 33.5933 54.1936 33.5933 53.2903 33.5933C52.3871 33.5933 51.9355 33.5933 51.0323 33.5933C49.6774 33.5933 48.3226 33.5933 46.9677 33.1454C45.6129 33.1454 44.2581 32.6975 42.9032 32.6975C41.5484 32.6975 40.6451 32.2495 39.2903 32.2495C38.8387 32.2495 38.3871 32.2495 37.4839 32.2495C37.0323 32.2495 36.5806 32.2495 36.129 32.2495C35.2258 32.2495 34.3226 31.8016 33.4193 31.8016C32.9677 31.8016 32.5161 31.8016 32.5161 31.8016C32.0645 31.8016 32.0645 31.8016 31.6129 31.8016C31.1613 31.8016 30.7097 31.8016 30.2581 31.3537C29.3548 30.9058 28.9032 30.9058 28.9032 30.4579Z" fill="url(#paint13_linear_20007_82741)"/>
<path opacity="0.5" d="M10.8386 63.604C10.8386 63.604 58.7096 77.4894 111.097 66.7394C111.097 66.7394 62.3225 75.2498 10.8386 63.604Z" fill="url(#paint14_linear_20007_82741)"/>
<path d="M57.3549 26.4274C57.3549 26.8753 56.9033 27.3232 56 27.7711C55.0968 28.219 54.1936 27.7711 54.1936 27.3232C54.1936 26.8753 54.6452 26.4274 55.5485 25.9795C56.4517 25.9795 57.3549 25.9795 57.3549 26.4274Z" fill="url(#paint15_radial_20007_82741)"/>
<path d="M74.9677 25.5314C74.9677 25.9793 74.5161 26.4272 73.1613 26.8752C72.2581 26.8752 71.3549 26.8752 71.3549 26.4272C71.3549 25.9793 71.8064 25.5314 73.1613 25.0835C74.0645 24.6356 74.9677 25.0835 74.9677 25.5314Z" fill="url(#paint16_radial_20007_82741)"/>
<path d="M37.4839 28.2188C37.4839 28.6667 37.0322 29.1146 36.129 29.5625C35.2258 30.0104 34.3225 30.0104 34.3225 29.5625C34.3225 29.1146 34.7741 28.6667 35.6774 28.2188C36.5806 27.7708 37.4839 27.7708 37.4839 28.2188Z" fill="url(#paint17_radial_20007_82741)"/>
<path d="M37.4839 19.2607C37.4839 19.7087 37.0322 19.7086 36.5806 20.1566C36.129 20.1566 35.6774 20.1566 35.2258 20.1566C35.2258 19.7086 35.6774 19.7087 36.129 19.2607C37.0323 19.2607 37.4839 19.2607 37.4839 19.2607Z" fill="url(#paint18_radial_20007_82741)"/>
<path d="M60.5161 16.1252C60.5161 16.5731 60.0645 16.5731 59.6129 16.5731C59.1613 16.5731 58.7097 16.5731 58.7097 16.1252C58.7097 15.6772 59.1613 15.6772 59.6129 15.6772C60.0645 15.6772 60.5161 15.6772 60.5161 16.1252Z" fill="url(#paint19_radial_20007_82741)"/>
<path d="M78.5806 20.1564C78.5806 20.6043 78.129 20.6043 77.6774 20.6043C77.2258 20.6043 76.7742 20.6043 76.7742 20.1564C76.7742 19.7085 77.2258 19.7085 77.6774 19.7085C77.6774 19.7085 78.5806 19.7085 78.5806 20.1564Z" fill="url(#paint20_radial_20007_82741)"/>
<path d="M50.1289 28.2189C50.1289 28.6669 49.6773 28.6669 49.2257 28.6669C48.7741 28.6669 48.3225 28.6669 48.3225 28.2189C48.3225 27.771 48.7741 27.771 49.2257 27.771C49.6773 27.771 50.1289 28.2189 50.1289 28.2189Z" fill="url(#paint21_radial_20007_82741)"/>
<path d="M105.226 30.9064C105.226 31.3543 104.774 31.3543 104.323 31.3543C103.871 31.3543 103.419 31.3543 103.419 30.9064C103.419 30.4585 103.871 30.4585 104.323 30.4585C104.323 30.4585 104.774 30.4585 105.226 30.9064Z" fill="url(#paint22_radial_20007_82741)"/>
<path d="M46.9677 17.9167C46.9677 18.3646 46.5161 18.3646 46.0645 18.3646C45.6129 18.3646 45.1613 18.3646 45.1613 17.9167C45.1613 17.4687 45.6129 17.4688 46.0645 17.4688C46.5161 17.4688 46.9677 17.4687 46.9677 17.9167Z" fill="url(#paint23_radial_20007_82741)"/>
<path d="M78.5806 20.1564C78.5806 20.6043 78.129 20.6043 77.6774 20.6043C77.2258 20.6043 76.7742 20.6043 76.7742 20.1564C76.7742 19.7085 77.2258 19.7085 77.6774 19.7085C78.129 19.7085 78.5806 20.1564 78.5806 20.1564Z" fill="url(#paint24_radial_20007_82741)"/>
<path d="M81.7418 16.5729C81.7418 17.0208 81.2902 17.0209 80.8386 17.0209C80.387 17.0209 79.9354 17.0208 79.9354 16.5729C79.9354 16.125 80.387 16.125 80.8386 16.125C81.2902 16.125 81.7418 16.5729 81.7418 16.5729Z" fill="url(#paint25_radial_20007_82741)"/>
<path d="M36.5806 29.1149C36.5806 29.5628 36.129 29.5628 35.6774 29.5628C35.2258 29.5628 34.7742 29.5628 34.7742 29.1149C34.7742 28.667 35.2258 28.667 35.6774 28.667C36.129 28.667 36.5806 28.667 36.5806 29.1149Z" fill="url(#paint26_radial_20007_82741)"/>
<path d="M84.9032 25.5309C84.9032 25.9788 84.4515 25.9789 83.9999 25.9789C83.5483 25.9789 83.0967 25.9788 83.0967 25.5309C83.0967 25.083 83.5483 25.083 83.9999 25.083C83.9999 25.083 84.9032 25.083 84.9032 25.5309Z" fill="url(#paint27_radial_20007_82741)"/>
<path d="M94.387 22.8439C94.387 23.2918 93.9354 23.2918 93.4838 23.2918C93.0322 23.2918 92.5806 23.2918 92.5806 22.8439C92.5806 22.396 93.0322 22.396 93.4838 22.396C93.9354 22.396 94.387 22.396 94.387 22.8439Z" fill="url(#paint28_radial_20007_82741)"/>
<path d="M112.903 24.6354C112.903 25.0833 112.452 25.0833 112 25.0833C111.548 25.0833 111.097 25.0833 111.097 24.6354C111.097 24.1875 111.548 24.1875 112 24.1875C112.452 24.1875 112.903 24.6354 112.903 24.6354Z" fill="url(#paint29_radial_20007_82741)"/>
<path d="M107.935 17.0207C107.935 17.4686 107.484 17.4686 106.581 17.9165C105.677 17.9165 105.226 17.9165 105.226 17.4686C105.226 17.0207 105.677 17.0207 106.581 16.5728C107.032 16.5728 107.935 16.5728 107.935 17.0207Z" fill="url(#paint30_radial_20007_82741)"/>
<path d="M17.1613 21.0519C17.1613 21.4998 16.7097 21.9478 15.8065 21.9478C14.9033 21.9478 14.4516 21.9478 14 21.4999C14 21.0519 14.4516 20.604 15.3549 20.604C16.2581 20.604 17.1613 21.0519 17.1613 21.0519Z" fill="url(#paint31_radial_20007_82741)"/>
<path d="M67.7419 28.2183C67.2903 28.2183 66.8386 28.6662 66.387 28.6662C65.9354 28.6662 64.5806 30.4578 65.0322 30.4578C65.4838 30.4578 65.9354 30.4578 65.9354 30.0099C65.4838 30.4578 66.387 29.562 66.387 29.562C66.8386 29.562 67.2902 29.1141 67.2902 28.6662C67.7419 29.1141 68.1935 28.2183 67.7419 28.2183Z" fill="#A5BF28"/>
<path d="M21.6775 22.3955C21.2259 22.3955 20.7742 22.8434 19.871 22.8434C19.4194 23.2913 18.9678 23.2913 18.9678 24.1872C18.9678 24.6351 18.9678 24.6351 19.4194 24.6351C19.871 24.1872 20.3226 24.1872 20.7742 24.1872C21.2258 24.1872 21.6775 23.7392 21.6775 23.2913C21.6775 22.8434 22.1291 22.3955 21.6775 22.3955Z" fill="#A5BF28"/>
<path d="M45.1613 26.875C44.2581 26.875 43.3548 27.3229 42.4516 27.3229C42 27.3229 41.5484 27.7708 41.5484 28.2188C41.5484 28.6667 41.0968 29.1146 41.5484 29.1146C42.4516 29.1146 43.3549 28.6667 44.2581 28.6667C44.7097 28.6667 45.1613 28.2187 45.1613 27.7708C45.1613 27.3229 45.6129 26.875 45.1613 26.875Z" fill="#A5BF28"/>
<path d="M46.5161 20.1563C45.6129 20.6042 44.7096 21.0521 43.8064 21.5C43.3548 21.5 42.9032 21.9479 42.9032 22.3958C42.9032 22.8438 42.4516 23.2917 43.3548 23.2917C44.258 22.8437 45.6129 22.3958 46.5161 21.9479C46.9677 21.9479 47.4193 21.0521 47.4193 20.6042C46.9677 20.1562 46.9677 20.1563 46.5161 20.1563Z" fill="#A5BF28"/>
<path d="M30.7098 23.7393C30.2581 23.7393 29.8065 24.1872 28.9033 24.1872C28.4517 24.1872 27.0968 25.9788 27.5484 25.9788C28 25.9788 28.9033 25.9788 29.3549 25.5309C29.8065 25.5309 30.2581 25.083 30.2581 24.6351C31.1613 24.1872 31.1614 23.7393 30.7098 23.7393Z" fill="#A5BF28"/>
<path d="M30.7097 16.5732C30.7097 16.1253 30.7097 16.1253 30.7097 16.5732C30.2581 16.5732 29.8064 16.5732 29.8064 16.5732C29.3548 16.5732 28.9032 17.0212 28.9032 17.4691L28.4517 17.917V18.3649C28.9033 18.3649 28.9033 18.3649 29.3549 18.3649C29.8065 18.3649 30.2581 17.917 30.2581 17.4691C30.7097 17.0212 30.7097 16.5732 30.7097 16.5732Z" fill="#A5BF28"/>
<path d="M66.8387 12.5415C66.3871 12.5415 65.9354 12.5415 65.4838 12.5415C65.0322 12.5415 64.5806 12.9894 64.5806 13.4373C64.5806 13.4373 64.129 14.3332 64.5806 14.3332C65.0322 14.3332 65.9354 14.3332 66.387 14.3332C66.8386 14.3332 67.2902 13.8852 67.2902 13.4373C67.2902 12.9894 67.2903 12.0936 66.8387 12.5415Z" fill="#A5BF28"/>
<path d="M72.2581 20.1558C72.2581 19.7078 72.2581 19.7078 72.2581 20.1558C71.3548 20.1558 70.9032 20.6037 70.9032 20.6037C70.4516 21.0516 70 21.4995 70 21.9474C70 22.3954 70.4516 22.3954 70.9032 21.9474C71.3548 21.9474 71.8064 21.4995 71.8064 21.0516C72.258 20.1557 72.2581 20.1558 72.2581 20.1558Z" fill="#A5BF28"/>
<path d="M91.6774 27.771C91.2258 27.771 91.2257 28.2189 90.7741 28.2189C90.3225 28.2189 90.3225 28.6668 89.8709 28.6668C89.4193 28.6668 88.9677 29.1147 88.9677 29.5627C88.9677 29.5627 88.5161 30.4585 88.9677 30.4585C89.4193 30.4585 89.8709 30.0106 89.8709 30.0106C90.3225 30.0106 90.7741 29.5627 91.2257 29.5627C91.6774 29.1147 92.129 29.1148 92.129 28.2189C92.129 27.771 92.129 27.3231 91.6774 27.771Z" fill="#A5BF28"/>
<path d="M101.613 24.6357C101.161 24.6357 101.161 24.6357 101.613 24.6357C101.161 24.6357 101.161 24.6357 100.71 24.6357C100.258 24.6357 99.8064 25.0836 99.8064 25.5316C99.8064 25.5316 99.3548 26.4274 99.8064 26.4274C100.258 26.4274 100.258 26.4274 100.71 25.9795C101.161 26.4274 101.161 25.5316 101.613 24.6357C101.613 25.0837 101.613 25.0837 101.613 24.6357Z" fill="#A5BF28"/>
<path d="M94.8387 13.4375C93.9355 13.8854 93.0323 14.3333 92.129 14.7813C91.6774 15.2292 91.2258 15.6771 91.2258 16.125C91.2258 16.5729 91.6774 16.5729 92.129 16.125C93.0323 15.6771 93.9355 15.2292 94.8387 15.2292C95.2904 15.2292 95.742 14.3333 95.742 13.8854C95.2903 13.4375 95.2904 13.4375 94.8387 13.4375Z" fill="#A5BF28"/>
<path d="M120.129 20.604H117.871C117.419 20.604 116.968 21.0519 116.968 21.4999C116.968 21.4999 116.516 22.3957 116.968 22.3957H119.226C119.677 22.3957 120.129 21.9478 120.129 21.4999C120.129 21.4999 120.581 20.604 120.129 20.604Z" fill="#A5BF28"/>
<path d="M81.2904 29.562C80.8388 29.562 79.9355 29.562 79.4839 30.0099C79.0323 30.0099 78.5807 30.4579 78.1291 30.4579C77.6775 30.4579 76.3226 31.8016 76.7742 32.2495C77.2259 32.2495 77.6775 32.2495 78.1291 32.2495C78.5807 32.2495 79.4839 31.8016 80.3872 31.8016C80.8388 31.8016 81.2904 31.3537 81.2904 30.9058C81.2904 30.0099 81.742 29.562 81.2904 29.562Z" fill="#A5BF28"/>
<path d="M108.387 26.8748C108.387 26.8748 108.839 25.979 108.387 25.979C107.935 25.979 107.484 26.4269 107.484 26.8748L107.032 27.3227L106.581 28.2186C107.032 28.6665 107.484 27.7706 107.484 27.7706C107.484 27.7706 107.935 27.3227 108.387 26.8748C107.935 26.8748 107.935 26.8748 108.387 26.8748Z" fill="#A5BF28"/>
<path d="M104.323 13.4375C103.419 13.4375 102.516 13.4375 102.064 13.4375C101.613 13.4375 100.258 15.2292 100.71 15.2292C101.613 15.2292 102.516 15.2292 102.968 15.2292C103.419 15.2292 103.871 14.7812 103.871 14.3333C104.323 14.3333 104.774 13.4375 104.323 13.4375Z" fill="#A5BF28"/>
<path d="M91.6775 27.771C91.6775 27.771 91.2258 27.771 91.2258 28.2189C91.2258 28.2189 91.2258 28.2189 90.7742 28.2189C90.3226 28.2189 89.871 29.1148 89.871 29.1148H90.3226C90.3226 29.1148 90.3226 29.1148 90.7742 29.1148C91.2258 28.6668 91.6775 28.6668 91.6775 27.771Z" fill="#CBDB56"/>
<path d="M94.3871 13.8848C93.9355 13.8848 93.9355 14.3327 93.4839 14.3327C93.0323 14.3327 93.0322 14.7806 93.0322 14.7806V15.2285C93.4838 15.2285 93.9355 14.7806 94.3871 14.3327C94.3871 14.3327 94.8387 13.8848 94.3871 13.8848C94.8387 13.4368 94.3871 13.4368 94.3871 13.8848Z" fill="#CBDB56"/>
<path d="M104.323 13.4375C103.871 13.4375 103.419 13.4375 102.968 13.4375C102.516 13.4375 102.064 14.3333 102.064 14.3333C102.516 14.3333 102.968 14.3333 103.871 14.3333C104.323 14.3333 104.323 14.3333 104.323 13.4375C104.774 13.8854 104.774 13.4375 104.323 13.4375Z" fill="#CBDB56"/>
<path d="M120.129 20.604C119.677 20.604 119.226 20.604 119.226 20.604C118.774 20.604 118.774 21.0519 118.774 21.0519C118.774 21.0519 118.323 21.4999 118.774 21.4999C119.226 21.4999 119.677 21.4999 120.129 21.4999C120.129 21.4999 120.129 21.4998 120.129 20.604C120.581 20.604 120.129 21.0519 120.129 20.604Z" fill="#CBDB56"/>
<path d="M108.839 25.5311C108.387 25.5311 108.387 25.979 108.387 25.979C108.387 25.979 108.387 26.427 107.935 26.427L107.484 26.8749C107.484 26.8749 107.032 27.3228 107.484 27.3228C107.936 27.3228 107.935 26.8749 107.935 26.8749C107.935 26.8749 107.935 26.8749 107.935 26.427C108.839 26.427 108.839 25.979 108.839 25.5311C109.29 25.5311 109.29 25.0832 108.839 25.5311Z" fill="#CBDB56"/>
<path d="M81.2904 29.562C80.8388 29.562 80.3871 29.562 79.9355 30.0099C79.4839 30.0099 79.4839 30.4579 79.4839 30.9058C79.4839 31.3537 79.4839 31.3537 79.9355 31.3537C80.3871 31.3537 80.8387 31.3537 80.8387 30.9058C81.2904 30.9058 81.2904 30.4579 81.2904 30.4579C81.2904 30.0099 81.742 29.562 81.2904 29.562Z" fill="#CBDB56"/>
<path d="M67.742 28.2183H66.8388C66.3871 28.2183 66.3871 28.6662 66.3871 28.6662C66.3871 28.6662 65.9355 29.1141 66.3871 29.1141H67.2903C67.7419 29.1141 67.742 28.6662 67.742 28.6662V28.2183Z" fill="#CBDB56"/>
<path d="M71.8064 20.1566C71.3548 20.6045 70.9032 21.0524 70.9032 21.0524C70.9032 21.5003 71.3548 21.0524 71.3548 21.0524C71.3548 21.0524 71.3548 21.0524 71.8064 21.0524C71.8064 20.6045 71.8064 20.1566 71.8064 20.1566Z" fill="#CBDB56"/>
<path d="M66.8387 12.5415C66.8387 12.5415 66.3871 12.5415 66.3871 12.9894C65.9355 12.9894 65.9354 13.4373 65.9354 13.8852C65.9354 14.3332 65.9355 14.3331 66.3871 14.3331C66.3871 14.3331 66.8387 14.3332 66.8387 13.8852C66.8387 13.4373 66.8387 12.9894 66.8387 12.5415Z" fill="#CBDB56"/>
<path d="M45.1613 27.3228C44.7097 27.3228 44.7097 27.3228 44.2581 27.3228C43.8065 27.3228 43.8064 27.7707 43.8064 27.7707C43.8064 27.7707 43.3548 28.2186 43.8064 28.2186C44.258 28.2186 44.7097 28.2186 45.1613 28.2186C44.7097 28.2186 45.1613 27.7707 45.1613 27.3228Z" fill="#CBDB56"/>
<path d="M46.0646 20.6035C45.613 20.6035 45.613 21.0514 45.1614 21.0514C44.7097 21.0514 44.7097 21.4994 44.7097 21.9473C44.7097 22.3952 45.1614 21.9473 45.1614 21.9473C45.613 21.9473 45.613 21.4994 46.0646 21.4994C46.5162 21.0515 46.5162 20.6035 46.0646 20.6035C46.5162 20.1556 46.5162 20.1556 46.0646 20.6035Z" fill="#CBDB56"/>
<path d="M30.2581 24.187C29.8065 24.187 29.3549 24.6349 29.3549 25.0828V25.5307C29.3549 25.5307 29.3548 25.5307 29.8064 25.5307C30.258 25.0828 30.2581 25.0828 30.2581 24.187C30.7097 24.6349 30.7097 24.187 30.2581 24.187Z" fill="#CBDB56"/>
<path d="M21.2258 22.3955H20.7742C20.7742 22.3955 20.3226 22.8434 20.3226 23.2913C20.3226 23.7392 20.7742 23.2913 20.7742 23.2913C21.2258 23.2913 21.2258 22.8434 21.2258 22.8434C21.2258 23.2913 21.6775 22.3955 21.2258 22.3955Z" fill="#CBDB56"/>
<path d="M29.8064 16.5728C29.3548 17.0207 28.9032 17.0207 28.9032 17.4686C28.9032 17.9165 29.3548 17.4686 29.3548 17.4686C29.3548 17.4686 29.3548 17.4686 29.8064 17.4686C30.258 17.4686 30.258 17.0207 29.8064 16.5728C30.258 16.5728 30.258 16.5728 29.8064 16.5728Z" fill="#CBDB56"/>
<path d="M101.161 24.6357C100.71 24.6357 100.71 25.0837 100.71 25.0837C100.258 25.0837 100.258 25.5316 100.258 25.9795C100.258 26.4274 100.71 25.9795 100.71 25.9795H101.161L101.613 25.5316C101.161 25.0836 101.613 24.6357 101.161 24.6357Z" fill="#CBDB56"/>
<path d="M74.9677 27.7708C75.8709 27.7708 76.7742 27.3229 77.6774 27.3229L77.2258 26.875C76.7742 26.4271 76.7742 26.4271 76.3226 25.9792C75.8709 25.9792 75.4193 25.5312 74.9677 25.5312C74.5161 25.5312 74.5161 25.5312 74.0645 25.5312H73.6129C73.6129 25.5312 73.6129 25.5312 73.1613 25.5312C73.6129 25.5312 74.0645 25.5312 74.0645 25.0833L73.6129 24.6354C73.1613 24.6354 72.7097 24.1875 72.2581 24.1875C71.8065 24.1875 71.8065 24.1875 71.3549 24.1875C70.9032 24.1875 70.9032 24.1875 70.4516 24.1875C70.9032 23.7396 71.3548 23.7396 71.8064 23.2916C71.8064 23.2916 71.3549 23.2916 71.3549 22.8437C70.9032 22.8437 70.4516 22.8437 70 22.8437C70 22.8437 70.4516 22.3958 70.9032 21.9479C70.9032 21.5 71.3549 21.0521 71.3549 20.6041H70.9032C70.9032 20.6041 70.9032 20.6042 70.9032 20.1562C70.9032 20.1562 70.9032 20.1562 70.9032 19.7083C70.9032 19.2604 71.3549 19.2604 71.3549 18.8125V18.3646C70.9032 18.3646 70.9032 18.3646 70.4516 18.8125C70.9032 18.3646 71.3549 17.4688 71.3549 17.0208C71.3549 17.0208 71.3548 16.5729 71.8064 16.5729C71.3548 16.5729 71.3548 16.5729 70.9032 17.0208C71.3548 16.125 71.8064 15.6771 72.7096 14.7812C72.258 14.7812 71.3548 14.7812 70.9032 14.7812C70.4516 14.7812 70 15.2292 69.5484 15.2292L69.0968 15.6771C69.0968 15.6771 68.6452 15.6771 68.6452 16.125C68.6452 15.6771 69.0968 15.6771 69.0968 15.2292C69.0968 15.2292 69.0968 15.2292 68.6452 15.2292C68.1935 15.2292 68.1936 15.2292 67.7419 15.2292C67.7419 15.2292 67.2903 15.2292 67.2903 15.6771L66.8387 16.125L66.3871 16.5729L65.9355 17.0208C65.9355 16.5729 65.9355 16.125 65.9355 15.6771C65.9355 15.6771 65.4839 15.6771 65.4839 16.125C65.0323 16.125 65.0323 16.5729 64.5807 17.0208C64.1291 17.4688 64.129 17.4687 63.6774 17.9167C63.6774 17.4687 63.6774 17.4688 63.6774 17.0208C63.6774 17.0208 63.2258 17.0208 63.2258 17.4687C62.7742 17.9167 62.7742 17.9166 62.3226 18.3646L61.871 18.8125C61.871 18.8125 61.871 18.8125 61.871 19.2604V19.7083C61.871 19.7083 61.871 19.7083 61.871 20.1562V20.6041C61.871 20.6041 61.871 20.6041 61.871 21.0521V21.5C61.4193 21.0521 61.4194 20.6042 60.9677 20.1562C60.9677 20.6042 60.9677 20.6041 60.5161 21.0521V21.5V21.9479C60.5161 22.3958 60.5161 22.8437 60.5161 23.2916C60.5161 23.7396 60.5161 24.6354 60.9677 25.0833C60.9677 25.9791 61.4193 26.4271 61.871 26.875C61.4193 27.3229 61.4194 27.7708 60.9677 27.7708C60.0645 27.7708 59.1613 27.7708 58.258 27.3229C58.258 27.3229 58.2581 27.3229 57.8065 27.3229C57.3549 28.2187 58.7096 28.2188 59.1613 28.2188C59.6129 28.2188 60.0645 28.2188 60.5161 28.2188C60.0645 28.6667 59.6129 28.6667 59.1613 28.6667C59.6129 29.5625 60.0645 28.6667 60.5161 28.6667C60.9677 28.6667 60.9677 28.2187 61.4193 27.7708H61.871C61.871 28.2187 61.871 28.2187 62.3226 28.6667C62.7742 30.0104 64.129 30.9062 65.0322 31.8021C65.4839 32.25 65.9355 32.25 66.3871 32.6979C66.8387 32.6979 67.2903 33.1458 67.7419 33.1458C68.1936 33.1458 68.1935 33.1458 68.6452 33.1458H69.0968H69.5484H70L69.5484 32.6979H70C70.4516 32.6979 70.4516 32.6979 70.9032 32.6979C70.9032 32.6979 71.8065 32.6979 72.2581 32.6979C72.7097 32.6979 73.1613 32.25 73.6129 32.25C73.6129 32.25 73.6129 31.8021 73.1613 31.8021H73.6129C73.6129 31.8021 73.6129 31.8021 74.0645 31.8021C74.0645 31.8021 74.0645 31.8021 74.5161 31.8021C74.9678 31.8021 74.9677 31.8021 75.4193 31.8021L75.871 31.3542C75.4194 31.3542 75.4193 30.9062 74.9677 30.9062C75.8709 30.9062 76.3225 30.4583 77.2258 30.4583H77.6774C77.6774 30.4583 77.6774 30.4583 77.6774 30.0104C75.4193 28.2187 75.4193 27.7708 74.9677 27.7708Z" fill="url(#paint32_radial_20007_82741)"/>
<path d="M61.8709 21.9482C61.4193 21.5003 61.8709 21.5003 61.8709 21.9482C60.516 23.292 59.6128 25.0837 57.8064 25.9795C57.8064 26.8753 58.7096 25.9795 59.1612 25.9795C60.0644 24.6357 60.9677 23.292 61.8709 21.9482Z" fill="#087830"/>
<path d="M69.5483 21.9479C69.0967 21.9479 69.0967 21.9479 68.6451 21.9479C69.0967 21.5 69.0967 21.5 69.5483 21.0521C69.5483 21.0521 69.9999 20.6042 70.4515 20.1563C70.4515 19.7083 70.9031 19.2604 70.9031 18.8125H70.4515C70.9031 18.3646 70.9031 17.9167 71.3548 17.4688V17.0208C70.9031 17.0208 70.9031 17.0208 70.4515 17.4688C70.9031 16.5729 71.3547 16.125 71.8063 15.2292C71.3547 15.2292 71.3547 15.2292 70.9031 15.6771C71.3547 14.7813 71.8064 14.3333 72.258 13.4375C71.8064 13.4375 70.9031 13.4375 70.4515 13.4375C69.5482 13.8854 68.645 14.3333 68.1934 14.7813C68.1934 14.3333 68.6451 14.3333 68.6451 13.8854C68.1934 13.8854 68.1935 13.8854 67.7418 13.8854C66.8386 14.3333 65.9354 14.7813 65.4838 15.6771C65.4838 15.2292 65.4838 14.7812 65.4838 14.3333C65.4838 14.3333 65.0321 14.3333 65.0321 14.7813C64.5805 15.2292 63.6773 15.6771 63.2257 16.5729C63.2257 16.125 63.2257 16.125 63.2257 15.6771C62.7741 16.125 62.3225 16.125 61.8709 16.5729C61.4192 17.4687 60.9676 18.3646 60.9676 19.2604C60.516 18.8125 60.516 18.3646 60.0644 17.9167C59.6128 18.8125 59.6128 20.1562 59.6128 21.0521C59.6128 21.5 59.6128 22.3958 60.0644 22.8437C60.0644 23.7396 60.9677 24.6354 62.3225 25.0833C63.6773 25.5312 65.0321 25.5312 66.387 25.0833C66.8386 25.0833 67.2902 25.0833 67.7418 24.6354C68.1935 24.6354 68.6451 24.1875 69.0967 24.1875C68.6451 22.8438 69.0967 22.3958 69.5483 21.9479Z" fill="#6AB42D"/>
<path d="M69.0967 21.9483H68.645C69.0967 21.5003 69.0966 21.5003 69.5482 21.0524C69.5482 21.0524 69.9998 20.6045 70.4515 20.1566C70.4515 19.7087 70.9031 19.2607 70.9031 18.8128H70.4515C70.9031 18.3649 70.9031 17.917 71.3547 17.4691V17.0212C70.9031 17.0212 70.9031 17.0212 70.4515 17.4691C70.9031 16.5733 71.3547 16.1253 71.8063 15.2295C71.3547 15.2295 71.3547 15.2295 70.9031 15.6774C71.3547 15.2295 71.8063 14.3337 72.258 13.8857C69.5483 14.7816 66.8386 17.0212 65.0321 18.8128C63.2257 20.6045 61.4192 22.3962 60.516 24.6357C60.9676 24.6357 61.4192 25.0837 61.8708 25.0837C63.2257 25.5316 64.5805 25.5316 65.9353 25.0837C66.3869 25.0837 66.8386 25.0837 67.2902 24.6357C67.7418 24.6357 68.1934 24.1878 68.645 24.1878C68.645 22.8441 69.0967 22.3962 69.0967 21.9483C69.5483 21.9483 69.5483 21.9483 69.0967 21.9483Z" fill="#399830"/>
<path d="M66.387 21.9484C67.2902 22.3963 68.1934 21.9484 69.0967 21.5005C69.5483 21.5005 69.5482 21.0526 69.5482 21.0526C69.5482 21.0526 69.9998 20.6047 70.4515 20.1568C70.4515 19.7088 70.9031 19.2609 70.9031 18.813C69.5483 20.1567 68.1934 21.5005 66.387 21.9484Z" fill="#6AB42D"/>
<path d="M67.2903 19.7087C68.1935 19.7087 69.5483 19.2607 70.4516 18.3649C70.9032 17.917 70.9032 17.4691 71.3548 17.0212V16.5732C70 17.917 69.0967 19.2608 67.2903 19.7087Z" fill="#6AB42D"/>
<path d="M68.1934 17.917C68.645 17.917 69.0966 17.917 69.5482 17.917C69.9998 17.917 70.4514 17.4691 70.4514 17.4691C70.903 16.5732 71.3547 16.1253 71.8063 15.2295C70.9031 16.1253 70.4514 16.5732 69.5482 17.4691C69.0966 17.0212 68.1934 17.917 68.1934 17.917Z" fill="#6AB42D"/>
<path d="M62.3225 17.0208C62.7741 15.6771 63.6773 14.3333 65.0321 13.4375C65.0321 13.4375 64.5806 13.4375 64.5806 13.8854C64.129 14.3333 63.2257 14.7813 62.7741 15.6771C62.7741 15.6771 62.7741 16.5729 62.3225 17.0208Z" fill="#6AB42D"/>
<path d="M65.0322 15.2288C65.9355 14.333 66.8387 13.4372 68.1935 12.9893H67.7419C66.8387 13.4372 65.9355 13.8851 65.4839 14.7809C65.0323 15.2288 65.0322 15.2288 65.0322 15.2288Z" fill="#6AB42D"/>
<path d="M67.7418 14.3336C68.1934 13.8857 69.0967 13.4378 69.9999 12.9899C70.4515 12.542 70.9031 12.542 71.8063 12.542C71.3547 12.542 70.9031 12.542 70.4515 12.542C69.5482 12.9899 69.0966 12.9899 68.1934 13.4378C68.1934 14.3336 67.7418 14.3336 67.7418 14.3336Z" fill="#6AB42D"/>
<path d="M60.9676 19.2604C60.9676 17.4688 61.4192 16.125 62.774 14.7812C62.3224 15.2292 61.8708 15.2292 61.8708 15.6771C61.4192 16.5729 60.9676 17.4687 60.9676 18.3646C60.516 18.3646 60.516 18.8125 60.9676 19.2604Z" fill="#6AB42D"/>
<path d="M61.4192 23.292C60.9676 23.292 60.9676 23.292 61.4192 23.292C61.4192 22.8441 61.8709 22.3962 61.8709 21.9483C62.3225 21.0524 62.7741 20.6045 63.2257 19.7087C64.1289 18.3649 65.0321 17.4691 65.9354 16.5732C65.0321 17.0212 64.5805 17.4691 64.1289 18.3649C62.7741 19.7087 60.9677 21.0524 60.0644 22.8441H59.6128C58.7096 21.0524 58.7096 19.2608 59.1612 17.917C59.1612 18.8128 58.7096 19.7087 58.7096 20.1566C58.7096 20.6045 58.7096 21.5003 59.1612 21.9483C59.1612 22.8441 60.0644 23.7399 61.4192 24.1878C62.7741 24.6358 64.1289 24.6358 65.4838 24.1878C65.9354 24.1878 66.387 24.1879 66.8386 23.7399C67.2903 23.7399 67.7418 23.292 68.1934 23.292C68.645 22.8441 69.0967 22.3962 69.0967 22.3962C66.8386 23.7399 63.6773 23.292 61.4192 23.292Z" fill="#6AB42D"/>
<path d="M59.6128 17.4688C59.1612 19.2604 59.6128 21.5 60.5161 23.2916C59.6128 21.0521 59.6128 19.2604 59.6128 17.4688Z" fill="#399830"/>
<path d="M62.7741 14.7812C61.8709 16.125 61.4193 17.9167 61.8709 19.7083C61.8709 17.9167 62.3225 16.5729 62.7741 14.7812Z" fill="#399830"/>
<path d="M67.7419 13.4375C66.8387 14.3333 65.9354 15.2292 65.9354 16.125C66.387 15.2292 67.2903 14.3333 67.7419 13.4375Z" fill="#399830"/>
<path d="M70.9032 17.021C70 17.4689 69.0968 17.9168 67.742 18.3647C67.2904 18.3647 66.8387 18.3647 65.9355 18.3647C65.4839 18.3647 65.0323 18.3647 64.5807 18.3647C65.0323 18.8126 66.3871 18.8126 67.2903 18.8126C68.6452 18.3647 69.5484 17.9168 70.9032 17.021Z" fill="#6AB42D"/>
<path d="M69.5483 19.2607C68.645 19.7087 67.2902 20.1566 65.9354 20.6045C65.4837 20.6045 64.5805 20.6045 64.1289 20.6045C63.6773 20.6045 62.7741 20.6045 62.3225 20.1566C63.2257 20.6045 64.5806 20.6045 65.4838 20.6045C67.2902 20.6045 68.645 20.1566 69.5483 19.2607Z" fill="#6AB42D"/>
<path d="M68.6451 21.9478C67.2903 22.3957 66.3871 22.8436 65.0322 22.8436H61.4193C62.3225 23.2915 63.6774 23.2915 65.0322 23.2915C65.9355 23.2915 67.2903 22.8436 68.6451 21.9478Z" fill="#6AB42D"/>
<path d="M59.6129 19.2604C59.6129 20.1563 59.6129 20.6041 59.6129 21.0521C59.6129 21.5 60.0646 21.9479 60.0646 22.3958C60.0646 21.0521 59.6129 19.7083 59.6129 18.8125C59.6129 18.3646 59.6129 18.8125 59.6129 19.2604Z" fill="#6AB42D"/>
<path d="M62.3226 15.229C61.871 15.6769 61.4193 16.1248 61.4193 17.0207C61.4193 17.0207 61.4193 17.0207 61.871 17.0207C62.3226 16.1248 62.3226 15.6769 62.3226 15.229Z" fill="#6AB42D"/>
<path d="M65.0322 14.334C64.5806 14.7819 64.129 15.2298 64.129 16.1257C64.129 16.1257 64.1291 16.1257 64.5807 16.1257C64.5807 15.2298 64.5806 14.7819 65.0322 14.334Z" fill="#6AB42D"/>
<path d="M69.5484 16.5727C70 16.5727 70 16.1248 70.4516 16.1248C70.4516 16.1248 70.9033 16.1248 70.9033 15.6769C70.9033 15.6769 70.9033 15.6769 70.9033 15.229C70.0001 15.6769 69.5484 16.1248 69.5484 16.5727C69.0968 16.5727 69.0968 16.5727 69.5484 16.5727Z" fill="#6AB42D"/>
<path d="M68.6451 20.1562C68.1935 20.1562 68.1936 20.6042 67.7419 20.6042C67.2903 20.6042 66.8387 21.0521 66.3871 21.0521C66.8387 21.0521 66.8387 21.0521 67.2903 21.0521C67.7419 21.5 68.1935 21.0521 68.6451 20.1562C68.6451 20.6042 68.6451 20.6042 68.6451 20.1562Z" fill="#6AB42D"/>
<path d="M60.0645 23.7397C59.6128 24.1877 59.1612 24.6356 59.1612 25.0835C58.7096 25.5314 58.258 25.5314 57.8064 25.9793C58.7096 25.5314 60.0645 24.6356 60.0645 23.7397Z" fill="#6AB42D"/>
<path d="M62.3226 24.6354C62.3226 24.1875 62.7742 24.1875 62.3226 24.6354C60.5162 24.6354 58.2581 25.0833 56.4516 24.1875C56.4516 24.1875 56.4516 24.1875 56 24.1875C55.5484 25.0833 56.4516 25.0833 57.3549 25.0833C59.1613 25.0833 60.9678 24.6354 62.3226 24.6354Z" fill="#087830"/>
<path d="M67.7419 30.4582C67.7419 30.0103 67.2903 30.0102 67.2903 30.0102C67.7419 30.0102 68.1935 30.0102 68.6452 30.0102C68.6452 30.0102 69.5484 30.0102 70 30.0102C70.4516 30.0102 70.9032 29.5623 71.3549 29.5623C71.3549 29.5623 71.3548 29.1144 70.9032 29.1144C71.3548 29.1144 72.258 29.1144 72.7096 28.6665L73.1613 28.2186C72.7097 28.2186 72.7097 27.7706 72.2581 27.7706C73.1613 27.7706 74.0645 27.3227 74.9677 27.3227C74.9677 27.3227 74.9677 27.3227 74.9677 26.8748L74.5161 26.4269C75.4194 26.4269 76.3225 26.4269 77.2258 25.979C76.7742 25.5311 76.3226 25.0832 75.871 24.6352C74.9678 24.1873 74.0645 23.7394 73.1613 23.7394C73.6129 23.7394 73.6129 23.7394 74.0645 23.2915C74.0645 23.2915 73.6129 22.8436 73.1613 22.8436C72.2581 22.3957 71.3548 22.3957 70.4516 22.3957C70.9032 21.9477 71.3548 21.9478 71.8064 21.4998C71.8064 21.4998 71.8064 21.4998 71.8064 21.0519C71.8064 21.0519 71.3549 21.0519 71.3549 20.604C70.4516 20.604 69.5484 20.1561 68.6452 20.604L69.0968 20.1561C68.6452 20.1561 67.7419 19.7082 67.2903 19.7082C66.3871 19.7082 65.4839 20.1561 64.5807 21.0519C65.0323 20.604 65.0322 19.7082 65.0322 19.2603C64.129 19.7082 62.7742 20.1561 61.871 21.0519C61.4193 21.4998 60.9677 21.9477 60.5161 22.3957C60.0645 23.2915 59.6129 24.1873 60.5161 25.5311C60.9677 26.8748 62.3226 27.7707 63.2258 28.6665C63.6774 29.1144 64.1291 29.1144 64.5807 29.5623C65.0323 29.5623 65.4838 30.0102 65.9354 30.0102C66.3871 30.4581 67.2903 30.4582 67.7419 30.4582Z" fill="#6AB42D"/>
<path d="M67.7419 30.4585L67.2903 30.0106C67.7419 30.0106 68.1935 30.0106 68.6452 30.0106C68.6452 30.0106 69.5484 30.0106 70 30.0106C70.4516 30.0106 70.9033 29.5626 71.3549 29.5626C71.3549 29.5626 71.3548 29.1147 70.9032 29.1147C71.3548 29.1147 72.258 29.1147 72.7096 28.6668L73.1613 28.2189C72.7097 28.2189 72.7097 27.771 72.2581 27.771C73.1613 27.771 74.0645 27.3231 74.9677 27.3231C74.9677 27.3231 74.9677 27.3231 74.9677 26.8751L74.5161 26.4272C75.4194 26.4272 76.3226 26.4272 77.2258 25.9793C74.5161 24.6356 71.3548 24.1877 68.1935 23.7397C65.4838 23.7397 62.7742 23.7397 60.5161 24.1877C60.5161 24.6356 60.5161 25.0835 60.9678 25.5314C61.4194 26.8751 62.7742 27.771 63.6774 28.6668C64.129 29.1147 64.5806 29.1147 65.0322 29.5626C65.4839 29.5626 65.9355 30.0106 66.3871 30.0106C66.3871 30.4585 67.2903 30.4585 67.7419 30.4585Z" fill="#399830"/>
<path d="M65.4839 28.2188C65.9355 29.1146 66.8387 29.5625 67.742 30.0104C68.1936 30.0104 68.1936 30.0104 68.6452 30.0104C68.6452 30.0104 69.5484 30.0104 70 30.0104C70.4516 30.0104 70.9033 29.5625 71.3549 29.5625C69.0968 29.5625 67.2903 29.1146 65.4839 28.2188Z" fill="#6AB42D"/>
<path d="M68.1935 27.3232C68.6451 28.2191 70 28.667 71.3548 28.667C71.8064 28.667 72.258 28.667 72.7096 28.2191C72.7096 28.2191 73.1613 28.2191 73.1613 27.7712C71.3548 28.2191 69.5483 27.7712 68.1935 27.3232Z" fill="#6AB42D"/>
<path d="M70 26.4272C70.4516 26.8752 70.4516 26.8751 70.9032 27.3231C71.3548 27.3231 71.8065 27.771 72.2581 27.771C73.1613 27.771 74.0645 27.3231 74.9677 27.3231C73.6129 27.3231 72.7097 27.3231 71.8064 26.8752C71.3548 26.4272 70 26.4272 70 26.4272Z" fill="#6AB42D"/>
<path d="M66.8387 21.5002C68.1936 21.0523 70 21.0523 71.3549 21.0523C71.3549 21.0523 70.9032 21.0523 70.9032 20.6043C70 20.6043 69.0968 20.1564 68.6452 20.6043C67.7419 21.0523 67.2904 21.5002 66.8387 21.5002Z" fill="#6AB42D"/>
<path d="M70 22.396C71.3548 22.396 72.7096 22.8439 74.0645 23.2918L73.6129 22.8439C72.7097 22.396 71.8064 22.396 70.9032 22.396C70 22.396 70 22.396 70 22.396Z" fill="#6AB42D"/>
<path d="M72.2581 24.188C73.1613 24.188 74.0645 24.6359 74.5161 25.0838C74.9677 25.5317 75.4193 25.5317 76.3225 25.9797C75.8709 25.5317 75.8709 25.5317 75.4193 25.0838C74.5161 24.6359 74.0645 24.188 73.1613 24.188C72.7097 23.7401 72.7097 23.7401 72.2581 24.188Z" fill="#6AB42D"/>
<path d="M64.129 21.9479C65.4839 21.0521 66.8387 20.1562 68.6452 20.1562C68.1935 20.1562 67.7419 20.1562 67.2903 20.1562C66.3871 20.1562 65.4839 20.6042 64.5807 21.5C64.1291 21.5 64.129 21.5 64.129 21.9479Z" fill="#6AB42D"/>
<path d="M60.9678 25.0832C61.4194 24.6352 61.871 24.6352 62.3226 24.6352C63.2259 24.6352 64.129 24.1873 65.0323 24.1873C66.3871 24.1873 68.1936 24.1873 69.5484 24.1873C68.6452 24.1873 67.742 23.7394 66.8388 23.7394C64.5807 23.7394 62.7742 23.2915 60.5161 23.7394C60.5161 23.7394 60.0646 23.7394 60.0646 23.2915C60.9678 21.4998 62.3226 20.1561 63.6774 19.2603C62.7742 19.7082 62.3226 20.1561 61.4194 20.604C60.9677 21.0519 60.5162 21.4998 60.0646 21.9477C59.613 22.8436 59.1613 23.7394 60.0646 25.0832C60.5162 26.4269 61.871 27.3228 62.7742 28.2186C63.2258 28.6665 63.6774 28.6665 64.1291 29.1144C64.5807 29.1144 65.0323 29.5623 65.4839 29.5623C65.9355 29.5623 66.3871 29.5623 67.2903 29.5623C64.5807 29.5623 62.7742 27.3227 60.9678 25.0832Z" fill="#6AB42D"/>
<path d="M64.5807 19.7085C62.7742 21.0522 61.4193 22.396 60.5161 24.1877C61.871 22.396 63.2258 21.0522 64.5807 19.7085Z" fill="#399830"/>
<path d="M68.6452 20.1562C66.8387 20.6042 65.4839 21.5 64.129 22.3958C65.4839 21.9479 66.8387 21.0521 68.6452 20.1562Z" fill="#399830"/>
<path d="M74.0645 26.8753C72.258 26.4274 70.9032 25.5316 69.5483 24.6357C70.9032 25.5316 72.7096 26.4274 74.0645 26.8753Z" fill="#6AB42D"/>
<path d="M72.2581 28.2188C71.3549 27.7708 70 27.3229 69.0968 26.875C68.6452 26.4271 68.1936 25.9791 67.742 25.5312C67.2903 25.0833 66.8387 24.6354 66.8387 24.1875C66.8387 25.0833 67.7419 25.9792 68.6452 26.4271C70 27.3229 70.9032 27.7708 72.2581 28.2188Z" fill="#6AB42D"/>
<path d="M70 28.6667C68.6452 28.2188 67.7419 27.7708 66.3871 26.875C65.9355 26.4271 65.4839 25.9791 65.0322 25.5312C64.5806 25.0833 64.129 24.6354 64.129 24.1875C64.129 25.0833 65.4838 25.9792 65.9355 26.875C67.2903 27.7708 68.6452 28.2188 70 28.6667Z" fill="#6AB42D"/>
<path d="M67.2903 30.0107C65.9355 29.5628 65.0323 28.667 64.129 27.7711C64.129 27.7711 61.4194 25.0837 61.871 24.6357C62.3226 25.5316 63.2258 26.8753 64.129 27.3232C64.5806 28.667 65.9355 29.5628 67.2903 30.0107Z" fill="#6AB42D"/>
<path d="M63.2258 21.0524C62.7742 21.5003 62.3226 21.9482 61.871 22.3962C61.4193 22.8441 61.4193 23.292 61.4193 23.7399C62.3225 22.8441 63.2258 21.5003 64.129 20.6045C63.6774 20.6045 63.6774 20.6045 63.2258 21.0524Z" fill="#6AB42D"/>
<path d="M68.1935 20.1562C67.7419 20.1562 66.8387 20.1562 66.3871 20.6042C66.3871 20.6042 66.3871 20.6042 66.3871 21.0521C67.2903 21.0521 67.7419 20.6042 68.1935 20.1562Z" fill="#6AB42D"/>
<path d="M70.9032 21.5005C70 21.5005 69.5484 21.5005 69.0968 21.9484C69.0968 21.9484 69.0968 21.9484 69.5484 21.9484C69.5484 21.9484 70.4516 21.9484 70.9032 21.5005Z" fill="#6AB42D"/>
<path d="M71.8064 26.4272C72.258 26.4272 72.258 26.4272 72.7096 26.8752H73.1612C73.1612 26.8752 73.1613 26.8752 73.6129 26.8752C73.1613 26.4272 72.258 26.4272 71.8064 26.4272Z" fill="#6AB42D"/>
<path d="M68.6451 28.6673C68.1935 28.6673 67.7419 28.6673 67.2903 28.2194C66.8387 28.2194 66.387 27.7715 65.9354 27.7715L66.3871 28.2194C66.8387 28.6673 67.7419 28.6673 68.6451 28.6673Z" fill="#6AB42D"/>
<path d="M60.0645 24.6354C59.6129 24.6354 58.7097 24.6354 58.2581 24.6354C57.8064 24.6354 57.3548 24.1875 56.9032 24.1875C57.3548 24.6354 59.1613 25.0833 60.0645 24.6354Z" fill="#6AB42D"/>
<defs>
<linearGradient id="paint0_linear_20007_82741" x1="20.187" y1="81.1385" x2="126.987" y2="81.3948" gradientUnits="userSpaceOnUse">
<stop stop-color="#B4C4CD"/>
<stop offset="0.213" stop-color="#D1D9DD"/>
<stop offset="0.6749" stop-color="#BDC6CB"/>
<stop offset="1" stop-color="#A5ABB0"/>
</linearGradient>
<linearGradient id="paint1_linear_20007_82741" x1="48.9976" y1="90.1835" x2="45.659" y2="77.6993" gradientUnits="userSpaceOnUse">
<stop offset="0.1264" stop-color="#EBEBEB"/>
<stop offset="0.3175" stop-color="#DAD4CA"/>
<stop offset="0.6749" stop-color="#C2BDAF"/>
<stop offset="1" stop-color="#B6B2AA"/>
</linearGradient>
<linearGradient id="paint2_linear_20007_82741" x1="29.7305" y1="81.0538" x2="110.45" y2="81.0538" gradientUnits="userSpaceOnUse">
<stop offset="0.1262" stop-color="white"/>
<stop offset="1" stop-color="#BFBBB2"/>
</linearGradient>
<linearGradient id="paint3_linear_20007_82741" x1="0.113355" y1="49.9269" x2="140.052" y2="49.9269" gradientUnits="userSpaceOnUse">
<stop offset="0.1264" stop-color="#F2F8FB"/>
<stop offset="0.3175" stop-color="#CAD4DA"/>
<stop offset="0.6749" stop-color="#C8D4DB"/>
<stop offset="1" stop-color="#B0B9C1"/>
</linearGradient>
<linearGradient id="paint4_linear_20007_82741" x1="44.814" y1="71.3705" x2="155.166" y2="69.4521" gradientUnits="userSpaceOnUse">
<stop offset="0.1264" stop-color="#E7EEF2"/>
<stop offset="0.3175" stop-color="#CAD4DA"/>
<stop offset="0.6749" stop-color="#CBD4DB"/>
<stop offset="1" stop-color="#AAB0B6"/>
</linearGradient>
<linearGradient id="paint5_linear_20007_82741" x1="74.9713" y1="49.8064" x2="137.633" y2="49.8064" gradientUnits="userSpaceOnUse">
<stop offset="0.1262" stop-color="white"/>
<stop offset="1" stop-color="#B2BABF"/>
</linearGradient>
<linearGradient id="paint6_linear_20007_82741" x1="0.114192" y1="49.5045" x2="140.058" y2="49.5045" gradientUnits="userSpaceOnUse">
<stop offset="0.1264" stop-color="#EBEBEB"/>
<stop offset="0.3175" stop-color="#DAD4CA"/>
<stop offset="0.6749" stop-color="#C2BDAF"/>
<stop offset="1" stop-color="#B6B2AA"/>
</linearGradient>
<linearGradient id="paint7_linear_20007_82741" x1="0.122387" y1="17.1996" x2="140.025" y2="17.1996" gradientUnits="userSpaceOnUse">
<stop offset="0.00532127" stop-color="#B5B09F"/>
<stop offset="0.3175" stop-color="#DAD4CA"/>
<stop offset="0.5565" stop-color="#ECEBE7"/>
<stop offset="0.6507" stop-color="#E8E6E1"/>
<stop offset="0.7708" stop-color="#DCD9D2"/>
<stop offset="0.9043" stop-color="#C9C4B8"/>
<stop offset="0.9419" stop-color="#C2BDAF"/>
</linearGradient>
<linearGradient id="paint8_linear_20007_82741" x1="70.0736" y1="73.3965" x2="70.0736" y2="-19.9045" gradientUnits="userSpaceOnUse">
<stop offset="0.00532127" stop-color="#B5B09F"/>
<stop offset="0.2522" stop-color="#DAD4CA"/>
<stop offset="0.5565" stop-color="#ECEBE7"/>
<stop offset="0.6848" stop-color="#ECEBE7"/>
</linearGradient>
<linearGradient id="paint9_linear_20007_82741" x1="70.0718" y1="85.8596" x2="70.0718" y2="-7.45882" gradientUnits="userSpaceOnUse">
<stop offset="0.00532127" stop-color="#B5B09F"/>
<stop offset="0.2522" stop-color="#DAD4CA"/>
<stop offset="0.5565" stop-color="#ECEBE7"/>
<stop offset="0.6848" stop-color="#ECEBE7"/>
</linearGradient>
<radialGradient id="paint10_radial_20007_82741" cx="0" cy="0" r="1" gradientUnits="userSpaceOnUse" gradientTransform="translate(50.6191 -38.8192) scale(153.326 152.071)">
<stop offset="0.3412" stop-color="#FFF493"/>
<stop offset="0.4119" stop-color="#FEF18E"/>
<stop offset="0.4971" stop-color="#FAE97F"/>
<stop offset="0.5897" stop-color="#F4DB67"/>
<stop offset="0.687" stop-color="#EBC845"/>
<stop offset="0.72" stop-color="#E8C138"/>
<stop offset="1" stop-color="#EFA52C"/>
</radialGradient>
<linearGradient id="paint11_linear_20007_82741" x1="57.4867" y1="11.7956" x2="71.3875" y2="37.5535" gradientUnits="userSpaceOnUse">
<stop offset="0.1264" stop-color="#EBEBEB"/>
<stop offset="1" stop-color="#1D1D1B"/>
</linearGradient>
<linearGradient id="paint12_linear_20007_82741" x1="0.122387" y1="17.1996" x2="140.025" y2="17.1996" gradientUnits="userSpaceOnUse">
<stop offset="0.00532127" stop-color="#B5B09F"/>
<stop offset="0.3175" stop-color="#DAD4CA"/>
<stop offset="0.5565" stop-color="#ECEBE7"/>
<stop offset="0.6507" stop-color="#E8E6E1"/>
<stop offset="0.7708" stop-color="#DCD9D2"/>
<stop offset="0.9043" stop-color="#C9C4B8"/>
<stop offset="0.9419" stop-color="#C2BDAF"/>
</linearGradient>
<linearGradient id="paint13_linear_20007_82741" x1="28.8287" y1="25.5975" x2="140.056" y2="25.5975" gradientUnits="userSpaceOnUse">
<stop stop-color="#9F9A8E"/>
<stop offset="0.213" stop-color="#C2BDB6"/>
<stop offset="0.6749" stop-color="#A5A091"/>
<stop offset="1" stop-color="#98948C"/>
</linearGradient>
<linearGradient id="paint14_linear_20007_82741" x1="21.629" y1="87.0928" x2="68.8134" y2="60.1536" gradientUnits="userSpaceOnUse">
<stop offset="0.1264" stop-color="#EBEBEB"/>
<stop offset="0.3175" stop-color="#DAD4CA"/>
<stop offset="0.6749" stop-color="#C2BDAF"/>
<stop offset="1" stop-color="#B6B2AA"/>
</linearGradient>
<radialGradient id="paint15_radial_20007_82741" cx="0" cy="0" r="1" gradientUnits="userSpaceOnUse" gradientTransform="translate(101.659 -20.5296) rotate(-15.3579) scale(73.642 73.1236)">
<stop offset="0.3412" stop-color="#FFF493"/>
<stop offset="0.4119" stop-color="#FEF18E"/>
<stop offset="0.4971" stop-color="#FAE97F"/>
<stop offset="0.5897" stop-color="#F4DB67"/>
<stop offset="0.687" stop-color="#EBC845"/>
<stop offset="0.72" stop-color="#E8C138"/>
<stop offset="1" stop-color="#EFA52C"/>
</radialGradient>
<radialGradient id="paint16_radial_20007_82741" cx="0" cy="0" r="1" gradientUnits="userSpaceOnUse" gradientTransform="translate(122.6 -18.3934) rotate(-11.114) scale(73.8069 73.2492)">
<stop offset="0.3412" stop-color="#FFF493"/>
<stop offset="0.4119" stop-color="#FEF18E"/>
<stop offset="0.4971" stop-color="#FAE97F"/>
<stop offset="0.5897" stop-color="#F4DB67"/>
<stop offset="0.687" stop-color="#EBC845"/>
<stop offset="0.72" stop-color="#E8C138"/>
<stop offset="1" stop-color="#EFA52C"/>
</radialGradient>
<radialGradient id="paint17_radial_20007_82741" cx="0" cy="0" r="1" gradientUnits="userSpaceOnUse" gradientTransform="translate(76.2275 -23.338) rotate(-21.5882) scale(73.6597 73.2193)">
<stop offset="0.3412" stop-color="#FFF493"/>
<stop offset="0.4119" stop-color="#FEF18E"/>
<stop offset="0.4971" stop-color="#FAE97F"/>
<stop offset="0.5897" stop-color="#F4DB67"/>
<stop offset="0.687" stop-color="#EBC845"/>
<stop offset="0.72" stop-color="#E8C138"/>
<stop offset="1" stop-color="#EFA52C"/>
</radialGradient>
<radialGradient id="paint18_radial_20007_82741" cx="0" cy="0" r="1" gradientUnits="userSpaceOnUse" gradientTransform="translate(91.3479 -25.5768) rotate(-21.5885) scale(73.5692 73.13)">
<stop offset="0.3412" stop-color="#FFF493"/>
<stop offset="0.4119" stop-color="#FEF18E"/>
<stop offset="0.4971" stop-color="#FAE97F"/>
<stop offset="0.5897" stop-color="#F4DB67"/>
<stop offset="0.687" stop-color="#EBC845"/>
<stop offset="0.72" stop-color="#E8C138"/>
<stop offset="1" stop-color="#EFA52C"/>
</radialGradient>
<radialGradient id="paint19_radial_20007_82741" cx="0" cy="0" r="1" gradientUnits="userSpaceOnUse" gradientTransform="translate(100.673 -16.7395) rotate(-7.81119) scale(73.6996 73.1188)">
<stop offset="0.3412" stop-color="#FFF493"/>
<stop offset="0.4119" stop-color="#FEF18E"/>
<stop offset="0.4971" stop-color="#FAE97F"/>
<stop offset="0.5897" stop-color="#F4DB67"/>
<stop offset="0.687" stop-color="#EBC845"/>
<stop offset="0.72" stop-color="#E8C138"/>
<stop offset="1" stop-color="#EFA52C"/>
</radialGradient>
<radialGradient id="paint20_radial_20007_82741" cx="0" cy="0" r="1" gradientUnits="userSpaceOnUse" gradientTransform="translate(82.3549 -6.01791) rotate(-7.81119) scale(73.4951 72.9159)">
<stop offset="0.3412" stop-color="#FFF493"/>
<stop offset="0.4119" stop-color="#FEF18E"/>
<stop offset="0.4971" stop-color="#FAE97F"/>
<stop offset="0.5897" stop-color="#F4DB67"/>
<stop offset="0.687" stop-color="#EBC845"/>
<stop offset="0.72" stop-color="#E8C138"/>
<stop offset="1" stop-color="#EFA52C"/>
</radialGradient>
<radialGradient id="paint21_radial_20007_82741" cx="0" cy="0" r="1" gradientUnits="userSpaceOnUse" gradientTransform="translate(54.1345 2.2419) rotate(-7.81149) scale(73.5078 72.9312)">
<stop offset="0.3412" stop-color="#FFF493"/>
<stop offset="0.4119" stop-color="#FEF18E"/>
<stop offset="0.4971" stop-color="#FAE97F"/>
<stop offset="0.5897" stop-color="#F4DB67"/>
<stop offset="0.687" stop-color="#EBC845"/>
<stop offset="0.72" stop-color="#E8C138"/>
<stop offset="1" stop-color="#EFA52C"/>
</radialGradient>
<radialGradient id="paint22_radial_20007_82741" cx="0" cy="0" r="1" gradientUnits="userSpaceOnUse" gradientTransform="translate(108.974 4.56095) rotate(-7.8109) scale(73.8234 73.2389)">
<stop offset="0.3412" stop-color="#FFF493"/>
<stop offset="0.4119" stop-color="#FEF18E"/>
<stop offset="0.4971" stop-color="#FAE97F"/>
<stop offset="0.5897" stop-color="#F4DB67"/>
<stop offset="0.687" stop-color="#EBC845"/>
<stop offset="0.72" stop-color="#E8C138"/>
<stop offset="1" stop-color="#EFA52C"/>
</radialGradient>
<radialGradient id="paint23_radial_20007_82741" cx="0" cy="0" r="1" gradientUnits="userSpaceOnUse" gradientTransform="translate(51.059 -8.33979) rotate(-7.81119) scale(73.5096 72.9302)">
<stop offset="0.3412" stop-color="#FFF493"/>
<stop offset="0.4119" stop-color="#FEF18E"/>
<stop offset="0.4971" stop-color="#FAE97F"/>
<stop offset="0.5897" stop-color="#F4DB67"/>
<stop offset="0.687" stop-color="#EBC845"/>
<stop offset="0.72" stop-color="#E8C138"/>
<stop offset="1" stop-color="#EFA52C"/>
</radialGradient>
<radialGradient id="paint24_radial_20007_82741" cx="0" cy="0" r="1" gradientUnits="userSpaceOnUse" gradientTransform="translate(82.4281 -5.85929) rotate(-7.81119) scale(73.8066 73.225)">
<stop offset="0.3412" stop-color="#FFF493"/>
<stop offset="0.4119" stop-color="#FEF18E"/>
<stop offset="0.4971" stop-color="#FAE97F"/>
<stop offset="0.5897" stop-color="#F4DB67"/>
<stop offset="0.687" stop-color="#EBC845"/>
<stop offset="0.72" stop-color="#E8C138"/>
<stop offset="1" stop-color="#EFA52C"/>
</radialGradient>
<radialGradient id="paint25_radial_20007_82741" cx="0" cy="0" r="1" gradientUnits="userSpaceOnUse" gradientTransform="translate(60.6508 -10.9583) rotate(-7.81149) scale(73.6103 73.0329)">
<stop offset="0.3412" stop-color="#FFF493"/>
<stop offset="0.4119" stop-color="#FEF18E"/>
<stop offset="0.4971" stop-color="#FAE97F"/>
<stop offset="0.5897" stop-color="#F4DB67"/>
<stop offset="0.687" stop-color="#EBC845"/>
<stop offset="0.72" stop-color="#E8C138"/>
<stop offset="1" stop-color="#EFA52C"/>
</radialGradient>
<radialGradient id="paint26_radial_20007_82741" cx="0" cy="0" r="1" gradientUnits="userSpaceOnUse" gradientTransform="translate(28.0639 0.824632) rotate(-7.81119) scale(73.8464 73.2644)">
<stop offset="0.3412" stop-color="#FFF493"/>
<stop offset="0.4119" stop-color="#FEF18E"/>
<stop offset="0.4971" stop-color="#FAE97F"/>
<stop offset="0.5897" stop-color="#F4DB67"/>
<stop offset="0.687" stop-color="#EBC845"/>
<stop offset="0.72" stop-color="#E8C138"/>
<stop offset="1" stop-color="#EFA52C"/>
</radialGradient>
<radialGradient id="paint27_radial_20007_82741" cx="0" cy="0" r="1" gradientUnits="userSpaceOnUse" gradientTransform="translate(73.9788 -30.7597) rotate(-7.81119) scale(73.9034 73.321)">
<stop offset="0.3412" stop-color="#FFF493"/>
<stop offset="0.4119" stop-color="#FEF18E"/>
<stop offset="0.4971" stop-color="#FAE97F"/>
<stop offset="0.5897" stop-color="#F4DB67"/>
<stop offset="0.687" stop-color="#EBC845"/>
<stop offset="0.72" stop-color="#E8C138"/>
<stop offset="1" stop-color="#EFA52C"/>
</radialGradient>
<radialGradient id="paint28_radial_20007_82741" cx="0" cy="0" r="1" gradientUnits="userSpaceOnUse" gradientTransform="translate(73.0437 -15.6561) rotate(-7.81119) scale(73.8861 73.3038)">
<stop offset="0.3412" stop-color="#FFF493"/>
<stop offset="0.4119" stop-color="#FEF18E"/>
<stop offset="0.4971" stop-color="#FAE97F"/>
<stop offset="0.5897" stop-color="#F4DB67"/>
<stop offset="0.687" stop-color="#EBC845"/>
<stop offset="0.72" stop-color="#E8C138"/>
<stop offset="1" stop-color="#EFA52C"/>
</radialGradient>
<radialGradient id="paint29_radial_20007_82741" cx="0" cy="0" r="1" gradientUnits="userSpaceOnUse" gradientTransform="translate(91.5966 -13.7352) rotate(-7.8109) scale(73.892 73.307)">
<stop offset="0.3412" stop-color="#FFF493"/>
<stop offset="0.4119" stop-color="#FEF18E"/>
<stop offset="0.4971" stop-color="#FAE97F"/>
<stop offset="0.5897" stop-color="#F4DB67"/>
<stop offset="0.687" stop-color="#EBC845"/>
<stop offset="0.72" stop-color="#E8C138"/>
<stop offset="1" stop-color="#EFA52C"/>
</radialGradient>
<radialGradient id="paint30_radial_20007_82741" cx="0" cy="0" r="1" gradientUnits="userSpaceOnUse" gradientTransform="translate(61.4075 -30.2752) rotate(-7.81139) scale(73.6333 73.0548)">
<stop offset="0.3412" stop-color="#FFF493"/>
<stop offset="0.4119" stop-color="#FEF18E"/>
<stop offset="0.4971" stop-color="#FAE97F"/>
<stop offset="0.5897" stop-color="#F4DB67"/>
<stop offset="0.687" stop-color="#EBC845"/>
<stop offset="0.72" stop-color="#E8C138"/>
<stop offset="1" stop-color="#EFA52C"/>
</radialGradient>
<radialGradient id="paint31_radial_20007_82741" cx="0" cy="0" r="1" gradientUnits="userSpaceOnUse" gradientTransform="translate(23.1763 -35.366) rotate(-7.81114) scale(73.5472 72.967)">
<stop offset="0.3412" stop-color="#FFF493"/>
<stop offset="0.4119" stop-color="#FEF18E"/>
<stop offset="0.4971" stop-color="#FAE97F"/>
<stop offset="0.5897" stop-color="#F4DB67"/>
<stop offset="0.687" stop-color="#EBC845"/>
<stop offset="0.72" stop-color="#E8C138"/>
<stop offset="1" stop-color="#EFA52C"/>
</radialGradient>
<radialGradient id="paint32_radial_20007_82741" cx="0" cy="0" r="1" gradientUnits="userSpaceOnUse" gradientTransform="translate(66.9868 22.8021) scale(10.1626 10.0795)">
<stop offset="0.3412" stop-color="#FFF493"/>
<stop offset="0.4119" stop-color="#FEF18E"/>
<stop offset="0.4971" stop-color="#FAE97F"/>
<stop offset="0.5897" stop-color="#F4DB67"/>
<stop offset="0.687" stop-color="#EBC845"/>
<stop offset="0.72" stop-color="#E8C138"/>
<stop offset="1" stop-color="#EFA52C"/>
</radialGradient>
</defs>
</svg>
