<svg width="140" height="120" viewBox="0 0 140 120" fill="none" xmlns="http://www.w3.org/2000/svg">
<path d="M17.9476 47.2985H3.12285C2.29456 47.2984 1.50025 46.9682 0.914624 46.3807C0.328994 45.7932 0 44.9964 0 44.1656C0 43.3348 0.328994 42.5381 0.914624 41.9505C1.50025 41.363 2.29456 41.0329 3.12285 41.0327H17.9476C18.7545 41.064 19.518 41.4075 20.0778 41.9912C20.6377 42.5749 20.9504 43.3533 20.9504 44.1633C20.9504 44.9732 20.6377 45.7517 20.0778 46.3354C19.518 46.9191 18.7545 47.2626 17.9476 47.2939V47.2985ZM136.807 47.7241H121.982C121.155 47.7241 120.361 47.3945 119.777 46.8078C119.192 46.2212 118.863 45.4255 118.863 44.5958C118.863 43.7662 119.192 42.9705 119.777 42.3838C120.361 41.7972 121.155 41.4676 121.982 41.4676H136.807C137.631 41.4749 138.421 41.8068 139.004 42.3919C139.587 42.977 139.918 43.7684 139.925 44.5958C139.927 45.0071 139.848 45.4148 139.692 45.7951C139.536 46.1755 139.306 46.5211 139.016 46.812C138.726 47.1028 138.382 47.3332 138.002 47.4897C137.623 47.6463 137.217 47.7259 136.807 47.7241Z" fill="#30C0C4"/>
<path d="M121.213 32.6147C121.221 39.5509 119.866 46.4208 117.226 52.8314C114.585 59.242 110.711 65.0676 105.824 69.9751C100.937 74.8825 95.1333 78.7755 88.7451 81.4315C82.3569 84.0874 75.5093 85.4541 68.5941 85.4535C65.9207 85.4528 63.2512 85.2496 60.6083 84.8456C48.1682 82.9237 36.8236 76.6022 28.6244 67.0233C20.4253 57.4443 15.9123 45.2397 15.901 32.6147H121.213Z" fill="#FDD580"/>
<path d="M31.7047 120C30.8798 119.993 30.0908 119.661 29.5075 119.076C28.9242 118.491 28.5932 117.699 28.5859 116.872C28.5949 116.58 28.6419 116.291 28.7258 116.011L36.5997 88.4231C36.7942 87.7836 37.189 87.2239 37.7256 86.8272C38.2622 86.4305 38.912 86.2178 39.5786 86.2207H39.7185C39.8293 86.2768 39.954 86.2996 40.0774 86.2862C40.2266 86.2862 40.2919 86.361 40.4411 86.361H40.5157C40.5157 86.4311 40.5157 86.4312 40.5856 86.4312C40.6842 86.4207 40.7832 86.4455 40.8653 86.5013C49.8949 90.4862 59.6521 92.544 69.5171 92.544C79.3821 92.544 89.1393 90.4862 98.169 86.5013C98.1979 86.4753 98.2319 86.4557 98.2689 86.4436C98.3058 86.4315 98.3448 86.4273 98.3834 86.4312C98.458 86.4312 98.5233 86.361 98.5979 86.361H98.6678C98.7512 86.304 98.8516 86.2775 98.9522 86.2862H99.8053C99.8706 86.2862 100.015 86.361 100.085 86.361C100.155 86.361 100.299 86.4312 100.369 86.4312C100.514 86.5013 100.584 86.5013 100.654 86.5714C100.798 86.6416 100.864 86.6416 100.938 86.7164C100.993 86.7164 101.047 86.729 101.097 86.7534C101.146 86.7777 101.189 86.813 101.223 86.8567C101.292 86.8567 101.362 86.9268 101.437 87.0016L101.642 87.212L101.857 87.4271C101.875 87.5333 101.925 87.6313 102.001 87.7077C102.066 87.7825 102.066 87.9228 102.141 87.9976L102.211 88.0631C102.211 88.1379 102.281 88.208 102.281 88.2782C102.281 88.3483 102.355 88.4184 102.355 88.4933L110.229 116.082C110.442 116.865 110.338 117.7 109.94 118.407C109.542 119.113 108.882 119.634 108.103 119.855C107.825 119.934 107.539 119.981 107.25 119.995L31.7047 120Z" fill="#30C0C4"/>
<path d="M97.3066 115.58L89.8477 89.4507L89.7264 89.4881L97.2973 116.048C97.3518 116.242 97.3862 116.441 97.3999 116.642C97.4309 116.285 97.3993 115.926 97.3066 115.58Z" fill="#50D9E3"/>
<path d="M20.9545 43.3691C20.8188 43.8999 20.5435 44.3844 20.1573 44.7719C19.8698 45.0678 19.5262 45.303 19.1467 45.4637C18.7672 45.6243 18.3595 45.7071 17.9476 45.7071H3.12282C2.43649 45.6998 1.77143 45.4673 1.22928 45.0451C0.687137 44.6229 0.297729 44.0343 0.120575 43.3691C0.046607 43.6245 0.00740298 43.8888 0.00402832 44.1547C0.0113287 44.9821 0.342259 45.7735 0.92557 46.3586C1.50888 46.9437 2.29792 47.2756 3.12282 47.2829H17.9476C18.3576 47.2848 18.764 47.2052 19.1433 47.0486C19.5225 46.8921 19.867 46.6617 20.157 46.3708C20.447 46.08 20.6766 45.7344 20.8327 45.354C20.9888 44.9737 21.0682 44.566 21.0664 44.1547C21.0635 43.8891 21.0259 43.625 20.9545 43.3691Z" fill="#0FB2B2"/>
<path d="M122.145 29.4409H16.7401C15.9148 29.4495 15.1258 29.7824 14.5426 30.3682C13.9594 30.9541 13.6286 31.746 13.6213 32.5738C13.6213 47.4209 19.5015 61.6599 29.9683 72.1584C40.435 82.6569 54.631 88.5548 69.4332 88.5548C84.2355 88.5548 98.4314 82.6569 108.898 72.1584C119.365 61.6599 125.245 47.4209 125.245 32.5738C125.239 31.7488 124.911 30.959 124.332 30.3734C123.752 29.7878 122.967 29.4531 122.145 29.4409ZM69.4659 82.3685C56.8472 82.3461 44.7091 77.5123 35.5115 68.8469C26.314 60.1815 20.7451 48.3328 19.9335 35.7021H118.938C118.138 48.3323 112.577 60.1841 103.383 68.8512C94.1886 77.5183 82.0506 82.3512 69.4332 82.3685H69.4659Z" fill="#FDD580"/>
<path d="M139.888 43.7207C139.752 44.2515 139.477 44.736 139.091 45.1235C138.803 45.4194 138.46 45.6546 138.08 45.8152C137.701 45.9758 137.293 46.0586 136.881 46.0587H122.056C121.37 46.0514 120.705 45.8189 120.163 45.3967C119.621 44.9745 119.231 44.3858 119.054 43.7207C118.978 43.9851 118.938 44.259 118.938 44.5343C118.945 45.3617 119.276 46.1532 119.859 46.7382C120.442 47.3233 121.232 47.6552 122.056 47.6626H136.881C137.291 47.6644 137.698 47.5848 138.077 47.4282C138.456 47.2717 138.801 47.0413 139.091 46.7505C139.381 46.4596 139.61 46.114 139.766 45.7336C139.922 45.3533 140.002 44.9457 140 44.5343C140 44.2593 139.962 43.9856 139.888 43.7207Z" fill="#0FB2B2"/>
<path d="M13.9896 31.4921C13.9896 38.9737 38.8933 45.0104 69.5777 45.0104C100.262 45.0104 125.245 38.9784 125.245 31.4921C125.245 24.0059 100.341 17.9785 69.5638 17.9785C38.7861 17.9785 13.9896 24.0105 13.9896 31.4921Z" fill="#F3C256"/>
<path d="M68.9997 45.0075C91.7776 45.0075 111.385 41.6642 120.196 36.8292C117.129 30.9234 97.5164 26.2287 73.1115 25.8032C71.7736 25.8032 66.8926 28.3657 54.6412 29.4318C42.3898 30.4979 37.9937 29.1419 30.6232 30.0023C23.8309 31.8727 19.1411 34.2668 17.8031 36.8994C26.5767 41.6689 46.2032 45.0075 68.9997 45.0075Z" fill="#F0301E"/>
<path d="M86.7848 6.03677C87.9549 7.96796 88.6495 10.0347 89.6425 12.0267C90.3418 12.8871 89.801 14.2852 91.5072 14.7107C91.5539 14.7107 91.5818 14.8791 91.5539 14.9586C91.3161 15.6413 91.7823 16.165 92.1739 16.7074C92.2565 17.4884 92.4594 18.2519 92.7753 18.9706C93.417 21.4321 94.3334 23.8132 95.5071 26.0687H95.1342C94.4646 25.7922 93.7389 25.6797 93.0174 25.7407C92.2958 25.8017 91.5991 26.0344 90.9851 26.4194C90.4063 26.662 89.9304 27.1002 89.64 27.6579C89.3496 28.2157 89.2631 28.8578 89.3954 29.4729C89.4467 29.73 89.6844 29.9685 89.5679 30.2537C88.2546 29.829 86.9174 29.4823 85.5634 29.2157C84.6363 28.9947 83.6679 29.0195 82.7532 29.2875C81.8386 29.5556 81.0093 30.0578 80.3467 30.7447C79.3499 32.0251 78.6421 33.5072 78.2722 35.0887C76.8172 34.8736 75.3315 35.1119 74.0159 35.7714C73.5497 36.1081 73.2933 36.5523 72.8038 36.8796C72.4968 37.1588 72.125 37.3565 71.7223 37.4548C71.7185 36.9532 71.531 36.4706 71.1955 36.0987C70.3873 35.0816 69.7077 33.968 69.1722 32.7835C67.7263 29.2198 66.0395 25.7593 64.1234 22.4261C62.5056 19.6132 61.2285 16.6164 60.3193 13.4997C60.1096 12.7796 59.4522 12.0548 59.993 11.2505C63.5823 11.5824 67.1915 11.6434 70.7899 11.4329C71.9118 12.819 73.5129 13.7305 75.2746 13.986C75.6492 14.0838 76.0406 14.0985 76.4214 14.029C76.8022 13.9596 77.1634 13.8076 77.4797 13.5838C78.022 13.1937 78.5959 12.8496 79.1952 12.5551C81.445 11.579 83.4324 10.0824 84.9946 8.18773C85.4375 8.07083 85.5727 7.75286 85.8058 7.48165C86.202 7.01405 86.2253 6.4202 86.7848 6.01807V6.03677Z" fill="#763103"/>
<path d="M24.311 24.199C22.4118 23.9461 20.4842 24.0077 18.6049 24.3814C17.7751 24.4749 17.0199 24.517 16.6096 23.8857C16.9546 23.6192 17.3182 23.362 17.6539 23.0908C19.4918 21.6603 21.726 20.8354 24.05 20.7294C26.8168 20.6256 29.5851 20.8898 32.2828 21.515C31.2625 20.5774 30.0357 19.8948 28.7025 19.523C25.4216 17.9752 21.8036 17.2851 18.1853 17.517C17.542 17.5638 16.894 17.6105 16.2506 17.6339C16.0315 17.6339 15.7845 17.6339 15.6586 17.4562C15.5327 17.2785 15.7192 17.185 15.8497 17.0541C17.5786 15.4676 19.8153 14.5523 22.1572 14.4729L28.0545 13.9586C29.7079 13.9903 31.3567 14.1466 32.9868 14.4262C33.5742 14.7909 34.3434 14.4776 35.038 14.7161C36.1045 15.0622 37.1491 15.4729 38.1661 15.9459C38.3148 16.0508 38.4866 16.1179 38.6669 16.1415C38.8472 16.1652 39.0305 16.1446 39.201 16.0815C39.5413 15.8991 39.1684 15.7214 39.0472 15.5484C38.926 15.3754 38.9213 15.3099 39.0472 15.1884C39.2476 15.006 39.4388 15.1556 39.6486 15.1884C40.4597 15.3333 40.9539 15.0762 40.9492 14.515C40.9492 14.3888 40.7721 14.2251 40.8467 14.155C41.1077 13.8697 41.0658 13.3834 41.5506 13.3039C41.9096 13.2432 42.1333 13.6219 42.3058 13.8931C42.4052 14.0477 42.539 14.177 42.6965 14.2711C42.8541 14.3652 43.0312 14.4215 43.214 14.4356C43.3968 14.4496 43.5804 14.421 43.7504 14.3521C43.9204 14.2831 44.0722 14.1756 44.1939 14.0381C44.3928 13.8769 44.5523 13.6722 44.6601 13.4396C45.1869 12.9953 44.9584 12.4623 45.0377 11.9713C45.0703 11.7749 45.0377 11.5411 45.4339 11.5037C45.7649 11.4663 45.9328 11.5785 45.9654 11.7936C45.998 12.0087 46.1892 12.0508 46.5155 11.9993C46.8418 11.9479 47.336 11.9386 47.7462 11.9152L48.0866 12.1443C48.1088 12.1649 48.1222 12.1934 48.1238 12.2238L47.5831 12.5044C46.6134 12.9953 46.6507 13.1683 47.8022 13.5892C47.3816 14.589 46.8714 15.5484 46.2778 16.4556C45.9048 16.3059 45.5925 15.8991 45.0796 16.3059C44.7813 16.5444 44.9025 16.8016 45.2381 16.9512C45.4845 17.0168 45.7386 17.0482 45.9934 17.0447C45.9605 17.332 45.8718 17.61 45.7323 17.863C44.7082 20.0407 43.5579 22.1563 42.2872 24.199C42.0876 24.1643 41.899 24.0827 41.7369 23.9607C41.5749 23.8388 41.4439 23.6801 41.3548 23.4976C41.1916 23.1469 40.7581 23.2404 40.4224 23.2778C40.0868 23.3153 39.6626 23.6052 39.7931 23.7127C40.3339 24.1569 39.7651 24.4562 39.6113 24.8069C37.7859 24.652 35.9483 24.883 34.2175 25.4849C33.0039 25.7117 31.8991 26.3348 31.0754 27.2571H30.8237C30.7429 27.0877 30.6197 26.9421 30.4661 26.8347C30.3125 26.7274 30.1337 26.6618 29.9472 26.6446C29.9146 26.4435 29.7654 26.3266 29.4437 26.35C29.2624 26.037 28.9973 25.7813 28.6784 25.6118C28.3595 25.4424 27.9996 25.366 27.6396 25.3914C26.5688 24.8925 25.4546 24.4934 24.311 24.199ZM42.5576 19.2331C41.9655 19.2612 41.3828 19.4576 41.2662 19.8129C41.1497 20.1683 41.8583 20.3553 42.2452 20.3928C42.8093 20.4442 43.2056 20.1543 43.2242 19.7194C43.2242 19.4155 43.075 19.2191 42.5576 19.2518V19.2331ZM34.4319 23.7314C34.6977 23.175 34.3993 22.7682 33.8306 22.4128C33.5695 22.2445 33.0753 22.2865 33.0007 21.9452C32.9588 21.7628 32.735 21.6787 32.4973 21.7394C32.0777 21.8517 32.3527 22.1042 32.46 22.1837C33.0138 22.82 33.6829 23.3453 34.4319 23.7314ZM36.0822 23.8062C35.9904 23.6956 35.8776 23.6044 35.7503 23.5378C35.6231 23.4712 35.484 23.4305 35.341 23.4181C34.8748 23.4181 34.9494 23.666 34.9541 23.853C34.9587 24.04 34.9541 24.3206 35.3923 24.2738C35.5395 24.2714 35.6828 24.2258 35.8046 24.1428C35.9264 24.0597 36.0212 23.9427 36.0776 23.8062H36.0822ZM43.1683 15.9365C43.5692 15.8757 43.7464 15.6606 43.7464 15.4362C43.7464 15.2118 43.4014 15.2118 43.1356 15.2071C42.772 15.2071 42.5389 15.2866 42.5949 15.5578C42.6508 15.829 42.8 15.9272 43.1683 15.9319V15.9365ZM45.9654 14.5057C45.8862 14.2719 45.6064 14.183 45.2988 14.169C45.0983 14.169 44.9211 14.2719 44.9491 14.4168C44.9911 14.6413 45.2335 14.7816 45.5505 14.8143C45.5985 14.8229 45.6477 14.8215 45.6951 14.8102C45.7425 14.7988 45.7871 14.7778 45.8261 14.7484C45.865 14.719 45.8975 14.6818 45.9215 14.6393C45.9454 14.5967 45.9604 14.5496 45.9654 14.501V14.5057Z" fill="#8CA322"/>
<path d="M70.7806 11.4711C67.1822 11.6816 63.5731 11.6207 59.9837 11.2888C59.6714 10.9848 59.1492 11.0222 58.767 10.9381C57.2935 10.4924 55.7963 10.1302 54.2823 9.85322C53.6714 9.2868 52.9015 8.92273 52.0772 8.81048L49.4432 6.02826L49.6857 5.56066C53.5597 2.6896 58.4173 1.92274 63.4708 1.61412C65.7471 1.43098 68.032 1.37634 70.3144 1.45046C70.403 1.99288 69.7736 2.3576 69.7597 2.85326C65.3209 2.66655 60.8761 3.02617 56.5246 3.92406C55.6535 4.05313 54.8212 4.37237 54.0865 4.85926C53.2473 5.49052 53.224 6.0002 54.1471 6.58003C55.7013 7.56249 57.4521 8.18988 59.2751 8.41769C61.7248 8.77202 64.1942 8.97192 66.6688 9.01622C67.9347 9.17814 69.2123 9.22821 70.4869 9.16585L71.2888 9.88596C71.3587 10.4611 70.5708 10.8679 70.8226 11.4711H70.7806ZM86.7848 6.03761C86.2487 6.4304 86.2021 7.0523 85.7825 7.5199C85.5494 7.78643 85.4142 8.10908 84.9713 8.2213C84.8315 7.59004 84.7942 6.88864 83.5961 6.98216C83.5961 6.14984 82.7243 5.90668 82.0483 5.53728L81.7686 5.35492C81.8059 5.08839 81.5449 5.01357 81.3024 4.88732C79.4106 4.03724 77.4102 3.45497 75.3586 3.1572C75.4238 2.6896 75.6569 2.27344 75.3586 1.82922C75.3515 1.78429 75.3515 1.73854 75.3586 1.69361C77.5077 2.06769 79.6661 2.41839 81.8013 2.8252C84.0856 3.24604 86.0715 4.03629 86.7428 6.03761H86.7848Z" fill="#C96332"/>
<path d="M71.2235 1.12793C71.8238 1.53781 72.5061 1.81126 73.2228 1.92917C73.9394 2.04709 74.6731 2.00663 75.3725 1.81063C75.6522 2.27822 75.4145 2.69906 75.3725 3.13861C74.854 3.50129 74.4573 4.01326 74.235 4.60687C74.1776 4.79857 74.0652 4.96908 73.9119 5.09714C73.7585 5.2252 73.5709 5.30513 73.3726 5.32697C73.1705 5.18062 72.9204 5.11708 72.6733 5.14929C72.4402 4.59284 73.2467 4.59284 73.4472 4.25617C73.6057 3.99431 73.9507 3.75584 73.7036 3.4519C73.5623 3.33413 73.3982 3.24712 73.2217 3.1964C73.0451 3.14569 72.8599 3.13238 72.678 3.15731C72.5676 3.14079 72.455 3.14854 72.3479 3.18003C72.2409 3.21152 72.1419 3.26599 72.0579 3.33968C71.9734 3.41346 71.9059 3.50478 71.86 3.60731C71.8141 3.70985 71.791 3.82115 71.7922 3.93353C71.7549 4.57881 71.326 4.91081 70.5894 5.05577C70.361 4.95757 70.1652 4.69104 69.8715 4.96692L69.4473 4.93887C69.3498 4.81819 69.2786 4.6783 69.2385 4.52827C69.1983 4.37824 69.1901 4.22141 69.2142 4.06797C69.2384 3.91453 69.2945 3.76791 69.3788 3.63761C69.4631 3.5073 69.5738 3.39624 69.7037 3.31162C69.8109 3.23213 69.7643 3.02171 69.7876 2.87208C69.7876 2.36707 70.4356 2.00234 70.3424 1.46928L71.2235 1.12793Z" fill="#763103"/>
<path d="M28.7025 19.5218C30.0346 19.8816 31.262 20.5548 32.2828 21.4857C29.5854 20.8584 26.817 20.5927 24.0499 20.6954C25.6421 20.4771 27.2055 20.0835 28.7118 19.5218H28.7025ZM47.7695 11.9233C47.3581 11.9299 46.9473 11.958 46.5388 12.0074C46.2125 12.0589 46.026 12.0542 45.9887 11.8017C45.9514 11.5492 45.7882 11.4744 45.4572 11.5118C45.0377 11.5539 45.0983 11.7877 45.061 11.9794C44.9817 12.475 45.2101 13.0081 44.6834 13.4476C44.6834 12.6714 44.8465 11.8625 43.6577 11.3528L43.6205 10.9694C44.071 10.6806 44.5912 10.5198 45.1256 10.5042C45.6601 10.4885 46.1888 10.6186 46.6553 10.8805C46.8371 11.3201 47.8488 11.3481 47.7695 11.9186V11.9233Z" fill="#F1C24E"/>
<path d="M47.7323 9.23577C47.6764 9.47425 47.4526 9.6005 47.1123 9.5818C46.772 9.56309 46.4083 9.47425 46.3571 9.21707C46.3058 8.95989 46.6974 8.82429 47.0144 8.82429C47.1608 8.81662 47.3063 8.85133 47.4336 8.92428C47.5609 8.99724 47.6646 9.10536 47.7323 9.23577ZM43.6252 10.9752L43.6578 11.3587C43.5856 11.3682 43.5139 11.3822 43.4434 11.4008C43.0238 11.5551 42.6322 11.5831 42.3805 11.2558C42.222 11.0594 42.2779 10.8396 42.5343 10.6947C43.1124 10.3627 43.1823 11.0127 43.6252 10.9752ZM40.5204 11.5738C40.5204 11.8216 40.306 11.9666 39.9423 11.9385C39.5787 11.9104 39.3689 11.7795 39.3503 11.541C39.3316 11.3026 39.602 11.1997 39.947 11.2044C40.292 11.209 40.5064 11.3259 40.5204 11.5738Z" fill="#F67464"/>
<path d="M29.9379 26.6494C30.1247 26.6677 30.3037 26.7336 30.4579 26.8408C30.6121 26.948 30.7364 27.093 30.819 27.262L30.5999 27.3695C30.1371 27.2688 29.6565 27.2849 29.2014 27.4163C27.0457 27.5695 24.9363 28.1179 22.9778 29.0342C20.3392 30.2125 20.5256 31.2693 23.416 32.2606C23.6398 32.3401 23.9894 32.3495 23.9568 32.588C23.9241 32.8264 23.6304 32.7843 23.4486 32.8638C22.8006 33.1491 22.0501 33.3314 22.1759 34.0469C22.2412 34.435 22.6701 34.6033 22.9451 34.8605C24.6379 36.1533 26.5846 37.0718 28.6569 37.5554C30.7292 38.039 32.8802 38.0767 34.9681 37.6661C35.0287 37.7596 35.1732 37.8718 35.1359 37.942C34.5579 39.0268 35.5741 39.4897 36.7909 39.8685C37.5275 40.0638 38.2269 40.3797 38.8608 40.8037C39.0599 41.0089 39.3022 41.167 39.5699 41.2665C39.8376 41.366 40.1241 41.4044 40.4085 41.3788C40.6944 41.3587 40.9722 41.2753 41.2221 41.1346C41.472 40.994 41.6877 40.7995 41.8537 40.5652C42.3199 40.6026 42.5063 40.4483 42.4924 40.149C43.6951 39.7563 44.9678 39.4383 46.0773 38.952C46.5901 38.7275 47.3407 38.952 47.6297 38.4844L47.7929 38.4189L49.6297 37.1751C50.1705 36.96 50.0959 36.5906 50.1378 36.2399H51.9653C51.928 37.2873 51.0888 38.0729 50.1005 38.8117C49.6343 38.779 49.5085 39.0876 49.2148 39.2279C48.6647 39.4897 48.5761 39.9152 48.8232 40.2566C49.0089 40.4456 49.242 40.581 49.498 40.6485C49.7539 40.716 50.0233 40.713 50.2777 40.64C50.7652 40.5848 51.2556 40.5598 51.7462 40.5652H51.7928C51.7368 40.9253 52.1424 40.9346 52.4501 40.8691C52.9443 40.7569 53.3825 40.5652 53.238 40.1163L53.3405 39.9526C54.8976 39.4289 54.9629 39.3588 54.6412 38.288C54.795 37.8204 55.2193 37.3808 55.1074 36.8852C55.9679 36.8206 56.8289 37.0056 57.5875 37.4183C58.5726 37.9991 59.7114 38.2635 60.8508 38.1758C62.1548 38.0687 63.4672 38.1379 64.7528 38.3815C65.8874 38.6435 67.0716 38.5918 68.1793 38.2319C68.4602 38.0852 68.7863 38.0514 69.0911 38.1374C69.396 38.2234 69.6568 38.4227 69.8202 38.6948L69.3913 38.7229C68.8886 38.6647 68.3794 38.7143 67.8972 38.8682C67.415 39.0222 66.9709 39.2771 66.5942 39.616L66.2399 39.6627C64.5682 39.617 62.8984 39.8074 61.2797 40.2285C60.4845 40.5324 59.6617 40.7579 58.8229 40.9019C58.3368 40.8972 57.8519 40.9489 57.3777 41.0562C57.704 40.2192 58.3893 39.4383 58.1469 38.4984C57.4975 39.255 56.8048 39.9732 56.0724 40.6494C55.5977 41.1382 55.0206 41.5151 54.3828 41.7529C53.7451 41.9906 53.0626 42.0833 52.3848 42.0241C50.6884 41.9956 48.9982 41.8093 47.336 41.4677C45.779 41.2825 44.2004 41.4421 42.7115 41.9353C44.7116 42.0371 46.705 42.2447 48.6833 42.5572C51.0612 43.1545 53.5613 43.0424 55.8766 42.2345C56.133 42.4543 56.0397 42.7021 56.091 42.9593C56.1703 43.3801 56.3521 43.4783 57.0234 43.5017L57.9558 43.5438L58.2168 43.656L58.4406 43.7308C57.8579 44.292 58.9954 44.2452 59.1352 44.6193H56.408C50.6925 44.3974 44.9959 43.8243 39.3503 42.9032C34.9992 42.127 30.704 41.1622 26.4649 40.0088C23.8276 39.2248 21.2633 38.2125 18.8007 36.9834L17.7658 36.5158L17.57 36.0762C18.8474 36.123 19.9522 36.6187 21.2109 36.7075C21.2643 36.7417 21.3205 36.7714 21.3788 36.7963H21.4627L21.2016 36.7309C20.403 36.1563 19.5004 35.7433 18.5443 35.5151C16.5817 34.781 15.5188 33.7055 15.4489 32.1811C15.4479 31.392 15.6451 30.6152 16.0223 29.9226C16.1621 29.6234 16.1388 29.614 15.7379 29.413L15.6726 28.9874C16.3812 28.6554 16.6889 28.1083 17.2437 27.6875C19.4869 26.3022 21.8565 25.1341 24.3204 24.1992C25.4655 24.4987 26.58 24.9057 27.649 25.415C27.8387 25.7186 28.1062 25.9655 28.4235 26.13C28.7409 26.2945 29.0965 26.3706 29.4531 26.3502L29.248 26.5793L29.9379 26.6494ZM20.2599 28.8472L19.4161 27.8746C19.3742 28.2814 19.2763 28.7069 20.2599 28.8472Z" fill="#DE2614"/>
<path d="M124.476 31.7698C124.798 32.1439 124.476 32.4805 124.252 32.7798C122.034 35.7895 118.939 38.0344 115.395 39.2046C114.424 39.6668 113.39 39.9819 112.327 40.1398C110.946 39.8395 109.607 39.3683 108.341 38.737C108.008 38.113 107.467 37.6263 106.812 37.3623C106.506 36.4239 106.405 35.4301 106.518 34.4491C106.935 33.6721 107.566 33.0324 108.337 32.6068C109.164 32.0124 110.057 31.5165 110.998 31.1292C112.533 30.5508 114.213 30.4868 115.786 30.9468C116.145 31.0544 116.602 31.1011 116.649 30.713C116.825 29.876 117.251 29.1126 117.87 28.5246C118.234 28.4827 118.592 28.4076 118.942 28.3002C119.697 28.0011 120.51 27.8805 121.318 27.9478C122.127 28.0151 122.909 28.2685 123.604 28.6883L124.014 29.0063L124.882 29.6375L124.476 30.3576C122.345 30.7551 123.441 29.3757 122.774 28.9548C122.666 28.9963 122.572 29.0673 122.502 29.1599C122.432 29.2524 122.389 29.3628 122.378 29.4785C122.378 30.2173 121.684 30.2267 120.858 30.2174C120.297 30.0987 119.712 30.1625 119.189 30.3997L121.371 30.9982L119.749 31.9007C120.044 31.9447 120.346 31.9125 120.625 31.8072C120.989 31.737 121.418 31.5687 121.688 31.7838C121.959 31.9989 121.562 32.2046 121.492 32.4244C121.366 32.8172 120.835 33.1492 121.026 33.6449C122.29 33.037 122.285 31.4799 124.481 31.7745L124.476 31.7698ZM116.677 33.0463C116.15 33.3171 115.641 33.6201 115.152 33.9535C114.523 34.4585 114.22 34.2387 113.842 33.7945C113.505 33.3137 113.078 32.9039 112.584 32.5881C112.49 33.0518 112.552 33.5337 112.761 33.9581C112.961 34.5614 112.789 34.8092 111.768 34.697C111.168 34.5477 110.542 34.5333 109.936 34.6549C110.572 34.9731 111.224 35.2587 111.889 35.5106C112.653 35.7724 112.649 36.0998 112.392 36.5767C112.201 36.9414 111.656 37.2828 112.033 37.8439C112.439 37.4605 112.756 37.1518 113.092 36.8479C113.777 36.24 114.057 36.2728 114.532 36.9835C114.784 37.3436 114.747 37.8252 115.465 38.1198C115.428 37.6818 115.358 37.2472 115.255 36.8199C115.096 36.3148 115.348 36.1465 116.099 36.1138C117.248 36.1058 118.392 35.9486 119.502 35.6462C118.397 35.5012 117.278 35.4077 116.164 35.3563C115.507 35.3282 115.339 35.2066 115.698 34.8045C116.167 34.3137 116.51 33.7148 116.695 33.0604L116.677 33.0463Z" fill="#763103"/>
<path d="M108.355 38.6947C109.623 39.3259 110.963 39.7971 112.346 40.0975C112.089 40.1583 112.229 40.2097 112.346 40.2611C112.295 40.2985 112.257 40.3546 112.192 40.3733C109.486 41.2509 106.726 41.9553 103.931 42.4822C101.6 42.8329 99.2972 43.2725 97.0176 43.7494C94.2313 44.2663 91.4112 44.5789 88.5796 44.6846C86.1088 44.8249 83.6707 45.1803 81.1952 45.227C76.8177 45.3205 72.4355 45.358 68.0581 45.1382C66.3471 45.0587 64.6316 44.9605 62.93 44.8763C62.3892 44.6379 63.0605 44.4789 63.0139 44.2731C64.268 44.2264 65.3448 43.698 66.5942 43.6512H78.1137C78.4261 43.6512 78.9342 43.8196 78.9901 43.3847H80.8316C81.9791 43.5389 83.1465 43.4269 84.2441 43.0574C85.3585 42.5709 86.576 42.37 87.7871 42.4729C88.547 42.5103 89.3162 42.4729 90.0807 42.4729C90.8453 42.4729 91.5212 42.515 92.2252 42.4729C93.055 42.4214 93.3907 42.0053 93.0084 41.5377C92.766 41.2384 92.8592 40.9485 92.8266 40.6492C94.1599 40.9532 95.5724 40.9672 96.929 41.1916C98.1166 41.2773 99.2982 41.4335 100.467 41.6592C100.826 41.791 101.213 41.83 101.591 41.7728C101.969 41.7156 102.326 41.564 102.63 41.3319C104.076 40.3172 105.241 39.1623 106.551 38.0587C107.418 37.9465 107.712 38.5263 108.369 38.704L108.355 38.6947ZM96.6306 42.0567C95.5167 41.8649 94.371 42.0097 93.3394 42.4729C92.3437 42.8382 91.317 43.1121 90.2719 43.2912C89.167 43.4735 88.0295 43.5764 86.92 43.7588C84.6916 44.0954 84.5657 44.1422 83.9177 44.535C88.2535 44.319 92.5368 43.4877 96.64 42.0661L96.6306 42.0567Z" fill="#DE2614"/>
<path d="M15.6679 28.9673L15.7332 29.3881C15.7274 29.4661 15.7068 29.5423 15.6726 29.6126C13.8079 32.1329 14.274 33.7649 17.3416 35.654C17.5374 35.7709 17.5234 35.9252 17.5653 36.0748L17.7611 36.5143C16.8825 36.202 16.094 35.6779 15.4648 34.9881C14.8356 34.2983 14.385 33.4639 14.1528 32.5584C14.0621 31.8787 14.1548 31.1869 14.4213 30.5553C14.6878 29.9236 15.1183 29.3752 15.6679 28.9673Z" fill="#C96332"/>
<path d="M62.9859 44.3058C63.0325 44.5116 62.3612 44.6659 62.9066 44.909C60.7311 44.909 58.5555 44.8155 56.38 44.6285H59.1025C58.9627 44.2497 57.8252 44.2965 58.4079 43.7354C59.3322 44.2041 60.3696 44.4018 61.4008 44.3058H62.9859Z" fill="#A55711"/>
<path d="M124.476 31.5031L123.544 31.0823C123.687 30.92 123.866 30.7933 124.067 30.7121C124.268 30.631 124.484 30.5976 124.7 30.6147C124.593 30.9046 124.97 31.2506 124.467 31.4891L124.476 31.5031ZM112.355 40.2846C112.229 40.2332 112.085 40.1818 112.355 40.121C112.375 40.1546 112.391 40.1908 112.402 40.2285C112.402 40.2285 112.402 40.2659 112.364 40.2846H112.355Z" fill="#763103"/>
<path d="M62.5011 33.2406L60.6736 33.2687C59.5548 32.0249 58.4546 30.7717 57.3217 29.5279C57.2351 29.4036 57.1245 29.2982 56.9963 29.2178C56.8681 29.1375 56.7251 29.0839 56.5758 29.0603C56.4257 29.0349 56.272 29.0401 56.1238 29.0754C55.9757 29.1107 55.8361 29.1756 55.7134 29.266C54.9908 29.6728 54.3848 30.1545 53.7134 30.5893L53.3918 30.6548L53.21 30.3883C53.2985 29.8739 53.9559 29.6869 54.2262 29.2333C54.999 27.6546 55.6762 26.0307 56.2542 24.3702C57.4196 21.7704 58.9254 19.2781 60.0816 16.6689C61.4801 13.5032 63.219 10.4311 64.8087 7.31689C66.3203 7.59779 67.8158 7.95993 69.2887 8.40173C69.671 8.48589 70.1931 8.45316 70.5102 8.7571C69.9694 9.5567 70.6267 10.2768 70.8365 11.0063C71.7437 14.1223 73.0208 17.1177 74.6406 19.9281C76.5562 23.2582 78.2431 26.7155 79.6894 30.276C80.2232 31.4605 80.9012 32.574 81.708 33.5913C82.0435 33.9632 82.231 34.4458 82.2348 34.9473C81.9084 35.6441 81.0553 35.8264 80.37 36.1538C80.3085 36.0048 80.2165 35.8705 80.1001 35.7593C79.9837 35.6482 79.8454 35.5628 79.694 35.5085C79.5427 35.4544 79.3819 35.4319 79.2216 35.4423C79.0613 35.4528 78.9048 35.496 78.7617 35.5693C77.6678 35.9933 76.4677 36.0572 75.3352 35.7516C74.0564 35.4693 72.7414 35.3888 71.4379 35.5131C70.2727 35.6161 69.1088 35.3031 68.1512 34.6294C67.4075 34.1525 66.5269 33.937 65.6478 34.0168L65.2422 33.783C64.9439 32.9226 64.0162 33.4604 63.4148 33.278C63.3441 33.1567 63.2402 33.0583 63.1154 32.9945C62.9906 32.9307 62.8502 32.9041 62.7108 32.918C62.4638 32.918 62.5757 33.1331 62.5011 33.25V33.2406Z" fill="#A55711"/>
<path d="M69.8249 38.6931C70.5288 38.4172 71.3819 38.2582 71.6896 37.6643C72.0828 37.583 72.4525 37.4136 72.7712 37.1687C73.2374 36.8928 73.5078 36.5094 73.9833 36.2335C75.3252 35.6634 76.7942 35.4617 78.2395 35.649C78.2395 35.9109 78.2908 36.1914 78.8456 36.1166C80.3842 36.1816 81.9076 36.4489 83.3769 36.9115C83.7266 36.963 83.6706 37.1547 83.6566 37.3464C83.61 38.2348 84.4119 38.6276 85.885 38.4312C86.2306 38.6194 86.6202 38.7114 87.0132 38.6977C87.9147 38.6654 88.8137 38.8137 89.6574 39.134C90.5011 39.4544 91.2726 39.9404 91.9268 40.5635C91.9064 40.6658 91.907 40.7713 91.9286 40.8734C91.9503 40.9755 91.9925 41.0721 92.0527 41.1573C92.6354 41.9522 92.4676 42.0925 91.1762 42.1673C90.7846 42.1673 90.2159 41.9663 90.0574 42.4432C89.2928 42.4432 88.5236 42.4806 87.7638 42.4432C86.5527 42.3403 85.3351 42.5412 84.2207 43.0277C83.1247 43.397 81.9588 43.509 80.8129 43.355C80.412 42.7986 79.6568 43.1727 79.088 43.0511C78.836 42.9982 78.5805 42.9638 78.3235 42.9482C75.2883 42.8884 72.2672 42.517 69.3074 41.84C67.5033 41.494 66.0674 41.1713 66.2399 39.6704L66.5895 39.6236C67.5685 39.3898 68.8226 39.5535 69.3867 38.7258L69.8249 38.6931Z" fill="#318202"/>
<path d="M85.9129 38.4354C84.4398 38.6271 83.6379 38.2344 83.6845 37.3506C83.6845 37.1682 83.7545 36.9718 83.4048 36.9157C81.9359 36.4524 80.4121 36.1867 78.8735 36.1255C78.3141 36.1722 78.2908 35.8964 78.2675 35.6345C78.6534 34.2402 79.3645 32.958 80.342 31.8937C81.0512 31.2846 81.8903 30.8469 82.7947 30.6143C83.6991 30.3816 84.6447 30.3602 85.5586 30.5517C86.9074 30.7806 88.2439 31.0771 89.5632 31.4401L91.633 32.4548C91.5211 33.1141 92.3743 33.5771 92.4349 34.199C91.7542 34.6666 91.1715 33.9652 90.5188 34.1242C89.8997 33.9208 89.2428 33.8602 88.5971 33.9468C87.9514 34.0335 87.3334 34.2651 86.7893 34.6245C86.4975 34.5494 86.1907 34.5559 85.9022 34.6433C85.6138 34.7306 85.3547 34.8956 85.153 35.1201C84.892 35.4147 85.0272 35.7187 85.4887 35.9197C85.4982 36.776 85.6559 37.624 85.9549 38.4261L85.9129 38.4354ZM83.4514 32.8803C83.6333 33.1796 83.6892 33.6519 84.4444 33.7127C84.7894 33.7407 84.8034 33.4602 84.7288 33.3012C84.575 32.9178 84.505 32.4408 83.8291 32.3332C83.4468 32.2865 83.4701 32.5998 83.4514 32.8803ZM81.7405 35.4942C81.9783 35.3446 82.589 35.6439 82.5983 35.2417C82.6077 34.8396 82.0809 34.7414 81.5447 34.7367C81.0086 34.732 80.6637 34.8723 80.6963 35.2043C80.7429 35.6345 81.3443 35.396 81.7405 35.5036V35.4942ZM90.2438 33.1141C90.2438 32.9037 90.1692 32.7541 89.8942 32.7541C89.6395 32.7481 89.3872 32.8037 89.1584 32.916C88.9296 33.0283 88.7311 33.194 88.5795 33.3994C88.449 33.563 88.78 33.6566 89.0084 33.6425C89.2385 33.6558 89.4685 33.6154 89.6804 33.5246C89.8923 33.4337 90.0804 33.2948 90.2298 33.1188L90.2438 33.1141Z" fill="#F1C24E"/>
<path d="M82.0529 5.52617C82.7289 5.90025 83.6146 6.1434 83.6007 6.97106C83.0226 6.97106 83.1345 7.26564 83.2277 7.51347C83.4375 8.00445 83.6939 8.4814 83.9829 9.04252C84.3139 8.2289 83.7685 7.63972 83.6053 6.97573C84.7988 6.87754 84.8407 7.57893 84.9806 8.21019C83.4209 10.1075 81.4329 11.6047 79.1812 12.5776C78.5808 12.8719 78.0068 13.2177 77.4656 13.611C77.149 13.834 76.7877 13.9851 76.4068 14.0537C76.026 14.1224 75.6348 14.1069 75.2606 14.0084C73.4993 13.7551 71.8979 12.8451 70.7759 11.46C70.5428 10.8568 71.3306 10.45 71.242 9.87953C73.0648 10.5014 73.0136 12.2175 74.3375 13.3351C74.4774 12.4279 73.8946 11.8762 73.5124 11.2496C74.0346 11.1605 74.5709 11.2799 75.0065 11.5822C75.4421 11.8846 75.7424 12.3459 75.8433 12.8675C75.8946 13.0358 75.9039 13.2883 76.2023 13.2275C76.6079 13.1574 76.4214 12.9049 76.3328 12.7179C76.165 12.3859 75.8666 12.0118 76.5612 11.8528C77.2559 11.6938 77.0274 12.2362 77.1766 12.4607C77.3258 12.6851 77.4237 12.9283 77.8153 12.7973C78.2069 12.6664 78.0111 12.4747 77.9318 12.2549C77.722 11.6798 77.6008 11.0813 77.3444 10.5155C77.1301 10.0397 76.8017 9.62455 76.3885 9.30715C75.9752 8.98974 75.49 8.77995 74.9762 8.6965C75.4051 9.35581 76.426 9.78133 76.1929 10.7119C75.1347 10.5155 74.7944 9.77665 74.2583 9.25294C74.207 9.22489 74.1324 9.1641 74.1184 9.17345C73.9925 9.23891 74.0718 9.29035 74.1557 9.33711C74.0998 9.5335 74.179 9.94967 73.6895 9.58961C73.4005 9.37452 73.0835 9.12201 73.0881 8.75261L74.2862 8.01848C74.6172 7.51815 75.6522 7.65843 75.8153 7.00379L78.7896 5.68048C78.8782 5.774 78.9435 5.90025 79.0647 5.96104C80.5918 6.57562 81.8151 7.7706 82.4678 9.28567C82.4882 9.36966 82.537 9.44396 82.6058 9.49596C82.6747 9.54796 82.7593 9.57444 82.8454 9.57091C83.2091 9.52882 83.1531 9.27632 83.1624 9.07058C83.223 7.59764 80.7196 5.67113 78.7803 5.69451C79.1997 5.36627 79.7004 5.15887 80.2286 5.09461C80.7567 5.03035 81.2923 5.11165 81.7779 5.32978L82.0529 5.52617ZM76.6218 6.98508C77.4089 7.37931 78.1005 7.94144 78.6481 8.63207C79.1957 9.3227 79.5861 10.1251 79.7919 10.9831C79.7983 11.0451 79.8182 11.105 79.8502 11.1584C79.8822 11.2119 79.9256 11.2576 79.9772 11.2924C80.0288 11.3272 80.0874 11.3502 80.1488 11.3598C80.2102 11.3693 80.273 11.3653 80.3327 11.3478C80.673 11.273 80.6217 11.0111 80.5658 10.8054C80.3449 9.78486 79.8331 8.85074 79.0926 8.11667C78.7855 7.762 78.4059 7.47778 77.9796 7.28333C77.5532 7.08888 77.0902 6.98876 76.6218 6.98976V6.98508ZM77.9691 6.30707C78.7896 7.02249 79.4376 7.58829 80.0949 8.14473C80.8502 8.78067 80.8455 9.61299 81.0273 10.3892C81.0328 10.4408 81.0489 10.4907 81.0747 10.5357C81.1005 10.5807 81.1353 10.6199 81.1769 10.6506C81.2186 10.6814 81.2662 10.7032 81.3166 10.7145C81.3671 10.7259 81.4194 10.7266 81.4702 10.7165C81.7732 10.6791 81.7359 10.4734 81.7592 10.2957C81.9504 8.84613 80.025 6.69985 77.9645 6.31174L77.9691 6.30707ZM79.3677 11.6471C79.2562 11.2702 79.1721 10.8858 79.1159 10.4968C79.0414 9.45401 78.0857 8.86951 77.2512 8.21019C77.1723 8.1323 77.0722 8.07962 76.9635 8.05881C76.8548 8.03801 76.7424 8.05 76.6405 8.09329C76.4121 8.20084 76.5333 8.35047 76.6778 8.45335C77.1981 8.83925 77.6326 9.32957 77.9536 9.8931C78.2746 10.4566 78.4752 11.081 78.5425 11.7265C78.5432 11.7875 78.5579 11.8474 78.5854 11.9017C78.6129 11.956 78.6524 12.0033 78.701 12.0398C78.7487 12.0768 78.8038 12.1031 78.8626 12.1168C78.9213 12.1305 78.9823 12.1314 79.0414 12.1193C79.377 12.0866 79.4143 11.8621 79.3537 11.6517L79.3677 11.6471ZM92.1878 19.83C92.6734 20.1829 93.2298 20.4256 93.8183 20.541C94.4068 20.6565 95.0133 20.6421 95.5956 20.4987C96.0676 21.7029 96.7234 22.8261 97.5396 23.828C98.4673 24.8053 99.3008 25.8684 100.029 27.003C100.375 27.5457 100.799 28.0341 101.288 28.4526C100.72 28.4315 100.161 28.5956 99.6934 28.9202C98.8585 29.4673 98.0779 30.0936 97.3625 30.7906C97.1714 30.9729 97.0175 31.1226 96.8963 30.7625C97.0667 30.4835 97.1526 30.1608 97.1435 29.8337C97.1344 29.5066 97.0307 29.1892 96.845 28.9202C96.6166 28.4526 95.8427 28.2235 95.4931 27.7933C94.3326 25.8895 93.4148 23.8473 92.7612 21.7145C92.4518 21.1071 92.2499 20.4505 92.1645 19.7739L92.1878 19.83Z" fill="#F67464"/>
<path d="M48.1145 7.75369C49.1681 7.47313 48.8324 6.52858 49.4478 6.0376L52.0771 8.81514C52.0023 9.69886 51.7702 10.562 51.3918 11.3636C48.8806 17.3769 46.3585 23.3887 43.8256 29.3989C43.644 29.8935 43.341 30.3342 42.9445 30.6801C42.7758 29.9405 42.3775 29.2736 41.8071 28.7754C41.2366 28.2771 40.5233 27.9732 39.7698 27.9072L41.8163 22.8431C42.0508 22.5386 42.2105 22.183 42.2825 21.8051C43.5739 19.4109 44.7303 16.9459 45.7463 14.4217C45.8957 14.1151 45.9889 13.7841 46.0213 13.4444L46.3011 12.7617C46.9013 11.6918 47.4112 10.5735 47.8255 9.41834C48.0166 8.89931 48.6087 8.42235 48.1472 7.81915C48.1455 7.78833 48.1341 7.75884 48.1145 7.73498V7.75369Z" fill="#763103"/>
<path d="M41.8116 25.0965C41.1248 24.8004 40.3685 24.7048 39.6299 24.8206C39.7791 24.4605 40.3525 24.1706 39.8117 23.7264C39.6765 23.6189 40.0914 23.3289 40.441 23.2915C40.7907 23.2541 41.2242 23.1606 41.3734 23.5113C41.4609 23.6946 41.5915 23.8537 41.7539 23.9751C41.9163 24.0965 42.1057 24.1764 42.3058 24.208C42.2296 24.5396 42.0689 24.8457 41.8396 25.0965H41.8116ZM42.5575 19.2328C43.075 19.2328 43.2335 19.4105 43.2242 19.7004C43.2242 20.1352 42.8093 20.4252 42.2452 20.3784C41.8583 20.3457 41.145 20.1727 41.2662 19.7939C41.3874 19.4151 41.9655 19.2468 42.5575 19.2188V19.2328Z" fill="#C96332"/>
<path d="M34.4319 23.7307C33.6837 23.3473 33.0146 22.8254 32.4599 22.1923C32.3527 22.1035 32.0777 21.8603 32.4972 21.7481C32.735 21.6826 32.9634 21.7481 33.0007 21.9492C33.0753 22.2812 33.5695 22.2438 33.8305 22.4168C34.3993 22.7768 34.6976 23.179 34.4319 23.7401V23.7307Z" fill="#318202"/>
<path d="M48.1472 12.2266C48.6134 12.7456 48.0167 13.1618 47.8255 13.6013C46.6741 13.1711 46.6414 12.9981 47.6064 12.5165L48.1472 12.2266ZM46.3011 16.4677L46.0167 17.0569C45.762 17.0584 45.5082 17.0269 45.2615 16.9633C44.9165 16.809 44.7953 16.5565 45.103 16.3181C45.6112 15.9112 45.9282 16.3181 46.3011 16.4677Z" fill="#C96332"/>
<path d="M36.0822 23.8065C36.0258 23.9448 35.9296 24.0631 35.8059 24.1464C35.6822 24.2297 35.5366 24.2742 35.3876 24.2741C34.9494 24.3069 34.9587 24.0544 34.954 23.858C34.9494 23.6616 34.8795 23.3904 35.341 23.4231C35.4839 23.4336 35.6233 23.473 35.7507 23.5389C35.878 23.6048 35.9908 23.6958 36.0822 23.8065Z" fill="#F67464"/>
<path d="M43.1684 15.935C42.8094 15.935 42.6276 15.7854 42.5903 15.5562C42.553 15.3271 42.7814 15.1962 43.1311 15.2055C43.3968 15.2055 43.7371 15.2055 43.7418 15.4347C43.7464 15.6638 43.5693 15.8742 43.1684 15.935Z" fill="#C96332"/>
<path d="M29.4438 26.3533C29.0869 26.3752 28.7308 26.2998 28.4132 26.1352C28.0956 25.9705 27.8283 25.7227 27.6396 25.4181C27.9973 25.3904 28.3556 25.4632 28.6743 25.6284C28.993 25.7936 29.2594 26.0446 29.4438 26.3533ZM45.9468 14.5043C45.9418 14.553 45.9268 14.6002 45.9027 14.6429C45.8786 14.6855 45.846 14.7227 45.8069 14.7521C45.7676 14.7803 45.7229 14.8003 45.6756 14.8107C45.6283 14.8212 45.5795 14.8219 45.5319 14.8129C45.4025 14.8199 45.2742 14.785 45.166 14.7135C45.0577 14.642 44.9752 14.5375 44.9305 14.4155C44.9025 14.2705 45.0797 14.163 45.2802 14.1676C45.5925 14.1676 45.8676 14.2705 45.9468 14.5043Z" fill="#A55711"/>
<path d="M29.938 26.6496L29.234 26.5841L29.4391 26.355C29.7608 26.355 29.9053 26.4485 29.938 26.6496Z" fill="#A55711"/>
<path d="M94.64 32.3725C95.5493 32.1287 96.3486 31.5811 96.9056 30.82C97.0082 31.1848 97.162 31.0351 97.3718 30.8481C98.0863 30.1501 98.867 29.5236 99.7028 28.9777C100.17 28.6531 100.729 28.4891 101.297 28.5101C101.825 28.5612 102.345 28.6694 102.85 28.8327C103.917 29.3611 105.316 29.6417 105.828 30.6003C105.828 30.6283 106.029 30.6003 106.136 30.633L107.096 30.7031C107.096 30.8294 106.966 30.9931 107.045 31.0772C108.103 32.2462 106.994 33.0318 105.987 33.8267C105.19 34.4533 106.048 34.3691 106.546 34.4533C106.433 35.4342 106.534 36.4281 106.84 37.3664L106.56 38.0772C105.25 39.162 104.085 40.3217 102.64 41.3504C102.336 41.5833 101.978 41.7354 101.6 41.7926C101.222 41.8498 100.835 41.8103 100.477 41.6777C99.3059 41.4519 98.1228 41.2957 96.9336 41.2101C95.958 40.6215 94.8459 40.2991 93.7076 40.2749C93.4815 40.3021 93.2522 40.2771 93.0373 40.2017C92.8223 40.1264 92.6274 40.0026 92.4675 39.84C92.1599 39.4753 92.6773 39.2976 92.9664 39.0732C93.8288 38.4279 95.0875 38.1099 95.922 37.4459C96.239 37.1887 96.7938 37.0204 96.4861 36.5902L93.7076 35.6129L92.7752 35.0051C92.6858 34.9185 92.6206 34.8098 92.5862 34.69C92.5518 34.5702 92.5495 34.4434 92.5794 34.3224C93.3529 33.8122 94.0955 33.2563 94.8031 32.6577C95.0409 32.5034 94.9197 32.4099 94.6353 32.3725H94.64ZM102.616 39.9382C102.682 39.5735 102.388 39.3958 101.982 39.4098C101.381 39.4379 100.719 39.5361 100.63 40.0505C100.561 40.476 100.952 40.7098 101.563 40.7378C102.453 40.7752 102.388 40.2702 102.593 39.9382H102.616ZM103.316 32.6156C103.316 32.2228 103.036 32.0498 102.523 32.0732C102.01 32.0966 101.512 32.1854 101.563 32.653C101.609 33.0458 101.936 33.2656 102.523 33.2656C103.213 33.2656 103.26 32.9196 103.316 32.6156ZM97.7215 32.7091C97.2133 32.7933 96.9383 33.0178 96.9663 33.3685C96.9942 33.7192 97.3392 34.0091 97.8986 34.0137C98.5839 34.0137 98.6212 33.5976 98.6399 33.2936C98.6585 32.9897 98.2343 32.7699 97.7075 32.7091H97.7215ZM105.115 37.3851C105.013 37.0251 104.686 36.8614 104.183 36.8567C103.679 36.8521 103.381 36.9924 103.362 37.3243C103.344 37.6563 103.586 38.0491 104.234 38.0632C104.882 38.0772 104.877 37.6283 105.139 37.3664L105.115 37.3851ZM97.7494 38.5682C97.4557 38.6477 96.929 38.629 97.0455 38.9843C97.0678 39.1733 97.1624 39.3463 97.3094 39.4667C97.4564 39.5871 97.6443 39.6455 97.8334 39.6296C98.3695 39.6296 98.542 39.4145 98.5466 39.0872C98.5513 38.7599 98.3042 38.5775 97.7681 38.5682H97.7494Z" fill="#F1C24E"/>
<path d="M97.3952 20.1966C97.4697 20.0762 97.5682 19.9725 97.6845 19.892C97.8008 19.8115 97.9325 19.756 98.0712 19.729C98.0712 19.9347 98.2157 20.0891 98.5047 20.1265C99.0518 20.2478 99.5522 20.5255 99.9452 20.9261C101.128 21.9334 102.155 23.1104 102.994 24.419C103.19 24.6669 103.306 24.9614 103.843 24.9614C103.95 25.3495 103.176 25.4852 103.278 25.8686C102.733 26.0274 102.217 26.2772 101.754 26.6074H101.484C100.396 25.4287 99.4176 24.1531 98.5607 22.7965C98.0432 21.9782 97.1202 21.216 97.3952 20.22V20.1966Z" fill="#F67464"/>
<path d="M97.3905 20.1953C97.1201 21.1913 98.0385 21.9535 98.5653 22.7765C99.4226 24.1516 100.403 25.4459 101.493 26.6435C101.283 26.9474 101.493 27.1672 101.74 27.4291C102.133 27.8625 102.499 28.3201 102.836 28.7991C102.333 28.6358 101.814 28.5276 101.288 28.4765C100.799 28.0569 100.374 27.5687 100.024 27.0269C99.2988 25.8859 98.4668 24.8166 97.5397 23.8332C96.7191 22.8343 96.0629 21.7104 95.5957 20.5039L97.3905 20.1953Z" fill="#DE2614"/>
<path d="M101.763 26.6199C102.227 26.2906 102.742 26.0409 103.288 25.8811C103.633 25.8811 103.754 25.6519 104.02 25.535C104.465 25.333 104.953 25.2436 105.44 25.2745C105.928 25.3055 106.401 25.456 106.817 25.7127C107.702 26.2879 108.215 27.4896 107.8 27.9712C107.605 28.1863 107.437 28.1396 107.171 27.9993C106.024 27.3961 104.462 27.4475 103.278 26.8817C103.142 26.835 102.995 26.835 102.859 26.8817C102.038 27.7187 102.136 26.6386 101.745 26.6339L101.763 26.6199Z" fill="#7687B5"/>
<path d="M37.7092 28.6023C38.3003 28.1344 39.0356 27.888 39.7884 27.9056C40.542 27.9715 41.2553 28.2755 41.8257 28.7737C42.3962 29.272 42.7944 29.9388 42.9631 30.6784C43.3528 30.3303 43.6493 29.8898 43.8256 29.3972C46.343 23.3839 48.8588 17.3721 51.3731 11.3619C51.7516 10.5603 51.9837 9.6972 52.0584 8.81348C52.8842 8.92569 53.6556 9.2897 54.2682 9.85622C52.6785 12.9704 50.9443 16.0472 49.541 19.2082C48.3849 21.8127 46.8791 24.305 45.7136 26.9049C45.1365 28.5671 44.4593 30.1927 43.6857 31.7726C43.42 32.2402 42.7534 32.4132 42.6741 32.9276L40.4131 34.4379H40.1847C40.1196 34.4094 40.0503 34.392 39.9795 34.3865C39.4388 34.1059 38.7348 34.3865 38.2127 34.0405C37.6066 33.8347 37.7045 33.2409 37.2477 32.9556C37.3922 32.488 37.0239 32.2402 36.6836 31.9503C35.341 30.7907 35.3596 30.6831 36.7395 29.5375C37.0892 29.2476 37.6719 29.0699 37.7092 28.6023Z" fill="#F1C24E"/>
<path d="M69.7596 2.8659C69.7596 3.01553 69.7875 3.22595 69.6803 3.30077C69.5495 3.38451 69.4378 3.49506 69.3526 3.62517C69.2674 3.75527 69.2106 3.90199 69.186 4.05567C69.1613 4.20935 69.1694 4.36653 69.2096 4.51687C69.2498 4.66722 69.3212 4.80733 69.4193 4.92801C68.1233 5.23663 68.0906 6.16715 67.7969 6.96675C66.7099 7.10203 65.6083 7.06257 64.5336 6.84985C63.0745 6.23261 62.0815 7.2099 60.8321 7.19119C62.5337 7.12105 64.0488 8.15445 65.797 7.68685C65.9929 7.64417 66.1966 7.65507 66.3869 7.71841C66.5772 7.78175 66.747 7.8952 66.8785 8.0469V8.25264C66.7096 8.47365 66.6209 8.74578 66.6268 9.02418C64.1583 8.97774 61.6951 8.77627 59.2517 8.42098C57.4293 8.19646 55.6785 7.57225 54.1237 6.59267C53.1913 6.01284 53.2193 5.50784 54.0631 4.87658C54.7969 4.38804 55.6296 4.06865 56.5012 3.94138C60.8492 3.04045 65.2909 2.6777 69.7269 2.86122L69.7596 2.8659Z" fill="#FBEBA0"/>
<path d="M67.3121 8.02906C67.5366 8.0166 67.7596 7.98532 67.9788 7.93554C69.6104 7.37442 70.1233 7.62225 70.4682 9.16066C69.1936 9.22321 67.916 9.17314 66.6502 9.01102C66.6411 8.73217 66.7302 8.45902 66.9019 8.23948C67.0697 8.2161 67.2469 8.20208 67.3028 8.03842L67.3121 8.02906Z" fill="#7687B5"/>
<path d="M109.404 29.4258C109.923 29.8093 110.515 30.0815 111.143 30.2254C111.209 30.2749 111.285 30.3084 111.366 30.323C111.447 30.3376 111.53 30.333 111.609 30.3096C112.141 30.3968 112.682 30.4094 113.217 30.347C115.315 30.4639 116.192 30.0337 116.994 28.4766H117.865C117.249 29.0665 116.825 29.8292 116.649 30.6649C116.597 31.053 116.136 31.0063 115.782 30.8941C114.207 30.4387 112.529 30.5027 110.994 31.0764C110.053 31.4664 109.16 31.9638 108.332 32.5587C107.561 32.9843 106.93 33.6241 106.514 34.401C106.015 34.3169 105.157 34.401 105.954 33.7745C106.966 32.9795 108.071 32.1893 107.013 31.0203C106.938 30.9361 107.041 30.7772 107.064 30.6462C107.996 30.361 108.49 29.711 109.395 29.4024L109.404 29.4258Z" fill="#DE2614"/>
<path d="M81.7966 5.34895C81.3111 5.1317 80.7761 5.05045 80.2482 5.11385C79.7204 5.17725 79.2196 5.38292 78.799 5.709L75.8154 7.03699C75.1954 6.27948 73.8761 6.1579 73.34 5.32557C73.5383 5.30373 73.7259 5.2238 73.8793 5.09574C74.0326 4.96768 74.145 4.79717 74.2024 4.60547C74.4249 4.01065 74.8235 3.49832 75.3446 3.13721C77.4163 3.43284 79.4361 4.02 81.3444 4.88135C81.5588 5.03099 81.8106 5.09645 81.7826 5.34895H81.7966Z" fill="#FBEBA0"/>
<path d="M73.8294 0C73.9926 0.0514359 74.2956 0.154308 74.622 0.247828C74.9483 0.341348 75.5031 0.247828 75.4191 0.584499C75.3119 0.991311 74.7199 0.897791 74.3469 0.790243C73.8658 0.689674 73.3743 0.647288 72.8831 0.663991C72.608 0.663991 72.2817 0.607879 72.2724 0.360052C72.2631 0.112224 72.6313 0.144956 72.8784 0.112224C73.1255 0.0794919 73.4006 0.0420839 73.8108 0H73.8294ZM73.3539 5.32128C73.8947 6.15361 75.2187 6.25648 75.8294 7.02802C75.6616 7.69201 74.6266 7.54238 74.2956 8.04739C73.4425 7.11219 73.0463 7.11219 72.3749 8.04739C71.1815 7.99127 70.9764 7.11219 70.5102 6.54172C70.1286 6.09144 69.8928 5.53525 69.8342 4.9472C70.1373 4.66664 70.3331 4.9472 70.5568 5.03605C70.7899 5.59717 71.023 6.16296 71.2654 6.7194C71.3426 6.86052 71.4636 6.97251 71.61 7.03834C71.7564 7.10418 71.9202 7.12025 72.0766 7.08413C72.1428 7.08177 72.2079 7.06606 72.268 7.03794C72.3281 7.00983 72.3819 6.96988 72.4262 6.92047C72.4708 6.87083 72.5043 6.81217 72.5244 6.74845C72.5445 6.68473 72.5508 6.61742 72.5428 6.55107C72.5707 6.08347 72.608 5.61587 72.6407 5.14827C72.8924 5.12141 73.1451 5.18978 73.3493 5.33999L73.3539 5.32128Z" fill="#7687B5"/>
<path d="M66.2492 39.6574C66.0768 41.1584 67.5126 41.4811 69.3121 41.8318C72.2705 42.5079 75.2899 42.8792 78.3235 42.94C78.5807 42.9532 78.8364 42.9876 79.088 43.0428L79.0181 43.3655H78.9668L71.699 43.5432C71.6666 43.5187 71.6323 43.4968 71.5964 43.4777C71.1704 43.3428 70.7197 43.3044 70.2771 43.3655C69.564 43.4351 68.8445 43.3989 68.142 43.2579C67.9193 43.1247 67.6569 43.0747 67.401 43.1166C67.1451 43.1585 66.9122 43.2897 66.7434 43.4871L66.5616 43.646C65.2982 43.6881 64.2307 44.2165 62.9813 44.268H61.3962C60.3586 44.3604 59.316 44.1561 58.3893 43.6788L58.1702 43.6086L57.9092 43.4917L56.9768 43.4497C56.1656 42.8137 56.0444 42.262 56.8463 41.9627C57.6481 41.6634 58.0956 41.1818 58.7996 40.8638C59.6404 40.722 60.4649 40.4965 61.2611 40.1905C62.8774 39.7737 64.5435 39.5833 66.212 39.6247L66.2492 39.6574Z" fill="#94F220"/>
<path d="M40.4084 35.0381L42.6927 33.7476L42.8699 33.9767C42.7021 34.2946 43.0657 34.3882 43.3734 34.477C43.9405 34.6387 44.4479 34.9639 44.8325 35.4122C45.5691 36.2212 46.2311 37.0582 46.935 37.8858C47.0072 38.0242 47.1069 38.1462 47.228 38.2443C47.3491 38.3424 47.489 38.4146 47.639 38.4563C47.3499 38.9239 46.5994 38.6994 46.0866 38.9239C44.9817 39.3915 43.7044 39.7328 42.5016 40.1209C41.5137 39.185 40.4554 38.3268 39.3362 37.5538C38.7581 37.1517 37.8397 37.0862 37.4388 36.5345L37.7139 36.3334L37.8724 36.2305L37.9563 36.0809C38.8094 36.2112 39.6132 36.5644 40.2872 37.1049C41.131 37.7596 41.9841 38.4142 42.8279 39.0735C42.9508 39.2181 43.1115 39.3253 43.2919 39.3832C43.4723 39.441 43.6652 39.4471 43.8489 39.4008C42.7073 37.6571 41.0221 36.3416 39.0565 35.66L39.9609 34.996C40.0308 35.001 40.0998 35.0152 40.166 35.0381C40.0308 35.3374 40.3665 35.3795 40.6322 35.4449C41.8961 35.7097 43.0408 36.3773 43.8955 37.3481C44.3028 37.8881 44.8091 38.3452 45.3873 38.6948C45.2717 38.1774 45.051 37.6894 44.739 37.2614C44.4269 36.8334 44.0303 36.4745 43.5738 36.2071C42.7049 35.4269 41.5745 35.0044 40.4084 35.0241V35.0381ZM34.968 37.666C35.4401 37.5626 35.8941 37.3892 36.3153 37.1517C36.8883 37.2024 37.4427 37.3813 37.9376 37.6754C39.338 38.504 40.6515 39.4722 41.8583 40.5652C41.6968 40.8019 41.485 40.9998 41.2381 41.1445C40.9912 41.2893 40.7154 41.3774 40.4305 41.4024C40.1456 41.4275 39.8587 41.3889 39.5905 41.2894C39.3223 41.1899 39.0794 41.032 38.8793 40.827C38.2454 40.4031 37.546 40.0871 36.8095 39.8918C35.5927 39.5131 34.5764 39.0548 35.1545 37.9653C35.1918 37.8952 35.0473 37.7829 34.9867 37.6894L34.968 37.666ZM55.8765 42.2111C53.5612 43.0189 51.0612 43.1311 48.6832 42.5338C46.7036 42.2205 44.7085 42.0145 42.7067 41.9165C44.1972 41.4234 45.7773 41.2638 47.336 41.4489C48.9974 41.7954 50.688 41.9817 52.3848 42.0054C53.0626 42.0652 53.7452 41.9729 54.3831 41.7351C55.0209 41.4973 55.598 41.12 56.0723 40.6306C56.8035 39.9533 57.4961 39.2352 58.1468 38.4797C58.3892 39.4149 57.6806 40.2051 57.3776 41.0374C57.0513 41.505 56.2961 41.7622 55.8765 42.1971V42.2111Z" fill="#F67464"/>
<path d="M43.1869 33.9231C43.8582 33.5491 44.4689 33.1329 45.1869 32.7869C45.4387 32.627 45.7392 32.5628 46.0341 32.6056C46.329 32.6485 46.599 32.7957 46.7952 33.0207C47.928 34.0821 49.0329 35.1576 50.1471 36.2237C50.1471 36.5697 50.1797 36.9345 49.6389 37.1589C49.3619 36.4181 48.9329 35.744 48.3796 35.1801C47.8262 34.6162 47.161 34.1753 46.4269 33.8857C47.5952 34.8743 48.669 35.9701 49.6343 37.1589L47.7975 38.4027C47.8907 37.2057 46.7905 36.3313 45.9934 35.382C45.2855 34.5495 44.2822 34.0262 43.1962 33.9231H43.1869ZM17.5606 36.0741C17.5233 35.9291 17.5326 35.7701 17.3415 35.6532C14.26 33.7828 13.8125 32.1369 15.6679 29.6165C15.7036 29.5465 15.7258 29.4704 15.7332 29.3921C16.1341 29.5978 16.1574 29.6025 16.0129 29.9018C15.6385 30.5904 15.4414 31.3619 15.4395 32.1462C15.5141 33.6753 16.5723 34.7461 18.5349 35.4802C19.4939 35.7067 20.3986 36.1215 21.1969 36.7007C19.9475 36.5978 18.838 36.1115 17.5606 36.0601V36.0741Z" fill="#F67464"/>
<path d="M53.2752 38.5902C52.7601 39.0774 52.2049 39.52 51.6156 39.9135C51.0282 40.2596 51.3592 40.3811 51.7555 40.5308C51.265 40.5299 50.7748 40.5549 50.287 40.6056C50.0326 40.6796 49.763 40.6831 49.5069 40.6156C49.2507 40.548 49.0177 40.4121 48.8325 40.2222C48.5854 39.8808 48.674 39.46 49.2241 39.1934C49.5178 39.0532 49.6437 38.7258 50.1098 38.7773C49.9039 38.9784 49.7181 39.1992 49.5551 39.4366C49.4525 39.619 48.8978 39.7686 49.308 40.0024C49.4917 40.0872 49.6924 40.1284 49.8945 40.1227C50.0967 40.117 50.2948 40.0647 50.4735 39.9697C51.1914 39.6657 51.4058 39.1093 51.872 38.7025C52.022 38.556 52.1621 38.3998 52.2916 38.2349C52.3382 38.7025 52.7298 38.7025 53.2566 38.5715L53.2752 38.5902Z" fill="#C96332"/>
<path d="M55.8765 42.2092C56.2914 41.7743 57.0467 41.5358 57.3823 41.0495C57.8565 40.9423 58.3414 40.8905 58.8275 40.8952C58.1189 41.2132 57.6341 41.6995 56.8695 41.9941C56.105 42.2887 56.1889 42.8498 57.0047 43.4811C56.3474 43.4811 56.1656 43.3641 56.0723 42.9386C56.0257 42.6955 56.1143 42.4336 55.8625 42.2092H55.8765ZM69.3913 38.7162C68.8319 39.5439 67.5778 39.3802 66.5942 39.6093C66.9718 39.2719 67.4161 39.018 67.898 38.8642C68.3799 38.7103 68.8887 38.6599 69.3913 38.7162Z" fill="#A55711"/>
<path d="M53.3452 39.9286C53.6785 39.3004 54.1187 38.7355 54.6459 38.2593C54.9536 39.3348 54.9023 39.4049 53.3452 39.9286Z" fill="#C96332"/>
<path d="M20.2599 28.8461C19.2809 28.7012 19.3742 28.2757 19.4161 27.8735L20.2599 28.8461Z" fill="#F67464"/>
<path d="M51.7974 40.5638C52.3185 40.6111 52.8373 40.4516 53.2426 40.1196C53.4011 40.5872 52.9489 40.7602 52.4501 40.8678C52.1517 40.9286 51.7415 40.9286 51.7974 40.5638Z" fill="#C96332"/>
<path d="M21.1969 36.7153L21.458 36.7807C21.43 36.7807 21.388 36.8088 21.3741 36.7807C21.3601 36.7527 21.2622 36.72 21.2062 36.6919L21.1969 36.7153Z" fill="#F67464"/>
<path d="M116.677 33.0457C116.496 33.7014 116.156 34.3022 115.688 34.7945C115.325 35.1967 115.506 35.3229 116.154 35.3463C117.27 35.3962 118.383 35.4928 119.492 35.6362C118.383 35.941 117.239 36.0982 116.089 36.1038C115.339 36.1412 115.087 36.3096 115.245 36.8146C115.348 37.2404 115.418 37.6734 115.455 38.1098C114.733 37.8152 114.77 37.343 114.523 36.9736C114.057 36.2628 113.758 36.2348 113.082 36.8426C112.742 37.1419 112.43 37.4552 112.024 37.8386C111.651 37.2775 112.206 36.9315 112.383 36.5714C112.639 36.1038 112.649 35.7672 111.88 35.5053C111.241 35.2902 110.677 34.9722 109.959 34.6449C110.565 34.5234 111.191 34.5377 111.791 34.687C112.812 34.8039 112.984 34.5514 112.784 33.9482C112.573 33.5244 112.509 33.0424 112.602 32.5781C113.099 32.8942 113.528 33.3058 113.866 33.7892C114.238 34.2288 114.546 34.4485 115.175 33.9435C115.656 33.603 116.156 33.2908 116.672 33.0083L116.677 33.0457Z" fill="#FBEBA0"/>
<path d="M106.546 38.0447L106.826 37.334C107.486 37.6044 108.028 38.1017 108.355 38.7368C107.698 38.5825 107.423 37.9793 106.546 38.0681V38.0447Z" fill="#A55711"/>
<path d="M92.7753 35.0102L93.7077 35.6134C93.5815 35.6503 93.4596 35.7004 93.344 35.763C93.5005 36.6543 93.4397 37.5704 93.1669 38.433C94.2998 37.9032 95.3908 37.2873 96.4302 36.5907C96.7379 37.0255 96.1831 37.1939 95.8661 37.4464C95.0316 38.1197 93.7776 38.4377 92.9105 39.0783C92.6214 39.2934 92.104 39.4758 92.4163 39.8452C92.5755 40.0074 92.7696 40.1309 92.9837 40.2063C93.1979 40.2817 93.4264 40.3069 93.6517 40.28C94.7856 40.2835 95.8991 40.5833 96.8824 41.1498C95.5258 40.9253 94.1132 40.9113 92.7799 40.6027L91.9268 40.5653C91.2744 39.9435 90.5053 39.4579 89.6642 39.1368C88.823 38.8157 87.9267 38.6655 87.0272 38.6949C86.634 38.7042 86.2452 38.6107 85.899 38.4237C85.6099 37.6215 85.4616 36.775 85.4608 35.922C86.202 35.6321 86.1135 34.9868 86.7615 34.6268C87.3045 34.265 87.9218 34.0309 88.5676 33.9419C89.2133 33.8528 89.8708 33.9111 90.491 34.1124C91.1099 34.6937 91.9274 35.015 92.7753 35.0102ZM96.6353 42.0756C92.5331 43.494 88.2515 44.3236 83.9177 44.5399C84.5657 44.1471 84.6916 44.1003 86.92 43.7636C88.0342 43.5953 89.1717 43.4971 90.2719 43.296C91.3165 43.1148 92.343 42.8409 93.3394 42.4777C94.3728 42.015 95.5198 41.8702 96.6353 42.0616V42.0756Z" fill="#F67464"/>
<path d="M91.9361 40.564L92.8172 40.6201C92.8498 40.9193 92.7566 41.2139 92.9943 41.5085C93.3812 41.9761 93.0409 42.3876 92.2111 42.4437C91.5025 42.4905 90.7846 42.4437 90.0667 42.4437C90.2252 41.9761 90.7892 42.1865 91.1855 42.1678C92.4768 42.1164 92.6447 41.9527 92.0619 41.1578C92.0013 41.0729 91.9587 40.9763 91.9371 40.8741C91.9154 40.7719 91.9151 40.6663 91.9361 40.564Z" fill="#A55711"/>
<path d="M71.7083 43.5609L78.9762 43.3691C78.9202 43.804 78.4121 43.631 78.0997 43.6357H71.7083C71.699 43.602 71.699 43.5665 71.7083 43.5328V43.5609Z" fill="#318202"/>
<path d="M71.7083 43.5618C71.6988 43.5938 71.6988 43.6279 71.7083 43.66H66.5802L66.762 43.501H71.6104C71.6488 43.5199 71.6848 43.5435 71.7176 43.5711L71.7083 43.5618Z" fill="#A55711"/>
<path d="M79.0273 43.3704L79.0973 43.0478C79.666 43.174 80.4212 42.7906 80.8222 43.347L79.0273 43.3704Z" fill="#8CA322"/>
<path d="M53.2752 38.5904C52.7484 38.7307 52.3428 38.698 52.3055 38.2397C52.5386 37.571 53.0095 36.9304 52.8976 36.2103C53.499 36.3646 54.4267 35.9064 54.7251 36.6452C54.0164 37.2157 53.9931 38.0199 53.2752 38.5904Z" fill="#DE2614"/>
<path d="M94.6399 32.373C94.9243 32.4105 95.0455 32.504 94.7984 32.663C94.0908 33.2616 93.3482 33.8174 92.5747 34.3276L92.4209 34.206C92.3603 33.5841 91.4885 33.1212 91.6237 32.4619C92.1593 32.5561 92.7056 32.5734 93.246 32.5133C93.7159 32.6039 94.2019 32.5552 94.6446 32.373H94.6399Z" fill="#763103"/>
<path d="M83.4515 32.8861C83.4749 32.6009 83.4515 32.2782 83.8245 32.339C84.5051 32.4465 84.5751 32.9235 84.7242 33.3069C84.7895 33.4706 84.7848 33.7745 84.4399 33.7184C83.694 33.6529 83.6427 33.19 83.4515 32.8861ZM86.7755 34.6396C86.1275 34.9716 86.216 35.6449 85.4748 35.9348C85.0086 35.7338 84.8734 35.4298 85.1391 35.1352C85.3405 34.9102 85.5996 34.745 85.8881 34.6576C86.1767 34.5702 86.4836 34.564 86.7755 34.6396ZM81.736 35.4953C81.3397 35.3877 80.7337 35.6262 80.6917 35.196C80.6591 34.8734 81.0507 34.7284 81.5355 34.7284C82.0204 34.7284 82.6031 34.8313 82.5938 35.2334C82.5844 35.6356 81.9691 35.3363 81.736 35.4859V35.4953ZM90.2392 33.1152C90.0934 33.2885 89.9102 33.4261 89.7034 33.5177C89.4966 33.6092 89.2717 33.6523 89.0458 33.6436C88.8174 33.6436 88.4864 33.5594 88.6122 33.4004C88.7622 33.198 88.9578 33.034 89.1831 32.9219C89.4083 32.8097 89.6568 32.7526 89.9082 32.7552C90.1833 32.7552 90.2765 32.9048 90.2625 33.1152H90.2392Z" fill="#A55711"/>
<path d="M92.4349 34.206L92.5888 34.3275C92.5588 34.4485 92.5612 34.5753 92.5955 34.6952C92.6299 34.815 92.6951 34.9237 92.7846 35.0102C91.9472 35.0146 91.1392 34.7005 90.5236 34.1311C91.1762 33.9722 91.7589 34.6502 92.4349 34.206Z" fill="#C96332"/>
<path d="M72.3796 8.04759C73.0462 7.11239 73.4425 7.11239 74.2956 8.04759L73.0975 8.76769C72.6313 8.66482 72.2444 8.51519 72.3796 8.04291V8.04759Z" fill="#FBEBA0"/>
<path d="M33.1033 36.5242C30.8115 36.6464 28.55 35.9543 26.7165 34.5696C26.3902 34.3358 26.2504 34.102 26.7165 33.8682C27.9706 33.2349 29.3717 32.9522 30.7724 33.0499C31.8164 33.0642 32.8547 33.2087 33.8632 33.4801C35.0613 33.8682 35.1079 34.4481 35.0193 35.1495C35.0193 35.3038 34.968 35.4581 34.9447 35.617L33.1033 36.5242ZM28.7957 28.8322C29.8213 28.8322 30.847 28.7901 31.8726 28.8322C33.0893 28.8322 33.6114 29.2624 33.6021 30.1087C33.5928 30.9551 33.0613 31.2918 31.8726 31.3151C29.9609 31.5663 28.0171 31.3547 26.2037 30.6979L26.241 29.4307C26.6839 29.3185 27.3832 29.6832 27.5697 29.1034C27.7762 29.1578 27.9926 29.1629 28.2015 29.1182C28.4104 29.0736 28.6059 28.9804 28.7724 28.8462L28.7957 28.8322Z" fill="#F1C24E"/>
<path d="M37.7092 30.0423C37.6486 30.4538 37.0892 30.6034 36.7395 30.8512C35.341 31.8332 35.341 31.9361 36.6836 32.918C37.0193 33.1705 37.3875 33.3856 37.2477 33.7784C36.4338 33.3246 35.5966 32.9141 34.7396 32.5486C34.5858 32.5019 34.3154 32.4083 34.4925 32.2774C35.5088 31.5339 35.8072 30.3556 37.4715 30.0049L37.7092 30.0423Z" fill="#FBEBA0"/>
<path d="M39.0798 35.6681C38.7395 35.6119 38.4924 35.8972 38.1475 35.785V34.99C38.1574 34.9813 38.1653 34.9705 38.1708 34.9584C38.1762 34.9463 38.179 34.9332 38.179 34.9199C38.179 34.9066 38.1762 34.8935 38.1708 34.8814C38.1653 34.8693 38.1574 34.8585 38.1475 34.8498C38.1825 34.8076 38.2108 34.7603 38.2314 34.7095C38.7535 34.9947 39.4574 34.7703 39.9982 35.0041L39.0798 35.6681Z" fill="#DE2614"/>
<path d="M26.241 29.4311L26.2037 30.6936C25.7002 30.6328 25.3366 30.4317 25.332 30.0904C25.3273 29.749 25.7049 29.5059 26.2643 29.4311H26.241ZM33.1033 36.5246L34.968 35.5894C34.9401 36.431 34.0683 36.5246 33.1033 36.5246ZM27.5743 29.0944C27.3925 29.6742 26.6839 29.3095 26.241 29.4217C26.4694 28.9214 27.1128 29.1832 27.5743 29.0944ZM28.7957 28.8325C28.629 28.9663 28.4333 29.0588 28.2244 29.1027C28.0154 29.1465 27.7991 29.1405 27.593 29.085C27.8214 28.6174 28.3668 28.8606 28.7957 28.8325Z" fill="#FBEBA0"/>
<path d="M38.1288 34.8511C38.1387 34.8599 38.1467 34.8707 38.1523 34.8828C38.1579 34.8948 38.161 34.9079 38.1615 34.9212C38.1596 34.9478 38.148 34.9728 38.1288 34.9914L38.0449 34.8838L38.1288 34.8511Z" fill="#F1C24E"/>
<path d="M39.0053 28.7211C38.6417 28.7211 38.679 28.5247 38.6696 28.361C38.6603 28.1974 38.8002 27.9589 39.1358 27.9309C39.4715 27.9028 39.602 28.0852 39.6347 28.2628C39.6347 28.52 39.4016 28.6697 38.9867 28.7304L39.0053 28.7211ZM38.8421 25.3076C39.1498 25.3778 39.4948 25.4058 39.4948 25.6723C39.4948 25.8313 39.3503 25.9716 39.0799 25.9856C38.7116 25.9856 38.5065 25.8594 38.4692 25.6256C38.4459 25.4619 38.6044 25.3544 38.8421 25.3076Z" fill="#F67464"/>
<path d="M96.472 36.5901C95.4325 37.2865 94.3416 37.9024 93.2087 38.4324C93.4828 37.5685 93.5452 36.651 93.3906 35.7577C93.5045 35.6964 93.6249 35.6477 93.7495 35.6128L96.472 36.5901Z" fill="#DE2614"/>
<path d="M102.63 39.9426C102.421 40.2652 102.481 40.7796 101.591 40.7422C100.962 40.7141 100.575 40.4803 100.658 40.0548C100.742 39.5404 101.404 39.4422 102.006 39.4142C102.416 39.4142 102.71 39.5778 102.644 39.9426H102.63ZM103.316 32.6153C103.255 32.9192 103.213 33.2746 102.523 33.2699C101.931 33.2699 101.591 33.0501 101.563 32.6574C101.507 32.1898 102.029 32.1149 102.523 32.0775C103.017 32.0401 103.311 32.2225 103.316 32.6153ZM97.7355 32.7228C98.239 32.7789 98.6679 32.9426 98.6352 33.298C98.6026 33.6533 98.5746 34.0181 97.9033 34.0181C97.3626 34.0181 97.0129 33.7515 96.971 33.3728C96.929 32.994 97.2274 32.8023 97.7355 32.7181V32.7228ZM105.139 37.3895C104.877 37.6513 104.887 38.0955 104.234 38.0862C103.581 38.0768 103.344 37.7589 103.362 37.3474C103.381 36.9359 103.693 36.8798 104.183 36.8798C104.672 36.8798 105.031 37.0481 105.139 37.4082V37.3895ZM97.7635 38.5725C98.3042 38.5725 98.5513 38.7502 98.5513 39.0962C98.5513 39.4422 98.3695 39.6293 97.8381 39.6293C97.6506 39.6391 97.4662 39.5776 97.3219 39.4572C97.1776 39.3367 97.0839 39.166 97.0595 38.9793C96.9476 38.6239 97.4744 38.6426 97.7635 38.5631V38.5725Z" fill="#C96332"/>
<path d="M71.6057 43.4918H66.7573C66.9256 43.2936 67.1586 43.1618 67.4147 43.1198C67.6708 43.0779 67.9335 43.1285 68.1559 43.2626C68.8587 43.402 69.5781 43.4367 70.291 43.3655C70.7338 43.3091 71.1834 43.3473 71.6103 43.4777L71.6057 43.4918Z" fill="#F1C24E"/>
<path d="M122.066 36.2392C120.732 37.0108 119.562 38.0348 118.178 38.7082C116.535 39.4817 114.844 40.1471 113.115 40.7001C112.989 40.7422 113.246 41.5371 113.227 41.6681C109.73 65.006 91.8429 84.9865 69.1536 88.5356C70.4216 88.6353 71.6958 88.6836 72.9763 88.6805C102.924 88.6805 124.606 61.9712 125.245 32.5686C125.25 32.3722 124.01 35.1217 122.066 36.2392ZM122.891 34.6354L123.879 33.5272L122.891 34.6354Z" fill="#FCBD4C"/>
<path d="M109.987 116.05L102.099 88.4471C102.099 88.3723 102.024 88.3022 102.024 88.2367C102.024 88.1712 101.95 88.0917 101.95 88.0169L101.884 87.9515C101.81 87.8813 101.81 87.741 101.745 87.6662C101.669 87.5899 101.618 87.4919 101.6 87.3857L101.386 87.1706L101.176 86.9555C101.106 86.8853 101.036 86.8105 100.966 86.8105C100.931 86.769 100.887 86.7351 100.838 86.711C100.789 86.6869 100.736 86.673 100.682 86.6702C100.607 86.6001 100.537 86.6001 100.397 86.53C100.327 86.4598 100.253 86.4598 100.113 86.3897C100.038 86.3897 99.8939 86.3149 99.8286 86.3149C99.7633 86.3149 99.6142 86.2447 99.5442 86.2447H98.6911C98.5926 86.235 98.4938 86.2598 98.4114 86.3149H98.3695C98.2949 86.3149 98.2249 86.3897 98.155 86.3897C98.1163 86.3842 98.0768 86.3877 98.0397 86.3998C98.0025 86.412 97.9686 86.4325 97.9406 86.4598C95.3122 87.6211 92.6158 88.6205 89.8662 89.4525L89.745 89.4899L97.3159 116.05C97.3703 116.243 97.4047 116.442 97.4184 116.643C97.4638 117.346 97.2672 118.043 96.8616 118.617C96.4559 119.192 95.8658 119.609 95.1901 119.8C94.9122 119.881 94.6259 119.929 94.3369 119.945H107.017C107.306 119.929 107.592 119.881 107.87 119.8C108.643 119.578 109.298 119.061 109.694 118.359C110.09 117.658 110.195 116.828 109.987 116.05Z" fill="#0FB2B2"/>
<path d="M25.8961 54.8908C28.8984 54.8908 28.903 50.2148 25.8961 50.2148C22.8892 50.2148 22.8939 54.8908 25.8961 54.8908ZM27.2294 61.2128C29.4247 64.5153 32.2058 67.3857 35.4343 69.681C36.4692 70.4198 38.0217 69.854 38.623 68.8393C39.3223 67.675 38.8095 66.3704 37.7886 65.6409C35.2222 63.7935 33.0109 61.4947 31.2619 58.8561C29.6023 56.3638 25.5651 58.7018 27.2388 61.1941L27.2294 61.2128Z" fill="white"/>
</svg>
