<svg width="132" height="116" viewBox="0 0 132 116" fill="none" xmlns="http://www.w3.org/2000/svg">
<path d="M132 59.5919C132 90.7469 102.435 116 66 116C29.5651 116.036 0 90.7469 0 59.5919C0 28.4368 29.5651 3.18359 66 3.18359C102.471 3.18359 132 28.4368 132 59.5919Z" fill="#BF6B1A"/>
<path d="M108.082 95.0393C107.938 95.1823 107.794 95.3254 107.65 95.4327C100.097 114.605 56.6485 116.501 27.6948 105.52C38.485 112.137 51.721 116 66 116C102.471 116 132 90.7469 132 59.5918C132 28.4368 102.471 3.18359 66 3.18359C29.5651 3.18359 0 28.4368 0 59.5918C0 61.4161 0.107902 63.2045 0.323706 64.993C7.62507 76.5107 17.1564 86.3473 29.4932 93.2508C47.6207 103.695 69.5608 103.695 90.5657 98.9381C95.3493 98.0081 100.097 98.0081 104.881 97.0423C105.564 96.3627 106.715 96.1481 107.686 95.397C107.758 95.3254 107.83 95.2181 107.938 95.1108L108.082 95.0393Z" fill="#A95A0F"/>
<path d="M132 49.3259C132 76.5464 102.795 98.6518 66.7913 98.6518C30.7881 98.6161 1.61859 76.5464 1.61859 49.3259C1.61859 22.0697 30.7881 0 66.7913 0C102.831 0 132 22.0697 132 49.3259Z" fill="#E69449"/>
<path opacity="0.6" d="M124.231 25.9326C126.173 30.6184 127.252 35.5903 127.252 40.7411C127.252 67.9616 98.0468 90.0671 62.0435 90.0671C37.2261 90.0671 15.6098 79.5866 4.60376 64.1343C12.9122 84.1293 37.6217 98.6159 66.7912 98.6159C102.83 98.6159 132 76.5462 132 49.3258C132 40.8484 129.194 32.9076 124.231 25.9326Z" fill="#B56023"/>
<path d="M46.182 76.4388C43.8441 76.4388 42.0817 75.2584 41.1825 74.4357C39.2043 72.7188 37.9815 70.1434 37.9815 67.8541C37.9815 67.6037 37.9815 67.3534 38.0174 67.1387C38.0894 66.5664 38.1253 65.9941 38.1253 65.4218C38.1253 59.4841 34.4567 54.2975 30.5362 51.9725C28.2343 49.5402 27.515 47.1794 27.515 45.2121C27.515 42.601 28.7379 40.7052 28.9537 40.3833L29.0616 40.2402L29.1695 40.0613C30.6801 36.9136 34.6365 35.2683 39.2043 33.3367L43.0888 31.6556C50.7858 28.1144 53.1597 21.8548 54.4545 16.239C54.7422 15.0228 56.4327 14.379 57.4038 14.1286C58.5188 13.8067 59.8136 13.6636 61.1084 13.6636C65.1727 13.6636 69.7046 15.0228 71.7188 17.0974C75.5673 21.1394 79.9193 23.1067 85.0986 23.1067C87.0409 23.1067 89.055 22.8205 91.249 22.284C92.0043 22.1051 92.8316 21.9978 93.6229 21.9978C95.9967 21.9978 98.4425 22.8205 100.241 24.2871C101.68 25.4675 103.334 27.5778 103.118 31.0475C102.723 38.1298 105.132 42.1717 107.254 45.7129C107.938 46.8575 108.585 47.9306 109.089 49.0395C109.736 50.4702 109.448 52.4375 108.369 54.1902C107.65 55.2991 105.564 57.946 101.392 58.0891C95.709 58.2679 88.5515 61.1653 86.6452 73.9349C86.4294 75.4015 85.6022 76.403 84.0196 77.0111C82.9406 77.4403 81.5738 77.6549 80.0992 77.6549C76.4665 77.6549 72.1144 76.403 69.3809 74.2926C67.043 72.5041 64.7771 71.8603 62.5471 71.8603C59.5618 71.8603 56.6845 73.0407 53.843 74.1853C51.9727 74.9365 50.0305 75.7234 47.9804 76.2599C47.333 76.3672 46.7575 76.4388 46.182 76.4388ZM61.2163 8.90625C59.382 8.90625 57.6556 9.12087 56.145 9.51433C52.6921 10.4443 50.4261 12.4474 49.8147 15.1301C48.5558 20.6386 46.5776 24.7878 41.0746 27.3275L37.334 28.9371C32.1548 31.0832 27.2992 33.1221 24.9613 37.7721C23.8463 39.346 22.7313 42.0644 22.7313 45.2121C22.7313 48.3598 23.8463 51.9725 27.1913 55.4064L27.443 55.6568L27.7667 55.8356C30.1766 57.1233 33.3057 60.8076 33.3057 65.3503C33.3057 65.7437 33.2697 66.1372 33.2338 66.5307C33.1978 66.9599 33.1618 67.3891 33.1618 67.8184C33.1618 71.4668 34.9602 75.3299 37.9815 77.9769C40.3553 80.0515 43.1608 81.1603 46.1101 81.1603C47.1172 81.1603 48.0883 81.053 49.0954 80.8026C51.5052 80.1945 53.6632 79.3003 55.6054 78.5134C58.4469 77.333 60.5689 76.5461 62.4752 76.5461C63.8419 76.5461 65.1008 76.9753 66.4316 77.9769C69.7046 80.4807 75.0278 82.3407 80.0272 82.3407C82.0414 82.3407 84.0196 82.0188 85.746 81.3392C88.8392 80.0872 90.8174 77.6907 91.285 74.543C92.7956 64.2057 97.7951 62.8822 101.428 62.7749C105.924 62.6318 109.988 60.3426 112.29 56.6583C114.268 53.5464 114.628 49.9695 113.333 47.0721C112.722 45.7129 111.966 44.4967 111.283 43.2806C109.341 39.9898 107.506 36.9136 107.794 31.2979C108.046 27.0413 106.391 23.2498 103.19 20.6386C100.529 18.4567 97.0398 17.2763 93.5869 17.2763C92.4 17.2763 91.1771 17.4194 90.0261 17.7055C88.2278 18.1347 86.5733 18.3851 85.0627 18.3851C81.1782 18.3851 78.049 16.9186 75.0997 13.8424C72.0065 10.5159 66.2877 8.90625 61.2163 8.90625Z" fill="#551F0B"/>
<path d="M13.344 84.5228C13.344 84.5228 10.7184 83.9863 10.5745 87.0267C10.4306 90.0671 15.1423 96.6844 21.5445 98.3656C27.9467 100.011 25.429 93.2506 22.2279 90.2102C19.0628 87.134 13.344 84.5228 13.344 84.5228Z" fill="#E18226"/>
<path d="M50.0305 103.016C50.0305 103.016 45.1749 101.513 44.4915 103.552C43.8081 105.627 46.2899 107.844 50.1744 107.558C54.0588 107.308 55.1378 104.554 50.0305 103.016Z" fill="#E18226"/>
<path d="M46.4338 36.6272C46.4338 36.6272 42.6572 46.7499 45.0311 52.6161C47.4049 58.4823 53.0518 65.5288 62.5112 65.5288C71.9706 65.5288 77.8692 63.4184 80.243 61.7731C82.6169 60.1277 87.5804 57.0873 89.2349 54.2615C90.8894 51.4357 92.1842 51.2569 92.4719 45.6053C92.7597 39.9538 92.2921 35.2322 88.0479 31.9414C83.7678 28.6149 46.4338 36.6272 46.4338 36.6272Z" fill="#5F1D0A"/>
<path d="M36.1471 45.3554C36.6835 45.3554 37.1183 44.923 37.1183 44.3896C37.1183 43.8562 36.6835 43.4238 36.1471 43.4238C35.6108 43.4238 35.176 43.8562 35.176 44.3896C35.176 44.923 35.6108 45.3554 36.1471 45.3554Z" fill="#FFEBC9"/>
<path d="M38.521 35.8406C39.3155 35.8406 39.9597 35.2 39.9597 34.4098C39.9597 33.6196 39.3155 32.979 38.521 32.979C37.7264 32.979 37.0823 33.6196 37.0823 34.4098C37.0823 35.2 37.7264 35.8406 38.521 35.8406Z" fill="#FFEBC9"/>
<path d="M25.177 37.272C26.2298 37.272 27.0833 36.4233 27.0833 35.3762C27.0833 34.3292 26.2298 33.4805 25.177 33.4805C24.1242 33.4805 23.2708 34.3292 23.2708 35.3762C23.2708 36.4233 24.1242 37.272 25.177 37.272Z" fill="#FFEBC9"/>
<path d="M19.9259 49.1472C20.7204 49.1472 21.3646 48.5066 21.3646 47.7164C21.3646 46.9262 20.7204 46.2856 19.9259 46.2856C19.1313 46.2856 18.4872 46.9262 18.4872 47.7164C18.4872 48.5066 19.1313 49.1472 19.9259 49.1472Z" fill="#FFEBC9"/>
<path d="M44.7433 56.265C45.2797 56.265 45.7145 55.8327 45.7145 55.2993C45.7145 54.7659 45.2797 54.3335 44.7433 54.3335C44.207 54.3335 43.7722 54.7659 43.7722 55.2993C43.7722 55.8327 44.207 56.265 44.7433 56.265Z" fill="#FFEBC9"/>
<path d="M42.3334 65.744C42.8698 65.744 43.3045 65.3117 43.3045 64.7783C43.3045 64.2449 42.8698 63.8125 42.3334 63.8125C41.7971 63.8125 41.3623 64.2449 41.3623 64.7783C41.3623 65.3117 41.7971 65.744 42.3334 65.744Z" fill="#FFEBC9"/>
<path d="M21.5804 60.0209C22.2359 60.0209 22.7673 59.4925 22.7673 58.8405C22.7673 58.1886 22.2359 57.6602 21.5804 57.6602C20.9248 57.6602 20.3934 58.1886 20.3934 58.8405C20.3934 59.4925 20.9248 60.0209 21.5804 60.0209Z" fill="#FFEBC9"/>
<path d="M28.522 60.5218C28.7803 60.5218 28.9896 60.3136 28.9896 60.0568C28.9896 59.8 28.7803 59.5918 28.522 59.5918C28.2638 59.5918 28.0544 59.8 28.0544 60.0568C28.0544 60.3136 28.2638 60.5218 28.522 60.5218Z" fill="#FFEBC9"/>
<path d="M30.6441 72.3613C32.3524 72.3613 33.7373 70.9841 33.7373 69.2851C33.7373 67.5862 32.3524 66.209 30.6441 66.209C28.9358 66.209 27.5509 67.5862 27.5509 69.2851C27.5509 70.9841 28.9358 72.3613 30.6441 72.3613Z" fill="#FFEBC9"/>
<path d="M56.4326 73.3271C57.0882 73.3271 57.6196 72.7986 57.6196 72.1467C57.6196 71.4948 57.0882 70.9663 56.4326 70.9663C55.7771 70.9663 55.2457 71.4948 55.2457 72.1467C55.2457 72.7986 55.7771 73.3271 56.4326 73.3271Z" fill="#FFEBC9"/>
<path d="M46.3978 76.654C47.8479 76.654 49.0234 75.4849 49.0234 74.0428C49.0234 72.6007 47.8479 71.4316 46.3978 71.4316C44.9477 71.4316 43.7722 72.6007 43.7722 74.0428C43.7722 75.4849 44.9477 76.654 46.3978 76.654Z" fill="#FFEBC9"/>
<path d="M80.9983 72.8621C80.9983 73.8994 80.1351 74.7579 79.0921 74.7579C78.049 74.7579 77.1858 73.8994 77.1858 72.8621C77.1858 71.8248 78.049 70.9663 79.0921 70.9663C80.1351 70.9663 80.9983 71.8248 80.9983 72.8621Z" fill="#FFEBC9"/>
<path d="M93.4071 56.2649C94.2016 56.2649 94.8458 55.6243 94.8458 54.8341C94.8458 54.0439 94.2016 53.4033 93.4071 53.4033C92.6125 53.4033 91.9684 54.0439 91.9684 54.8341C91.9684 55.6243 92.6125 56.2649 93.4071 56.2649Z" fill="#FFEBC9"/>
<path d="M89.5945 70.9667C91.1837 70.9667 92.4719 69.6856 92.4719 68.1052C92.4719 66.5248 91.1837 65.2437 89.5945 65.2437C88.0054 65.2437 86.7172 66.5248 86.7172 68.1052C86.7172 69.6856 88.0054 70.9667 89.5945 70.9667Z" fill="#FFEBC9"/>
<path d="M102.003 73.792C103.056 73.792 103.909 72.9433 103.909 71.8963C103.909 70.8493 103.056 70.0005 102.003 70.0005C100.95 70.0005 100.097 70.8493 100.097 71.8963C100.097 72.9433 100.95 73.792 102.003 73.792Z" fill="#FFEBC9"/>
<path d="M105.816 65.279C106.61 65.279 107.254 64.6384 107.254 63.8483C107.254 63.0581 106.61 62.4175 105.816 62.4175C105.021 62.4175 104.377 63.0581 104.377 63.8483C104.377 64.6384 105.021 65.279 105.816 65.279Z" fill="#FFEBC9"/>
<path d="M102.938 44.3896C103.475 44.3896 103.91 43.9572 103.91 43.4238C103.91 42.8904 103.475 42.458 102.938 42.458C102.402 42.458 101.967 42.8904 101.967 43.4238C101.967 43.9572 102.402 44.3896 102.938 44.3896Z" fill="#FFEBC9"/>
<path d="M92.9395 35.8409C93.9923 35.8409 94.8457 34.9921 94.8457 33.9451C94.8457 32.8981 93.9923 32.0493 92.9395 32.0493C91.8867 32.0493 91.0332 32.8981 91.0332 33.9451C91.0332 34.9921 91.8867 35.8409 92.9395 35.8409Z" fill="#FFEBC9"/>
<path d="M48.5559 63.8489C49.3504 63.8489 49.9946 63.2083 49.9946 62.4181C49.9946 61.6279 49.3504 60.9873 48.5559 60.9873C47.7613 60.9873 47.1172 61.6279 47.1172 62.4181C47.1172 63.2083 47.7613 63.8489 48.5559 63.8489Z" fill="#FFEBC9"/>
<path d="M35.6795 53.869C36.9905 53.869 38.0533 52.8121 38.0533 51.5082C38.0533 50.2044 36.9905 49.1475 35.6795 49.1475C34.3685 49.1475 33.3057 50.2044 33.3057 51.5082C33.3057 52.8121 34.3685 53.869 35.6795 53.869Z" fill="#FFEBC9"/>
<path d="M45.6784 30.6537C46.2147 30.6537 46.6495 30.2213 46.6495 29.6879C46.6495 29.1546 46.2147 28.7222 45.6784 28.7222C45.1421 28.7222 44.7073 29.1546 44.7073 29.6879C44.7073 30.2213 45.1421 30.6537 45.6784 30.6537Z" fill="#FFEBC9"/>
<path d="M37.8016 21.1398C39.2517 21.1398 40.4273 19.9707 40.4273 18.5286C40.4273 17.0865 39.2517 15.9175 37.8016 15.9175C36.3516 15.9175 35.176 17.0865 35.176 18.5286C35.176 19.9707 36.3516 21.1398 37.8016 21.1398Z" fill="#FFEBC9"/>
<path d="M56.9002 18.2783C57.5557 18.2783 58.0871 17.7498 58.0871 17.0979C58.0871 16.446 57.5557 15.9175 56.9002 15.9175C56.2447 15.9175 55.7133 16.446 55.7133 17.0979C55.7133 17.7498 56.2447 18.2783 56.9002 18.2783Z" fill="#FFEBC9"/>
<path d="M64.0577 20.2098C65.2495 20.2098 66.2157 19.2489 66.2157 18.0636C66.2157 16.8783 65.2495 15.9175 64.0577 15.9175C62.8658 15.9175 61.8997 16.8783 61.8997 18.0636C61.8997 19.2489 62.8658 20.2098 64.0577 20.2098Z" fill="#FFEBC9"/>
<path d="M75.0278 24.4302C76.7361 24.4302 78.1209 23.0529 78.1209 21.354C78.1209 19.6551 76.7361 18.2778 75.0278 18.2778C73.3194 18.2778 71.9346 19.6551 71.9346 21.354C71.9346 23.0529 73.3194 24.4302 75.0278 24.4302Z" fill="#FFEBC9"/>
<path d="M80.7467 14.9876C81.9385 14.9876 82.9047 14.0268 82.9047 12.8415C82.9047 11.6562 81.9385 10.6953 80.7467 10.6953C79.5548 10.6953 78.5886 11.6562 78.5886 12.8415C78.5886 14.0268 79.5548 14.9876 80.7467 14.9876Z" fill="#FFEBC9"/>
<path d="M89.5947 25.4325C90.131 25.4325 90.5658 25.0001 90.5658 24.4668C90.5658 23.9334 90.131 23.501 89.5947 23.501C89.0583 23.501 88.6235 23.9334 88.6235 24.4668C88.6235 25.0001 89.0583 25.4325 89.5947 25.4325Z" fill="#FFEBC9"/>
<path d="M99.5934 27.7562C100.904 27.7562 101.967 26.6993 101.967 25.3954C101.967 24.0916 100.904 23.0347 99.5934 23.0347C98.2824 23.0347 97.2196 24.0916 97.2196 25.3954C97.2196 26.6993 98.2824 27.7562 99.5934 27.7562Z" fill="#FFEBC9"/>
<path d="M94.1264 47.2156C95.0402 47.2156 95.7809 46.4789 95.7809 45.5702C95.7809 44.6615 95.0402 43.9248 94.1264 43.9248C93.2127 43.9248 92.4719 44.6615 92.4719 45.5702C92.4719 46.4789 93.2127 47.2156 94.1264 47.2156Z" fill="#FFEBC9"/>
<path d="M102.003 49.612C102.798 49.612 103.442 48.9715 103.442 48.1813C103.442 47.3911 102.798 46.7505 102.003 46.7505C101.209 46.7505 100.565 47.3911 100.565 48.1813C100.565 48.9715 101.209 49.612 102.003 49.612Z" fill="#FFEBC9"/>
<path d="M110.492 41.3854C110.968 41.3854 111.355 41.001 111.355 40.5269C111.355 40.0528 110.968 39.6685 110.492 39.6685C110.015 39.6685 109.628 40.0528 109.628 40.5269C109.628 41.001 110.015 41.3854 110.492 41.3854Z" fill="#FFEBC9"/>
<path d="M114.412 35.8412C115.723 35.8412 116.786 34.7842 116.786 33.4804C116.786 32.1766 115.723 31.1196 114.412 31.1196C113.101 31.1196 112.038 32.1766 112.038 33.4804C112.038 34.7842 113.101 35.8412 114.412 35.8412Z" fill="#FFEBC9"/>
<path d="M14.4229 42.9588C15.6148 42.9588 16.581 41.998 16.581 40.8127C16.581 39.6274 15.6148 38.6665 14.4229 38.6665C13.2311 38.6665 12.2649 39.6274 12.2649 40.8127C12.2649 41.998 13.2311 42.9588 14.4229 42.9588Z" fill="#FFEBC9"/>
<path d="M22.0839 25.8611C22.9977 25.8611 23.7384 25.1244 23.7384 24.2157C23.7384 23.307 22.9977 22.5703 22.0839 22.5703C21.1702 22.5703 20.4294 23.307 20.4294 24.2157C20.4294 25.1244 21.1702 25.8611 22.0839 25.8611Z" fill="#FFEBC9"/>
<path d="M32.5505 34.8748C33.4642 34.8748 34.205 34.1381 34.205 33.2294C34.205 32.3206 33.4642 31.584 32.5505 31.584C31.6367 31.584 30.896 32.3206 30.896 33.2294C30.896 34.1381 31.6367 34.8748 32.5505 34.8748Z" fill="#FFEBC9"/>
<path d="M32.5504 41.0631C32.9477 41.0631 33.2697 40.7428 33.2697 40.3477C33.2697 39.9526 32.9477 39.6323 32.5504 39.6323C32.1531 39.6323 31.8311 39.9526 31.8311 40.3477C31.8311 40.7428 32.1531 41.0631 32.5504 41.0631Z" fill="#FFEBC9"/>
<path d="M29.7089 50.0765C30.9008 50.0765 31.867 49.1156 31.867 47.9303C31.867 46.745 30.9008 45.7842 29.7089 45.7842C28.5171 45.7842 27.5509 46.745 27.5509 47.9303C27.5509 49.1156 28.5171 50.0765 29.7089 50.0765Z" fill="#FFEBC9"/>
<path d="M57.152 68.105C58.2048 68.105 59.0583 67.2563 59.0583 66.2093C59.0583 65.1622 58.2048 64.3135 57.152 64.3135C56.0992 64.3135 55.2457 65.1622 55.2457 66.2093C55.2457 67.2563 56.0992 68.105 57.152 68.105Z" fill="#FFEBC9"/>
<path d="M63.8061 70.0002C64.6007 70.0002 65.2448 69.3596 65.2448 68.5694C65.2448 67.7793 64.6007 67.1387 63.8061 67.1387C63.0116 67.1387 62.3674 67.7793 62.3674 68.5694C62.3674 69.3596 63.0116 70.0002 63.8061 70.0002Z" fill="#FFEBC9"/>
<path d="M66.2157 79.98C67.2685 79.98 68.122 79.1313 68.122 78.0843C68.122 77.0372 67.2685 76.1885 66.2157 76.1885C65.1629 76.1885 64.3094 77.0372 64.3094 78.0843C64.3094 79.1313 65.1629 79.98 66.2157 79.98Z" fill="#FFEBC9"/>
<path d="M72.1505 66.6741C73.0642 66.6741 73.805 65.9374 73.805 65.0287C73.805 64.12 73.0642 63.3833 72.1505 63.3833C71.2367 63.3833 70.496 64.12 70.496 65.0287C70.496 65.9374 71.2367 66.6741 72.1505 66.6741Z" fill="#FFEBC9"/>
<path d="M83.8398 64.3133C84.098 64.3133 84.3073 64.1051 84.3073 63.8483C84.3073 63.5915 84.098 63.3833 83.8398 63.3833C83.5815 63.3833 83.3722 63.5915 83.3722 63.8483C83.3722 64.1051 83.5815 64.3133 83.8398 64.3133Z" fill="#FFEBC9"/>
<path d="M48.7717 25.8968C49.9635 25.8968 50.9297 24.9359 50.9297 23.7507C50.9297 22.5654 49.9635 21.6045 48.7717 21.6045C47.5798 21.6045 46.6136 22.5654 46.6136 23.7507C46.6136 24.9359 47.5798 25.8968 48.7717 25.8968Z" fill="#FFEBC9"/>
<path d="M41.6141 46.2853C43.0642 46.2853 44.2398 45.1163 44.2398 43.6741C44.2398 42.232 43.0642 41.063 41.6141 41.063C40.1641 41.063 38.9885 42.232 38.9885 43.6741C38.9885 45.1163 40.1641 46.2853 41.6141 46.2853Z" fill="#FFEBC9"/>
<path d="M113.765 58.9114C114.917 58.9114 115.851 57.9826 115.851 56.8368C115.851 55.691 114.917 54.7622 113.765 54.7622C112.612 54.7622 111.678 55.691 111.678 56.8368C111.678 57.9826 112.612 58.9114 113.765 58.9114Z" fill="#FFEBC9"/>
<path d="M107.47 25.8966C107.868 25.8966 108.19 25.5763 108.19 25.1812C108.19 24.7861 107.868 24.4658 107.47 24.4658C107.073 24.4658 106.751 24.7861 106.751 25.1812C106.751 25.5763 107.073 25.8966 107.47 25.8966Z" fill="#FFEBC9"/>
<path d="M99.5934 34.9105C100.13 34.9105 100.565 34.4782 100.565 33.9448C100.565 33.4114 100.13 32.979 99.5934 32.979C99.0571 32.979 98.6223 33.4114 98.6223 33.9448C98.6223 34.4782 99.0571 34.9105 99.5934 34.9105Z" fill="#FFEBC9"/>
<path d="M93.1553 17.8131C94.6054 17.8131 95.7809 16.6441 95.7809 15.202C95.7809 13.7599 94.6054 12.5908 93.1553 12.5908C91.7052 12.5908 90.5297 13.7599 90.5297 15.202C90.5297 16.6441 91.7052 17.8131 93.1553 17.8131Z" fill="#FFEBC9"/>
<path d="M86.9689 19.2436C87.6244 19.2436 88.1558 18.7151 88.1558 18.0632C88.1558 17.4113 87.6244 16.8828 86.9689 16.8828C86.3134 16.8828 85.782 17.4113 85.782 18.0632C85.782 18.7151 86.3134 19.2436 86.9689 19.2436Z" fill="#FFEBC9"/>
<path d="M63.5903 12.5913C65.2986 12.5913 66.6834 11.214 66.6834 9.51513C66.6834 7.81621 65.2986 6.43896 63.5903 6.43896C61.8819 6.43896 60.4971 7.81621 60.4971 9.51513C60.4971 11.214 61.8819 12.5913 63.5903 12.5913Z" fill="#FFEBC9"/>
<path d="M71.9706 22.964C71.9706 22.964 54.7422 21.0682 48.2681 31.0479C41.83 41.0275 45.3907 61.273 62.6191 62.4534C79.8474 63.6338 88.9471 56.0149 90.134 47.466C91.3569 38.9171 91.8245 24.1444 71.9706 22.964Z" fill="#CB0008"/>
<path d="M64.5614 23.1786C64.5614 23.1786 54.023 27.4709 53.0878 37.236C52.1527 47.001 59.0584 56.5156 71.5031 54.8345C83.9478 53.1533 88.7314 44.1394 84.4153 35.8052C80.0992 27.4709 67.6546 25.3248 64.5614 32.2282C61.4682 39.1317 62.8709 44.3541 68.1581 45.0694C73.4093 45.7848 75.5674 44.8191 73.4093 40.5625C71.2513 36.2702 75.5674 36.9856 77.7254 39.1317C79.8834 41.2779 78.4448 46.7506 72.69 47.7164C66.9352 48.6821 62.1516 45.8206 59.7777 40.5625C57.3679 35.3402 61.2164 27.9359 66.0001 25.5751C70.7837 23.2144 71.9706 22.964 71.9706 22.964C71.9706 22.964 67.6546 21.5332 64.5614 23.1786Z" fill="#ED2A00"/>
<path d="M52.8001 48.5388C52.8001 48.5388 55.2099 52.9742 60.3172 55.0131C61.8279 55.6211 61.5042 60.4858 58.1952 60.2712C54.8862 60.0208 51.1816 56.1219 48.5919 51.9011C46.0023 47.6804 46.0023 40.1688 47.6568 37.343C49.2753 34.5172 50.1745 43.6026 52.8001 48.5388Z" fill="#ED2A00"/>
<path d="M82.4371 51.9015C82.4371 51.9015 77.9771 54.9419 73.4093 55.7288C68.8414 56.5515 71.0714 59.5561 76.0349 59.27C80.9984 58.9838 84.0556 56.3369 84.8828 53.9046C85.6741 51.4723 84.2714 50.2561 82.4371 51.9015Z" fill="#ED2A00"/>
<path d="M79.8833 25.8257C79.8833 25.8257 77.9411 25.8257 77.6534 27.0418C77.3656 28.258 83.1204 30.2611 84.2354 33.8022C85.3504 37.3434 87.976 35.8053 87.7962 32.6934C87.6163 29.5815 83.0485 25.8257 79.8833 25.8257Z" fill="#ED2A00"/>
<path d="M58.0152 44.855C56.7564 44.855 57.0801 46.5361 57.0801 46.5361C57.8713 50.9 63.0866 53.1177 66.3237 53.1177C66.4675 53.1177 66.6114 53.1177 66.7553 53.1177C69.9204 52.9031 73.3373 49.97 68.0861 49.5765C62.7989 49.1831 59.346 45.2484 59.346 45.2484C58.7346 44.9623 58.3389 44.855 58.0152 44.855Z" fill="#F26939"/>
<path d="M72.6539 28.3652C71.5389 28.3652 70.316 28.5083 69.0572 28.866C69.0572 28.866 64.5972 29.9749 63.77 36.1272C63.0147 41.886 65.928 44.4614 69.0572 44.4614C69.4888 44.4614 69.9204 44.4257 70.388 44.3184C73.9487 43.5314 72.4021 41.7787 70.6038 39.883C68.7694 37.9514 69.7046 34.2314 72.1144 32.121C72.546 31.7633 73.1215 31.5845 73.8049 31.5845C77.1498 31.5845 82.8686 35.5549 82.8686 40.9918C82.8686 43.8534 83.4081 44.998 83.9476 44.998C84.703 44.998 85.4942 43.1022 85.3863 40.5983C85.2065 36.6637 80.9264 28.3652 72.6539 28.3652Z" fill="#F26939"/>
<path d="M55.4255 7.61912C51.9726 8.54913 49.7067 10.5522 49.0952 13.2349C47.8364 18.7434 45.8582 22.8926 40.3552 25.4323L36.6146 27.0419C31.4353 29.188 26.5797 31.2269 24.2418 35.8769C23.1268 37.4865 22.0118 40.1692 22.0118 43.3169C22.0118 46.4646 23.1268 50.0773 26.4718 53.5112L26.7236 53.7973L27.0473 53.9762C29.4571 55.2639 32.5862 58.9481 32.5862 63.4908C32.5862 63.8843 32.5503 64.2778 32.5143 64.6712C32.4783 65.1005 32.4424 65.5297 32.4424 65.9232C32.4424 69.5716 34.2407 73.4705 37.262 76.0816C40.4631 78.8717 44.3835 79.8732 48.3759 78.8717C50.7497 78.2636 52.9797 77.3693 54.886 76.5824C59.8135 74.5793 62.547 73.6493 65.7121 76.0816C70.3159 79.587 79.02 81.8763 85.0625 79.444C88.1557 78.192 90.1339 75.7597 90.6015 72.6478C92.1121 62.3105 97.1475 60.987 100.744 60.8797C105.24 60.7366 109.304 58.4474 111.606 54.7631C113.549 51.6512 113.944 48.0742 112.649 45.1769C112.038 43.8177 111.319 42.6015 110.599 41.3854C108.657 38.0946 106.823 35.0184 107.146 29.4027C107.398 25.1461 105.744 21.3546 102.543 18.7434C98.9459 15.8103 93.9105 14.6657 89.3426 15.8103C82.9764 17.3842 78.5165 16.2395 74.4162 11.9472C70.1361 7.40451 61.1443 6.08104 55.4255 7.61912ZM26.7955 43.3169C26.7955 40.7058 28.0184 38.81 28.2342 38.4881L28.3421 38.345L28.45 38.1661C29.9606 35.0184 33.917 33.373 38.4849 31.4415L42.3693 29.7603C50.0663 26.2192 52.4402 19.9953 53.735 14.3438C54.0227 13.1276 55.7132 12.4838 56.6843 12.2334C61.2522 10.9814 68.3377 12.448 70.9993 15.2022C76.3225 20.7465 82.5088 22.3919 90.5295 20.3888C93.5868 19.6376 97.1116 20.4245 99.5214 22.3919C100.96 23.5723 102.615 25.6826 102.399 29.1523C102.003 36.2346 104.413 40.2765 106.535 43.8177C107.218 44.9623 107.866 46.0354 108.369 47.1442C109.017 48.575 108.729 50.5423 107.65 52.295C106.931 53.4039 104.845 56.0508 100.672 56.1939C94.9895 56.3727 87.832 59.2701 85.9257 72.0397C85.7099 73.542 84.8827 74.5078 83.3001 75.1516C79.4876 76.6897 72.5099 75.3663 68.6614 72.4332C63.1584 68.2124 58.0511 70.3228 53.1236 72.3259C51.2533 73.077 49.311 73.8997 47.2609 74.4005C43.9879 75.2232 41.614 73.6493 40.4631 72.6478C38.4849 70.8951 37.262 68.3555 37.262 66.0305C37.262 65.7801 37.262 65.5297 37.2979 65.3151C37.3699 64.7428 37.4058 64.1705 37.4058 63.5981C37.4058 57.6604 33.7372 52.4739 29.8167 50.1489C27.5148 47.645 26.7955 45.2842 26.7955 43.3169Z" fill="#FBB95D"/>
<path d="M48.0524 20.6747C48.0524 20.6747 42.7292 26.7912 38.1973 27.9001C33.7014 29.0089 23.5227 33.6232 23.3428 40.8486C23.127 48.074 24.0622 41.4566 26.0044 37.8082C27.9467 34.1239 32.7663 32.0135 37.2622 30.8689C41.7581 29.7601 48.3401 27.1131 50.2824 20.9966C52.2246 14.88 53.5554 11.1242 55.8213 9.58617C58.0873 8.04808 53.0518 8.87078 50.714 12.555C48.3401 16.2035 48.9516 19.4585 48.0524 20.6747Z" fill="#FDD89B"/>
<path d="M40.2474 73.4695C40.2474 73.4695 43.6283 76.7245 50.3901 73.5768C54.7062 71.4306 62.583 68.7837 66.2877 71.3233C69.9923 73.8629 74.2724 76.331 79.8114 76.331C85.3503 76.331 81.9694 78.978 77.0419 78.8707C72.1144 78.7633 69.0572 77.3326 66.3956 75.0076C63.734 72.6468 61.6839 73.4695 57.08 74.6856C52.4762 75.9018 47.1531 78.3699 42.5133 76.4026C37.9095 74.5068 38.6288 72.4679 40.2474 73.4695Z" fill="#FDD89B"/>
<path d="M101.14 56.8729C101.14 56.8729 93.2632 56.3721 90.3858 61.7733C87.5084 67.1745 91.5008 64.6349 93.2632 62.2741C94.9896 59.9133 99.4136 59.4125 102.399 58.3037C105.348 57.1591 102.866 56.7656 101.14 56.8729Z" fill="#FDD89B"/>
<path d="M103.298 28.222C103.298 28.222 101.967 33.1224 103.802 37.7008C105.636 42.2793 107.578 40.3478 106.679 36.1628C105.744 31.9777 105.852 28.4008 105.852 28.1147C105.852 27.7927 104.629 24.7523 103.298 28.222Z" fill="#FDD89B"/>
</svg>
